%TF.GenerationSoftware,KiCad,Pcbnew,6.0.10+dfsg-1~bpo11+1*%
%TF.CreationDate,2023-02-11T00:37:47+00:00*%
%TF.ProjectId,ISO11446PWR01,49534f31-3134-4343-9650-575230312e6b,rev?*%
%TF.SameCoordinates,Original*%
%TF.FileFunction,Legend,Bot*%
%TF.FilePolarity,Positive*%
%FSLAX46Y46*%
G04 Gerber Fmt 4.6, Leading zero omitted, Abs format (unit mm)*
G04 Created by KiCad (PCBNEW 6.0.10+dfsg-1~bpo11+1) date 2023-02-11 00:37:47*
%MOMM*%
%LPD*%
G01*
G04 APERTURE LIST*
%ADD10C,0.150000*%
%ADD11C,0.120000*%
G04 APERTURE END LIST*
D10*
%TO.C,C1*%
X10326666Y11482858D02*
X10374285Y11435239D01*
X10517142Y11387620D01*
X10612380Y11387620D01*
X10755238Y11435239D01*
X10850476Y11530477D01*
X10898095Y11625715D01*
X10945714Y11816191D01*
X10945714Y11959048D01*
X10898095Y12149524D01*
X10850476Y12244762D01*
X10755238Y12340000D01*
X10612380Y12387620D01*
X10517142Y12387620D01*
X10374285Y12340000D01*
X10326666Y12292381D01*
X9374285Y11387620D02*
X9945714Y11387620D01*
X9660000Y11387620D02*
X9660000Y12387620D01*
X9755238Y12244762D01*
X9850476Y12149524D01*
X9945714Y12101905D01*
%TO.C,D1*%
X21058095Y18415480D02*
X21058095Y19415480D01*
X20820000Y19415480D01*
X20677142Y19367860D01*
X20581904Y19272622D01*
X20534285Y19177384D01*
X20486666Y18986908D01*
X20486666Y18844051D01*
X20534285Y18653575D01*
X20581904Y18558337D01*
X20677142Y18463099D01*
X20820000Y18415480D01*
X21058095Y18415480D01*
X19534285Y18415480D02*
X20105714Y18415480D01*
X19820000Y18415480D02*
X19820000Y19415480D01*
X19915238Y19272622D01*
X20010476Y19177384D01*
X20105714Y19129765D01*
%TO.C,C2*%
X10326666Y27172858D02*
X10374285Y27125239D01*
X10517142Y27077620D01*
X10612380Y27077620D01*
X10755238Y27125239D01*
X10850476Y27220477D01*
X10898095Y27315715D01*
X10945714Y27506191D01*
X10945714Y27649048D01*
X10898095Y27839524D01*
X10850476Y27934762D01*
X10755238Y28030000D01*
X10612380Y28077620D01*
X10517142Y28077620D01*
X10374285Y28030000D01*
X10326666Y27982381D01*
X9945714Y27982381D02*
X9898095Y28030000D01*
X9802857Y28077620D01*
X9564761Y28077620D01*
X9469523Y28030000D01*
X9421904Y27982381D01*
X9374285Y27887143D01*
X9374285Y27791905D01*
X9421904Y27649048D01*
X9993333Y27077620D01*
X9374285Y27077620D01*
D11*
%TO.C,C1*%
X10421252Y9425000D02*
X9898748Y9425000D01*
X10421252Y10895000D02*
X9898748Y10895000D01*
%TO.C,D1*%
X23720000Y18017860D02*
X23720000Y14717860D01*
X23720000Y18017860D02*
X18320000Y18017860D01*
X23720000Y14717860D02*
X18320000Y14717860D01*
%TO.C,C2*%
X10421252Y25115000D02*
X9898748Y25115000D01*
X10421252Y26585000D02*
X9898748Y26585000D01*
%TD*%
M02*
