M48
; DRILL file {KiCad 6.0.10+dfsg-1~bpo11+1} date Thu Feb 16 18:38:30 2023
; FORMAT={-:-/ absolute / metric / decimal}
; #@! TF.CreationDate,2023-02-16T18:38:30+00:00
; #@! TF.GenerationSoftware,Kicad,Pcbnew,6.0.10+dfsg-1~bpo11+1
; #@! TF.FileFunction,Plated,1,2,PTH
FMAT,2
METRIC
; #@! TA.AperFunction,Plated,PTH,ComponentDrill
T1C0.889
; #@! TA.AperFunction,Plated,PTH,ComponentDrill
T2C1.200
; #@! TA.AperFunction,Plated,PTH,ComponentDrill
T3C1.300
; #@! TA.AperFunction,Plated,PTH,ComponentDrill
T4C3.000
; #@! TA.AperFunction,Plated,PTH,ComponentDrill
T5C3.900
%
G90
G05
T1
X9.816Y48.543
X9.816Y46.003
X12.356Y48.543
X12.356Y46.003
X14.896Y48.543
X14.896Y46.003
X31.914Y-26.641
X31.914Y-29.181
X34.454Y-26.641
X34.454Y-29.181
X36.994Y-26.641
X36.994Y-29.181
X39.534Y-26.641
X39.534Y-29.181
X44.9Y-26.704
X44.9Y-29.244
X47.44Y-26.704
X47.44Y-29.244
X49.98Y-26.704
X49.98Y-29.244
X52.52Y-26.704
X52.52Y-29.244
X57.822Y-26.768
X57.822Y-29.308
X60.362Y-26.768
X60.362Y-29.308
X61.124Y49.559
X61.124Y47.019
X61.124Y44.479
X61.124Y41.939
X61.124Y39.399
X61.124Y36.859
X61.124Y34.319
X62.902Y-26.768
X62.902Y-29.308
X63.664Y49.559
X63.664Y47.019
X63.664Y44.479
X63.664Y41.939
X63.664Y39.399
X63.664Y36.859
X63.664Y34.319
X65.442Y-26.768
X65.442Y-29.308
T2
X22.257Y33.684
X22.262Y44.098
X22.314Y21.968
X24.949Y11.776
X28.251Y1.489
X28.303Y-9.402
X28.303Y-19.561
X52.737Y33.684
X52.742Y44.098
X52.794Y21.968
X55.429Y11.776
X58.731Y1.489
X58.783Y-9.402
X58.783Y-19.561
T3
X6.238Y40.224
X6.238Y35.145
X6.238Y30.064
X6.238Y24.985
X6.238Y19.904
X6.238Y14.824
X6.238Y9.745
X6.238Y4.664
X6.238Y-0.415
X6.238Y-5.495
X6.238Y-10.575
X6.238Y-15.655
X6.238Y-20.735
X11.238Y40.224
X11.238Y35.145
X11.238Y30.064
X11.238Y24.985
X11.238Y19.904
X11.238Y14.824
X11.238Y9.745
X11.238Y4.664
X11.238Y-0.415
X11.238Y-5.495
X11.238Y-10.575
X11.238Y-15.655
X11.238Y-20.735
X13.88Y-27.753
X13.88Y-32.96
X18.88Y-27.753
X18.88Y-32.96
X64.451Y26.381
X64.451Y21.302
X69.451Y26.381
X69.451Y21.302
T4
X0.926Y47.654
X0.926Y-33.626
X72.046Y47.654
X72.046Y-33.626
T5
X64.912Y11.862
X64.912Y3.462
X64.912Y-9.238
X64.912Y-17.638
T0
M30
