%TF.GenerationSoftware,KiCad,Pcbnew,6.0.10+dfsg-1~bpo11+1*%
%TF.CreationDate,2023-02-16T19:13:54+00:00*%
%TF.ProjectId,ISO11446PWR01,49534f31-3134-4343-9650-575230312e6b,rev?*%
%TF.SameCoordinates,Original*%
%TF.FileFunction,Legend,Top*%
%TF.FilePolarity,Positive*%
%FSLAX46Y46*%
G04 Gerber Fmt 4.6, Leading zero omitted, Abs format (unit mm)*
G04 Created by KiCad (PCBNEW 6.0.10+dfsg-1~bpo11+1) date 2023-02-16 19:13:54*
%MOMM*%
%LPD*%
G01*
G04 APERTURE LIST*
%ADD10C,0.304800*%
%ADD11C,0.150000*%
%ADD12C,0.050000*%
%ADD13C,0.120000*%
%ADD14R,1.524000X1.524000*%
G04 APERTURE END LIST*
D10*
%TO.C,J3*%
X13785428Y29906500D02*
X14874000Y29906500D01*
X15091714Y29833929D01*
X15236857Y29688786D01*
X15309428Y29471072D01*
X15309428Y29325929D01*
X13785428Y30487072D02*
X13785428Y31430500D01*
X14366000Y30922500D01*
X14366000Y31140215D01*
X14438571Y31285358D01*
X14511142Y31357929D01*
X14656285Y31430500D01*
X15019142Y31430500D01*
X15164285Y31357929D01*
X15236857Y31285358D01*
X15309428Y31140215D01*
X15309428Y30704786D01*
X15236857Y30559643D01*
X15164285Y30487072D01*
%TO.C,J4*%
X13785428Y24826500D02*
X14874000Y24826500D01*
X15091714Y24753929D01*
X15236857Y24608786D01*
X15309428Y24391072D01*
X15309428Y24245929D01*
X14293428Y26205358D02*
X15309428Y26205358D01*
X13712857Y25842500D02*
X14801428Y25479643D01*
X14801428Y26423072D01*
D11*
%TO.C,J21*%
X67192142Y34506429D02*
X67263571Y34720715D01*
X67263571Y35077858D01*
X67192142Y35220715D01*
X67120714Y35292143D01*
X66977857Y35363572D01*
X66835000Y35363572D01*
X66692142Y35292143D01*
X66620714Y35220715D01*
X66549285Y35077858D01*
X66477857Y34792143D01*
X66406428Y34649286D01*
X66335000Y34577858D01*
X66192142Y34506429D01*
X66049285Y34506429D01*
X65906428Y34577858D01*
X65835000Y34649286D01*
X65763571Y34792143D01*
X65763571Y35149286D01*
X65835000Y35363572D01*
X67263571Y36006429D02*
X66263571Y36006429D01*
X65763571Y36006429D02*
X65835000Y35935000D01*
X65906428Y36006429D01*
X65835000Y36077858D01*
X65763571Y36006429D01*
X65906428Y36006429D01*
X66263571Y37363572D02*
X67477857Y37363572D01*
X67620714Y37292143D01*
X67692142Y37220715D01*
X67763571Y37077858D01*
X67763571Y36863572D01*
X67692142Y36720715D01*
X67192142Y37363572D02*
X67263571Y37220715D01*
X67263571Y36935000D01*
X67192142Y36792143D01*
X67120714Y36720715D01*
X66977857Y36649286D01*
X66549285Y36649286D01*
X66406428Y36720715D01*
X66335000Y36792143D01*
X66263571Y36935000D01*
X66263571Y37220715D01*
X66335000Y37363572D01*
X66263571Y38077858D02*
X67263571Y38077858D01*
X66406428Y38077858D02*
X66335000Y38149286D01*
X66263571Y38292143D01*
X66263571Y38506429D01*
X66335000Y38649286D01*
X66477857Y38720715D01*
X67263571Y38720715D01*
X67263571Y40077858D02*
X66477857Y40077858D01*
X66335000Y40006429D01*
X66263571Y39863572D01*
X66263571Y39577858D01*
X66335000Y39435000D01*
X67192142Y40077858D02*
X67263571Y39935000D01*
X67263571Y39577858D01*
X67192142Y39435000D01*
X67049285Y39363572D01*
X66906428Y39363572D01*
X66763571Y39435000D01*
X66692142Y39577858D01*
X66692142Y39935000D01*
X66620714Y40077858D01*
X67263571Y41006429D02*
X67192142Y40863572D01*
X67049285Y40792143D01*
X65763571Y40792143D01*
X67192142Y42649286D02*
X67263571Y42863572D01*
X67263571Y43220715D01*
X67192142Y43363572D01*
X67120714Y43435000D01*
X66977857Y43506429D01*
X66835000Y43506429D01*
X66692142Y43435000D01*
X66620714Y43363572D01*
X66549285Y43220715D01*
X66477857Y42935000D01*
X66406428Y42792143D01*
X66335000Y42720715D01*
X66192142Y42649286D01*
X66049285Y42649286D01*
X65906428Y42720715D01*
X65835000Y42792143D01*
X65763571Y42935000D01*
X65763571Y43292143D01*
X65835000Y43506429D01*
X66263571Y44006429D02*
X67263571Y44363572D01*
X66263571Y44720715D01*
X67192142Y45863572D02*
X67263571Y45720715D01*
X67263571Y45435000D01*
X67192142Y45292143D01*
X67049285Y45220715D01*
X66477857Y45220715D01*
X66335000Y45292143D01*
X66263571Y45435000D01*
X66263571Y45720715D01*
X66335000Y45863572D01*
X66477857Y45935000D01*
X66620714Y45935000D01*
X66763571Y45220715D01*
X65692142Y45292143D02*
X65906428Y45577858D01*
X65692142Y45863572D01*
X66263571Y46363572D02*
X66263571Y46935000D01*
X65763571Y46577858D02*
X67049285Y46577858D01*
X67192142Y46649286D01*
X67263571Y46792143D01*
X67263571Y46935000D01*
X67192142Y48006429D02*
X67263571Y47863572D01*
X67263571Y47577858D01*
X67192142Y47435000D01*
X67049285Y47363572D01*
X66477857Y47363572D01*
X66335000Y47435000D01*
X66263571Y47577858D01*
X66263571Y47863572D01*
X66335000Y48006429D01*
X66477857Y48077858D01*
X66620714Y48077858D01*
X66763571Y47363572D01*
X67263571Y48935000D02*
X67192142Y48792143D01*
X67049285Y48720715D01*
X65763571Y48720715D01*
D12*
X59615857Y49332810D02*
X59330142Y49332810D01*
X59473000Y49332810D02*
X59473000Y49832810D01*
X59425380Y49761381D01*
X59377761Y49713762D01*
X59330142Y49689953D01*
D11*
%TO.C,R5*%
X40022333Y15644120D02*
X39689000Y16120310D01*
X39450904Y15644120D02*
X39450904Y16644120D01*
X39831857Y16644120D01*
X39927095Y16596500D01*
X39974714Y16548881D01*
X40022333Y16453643D01*
X40022333Y16310786D01*
X39974714Y16215548D01*
X39927095Y16167929D01*
X39831857Y16120310D01*
X39450904Y16120310D01*
X40927095Y16644120D02*
X40450904Y16644120D01*
X40403285Y16167929D01*
X40450904Y16215548D01*
X40546142Y16263167D01*
X40784238Y16263167D01*
X40879476Y16215548D01*
X40927095Y16167929D01*
X40974714Y16072691D01*
X40974714Y15834596D01*
X40927095Y15739358D01*
X40879476Y15691739D01*
X40784238Y15644120D01*
X40546142Y15644120D01*
X40450904Y15691739D01*
X40403285Y15739358D01*
D10*
%TO.C,J1*%
X13785428Y40066500D02*
X14874000Y40066500D01*
X15091714Y39993929D01*
X15236857Y39848786D01*
X15309428Y39631072D01*
X15309428Y39485929D01*
X15309428Y41590500D02*
X15309428Y40719643D01*
X15309428Y41155072D02*
X13785428Y41155072D01*
X14003142Y41009929D01*
X14148285Y40864786D01*
X14220857Y40719643D01*
D11*
%TO.C,R8*%
X43376333Y-15693880D02*
X43043000Y-15217690D01*
X42804904Y-15693880D02*
X42804904Y-14693880D01*
X43185857Y-14693880D01*
X43281095Y-14741500D01*
X43328714Y-14789119D01*
X43376333Y-14884357D01*
X43376333Y-15027214D01*
X43328714Y-15122452D01*
X43281095Y-15170071D01*
X43185857Y-15217690D01*
X42804904Y-15217690D01*
X43947761Y-15122452D02*
X43852523Y-15074833D01*
X43804904Y-15027214D01*
X43757285Y-14931976D01*
X43757285Y-14884357D01*
X43804904Y-14789119D01*
X43852523Y-14741500D01*
X43947761Y-14693880D01*
X44138238Y-14693880D01*
X44233476Y-14741500D01*
X44281095Y-14789119D01*
X44328714Y-14884357D01*
X44328714Y-14931976D01*
X44281095Y-15027214D01*
X44233476Y-15074833D01*
X44138238Y-15122452D01*
X43947761Y-15122452D01*
X43852523Y-15170071D01*
X43804904Y-15217690D01*
X43757285Y-15312928D01*
X43757285Y-15503404D01*
X43804904Y-15598642D01*
X43852523Y-15646261D01*
X43947761Y-15693880D01*
X44138238Y-15693880D01*
X44233476Y-15646261D01*
X44281095Y-15598642D01*
X44328714Y-15503404D01*
X44328714Y-15312928D01*
X44281095Y-15217690D01*
X44233476Y-15170071D01*
X44138238Y-15122452D01*
D12*
%TO.C,J19*%
X52745940Y-24910642D02*
X52745940Y-25196357D01*
X52745940Y-25053500D02*
X52245940Y-25053500D01*
X52317369Y-25101119D01*
X52364988Y-25148738D01*
X52388797Y-25196357D01*
D10*
%TO.C,J7*%
X13785428Y9586500D02*
X14874000Y9586500D01*
X15091714Y9513929D01*
X15236857Y9368786D01*
X15309428Y9151072D01*
X15309428Y9005929D01*
X13785428Y10167072D02*
X13785428Y11183072D01*
X15309428Y10529929D01*
%TO.C,J17*%
X21427428Y-33843714D02*
X22516000Y-33843714D01*
X22733714Y-33916285D01*
X22878857Y-34061428D01*
X22951428Y-34279142D01*
X22951428Y-34424285D01*
X22951428Y-32319714D02*
X22951428Y-33190571D01*
X22951428Y-32755142D02*
X21427428Y-32755142D01*
X21645142Y-32900285D01*
X21790285Y-33045428D01*
X21862857Y-33190571D01*
X21427428Y-31811714D02*
X21427428Y-30795714D01*
X22951428Y-31448857D01*
%TO.C,J13*%
X13785428Y-21619214D02*
X14874000Y-21619214D01*
X15091714Y-21691785D01*
X15236857Y-21836928D01*
X15309428Y-22054642D01*
X15309428Y-22199785D01*
X15309428Y-20095214D02*
X15309428Y-20966071D01*
X15309428Y-20530642D02*
X13785428Y-20530642D01*
X14003142Y-20675785D01*
X14148285Y-20820928D01*
X14220857Y-20966071D01*
X13785428Y-19587214D02*
X13785428Y-18643785D01*
X14366000Y-19151785D01*
X14366000Y-18934071D01*
X14438571Y-18788928D01*
X14511142Y-18716357D01*
X14656285Y-18643785D01*
X15019142Y-18643785D01*
X15164285Y-18716357D01*
X15236857Y-18788928D01*
X15309428Y-18934071D01*
X15309428Y-19369500D01*
X15236857Y-19514642D01*
X15164285Y-19587214D01*
D11*
%TO.C,R2*%
X37335333Y47965620D02*
X37002000Y48441810D01*
X36763904Y47965620D02*
X36763904Y48965620D01*
X37144857Y48965620D01*
X37240095Y48918000D01*
X37287714Y48870381D01*
X37335333Y48775143D01*
X37335333Y48632286D01*
X37287714Y48537048D01*
X37240095Y48489429D01*
X37144857Y48441810D01*
X36763904Y48441810D01*
X37716285Y48870381D02*
X37763904Y48918000D01*
X37859142Y48965620D01*
X38097238Y48965620D01*
X38192476Y48918000D01*
X38240095Y48870381D01*
X38287714Y48775143D01*
X38287714Y48679905D01*
X38240095Y48537048D01*
X37668666Y47965620D01*
X38287714Y47965620D01*
D10*
%TO.C,J15*%
X59654428Y24988286D02*
X60743000Y24988286D01*
X60960714Y24915715D01*
X61105857Y24770572D01*
X61178428Y24552858D01*
X61178428Y24407715D01*
X61178428Y26512286D02*
X61178428Y25641429D01*
X61178428Y26076858D02*
X59654428Y26076858D01*
X59872142Y25931715D01*
X60017285Y25786572D01*
X60089857Y25641429D01*
X59654428Y27891143D02*
X59654428Y27165429D01*
X60380142Y27092858D01*
X60307571Y27165429D01*
X60235000Y27310572D01*
X60235000Y27673429D01*
X60307571Y27818572D01*
X60380142Y27891143D01*
X60525285Y27963715D01*
X60888142Y27963715D01*
X61033285Y27891143D01*
X61105857Y27818572D01*
X61178428Y27673429D01*
X61178428Y27310572D01*
X61105857Y27165429D01*
X61033285Y27092858D01*
%TO.C,J5*%
X13785428Y19746500D02*
X14874000Y19746500D01*
X15091714Y19673929D01*
X15236857Y19528786D01*
X15309428Y19311072D01*
X15309428Y19165929D01*
X13785428Y21197929D02*
X13785428Y20472215D01*
X14511142Y20399643D01*
X14438571Y20472215D01*
X14366000Y20617358D01*
X14366000Y20980215D01*
X14438571Y21125358D01*
X14511142Y21197929D01*
X14656285Y21270500D01*
X15019142Y21270500D01*
X15164285Y21197929D01*
X15236857Y21125358D01*
X15309428Y20980215D01*
X15309428Y20617358D01*
X15236857Y20472215D01*
X15164285Y20399643D01*
%TO.C,J9*%
X13785428Y-573500D02*
X14874000Y-573500D01*
X15091714Y-646071D01*
X15236857Y-791214D01*
X15309428Y-1008928D01*
X15309428Y-1154071D01*
X15309428Y224786D02*
X15309428Y515072D01*
X15236857Y660215D01*
X15164285Y732786D01*
X14946571Y877929D01*
X14656285Y950500D01*
X14075714Y950500D01*
X13930571Y877929D01*
X13858000Y805358D01*
X13785428Y660215D01*
X13785428Y369929D01*
X13858000Y224786D01*
X13930571Y152215D01*
X14075714Y79643D01*
X14438571Y79643D01*
X14583714Y152215D01*
X14656285Y224786D01*
X14728857Y369929D01*
X14728857Y660215D01*
X14656285Y805358D01*
X14583714Y877929D01*
X14438571Y950500D01*
D11*
%TO.C,R6*%
X43324333Y5357120D02*
X42991000Y5833310D01*
X42752904Y5357120D02*
X42752904Y6357120D01*
X43133857Y6357120D01*
X43229095Y6309500D01*
X43276714Y6261881D01*
X43324333Y6166643D01*
X43324333Y6023786D01*
X43276714Y5928548D01*
X43229095Y5880929D01*
X43133857Y5833310D01*
X42752904Y5833310D01*
X44181476Y6357120D02*
X43991000Y6357120D01*
X43895761Y6309500D01*
X43848142Y6261881D01*
X43752904Y6119024D01*
X43705285Y5928548D01*
X43705285Y5547596D01*
X43752904Y5452358D01*
X43800523Y5404739D01*
X43895761Y5357120D01*
X44086238Y5357120D01*
X44181476Y5404739D01*
X44229095Y5452358D01*
X44276714Y5547596D01*
X44276714Y5785691D01*
X44229095Y5880929D01*
X44181476Y5928548D01*
X44086238Y5976167D01*
X43895761Y5976167D01*
X43800523Y5928548D01*
X43752904Y5880929D01*
X43705285Y5785691D01*
D12*
%TO.C,J20*%
X39760190Y-24847142D02*
X39760190Y-25132857D01*
X39760190Y-24990000D02*
X39260190Y-24990000D01*
X39331619Y-25037619D01*
X39379238Y-25085238D01*
X39403047Y-25132857D01*
D11*
%TO.C,F2*%
X69307571Y-1955333D02*
X69307571Y-2288666D01*
X69831380Y-2288666D02*
X68831380Y-2288666D01*
X68831380Y-1812476D01*
X68926619Y-1479142D02*
X68879000Y-1431523D01*
X68831380Y-1336285D01*
X68831380Y-1098190D01*
X68879000Y-1002952D01*
X68926619Y-955333D01*
X69021857Y-907714D01*
X69117095Y-907714D01*
X69259952Y-955333D01*
X69831380Y-1526761D01*
X69831380Y-907714D01*
D10*
%TO.C,J10*%
X13785428Y-6379214D02*
X14874000Y-6379214D01*
X15091714Y-6451785D01*
X15236857Y-6596928D01*
X15309428Y-6814642D01*
X15309428Y-6959785D01*
X15309428Y-4855214D02*
X15309428Y-5726071D01*
X15309428Y-5290642D02*
X13785428Y-5290642D01*
X14003142Y-5435785D01*
X14148285Y-5580928D01*
X14220857Y-5726071D01*
X13785428Y-3911785D02*
X13785428Y-3766642D01*
X13858000Y-3621500D01*
X13930571Y-3548928D01*
X14075714Y-3476357D01*
X14366000Y-3403785D01*
X14728857Y-3403785D01*
X15019142Y-3476357D01*
X15164285Y-3548928D01*
X15236857Y-3621500D01*
X15309428Y-3766642D01*
X15309428Y-3911785D01*
X15236857Y-4056928D01*
X15164285Y-4129500D01*
X15019142Y-4202071D01*
X14728857Y-4274642D01*
X14366000Y-4274642D01*
X14075714Y-4202071D01*
X13930571Y-4129500D01*
X13858000Y-4056928D01*
X13785428Y-3911785D01*
%TO.C,J2*%
X13785428Y34986500D02*
X14874000Y34986500D01*
X15091714Y34913929D01*
X15236857Y34768786D01*
X15309428Y34551072D01*
X15309428Y34405929D01*
X13930571Y35639643D02*
X13858000Y35712215D01*
X13785428Y35857358D01*
X13785428Y36220215D01*
X13858000Y36365358D01*
X13930571Y36437929D01*
X14075714Y36510500D01*
X14220857Y36510500D01*
X14438571Y36437929D01*
X15309428Y35567072D01*
X15309428Y36510500D01*
%TO.C,J12*%
X13785428Y-16539214D02*
X14874000Y-16539214D01*
X15091714Y-16611785D01*
X15236857Y-16756928D01*
X15309428Y-16974642D01*
X15309428Y-17119785D01*
X15309428Y-15015214D02*
X15309428Y-15886071D01*
X15309428Y-15450642D02*
X13785428Y-15450642D01*
X14003142Y-15595785D01*
X14148285Y-15740928D01*
X14220857Y-15886071D01*
X13930571Y-14434642D02*
X13858000Y-14362071D01*
X13785428Y-14216928D01*
X13785428Y-13854071D01*
X13858000Y-13708928D01*
X13930571Y-13636357D01*
X14075714Y-13563785D01*
X14220857Y-13563785D01*
X14438571Y-13636357D01*
X15309428Y-14507214D01*
X15309428Y-13563785D01*
D11*
%TO.C,R3*%
X37330333Y37551620D02*
X36997000Y38027810D01*
X36758904Y37551620D02*
X36758904Y38551620D01*
X37139857Y38551620D01*
X37235095Y38504000D01*
X37282714Y38456381D01*
X37330333Y38361143D01*
X37330333Y38218286D01*
X37282714Y38123048D01*
X37235095Y38075429D01*
X37139857Y38027810D01*
X36758904Y38027810D01*
X37663666Y38551620D02*
X38282714Y38551620D01*
X37949380Y38170667D01*
X38092238Y38170667D01*
X38187476Y38123048D01*
X38235095Y38075429D01*
X38282714Y37980191D01*
X38282714Y37742096D01*
X38235095Y37646858D01*
X38187476Y37599239D01*
X38092238Y37551620D01*
X37806523Y37551620D01*
X37711285Y37599239D01*
X37663666Y37646858D01*
D10*
%TO.C,J16*%
X59654428Y19908286D02*
X60743000Y19908286D01*
X60960714Y19835715D01*
X61105857Y19690572D01*
X61178428Y19472858D01*
X61178428Y19327715D01*
X61178428Y21432286D02*
X61178428Y20561429D01*
X61178428Y20996858D02*
X59654428Y20996858D01*
X59872142Y20851715D01*
X60017285Y20706572D01*
X60089857Y20561429D01*
X59654428Y22738572D02*
X59654428Y22448286D01*
X59727000Y22303143D01*
X59799571Y22230572D01*
X60017285Y22085429D01*
X60307571Y22012858D01*
X60888142Y22012858D01*
X61033285Y22085429D01*
X61105857Y22158000D01*
X61178428Y22303143D01*
X61178428Y22593429D01*
X61105857Y22738572D01*
X61033285Y22811143D01*
X60888142Y22883715D01*
X60525285Y22883715D01*
X60380142Y22811143D01*
X60307571Y22738572D01*
X60235000Y22593429D01*
X60235000Y22303143D01*
X60307571Y22158000D01*
X60380142Y22085429D01*
X60525285Y22012858D01*
D11*
%TO.C,R7*%
X43376333Y-5533880D02*
X43043000Y-5057690D01*
X42804904Y-5533880D02*
X42804904Y-4533880D01*
X43185857Y-4533880D01*
X43281095Y-4581500D01*
X43328714Y-4629119D01*
X43376333Y-4724357D01*
X43376333Y-4867214D01*
X43328714Y-4962452D01*
X43281095Y-5010071D01*
X43185857Y-5057690D01*
X42804904Y-5057690D01*
X43709666Y-4533880D02*
X44376333Y-4533880D01*
X43947761Y-5533880D01*
D10*
%TO.C,J6*%
X13785428Y14666500D02*
X14874000Y14666500D01*
X15091714Y14593929D01*
X15236857Y14448786D01*
X15309428Y14231072D01*
X15309428Y14085929D01*
X13785428Y16045358D02*
X13785428Y15755072D01*
X13858000Y15609929D01*
X13930571Y15537358D01*
X14148285Y15392215D01*
X14438571Y15319643D01*
X15019142Y15319643D01*
X15164285Y15392215D01*
X15236857Y15464786D01*
X15309428Y15609929D01*
X15309428Y15900215D01*
X15236857Y16045358D01*
X15164285Y16117929D01*
X15019142Y16190500D01*
X14656285Y16190500D01*
X14511142Y16117929D01*
X14438571Y16045358D01*
X14366000Y15900215D01*
X14366000Y15609929D01*
X14438571Y15464786D01*
X14511142Y15392215D01*
X14656285Y15319643D01*
%TO.C,J18*%
X21427428Y-28636714D02*
X22516000Y-28636714D01*
X22733714Y-28709285D01*
X22878857Y-28854428D01*
X22951428Y-29072142D01*
X22951428Y-29217285D01*
X22951428Y-27112714D02*
X22951428Y-27983571D01*
X22951428Y-27548142D02*
X21427428Y-27548142D01*
X21645142Y-27693285D01*
X21790285Y-27838428D01*
X21862857Y-27983571D01*
X22080571Y-26241857D02*
X22008000Y-26387000D01*
X21935428Y-26459571D01*
X21790285Y-26532142D01*
X21717714Y-26532142D01*
X21572571Y-26459571D01*
X21500000Y-26387000D01*
X21427428Y-26241857D01*
X21427428Y-25951571D01*
X21500000Y-25806428D01*
X21572571Y-25733857D01*
X21717714Y-25661285D01*
X21790285Y-25661285D01*
X21935428Y-25733857D01*
X22008000Y-25806428D01*
X22080571Y-25951571D01*
X22080571Y-26241857D01*
X22153142Y-26387000D01*
X22225714Y-26459571D01*
X22370857Y-26532142D01*
X22661142Y-26532142D01*
X22806285Y-26459571D01*
X22878857Y-26387000D01*
X22951428Y-26241857D01*
X22951428Y-25951571D01*
X22878857Y-25806428D01*
X22806285Y-25733857D01*
X22661142Y-25661285D01*
X22370857Y-25661285D01*
X22225714Y-25733857D01*
X22153142Y-25806428D01*
X22080571Y-25951571D01*
%TO.C,J11*%
X13785428Y-11459214D02*
X14874000Y-11459214D01*
X15091714Y-11531785D01*
X15236857Y-11676928D01*
X15309428Y-11894642D01*
X15309428Y-12039785D01*
X15309428Y-9935214D02*
X15309428Y-10806071D01*
X15309428Y-10370642D02*
X13785428Y-10370642D01*
X14003142Y-10515785D01*
X14148285Y-10660928D01*
X14220857Y-10806071D01*
X15309428Y-8483785D02*
X15309428Y-9354642D01*
X15309428Y-8919214D02*
X13785428Y-8919214D01*
X14003142Y-9064357D01*
X14148285Y-9209500D01*
X14220857Y-9354642D01*
D11*
%TO.C,R4*%
X37387083Y25835870D02*
X37053750Y26312060D01*
X36815654Y25835870D02*
X36815654Y26835870D01*
X37196607Y26835870D01*
X37291845Y26788250D01*
X37339464Y26740631D01*
X37387083Y26645393D01*
X37387083Y26502536D01*
X37339464Y26407298D01*
X37291845Y26359679D01*
X37196607Y26312060D01*
X36815654Y26312060D01*
X38244226Y26502536D02*
X38244226Y25835870D01*
X38006130Y26883489D02*
X37768035Y26169203D01*
X38387083Y26169203D01*
D10*
%TO.C,J8*%
X13785428Y4506500D02*
X14874000Y4506500D01*
X15091714Y4433929D01*
X15236857Y4288786D01*
X15309428Y4071072D01*
X15309428Y3925929D01*
X14438571Y5449929D02*
X14366000Y5304786D01*
X14293428Y5232215D01*
X14148285Y5159643D01*
X14075714Y5159643D01*
X13930571Y5232215D01*
X13858000Y5304786D01*
X13785428Y5449929D01*
X13785428Y5740215D01*
X13858000Y5885358D01*
X13930571Y5957929D01*
X14075714Y6030500D01*
X14148285Y6030500D01*
X14293428Y5957929D01*
X14366000Y5885358D01*
X14438571Y5740215D01*
X14438571Y5449929D01*
X14511142Y5304786D01*
X14583714Y5232215D01*
X14728857Y5159643D01*
X15019142Y5159643D01*
X15164285Y5232215D01*
X15236857Y5304786D01*
X15309428Y5449929D01*
X15309428Y5740215D01*
X15236857Y5885358D01*
X15164285Y5957929D01*
X15019142Y6030500D01*
X14728857Y6030500D01*
X14583714Y5957929D01*
X14511142Y5885358D01*
X14438571Y5740215D01*
D12*
%TO.C,J14*%
X58048190Y-30816142D02*
X58048190Y-31101857D01*
X58048190Y-30959000D02*
X57548190Y-30959000D01*
X57619619Y-31006619D01*
X57667238Y-31054238D01*
X57691047Y-31101857D01*
D11*
%TO.C,J3*%
X1737900Y31915500D02*
X1737900Y28913500D01*
X1238000Y28414500D02*
X1238000Y27914500D01*
X16238000Y32914600D02*
X16238000Y27914400D01*
X1238000Y32914500D02*
X1238000Y32414500D01*
X2238000Y28414500D02*
X-1263000Y28414500D01*
X7238000Y27914500D02*
X1238000Y27914500D01*
X-1262100Y28414500D02*
X-1262100Y32414500D01*
X1737900Y28914500D02*
X-762000Y28914500D01*
X7238000Y32914500D02*
X1238000Y32914500D01*
X1737900Y31914500D02*
X-762000Y31914500D01*
X16238000Y27914500D02*
X7238000Y27914500D01*
X7238000Y32914500D02*
X16238000Y32914500D01*
X2238000Y32414500D02*
X-1262100Y32414500D01*
X-762000Y31915500D02*
X-762000Y28913500D01*
X2238000Y28414500D02*
X2238000Y32414500D01*
%TO.C,J4*%
X16238000Y22834500D02*
X7238000Y22834500D01*
X-762000Y26835500D02*
X-762000Y23833500D01*
X2238000Y23334500D02*
X-1263000Y23334500D01*
X1737900Y23834500D02*
X-762000Y23834500D01*
X2238000Y27334500D02*
X-1262100Y27334500D01*
X7238000Y27834500D02*
X16238000Y27834500D01*
X1737900Y26834500D02*
X-762000Y26834500D01*
X16238000Y27834600D02*
X16238000Y22834400D01*
X1238000Y23334500D02*
X1238000Y22834500D01*
X1238000Y27834500D02*
X1238000Y27334500D01*
X1737900Y26835500D02*
X1737900Y23833500D01*
X2238000Y23334500D02*
X2238000Y27334500D01*
X7238000Y22834500D02*
X1238000Y22834500D01*
X7238000Y27834500D02*
X1238000Y27834500D01*
X-1262100Y23334500D02*
X-1262100Y27334500D01*
%TO.C,J21*%
X64934000Y33049000D02*
X59854000Y33049000D01*
X59854000Y33049000D02*
X59854000Y50829000D01*
X64934000Y50829000D02*
X64934000Y33049000D01*
X59854000Y50829000D02*
X64934000Y50829000D01*
D13*
%TO.C,R5*%
X30069000Y8456500D02*
X50309000Y8456500D01*
X26389000Y11776500D02*
X30069000Y11776500D01*
X50309000Y8456500D02*
X50309000Y15096500D01*
X30069000Y15096500D02*
X30069000Y8456500D01*
X50309000Y15096500D02*
X30069000Y15096500D01*
X53989000Y11776500D02*
X50309000Y11776500D01*
D11*
%TO.C,J1*%
X-1262100Y38574500D02*
X-1262100Y42574500D01*
X1238000Y38574500D02*
X1238000Y38074500D01*
X-762000Y42075500D02*
X-762000Y39073500D01*
X2238000Y42574500D02*
X-1262100Y42574500D01*
X7238000Y43074500D02*
X1238000Y43074500D01*
X1737900Y42074500D02*
X-762000Y42074500D01*
X16238000Y43074600D02*
X16238000Y38074400D01*
X1737900Y42075500D02*
X1737900Y39073500D01*
X2238000Y38574500D02*
X2238000Y42574500D01*
X16238000Y38074500D02*
X7238000Y38074500D01*
X1737900Y39074500D02*
X-762000Y39074500D01*
X7238000Y38074500D02*
X1238000Y38074500D01*
X7238000Y43074500D02*
X16238000Y43074500D01*
X2238000Y38574500D02*
X-1263000Y38574500D01*
X1238000Y43074500D02*
X1238000Y42574500D01*
D13*
%TO.C,R8*%
X53663000Y-22881500D02*
X53663000Y-16241500D01*
X57343000Y-19561500D02*
X53663000Y-19561500D01*
X33423000Y-16241500D02*
X33423000Y-22881500D01*
X33423000Y-22881500D02*
X53663000Y-22881500D01*
X53663000Y-16241500D02*
X33423000Y-16241500D01*
X29743000Y-19561500D02*
X33423000Y-19561500D01*
D11*
%TO.C,J19*%
X43629750Y-25434500D02*
X53789750Y-25434500D01*
X53789750Y-25434500D02*
X53789750Y-30514500D01*
X53789750Y-30514500D02*
X43629750Y-30514500D01*
X43629750Y-30514500D02*
X43629750Y-25434500D01*
%TO.C,J7*%
X1737900Y8594500D02*
X-762000Y8594500D01*
X7238000Y12594500D02*
X16238000Y12594500D01*
X16238000Y7594500D02*
X7238000Y7594500D01*
X2238000Y8094500D02*
X-1263000Y8094500D01*
X1737900Y11594500D02*
X-762000Y11594500D01*
X2238000Y8094500D02*
X2238000Y12094500D01*
X16238000Y12594600D02*
X16238000Y7594400D01*
X-762000Y11595500D02*
X-762000Y8593500D01*
X1238000Y8094500D02*
X1238000Y7594500D01*
X1238000Y12594500D02*
X1238000Y12094500D01*
X2238000Y12094500D02*
X-1262100Y12094500D01*
X7238000Y7594500D02*
X1238000Y7594500D01*
X7238000Y12594500D02*
X1238000Y12594500D01*
X-1262100Y8094500D02*
X-1262100Y12094500D01*
X1737900Y11595500D02*
X1737900Y8593500D01*
%TO.C,J17*%
X6880000Y-31109000D02*
X6880000Y-34111000D01*
X9880000Y-34610000D02*
X6379000Y-34610000D01*
X8880000Y-34610000D02*
X8880000Y-35110000D01*
X23880000Y-35110000D02*
X14880000Y-35110000D01*
X9379900Y-31109000D02*
X9379900Y-34111000D01*
X9880000Y-30610000D02*
X6379900Y-30610000D01*
X6379900Y-34610000D02*
X6379900Y-30610000D01*
X9379900Y-31110000D02*
X6880000Y-31110000D01*
X9880000Y-34610000D02*
X9880000Y-30610000D01*
X8880000Y-30110000D02*
X8880000Y-30610000D01*
X23880000Y-30109900D02*
X23880000Y-35110100D01*
X9379900Y-34110000D02*
X6880000Y-34110000D01*
X14880000Y-35110000D02*
X8880000Y-35110000D01*
X14880000Y-30110000D02*
X23880000Y-30110000D01*
X14880000Y-30110000D02*
X8880000Y-30110000D01*
%TO.C,J13*%
X7238000Y-17885500D02*
X1238000Y-17885500D01*
X16238000Y-22885500D02*
X7238000Y-22885500D01*
X1737900Y-21885500D02*
X-762000Y-21885500D01*
X1238000Y-22385500D02*
X1238000Y-22885500D01*
X1737900Y-18885500D02*
X-762000Y-18885500D01*
X-762000Y-18884500D02*
X-762000Y-21886500D01*
X2238000Y-22385500D02*
X2238000Y-18385500D01*
X2238000Y-22385500D02*
X-1263000Y-22385500D01*
X1737900Y-18884500D02*
X1737900Y-21886500D01*
X7238000Y-22885500D02*
X1238000Y-22885500D01*
X1238000Y-17885500D02*
X1238000Y-18385500D01*
X-1262100Y-22385500D02*
X-1262100Y-18385500D01*
X2238000Y-18385500D02*
X-1262100Y-18385500D01*
X7238000Y-17885500D02*
X16238000Y-17885500D01*
X16238000Y-17885400D02*
X16238000Y-22885600D01*
D13*
%TO.C,R2*%
X23702000Y44098000D02*
X27382000Y44098000D01*
X47622000Y47418000D02*
X27382000Y47418000D01*
X27382000Y40778000D02*
X47622000Y40778000D01*
X51302000Y44098000D02*
X47622000Y44098000D01*
X27382000Y47418000D02*
X27382000Y40778000D01*
X47622000Y40778000D02*
X47622000Y47418000D01*
D11*
%TO.C,J22*%
X8546000Y49813000D02*
X16166000Y49813000D01*
X16166000Y44733000D02*
X8546000Y44733000D01*
X8546000Y44733000D02*
X8546000Y49813000D01*
X16166000Y49813000D02*
X16166000Y44733000D01*
%TO.C,J15*%
X72871000Y28222000D02*
X76372000Y28222000D01*
X72871000Y24222000D02*
X76371100Y24222000D01*
X73871000Y23722000D02*
X73871000Y24222000D01*
X73371100Y27722000D02*
X75871000Y27722000D01*
X67871000Y23722000D02*
X58871000Y23722000D01*
X73871000Y28222000D02*
X73871000Y28722000D01*
X73371100Y24722000D02*
X75871000Y24722000D01*
X75871000Y24721000D02*
X75871000Y27723000D01*
X73371100Y24721000D02*
X73371100Y27723000D01*
X58871000Y28722000D02*
X67871000Y28722000D01*
X72871000Y28222000D02*
X72871000Y24222000D01*
X67871000Y28722000D02*
X73871000Y28722000D01*
X67871000Y23722000D02*
X73871000Y23722000D01*
X58871000Y23721900D02*
X58871000Y28722100D01*
X76371100Y28222000D02*
X76371100Y24222000D01*
%TO.C,J5*%
X7238000Y22754500D02*
X16238000Y22754500D01*
X1737900Y21755500D02*
X1737900Y18753500D01*
X1737900Y18754500D02*
X-762000Y18754500D01*
X1238000Y22754500D02*
X1238000Y22254500D01*
X16238000Y17754500D02*
X7238000Y17754500D01*
X2238000Y18254500D02*
X-1263000Y18254500D01*
X7238000Y17754500D02*
X1238000Y17754500D01*
X7238000Y22754500D02*
X1238000Y22754500D01*
X-762000Y21755500D02*
X-762000Y18753500D01*
X16238000Y22754600D02*
X16238000Y17754400D01*
X1238000Y18254500D02*
X1238000Y17754500D01*
X-1262100Y18254500D02*
X-1262100Y22254500D01*
X2238000Y22254500D02*
X-1262100Y22254500D01*
X1737900Y21754500D02*
X-762000Y21754500D01*
X2238000Y18254500D02*
X2238000Y22254500D01*
%TO.C,J9*%
X1238000Y-2065500D02*
X1238000Y-2565500D01*
X2238000Y-2065500D02*
X2238000Y1934500D01*
X-1262100Y-2065500D02*
X-1262100Y1934500D01*
X1737900Y-1565500D02*
X-762000Y-1565500D01*
X-762000Y1435500D02*
X-762000Y-1566500D01*
X16238000Y-2565500D02*
X7238000Y-2565500D01*
X1737900Y1435500D02*
X1737900Y-1566500D01*
X7238000Y-2565500D02*
X1238000Y-2565500D01*
X2238000Y-2065500D02*
X-1263000Y-2065500D01*
X7238000Y2434500D02*
X1238000Y2434500D01*
X1737900Y1434500D02*
X-762000Y1434500D01*
X2238000Y1934500D02*
X-1262100Y1934500D01*
X16238000Y2434600D02*
X16238000Y-2565600D01*
X7238000Y2434500D02*
X16238000Y2434500D01*
X1238000Y2434500D02*
X1238000Y1934500D01*
D13*
%TO.C,R6*%
X33371000Y-1830500D02*
X53611000Y-1830500D01*
X53611000Y4809500D02*
X33371000Y4809500D01*
X57291000Y1489500D02*
X53611000Y1489500D01*
X53611000Y-1830500D02*
X53611000Y4809500D01*
X33371000Y4809500D02*
X33371000Y-1830500D01*
X29691000Y1489500D02*
X33371000Y1489500D01*
D11*
%TO.C,J20*%
X30644000Y-25371000D02*
X40804000Y-25371000D01*
X40804000Y-25371000D02*
X40804000Y-30451000D01*
X30644000Y-30451000D02*
X30644000Y-25371000D01*
X40804000Y-30451000D02*
X30644000Y-30451000D01*
D13*
%TO.C,F2*%
X61812000Y-16138000D02*
X61812000Y-10738000D01*
X61812000Y15162000D02*
X68012000Y15162000D01*
X61812000Y-20938000D02*
X61812000Y-19138000D01*
X68012000Y4462000D02*
X68012000Y10862000D01*
X61812000Y-7738000D02*
X61812000Y2462000D01*
X68012000Y-7738000D02*
X68012000Y2462000D01*
X68012000Y12862000D02*
X68012000Y15162000D01*
X61812000Y4462000D02*
X61812000Y10862000D01*
X68012000Y-16138000D02*
X68012000Y-10738000D01*
X61812000Y12862000D02*
X61812000Y15162000D01*
X61812000Y-21138000D02*
X68012000Y-21138000D01*
X68012000Y-20938000D02*
X61812000Y-20938000D01*
X68012000Y-20938000D02*
X68012000Y-19138000D01*
D11*
%TO.C,J10*%
X-762000Y-3644500D02*
X-762000Y-6646500D01*
X1238000Y-2645500D02*
X1238000Y-3145500D01*
X1737900Y-6645500D02*
X-762000Y-6645500D01*
X1737900Y-3644500D02*
X1737900Y-6646500D01*
X2238000Y-7145500D02*
X-1263000Y-7145500D01*
X16238000Y-2645400D02*
X16238000Y-7645600D01*
X16238000Y-7645500D02*
X7238000Y-7645500D01*
X2238000Y-7145500D02*
X2238000Y-3145500D01*
X7238000Y-2645500D02*
X1238000Y-2645500D01*
X1238000Y-7145500D02*
X1238000Y-7645500D01*
X1737900Y-3645500D02*
X-762000Y-3645500D01*
X7238000Y-7645500D02*
X1238000Y-7645500D01*
X2238000Y-3145500D02*
X-1262100Y-3145500D01*
X7238000Y-2645500D02*
X16238000Y-2645500D01*
X-1262100Y-7145500D02*
X-1262100Y-3145500D01*
%TO.C,J2*%
X16238000Y37994600D02*
X16238000Y32994400D01*
X7238000Y37994500D02*
X16238000Y37994500D01*
X-1262100Y33494500D02*
X-1262100Y37494500D01*
X2238000Y33494500D02*
X2238000Y37494500D01*
X1737900Y36994500D02*
X-762000Y36994500D01*
X1737900Y33994500D02*
X-762000Y33994500D01*
X2238000Y37494500D02*
X-1262100Y37494500D01*
X1238000Y37994500D02*
X1238000Y37494500D01*
X2238000Y33494500D02*
X-1263000Y33494500D01*
X7238000Y37994500D02*
X1238000Y37994500D01*
X1238000Y33494500D02*
X1238000Y32994500D01*
X7238000Y32994500D02*
X1238000Y32994500D01*
X1737900Y36995500D02*
X1737900Y33993500D01*
X16238000Y32994500D02*
X7238000Y32994500D01*
X-762000Y36995500D02*
X-762000Y33993500D01*
%TO.C,J12*%
X1238000Y-12805500D02*
X1238000Y-13305500D01*
X1238000Y-17305500D02*
X1238000Y-17805500D01*
X16238000Y-12805400D02*
X16238000Y-17805600D01*
X7238000Y-12805500D02*
X16238000Y-12805500D01*
X7238000Y-12805500D02*
X1238000Y-12805500D01*
X16238000Y-17805500D02*
X7238000Y-17805500D01*
X2238000Y-17305500D02*
X-1263000Y-17305500D01*
X2238000Y-17305500D02*
X2238000Y-13305500D01*
X7238000Y-17805500D02*
X1238000Y-17805500D01*
X1737900Y-16805500D02*
X-762000Y-16805500D01*
X1737900Y-13804500D02*
X1737900Y-16806500D01*
X1737900Y-13805500D02*
X-762000Y-13805500D01*
X-762000Y-13804500D02*
X-762000Y-16806500D01*
X2238000Y-13305500D02*
X-1262100Y-13305500D01*
X-1262100Y-17305500D02*
X-1262100Y-13305500D01*
D13*
%TO.C,R3*%
X27377000Y30364000D02*
X47617000Y30364000D01*
X47617000Y37004000D02*
X27377000Y37004000D01*
X23697000Y33684000D02*
X27377000Y33684000D01*
X47617000Y30364000D02*
X47617000Y37004000D01*
X27377000Y37004000D02*
X27377000Y30364000D01*
X51297000Y33684000D02*
X47617000Y33684000D01*
D11*
%TO.C,J16*%
X73871000Y18642000D02*
X73871000Y19142000D01*
X72871000Y23142000D02*
X72871000Y19142000D01*
X73871000Y23142000D02*
X73871000Y23642000D01*
X73371100Y19641000D02*
X73371100Y22643000D01*
X72871000Y23142000D02*
X76372000Y23142000D01*
X58871000Y18641900D02*
X58871000Y23642100D01*
X73371100Y19642000D02*
X75871000Y19642000D01*
X58871000Y23642000D02*
X67871000Y23642000D01*
X67871000Y23642000D02*
X73871000Y23642000D01*
X72871000Y19142000D02*
X76371100Y19142000D01*
X67871000Y18642000D02*
X73871000Y18642000D01*
X75871000Y19641000D02*
X75871000Y22643000D01*
X76371100Y23142000D02*
X76371100Y19142000D01*
X67871000Y18642000D02*
X58871000Y18642000D01*
X73371100Y22642000D02*
X75871000Y22642000D01*
D13*
%TO.C,R7*%
X29743000Y-9401500D02*
X33423000Y-9401500D01*
X53663000Y-6081500D02*
X33423000Y-6081500D01*
X33423000Y-6081500D02*
X33423000Y-12721500D01*
X53663000Y-12721500D02*
X53663000Y-6081500D01*
X57343000Y-9401500D02*
X53663000Y-9401500D01*
X33423000Y-12721500D02*
X53663000Y-12721500D01*
D11*
%TO.C,J6*%
X1238000Y17674500D02*
X1238000Y17174500D01*
X2238000Y17174500D02*
X-1262100Y17174500D01*
X2238000Y13174500D02*
X2238000Y17174500D01*
X2238000Y13174500D02*
X-1263000Y13174500D01*
X1238000Y13174500D02*
X1238000Y12674500D01*
X7238000Y12674500D02*
X1238000Y12674500D01*
X-762000Y16675500D02*
X-762000Y13673500D01*
X16238000Y12674500D02*
X7238000Y12674500D01*
X1737900Y16674500D02*
X-762000Y16674500D01*
X16238000Y17674600D02*
X16238000Y12674400D01*
X7238000Y17674500D02*
X1238000Y17674500D01*
X-1262100Y13174500D02*
X-1262100Y17174500D01*
X1737900Y16675500D02*
X1737900Y13673500D01*
X7238000Y17674500D02*
X16238000Y17674500D01*
X1737900Y13674500D02*
X-762000Y13674500D01*
%TO.C,J18*%
X14880000Y-24903000D02*
X23880000Y-24903000D01*
X9880000Y-25403000D02*
X6379900Y-25403000D01*
X23880000Y-24902900D02*
X23880000Y-29903100D01*
X6880000Y-25902000D02*
X6880000Y-28904000D01*
X6379900Y-29403000D02*
X6379900Y-25403000D01*
X23880000Y-29903000D02*
X14880000Y-29903000D01*
X14880000Y-24903000D02*
X8880000Y-24903000D01*
X9880000Y-29403000D02*
X6379000Y-29403000D01*
X8880000Y-24903000D02*
X8880000Y-25403000D01*
X9379900Y-28903000D02*
X6880000Y-28903000D01*
X8880000Y-29403000D02*
X8880000Y-29903000D01*
X14880000Y-29903000D02*
X8880000Y-29903000D01*
X9379900Y-25902000D02*
X9379900Y-28904000D01*
X9880000Y-29403000D02*
X9880000Y-25403000D01*
X9379900Y-25903000D02*
X6880000Y-25903000D01*
%TO.C,J11*%
X2238000Y-8225500D02*
X-1262100Y-8225500D01*
X16238000Y-12725500D02*
X7238000Y-12725500D01*
X16238000Y-7725400D02*
X16238000Y-12725600D01*
X1737900Y-8725500D02*
X-762000Y-8725500D01*
X7238000Y-7725500D02*
X16238000Y-7725500D01*
X7238000Y-7725500D02*
X1238000Y-7725500D01*
X1737900Y-11725500D02*
X-762000Y-11725500D01*
X2238000Y-12225500D02*
X2238000Y-8225500D01*
X1238000Y-12225500D02*
X1238000Y-12725500D01*
X7238000Y-12725500D02*
X1238000Y-12725500D01*
X1238000Y-7725500D02*
X1238000Y-8225500D01*
X-762000Y-8724500D02*
X-762000Y-11726500D01*
X2238000Y-12225500D02*
X-1263000Y-12225500D01*
X-1262100Y-12225500D02*
X-1262100Y-8225500D01*
X1737900Y-8724500D02*
X1737900Y-11726500D01*
D13*
%TO.C,R4*%
X27433750Y25288250D02*
X27433750Y18648250D01*
X51353750Y21968250D02*
X47673750Y21968250D01*
X47673750Y18648250D02*
X47673750Y25288250D01*
X27433750Y18648250D02*
X47673750Y18648250D01*
X47673750Y25288250D02*
X27433750Y25288250D01*
X23753750Y21968250D02*
X27433750Y21968250D01*
D11*
%TO.C,J8*%
X2238000Y3014500D02*
X2238000Y7014500D01*
X7238000Y7514500D02*
X1238000Y7514500D01*
X1238000Y3014500D02*
X1238000Y2514500D01*
X1737900Y6515500D02*
X1737900Y3513500D01*
X-1262100Y3014500D02*
X-1262100Y7014500D01*
X16238000Y7514600D02*
X16238000Y2514400D01*
X1737900Y6514500D02*
X-762000Y6514500D01*
X16238000Y2514500D02*
X7238000Y2514500D01*
X2238000Y7014500D02*
X-1262100Y7014500D01*
X1238000Y7514500D02*
X1238000Y7014500D01*
X7238000Y2514500D02*
X1238000Y2514500D01*
X-762000Y6515500D02*
X-762000Y3513500D01*
X7238000Y7514500D02*
X16238000Y7514500D01*
X1737900Y3514500D02*
X-762000Y3514500D01*
X2238000Y3014500D02*
X-1263000Y3014500D01*
%TO.C,J14*%
X56552000Y-30578000D02*
X56552000Y-25498000D01*
X66712000Y-30578000D02*
X56552000Y-30578000D01*
X66712000Y-25498000D02*
X66712000Y-30578000D01*
X56552000Y-25498000D02*
X66712000Y-25498000D01*
%TD*%
D14*
%TO.C,J21*%
X61124000Y49559000D03*
X63664000Y49559000D03*
X61124000Y47019000D03*
X63664000Y47019000D03*
X61124000Y44479000D03*
X63664000Y44479000D03*
X61124000Y41939000D03*
X63664000Y41939000D03*
X61124000Y39399000D03*
X63664000Y39399000D03*
X61124000Y36859000D03*
X63664000Y36859000D03*
X61124000Y34319000D03*
X63664000Y34319000D03*
%TD*%
%TO.C,J19*%
X52519750Y-26704500D03*
X52519750Y-29244500D03*
X49979750Y-26704500D03*
X49979750Y-29244500D03*
X47439750Y-26704500D03*
X47439750Y-29244500D03*
X44899750Y-26704500D03*
X44899750Y-29244500D03*
%TD*%
%TO.C,J20*%
X39534000Y-26641000D03*
X39534000Y-29181000D03*
X36994000Y-26641000D03*
X36994000Y-29181000D03*
X34454000Y-26641000D03*
X34454000Y-29181000D03*
X31914000Y-26641000D03*
X31914000Y-29181000D03*
%TD*%
%TO.C,J14*%
X57822000Y-29308000D03*
X57822000Y-26768000D03*
X60362000Y-29308000D03*
X60362000Y-26768000D03*
X62902000Y-29308000D03*
X62902000Y-26768000D03*
X65442000Y-29308000D03*
X65442000Y-26768000D03*
%TD*%
M02*
