%TF.GenerationSoftware,KiCad,Pcbnew,6.0.10+dfsg-1~bpo11+1*%
%TF.CreationDate,2023-02-14T14:12:12+00:00*%
%TF.ProjectId,ISO11446PWR01,49534f31-3134-4343-9650-575230312e6b,rev?*%
%TF.SameCoordinates,Original*%
%TF.FileFunction,Copper,L1,Top*%
%TF.FilePolarity,Positive*%
%FSLAX46Y46*%
G04 Gerber Fmt 4.6, Leading zero omitted, Abs format (unit mm)*
G04 Created by KiCad (PCBNEW 6.0.10+dfsg-1~bpo11+1) date 2023-02-14 14:12:12*
%MOMM*%
%LPD*%
G01*
G04 APERTURE LIST*
%TA.AperFunction,ComponentPad*%
%ADD10R,3.810000X3.810000*%
%TD*%
%TA.AperFunction,ComponentPad*%
%ADD11C,6.000000*%
%TD*%
%TA.AperFunction,ComponentPad*%
%ADD12R,1.524000X1.524000*%
%TD*%
%TA.AperFunction,ComponentPad*%
%ADD13C,2.010000*%
%TD*%
G04 APERTURE END LIST*
D10*
%TO.P,J6,1,Pin_1*%
%TO.N,Net-(J1-Pad3)*%
X106680000Y68930000D03*
X101680000Y68930000D03*
%TD*%
D11*
%TO.P,M2,1*%
%TO.N,Net-(M1-Pad1)*%
X0Y30480000D03*
%TD*%
D10*
%TO.P,J7,1,Pin_1*%
%TO.N,Net-(J1-Pad1)*%
X101680000Y-7270000D03*
X106680000Y-7270000D03*
%TD*%
D11*
%TO.P,M4,1*%
%TO.N,Net-(M1-Pad1)*%
X30480000Y0D03*
%TD*%
D10*
%TO.P,J4,1,Pin_1*%
%TO.N,Net-(F1-Pad2)*%
X106680000Y-2190000D03*
X101680000Y-2190000D03*
%TD*%
D12*
%TO.P,J1,1*%
%TO.N,Net-(J1-Pad1)*%
X130810000Y59690000D03*
%TO.P,J1,2*%
X133350000Y59690000D03*
%TO.P,J1,3*%
%TO.N,Net-(J1-Pad3)*%
X130810000Y57150000D03*
%TO.P,J1,4*%
X133350000Y57150000D03*
%TO.P,J1,5*%
%TO.N,Net-(F2-Pad1)*%
X130810000Y54610000D03*
%TO.P,J1,6*%
X133350000Y54610000D03*
%TO.P,J1,7*%
%TO.N,Net-(F1-Pad1)*%
X130810000Y52070000D03*
%TO.P,J1,8*%
X133350000Y52070000D03*
%TD*%
D13*
%TO.P,F2,1*%
%TO.N,Net-(F2-Pad1)*%
X101600000Y17780000D03*
%TO.P,F2,2*%
%TO.N,Net-(F2-Pad2)*%
X106700000Y16580000D03*
%TD*%
D12*
%TO.P,J8,1*%
%TO.N,GND*%
X31750000Y12700000D03*
%TO.P,J8,2*%
X29210000Y12700000D03*
%TO.P,J8,3*%
%TO.N,+5V*%
X31750000Y15240000D03*
%TO.P,J8,4*%
X29210000Y15240000D03*
%TO.P,J8,5*%
%TO.N,GND*%
X31750000Y17780000D03*
%TO.P,J8,6*%
X29210000Y17780000D03*
%TD*%
D11*
%TO.P,M3,1*%
%TO.N,Net-(M1-Pad1)*%
X0Y0D03*
%TD*%
D12*
%TO.P,J2,1*%
%TO.N,unconnected-(J2-Pad1)*%
X149860000Y12700000D03*
%TO.P,J2,2*%
X152400000Y12700000D03*
%TO.P,J2,3*%
%TO.N,unconnected-(J2-Pad3)*%
X149860000Y10160000D03*
%TO.P,J2,4*%
X152400000Y10160000D03*
%TO.P,J2,5*%
%TO.N,Net-(F1-Pad1)*%
X149860000Y7620000D03*
%TO.P,J2,6*%
X152400000Y7620000D03*
%TO.P,J2,7*%
X149860000Y5080000D03*
%TO.P,J2,8*%
X152400000Y5080000D03*
%TD*%
D13*
%TO.P,F1,1*%
%TO.N,Net-(F1-Pad1)*%
X87770000Y27600000D03*
%TO.P,F1,2*%
%TO.N,Net-(F1-Pad2)*%
X92870000Y26400000D03*
%TD*%
D11*
%TO.P,M1,1*%
%TO.N,Net-(M1-Pad1)*%
X30480000Y30480000D03*
%TD*%
D10*
%TO.P,J5,1,Pin_1*%
%TO.N,Net-(F2-Pad2)*%
X114380000Y56230000D03*
X119380000Y56230000D03*
%TD*%
D12*
%TO.P,J3,1*%
%TO.N,unconnected-(J3-Pad1)*%
X135890000Y39370000D03*
%TO.P,J3,2*%
X138430000Y39370000D03*
%TO.P,J3,3*%
%TO.N,unconnected-(J3-Pad3)*%
X135890000Y36830000D03*
%TO.P,J3,4*%
X138430000Y36830000D03*
%TO.P,J3,5*%
%TO.N,unconnected-(J3-Pad5)*%
X135890000Y34290000D03*
%TO.P,J3,6*%
X138430000Y34290000D03*
%TO.P,J3,7*%
%TO.N,Net-(J1-Pad1)*%
X135890000Y31750000D03*
%TO.P,J3,8*%
X138430000Y31750000D03*
%TD*%
M02*
