M48
; DRILL file {KiCad 6.0.10+dfsg-1~bpo11+1} date Mon Feb 13 14:11:52 2023
; FORMAT={-:-/ absolute / metric / decimal}
; #@! TF.CreationDate,2023-02-13T14:11:52+00:00
; #@! TF.GenerationSoftware,Kicad,Pcbnew,6.0.10+dfsg-1~bpo11+1
; #@! TF.FileFunction,Plated,1,2,PTH
FMAT,2
METRIC
; #@! TA.AperFunction,Plated,PTH,ComponentDrill
T1C0.889
; #@! TA.AperFunction,Plated,PTH,ComponentDrill
T2C1.010
; #@! TA.AperFunction,Plated,PTH,ComponentDrill
T3C1.300
; #@! TA.AperFunction,Plated,PTH,ComponentDrill
T4C3.000
%
G90
G05
T1
X29.21Y17.78
X29.21Y15.24
X29.21Y12.7
X31.75Y17.78
X31.75Y15.24
X31.75Y12.7
X130.81Y59.69
X130.81Y57.15
X130.81Y54.61
X130.81Y52.07
X133.35Y59.69
X133.35Y57.15
X133.35Y54.61
X133.35Y52.07
X135.89Y39.37
X135.89Y36.83
X135.89Y34.29
X135.89Y31.75
X138.43Y39.37
X138.43Y36.83
X138.43Y34.29
X138.43Y31.75
X149.86Y12.7
X149.86Y10.16
X149.86Y7.62
X149.86Y5.08
X152.4Y12.7
X152.4Y10.16
X152.4Y7.62
X152.4Y5.08
T2
X87.77Y27.6
X92.87Y26.4
X101.6Y17.78
X106.7Y16.58
T3
X101.68Y68.93
X101.68Y-2.19
X101.68Y-7.27
X106.68Y68.93
X106.68Y-2.19
X106.68Y-7.27
X114.38Y56.23
X119.38Y56.23
T4
X0.0Y30.48
X0.0Y0.0
X30.48Y30.48
X30.48Y0.0
T0
M30
