%TF.GenerationSoftware,KiCad,Pcbnew,6.0.10+dfsg-1~bpo11+1*%
%TF.CreationDate,2023-02-16T18:38:30+00:00*%
%TF.ProjectId,ISO11446PWR01,49534f31-3134-4343-9650-575230312e6b,rev?*%
%TF.SameCoordinates,Original*%
%TF.FileFunction,Soldermask,Bot*%
%TF.FilePolarity,Negative*%
%FSLAX46Y46*%
G04 Gerber Fmt 4.6, Leading zero omitted, Abs format (unit mm)*
G04 Created by KiCad (PCBNEW 6.0.10+dfsg-1~bpo11+1) date 2023-02-16 18:38:30*
%MOMM*%
%LPD*%
G01*
G04 APERTURE LIST*
G04 Aperture macros list*
%AMRoundRect*
0 Rectangle with rounded corners*
0 $1 Rounding radius*
0 $2 $3 $4 $5 $6 $7 $8 $9 X,Y pos of 4 corners*
0 Add a 4 corners polygon primitive as box body*
4,1,4,$2,$3,$4,$5,$6,$7,$8,$9,$2,$3,0*
0 Add four circle primitives for the rounded corners*
1,1,$1+$1,$2,$3*
1,1,$1+$1,$4,$5*
1,1,$1+$1,$6,$7*
1,1,$1+$1,$8,$9*
0 Add four rect primitives between the rounded corners*
20,1,$1+$1,$2,$3,$4,$5,0*
20,1,$1+$1,$4,$5,$6,$7,0*
20,1,$1+$1,$6,$7,$8,$9,0*
20,1,$1+$1,$8,$9,$2,$3,0*%
%AMFreePoly0*
4,1,23,0.405000,0.745865,0.430885,0.748318,0.514326,0.717475,0.576139,0.653497,0.604092,0.569043,0.592655,0.480821,0.586333,0.471118,0.535041,0.293601,0.507443,0.099107,0.507318,-0.097336,0.534670,-0.291865,0.585847,-0.469827,0.592286,-0.479814,0.603303,-0.568089,0.574948,-0.652409,0.512833,-0.716092,0.429245,-0.746538,0.405000,-0.744124,0.405000,-0.750000,-0.645000,-0.750000,
-0.645000,0.750000,0.405000,0.750000,0.405000,0.745865,0.405000,0.745865,$1*%
G04 Aperture macros list end*
%ADD10R,3.810000X3.810000*%
%ADD11C,6.000000*%
%ADD12R,1.524000X1.524000*%
%ADD13C,2.400000*%
%ADD14O,2.400000X2.400000*%
%ADD15RoundRect,2.400000X0.600000X0.600000X-0.600000X0.600000X-0.600000X-0.600000X0.600000X-0.600000X0*%
%ADD16RoundRect,2.400000X0.600000X-0.600000X0.600000X0.600000X-0.600000X0.600000X-0.600000X-0.600000X0*%
%ADD17C,2.700000*%
%ADD18FreePoly0,180.000000*%
%ADD19FreePoly0,0.000000*%
%ADD20R,1.397000X0.889000*%
%ADD21R,2.000000X0.640000*%
%ADD22R,0.889000X1.397000*%
%ADD23R,2.500000X1.800000*%
%ADD24R,1.900000X3.400000*%
%ADD25RoundRect,0.250000X-0.250000X-0.475000X0.250000X-0.475000X0.250000X0.475000X-0.250000X0.475000X0*%
%ADD26FreePoly0,270.000000*%
%ADD27FreePoly0,90.000000*%
G04 APERTURE END LIST*
D10*
%TO.C,J3*%
X6238000Y30064500D03*
X11238000Y30064500D03*
%TD*%
D11*
%TO.C,M2*%
X72046000Y47654000D03*
%TD*%
D10*
%TO.C,J4*%
X11238000Y24984500D03*
X6238000Y24984500D03*
%TD*%
D11*
%TO.C,M4*%
X72046000Y-33626000D03*
%TD*%
D12*
%TO.C,J21*%
X61124000Y49559000D03*
X63664000Y49559000D03*
X61124000Y47019000D03*
X63664000Y47019000D03*
X61124000Y44479000D03*
X63664000Y44479000D03*
X61124000Y41939000D03*
X63664000Y41939000D03*
X61124000Y39399000D03*
X63664000Y39399000D03*
X61124000Y36859000D03*
X63664000Y36859000D03*
X61124000Y34319000D03*
X63664000Y34319000D03*
%TD*%
D13*
%TO.C,R5*%
X24949000Y11776500D03*
D14*
X55429000Y11776500D03*
%TD*%
D10*
%TO.C,J1*%
X6238000Y40224500D03*
X11238000Y40224500D03*
%TD*%
D13*
%TO.C,R8*%
X28303000Y-19561500D03*
D14*
X58783000Y-19561500D03*
%TD*%
D12*
%TO.C,J19*%
X52519750Y-26704500D03*
X52519750Y-29244500D03*
X49979750Y-26704500D03*
X49979750Y-29244500D03*
X47439750Y-26704500D03*
X47439750Y-29244500D03*
X44899750Y-26704500D03*
X44899750Y-29244500D03*
%TD*%
D10*
%TO.C,J7*%
X11238000Y9744500D03*
X6238000Y9744500D03*
%TD*%
%TO.C,J17*%
X13880000Y-32960000D03*
X18880000Y-32960000D03*
%TD*%
%TO.C,J13*%
X11238000Y-20735500D03*
X6238000Y-20735500D03*
%TD*%
D13*
%TO.C,R2*%
X22262000Y44098000D03*
D14*
X52742000Y44098000D03*
%TD*%
D12*
%TO.C,J22*%
X14896000Y48543000D03*
X14896000Y46003000D03*
X12356000Y48543000D03*
X12356000Y46003000D03*
X9816000Y48543000D03*
X9816000Y46003000D03*
%TD*%
D10*
%TO.C,J15*%
X69451000Y26381500D03*
X64451000Y26381500D03*
%TD*%
%TO.C,J5*%
X6238000Y19904500D03*
X11238000Y19904500D03*
%TD*%
%TO.C,J9*%
X11238000Y-415500D03*
X6238000Y-415500D03*
%TD*%
D11*
%TO.C,M3*%
X926000Y-33626000D03*
%TD*%
D13*
%TO.C,R6*%
X28251000Y1489500D03*
D14*
X58731000Y1489500D03*
%TD*%
D12*
%TO.C,J20*%
X39534000Y-26641000D03*
X39534000Y-29181000D03*
X36994000Y-26641000D03*
X36994000Y-29181000D03*
X34454000Y-26641000D03*
X34454000Y-29181000D03*
X31914000Y-26641000D03*
X31914000Y-29181000D03*
%TD*%
D15*
%TO.C,F2*%
X64912000Y-17638000D03*
D16*
X64912000Y-9238000D03*
D11*
X64912000Y3462000D03*
X64912000Y11862000D03*
%TD*%
D10*
%TO.C,J10*%
X11238000Y-5495500D03*
X6238000Y-5495500D03*
%TD*%
D11*
%TO.C,M1*%
X926000Y47654000D03*
%TD*%
D10*
%TO.C,J2*%
X11238000Y35144500D03*
X6238000Y35144500D03*
%TD*%
%TO.C,J12*%
X11238000Y-15655500D03*
X6238000Y-15655500D03*
%TD*%
D13*
%TO.C,R3*%
X22257000Y33684000D03*
D14*
X52737000Y33684000D03*
%TD*%
D10*
%TO.C,J16*%
X69451000Y21301500D03*
X64451000Y21301500D03*
%TD*%
D13*
%TO.C,R7*%
X28303000Y-9401500D03*
D14*
X58783000Y-9401500D03*
%TD*%
D10*
%TO.C,J6*%
X11238000Y14824500D03*
X6238000Y14824500D03*
%TD*%
%TO.C,J18*%
X13880000Y-27753000D03*
X18880000Y-27753000D03*
%TD*%
%TO.C,J11*%
X6238000Y-10575500D03*
X11238000Y-10575500D03*
%TD*%
D13*
%TO.C,R4*%
X22313750Y21968250D03*
D14*
X52793750Y21968250D03*
%TD*%
D10*
%TO.C,J8*%
X11238000Y4664500D03*
X6238000Y4664500D03*
%TD*%
D12*
%TO.C,J14*%
X57822000Y-29308000D03*
X57822000Y-26768000D03*
X60362000Y-29308000D03*
X60362000Y-26768000D03*
X62902000Y-29308000D03*
X62902000Y-26768000D03*
X65442000Y-29308000D03*
X65442000Y-26768000D03*
%TD*%
D17*
%TO.C,D5*%
X17588000Y40351500D03*
D18*
X19493000Y40351500D03*
D19*
X15683000Y40351500D03*
%TD*%
D20*
%TO.C,R17*%
X28665722Y17936000D03*
X28665722Y16031000D03*
%TD*%
D21*
%TO.C,U2*%
X33488000Y5045500D03*
X33488000Y7585500D03*
X39788000Y7585500D03*
X39788000Y5045500D03*
%TD*%
D22*
%TO.C,C1*%
X27913500Y39653000D03*
X29818500Y39653000D03*
%TD*%
D20*
%TO.C,R12*%
X26834000Y-33499000D03*
X26834000Y-31594000D03*
%TD*%
D23*
%TO.C,D10*%
X26326000Y47146000D03*
X30326000Y47146000D03*
%TD*%
D21*
%TO.C,U5*%
X31329000Y15840500D03*
X31329000Y18380500D03*
X37629000Y18380500D03*
X37629000Y15840500D03*
%TD*%
D17*
%TO.C,D9*%
X17563000Y4728000D03*
D18*
X19468000Y4728000D03*
D19*
X15658000Y4728000D03*
%TD*%
D20*
%TO.C,R11*%
X32676000Y39145000D03*
X32676000Y41050000D03*
%TD*%
D21*
%TO.C,U4*%
X35364278Y34319000D03*
X35364278Y36859000D03*
X41664278Y36859000D03*
X41664278Y34319000D03*
%TD*%
D20*
%TO.C,R16*%
X32676000Y36478000D03*
X32676000Y34573000D03*
%TD*%
D17*
%TO.C,D3*%
X17588000Y24984500D03*
D18*
X19493000Y24984500D03*
D19*
X15683000Y24984500D03*
%TD*%
D17*
%TO.C,D8*%
X17436000Y9808000D03*
D18*
X19341000Y9808000D03*
D19*
X15531000Y9808000D03*
%TD*%
D24*
%TO.C,F3*%
X45839000Y-32737000D03*
X49739000Y-32737000D03*
%TD*%
D20*
%TO.C,R15*%
X44588306Y44510750D03*
X44588306Y42605750D03*
%TD*%
D24*
%TO.C,F1*%
X46220000Y-20418000D03*
X50120000Y-20418000D03*
%TD*%
D20*
%TO.C,R13*%
X40804000Y28286500D03*
X40804000Y26381500D03*
%TD*%
%TO.C,R23*%
X46388278Y-13496500D03*
X46388278Y-15401500D03*
%TD*%
%TO.C,R20*%
X40956000Y18190000D03*
X40956000Y16285000D03*
%TD*%
D17*
%TO.C,D7*%
X17588000Y20158500D03*
D18*
X19493000Y20158500D03*
D19*
X15683000Y20158500D03*
%TD*%
D17*
%TO.C,D4*%
X17436000Y14888000D03*
D18*
X19341000Y14888000D03*
D19*
X15531000Y14888000D03*
%TD*%
D20*
%TO.C,R1*%
X57339000Y27461000D03*
X57339000Y25556000D03*
%TD*%
D17*
%TO.C,D6*%
X17588000Y35144500D03*
D18*
X19493000Y35144500D03*
D19*
X15683000Y35144500D03*
%TD*%
D20*
%TO.C,R22*%
X34225000Y-13560000D03*
X34225000Y-15465000D03*
%TD*%
D25*
%TO.C,C2*%
X27838900Y43381020D03*
X29738900Y43381020D03*
%TD*%
D17*
%TO.C,D2*%
X26834000Y-28419000D03*
D26*
X26834000Y-26514000D03*
D27*
X26834000Y-30324000D03*
%TD*%
D17*
%TO.C,D1*%
X57339000Y21428500D03*
D27*
X57339000Y19523500D03*
D26*
X57339000Y23333500D03*
%TD*%
D21*
%TO.C,U3*%
X35088306Y42288250D03*
X35088306Y44828250D03*
X41388306Y44828250D03*
X41388306Y42288250D03*
%TD*%
D24*
%TO.C,F4*%
X32758000Y-32610000D03*
X36658000Y-32610000D03*
%TD*%
D21*
%TO.C,U6*%
X37019000Y-4987500D03*
X37019000Y-2447500D03*
X43319000Y-2447500D03*
X43319000Y-4987500D03*
%TD*%
%TO.C,U1*%
X31177000Y26191000D03*
X31177000Y28731000D03*
X37477000Y28731000D03*
X37477000Y26191000D03*
%TD*%
D20*
%TO.C,R14*%
X43090000Y7268000D03*
X43090000Y5363000D03*
%TD*%
%TO.C,R10*%
X30799722Y7776000D03*
X30799722Y5871000D03*
%TD*%
D21*
%TO.C,U7*%
X36888278Y-15719000D03*
X36888278Y-13179000D03*
X43188278Y-13179000D03*
X43188278Y-15719000D03*
%TD*%
D20*
%TO.C,R19*%
X44839278Y36541500D03*
X44839278Y34636500D03*
%TD*%
%TO.C,R18*%
X34355722Y-2955500D03*
X34355722Y-4860500D03*
%TD*%
%TO.C,R9*%
X28513722Y28032500D03*
X28513722Y26127500D03*
%TD*%
%TO.C,R21*%
X46519000Y-2765000D03*
X46519000Y-4670000D03*
%TD*%
M02*
