M48
; DRILL file {KiCad 6.0.11+dfsg-1~bpo11+1} date Thu Apr 13 01:07:49 2023
; FORMAT={-:-/ absolute / metric / decimal}
; #@! TF.CreationDate,2023-04-13T01:07:49+00:00
; #@! TF.GenerationSoftware,Kicad,Pcbnew,6.0.11+dfsg-1~bpo11+1
; #@! TF.FileFunction,Plated,1,2,PTH
FMAT,2
METRIC
; #@! TA.AperFunction,Plated,PTH,ComponentDrill
T1C0.889
; #@! TA.AperFunction,Plated,PTH,ComponentDrill
T2C1.200
; #@! TA.AperFunction,Plated,PTH,ComponentDrill
T3C1.300
; #@! TA.AperFunction,Plated,PTH,ComponentDrill
T4C1.650
; #@! TA.AperFunction,Plated,PTH,ComponentDrill
T5C3.000
%
G90
G05
T1
X61.214Y84.074
X61.214Y81.534
X61.214Y78.994
X61.214Y76.454
X61.214Y73.914
X61.214Y71.374
X61.214Y68.834
X62.73Y58.81
X62.73Y56.27
X62.73Y53.73
X62.73Y51.19
X63.754Y84.074
X63.754Y81.534
X63.754Y78.994
X63.754Y76.454
X63.754Y73.914
X63.754Y71.374
X63.754Y68.834
X65.27Y58.81
X65.27Y56.27
X65.27Y53.73
X65.27Y51.19
X68.73Y58.81
X68.73Y56.27
X68.73Y53.73
X68.73Y51.19
X71.27Y58.81
X71.27Y56.27
X71.27Y53.73
X71.27Y51.19
X71.374Y79.756
X71.374Y77.216
X71.374Y74.676
X73.914Y79.756
X73.914Y77.216
X73.914Y74.676
T2
X34.0Y90.0
X34.0Y79.386
X34.0Y68.772
X34.0Y58.158
X34.0Y47.544
X34.0Y36.93
X34.0Y26.316
X39.0Y90.0
X39.0Y79.386
X39.0Y68.772
X39.0Y58.158
X39.0Y47.544
X39.0Y36.93
X39.0Y26.316
T3
X10.928Y83.544
X10.928Y78.544
X10.928Y73.544
X10.928Y68.544
X10.928Y63.544
X10.928Y58.544
X10.928Y53.544
X10.928Y48.544
X10.928Y43.544
X10.928Y38.544
X10.928Y33.544
X10.928Y28.544
X15.928Y83.544
X15.928Y78.544
X15.928Y73.544
X15.928Y68.544
X15.928Y63.544
X15.928Y58.544
X15.928Y53.544
X15.928Y48.544
X15.928Y43.544
X15.928Y38.544
X15.928Y33.544
X15.928Y28.544
X65.598Y25.712
X65.598Y20.712
X65.677Y35.812
X65.677Y30.812
X70.598Y25.712
X70.598Y20.712
X70.677Y35.812
X70.677Y30.812
T4
X22.308Y16.178
X22.308Y12.778
X32.048Y16.178
X32.048Y12.778
X40.596Y16.178
X40.596Y12.778
X50.336Y16.178
X50.336Y12.778
T5
X10.16Y91.44
X10.16Y10.16
X71.12Y91.44
X71.12Y10.16
T0
M30
