%TF.GenerationSoftware,KiCad,Pcbnew,6.0.10+dfsg-1~bpo11+1*%
%TF.CreationDate,2023-02-12T02:56:33+00:00*%
%TF.ProjectId,ISO11446PWR01,49534f31-3134-4343-9650-575230312e6b,rev?*%
%TF.SameCoordinates,Original*%
%TF.FileFunction,Legend,Top*%
%TF.FilePolarity,Positive*%
%FSLAX46Y46*%
G04 Gerber Fmt 4.6, Leading zero omitted, Abs format (unit mm)*
G04 Created by KiCad (PCBNEW 6.0.10+dfsg-1~bpo11+1) date 2023-02-12 02:56:33*
%MOMM*%
%LPD*%
G01*
G04 APERTURE LIST*
%ADD10C,0.304800*%
%ADD11C,0.050000*%
%ADD12C,0.150000*%
%ADD13C,0.120000*%
%ADD14R,1.524000X1.524000*%
G04 APERTURE END LIST*
D10*
%TO.C,J6*%
X97463428Y68072000D02*
X98552000Y68072000D01*
X98769714Y67999429D01*
X98914857Y67854286D01*
X98987428Y67636572D01*
X98987428Y67491429D01*
X97463428Y69450858D02*
X97463428Y69160572D01*
X97536000Y69015429D01*
X97608571Y68942858D01*
X97826285Y68797715D01*
X98116571Y68725143D01*
X98697142Y68725143D01*
X98842285Y68797715D01*
X98914857Y68870286D01*
X98987428Y69015429D01*
X98987428Y69305715D01*
X98914857Y69450858D01*
X98842285Y69523429D01*
X98697142Y69596000D01*
X98334285Y69596000D01*
X98189142Y69523429D01*
X98116571Y69450858D01*
X98044000Y69305715D01*
X98044000Y69015429D01*
X98116571Y68870286D01*
X98189142Y68797715D01*
X98334285Y68725143D01*
%TO.C,J7*%
X97463428Y-8128000D02*
X98552000Y-8128000D01*
X98769714Y-8200571D01*
X98914857Y-8345714D01*
X98987428Y-8563428D01*
X98987428Y-8708571D01*
X97463428Y-7547428D02*
X97463428Y-6531428D01*
X98987428Y-7184571D01*
%TO.C,J4*%
X97463428Y-3048000D02*
X98552000Y-3048000D01*
X98769714Y-3120571D01*
X98914857Y-3265714D01*
X98987428Y-3483428D01*
X98987428Y-3628571D01*
X97971428Y-1669142D02*
X98987428Y-1669142D01*
X97390857Y-2032000D02*
X98479428Y-2394857D01*
X98479428Y-1451428D01*
D11*
%TO.C,J1*%
X129301857Y59463810D02*
X129016142Y59463810D01*
X129159000Y59463810D02*
X129159000Y59963810D01*
X129111380Y59892381D01*
X129063761Y59844762D01*
X129016142Y59820953D01*
D12*
%TO.C,F2*%
X103816666Y19751429D02*
X103483333Y19751429D01*
X103483333Y19227620D02*
X103483333Y20227620D01*
X103959523Y20227620D01*
X104292857Y20132381D02*
X104340476Y20180000D01*
X104435714Y20227620D01*
X104673809Y20227620D01*
X104769047Y20180000D01*
X104816666Y20132381D01*
X104864285Y20037143D01*
X104864285Y19941905D01*
X104816666Y19799048D01*
X104245238Y19227620D01*
X104864285Y19227620D01*
D11*
%TO.C,J2*%
X148351857Y12473810D02*
X148066142Y12473810D01*
X148209000Y12473810D02*
X148209000Y12973810D01*
X148161380Y12902381D01*
X148113761Y12854762D01*
X148066142Y12830953D01*
D12*
%TO.C,F1*%
X89986666Y29571429D02*
X89653333Y29571429D01*
X89653333Y29047620D02*
X89653333Y30047620D01*
X90129523Y30047620D01*
X91034285Y29047620D02*
X90462857Y29047620D01*
X90748571Y29047620D02*
X90748571Y30047620D01*
X90653333Y29904762D01*
X90558095Y29809524D01*
X90462857Y29761905D01*
D10*
%TO.C,J5*%
X110163428Y55372000D02*
X111252000Y55372000D01*
X111469714Y55299429D01*
X111614857Y55154286D01*
X111687428Y54936572D01*
X111687428Y54791429D01*
X110163428Y56823429D02*
X110163428Y56097715D01*
X110889142Y56025143D01*
X110816571Y56097715D01*
X110744000Y56242858D01*
X110744000Y56605715D01*
X110816571Y56750858D01*
X110889142Y56823429D01*
X111034285Y56896000D01*
X111397142Y56896000D01*
X111542285Y56823429D01*
X111614857Y56750858D01*
X111687428Y56605715D01*
X111687428Y56242858D01*
X111614857Y56097715D01*
X111542285Y56025143D01*
D11*
%TO.C,J3*%
X134381857Y39143810D02*
X134096142Y39143810D01*
X134239000Y39143810D02*
X134239000Y39643810D01*
X134191380Y39572381D01*
X134143761Y39524762D01*
X134096142Y39500953D01*
D12*
%TO.C,J6*%
X111180100Y67079000D02*
X111180100Y70081000D01*
X111680000Y70580000D02*
X111680000Y71080000D01*
X96680000Y66079900D02*
X96680000Y71080100D01*
X111680000Y66080000D02*
X111680000Y66580000D01*
X110680000Y70580000D02*
X114181000Y70580000D01*
X105680000Y71080000D02*
X111680000Y71080000D01*
X114180100Y70580000D02*
X114180100Y66580000D01*
X111180100Y70080000D02*
X113680000Y70080000D01*
X105680000Y66080000D02*
X111680000Y66080000D01*
X111180100Y67080000D02*
X113680000Y67080000D01*
X96680000Y71080000D02*
X105680000Y71080000D01*
X105680000Y66080000D02*
X96680000Y66080000D01*
X110680000Y66580000D02*
X114180100Y66580000D01*
X113680000Y67079000D02*
X113680000Y70081000D01*
X110680000Y70580000D02*
X110680000Y66580000D01*
%TO.C,J7*%
X96680000Y-5120000D02*
X105680000Y-5120000D01*
X113680000Y-9121000D02*
X113680000Y-6119000D01*
X110680000Y-5620000D02*
X114181000Y-5620000D01*
X111180100Y-6120000D02*
X113680000Y-6120000D01*
X110680000Y-9620000D02*
X114180100Y-9620000D01*
X105680000Y-10120000D02*
X96680000Y-10120000D01*
X111180100Y-9120000D02*
X113680000Y-9120000D01*
X96680000Y-10120100D02*
X96680000Y-5119900D01*
X111680000Y-5620000D02*
X111680000Y-5120000D01*
X111680000Y-10120000D02*
X111680000Y-9620000D01*
X111180100Y-9121000D02*
X111180100Y-6119000D01*
X110680000Y-5620000D02*
X110680000Y-9620000D01*
X105680000Y-5120000D02*
X111680000Y-5120000D01*
X105680000Y-10120000D02*
X111680000Y-10120000D01*
X114180100Y-5620000D02*
X114180100Y-9620000D01*
%TO.C,J4*%
X114180100Y-540000D02*
X114180100Y-4540000D01*
X111680000Y-540000D02*
X111680000Y-40000D01*
X113680000Y-4041000D02*
X113680000Y-1039000D01*
X110680000Y-4540000D02*
X114180100Y-4540000D01*
X105680000Y-5040000D02*
X111680000Y-5040000D01*
X111180100Y-4040000D02*
X113680000Y-4040000D01*
X96680000Y-5040100D02*
X96680000Y-39900D01*
X111180100Y-4041000D02*
X111180100Y-1039000D01*
X110680000Y-540000D02*
X110680000Y-4540000D01*
X96680000Y-40000D02*
X105680000Y-40000D01*
X111180100Y-1040000D02*
X113680000Y-1040000D01*
X105680000Y-40000D02*
X111680000Y-40000D01*
X105680000Y-5040000D02*
X96680000Y-5040000D01*
X110680000Y-540000D02*
X114181000Y-540000D01*
X111680000Y-5040000D02*
X111680000Y-4540000D01*
%TO.C,J1*%
X129540000Y50800000D02*
X129540000Y60960000D01*
X129540000Y60960000D02*
X134620000Y60960000D01*
X134620000Y60960000D02*
X134620000Y50800000D01*
X134620000Y50800000D02*
X129540000Y50800000D01*
D13*
%TO.C,F2*%
X99099000Y15580000D02*
X105822000Y15580000D01*
X109200000Y18780000D02*
X109200000Y15580000D01*
X99099000Y18780000D02*
X100721000Y18780000D01*
X107579000Y15580000D02*
X109200000Y15580000D01*
X102479000Y18780000D02*
X109200000Y18780000D01*
X99099000Y18780000D02*
X99099000Y15580000D01*
D12*
%TO.C,J8*%
X33020000Y19050000D02*
X33020000Y11430000D01*
X27940000Y11430000D02*
X27940000Y19050000D01*
X27940000Y19050000D02*
X33020000Y19050000D01*
X33020000Y11430000D02*
X27940000Y11430000D01*
%TO.C,J2*%
X148590000Y3810000D02*
X148590000Y13970000D01*
X148590000Y13970000D02*
X153670000Y13970000D01*
X153670000Y3810000D02*
X148590000Y3810000D01*
X153670000Y13970000D02*
X153670000Y3810000D01*
D13*
%TO.C,F1*%
X85269000Y25400000D02*
X91992000Y25400000D01*
X85269000Y28600000D02*
X86891000Y28600000D01*
X93749000Y25400000D02*
X95370000Y25400000D01*
X85269000Y28600000D02*
X85269000Y25400000D01*
X95370000Y28600000D02*
X95370000Y25400000D01*
X88649000Y28600000D02*
X95370000Y28600000D01*
D12*
%TO.C,J5*%
X109380000Y53379900D02*
X109380000Y58380100D01*
X118380000Y53380000D02*
X109380000Y53380000D01*
X126880100Y57880000D02*
X126880100Y53880000D01*
X123380000Y57880000D02*
X123380000Y53880000D01*
X123880100Y54380000D02*
X126380000Y54380000D01*
X123880100Y57380000D02*
X126380000Y57380000D01*
X123380000Y53880000D02*
X126880100Y53880000D01*
X124380000Y53380000D02*
X124380000Y53880000D01*
X123380000Y57880000D02*
X126881000Y57880000D01*
X118380000Y53380000D02*
X124380000Y53380000D01*
X124380000Y57880000D02*
X124380000Y58380000D01*
X118380000Y58380000D02*
X124380000Y58380000D01*
X123880100Y54379000D02*
X123880100Y57381000D01*
X109380000Y58380000D02*
X118380000Y58380000D01*
X126380000Y54379000D02*
X126380000Y57381000D01*
%TO.C,J3*%
X134620000Y40640000D02*
X139700000Y40640000D01*
X134620000Y30480000D02*
X134620000Y40640000D01*
X139700000Y30480000D02*
X134620000Y30480000D01*
X139700000Y40640000D02*
X139700000Y30480000D01*
%TD*%
D14*
%TO.C,J1*%
X130810000Y59690000D03*
X133350000Y59690000D03*
X130810000Y57150000D03*
X133350000Y57150000D03*
X130810000Y54610000D03*
X133350000Y54610000D03*
X130810000Y52070000D03*
X133350000Y52070000D03*
%TD*%
%TO.C,J2*%
X149860000Y12700000D03*
X152400000Y12700000D03*
X149860000Y10160000D03*
X152400000Y10160000D03*
X149860000Y7620000D03*
X152400000Y7620000D03*
X149860000Y5080000D03*
X152400000Y5080000D03*
%TD*%
%TO.C,J3*%
X135890000Y39370000D03*
X138430000Y39370000D03*
X135890000Y36830000D03*
X138430000Y36830000D03*
X135890000Y34290000D03*
X138430000Y34290000D03*
X135890000Y31750000D03*
X138430000Y31750000D03*
%TD*%
M02*
