%TF.GenerationSoftware,KiCad,Pcbnew,6.0.10+dfsg-1~bpo11+1*%
%TF.CreationDate,2023-02-16T21:47:41+00:00*%
%TF.ProjectId,ISO11446PWR01,49534f31-3134-4343-9650-575230312e6b,rev?*%
%TF.SameCoordinates,Original*%
%TF.FileFunction,Legend,Bot*%
%TF.FilePolarity,Positive*%
%FSLAX46Y46*%
G04 Gerber Fmt 4.6, Leading zero omitted, Abs format (unit mm)*
G04 Created by KiCad (PCBNEW 6.0.10+dfsg-1~bpo11+1) date 2023-02-16 21:47:41*
%MOMM*%
%LPD*%
G01*
G04 APERTURE LIST*
%ADD10C,0.150000*%
%ADD11C,0.304800*%
%ADD12C,0.120000*%
G04 APERTURE END LIST*
D10*
%TO.C,U2*%
X37399904Y4163120D02*
X37399904Y3353596D01*
X37352285Y3258358D01*
X37304666Y3210739D01*
X37209428Y3163120D01*
X37018952Y3163120D01*
X36923714Y3210739D01*
X36876095Y3258358D01*
X36828476Y3353596D01*
X36828476Y4163120D01*
X36399904Y4067881D02*
X36352285Y4115500D01*
X36257047Y4163120D01*
X36018952Y4163120D01*
X35923714Y4115500D01*
X35876095Y4067881D01*
X35828476Y3972643D01*
X35828476Y3877405D01*
X35876095Y3734548D01*
X36447523Y3163120D01*
X35828476Y3163120D01*
%TO.C,D10*%
X24111285Y46947620D02*
X24111285Y47947620D01*
X23873190Y47947620D01*
X23730333Y47900000D01*
X23635095Y47804762D01*
X23587476Y47709524D01*
X23539857Y47519048D01*
X23539857Y47376191D01*
X23587476Y47185715D01*
X23635095Y47090477D01*
X23730333Y46995239D01*
X23873190Y46947620D01*
X24111285Y46947620D01*
X22587476Y46947620D02*
X23158904Y46947620D01*
X22873190Y46947620D02*
X22873190Y47947620D01*
X22968428Y47804762D01*
X23063666Y47709524D01*
X23158904Y47661905D01*
X21968428Y47947620D02*
X21873190Y47947620D01*
X21777952Y47900000D01*
X21730333Y47852381D01*
X21682714Y47757143D01*
X21635095Y47566667D01*
X21635095Y47328572D01*
X21682714Y47138096D01*
X21730333Y47042858D01*
X21777952Y46995239D01*
X21873190Y46947620D01*
X21968428Y46947620D01*
X22063666Y46995239D01*
X22111285Y47042858D01*
X22158904Y47138096D01*
X22206523Y47328572D01*
X22206523Y47566667D01*
X22158904Y47757143D01*
X22111285Y47852381D01*
X22063666Y47900000D01*
X21968428Y47947620D01*
%TO.C,U5*%
X35240904Y14958120D02*
X35240904Y14148596D01*
X35193285Y14053358D01*
X35145666Y14005739D01*
X35050428Y13958120D01*
X34859952Y13958120D01*
X34764714Y14005739D01*
X34717095Y14053358D01*
X34669476Y14148596D01*
X34669476Y14958120D01*
X33717095Y14958120D02*
X34193285Y14958120D01*
X34240904Y14481929D01*
X34193285Y14529548D01*
X34098047Y14577167D01*
X33859952Y14577167D01*
X33764714Y14529548D01*
X33717095Y14481929D01*
X33669476Y14386691D01*
X33669476Y14148596D01*
X33717095Y14053358D01*
X33764714Y14005739D01*
X33859952Y13958120D01*
X34098047Y13958120D01*
X34193285Y14005739D01*
X34240904Y14053358D01*
%TO.C,U4*%
X44994904Y38930620D02*
X44994904Y38121096D01*
X44947285Y38025858D01*
X44899666Y37978239D01*
X44804428Y37930620D01*
X44613952Y37930620D01*
X44518714Y37978239D01*
X44471095Y38025858D01*
X44423476Y38121096D01*
X44423476Y38930620D01*
X43518714Y38597286D02*
X43518714Y37930620D01*
X43756809Y38978239D02*
X43994904Y38263953D01*
X43375857Y38263953D01*
D11*
%TO.C,F3*%
X43709620Y-35782822D02*
X44217620Y-35782822D01*
X44217620Y-36581108D02*
X44217620Y-35057108D01*
X43491905Y-35057108D01*
X43056477Y-35057108D02*
X42113048Y-35057108D01*
X42621048Y-35637680D01*
X42403334Y-35637680D01*
X42258191Y-35710251D01*
X42185620Y-35782822D01*
X42113048Y-35927965D01*
X42113048Y-36290822D01*
X42185620Y-36435965D01*
X42258191Y-36508537D01*
X42403334Y-36581108D01*
X42838762Y-36581108D01*
X42983905Y-36508537D01*
X43056477Y-36435965D01*
%TO.C,F1*%
X48667400Y-23357142D02*
X49175400Y-23357142D01*
X49175400Y-24155428D02*
X49175400Y-22631428D01*
X48449685Y-22631428D01*
X47070828Y-24155428D02*
X47941685Y-24155428D01*
X47506257Y-24155428D02*
X47506257Y-22631428D01*
X47651400Y-22849142D01*
X47796542Y-22994285D01*
X47941685Y-23066857D01*
D10*
%TO.C,C2*%
X25857666Y42978858D02*
X25905285Y42931239D01*
X26048142Y42883620D01*
X26143380Y42883620D01*
X26286238Y42931239D01*
X26381476Y43026477D01*
X26429095Y43121715D01*
X26476714Y43312191D01*
X26476714Y43455048D01*
X26429095Y43645524D01*
X26381476Y43740762D01*
X26286238Y43836000D01*
X26143380Y43883620D01*
X26048142Y43883620D01*
X25905285Y43836000D01*
X25857666Y43788381D01*
X25476714Y43788381D02*
X25429095Y43836000D01*
X25333857Y43883620D01*
X25095761Y43883620D01*
X25000523Y43836000D01*
X24952904Y43788381D01*
X24905285Y43693143D01*
X24905285Y43597905D01*
X24952904Y43455048D01*
X25524333Y42883620D01*
X24905285Y42883620D01*
%TO.C,U3*%
X44994904Y47058620D02*
X44994904Y46249096D01*
X44947285Y46153858D01*
X44899666Y46106239D01*
X44804428Y46058620D01*
X44613952Y46058620D01*
X44518714Y46106239D01*
X44471095Y46153858D01*
X44423476Y46249096D01*
X44423476Y47058620D01*
X44042523Y47058620D02*
X43423476Y47058620D01*
X43756809Y46677667D01*
X43613952Y46677667D01*
X43518714Y46630048D01*
X43471095Y46582429D01*
X43423476Y46487191D01*
X43423476Y46249096D01*
X43471095Y46153858D01*
X43518714Y46106239D01*
X43613952Y46058620D01*
X43899666Y46058620D01*
X43994904Y46106239D01*
X44042523Y46153858D01*
D11*
%TO.C,F4*%
X40651822Y-41746380D02*
X40651822Y-41238380D01*
X41450108Y-41238380D02*
X39926108Y-41238380D01*
X39926108Y-41964094D01*
X40434108Y-43197808D02*
X41450108Y-43197808D01*
X39853537Y-42834951D02*
X40942108Y-42472094D01*
X40942108Y-43415522D01*
D10*
%TO.C,U6*%
X40930904Y-5869880D02*
X40930904Y-6679404D01*
X40883285Y-6774642D01*
X40835666Y-6822261D01*
X40740428Y-6869880D01*
X40549952Y-6869880D01*
X40454714Y-6822261D01*
X40407095Y-6774642D01*
X40359476Y-6679404D01*
X40359476Y-5869880D01*
X39454714Y-5869880D02*
X39645190Y-5869880D01*
X39740428Y-5917500D01*
X39788047Y-5965119D01*
X39883285Y-6107976D01*
X39930904Y-6298452D01*
X39930904Y-6679404D01*
X39883285Y-6774642D01*
X39835666Y-6822261D01*
X39740428Y-6869880D01*
X39549952Y-6869880D01*
X39454714Y-6822261D01*
X39407095Y-6774642D01*
X39359476Y-6679404D01*
X39359476Y-6441309D01*
X39407095Y-6346071D01*
X39454714Y-6298452D01*
X39549952Y-6250833D01*
X39740428Y-6250833D01*
X39835666Y-6298452D01*
X39883285Y-6346071D01*
X39930904Y-6441309D01*
%TO.C,U1*%
X35088904Y25308620D02*
X35088904Y24499096D01*
X35041285Y24403858D01*
X34993666Y24356239D01*
X34898428Y24308620D01*
X34707952Y24308620D01*
X34612714Y24356239D01*
X34565095Y24403858D01*
X34517476Y24499096D01*
X34517476Y25308620D01*
X33517476Y24308620D02*
X34088904Y24308620D01*
X33803190Y24308620D02*
X33803190Y25308620D01*
X33898428Y25165762D01*
X33993666Y25070524D01*
X34088904Y25022905D01*
%TO.C,U7*%
X40800182Y-16601380D02*
X40800182Y-17410904D01*
X40752563Y-17506142D01*
X40704944Y-17553761D01*
X40609706Y-17601380D01*
X40419230Y-17601380D01*
X40323992Y-17553761D01*
X40276373Y-17506142D01*
X40228754Y-17410904D01*
X40228754Y-16601380D01*
X39847801Y-16601380D02*
X39181135Y-16601380D01*
X39609706Y-17601380D01*
D12*
%TO.C,R17*%
X27903722Y17364500D02*
X27903722Y16602500D01*
D10*
X27903722Y15459500D02*
X29427722Y15459500D01*
X29427722Y18507500D02*
X27903722Y18507500D01*
D12*
X29427722Y17364500D02*
X29427722Y16602500D01*
%TO.C,U2*%
X34238000Y8315500D02*
X34238000Y8165500D01*
X39038000Y4315500D02*
X39038000Y4465500D01*
X39038000Y8165500D02*
X39038000Y8315500D01*
X34238000Y4465500D02*
X34238000Y4315500D01*
X34238000Y4315500D02*
X39038000Y4315500D01*
X39038000Y8315500D02*
X34238000Y8315500D01*
X34238000Y4465500D02*
X32538000Y4465500D01*
%TO.C,C1*%
X28485000Y38891000D02*
X29247000Y38891000D01*
X28485000Y40415000D02*
X29247000Y40415000D01*
D10*
X27342000Y40415000D02*
X27342000Y38891000D01*
X30390000Y38891000D02*
X30390000Y40415000D01*
%TO.C,R12*%
X27596000Y-31213000D02*
X26072000Y-31213000D01*
D12*
X26072000Y-33118000D02*
X26072000Y-32356000D01*
X27596000Y-33118000D02*
X27596000Y-32356000D01*
D10*
X26072000Y-34261000D02*
X27596000Y-34261000D01*
D12*
%TO.C,D10*%
X24926000Y45496000D02*
X24926000Y48796000D01*
X24926000Y45496000D02*
X30326000Y45496000D01*
X24926000Y48796000D02*
X30326000Y48796000D01*
%TO.C,U5*%
X36879000Y19110500D02*
X32079000Y19110500D01*
X36879000Y18960500D02*
X36879000Y19110500D01*
X32079000Y19110500D02*
X32079000Y18960500D01*
X32079000Y15110500D02*
X36879000Y15110500D01*
X32079000Y15260500D02*
X30379000Y15260500D01*
X32079000Y15260500D02*
X32079000Y15110500D01*
X36879000Y15110500D02*
X36879000Y15260500D01*
D10*
%TO.C,R11*%
X31914000Y38573500D02*
X33438000Y38573500D01*
D12*
X31914000Y39716500D02*
X31914000Y40478500D01*
D10*
X33438000Y41621500D02*
X31914000Y41621500D01*
D12*
X33438000Y39716500D02*
X33438000Y40478500D01*
%TO.C,U4*%
X36114278Y33589000D02*
X40914278Y33589000D01*
X40914278Y33589000D02*
X40914278Y33739000D01*
X40914278Y37439000D02*
X40914278Y37589000D01*
X36114278Y33739000D02*
X36114278Y33589000D01*
X36114278Y37589000D02*
X36114278Y37439000D01*
X36114278Y33739000D02*
X34414278Y33739000D01*
X40914278Y37589000D02*
X36114278Y37589000D01*
%TO.C,R16*%
X31914000Y35906500D02*
X31914000Y35144500D01*
D10*
X31914000Y34001500D02*
X33438000Y34001500D01*
X33438000Y37049500D02*
X31914000Y37049500D01*
D12*
X33438000Y35906500D02*
X33438000Y35144500D01*
D10*
%TO.C,F3*%
X46646000Y-30959000D02*
X48932000Y-30959000D01*
X46646000Y-34515000D02*
X48932000Y-34515000D01*
%TO.C,R15*%
X45350306Y45082250D02*
X43826306Y45082250D01*
D12*
X45350306Y43939250D02*
X45350306Y43177250D01*
X43826306Y43939250D02*
X43826306Y43177250D01*
D10*
X43826306Y42034250D02*
X45350306Y42034250D01*
%TO.C,F1*%
X47027000Y-18640000D02*
X49313000Y-18640000D01*
X47027000Y-22196000D02*
X49313000Y-22196000D01*
%TO.C,R13*%
X41566000Y28858000D02*
X40042000Y28858000D01*
D12*
X41566000Y27715000D02*
X41566000Y26953000D01*
D10*
X40042000Y25810000D02*
X41566000Y25810000D01*
D12*
X40042000Y27715000D02*
X40042000Y26953000D01*
%TO.C,R23*%
X45626278Y-14068000D02*
X45626278Y-14830000D01*
D10*
X45626278Y-15973000D02*
X47150278Y-15973000D01*
D12*
X47150278Y-14068000D02*
X47150278Y-14830000D01*
D10*
X47150278Y-12925000D02*
X45626278Y-12925000D01*
D12*
%TO.C,R20*%
X41718000Y17618500D02*
X41718000Y16856500D01*
D10*
X40194000Y15713500D02*
X41718000Y15713500D01*
X41718000Y18761500D02*
X40194000Y18761500D01*
D12*
X40194000Y17618500D02*
X40194000Y16856500D01*
D10*
%TO.C,R1*%
X55997000Y25175000D02*
X57521000Y25175000D01*
D12*
X55997000Y27080000D02*
X55997000Y26318000D01*
X57521000Y27080000D02*
X57521000Y26318000D01*
D10*
X57521000Y28223000D02*
X55997000Y28223000D01*
D12*
%TO.C,R22*%
X33463000Y-14131500D02*
X33463000Y-14893500D01*
X34987000Y-14131500D02*
X34987000Y-14893500D01*
D10*
X33463000Y-16036500D02*
X34987000Y-16036500D01*
X34987000Y-12988500D02*
X33463000Y-12988500D01*
D12*
%TO.C,C2*%
X28527648Y44116020D02*
X29050152Y44116020D01*
X28527648Y42646020D02*
X29050152Y42646020D01*
%TO.C,U3*%
X40638306Y45558250D02*
X35838306Y45558250D01*
X40638306Y41558250D02*
X40638306Y41708250D01*
X35838306Y41708250D02*
X35838306Y41558250D01*
X40638306Y45408250D02*
X40638306Y45558250D01*
X35838306Y41708250D02*
X34138306Y41708250D01*
X35838306Y45558250D02*
X35838306Y45408250D01*
X35838306Y41558250D02*
X40638306Y41558250D01*
D10*
%TO.C,F4*%
X33565000Y-34388000D02*
X35851000Y-34388000D01*
X33565000Y-30832000D02*
X35851000Y-30832000D01*
D12*
%TO.C,U6*%
X42569000Y-5717500D02*
X42569000Y-5567500D01*
X37769000Y-5567500D02*
X37769000Y-5717500D01*
X42569000Y-1717500D02*
X37769000Y-1717500D01*
X42569000Y-1867500D02*
X42569000Y-1717500D01*
X37769000Y-5567500D02*
X36069000Y-5567500D01*
X37769000Y-5717500D02*
X42569000Y-5717500D01*
X37769000Y-1717500D02*
X37769000Y-1867500D01*
%TO.C,U1*%
X31927000Y29461000D02*
X31927000Y29311000D01*
X36727000Y29311000D02*
X36727000Y29461000D01*
X36727000Y29461000D02*
X31927000Y29461000D01*
X31927000Y25611000D02*
X31927000Y25461000D01*
X31927000Y25461000D02*
X36727000Y25461000D01*
X36727000Y25461000D02*
X36727000Y25611000D01*
X31927000Y25611000D02*
X30227000Y25611000D01*
%TO.C,R14*%
X43852000Y6696500D02*
X43852000Y5934500D01*
D10*
X43852000Y7839500D02*
X42328000Y7839500D01*
D12*
X42328000Y6696500D02*
X42328000Y5934500D01*
D10*
X42328000Y4791500D02*
X43852000Y4791500D01*
%TO.C,R10*%
X31561722Y8347500D02*
X30037722Y8347500D01*
X30037722Y5299500D02*
X31561722Y5299500D01*
D12*
X31561722Y7204500D02*
X31561722Y6442500D01*
X30037722Y7204500D02*
X30037722Y6442500D01*
%TO.C,U7*%
X42438278Y-16449000D02*
X42438278Y-16299000D01*
X37638278Y-16299000D02*
X37638278Y-16449000D01*
X42438278Y-12599000D02*
X42438278Y-12449000D01*
X37638278Y-12449000D02*
X37638278Y-12599000D01*
X42438278Y-12449000D02*
X37638278Y-12449000D01*
X37638278Y-16299000D02*
X35938278Y-16299000D01*
X37638278Y-16449000D02*
X42438278Y-16449000D01*
D10*
%TO.C,R19*%
X44077278Y34065000D02*
X45601278Y34065000D01*
D12*
X45601278Y35970000D02*
X45601278Y35208000D01*
D10*
X45601278Y37113000D02*
X44077278Y37113000D01*
D12*
X44077278Y35970000D02*
X44077278Y35208000D01*
%TO.C,R18*%
X33593722Y-3527000D02*
X33593722Y-4289000D01*
D10*
X33593722Y-5432000D02*
X35117722Y-5432000D01*
D12*
X35117722Y-3527000D02*
X35117722Y-4289000D01*
D10*
X35117722Y-2384000D02*
X33593722Y-2384000D01*
D12*
%TO.C,R9*%
X29275722Y27461000D02*
X29275722Y26699000D01*
D10*
X27751722Y25556000D02*
X29275722Y25556000D01*
X29275722Y28604000D02*
X27751722Y28604000D01*
D12*
X27751722Y27461000D02*
X27751722Y26699000D01*
%TO.C,R21*%
X47281000Y-3336500D02*
X47281000Y-4098500D01*
D10*
X45757000Y-5241500D02*
X47281000Y-5241500D01*
X47281000Y-2193500D02*
X45757000Y-2193500D01*
D12*
X45757000Y-3336500D02*
X45757000Y-4098500D01*
%TD*%
M02*
