%TF.GenerationSoftware,KiCad,Pcbnew,6.0.10+dfsg-1~bpo11+1*%
%TF.CreationDate,2023-02-14T14:12:12+00:00*%
%TF.ProjectId,ISO11446PWR01,49534f31-3134-4343-9650-575230312e6b,rev?*%
%TF.SameCoordinates,Original*%
%TF.FileFunction,Soldermask,Top*%
%TF.FilePolarity,Negative*%
%FSLAX46Y46*%
G04 Gerber Fmt 4.6, Leading zero omitted, Abs format (unit mm)*
G04 Created by KiCad (PCBNEW 6.0.10+dfsg-1~bpo11+1) date 2023-02-14 14:12:12*
%MOMM*%
%LPD*%
G01*
G04 APERTURE LIST*
%ADD10R,3.810000X3.810000*%
%ADD11C,6.000000*%
%ADD12R,1.524000X1.524000*%
%ADD13C,2.010000*%
G04 APERTURE END LIST*
D10*
%TO.C,J6*%
X106680000Y68930000D03*
X101680000Y68930000D03*
%TD*%
D11*
%TO.C,M2*%
X0Y30480000D03*
%TD*%
D10*
%TO.C,J7*%
X101680000Y-7270000D03*
X106680000Y-7270000D03*
%TD*%
D11*
%TO.C,M4*%
X30480000Y0D03*
%TD*%
D10*
%TO.C,J4*%
X106680000Y-2190000D03*
X101680000Y-2190000D03*
%TD*%
D12*
%TO.C,J1*%
X130810000Y59690000D03*
X133350000Y59690000D03*
X130810000Y57150000D03*
X133350000Y57150000D03*
X130810000Y54610000D03*
X133350000Y54610000D03*
X130810000Y52070000D03*
X133350000Y52070000D03*
%TD*%
D13*
%TO.C,F2*%
X101600000Y17780000D03*
X106700000Y16580000D03*
%TD*%
D12*
%TO.C,J8*%
X31750000Y12700000D03*
X29210000Y12700000D03*
X31750000Y15240000D03*
X29210000Y15240000D03*
X31750000Y17780000D03*
X29210000Y17780000D03*
%TD*%
D11*
%TO.C,M3*%
X0Y0D03*
%TD*%
D12*
%TO.C,J2*%
X149860000Y12700000D03*
X152400000Y12700000D03*
X149860000Y10160000D03*
X152400000Y10160000D03*
X149860000Y7620000D03*
X152400000Y7620000D03*
X149860000Y5080000D03*
X152400000Y5080000D03*
%TD*%
D13*
%TO.C,F1*%
X87770000Y27600000D03*
X92870000Y26400000D03*
%TD*%
D11*
%TO.C,M1*%
X30480000Y30480000D03*
%TD*%
D10*
%TO.C,J5*%
X114380000Y56230000D03*
X119380000Y56230000D03*
%TD*%
D12*
%TO.C,J3*%
X135890000Y39370000D03*
X138430000Y39370000D03*
X135890000Y36830000D03*
X138430000Y36830000D03*
X135890000Y34290000D03*
X138430000Y34290000D03*
X135890000Y31750000D03*
X138430000Y31750000D03*
%TD*%
M02*
