%TF.GenerationSoftware,KiCad,Pcbnew,6.0.10+dfsg-1~bpo11+1*%
%TF.CreationDate,2023-02-15T20:13:24+00:00*%
%TF.ProjectId,ISO11446PWR01,49534f31-3134-4343-9650-575230312e6b,rev?*%
%TF.SameCoordinates,Original*%
%TF.FileFunction,Copper,L2,Bot*%
%TF.FilePolarity,Positive*%
%FSLAX46Y46*%
G04 Gerber Fmt 4.6, Leading zero omitted, Abs format (unit mm)*
G04 Created by KiCad (PCBNEW 6.0.10+dfsg-1~bpo11+1) date 2023-02-15 20:13:24*
%MOMM*%
%LPD*%
G01*
G04 APERTURE LIST*
G04 Aperture macros list*
%AMRoundRect*
0 Rectangle with rounded corners*
0 $1 Rounding radius*
0 $2 $3 $4 $5 $6 $7 $8 $9 X,Y pos of 4 corners*
0 Add a 4 corners polygon primitive as box body*
4,1,4,$2,$3,$4,$5,$6,$7,$8,$9,$2,$3,0*
0 Add four circle primitives for the rounded corners*
1,1,$1+$1,$2,$3*
1,1,$1+$1,$4,$5*
1,1,$1+$1,$6,$7*
1,1,$1+$1,$8,$9*
0 Add four rect primitives between the rounded corners*
20,1,$1+$1,$2,$3,$4,$5,0*
20,1,$1+$1,$4,$5,$6,$7,0*
20,1,$1+$1,$6,$7,$8,$9,0*
20,1,$1+$1,$8,$9,$2,$3,0*%
G04 Aperture macros list end*
%TA.AperFunction,ComponentPad*%
%ADD10R,3.810000X3.810000*%
%TD*%
%TA.AperFunction,ComponentPad*%
%ADD11C,6.000000*%
%TD*%
%TA.AperFunction,ComponentPad*%
%ADD12R,1.524000X1.524000*%
%TD*%
%TA.AperFunction,ComponentPad*%
%ADD13C,2.010000*%
%TD*%
%TA.AperFunction,SMDPad,CuDef*%
%ADD14RoundRect,0.250000X0.250000X0.475000X-0.250000X0.475000X-0.250000X-0.475000X0.250000X-0.475000X0*%
%TD*%
%TA.AperFunction,SMDPad,CuDef*%
%ADD15R,2.500000X1.800000*%
%TD*%
G04 APERTURE END LIST*
D10*
%TO.P,J6,1,Pin_1*%
%TO.N,Net-(J1-Pad3)*%
X106680000Y68930000D03*
X101680000Y68930000D03*
%TD*%
D11*
%TO.P,M2,1*%
%TO.N,Net-(M1-Pad1)*%
X0Y30480000D03*
%TD*%
D10*
%TO.P,J7,1,Pin_1*%
%TO.N,Net-(J1-Pad1)*%
X101680000Y-7270000D03*
X106680000Y-7270000D03*
%TD*%
D11*
%TO.P,M4,1*%
%TO.N,Net-(M1-Pad1)*%
X30480000Y0D03*
%TD*%
D10*
%TO.P,J4,1,Pin_1*%
%TO.N,Net-(F1-Pad2)*%
X106680000Y-2190000D03*
X101680000Y-2190000D03*
%TD*%
D12*
%TO.P,J1,1*%
%TO.N,Net-(J1-Pad1)*%
X130810000Y59690000D03*
%TO.P,J1,2*%
X133350000Y59690000D03*
%TO.P,J1,3*%
%TO.N,Net-(J1-Pad3)*%
X130810000Y57150000D03*
%TO.P,J1,4*%
X133350000Y57150000D03*
%TO.P,J1,5*%
%TO.N,Net-(F2-Pad1)*%
X130810000Y54610000D03*
%TO.P,J1,6*%
X133350000Y54610000D03*
%TO.P,J1,7*%
%TO.N,Net-(F1-Pad1)*%
X130810000Y52070000D03*
%TO.P,J1,8*%
X133350000Y52070000D03*
%TD*%
D13*
%TO.P,F2,1*%
%TO.N,Net-(F2-Pad1)*%
X101600000Y17780000D03*
%TO.P,F2,2*%
%TO.N,Net-(F2-Pad2)*%
X106700000Y16580000D03*
%TD*%
D12*
%TO.P,J8,1*%
%TO.N,GND*%
X31750000Y12700000D03*
%TO.P,J8,2*%
X29210000Y12700000D03*
%TO.P,J8,3*%
%TO.N,+5V*%
X31750000Y15240000D03*
%TO.P,J8,4*%
X29210000Y15240000D03*
%TO.P,J8,5*%
%TO.N,GND*%
X31750000Y17780000D03*
%TO.P,J8,6*%
X29210000Y17780000D03*
%TD*%
D11*
%TO.P,M3,1*%
%TO.N,Net-(M1-Pad1)*%
X0Y0D03*
%TD*%
D12*
%TO.P,J2,1*%
%TO.N,unconnected-(J2-Pad1)*%
X149860000Y12700000D03*
%TO.P,J2,2*%
X152400000Y12700000D03*
%TO.P,J2,3*%
%TO.N,unconnected-(J2-Pad3)*%
X149860000Y10160000D03*
%TO.P,J2,4*%
X152400000Y10160000D03*
%TO.P,J2,5*%
%TO.N,Net-(F1-Pad1)*%
X149860000Y7620000D03*
%TO.P,J2,6*%
X152400000Y7620000D03*
%TO.P,J2,7*%
X149860000Y5080000D03*
%TO.P,J2,8*%
X152400000Y5080000D03*
%TD*%
D13*
%TO.P,F1,1*%
%TO.N,Net-(F1-Pad1)*%
X87770000Y27600000D03*
%TO.P,F1,2*%
%TO.N,Net-(F1-Pad2)*%
X92870000Y26400000D03*
%TD*%
D11*
%TO.P,M1,1*%
%TO.N,Net-(M1-Pad1)*%
X30480000Y30480000D03*
%TD*%
D10*
%TO.P,J5,1,Pin_1*%
%TO.N,Net-(F2-Pad2)*%
X114380000Y56230000D03*
X119380000Y56230000D03*
%TD*%
D12*
%TO.P,J3,1*%
%TO.N,unconnected-(J3-Pad1)*%
X135890000Y39370000D03*
%TO.P,J3,2*%
X138430000Y39370000D03*
%TO.P,J3,3*%
%TO.N,unconnected-(J3-Pad3)*%
X135890000Y36830000D03*
%TO.P,J3,4*%
X138430000Y36830000D03*
%TO.P,J3,5*%
%TO.N,unconnected-(J3-Pad5)*%
X135890000Y34290000D03*
%TO.P,J3,6*%
X138430000Y34290000D03*
%TO.P,J3,7*%
%TO.N,Net-(J1-Pad1)*%
X135890000Y31750000D03*
%TO.P,J3,8*%
X138430000Y31750000D03*
%TD*%
D14*
%TO.P,C1,1*%
%TO.N,+5V*%
X11110000Y10160000D03*
%TO.P,C1,2*%
%TO.N,GND*%
X9210000Y10160000D03*
%TD*%
D15*
%TO.P,D1,1,K*%
%TO.N,+5V*%
X22320000Y16367860D03*
%TO.P,D1,2,A*%
%TO.N,GND*%
X18320000Y16367860D03*
%TD*%
D14*
%TO.P,C2,1*%
%TO.N,+5V*%
X11110000Y25850000D03*
%TO.P,C2,2*%
%TO.N,GND*%
X9210000Y25850000D03*
%TD*%
M02*
