%TF.GenerationSoftware,KiCad,Pcbnew,6.0.10+dfsg-1~bpo11+1*%
%TF.CreationDate,2023-02-16T21:28:49+00:00*%
%TF.ProjectId,ISO11446PWR01,49534f31-3134-4343-9650-575230312e6b,rev?*%
%TF.SameCoordinates,Original*%
%TF.FileFunction,Paste,Bot*%
%TF.FilePolarity,Positive*%
%FSLAX46Y46*%
G04 Gerber Fmt 4.6, Leading zero omitted, Abs format (unit mm)*
G04 Created by KiCad (PCBNEW 6.0.10+dfsg-1~bpo11+1) date 2023-02-16 21:28:49*
%MOMM*%
%LPD*%
G01*
G04 APERTURE LIST*
G04 Aperture macros list*
%AMRoundRect*
0 Rectangle with rounded corners*
0 $1 Rounding radius*
0 $2 $3 $4 $5 $6 $7 $8 $9 X,Y pos of 4 corners*
0 Add a 4 corners polygon primitive as box body*
4,1,4,$2,$3,$4,$5,$6,$7,$8,$9,$2,$3,0*
0 Add four circle primitives for the rounded corners*
1,1,$1+$1,$2,$3*
1,1,$1+$1,$4,$5*
1,1,$1+$1,$6,$7*
1,1,$1+$1,$8,$9*
0 Add four rect primitives between the rounded corners*
20,1,$1+$1,$2,$3,$4,$5,0*
20,1,$1+$1,$4,$5,$6,$7,0*
20,1,$1+$1,$6,$7,$8,$9,0*
20,1,$1+$1,$8,$9,$2,$3,0*%
%AMFreePoly0*
4,1,23,0.405000,0.745865,0.430885,0.748318,0.514326,0.717475,0.576139,0.653497,0.604092,0.569043,0.592655,0.480821,0.586333,0.471118,0.535041,0.293601,0.507443,0.099107,0.507318,-0.097336,0.534670,-0.291865,0.585847,-0.469827,0.592286,-0.479814,0.603303,-0.568089,0.574948,-0.652409,0.512833,-0.716092,0.429245,-0.746538,0.405000,-0.744124,0.405000,-0.750000,-0.645000,-0.750000,
-0.645000,0.750000,0.405000,0.750000,0.405000,0.745865,0.405000,0.745865,$1*%
G04 Aperture macros list end*
%ADD10FreePoly0,180.000000*%
%ADD11FreePoly0,0.000000*%
%ADD12R,1.397000X0.889000*%
%ADD13R,2.000000X0.640000*%
%ADD14R,0.889000X1.397000*%
%ADD15R,2.500000X1.800000*%
%ADD16R,1.900000X3.400000*%
%ADD17RoundRect,0.250000X-0.250000X-0.475000X0.250000X-0.475000X0.250000X0.475000X-0.250000X0.475000X0*%
%ADD18FreePoly0,270.000000*%
%ADD19FreePoly0,90.000000*%
G04 APERTURE END LIST*
D10*
%TO.C,D5*%
X19722000Y40288000D03*
D11*
X15912000Y40288000D03*
%TD*%
D12*
%TO.C,R17*%
X28665722Y17936000D03*
X28665722Y16031000D03*
%TD*%
D13*
%TO.C,U2*%
X33488000Y5045500D03*
X33488000Y7585500D03*
X39788000Y7585500D03*
X39788000Y5045500D03*
%TD*%
D14*
%TO.C,C1*%
X27913500Y39653000D03*
X29818500Y39653000D03*
%TD*%
D12*
%TO.C,R12*%
X26834000Y-33689500D03*
X26834000Y-31784500D03*
%TD*%
D15*
%TO.C,D10*%
X26326000Y47146000D03*
X30326000Y47146000D03*
%TD*%
D13*
%TO.C,U5*%
X31329000Y15840500D03*
X31329000Y18380500D03*
X37629000Y18380500D03*
X37629000Y15840500D03*
%TD*%
D10*
%TO.C,D9*%
X17077000Y4728000D03*
D11*
X13267000Y4728000D03*
%TD*%
D12*
%TO.C,R11*%
X32676000Y39145000D03*
X32676000Y41050000D03*
%TD*%
D13*
%TO.C,U4*%
X35364278Y34319000D03*
X35364278Y36859000D03*
X41664278Y36859000D03*
X41664278Y34319000D03*
%TD*%
D12*
%TO.C,R16*%
X32676000Y36478000D03*
X32676000Y34573000D03*
%TD*%
D10*
%TO.C,D3*%
X19722000Y25048000D03*
D11*
X15912000Y25048000D03*
%TD*%
D10*
%TO.C,D8*%
X17204000Y9808000D03*
D11*
X13394000Y9808000D03*
%TD*%
D16*
%TO.C,F3*%
X45839000Y-32737000D03*
X49739000Y-32737000D03*
%TD*%
D12*
%TO.C,R15*%
X44588306Y44510750D03*
X44588306Y42605750D03*
%TD*%
D16*
%TO.C,F1*%
X46220000Y-20418000D03*
X50120000Y-20418000D03*
%TD*%
D12*
%TO.C,R13*%
X40804000Y28286500D03*
X40804000Y26381500D03*
%TD*%
%TO.C,R23*%
X46388278Y-13496500D03*
X46388278Y-15401500D03*
%TD*%
%TO.C,R20*%
X40956000Y18190000D03*
X40956000Y16285000D03*
%TD*%
D10*
%TO.C,D7*%
X17204000Y20222000D03*
D11*
X13394000Y20222000D03*
%TD*%
D10*
%TO.C,D4*%
X17204000Y15015000D03*
D11*
X13394000Y15015000D03*
%TD*%
D12*
%TO.C,R1*%
X56759000Y27651500D03*
X56759000Y25746500D03*
%TD*%
D10*
%TO.C,D6*%
X19722000Y35208000D03*
D11*
X15912000Y35208000D03*
%TD*%
D12*
%TO.C,R22*%
X34225000Y-13560000D03*
X34225000Y-15465000D03*
%TD*%
D17*
%TO.C,C2*%
X27838900Y43381020D03*
X29738900Y43381020D03*
%TD*%
D18*
%TO.C,D2*%
X26834000Y-26514000D03*
D19*
X26834000Y-30324000D03*
%TD*%
%TO.C,D1*%
X56759000Y19714000D03*
D18*
X56759000Y23524000D03*
%TD*%
D13*
%TO.C,U3*%
X35088306Y42288250D03*
X35088306Y44828250D03*
X41388306Y44828250D03*
X41388306Y42288250D03*
%TD*%
D16*
%TO.C,F4*%
X32758000Y-32610000D03*
X36658000Y-32610000D03*
%TD*%
D13*
%TO.C,U6*%
X37019000Y-4987500D03*
X37019000Y-2447500D03*
X43319000Y-2447500D03*
X43319000Y-4987500D03*
%TD*%
%TO.C,U1*%
X31177000Y26191000D03*
X31177000Y28731000D03*
X37477000Y28731000D03*
X37477000Y26191000D03*
%TD*%
D12*
%TO.C,R14*%
X43090000Y7268000D03*
X43090000Y5363000D03*
%TD*%
%TO.C,R10*%
X30799722Y7776000D03*
X30799722Y5871000D03*
%TD*%
D13*
%TO.C,U7*%
X36888278Y-15719000D03*
X36888278Y-13179000D03*
X43188278Y-13179000D03*
X43188278Y-15719000D03*
%TD*%
D12*
%TO.C,R19*%
X44839278Y36541500D03*
X44839278Y34636500D03*
%TD*%
%TO.C,R18*%
X34355722Y-2955500D03*
X34355722Y-4860500D03*
%TD*%
%TO.C,R9*%
X28513722Y28032500D03*
X28513722Y26127500D03*
%TD*%
%TO.C,R21*%
X46519000Y-2765000D03*
X46519000Y-4670000D03*
%TD*%
M02*
