  0
SECTION
  2
HEADER
  9
$ANGBASE
  50
0.0
  9
$ANGDIR
  70
1
  9
$MEASUREMENT
  70
0
  0
ENDSEC
  0
SECTION
  2
TABLES
  0
TABLE
  2
LTYPE
  70
4
  0
LTYPE
  5
40F
  2
CONTINUOUS
  70
0
  3
Solid line
  72
65
  73
0
  40
0.0
  0
LTYPE
  5
410
  2
DASHDOT
 70
0
  3
Dash Dot ____ _ ____ _
 72
65
 73
4
 40
2.0
 49
1.25
 49
-0.25
 49
0.25
 49
-0.25
  0
LTYPE
  5
411
  2
DASHED
 70
0
  3
Dashed __ __ __ __ __
 72
65
 73
2
 40
0.75
 49
0.5
 49
-0.25
  0
LTYPE
  5
43B
  2
DOTTED
 70
0
  3
Dotted .  .  .  .
 72
65
 73
2
 40
0.2
 49
0.0
 49
-0.2
  0
ENDTAB
  0
TABLE
  2
STYLE
  70
4
  0
STYLE
  2
KICAD
  70
0
  40
0
  41
1
  42
1
  50
0
  71
0
  3
isocp.shx
  0
STYLE
  2
KICADB
  70
0
  40
0
  41
1
  42
1
  50
0
  71
0
  3
isocp.shx
  0
STYLE
  2
KICADI
  70
0
  40
0
  41
1
  42
1
  50
15
  71
0
  3
isocp.shx
  0
STYLE
  2
KICADBI
  70
0
  40
0
  41
1
  42
1
  50
15
  71
0
  3
isocp.shx
  0
ENDTAB
  0
TABLE
  2
LAYER
  70
1
  0
LAYER
  2
BLACK
  70
0
  62
7
  6
CONTINUOUS
  0
ENDTAB
  0
ENDSEC
  0
SECTION
  2
ENTITIES
0
LINE
8
BLACK
6
CONTINUOUS
10
0.42051
20
0.516316
11
0.433874
21
0.513148
0
LINE
8
BLACK
6
CONTINUOUS
10
0.433874
20
0.513148
11
0.446781
21
0.508451
0
LINE
8
BLACK
6
CONTINUOUS
10
0.446781
20
0.508451
11
0.459055
21
0.502286
0
LINE
8
BLACK
6
CONTINUOUS
10
0.459055
20
0.502286
11
0.470531
21
0.494739
0
LINE
8
BLACK
6
CONTINUOUS
10
0.470531
20
0.494739
11
0.481052
21
0.48591
0
LINE
8
BLACK
6
CONTINUOUS
10
0.481052
20
0.48591
11
0.490478
21
0.47592
0
LINE
8
BLACK
6
CONTINUOUS
10
0.490478
20
0.47592
11
0.49868
21
0.464903
0
LINE
8
BLACK
6
CONTINUOUS
10
0.49868
20
0.464903
11
0.505547
21
0.453008
0
LINE
8
BLACK
6
CONTINUOUS
10
0.505547
20
0.453008
11
0.510987
21
0.440396
0
LINE
8
BLACK
6
CONTINUOUS
10
0.510987
20
0.440396
11
0.514927
21
0.427238
0
LINE
8
BLACK
6
CONTINUOUS
10
0.514927
20
0.427238
11
0.517312
21
0.413712
0
LINE
8
BLACK
6
CONTINUOUS
10
0.517312
20
0.413712
11
0.51811
21
0.4
0
LINE
8
BLACK
6
CONTINUOUS
10
0.51811
20
0.4
11
0.517312
21
0.386288
0
LINE
8
BLACK
6
CONTINUOUS
10
0.517312
20
0.386288
11
0.514927
21
0.372762
0
LINE
8
BLACK
6
CONTINUOUS
10
0.514927
20
0.372762
11
0.510987
21
0.359604
0
LINE
8
BLACK
6
CONTINUOUS
10
0.510987
20
0.359604
11
0.505547
21
0.346992
0
LINE
8
BLACK
6
CONTINUOUS
10
0.505547
20
0.346992
11
0.49868
21
0.335097
0
LINE
8
BLACK
6
CONTINUOUS
10
0.49868
20
0.335097
11
0.490478
21
0.32408
0
LINE
8
BLACK
6
CONTINUOUS
10
0.490478
20
0.32408
11
0.481052
21
0.31409
0
LINE
8
BLACK
6
CONTINUOUS
10
0.481052
20
0.31409
11
0.470531
21
0.305261
0
LINE
8
BLACK
6
CONTINUOUS
10
0.470531
20
0.305261
11
0.459055
21
0.297714
0
LINE
8
BLACK
6
CONTINUOUS
10
0.459055
20
0.297714
11
0.446781
21
0.291549
0
LINE
8
BLACK
6
CONTINUOUS
10
0.446781
20
0.291549
11
0.433874
21
0.286852
0
LINE
8
BLACK
6
CONTINUOUS
10
0.433874
20
0.286852
11
0.42051
21
0.283684
0
LINE
8
BLACK
6
CONTINUOUS
10
0.42051
20
0.283684
11
0.406867
21
0.28209
0
LINE
8
BLACK
6
CONTINUOUS
10
0.406867
20
0.28209
11
0.393133
21
0.28209
0
LINE
8
BLACK
6
CONTINUOUS
10
0.393133
20
0.28209
11
0.37949
21
0.283684
0
LINE
8
BLACK
6
CONTINUOUS
10
0.37949
20
0.283684
11
0.366126
21
0.286852
0
LINE
8
BLACK
6
CONTINUOUS
10
0.366126
20
0.286852
11
0.353219
21
0.291549
0
LINE
8
BLACK
6
CONTINUOUS
10
0.353219
20
0.291549
11
0.340945
21
0.297714
0
LINE
8
BLACK
6
CONTINUOUS
10
0.340945
20
0.297714
11
0.329469
21
0.305261
0
LINE
8
BLACK
6
CONTINUOUS
10
0.329469
20
0.305261
11
0.318948
21
0.31409
0
LINE
8
BLACK
6
CONTINUOUS
10
0.318948
20
0.31409
11
0.309522
21
0.32408
0
LINE
8
BLACK
6
CONTINUOUS
10
0.309522
20
0.32408
11
0.30132
21
0.335097
0
LINE
8
BLACK
6
CONTINUOUS
10
0.30132
20
0.335097
11
0.294453
21
0.346992
0
LINE
8
BLACK
6
CONTINUOUS
10
0.294453
20
0.346992
11
0.289013
21
0.359604
0
LINE
8
BLACK
6
CONTINUOUS
10
0.289013
20
0.359604
11
0.285073
21
0.372762
0
LINE
8
BLACK
6
CONTINUOUS
10
0.285073
20
0.372762
11
0.282688
21
0.386288
0
LINE
8
BLACK
6
CONTINUOUS
10
0.282688
20
0.386288
11
0.28189
21
0.4
0
LINE
8
BLACK
6
CONTINUOUS
10
0.28189
20
0.4
11
0.282688
21
0.413712
0
LINE
8
BLACK
6
CONTINUOUS
10
0.282688
20
0.413712
11
0.285073
21
0.427238
0
LINE
8
BLACK
6
CONTINUOUS
10
0.285073
20
0.427238
11
0.289013
21
0.440396
0
LINE
8
BLACK
6
CONTINUOUS
10
0.289013
20
0.440396
11
0.294453
21
0.453008
0
LINE
8
BLACK
6
CONTINUOUS
10
0.294453
20
0.453008
11
0.30132
21
0.464903
0
LINE
8
BLACK
6
CONTINUOUS
10
0.30132
20
0.464903
11
0.309522
21
0.47592
0
LINE
8
BLACK
6
CONTINUOUS
10
0.309522
20
0.47592
11
0.318948
21
0.48591
0
LINE
8
BLACK
6
CONTINUOUS
10
0.318948
20
0.48591
11
0.329469
21
0.494739
0
LINE
8
BLACK
6
CONTINUOUS
10
0.329469
20
0.494739
11
0.340945
21
0.502286
0
LINE
8
BLACK
6
CONTINUOUS
10
0.340945
20
0.502286
11
0.353219
21
0.508451
0
LINE
8
BLACK
6
CONTINUOUS
10
0.353219
20
0.508451
11
0.366126
21
0.513148
0
LINE
8
BLACK
6
CONTINUOUS
10
0.366126
20
0.513148
11
0.37949
21
0.516316
0
LINE
8
BLACK
6
CONTINUOUS
10
0.37949
20
0.516316
11
0.393133
21
0.51791
0
LINE
8
BLACK
6
CONTINUOUS
10
0.393133
20
0.51791
11
0.406867
21
0.51791
0
LINE
8
BLACK
6
CONTINUOUS
10
0.406867
20
0.51791
11
0.42051
21
0.516316
0
LINE
8
BLACK
6
CONTINUOUS
10
2.82051
20
0.516316
11
2.83387
21
0.513148
0
LINE
8
BLACK
6
CONTINUOUS
10
2.83387
20
0.513148
11
2.84678
21
0.508451
0
LINE
8
BLACK
6
CONTINUOUS
10
2.84678
20
0.508451
11
2.85906
21
0.502286
0
LINE
8
BLACK
6
CONTINUOUS
10
2.85906
20
0.502286
11
2.87053
21
0.494739
0
LINE
8
BLACK
6
CONTINUOUS
10
2.87053
20
0.494739
11
2.88105
21
0.48591
0
LINE
8
BLACK
6
CONTINUOUS
10
2.88105
20
0.48591
11
2.89048
21
0.47592
0
LINE
8
BLACK
6
CONTINUOUS
10
2.89048
20
0.47592
11
2.89868
21
0.464903
0
LINE
8
BLACK
6
CONTINUOUS
10
2.89868
20
0.464903
11
2.90555
21
0.453008
0
LINE
8
BLACK
6
CONTINUOUS
10
2.90555
20
0.453008
11
2.91099
21
0.440396
0
LINE
8
BLACK
6
CONTINUOUS
10
2.91099
20
0.440396
11
2.91493
21
0.427238
0
LINE
8
BLACK
6
CONTINUOUS
10
2.91493
20
0.427238
11
2.91731
21
0.413712
0
LINE
8
BLACK
6
CONTINUOUS
10
2.91731
20
0.413712
11
2.91811
21
0.4
0
LINE
8
BLACK
6
CONTINUOUS
10
2.91811
20
0.4
11
2.91731
21
0.386288
0
LINE
8
BLACK
6
CONTINUOUS
10
2.91731
20
0.386288
11
2.91493
21
0.372762
0
LINE
8
BLACK
6
CONTINUOUS
10
2.91493
20
0.372762
11
2.91099
21
0.359604
0
LINE
8
BLACK
6
CONTINUOUS
10
2.91099
20
0.359604
11
2.90555
21
0.346992
0
LINE
8
BLACK
6
CONTINUOUS
10
2.90555
20
0.346992
11
2.89868
21
0.335097
0
LINE
8
BLACK
6
CONTINUOUS
10
2.89868
20
0.335097
11
2.89048
21
0.32408
0
LINE
8
BLACK
6
CONTINUOUS
10
2.89048
20
0.32408
11
2.88105
21
0.31409
0
LINE
8
BLACK
6
CONTINUOUS
10
2.88105
20
0.31409
11
2.87053
21
0.305261
0
LINE
8
BLACK
6
CONTINUOUS
10
2.87053
20
0.305261
11
2.85906
21
0.297714
0
LINE
8
BLACK
6
CONTINUOUS
10
2.85906
20
0.297714
11
2.84678
21
0.291549
0
LINE
8
BLACK
6
CONTINUOUS
10
2.84678
20
0.291549
11
2.83387
21
0.286852
0
LINE
8
BLACK
6
CONTINUOUS
10
2.83387
20
0.286852
11
2.82051
21
0.283684
0
LINE
8
BLACK
6
CONTINUOUS
10
2.82051
20
0.283684
11
2.80687
21
0.28209
0
LINE
8
BLACK
6
CONTINUOUS
10
2.80687
20
0.28209
11
2.79313
21
0.28209
0
LINE
8
BLACK
6
CONTINUOUS
10
2.79313
20
0.28209
11
2.77949
21
0.283684
0
LINE
8
BLACK
6
CONTINUOUS
10
2.77949
20
0.283684
11
2.76613
21
0.286852
0
LINE
8
BLACK
6
CONTINUOUS
10
2.76613
20
0.286852
11
2.75322
21
0.291549
0
LINE
8
BLACK
6
CONTINUOUS
10
2.75322
20
0.291549
11
2.74094
21
0.297714
0
LINE
8
BLACK
6
CONTINUOUS
10
2.74094
20
0.297714
11
2.72947
21
0.305261
0
LINE
8
BLACK
6
CONTINUOUS
10
2.72947
20
0.305261
11
2.71895
21
0.31409
0
LINE
8
BLACK
6
CONTINUOUS
10
2.71895
20
0.31409
11
2.70952
21
0.32408
0
LINE
8
BLACK
6
CONTINUOUS
10
2.70952
20
0.32408
11
2.70132
21
0.335097
0
LINE
8
BLACK
6
CONTINUOUS
10
2.70132
20
0.335097
11
2.69445
21
0.346992
0
LINE
8
BLACK
6
CONTINUOUS
10
2.69445
20
0.346992
11
2.68901
21
0.359604
0
LINE
8
BLACK
6
CONTINUOUS
10
2.68901
20
0.359604
11
2.68507
21
0.372762
0
LINE
8
BLACK
6
CONTINUOUS
10
2.68507
20
0.372762
11
2.68269
21
0.386288
0
LINE
8
BLACK
6
CONTINUOUS
10
2.68269
20
0.386288
11
2.68189
21
0.4
0
LINE
8
BLACK
6
CONTINUOUS
10
2.68189
20
0.4
11
2.68269
21
0.413712
0
LINE
8
BLACK
6
CONTINUOUS
10
2.68269
20
0.413712
11
2.68507
21
0.427238
0
LINE
8
BLACK
6
CONTINUOUS
10
2.68507
20
0.427238
11
2.68901
21
0.440396
0
LINE
8
BLACK
6
CONTINUOUS
10
2.68901
20
0.440396
11
2.69445
21
0.453008
0
LINE
8
BLACK
6
CONTINUOUS
10
2.69445
20
0.453008
11
2.70132
21
0.464903
0
LINE
8
BLACK
6
CONTINUOUS
10
2.70132
20
0.464903
11
2.70952
21
0.47592
0
LINE
8
BLACK
6
CONTINUOUS
10
2.70952
20
0.47592
11
2.71895
21
0.48591
0
LINE
8
BLACK
6
CONTINUOUS
10
2.71895
20
0.48591
11
2.72947
21
0.494739
0
LINE
8
BLACK
6
CONTINUOUS
10
2.72947
20
0.494739
11
2.74094
21
0.502286
0
LINE
8
BLACK
6
CONTINUOUS
10
2.74094
20
0.502286
11
2.75322
21
0.508451
0
LINE
8
BLACK
6
CONTINUOUS
10
2.75322
20
0.508451
11
2.76613
21
0.513148
0
LINE
8
BLACK
6
CONTINUOUS
10
2.76613
20
0.513148
11
2.77949
21
0.516316
0
LINE
8
BLACK
6
CONTINUOUS
10
2.77949
20
0.516316
11
2.79313
21
0.51791
0
LINE
8
BLACK
6
CONTINUOUS
10
2.79313
20
0.51791
11
2.80687
21
0.51791
0
LINE
8
BLACK
6
CONTINUOUS
10
2.80687
20
0.51791
11
2.82051
21
0.516316
0
LINE
8
BLACK
6
CONTINUOUS
10
0.887326
20
0.554444
11
0.896109
21
0.55209
0
LINE
8
BLACK
6
CONTINUOUS
10
0.896109
20
0.55209
11
0.90435
21
0.548247
0
LINE
8
BLACK
6
CONTINUOUS
10
0.90435
20
0.548247
11
0.911799
21
0.543032
0
LINE
8
BLACK
6
CONTINUOUS
10
0.911799
20
0.543032
11
0.918229
21
0.536602
0
LINE
8
BLACK
6
CONTINUOUS
10
0.918229
20
0.536602
11
0.923444
21
0.529154
0
LINE
8
BLACK
6
CONTINUOUS
10
0.923444
20
0.529154
11
0.927287
21
0.520912
0
LINE
8
BLACK
6
CONTINUOUS
10
0.927287
20
0.520912
11
0.929641
21
0.512129
0
LINE
8
BLACK
6
CONTINUOUS
10
0.929641
20
0.512129
11
0.930433
21
0.503071
0
LINE
8
BLACK
6
CONTINUOUS
10
0.930433
20
0.503071
11
0.929641
21
0.494012
0
LINE
8
BLACK
6
CONTINUOUS
10
0.929641
20
0.494012
11
0.927287
21
0.485229
0
LINE
8
BLACK
6
CONTINUOUS
10
0.927287
20
0.485229
11
0.923444
21
0.476988
0
LINE
8
BLACK
6
CONTINUOUS
10
0.923444
20
0.476988
11
0.918229
21
0.46954
0
LINE
8
BLACK
6
CONTINUOUS
10
0.918229
20
0.46954
11
0.911799
21
0.46311
0
LINE
8
BLACK
6
CONTINUOUS
10
0.911799
20
0.46311
11
0.90435
21
0.457894
0
LINE
8
BLACK
6
CONTINUOUS
10
0.90435
20
0.457894
11
0.896109
21
0.454051
0
LINE
8
BLACK
6
CONTINUOUS
10
0.896109
20
0.454051
11
0.887326
21
0.451698
0
LINE
8
BLACK
6
CONTINUOUS
10
0.887326
20
0.451698
11
0.878268
21
0.450906
0
LINE
8
BLACK
6
CONTINUOUS
10
0.878268
20
0.450906
11
0.869209
21
0.451698
0
LINE
8
BLACK
6
CONTINUOUS
10
0.869209
20
0.451698
11
0.860426
21
0.454051
0
LINE
8
BLACK
6
CONTINUOUS
10
0.860426
20
0.454051
11
0.852185
21
0.457894
0
LINE
8
BLACK
6
CONTINUOUS
10
0.852185
20
0.457894
11
0.844736
21
0.46311
0
LINE
8
BLACK
6
CONTINUOUS
10
0.844736
20
0.46311
11
0.838307
21
0.46954
0
LINE
8
BLACK
6
CONTINUOUS
10
0.838307
20
0.46954
11
0.833091
21
0.476988
0
LINE
8
BLACK
6
CONTINUOUS
10
0.833091
20
0.476988
11
0.829248
21
0.485229
0
LINE
8
BLACK
6
CONTINUOUS
10
0.829248
20
0.485229
11
0.826895
21
0.494012
0
LINE
8
BLACK
6
CONTINUOUS
10
0.826895
20
0.494012
11
0.826102
21
0.503071
0
LINE
8
BLACK
6
CONTINUOUS
10
0.826102
20
0.503071
11
0.826895
21
0.512129
0
LINE
8
BLACK
6
CONTINUOUS
10
0.826895
20
0.512129
11
0.829248
21
0.520912
0
LINE
8
BLACK
6
CONTINUOUS
10
0.829248
20
0.520912
11
0.833091
21
0.529154
0
LINE
8
BLACK
6
CONTINUOUS
10
0.833091
20
0.529154
11
0.838307
21
0.536602
0
LINE
8
BLACK
6
CONTINUOUS
10
0.838307
20
0.536602
11
0.844736
21
0.543032
0
LINE
8
BLACK
6
CONTINUOUS
10
0.844736
20
0.543032
11
0.852185
21
0.548247
0
LINE
8
BLACK
6
CONTINUOUS
10
0.852185
20
0.548247
11
0.860426
21
0.55209
0
LINE
8
BLACK
6
CONTINUOUS
10
0.860426
20
0.55209
11
0.869209
21
0.554444
0
LINE
8
BLACK
6
CONTINUOUS
10
0.869209
20
0.554444
11
0.878268
21
0.555236
0
LINE
8
BLACK
6
CONTINUOUS
10
0.878268
20
0.555236
11
0.887326
21
0.554444
0
LINE
8
BLACK
6
CONTINUOUS
10
1.27079
20
0.554444
11
1.27957
21
0.55209
0
LINE
8
BLACK
6
CONTINUOUS
10
1.27957
20
0.55209
11
1.28781
21
0.548247
0
LINE
8
BLACK
6
CONTINUOUS
10
1.28781
20
0.548247
11
1.29526
21
0.543032
0
LINE
8
BLACK
6
CONTINUOUS
10
1.29526
20
0.543032
11
1.30169
21
0.536602
0
LINE
8
BLACK
6
CONTINUOUS
10
1.30169
20
0.536602
11
1.30691
21
0.529154
0
LINE
8
BLACK
6
CONTINUOUS
10
1.30691
20
0.529154
11
1.31075
21
0.520912
0
LINE
8
BLACK
6
CONTINUOUS
10
1.31075
20
0.520912
11
1.31311
21
0.512129
0
LINE
8
BLACK
6
CONTINUOUS
10
1.31311
20
0.512129
11
1.3139
21
0.503071
0
LINE
8
BLACK
6
CONTINUOUS
10
1.3139
20
0.503071
11
1.31311
21
0.494012
0
LINE
8
BLACK
6
CONTINUOUS
10
1.31311
20
0.494012
11
1.31075
21
0.485229
0
LINE
8
BLACK
6
CONTINUOUS
10
1.31075
20
0.485229
11
1.30691
21
0.476988
0
LINE
8
BLACK
6
CONTINUOUS
10
1.30691
20
0.476988
11
1.30169
21
0.46954
0
LINE
8
BLACK
6
CONTINUOUS
10
1.30169
20
0.46954
11
1.29526
21
0.46311
0
LINE
8
BLACK
6
CONTINUOUS
10
1.29526
20
0.46311
11
1.28781
21
0.457894
0
LINE
8
BLACK
6
CONTINUOUS
10
1.28781
20
0.457894
11
1.27957
21
0.454051
0
LINE
8
BLACK
6
CONTINUOUS
10
1.27957
20
0.454051
11
1.27079
21
0.451698
0
LINE
8
BLACK
6
CONTINUOUS
10
1.27079
20
0.451698
11
1.26173
21
0.450906
0
LINE
8
BLACK
6
CONTINUOUS
10
1.26173
20
0.450906
11
1.25267
21
0.451698
0
LINE
8
BLACK
6
CONTINUOUS
10
1.25267
20
0.451698
11
1.24389
21
0.454051
0
LINE
8
BLACK
6
CONTINUOUS
10
1.24389
20
0.454051
11
1.23565
21
0.457894
0
LINE
8
BLACK
6
CONTINUOUS
10
1.23565
20
0.457894
11
1.2282
21
0.46311
0
LINE
8
BLACK
6
CONTINUOUS
10
1.2282
20
0.46311
11
1.22177
21
0.46954
0
LINE
8
BLACK
6
CONTINUOUS
10
1.22177
20
0.46954
11
1.21656
21
0.476988
0
LINE
8
BLACK
6
CONTINUOUS
10
1.21656
20
0.476988
11
1.21271
21
0.485229
0
LINE
8
BLACK
6
CONTINUOUS
10
1.21271
20
0.485229
11
1.21036
21
0.494012
0
LINE
8
BLACK
6
CONTINUOUS
10
1.21036
20
0.494012
11
1.20957
21
0.503071
0
LINE
8
BLACK
6
CONTINUOUS
10
1.20957
20
0.503071
11
1.21036
21
0.512129
0
LINE
8
BLACK
6
CONTINUOUS
10
1.21036
20
0.512129
11
1.21271
21
0.520912
0
LINE
8
BLACK
6
CONTINUOUS
10
1.21271
20
0.520912
11
1.21656
21
0.529154
0
LINE
8
BLACK
6
CONTINUOUS
10
1.21656
20
0.529154
11
1.22177
21
0.536602
0
LINE
8
BLACK
6
CONTINUOUS
10
1.22177
20
0.536602
11
1.2282
21
0.543032
0
LINE
8
BLACK
6
CONTINUOUS
10
1.2282
20
0.543032
11
1.23565
21
0.548247
0
LINE
8
BLACK
6
CONTINUOUS
10
1.23565
20
0.548247
11
1.24389
21
0.55209
0
LINE
8
BLACK
6
CONTINUOUS
10
1.24389
20
0.55209
11
1.25267
21
0.554444
0
LINE
8
BLACK
6
CONTINUOUS
10
1.25267
20
0.554444
11
1.26173
21
0.555236
0
LINE
8
BLACK
6
CONTINUOUS
10
1.26173
20
0.555236
11
1.27079
21
0.554444
0
LINE
8
BLACK
6
CONTINUOUS
10
1.60733
20
0.554444
11
1.61611
21
0.55209
0
LINE
8
BLACK
6
CONTINUOUS
10
1.61611
20
0.55209
11
1.62435
21
0.548247
0
LINE
8
BLACK
6
CONTINUOUS
10
1.62435
20
0.548247
11
1.6318
21
0.543032
0
LINE
8
BLACK
6
CONTINUOUS
10
1.6318
20
0.543032
11
1.63823
21
0.536602
0
LINE
8
BLACK
6
CONTINUOUS
10
1.63823
20
0.536602
11
1.64344
21
0.529154
0
LINE
8
BLACK
6
CONTINUOUS
10
1.64344
20
0.529154
11
1.64729
21
0.520912
0
LINE
8
BLACK
6
CONTINUOUS
10
1.64729
20
0.520912
11
1.64964
21
0.512129
0
LINE
8
BLACK
6
CONTINUOUS
10
1.64964
20
0.512129
11
1.65043
21
0.503071
0
LINE
8
BLACK
6
CONTINUOUS
10
1.65043
20
0.503071
11
1.64964
21
0.494012
0
LINE
8
BLACK
6
CONTINUOUS
10
1.64964
20
0.494012
11
1.64729
21
0.485229
0
LINE
8
BLACK
6
CONTINUOUS
10
1.64729
20
0.485229
11
1.64344
21
0.476988
0
LINE
8
BLACK
6
CONTINUOUS
10
1.64344
20
0.476988
11
1.63823
21
0.46954
0
LINE
8
BLACK
6
CONTINUOUS
10
1.63823
20
0.46954
11
1.6318
21
0.46311
0
LINE
8
BLACK
6
CONTINUOUS
10
1.6318
20
0.46311
11
1.62435
21
0.457894
0
LINE
8
BLACK
6
CONTINUOUS
10
1.62435
20
0.457894
11
1.61611
21
0.454051
0
LINE
8
BLACK
6
CONTINUOUS
10
1.61611
20
0.454051
11
1.60733
21
0.451698
0
LINE
8
BLACK
6
CONTINUOUS
10
1.60733
20
0.451698
11
1.59827
21
0.450906
0
LINE
8
BLACK
6
CONTINUOUS
10
1.59827
20
0.450906
11
1.58921
21
0.451698
0
LINE
8
BLACK
6
CONTINUOUS
10
1.58921
20
0.451698
11
1.58043
21
0.454051
0
LINE
8
BLACK
6
CONTINUOUS
10
1.58043
20
0.454051
11
1.57219
21
0.457894
0
LINE
8
BLACK
6
CONTINUOUS
10
1.57219
20
0.457894
11
1.56474
21
0.46311
0
LINE
8
BLACK
6
CONTINUOUS
10
1.56474
20
0.46311
11
1.55831
21
0.46954
0
LINE
8
BLACK
6
CONTINUOUS
10
1.55831
20
0.46954
11
1.55309
21
0.476988
0
LINE
8
BLACK
6
CONTINUOUS
10
1.55309
20
0.476988
11
1.54925
21
0.485229
0
LINE
8
BLACK
6
CONTINUOUS
10
1.54925
20
0.485229
11
1.54689
21
0.494012
0
LINE
8
BLACK
6
CONTINUOUS
10
1.54689
20
0.494012
11
1.5461
21
0.503071
0
LINE
8
BLACK
6
CONTINUOUS
10
1.5461
20
0.503071
11
1.54689
21
0.512129
0
LINE
8
BLACK
6
CONTINUOUS
10
1.54689
20
0.512129
11
1.54925
21
0.520912
0
LINE
8
BLACK
6
CONTINUOUS
10
1.54925
20
0.520912
11
1.55309
21
0.529154
0
LINE
8
BLACK
6
CONTINUOUS
10
1.55309
20
0.529154
11
1.55831
21
0.536602
0
LINE
8
BLACK
6
CONTINUOUS
10
1.55831
20
0.536602
11
1.56474
21
0.543032
0
LINE
8
BLACK
6
CONTINUOUS
10
1.56474
20
0.543032
11
1.57219
21
0.548247
0
LINE
8
BLACK
6
CONTINUOUS
10
1.57219
20
0.548247
11
1.58043
21
0.55209
0
LINE
8
BLACK
6
CONTINUOUS
10
1.58043
20
0.55209
11
1.58921
21
0.554444
0
LINE
8
BLACK
6
CONTINUOUS
10
1.58921
20
0.554444
11
1.59827
21
0.555236
0
LINE
8
BLACK
6
CONTINUOUS
10
1.59827
20
0.555236
11
1.60733
21
0.554444
0
LINE
8
BLACK
6
CONTINUOUS
10
1.99079
20
0.554444
11
1.99957
21
0.55209
0
LINE
8
BLACK
6
CONTINUOUS
10
1.99957
20
0.55209
11
2.00781
21
0.548247
0
LINE
8
BLACK
6
CONTINUOUS
10
2.00781
20
0.548247
11
2.01526
21
0.543032
0
LINE
8
BLACK
6
CONTINUOUS
10
2.01526
20
0.543032
11
2.02169
21
0.536602
0
LINE
8
BLACK
6
CONTINUOUS
10
2.02169
20
0.536602
11
2.02691
21
0.529154
0
LINE
8
BLACK
6
CONTINUOUS
10
2.02691
20
0.529154
11
2.03075
21
0.520912
0
LINE
8
BLACK
6
CONTINUOUS
10
2.03075
20
0.520912
11
2.03311
21
0.512129
0
LINE
8
BLACK
6
CONTINUOUS
10
2.03311
20
0.512129
11
2.0339
21
0.503071
0
LINE
8
BLACK
6
CONTINUOUS
10
2.0339
20
0.503071
11
2.03311
21
0.494012
0
LINE
8
BLACK
6
CONTINUOUS
10
2.03311
20
0.494012
11
2.03075
21
0.485229
0
LINE
8
BLACK
6
CONTINUOUS
10
2.03075
20
0.485229
11
2.02691
21
0.476988
0
LINE
8
BLACK
6
CONTINUOUS
10
2.02691
20
0.476988
11
2.02169
21
0.46954
0
LINE
8
BLACK
6
CONTINUOUS
10
2.02169
20
0.46954
11
2.01526
21
0.46311
0
LINE
8
BLACK
6
CONTINUOUS
10
2.01526
20
0.46311
11
2.00781
21
0.457894
0
LINE
8
BLACK
6
CONTINUOUS
10
2.00781
20
0.457894
11
1.99957
21
0.454051
0
LINE
8
BLACK
6
CONTINUOUS
10
1.99957
20
0.454051
11
1.99079
21
0.451698
0
LINE
8
BLACK
6
CONTINUOUS
10
1.99079
20
0.451698
11
1.98173
21
0.450906
0
LINE
8
BLACK
6
CONTINUOUS
10
1.98173
20
0.450906
11
1.97267
21
0.451698
0
LINE
8
BLACK
6
CONTINUOUS
10
1.97267
20
0.451698
11
1.96389
21
0.454051
0
LINE
8
BLACK
6
CONTINUOUS
10
1.96389
20
0.454051
11
1.95565
21
0.457894
0
LINE
8
BLACK
6
CONTINUOUS
10
1.95565
20
0.457894
11
1.9482
21
0.46311
0
LINE
8
BLACK
6
CONTINUOUS
10
1.9482
20
0.46311
11
1.94177
21
0.46954
0
LINE
8
BLACK
6
CONTINUOUS
10
1.94177
20
0.46954
11
1.93656
21
0.476988
0
LINE
8
BLACK
6
CONTINUOUS
10
1.93656
20
0.476988
11
1.93271
21
0.485229
0
LINE
8
BLACK
6
CONTINUOUS
10
1.93271
20
0.485229
11
1.93036
21
0.494012
0
LINE
8
BLACK
6
CONTINUOUS
10
1.93036
20
0.494012
11
1.92957
21
0.503071
0
LINE
8
BLACK
6
CONTINUOUS
10
1.92957
20
0.503071
11
1.93036
21
0.512129
0
LINE
8
BLACK
6
CONTINUOUS
10
1.93036
20
0.512129
11
1.93271
21
0.520912
0
LINE
8
BLACK
6
CONTINUOUS
10
1.93271
20
0.520912
11
1.93656
21
0.529154
0
LINE
8
BLACK
6
CONTINUOUS
10
1.93656
20
0.529154
11
1.94177
21
0.536602
0
LINE
8
BLACK
6
CONTINUOUS
10
1.94177
20
0.536602
11
1.9482
21
0.543032
0
LINE
8
BLACK
6
CONTINUOUS
10
1.9482
20
0.543032
11
1.95565
21
0.548247
0
LINE
8
BLACK
6
CONTINUOUS
10
1.95565
20
0.548247
11
1.96389
21
0.55209
0
LINE
8
BLACK
6
CONTINUOUS
10
1.96389
20
0.55209
11
1.97267
21
0.554444
0
LINE
8
BLACK
6
CONTINUOUS
10
1.97267
20
0.554444
11
1.98173
21
0.555236
0
LINE
8
BLACK
6
CONTINUOUS
10
1.98173
20
0.555236
11
1.99079
21
0.554444
0
LINE
8
BLACK
6
CONTINUOUS
10
0.887326
20
0.688302
11
0.896109
21
0.685949
0
LINE
8
BLACK
6
CONTINUOUS
10
0.896109
20
0.685949
11
0.90435
21
0.682106
0
LINE
8
BLACK
6
CONTINUOUS
10
0.90435
20
0.682106
11
0.911799
21
0.67689
0
LINE
8
BLACK
6
CONTINUOUS
10
0.911799
20
0.67689
11
0.918229
21
0.67046
0
LINE
8
BLACK
6
CONTINUOUS
10
0.918229
20
0.67046
11
0.923444
21
0.663012
0
LINE
8
BLACK
6
CONTINUOUS
10
0.923444
20
0.663012
11
0.927287
21
0.654771
0
LINE
8
BLACK
6
CONTINUOUS
10
0.927287
20
0.654771
11
0.929641
21
0.645988
0
LINE
8
BLACK
6
CONTINUOUS
10
0.929641
20
0.645988
11
0.930433
21
0.636929
0
LINE
8
BLACK
6
CONTINUOUS
10
0.930433
20
0.636929
11
0.929641
21
0.627871
0
LINE
8
BLACK
6
CONTINUOUS
10
0.929641
20
0.627871
11
0.927287
21
0.619088
0
LINE
8
BLACK
6
CONTINUOUS
10
0.927287
20
0.619088
11
0.923444
21
0.610846
0
LINE
8
BLACK
6
CONTINUOUS
10
0.923444
20
0.610846
11
0.918229
21
0.603398
0
LINE
8
BLACK
6
CONTINUOUS
10
0.918229
20
0.603398
11
0.911799
21
0.596968
0
LINE
8
BLACK
6
CONTINUOUS
10
0.911799
20
0.596968
11
0.90435
21
0.591753
0
LINE
8
BLACK
6
CONTINUOUS
10
0.90435
20
0.591753
11
0.896109
21
0.58791
0
LINE
8
BLACK
6
CONTINUOUS
10
0.896109
20
0.58791
11
0.887326
21
0.585556
0
LINE
8
BLACK
6
CONTINUOUS
10
0.887326
20
0.585556
11
0.878268
21
0.584764
0
LINE
8
BLACK
6
CONTINUOUS
10
0.878268
20
0.584764
11
0.869209
21
0.585556
0
LINE
8
BLACK
6
CONTINUOUS
10
0.869209
20
0.585556
11
0.860426
21
0.58791
0
LINE
8
BLACK
6
CONTINUOUS
10
0.860426
20
0.58791
11
0.852185
21
0.591753
0
LINE
8
BLACK
6
CONTINUOUS
10
0.852185
20
0.591753
11
0.844736
21
0.596968
0
LINE
8
BLACK
6
CONTINUOUS
10
0.844736
20
0.596968
11
0.838307
21
0.603398
0
LINE
8
BLACK
6
CONTINUOUS
10
0.838307
20
0.603398
11
0.833091
21
0.610846
0
LINE
8
BLACK
6
CONTINUOUS
10
0.833091
20
0.610846
11
0.829248
21
0.619088
0
LINE
8
BLACK
6
CONTINUOUS
10
0.829248
20
0.619088
11
0.826895
21
0.627871
0
LINE
8
BLACK
6
CONTINUOUS
10
0.826895
20
0.627871
11
0.826102
21
0.636929
0
LINE
8
BLACK
6
CONTINUOUS
10
0.826102
20
0.636929
11
0.826895
21
0.645988
0
LINE
8
BLACK
6
CONTINUOUS
10
0.826895
20
0.645988
11
0.829248
21
0.654771
0
LINE
8
BLACK
6
CONTINUOUS
10
0.829248
20
0.654771
11
0.833091
21
0.663012
0
LINE
8
BLACK
6
CONTINUOUS
10
0.833091
20
0.663012
11
0.838307
21
0.67046
0
LINE
8
BLACK
6
CONTINUOUS
10
0.838307
20
0.67046
11
0.844736
21
0.67689
0
LINE
8
BLACK
6
CONTINUOUS
10
0.844736
20
0.67689
11
0.852185
21
0.682106
0
LINE
8
BLACK
6
CONTINUOUS
10
0.852185
20
0.682106
11
0.860426
21
0.685949
0
LINE
8
BLACK
6
CONTINUOUS
10
0.860426
20
0.685949
11
0.869209
21
0.688302
0
LINE
8
BLACK
6
CONTINUOUS
10
0.869209
20
0.688302
11
0.878268
21
0.689094
0
LINE
8
BLACK
6
CONTINUOUS
10
0.878268
20
0.689094
11
0.887326
21
0.688302
0
LINE
8
BLACK
6
CONTINUOUS
10
1.27079
20
0.688302
11
1.27957
21
0.685949
0
LINE
8
BLACK
6
CONTINUOUS
10
1.27957
20
0.685949
11
1.28781
21
0.682106
0
LINE
8
BLACK
6
CONTINUOUS
10
1.28781
20
0.682106
11
1.29526
21
0.67689
0
LINE
8
BLACK
6
CONTINUOUS
10
1.29526
20
0.67689
11
1.30169
21
0.67046
0
LINE
8
BLACK
6
CONTINUOUS
10
1.30169
20
0.67046
11
1.30691
21
0.663012
0
LINE
8
BLACK
6
CONTINUOUS
10
1.30691
20
0.663012
11
1.31075
21
0.654771
0
LINE
8
BLACK
6
CONTINUOUS
10
1.31075
20
0.654771
11
1.31311
21
0.645988
0
LINE
8
BLACK
6
CONTINUOUS
10
1.31311
20
0.645988
11
1.3139
21
0.636929
0
LINE
8
BLACK
6
CONTINUOUS
10
1.3139
20
0.636929
11
1.31311
21
0.627871
0
LINE
8
BLACK
6
CONTINUOUS
10
1.31311
20
0.627871
11
1.31075
21
0.619088
0
LINE
8
BLACK
6
CONTINUOUS
10
1.31075
20
0.619088
11
1.30691
21
0.610846
0
LINE
8
BLACK
6
CONTINUOUS
10
1.30691
20
0.610846
11
1.30169
21
0.603398
0
LINE
8
BLACK
6
CONTINUOUS
10
1.30169
20
0.603398
11
1.29526
21
0.596968
0
LINE
8
BLACK
6
CONTINUOUS
10
1.29526
20
0.596968
11
1.28781
21
0.591753
0
LINE
8
BLACK
6
CONTINUOUS
10
1.28781
20
0.591753
11
1.27957
21
0.58791
0
LINE
8
BLACK
6
CONTINUOUS
10
1.27957
20
0.58791
11
1.27079
21
0.585556
0
LINE
8
BLACK
6
CONTINUOUS
10
1.27079
20
0.585556
11
1.26173
21
0.584764
0
LINE
8
BLACK
6
CONTINUOUS
10
1.26173
20
0.584764
11
1.25267
21
0.585556
0
LINE
8
BLACK
6
CONTINUOUS
10
1.25267
20
0.585556
11
1.24389
21
0.58791
0
LINE
8
BLACK
6
CONTINUOUS
10
1.24389
20
0.58791
11
1.23565
21
0.591753
0
LINE
8
BLACK
6
CONTINUOUS
10
1.23565
20
0.591753
11
1.2282
21
0.596968
0
LINE
8
BLACK
6
CONTINUOUS
10
1.2282
20
0.596968
11
1.22177
21
0.603398
0
LINE
8
BLACK
6
CONTINUOUS
10
1.22177
20
0.603398
11
1.21656
21
0.610846
0
LINE
8
BLACK
6
CONTINUOUS
10
1.21656
20
0.610846
11
1.21271
21
0.619088
0
LINE
8
BLACK
6
CONTINUOUS
10
1.21271
20
0.619088
11
1.21036
21
0.627871
0
LINE
8
BLACK
6
CONTINUOUS
10
1.21036
20
0.627871
11
1.20957
21
0.636929
0
LINE
8
BLACK
6
CONTINUOUS
10
1.20957
20
0.636929
11
1.21036
21
0.645988
0
LINE
8
BLACK
6
CONTINUOUS
10
1.21036
20
0.645988
11
1.21271
21
0.654771
0
LINE
8
BLACK
6
CONTINUOUS
10
1.21271
20
0.654771
11
1.21656
21
0.663012
0
LINE
8
BLACK
6
CONTINUOUS
10
1.21656
20
0.663012
11
1.22177
21
0.67046
0
LINE
8
BLACK
6
CONTINUOUS
10
1.22177
20
0.67046
11
1.2282
21
0.67689
0
LINE
8
BLACK
6
CONTINUOUS
10
1.2282
20
0.67689
11
1.23565
21
0.682106
0
LINE
8
BLACK
6
CONTINUOUS
10
1.23565
20
0.682106
11
1.24389
21
0.685949
0
LINE
8
BLACK
6
CONTINUOUS
10
1.24389
20
0.685949
11
1.25267
21
0.688302
0
LINE
8
BLACK
6
CONTINUOUS
10
1.25267
20
0.688302
11
1.26173
21
0.689094
0
LINE
8
BLACK
6
CONTINUOUS
10
1.26173
20
0.689094
11
1.27079
21
0.688302
0
LINE
8
BLACK
6
CONTINUOUS
10
1.60733
20
0.688302
11
1.61611
21
0.685949
0
LINE
8
BLACK
6
CONTINUOUS
10
1.61611
20
0.685949
11
1.62435
21
0.682106
0
LINE
8
BLACK
6
CONTINUOUS
10
1.62435
20
0.682106
11
1.6318
21
0.67689
0
LINE
8
BLACK
6
CONTINUOUS
10
1.6318
20
0.67689
11
1.63823
21
0.67046
0
LINE
8
BLACK
6
CONTINUOUS
10
1.63823
20
0.67046
11
1.64344
21
0.663012
0
LINE
8
BLACK
6
CONTINUOUS
10
1.64344
20
0.663012
11
1.64729
21
0.654771
0
LINE
8
BLACK
6
CONTINUOUS
10
1.64729
20
0.654771
11
1.64964
21
0.645988
0
LINE
8
BLACK
6
CONTINUOUS
10
1.64964
20
0.645988
11
1.65043
21
0.636929
0
LINE
8
BLACK
6
CONTINUOUS
10
1.65043
20
0.636929
11
1.64964
21
0.627871
0
LINE
8
BLACK
6
CONTINUOUS
10
1.64964
20
0.627871
11
1.64729
21
0.619088
0
LINE
8
BLACK
6
CONTINUOUS
10
1.64729
20
0.619088
11
1.64344
21
0.610846
0
LINE
8
BLACK
6
CONTINUOUS
10
1.64344
20
0.610846
11
1.63823
21
0.603398
0
LINE
8
BLACK
6
CONTINUOUS
10
1.63823
20
0.603398
11
1.6318
21
0.596968
0
LINE
8
BLACK
6
CONTINUOUS
10
1.6318
20
0.596968
11
1.62435
21
0.591753
0
LINE
8
BLACK
6
CONTINUOUS
10
1.62435
20
0.591753
11
1.61611
21
0.58791
0
LINE
8
BLACK
6
CONTINUOUS
10
1.61611
20
0.58791
11
1.60733
21
0.585556
0
LINE
8
BLACK
6
CONTINUOUS
10
1.60733
20
0.585556
11
1.59827
21
0.584764
0
LINE
8
BLACK
6
CONTINUOUS
10
1.59827
20
0.584764
11
1.58921
21
0.585556
0
LINE
8
BLACK
6
CONTINUOUS
10
1.58921
20
0.585556
11
1.58043
21
0.58791
0
LINE
8
BLACK
6
CONTINUOUS
10
1.58043
20
0.58791
11
1.57219
21
0.591753
0
LINE
8
BLACK
6
CONTINUOUS
10
1.57219
20
0.591753
11
1.56474
21
0.596968
0
LINE
8
BLACK
6
CONTINUOUS
10
1.56474
20
0.596968
11
1.55831
21
0.603398
0
LINE
8
BLACK
6
CONTINUOUS
10
1.55831
20
0.603398
11
1.55309
21
0.610846
0
LINE
8
BLACK
6
CONTINUOUS
10
1.55309
20
0.610846
11
1.54925
21
0.619088
0
LINE
8
BLACK
6
CONTINUOUS
10
1.54925
20
0.619088
11
1.54689
21
0.627871
0
LINE
8
BLACK
6
CONTINUOUS
10
1.54689
20
0.627871
11
1.5461
21
0.636929
0
LINE
8
BLACK
6
CONTINUOUS
10
1.5461
20
0.636929
11
1.54689
21
0.645988
0
LINE
8
BLACK
6
CONTINUOUS
10
1.54689
20
0.645988
11
1.54925
21
0.654771
0
LINE
8
BLACK
6
CONTINUOUS
10
1.54925
20
0.654771
11
1.55309
21
0.663012
0
LINE
8
BLACK
6
CONTINUOUS
10
1.55309
20
0.663012
11
1.55831
21
0.67046
0
LINE
8
BLACK
6
CONTINUOUS
10
1.55831
20
0.67046
11
1.56474
21
0.67689
0
LINE
8
BLACK
6
CONTINUOUS
10
1.56474
20
0.67689
11
1.57219
21
0.682106
0
LINE
8
BLACK
6
CONTINUOUS
10
1.57219
20
0.682106
11
1.58043
21
0.685949
0
LINE
8
BLACK
6
CONTINUOUS
10
1.58043
20
0.685949
11
1.58921
21
0.688302
0
LINE
8
BLACK
6
CONTINUOUS
10
1.58921
20
0.688302
11
1.59827
21
0.689094
0
LINE
8
BLACK
6
CONTINUOUS
10
1.59827
20
0.689094
11
1.60733
21
0.688302
0
LINE
8
BLACK
6
CONTINUOUS
10
1.99079
20
0.688302
11
1.99957
21
0.685949
0
LINE
8
BLACK
6
CONTINUOUS
10
1.99957
20
0.685949
11
2.00781
21
0.682106
0
LINE
8
BLACK
6
CONTINUOUS
10
2.00781
20
0.682106
11
2.01526
21
0.67689
0
LINE
8
BLACK
6
CONTINUOUS
10
2.01526
20
0.67689
11
2.02169
21
0.67046
0
LINE
8
BLACK
6
CONTINUOUS
10
2.02169
20
0.67046
11
2.02691
21
0.663012
0
LINE
8
BLACK
6
CONTINUOUS
10
2.02691
20
0.663012
11
2.03075
21
0.654771
0
LINE
8
BLACK
6
CONTINUOUS
10
2.03075
20
0.654771
11
2.03311
21
0.645988
0
LINE
8
BLACK
6
CONTINUOUS
10
2.03311
20
0.645988
11
2.0339
21
0.636929
0
LINE
8
BLACK
6
CONTINUOUS
10
2.0339
20
0.636929
11
2.03311
21
0.627871
0
LINE
8
BLACK
6
CONTINUOUS
10
2.03311
20
0.627871
11
2.03075
21
0.619088
0
LINE
8
BLACK
6
CONTINUOUS
10
2.03075
20
0.619088
11
2.02691
21
0.610846
0
LINE
8
BLACK
6
CONTINUOUS
10
2.02691
20
0.610846
11
2.02169
21
0.603398
0
LINE
8
BLACK
6
CONTINUOUS
10
2.02169
20
0.603398
11
2.01526
21
0.596968
0
LINE
8
BLACK
6
CONTINUOUS
10
2.01526
20
0.596968
11
2.00781
21
0.591753
0
LINE
8
BLACK
6
CONTINUOUS
10
2.00781
20
0.591753
11
1.99957
21
0.58791
0
LINE
8
BLACK
6
CONTINUOUS
10
1.99957
20
0.58791
11
1.99079
21
0.585556
0
LINE
8
BLACK
6
CONTINUOUS
10
1.99079
20
0.585556
11
1.98173
21
0.584764
0
LINE
8
BLACK
6
CONTINUOUS
10
1.98173
20
0.584764
11
1.97267
21
0.585556
0
LINE
8
BLACK
6
CONTINUOUS
10
1.97267
20
0.585556
11
1.96389
21
0.58791
0
LINE
8
BLACK
6
CONTINUOUS
10
1.96389
20
0.58791
11
1.95565
21
0.591753
0
LINE
8
BLACK
6
CONTINUOUS
10
1.95565
20
0.591753
11
1.9482
21
0.596968
0
LINE
8
BLACK
6
CONTINUOUS
10
1.9482
20
0.596968
11
1.94177
21
0.603398
0
LINE
8
BLACK
6
CONTINUOUS
10
1.94177
20
0.603398
11
1.93656
21
0.610846
0
LINE
8
BLACK
6
CONTINUOUS
10
1.93656
20
0.610846
11
1.93271
21
0.619088
0
LINE
8
BLACK
6
CONTINUOUS
10
1.93271
20
0.619088
11
1.93036
21
0.627871
0
LINE
8
BLACK
6
CONTINUOUS
10
1.93036
20
0.627871
11
1.92957
21
0.636929
0
LINE
8
BLACK
6
CONTINUOUS
10
1.92957
20
0.636929
11
1.93036
21
0.645988
0
LINE
8
BLACK
6
CONTINUOUS
10
1.93036
20
0.645988
11
1.93271
21
0.654771
0
LINE
8
BLACK
6
CONTINUOUS
10
1.93271
20
0.654771
11
1.93656
21
0.663012
0
LINE
8
BLACK
6
CONTINUOUS
10
1.93656
20
0.663012
11
1.94177
21
0.67046
0
LINE
8
BLACK
6
CONTINUOUS
10
1.94177
20
0.67046
11
1.9482
21
0.67689
0
LINE
8
BLACK
6
CONTINUOUS
10
1.9482
20
0.67689
11
1.95565
21
0.682106
0
LINE
8
BLACK
6
CONTINUOUS
10
1.95565
20
0.682106
11
1.96389
21
0.685949
0
LINE
8
BLACK
6
CONTINUOUS
10
1.96389
20
0.685949
11
1.97267
21
0.688302
0
LINE
8
BLACK
6
CONTINUOUS
10
1.97267
20
0.688302
11
1.98173
21
0.689094
0
LINE
8
BLACK
6
CONTINUOUS
10
1.98173
20
0.689094
11
1.99079
21
0.688302
0
LINE
8
BLACK
6
CONTINUOUS
10
2.65759
20
0.740433
11
2.50759
21
0.740433
0
LINE
8
BLACK
6
CONTINUOUS
10
2.50759
20
0.740433
11
2.50759
21
0.890433
0
LINE
8
BLACK
6
CONTINUOUS
10
2.50759
20
0.890433
11
2.65759
21
0.890433
0
LINE
8
BLACK
6
CONTINUOUS
10
2.65759
20
0.890433
11
2.65759
21
0.740433
0
LINE
8
BLACK
6
CONTINUOUS
10
2.85444
20
0.740433
11
2.70444
21
0.740433
0
LINE
8
BLACK
6
CONTINUOUS
10
2.70444
20
0.740433
11
2.70444
21
0.890433
0
LINE
8
BLACK
6
CONTINUOUS
10
2.70444
20
0.890433
11
2.85444
21
0.890433
0
LINE
8
BLACK
6
CONTINUOUS
10
2.85444
20
0.890433
11
2.85444
21
0.740433
0
LINE
8
BLACK
6
CONTINUOUS
10
2.39154
20
0.891948
11
2.40049
21
0.889551
0
LINE
8
BLACK
6
CONTINUOUS
10
2.40049
20
0.889551
11
2.40889
21
0.885635
0
LINE
8
BLACK
6
CONTINUOUS
10
2.40889
20
0.885635
11
2.41648
21
0.880321
0
LINE
8
BLACK
6
CONTINUOUS
10
2.41648
20
0.880321
11
2.42303
21
0.87377
0
LINE
8
BLACK
6
CONTINUOUS
10
2.42303
20
0.87377
11
2.42834
21
0.866181
0
LINE
8
BLACK
6
CONTINUOUS
10
2.42834
20
0.866181
11
2.43226
21
0.857785
0
LINE
8
BLACK
6
CONTINUOUS
10
2.43226
20
0.857785
11
2.43466
21
0.848836
0
LINE
8
BLACK
6
CONTINUOUS
10
2.43466
20
0.848836
11
2.43546
21
0.839606
0
LINE
8
BLACK
6
CONTINUOUS
10
2.43546
20
0.839606
11
2.43466
21
0.830377
0
LINE
8
BLACK
6
CONTINUOUS
10
2.43466
20
0.830377
11
2.43226
21
0.821428
0
LINE
8
BLACK
6
CONTINUOUS
10
2.43226
20
0.821428
11
2.42834
21
0.813031
0
LINE
8
BLACK
6
CONTINUOUS
10
2.42834
20
0.813031
11
2.42303
21
0.805442
0
LINE
8
BLACK
6
CONTINUOUS
10
2.42303
20
0.805442
11
2.41648
21
0.798891
0
LINE
8
BLACK
6
CONTINUOUS
10
2.41648
20
0.798891
11
2.40889
21
0.793577
0
LINE
8
BLACK
6
CONTINUOUS
10
2.40889
20
0.793577
11
2.40049
21
0.789662
0
LINE
8
BLACK
6
CONTINUOUS
10
2.40049
20
0.789662
11
2.39154
21
0.787264
0
LINE
8
BLACK
6
CONTINUOUS
10
2.39154
20
0.787264
11
2.38231
21
0.786457
0
LINE
8
BLACK
6
CONTINUOUS
10
2.38231
20
0.786457
11
2.37308
21
0.787264
0
LINE
8
BLACK
6
CONTINUOUS
10
2.37308
20
0.787264
11
2.36413
21
0.789662
0
LINE
8
BLACK
6
CONTINUOUS
10
2.36413
20
0.789662
11
2.35574
21
0.793577
0
LINE
8
BLACK
6
CONTINUOUS
10
2.35574
20
0.793577
11
2.34815
21
0.798891
0
LINE
8
BLACK
6
CONTINUOUS
10
2.34815
20
0.798891
11
2.3416
21
0.805442
0
LINE
8
BLACK
6
CONTINUOUS
10
2.3416
20
0.805442
11
2.33628
21
0.813031
0
LINE
8
BLACK
6
CONTINUOUS
10
2.33628
20
0.813031
11
2.33237
21
0.821428
0
LINE
8
BLACK
6
CONTINUOUS
10
2.33237
20
0.821428
11
2.32997
21
0.830377
0
LINE
8
BLACK
6
CONTINUOUS
10
2.32997
20
0.830377
11
2.32916
21
0.839606
0
LINE
8
BLACK
6
CONTINUOUS
10
2.32916
20
0.839606
11
2.32997
21
0.848836
0
LINE
8
BLACK
6
CONTINUOUS
10
2.32997
20
0.848836
11
2.33237
21
0.857785
0
LINE
8
BLACK
6
CONTINUOUS
10
2.33237
20
0.857785
11
2.33628
21
0.866181
0
LINE
8
BLACK
6
CONTINUOUS
10
2.33628
20
0.866181
11
2.3416
21
0.87377
0
LINE
8
BLACK
6
CONTINUOUS
10
2.3416
20
0.87377
11
2.34815
21
0.880321
0
LINE
8
BLACK
6
CONTINUOUS
10
2.34815
20
0.880321
11
2.35574
21
0.885635
0
LINE
8
BLACK
6
CONTINUOUS
10
2.35574
20
0.885635
11
2.36413
21
0.889551
0
LINE
8
BLACK
6
CONTINUOUS
10
2.36413
20
0.889551
11
2.37308
21
0.891948
0
LINE
8
BLACK
6
CONTINUOUS
10
2.37308
20
0.891948
11
2.38231
21
0.892756
0
LINE
8
BLACK
6
CONTINUOUS
10
2.38231
20
0.892756
11
2.39154
21
0.891948
0
LINE
8
BLACK
6
CONTINUOUS
10
1.88923
20
0.962342
11
1.89818
21
0.959944
0
LINE
8
BLACK
6
CONTINUOUS
10
1.89818
20
0.959944
11
1.90657
21
0.956029
0
LINE
8
BLACK
6
CONTINUOUS
10
1.90657
20
0.956029
11
1.91416
21
0.950715
0
LINE
8
BLACK
6
CONTINUOUS
10
1.91416
20
0.950715
11
1.92071
21
0.944164
0
LINE
8
BLACK
6
CONTINUOUS
10
1.92071
20
0.944164
11
1.92603
21
0.936575
0
LINE
8
BLACK
6
CONTINUOUS
10
1.92603
20
0.936575
11
1.92994
21
0.928178
0
LINE
8
BLACK
6
CONTINUOUS
10
1.92994
20
0.928178
11
1.93234
21
0.919229
0
LINE
8
BLACK
6
CONTINUOUS
10
1.93234
20
0.919229
11
1.93315
21
0.91
0
LINE
8
BLACK
6
CONTINUOUS
10
1.93315
20
0.91
11
1.93234
21
0.900771
0
LINE
8
BLACK
6
CONTINUOUS
10
1.93234
20
0.900771
11
1.92994
21
0.891822
0
LINE
8
BLACK
6
CONTINUOUS
10
1.92994
20
0.891822
11
1.92603
21
0.883425
0
LINE
8
BLACK
6
CONTINUOUS
10
1.92603
20
0.883425
11
1.92071
21
0.875836
0
LINE
8
BLACK
6
CONTINUOUS
10
1.92071
20
0.875836
11
1.91416
21
0.869285
0
LINE
8
BLACK
6
CONTINUOUS
10
1.91416
20
0.869285
11
1.90657
21
0.863971
0
LINE
8
BLACK
6
CONTINUOUS
10
1.90657
20
0.863971
11
1.89818
21
0.860056
0
LINE
8
BLACK
6
CONTINUOUS
10
1.89818
20
0.860056
11
1.88923
21
0.857658
0
LINE
8
BLACK
6
CONTINUOUS
10
1.88923
20
0.857658
11
1.88
21
0.85685
0
LINE
8
BLACK
6
CONTINUOUS
10
1.88
20
0.85685
11
1.87077
21
0.857658
0
LINE
8
BLACK
6
CONTINUOUS
10
1.87077
20
0.857658
11
1.86182
21
0.860056
0
LINE
8
BLACK
6
CONTINUOUS
10
1.86182
20
0.860056
11
1.85343
21
0.863971
0
LINE
8
BLACK
6
CONTINUOUS
10
1.85343
20
0.863971
11
1.84584
21
0.869285
0
LINE
8
BLACK
6
CONTINUOUS
10
1.84584
20
0.869285
11
1.83929
21
0.875836
0
LINE
8
BLACK
6
CONTINUOUS
10
1.83929
20
0.875836
11
1.83397
21
0.883425
0
LINE
8
BLACK
6
CONTINUOUS
10
1.83397
20
0.883425
11
1.83006
21
0.891822
0
LINE
8
BLACK
6
CONTINUOUS
10
1.83006
20
0.891822
11
1.82766
21
0.900771
0
LINE
8
BLACK
6
CONTINUOUS
10
1.82766
20
0.900771
11
1.82685
21
0.91
0
LINE
8
BLACK
6
CONTINUOUS
10
1.82685
20
0.91
11
1.82766
21
0.919229
0
LINE
8
BLACK
6
CONTINUOUS
10
1.82766
20
0.919229
11
1.83006
21
0.928178
0
LINE
8
BLACK
6
CONTINUOUS
10
1.83006
20
0.928178
11
1.83397
21
0.936575
0
LINE
8
BLACK
6
CONTINUOUS
10
1.83397
20
0.936575
11
1.83929
21
0.944164
0
LINE
8
BLACK
6
CONTINUOUS
10
1.83929
20
0.944164
11
1.84584
21
0.950715
0
LINE
8
BLACK
6
CONTINUOUS
10
1.84584
20
0.950715
11
1.85343
21
0.956029
0
LINE
8
BLACK
6
CONTINUOUS
10
1.85343
20
0.956029
11
1.86182
21
0.959944
0
LINE
8
BLACK
6
CONTINUOUS
10
1.86182
20
0.959944
11
1.87077
21
0.962342
0
LINE
8
BLACK
6
CONTINUOUS
10
1.87077
20
0.962342
11
1.88
21
0.96315
0
LINE
8
BLACK
6
CONTINUOUS
10
1.88
20
0.96315
11
1.88923
21
0.962342
0
LINE
8
BLACK
6
CONTINUOUS
10
2.65759
20
0.937283
11
2.50759
21
0.937283
0
LINE
8
BLACK
6
CONTINUOUS
10
2.50759
20
0.937283
11
2.50759
21
1.08728
0
LINE
8
BLACK
6
CONTINUOUS
10
2.50759
20
1.08728
11
2.65759
21
1.08728
0
LINE
8
BLACK
6
CONTINUOUS
10
2.65759
20
1.08728
11
2.65759
21
0.937283
0
LINE
8
BLACK
6
CONTINUOUS
10
2.85444
20
0.937283
11
2.70444
21
0.937283
0
LINE
8
BLACK
6
CONTINUOUS
10
2.70444
20
0.937283
11
2.70444
21
1.08728
0
LINE
8
BLACK
6
CONTINUOUS
10
2.70444
20
1.08728
11
2.85444
21
1.08728
0
LINE
8
BLACK
6
CONTINUOUS
10
2.85444
20
1.08728
11
2.85444
21
0.937283
0
LINE
8
BLACK
6
CONTINUOUS
10
1.35151
20
1.08152
11
1.35964
21
1.07837
0
LINE
8
BLACK
6
CONTINUOUS
10
1.35964
20
1.07837
11
1.36705
21
1.07378
0
LINE
8
BLACK
6
CONTINUOUS
10
1.36705
20
1.07378
11
1.3735
21
1.06791
0
LINE
8
BLACK
6
CONTINUOUS
10
1.3735
20
1.06791
11
1.37875
21
1.06095
0
LINE
8
BLACK
6
CONTINUOUS
10
1.37875
20
1.06095
11
1.38264
21
1.05315
0
LINE
8
BLACK
6
CONTINUOUS
10
1.38264
20
1.05315
11
1.38502
21
1.04476
0
LINE
8
BLACK
6
CONTINUOUS
10
1.38502
20
1.04476
11
1.38583
21
1.03608
0
LINE
8
BLACK
6
CONTINUOUS
10
1.38583
20
1.03608
11
1.38502
21
1.0274
0
LINE
8
BLACK
6
CONTINUOUS
10
1.38502
20
1.0274
11
1.38264
21
1.01901
0
LINE
8
BLACK
6
CONTINUOUS
10
1.38264
20
1.01901
11
1.37875
21
1.01121
0
LINE
8
BLACK
6
CONTINUOUS
10
1.37875
20
1.01121
11
1.3735
21
1.00425
0
LINE
8
BLACK
6
CONTINUOUS
10
1.3735
20
1.00425
11
1.36705
21
0.998378
0
LINE
8
BLACK
6
CONTINUOUS
10
1.36705
20
0.998378
11
1.35964
21
0.993789
0
LINE
8
BLACK
6
CONTINUOUS
10
1.35964
20
0.993789
11
1.35151
21
0.990639
0
LINE
8
BLACK
6
CONTINUOUS
10
1.35151
20
0.990639
11
1.34294
21
0.989037
0
LINE
8
BLACK
6
CONTINUOUS
10
1.34294
20
0.989037
11
1.33422
21
0.989037
0
LINE
8
BLACK
6
CONTINUOUS
10
1.33422
20
0.989037
11
1.32565
21
0.990639
0
LINE
8
BLACK
6
CONTINUOUS
10
1.32565
20
0.990639
11
1.31752
21
0.993789
0
LINE
8
BLACK
6
CONTINUOUS
10
1.31752
20
0.993789
11
1.31011
21
0.998378
0
LINE
8
BLACK
6
CONTINUOUS
10
1.31011
20
0.998378
11
1.30367
21
1.00425
0
LINE
8
BLACK
6
CONTINUOUS
10
1.30367
20
1.00425
11
1.29841
21
1.01121
0
LINE
8
BLACK
6
CONTINUOUS
10
1.29841
20
1.01121
11
1.29453
21
1.01901
0
LINE
8
BLACK
6
CONTINUOUS
10
1.29453
20
1.01901
11
1.29214
21
1.0274
0
LINE
8
BLACK
6
CONTINUOUS
10
1.29214
20
1.0274
11
1.29134
21
1.03608
0
LINE
8
BLACK
6
CONTINUOUS
10
1.29134
20
1.03608
11
1.29214
21
1.04476
0
LINE
8
BLACK
6
CONTINUOUS
10
1.29214
20
1.04476
11
1.29453
21
1.05315
0
LINE
8
BLACK
6
CONTINUOUS
10
1.29453
20
1.05315
11
1.29841
21
1.06095
0
LINE
8
BLACK
6
CONTINUOUS
10
1.29841
20
1.06095
11
1.30367
21
1.06791
0
LINE
8
BLACK
6
CONTINUOUS
10
1.30367
20
1.06791
11
1.31011
21
1.07378
0
LINE
8
BLACK
6
CONTINUOUS
10
1.31011
20
1.07378
11
1.31752
21
1.07837
0
LINE
8
BLACK
6
CONTINUOUS
10
1.31752
20
1.07837
11
1.32565
21
1.08152
0
LINE
8
BLACK
6
CONTINUOUS
10
1.32565
20
1.08152
11
1.33422
21
1.08312
0
LINE
8
BLACK
6
CONTINUOUS
10
1.33422
20
1.08312
11
1.34294
21
1.08312
0
LINE
8
BLACK
6
CONTINUOUS
10
1.34294
20
1.08312
11
1.35151
21
1.08152
0
LINE
8
BLACK
6
CONTINUOUS
10
1.54836
20
1.08152
11
1.55649
21
1.07837
0
LINE
8
BLACK
6
CONTINUOUS
10
1.55649
20
1.07837
11
1.5639
21
1.07378
0
LINE
8
BLACK
6
CONTINUOUS
10
1.5639
20
1.07378
11
1.57035
21
1.06791
0
LINE
8
BLACK
6
CONTINUOUS
10
1.57035
20
1.06791
11
1.5756
21
1.06095
0
LINE
8
BLACK
6
CONTINUOUS
10
1.5756
20
1.06095
11
1.57949
21
1.05315
0
LINE
8
BLACK
6
CONTINUOUS
10
1.57949
20
1.05315
11
1.58187
21
1.04476
0
LINE
8
BLACK
6
CONTINUOUS
10
1.58187
20
1.04476
11
1.58268
21
1.03608
0
LINE
8
BLACK
6
CONTINUOUS
10
1.58268
20
1.03608
11
1.58187
21
1.0274
0
LINE
8
BLACK
6
CONTINUOUS
10
1.58187
20
1.0274
11
1.57949
21
1.01901
0
LINE
8
BLACK
6
CONTINUOUS
10
1.57949
20
1.01901
11
1.5756
21
1.01121
0
LINE
8
BLACK
6
CONTINUOUS
10
1.5756
20
1.01121
11
1.57035
21
1.00425
0
LINE
8
BLACK
6
CONTINUOUS
10
1.57035
20
1.00425
11
1.5639
21
0.998378
0
LINE
8
BLACK
6
CONTINUOUS
10
1.5639
20
0.998378
11
1.55649
21
0.993789
0
LINE
8
BLACK
6
CONTINUOUS
10
1.55649
20
0.993789
11
1.54836
21
0.990639
0
LINE
8
BLACK
6
CONTINUOUS
10
1.54836
20
0.990639
11
1.53979
21
0.989037
0
LINE
8
BLACK
6
CONTINUOUS
10
1.53979
20
0.989037
11
1.53107
21
0.989037
0
LINE
8
BLACK
6
CONTINUOUS
10
1.53107
20
0.989037
11
1.5225
21
0.990639
0
LINE
8
BLACK
6
CONTINUOUS
10
1.5225
20
0.990639
11
1.51437
21
0.993789
0
LINE
8
BLACK
6
CONTINUOUS
10
1.51437
20
0.993789
11
1.50696
21
0.998378
0
LINE
8
BLACK
6
CONTINUOUS
10
1.50696
20
0.998378
11
1.50052
21
1.00425
0
LINE
8
BLACK
6
CONTINUOUS
10
1.50052
20
1.00425
11
1.49527
21
1.01121
0
LINE
8
BLACK
6
CONTINUOUS
10
1.49527
20
1.01121
11
1.49138
21
1.01901
0
LINE
8
BLACK
6
CONTINUOUS
10
1.49138
20
1.01901
11
1.48899
21
1.0274
0
LINE
8
BLACK
6
CONTINUOUS
10
1.48899
20
1.0274
11
1.48819
21
1.03608
0
LINE
8
BLACK
6
CONTINUOUS
10
1.48819
20
1.03608
11
1.48899
21
1.04476
0
LINE
8
BLACK
6
CONTINUOUS
10
1.48899
20
1.04476
11
1.49138
21
1.05315
0
LINE
8
BLACK
6
CONTINUOUS
10
1.49138
20
1.05315
11
1.49527
21
1.06095
0
LINE
8
BLACK
6
CONTINUOUS
10
1.49527
20
1.06095
11
1.50052
21
1.06791
0
LINE
8
BLACK
6
CONTINUOUS
10
1.50052
20
1.06791
11
1.50696
21
1.07378
0
LINE
8
BLACK
6
CONTINUOUS
10
1.50696
20
1.07378
11
1.51437
21
1.07837
0
LINE
8
BLACK
6
CONTINUOUS
10
1.51437
20
1.07837
11
1.5225
21
1.08152
0
LINE
8
BLACK
6
CONTINUOUS
10
1.5225
20
1.08152
11
1.53107
21
1.08312
0
LINE
8
BLACK
6
CONTINUOUS
10
1.53107
20
1.08312
11
1.53979
21
1.08312
0
LINE
8
BLACK
6
CONTINUOUS
10
1.53979
20
1.08312
11
1.54836
21
1.08152
0
LINE
8
BLACK
6
CONTINUOUS
10
0.50524
20
1.04878
11
0.35524
21
1.04878
0
LINE
8
BLACK
6
CONTINUOUS
10
0.35524
20
1.04878
11
0.35524
21
1.19878
0
LINE
8
BLACK
6
CONTINUOUS
10
0.35524
20
1.19878
11
0.50524
21
1.19878
0
LINE
8
BLACK
6
CONTINUOUS
10
0.50524
20
1.19878
11
0.50524
21
1.04878
0
LINE
8
BLACK
6
CONTINUOUS
10
0.702091
20
1.04878
11
0.552091
21
1.04878
0
LINE
8
BLACK
6
CONTINUOUS
10
0.552091
20
1.04878
11
0.552091
21
1.19878
0
LINE
8
BLACK
6
CONTINUOUS
10
0.552091
20
1.19878
11
0.702091
21
1.19878
0
LINE
8
BLACK
6
CONTINUOUS
10
0.702091
20
1.19878
11
0.702091
21
1.04878
0
LINE
8
BLACK
6
CONTINUOUS
10
2.66071
20
1.13807
11
2.51071
21
1.13807
0
LINE
8
BLACK
6
CONTINUOUS
10
2.51071
20
1.13807
11
2.51071
21
1.28807
0
LINE
8
BLACK
6
CONTINUOUS
10
2.51071
20
1.28807
11
2.66071
21
1.28807
0
LINE
8
BLACK
6
CONTINUOUS
10
2.66071
20
1.28807
11
2.66071
21
1.13807
0
LINE
8
BLACK
6
CONTINUOUS
10
2.85756
20
1.13807
11
2.70756
21
1.13807
0
LINE
8
BLACK
6
CONTINUOUS
10
2.70756
20
1.13807
11
2.70756
21
1.28807
0
LINE
8
BLACK
6
CONTINUOUS
10
2.70756
20
1.28807
11
2.85756
21
1.28807
0
LINE
8
BLACK
6
CONTINUOUS
10
2.85756
20
1.28807
11
2.85756
21
1.13807
0
LINE
8
BLACK
6
CONTINUOUS
10
2.42413
20
1.27919
11
2.43308
21
1.27679
0
LINE
8
BLACK
6
CONTINUOUS
10
2.43308
20
1.27679
11
2.44148
21
1.27288
0
LINE
8
BLACK
6
CONTINUOUS
10
2.44148
20
1.27288
11
2.44907
21
1.26757
0
LINE
8
BLACK
6
CONTINUOUS
10
2.44907
20
1.26757
11
2.45562
21
1.26101
0
LINE
8
BLACK
6
CONTINUOUS
10
2.45562
20
1.26101
11
2.46093
21
1.25343
0
LINE
8
BLACK
6
CONTINUOUS
10
2.46093
20
1.25343
11
2.46485
21
1.24503
0
LINE
8
BLACK
6
CONTINUOUS
10
2.46485
20
1.24503
11
2.46724
21
1.23608
0
LINE
8
BLACK
6
CONTINUOUS
10
2.46724
20
1.23608
11
2.46805
21
1.22685
0
LINE
8
BLACK
6
CONTINUOUS
10
2.46805
20
1.22685
11
2.46724
21
1.21762
0
LINE
8
BLACK
6
CONTINUOUS
10
2.46724
20
1.21762
11
2.46485
21
1.20867
0
LINE
8
BLACK
6
CONTINUOUS
10
2.46485
20
1.20867
11
2.46093
21
1.20028
0
LINE
8
BLACK
6
CONTINUOUS
10
2.46093
20
1.20028
11
2.45562
21
1.19269
0
LINE
8
BLACK
6
CONTINUOUS
10
2.45562
20
1.19269
11
2.44907
21
1.18614
0
LINE
8
BLACK
6
CONTINUOUS
10
2.44907
20
1.18614
11
2.44148
21
1.18082
0
LINE
8
BLACK
6
CONTINUOUS
10
2.44148
20
1.18082
11
2.43308
21
1.17691
0
LINE
8
BLACK
6
CONTINUOUS
10
2.43308
20
1.17691
11
2.42413
21
1.17451
0
LINE
8
BLACK
6
CONTINUOUS
10
2.42413
20
1.17451
11
2.4149
21
1.1737
0
LINE
8
BLACK
6
CONTINUOUS
10
2.4149
20
1.1737
11
2.40567
21
1.17451
0
LINE
8
BLACK
6
CONTINUOUS
10
2.40567
20
1.17451
11
2.39672
21
1.17691
0
LINE
8
BLACK
6
CONTINUOUS
10
2.39672
20
1.17691
11
2.38833
21
1.18082
0
LINE
8
BLACK
6
CONTINUOUS
10
2.38833
20
1.18082
11
2.38074
21
1.18614
0
LINE
8
BLACK
6
CONTINUOUS
10
2.38074
20
1.18614
11
2.37419
21
1.19269
0
LINE
8
BLACK
6
CONTINUOUS
10
2.37419
20
1.19269
11
2.36887
21
1.20028
0
LINE
8
BLACK
6
CONTINUOUS
10
2.36887
20
1.20028
11
2.36496
21
1.20867
0
LINE
8
BLACK
6
CONTINUOUS
10
2.36496
20
1.20867
11
2.36256
21
1.21762
0
LINE
8
BLACK
6
CONTINUOUS
10
2.36256
20
1.21762
11
2.36175
21
1.22685
0
LINE
8
BLACK
6
CONTINUOUS
10
2.36175
20
1.22685
11
2.36256
21
1.23608
0
LINE
8
BLACK
6
CONTINUOUS
10
2.36256
20
1.23608
11
2.36496
21
1.24503
0
LINE
8
BLACK
6
CONTINUOUS
10
2.36496
20
1.24503
11
2.36887
21
1.25343
0
LINE
8
BLACK
6
CONTINUOUS
10
2.36887
20
1.25343
11
2.37419
21
1.26101
0
LINE
8
BLACK
6
CONTINUOUS
10
2.37419
20
1.26101
11
2.38074
21
1.26757
0
LINE
8
BLACK
6
CONTINUOUS
10
2.38074
20
1.26757
11
2.38833
21
1.27288
0
LINE
8
BLACK
6
CONTINUOUS
10
2.38833
20
1.27288
11
2.39672
21
1.27679
0
LINE
8
BLACK
6
CONTINUOUS
10
2.39672
20
1.27679
11
2.40567
21
1.27919
0
LINE
8
BLACK
6
CONTINUOUS
10
2.40567
20
1.27919
11
2.4149
21
1.28
0
LINE
8
BLACK
6
CONTINUOUS
10
2.4149
20
1.28
11
2.42413
21
1.27919
0
LINE
8
BLACK
6
CONTINUOUS
10
0.50524
20
1.24563
11
0.35524
21
1.24563
0
LINE
8
BLACK
6
CONTINUOUS
10
0.35524
20
1.24563
11
0.35524
21
1.39563
0
LINE
8
BLACK
6
CONTINUOUS
10
0.35524
20
1.39563
11
0.50524
21
1.39563
0
LINE
8
BLACK
6
CONTINUOUS
10
0.50524
20
1.39563
11
0.50524
21
1.24563
0
LINE
8
BLACK
6
CONTINUOUS
10
0.702091
20
1.24563
11
0.552091
21
1.24563
0
LINE
8
BLACK
6
CONTINUOUS
10
0.552091
20
1.24563
11
0.552091
21
1.39563
0
LINE
8
BLACK
6
CONTINUOUS
10
0.552091
20
1.39563
11
0.702091
21
1.39563
0
LINE
8
BLACK
6
CONTINUOUS
10
0.702091
20
1.39563
11
0.702091
21
1.24563
0
LINE
8
BLACK
6
CONTINUOUS
10
1.88923
20
1.38234
11
1.89818
21
1.37994
0
LINE
8
BLACK
6
CONTINUOUS
10
1.89818
20
1.37994
11
1.90657
21
1.37603
0
LINE
8
BLACK
6
CONTINUOUS
10
1.90657
20
1.37603
11
1.91416
21
1.37071
0
LINE
8
BLACK
6
CONTINUOUS
10
1.91416
20
1.37071
11
1.92071
21
1.36416
0
LINE
8
BLACK
6
CONTINUOUS
10
1.92071
20
1.36416
11
1.92603
21
1.35657
0
LINE
8
BLACK
6
CONTINUOUS
10
1.92603
20
1.35657
11
1.92994
21
1.34818
0
LINE
8
BLACK
6
CONTINUOUS
10
1.92994
20
1.34818
11
1.93234
21
1.33923
0
LINE
8
BLACK
6
CONTINUOUS
10
1.93234
20
1.33923
11
1.93315
21
1.33
0
LINE
8
BLACK
6
CONTINUOUS
10
1.93315
20
1.33
11
1.93234
21
1.32077
0
LINE
8
BLACK
6
CONTINUOUS
10
1.93234
20
1.32077
11
1.92994
21
1.31182
0
LINE
8
BLACK
6
CONTINUOUS
10
1.92994
20
1.31182
11
1.92603
21
1.30343
0
LINE
8
BLACK
6
CONTINUOUS
10
1.92603
20
1.30343
11
1.92071
21
1.29584
0
LINE
8
BLACK
6
CONTINUOUS
10
1.92071
20
1.29584
11
1.91416
21
1.28929
0
LINE
8
BLACK
6
CONTINUOUS
10
1.91416
20
1.28929
11
1.90657
21
1.28397
0
LINE
8
BLACK
6
CONTINUOUS
10
1.90657
20
1.28397
11
1.89818
21
1.28006
0
LINE
8
BLACK
6
CONTINUOUS
10
1.89818
20
1.28006
11
1.88923
21
1.27766
0
LINE
8
BLACK
6
CONTINUOUS
10
1.88923
20
1.27766
11
1.88
21
1.27685
0
LINE
8
BLACK
6
CONTINUOUS
10
1.88
20
1.27685
11
1.87077
21
1.27766
0
LINE
8
BLACK
6
CONTINUOUS
10
1.87077
20
1.27766
11
1.86182
21
1.28006
0
LINE
8
BLACK
6
CONTINUOUS
10
1.86182
20
1.28006
11
1.85343
21
1.28397
0
LINE
8
BLACK
6
CONTINUOUS
10
1.85343
20
1.28397
11
1.84584
21
1.28929
0
LINE
8
BLACK
6
CONTINUOUS
10
1.84584
20
1.28929
11
1.83929
21
1.29584
0
LINE
8
BLACK
6
CONTINUOUS
10
1.83929
20
1.29584
11
1.83397
21
1.30343
0
LINE
8
BLACK
6
CONTINUOUS
10
1.83397
20
1.30343
11
1.83006
21
1.31182
0
LINE
8
BLACK
6
CONTINUOUS
10
1.83006
20
1.31182
11
1.82766
21
1.32077
0
LINE
8
BLACK
6
CONTINUOUS
10
1.82766
20
1.32077
11
1.82685
21
1.33
0
LINE
8
BLACK
6
CONTINUOUS
10
1.82685
20
1.33
11
1.82766
21
1.33923
0
LINE
8
BLACK
6
CONTINUOUS
10
1.82766
20
1.33923
11
1.83006
21
1.34818
0
LINE
8
BLACK
6
CONTINUOUS
10
1.83006
20
1.34818
11
1.83397
21
1.35657
0
LINE
8
BLACK
6
CONTINUOUS
10
1.83397
20
1.35657
11
1.83929
21
1.36416
0
LINE
8
BLACK
6
CONTINUOUS
10
1.83929
20
1.36416
11
1.84584
21
1.37071
0
LINE
8
BLACK
6
CONTINUOUS
10
1.84584
20
1.37071
11
1.85343
21
1.37603
0
LINE
8
BLACK
6
CONTINUOUS
10
1.85343
20
1.37603
11
1.86182
21
1.37994
0
LINE
8
BLACK
6
CONTINUOUS
10
1.86182
20
1.37994
11
1.87077
21
1.38234
0
LINE
8
BLACK
6
CONTINUOUS
10
1.87077
20
1.38234
11
1.88
21
1.38315
0
LINE
8
BLACK
6
CONTINUOUS
10
1.88
20
1.38315
11
1.88923
21
1.38234
0
LINE
8
BLACK
6
CONTINUOUS
10
2.66071
20
1.33492
11
2.51071
21
1.33492
0
LINE
8
BLACK
6
CONTINUOUS
10
2.51071
20
1.33492
11
2.51071
21
1.48492
0
LINE
8
BLACK
6
CONTINUOUS
10
2.51071
20
1.48492
11
2.66071
21
1.48492
0
LINE
8
BLACK
6
CONTINUOUS
10
2.66071
20
1.48492
11
2.66071
21
1.33492
0
LINE
8
BLACK
6
CONTINUOUS
10
2.85756
20
1.33492
11
2.70756
21
1.33492
0
LINE
8
BLACK
6
CONTINUOUS
10
2.70756
20
1.33492
11
2.70756
21
1.48492
0
LINE
8
BLACK
6
CONTINUOUS
10
2.70756
20
1.48492
11
2.85756
21
1.48492
0
LINE
8
BLACK
6
CONTINUOUS
10
2.85756
20
1.48492
11
2.85756
21
1.33492
0
LINE
8
BLACK
6
CONTINUOUS
10
1.35151
20
1.49939
11
1.35964
21
1.49624
0
LINE
8
BLACK
6
CONTINUOUS
10
1.35964
20
1.49624
11
1.36705
21
1.49165
0
LINE
8
BLACK
6
CONTINUOUS
10
1.36705
20
1.49165
11
1.3735
21
1.48578
0
LINE
8
BLACK
6
CONTINUOUS
10
1.3735
20
1.48578
11
1.37875
21
1.47882
0
LINE
8
BLACK
6
CONTINUOUS
10
1.37875
20
1.47882
11
1.38264
21
1.47102
0
LINE
8
BLACK
6
CONTINUOUS
10
1.38264
20
1.47102
11
1.38502
21
1.46263
0
LINE
8
BLACK
6
CONTINUOUS
10
1.38502
20
1.46263
11
1.38583
21
1.45395
0
LINE
8
BLACK
6
CONTINUOUS
10
1.38583
20
1.45395
11
1.38502
21
1.44527
0
LINE
8
BLACK
6
CONTINUOUS
10
1.38502
20
1.44527
11
1.38264
21
1.43688
0
LINE
8
BLACK
6
CONTINUOUS
10
1.38264
20
1.43688
11
1.37875
21
1.42908
0
LINE
8
BLACK
6
CONTINUOUS
10
1.37875
20
1.42908
11
1.3735
21
1.42212
0
LINE
8
BLACK
6
CONTINUOUS
10
1.3735
20
1.42212
11
1.36705
21
1.41625
0
LINE
8
BLACK
6
CONTINUOUS
10
1.36705
20
1.41625
11
1.35964
21
1.41166
0
LINE
8
BLACK
6
CONTINUOUS
10
1.35964
20
1.41166
11
1.35151
21
1.40851
0
LINE
8
BLACK
6
CONTINUOUS
10
1.35151
20
1.40851
11
1.34294
21
1.40691
0
LINE
8
BLACK
6
CONTINUOUS
10
1.34294
20
1.40691
11
1.33422
21
1.40691
0
LINE
8
BLACK
6
CONTINUOUS
10
1.33422
20
1.40691
11
1.32565
21
1.40851
0
LINE
8
BLACK
6
CONTINUOUS
10
1.32565
20
1.40851
11
1.31752
21
1.41166
0
LINE
8
BLACK
6
CONTINUOUS
10
1.31752
20
1.41166
11
1.31011
21
1.41625
0
LINE
8
BLACK
6
CONTINUOUS
10
1.31011
20
1.41625
11
1.30367
21
1.42212
0
LINE
8
BLACK
6
CONTINUOUS
10
1.30367
20
1.42212
11
1.29841
21
1.42908
0
LINE
8
BLACK
6
CONTINUOUS
10
1.29841
20
1.42908
11
1.29453
21
1.43688
0
LINE
8
BLACK
6
CONTINUOUS
10
1.29453
20
1.43688
11
1.29214
21
1.44527
0
LINE
8
BLACK
6
CONTINUOUS
10
1.29214
20
1.44527
11
1.29134
21
1.45395
0
LINE
8
BLACK
6
CONTINUOUS
10
1.29134
20
1.45395
11
1.29214
21
1.46263
0
LINE
8
BLACK
6
CONTINUOUS
10
1.29214
20
1.46263
11
1.29453
21
1.47102
0
LINE
8
BLACK
6
CONTINUOUS
10
1.29453
20
1.47102
11
1.29841
21
1.47882
0
LINE
8
BLACK
6
CONTINUOUS
10
1.29841
20
1.47882
11
1.30367
21
1.48578
0
LINE
8
BLACK
6
CONTINUOUS
10
1.30367
20
1.48578
11
1.31011
21
1.49165
0
LINE
8
BLACK
6
CONTINUOUS
10
1.31011
20
1.49165
11
1.31752
21
1.49624
0
LINE
8
BLACK
6
CONTINUOUS
10
1.31752
20
1.49624
11
1.32565
21
1.49939
0
LINE
8
BLACK
6
CONTINUOUS
10
1.32565
20
1.49939
11
1.33422
21
1.50099
0
LINE
8
BLACK
6
CONTINUOUS
10
1.33422
20
1.50099
11
1.34294
21
1.50099
0
LINE
8
BLACK
6
CONTINUOUS
10
1.34294
20
1.50099
11
1.35151
21
1.49939
0
LINE
8
BLACK
6
CONTINUOUS
10
1.54836
20
1.49939
11
1.55649
21
1.49624
0
LINE
8
BLACK
6
CONTINUOUS
10
1.55649
20
1.49624
11
1.5639
21
1.49165
0
LINE
8
BLACK
6
CONTINUOUS
10
1.5639
20
1.49165
11
1.57035
21
1.48578
0
LINE
8
BLACK
6
CONTINUOUS
10
1.57035
20
1.48578
11
1.5756
21
1.47882
0
LINE
8
BLACK
6
CONTINUOUS
10
1.5756
20
1.47882
11
1.57949
21
1.47102
0
LINE
8
BLACK
6
CONTINUOUS
10
1.57949
20
1.47102
11
1.58187
21
1.46263
0
LINE
8
BLACK
6
CONTINUOUS
10
1.58187
20
1.46263
11
1.58268
21
1.45395
0
LINE
8
BLACK
6
CONTINUOUS
10
1.58268
20
1.45395
11
1.58187
21
1.44527
0
LINE
8
BLACK
6
CONTINUOUS
10
1.58187
20
1.44527
11
1.57949
21
1.43688
0
LINE
8
BLACK
6
CONTINUOUS
10
1.57949
20
1.43688
11
1.5756
21
1.42908
0
LINE
8
BLACK
6
CONTINUOUS
10
1.5756
20
1.42908
11
1.57035
21
1.42212
0
LINE
8
BLACK
6
CONTINUOUS
10
1.57035
20
1.42212
11
1.5639
21
1.41625
0
LINE
8
BLACK
6
CONTINUOUS
10
1.5639
20
1.41625
11
1.55649
21
1.41166
0
LINE
8
BLACK
6
CONTINUOUS
10
1.55649
20
1.41166
11
1.54836
21
1.40851
0
LINE
8
BLACK
6
CONTINUOUS
10
1.54836
20
1.40851
11
1.53979
21
1.40691
0
LINE
8
BLACK
6
CONTINUOUS
10
1.53979
20
1.40691
11
1.53107
21
1.40691
0
LINE
8
BLACK
6
CONTINUOUS
10
1.53107
20
1.40691
11
1.5225
21
1.40851
0
LINE
8
BLACK
6
CONTINUOUS
10
1.5225
20
1.40851
11
1.51437
21
1.41166
0
LINE
8
BLACK
6
CONTINUOUS
10
1.51437
20
1.41166
11
1.50696
21
1.41625
0
LINE
8
BLACK
6
CONTINUOUS
10
1.50696
20
1.41625
11
1.50052
21
1.42212
0
LINE
8
BLACK
6
CONTINUOUS
10
1.50052
20
1.42212
11
1.49527
21
1.42908
0
LINE
8
BLACK
6
CONTINUOUS
10
1.49527
20
1.42908
11
1.49138
21
1.43688
0
LINE
8
BLACK
6
CONTINUOUS
10
1.49138
20
1.43688
11
1.48899
21
1.44527
0
LINE
8
BLACK
6
CONTINUOUS
10
1.48899
20
1.44527
11
1.48819
21
1.45395
0
LINE
8
BLACK
6
CONTINUOUS
10
1.48819
20
1.45395
11
1.48899
21
1.46263
0
LINE
8
BLACK
6
CONTINUOUS
10
1.48899
20
1.46263
11
1.49138
21
1.47102
0
LINE
8
BLACK
6
CONTINUOUS
10
1.49138
20
1.47102
11
1.49527
21
1.47882
0
LINE
8
BLACK
6
CONTINUOUS
10
1.49527
20
1.47882
11
1.50052
21
1.48578
0
LINE
8
BLACK
6
CONTINUOUS
10
1.50052
20
1.48578
11
1.50696
21
1.49165
0
LINE
8
BLACK
6
CONTINUOUS
10
1.50696
20
1.49165
11
1.51437
21
1.49624
0
LINE
8
BLACK
6
CONTINUOUS
10
1.51437
20
1.49624
11
1.5225
21
1.49939
0
LINE
8
BLACK
6
CONTINUOUS
10
1.5225
20
1.49939
11
1.53107
21
1.50099
0
LINE
8
BLACK
6
CONTINUOUS
10
1.53107
20
1.50099
11
1.53979
21
1.50099
0
LINE
8
BLACK
6
CONTINUOUS
10
1.53979
20
1.50099
11
1.54836
21
1.49939
0
LINE
8
BLACK
6
CONTINUOUS
10
0.50524
20
1.44248
11
0.35524
21
1.44248
0
LINE
8
BLACK
6
CONTINUOUS
10
0.35524
20
1.44248
11
0.35524
21
1.59248
0
LINE
8
BLACK
6
CONTINUOUS
10
0.35524
20
1.59248
11
0.50524
21
1.59248
0
LINE
8
BLACK
6
CONTINUOUS
10
0.50524
20
1.59248
11
0.50524
21
1.44248
0
LINE
8
BLACK
6
CONTINUOUS
10
0.702091
20
1.44248
11
0.552091
21
1.44248
0
LINE
8
BLACK
6
CONTINUOUS
10
0.552091
20
1.44248
11
0.552091
21
1.59248
0
LINE
8
BLACK
6
CONTINUOUS
10
0.552091
20
1.59248
11
0.702091
21
1.59248
0
LINE
8
BLACK
6
CONTINUOUS
10
0.702091
20
1.59248
11
0.702091
21
1.44248
0
LINE
8
BLACK
6
CONTINUOUS
10
0.50524
20
1.63933
11
0.35524
21
1.63933
0
LINE
8
BLACK
6
CONTINUOUS
10
0.35524
20
1.63933
11
0.35524
21
1.78933
0
LINE
8
BLACK
6
CONTINUOUS
10
0.35524
20
1.78933
11
0.50524
21
1.78933
0
LINE
8
BLACK
6
CONTINUOUS
10
0.50524
20
1.78933
11
0.50524
21
1.63933
0
LINE
8
BLACK
6
CONTINUOUS
10
0.702091
20
1.63933
11
0.552091
21
1.63933
0
LINE
8
BLACK
6
CONTINUOUS
10
0.552091
20
1.63933
11
0.552091
21
1.78933
0
LINE
8
BLACK
6
CONTINUOUS
10
0.552091
20
1.78933
11
0.702091
21
1.78933
0
LINE
8
BLACK
6
CONTINUOUS
10
0.702091
20
1.78933
11
0.702091
21
1.63933
0
LINE
8
BLACK
6
CONTINUOUS
10
1.88923
20
1.80234
11
1.89818
21
1.79994
0
LINE
8
BLACK
6
CONTINUOUS
10
1.89818
20
1.79994
11
1.90657
21
1.79603
0
LINE
8
BLACK
6
CONTINUOUS
10
1.90657
20
1.79603
11
1.91416
21
1.79071
0
LINE
8
BLACK
6
CONTINUOUS
10
1.91416
20
1.79071
11
1.92071
21
1.78416
0
LINE
8
BLACK
6
CONTINUOUS
10
1.92071
20
1.78416
11
1.92603
21
1.77657
0
LINE
8
BLACK
6
CONTINUOUS
10
1.92603
20
1.77657
11
1.92994
21
1.76818
0
LINE
8
BLACK
6
CONTINUOUS
10
1.92994
20
1.76818
11
1.93234
21
1.75923
0
LINE
8
BLACK
6
CONTINUOUS
10
1.93234
20
1.75923
11
1.93315
21
1.75
0
LINE
8
BLACK
6
CONTINUOUS
10
1.93315
20
1.75
11
1.93234
21
1.74077
0
LINE
8
BLACK
6
CONTINUOUS
10
1.93234
20
1.74077
11
1.92994
21
1.73182
0
LINE
8
BLACK
6
CONTINUOUS
10
1.92994
20
1.73182
11
1.92603
21
1.72343
0
LINE
8
BLACK
6
CONTINUOUS
10
1.92603
20
1.72343
11
1.92071
21
1.71584
0
LINE
8
BLACK
6
CONTINUOUS
10
1.92071
20
1.71584
11
1.91416
21
1.70929
0
LINE
8
BLACK
6
CONTINUOUS
10
1.91416
20
1.70929
11
1.90657
21
1.70397
0
LINE
8
BLACK
6
CONTINUOUS
10
1.90657
20
1.70397
11
1.89818
21
1.70006
0
LINE
8
BLACK
6
CONTINUOUS
10
1.89818
20
1.70006
11
1.88923
21
1.69766
0
LINE
8
BLACK
6
CONTINUOUS
10
1.88923
20
1.69766
11
1.88
21
1.69685
0
LINE
8
BLACK
6
CONTINUOUS
10
1.88
20
1.69685
11
1.87077
21
1.69766
0
LINE
8
BLACK
6
CONTINUOUS
10
1.87077
20
1.69766
11
1.86182
21
1.70006
0
LINE
8
BLACK
6
CONTINUOUS
10
1.86182
20
1.70006
11
1.85343
21
1.70397
0
LINE
8
BLACK
6
CONTINUOUS
10
1.85343
20
1.70397
11
1.84584
21
1.70929
0
LINE
8
BLACK
6
CONTINUOUS
10
1.84584
20
1.70929
11
1.83929
21
1.71584
0
LINE
8
BLACK
6
CONTINUOUS
10
1.83929
20
1.71584
11
1.83397
21
1.72343
0
LINE
8
BLACK
6
CONTINUOUS
10
1.83397
20
1.72343
11
1.83006
21
1.73182
0
LINE
8
BLACK
6
CONTINUOUS
10
1.83006
20
1.73182
11
1.82766
21
1.74077
0
LINE
8
BLACK
6
CONTINUOUS
10
1.82766
20
1.74077
11
1.82685
21
1.75
0
LINE
8
BLACK
6
CONTINUOUS
10
1.82685
20
1.75
11
1.82766
21
1.75923
0
LINE
8
BLACK
6
CONTINUOUS
10
1.82766
20
1.75923
11
1.83006
21
1.76818
0
LINE
8
BLACK
6
CONTINUOUS
10
1.83006
20
1.76818
11
1.83397
21
1.77657
0
LINE
8
BLACK
6
CONTINUOUS
10
1.83397
20
1.77657
11
1.83929
21
1.78416
0
LINE
8
BLACK
6
CONTINUOUS
10
1.83929
20
1.78416
11
1.84584
21
1.79071
0
LINE
8
BLACK
6
CONTINUOUS
10
1.84584
20
1.79071
11
1.85343
21
1.79603
0
LINE
8
BLACK
6
CONTINUOUS
10
1.85343
20
1.79603
11
1.86182
21
1.79994
0
LINE
8
BLACK
6
CONTINUOUS
10
1.86182
20
1.79994
11
1.87077
21
1.80234
0
LINE
8
BLACK
6
CONTINUOUS
10
1.87077
20
1.80234
11
1.88
21
1.80315
0
LINE
8
BLACK
6
CONTINUOUS
10
1.88
20
1.80315
11
1.88923
21
1.80234
0
LINE
8
BLACK
6
CONTINUOUS
10
1.35151
20
1.91726
11
1.35964
21
1.91411
0
LINE
8
BLACK
6
CONTINUOUS
10
1.35964
20
1.91411
11
1.36705
21
1.90952
0
LINE
8
BLACK
6
CONTINUOUS
10
1.36705
20
1.90952
11
1.3735
21
1.90365
0
LINE
8
BLACK
6
CONTINUOUS
10
1.3735
20
1.90365
11
1.37875
21
1.89669
0
LINE
8
BLACK
6
CONTINUOUS
10
1.37875
20
1.89669
11
1.38264
21
1.88889
0
LINE
8
BLACK
6
CONTINUOUS
10
1.38264
20
1.88889
11
1.38502
21
1.8805
0
LINE
8
BLACK
6
CONTINUOUS
10
1.38502
20
1.8805
11
1.38583
21
1.87182
0
LINE
8
BLACK
6
CONTINUOUS
10
1.38583
20
1.87182
11
1.38502
21
1.86314
0
LINE
8
BLACK
6
CONTINUOUS
10
1.38502
20
1.86314
11
1.38264
21
1.85476
0
LINE
8
BLACK
6
CONTINUOUS
10
1.38264
20
1.85476
11
1.37875
21
1.84695
0
LINE
8
BLACK
6
CONTINUOUS
10
1.37875
20
1.84695
11
1.3735
21
1.83999
0
LINE
8
BLACK
6
CONTINUOUS
10
1.3735
20
1.83999
11
1.36705
21
1.83412
0
LINE
8
BLACK
6
CONTINUOUS
10
1.36705
20
1.83412
11
1.35964
21
1.82953
0
LINE
8
BLACK
6
CONTINUOUS
10
1.35964
20
1.82953
11
1.35151
21
1.82638
0
LINE
8
BLACK
6
CONTINUOUS
10
1.35151
20
1.82638
11
1.34294
21
1.82478
0
LINE
8
BLACK
6
CONTINUOUS
10
1.34294
20
1.82478
11
1.33422
21
1.82478
0
LINE
8
BLACK
6
CONTINUOUS
10
1.33422
20
1.82478
11
1.32565
21
1.82638
0
LINE
8
BLACK
6
CONTINUOUS
10
1.32565
20
1.82638
11
1.31752
21
1.82953
0
LINE
8
BLACK
6
CONTINUOUS
10
1.31752
20
1.82953
11
1.31011
21
1.83412
0
LINE
8
BLACK
6
CONTINUOUS
10
1.31011
20
1.83412
11
1.30367
21
1.83999
0
LINE
8
BLACK
6
CONTINUOUS
10
1.30367
20
1.83999
11
1.29841
21
1.84695
0
LINE
8
BLACK
6
CONTINUOUS
10
1.29841
20
1.84695
11
1.29453
21
1.85476
0
LINE
8
BLACK
6
CONTINUOUS
10
1.29453
20
1.85476
11
1.29214
21
1.86314
0
LINE
8
BLACK
6
CONTINUOUS
10
1.29214
20
1.86314
11
1.29134
21
1.87182
0
LINE
8
BLACK
6
CONTINUOUS
10
1.29134
20
1.87182
11
1.29214
21
1.8805
0
LINE
8
BLACK
6
CONTINUOUS
10
1.29214
20
1.8805
11
1.29453
21
1.88889
0
LINE
8
BLACK
6
CONTINUOUS
10
1.29453
20
1.88889
11
1.29841
21
1.89669
0
LINE
8
BLACK
6
CONTINUOUS
10
1.29841
20
1.89669
11
1.30367
21
1.90365
0
LINE
8
BLACK
6
CONTINUOUS
10
1.30367
20
1.90365
11
1.31011
21
1.90952
0
LINE
8
BLACK
6
CONTINUOUS
10
1.31011
20
1.90952
11
1.31752
21
1.91411
0
LINE
8
BLACK
6
CONTINUOUS
10
1.31752
20
1.91411
11
1.32565
21
1.91726
0
LINE
8
BLACK
6
CONTINUOUS
10
1.32565
20
1.91726
11
1.33422
21
1.91886
0
LINE
8
BLACK
6
CONTINUOUS
10
1.33422
20
1.91886
11
1.34294
21
1.91886
0
LINE
8
BLACK
6
CONTINUOUS
10
1.34294
20
1.91886
11
1.35151
21
1.91726
0
LINE
8
BLACK
6
CONTINUOUS
10
1.54836
20
1.91726
11
1.55649
21
1.91411
0
LINE
8
BLACK
6
CONTINUOUS
10
1.55649
20
1.91411
11
1.5639
21
1.90952
0
LINE
8
BLACK
6
CONTINUOUS
10
1.5639
20
1.90952
11
1.57035
21
1.90365
0
LINE
8
BLACK
6
CONTINUOUS
10
1.57035
20
1.90365
11
1.5756
21
1.89669
0
LINE
8
BLACK
6
CONTINUOUS
10
1.5756
20
1.89669
11
1.57949
21
1.88889
0
LINE
8
BLACK
6
CONTINUOUS
10
1.57949
20
1.88889
11
1.58187
21
1.8805
0
LINE
8
BLACK
6
CONTINUOUS
10
1.58187
20
1.8805
11
1.58268
21
1.87182
0
LINE
8
BLACK
6
CONTINUOUS
10
1.58268
20
1.87182
11
1.58187
21
1.86314
0
LINE
8
BLACK
6
CONTINUOUS
10
1.58187
20
1.86314
11
1.57949
21
1.85476
0
LINE
8
BLACK
6
CONTINUOUS
10
1.57949
20
1.85476
11
1.5756
21
1.84695
0
LINE
8
BLACK
6
CONTINUOUS
10
1.5756
20
1.84695
11
1.57035
21
1.83999
0
LINE
8
BLACK
6
CONTINUOUS
10
1.57035
20
1.83999
11
1.5639
21
1.83412
0
LINE
8
BLACK
6
CONTINUOUS
10
1.5639
20
1.83412
11
1.55649
21
1.82953
0
LINE
8
BLACK
6
CONTINUOUS
10
1.55649
20
1.82953
11
1.54836
21
1.82638
0
LINE
8
BLACK
6
CONTINUOUS
10
1.54836
20
1.82638
11
1.53979
21
1.82478
0
LINE
8
BLACK
6
CONTINUOUS
10
1.53979
20
1.82478
11
1.53107
21
1.82478
0
LINE
8
BLACK
6
CONTINUOUS
10
1.53107
20
1.82478
11
1.5225
21
1.82638
0
LINE
8
BLACK
6
CONTINUOUS
10
1.5225
20
1.82638
11
1.51437
21
1.82953
0
LINE
8
BLACK
6
CONTINUOUS
10
1.51437
20
1.82953
11
1.50696
21
1.83412
0
LINE
8
BLACK
6
CONTINUOUS
10
1.50696
20
1.83412
11
1.50052
21
1.83999
0
LINE
8
BLACK
6
CONTINUOUS
10
1.50052
20
1.83999
11
1.49527
21
1.84695
0
LINE
8
BLACK
6
CONTINUOUS
10
1.49527
20
1.84695
11
1.49138
21
1.85476
0
LINE
8
BLACK
6
CONTINUOUS
10
1.49138
20
1.85476
11
1.48899
21
1.86314
0
LINE
8
BLACK
6
CONTINUOUS
10
1.48899
20
1.86314
11
1.48819
21
1.87182
0
LINE
8
BLACK
6
CONTINUOUS
10
1.48819
20
1.87182
11
1.48899
21
1.8805
0
LINE
8
BLACK
6
CONTINUOUS
10
1.48899
20
1.8805
11
1.49138
21
1.88889
0
LINE
8
BLACK
6
CONTINUOUS
10
1.49138
20
1.88889
11
1.49527
21
1.89669
0
LINE
8
BLACK
6
CONTINUOUS
10
1.49527
20
1.89669
11
1.50052
21
1.90365
0
LINE
8
BLACK
6
CONTINUOUS
10
1.50052
20
1.90365
11
1.50696
21
1.90952
0
LINE
8
BLACK
6
CONTINUOUS
10
1.50696
20
1.90952
11
1.51437
21
1.91411
0
LINE
8
BLACK
6
CONTINUOUS
10
1.51437
20
1.91411
11
1.5225
21
1.91726
0
LINE
8
BLACK
6
CONTINUOUS
10
1.5225
20
1.91726
11
1.53107
21
1.91886
0
LINE
8
BLACK
6
CONTINUOUS
10
1.53107
20
1.91886
11
1.53979
21
1.91886
0
LINE
8
BLACK
6
CONTINUOUS
10
1.53979
20
1.91886
11
1.54836
21
1.91726
0
LINE
8
BLACK
6
CONTINUOUS
10
0.50524
20
1.83618
11
0.35524
21
1.83618
0
LINE
8
BLACK
6
CONTINUOUS
10
0.35524
20
1.83618
11
0.35524
21
1.98618
0
LINE
8
BLACK
6
CONTINUOUS
10
0.35524
20
1.98618
11
0.50524
21
1.98618
0
LINE
8
BLACK
6
CONTINUOUS
10
0.50524
20
1.98618
11
0.50524
21
1.83618
0
LINE
8
BLACK
6
CONTINUOUS
10
0.702091
20
1.83618
11
0.552091
21
1.83618
0
LINE
8
BLACK
6
CONTINUOUS
10
0.552091
20
1.83618
11
0.552091
21
1.98618
0
LINE
8
BLACK
6
CONTINUOUS
10
0.552091
20
1.98618
11
0.702091
21
1.98618
0
LINE
8
BLACK
6
CONTINUOUS
10
0.702091
20
1.98618
11
0.702091
21
1.83618
0
LINE
8
BLACK
6
CONTINUOUS
10
2.49969
20
1.98535
11
2.43969
21
1.98535
0
LINE
8
BLACK
6
CONTINUOUS
10
2.43969
20
1.98535
11
2.43969
21
2.04535
0
LINE
8
BLACK
6
CONTINUOUS
10
2.43969
20
2.04535
11
2.49969
21
2.04535
0
LINE
8
BLACK
6
CONTINUOUS
10
2.49969
20
2.04535
11
2.49969
21
1.98535
0
LINE
8
BLACK
6
CONTINUOUS
10
2.59969
20
1.98535
11
2.53969
21
1.98535
0
LINE
8
BLACK
6
CONTINUOUS
10
2.53969
20
1.98535
11
2.53969
21
2.04535
0
LINE
8
BLACK
6
CONTINUOUS
10
2.53969
20
2.04535
11
2.59969
21
2.04535
0
LINE
8
BLACK
6
CONTINUOUS
10
2.59969
20
2.04535
11
2.59969
21
1.98535
0
LINE
8
BLACK
6
CONTINUOUS
10
2.73591
20
1.98535
11
2.67591
21
1.98535
0
LINE
8
BLACK
6
CONTINUOUS
10
2.67591
20
1.98535
11
2.67591
21
2.04535
0
LINE
8
BLACK
6
CONTINUOUS
10
2.67591
20
2.04535
11
2.73591
21
2.04535
0
LINE
8
BLACK
6
CONTINUOUS
10
2.73591
20
2.04535
11
2.73591
21
1.98535
0
LINE
8
BLACK
6
CONTINUOUS
10
2.83591
20
1.98535
11
2.77591
21
1.98535
0
LINE
8
BLACK
6
CONTINUOUS
10
2.77591
20
1.98535
11
2.77591
21
2.04535
0
LINE
8
BLACK
6
CONTINUOUS
10
2.77591
20
2.04535
11
2.83591
21
2.04535
0
LINE
8
BLACK
6
CONTINUOUS
10
2.83591
20
2.04535
11
2.83591
21
1.98535
0
LINE
8
BLACK
6
CONTINUOUS
10
0.50524
20
2.03303
11
0.35524
21
2.03303
0
LINE
8
BLACK
6
CONTINUOUS
10
0.35524
20
2.03303
11
0.35524
21
2.18303
0
LINE
8
BLACK
6
CONTINUOUS
10
0.35524
20
2.18303
11
0.50524
21
2.18303
0
LINE
8
BLACK
6
CONTINUOUS
10
0.50524
20
2.18303
11
0.50524
21
2.03303
0
LINE
8
BLACK
6
CONTINUOUS
10
0.702091
20
2.03303
11
0.552091
21
2.03303
0
LINE
8
BLACK
6
CONTINUOUS
10
0.552091
20
2.03303
11
0.552091
21
2.18303
0
LINE
8
BLACK
6
CONTINUOUS
10
0.552091
20
2.18303
11
0.702091
21
2.18303
0
LINE
8
BLACK
6
CONTINUOUS
10
0.702091
20
2.18303
11
0.702091
21
2.03303
0
LINE
8
BLACK
6
CONTINUOUS
10
2.49969
20
2.08535
11
2.43969
21
2.08535
0
LINE
8
BLACK
6
CONTINUOUS
10
2.43969
20
2.08535
11
2.43969
21
2.14535
0
LINE
8
BLACK
6
CONTINUOUS
10
2.43969
20
2.14535
11
2.49969
21
2.14535
0
LINE
8
BLACK
6
CONTINUOUS
10
2.49969
20
2.14535
11
2.49969
21
2.08535
0
LINE
8
BLACK
6
CONTINUOUS
10
2.59969
20
2.08535
11
2.53969
21
2.08535
0
LINE
8
BLACK
6
CONTINUOUS
10
2.53969
20
2.08535
11
2.53969
21
2.14535
0
LINE
8
BLACK
6
CONTINUOUS
10
2.53969
20
2.14535
11
2.59969
21
2.14535
0
LINE
8
BLACK
6
CONTINUOUS
10
2.59969
20
2.14535
11
2.59969
21
2.08535
0
LINE
8
BLACK
6
CONTINUOUS
10
2.73591
20
2.08535
11
2.67591
21
2.08535
0
LINE
8
BLACK
6
CONTINUOUS
10
2.67591
20
2.08535
11
2.67591
21
2.14535
0
LINE
8
BLACK
6
CONTINUOUS
10
2.67591
20
2.14535
11
2.73591
21
2.14535
0
LINE
8
BLACK
6
CONTINUOUS
10
2.73591
20
2.14535
11
2.73591
21
2.08535
0
LINE
8
BLACK
6
CONTINUOUS
10
2.83591
20
2.08535
11
2.77591
21
2.08535
0
LINE
8
BLACK
6
CONTINUOUS
10
2.77591
20
2.08535
11
2.77591
21
2.14535
0
LINE
8
BLACK
6
CONTINUOUS
10
2.77591
20
2.14535
11
2.83591
21
2.14535
0
LINE
8
BLACK
6
CONTINUOUS
10
2.83591
20
2.14535
11
2.83591
21
2.08535
0
LINE
8
BLACK
6
CONTINUOUS
10
1.88923
20
2.22234
11
1.89818
21
2.21994
0
LINE
8
BLACK
6
CONTINUOUS
10
1.89818
20
2.21994
11
1.90657
21
2.21603
0
LINE
8
BLACK
6
CONTINUOUS
10
1.90657
20
2.21603
11
1.91416
21
2.21071
0
LINE
8
BLACK
6
CONTINUOUS
10
1.91416
20
2.21071
11
1.92071
21
2.20416
0
LINE
8
BLACK
6
CONTINUOUS
10
1.92071
20
2.20416
11
1.92603
21
2.19657
0
LINE
8
BLACK
6
CONTINUOUS
10
1.92603
20
2.19657
11
1.92994
21
2.18818
0
LINE
8
BLACK
6
CONTINUOUS
10
1.92994
20
2.18818
11
1.93234
21
2.17923
0
LINE
8
BLACK
6
CONTINUOUS
10
1.93234
20
2.17923
11
1.93315
21
2.17
0
LINE
8
BLACK
6
CONTINUOUS
10
1.93315
20
2.17
11
1.93234
21
2.16077
0
LINE
8
BLACK
6
CONTINUOUS
10
1.93234
20
2.16077
11
1.92994
21
2.15182
0
LINE
8
BLACK
6
CONTINUOUS
10
1.92994
20
2.15182
11
1.92603
21
2.14343
0
LINE
8
BLACK
6
CONTINUOUS
10
1.92603
20
2.14343
11
1.92071
21
2.13584
0
LINE
8
BLACK
6
CONTINUOUS
10
1.92071
20
2.13584
11
1.91416
21
2.12929
0
LINE
8
BLACK
6
CONTINUOUS
10
1.91416
20
2.12929
11
1.90657
21
2.12397
0
LINE
8
BLACK
6
CONTINUOUS
10
1.90657
20
2.12397
11
1.89818
21
2.12006
0
LINE
8
BLACK
6
CONTINUOUS
10
1.89818
20
2.12006
11
1.88923
21
2.11766
0
LINE
8
BLACK
6
CONTINUOUS
10
1.88923
20
2.11766
11
1.88
21
2.11685
0
LINE
8
BLACK
6
CONTINUOUS
10
1.88
20
2.11685
11
1.87077
21
2.11766
0
LINE
8
BLACK
6
CONTINUOUS
10
1.87077
20
2.11766
11
1.86182
21
2.12006
0
LINE
8
BLACK
6
CONTINUOUS
10
1.86182
20
2.12006
11
1.85343
21
2.12397
0
LINE
8
BLACK
6
CONTINUOUS
10
1.85343
20
2.12397
11
1.84584
21
2.12929
0
LINE
8
BLACK
6
CONTINUOUS
10
1.84584
20
2.12929
11
1.83929
21
2.13584
0
LINE
8
BLACK
6
CONTINUOUS
10
1.83929
20
2.13584
11
1.83397
21
2.14343
0
LINE
8
BLACK
6
CONTINUOUS
10
1.83397
20
2.14343
11
1.83006
21
2.15182
0
LINE
8
BLACK
6
CONTINUOUS
10
1.83006
20
2.15182
11
1.82766
21
2.16077
0
LINE
8
BLACK
6
CONTINUOUS
10
1.82766
20
2.16077
11
1.82685
21
2.17
0
LINE
8
BLACK
6
CONTINUOUS
10
1.82685
20
2.17
11
1.82766
21
2.17923
0
LINE
8
BLACK
6
CONTINUOUS
10
1.82766
20
2.17923
11
1.83006
21
2.18818
0
LINE
8
BLACK
6
CONTINUOUS
10
1.83006
20
2.18818
11
1.83397
21
2.19657
0
LINE
8
BLACK
6
CONTINUOUS
10
1.83397
20
2.19657
11
1.83929
21
2.20416
0
LINE
8
BLACK
6
CONTINUOUS
10
1.83929
20
2.20416
11
1.84584
21
2.21071
0
LINE
8
BLACK
6
CONTINUOUS
10
1.84584
20
2.21071
11
1.85343
21
2.21603
0
LINE
8
BLACK
6
CONTINUOUS
10
1.85343
20
2.21603
11
1.86182
21
2.21994
0
LINE
8
BLACK
6
CONTINUOUS
10
1.86182
20
2.21994
11
1.87077
21
2.22234
0
LINE
8
BLACK
6
CONTINUOUS
10
1.87077
20
2.22234
11
1.88
21
2.22315
0
LINE
8
BLACK
6
CONTINUOUS
10
1.88
20
2.22315
11
1.88923
21
2.22234
0
LINE
8
BLACK
6
CONTINUOUS
10
2.49969
20
2.18535
11
2.43969
21
2.18535
0
LINE
8
BLACK
6
CONTINUOUS
10
2.43969
20
2.18535
11
2.43969
21
2.24535
0
LINE
8
BLACK
6
CONTINUOUS
10
2.43969
20
2.24535
11
2.49969
21
2.24535
0
LINE
8
BLACK
6
CONTINUOUS
10
2.49969
20
2.24535
11
2.49969
21
2.18535
0
LINE
8
BLACK
6
CONTINUOUS
10
2.59969
20
2.18535
11
2.53969
21
2.18535
0
LINE
8
BLACK
6
CONTINUOUS
10
2.53969
20
2.18535
11
2.53969
21
2.24535
0
LINE
8
BLACK
6
CONTINUOUS
10
2.53969
20
2.24535
11
2.59969
21
2.24535
0
LINE
8
BLACK
6
CONTINUOUS
10
2.59969
20
2.24535
11
2.59969
21
2.18535
0
LINE
8
BLACK
6
CONTINUOUS
10
2.73591
20
2.18535
11
2.67591
21
2.18535
0
LINE
8
BLACK
6
CONTINUOUS
10
2.67591
20
2.18535
11
2.67591
21
2.24535
0
LINE
8
BLACK
6
CONTINUOUS
10
2.67591
20
2.24535
11
2.73591
21
2.24535
0
LINE
8
BLACK
6
CONTINUOUS
10
2.73591
20
2.24535
11
2.73591
21
2.18535
0
LINE
8
BLACK
6
CONTINUOUS
10
2.83591
20
2.18535
11
2.77591
21
2.18535
0
LINE
8
BLACK
6
CONTINUOUS
10
2.77591
20
2.18535
11
2.77591
21
2.24535
0
LINE
8
BLACK
6
CONTINUOUS
10
2.77591
20
2.24535
11
2.83591
21
2.24535
0
LINE
8
BLACK
6
CONTINUOUS
10
2.83591
20
2.24535
11
2.83591
21
2.18535
0
LINE
8
BLACK
6
CONTINUOUS
10
0.50524
20
2.22988
11
0.35524
21
2.22988
0
LINE
8
BLACK
6
CONTINUOUS
10
0.35524
20
2.22988
11
0.35524
21
2.37988
0
LINE
8
BLACK
6
CONTINUOUS
10
0.35524
20
2.37988
11
0.50524
21
2.37988
0
LINE
8
BLACK
6
CONTINUOUS
10
0.50524
20
2.37988
11
0.50524
21
2.22988
0
LINE
8
BLACK
6
CONTINUOUS
10
0.702091
20
2.22988
11
0.552091
21
2.22988
0
LINE
8
BLACK
6
CONTINUOUS
10
0.552091
20
2.22988
11
0.552091
21
2.37988
0
LINE
8
BLACK
6
CONTINUOUS
10
0.552091
20
2.37988
11
0.702091
21
2.37988
0
LINE
8
BLACK
6
CONTINUOUS
10
0.702091
20
2.37988
11
0.702091
21
2.22988
0
LINE
8
BLACK
6
CONTINUOUS
10
1.35151
20
2.33513
11
1.35964
21
2.33198
0
LINE
8
BLACK
6
CONTINUOUS
10
1.35964
20
2.33198
11
1.36705
21
2.3274
0
LINE
8
BLACK
6
CONTINUOUS
10
1.36705
20
2.3274
11
1.3735
21
2.32152
0
LINE
8
BLACK
6
CONTINUOUS
10
1.3735
20
2.32152
11
1.37875
21
2.31456
0
LINE
8
BLACK
6
CONTINUOUS
10
1.37875
20
2.31456
11
1.38264
21
2.30676
0
LINE
8
BLACK
6
CONTINUOUS
10
1.38264
20
2.30676
11
1.38502
21
2.29837
0
LINE
8
BLACK
6
CONTINUOUS
10
1.38502
20
2.29837
11
1.38583
21
2.28969
0
LINE
8
BLACK
6
CONTINUOUS
10
1.38583
20
2.28969
11
1.38502
21
2.28101
0
LINE
8
BLACK
6
CONTINUOUS
10
1.38502
20
2.28101
11
1.38264
21
2.27263
0
LINE
8
BLACK
6
CONTINUOUS
10
1.38264
20
2.27263
11
1.37875
21
2.26482
0
LINE
8
BLACK
6
CONTINUOUS
10
1.37875
20
2.26482
11
1.3735
21
2.25787
0
LINE
8
BLACK
6
CONTINUOUS
10
1.3735
20
2.25787
11
1.36705
21
2.25199
0
LINE
8
BLACK
6
CONTINUOUS
10
1.36705
20
2.25199
11
1.35964
21
2.2474
0
LINE
8
BLACK
6
CONTINUOUS
10
1.35964
20
2.2474
11
1.35151
21
2.24425
0
LINE
8
BLACK
6
CONTINUOUS
10
1.35151
20
2.24425
11
1.34294
21
2.24265
0
LINE
8
BLACK
6
CONTINUOUS
10
1.34294
20
2.24265
11
1.33422
21
2.24265
0
LINE
8
BLACK
6
CONTINUOUS
10
1.33422
20
2.24265
11
1.32565
21
2.24425
0
LINE
8
BLACK
6
CONTINUOUS
10
1.32565
20
2.24425
11
1.31752
21
2.2474
0
LINE
8
BLACK
6
CONTINUOUS
10
1.31752
20
2.2474
11
1.31011
21
2.25199
0
LINE
8
BLACK
6
CONTINUOUS
10
1.31011
20
2.25199
11
1.30367
21
2.25787
0
LINE
8
BLACK
6
CONTINUOUS
10
1.30367
20
2.25787
11
1.29841
21
2.26482
0
LINE
8
BLACK
6
CONTINUOUS
10
1.29841
20
2.26482
11
1.29453
21
2.27263
0
LINE
8
BLACK
6
CONTINUOUS
10
1.29453
20
2.27263
11
1.29214
21
2.28101
0
LINE
8
BLACK
6
CONTINUOUS
10
1.29214
20
2.28101
11
1.29134
21
2.28969
0
LINE
8
BLACK
6
CONTINUOUS
10
1.29134
20
2.28969
11
1.29214
21
2.29837
0
LINE
8
BLACK
6
CONTINUOUS
10
1.29214
20
2.29837
11
1.29453
21
2.30676
0
LINE
8
BLACK
6
CONTINUOUS
10
1.29453
20
2.30676
11
1.29841
21
2.31456
0
LINE
8
BLACK
6
CONTINUOUS
10
1.29841
20
2.31456
11
1.30367
21
2.32152
0
LINE
8
BLACK
6
CONTINUOUS
10
1.30367
20
2.32152
11
1.31011
21
2.3274
0
LINE
8
BLACK
6
CONTINUOUS
10
1.31011
20
2.3274
11
1.31752
21
2.33198
0
LINE
8
BLACK
6
CONTINUOUS
10
1.31752
20
2.33198
11
1.32565
21
2.33513
0
LINE
8
BLACK
6
CONTINUOUS
10
1.32565
20
2.33513
11
1.33422
21
2.33674
0
LINE
8
BLACK
6
CONTINUOUS
10
1.33422
20
2.33674
11
1.34294
21
2.33674
0
LINE
8
BLACK
6
CONTINUOUS
10
1.34294
20
2.33674
11
1.35151
21
2.33513
0
LINE
8
BLACK
6
CONTINUOUS
10
1.54836
20
2.33513
11
1.55649
21
2.33198
0
LINE
8
BLACK
6
CONTINUOUS
10
1.55649
20
2.33198
11
1.5639
21
2.3274
0
LINE
8
BLACK
6
CONTINUOUS
10
1.5639
20
2.3274
11
1.57035
21
2.32152
0
LINE
8
BLACK
6
CONTINUOUS
10
1.57035
20
2.32152
11
1.5756
21
2.31456
0
LINE
8
BLACK
6
CONTINUOUS
10
1.5756
20
2.31456
11
1.57949
21
2.30676
0
LINE
8
BLACK
6
CONTINUOUS
10
1.57949
20
2.30676
11
1.58187
21
2.29837
0
LINE
8
BLACK
6
CONTINUOUS
10
1.58187
20
2.29837
11
1.58268
21
2.28969
0
LINE
8
BLACK
6
CONTINUOUS
10
1.58268
20
2.28969
11
1.58187
21
2.28101
0
LINE
8
BLACK
6
CONTINUOUS
10
1.58187
20
2.28101
11
1.57949
21
2.27263
0
LINE
8
BLACK
6
CONTINUOUS
10
1.57949
20
2.27263
11
1.5756
21
2.26482
0
LINE
8
BLACK
6
CONTINUOUS
10
1.5756
20
2.26482
11
1.57035
21
2.25787
0
LINE
8
BLACK
6
CONTINUOUS
10
1.57035
20
2.25787
11
1.5639
21
2.25199
0
LINE
8
BLACK
6
CONTINUOUS
10
1.5639
20
2.25199
11
1.55649
21
2.2474
0
LINE
8
BLACK
6
CONTINUOUS
10
1.55649
20
2.2474
11
1.54836
21
2.24425
0
LINE
8
BLACK
6
CONTINUOUS
10
1.54836
20
2.24425
11
1.53979
21
2.24265
0
LINE
8
BLACK
6
CONTINUOUS
10
1.53979
20
2.24265
11
1.53107
21
2.24265
0
LINE
8
BLACK
6
CONTINUOUS
10
1.53107
20
2.24265
11
1.5225
21
2.24425
0
LINE
8
BLACK
6
CONTINUOUS
10
1.5225
20
2.24425
11
1.51437
21
2.2474
0
LINE
8
BLACK
6
CONTINUOUS
10
1.51437
20
2.2474
11
1.50696
21
2.25199
0
LINE
8
BLACK
6
CONTINUOUS
10
1.50696
20
2.25199
11
1.50052
21
2.25787
0
LINE
8
BLACK
6
CONTINUOUS
10
1.50052
20
2.25787
11
1.49527
21
2.26482
0
LINE
8
BLACK
6
CONTINUOUS
10
1.49527
20
2.26482
11
1.49138
21
2.27263
0
LINE
8
BLACK
6
CONTINUOUS
10
1.49138
20
2.27263
11
1.48899
21
2.28101
0
LINE
8
BLACK
6
CONTINUOUS
10
1.48899
20
2.28101
11
1.48819
21
2.28969
0
LINE
8
BLACK
6
CONTINUOUS
10
1.48819
20
2.28969
11
1.48899
21
2.29837
0
LINE
8
BLACK
6
CONTINUOUS
10
1.48899
20
2.29837
11
1.49138
21
2.30676
0
LINE
8
BLACK
6
CONTINUOUS
10
1.49138
20
2.30676
11
1.49527
21
2.31456
0
LINE
8
BLACK
6
CONTINUOUS
10
1.49527
20
2.31456
11
1.50052
21
2.32152
0
LINE
8
BLACK
6
CONTINUOUS
10
1.50052
20
2.32152
11
1.50696
21
2.3274
0
LINE
8
BLACK
6
CONTINUOUS
10
1.50696
20
2.3274
11
1.51437
21
2.33198
0
LINE
8
BLACK
6
CONTINUOUS
10
1.51437
20
2.33198
11
1.5225
21
2.33513
0
LINE
8
BLACK
6
CONTINUOUS
10
1.5225
20
2.33513
11
1.53107
21
2.33674
0
LINE
8
BLACK
6
CONTINUOUS
10
1.53107
20
2.33674
11
1.53979
21
2.33674
0
LINE
8
BLACK
6
CONTINUOUS
10
1.53979
20
2.33674
11
1.54836
21
2.33513
0
LINE
8
BLACK
6
CONTINUOUS
10
2.49969
20
2.28535
11
2.43969
21
2.28535
0
LINE
8
BLACK
6
CONTINUOUS
10
2.43969
20
2.28535
11
2.43969
21
2.34535
0
LINE
8
BLACK
6
CONTINUOUS
10
2.43969
20
2.34535
11
2.49969
21
2.34535
0
LINE
8
BLACK
6
CONTINUOUS
10
2.49969
20
2.34535
11
2.49969
21
2.28535
0
LINE
8
BLACK
6
CONTINUOUS
10
2.59969
20
2.28535
11
2.53969
21
2.28535
0
LINE
8
BLACK
6
CONTINUOUS
10
2.53969
20
2.28535
11
2.53969
21
2.34535
0
LINE
8
BLACK
6
CONTINUOUS
10
2.53969
20
2.34535
11
2.59969
21
2.34535
0
LINE
8
BLACK
6
CONTINUOUS
10
2.59969
20
2.34535
11
2.59969
21
2.28535
0
LINE
8
BLACK
6
CONTINUOUS
10
2.73591
20
2.28535
11
2.67591
21
2.28535
0
LINE
8
BLACK
6
CONTINUOUS
10
2.67591
20
2.28535
11
2.67591
21
2.34535
0
LINE
8
BLACK
6
CONTINUOUS
10
2.67591
20
2.34535
11
2.73591
21
2.34535
0
LINE
8
BLACK
6
CONTINUOUS
10
2.73591
20
2.34535
11
2.73591
21
2.28535
0
LINE
8
BLACK
6
CONTINUOUS
10
2.83591
20
2.28535
11
2.77591
21
2.28535
0
LINE
8
BLACK
6
CONTINUOUS
10
2.77591
20
2.28535
11
2.77591
21
2.34535
0
LINE
8
BLACK
6
CONTINUOUS
10
2.77591
20
2.34535
11
2.83591
21
2.34535
0
LINE
8
BLACK
6
CONTINUOUS
10
2.83591
20
2.34535
11
2.83591
21
2.28535
0
LINE
8
BLACK
6
CONTINUOUS
10
0.50524
20
2.42673
11
0.35524
21
2.42673
0
LINE
8
BLACK
6
CONTINUOUS
10
0.35524
20
2.42673
11
0.35524
21
2.57673
0
LINE
8
BLACK
6
CONTINUOUS
10
0.35524
20
2.57673
11
0.50524
21
2.57673
0
LINE
8
BLACK
6
CONTINUOUS
10
0.50524
20
2.57673
11
0.50524
21
2.42673
0
LINE
8
BLACK
6
CONTINUOUS
10
0.702091
20
2.42673
11
0.552091
21
2.42673
0
LINE
8
BLACK
6
CONTINUOUS
10
0.552091
20
2.42673
11
0.552091
21
2.57673
0
LINE
8
BLACK
6
CONTINUOUS
10
0.552091
20
2.57673
11
0.702091
21
2.57673
0
LINE
8
BLACK
6
CONTINUOUS
10
0.702091
20
2.57673
11
0.702091
21
2.42673
0
LINE
8
BLACK
6
CONTINUOUS
10
1.88923
20
2.64234
11
1.89818
21
2.63994
0
LINE
8
BLACK
6
CONTINUOUS
10
1.89818
20
2.63994
11
1.90657
21
2.63603
0
LINE
8
BLACK
6
CONTINUOUS
10
1.90657
20
2.63603
11
1.91416
21
2.63071
0
LINE
8
BLACK
6
CONTINUOUS
10
1.91416
20
2.63071
11
1.92071
21
2.62416
0
LINE
8
BLACK
6
CONTINUOUS
10
1.92071
20
2.62416
11
1.92603
21
2.61657
0
LINE
8
BLACK
6
CONTINUOUS
10
1.92603
20
2.61657
11
1.92994
21
2.60818
0
LINE
8
BLACK
6
CONTINUOUS
10
1.92994
20
2.60818
11
1.93234
21
2.59923
0
LINE
8
BLACK
6
CONTINUOUS
10
1.93234
20
2.59923
11
1.93315
21
2.59
0
LINE
8
BLACK
6
CONTINUOUS
10
1.93315
20
2.59
11
1.93234
21
2.58077
0
LINE
8
BLACK
6
CONTINUOUS
10
1.93234
20
2.58077
11
1.92994
21
2.57182
0
LINE
8
BLACK
6
CONTINUOUS
10
1.92994
20
2.57182
11
1.92603
21
2.56343
0
LINE
8
BLACK
6
CONTINUOUS
10
1.92603
20
2.56343
11
1.92071
21
2.55584
0
LINE
8
BLACK
6
CONTINUOUS
10
1.92071
20
2.55584
11
1.91416
21
2.54929
0
LINE
8
BLACK
6
CONTINUOUS
10
1.91416
20
2.54929
11
1.90657
21
2.54397
0
LINE
8
BLACK
6
CONTINUOUS
10
1.90657
20
2.54397
11
1.89818
21
2.54006
0
LINE
8
BLACK
6
CONTINUOUS
10
1.89818
20
2.54006
11
1.88923
21
2.53766
0
LINE
8
BLACK
6
CONTINUOUS
10
1.88923
20
2.53766
11
1.88
21
2.53685
0
LINE
8
BLACK
6
CONTINUOUS
10
1.88
20
2.53685
11
1.87077
21
2.53766
0
LINE
8
BLACK
6
CONTINUOUS
10
1.87077
20
2.53766
11
1.86182
21
2.54006
0
LINE
8
BLACK
6
CONTINUOUS
10
1.86182
20
2.54006
11
1.85343
21
2.54397
0
LINE
8
BLACK
6
CONTINUOUS
10
1.85343
20
2.54397
11
1.84584
21
2.54929
0
LINE
8
BLACK
6
CONTINUOUS
10
1.84584
20
2.54929
11
1.83929
21
2.55584
0
LINE
8
BLACK
6
CONTINUOUS
10
1.83929
20
2.55584
11
1.83397
21
2.56343
0
LINE
8
BLACK
6
CONTINUOUS
10
1.83397
20
2.56343
11
1.83006
21
2.57182
0
LINE
8
BLACK
6
CONTINUOUS
10
1.83006
20
2.57182
11
1.82766
21
2.58077
0
LINE
8
BLACK
6
CONTINUOUS
10
1.82766
20
2.58077
11
1.82685
21
2.59
0
LINE
8
BLACK
6
CONTINUOUS
10
1.82685
20
2.59
11
1.82766
21
2.59923
0
LINE
8
BLACK
6
CONTINUOUS
10
1.82766
20
2.59923
11
1.83006
21
2.60818
0
LINE
8
BLACK
6
CONTINUOUS
10
1.83006
20
2.60818
11
1.83397
21
2.61657
0
LINE
8
BLACK
6
CONTINUOUS
10
1.83397
20
2.61657
11
1.83929
21
2.62416
0
LINE
8
BLACK
6
CONTINUOUS
10
1.83929
20
2.62416
11
1.84584
21
2.63071
0
LINE
8
BLACK
6
CONTINUOUS
10
1.84584
20
2.63071
11
1.85343
21
2.63603
0
LINE
8
BLACK
6
CONTINUOUS
10
1.85343
20
2.63603
11
1.86182
21
2.63994
0
LINE
8
BLACK
6
CONTINUOUS
10
1.86182
20
2.63994
11
1.87077
21
2.64234
0
LINE
8
BLACK
6
CONTINUOUS
10
1.87077
20
2.64234
11
1.88
21
2.64315
0
LINE
8
BLACK
6
CONTINUOUS
10
1.88
20
2.64315
11
1.88923
21
2.64234
0
LINE
8
BLACK
6
CONTINUOUS
10
0.50524
20
2.62358
11
0.35524
21
2.62358
0
LINE
8
BLACK
6
CONTINUOUS
10
0.35524
20
2.62358
11
0.35524
21
2.77358
0
LINE
8
BLACK
6
CONTINUOUS
10
0.35524
20
2.77358
11
0.50524
21
2.77358
0
LINE
8
BLACK
6
CONTINUOUS
10
0.50524
20
2.77358
11
0.50524
21
2.62358
0
LINE
8
BLACK
6
CONTINUOUS
10
0.702091
20
2.62358
11
0.552091
21
2.62358
0
LINE
8
BLACK
6
CONTINUOUS
10
0.552091
20
2.62358
11
0.552091
21
2.77358
0
LINE
8
BLACK
6
CONTINUOUS
10
0.552091
20
2.77358
11
0.702091
21
2.77358
0
LINE
8
BLACK
6
CONTINUOUS
10
0.702091
20
2.77358
11
0.702091
21
2.62358
0
LINE
8
BLACK
6
CONTINUOUS
10
1.35151
20
2.75301
11
1.35964
21
2.74986
0
LINE
8
BLACK
6
CONTINUOUS
10
1.35964
20
2.74986
11
1.36705
21
2.74527
0
LINE
8
BLACK
6
CONTINUOUS
10
1.36705
20
2.74527
11
1.3735
21
2.73939
0
LINE
8
BLACK
6
CONTINUOUS
10
1.3735
20
2.73939
11
1.37875
21
2.73244
0
LINE
8
BLACK
6
CONTINUOUS
10
1.37875
20
2.73244
11
1.38264
21
2.72463
0
LINE
8
BLACK
6
CONTINUOUS
10
1.38264
20
2.72463
11
1.38502
21
2.71625
0
LINE
8
BLACK
6
CONTINUOUS
10
1.38502
20
2.71625
11
1.38583
21
2.70756
0
LINE
8
BLACK
6
CONTINUOUS
10
1.38583
20
2.70756
11
1.38502
21
2.69888
0
LINE
8
BLACK
6
CONTINUOUS
10
1.38502
20
2.69888
11
1.38264
21
2.6905
0
LINE
8
BLACK
6
CONTINUOUS
10
1.38264
20
2.6905
11
1.37875
21
2.68269
0
LINE
8
BLACK
6
CONTINUOUS
10
1.37875
20
2.68269
11
1.3735
21
2.67574
0
LINE
8
BLACK
6
CONTINUOUS
10
1.3735
20
2.67574
11
1.36705
21
2.66986
0
LINE
8
BLACK
6
CONTINUOUS
10
1.36705
20
2.66986
11
1.35964
21
2.66527
0
LINE
8
BLACK
6
CONTINUOUS
10
1.35964
20
2.66527
11
1.35151
21
2.66212
0
LINE
8
BLACK
6
CONTINUOUS
10
1.35151
20
2.66212
11
1.34294
21
2.66052
0
LINE
8
BLACK
6
CONTINUOUS
10
1.34294
20
2.66052
11
1.33422
21
2.66052
0
LINE
8
BLACK
6
CONTINUOUS
10
1.33422
20
2.66052
11
1.32565
21
2.66212
0
LINE
8
BLACK
6
CONTINUOUS
10
1.32565
20
2.66212
11
1.31752
21
2.66527
0
LINE
8
BLACK
6
CONTINUOUS
10
1.31752
20
2.66527
11
1.31011
21
2.66986
0
LINE
8
BLACK
6
CONTINUOUS
10
1.31011
20
2.66986
11
1.30367
21
2.67574
0
LINE
8
BLACK
6
CONTINUOUS
10
1.30367
20
2.67574
11
1.29841
21
2.68269
0
LINE
8
BLACK
6
CONTINUOUS
10
1.29841
20
2.68269
11
1.29453
21
2.6905
0
LINE
8
BLACK
6
CONTINUOUS
10
1.29453
20
2.6905
11
1.29214
21
2.69888
0
LINE
8
BLACK
6
CONTINUOUS
10
1.29214
20
2.69888
11
1.29134
21
2.70756
0
LINE
8
BLACK
6
CONTINUOUS
10
1.29134
20
2.70756
11
1.29214
21
2.71625
0
LINE
8
BLACK
6
CONTINUOUS
10
1.29214
20
2.71625
11
1.29453
21
2.72463
0
LINE
8
BLACK
6
CONTINUOUS
10
1.29453
20
2.72463
11
1.29841
21
2.73244
0
LINE
8
BLACK
6
CONTINUOUS
10
1.29841
20
2.73244
11
1.30367
21
2.73939
0
LINE
8
BLACK
6
CONTINUOUS
10
1.30367
20
2.73939
11
1.31011
21
2.74527
0
LINE
8
BLACK
6
CONTINUOUS
10
1.31011
20
2.74527
11
1.31752
21
2.74986
0
LINE
8
BLACK
6
CONTINUOUS
10
1.31752
20
2.74986
11
1.32565
21
2.75301
0
LINE
8
BLACK
6
CONTINUOUS
10
1.32565
20
2.75301
11
1.33422
21
2.75461
0
LINE
8
BLACK
6
CONTINUOUS
10
1.33422
20
2.75461
11
1.34294
21
2.75461
0
LINE
8
BLACK
6
CONTINUOUS
10
1.34294
20
2.75461
11
1.35151
21
2.75301
0
LINE
8
BLACK
6
CONTINUOUS
10
1.54836
20
2.75301
11
1.55649
21
2.74986
0
LINE
8
BLACK
6
CONTINUOUS
10
1.55649
20
2.74986
11
1.5639
21
2.74527
0
LINE
8
BLACK
6
CONTINUOUS
10
1.5639
20
2.74527
11
1.57035
21
2.73939
0
LINE
8
BLACK
6
CONTINUOUS
10
1.57035
20
2.73939
11
1.5756
21
2.73244
0
LINE
8
BLACK
6
CONTINUOUS
10
1.5756
20
2.73244
11
1.57949
21
2.72463
0
LINE
8
BLACK
6
CONTINUOUS
10
1.57949
20
2.72463
11
1.58187
21
2.71625
0
LINE
8
BLACK
6
CONTINUOUS
10
1.58187
20
2.71625
11
1.58268
21
2.70756
0
LINE
8
BLACK
6
CONTINUOUS
10
1.58268
20
2.70756
11
1.58187
21
2.69888
0
LINE
8
BLACK
6
CONTINUOUS
10
1.58187
20
2.69888
11
1.57949
21
2.6905
0
LINE
8
BLACK
6
CONTINUOUS
10
1.57949
20
2.6905
11
1.5756
21
2.68269
0
LINE
8
BLACK
6
CONTINUOUS
10
1.5756
20
2.68269
11
1.57035
21
2.67574
0
LINE
8
BLACK
6
CONTINUOUS
10
1.57035
20
2.67574
11
1.5639
21
2.66986
0
LINE
8
BLACK
6
CONTINUOUS
10
1.5639
20
2.66986
11
1.55649
21
2.66527
0
LINE
8
BLACK
6
CONTINUOUS
10
1.55649
20
2.66527
11
1.54836
21
2.66212
0
LINE
8
BLACK
6
CONTINUOUS
10
1.54836
20
2.66212
11
1.53979
21
2.66052
0
LINE
8
BLACK
6
CONTINUOUS
10
1.53979
20
2.66052
11
1.53107
21
2.66052
0
LINE
8
BLACK
6
CONTINUOUS
10
1.53107
20
2.66052
11
1.5225
21
2.66212
0
LINE
8
BLACK
6
CONTINUOUS
10
1.5225
20
2.66212
11
1.51437
21
2.66527
0
LINE
8
BLACK
6
CONTINUOUS
10
1.51437
20
2.66527
11
1.50696
21
2.66986
0
LINE
8
BLACK
6
CONTINUOUS
10
1.50696
20
2.66986
11
1.50052
21
2.67574
0
LINE
8
BLACK
6
CONTINUOUS
10
1.50052
20
2.67574
11
1.49527
21
2.68269
0
LINE
8
BLACK
6
CONTINUOUS
10
1.49527
20
2.68269
11
1.49138
21
2.6905
0
LINE
8
BLACK
6
CONTINUOUS
10
1.49138
20
2.6905
11
1.48899
21
2.69888
0
LINE
8
BLACK
6
CONTINUOUS
10
1.48899
20
2.69888
11
1.48819
21
2.70756
0
LINE
8
BLACK
6
CONTINUOUS
10
1.48819
20
2.70756
11
1.48899
21
2.71625
0
LINE
8
BLACK
6
CONTINUOUS
10
1.48899
20
2.71625
11
1.49138
21
2.72463
0
LINE
8
BLACK
6
CONTINUOUS
10
1.49138
20
2.72463
11
1.49527
21
2.73244
0
LINE
8
BLACK
6
CONTINUOUS
10
1.49527
20
2.73244
11
1.50052
21
2.73939
0
LINE
8
BLACK
6
CONTINUOUS
10
1.50052
20
2.73939
11
1.50696
21
2.74527
0
LINE
8
BLACK
6
CONTINUOUS
10
1.50696
20
2.74527
11
1.51437
21
2.74986
0
LINE
8
BLACK
6
CONTINUOUS
10
1.51437
20
2.74986
11
1.5225
21
2.75301
0
LINE
8
BLACK
6
CONTINUOUS
10
1.5225
20
2.75301
11
1.53107
21
2.75461
0
LINE
8
BLACK
6
CONTINUOUS
10
1.53107
20
2.75461
11
1.53979
21
2.75461
0
LINE
8
BLACK
6
CONTINUOUS
10
1.53979
20
2.75461
11
1.54836
21
2.75301
0
LINE
8
BLACK
6
CONTINUOUS
10
2.44
20
2.68
11
2.38
21
2.68
0
LINE
8
BLACK
6
CONTINUOUS
10
2.38
20
2.68
11
2.38
21
2.74
0
LINE
8
BLACK
6
CONTINUOUS
10
2.38
20
2.74
11
2.44
21
2.74
0
LINE
8
BLACK
6
CONTINUOUS
10
2.44
20
2.74
11
2.44
21
2.68
0
LINE
8
BLACK
6
CONTINUOUS
10
2.54
20
2.68
11
2.48
21
2.68
0
LINE
8
BLACK
6
CONTINUOUS
10
2.48
20
2.68
11
2.48
21
2.74
0
LINE
8
BLACK
6
CONTINUOUS
10
2.48
20
2.74
11
2.54
21
2.74
0
LINE
8
BLACK
6
CONTINUOUS
10
2.54
20
2.74
11
2.54
21
2.68
0
LINE
8
BLACK
6
CONTINUOUS
10
2.44
20
2.78
11
2.38
21
2.78
0
LINE
8
BLACK
6
CONTINUOUS
10
2.38
20
2.78
11
2.38
21
2.84
0
LINE
8
BLACK
6
CONTINUOUS
10
2.38
20
2.84
11
2.44
21
2.84
0
LINE
8
BLACK
6
CONTINUOUS
10
2.44
20
2.84
11
2.44
21
2.78
0
LINE
8
BLACK
6
CONTINUOUS
10
2.54
20
2.78
11
2.48
21
2.78
0
LINE
8
BLACK
6
CONTINUOUS
10
2.48
20
2.78
11
2.48
21
2.84
0
LINE
8
BLACK
6
CONTINUOUS
10
2.48
20
2.84
11
2.54
21
2.84
0
LINE
8
BLACK
6
CONTINUOUS
10
2.54
20
2.84
11
2.54
21
2.78
0
LINE
8
BLACK
6
CONTINUOUS
10
0.50524
20
2.82043
11
0.35524
21
2.82043
0
LINE
8
BLACK
6
CONTINUOUS
10
0.35524
20
2.82043
11
0.35524
21
2.97043
0
LINE
8
BLACK
6
CONTINUOUS
10
0.35524
20
2.97043
11
0.50524
21
2.97043
0
LINE
8
BLACK
6
CONTINUOUS
10
0.50524
20
2.97043
11
0.50524
21
2.82043
0
LINE
8
BLACK
6
CONTINUOUS
10
0.702091
20
2.82043
11
0.552091
21
2.82043
0
LINE
8
BLACK
6
CONTINUOUS
10
0.552091
20
2.82043
11
0.552091
21
2.97043
0
LINE
8
BLACK
6
CONTINUOUS
10
0.552091
20
2.97043
11
0.702091
21
2.97043
0
LINE
8
BLACK
6
CONTINUOUS
10
0.702091
20
2.97043
11
0.702091
21
2.82043
0
LINE
8
BLACK
6
CONTINUOUS
10
2.44
20
2.88
11
2.38
21
2.88
0
LINE
8
BLACK
6
CONTINUOUS
10
2.38
20
2.88
11
2.38
21
2.94
0
LINE
8
BLACK
6
CONTINUOUS
10
2.38
20
2.94
11
2.44
21
2.94
0
LINE
8
BLACK
6
CONTINUOUS
10
2.44
20
2.94
11
2.44
21
2.88
0
LINE
8
BLACK
6
CONTINUOUS
10
2.54
20
2.88
11
2.48
21
2.88
0
LINE
8
BLACK
6
CONTINUOUS
10
2.48
20
2.88
11
2.48
21
2.94
0
LINE
8
BLACK
6
CONTINUOUS
10
2.48
20
2.94
11
2.54
21
2.94
0
LINE
8
BLACK
6
CONTINUOUS
10
2.54
20
2.94
11
2.54
21
2.88
0
LINE
8
BLACK
6
CONTINUOUS
10
2.84
20
2.91
11
2.78
21
2.91
0
LINE
8
BLACK
6
CONTINUOUS
10
2.78
20
2.91
11
2.78
21
2.97
0
LINE
8
BLACK
6
CONTINUOUS
10
2.78
20
2.97
11
2.84
21
2.97
0
LINE
8
BLACK
6
CONTINUOUS
10
2.84
20
2.97
11
2.84
21
2.91
0
LINE
8
BLACK
6
CONTINUOUS
10
2.94
20
2.91
11
2.88
21
2.91
0
LINE
8
BLACK
6
CONTINUOUS
10
2.88
20
2.91
11
2.88
21
2.97
0
LINE
8
BLACK
6
CONTINUOUS
10
2.88
20
2.97
11
2.94
21
2.97
0
LINE
8
BLACK
6
CONTINUOUS
10
2.94
20
2.97
11
2.94
21
2.91
0
LINE
8
BLACK
6
CONTINUOUS
10
1.88923
20
3.06234
11
1.89818
21
3.05994
0
LINE
8
BLACK
6
CONTINUOUS
10
1.89818
20
3.05994
11
1.90657
21
3.05603
0
LINE
8
BLACK
6
CONTINUOUS
10
1.90657
20
3.05603
11
1.91416
21
3.05071
0
LINE
8
BLACK
6
CONTINUOUS
10
1.91416
20
3.05071
11
1.92071
21
3.04416
0
LINE
8
BLACK
6
CONTINUOUS
10
1.92071
20
3.04416
11
1.92603
21
3.03657
0
LINE
8
BLACK
6
CONTINUOUS
10
1.92603
20
3.03657
11
1.92994
21
3.02818
0
LINE
8
BLACK
6
CONTINUOUS
10
1.92994
20
3.02818
11
1.93234
21
3.01923
0
LINE
8
BLACK
6
CONTINUOUS
10
1.93234
20
3.01923
11
1.93315
21
3.01
0
LINE
8
BLACK
6
CONTINUOUS
10
1.93315
20
3.01
11
1.93234
21
3.00077
0
LINE
8
BLACK
6
CONTINUOUS
10
1.93234
20
3.00077
11
1.92994
21
2.99182
0
LINE
8
BLACK
6
CONTINUOUS
10
1.92994
20
2.99182
11
1.92603
21
2.98343
0
LINE
8
BLACK
6
CONTINUOUS
10
1.92603
20
2.98343
11
1.92071
21
2.97584
0
LINE
8
BLACK
6
CONTINUOUS
10
1.92071
20
2.97584
11
1.91416
21
2.96929
0
LINE
8
BLACK
6
CONTINUOUS
10
1.91416
20
2.96929
11
1.90657
21
2.96397
0
LINE
8
BLACK
6
CONTINUOUS
10
1.90657
20
2.96397
11
1.89818
21
2.96006
0
LINE
8
BLACK
6
CONTINUOUS
10
1.89818
20
2.96006
11
1.88923
21
2.95766
0
LINE
8
BLACK
6
CONTINUOUS
10
1.88923
20
2.95766
11
1.88
21
2.95685
0
LINE
8
BLACK
6
CONTINUOUS
10
1.88
20
2.95685
11
1.87077
21
2.95766
0
LINE
8
BLACK
6
CONTINUOUS
10
1.87077
20
2.95766
11
1.86182
21
2.96006
0
LINE
8
BLACK
6
CONTINUOUS
10
1.86182
20
2.96006
11
1.85343
21
2.96397
0
LINE
8
BLACK
6
CONTINUOUS
10
1.85343
20
2.96397
11
1.84584
21
2.96929
0
LINE
8
BLACK
6
CONTINUOUS
10
1.84584
20
2.96929
11
1.83929
21
2.97584
0
LINE
8
BLACK
6
CONTINUOUS
10
1.83929
20
2.97584
11
1.83397
21
2.98343
0
LINE
8
BLACK
6
CONTINUOUS
10
1.83397
20
2.98343
11
1.83006
21
2.99182
0
LINE
8
BLACK
6
CONTINUOUS
10
1.83006
20
2.99182
11
1.82766
21
3.00077
0
LINE
8
BLACK
6
CONTINUOUS
10
1.82766
20
3.00077
11
1.82685
21
3.01
0
LINE
8
BLACK
6
CONTINUOUS
10
1.82685
20
3.01
11
1.82766
21
3.01923
0
LINE
8
BLACK
6
CONTINUOUS
10
1.82766
20
3.01923
11
1.83006
21
3.02818
0
LINE
8
BLACK
6
CONTINUOUS
10
1.83006
20
3.02818
11
1.83397
21
3.03657
0
LINE
8
BLACK
6
CONTINUOUS
10
1.83397
20
3.03657
11
1.83929
21
3.04416
0
LINE
8
BLACK
6
CONTINUOUS
10
1.83929
20
3.04416
11
1.84584
21
3.05071
0
LINE
8
BLACK
6
CONTINUOUS
10
1.84584
20
3.05071
11
1.85343
21
3.05603
0
LINE
8
BLACK
6
CONTINUOUS
10
1.85343
20
3.05603
11
1.86182
21
3.05994
0
LINE
8
BLACK
6
CONTINUOUS
10
1.86182
20
3.05994
11
1.87077
21
3.06234
0
LINE
8
BLACK
6
CONTINUOUS
10
1.87077
20
3.06234
11
1.88
21
3.06315
0
LINE
8
BLACK
6
CONTINUOUS
10
1.88
20
3.06315
11
1.88923
21
3.06234
0
LINE
8
BLACK
6
CONTINUOUS
10
2.44
20
2.98
11
2.38
21
2.98
0
LINE
8
BLACK
6
CONTINUOUS
10
2.38
20
2.98
11
2.38
21
3.04
0
LINE
8
BLACK
6
CONTINUOUS
10
2.38
20
3.04
11
2.44
21
3.04
0
LINE
8
BLACK
6
CONTINUOUS
10
2.44
20
3.04
11
2.44
21
2.98
0
LINE
8
BLACK
6
CONTINUOUS
10
2.54
20
2.98
11
2.48
21
2.98
0
LINE
8
BLACK
6
CONTINUOUS
10
2.48
20
2.98
11
2.48
21
3.04
0
LINE
8
BLACK
6
CONTINUOUS
10
2.48
20
3.04
11
2.54
21
3.04
0
LINE
8
BLACK
6
CONTINUOUS
10
2.54
20
3.04
11
2.54
21
2.98
0
LINE
8
BLACK
6
CONTINUOUS
10
2.84
20
3.01
11
2.78
21
3.01
0
LINE
8
BLACK
6
CONTINUOUS
10
2.78
20
3.01
11
2.78
21
3.07
0
LINE
8
BLACK
6
CONTINUOUS
10
2.78
20
3.07
11
2.84
21
3.07
0
LINE
8
BLACK
6
CONTINUOUS
10
2.84
20
3.07
11
2.84
21
3.01
0
LINE
8
BLACK
6
CONTINUOUS
10
2.94
20
3.01
11
2.88
21
3.01
0
LINE
8
BLACK
6
CONTINUOUS
10
2.88
20
3.01
11
2.88
21
3.07
0
LINE
8
BLACK
6
CONTINUOUS
10
2.88
20
3.07
11
2.94
21
3.07
0
LINE
8
BLACK
6
CONTINUOUS
10
2.94
20
3.07
11
2.94
21
3.01
0
LINE
8
BLACK
6
CONTINUOUS
10
0.50524
20
3.01728
11
0.35524
21
3.01728
0
LINE
8
BLACK
6
CONTINUOUS
10
0.35524
20
3.01728
11
0.35524
21
3.16728
0
LINE
8
BLACK
6
CONTINUOUS
10
0.35524
20
3.16728
11
0.50524
21
3.16728
0
LINE
8
BLACK
6
CONTINUOUS
10
0.50524
20
3.16728
11
0.50524
21
3.01728
0
LINE
8
BLACK
6
CONTINUOUS
10
0.702091
20
3.01728
11
0.552091
21
3.01728
0
LINE
8
BLACK
6
CONTINUOUS
10
0.552091
20
3.01728
11
0.552091
21
3.16728
0
LINE
8
BLACK
6
CONTINUOUS
10
0.552091
20
3.16728
11
0.702091
21
3.16728
0
LINE
8
BLACK
6
CONTINUOUS
10
0.702091
20
3.16728
11
0.702091
21
3.01728
0
LINE
8
BLACK
6
CONTINUOUS
10
1.35151
20
3.17088
11
1.35964
21
3.16773
0
LINE
8
BLACK
6
CONTINUOUS
10
1.35964
20
3.16773
11
1.36705
21
3.16314
0
LINE
8
BLACK
6
CONTINUOUS
10
1.36705
20
3.16314
11
1.3735
21
3.15726
0
LINE
8
BLACK
6
CONTINUOUS
10
1.3735
20
3.15726
11
1.37875
21
3.15031
0
LINE
8
BLACK
6
CONTINUOUS
10
1.37875
20
3.15031
11
1.38264
21
3.1425
0
LINE
8
BLACK
6
CONTINUOUS
10
1.38264
20
3.1425
11
1.38502
21
3.13412
0
LINE
8
BLACK
6
CONTINUOUS
10
1.38502
20
3.13412
11
1.38583
21
3.12544
0
LINE
8
BLACK
6
CONTINUOUS
10
1.38583
20
3.12544
11
1.38502
21
3.11675
0
LINE
8
BLACK
6
CONTINUOUS
10
1.38502
20
3.11675
11
1.38264
21
3.10837
0
LINE
8
BLACK
6
CONTINUOUS
10
1.38264
20
3.10837
11
1.37875
21
3.10057
0
LINE
8
BLACK
6
CONTINUOUS
10
1.37875
20
3.10057
11
1.3735
21
3.09361
0
LINE
8
BLACK
6
CONTINUOUS
10
1.3735
20
3.09361
11
1.36705
21
3.08773
0
LINE
8
BLACK
6
CONTINUOUS
10
1.36705
20
3.08773
11
1.35964
21
3.08314
0
LINE
8
BLACK
6
CONTINUOUS
10
1.35964
20
3.08314
11
1.35151
21
3.08
0
LINE
8
BLACK
6
CONTINUOUS
10
1.35151
20
3.08
11
1.34294
21
3.07839
0
LINE
8
BLACK
6
CONTINUOUS
10
1.34294
20
3.07839
11
1.33422
21
3.07839
0
LINE
8
BLACK
6
CONTINUOUS
10
1.33422
20
3.07839
11
1.32565
21
3.08
0
LINE
8
BLACK
6
CONTINUOUS
10
1.32565
20
3.08
11
1.31752
21
3.08314
0
LINE
8
BLACK
6
CONTINUOUS
10
1.31752
20
3.08314
11
1.31011
21
3.08773
0
LINE
8
BLACK
6
CONTINUOUS
10
1.31011
20
3.08773
11
1.30367
21
3.09361
0
LINE
8
BLACK
6
CONTINUOUS
10
1.30367
20
3.09361
11
1.29841
21
3.10057
0
LINE
8
BLACK
6
CONTINUOUS
10
1.29841
20
3.10057
11
1.29453
21
3.10837
0
LINE
8
BLACK
6
CONTINUOUS
10
1.29453
20
3.10837
11
1.29214
21
3.11675
0
LINE
8
BLACK
6
CONTINUOUS
10
1.29214
20
3.11675
11
1.29134
21
3.12544
0
LINE
8
BLACK
6
CONTINUOUS
10
1.29134
20
3.12544
11
1.29214
21
3.13412
0
LINE
8
BLACK
6
CONTINUOUS
10
1.29214
20
3.13412
11
1.29453
21
3.1425
0
LINE
8
BLACK
6
CONTINUOUS
10
1.29453
20
3.1425
11
1.29841
21
3.15031
0
LINE
8
BLACK
6
CONTINUOUS
10
1.29841
20
3.15031
11
1.30367
21
3.15726
0
LINE
8
BLACK
6
CONTINUOUS
10
1.30367
20
3.15726
11
1.31011
21
3.16314
0
LINE
8
BLACK
6
CONTINUOUS
10
1.31011
20
3.16314
11
1.31752
21
3.16773
0
LINE
8
BLACK
6
CONTINUOUS
10
1.31752
20
3.16773
11
1.32565
21
3.17088
0
LINE
8
BLACK
6
CONTINUOUS
10
1.32565
20
3.17088
11
1.33422
21
3.17248
0
LINE
8
BLACK
6
CONTINUOUS
10
1.33422
20
3.17248
11
1.34294
21
3.17248
0
LINE
8
BLACK
6
CONTINUOUS
10
1.34294
20
3.17248
11
1.35151
21
3.17088
0
LINE
8
BLACK
6
CONTINUOUS
10
1.54836
20
3.17088
11
1.55649
21
3.16773
0
LINE
8
BLACK
6
CONTINUOUS
10
1.55649
20
3.16773
11
1.5639
21
3.16314
0
LINE
8
BLACK
6
CONTINUOUS
10
1.5639
20
3.16314
11
1.57035
21
3.15726
0
LINE
8
BLACK
6
CONTINUOUS
10
1.57035
20
3.15726
11
1.5756
21
3.15031
0
LINE
8
BLACK
6
CONTINUOUS
10
1.5756
20
3.15031
11
1.57949
21
3.1425
0
LINE
8
BLACK
6
CONTINUOUS
10
1.57949
20
3.1425
11
1.58187
21
3.13412
0
LINE
8
BLACK
6
CONTINUOUS
10
1.58187
20
3.13412
11
1.58268
21
3.12544
0
LINE
8
BLACK
6
CONTINUOUS
10
1.58268
20
3.12544
11
1.58187
21
3.11675
0
LINE
8
BLACK
6
CONTINUOUS
10
1.58187
20
3.11675
11
1.57949
21
3.10837
0
LINE
8
BLACK
6
CONTINUOUS
10
1.57949
20
3.10837
11
1.5756
21
3.10057
0
LINE
8
BLACK
6
CONTINUOUS
10
1.5756
20
3.10057
11
1.57035
21
3.09361
0
LINE
8
BLACK
6
CONTINUOUS
10
1.57035
20
3.09361
11
1.5639
21
3.08773
0
LINE
8
BLACK
6
CONTINUOUS
10
1.5639
20
3.08773
11
1.55649
21
3.08314
0
LINE
8
BLACK
6
CONTINUOUS
10
1.55649
20
3.08314
11
1.54836
21
3.08
0
LINE
8
BLACK
6
CONTINUOUS
10
1.54836
20
3.08
11
1.53979
21
3.07839
0
LINE
8
BLACK
6
CONTINUOUS
10
1.53979
20
3.07839
11
1.53107
21
3.07839
0
LINE
8
BLACK
6
CONTINUOUS
10
1.53107
20
3.07839
11
1.5225
21
3.08
0
LINE
8
BLACK
6
CONTINUOUS
10
1.5225
20
3.08
11
1.51437
21
3.08314
0
LINE
8
BLACK
6
CONTINUOUS
10
1.51437
20
3.08314
11
1.50696
21
3.08773
0
LINE
8
BLACK
6
CONTINUOUS
10
1.50696
20
3.08773
11
1.50052
21
3.09361
0
LINE
8
BLACK
6
CONTINUOUS
10
1.50052
20
3.09361
11
1.49527
21
3.10057
0
LINE
8
BLACK
6
CONTINUOUS
10
1.49527
20
3.10057
11
1.49138
21
3.10837
0
LINE
8
BLACK
6
CONTINUOUS
10
1.49138
20
3.10837
11
1.48899
21
3.11675
0
LINE
8
BLACK
6
CONTINUOUS
10
1.48899
20
3.11675
11
1.48819
21
3.12544
0
LINE
8
BLACK
6
CONTINUOUS
10
1.48819
20
3.12544
11
1.48899
21
3.13412
0
LINE
8
BLACK
6
CONTINUOUS
10
1.48899
20
3.13412
11
1.49138
21
3.1425
0
LINE
8
BLACK
6
CONTINUOUS
10
1.49138
20
3.1425
11
1.49527
21
3.15031
0
LINE
8
BLACK
6
CONTINUOUS
10
1.49527
20
3.15031
11
1.50052
21
3.15726
0
LINE
8
BLACK
6
CONTINUOUS
10
1.50052
20
3.15726
11
1.50696
21
3.16314
0
LINE
8
BLACK
6
CONTINUOUS
10
1.50696
20
3.16314
11
1.51437
21
3.16773
0
LINE
8
BLACK
6
CONTINUOUS
10
1.51437
20
3.16773
11
1.5225
21
3.17088
0
LINE
8
BLACK
6
CONTINUOUS
10
1.5225
20
3.17088
11
1.53107
21
3.17248
0
LINE
8
BLACK
6
CONTINUOUS
10
1.53107
20
3.17248
11
1.53979
21
3.17248
0
LINE
8
BLACK
6
CONTINUOUS
10
1.53979
20
3.17248
11
1.54836
21
3.17088
0
LINE
8
BLACK
6
CONTINUOUS
10
2.44
20
3.08
11
2.38
21
3.08
0
LINE
8
BLACK
6
CONTINUOUS
10
2.38
20
3.08
11
2.38
21
3.14
0
LINE
8
BLACK
6
CONTINUOUS
10
2.38
20
3.14
11
2.44
21
3.14
0
LINE
8
BLACK
6
CONTINUOUS
10
2.44
20
3.14
11
2.44
21
3.08
0
LINE
8
BLACK
6
CONTINUOUS
10
2.54
20
3.08
11
2.48
21
3.08
0
LINE
8
BLACK
6
CONTINUOUS
10
2.48
20
3.08
11
2.48
21
3.14
0
LINE
8
BLACK
6
CONTINUOUS
10
2.48
20
3.14
11
2.54
21
3.14
0
LINE
8
BLACK
6
CONTINUOUS
10
2.54
20
3.14
11
2.54
21
3.08
0
LINE
8
BLACK
6
CONTINUOUS
10
2.84
20
3.11
11
2.78
21
3.11
0
LINE
8
BLACK
6
CONTINUOUS
10
2.78
20
3.11
11
2.78
21
3.17
0
LINE
8
BLACK
6
CONTINUOUS
10
2.78
20
3.17
11
2.84
21
3.17
0
LINE
8
BLACK
6
CONTINUOUS
10
2.84
20
3.17
11
2.84
21
3.11
0
LINE
8
BLACK
6
CONTINUOUS
10
2.94
20
3.11
11
2.88
21
3.11
0
LINE
8
BLACK
6
CONTINUOUS
10
2.88
20
3.11
11
2.88
21
3.17
0
LINE
8
BLACK
6
CONTINUOUS
10
2.88
20
3.17
11
2.94
21
3.17
0
LINE
8
BLACK
6
CONTINUOUS
10
2.94
20
3.17
11
2.94
21
3.11
0
LINE
8
BLACK
6
CONTINUOUS
10
2.44
20
3.18
11
2.38
21
3.18
0
LINE
8
BLACK
6
CONTINUOUS
10
2.38
20
3.18
11
2.38
21
3.24
0
LINE
8
BLACK
6
CONTINUOUS
10
2.38
20
3.24
11
2.44
21
3.24
0
LINE
8
BLACK
6
CONTINUOUS
10
2.44
20
3.24
11
2.44
21
3.18
0
LINE
8
BLACK
6
CONTINUOUS
10
2.54
20
3.18
11
2.48
21
3.18
0
LINE
8
BLACK
6
CONTINUOUS
10
2.48
20
3.18
11
2.48
21
3.24
0
LINE
8
BLACK
6
CONTINUOUS
10
2.48
20
3.24
11
2.54
21
3.24
0
LINE
8
BLACK
6
CONTINUOUS
10
2.54
20
3.24
11
2.54
21
3.18
0
LINE
8
BLACK
6
CONTINUOUS
10
0.50524
20
3.21413
11
0.35524
21
3.21413
0
LINE
8
BLACK
6
CONTINUOUS
10
0.35524
20
3.21413
11
0.35524
21
3.36413
0
LINE
8
BLACK
6
CONTINUOUS
10
0.35524
20
3.36413
11
0.50524
21
3.36413
0
LINE
8
BLACK
6
CONTINUOUS
10
0.50524
20
3.36413
11
0.50524
21
3.21413
0
LINE
8
BLACK
6
CONTINUOUS
10
0.702091
20
3.21413
11
0.552091
21
3.21413
0
LINE
8
BLACK
6
CONTINUOUS
10
0.552091
20
3.21413
11
0.552091
21
3.36413
0
LINE
8
BLACK
6
CONTINUOUS
10
0.552091
20
3.36413
11
0.702091
21
3.36413
0
LINE
8
BLACK
6
CONTINUOUS
10
0.702091
20
3.36413
11
0.702091
21
3.21413
0
LINE
8
BLACK
6
CONTINUOUS
10
2.44
20
3.28
11
2.38
21
3.28
0
LINE
8
BLACK
6
CONTINUOUS
10
2.38
20
3.28
11
2.38
21
3.34
0
LINE
8
BLACK
6
CONTINUOUS
10
2.38
20
3.34
11
2.44
21
3.34
0
LINE
8
BLACK
6
CONTINUOUS
10
2.44
20
3.34
11
2.44
21
3.28
0
LINE
8
BLACK
6
CONTINUOUS
10
2.54
20
3.28
11
2.48
21
3.28
0
LINE
8
BLACK
6
CONTINUOUS
10
2.48
20
3.28
11
2.48
21
3.34
0
LINE
8
BLACK
6
CONTINUOUS
10
2.48
20
3.34
11
2.54
21
3.34
0
LINE
8
BLACK
6
CONTINUOUS
10
2.54
20
3.34
11
2.54
21
3.28
0
LINE
8
BLACK
6
CONTINUOUS
10
1.88923
20
3.48234
11
1.89818
21
3.47994
0
LINE
8
BLACK
6
CONTINUOUS
10
1.89818
20
3.47994
11
1.90657
21
3.47603
0
LINE
8
BLACK
6
CONTINUOUS
10
1.90657
20
3.47603
11
1.91416
21
3.47071
0
LINE
8
BLACK
6
CONTINUOUS
10
1.91416
20
3.47071
11
1.92071
21
3.46416
0
LINE
8
BLACK
6
CONTINUOUS
10
1.92071
20
3.46416
11
1.92603
21
3.45657
0
LINE
8
BLACK
6
CONTINUOUS
10
1.92603
20
3.45657
11
1.92994
21
3.44818
0
LINE
8
BLACK
6
CONTINUOUS
10
1.92994
20
3.44818
11
1.93234
21
3.43923
0
LINE
8
BLACK
6
CONTINUOUS
10
1.93234
20
3.43923
11
1.93315
21
3.43
0
LINE
8
BLACK
6
CONTINUOUS
10
1.93315
20
3.43
11
1.93234
21
3.42077
0
LINE
8
BLACK
6
CONTINUOUS
10
1.93234
20
3.42077
11
1.92994
21
3.41182
0
LINE
8
BLACK
6
CONTINUOUS
10
1.92994
20
3.41182
11
1.92603
21
3.40343
0
LINE
8
BLACK
6
CONTINUOUS
10
1.92603
20
3.40343
11
1.92071
21
3.39584
0
LINE
8
BLACK
6
CONTINUOUS
10
1.92071
20
3.39584
11
1.91416
21
3.38929
0
LINE
8
BLACK
6
CONTINUOUS
10
1.91416
20
3.38929
11
1.90657
21
3.38397
0
LINE
8
BLACK
6
CONTINUOUS
10
1.90657
20
3.38397
11
1.89818
21
3.38006
0
LINE
8
BLACK
6
CONTINUOUS
10
1.89818
20
3.38006
11
1.88923
21
3.37766
0
LINE
8
BLACK
6
CONTINUOUS
10
1.88923
20
3.37766
11
1.88
21
3.37685
0
LINE
8
BLACK
6
CONTINUOUS
10
1.88
20
3.37685
11
1.87077
21
3.37766
0
LINE
8
BLACK
6
CONTINUOUS
10
1.87077
20
3.37766
11
1.86182
21
3.38006
0
LINE
8
BLACK
6
CONTINUOUS
10
1.86182
20
3.38006
11
1.85343
21
3.38397
0
LINE
8
BLACK
6
CONTINUOUS
10
1.85343
20
3.38397
11
1.84584
21
3.38929
0
LINE
8
BLACK
6
CONTINUOUS
10
1.84584
20
3.38929
11
1.83929
21
3.39584
0
LINE
8
BLACK
6
CONTINUOUS
10
1.83929
20
3.39584
11
1.83397
21
3.40343
0
LINE
8
BLACK
6
CONTINUOUS
10
1.83397
20
3.40343
11
1.83006
21
3.41182
0
LINE
8
BLACK
6
CONTINUOUS
10
1.83006
20
3.41182
11
1.82766
21
3.42077
0
LINE
8
BLACK
6
CONTINUOUS
10
1.82766
20
3.42077
11
1.82685
21
3.43
0
LINE
8
BLACK
6
CONTINUOUS
10
1.82685
20
3.43
11
1.82766
21
3.43923
0
LINE
8
BLACK
6
CONTINUOUS
10
1.82766
20
3.43923
11
1.83006
21
3.44818
0
LINE
8
BLACK
6
CONTINUOUS
10
1.83006
20
3.44818
11
1.83397
21
3.45657
0
LINE
8
BLACK
6
CONTINUOUS
10
1.83397
20
3.45657
11
1.83929
21
3.46416
0
LINE
8
BLACK
6
CONTINUOUS
10
1.83929
20
3.46416
11
1.84584
21
3.47071
0
LINE
8
BLACK
6
CONTINUOUS
10
1.84584
20
3.47071
11
1.85343
21
3.47603
0
LINE
8
BLACK
6
CONTINUOUS
10
1.85343
20
3.47603
11
1.86182
21
3.47994
0
LINE
8
BLACK
6
CONTINUOUS
10
1.86182
20
3.47994
11
1.87077
21
3.48234
0
LINE
8
BLACK
6
CONTINUOUS
10
1.87077
20
3.48234
11
1.88
21
3.48315
0
LINE
8
BLACK
6
CONTINUOUS
10
1.88
20
3.48315
11
1.88923
21
3.48234
0
LINE
8
BLACK
6
CONTINUOUS
10
0.42051
20
3.71632
11
0.433874
21
3.71315
0
LINE
8
BLACK
6
CONTINUOUS
10
0.433874
20
3.71315
11
0.446781
21
3.70845
0
LINE
8
BLACK
6
CONTINUOUS
10
0.446781
20
3.70845
11
0.459055
21
3.70229
0
LINE
8
BLACK
6
CONTINUOUS
10
0.459055
20
3.70229
11
0.470531
21
3.69474
0
LINE
8
BLACK
6
CONTINUOUS
10
0.470531
20
3.69474
11
0.481052
21
3.68591
0
LINE
8
BLACK
6
CONTINUOUS
10
0.481052
20
3.68591
11
0.490478
21
3.67592
0
LINE
8
BLACK
6
CONTINUOUS
10
0.490478
20
3.67592
11
0.49868
21
3.6649
0
LINE
8
BLACK
6
CONTINUOUS
10
0.49868
20
3.6649
11
0.505547
21
3.65301
0
LINE
8
BLACK
6
CONTINUOUS
10
0.505547
20
3.65301
11
0.510987
21
3.6404
0
LINE
8
BLACK
6
CONTINUOUS
10
0.510987
20
3.6404
11
0.514927
21
3.62724
0
LINE
8
BLACK
6
CONTINUOUS
10
0.514927
20
3.62724
11
0.517312
21
3.61371
0
LINE
8
BLACK
6
CONTINUOUS
10
0.517312
20
3.61371
11
0.51811
21
3.6
0
LINE
8
BLACK
6
CONTINUOUS
10
0.51811
20
3.6
11
0.517312
21
3.58629
0
LINE
8
BLACK
6
CONTINUOUS
10
0.517312
20
3.58629
11
0.514927
21
3.57276
0
LINE
8
BLACK
6
CONTINUOUS
10
0.514927
20
3.57276
11
0.510987
21
3.5596
0
LINE
8
BLACK
6
CONTINUOUS
10
0.510987
20
3.5596
11
0.505547
21
3.54699
0
LINE
8
BLACK
6
CONTINUOUS
10
0.505547
20
3.54699
11
0.49868
21
3.5351
0
LINE
8
BLACK
6
CONTINUOUS
10
0.49868
20
3.5351
11
0.490478
21
3.52408
0
LINE
8
BLACK
6
CONTINUOUS
10
0.490478
20
3.52408
11
0.481052
21
3.51409
0
LINE
8
BLACK
6
CONTINUOUS
10
0.481052
20
3.51409
11
0.470531
21
3.50526
0
LINE
8
BLACK
6
CONTINUOUS
10
0.470531
20
3.50526
11
0.459055
21
3.49771
0
LINE
8
BLACK
6
CONTINUOUS
10
0.459055
20
3.49771
11
0.446781
21
3.49155
0
LINE
8
BLACK
6
CONTINUOUS
10
0.446781
20
3.49155
11
0.433874
21
3.48685
0
LINE
8
BLACK
6
CONTINUOUS
10
0.433874
20
3.48685
11
0.42051
21
3.48368
0
LINE
8
BLACK
6
CONTINUOUS
10
0.42051
20
3.48368
11
0.406867
21
3.48209
0
LINE
8
BLACK
6
CONTINUOUS
10
0.406867
20
3.48209
11
0.393133
21
3.48209
0
LINE
8
BLACK
6
CONTINUOUS
10
0.393133
20
3.48209
11
0.37949
21
3.48368
0
LINE
8
BLACK
6
CONTINUOUS
10
0.37949
20
3.48368
11
0.366126
21
3.48685
0
LINE
8
BLACK
6
CONTINUOUS
10
0.366126
20
3.48685
11
0.353219
21
3.49155
0
LINE
8
BLACK
6
CONTINUOUS
10
0.353219
20
3.49155
11
0.340945
21
3.49771
0
LINE
8
BLACK
6
CONTINUOUS
10
0.340945
20
3.49771
11
0.329469
21
3.50526
0
LINE
8
BLACK
6
CONTINUOUS
10
0.329469
20
3.50526
11
0.318948
21
3.51409
0
LINE
8
BLACK
6
CONTINUOUS
10
0.318948
20
3.51409
11
0.309522
21
3.52408
0
LINE
8
BLACK
6
CONTINUOUS
10
0.309522
20
3.52408
11
0.30132
21
3.5351
0
LINE
8
BLACK
6
CONTINUOUS
10
0.30132
20
3.5351
11
0.294453
21
3.54699
0
LINE
8
BLACK
6
CONTINUOUS
10
0.294453
20
3.54699
11
0.289013
21
3.5596
0
LINE
8
BLACK
6
CONTINUOUS
10
0.289013
20
3.5596
11
0.285073
21
3.57276
0
LINE
8
BLACK
6
CONTINUOUS
10
0.285073
20
3.57276
11
0.282688
21
3.58629
0
LINE
8
BLACK
6
CONTINUOUS
10
0.282688
20
3.58629
11
0.28189
21
3.6
0
LINE
8
BLACK
6
CONTINUOUS
10
0.28189
20
3.6
11
0.282688
21
3.61371
0
LINE
8
BLACK
6
CONTINUOUS
10
0.282688
20
3.61371
11
0.285073
21
3.62724
0
LINE
8
BLACK
6
CONTINUOUS
10
0.285073
20
3.62724
11
0.289013
21
3.6404
0
LINE
8
BLACK
6
CONTINUOUS
10
0.289013
20
3.6404
11
0.294453
21
3.65301
0
LINE
8
BLACK
6
CONTINUOUS
10
0.294453
20
3.65301
11
0.30132
21
3.6649
0
LINE
8
BLACK
6
CONTINUOUS
10
0.30132
20
3.6649
11
0.309522
21
3.67592
0
LINE
8
BLACK
6
CONTINUOUS
10
0.309522
20
3.67592
11
0.318948
21
3.68591
0
LINE
8
BLACK
6
CONTINUOUS
10
0.318948
20
3.68591
11
0.329469
21
3.69474
0
LINE
8
BLACK
6
CONTINUOUS
10
0.329469
20
3.69474
11
0.340945
21
3.70229
0
LINE
8
BLACK
6
CONTINUOUS
10
0.340945
20
3.70229
11
0.353219
21
3.70845
0
LINE
8
BLACK
6
CONTINUOUS
10
0.353219
20
3.70845
11
0.366126
21
3.71315
0
LINE
8
BLACK
6
CONTINUOUS
10
0.366126
20
3.71315
11
0.37949
21
3.71632
0
LINE
8
BLACK
6
CONTINUOUS
10
0.37949
20
3.71632
11
0.393133
21
3.71791
0
LINE
8
BLACK
6
CONTINUOUS
10
0.393133
20
3.71791
11
0.406867
21
3.71791
0
LINE
8
BLACK
6
CONTINUOUS
10
0.406867
20
3.71791
11
0.42051
21
3.71632
0
LINE
8
BLACK
6
CONTINUOUS
10
2.82051
20
3.71632
11
2.83387
21
3.71315
0
LINE
8
BLACK
6
CONTINUOUS
10
2.83387
20
3.71315
11
2.84678
21
3.70845
0
LINE
8
BLACK
6
CONTINUOUS
10
2.84678
20
3.70845
11
2.85906
21
3.70229
0
LINE
8
BLACK
6
CONTINUOUS
10
2.85906
20
3.70229
11
2.87053
21
3.69474
0
LINE
8
BLACK
6
CONTINUOUS
10
2.87053
20
3.69474
11
2.88105
21
3.68591
0
LINE
8
BLACK
6
CONTINUOUS
10
2.88105
20
3.68591
11
2.89048
21
3.67592
0
LINE
8
BLACK
6
CONTINUOUS
10
2.89048
20
3.67592
11
2.89868
21
3.6649
0
LINE
8
BLACK
6
CONTINUOUS
10
2.89868
20
3.6649
11
2.90555
21
3.65301
0
LINE
8
BLACK
6
CONTINUOUS
10
2.90555
20
3.65301
11
2.91099
21
3.6404
0
LINE
8
BLACK
6
CONTINUOUS
10
2.91099
20
3.6404
11
2.91493
21
3.62724
0
LINE
8
BLACK
6
CONTINUOUS
10
2.91493
20
3.62724
11
2.91731
21
3.61371
0
LINE
8
BLACK
6
CONTINUOUS
10
2.91731
20
3.61371
11
2.91811
21
3.6
0
LINE
8
BLACK
6
CONTINUOUS
10
2.91811
20
3.6
11
2.91731
21
3.58629
0
LINE
8
BLACK
6
CONTINUOUS
10
2.91731
20
3.58629
11
2.91493
21
3.57276
0
LINE
8
BLACK
6
CONTINUOUS
10
2.91493
20
3.57276
11
2.91099
21
3.5596
0
LINE
8
BLACK
6
CONTINUOUS
10
2.91099
20
3.5596
11
2.90555
21
3.54699
0
LINE
8
BLACK
6
CONTINUOUS
10
2.90555
20
3.54699
11
2.89868
21
3.5351
0
LINE
8
BLACK
6
CONTINUOUS
10
2.89868
20
3.5351
11
2.89048
21
3.52408
0
LINE
8
BLACK
6
CONTINUOUS
10
2.89048
20
3.52408
11
2.88105
21
3.51409
0
LINE
8
BLACK
6
CONTINUOUS
10
2.88105
20
3.51409
11
2.87053
21
3.50526
0
LINE
8
BLACK
6
CONTINUOUS
10
2.87053
20
3.50526
11
2.85906
21
3.49771
0
LINE
8
BLACK
6
CONTINUOUS
10
2.85906
20
3.49771
11
2.84678
21
3.49155
0
LINE
8
BLACK
6
CONTINUOUS
10
2.84678
20
3.49155
11
2.83387
21
3.48685
0
LINE
8
BLACK
6
CONTINUOUS
10
2.83387
20
3.48685
11
2.82051
21
3.48368
0
LINE
8
BLACK
6
CONTINUOUS
10
2.82051
20
3.48368
11
2.80687
21
3.48209
0
LINE
8
BLACK
6
CONTINUOUS
10
2.80687
20
3.48209
11
2.79313
21
3.48209
0
LINE
8
BLACK
6
CONTINUOUS
10
2.79313
20
3.48209
11
2.77949
21
3.48368
0
LINE
8
BLACK
6
CONTINUOUS
10
2.77949
20
3.48368
11
2.76613
21
3.48685
0
LINE
8
BLACK
6
CONTINUOUS
10
2.76613
20
3.48685
11
2.75322
21
3.49155
0
LINE
8
BLACK
6
CONTINUOUS
10
2.75322
20
3.49155
11
2.74094
21
3.49771
0
LINE
8
BLACK
6
CONTINUOUS
10
2.74094
20
3.49771
11
2.72947
21
3.50526
0
LINE
8
BLACK
6
CONTINUOUS
10
2.72947
20
3.50526
11
2.71895
21
3.51409
0
LINE
8
BLACK
6
CONTINUOUS
10
2.71895
20
3.51409
11
2.70952
21
3.52408
0
LINE
8
BLACK
6
CONTINUOUS
10
2.70952
20
3.52408
11
2.70132
21
3.5351
0
LINE
8
BLACK
6
CONTINUOUS
10
2.70132
20
3.5351
11
2.69445
21
3.54699
0
LINE
8
BLACK
6
CONTINUOUS
10
2.69445
20
3.54699
11
2.68901
21
3.5596
0
LINE
8
BLACK
6
CONTINUOUS
10
2.68901
20
3.5596
11
2.68507
21
3.57276
0
LINE
8
BLACK
6
CONTINUOUS
10
2.68507
20
3.57276
11
2.68269
21
3.58629
0
LINE
8
BLACK
6
CONTINUOUS
10
2.68269
20
3.58629
11
2.68189
21
3.6
0
LINE
8
BLACK
6
CONTINUOUS
10
2.68189
20
3.6
11
2.68269
21
3.61371
0
LINE
8
BLACK
6
CONTINUOUS
10
2.68269
20
3.61371
11
2.68507
21
3.62724
0
LINE
8
BLACK
6
CONTINUOUS
10
2.68507
20
3.62724
11
2.68901
21
3.6404
0
LINE
8
BLACK
6
CONTINUOUS
10
2.68901
20
3.6404
11
2.69445
21
3.65301
0
LINE
8
BLACK
6
CONTINUOUS
10
2.69445
20
3.65301
11
2.70132
21
3.6649
0
LINE
8
BLACK
6
CONTINUOUS
10
2.70132
20
3.6649
11
2.70952
21
3.67592
0
LINE
8
BLACK
6
CONTINUOUS
10
2.70952
20
3.67592
11
2.71895
21
3.68591
0
LINE
8
BLACK
6
CONTINUOUS
10
2.71895
20
3.68591
11
2.72947
21
3.69474
0
LINE
8
BLACK
6
CONTINUOUS
10
2.72947
20
3.69474
11
2.74094
21
3.70229
0
LINE
8
BLACK
6
CONTINUOUS
10
2.74094
20
3.70229
11
2.75322
21
3.70845
0
LINE
8
BLACK
6
CONTINUOUS
10
2.75322
20
3.70845
11
2.76613
21
3.71315
0
LINE
8
BLACK
6
CONTINUOUS
10
2.76613
20
3.71315
11
2.77949
21
3.71632
0
LINE
8
BLACK
6
CONTINUOUS
10
2.77949
20
3.71632
11
2.79313
21
3.71791
0
LINE
8
BLACK
6
CONTINUOUS
10
2.79313
20
3.71791
11
2.80687
21
3.71791
0
LINE
8
BLACK
6
CONTINUOUS
10
2.80687
20
3.71791
11
2.82051
21
3.71632
0
LINE
8
BLACK
6
CONTINUOUS
10
1.35151
20
3.58875
11
1.35964
21
3.5856
0
LINE
8
BLACK
6
CONTINUOUS
10
1.35964
20
3.5856
11
1.36705
21
3.58101
0
LINE
8
BLACK
6
CONTINUOUS
10
1.36705
20
3.58101
11
1.3735
21
3.57514
0
LINE
8
BLACK
6
CONTINUOUS
10
1.3735
20
3.57514
11
1.37875
21
3.56818
0
LINE
8
BLACK
6
CONTINUOUS
10
1.37875
20
3.56818
11
1.38264
21
3.56037
0
LINE
8
BLACK
6
CONTINUOUS
10
1.38264
20
3.56037
11
1.38502
21
3.55199
0
LINE
8
BLACK
6
CONTINUOUS
10
1.38502
20
3.55199
11
1.38583
21
3.54331
0
LINE
8
BLACK
6
CONTINUOUS
10
1.38583
20
3.54331
11
1.38502
21
3.53463
0
LINE
8
BLACK
6
CONTINUOUS
10
1.38502
20
3.53463
11
1.38264
21
3.52624
0
LINE
8
BLACK
6
CONTINUOUS
10
1.38264
20
3.52624
11
1.37875
21
3.51844
0
LINE
8
BLACK
6
CONTINUOUS
10
1.37875
20
3.51844
11
1.3735
21
3.51148
0
LINE
8
BLACK
6
CONTINUOUS
10
1.3735
20
3.51148
11
1.36705
21
3.50561
0
LINE
8
BLACK
6
CONTINUOUS
10
1.36705
20
3.50561
11
1.35964
21
3.50102
0
LINE
8
BLACK
6
CONTINUOUS
10
1.35964
20
3.50102
11
1.35151
21
3.49787
0
LINE
8
BLACK
6
CONTINUOUS
10
1.35151
20
3.49787
11
1.34294
21
3.49626
0
LINE
8
BLACK
6
CONTINUOUS
10
1.34294
20
3.49626
11
1.33422
21
3.49626
0
LINE
8
BLACK
6
CONTINUOUS
10
1.33422
20
3.49626
11
1.32565
21
3.49787
0
LINE
8
BLACK
6
CONTINUOUS
10
1.32565
20
3.49787
11
1.31752
21
3.50102
0
LINE
8
BLACK
6
CONTINUOUS
10
1.31752
20
3.50102
11
1.31011
21
3.50561
0
LINE
8
BLACK
6
CONTINUOUS
10
1.31011
20
3.50561
11
1.30367
21
3.51148
0
LINE
8
BLACK
6
CONTINUOUS
10
1.30367
20
3.51148
11
1.29841
21
3.51844
0
LINE
8
BLACK
6
CONTINUOUS
10
1.29841
20
3.51844
11
1.29453
21
3.52624
0
LINE
8
BLACK
6
CONTINUOUS
10
1.29453
20
3.52624
11
1.29214
21
3.53463
0
LINE
8
BLACK
6
CONTINUOUS
10
1.29214
20
3.53463
11
1.29134
21
3.54331
0
LINE
8
BLACK
6
CONTINUOUS
10
1.29134
20
3.54331
11
1.29214
21
3.55199
0
LINE
8
BLACK
6
CONTINUOUS
10
1.29214
20
3.55199
11
1.29453
21
3.56037
0
LINE
8
BLACK
6
CONTINUOUS
10
1.29453
20
3.56037
11
1.29841
21
3.56818
0
LINE
8
BLACK
6
CONTINUOUS
10
1.29841
20
3.56818
11
1.30367
21
3.57514
0
LINE
8
BLACK
6
CONTINUOUS
10
1.30367
20
3.57514
11
1.31011
21
3.58101
0
LINE
8
BLACK
6
CONTINUOUS
10
1.31011
20
3.58101
11
1.31752
21
3.5856
0
LINE
8
BLACK
6
CONTINUOUS
10
1.31752
20
3.5856
11
1.32565
21
3.58875
0
LINE
8
BLACK
6
CONTINUOUS
10
1.32565
20
3.58875
11
1.33422
21
3.59035
0
LINE
8
BLACK
6
CONTINUOUS
10
1.33422
20
3.59035
11
1.34294
21
3.59035
0
LINE
8
BLACK
6
CONTINUOUS
10
1.34294
20
3.59035
11
1.35151
21
3.58875
0
LINE
8
BLACK
6
CONTINUOUS
10
1.54836
20
3.58875
11
1.55649
21
3.5856
0
LINE
8
BLACK
6
CONTINUOUS
10
1.55649
20
3.5856
11
1.5639
21
3.58101
0
LINE
8
BLACK
6
CONTINUOUS
10
1.5639
20
3.58101
11
1.57035
21
3.57514
0
LINE
8
BLACK
6
CONTINUOUS
10
1.57035
20
3.57514
11
1.5756
21
3.56818
0
LINE
8
BLACK
6
CONTINUOUS
10
1.5756
20
3.56818
11
1.57949
21
3.56037
0
LINE
8
BLACK
6
CONTINUOUS
10
1.57949
20
3.56037
11
1.58187
21
3.55199
0
LINE
8
BLACK
6
CONTINUOUS
10
1.58187
20
3.55199
11
1.58268
21
3.54331
0
LINE
8
BLACK
6
CONTINUOUS
10
1.58268
20
3.54331
11
1.58187
21
3.53463
0
LINE
8
BLACK
6
CONTINUOUS
10
1.58187
20
3.53463
11
1.57949
21
3.52624
0
LINE
8
BLACK
6
CONTINUOUS
10
1.57949
20
3.52624
11
1.5756
21
3.51844
0
LINE
8
BLACK
6
CONTINUOUS
10
1.5756
20
3.51844
11
1.57035
21
3.51148
0
LINE
8
BLACK
6
CONTINUOUS
10
1.57035
20
3.51148
11
1.5639
21
3.50561
0
LINE
8
BLACK
6
CONTINUOUS
10
1.5639
20
3.50561
11
1.55649
21
3.50102
0
LINE
8
BLACK
6
CONTINUOUS
10
1.55649
20
3.50102
11
1.54836
21
3.49787
0
LINE
8
BLACK
6
CONTINUOUS
10
1.54836
20
3.49787
11
1.53979
21
3.49626
0
LINE
8
BLACK
6
CONTINUOUS
10
1.53979
20
3.49626
11
1.53107
21
3.49626
0
LINE
8
BLACK
6
CONTINUOUS
10
1.53107
20
3.49626
11
1.5225
21
3.49787
0
LINE
8
BLACK
6
CONTINUOUS
10
1.5225
20
3.49787
11
1.51437
21
3.50102
0
LINE
8
BLACK
6
CONTINUOUS
10
1.51437
20
3.50102
11
1.50696
21
3.50561
0
LINE
8
BLACK
6
CONTINUOUS
10
1.50696
20
3.50561
11
1.50052
21
3.51148
0
LINE
8
BLACK
6
CONTINUOUS
10
1.50052
20
3.51148
11
1.49527
21
3.51844
0
LINE
8
BLACK
6
CONTINUOUS
10
1.49527
20
3.51844
11
1.49138
21
3.52624
0
LINE
8
BLACK
6
CONTINUOUS
10
1.49138
20
3.52624
11
1.48899
21
3.53463
0
LINE
8
BLACK
6
CONTINUOUS
10
1.48899
20
3.53463
11
1.48819
21
3.54331
0
LINE
8
BLACK
6
CONTINUOUS
10
1.48819
20
3.54331
11
1.48899
21
3.55199
0
LINE
8
BLACK
6
CONTINUOUS
10
1.48899
20
3.55199
11
1.49138
21
3.56037
0
LINE
8
BLACK
6
CONTINUOUS
10
1.49138
20
3.56037
11
1.49527
21
3.56818
0
LINE
8
BLACK
6
CONTINUOUS
10
1.49527
20
3.56818
11
1.50052
21
3.57514
0
LINE
8
BLACK
6
CONTINUOUS
10
1.50052
20
3.57514
11
1.50696
21
3.58101
0
LINE
8
BLACK
6
CONTINUOUS
10
1.50696
20
3.58101
11
1.51437
21
3.5856
0
LINE
8
BLACK
6
CONTINUOUS
10
1.51437
20
3.5856
11
1.5225
21
3.58875
0
LINE
8
BLACK
6
CONTINUOUS
10
1.5225
20
3.58875
11
1.53107
21
3.59035
0
LINE
8
BLACK
6
CONTINUOUS
10
1.53107
20
3.59035
11
1.53979
21
3.59035
0
LINE
8
BLACK
6
CONTINUOUS
10
1.53979
20
3.59035
11
1.54836
21
3.58875
  0
ENDSEC
  0
EOF
