  0
SECTION
  2
HEADER
  9
$ANGBASE
  50
0.0
  9
$ANGDIR
  70
1
  9
$MEASUREMENT
  70
0
  0
ENDSEC
  0
SECTION
  2
TABLES
  0
TABLE
  2
LTYPE
  70
4
  0
LTYPE
  5
40F
  2
CONTINUOUS
  70
0
  3
Solid line
  72
65
  73
0
  40
0.0
  0
LTYPE
  5
410
  2
DASHDOT
 70
0
  3
Dash Dot ____ _ ____ _
 72
65
 73
4
 40
2.0
 49
1.25
 49
-0.25
 49
0.25
 49
-0.25
  0
LTYPE
  5
411
  2
DASHED
 70
0
  3
Dashed __ __ __ __ __
 72
65
 73
2
 40
0.75
 49
0.5
 49
-0.25
  0
LTYPE
  5
43B
  2
DOTTED
 70
0
  3
Dotted .  .  .  .
 72
65
 73
2
 40
0.2
 49
0.0
 49
-0.2
  0
ENDTAB
  0
TABLE
  2
STYLE
  70
4
  0
STYLE
  2
KICAD
  70
0
  40
0
  41
1
  42
1
  50
0
  71
0
  3
isocp.shx
  0
STYLE
  2
KICADB
  70
0
  40
0
  41
1
  42
1
  50
0
  71
0
  3
isocp.shx
  0
STYLE
  2
KICADI
  70
0
  40
0
  41
1
  42
1
  50
15
  71
0
  3
isocp.shx
  0
STYLE
  2
KICADBI
  70
0
  40
0
  41
1
  42
1
  50
15
  71
0
  3
isocp.shx
  0
ENDTAB
  0
TABLE
  2
LAYER
  70
1
  0
LAYER
  2
BLACK
  70
0
  62
7
  6
CONTINUOUS
  0
ENDTAB
  0
ENDSEC
  0
SECTION
  2
ENTITIES
0
LINE
8
BLACK
6
CONTINUOUS
10
3.02684
20
2.06903
11
3.02697
21
2.06905
0
LINE
8
BLACK
6
CONTINUOUS
10
3.02697
20
2.06905
11
3.02708
21
2.06898
0
LINE
8
BLACK
6
CONTINUOUS
10
3.02708
20
2.06898
11
3.02747
21
2.06892
0
LINE
8
BLACK
6
CONTINUOUS
10
3.02747
20
2.06892
11
3.02805
21
2.06842
0
LINE
8
BLACK
6
CONTINUOUS
10
3.02805
20
2.06842
11
3.02872
21
2.06804
0
LINE
8
BLACK
6
CONTINUOUS
10
3.02872
20
2.06804
11
3.02881
21
2.06779
0
LINE
8
BLACK
6
CONTINUOUS
10
3.02881
20
2.06779
11
3.02901
21
2.06762
0
LINE
8
BLACK
6
CONTINUOUS
10
3.02901
20
2.06762
11
3.02915
21
2.06686
0
LINE
8
BLACK
6
CONTINUOUS
10
3.02915
20
2.06686
11
3.02941
21
2.06614
0
LINE
8
BLACK
6
CONTINUOUS
10
3.02941
20
2.06614
11
3.02941
21
-1.51386
0
LINE
8
BLACK
6
CONTINUOUS
10
3.02941
20
-1.51386
11
3.02934
21
-1.51424
0
LINE
8
BLACK
6
CONTINUOUS
10
3.02934
20
-1.51424
11
3.02936
21
-1.51437
0
LINE
8
BLACK
6
CONTINUOUS
10
3.02936
20
-1.51437
11
3.0293
21
-1.51448
0
LINE
8
BLACK
6
CONTINUOUS
10
3.0293
20
-1.51448
11
3.02923
21
-1.51487
0
LINE
8
BLACK
6
CONTINUOUS
10
3.02923
20
-1.51487
11
3.02874
21
-1.51546
0
LINE
8
BLACK
6
CONTINUOUS
10
3.02874
20
-1.51546
11
3.02835
21
-1.51612
0
LINE
8
BLACK
6
CONTINUOUS
10
3.02835
20
-1.51612
11
3.0281
21
-1.51621
0
LINE
8
BLACK
6
CONTINUOUS
10
3.0281
20
-1.51621
11
3.02793
21
-1.51642
0
LINE
8
BLACK
6
CONTINUOUS
10
3.02793
20
-1.51642
11
3.02718
21
-1.51655
0
LINE
8
BLACK
6
CONTINUOUS
10
3.02718
20
-1.51655
11
3.02646
21
-1.51681
0
LINE
8
BLACK
6
CONTINUOUS
10
3.02646
20
-1.51681
11
-0.153543
21
-1.51681
0
LINE
8
BLACK
6
CONTINUOUS
10
-0.153543
20
-1.51681
11
-0.153927
21
-1.51674
0
LINE
8
BLACK
6
CONTINUOUS
10
-0.153927
20
-1.51674
11
-0.154056
21
-1.51677
0
LINE
8
BLACK
6
CONTINUOUS
10
-0.154056
20
-1.51677
11
-0.15417
21
-1.5167
0
LINE
8
BLACK
6
CONTINUOUS
10
-0.15417
20
-1.5167
11
-0.154553
21
-1.51663
0
LINE
8
BLACK
6
CONTINUOUS
10
-0.154553
20
-1.51663
11
-0.155141
21
-1.51614
0
LINE
8
BLACK
6
CONTINUOUS
10
-0.155141
20
-1.51614
11
-0.155805
21
-1.51576
0
LINE
8
BLACK
6
CONTINUOUS
10
-0.155805
20
-1.51576
11
-0.155896
21
-1.51551
0
LINE
8
BLACK
6
CONTINUOUS
10
-0.155896
20
-1.51551
11
-0.1561
21
-1.51533
0
LINE
8
BLACK
6
CONTINUOUS
10
-0.1561
20
-1.51533
11
-0.156234
21
-1.51458
0
LINE
8
BLACK
6
CONTINUOUS
10
-0.156234
20
-1.51458
11
-0.156496
21
-1.51386
0
LINE
8
BLACK
6
CONTINUOUS
10
-0.156496
20
-1.51386
11
-0.156496
21
2.06614
0
LINE
8
BLACK
6
CONTINUOUS
10
-0.156496
20
2.06614
11
-0.156428
21
2.06653
0
LINE
8
BLACK
6
CONTINUOUS
10
-0.156428
20
2.06653
11
-0.156451
21
2.06665
0
LINE
8
BLACK
6
CONTINUOUS
10
-0.156451
20
2.06665
11
-0.156386
21
2.06677
0
LINE
8
BLACK
6
CONTINUOUS
10
-0.156386
20
2.06677
11
-0.156318
21
2.06715
0
LINE
8
BLACK
6
CONTINUOUS
10
-0.156318
20
2.06715
11
-0.155825
21
2.06774
0
LINE
8
BLACK
6
CONTINUOUS
10
-0.155825
20
2.06774
11
-0.155441
21
2.0684
0
LINE
8
BLACK
6
CONTINUOUS
10
-0.155441
20
2.0684
11
-0.155191
21
2.06849
0
LINE
8
BLACK
6
CONTINUOUS
10
-0.155191
20
2.06849
11
-0.15502
21
2.0687
0
LINE
8
BLACK
6
CONTINUOUS
10
-0.15502
20
2.0687
11
-0.154264
21
2.06883
0
LINE
8
BLACK
6
CONTINUOUS
10
-0.154264
20
2.06883
11
-0.153543
21
2.06909
0
LINE
8
BLACK
6
CONTINUOUS
10
-0.153543
20
2.06909
11
3.02646
21
2.06909
0
LINE
8
BLACK
6
CONTINUOUS
10
3.02646
20
2.06909
11
3.02684
21
2.06903
0
LINE
8
BLACK
6
CONTINUOUS
10
-0.150591
20
2.06319
11
-0.150591
21
-1.51091
0
LINE
8
BLACK
6
CONTINUOUS
10
-0.150591
20
-1.51091
11
3.0235
21
-1.51091
0
LINE
8
BLACK
6
CONTINUOUS
10
3.0235
20
-1.51091
11
3.0235
21
2.06319
0
LINE
8
BLACK
6
CONTINUOUS
10
3.0235
20
2.06319
11
-0.150591
21
2.06319
  0
ENDSEC
  0
EOF
