  0
SECTION
  2
HEADER
  9
$ANGBASE
  50
0.0
  9
$ANGDIR
  70
1
  9
$MEASUREMENT
  70
0
  0
ENDSEC
  0
SECTION
  2
TABLES
  0
TABLE
  2
LTYPE
  70
4
  0
LTYPE
  5
40F
  2
CONTINUOUS
  70
0
  3
Solid line
  72
65
  73
0
  40
0.0
  0
LTYPE
  5
410
  2
DASHDOT
 70
0
  3
Dash Dot ____ _ ____ _
 72
65
 73
4
 40
2.0
 49
1.25
 49
-0.25
 49
0.25
 49
-0.25
  0
LTYPE
  5
411
  2
DASHED
 70
0
  3
Dashed __ __ __ __ __
 72
65
 73
2
 40
0.75
 49
0.5
 49
-0.25
  0
LTYPE
  5
43B
  2
DOTTED
 70
0
  3
Dotted .  .  .  .
 72
65
 73
2
 40
0.2
 49
0.0
 49
-0.2
  0
ENDTAB
  0
TABLE
  2
STYLE
  70
4
  0
STYLE
  2
KICAD
  70
0
  40
0
  41
1
  42
1
  50
0
  71
0
  3
isocp.shx
  0
STYLE
  2
KICADB
  70
0
  40
0
  41
1
  42
1
  50
0
  71
0
  3
isocp.shx
  0
STYLE
  2
KICADI
  70
0
  40
0
  41
1
  42
1
  50
15
  71
0
  3
isocp.shx
  0
STYLE
  2
KICADBI
  70
0
  40
0
  41
1
  42
1
  50
15
  71
0
  3
isocp.shx
  0
ENDTAB
  0
TABLE
  2
LAYER
  70
1
  0
LAYER
  2
BLACK
  70
0
  62
7
  6
CONTINUOUS
  0
ENDTAB
  0
ENDSEC
  0
SECTION
  2
ENTITIES
0
LINE
8
BLACK
6
CONTINUOUS
10
0.411956
20
0.372733
11
0.412648
21
0.371063
0
LINE
8
BLACK
6
CONTINUOUS
10
0.412648
20
0.371063
11
0.411956
21
0.369393
0
LINE
8
BLACK
6
CONTINUOUS
10
0.411956
20
0.369393
11
0.410286
21
0.368701
0
LINE
8
BLACK
6
CONTINUOUS
10
0.410286
20
0.368701
11
0.389714
21
0.368701
0
LINE
8
BLACK
6
CONTINUOUS
10
0.389714
20
0.368701
11
0.388044
21
0.369393
0
LINE
8
BLACK
6
CONTINUOUS
10
0.388044
20
0.369393
11
0.387352
21
0.371063
0
LINE
8
BLACK
6
CONTINUOUS
10
0.387352
20
0.371063
11
0.388044
21
0.372733
0
LINE
8
BLACK
6
CONTINUOUS
10
0.388044
20
0.372733
11
0.389714
21
0.373425
0
LINE
8
BLACK
6
CONTINUOUS
10
0.389714
20
0.373425
11
0.410286
21
0.373425
0
LINE
8
BLACK
6
CONTINUOUS
10
0.410286
20
0.373425
11
0.411956
21
0.372733
0
LINE
8
BLACK
6
CONTINUOUS
10
0.411956
20
0.430607
11
0.412648
21
0.428937
0
LINE
8
BLACK
6
CONTINUOUS
10
0.412648
20
0.428937
11
0.411956
21
0.427267
0
LINE
8
BLACK
6
CONTINUOUS
10
0.411956
20
0.427267
11
0.410286
21
0.426575
0
LINE
8
BLACK
6
CONTINUOUS
10
0.410286
20
0.426575
11
0.389714
21
0.426575
0
LINE
8
BLACK
6
CONTINUOUS
10
0.389714
20
0.426575
11
0.388044
21
0.427267
0
LINE
8
BLACK
6
CONTINUOUS
10
0.388044
20
0.427267
11
0.387352
21
0.428937
0
LINE
8
BLACK
6
CONTINUOUS
10
0.387352
20
0.428937
11
0.388044
21
0.430607
0
LINE
8
BLACK
6
CONTINUOUS
10
0.388044
20
0.430607
11
0.389714
21
0.431299
0
LINE
8
BLACK
6
CONTINUOUS
10
0.389714
20
0.431299
11
0.410286
21
0.431299
0
LINE
8
BLACK
6
CONTINUOUS
10
0.410286
20
0.431299
11
0.411956
21
0.430607
0
LINE
8
BLACK
6
CONTINUOUS
10
0.41868
20
0.490501
11
0.418744
21
0.490503
0
LINE
8
BLACK
6
CONTINUOUS
10
0.418744
20
0.490503
11
0.424368
21
0.488628
0
LINE
8
BLACK
6
CONTINUOUS
10
0.424368
20
0.488628
11
0.42527
21
0.48814
0
LINE
8
BLACK
6
CONTINUOUS
10
0.42527
20
0.48814
11
0.425363
21
0.487989
0
LINE
8
BLACK
6
CONTINUOUS
10
0.425363
20
0.487989
11
0.425522
21
0.487915
0
LINE
8
BLACK
6
CONTINUOUS
10
0.425522
20
0.487915
11
0.429272
21
0.484165
0
LINE
8
BLACK
6
CONTINUOUS
10
0.429272
20
0.484165
11
0.429778
21
0.483442
0
LINE
8
BLACK
6
CONTINUOUS
10
0.429778
20
0.483442
11
0.429825
21
0.483398
0
LINE
8
BLACK
6
CONTINUOUS
10
0.429825
20
0.483398
11
0.4317
21
0.479648
0
LINE
8
BLACK
6
CONTINUOUS
10
0.4317
20
0.479648
11
0.431845
21
0.47916
0
LINE
8
BLACK
6
CONTINUOUS
10
0.431845
20
0.47916
11
0.431923
21
0.479044
0
LINE
8
BLACK
6
CONTINUOUS
10
0.431923
20
0.479044
11
0.433798
21
0.471545
0
LINE
8
BLACK
6
CONTINUOUS
10
0.433798
20
0.471545
11
0.43384
21
0.470957
0
LINE
8
BLACK
6
CONTINUOUS
10
0.43384
20
0.470957
11
0.433886
21
0.470829
0
LINE
8
BLACK
6
CONTINUOUS
10
0.433886
20
0.470829
11
0.433886
21
0.465204
0
LINE
8
BLACK
6
CONTINUOUS
10
0.433886
20
0.465204
11
0.433784
21
0.464624
0
LINE
8
BLACK
6
CONTINUOUS
10
0.433784
20
0.464624
11
0.433798
21
0.464488
0
LINE
8
BLACK
6
CONTINUOUS
10
0.433798
20
0.464488
11
0.431923
21
0.456989
0
LINE
8
BLACK
6
CONTINUOUS
10
0.431923
20
0.456989
11
0.431716
21
0.456524
0
LINE
8
BLACK
6
CONTINUOUS
10
0.431716
20
0.456524
11
0.4317
21
0.456385
0
LINE
8
BLACK
6
CONTINUOUS
10
0.4317
20
0.456385
11
0.429825
21
0.452635
0
LINE
8
BLACK
6
CONTINUOUS
10
0.429825
20
0.452635
11
0.429299
21
0.451926
0
LINE
8
BLACK
6
CONTINUOUS
10
0.429299
20
0.451926
11
0.429272
21
0.451868
0
LINE
8
BLACK
6
CONTINUOUS
10
0.429272
20
0.451868
11
0.425522
21
0.448118
0
LINE
8
BLACK
6
CONTINUOUS
10
0.425522
20
0.448118
11
0.424682
21
0.44753
0
LINE
8
BLACK
6
CONTINUOUS
10
0.424682
20
0.44753
11
0.424507
21
0.447515
0
LINE
8
BLACK
6
CONTINUOUS
10
0.424507
20
0.447515
11
0.424368
21
0.447405
0
LINE
8
BLACK
6
CONTINUOUS
10
0.424368
20
0.447405
11
0.418744
21
0.44553
0
LINE
8
BLACK
6
CONTINUOUS
10
0.418744
20
0.44553
11
0.417871
21
0.445401
0
LINE
8
BLACK
6
CONTINUOUS
10
0.417871
20
0.445401
11
0.41781
21
0.445379
0
LINE
8
BLACK
6
CONTINUOUS
10
0.41781
20
0.445379
11
0.414061
21
0.445379
0
LINE
8
BLACK
6
CONTINUOUS
10
0.414061
20
0.445379
11
0.413191
21
0.445532
0
LINE
8
BLACK
6
CONTINUOUS
10
0.413191
20
0.445532
11
0.413127
21
0.44553
0
LINE
8
BLACK
6
CONTINUOUS
10
0.413127
20
0.44553
11
0.407503
21
0.447405
0
LINE
8
BLACK
6
CONTINUOUS
10
0.407503
20
0.447405
11
0.406601
21
0.447893
0
LINE
8
BLACK
6
CONTINUOUS
10
0.406601
20
0.447893
11
0.406509
21
0.448044
0
LINE
8
BLACK
6
CONTINUOUS
10
0.406509
20
0.448044
11
0.406349
21
0.448118
0
LINE
8
BLACK
6
CONTINUOUS
10
0.406349
20
0.448118
11
0.404474
21
0.449993
0
LINE
8
BLACK
6
CONTINUOUS
10
0.404474
20
0.449993
11
0.403886
21
0.450833
0
LINE
8
BLACK
6
CONTINUOUS
10
0.403886
20
0.450833
11
0.403709
21
0.452845
0
LINE
8
BLACK
6
CONTINUOUS
10
0.403709
20
0.452845
11
0.404868
21
0.4545
0
LINE
8
BLACK
6
CONTINUOUS
10
0.404868
20
0.4545
11
0.406819
21
0.455023
0
LINE
8
BLACK
6
CONTINUOUS
10
0.406819
20
0.455023
11
0.40865
21
0.454169
0
LINE
8
BLACK
6
CONTINUOUS
10
0.40865
20
0.454169
11
0.410031
21
0.452787
0
LINE
8
BLACK
6
CONTINUOUS
10
0.410031
20
0.452787
11
0.41454
21
0.451284
0
LINE
8
BLACK
6
CONTINUOUS
10
0.41454
20
0.451284
11
0.417331
21
0.451284
0
LINE
8
BLACK
6
CONTINUOUS
10
0.417331
20
0.451284
11
0.42184
21
0.452787
0
LINE
8
BLACK
6
CONTINUOUS
10
0.42184
20
0.452787
11
0.424757
21
0.455705
0
LINE
8
BLACK
6
CONTINUOUS
10
0.424757
20
0.455705
11
0.426273
21
0.458736
0
LINE
8
BLACK
6
CONTINUOUS
10
0.426273
20
0.458736
11
0.427981
21
0.465568
0
LINE
8
BLACK
6
CONTINUOUS
10
0.427981
20
0.465568
11
0.427981
21
0.470465
0
LINE
8
BLACK
6
CONTINUOUS
10
0.427981
20
0.470465
11
0.426273
21
0.477297
0
LINE
8
BLACK
6
CONTINUOUS
10
0.426273
20
0.477297
11
0.424757
21
0.480328
0
LINE
8
BLACK
6
CONTINUOUS
10
0.424757
20
0.480328
11
0.42184
21
0.483246
0
LINE
8
BLACK
6
CONTINUOUS
10
0.42184
20
0.483246
11
0.417331
21
0.484749
0
LINE
8
BLACK
6
CONTINUOUS
10
0.417331
20
0.484749
11
0.41454
21
0.484749
0
LINE
8
BLACK
6
CONTINUOUS
10
0.41454
20
0.484749
11
0.410031
21
0.483246
0
LINE
8
BLACK
6
CONTINUOUS
10
0.410031
20
0.483246
11
0.40865
21
0.481864
0
LINE
8
BLACK
6
CONTINUOUS
10
0.40865
20
0.481864
11
0.40781
21
0.481276
0
LINE
8
BLACK
6
CONTINUOUS
10
0.40781
20
0.481276
11
0.405797
21
0.4811
0
LINE
8
BLACK
6
CONTINUOUS
10
0.405797
20
0.4811
11
0.404143
21
0.482258
0
LINE
8
BLACK
6
CONTINUOUS
10
0.404143
20
0.482258
11
0.40362
21
0.484209
0
LINE
8
BLACK
6
CONTINUOUS
10
0.40362
20
0.484209
11
0.404474
21
0.48604
0
LINE
8
BLACK
6
CONTINUOUS
10
0.404474
20
0.48604
11
0.406349
21
0.487915
0
LINE
8
BLACK
6
CONTINUOUS
10
0.406349
20
0.487915
11
0.407189
21
0.488503
0
LINE
8
BLACK
6
CONTINUOUS
10
0.407189
20
0.488503
11
0.407364
21
0.488518
0
LINE
8
BLACK
6
CONTINUOUS
10
0.407364
20
0.488518
11
0.407503
21
0.488628
0
LINE
8
BLACK
6
CONTINUOUS
10
0.407503
20
0.488628
11
0.413127
21
0.490503
0
LINE
8
BLACK
6
CONTINUOUS
10
0.413127
20
0.490503
11
0.414
21
0.490632
0
LINE
8
BLACK
6
CONTINUOUS
10
0.414
20
0.490632
11
0.414061
21
0.490654
0
LINE
8
BLACK
6
CONTINUOUS
10
0.414061
20
0.490654
11
0.41781
21
0.490654
0
LINE
8
BLACK
6
CONTINUOUS
10
0.41781
20
0.490654
11
0.41868
21
0.490501
0
LINE
8
BLACK
6
CONTINUOUS
10
0.380975
20
0.490525
11
0.381144
21
0.490535
0
LINE
8
BLACK
6
CONTINUOUS
10
0.381144
20
0.490535
11
0.381835
21
0.490028
0
LINE
8
BLACK
6
CONTINUOUS
10
0.381835
20
0.490028
11
0.382577
21
0.4896
0
LINE
8
BLACK
6
CONTINUOUS
10
0.382577
20
0.4896
11
0.382635
21
0.48944
0
LINE
8
BLACK
6
CONTINUOUS
10
0.382635
20
0.48944
11
0.382772
21
0.489339
0
LINE
8
BLACK
6
CONTINUOUS
10
0.382772
20
0.489339
11
0.386359
21
0.483958
0
LINE
8
BLACK
6
CONTINUOUS
10
0.386359
20
0.483958
11
0.389563
21
0.480754
0
LINE
8
BLACK
6
CONTINUOUS
10
0.389563
20
0.480754
11
0.392884
21
0.479094
0
LINE
8
BLACK
6
CONTINUOUS
10
0.392884
20
0.479094
11
0.393708
21
0.478483
0
LINE
8
BLACK
6
CONTINUOUS
10
0.393708
20
0.478483
11
0.394511
21
0.47663
0
LINE
8
BLACK
6
CONTINUOUS
10
0.394511
20
0.47663
11
0.393935
21
0.474694
0
LINE
8
BLACK
6
CONTINUOUS
10
0.393935
20
0.474694
11
0.39225
21
0.473581
0
LINE
8
BLACK
6
CONTINUOUS
10
0.39225
20
0.473581
11
0.390243
21
0.473812
0
LINE
8
BLACK
6
CONTINUOUS
10
0.390243
20
0.473812
11
0.386494
21
0.475687
0
LINE
8
BLACK
6
CONTINUOUS
10
0.386494
20
0.475687
11
0.385784
21
0.476213
0
LINE
8
BLACK
6
CONTINUOUS
10
0.385784
20
0.476213
11
0.385726
21
0.47624
0
LINE
8
BLACK
6
CONTINUOUS
10
0.385726
20
0.47624
11
0.383268
21
0.478698
0
LINE
8
BLACK
6
CONTINUOUS
10
0.383268
20
0.478698
11
0.383268
21
0.451284
0
LINE
8
BLACK
6
CONTINUOUS
10
0.383268
20
0.451284
11
0.391564
21
0.451284
0
LINE
8
BLACK
6
CONTINUOUS
10
0.391564
20
0.451284
11
0.392573
21
0.451106
0
LINE
8
BLACK
6
CONTINUOUS
10
0.392573
20
0.451106
11
0.394121
21
0.449808
0
LINE
8
BLACK
6
CONTINUOUS
10
0.394121
20
0.449808
11
0.394471
21
0.447819
0
LINE
8
BLACK
6
CONTINUOUS
10
0.394471
20
0.447819
11
0.393462
21
0.44607
0
LINE
8
BLACK
6
CONTINUOUS
10
0.393462
20
0.44607
11
0.391564
21
0.445379
0
LINE
8
BLACK
6
CONTINUOUS
10
0.391564
20
0.445379
11
0.369066
21
0.445379
0
LINE
8
BLACK
6
CONTINUOUS
10
0.369066
20
0.445379
11
0.368056
21
0.445557
0
LINE
8
BLACK
6
CONTINUOUS
10
0.368056
20
0.445557
11
0.366509
21
0.446855
0
LINE
8
BLACK
6
CONTINUOUS
10
0.366509
20
0.446855
11
0.366158
21
0.448844
0
LINE
8
BLACK
6
CONTINUOUS
10
0.366158
20
0.448844
11
0.367168
21
0.450593
0
LINE
8
BLACK
6
CONTINUOUS
10
0.367168
20
0.450593
11
0.369066
21
0.451284
0
LINE
8
BLACK
6
CONTINUOUS
10
0.369066
20
0.451284
11
0.377362
21
0.451284
0
LINE
8
BLACK
6
CONTINUOUS
10
0.377362
20
0.451284
11
0.377362
21
0.487702
0
LINE
8
BLACK
6
CONTINUOUS
10
0.377362
20
0.487702
11
0.37754
21
0.488711
0
LINE
8
BLACK
6
CONTINUOUS
10
0.37754
20
0.488711
11
0.377649
21
0.488842
0
LINE
8
BLACK
6
CONTINUOUS
10
0.377649
20
0.488842
11
0.377668
21
0.48901
0
LINE
8
BLACK
6
CONTINUOUS
10
0.377668
20
0.48901
11
0.378288
21
0.489602
0
LINE
8
BLACK
6
CONTINUOUS
10
0.378288
20
0.489602
11
0.378839
21
0.490259
0
LINE
8
BLACK
6
CONTINUOUS
10
0.378839
20
0.490259
11
0.379006
21
0.490288
0
LINE
8
BLACK
6
CONTINUOUS
10
0.379006
20
0.490288
11
0.379129
21
0.490406
0
LINE
8
BLACK
6
CONTINUOUS
10
0.379129
20
0.490406
11
0.379984
21
0.490461
0
LINE
8
BLACK
6
CONTINUOUS
10
0.379984
20
0.490461
11
0.380828
21
0.490609
0
LINE
8
BLACK
6
CONTINUOUS
10
0.380828
20
0.490609
11
0.380975
21
0.490525
0
LINE
8
BLACK
6
CONTINUOUS
10
0.71959
20
0.577773
11
0.718898
21
0.579443
0
LINE
8
BLACK
6
CONTINUOUS
10
0.718898
20
0.579443
11
0.71959
21
0.581114
0
LINE
8
BLACK
6
CONTINUOUS
10
0.71959
20
0.581114
11
0.72126
21
0.581806
0
LINE
8
BLACK
6
CONTINUOUS
10
0.72126
20
0.581806
11
0.931496
21
0.581806
0
LINE
8
BLACK
6
CONTINUOUS
10
0.931496
20
0.581806
11
0.931496
21
0.707002
0
LINE
8
BLACK
6
CONTINUOUS
10
0.931496
20
0.707002
11
0.72126
21
0.707002
0
LINE
8
BLACK
6
CONTINUOUS
10
0.72126
20
0.707002
11
0.71959
21
0.707694
0
LINE
8
BLACK
6
CONTINUOUS
10
0.71959
20
0.707694
11
0.718898
21
0.709365
0
LINE
8
BLACK
6
CONTINUOUS
10
0.718898
20
0.709365
11
0.71959
21
0.711035
0
LINE
8
BLACK
6
CONTINUOUS
10
0.71959
20
0.711035
11
0.72126
21
0.711727
0
LINE
8
BLACK
6
CONTINUOUS
10
0.72126
20
0.711727
11
0.933858
21
0.711727
0
LINE
8
BLACK
6
CONTINUOUS
10
0.933858
20
0.711727
11
0.935529
21
0.711035
0
LINE
8
BLACK
6
CONTINUOUS
10
0.935529
20
0.711035
11
0.93622
21
0.709365
0
LINE
8
BLACK
6
CONTINUOUS
10
0.93622
20
0.709365
11
0.93622
21
0.579443
0
LINE
8
BLACK
6
CONTINUOUS
10
0.93622
20
0.579443
11
0.935529
21
0.577773
0
LINE
8
BLACK
6
CONTINUOUS
10
0.935529
20
0.577773
11
0.933858
21
0.577081
0
LINE
8
BLACK
6
CONTINUOUS
10
0.933858
20
0.577081
11
0.72126
21
0.577081
0
LINE
8
BLACK
6
CONTINUOUS
10
0.72126
20
0.577081
11
0.71959
21
0.577773
0
LINE
8
BLACK
6
CONTINUOUS
10
0.780975
20
0.767212
11
0.781144
21
0.767223
0
LINE
8
BLACK
6
CONTINUOUS
10
0.781144
20
0.767223
11
0.781835
21
0.766716
0
LINE
8
BLACK
6
CONTINUOUS
10
0.781835
20
0.766716
11
0.782577
21
0.766287
0
LINE
8
BLACK
6
CONTINUOUS
10
0.782577
20
0.766287
11
0.782635
21
0.766127
0
LINE
8
BLACK
6
CONTINUOUS
10
0.782635
20
0.766127
11
0.782772
21
0.766027
0
LINE
8
BLACK
6
CONTINUOUS
10
0.782772
20
0.766027
11
0.786359
21
0.760646
0
LINE
8
BLACK
6
CONTINUOUS
10
0.786359
20
0.760646
11
0.789563
21
0.757442
0
LINE
8
BLACK
6
CONTINUOUS
10
0.789563
20
0.757442
11
0.792884
21
0.755781
0
LINE
8
BLACK
6
CONTINUOUS
10
0.792884
20
0.755781
11
0.793708
21
0.75517
0
LINE
8
BLACK
6
CONTINUOUS
10
0.793708
20
0.75517
11
0.794511
21
0.753317
0
LINE
8
BLACK
6
CONTINUOUS
10
0.794511
20
0.753317
11
0.793935
21
0.751381
0
LINE
8
BLACK
6
CONTINUOUS
10
0.793935
20
0.751381
11
0.79225
21
0.750268
0
LINE
8
BLACK
6
CONTINUOUS
10
0.79225
20
0.750268
11
0.790243
21
0.750499
0
LINE
8
BLACK
6
CONTINUOUS
10
0.790243
20
0.750499
11
0.786494
21
0.752374
0
LINE
8
BLACK
6
CONTINUOUS
10
0.786494
20
0.752374
11
0.785784
21
0.7529
0
LINE
8
BLACK
6
CONTINUOUS
10
0.785784
20
0.7529
11
0.785726
21
0.752927
0
LINE
8
BLACK
6
CONTINUOUS
10
0.785726
20
0.752927
11
0.783268
21
0.755386
0
LINE
8
BLACK
6
CONTINUOUS
10
0.783268
20
0.755386
11
0.783268
21
0.727972
0
LINE
8
BLACK
6
CONTINUOUS
10
0.783268
20
0.727972
11
0.791564
21
0.727972
0
LINE
8
BLACK
6
CONTINUOUS
10
0.791564
20
0.727972
11
0.792573
21
0.727794
0
LINE
8
BLACK
6
CONTINUOUS
10
0.792573
20
0.727794
11
0.794121
21
0.726495
0
LINE
8
BLACK
6
CONTINUOUS
10
0.794121
20
0.726495
11
0.794471
21
0.724506
0
LINE
8
BLACK
6
CONTINUOUS
10
0.794471
20
0.724506
11
0.793462
21
0.722757
0
LINE
8
BLACK
6
CONTINUOUS
10
0.793462
20
0.722757
11
0.791564
21
0.722066
0
LINE
8
BLACK
6
CONTINUOUS
10
0.791564
20
0.722066
11
0.769066
21
0.722066
0
LINE
8
BLACK
6
CONTINUOUS
10
0.769066
20
0.722066
11
0.768056
21
0.722244
0
LINE
8
BLACK
6
CONTINUOUS
10
0.768056
20
0.722244
11
0.766509
21
0.723543
0
LINE
8
BLACK
6
CONTINUOUS
10
0.766509
20
0.723543
11
0.766158
21
0.725532
0
LINE
8
BLACK
6
CONTINUOUS
10
0.766158
20
0.725532
11
0.767168
21
0.727281
0
LINE
8
BLACK
6
CONTINUOUS
10
0.767168
20
0.727281
11
0.769066
21
0.727972
0
LINE
8
BLACK
6
CONTINUOUS
10
0.769066
20
0.727972
11
0.777362
21
0.727972
0
LINE
8
BLACK
6
CONTINUOUS
10
0.777362
20
0.727972
11
0.777362
21
0.764389
0
LINE
8
BLACK
6
CONTINUOUS
10
0.777362
20
0.764389
11
0.77754
21
0.765399
0
LINE
8
BLACK
6
CONTINUOUS
10
0.77754
20
0.765399
11
0.777649
21
0.765529
0
LINE
8
BLACK
6
CONTINUOUS
10
0.777649
20
0.765529
11
0.777668
21
0.765698
0
LINE
8
BLACK
6
CONTINUOUS
10
0.777668
20
0.765698
11
0.778288
21
0.76629
0
LINE
8
BLACK
6
CONTINUOUS
10
0.778288
20
0.76629
11
0.778839
21
0.766946
0
LINE
8
BLACK
6
CONTINUOUS
10
0.778839
20
0.766946
11
0.779006
21
0.766976
0
LINE
8
BLACK
6
CONTINUOUS
10
0.779006
20
0.766976
11
0.779129
21
0.767093
0
LINE
8
BLACK
6
CONTINUOUS
10
0.779129
20
0.767093
11
0.779984
21
0.767148
0
LINE
8
BLACK
6
CONTINUOUS
10
0.779984
20
0.767148
11
0.780828
21
0.767297
0
LINE
8
BLACK
6
CONTINUOUS
10
0.780828
20
0.767297
11
0.780975
21
0.767212
0
LINE
8
BLACK
6
CONTINUOUS
10
0.829442
20
0.767274
11
0.829572
21
0.767297
0
LINE
8
BLACK
6
CONTINUOUS
10
0.829572
20
0.767297
11
0.829685
21
0.767231
0
LINE
8
BLACK
6
CONTINUOUS
10
0.829685
20
0.767231
11
0.830069
21
0.767164
0
LINE
8
BLACK
6
CONTINUOUS
10
0.830069
20
0.767164
11
0.830656
21
0.766671
0
LINE
8
BLACK
6
CONTINUOUS
10
0.830656
20
0.766671
11
0.831321
21
0.766287
0
LINE
8
BLACK
6
CONTINUOUS
10
0.831321
20
0.766287
11
0.831412
21
0.766037
0
LINE
8
BLACK
6
CONTINUOUS
10
0.831412
20
0.766037
11
0.831616
21
0.765865
0
LINE
8
BLACK
6
CONTINUOUS
10
0.831616
20
0.765865
11
0.831749
21
0.76511
0
LINE
8
BLACK
6
CONTINUOUS
10
0.831749
20
0.76511
11
0.832012
21
0.764389
0
LINE
8
BLACK
6
CONTINUOUS
10
0.832012
20
0.764389
11
0.832012
21
0.725019
0
LINE
8
BLACK
6
CONTINUOUS
10
0.832012
20
0.725019
11
0.831944
21
0.724635
0
LINE
8
BLACK
6
CONTINUOUS
10
0.831944
20
0.724635
11
0.831967
21
0.724506
0
LINE
8
BLACK
6
CONTINUOUS
10
0.831967
20
0.724506
11
0.831901
21
0.724393
0
LINE
8
BLACK
6
CONTINUOUS
10
0.831901
20
0.724393
11
0.831834
21
0.724009
0
LINE
8
BLACK
6
CONTINUOUS
10
0.831834
20
0.724009
11
0.83134
21
0.723421
0
LINE
8
BLACK
6
CONTINUOUS
10
0.83134
20
0.723421
11
0.830957
21
0.722757
0
LINE
8
BLACK
6
CONTINUOUS
10
0.830957
20
0.722757
11
0.830706
21
0.722666
0
LINE
8
BLACK
6
CONTINUOUS
10
0.830706
20
0.722666
11
0.830535
21
0.722462
0
LINE
8
BLACK
6
CONTINUOUS
10
0.830535
20
0.722462
11
0.82978
21
0.722329
0
LINE
8
BLACK
6
CONTINUOUS
10
0.82978
20
0.722329
11
0.829059
21
0.722066
0
LINE
8
BLACK
6
CONTINUOUS
10
0.829059
20
0.722066
11
0.819685
21
0.722066
0
LINE
8
BLACK
6
CONTINUOUS
10
0.819685
20
0.722066
11
0.818816
21
0.722219
0
LINE
8
BLACK
6
CONTINUOUS
10
0.818816
20
0.722219
11
0.818751
21
0.722218
0
LINE
8
BLACK
6
CONTINUOUS
10
0.818751
20
0.722218
11
0.813127
21
0.724092
0
LINE
8
BLACK
6
CONTINUOUS
10
0.813127
20
0.724092
11
0.812225
21
0.724581
0
LINE
8
BLACK
6
CONTINUOUS
10
0.812225
20
0.724581
11
0.812133
21
0.724731
0
LINE
8
BLACK
6
CONTINUOUS
10
0.812133
20
0.724731
11
0.811973
21
0.724806
0
LINE
8
BLACK
6
CONTINUOUS
10
0.811973
20
0.724806
11
0.808223
21
0.728555
0
LINE
8
BLACK
6
CONTINUOUS
10
0.808223
20
0.728555
11
0.807717
21
0.729278
0
LINE
8
BLACK
6
CONTINUOUS
10
0.807717
20
0.729278
11
0.80767
21
0.729323
0
LINE
8
BLACK
6
CONTINUOUS
10
0.80767
20
0.729323
11
0.805795
21
0.733072
0
LINE
8
BLACK
6
CONTINUOUS
10
0.805795
20
0.733072
11
0.80565
21
0.733561
0
LINE
8
BLACK
6
CONTINUOUS
10
0.80565
20
0.733561
11
0.805572
21
0.733677
0
LINE
8
BLACK
6
CONTINUOUS
10
0.805572
20
0.733677
11
0.803697
21
0.741176
0
LINE
8
BLACK
6
CONTINUOUS
10
0.803697
20
0.741176
11
0.803656
21
0.741764
0
LINE
8
BLACK
6
CONTINUOUS
10
0.803656
20
0.741764
11
0.803609
21
0.741892
0
LINE
8
BLACK
6
CONTINUOUS
10
0.803609
20
0.741892
11
0.803609
21
0.747516
0
LINE
8
BLACK
6
CONTINUOUS
10
0.803609
20
0.747516
11
0.803711
21
0.748096
0
LINE
8
BLACK
6
CONTINUOUS
10
0.803711
20
0.748096
11
0.803697
21
0.748232
0
LINE
8
BLACK
6
CONTINUOUS
10
0.803697
20
0.748232
11
0.805572
21
0.755731
0
LINE
8
BLACK
6
CONTINUOUS
10
0.805572
20
0.755731
11
0.805779
21
0.756197
0
LINE
8
BLACK
6
CONTINUOUS
10
0.805779
20
0.756197
11
0.805795
21
0.756336
0
LINE
8
BLACK
6
CONTINUOUS
10
0.805795
20
0.756336
11
0.80767
21
0.760085
0
LINE
8
BLACK
6
CONTINUOUS
10
0.80767
20
0.760085
11
0.808196
21
0.760794
0
LINE
8
BLACK
6
CONTINUOUS
10
0.808196
20
0.760794
11
0.808223
21
0.760853
0
LINE
8
BLACK
6
CONTINUOUS
10
0.808223
20
0.760853
11
0.811973
21
0.764602
0
LINE
8
BLACK
6
CONTINUOUS
10
0.811973
20
0.764602
11
0.812813
21
0.76519
0
LINE
8
BLACK
6
CONTINUOUS
10
0.812813
20
0.76519
11
0.812989
21
0.765206
0
LINE
8
BLACK
6
CONTINUOUS
10
0.812989
20
0.765206
11
0.813127
21
0.765315
0
LINE
8
BLACK
6
CONTINUOUS
10
0.813127
20
0.765315
11
0.818751
21
0.76719
0
LINE
8
BLACK
6
CONTINUOUS
10
0.818751
20
0.76719
11
0.819624
21
0.76732
0
LINE
8
BLACK
6
CONTINUOUS
10
0.819624
20
0.76732
11
0.819685
21
0.767342
0
LINE
8
BLACK
6
CONTINUOUS
10
0.819685
20
0.767342
11
0.829059
21
0.767342
0
LINE
8
BLACK
6
CONTINUOUS
10
0.829059
20
0.767342
11
0.829442
21
0.767274
0
LINE
8
BLACK
6
CONTINUOUS
10
0.820164
20
0.761436
11
0.815656
21
0.759933
0
LINE
8
BLACK
6
CONTINUOUS
10
0.815656
20
0.759933
11
0.812738
21
0.757016
0
LINE
8
BLACK
6
CONTINUOUS
10
0.812738
20
0.757016
11
0.811222
21
0.753985
0
LINE
8
BLACK
6
CONTINUOUS
10
0.811222
20
0.753985
11
0.809514
21
0.747153
0
LINE
8
BLACK
6
CONTINUOUS
10
0.809514
20
0.747153
11
0.809514
21
0.742255
0
LINE
8
BLACK
6
CONTINUOUS
10
0.809514
20
0.742255
11
0.811222
21
0.735423
0
LINE
8
BLACK
6
CONTINUOUS
10
0.811222
20
0.735423
11
0.812738
21
0.732392
0
LINE
8
BLACK
6
CONTINUOUS
10
0.812738
20
0.732392
11
0.815656
21
0.729474
0
LINE
8
BLACK
6
CONTINUOUS
10
0.815656
20
0.729474
11
0.820164
21
0.727972
0
LINE
8
BLACK
6
CONTINUOUS
10
0.820164
20
0.727972
11
0.826106
21
0.727972
0
LINE
8
BLACK
6
CONTINUOUS
10
0.826106
20
0.727972
11
0.826106
21
0.761436
0
LINE
8
BLACK
6
CONTINUOUS
10
0.826106
20
0.761436
11
0.820164
21
0.761436
0
LINE
8
BLACK
6
CONTINUOUS
10
0.411956
20
0.99045
11
0.412648
21
0.98878
0
LINE
8
BLACK
6
CONTINUOUS
10
0.412648
20
0.98878
11
0.411956
21
0.987109
0
LINE
8
BLACK
6
CONTINUOUS
10
0.411956
20
0.987109
11
0.410286
21
0.986417
0
LINE
8
BLACK
6
CONTINUOUS
10
0.410286
20
0.986417
11
0.389714
21
0.986417
0
LINE
8
BLACK
6
CONTINUOUS
10
0.389714
20
0.986417
11
0.388044
21
0.987109
0
LINE
8
BLACK
6
CONTINUOUS
10
0.388044
20
0.987109
11
0.387352
21
0.98878
0
LINE
8
BLACK
6
CONTINUOUS
10
0.387352
20
0.98878
11
0.388044
21
0.99045
0
LINE
8
BLACK
6
CONTINUOUS
10
0.388044
20
0.99045
11
0.389714
21
0.991142
0
LINE
8
BLACK
6
CONTINUOUS
10
0.389714
20
0.991142
11
0.410286
21
0.991142
0
LINE
8
BLACK
6
CONTINUOUS
10
0.410286
20
0.991142
11
0.411956
21
0.99045
0
LINE
8
BLACK
6
CONTINUOUS
10
0.411956
20
1.04832
11
0.412648
21
1.04665
0
LINE
8
BLACK
6
CONTINUOUS
10
0.412648
20
1.04665
11
0.411956
21
1.04498
0
LINE
8
BLACK
6
CONTINUOUS
10
0.411956
20
1.04498
11
0.410286
21
1.04429
0
LINE
8
BLACK
6
CONTINUOUS
10
0.410286
20
1.04429
11
0.389714
21
1.04429
0
LINE
8
BLACK
6
CONTINUOUS
10
0.389714
20
1.04429
11
0.388044
21
1.04498
0
LINE
8
BLACK
6
CONTINUOUS
10
0.388044
20
1.04498
11
0.387352
21
1.04665
0
LINE
8
BLACK
6
CONTINUOUS
10
0.387352
20
1.04665
11
0.388044
21
1.04832
0
LINE
8
BLACK
6
CONTINUOUS
10
0.388044
20
1.04832
11
0.389714
21
1.04902
0
LINE
8
BLACK
6
CONTINUOUS
10
0.389714
20
1.04902
11
0.410286
21
1.04902
0
LINE
8
BLACK
6
CONTINUOUS
10
0.410286
20
1.04902
11
0.411956
21
1.04832
0
LINE
8
BLACK
6
CONTINUOUS
10
0.386949
20
1.10819
11
0.387084
21
1.10808
0
LINE
8
BLACK
6
CONTINUOUS
10
0.387084
20
1.10808
11
0.38726
21
1.10806
0
LINE
8
BLACK
6
CONTINUOUS
10
0.38726
20
1.10806
11
0.391009
21
1.10618
0
LINE
8
BLACK
6
CONTINUOUS
10
0.391009
20
1.10618
11
0.391718
21
1.10566
0
LINE
8
BLACK
6
CONTINUOUS
10
0.391718
20
1.10566
11
0.391777
21
1.10563
0
LINE
8
BLACK
6
CONTINUOUS
10
0.391777
20
1.10563
11
0.393651
21
1.10376
0
LINE
8
BLACK
6
CONTINUOUS
10
0.393651
20
1.10376
11
0.39424
21
1.10292
0
LINE
8
BLACK
6
CONTINUOUS
10
0.39424
20
1.10292
11
0.394416
21
1.1009
0
LINE
8
BLACK
6
CONTINUOUS
10
0.394416
20
1.1009
11
0.393257
21
1.09925
0
LINE
8
BLACK
6
CONTINUOUS
10
0.393257
20
1.09925
11
0.391306
21
1.09873
0
LINE
8
BLACK
6
CONTINUOUS
10
0.391306
20
1.09873
11
0.389476
21
1.09958
0
LINE
8
BLACK
6
CONTINUOUS
10
0.389476
20
1.09958
11
0.38794
21
1.10112
0
LINE
8
BLACK
6
CONTINUOUS
10
0.38794
20
1.10112
11
0.385242
21
1.10247
0
LINE
8
BLACK
6
CONTINUOUS
10
0.385242
20
1.10247
11
0.377262
21
1.10247
0
LINE
8
BLACK
6
CONTINUOUS
10
0.377262
20
1.10247
11
0.374565
21
1.10112
0
LINE
8
BLACK
6
CONTINUOUS
10
0.374565
20
1.10112
11
0.373368
21
1.09992
0
LINE
8
BLACK
6
CONTINUOUS
10
0.373368
20
1.09992
11
0.372019
21
1.09722
0
LINE
8
BLACK
6
CONTINUOUS
10
0.372019
20
1.09722
11
0.372019
21
1.09465
0
LINE
8
BLACK
6
CONTINUOUS
10
0.372019
20
1.09465
11
0.373522
21
1.09014
0
LINE
8
BLACK
6
CONTINUOUS
10
0.373522
20
1.09014
11
0.395526
21
1.06814
0
LINE
8
BLACK
6
CONTINUOUS
10
0.395526
20
1.06814
11
0.395896
21
1.06761
0
LINE
8
BLACK
6
CONTINUOUS
10
0.395896
20
1.06761
11
0.395995
21
1.06752
0
LINE
8
BLACK
6
CONTINUOUS
10
0.395995
20
1.06752
11
0.396009
21
1.06745
0
LINE
8
BLACK
6
CONTINUOUS
10
0.396009
20
1.06745
11
0.396114
21
1.0673
0
LINE
8
BLACK
6
CONTINUOUS
10
0.396114
20
1.0673
11
0.396192
21
1.06641
0
LINE
8
BLACK
6
CONTINUOUS
10
0.396192
20
1.06641
11
0.396346
21
1.06554
0
LINE
8
BLACK
6
CONTINUOUS
10
0.396346
20
1.06554
11
0.396279
21
1.06542
0
LINE
8
BLACK
6
CONTINUOUS
10
0.396279
20
1.06542
11
0.39629
21
1.06528
0
LINE
8
BLACK
6
CONTINUOUS
10
0.39629
20
1.06528
11
0.395781
21
1.06456
0
LINE
8
BLACK
6
CONTINUOUS
10
0.395781
20
1.06456
11
0.395336
21
1.06379
0
LINE
8
BLACK
6
CONTINUOUS
10
0.395336
20
1.06379
11
0.395209
21
1.06374
0
LINE
8
BLACK
6
CONTINUOUS
10
0.395209
20
1.06374
11
0.395132
21
1.06363
0
LINE
8
BLACK
6
CONTINUOUS
10
0.395132
20
1.06363
11
0.394273
21
1.0634
0
LINE
8
BLACK
6
CONTINUOUS
10
0.394273
20
1.0634
11
0.393438
21
1.0631
0
LINE
8
BLACK
6
CONTINUOUS
10
0.393438
20
1.0631
11
0.369066
21
1.0631
0
LINE
8
BLACK
6
CONTINUOUS
10
0.369066
20
1.0631
11
0.368056
21
1.06327
0
LINE
8
BLACK
6
CONTINUOUS
10
0.368056
20
1.06327
11
0.366509
21
1.06457
0
LINE
8
BLACK
6
CONTINUOUS
10
0.366509
20
1.06457
11
0.366158
21
1.06656
0
LINE
8
BLACK
6
CONTINUOUS
10
0.366158
20
1.06656
11
0.367168
21
1.06831
0
LINE
8
BLACK
6
CONTINUOUS
10
0.367168
20
1.06831
11
0.369066
21
1.069
0
LINE
8
BLACK
6
CONTINUOUS
10
0.369066
20
1.069
11
0.38631
21
1.069
0
LINE
8
BLACK
6
CONTINUOUS
10
0.38631
20
1.069
11
0.368853
21
1.08646
0
LINE
8
BLACK
6
CONTINUOUS
10
0.368853
20
1.08646
11
0.368265
21
1.0873
0
LINE
8
BLACK
6
CONTINUOUS
10
0.368265
20
1.0873
11
0.36825
21
1.08747
0
LINE
8
BLACK
6
CONTINUOUS
10
0.36825
20
1.08747
11
0.36814
21
1.08761
0
LINE
8
BLACK
6
CONTINUOUS
10
0.36814
20
1.08761
11
0.366265
21
1.09324
0
LINE
8
BLACK
6
CONTINUOUS
10
0.366265
20
1.09324
11
0.366136
21
1.09411
0
LINE
8
BLACK
6
CONTINUOUS
10
0.366136
20
1.09411
11
0.366114
21
1.09417
0
LINE
8
BLACK
6
CONTINUOUS
10
0.366114
20
1.09417
11
0.366114
21
1.09792
0
LINE
8
BLACK
6
CONTINUOUS
10
0.366114
20
1.09792
11
0.366292
21
1.09893
0
LINE
8
BLACK
6
CONTINUOUS
10
0.366292
20
1.09893
11
0.366405
21
1.09906
0
LINE
8
BLACK
6
CONTINUOUS
10
0.366405
20
1.09906
11
0.366425
21
1.09924
0
LINE
8
BLACK
6
CONTINUOUS
10
0.366425
20
1.09924
11
0.3683
21
1.10299
0
LINE
8
BLACK
6
CONTINUOUS
10
0.3683
20
1.10299
11
0.368826
21
1.1037
0
LINE
8
BLACK
6
CONTINUOUS
10
0.368826
20
1.1037
11
0.368853
21
1.10376
0
LINE
8
BLACK
6
CONTINUOUS
10
0.368853
20
1.10376
11
0.370728
21
1.10563
0
LINE
8
BLACK
6
CONTINUOUS
10
0.370728
20
1.10563
11
0.371451
21
1.10614
0
LINE
8
BLACK
6
CONTINUOUS
10
0.371451
20
1.10614
11
0.371495
21
1.10618
0
LINE
8
BLACK
6
CONTINUOUS
10
0.371495
20
1.10618
11
0.375245
21
1.10806
0
LINE
8
BLACK
6
CONTINUOUS
10
0.375245
20
1.10806
11
0.376228
21
1.10835
0
LINE
8
BLACK
6
CONTINUOUS
10
0.376228
20
1.10835
11
0.376399
21
1.10831
0
LINE
8
BLACK
6
CONTINUOUS
10
0.376399
20
1.10831
11
0.376565
21
1.10837
0
LINE
8
BLACK
6
CONTINUOUS
10
0.376565
20
1.10837
11
0.385939
21
1.10837
0
LINE
8
BLACK
6
CONTINUOUS
10
0.385939
20
1.10837
11
0.386949
21
1.10819
0
LINE
8
BLACK
6
CONTINUOUS
10
0.41868
20
1.10822
11
0.418744
21
1.10822
0
LINE
8
BLACK
6
CONTINUOUS
10
0.418744
20
1.10822
11
0.424368
21
1.10634
0
LINE
8
BLACK
6
CONTINUOUS
10
0.424368
20
1.10634
11
0.42527
21
1.10586
0
LINE
8
BLACK
6
CONTINUOUS
10
0.42527
20
1.10586
11
0.425363
21
1.10571
0
LINE
8
BLACK
6
CONTINUOUS
10
0.425363
20
1.10571
11
0.425522
21
1.10563
0
LINE
8
BLACK
6
CONTINUOUS
10
0.425522
20
1.10563
11
0.429272
21
1.10188
0
LINE
8
BLACK
6
CONTINUOUS
10
0.429272
20
1.10188
11
0.429778
21
1.10116
0
LINE
8
BLACK
6
CONTINUOUS
10
0.429778
20
1.10116
11
0.429825
21
1.10111
0
LINE
8
BLACK
6
CONTINUOUS
10
0.429825
20
1.10111
11
0.4317
21
1.09736
0
LINE
8
BLACK
6
CONTINUOUS
10
0.4317
20
1.09736
11
0.431845
21
1.09688
0
LINE
8
BLACK
6
CONTINUOUS
10
0.431845
20
1.09688
11
0.431923
21
1.09676
0
LINE
8
BLACK
6
CONTINUOUS
10
0.431923
20
1.09676
11
0.433798
21
1.08926
0
LINE
8
BLACK
6
CONTINUOUS
10
0.433798
20
1.08926
11
0.43384
21
1.08867
0
LINE
8
BLACK
6
CONTINUOUS
10
0.43384
20
1.08867
11
0.433886
21
1.08855
0
LINE
8
BLACK
6
CONTINUOUS
10
0.433886
20
1.08855
11
0.433886
21
1.08292
0
LINE
8
BLACK
6
CONTINUOUS
10
0.433886
20
1.08292
11
0.433784
21
1.08234
0
LINE
8
BLACK
6
CONTINUOUS
10
0.433784
20
1.08234
11
0.433798
21
1.0822
0
LINE
8
BLACK
6
CONTINUOUS
10
0.433798
20
1.0822
11
0.431923
21
1.07471
0
LINE
8
BLACK
6
CONTINUOUS
10
0.431923
20
1.07471
11
0.431716
21
1.07424
0
LINE
8
BLACK
6
CONTINUOUS
10
0.431716
20
1.07424
11
0.4317
21
1.0741
0
LINE
8
BLACK
6
CONTINUOUS
10
0.4317
20
1.0741
11
0.429825
21
1.07035
0
LINE
8
BLACK
6
CONTINUOUS
10
0.429825
20
1.07035
11
0.429299
21
1.06964
0
LINE
8
BLACK
6
CONTINUOUS
10
0.429299
20
1.06964
11
0.429272
21
1.06958
0
LINE
8
BLACK
6
CONTINUOUS
10
0.429272
20
1.06958
11
0.425522
21
1.06583
0
LINE
8
BLACK
6
CONTINUOUS
10
0.425522
20
1.06583
11
0.424682
21
1.06525
0
LINE
8
BLACK
6
CONTINUOUS
10
0.424682
20
1.06525
11
0.424507
21
1.06523
0
LINE
8
BLACK
6
CONTINUOUS
10
0.424507
20
1.06523
11
0.424368
21
1.06512
0
LINE
8
BLACK
6
CONTINUOUS
10
0.424368
20
1.06512
11
0.418744
21
1.06325
0
LINE
8
BLACK
6
CONTINUOUS
10
0.418744
20
1.06325
11
0.417871
21
1.06312
0
LINE
8
BLACK
6
CONTINUOUS
10
0.417871
20
1.06312
11
0.41781
21
1.0631
0
LINE
8
BLACK
6
CONTINUOUS
10
0.41781
20
1.0631
11
0.414061
21
1.0631
0
LINE
8
BLACK
6
CONTINUOUS
10
0.414061
20
1.0631
11
0.413191
21
1.06325
0
LINE
8
BLACK
6
CONTINUOUS
10
0.413191
20
1.06325
11
0.413127
21
1.06325
0
LINE
8
BLACK
6
CONTINUOUS
10
0.413127
20
1.06325
11
0.407503
21
1.06512
0
LINE
8
BLACK
6
CONTINUOUS
10
0.407503
20
1.06512
11
0.406601
21
1.06561
0
LINE
8
BLACK
6
CONTINUOUS
10
0.406601
20
1.06561
11
0.406509
21
1.06576
0
LINE
8
BLACK
6
CONTINUOUS
10
0.406509
20
1.06576
11
0.406349
21
1.06583
0
LINE
8
BLACK
6
CONTINUOUS
10
0.406349
20
1.06583
11
0.404474
21
1.06771
0
LINE
8
BLACK
6
CONTINUOUS
10
0.404474
20
1.06771
11
0.403886
21
1.06855
0
LINE
8
BLACK
6
CONTINUOUS
10
0.403886
20
1.06855
11
0.403709
21
1.07056
0
LINE
8
BLACK
6
CONTINUOUS
10
0.403709
20
1.07056
11
0.404868
21
1.07222
0
LINE
8
BLACK
6
CONTINUOUS
10
0.404868
20
1.07222
11
0.406819
21
1.07274
0
LINE
8
BLACK
6
CONTINUOUS
10
0.406819
20
1.07274
11
0.40865
21
1.07189
0
LINE
8
BLACK
6
CONTINUOUS
10
0.40865
20
1.07189
11
0.410031
21
1.0705
0
LINE
8
BLACK
6
CONTINUOUS
10
0.410031
20
1.0705
11
0.41454
21
1.069
0
LINE
8
BLACK
6
CONTINUOUS
10
0.41454
20
1.069
11
0.417331
21
1.069
0
LINE
8
BLACK
6
CONTINUOUS
10
0.417331
20
1.069
11
0.42184
21
1.0705
0
LINE
8
BLACK
6
CONTINUOUS
10
0.42184
20
1.0705
11
0.424757
21
1.07342
0
LINE
8
BLACK
6
CONTINUOUS
10
0.424757
20
1.07342
11
0.426273
21
1.07645
0
LINE
8
BLACK
6
CONTINUOUS
10
0.426273
20
1.07645
11
0.427981
21
1.08328
0
LINE
8
BLACK
6
CONTINUOUS
10
0.427981
20
1.08328
11
0.427981
21
1.08818
0
LINE
8
BLACK
6
CONTINUOUS
10
0.427981
20
1.08818
11
0.426273
21
1.09501
0
LINE
8
BLACK
6
CONTINUOUS
10
0.426273
20
1.09501
11
0.424757
21
1.09804
0
LINE
8
BLACK
6
CONTINUOUS
10
0.424757
20
1.09804
11
0.42184
21
1.10096
0
LINE
8
BLACK
6
CONTINUOUS
10
0.42184
20
1.10096
11
0.417331
21
1.10247
0
LINE
8
BLACK
6
CONTINUOUS
10
0.417331
20
1.10247
11
0.41454
21
1.10247
0
LINE
8
BLACK
6
CONTINUOUS
10
0.41454
20
1.10247
11
0.410031
21
1.10096
0
LINE
8
BLACK
6
CONTINUOUS
10
0.410031
20
1.10096
11
0.40865
21
1.09958
0
LINE
8
BLACK
6
CONTINUOUS
10
0.40865
20
1.09958
11
0.40781
21
1.09899
0
LINE
8
BLACK
6
CONTINUOUS
10
0.40781
20
1.09899
11
0.405797
21
1.09882
0
LINE
8
BLACK
6
CONTINUOUS
10
0.405797
20
1.09882
11
0.404143
21
1.09997
0
LINE
8
BLACK
6
CONTINUOUS
10
0.404143
20
1.09997
11
0.40362
21
1.10193
0
LINE
8
BLACK
6
CONTINUOUS
10
0.40362
20
1.10193
11
0.404474
21
1.10376
0
LINE
8
BLACK
6
CONTINUOUS
10
0.404474
20
1.10376
11
0.406349
21
1.10563
0
LINE
8
BLACK
6
CONTINUOUS
10
0.406349
20
1.10563
11
0.407189
21
1.10622
0
LINE
8
BLACK
6
CONTINUOUS
10
0.407189
20
1.10622
11
0.407364
21
1.10623
0
LINE
8
BLACK
6
CONTINUOUS
10
0.407364
20
1.10623
11
0.407503
21
1.10634
0
LINE
8
BLACK
6
CONTINUOUS
10
0.407503
20
1.10634
11
0.413127
21
1.10822
0
LINE
8
BLACK
6
CONTINUOUS
10
0.413127
20
1.10822
11
0.414
21
1.10835
0
LINE
8
BLACK
6
CONTINUOUS
10
0.414
20
1.10835
11
0.414061
21
1.10837
0
LINE
8
BLACK
6
CONTINUOUS
10
0.414061
20
1.10837
11
0.41781
21
1.10837
0
LINE
8
BLACK
6
CONTINUOUS
10
0.41781
20
1.10837
11
0.41868
21
1.10822
  0
ENDSEC
  0
EOF
