  0
SECTION
  2
HEADER
  9
$ANGBASE
  50
0.0
  9
$ANGDIR
  70
1
  9
$MEASUREMENT
  70
0
  0
ENDSEC
  0
SECTION
  2
TABLES
  0
TABLE
  2
LTYPE
  70
4
  0
LTYPE
  5
40F
  2
CONTINUOUS
  70
0
  3
Solid line
  72
65
  73
0
  40
0.0
  0
LTYPE
  5
410
  2
DASHDOT
 70
0
  3
Dash Dot ____ _ ____ _
 72
65
 73
4
 40
2.0
 49
1.25
 49
-0.25
 49
0.25
 49
-0.25
  0
LTYPE
  5
411
  2
DASHED
 70
0
  3
Dashed __ __ __ __ __
 72
65
 73
2
 40
0.75
 49
0.5
 49
-0.25
  0
LTYPE
  5
43B
  2
DOTTED
 70
0
  3
Dotted .  .  .  .
 72
65
 73
2
 40
0.2
 49
0.0
 49
-0.2
  0
ENDTAB
  0
TABLE
  2
STYLE
  70
4
  0
STYLE
  2
KICAD
  70
0
  40
0
  41
1
  42
1
  50
0
  71
0
  3
isocp.shx
  0
STYLE
  2
KICADB
  70
0
  40
0
  41
1
  42
1
  50
0
  71
0
  3
isocp.shx
  0
STYLE
  2
KICADI
  70
0
  40
0
  41
1
  42
1
  50
15
  71
0
  3
isocp.shx
  0
STYLE
  2
KICADBI
  70
0
  40
0
  41
1
  42
1
  50
15
  71
0
  3
isocp.shx
  0
ENDTAB
  0
TABLE
  2
LAYER
  70
1
  0
LAYER
  2
BLACK
  70
0
  62
7
  6
CONTINUOUS
  0
ENDTAB
  0
ENDSEC
  0
SECTION
  2
ENTITIES
0
LINE
8
BLACK
6
CONTINUOUS
10
2.36337
20
0.787944
11
2.36337
21
0.787944
0
LINE
8
BLACK
6
CONTINUOUS
10
2.36337
20
0.787944
11
2.367
21
0.786614
0
LINE
8
BLACK
6
CONTINUOUS
10
2.367
20
0.786614
11
2.37456
21
0.784993
0
LINE
8
BLACK
6
CONTINUOUS
10
2.37456
20
0.784993
11
2.38228
21
0.784446
0
LINE
8
BLACK
6
CONTINUOUS
10
2.38228
20
0.784446
11
2.38999
21
0.784984
0
LINE
8
BLACK
6
CONTINUOUS
10
2.38999
20
0.784984
11
2.39756
21
0.786595
0
LINE
8
BLACK
6
CONTINUOUS
10
2.39756
20
0.786595
11
2.40119
21
0.78792
0
LINE
8
BLACK
6
CONTINUOUS
10
2.40119
20
0.78792
11
2.40119
21
0.78792
0
LINE
8
BLACK
6
CONTINUOUS
10
2.40119
20
0.78792
11
2.40423
21
0.788391
0
LINE
8
BLACK
6
CONTINUOUS
10
2.40423
20
0.788391
11
2.40721
21
0.787664
0
LINE
8
BLACK
6
CONTINUOUS
10
2.40721
20
0.787664
11
2.40969
21
0.78585
0
LINE
8
BLACK
6
CONTINUOUS
10
2.40969
20
0.78585
11
2.41129
21
0.783225
0
LINE
8
BLACK
6
CONTINUOUS
10
2.41129
20
0.783225
11
2.4117
21
0.780551
0
LINE
8
BLACK
6
CONTINUOUS
10
2.4117
20
0.780551
11
2.41184
21
0.780551
0
LINE
8
BLACK
6
CONTINUOUS
10
2.41184
20
0.780551
11
2.41184
21
0.739213
0
LINE
8
BLACK
6
CONTINUOUS
10
2.41184
20
0.739213
11
2.35279
21
0.739213
0
LINE
8
BLACK
6
CONTINUOUS
10
2.35279
20
0.739213
11
2.35279
21
0.780551
0
LINE
8
BLACK
6
CONTINUOUS
10
2.35279
20
0.780551
11
2.35284
21
0.780551
0
LINE
8
BLACK
6
CONTINUOUS
10
2.35284
20
0.780551
11
2.35327
21
0.783262
0
LINE
8
BLACK
6
CONTINUOUS
10
2.35327
20
0.783262
11
2.35487
21
0.785885
0
LINE
8
BLACK
6
CONTINUOUS
10
2.35487
20
0.785885
11
2.35735
21
0.787695
0
LINE
8
BLACK
6
CONTINUOUS
10
2.35735
20
0.787695
11
2.36033
21
0.788419
0
LINE
8
BLACK
6
CONTINUOUS
10
2.36033
20
0.788419
11
2.36337
21
0.787944
0
LINE
8
BLACK
6
CONTINUOUS
10
1.82094
20
0.93947
11
1.82366
21
0.939046
0
LINE
8
BLACK
6
CONTINUOUS
10
1.82366
20
0.939046
11
1.82628
21
0.937446
0
LINE
8
BLACK
6
CONTINUOUS
10
1.82628
20
0.937446
11
1.82809
21
0.934964
0
LINE
8
BLACK
6
CONTINUOUS
10
1.82809
20
0.934964
11
1.82881
21
0.931978
0
LINE
8
BLACK
6
CONTINUOUS
10
1.82881
20
0.931978
11
1.82834
21
0.928943
0
LINE
8
BLACK
6
CONTINUOUS
10
1.82834
20
0.928943
11
1.82834
21
0.928943
0
LINE
8
BLACK
6
CONTINUOUS
10
1.82834
20
0.928943
11
1.82701
21
0.925312
0
LINE
8
BLACK
6
CONTINUOUS
10
1.82701
20
0.925312
11
1.82539
21
0.91775
0
LINE
8
BLACK
6
CONTINUOUS
10
1.82539
20
0.91775
11
1.82484
21
0.910035
0
LINE
8
BLACK
6
CONTINUOUS
10
1.82484
20
0.910035
11
1.82538
21
0.90232
0
LINE
8
BLACK
6
CONTINUOUS
10
1.82538
20
0.90232
11
1.82699
21
0.894755
0
LINE
8
BLACK
6
CONTINUOUS
10
1.82699
20
0.894755
11
1.82831
21
0.891123
0
LINE
8
BLACK
6
CONTINUOUS
10
1.82831
20
0.891123
11
1.82831
21
0.891123
0
LINE
8
BLACK
6
CONTINUOUS
10
1.82831
20
0.891123
11
1.82878
21
0.888087
0
LINE
8
BLACK
6
CONTINUOUS
10
1.82878
20
0.888087
11
1.82806
21
0.885102
0
LINE
8
BLACK
6
CONTINUOUS
10
1.82806
20
0.885102
11
1.82624
21
0.882622
0
LINE
8
BLACK
6
CONTINUOUS
10
1.82624
20
0.882622
11
1.82362
21
0.881025
0
LINE
8
BLACK
6
CONTINUOUS
10
1.82362
20
0.881025
11
1.82094
21
0.880611
0
LINE
8
BLACK
6
CONTINUOUS
10
1.82094
20
0.880611
11
1.82094
21
0.880472
0
LINE
8
BLACK
6
CONTINUOUS
10
1.82094
20
0.880472
11
1.77961
21
0.880472
0
LINE
8
BLACK
6
CONTINUOUS
10
1.77961
20
0.880472
11
1.77961
21
0.939528
0
LINE
8
BLACK
6
CONTINUOUS
10
1.77961
20
0.939528
11
1.82094
21
0.939528
0
LINE
8
BLACK
6
CONTINUOUS
10
1.82094
20
0.939528
11
1.82094
21
0.93947
0
LINE
8
BLACK
6
CONTINUOUS
10
1.98039
20
0.880472
11
1.93906
21
0.880472
0
LINE
8
BLACK
6
CONTINUOUS
10
1.93906
20
0.880472
11
1.93906
21
0.88053
0
LINE
8
BLACK
6
CONTINUOUS
10
1.93906
20
0.88053
11
1.93634
21
0.880954
0
LINE
8
BLACK
6
CONTINUOUS
10
1.93634
20
0.880954
11
1.93372
21
0.882554
0
LINE
8
BLACK
6
CONTINUOUS
10
1.93372
20
0.882554
11
1.93191
21
0.885036
0
LINE
8
BLACK
6
CONTINUOUS
10
1.93191
20
0.885036
11
1.93119
21
0.888022
0
LINE
8
BLACK
6
CONTINUOUS
10
1.93119
20
0.888022
11
1.93166
21
0.891057
0
LINE
8
BLACK
6
CONTINUOUS
10
1.93166
20
0.891057
11
1.93166
21
0.891057
0
LINE
8
BLACK
6
CONTINUOUS
10
1.93166
20
0.891057
11
1.93299
21
0.894688
0
LINE
8
BLACK
6
CONTINUOUS
10
1.93299
20
0.894688
11
1.93461
21
0.90225
0
LINE
8
BLACK
6
CONTINUOUS
10
1.93461
20
0.90225
11
1.93516
21
0.909965
0
LINE
8
BLACK
6
CONTINUOUS
10
1.93516
20
0.909965
11
1.93462
21
0.91768
0
LINE
8
BLACK
6
CONTINUOUS
10
1.93462
20
0.91768
11
1.93301
21
0.925245
0
LINE
8
BLACK
6
CONTINUOUS
10
1.93301
20
0.925245
11
1.93169
21
0.928877
0
LINE
8
BLACK
6
CONTINUOUS
10
1.93169
20
0.928877
11
1.93169
21
0.928877
0
LINE
8
BLACK
6
CONTINUOUS
10
1.93169
20
0.928877
11
1.93122
21
0.931913
0
LINE
8
BLACK
6
CONTINUOUS
10
1.93122
20
0.931913
11
1.93194
21
0.934898
0
LINE
8
BLACK
6
CONTINUOUS
10
1.93194
20
0.934898
11
1.93376
21
0.937378
0
LINE
8
BLACK
6
CONTINUOUS
10
1.93376
20
0.937378
11
1.93638
21
0.938975
0
LINE
8
BLACK
6
CONTINUOUS
10
1.93638
20
0.938975
11
1.93906
21
0.939389
0
LINE
8
BLACK
6
CONTINUOUS
10
1.93906
20
0.939389
11
1.93906
21
0.939528
0
LINE
8
BLACK
6
CONTINUOUS
10
1.93906
20
0.939528
11
1.98039
21
0.939528
0
LINE
8
BLACK
6
CONTINUOUS
10
1.98039
20
0.939528
11
1.98039
21
0.880472
0
LINE
8
BLACK
6
CONTINUOUS
10
2.0675
20
0.8825
11
2.0125
21
0.8825
0
LINE
8
BLACK
6
CONTINUOUS
10
2.0125
20
0.8825
11
2.0125
21
0.9175
0
LINE
8
BLACK
6
CONTINUOUS
10
2.0125
20
0.9175
11
2.0675
21
0.9175
0
LINE
8
BLACK
6
CONTINUOUS
10
2.0675
20
0.9175
11
2.0675
21
0.8825
0
LINE
8
BLACK
6
CONTINUOUS
10
2.41184
20
0.898661
11
2.41178
21
0.898661
0
LINE
8
BLACK
6
CONTINUOUS
10
2.41178
20
0.898661
11
2.41136
21
0.895951
0
LINE
8
BLACK
6
CONTINUOUS
10
2.41136
20
0.895951
11
2.40976
21
0.893328
0
LINE
8
BLACK
6
CONTINUOUS
10
2.40976
20
0.893328
11
2.40728
21
0.891517
0
LINE
8
BLACK
6
CONTINUOUS
10
2.40728
20
0.891517
11
2.40429
21
0.890794
0
LINE
8
BLACK
6
CONTINUOUS
10
2.40429
20
0.890794
11
2.40126
21
0.891269
0
LINE
8
BLACK
6
CONTINUOUS
10
2.40126
20
0.891269
11
2.40126
21
0.891269
0
LINE
8
BLACK
6
CONTINUOUS
10
2.40126
20
0.891269
11
2.39762
21
0.892599
0
LINE
8
BLACK
6
CONTINUOUS
10
2.39762
20
0.892599
11
2.39006
21
0.894219
0
LINE
8
BLACK
6
CONTINUOUS
10
2.39006
20
0.894219
11
2.38235
21
0.894766
0
LINE
8
BLACK
6
CONTINUOUS
10
2.38235
20
0.894766
11
2.37463
21
0.894229
0
LINE
8
BLACK
6
CONTINUOUS
10
2.37463
20
0.894229
11
2.36707
21
0.892618
0
LINE
8
BLACK
6
CONTINUOUS
10
2.36707
20
0.892618
11
2.36344
21
0.891293
0
LINE
8
BLACK
6
CONTINUOUS
10
2.36344
20
0.891293
11
2.36344
21
0.891293
0
LINE
8
BLACK
6
CONTINUOUS
10
2.36344
20
0.891293
11
2.3604
21
0.890822
0
LINE
8
BLACK
6
CONTINUOUS
10
2.3604
20
0.890822
11
2.35741
21
0.891549
0
LINE
8
BLACK
6
CONTINUOUS
10
2.35741
20
0.891549
11
2.35493
21
0.893363
0
LINE
8
BLACK
6
CONTINUOUS
10
2.35493
20
0.893363
11
2.35334
21
0.895988
0
LINE
8
BLACK
6
CONTINUOUS
10
2.35334
20
0.895988
11
2.35292
21
0.898661
0
LINE
8
BLACK
6
CONTINUOUS
10
2.35292
20
0.898661
11
2.35279
21
0.898661
0
LINE
8
BLACK
6
CONTINUOUS
10
2.35279
20
0.898661
11
2.35279
21
0.94
0
LINE
8
BLACK
6
CONTINUOUS
10
2.35279
20
0.94
11
2.41184
21
0.94
0
LINE
8
BLACK
6
CONTINUOUS
10
2.41184
20
0.94
11
2.41184
21
0.898661
0
LINE
8
BLACK
6
CONTINUOUS
10
2.0675
20
0.9575
11
2.0125
21
0.9575
0
LINE
8
BLACK
6
CONTINUOUS
10
2.0125
20
0.9575
11
2.0125
21
0.9925
0
LINE
8
BLACK
6
CONTINUOUS
10
2.0125
20
0.9925
11
2.0675
21
0.9925
0
LINE
8
BLACK
6
CONTINUOUS
10
2.0675
20
0.9925
11
2.0675
21
0.9575
0
LINE
8
BLACK
6
CONTINUOUS
10
2.40981
20
0.972106
11
2.35481
21
0.972106
0
LINE
8
BLACK
6
CONTINUOUS
10
2.35481
20
0.972106
11
2.35481
21
1.00711
0
LINE
8
BLACK
6
CONTINUOUS
10
2.35481
20
1.00711
11
2.40981
21
1.00711
0
LINE
8
BLACK
6
CONTINUOUS
10
2.40981
20
1.00711
11
2.40981
21
0.972106
0
LINE
8
BLACK
6
CONTINUOUS
10
1.86535
20
1.0374
11
1.78661
21
1.0374
0
LINE
8
BLACK
6
CONTINUOUS
10
1.78661
20
1.0374
11
1.78661
21
1.0626
0
LINE
8
BLACK
6
CONTINUOUS
10
1.78661
20
1.0626
11
1.86535
21
1.0626
0
LINE
8
BLACK
6
CONTINUOUS
10
1.86535
20
1.0626
11
1.86535
21
1.0374
0
LINE
8
BLACK
6
CONTINUOUS
10
2.11339
20
1.0374
11
2.03465
21
1.0374
0
LINE
8
BLACK
6
CONTINUOUS
10
2.03465
20
1.0374
11
2.03465
21
1.0626
0
LINE
8
BLACK
6
CONTINUOUS
10
2.03465
20
1.0626
11
2.11339
21
1.0626
0
LINE
8
BLACK
6
CONTINUOUS
10
2.11339
20
1.0626
11
2.11339
21
1.0374
0
LINE
8
BLACK
6
CONTINUOUS
10
2.40981
20
1.04711
11
2.35481
21
1.04711
0
LINE
8
BLACK
6
CONTINUOUS
10
2.35481
20
1.04711
11
2.35481
21
1.08211
0
LINE
8
BLACK
6
CONTINUOUS
10
2.35481
20
1.08211
11
2.40981
21
1.08211
0
LINE
8
BLACK
6
CONTINUOUS
10
2.40981
20
1.08211
11
2.40981
21
1.04711
0
LINE
8
BLACK
6
CONTINUOUS
10
2.39596
20
1.17519
11
2.39596
21
1.17519
0
LINE
8
BLACK
6
CONTINUOUS
10
2.39596
20
1.17519
11
2.39959
21
1.17386
0
LINE
8
BLACK
6
CONTINUOUS
10
2.39959
20
1.17386
11
2.40715
21
1.17224
0
LINE
8
BLACK
6
CONTINUOUS
10
2.40715
20
1.17224
11
2.41487
21
1.17169
0
LINE
8
BLACK
6
CONTINUOUS
10
2.41487
20
1.17169
11
2.42258
21
1.17223
0
LINE
8
BLACK
6
CONTINUOUS
10
2.42258
20
1.17223
11
2.43015
21
1.17384
0
LINE
8
BLACK
6
CONTINUOUS
10
2.43015
20
1.17384
11
2.43378
21
1.17516
0
LINE
8
BLACK
6
CONTINUOUS
10
2.43378
20
1.17516
11
2.43378
21
1.17516
0
LINE
8
BLACK
6
CONTINUOUS
10
2.43378
20
1.17516
11
2.43681
21
1.17563
0
LINE
8
BLACK
6
CONTINUOUS
10
2.43681
20
1.17563
11
2.4398
21
1.17491
0
LINE
8
BLACK
6
CONTINUOUS
10
2.4398
20
1.17491
11
2.44228
21
1.17309
0
LINE
8
BLACK
6
CONTINUOUS
10
2.44228
20
1.17309
11
2.44388
21
1.17047
0
LINE
8
BLACK
6
CONTINUOUS
10
2.44388
20
1.17047
11
2.44429
21
1.1678
0
LINE
8
BLACK
6
CONTINUOUS
10
2.44429
20
1.1678
11
2.44443
21
1.1678
0
LINE
8
BLACK
6
CONTINUOUS
10
2.44443
20
1.1678
11
2.44443
21
1.12646
0
LINE
8
BLACK
6
CONTINUOUS
10
2.44443
20
1.12646
11
2.38537
21
1.12646
0
LINE
8
BLACK
6
CONTINUOUS
10
2.38537
20
1.12646
11
2.38537
21
1.1678
0
LINE
8
BLACK
6
CONTINUOUS
10
2.38537
20
1.1678
11
2.38543
21
1.1678
0
LINE
8
BLACK
6
CONTINUOUS
10
2.38543
20
1.1678
11
2.38586
21
1.17051
0
LINE
8
BLACK
6
CONTINUOUS
10
2.38586
20
1.17051
11
2.38746
21
1.17313
0
LINE
8
BLACK
6
CONTINUOUS
10
2.38746
20
1.17313
11
2.38994
21
1.17494
0
LINE
8
BLACK
6
CONTINUOUS
10
2.38994
20
1.17494
11
2.39292
21
1.17566
0
LINE
8
BLACK
6
CONTINUOUS
10
2.39292
20
1.17566
11
2.39596
21
1.17519
0
LINE
8
BLACK
6
CONTINUOUS
10
1.86535
20
1.1374
11
1.78661
21
1.1374
0
LINE
8
BLACK
6
CONTINUOUS
10
1.78661
20
1.1374
11
1.78661
21
1.1626
0
LINE
8
BLACK
6
CONTINUOUS
10
1.78661
20
1.1626
11
1.86535
21
1.1626
0
LINE
8
BLACK
6
CONTINUOUS
10
1.86535
20
1.1626
11
1.86535
21
1.1374
0
LINE
8
BLACK
6
CONTINUOUS
10
2.11339
20
1.1374
11
2.03465
21
1.1374
0
LINE
8
BLACK
6
CONTINUOUS
10
2.03465
20
1.1374
11
2.03465
21
1.1626
0
LINE
8
BLACK
6
CONTINUOUS
10
2.03465
20
1.1626
11
2.11339
21
1.1626
0
LINE
8
BLACK
6
CONTINUOUS
10
2.11339
20
1.1626
11
2.11339
21
1.1374
0
LINE
8
BLACK
6
CONTINUOUS
10
2.44443
20
1.28591
11
2.44437
21
1.28591
0
LINE
8
BLACK
6
CONTINUOUS
10
2.44437
20
1.28591
11
2.44395
21
1.28319
0
LINE
8
BLACK
6
CONTINUOUS
10
2.44395
20
1.28319
11
2.44235
21
1.28057
0
LINE
8
BLACK
6
CONTINUOUS
10
2.44235
20
1.28057
11
2.43987
21
1.27876
0
LINE
8
BLACK
6
CONTINUOUS
10
2.43987
20
1.27876
11
2.43688
21
1.27804
0
LINE
8
BLACK
6
CONTINUOUS
10
2.43688
20
1.27804
11
2.43384
21
1.27851
0
LINE
8
BLACK
6
CONTINUOUS
10
2.43384
20
1.27851
11
2.43384
21
1.27851
0
LINE
8
BLACK
6
CONTINUOUS
10
2.43384
20
1.27851
11
2.43021
21
1.27984
0
LINE
8
BLACK
6
CONTINUOUS
10
2.43021
20
1.27984
11
2.42265
21
1.28146
0
LINE
8
BLACK
6
CONTINUOUS
10
2.42265
20
1.28146
11
2.41494
21
1.28201
0
LINE
8
BLACK
6
CONTINUOUS
10
2.41494
20
1.28201
11
2.40722
21
1.28147
0
LINE
8
BLACK
6
CONTINUOUS
10
2.40722
20
1.28147
11
2.39966
21
1.27986
0
LINE
8
BLACK
6
CONTINUOUS
10
2.39966
20
1.27986
11
2.39602
21
1.27854
0
LINE
8
BLACK
6
CONTINUOUS
10
2.39602
20
1.27854
11
2.39602
21
1.27854
0
LINE
8
BLACK
6
CONTINUOUS
10
2.39602
20
1.27854
11
2.39299
21
1.27807
0
LINE
8
BLACK
6
CONTINUOUS
10
2.39299
20
1.27807
11
2.39
21
1.27879
0
LINE
8
BLACK
6
CONTINUOUS
10
2.39
20
1.27879
11
2.38752
21
1.28061
0
LINE
8
BLACK
6
CONTINUOUS
10
2.38752
20
1.28061
11
2.38593
21
1.28323
0
LINE
8
BLACK
6
CONTINUOUS
10
2.38593
20
1.28323
11
2.38551
21
1.28591
0
LINE
8
BLACK
6
CONTINUOUS
10
2.38551
20
1.28591
11
2.38537
21
1.28591
0
LINE
8
BLACK
6
CONTINUOUS
10
2.38537
20
1.28591
11
2.38537
21
1.32724
0
LINE
8
BLACK
6
CONTINUOUS
10
2.38537
20
1.32724
11
2.44443
21
1.32724
0
LINE
8
BLACK
6
CONTINUOUS
10
2.44443
20
1.32724
11
2.44443
21
1.28591
0
LINE
8
BLACK
6
CONTINUOUS
10
1.82094
20
1.35947
11
1.82366
21
1.35905
0
LINE
8
BLACK
6
CONTINUOUS
10
1.82366
20
1.35905
11
1.82628
21
1.35745
0
LINE
8
BLACK
6
CONTINUOUS
10
1.82628
20
1.35745
11
1.82809
21
1.35496
0
LINE
8
BLACK
6
CONTINUOUS
10
1.82809
20
1.35496
11
1.82881
21
1.35198
0
LINE
8
BLACK
6
CONTINUOUS
10
1.82881
20
1.35198
11
1.82834
21
1.34894
0
LINE
8
BLACK
6
CONTINUOUS
10
1.82834
20
1.34894
11
1.82834
21
1.34894
0
LINE
8
BLACK
6
CONTINUOUS
10
1.82834
20
1.34894
11
1.82701
21
1.34531
0
LINE
8
BLACK
6
CONTINUOUS
10
1.82701
20
1.34531
11
1.82539
21
1.33775
0
LINE
8
BLACK
6
CONTINUOUS
10
1.82539
20
1.33775
11
1.82484
21
1.33003
0
LINE
8
BLACK
6
CONTINUOUS
10
1.82484
20
1.33003
11
1.82538
21
1.32232
0
LINE
8
BLACK
6
CONTINUOUS
10
1.82538
20
1.32232
11
1.82699
21
1.31476
0
LINE
8
BLACK
6
CONTINUOUS
10
1.82699
20
1.31476
11
1.82831
21
1.31112
0
LINE
8
BLACK
6
CONTINUOUS
10
1.82831
20
1.31112
11
1.82831
21
1.31112
0
LINE
8
BLACK
6
CONTINUOUS
10
1.82831
20
1.31112
11
1.82878
21
1.30809
0
LINE
8
BLACK
6
CONTINUOUS
10
1.82878
20
1.30809
11
1.82806
21
1.3051
0
LINE
8
BLACK
6
CONTINUOUS
10
1.82806
20
1.3051
11
1.82624
21
1.30262
0
LINE
8
BLACK
6
CONTINUOUS
10
1.82624
20
1.30262
11
1.82362
21
1.30103
0
LINE
8
BLACK
6
CONTINUOUS
10
1.82362
20
1.30103
11
1.82094
21
1.30061
0
LINE
8
BLACK
6
CONTINUOUS
10
1.82094
20
1.30061
11
1.82094
21
1.30047
0
LINE
8
BLACK
6
CONTINUOUS
10
1.82094
20
1.30047
11
1.77961
21
1.30047
0
LINE
8
BLACK
6
CONTINUOUS
10
1.77961
20
1.30047
11
1.77961
21
1.35953
0
LINE
8
BLACK
6
CONTINUOUS
10
1.77961
20
1.35953
11
1.82094
21
1.35953
0
LINE
8
BLACK
6
CONTINUOUS
10
1.82094
20
1.35953
11
1.82094
21
1.35947
0
LINE
8
BLACK
6
CONTINUOUS
10
1.98039
20
1.30047
11
1.93906
21
1.30047
0
LINE
8
BLACK
6
CONTINUOUS
10
1.93906
20
1.30047
11
1.93906
21
1.30053
0
LINE
8
BLACK
6
CONTINUOUS
10
1.93906
20
1.30053
11
1.93634
21
1.30095
0
LINE
8
BLACK
6
CONTINUOUS
10
1.93634
20
1.30095
11
1.93372
21
1.30255
0
LINE
8
BLACK
6
CONTINUOUS
10
1.93372
20
1.30255
11
1.93191
21
1.30504
0
LINE
8
BLACK
6
CONTINUOUS
10
1.93191
20
1.30504
11
1.93119
21
1.30802
0
LINE
8
BLACK
6
CONTINUOUS
10
1.93119
20
1.30802
11
1.93166
21
1.31106
0
LINE
8
BLACK
6
CONTINUOUS
10
1.93166
20
1.31106
11
1.93166
21
1.31106
0
LINE
8
BLACK
6
CONTINUOUS
10
1.93166
20
1.31106
11
1.93299
21
1.31469
0
LINE
8
BLACK
6
CONTINUOUS
10
1.93299
20
1.31469
11
1.93461
21
1.32225
0
LINE
8
BLACK
6
CONTINUOUS
10
1.93461
20
1.32225
11
1.93516
21
1.32997
0
LINE
8
BLACK
6
CONTINUOUS
10
1.93516
20
1.32997
11
1.93462
21
1.33768
0
LINE
8
BLACK
6
CONTINUOUS
10
1.93462
20
1.33768
11
1.93301
21
1.34524
0
LINE
8
BLACK
6
CONTINUOUS
10
1.93301
20
1.34524
11
1.93169
21
1.34888
0
LINE
8
BLACK
6
CONTINUOUS
10
1.93169
20
1.34888
11
1.93169
21
1.34888
0
LINE
8
BLACK
6
CONTINUOUS
10
1.93169
20
1.34888
11
1.93122
21
1.35191
0
LINE
8
BLACK
6
CONTINUOUS
10
1.93122
20
1.35191
11
1.93194
21
1.3549
0
LINE
8
BLACK
6
CONTINUOUS
10
1.93194
20
1.3549
11
1.93376
21
1.35738
0
LINE
8
BLACK
6
CONTINUOUS
10
1.93376
20
1.35738
11
1.93638
21
1.35897
0
LINE
8
BLACK
6
CONTINUOUS
10
1.93638
20
1.35897
11
1.93906
21
1.35939
0
LINE
8
BLACK
6
CONTINUOUS
10
1.93906
20
1.35939
11
1.93906
21
1.35953
0
LINE
8
BLACK
6
CONTINUOUS
10
1.93906
20
1.35953
11
1.98039
21
1.35953
0
LINE
8
BLACK
6
CONTINUOUS
10
1.98039
20
1.35953
11
1.98039
21
1.30047
0
LINE
8
BLACK
6
CONTINUOUS
10
2.0675
20
1.30292
11
2.0125
21
1.30292
0
LINE
8
BLACK
6
CONTINUOUS
10
2.0125
20
1.30292
11
2.0125
21
1.33792
0
LINE
8
BLACK
6
CONTINUOUS
10
2.0125
20
1.33792
11
2.0675
21
1.33792
0
LINE
8
BLACK
6
CONTINUOUS
10
2.0675
20
1.33792
11
2.0675
21
1.30292
0
LINE
8
BLACK
6
CONTINUOUS
10
2.4424
20
1.37185
11
2.3874
21
1.37185
0
LINE
8
BLACK
6
CONTINUOUS
10
2.3874
20
1.37185
11
2.3874
21
1.40685
0
LINE
8
BLACK
6
CONTINUOUS
10
2.3874
20
1.40685
11
2.4424
21
1.40685
0
LINE
8
BLACK
6
CONTINUOUS
10
2.4424
20
1.40685
11
2.4424
21
1.37185
0
LINE
8
BLACK
6
CONTINUOUS
10
2.0675
20
1.37792
11
2.0125
21
1.37792
0
LINE
8
BLACK
6
CONTINUOUS
10
2.0125
20
1.37792
11
2.0125
21
1.41292
0
LINE
8
BLACK
6
CONTINUOUS
10
2.0125
20
1.41292
11
2.0675
21
1.41292
0
LINE
8
BLACK
6
CONTINUOUS
10
2.0675
20
1.41292
11
2.0675
21
1.37792
0
LINE
8
BLACK
6
CONTINUOUS
10
2.4424
20
1.44685
11
2.3874
21
1.44685
0
LINE
8
BLACK
6
CONTINUOUS
10
2.3874
20
1.44685
11
2.3874
21
1.48185
0
LINE
8
BLACK
6
CONTINUOUS
10
2.3874
20
1.48185
11
2.4424
21
1.48185
0
LINE
8
BLACK
6
CONTINUOUS
10
2.4424
20
1.48185
11
2.4424
21
1.44685
0
LINE
8
BLACK
6
CONTINUOUS
10
1.86535
20
1.45907
11
1.78661
21
1.45907
0
LINE
8
BLACK
6
CONTINUOUS
10
1.78661
20
1.45907
11
1.78661
21
1.48427
0
LINE
8
BLACK
6
CONTINUOUS
10
1.78661
20
1.48427
11
1.86535
21
1.48427
0
LINE
8
BLACK
6
CONTINUOUS
10
1.86535
20
1.48427
11
1.86535
21
1.45907
0
LINE
8
BLACK
6
CONTINUOUS
10
2.11339
20
1.45907
11
2.03465
21
1.45907
0
LINE
8
BLACK
6
CONTINUOUS
10
2.03465
20
1.45907
11
2.03465
21
1.48427
0
LINE
8
BLACK
6
CONTINUOUS
10
2.03465
20
1.48427
11
2.11339
21
1.48427
0
LINE
8
BLACK
6
CONTINUOUS
10
2.11339
20
1.48427
11
2.11339
21
1.45907
0
LINE
8
BLACK
6
CONTINUOUS
10
1.86535
20
1.55907
11
1.78661
21
1.55907
0
LINE
8
BLACK
6
CONTINUOUS
10
1.78661
20
1.55907
11
1.78661
21
1.58427
0
LINE
8
BLACK
6
CONTINUOUS
10
1.78661
20
1.58427
11
1.86535
21
1.58427
0
LINE
8
BLACK
6
CONTINUOUS
10
1.86535
20
1.58427
11
1.86535
21
1.55907
0
LINE
8
BLACK
6
CONTINUOUS
10
2.11339
20
1.55907
11
2.03465
21
1.55907
0
LINE
8
BLACK
6
CONTINUOUS
10
2.03465
20
1.55907
11
2.03465
21
1.58427
0
LINE
8
BLACK
6
CONTINUOUS
10
2.03465
20
1.58427
11
2.11339
21
1.58427
0
LINE
8
BLACK
6
CONTINUOUS
10
2.11339
20
1.58427
11
2.11339
21
1.55907
0
LINE
8
BLACK
6
CONTINUOUS
10
2.58661
20
1.65748
11
2.45276
21
1.65748
0
LINE
8
BLACK
6
CONTINUOUS
10
2.45276
20
1.65748
11
2.45276
21
1.73228
0
LINE
8
BLACK
6
CONTINUOUS
10
2.45276
20
1.73228
11
2.58661
21
1.73228
0
LINE
8
BLACK
6
CONTINUOUS
10
2.58661
20
1.73228
11
2.58661
21
1.65748
0
LINE
8
BLACK
6
CONTINUOUS
10
2.8622
20
1.65748
11
2.72835
21
1.65748
0
LINE
8
BLACK
6
CONTINUOUS
10
2.72835
20
1.65748
11
2.72835
21
1.73228
0
LINE
8
BLACK
6
CONTINUOUS
10
2.72835
20
1.73228
11
2.8622
21
1.73228
0
LINE
8
BLACK
6
CONTINUOUS
10
2.8622
20
1.73228
11
2.8622
21
1.65748
0
LINE
8
BLACK
6
CONTINUOUS
10
1.82094
20
1.77947
11
1.82366
21
1.77905
0
LINE
8
BLACK
6
CONTINUOUS
10
1.82366
20
1.77905
11
1.82628
21
1.77745
0
LINE
8
BLACK
6
CONTINUOUS
10
1.82628
20
1.77745
11
1.82809
21
1.77496
0
LINE
8
BLACK
6
CONTINUOUS
10
1.82809
20
1.77496
11
1.82881
21
1.77198
0
LINE
8
BLACK
6
CONTINUOUS
10
1.82881
20
1.77198
11
1.82834
21
1.76894
0
LINE
8
BLACK
6
CONTINUOUS
10
1.82834
20
1.76894
11
1.82834
21
1.76894
0
LINE
8
BLACK
6
CONTINUOUS
10
1.82834
20
1.76894
11
1.82701
21
1.76531
0
LINE
8
BLACK
6
CONTINUOUS
10
1.82701
20
1.76531
11
1.82539
21
1.75775
0
LINE
8
BLACK
6
CONTINUOUS
10
1.82539
20
1.75775
11
1.82484
21
1.75003
0
LINE
8
BLACK
6
CONTINUOUS
10
1.82484
20
1.75003
11
1.82538
21
1.74232
0
LINE
8
BLACK
6
CONTINUOUS
10
1.82538
20
1.74232
11
1.82699
21
1.73476
0
LINE
8
BLACK
6
CONTINUOUS
10
1.82699
20
1.73476
11
1.82831
21
1.73112
0
LINE
8
BLACK
6
CONTINUOUS
10
1.82831
20
1.73112
11
1.82831
21
1.73112
0
LINE
8
BLACK
6
CONTINUOUS
10
1.82831
20
1.73112
11
1.82878
21
1.72809
0
LINE
8
BLACK
6
CONTINUOUS
10
1.82878
20
1.72809
11
1.82806
21
1.7251
0
LINE
8
BLACK
6
CONTINUOUS
10
1.82806
20
1.7251
11
1.82624
21
1.72262
0
LINE
8
BLACK
6
CONTINUOUS
10
1.82624
20
1.72262
11
1.82362
21
1.72103
0
LINE
8
BLACK
6
CONTINUOUS
10
1.82362
20
1.72103
11
1.82094
21
1.72061
0
LINE
8
BLACK
6
CONTINUOUS
10
1.82094
20
1.72061
11
1.82094
21
1.72047
0
LINE
8
BLACK
6
CONTINUOUS
10
1.82094
20
1.72047
11
1.77961
21
1.72047
0
LINE
8
BLACK
6
CONTINUOUS
10
1.77961
20
1.72047
11
1.77961
21
1.77953
0
LINE
8
BLACK
6
CONTINUOUS
10
1.77961
20
1.77953
11
1.82094
21
1.77953
0
LINE
8
BLACK
6
CONTINUOUS
10
1.82094
20
1.77953
11
1.82094
21
1.77947
0
LINE
8
BLACK
6
CONTINUOUS
10
1.98039
20
1.72047
11
1.93906
21
1.72047
0
LINE
8
BLACK
6
CONTINUOUS
10
1.93906
20
1.72047
11
1.93906
21
1.72053
0
LINE
8
BLACK
6
CONTINUOUS
10
1.93906
20
1.72053
11
1.93634
21
1.72095
0
LINE
8
BLACK
6
CONTINUOUS
10
1.93634
20
1.72095
11
1.93372
21
1.72255
0
LINE
8
BLACK
6
CONTINUOUS
10
1.93372
20
1.72255
11
1.93191
21
1.72504
0
LINE
8
BLACK
6
CONTINUOUS
10
1.93191
20
1.72504
11
1.93119
21
1.72802
0
LINE
8
BLACK
6
CONTINUOUS
10
1.93119
20
1.72802
11
1.93166
21
1.73106
0
LINE
8
BLACK
6
CONTINUOUS
10
1.93166
20
1.73106
11
1.93166
21
1.73106
0
LINE
8
BLACK
6
CONTINUOUS
10
1.93166
20
1.73106
11
1.93299
21
1.73469
0
LINE
8
BLACK
6
CONTINUOUS
10
1.93299
20
1.73469
11
1.93461
21
1.74225
0
LINE
8
BLACK
6
CONTINUOUS
10
1.93461
20
1.74225
11
1.93516
21
1.74997
0
LINE
8
BLACK
6
CONTINUOUS
10
1.93516
20
1.74997
11
1.93462
21
1.75768
0
LINE
8
BLACK
6
CONTINUOUS
10
1.93462
20
1.75768
11
1.93301
21
1.76524
0
LINE
8
BLACK
6
CONTINUOUS
10
1.93301
20
1.76524
11
1.93169
21
1.76888
0
LINE
8
BLACK
6
CONTINUOUS
10
1.93169
20
1.76888
11
1.93169
21
1.76888
0
LINE
8
BLACK
6
CONTINUOUS
10
1.93169
20
1.76888
11
1.93122
21
1.77191
0
LINE
8
BLACK
6
CONTINUOUS
10
1.93122
20
1.77191
11
1.93194
21
1.7749
0
LINE
8
BLACK
6
CONTINUOUS
10
1.93194
20
1.7749
11
1.93376
21
1.77738
0
LINE
8
BLACK
6
CONTINUOUS
10
1.93376
20
1.77738
11
1.93638
21
1.77897
0
LINE
8
BLACK
6
CONTINUOUS
10
1.93638
20
1.77897
11
1.93906
21
1.77939
0
LINE
8
BLACK
6
CONTINUOUS
10
1.93906
20
1.77939
11
1.93906
21
1.77953
0
LINE
8
BLACK
6
CONTINUOUS
10
1.93906
20
1.77953
11
1.98039
21
1.77953
0
LINE
8
BLACK
6
CONTINUOUS
10
1.98039
20
1.77953
11
1.98039
21
1.72047
0
LINE
8
BLACK
6
CONTINUOUS
10
2.0675
20
1.72333
11
2.0125
21
1.72333
0
LINE
8
BLACK
6
CONTINUOUS
10
2.0125
20
1.72333
11
2.0125
21
1.75833
0
LINE
8
BLACK
6
CONTINUOUS
10
2.0125
20
1.75833
11
2.0675
21
1.75833
0
LINE
8
BLACK
6
CONTINUOUS
10
2.0675
20
1.75833
11
2.0675
21
1.72333
0
LINE
8
BLACK
6
CONTINUOUS
10
2.0675
20
1.79833
11
2.0125
21
1.79833
0
LINE
8
BLACK
6
CONTINUOUS
10
2.0125
20
1.79833
11
2.0125
21
1.83333
0
LINE
8
BLACK
6
CONTINUOUS
10
2.0125
20
1.83333
11
2.0675
21
1.83333
0
LINE
8
BLACK
6
CONTINUOUS
10
2.0675
20
1.83333
11
2.0675
21
1.79833
0
LINE
8
BLACK
6
CONTINUOUS
10
2.58661
20
1.81102
11
2.45276
21
1.81102
0
LINE
8
BLACK
6
CONTINUOUS
10
2.45276
20
1.81102
11
2.45276
21
1.88583
0
LINE
8
BLACK
6
CONTINUOUS
10
2.45276
20
1.88583
11
2.58661
21
1.88583
0
LINE
8
BLACK
6
CONTINUOUS
10
2.58661
20
1.88583
11
2.58661
21
1.81102
0
LINE
8
BLACK
6
CONTINUOUS
10
2.8622
20
1.81102
11
2.72835
21
1.81102
0
LINE
8
BLACK
6
CONTINUOUS
10
2.72835
20
1.81102
11
2.72835
21
1.88583
0
LINE
8
BLACK
6
CONTINUOUS
10
2.72835
20
1.88583
11
2.8622
21
1.88583
0
LINE
8
BLACK
6
CONTINUOUS
10
2.8622
20
1.88583
11
2.8622
21
1.81102
0
LINE
8
BLACK
6
CONTINUOUS
10
1.86535
20
1.88073
11
1.78661
21
1.88073
0
LINE
8
BLACK
6
CONTINUOUS
10
1.78661
20
1.88073
11
1.78661
21
1.90593
0
LINE
8
BLACK
6
CONTINUOUS
10
1.78661
20
1.90593
11
1.86535
21
1.90593
0
LINE
8
BLACK
6
CONTINUOUS
10
1.86535
20
1.90593
11
1.86535
21
1.88073
0
LINE
8
BLACK
6
CONTINUOUS
10
2.11339
20
1.88073
11
2.03465
21
1.88073
0
LINE
8
BLACK
6
CONTINUOUS
10
2.03465
20
1.88073
11
2.03465
21
1.90593
0
LINE
8
BLACK
6
CONTINUOUS
10
2.03465
20
1.90593
11
2.11339
21
1.90593
0
LINE
8
BLACK
6
CONTINUOUS
10
2.11339
20
1.90593
11
2.11339
21
1.88073
0
LINE
8
BLACK
6
CONTINUOUS
10
1.86535
20
1.98073
11
1.78661
21
1.98073
0
LINE
8
BLACK
6
CONTINUOUS
10
1.78661
20
1.98073
11
1.78661
21
2.00593
0
LINE
8
BLACK
6
CONTINUOUS
10
1.78661
20
2.00593
11
1.86535
21
2.00593
0
LINE
8
BLACK
6
CONTINUOUS
10
1.86535
20
2.00593
11
1.86535
21
1.98073
0
LINE
8
BLACK
6
CONTINUOUS
10
2.11339
20
1.98073
11
2.03465
21
1.98073
0
LINE
8
BLACK
6
CONTINUOUS
10
2.03465
20
1.98073
11
2.03465
21
2.00593
0
LINE
8
BLACK
6
CONTINUOUS
10
2.03465
20
2.00593
11
2.11339
21
2.00593
0
LINE
8
BLACK
6
CONTINUOUS
10
2.11339
20
2.00593
11
2.11339
21
1.98073
0
LINE
8
BLACK
6
CONTINUOUS
10
1.82094
20
2.19947
11
1.82366
21
2.19905
0
LINE
8
BLACK
6
CONTINUOUS
10
1.82366
20
2.19905
11
1.82628
21
2.19745
0
LINE
8
BLACK
6
CONTINUOUS
10
1.82628
20
2.19745
11
1.82809
21
2.19496
0
LINE
8
BLACK
6
CONTINUOUS
10
1.82809
20
2.19496
11
1.82881
21
2.19198
0
LINE
8
BLACK
6
CONTINUOUS
10
1.82881
20
2.19198
11
1.82834
21
2.18894
0
LINE
8
BLACK
6
CONTINUOUS
10
1.82834
20
2.18894
11
1.82834
21
2.18894
0
LINE
8
BLACK
6
CONTINUOUS
10
1.82834
20
2.18894
11
1.82701
21
2.18531
0
LINE
8
BLACK
6
CONTINUOUS
10
1.82701
20
2.18531
11
1.82539
21
2.17775
0
LINE
8
BLACK
6
CONTINUOUS
10
1.82539
20
2.17775
11
1.82484
21
2.17003
0
LINE
8
BLACK
6
CONTINUOUS
10
1.82484
20
2.17003
11
1.82538
21
2.16232
0
LINE
8
BLACK
6
CONTINUOUS
10
1.82538
20
2.16232
11
1.82699
21
2.15476
0
LINE
8
BLACK
6
CONTINUOUS
10
1.82699
20
2.15476
11
1.82831
21
2.15112
0
LINE
8
BLACK
6
CONTINUOUS
10
1.82831
20
2.15112
11
1.82831
21
2.15112
0
LINE
8
BLACK
6
CONTINUOUS
10
1.82831
20
2.15112
11
1.82878
21
2.14809
0
LINE
8
BLACK
6
CONTINUOUS
10
1.82878
20
2.14809
11
1.82806
21
2.1451
0
LINE
8
BLACK
6
CONTINUOUS
10
1.82806
20
2.1451
11
1.82624
21
2.14262
0
LINE
8
BLACK
6
CONTINUOUS
10
1.82624
20
2.14262
11
1.82362
21
2.14103
0
LINE
8
BLACK
6
CONTINUOUS
10
1.82362
20
2.14103
11
1.82094
21
2.14061
0
LINE
8
BLACK
6
CONTINUOUS
10
1.82094
20
2.14061
11
1.82094
21
2.14047
0
LINE
8
BLACK
6
CONTINUOUS
10
1.82094
20
2.14047
11
1.77961
21
2.14047
0
LINE
8
BLACK
6
CONTINUOUS
10
1.77961
20
2.14047
11
1.77961
21
2.19953
0
LINE
8
BLACK
6
CONTINUOUS
10
1.77961
20
2.19953
11
1.82094
21
2.19953
0
LINE
8
BLACK
6
CONTINUOUS
10
1.82094
20
2.19953
11
1.82094
21
2.19947
0
LINE
8
BLACK
6
CONTINUOUS
10
1.98039
20
2.14047
11
1.93906
21
2.14047
0
LINE
8
BLACK
6
CONTINUOUS
10
1.93906
20
2.14047
11
1.93906
21
2.14053
0
LINE
8
BLACK
6
CONTINUOUS
10
1.93906
20
2.14053
11
1.93634
21
2.14095
0
LINE
8
BLACK
6
CONTINUOUS
10
1.93634
20
2.14095
11
1.93372
21
2.14255
0
LINE
8
BLACK
6
CONTINUOUS
10
1.93372
20
2.14255
11
1.93191
21
2.14504
0
LINE
8
BLACK
6
CONTINUOUS
10
1.93191
20
2.14504
11
1.93119
21
2.14802
0
LINE
8
BLACK
6
CONTINUOUS
10
1.93119
20
2.14802
11
1.93166
21
2.15106
0
LINE
8
BLACK
6
CONTINUOUS
10
1.93166
20
2.15106
11
1.93166
21
2.15106
0
LINE
8
BLACK
6
CONTINUOUS
10
1.93166
20
2.15106
11
1.93299
21
2.15469
0
LINE
8
BLACK
6
CONTINUOUS
10
1.93299
20
2.15469
11
1.93461
21
2.16225
0
LINE
8
BLACK
6
CONTINUOUS
10
1.93461
20
2.16225
11
1.93516
21
2.16997
0
LINE
8
BLACK
6
CONTINUOUS
10
1.93516
20
2.16997
11
1.93462
21
2.17768
0
LINE
8
BLACK
6
CONTINUOUS
10
1.93462
20
2.17768
11
1.93301
21
2.18524
0
LINE
8
BLACK
6
CONTINUOUS
10
1.93301
20
2.18524
11
1.93169
21
2.18888
0
LINE
8
BLACK
6
CONTINUOUS
10
1.93169
20
2.18888
11
1.93169
21
2.18888
0
LINE
8
BLACK
6
CONTINUOUS
10
1.93169
20
2.18888
11
1.93122
21
2.19191
0
LINE
8
BLACK
6
CONTINUOUS
10
1.93122
20
2.19191
11
1.93194
21
2.1949
0
LINE
8
BLACK
6
CONTINUOUS
10
1.93194
20
2.1949
11
1.93376
21
2.19738
0
LINE
8
BLACK
6
CONTINUOUS
10
1.93376
20
2.19738
11
1.93638
21
2.19897
0
LINE
8
BLACK
6
CONTINUOUS
10
1.93638
20
2.19897
11
1.93906
21
2.19939
0
LINE
8
BLACK
6
CONTINUOUS
10
1.93906
20
2.19939
11
1.93906
21
2.19953
0
LINE
8
BLACK
6
CONTINUOUS
10
1.93906
20
2.19953
11
1.98039
21
2.19953
0
LINE
8
BLACK
6
CONTINUOUS
10
1.98039
20
2.19953
11
1.98039
21
2.14047
0
LINE
8
BLACK
6
CONTINUOUS
10
2.0675
20
2.14375
11
2.0125
21
2.14375
0
LINE
8
BLACK
6
CONTINUOUS
10
2.0125
20
2.14375
11
2.0125
21
2.17875
0
LINE
8
BLACK
6
CONTINUOUS
10
2.0125
20
2.17875
11
2.0675
21
2.17875
0
LINE
8
BLACK
6
CONTINUOUS
10
2.0675
20
2.17875
11
2.0675
21
2.14375
0
LINE
8
BLACK
6
CONTINUOUS
10
2.0675
20
2.21875
11
2.0125
21
2.21875
0
LINE
8
BLACK
6
CONTINUOUS
10
2.0125
20
2.21875
11
2.0125
21
2.25375
0
LINE
8
BLACK
6
CONTINUOUS
10
2.0125
20
2.25375
11
2.0675
21
2.25375
0
LINE
8
BLACK
6
CONTINUOUS
10
2.0675
20
2.25375
11
2.0675
21
2.21875
0
LINE
8
BLACK
6
CONTINUOUS
10
1.86535
20
2.3024
11
1.78661
21
2.3024
0
LINE
8
BLACK
6
CONTINUOUS
10
1.78661
20
2.3024
11
1.78661
21
2.3276
0
LINE
8
BLACK
6
CONTINUOUS
10
1.78661
20
2.3276
11
1.86535
21
2.3276
0
LINE
8
BLACK
6
CONTINUOUS
10
1.86535
20
2.3276
11
1.86535
21
2.3024
0
LINE
8
BLACK
6
CONTINUOUS
10
2.11339
20
2.3024
11
2.03465
21
2.3024
0
LINE
8
BLACK
6
CONTINUOUS
10
2.03465
20
2.3024
11
2.03465
21
2.3276
0
LINE
8
BLACK
6
CONTINUOUS
10
2.03465
20
2.3276
11
2.11339
21
2.3276
0
LINE
8
BLACK
6
CONTINUOUS
10
2.11339
20
2.3276
11
2.11339
21
2.3024
0
LINE
8
BLACK
6
CONTINUOUS
10
1.86535
20
2.4024
11
1.78661
21
2.4024
0
LINE
8
BLACK
6
CONTINUOUS
10
1.78661
20
2.4024
11
1.78661
21
2.4276
0
LINE
8
BLACK
6
CONTINUOUS
10
1.78661
20
2.4276
11
1.86535
21
2.4276
0
LINE
8
BLACK
6
CONTINUOUS
10
1.86535
20
2.4276
11
1.86535
21
2.4024
0
LINE
8
BLACK
6
CONTINUOUS
10
2.11339
20
2.4024
11
2.03465
21
2.4024
0
LINE
8
BLACK
6
CONTINUOUS
10
2.03465
20
2.4024
11
2.03465
21
2.4276
0
LINE
8
BLACK
6
CONTINUOUS
10
2.03465
20
2.4276
11
2.11339
21
2.4276
0
LINE
8
BLACK
6
CONTINUOUS
10
2.11339
20
2.4276
11
2.11339
21
2.4024
0
LINE
8
BLACK
6
CONTINUOUS
10
2.5975
20
2.465
11
2.5425
21
2.465
0
LINE
8
BLACK
6
CONTINUOUS
10
2.5425
20
2.465
11
2.5425
21
2.5
0
LINE
8
BLACK
6
CONTINUOUS
10
2.5425
20
2.5
11
2.5975
21
2.5
0
LINE
8
BLACK
6
CONTINUOUS
10
2.5975
20
2.5
11
2.5975
21
2.465
0
LINE
8
BLACK
6
CONTINUOUS
10
2.68247
20
2.50413
11
2.68566
21
2.502
0
LINE
8
BLACK
6
CONTINUOUS
10
2.68566
20
2.502
11
2.68779
21
2.49881
0
LINE
8
BLACK
6
CONTINUOUS
10
2.68779
20
2.49881
11
2.68854
21
2.49504
0
LINE
8
BLACK
6
CONTINUOUS
10
2.68854
20
2.49504
11
2.68854
21
2.47535
0
LINE
8
BLACK
6
CONTINUOUS
10
2.68854
20
2.47535
11
2.68779
21
2.47159
0
LINE
8
BLACK
6
CONTINUOUS
10
2.68779
20
2.47159
11
2.68566
21
2.46839
0
LINE
8
BLACK
6
CONTINUOUS
10
2.68566
20
2.46839
11
2.68247
21
2.46626
0
LINE
8
BLACK
6
CONTINUOUS
10
2.68247
20
2.46626
11
2.6787
21
2.46551
0
LINE
8
BLACK
6
CONTINUOUS
10
2.6787
20
2.46551
11
2.6413
21
2.46551
0
LINE
8
BLACK
6
CONTINUOUS
10
2.6413
20
2.46551
11
2.63753
21
2.46626
0
LINE
8
BLACK
6
CONTINUOUS
10
2.63753
20
2.46626
11
2.63434
21
2.46839
0
LINE
8
BLACK
6
CONTINUOUS
10
2.63434
20
2.46839
11
2.63221
21
2.47159
0
LINE
8
BLACK
6
CONTINUOUS
10
2.63221
20
2.47159
11
2.63146
21
2.47535
0
LINE
8
BLACK
6
CONTINUOUS
10
2.63146
20
2.47535
11
2.63146
21
2.49504
0
LINE
8
BLACK
6
CONTINUOUS
10
2.63146
20
2.49504
11
2.63221
21
2.49881
0
LINE
8
BLACK
6
CONTINUOUS
10
2.63221
20
2.49881
11
2.63434
21
2.502
0
LINE
8
BLACK
6
CONTINUOUS
10
2.63434
20
2.502
11
2.63753
21
2.50413
0
LINE
8
BLACK
6
CONTINUOUS
10
2.63753
20
2.50413
11
2.6413
21
2.50488
0
LINE
8
BLACK
6
CONTINUOUS
10
2.6413
20
2.50488
11
2.6787
21
2.50488
0
LINE
8
BLACK
6
CONTINUOUS
10
2.6787
20
2.50488
11
2.68247
21
2.50413
0
LINE
8
BLACK
6
CONTINUOUS
10
2.5975
20
2.54
11
2.5425
21
2.54
0
LINE
8
BLACK
6
CONTINUOUS
10
2.5425
20
2.54
11
2.5425
21
2.575
0
LINE
8
BLACK
6
CONTINUOUS
10
2.5425
20
2.575
11
2.5975
21
2.575
0
LINE
8
BLACK
6
CONTINUOUS
10
2.5975
20
2.575
11
2.5975
21
2.54
0
LINE
8
BLACK
6
CONTINUOUS
10
2.68247
20
2.57894
11
2.68566
21
2.5768
0
LINE
8
BLACK
6
CONTINUOUS
10
2.68566
20
2.5768
11
2.68779
21
2.57361
0
LINE
8
BLACK
6
CONTINUOUS
10
2.68779
20
2.57361
11
2.68854
21
2.56984
0
LINE
8
BLACK
6
CONTINUOUS
10
2.68854
20
2.56984
11
2.68854
21
2.55016
0
LINE
8
BLACK
6
CONTINUOUS
10
2.68854
20
2.55016
11
2.68779
21
2.54639
0
LINE
8
BLACK
6
CONTINUOUS
10
2.68779
20
2.54639
11
2.68566
21
2.5432
0
LINE
8
BLACK
6
CONTINUOUS
10
2.68566
20
2.5432
11
2.68247
21
2.54106
0
LINE
8
BLACK
6
CONTINUOUS
10
2.68247
20
2.54106
11
2.6787
21
2.54031
0
LINE
8
BLACK
6
CONTINUOUS
10
2.6787
20
2.54031
11
2.6413
21
2.54031
0
LINE
8
BLACK
6
CONTINUOUS
10
2.6413
20
2.54031
11
2.63753
21
2.54106
0
LINE
8
BLACK
6
CONTINUOUS
10
2.63753
20
2.54106
11
2.63434
21
2.5432
0
LINE
8
BLACK
6
CONTINUOUS
10
2.63434
20
2.5432
11
2.63221
21
2.54639
0
LINE
8
BLACK
6
CONTINUOUS
10
2.63221
20
2.54639
11
2.63146
21
2.55016
0
LINE
8
BLACK
6
CONTINUOUS
10
2.63146
20
2.55016
11
2.63146
21
2.56984
0
LINE
8
BLACK
6
CONTINUOUS
10
2.63146
20
2.56984
11
2.63221
21
2.57361
0
LINE
8
BLACK
6
CONTINUOUS
10
2.63221
20
2.57361
11
2.63434
21
2.5768
0
LINE
8
BLACK
6
CONTINUOUS
10
2.63434
20
2.5768
11
2.63753
21
2.57894
0
LINE
8
BLACK
6
CONTINUOUS
10
2.63753
20
2.57894
11
2.6413
21
2.57969
0
LINE
8
BLACK
6
CONTINUOUS
10
2.6413
20
2.57969
11
2.6787
21
2.57969
0
LINE
8
BLACK
6
CONTINUOUS
10
2.6787
20
2.57969
11
2.68247
21
2.57894
0
LINE
8
BLACK
6
CONTINUOUS
10
1.82094
20
2.61947
11
1.82366
21
2.61905
0
LINE
8
BLACK
6
CONTINUOUS
10
1.82366
20
2.61905
11
1.82628
21
2.61745
0
LINE
8
BLACK
6
CONTINUOUS
10
1.82628
20
2.61745
11
1.82809
21
2.61496
0
LINE
8
BLACK
6
CONTINUOUS
10
1.82809
20
2.61496
11
1.82881
21
2.61198
0
LINE
8
BLACK
6
CONTINUOUS
10
1.82881
20
2.61198
11
1.82834
21
2.60894
0
LINE
8
BLACK
6
CONTINUOUS
10
1.82834
20
2.60894
11
1.82834
21
2.60894
0
LINE
8
BLACK
6
CONTINUOUS
10
1.82834
20
2.60894
11
1.82701
21
2.60531
0
LINE
8
BLACK
6
CONTINUOUS
10
1.82701
20
2.60531
11
1.82539
21
2.59775
0
LINE
8
BLACK
6
CONTINUOUS
10
1.82539
20
2.59775
11
1.82484
21
2.59003
0
LINE
8
BLACK
6
CONTINUOUS
10
1.82484
20
2.59003
11
1.82538
21
2.58232
0
LINE
8
BLACK
6
CONTINUOUS
10
1.82538
20
2.58232
11
1.82699
21
2.57476
0
LINE
8
BLACK
6
CONTINUOUS
10
1.82699
20
2.57476
11
1.82831
21
2.57112
0
LINE
8
BLACK
6
CONTINUOUS
10
1.82831
20
2.57112
11
1.82831
21
2.57112
0
LINE
8
BLACK
6
CONTINUOUS
10
1.82831
20
2.57112
11
1.82878
21
2.56809
0
LINE
8
BLACK
6
CONTINUOUS
10
1.82878
20
2.56809
11
1.82806
21
2.5651
0
LINE
8
BLACK
6
CONTINUOUS
10
1.82806
20
2.5651
11
1.82624
21
2.56262
0
LINE
8
BLACK
6
CONTINUOUS
10
1.82624
20
2.56262
11
1.82362
21
2.56103
0
LINE
8
BLACK
6
CONTINUOUS
10
1.82362
20
2.56103
11
1.82094
21
2.56061
0
LINE
8
BLACK
6
CONTINUOUS
10
1.82094
20
2.56061
11
1.82094
21
2.56047
0
LINE
8
BLACK
6
CONTINUOUS
10
1.82094
20
2.56047
11
1.77961
21
2.56047
0
LINE
8
BLACK
6
CONTINUOUS
10
1.77961
20
2.56047
11
1.77961
21
2.61953
0
LINE
8
BLACK
6
CONTINUOUS
10
1.77961
20
2.61953
11
1.82094
21
2.61953
0
LINE
8
BLACK
6
CONTINUOUS
10
1.82094
20
2.61953
11
1.82094
21
2.61947
0
LINE
8
BLACK
6
CONTINUOUS
10
1.98039
20
2.56047
11
1.93906
21
2.56047
0
LINE
8
BLACK
6
CONTINUOUS
10
1.93906
20
2.56047
11
1.93906
21
2.56053
0
LINE
8
BLACK
6
CONTINUOUS
10
1.93906
20
2.56053
11
1.93634
21
2.56095
0
LINE
8
BLACK
6
CONTINUOUS
10
1.93634
20
2.56095
11
1.93372
21
2.56255
0
LINE
8
BLACK
6
CONTINUOUS
10
1.93372
20
2.56255
11
1.93191
21
2.56504
0
LINE
8
BLACK
6
CONTINUOUS
10
1.93191
20
2.56504
11
1.93119
21
2.56802
0
LINE
8
BLACK
6
CONTINUOUS
10
1.93119
20
2.56802
11
1.93166
21
2.57106
0
LINE
8
BLACK
6
CONTINUOUS
10
1.93166
20
2.57106
11
1.93166
21
2.57106
0
LINE
8
BLACK
6
CONTINUOUS
10
1.93166
20
2.57106
11
1.93299
21
2.57469
0
LINE
8
BLACK
6
CONTINUOUS
10
1.93299
20
2.57469
11
1.93461
21
2.58225
0
LINE
8
BLACK
6
CONTINUOUS
10
1.93461
20
2.58225
11
1.93516
21
2.58997
0
LINE
8
BLACK
6
CONTINUOUS
10
1.93516
20
2.58997
11
1.93462
21
2.59768
0
LINE
8
BLACK
6
CONTINUOUS
10
1.93462
20
2.59768
11
1.93301
21
2.60524
0
LINE
8
BLACK
6
CONTINUOUS
10
1.93301
20
2.60524
11
1.93169
21
2.60888
0
LINE
8
BLACK
6
CONTINUOUS
10
1.93169
20
2.60888
11
1.93169
21
2.60888
0
LINE
8
BLACK
6
CONTINUOUS
10
1.93169
20
2.60888
11
1.93122
21
2.61191
0
LINE
8
BLACK
6
CONTINUOUS
10
1.93122
20
2.61191
11
1.93194
21
2.6149
0
LINE
8
BLACK
6
CONTINUOUS
10
1.93194
20
2.6149
11
1.93376
21
2.61738
0
LINE
8
BLACK
6
CONTINUOUS
10
1.93376
20
2.61738
11
1.93638
21
2.61897
0
LINE
8
BLACK
6
CONTINUOUS
10
1.93638
20
2.61897
11
1.93906
21
2.61939
0
LINE
8
BLACK
6
CONTINUOUS
10
1.93906
20
2.61939
11
1.93906
21
2.61953
0
LINE
8
BLACK
6
CONTINUOUS
10
1.93906
20
2.61953
11
1.98039
21
2.61953
0
LINE
8
BLACK
6
CONTINUOUS
10
1.98039
20
2.61953
11
1.98039
21
2.56047
0
LINE
8
BLACK
6
CONTINUOUS
10
2.0675
20
2.56417
11
2.0125
21
2.56417
0
LINE
8
BLACK
6
CONTINUOUS
10
2.0125
20
2.56417
11
2.0125
21
2.59917
0
LINE
8
BLACK
6
CONTINUOUS
10
2.0125
20
2.59917
11
2.0675
21
2.59917
0
LINE
8
BLACK
6
CONTINUOUS
10
2.0675
20
2.59917
11
2.0675
21
2.56417
0
LINE
8
BLACK
6
CONTINUOUS
10
2.87543
20
2.58205
11
2.80457
21
2.58205
0
LINE
8
BLACK
6
CONTINUOUS
10
2.80457
20
2.58205
11
2.80457
21
2.68047
0
LINE
8
BLACK
6
CONTINUOUS
10
2.80457
20
2.68047
11
2.87543
21
2.68047
0
LINE
8
BLACK
6
CONTINUOUS
10
2.87543
20
2.68047
11
2.87543
21
2.58205
0
LINE
8
BLACK
6
CONTINUOUS
10
2.0675
20
2.63917
11
2.0125
21
2.63917
0
LINE
8
BLACK
6
CONTINUOUS
10
2.0125
20
2.63917
11
2.0125
21
2.67417
0
LINE
8
BLACK
6
CONTINUOUS
10
2.0125
20
2.67417
11
2.0675
21
2.67417
0
LINE
8
BLACK
6
CONTINUOUS
10
2.0675
20
2.67417
11
2.0675
21
2.63917
0
LINE
8
BLACK
6
CONTINUOUS
10
2.64
20
2.6825
11
2.605
21
2.6825
0
LINE
8
BLACK
6
CONTINUOUS
10
2.605
20
2.6825
11
2.605
21
2.7375
0
LINE
8
BLACK
6
CONTINUOUS
10
2.605
20
2.7375
11
2.64
21
2.7375
0
LINE
8
BLACK
6
CONTINUOUS
10
2.64
20
2.7375
11
2.64
21
2.6825
0
LINE
8
BLACK
6
CONTINUOUS
10
2.715
20
2.6825
11
2.68
21
2.6825
0
LINE
8
BLACK
6
CONTINUOUS
10
2.68
20
2.6825
11
2.68
21
2.7375
0
LINE
8
BLACK
6
CONTINUOUS
10
2.68
20
2.7375
11
2.715
21
2.7375
0
LINE
8
BLACK
6
CONTINUOUS
10
2.715
20
2.7375
11
2.715
21
2.6825
0
LINE
8
BLACK
6
CONTINUOUS
10
1.86535
20
2.72407
11
1.78661
21
2.72407
0
LINE
8
BLACK
6
CONTINUOUS
10
1.78661
20
2.72407
11
1.78661
21
2.74927
0
LINE
8
BLACK
6
CONTINUOUS
10
1.78661
20
2.74927
11
1.86535
21
2.74927
0
LINE
8
BLACK
6
CONTINUOUS
10
1.86535
20
2.74927
11
1.86535
21
2.72407
0
LINE
8
BLACK
6
CONTINUOUS
10
2.11339
20
2.72407
11
2.03465
21
2.72407
0
LINE
8
BLACK
6
CONTINUOUS
10
2.03465
20
2.72407
11
2.03465
21
2.74927
0
LINE
8
BLACK
6
CONTINUOUS
10
2.03465
20
2.74927
11
2.11339
21
2.74927
0
LINE
8
BLACK
6
CONTINUOUS
10
2.11339
20
2.74927
11
2.11339
21
2.72407
0
LINE
8
BLACK
6
CONTINUOUS
10
2.87543
20
2.73953
11
2.80457
21
2.73953
0
LINE
8
BLACK
6
CONTINUOUS
10
2.80457
20
2.73953
11
2.80457
21
2.83795
0
LINE
8
BLACK
6
CONTINUOUS
10
2.80457
20
2.83795
11
2.87543
21
2.83795
0
LINE
8
BLACK
6
CONTINUOUS
10
2.87543
20
2.83795
11
2.87543
21
2.73953
0
LINE
8
BLACK
6
CONTINUOUS
10
2.64
20
2.7825
11
2.605
21
2.7825
0
LINE
8
BLACK
6
CONTINUOUS
10
2.605
20
2.7825
11
2.605
21
2.8375
0
LINE
8
BLACK
6
CONTINUOUS
10
2.605
20
2.8375
11
2.64
21
2.8375
0
LINE
8
BLACK
6
CONTINUOUS
10
2.64
20
2.8375
11
2.64
21
2.7825
0
LINE
8
BLACK
6
CONTINUOUS
10
2.715
20
2.7825
11
2.68
21
2.7825
0
LINE
8
BLACK
6
CONTINUOUS
10
2.68
20
2.7825
11
2.68
21
2.8375
0
LINE
8
BLACK
6
CONTINUOUS
10
2.68
20
2.8375
11
2.715
21
2.8375
0
LINE
8
BLACK
6
CONTINUOUS
10
2.715
20
2.8375
11
2.715
21
2.7825
0
LINE
8
BLACK
6
CONTINUOUS
10
1.86535
20
2.82407
11
1.78661
21
2.82407
0
LINE
8
BLACK
6
CONTINUOUS
10
1.78661
20
2.82407
11
1.78661
21
2.84927
0
LINE
8
BLACK
6
CONTINUOUS
10
1.78661
20
2.84927
11
1.86535
21
2.84927
0
LINE
8
BLACK
6
CONTINUOUS
10
1.86535
20
2.84927
11
1.86535
21
2.82407
0
LINE
8
BLACK
6
CONTINUOUS
10
2.11339
20
2.82407
11
2.03465
21
2.82407
0
LINE
8
BLACK
6
CONTINUOUS
10
2.03465
20
2.82407
11
2.03465
21
2.84927
0
LINE
8
BLACK
6
CONTINUOUS
10
2.03465
20
2.84927
11
2.11339
21
2.84927
0
LINE
8
BLACK
6
CONTINUOUS
10
2.11339
20
2.84927
11
2.11339
21
2.82407
0
LINE
8
BLACK
6
CONTINUOUS
10
2.64
20
2.8825
11
2.605
21
2.8825
0
LINE
8
BLACK
6
CONTINUOUS
10
2.605
20
2.8825
11
2.605
21
2.9375
0
LINE
8
BLACK
6
CONTINUOUS
10
2.605
20
2.9375
11
2.64
21
2.9375
0
LINE
8
BLACK
6
CONTINUOUS
10
2.64
20
2.9375
11
2.64
21
2.8825
0
LINE
8
BLACK
6
CONTINUOUS
10
2.715
20
2.8825
11
2.68
21
2.8825
0
LINE
8
BLACK
6
CONTINUOUS
10
2.68
20
2.8825
11
2.68
21
2.9375
0
LINE
8
BLACK
6
CONTINUOUS
10
2.68
20
2.9375
11
2.715
21
2.9375
0
LINE
8
BLACK
6
CONTINUOUS
10
2.715
20
2.9375
11
2.715
21
2.8825
0
LINE
8
BLACK
6
CONTINUOUS
10
1.82094
20
3.03947
11
1.82366
21
3.03905
0
LINE
8
BLACK
6
CONTINUOUS
10
1.82366
20
3.03905
11
1.82628
21
3.03745
0
LINE
8
BLACK
6
CONTINUOUS
10
1.82628
20
3.03745
11
1.82809
21
3.03496
0
LINE
8
BLACK
6
CONTINUOUS
10
1.82809
20
3.03496
11
1.82881
21
3.03198
0
LINE
8
BLACK
6
CONTINUOUS
10
1.82881
20
3.03198
11
1.82834
21
3.02894
0
LINE
8
BLACK
6
CONTINUOUS
10
1.82834
20
3.02894
11
1.82834
21
3.02894
0
LINE
8
BLACK
6
CONTINUOUS
10
1.82834
20
3.02894
11
1.82701
21
3.02531
0
LINE
8
BLACK
6
CONTINUOUS
10
1.82701
20
3.02531
11
1.82539
21
3.01775
0
LINE
8
BLACK
6
CONTINUOUS
10
1.82539
20
3.01775
11
1.82484
21
3.01003
0
LINE
8
BLACK
6
CONTINUOUS
10
1.82484
20
3.01003
11
1.82538
21
3.00232
0
LINE
8
BLACK
6
CONTINUOUS
10
1.82538
20
3.00232
11
1.82699
21
2.99476
0
LINE
8
BLACK
6
CONTINUOUS
10
1.82699
20
2.99476
11
1.82831
21
2.99112
0
LINE
8
BLACK
6
CONTINUOUS
10
1.82831
20
2.99112
11
1.82831
21
2.99112
0
LINE
8
BLACK
6
CONTINUOUS
10
1.82831
20
2.99112
11
1.82878
21
2.98809
0
LINE
8
BLACK
6
CONTINUOUS
10
1.82878
20
2.98809
11
1.82806
21
2.9851
0
LINE
8
BLACK
6
CONTINUOUS
10
1.82806
20
2.9851
11
1.82624
21
2.98262
0
LINE
8
BLACK
6
CONTINUOUS
10
1.82624
20
2.98262
11
1.82362
21
2.98103
0
LINE
8
BLACK
6
CONTINUOUS
10
1.82362
20
2.98103
11
1.82094
21
2.98061
0
LINE
8
BLACK
6
CONTINUOUS
10
1.82094
20
2.98061
11
1.82094
21
2.98047
0
LINE
8
BLACK
6
CONTINUOUS
10
1.82094
20
2.98047
11
1.77961
21
2.98047
0
LINE
8
BLACK
6
CONTINUOUS
10
1.77961
20
2.98047
11
1.77961
21
3.03953
0
LINE
8
BLACK
6
CONTINUOUS
10
1.77961
20
3.03953
11
1.82094
21
3.03953
0
LINE
8
BLACK
6
CONTINUOUS
10
1.82094
20
3.03953
11
1.82094
21
3.03947
0
LINE
8
BLACK
6
CONTINUOUS
10
1.98039
20
2.98047
11
1.93906
21
2.98047
0
LINE
8
BLACK
6
CONTINUOUS
10
1.93906
20
2.98047
11
1.93906
21
2.98053
0
LINE
8
BLACK
6
CONTINUOUS
10
1.93906
20
2.98053
11
1.93634
21
2.98095
0
LINE
8
BLACK
6
CONTINUOUS
10
1.93634
20
2.98095
11
1.93372
21
2.98255
0
LINE
8
BLACK
6
CONTINUOUS
10
1.93372
20
2.98255
11
1.93191
21
2.98504
0
LINE
8
BLACK
6
CONTINUOUS
10
1.93191
20
2.98504
11
1.93119
21
2.98802
0
LINE
8
BLACK
6
CONTINUOUS
10
1.93119
20
2.98802
11
1.93166
21
2.99106
0
LINE
8
BLACK
6
CONTINUOUS
10
1.93166
20
2.99106
11
1.93166
21
2.99106
0
LINE
8
BLACK
6
CONTINUOUS
10
1.93166
20
2.99106
11
1.93299
21
2.99469
0
LINE
8
BLACK
6
CONTINUOUS
10
1.93299
20
2.99469
11
1.93461
21
3.00225
0
LINE
8
BLACK
6
CONTINUOUS
10
1.93461
20
3.00225
11
1.93516
21
3.00997
0
LINE
8
BLACK
6
CONTINUOUS
10
1.93516
20
3.00997
11
1.93462
21
3.01768
0
LINE
8
BLACK
6
CONTINUOUS
10
1.93462
20
3.01768
11
1.93301
21
3.02524
0
LINE
8
BLACK
6
CONTINUOUS
10
1.93301
20
3.02524
11
1.93169
21
3.02888
0
LINE
8
BLACK
6
CONTINUOUS
10
1.93169
20
3.02888
11
1.93169
21
3.02888
0
LINE
8
BLACK
6
CONTINUOUS
10
1.93169
20
3.02888
11
1.93122
21
3.03191
0
LINE
8
BLACK
6
CONTINUOUS
10
1.93122
20
3.03191
11
1.93194
21
3.0349
0
LINE
8
BLACK
6
CONTINUOUS
10
1.93194
20
3.0349
11
1.93376
21
3.03738
0
LINE
8
BLACK
6
CONTINUOUS
10
1.93376
20
3.03738
11
1.93638
21
3.03897
0
LINE
8
BLACK
6
CONTINUOUS
10
1.93638
20
3.03897
11
1.93906
21
3.03939
0
LINE
8
BLACK
6
CONTINUOUS
10
1.93906
20
3.03939
11
1.93906
21
3.03953
0
LINE
8
BLACK
6
CONTINUOUS
10
1.93906
20
3.03953
11
1.98039
21
3.03953
0
LINE
8
BLACK
6
CONTINUOUS
10
1.98039
20
3.03953
11
1.98039
21
2.98047
0
LINE
8
BLACK
6
CONTINUOUS
10
2.64
20
2.9825
11
2.605
21
2.9825
0
LINE
8
BLACK
6
CONTINUOUS
10
2.605
20
2.9825
11
2.605
21
3.0375
0
LINE
8
BLACK
6
CONTINUOUS
10
2.605
20
3.0375
11
2.64
21
3.0375
0
LINE
8
BLACK
6
CONTINUOUS
10
2.64
20
3.0375
11
2.64
21
2.9825
0
LINE
8
BLACK
6
CONTINUOUS
10
2.715
20
2.9825
11
2.68
21
2.9825
0
LINE
8
BLACK
6
CONTINUOUS
10
2.68
20
2.9825
11
2.68
21
3.0375
0
LINE
8
BLACK
6
CONTINUOUS
10
2.68
20
3.0375
11
2.715
21
3.0375
0
LINE
8
BLACK
6
CONTINUOUS
10
2.715
20
3.0375
11
2.715
21
2.9825
0
LINE
8
BLACK
6
CONTINUOUS
10
2.0675
20
2.98458
11
2.0125
21
2.98458
0
LINE
8
BLACK
6
CONTINUOUS
10
2.0125
20
2.98458
11
2.0125
21
3.01958
0
LINE
8
BLACK
6
CONTINUOUS
10
2.0125
20
3.01958
11
2.0675
21
3.01958
0
LINE
8
BLACK
6
CONTINUOUS
10
2.0675
20
3.01958
11
2.0675
21
2.98458
0
LINE
8
BLACK
6
CONTINUOUS
10
2.0675
20
3.05958
11
2.0125
21
3.05958
0
LINE
8
BLACK
6
CONTINUOUS
10
2.0125
20
3.05958
11
2.0125
21
3.09458
0
LINE
8
BLACK
6
CONTINUOUS
10
2.0125
20
3.09458
11
2.0675
21
3.09458
0
LINE
8
BLACK
6
CONTINUOUS
10
2.0675
20
3.09458
11
2.0675
21
3.05958
0
LINE
8
BLACK
6
CONTINUOUS
10
2.64
20
3.0825
11
2.605
21
3.0825
0
LINE
8
BLACK
6
CONTINUOUS
10
2.605
20
3.0825
11
2.605
21
3.1375
0
LINE
8
BLACK
6
CONTINUOUS
10
2.605
20
3.1375
11
2.64
21
3.1375
0
LINE
8
BLACK
6
CONTINUOUS
10
2.64
20
3.1375
11
2.64
21
3.0825
0
LINE
8
BLACK
6
CONTINUOUS
10
2.715
20
3.0825
11
2.68
21
3.0825
0
LINE
8
BLACK
6
CONTINUOUS
10
2.68
20
3.0825
11
2.68
21
3.1375
0
LINE
8
BLACK
6
CONTINUOUS
10
2.68
20
3.1375
11
2.715
21
3.1375
0
LINE
8
BLACK
6
CONTINUOUS
10
2.715
20
3.1375
11
2.715
21
3.0825
0
LINE
8
BLACK
6
CONTINUOUS
10
1.86535
20
3.14573
11
1.78661
21
3.14573
0
LINE
8
BLACK
6
CONTINUOUS
10
1.78661
20
3.14573
11
1.78661
21
3.17093
0
LINE
8
BLACK
6
CONTINUOUS
10
1.78661
20
3.17093
11
1.86535
21
3.17093
0
LINE
8
BLACK
6
CONTINUOUS
10
1.86535
20
3.17093
11
1.86535
21
3.14573
0
LINE
8
BLACK
6
CONTINUOUS
10
2.11339
20
3.14573
11
2.03465
21
3.14573
0
LINE
8
BLACK
6
CONTINUOUS
10
2.03465
20
3.14573
11
2.03465
21
3.17093
0
LINE
8
BLACK
6
CONTINUOUS
10
2.03465
20
3.17093
11
2.11339
21
3.17093
0
LINE
8
BLACK
6
CONTINUOUS
10
2.11339
20
3.17093
11
2.11339
21
3.14573
0
LINE
8
BLACK
6
CONTINUOUS
10
2.64
20
3.1825
11
2.605
21
3.1825
0
LINE
8
BLACK
6
CONTINUOUS
10
2.605
20
3.1825
11
2.605
21
3.2375
0
LINE
8
BLACK
6
CONTINUOUS
10
2.605
20
3.2375
11
2.64
21
3.2375
0
LINE
8
BLACK
6
CONTINUOUS
10
2.64
20
3.2375
11
2.64
21
3.1825
0
LINE
8
BLACK
6
CONTINUOUS
10
2.715
20
3.1825
11
2.68
21
3.1825
0
LINE
8
BLACK
6
CONTINUOUS
10
2.68
20
3.1825
11
2.68
21
3.2375
0
LINE
8
BLACK
6
CONTINUOUS
10
2.68
20
3.2375
11
2.715
21
3.2375
0
LINE
8
BLACK
6
CONTINUOUS
10
2.715
20
3.2375
11
2.715
21
3.1825
0
LINE
8
BLACK
6
CONTINUOUS
10
1.86535
20
3.24573
11
1.78661
21
3.24573
0
LINE
8
BLACK
6
CONTINUOUS
10
1.78661
20
3.24573
11
1.78661
21
3.27093
0
LINE
8
BLACK
6
CONTINUOUS
10
1.78661
20
3.27093
11
1.86535
21
3.27093
0
LINE
8
BLACK
6
CONTINUOUS
10
1.86535
20
3.27093
11
1.86535
21
3.24573
0
LINE
8
BLACK
6
CONTINUOUS
10
2.11339
20
3.24573
11
2.03465
21
3.24573
0
LINE
8
BLACK
6
CONTINUOUS
10
2.03465
20
3.24573
11
2.03465
21
3.27093
0
LINE
8
BLACK
6
CONTINUOUS
10
2.03465
20
3.27093
11
2.11339
21
3.27093
0
LINE
8
BLACK
6
CONTINUOUS
10
2.11339
20
3.27093
11
2.11339
21
3.24573
0
LINE
8
BLACK
6
CONTINUOUS
10
2.64
20
3.2825
11
2.605
21
3.2825
0
LINE
8
BLACK
6
CONTINUOUS
10
2.605
20
3.2825
11
2.605
21
3.3375
0
LINE
8
BLACK
6
CONTINUOUS
10
2.605
20
3.3375
11
2.64
21
3.3375
0
LINE
8
BLACK
6
CONTINUOUS
10
2.64
20
3.3375
11
2.64
21
3.2825
0
LINE
8
BLACK
6
CONTINUOUS
10
2.715
20
3.2825
11
2.68
21
3.2825
0
LINE
8
BLACK
6
CONTINUOUS
10
2.68
20
3.2825
11
2.68
21
3.3375
0
LINE
8
BLACK
6
CONTINUOUS
10
2.68
20
3.3375
11
2.715
21
3.3375
0
LINE
8
BLACK
6
CONTINUOUS
10
2.715
20
3.3375
11
2.715
21
3.2825
0
LINE
8
BLACK
6
CONTINUOUS
10
1.82094
20
3.45947
11
1.82366
21
3.45905
0
LINE
8
BLACK
6
CONTINUOUS
10
1.82366
20
3.45905
11
1.82628
21
3.45745
0
LINE
8
BLACK
6
CONTINUOUS
10
1.82628
20
3.45745
11
1.82809
21
3.45496
0
LINE
8
BLACK
6
CONTINUOUS
10
1.82809
20
3.45496
11
1.82881
21
3.45198
0
LINE
8
BLACK
6
CONTINUOUS
10
1.82881
20
3.45198
11
1.82834
21
3.44894
0
LINE
8
BLACK
6
CONTINUOUS
10
1.82834
20
3.44894
11
1.82834
21
3.44894
0
LINE
8
BLACK
6
CONTINUOUS
10
1.82834
20
3.44894
11
1.82701
21
3.44531
0
LINE
8
BLACK
6
CONTINUOUS
10
1.82701
20
3.44531
11
1.82539
21
3.43775
0
LINE
8
BLACK
6
CONTINUOUS
10
1.82539
20
3.43775
11
1.82484
21
3.43003
0
LINE
8
BLACK
6
CONTINUOUS
10
1.82484
20
3.43003
11
1.82538
21
3.42232
0
LINE
8
BLACK
6
CONTINUOUS
10
1.82538
20
3.42232
11
1.82699
21
3.41476
0
LINE
8
BLACK
6
CONTINUOUS
10
1.82699
20
3.41476
11
1.82831
21
3.41112
0
LINE
8
BLACK
6
CONTINUOUS
10
1.82831
20
3.41112
11
1.82831
21
3.41112
0
LINE
8
BLACK
6
CONTINUOUS
10
1.82831
20
3.41112
11
1.82878
21
3.40809
0
LINE
8
BLACK
6
CONTINUOUS
10
1.82878
20
3.40809
11
1.82806
21
3.4051
0
LINE
8
BLACK
6
CONTINUOUS
10
1.82806
20
3.4051
11
1.82624
21
3.40262
0
LINE
8
BLACK
6
CONTINUOUS
10
1.82624
20
3.40262
11
1.82362
21
3.40103
0
LINE
8
BLACK
6
CONTINUOUS
10
1.82362
20
3.40103
11
1.82094
21
3.40061
0
LINE
8
BLACK
6
CONTINUOUS
10
1.82094
20
3.40061
11
1.82094
21
3.40047
0
LINE
8
BLACK
6
CONTINUOUS
10
1.82094
20
3.40047
11
1.77961
21
3.40047
0
LINE
8
BLACK
6
CONTINUOUS
10
1.77961
20
3.40047
11
1.77961
21
3.45953
0
LINE
8
BLACK
6
CONTINUOUS
10
1.77961
20
3.45953
11
1.82094
21
3.45953
0
LINE
8
BLACK
6
CONTINUOUS
10
1.82094
20
3.45953
11
1.82094
21
3.45947
0
LINE
8
BLACK
6
CONTINUOUS
10
1.98039
20
3.40047
11
1.93906
21
3.40047
0
LINE
8
BLACK
6
CONTINUOUS
10
1.93906
20
3.40047
11
1.93906
21
3.40053
0
LINE
8
BLACK
6
CONTINUOUS
10
1.93906
20
3.40053
11
1.93634
21
3.40095
0
LINE
8
BLACK
6
CONTINUOUS
10
1.93634
20
3.40095
11
1.93372
21
3.40255
0
LINE
8
BLACK
6
CONTINUOUS
10
1.93372
20
3.40255
11
1.93191
21
3.40504
0
LINE
8
BLACK
6
CONTINUOUS
10
1.93191
20
3.40504
11
1.93119
21
3.40802
0
LINE
8
BLACK
6
CONTINUOUS
10
1.93119
20
3.40802
11
1.93166
21
3.41106
0
LINE
8
BLACK
6
CONTINUOUS
10
1.93166
20
3.41106
11
1.93166
21
3.41106
0
LINE
8
BLACK
6
CONTINUOUS
10
1.93166
20
3.41106
11
1.93299
21
3.41469
0
LINE
8
BLACK
6
CONTINUOUS
10
1.93299
20
3.41469
11
1.93461
21
3.42225
0
LINE
8
BLACK
6
CONTINUOUS
10
1.93461
20
3.42225
11
1.93516
21
3.42997
0
LINE
8
BLACK
6
CONTINUOUS
10
1.93516
20
3.42997
11
1.93462
21
3.43768
0
LINE
8
BLACK
6
CONTINUOUS
10
1.93462
20
3.43768
11
1.93301
21
3.44524
0
LINE
8
BLACK
6
CONTINUOUS
10
1.93301
20
3.44524
11
1.93169
21
3.44888
0
LINE
8
BLACK
6
CONTINUOUS
10
1.93169
20
3.44888
11
1.93169
21
3.44888
0
LINE
8
BLACK
6
CONTINUOUS
10
1.93169
20
3.44888
11
1.93122
21
3.45191
0
LINE
8
BLACK
6
CONTINUOUS
10
1.93122
20
3.45191
11
1.93194
21
3.4549
0
LINE
8
BLACK
6
CONTINUOUS
10
1.93194
20
3.4549
11
1.93376
21
3.45738
0
LINE
8
BLACK
6
CONTINUOUS
10
1.93376
20
3.45738
11
1.93638
21
3.45897
0
LINE
8
BLACK
6
CONTINUOUS
10
1.93638
20
3.45897
11
1.93906
21
3.45939
0
LINE
8
BLACK
6
CONTINUOUS
10
1.93906
20
3.45939
11
1.93906
21
3.45953
0
LINE
8
BLACK
6
CONTINUOUS
10
1.93906
20
3.45953
11
1.98039
21
3.45953
0
LINE
8
BLACK
6
CONTINUOUS
10
1.98039
20
3.45953
11
1.98039
21
3.40047
0
LINE
8
BLACK
6
CONTINUOUS
10
2.0675
20
3.405
11
2.0125
21
3.405
0
LINE
8
BLACK
6
CONTINUOUS
10
2.0125
20
3.405
11
2.0125
21
3.44
0
LINE
8
BLACK
6
CONTINUOUS
10
2.0125
20
3.44
11
2.0675
21
3.44
0
LINE
8
BLACK
6
CONTINUOUS
10
2.0675
20
3.44
11
2.0675
21
3.405
0
LINE
8
BLACK
6
CONTINUOUS
10
2.0675
20
3.48
11
2.0125
21
3.48
0
LINE
8
BLACK
6
CONTINUOUS
10
2.0125
20
3.48
11
2.0125
21
3.515
0
LINE
8
BLACK
6
CONTINUOUS
10
2.0125
20
3.515
11
2.0675
21
3.515
0
LINE
8
BLACK
6
CONTINUOUS
10
2.0675
20
3.515
11
2.0675
21
3.48
0
LINE
8
BLACK
6
CONTINUOUS
10
1.86535
20
3.5674
11
1.78661
21
3.5674
0
LINE
8
BLACK
6
CONTINUOUS
10
1.78661
20
3.5674
11
1.78661
21
3.5926
0
LINE
8
BLACK
6
CONTINUOUS
10
1.78661
20
3.5926
11
1.86535
21
3.5926
0
LINE
8
BLACK
6
CONTINUOUS
10
1.86535
20
3.5926
11
1.86535
21
3.5674
0
LINE
8
BLACK
6
CONTINUOUS
10
2.11339
20
3.5674
11
2.03465
21
3.5674
0
LINE
8
BLACK
6
CONTINUOUS
10
2.03465
20
3.5674
11
2.03465
21
3.5926
0
LINE
8
BLACK
6
CONTINUOUS
10
2.03465
20
3.5926
11
2.11339
21
3.5926
0
LINE
8
BLACK
6
CONTINUOUS
10
2.11339
20
3.5926
11
2.11339
21
3.5674
0
LINE
8
BLACK
6
CONTINUOUS
10
1.86535
20
3.6674
11
1.78661
21
3.6674
0
LINE
8
BLACK
6
CONTINUOUS
10
1.78661
20
3.6674
11
1.78661
21
3.6926
0
LINE
8
BLACK
6
CONTINUOUS
10
1.78661
20
3.6926
11
1.86535
21
3.6926
0
LINE
8
BLACK
6
CONTINUOUS
10
1.86535
20
3.6926
11
1.86535
21
3.6674
0
LINE
8
BLACK
6
CONTINUOUS
10
2.11339
20
3.6674
11
2.03465
21
3.6674
0
LINE
8
BLACK
6
CONTINUOUS
10
2.03465
20
3.6674
11
2.03465
21
3.6926
0
LINE
8
BLACK
6
CONTINUOUS
10
2.03465
20
3.6926
11
2.11339
21
3.6926
0
LINE
8
BLACK
6
CONTINUOUS
10
2.11339
20
3.6926
11
2.11339
21
3.6674
  0
ENDSEC
  0
EOF
