  0
SECTION
  2
HEADER
  9
$ANGBASE
  50
0.0
  9
$ANGDIR
  70
1
  9
$MEASUREMENT
  70
0
  0
ENDSEC
  0
SECTION
  2
TABLES
  0
TABLE
  2
LTYPE
  70
4
  0
LTYPE
  5
40F
  2
CONTINUOUS
  70
0
  3
Solid line
  72
65
  73
0
  40
0.0
  0
LTYPE
  5
410
  2
DASHDOT
 70
0
  3
Dash Dot ____ _ ____ _
 72
65
 73
4
 40
2.0
 49
1.25
 49
-0.25
 49
0.25
 49
-0.25
  0
LTYPE
  5
411
  2
DASHED
 70
0
  3
Dashed __ __ __ __ __
 72
65
 73
2
 40
0.75
 49
0.5
 49
-0.25
  0
LTYPE
  5
43B
  2
DOTTED
 70
0
  3
Dotted .  .  .  .
 72
65
 73
2
 40
0.2
 49
0.0
 49
-0.2
  0
ENDTAB
  0
TABLE
  2
STYLE
  70
4
  0
STYLE
  2
KICAD
  70
0
  40
0
  41
1
  42
1
  50
0
  71
0
  3
isocp.shx
  0
STYLE
  2
KICADB
  70
0
  40
0
  41
1
  42
1
  50
0
  71
0
  3
isocp.shx
  0
STYLE
  2
KICADI
  70
0
  40
0
  41
1
  42
1
  50
15
  71
0
  3
isocp.shx
  0
STYLE
  2
KICADBI
  70
0
  40
0
  41
1
  42
1
  50
15
  71
0
  3
isocp.shx
  0
ENDTAB
  0
TABLE
  2
LAYER
  70
1
  0
LAYER
  2
BLACK
  70
0
  62
7
  6
CONTINUOUS
  0
ENDTAB
  0
ENDSEC
  0
SECTION
  2
ENTITIES
0
LINE
8
BLACK
6
CONTINUOUS
10
1.4053989763779526
20
0.7292989763779527
11
1.4064643307086613
21
0.7282336220472441
0
LINE
8
BLACK
6
CONTINUOUS
10
1.4064643307086613
20
0.7282336220472441
11
1.4066141732283464
21
0.7274803149606299
0
LINE
8
BLACK
6
CONTINUOUS
10
1.4066141732283464
20
0.7274803149606299
11
1.4066141732283464
21
0.4125196850393701
0
LINE
8
BLACK
6
CONTINUOUS
10
1.4066141732283464
20
0.4125196850393701
11
1.4064643307086613
21
0.4117663779527559
0
LINE
8
BLACK
6
CONTINUOUS
10
1.4064643307086613
20
0.4117663779527559
11
1.4053989763779526
21
0.4107010236220472
0
LINE
8
BLACK
6
CONTINUOUS
10
1.4053989763779526
20
0.4107010236220472
11
1.4046456692913385
21
0.4105511811023622
0
LINE
8
BLACK
6
CONTINUOUS
10
1.4046456692913385
20
0.4105511811023622
11
0.7353543307086614
21
0.4105511811023622
0
LINE
8
BLACK
6
CONTINUOUS
10
0.7353543307086614
20
0.4105511811023622
11
0.7346010236220473
21
0.4107010236220472
0
LINE
8
BLACK
6
CONTINUOUS
10
0.7346010236220473
20
0.4107010236220472
11
0.7335356692913386
21
0.4117663779527559
0
LINE
8
BLACK
6
CONTINUOUS
10
0.7335356692913386
20
0.4117663779527559
11
0.7333858267716535
21
0.4125196850393701
0
LINE
8
BLACK
6
CONTINUOUS
10
0.7333858267716535
20
0.4125196850393701
11
0.7333858267716535
21
0.7274803149606299
0
LINE
8
BLACK
6
CONTINUOUS
10
0.7333858267716535
20
0.7274803149606299
11
0.7335356692913386
21
0.7282336220472441
0
LINE
8
BLACK
6
CONTINUOUS
10
0.7335356692913386
20
0.7282336220472441
11
0.7346010236220473
21
0.7292989763779527
0
LINE
8
BLACK
6
CONTINUOUS
10
0.7346010236220473
20
0.7292989763779527
11
0.7353543307086614
21
0.7294488188976378
0
LINE
8
BLACK
6
CONTINUOUS
10
0.7353543307086614
20
0.7294488188976378
11
1.4046456692913385
21
0.7294488188976378
0
LINE
8
BLACK
6
CONTINUOUS
10
1.4046456692913385
20
0.7294488188976378
11
1.4053989763779526
21
0.7292989763779527
0
LINE
8
BLACK
6
CONTINUOUS
10
0.7373228346456693
20
0.7255118110236221
11
0.7373228346456693
21
0.414488188976378
0
LINE
8
BLACK
6
CONTINUOUS
10
0.7373228346456693
20
0.414488188976378
11
1.4026771653543306
21
0.414488188976378
0
LINE
8
BLACK
6
CONTINUOUS
10
1.4026771653543306
20
0.414488188976378
11
1.4026771653543306
21
0.7255118110236221
0
LINE
8
BLACK
6
CONTINUOUS
10
1.4026771653543306
20
0.7255118110236221
11
0.7373228346456693
21
0.7255118110236221
0
LINE
8
BLACK
6
CONTINUOUS
10
2.1253989763779528
20
0.7292989763779527
11
2.1264643307086613
21
0.7282336220472441
0
LINE
8
BLACK
6
CONTINUOUS
10
2.1264643307086613
20
0.7282336220472441
11
2.1266141732283463
21
0.7274803149606299
0
LINE
8
BLACK
6
CONTINUOUS
10
2.1266141732283463
20
0.7274803149606299
11
2.1266141732283463
21
0.4125196850393701
0
LINE
8
BLACK
6
CONTINUOUS
10
2.1266141732283463
20
0.4125196850393701
11
2.1264643307086613
21
0.4117663779527559
0
LINE
8
BLACK
6
CONTINUOUS
10
2.1264643307086613
20
0.4117663779527559
11
2.1253989763779528
21
0.4107010236220472
0
LINE
8
BLACK
6
CONTINUOUS
10
2.1253989763779528
20
0.4107010236220472
11
2.1246456692913385
21
0.4105511811023622
0
LINE
8
BLACK
6
CONTINUOUS
10
2.1246456692913385
20
0.4105511811023622
11
1.4553543307086614
21
0.4105511811023622
0
LINE
8
BLACK
6
CONTINUOUS
10
1.4553543307086614
20
0.4105511811023622
11
1.4546010236220472
21
0.4107010236220472
0
LINE
8
BLACK
6
CONTINUOUS
10
1.4546010236220472
20
0.4107010236220472
11
1.4535356692913386
21
0.4117663779527559
0
LINE
8
BLACK
6
CONTINUOUS
10
1.4535356692913386
20
0.4117663779527559
11
1.4533858267716535
21
0.4125196850393701
0
LINE
8
BLACK
6
CONTINUOUS
10
1.4533858267716535
20
0.4125196850393701
11
1.4533858267716535
21
0.7274803149606299
0
LINE
8
BLACK
6
CONTINUOUS
10
1.4533858267716535
20
0.7274803149606299
11
1.4535356692913386
21
0.7282336220472441
0
LINE
8
BLACK
6
CONTINUOUS
10
1.4535356692913386
20
0.7282336220472441
11
1.4546010236220472
21
0.7292989763779527
0
LINE
8
BLACK
6
CONTINUOUS
10
1.4546010236220472
20
0.7292989763779527
11
1.4553543307086614
21
0.7294488188976378
0
LINE
8
BLACK
6
CONTINUOUS
10
1.4553543307086614
20
0.7294488188976378
11
2.1246456692913385
21
0.7294488188976378
0
LINE
8
BLACK
6
CONTINUOUS
10
2.1246456692913385
20
0.7294488188976378
11
2.1253989763779528
21
0.7292989763779527
0
LINE
8
BLACK
6
CONTINUOUS
10
1.4573228346456693
20
0.7255118110236221
11
1.4573228346456693
21
0.414488188976378
0
LINE
8
BLACK
6
CONTINUOUS
10
1.4573228346456693
20
0.414488188976378
11
2.1226771653543306
21
0.414488188976378
0
LINE
8
BLACK
6
CONTINUOUS
10
2.1226771653543306
20
0.414488188976378
11
2.1226771653543306
21
0.7255118110236221
0
LINE
8
BLACK
6
CONTINUOUS
10
2.1226771653543306
20
0.7255118110236221
11
1.4573228346456693
21
0.7255118110236221
0
LINE
8
BLACK
6
CONTINUOUS
10
1.7031325590551181
20
1.2239972047244094
11
1.7036652362204725
21
1.223464527559055
0
LINE
8
BLACK
6
CONTINUOUS
10
1.7036652362204725
20
1.223464527559055
11
1.7037401574803148
21
1.223087874015748
0
LINE
8
BLACK
6
CONTINUOUS
10
1.7037401574803148
20
1.223087874015748
11
1.7037401574803148
21
0.849072125984252
0
LINE
8
BLACK
6
CONTINUOUS
10
1.7037401574803148
20
0.849072125984252
11
1.7036652362204725
21
0.8486954724409449
0
LINE
8
BLACK
6
CONTINUOUS
10
1.7036652362204725
20
0.8486954724409449
11
1.7031325590551181
21
0.8481627952755906
0
LINE
8
BLACK
6
CONTINUOUS
10
1.7031325590551181
20
0.8481627952755906
11
1.7027559055118109
21
0.848087874015748
0
LINE
8
BLACK
6
CONTINUOUS
10
1.7027559055118109
20
0.848087874015748
11
1.171259842519685
21
0.848087874015748
0
LINE
8
BLACK
6
CONTINUOUS
10
1.171259842519685
20
0.848087874015748
11
1.170883188976378
21
0.8481627952755906
0
LINE
8
BLACK
6
CONTINUOUS
10
1.170883188976378
20
0.8481627952755906
11
1.1703505118110236
21
0.8486954724409449
0
LINE
8
BLACK
6
CONTINUOUS
10
1.1703505118110236
20
0.8486954724409449
11
1.170275590551181
21
0.849072125984252
0
LINE
8
BLACK
6
CONTINUOUS
10
1.170275590551181
20
0.849072125984252
11
1.170275590551181
21
1.223087874015748
0
LINE
8
BLACK
6
CONTINUOUS
10
1.170275590551181
20
1.223087874015748
11
1.1703505118110236
21
1.223464527559055
0
LINE
8
BLACK
6
CONTINUOUS
10
1.1703505118110236
20
1.223464527559055
11
1.170883188976378
21
1.2239972047244094
0
LINE
8
BLACK
6
CONTINUOUS
10
1.170883188976378
20
1.2239972047244094
11
1.171259842519685
21
1.224072125984252
0
LINE
8
BLACK
6
CONTINUOUS
10
1.171259842519685
20
1.224072125984252
11
1.7027559055118109
21
1.224072125984252
0
LINE
8
BLACK
6
CONTINUOUS
10
1.7027559055118109
20
1.224072125984252
11
1.7031325590551181
21
1.2239972047244094
0
LINE
8
BLACK
6
CONTINUOUS
10
1.1722440944881889
20
1.2221036220472441
11
1.1722440944881889
21
0.8500563779527559
0
LINE
8
BLACK
6
CONTINUOUS
10
1.1722440944881889
20
0.8500563779527559
11
1.701771653543307
21
0.8500563779527559
0
LINE
8
BLACK
6
CONTINUOUS
10
1.701771653543307
20
0.8500563779527559
11
1.701771653543307
21
1.2221036220472441
0
LINE
8
BLACK
6
CONTINUOUS
10
1.701771653543307
20
1.2221036220472441
11
1.1722440944881889
21
1.2221036220472441
0
LINE
8
BLACK
6
CONTINUOUS
10
1.7031325590551181
20
1.6418683858267715
11
1.7036652362204725
21
1.6413357086614173
0
LINE
8
BLACK
6
CONTINUOUS
10
1.7036652362204725
20
1.6413357086614173
11
1.7037401574803148
21
1.6409590551181101
0
LINE
8
BLACK
6
CONTINUOUS
10
1.7037401574803148
20
1.6409590551181101
11
1.7037401574803148
21
1.2669433070866141
0
LINE
8
BLACK
6
CONTINUOUS
10
1.7037401574803148
20
1.2669433070866141
11
1.7036652362204725
21
1.2665666535433071
0
LINE
8
BLACK
6
CONTINUOUS
10
1.7036652362204725
20
1.2665666535433071
11
1.7031325590551181
21
1.2660339763779527
0
LINE
8
BLACK
6
CONTINUOUS
10
1.7031325590551181
20
1.2660339763779527
11
1.7027559055118109
21
1.2659590551181101
0
LINE
8
BLACK
6
CONTINUOUS
10
1.7027559055118109
20
1.2659590551181101
11
1.171259842519685
21
1.2659590551181101
0
LINE
8
BLACK
6
CONTINUOUS
10
1.171259842519685
20
1.2659590551181101
11
1.170883188976378
21
1.2660339763779527
0
LINE
8
BLACK
6
CONTINUOUS
10
1.170883188976378
20
1.2660339763779527
11
1.1703505118110236
21
1.2665666535433071
0
LINE
8
BLACK
6
CONTINUOUS
10
1.1703505118110236
20
1.2665666535433071
11
1.170275590551181
21
1.2669433070866141
0
LINE
8
BLACK
6
CONTINUOUS
10
1.170275590551181
20
1.2669433070866141
11
1.170275590551181
21
1.6409590551181101
0
LINE
8
BLACK
6
CONTINUOUS
10
1.170275590551181
20
1.6409590551181101
11
1.1703505118110236
21
1.6413357086614173
0
LINE
8
BLACK
6
CONTINUOUS
10
1.1703505118110236
20
1.6413357086614173
11
1.170883188976378
21
1.6418683858267715
0
LINE
8
BLACK
6
CONTINUOUS
10
1.170883188976378
20
1.6418683858267715
11
1.171259842519685
21
1.6419433070866141
0
LINE
8
BLACK
6
CONTINUOUS
10
1.171259842519685
20
1.6419433070866141
11
1.7027559055118109
21
1.6419433070866141
0
LINE
8
BLACK
6
CONTINUOUS
10
1.7027559055118109
20
1.6419433070866141
11
1.7031325590551181
21
1.6418683858267715
0
LINE
8
BLACK
6
CONTINUOUS
10
1.1722440944881889
20
1.6399748031496062
11
1.1722440944881889
21
1.267927559055118
0
LINE
8
BLACK
6
CONTINUOUS
10
1.1722440944881889
20
1.267927559055118
11
1.701771653543307
21
1.267927559055118
0
LINE
8
BLACK
6
CONTINUOUS
10
1.701771653543307
20
1.267927559055118
11
1.701771653543307
21
1.6399748031496062
0
LINE
8
BLACK
6
CONTINUOUS
10
1.701771653543307
20
1.6399748031496062
11
1.1722440944881889
21
1.6399748031496062
0
LINE
8
BLACK
6
CONTINUOUS
10
1.7031325590551181
20
2.0597395669291338
11
1.7036652362204725
21
2.0592068897637796
0
LINE
8
BLACK
6
CONTINUOUS
10
1.7036652362204725
20
2.0592068897637796
11
1.7037401574803148
21
2.0588302362204725
0
LINE
8
BLACK
6
CONTINUOUS
10
1.7037401574803148
20
2.0588302362204725
11
1.7037401574803148
21
1.6848144881889764
0
LINE
8
BLACK
6
CONTINUOUS
10
1.7037401574803148
20
1.6848144881889764
11
1.7036652362204725
21
1.6844378346456692
0
LINE
8
BLACK
6
CONTINUOUS
10
1.7036652362204725
20
1.6844378346456692
11
1.7031325590551181
21
1.683905157480315
0
LINE
8
BLACK
6
CONTINUOUS
10
1.7031325590551181
20
1.683905157480315
11
1.7027559055118109
21
1.6838302362204725
0
LINE
8
BLACK
6
CONTINUOUS
10
1.7027559055118109
20
1.6838302362204725
11
1.171259842519685
21
1.6838302362204725
0
LINE
8
BLACK
6
CONTINUOUS
10
1.171259842519685
20
1.6838302362204725
11
1.170883188976378
21
1.683905157480315
0
LINE
8
BLACK
6
CONTINUOUS
10
1.170883188976378
20
1.683905157480315
11
1.1703505118110236
21
1.6844378346456692
0
LINE
8
BLACK
6
CONTINUOUS
10
1.1703505118110236
20
1.6844378346456692
11
1.170275590551181
21
1.6848144881889764
0
LINE
8
BLACK
6
CONTINUOUS
10
1.170275590551181
20
1.6848144881889764
11
1.170275590551181
21
2.0588302362204725
0
LINE
8
BLACK
6
CONTINUOUS
10
1.170275590551181
20
2.0588302362204725
11
1.1703505118110236
21
2.0592068897637796
0
LINE
8
BLACK
6
CONTINUOUS
10
1.1703505118110236
20
2.0592068897637796
11
1.170883188976378
21
2.0597395669291338
0
LINE
8
BLACK
6
CONTINUOUS
10
1.170883188976378
20
2.0597395669291338
11
1.171259842519685
21
2.0598144881889762
0
LINE
8
BLACK
6
CONTINUOUS
10
1.171259842519685
20
2.0598144881889762
11
1.7027559055118109
21
2.0598144881889762
0
LINE
8
BLACK
6
CONTINUOUS
10
1.7027559055118109
20
2.0598144881889762
11
1.7031325590551181
21
2.0597395669291338
0
LINE
8
BLACK
6
CONTINUOUS
10
1.1722440944881889
20
2.0578459842519683
11
1.1722440944881889
21
1.6857987401574803
0
LINE
8
BLACK
6
CONTINUOUS
10
1.1722440944881889
20
1.6857987401574803
11
1.701771653543307
21
1.6857987401574803
0
LINE
8
BLACK
6
CONTINUOUS
10
1.701771653543307
20
1.6857987401574803
11
1.701771653543307
21
2.0578459842519683
0
LINE
8
BLACK
6
CONTINUOUS
10
1.701771653543307
20
2.0578459842519683
11
1.1722440944881889
21
2.0578459842519683
0
LINE
8
BLACK
6
CONTINUOUS
10
1.7031325590551181
20
2.4776107480314962
11
1.7036652362204725
21
2.4770780708661415
0
LINE
8
BLACK
6
CONTINUOUS
10
1.7036652362204725
20
2.4770780708661415
11
1.7037401574803148
21
2.4767014173228348
0
LINE
8
BLACK
6
CONTINUOUS
10
1.7037401574803148
20
2.4767014173228348
11
1.7037401574803148
21
2.1026856692913385
0
LINE
8
BLACK
6
CONTINUOUS
10
1.7037401574803148
20
2.1026856692913385
11
1.7036652362204725
21
2.1023090157480313
0
LINE
8
BLACK
6
CONTINUOUS
10
1.7036652362204725
20
2.1023090157480313
11
1.7031325590551181
21
2.1017763385826771
0
LINE
8
BLACK
6
CONTINUOUS
10
1.7031325590551181
20
2.1017763385826771
11
1.7027559055118109
21
2.1017014173228348
0
LINE
8
BLACK
6
CONTINUOUS
10
1.7027559055118109
20
2.1017014173228348
11
1.171259842519685
21
2.1017014173228348
0
LINE
8
BLACK
6
CONTINUOUS
10
1.171259842519685
20
2.1017014173228348
11
1.170883188976378
21
2.1017763385826771
0
LINE
8
BLACK
6
CONTINUOUS
10
1.170883188976378
20
2.1017763385826771
11
1.1703505118110236
21
2.1023090157480313
0
LINE
8
BLACK
6
CONTINUOUS
10
1.1703505118110236
20
2.1023090157480313
11
1.170275590551181
21
2.1026856692913385
0
LINE
8
BLACK
6
CONTINUOUS
10
1.170275590551181
20
2.1026856692913385
11
1.170275590551181
21
2.4767014173228348
0
LINE
8
BLACK
6
CONTINUOUS
10
1.170275590551181
20
2.4767014173228348
11
1.1703505118110236
21
2.4770780708661415
0
LINE
8
BLACK
6
CONTINUOUS
10
1.1703505118110236
20
2.4770780708661415
11
1.170883188976378
21
2.4776107480314962
0
LINE
8
BLACK
6
CONTINUOUS
10
1.170883188976378
20
2.4776107480314962
11
1.171259842519685
21
2.4776856692913385
0
LINE
8
BLACK
6
CONTINUOUS
10
1.171259842519685
20
2.4776856692913385
11
1.7027559055118109
21
2.4776856692913385
0
LINE
8
BLACK
6
CONTINUOUS
10
1.7027559055118109
20
2.4776856692913385
11
1.7031325590551181
21
2.4776107480314962
0
LINE
8
BLACK
6
CONTINUOUS
10
1.1722440944881889
20
2.4757171653543306
11
1.1722440944881889
21
2.1036699212598426
0
LINE
8
BLACK
6
CONTINUOUS
10
1.1722440944881889
20
2.1036699212598426
11
1.701771653543307
21
2.1036699212598426
0
LINE
8
BLACK
6
CONTINUOUS
10
1.701771653543307
20
2.1036699212598426
11
1.701771653543307
21
2.4757171653543306
0
LINE
8
BLACK
6
CONTINUOUS
10
1.701771653543307
20
2.4757171653543306
11
1.1722440944881889
21
2.4757171653543306
0
LINE
8
BLACK
6
CONTINUOUS
10
1.7031325590551181
20
2.895481929133858
11
1.7036652362204725
21
2.8949492519685038
0
LINE
8
BLACK
6
CONTINUOUS
10
1.7036652362204725
20
2.8949492519685038
11
1.7037401574803148
21
2.8945725984251967
0
LINE
8
BLACK
6
CONTINUOUS
10
1.7037401574803148
20
2.8945725984251967
11
1.7037401574803148
21
2.5205568503937008
0
LINE
8
BLACK
6
CONTINUOUS
10
1.7037401574803148
20
2.5205568503937008
11
1.7036652362204725
21
2.5201801968503936
0
LINE
8
BLACK
6
CONTINUOUS
10
1.7036652362204725
20
2.5201801968503936
11
1.7031325590551181
21
2.5196475196850394
0
LINE
8
BLACK
6
CONTINUOUS
10
1.7031325590551181
20
2.5196475196850394
11
1.7027559055118109
21
2.5195725984251967
0
LINE
8
BLACK
6
CONTINUOUS
10
1.7027559055118109
20
2.5195725984251967
11
1.171259842519685
21
2.5195725984251967
0
LINE
8
BLACK
6
CONTINUOUS
10
1.171259842519685
20
2.5195725984251967
11
1.170883188976378
21
2.5196475196850394
0
LINE
8
BLACK
6
CONTINUOUS
10
1.170883188976378
20
2.5196475196850394
11
1.1703505118110236
21
2.5201801968503936
0
LINE
8
BLACK
6
CONTINUOUS
10
1.1703505118110236
20
2.5201801968503936
11
1.170275590551181
21
2.5205568503937008
0
LINE
8
BLACK
6
CONTINUOUS
10
1.170275590551181
20
2.5205568503937008
11
1.170275590551181
21
2.8945725984251967
0
LINE
8
BLACK
6
CONTINUOUS
10
1.170275590551181
20
2.8945725984251967
11
1.1703505118110236
21
2.8949492519685038
0
LINE
8
BLACK
6
CONTINUOUS
10
1.1703505118110236
20
2.8949492519685038
11
1.170883188976378
21
2.895481929133858
0
LINE
8
BLACK
6
CONTINUOUS
10
1.170883188976378
20
2.895481929133858
11
1.171259842519685
21
2.8955568503937008
0
LINE
8
BLACK
6
CONTINUOUS
10
1.171259842519685
20
2.8955568503937008
11
1.7027559055118109
21
2.8955568503937008
0
LINE
8
BLACK
6
CONTINUOUS
10
1.7027559055118109
20
2.8955568503937008
11
1.7031325590551181
21
2.895481929133858
0
LINE
8
BLACK
6
CONTINUOUS
10
1.1722440944881889
20
2.8935883464566929
11
1.1722440944881889
21
2.5215411023622045
0
LINE
8
BLACK
6
CONTINUOUS
10
1.1722440944881889
20
2.5215411023622045
11
1.701771653543307
21
2.5215411023622045
0
LINE
8
BLACK
6
CONTINUOUS
10
1.701771653543307
20
2.5215411023622045
11
1.701771653543307
21
2.8935883464566929
0
LINE
8
BLACK
6
CONTINUOUS
10
1.701771653543307
20
2.8935883464566929
11
1.1722440944881889
21
2.8935883464566929
0
LINE
8
BLACK
6
CONTINUOUS
10
1.7031325590551181
20
3.3133531102362204
11
1.7036652362204725
21
3.3128204330708662
0
LINE
8
BLACK
6
CONTINUOUS
10
1.7036652362204725
20
3.3128204330708662
11
1.7037401574803148
21
3.312443779527559
0
LINE
8
BLACK
6
CONTINUOUS
10
1.7037401574803148
20
3.312443779527559
11
1.7037401574803148
21
2.9384280314960631
0
LINE
8
BLACK
6
CONTINUOUS
10
1.7037401574803148
20
2.9384280314960631
11
1.7036652362204725
21
2.9380513779527559
0
LINE
8
BLACK
6
CONTINUOUS
10
1.7036652362204725
20
2.9380513779527559
11
1.7031325590551181
21
2.9375187007874013
0
LINE
8
BLACK
6
CONTINUOUS
10
1.7031325590551181
20
2.9375187007874013
11
1.7027559055118109
21
2.937443779527559
0
LINE
8
BLACK
6
CONTINUOUS
10
1.7027559055118109
20
2.937443779527559
11
1.171259842519685
21
2.937443779527559
0
LINE
8
BLACK
6
CONTINUOUS
10
1.171259842519685
20
2.937443779527559
11
1.170883188976378
21
2.9375187007874013
0
LINE
8
BLACK
6
CONTINUOUS
10
1.170883188976378
20
2.9375187007874013
11
1.1703505118110236
21
2.9380513779527559
0
LINE
8
BLACK
6
CONTINUOUS
10
1.1703505118110236
20
2.9380513779527559
11
1.170275590551181
21
2.9384280314960631
0
LINE
8
BLACK
6
CONTINUOUS
10
1.170275590551181
20
2.9384280314960631
11
1.170275590551181
21
3.312443779527559
0
LINE
8
BLACK
6
CONTINUOUS
10
1.170275590551181
20
3.312443779527559
11
1.1703505118110236
21
3.3128204330708662
0
LINE
8
BLACK
6
CONTINUOUS
10
1.1703505118110236
20
3.3128204330708662
11
1.170883188976378
21
3.3133531102362204
0
LINE
8
BLACK
6
CONTINUOUS
10
1.170883188976378
20
3.3133531102362204
11
1.171259842519685
21
3.3134280314960631
0
LINE
8
BLACK
6
CONTINUOUS
10
1.171259842519685
20
3.3134280314960631
11
1.7027559055118109
21
3.3134280314960631
0
LINE
8
BLACK
6
CONTINUOUS
10
1.7027559055118109
20
3.3134280314960631
11
1.7031325590551181
21
3.3133531102362204
0
LINE
8
BLACK
6
CONTINUOUS
10
1.1722440944881889
20
3.3114595275590553
11
1.1722440944881889
21
2.9394122834645668
0
LINE
8
BLACK
6
CONTINUOUS
10
1.1722440944881889
20
2.9394122834645668
11
1.701771653543307
21
2.9394122834645668
0
LINE
8
BLACK
6
CONTINUOUS
10
1.701771653543307
20
2.9394122834645668
11
1.701771653543307
21
3.3114595275590553
0
LINE
8
BLACK
6
CONTINUOUS
10
1.701771653543307
20
3.3114595275590553
11
1.1722440944881889
21
3.3114595275590553
0
LINE
8
BLACK
6
CONTINUOUS
10
1.7031325590551181
20
3.7312242913385827
11
1.7036652362204725
21
3.7306916141732285
0
LINE
8
BLACK
6
CONTINUOUS
10
1.7036652362204725
20
3.7306916141732285
11
1.7037401574803148
21
3.7303149606299213
0
LINE
8
BLACK
6
CONTINUOUS
10
1.7037401574803148
20
3.7303149606299213
11
1.7037401574803148
21
3.356299212598425
0
LINE
8
BLACK
6
CONTINUOUS
10
1.7037401574803148
20
3.356299212598425
11
1.7036652362204725
21
3.3559225590551178
0
LINE
8
BLACK
6
CONTINUOUS
10
1.7036652362204725
20
3.3559225590551178
11
1.7031325590551181
21
3.3553898818897636
0
LINE
8
BLACK
6
CONTINUOUS
10
1.7031325590551181
20
3.3553898818897636
11
1.7027559055118109
21
3.3553149606299213
0
LINE
8
BLACK
6
CONTINUOUS
10
1.7027559055118109
20
3.3553149606299213
11
1.171259842519685
21
3.3553149606299213
0
LINE
8
BLACK
6
CONTINUOUS
10
1.171259842519685
20
3.3553149606299213
11
1.170883188976378
21
3.3553898818897636
0
LINE
8
BLACK
6
CONTINUOUS
10
1.170883188976378
20
3.3553898818897636
11
1.1703505118110236
21
3.3559225590551178
0
LINE
8
BLACK
6
CONTINUOUS
10
1.1703505118110236
20
3.3559225590551178
11
1.170275590551181
21
3.356299212598425
0
LINE
8
BLACK
6
CONTINUOUS
10
1.170275590551181
20
3.356299212598425
11
1.170275590551181
21
3.7303149606299213
0
LINE
8
BLACK
6
CONTINUOUS
10
1.170275590551181
20
3.7303149606299213
11
1.1703505118110236
21
3.7306916141732285
0
LINE
8
BLACK
6
CONTINUOUS
10
1.1703505118110236
20
3.7306916141732285
11
1.170883188976378
21
3.7312242913385827
0
LINE
8
BLACK
6
CONTINUOUS
10
1.170883188976378
20
3.7312242913385827
11
1.171259842519685
21
3.731299212598425
0
LINE
8
BLACK
6
CONTINUOUS
10
1.171259842519685
20
3.731299212598425
11
1.7027559055118109
21
3.731299212598425
0
LINE
8
BLACK
6
CONTINUOUS
10
1.7027559055118109
20
3.731299212598425
11
1.7031325590551181
21
3.7312242913385827
0
LINE
8
BLACK
6
CONTINUOUS
10
1.1722440944881889
20
3.7293307086614171
11
1.1722440944881889
21
3.3572834645669292
0
LINE
8
BLACK
6
CONTINUOUS
10
1.1722440944881889
20
3.3572834645669292
11
1.701771653543307
21
3.3572834645669292
0
LINE
8
BLACK
6
CONTINUOUS
10
1.701771653543307
20
3.3572834645669292
11
1.701771653543307
21
3.7293307086614171
0
LINE
8
BLACK
6
CONTINUOUS
10
1.701771653543307
20
3.7293307086614171
11
1.1722440944881889
21
3.7293307086614171
0
CIRCLE
8
BLACK
10
0.430240157480315
20
2.8954330708661415
40
0.0068897637795276
0
CIRCLE
8
BLACK
10
0.6270905511811024
20
2.8954330708661415
40
0.0068897637795276
0
CIRCLE
8
BLACK
10
2.7999999999999998
20
3.6000000000000001
40
0.0068897637795276
0
CIRCLE
8
BLACK
10
0.430240157480315
20
2.698582677165354
40
0.0068897637795276
0
CIRCLE
8
BLACK
10
0.6270905511811024
20
2.698582677165354
40
0.0068897637795276
0
CIRCLE
8
BLACK
10
2.7999999999999998
20
0.4
40
0.0068897637795276
0
CIRCLE
8
BLACK
10
2.7794389763779526
20
0.8154330708661417
40
0.0068897637795276
0
CIRCLE
8
BLACK
10
2.5825885826771655
20
0.8154330708661417
40
0.0068897637795276
0
CIRCLE
8
BLACK
10
1.3385826771653544
20
1.8718223622047243
40
0.0068897637795276
0
CIRCLE
8
BLACK
10
1.5354330708661417
20
1.8718223622047243
40
0.0068897637795276
0
CIRCLE
8
BLACK
10
0.430240157480315
20
3.2891338582677165
40
0.0068897637795276
0
CIRCLE
8
BLACK
10
0.6270905511811024
20
3.2891338582677165
40
0.0068897637795276
0
CIRCLE
8
BLACK
10
2.7794389763779526
20
1.0122834645669292
40
0.0068897637795276
0
CIRCLE
8
BLACK
10
2.5825885826771655
20
1.0122834645669292
40
0.0068897637795276
0
CIRCLE
8
BLACK
10
0.430240157480315
20
2.108031496062992
40
0.0068897637795276
0
CIRCLE
8
BLACK
10
0.6270905511811024
20
2.108031496062992
40
0.0068897637795276
0
CIRCLE
8
BLACK
10
0.878267716535433
20
0.6369291338582677
40
0.0068897637795276
0
CIRCLE
8
BLACK
10
0.878267716535433
20
0.5030708661417322
40
0.0068897637795276
0
CIRCLE
8
BLACK
10
1.261732283464567
20
0.6369291338582677
40
0.0068897637795276
0
CIRCLE
8
BLACK
10
1.261732283464567
20
0.5030708661417322
40
0.0068897637795276
0
CIRCLE
8
BLACK
10
0.430240157480315
20
1.1237795275590552
40
0.0068897637795276
0
CIRCLE
8
BLACK
10
0.6270905511811024
20
1.1237795275590552
40
0.0068897637795276
0
CIRCLE
8
BLACK
10
1.3385826771653544
20
3.1254359055118108
40
0.0068897637795276
0
CIRCLE
8
BLACK
10
1.5354330708661417
20
3.1254359055118108
40
0.0068897637795276
0
CIRCLE
8
BLACK
10
2.7825590551181101
20
1.2130708661417322
40
0.0068897637795276
0
CIRCLE
8
BLACK
10
2.5857086614173226
20
1.2130708661417322
40
0.0068897637795276
0
CIRCLE
8
BLACK
10
2.4100000000000001
20
3.3100000000000001
40
0.0068897637795276
0
CIRCLE
8
BLACK
10
2.5099999999999998
20
3.3100000000000001
40
0.0068897637795276
0
CIRCLE
8
BLACK
10
2.4100000000000001
20
3.21
40
0.0068897637795276
0
CIRCLE
8
BLACK
10
2.5099999999999998
20
3.21
40
0.0068897637795276
0
CIRCLE
8
BLACK
10
2.4100000000000001
20
3.1099999999999999
40
0.0068897637795276
0
CIRCLE
8
BLACK
10
2.5099999999999998
20
3.1099999999999999
40
0.0068897637795276
0
CIRCLE
8
BLACK
10
2.4100000000000001
20
3.0099999999999998
40
0.0068897637795276
0
CIRCLE
8
BLACK
10
2.5099999999999998
20
3.0099999999999998
40
0.0068897637795276
0
CIRCLE
8
BLACK
10
2.4100000000000001
20
2.9100000000000001
40
0.0068897637795276
0
CIRCLE
8
BLACK
10
2.5099999999999998
20
2.9100000000000001
40
0.0068897637795276
0
CIRCLE
8
BLACK
10
2.4100000000000001
20
2.8100000000000001
40
0.0068897637795276
0
CIRCLE
8
BLACK
10
2.5099999999999998
20
2.8100000000000001
40
0.0068897637795276
0
CIRCLE
8
BLACK
10
2.4100000000000001
20
2.71
40
0.0068897637795276
0
CIRCLE
8
BLACK
10
2.5099999999999998
20
2.71
40
0.0068897637795276
0
CIRCLE
8
BLACK
10
0.430240157480315
20
2.501732283464567
40
0.0068897637795276
0
CIRCLE
8
BLACK
10
0.6270905511811024
20
2.501732283464567
40
0.0068897637795276
0
CIRCLE
8
BLACK
10
0.430240157480315
20
1.7143307086614172
40
0.0068897637795276
0
CIRCLE
8
BLACK
10
0.6270905511811024
20
1.7143307086614172
40
0.0068897637795276
0
CIRCLE
8
BLACK
10
0.4
20
0.4
40
0.0068897637795276
0
CIRCLE
8
BLACK
10
1.3385826771653544
20
1.4539511811023622
40
0.0068897637795276
0
CIRCLE
8
BLACK
10
1.5354330708661417
20
1.4539511811023622
40
0.0068897637795276
0
CIRCLE
8
BLACK
10
2.7825590551181101
20
1.4099212598425197
40
0.0068897637795276
0
CIRCLE
8
BLACK
10
2.5857086614173226
20
1.4099212598425197
40
0.0068897637795276
0
CIRCLE
8
BLACK
10
1.3385826771653544
20
3.5433070866141732
40
0.0068897637795276
0
CIRCLE
8
BLACK
10
1.5354330708661417
20
3.5433070866141732
40
0.0068897637795276
0
CIRCLE
8
BLACK
10
0.430240157480315
20
1.51748031496063
40
0.0068897637795276
0
CIRCLE
8
BLACK
10
0.6270905511811024
20
1.51748031496063
40
0.0068897637795276
0
CIRCLE
8
BLACK
10
0.4
20
3.6000000000000001
40
0.0068897637795276
0
CIRCLE
8
BLACK
10
0.430240157480315
20
3.092283464566929
40
0.0068897637795276
0
CIRCLE
8
BLACK
10
0.6270905511811024
20
3.092283464566929
40
0.0068897637795276
0
CIRCLE
8
BLACK
10
1.981732283464567
20
0.5030708661417322
40
0.0068897637795276
0
CIRCLE
8
BLACK
10
1.981732283464567
20
0.6369291338582677
40
0.0068897637795276
0
CIRCLE
8
BLACK
10
1.5982677165354331
20
0.5030708661417322
40
0.0068897637795276
0
CIRCLE
8
BLACK
10
1.5982677165354331
20
0.6369291338582677
40
0.0068897637795276
0
CIRCLE
8
BLACK
10
1.3385826771653544
20
2.707564724409449
40
0.0068897637795276
0
CIRCLE
8
BLACK
10
1.5354330708661417
20
2.707564724409449
40
0.0068897637795276
0
CIRCLE
8
BLACK
10
2.7059055118110233
20
2.3153543307086615
40
0.0068897637795276
0
CIRCLE
8
BLACK
10
2.8059055118110234
20
2.3153543307086615
40
0.0068897637795276
0
CIRCLE
8
BLACK
10
2.7059055118110233
20
2.2153543307086614
40
0.0068897637795276
0
CIRCLE
8
BLACK
10
2.8059055118110234
20
2.2153543307086614
40
0.0068897637795276
0
CIRCLE
8
BLACK
10
2.7059055118110233
20
2.1153543307086613
40
0.0068897637795276
0
CIRCLE
8
BLACK
10
2.8059055118110234
20
2.1153543307086613
40
0.0068897637795276
0
CIRCLE
8
BLACK
10
2.7059055118110233
20
2.0153543307086612
40
0.0068897637795276
0
CIRCLE
8
BLACK
10
2.8059055118110234
20
2.0153543307086612
40
0.0068897637795276
0
CIRCLE
8
BLACK
10
1.3385826771653544
20
1.0360799999999999
40
0.0068897637795276
0
CIRCLE
8
BLACK
10
1.5354330708661417
20
1.0360799999999999
40
0.0068897637795276
0
CIRCLE
8
BLACK
10
0.430240157480315
20
2.3048818897637795
40
0.0068897637795276
0
CIRCLE
8
BLACK
10
0.6270905511811024
20
2.3048818897637795
40
0.0068897637795276
0
CIRCLE
8
BLACK
10
2.4696850393700789
20
2.3153543307086615
40
0.0068897637795276
0
CIRCLE
8
BLACK
10
2.5696850393700785
20
2.3153543307086615
40
0.0068897637795276
0
CIRCLE
8
BLACK
10
2.4696850393700789
20
2.2153543307086614
40
0.0068897637795276
0
CIRCLE
8
BLACK
10
2.5696850393700785
20
2.2153543307086614
40
0.0068897637795276
0
CIRCLE
8
BLACK
10
2.4696850393700789
20
2.1153543307086613
40
0.0068897637795276
0
CIRCLE
8
BLACK
10
2.5696850393700785
20
2.1153543307086613
40
0.0068897637795276
0
CIRCLE
8
BLACK
10
2.4696850393700789
20
2.0153543307086612
40
0.0068897637795276
0
CIRCLE
8
BLACK
10
2.5696850393700785
20
2.0153543307086612
40
0.0068897637795276
0
CIRCLE
8
BLACK
10
0.430240157480315
20
1.3206299212598425
40
0.0068897637795276
0
CIRCLE
8
BLACK
10
0.6270905511811024
20
1.3206299212598425
40
0.0068897637795276
0
CIRCLE
8
BLACK
10
1.3385826771653544
20
2.2896935433070866
40
0.0068897637795276
0
CIRCLE
8
BLACK
10
1.5354330708661417
20
2.2896935433070866
40
0.0068897637795276
0
CIRCLE
8
BLACK
10
0.430240157480315
20
1.9111811023622047
40
0.0068897637795276
0
CIRCLE
8
BLACK
10
0.6270905511811024
20
1.9111811023622047
40
0.0068897637795276
0
CIRCLE
8
BLACK
10
2.9100000000000001
20
2.9399999999999999
40
0.0068897637795276
0
CIRCLE
8
BLACK
10
2.8100000000000001
20
2.9399999999999999
40
0.0068897637795276
0
CIRCLE
8
BLACK
10
2.9100000000000001
20
3.04
40
0.0068897637795276
0
CIRCLE
8
BLACK
10
2.8100000000000001
20
3.04
40
0.0068897637795276
0
CIRCLE
8
BLACK
10
2.9100000000000001
20
3.1400000000000001
40
0.0068897637795276
0
CIRCLE
8
BLACK
10
2.8100000000000001
20
3.1400000000000001
40
0.0068897637795276
0
CIRCLE
8
BLACK
10
1.8799999999999999
20
2.1699999999999999
40
0.0068897637795276
0
CIRCLE
8
BLACK
10
2.4149015748031495
20
1.2268503937007873
40
0.0068897637795276
0
CIRCLE
8
BLACK
10
2.3823129921259842
20
0.8396062992125984
40
0.0068897637795276
0
CIRCLE
8
BLACK
10
1.8799999999999999
20
3.0099999999999998
40
0.0068897637795276
0
CIRCLE
8
BLACK
10
1.8799999999999999
20
0.91
40
0.0068897637795276
0
CIRCLE
8
BLACK
10
1.8799999999999999
20
1.3300000000000001
40
0.0068897637795276
0
CIRCLE
8
BLACK
10
1.8799999999999999
20
2.5899999999999999
40
0.0068897637795276
0
CIRCLE
8
BLACK
10
1.8799999999999999
20
1.75
40
0.0068897637795276
0
CIRCLE
8
BLACK
10
1.8799999999999999
20
3.4299999999999997
40
0.0068897637795276
0
CIRCLE
8
BLACK
10
0.430240157480315
20
2.8954330708661415
40
0.0068897637795276
0
CIRCLE
8
BLACK
10
0.6270905511811024
20
2.8954330708661415
40
0.0068897637795276
0
CIRCLE
8
BLACK
10
2.7999999999999998
20
3.6000000000000001
40
0.0068897637795276
0
CIRCLE
8
BLACK
10
0.430240157480315
20
2.698582677165354
40
0.0068897637795276
0
CIRCLE
8
BLACK
10
0.6270905511811024
20
2.698582677165354
40
0.0068897637795276
0
CIRCLE
8
BLACK
10
2.7999999999999998
20
0.4
40
0.0068897637795276
0
CIRCLE
8
BLACK
10
2.7794389763779526
20
0.8154330708661417
40
0.0068897637795276
0
CIRCLE
8
BLACK
10
2.5825885826771655
20
0.8154330708661417
40
0.0068897637795276
0
CIRCLE
8
BLACK
10
1.3385826771653544
20
1.8718223622047243
40
0.0068897637795276
0
CIRCLE
8
BLACK
10
1.5354330708661417
20
1.8718223622047243
40
0.0068897637795276
0
CIRCLE
8
BLACK
10
0.430240157480315
20
3.2891338582677165
40
0.0068897637795276
0
CIRCLE
8
BLACK
10
0.6270905511811024
20
3.2891338582677165
40
0.0068897637795276
0
CIRCLE
8
BLACK
10
2.7794389763779526
20
1.0122834645669292
40
0.0068897637795276
0
CIRCLE
8
BLACK
10
2.5825885826771655
20
1.0122834645669292
40
0.0068897637795276
0
CIRCLE
8
BLACK
10
0.430240157480315
20
2.108031496062992
40
0.0068897637795276
0
CIRCLE
8
BLACK
10
0.6270905511811024
20
2.108031496062992
40
0.0068897637795276
0
CIRCLE
8
BLACK
10
0.878267716535433
20
0.6369291338582677
40
0.0068897637795276
0
CIRCLE
8
BLACK
10
0.878267716535433
20
0.5030708661417322
40
0.0068897637795276
0
CIRCLE
8
BLACK
10
1.261732283464567
20
0.6369291338582677
40
0.0068897637795276
0
CIRCLE
8
BLACK
10
1.261732283464567
20
0.5030708661417322
40
0.0068897637795276
0
CIRCLE
8
BLACK
10
0.430240157480315
20
1.1237795275590552
40
0.0068897637795276
0
CIRCLE
8
BLACK
10
0.6270905511811024
20
1.1237795275590552
40
0.0068897637795276
0
CIRCLE
8
BLACK
10
1.3385826771653544
20
3.1254359055118108
40
0.0068897637795276
0
CIRCLE
8
BLACK
10
1.5354330708661417
20
3.1254359055118108
40
0.0068897637795276
0
CIRCLE
8
BLACK
10
2.7825590551181101
20
1.2130708661417322
40
0.0068897637795276
0
CIRCLE
8
BLACK
10
2.5857086614173226
20
1.2130708661417322
40
0.0068897637795276
0
CIRCLE
8
BLACK
10
2.4100000000000001
20
3.3100000000000001
40
0.0068897637795276
0
CIRCLE
8
BLACK
10
2.5099999999999998
20
3.3100000000000001
40
0.0068897637795276
0
CIRCLE
8
BLACK
10
2.4100000000000001
20
3.21
40
0.0068897637795276
0
CIRCLE
8
BLACK
10
2.5099999999999998
20
3.21
40
0.0068897637795276
0
CIRCLE
8
BLACK
10
2.4100000000000001
20
3.1099999999999999
40
0.0068897637795276
0
CIRCLE
8
BLACK
10
2.5099999999999998
20
3.1099999999999999
40
0.0068897637795276
0
CIRCLE
8
BLACK
10
2.4100000000000001
20
3.0099999999999998
40
0.0068897637795276
0
CIRCLE
8
BLACK
10
2.5099999999999998
20
3.0099999999999998
40
0.0068897637795276
0
CIRCLE
8
BLACK
10
2.4100000000000001
20
2.9100000000000001
40
0.0068897637795276
0
CIRCLE
8
BLACK
10
2.5099999999999998
20
2.9100000000000001
40
0.0068897637795276
0
CIRCLE
8
BLACK
10
2.4100000000000001
20
2.8100000000000001
40
0.0068897637795276
0
CIRCLE
8
BLACK
10
2.5099999999999998
20
2.8100000000000001
40
0.0068897637795276
0
CIRCLE
8
BLACK
10
2.4100000000000001
20
2.71
40
0.0068897637795276
0
CIRCLE
8
BLACK
10
2.5099999999999998
20
2.71
40
0.0068897637795276
0
CIRCLE
8
BLACK
10
0.430240157480315
20
2.501732283464567
40
0.0068897637795276
0
CIRCLE
8
BLACK
10
0.6270905511811024
20
2.501732283464567
40
0.0068897637795276
0
CIRCLE
8
BLACK
10
0.430240157480315
20
1.7143307086614172
40
0.0068897637795276
0
CIRCLE
8
BLACK
10
0.6270905511811024
20
1.7143307086614172
40
0.0068897637795276
0
CIRCLE
8
BLACK
10
0.4
20
0.4
40
0.0068897637795276
0
CIRCLE
8
BLACK
10
1.3385826771653544
20
1.4539511811023622
40
0.0068897637795276
0
CIRCLE
8
BLACK
10
1.5354330708661417
20
1.4539511811023622
40
0.0068897637795276
0
CIRCLE
8
BLACK
10
2.7825590551181101
20
1.4099212598425197
40
0.0068897637795276
0
CIRCLE
8
BLACK
10
2.5857086614173226
20
1.4099212598425197
40
0.0068897637795276
0
CIRCLE
8
BLACK
10
1.3385826771653544
20
3.5433070866141732
40
0.0068897637795276
0
CIRCLE
8
BLACK
10
1.5354330708661417
20
3.5433070866141732
40
0.0068897637795276
0
CIRCLE
8
BLACK
10
0.430240157480315
20
1.51748031496063
40
0.0068897637795276
0
CIRCLE
8
BLACK
10
0.6270905511811024
20
1.51748031496063
40
0.0068897637795276
0
CIRCLE
8
BLACK
10
0.4
20
3.6000000000000001
40
0.0068897637795276
0
CIRCLE
8
BLACK
10
0.430240157480315
20
3.092283464566929
40
0.0068897637795276
0
CIRCLE
8
BLACK
10
0.6270905511811024
20
3.092283464566929
40
0.0068897637795276
0
CIRCLE
8
BLACK
10
1.981732283464567
20
0.5030708661417322
40
0.0068897637795276
0
CIRCLE
8
BLACK
10
1.981732283464567
20
0.6369291338582677
40
0.0068897637795276
0
CIRCLE
8
BLACK
10
1.5982677165354331
20
0.5030708661417322
40
0.0068897637795276
0
CIRCLE
8
BLACK
10
1.5982677165354331
20
0.6369291338582677
40
0.0068897637795276
0
CIRCLE
8
BLACK
10
1.3385826771653544
20
2.707564724409449
40
0.0068897637795276
0
CIRCLE
8
BLACK
10
1.5354330708661417
20
2.707564724409449
40
0.0068897637795276
0
CIRCLE
8
BLACK
10
2.7059055118110233
20
2.3153543307086615
40
0.0068897637795276
0
CIRCLE
8
BLACK
10
2.8059055118110234
20
2.3153543307086615
40
0.0068897637795276
0
CIRCLE
8
BLACK
10
2.7059055118110233
20
2.2153543307086614
40
0.0068897637795276
0
CIRCLE
8
BLACK
10
2.8059055118110234
20
2.2153543307086614
40
0.0068897637795276
0
CIRCLE
8
BLACK
10
2.7059055118110233
20
2.1153543307086613
40
0.0068897637795276
0
CIRCLE
8
BLACK
10
2.8059055118110234
20
2.1153543307086613
40
0.0068897637795276
0
CIRCLE
8
BLACK
10
2.7059055118110233
20
2.0153543307086612
40
0.0068897637795276
0
CIRCLE
8
BLACK
10
2.8059055118110234
20
2.0153543307086612
40
0.0068897637795276
0
CIRCLE
8
BLACK
10
1.3385826771653544
20
1.0360799999999999
40
0.0068897637795276
0
CIRCLE
8
BLACK
10
1.5354330708661417
20
1.0360799999999999
40
0.0068897637795276
0
CIRCLE
8
BLACK
10
0.430240157480315
20
2.3048818897637795
40
0.0068897637795276
0
CIRCLE
8
BLACK
10
0.6270905511811024
20
2.3048818897637795
40
0.0068897637795276
0
CIRCLE
8
BLACK
10
2.4696850393700789
20
2.3153543307086615
40
0.0068897637795276
0
CIRCLE
8
BLACK
10
2.5696850393700785
20
2.3153543307086615
40
0.0068897637795276
0
CIRCLE
8
BLACK
10
2.4696850393700789
20
2.2153543307086614
40
0.0068897637795276
0
CIRCLE
8
BLACK
10
2.5696850393700785
20
2.2153543307086614
40
0.0068897637795276
0
CIRCLE
8
BLACK
10
2.4696850393700789
20
2.1153543307086613
40
0.0068897637795276
0
CIRCLE
8
BLACK
10
2.5696850393700785
20
2.1153543307086613
40
0.0068897637795276
0
CIRCLE
8
BLACK
10
2.4696850393700789
20
2.0153543307086612
40
0.0068897637795276
0
CIRCLE
8
BLACK
10
2.5696850393700785
20
2.0153543307086612
40
0.0068897637795276
0
CIRCLE
8
BLACK
10
0.430240157480315
20
1.3206299212598425
40
0.0068897637795276
0
CIRCLE
8
BLACK
10
0.6270905511811024
20
1.3206299212598425
40
0.0068897637795276
0
CIRCLE
8
BLACK
10
1.3385826771653544
20
2.2896935433070866
40
0.0068897637795276
0
CIRCLE
8
BLACK
10
1.5354330708661417
20
2.2896935433070866
40
0.0068897637795276
0
CIRCLE
8
BLACK
10
0.430240157480315
20
1.9111811023622047
40
0.0068897637795276
0
CIRCLE
8
BLACK
10
0.6270905511811024
20
1.9111811023622047
40
0.0068897637795276
0
CIRCLE
8
BLACK
10
2.9100000000000001
20
2.9399999999999999
40
0.0068897637795276
0
CIRCLE
8
BLACK
10
2.8100000000000001
20
2.9399999999999999
40
0.0068897637795276
0
CIRCLE
8
BLACK
10
2.9100000000000001
20
3.04
40
0.0068897637795276
0
CIRCLE
8
BLACK
10
2.8100000000000001
20
3.04
40
0.0068897637795276
0
CIRCLE
8
BLACK
10
2.9100000000000001
20
3.1400000000000001
40
0.0068897637795276
0
CIRCLE
8
BLACK
10
2.8100000000000001
20
3.1400000000000001
40
0.0068897637795276
0
CIRCLE
8
BLACK
10
1.8799999999999999
20
2.1699999999999999
40
0.0068897637795276
0
CIRCLE
8
BLACK
10
2.4149015748031495
20
1.2268503937007873
40
0.0068897637795276
0
CIRCLE
8
BLACK
10
2.3823129921259842
20
0.8396062992125984
40
0.0068897637795276
0
CIRCLE
8
BLACK
10
1.8799999999999999
20
3.0099999999999998
40
0.0068897637795276
0
CIRCLE
8
BLACK
10
1.8799999999999999
20
0.91
40
0.0068897637795276
0
CIRCLE
8
BLACK
10
1.8799999999999999
20
1.3300000000000001
40
0.0068897637795276
0
CIRCLE
8
BLACK
10
1.8799999999999999
20
2.5899999999999999
40
0.0068897637795276
0
CIRCLE
8
BLACK
10
1.8799999999999999
20
1.75
40
0.0068897637795276
0
CIRCLE
8
BLACK
10
1.8799999999999999
20
3.4299999999999997
40
0.0068897637795276
  0
ENDSEC
  0
EOF
