  0
SECTION
  2
HEADER
  9
$ANGBASE
  50
0.0
  9
$ANGDIR
  70
1
  9
$MEASUREMENT
  70
0
  0
ENDSEC
  0
SECTION
  2
TABLES
  0
TABLE
  2
LTYPE
  70
4
  0
LTYPE
  5
40F
  2
CONTINUOUS
  70
0
  3
Solid line
  72
65
  73
0
  40
0.0
  0
LTYPE
  5
410
  2
DASHDOT
 70
0
  3
Dash Dot ____ _ ____ _
 72
65
 73
4
 40
2.0
 49
1.25
 49
-0.25
 49
0.25
 49
-0.25
  0
LTYPE
  5
411
  2
DASHED
 70
0
  3
Dashed __ __ __ __ __
 72
65
 73
2
 40
0.75
 49
0.5
 49
-0.25
  0
LTYPE
  5
43B
  2
DOTTED
 70
0
  3
Dotted .  .  .  .
 72
65
 73
2
 40
0.2
 49
0.0
 49
-0.2
  0
ENDTAB
  0
TABLE
  2
STYLE
  70
4
  0
STYLE
  2
KICAD
  70
0
  40
0
  41
1
  42
1
  50
0
  71
0
  3
isocp.shx
  0
STYLE
  2
KICADB
  70
0
  40
0
  41
1
  42
1
  50
0
  71
0
  3
isocp.shx
  0
STYLE
  2
KICADI
  70
0
  40
0
  41
1
  42
1
  50
15
  71
0
  3
isocp.shx
  0
STYLE
  2
KICADBI
  70
0
  40
0
  41
1
  42
1
  50
15
  71
0
  3
isocp.shx
  0
ENDTAB
  0
TABLE
  2
LAYER
  70
1
  0
LAYER
  2
BLACK
  70
0
  62
7
  6
CONTINUOUS
  0
ENDTAB
  0
ENDSEC
  0
SECTION
  2
ENTITIES
0
LINE
8
BLACK
6
CONTINUOUS
10
1.61249
20
-1.66629
11
1.6131
21
-1.66625
0
LINE
8
BLACK
6
CONTINUOUS
10
1.6131
20
-1.66625
11
1.61396
21
-1.66668
0
LINE
8
BLACK
6
CONTINUOUS
10
1.61396
20
-1.66668
11
1.61489
21
-1.66693
0
LINE
8
BLACK
6
CONTINUOUS
10
1.61489
20
-1.66693
11
1.61533
21
-1.66737
0
LINE
8
BLACK
6
CONTINUOUS
10
1.61533
20
-1.66737
11
1.61587
21
-1.66764
0
LINE
8
BLACK
6
CONTINUOUS
10
1.61587
20
-1.66764
11
1.61641
21
-1.66845
0
LINE
8
BLACK
6
CONTINUOUS
10
1.61641
20
-1.66845
11
1.61709
21
-1.66913
0
LINE
8
BLACK
6
CONTINUOUS
10
1.61709
20
-1.66913
11
1.61725
21
-1.66972
0
LINE
8
BLACK
6
CONTINUOUS
10
1.61725
20
-1.66972
11
1.61759
21
-1.67023
0
LINE
8
BLACK
6
CONTINUOUS
10
1.61759
20
-1.67023
11
1.61764
21
-1.6712
0
LINE
8
BLACK
6
CONTINUOUS
10
1.61764
20
-1.6712
11
1.61789
21
-1.67213
0
LINE
8
BLACK
6
CONTINUOUS
10
1.61789
20
-1.67213
11
1.61789
21
-1.6947
0
LINE
8
BLACK
6
CONTINUOUS
10
1.61789
20
-1.6947
11
1.63189
21
-1.6947
0
LINE
8
BLACK
6
CONTINUOUS
10
1.63189
20
-1.6947
11
1.63489
21
-1.6955
0
LINE
8
BLACK
6
CONTINUOUS
10
1.63489
20
-1.6955
11
1.63709
21
-1.6977
0
LINE
8
BLACK
6
CONTINUOUS
10
1.63709
20
-1.6977
11
1.63789
21
-1.7007
0
LINE
8
BLACK
6
CONTINUOUS
10
1.63789
20
-1.7007
11
1.63709
21
-1.7037
0
LINE
8
BLACK
6
CONTINUOUS
10
1.63709
20
-1.7037
11
1.63489
21
-1.7059
0
LINE
8
BLACK
6
CONTINUOUS
10
1.63489
20
-1.7059
11
1.63189
21
-1.7067
0
LINE
8
BLACK
6
CONTINUOUS
10
1.63189
20
-1.7067
11
1.61789
21
-1.7067
0
LINE
8
BLACK
6
CONTINUOUS
10
1.61789
20
-1.7067
11
1.61789
21
-1.70927
0
LINE
8
BLACK
6
CONTINUOUS
10
1.61789
20
-1.70927
11
1.61709
21
-1.71227
0
LINE
8
BLACK
6
CONTINUOUS
10
1.61709
20
-1.71227
11
1.61489
21
-1.71447
0
LINE
8
BLACK
6
CONTINUOUS
10
1.61489
20
-1.71447
11
1.61189
21
-1.71527
0
LINE
8
BLACK
6
CONTINUOUS
10
1.61189
20
-1.71527
11
1.60889
21
-1.71447
0
LINE
8
BLACK
6
CONTINUOUS
10
1.60889
20
-1.71447
11
1.6067
21
-1.71227
0
LINE
8
BLACK
6
CONTINUOUS
10
1.6067
20
-1.71227
11
1.60589
21
-1.70927
0
LINE
8
BLACK
6
CONTINUOUS
10
1.60589
20
-1.70927
11
1.60589
21
-1.7067
0
LINE
8
BLACK
6
CONTINUOUS
10
1.60589
20
-1.7067
11
1.59189
21
-1.7067
0
LINE
8
BLACK
6
CONTINUOUS
10
1.59189
20
-1.7067
11
1.58889
21
-1.7059
0
LINE
8
BLACK
6
CONTINUOUS
10
1.58889
20
-1.7059
11
1.5867
21
-1.7037
0
LINE
8
BLACK
6
CONTINUOUS
10
1.5867
20
-1.7037
11
1.58589
21
-1.7007
0
LINE
8
BLACK
6
CONTINUOUS
10
1.58589
20
-1.7007
11
1.5867
21
-1.6977
0
LINE
8
BLACK
6
CONTINUOUS
10
1.5867
20
-1.6977
11
1.58889
21
-1.6955
0
LINE
8
BLACK
6
CONTINUOUS
10
1.58889
20
-1.6955
11
1.59189
21
-1.6947
0
LINE
8
BLACK
6
CONTINUOUS
10
1.59189
20
-1.6947
11
1.60589
21
-1.6947
0
LINE
8
BLACK
6
CONTINUOUS
10
1.60589
20
-1.6947
11
1.60589
21
-1.68045
0
LINE
8
BLACK
6
CONTINUOUS
10
1.60589
20
-1.68045
11
1.57093
21
-1.69211
0
LINE
8
BLACK
6
CONTINUOUS
10
1.57093
20
-1.69211
11
1.56783
21
-1.69229
0
LINE
8
BLACK
6
CONTINUOUS
10
1.56783
20
-1.69229
11
1.56506
21
-1.6909
0
LINE
8
BLACK
6
CONTINUOUS
10
1.56506
20
-1.6909
11
1.56334
21
-1.68831
0
LINE
8
BLACK
6
CONTINUOUS
10
1.56334
20
-1.68831
11
1.56316
21
-1.68521
0
LINE
8
BLACK
6
CONTINUOUS
10
1.56316
20
-1.68521
11
1.56455
21
-1.68243
0
LINE
8
BLACK
6
CONTINUOUS
10
1.56455
20
-1.68243
11
1.56714
21
-1.68072
0
LINE
8
BLACK
6
CONTINUOUS
10
1.56714
20
-1.68072
11
1.61
21
-1.66644
0
LINE
8
BLACK
6
CONTINUOUS
10
1.61
20
-1.66644
11
1.61096
21
-1.66638
0
LINE
8
BLACK
6
CONTINUOUS
10
1.61096
20
-1.66638
11
1.61189
21
-1.66613
0
LINE
8
BLACK
6
CONTINUOUS
10
1.61189
20
-1.66613
11
1.61249
21
-1.66629
0
LINE
8
BLACK
6
CONTINUOUS
10
1.63489
20
-1.61836
11
1.63709
21
-1.62056
0
LINE
8
BLACK
6
CONTINUOUS
10
1.63709
20
-1.62056
11
1.63789
21
-1.62356
0
LINE
8
BLACK
6
CONTINUOUS
10
1.63789
20
-1.62356
11
1.63709
21
-1.62656
0
LINE
8
BLACK
6
CONTINUOUS
10
1.63709
20
-1.62656
11
1.63489
21
-1.62875
0
LINE
8
BLACK
6
CONTINUOUS
10
1.63489
20
-1.62875
11
1.63189
21
-1.62956
0
LINE
8
BLACK
6
CONTINUOUS
10
1.63189
20
-1.62956
11
1.60647
21
-1.62956
0
LINE
8
BLACK
6
CONTINUOUS
10
1.60647
20
-1.62956
11
1.60647
21
-1.64356
0
LINE
8
BLACK
6
CONTINUOUS
10
1.60647
20
-1.64356
11
1.60566
21
-1.64656
0
LINE
8
BLACK
6
CONTINUOUS
10
1.60566
20
-1.64656
11
1.60347
21
-1.64875
0
LINE
8
BLACK
6
CONTINUOUS
10
1.60347
20
-1.64875
11
1.60047
21
-1.64956
0
LINE
8
BLACK
6
CONTINUOUS
10
1.60047
20
-1.64956
11
1.59747
21
-1.64875
0
LINE
8
BLACK
6
CONTINUOUS
10
1.59747
20
-1.64875
11
1.59527
21
-1.64656
0
LINE
8
BLACK
6
CONTINUOUS
10
1.59527
20
-1.64656
11
1.59447
21
-1.64356
0
LINE
8
BLACK
6
CONTINUOUS
10
1.59447
20
-1.64356
11
1.59447
21
-1.62956
0
LINE
8
BLACK
6
CONTINUOUS
10
1.59447
20
-1.62956
11
1.57789
21
-1.62956
0
LINE
8
BLACK
6
CONTINUOUS
10
1.57789
20
-1.62956
11
1.57789
21
-1.65213
0
LINE
8
BLACK
6
CONTINUOUS
10
1.57789
20
-1.65213
11
1.57709
21
-1.65513
0
LINE
8
BLACK
6
CONTINUOUS
10
1.57709
20
-1.65513
11
1.57489
21
-1.65733
0
LINE
8
BLACK
6
CONTINUOUS
10
1.57489
20
-1.65733
11
1.57189
21
-1.65813
0
LINE
8
BLACK
6
CONTINUOUS
10
1.57189
20
-1.65813
11
1.56889
21
-1.65733
0
LINE
8
BLACK
6
CONTINUOUS
10
1.56889
20
-1.65733
11
1.5667
21
-1.65513
0
LINE
8
BLACK
6
CONTINUOUS
10
1.5667
20
-1.65513
11
1.56589
21
-1.65213
0
LINE
8
BLACK
6
CONTINUOUS
10
1.56589
20
-1.65213
11
1.56589
21
-1.62356
0
LINE
8
BLACK
6
CONTINUOUS
10
1.56589
20
-1.62356
11
1.5667
21
-1.62056
0
LINE
8
BLACK
6
CONTINUOUS
10
1.5667
20
-1.62056
11
1.56889
21
-1.61836
0
LINE
8
BLACK
6
CONTINUOUS
10
1.56889
20
-1.61836
11
1.57189
21
-1.61756
0
LINE
8
BLACK
6
CONTINUOUS
10
1.57189
20
-1.61756
11
1.63189
21
-1.61756
0
LINE
8
BLACK
6
CONTINUOUS
10
1.63189
20
-1.61756
11
1.63489
21
-1.61836
0
LINE
8
BLACK
6
CONTINUOUS
10
1.74385
20
-1.375
11
1.74605
21
-1.3772
0
LINE
8
BLACK
6
CONTINUOUS
10
1.74605
20
-1.3772
11
1.74685
21
-1.3802
0
LINE
8
BLACK
6
CONTINUOUS
10
1.74685
20
-1.3802
11
1.74685
21
-1.4402
0
LINE
8
BLACK
6
CONTINUOUS
10
1.74685
20
-1.4402
11
1.74605
21
-1.4432
0
LINE
8
BLACK
6
CONTINUOUS
10
1.74605
20
-1.4432
11
1.74385
21
-1.4454
0
LINE
8
BLACK
6
CONTINUOUS
10
1.74385
20
-1.4454
11
1.74085
21
-1.4462
0
LINE
8
BLACK
6
CONTINUOUS
10
1.74085
20
-1.4462
11
1.73785
21
-1.4454
0
LINE
8
BLACK
6
CONTINUOUS
10
1.73785
20
-1.4454
11
1.73566
21
-1.4432
0
LINE
8
BLACK
6
CONTINUOUS
10
1.73566
20
-1.4432
11
1.73485
21
-1.4402
0
LINE
8
BLACK
6
CONTINUOUS
10
1.73485
20
-1.4402
11
1.73485
21
-1.41477
0
LINE
8
BLACK
6
CONTINUOUS
10
1.73485
20
-1.41477
11
1.72085
21
-1.41477
0
LINE
8
BLACK
6
CONTINUOUS
10
1.72085
20
-1.41477
11
1.71785
21
-1.41397
0
LINE
8
BLACK
6
CONTINUOUS
10
1.71785
20
-1.41397
11
1.71566
21
-1.41177
0
LINE
8
BLACK
6
CONTINUOUS
10
1.71566
20
-1.41177
11
1.71485
21
-1.40877
0
LINE
8
BLACK
6
CONTINUOUS
10
1.71485
20
-1.40877
11
1.71566
21
-1.40577
0
LINE
8
BLACK
6
CONTINUOUS
10
1.71566
20
-1.40577
11
1.71785
21
-1.40358
0
LINE
8
BLACK
6
CONTINUOUS
10
1.71785
20
-1.40358
11
1.72085
21
-1.40277
0
LINE
8
BLACK
6
CONTINUOUS
10
1.72085
20
-1.40277
11
1.73485
21
-1.40277
0
LINE
8
BLACK
6
CONTINUOUS
10
1.73485
20
-1.40277
11
1.73485
21
-1.3862
0
LINE
8
BLACK
6
CONTINUOUS
10
1.73485
20
-1.3862
11
1.71228
21
-1.3862
0
LINE
8
BLACK
6
CONTINUOUS
10
1.71228
20
-1.3862
11
1.70928
21
-1.3854
0
LINE
8
BLACK
6
CONTINUOUS
10
1.70928
20
-1.3854
11
1.70708
21
-1.3832
0
LINE
8
BLACK
6
CONTINUOUS
10
1.70708
20
-1.3832
11
1.70628
21
-1.3802
0
LINE
8
BLACK
6
CONTINUOUS
10
1.70628
20
-1.3802
11
1.70708
21
-1.3772
0
LINE
8
BLACK
6
CONTINUOUS
10
1.70708
20
-1.3772
11
1.70928
21
-1.375
0
LINE
8
BLACK
6
CONTINUOUS
10
1.70928
20
-1.375
11
1.71228
21
-1.3742
0
LINE
8
BLACK
6
CONTINUOUS
10
1.71228
20
-1.3742
11
1.74085
21
-1.3742
0
LINE
8
BLACK
6
CONTINUOUS
10
1.74085
20
-1.3742
11
1.74385
21
-1.375
0
LINE
8
BLACK
6
CONTINUOUS
10
1.69814
20
-1.375
11
1.70033
21
-1.3772
0
LINE
8
BLACK
6
CONTINUOUS
10
1.70033
20
-1.3772
11
1.70114
21
-1.3802
0
LINE
8
BLACK
6
CONTINUOUS
10
1.70114
20
-1.3802
11
1.70033
21
-1.3832
0
LINE
8
BLACK
6
CONTINUOUS
10
1.70033
20
-1.3832
11
1.69814
21
-1.3854
0
LINE
8
BLACK
6
CONTINUOUS
10
1.69814
20
-1.3854
11
1.69514
21
-1.3862
0
LINE
8
BLACK
6
CONTINUOUS
10
1.69514
20
-1.3862
11
1.67122
21
-1.3862
0
LINE
8
BLACK
6
CONTINUOUS
10
1.67122
20
-1.3862
11
1.68251
21
-1.39911
0
LINE
8
BLACK
6
CONTINUOUS
10
1.68251
20
-1.39911
11
1.68277
21
-1.39964
0
LINE
8
BLACK
6
CONTINUOUS
10
1.68277
20
-1.39964
11
1.68319
21
-1.40006
0
LINE
8
BLACK
6
CONTINUOUS
10
1.68319
20
-1.40006
11
1.68345
21
-1.40101
0
LINE
8
BLACK
6
CONTINUOUS
10
1.68345
20
-1.40101
11
1.68388
21
-1.40189
0
LINE
8
BLACK
6
CONTINUOUS
10
1.68388
20
-1.40189
11
1.68384
21
-1.40249
0
LINE
8
BLACK
6
CONTINUOUS
10
1.68384
20
-1.40249
11
1.68399
21
-1.40306
0
LINE
8
BLACK
6
CONTINUOUS
10
1.68399
20
-1.40306
11
1.68374
21
-1.40401
0
LINE
8
BLACK
6
CONTINUOUS
10
1.68374
20
-1.40401
11
1.68367
21
-1.40499
0
LINE
8
BLACK
6
CONTINUOUS
10
1.68367
20
-1.40499
11
1.68334
21
-1.40549
0
LINE
8
BLACK
6
CONTINUOUS
10
1.68334
20
-1.40549
11
1.68319
21
-1.40606
0
LINE
8
BLACK
6
CONTINUOUS
10
1.68319
20
-1.40606
11
1.68249
21
-1.40676
0
LINE
8
BLACK
6
CONTINUOUS
10
1.68249
20
-1.40676
11
1.68195
21
-1.40757
0
LINE
8
BLACK
6
CONTINUOUS
10
1.68195
20
-1.40757
11
1.68141
21
-1.40784
0
LINE
8
BLACK
6
CONTINUOUS
10
1.68141
20
-1.40784
11
1.68099
21
-1.40825
0
LINE
8
BLACK
6
CONTINUOUS
10
1.68099
20
-1.40825
11
1.68004
21
-1.40851
0
LINE
8
BLACK
6
CONTINUOUS
10
1.68004
20
-1.40851
11
1.67916
21
-1.40894
0
LINE
8
BLACK
6
CONTINUOUS
10
1.67916
20
-1.40894
11
1.67857
21
-1.4089
0
LINE
8
BLACK
6
CONTINUOUS
10
1.67857
20
-1.4089
11
1.67799
21
-1.40906
0
LINE
8
BLACK
6
CONTINUOUS
10
1.67799
20
-1.40906
11
1.67084
21
-1.40906
0
LINE
8
BLACK
6
CONTINUOUS
10
1.67084
20
-1.40906
11
1.66726
21
-1.41085
0
LINE
8
BLACK
6
CONTINUOUS
10
1.66726
20
-1.41085
11
1.66578
21
-1.41233
0
LINE
8
BLACK
6
CONTINUOUS
10
1.66578
20
-1.41233
11
1.66399
21
-1.4159
0
LINE
8
BLACK
6
CONTINUOUS
10
1.66399
20
-1.4159
11
1.66399
21
-1.42736
0
LINE
8
BLACK
6
CONTINUOUS
10
1.66399
20
-1.42736
11
1.66578
21
-1.43093
0
LINE
8
BLACK
6
CONTINUOUS
10
1.66578
20
-1.43093
11
1.66726
21
-1.43241
0
LINE
8
BLACK
6
CONTINUOUS
10
1.66726
20
-1.43241
11
1.67084
21
-1.4342
0
LINE
8
BLACK
6
CONTINUOUS
10
1.67084
20
-1.4342
11
1.68515
21
-1.4342
0
LINE
8
BLACK
6
CONTINUOUS
10
1.68515
20
-1.4342
11
1.68873
21
-1.43241
0
LINE
8
BLACK
6
CONTINUOUS
10
1.68873
20
-1.43241
11
1.69089
21
-1.43024
0
LINE
8
BLACK
6
CONTINUOUS
10
1.69089
20
-1.43024
11
1.69358
21
-1.42869
0
LINE
8
BLACK
6
CONTINUOUS
10
1.69358
20
-1.42869
11
1.69669
21
-1.42869
0
LINE
8
BLACK
6
CONTINUOUS
10
1.69669
20
-1.42869
11
1.69938
21
-1.43024
0
LINE
8
BLACK
6
CONTINUOUS
10
1.69938
20
-1.43024
11
1.70093
21
-1.43293
0
LINE
8
BLACK
6
CONTINUOUS
10
1.70093
20
-1.43293
11
1.70093
21
-1.43604
0
LINE
8
BLACK
6
CONTINUOUS
10
1.70093
20
-1.43604
11
1.69938
21
-1.43873
0
LINE
8
BLACK
6
CONTINUOUS
10
1.69938
20
-1.43873
11
1.69652
21
-1.44159
0
LINE
8
BLACK
6
CONTINUOUS
10
1.69652
20
-1.44159
11
1.69569
21
-1.44207
0
LINE
8
BLACK
6
CONTINUOUS
10
1.69569
20
-1.44207
11
1.69496
21
-1.44271
0
LINE
8
BLACK
6
CONTINUOUS
10
1.69496
20
-1.44271
11
1.68925
21
-1.44557
0
LINE
8
BLACK
6
CONTINUOUS
10
1.68925
20
-1.44557
11
1.6879
21
-1.44584
0
LINE
8
BLACK
6
CONTINUOUS
10
1.6879
20
-1.44584
11
1.68657
21
-1.4462
0
LINE
8
BLACK
6
CONTINUOUS
10
1.68657
20
-1.4462
11
1.66942
21
-1.4462
0
LINE
8
BLACK
6
CONTINUOUS
10
1.66942
20
-1.4462
11
1.66809
21
-1.44584
0
LINE
8
BLACK
6
CONTINUOUS
10
1.66809
20
-1.44584
11
1.66674
21
-1.44557
0
LINE
8
BLACK
6
CONTINUOUS
10
1.66674
20
-1.44557
11
1.66103
21
-1.44271
0
LINE
8
BLACK
6
CONTINUOUS
10
1.66103
20
-1.44271
11
1.6603
21
-1.44207
0
LINE
8
BLACK
6
CONTINUOUS
10
1.6603
20
-1.44207
11
1.65947
21
-1.44159
0
LINE
8
BLACK
6
CONTINUOUS
10
1.65947
20
-1.44159
11
1.65661
21
-1.43873
0
LINE
8
BLACK
6
CONTINUOUS
10
1.65661
20
-1.43873
11
1.65613
21
-1.43789
0
LINE
8
BLACK
6
CONTINUOUS
10
1.65613
20
-1.43789
11
1.65548
21
-1.43717
0
LINE
8
BLACK
6
CONTINUOUS
10
1.65548
20
-1.43717
11
1.65263
21
-1.43146
0
LINE
8
BLACK
6
CONTINUOUS
10
1.65263
20
-1.43146
11
1.65235
21
-1.4301
0
LINE
8
BLACK
6
CONTINUOUS
10
1.65235
20
-1.4301
11
1.65199
21
-1.42877
0
LINE
8
BLACK
6
CONTINUOUS
10
1.65199
20
-1.42877
11
1.65199
21
-1.41449
0
LINE
8
BLACK
6
CONTINUOUS
10
1.65199
20
-1.41449
11
1.65235
21
-1.41315
0
LINE
8
BLACK
6
CONTINUOUS
10
1.65235
20
-1.41315
11
1.65263
21
-1.4118
0
LINE
8
BLACK
6
CONTINUOUS
10
1.65263
20
-1.4118
11
1.65548
21
-1.40609
0
LINE
8
BLACK
6
CONTINUOUS
10
1.65548
20
-1.40609
11
1.65613
21
-1.40537
0
LINE
8
BLACK
6
CONTINUOUS
10
1.65613
20
-1.40537
11
1.65661
21
-1.40453
0
LINE
8
BLACK
6
CONTINUOUS
10
1.65661
20
-1.40453
11
1.65947
21
-1.40167
0
LINE
8
BLACK
6
CONTINUOUS
10
1.65947
20
-1.40167
11
1.6603
21
-1.40119
0
LINE
8
BLACK
6
CONTINUOUS
10
1.6603
20
-1.40119
11
1.66103
21
-1.40055
0
LINE
8
BLACK
6
CONTINUOUS
10
1.66103
20
-1.40055
11
1.66576
21
-1.39818
0
LINE
8
BLACK
6
CONTINUOUS
10
1.66576
20
-1.39818
11
1.65348
21
-1.38415
0
LINE
8
BLACK
6
CONTINUOUS
10
1.65348
20
-1.38415
11
1.65322
21
-1.38362
0
LINE
8
BLACK
6
CONTINUOUS
10
1.65322
20
-1.38362
11
1.6528
21
-1.3832
0
LINE
8
BLACK
6
CONTINUOUS
10
1.6528
20
-1.3832
11
1.65254
21
-1.38225
0
LINE
8
BLACK
6
CONTINUOUS
10
1.65254
20
-1.38225
11
1.65211
21
-1.38137
0
LINE
8
BLACK
6
CONTINUOUS
10
1.65211
20
-1.38137
11
1.65215
21
-1.38077
0
LINE
8
BLACK
6
CONTINUOUS
10
1.65215
20
-1.38077
11
1.65199
21
-1.3802
0
LINE
8
BLACK
6
CONTINUOUS
10
1.65199
20
-1.3802
11
1.65225
21
-1.37925
0
LINE
8
BLACK
6
CONTINUOUS
10
1.65225
20
-1.37925
11
1.65231
21
-1.37827
0
LINE
8
BLACK
6
CONTINUOUS
10
1.65231
20
-1.37827
11
1.65264
21
-1.37777
0
LINE
8
BLACK
6
CONTINUOUS
10
1.65264
20
-1.37777
11
1.6528
21
-1.3772
0
LINE
8
BLACK
6
CONTINUOUS
10
1.6528
20
-1.3772
11
1.65349
21
-1.3765
0
LINE
8
BLACK
6
CONTINUOUS
10
1.65349
20
-1.3765
11
1.65404
21
-1.37569
0
LINE
8
BLACK
6
CONTINUOUS
10
1.65404
20
-1.37569
11
1.65457
21
-1.37542
0
LINE
8
BLACK
6
CONTINUOUS
10
1.65457
20
-1.37542
11
1.65499
21
-1.375
0
LINE
8
BLACK
6
CONTINUOUS
10
1.65499
20
-1.375
11
1.65595
21
-1.37475
0
LINE
8
BLACK
6
CONTINUOUS
10
1.65595
20
-1.37475
11
1.65683
21
-1.37432
0
LINE
8
BLACK
6
CONTINUOUS
10
1.65683
20
-1.37432
11
1.65742
21
-1.37435
0
LINE
8
BLACK
6
CONTINUOUS
10
1.65742
20
-1.37435
11
1.65799
21
-1.3742
0
LINE
8
BLACK
6
CONTINUOUS
10
1.65799
20
-1.3742
11
1.69514
21
-1.3742
0
LINE
8
BLACK
6
CONTINUOUS
10
1.69514
20
-1.3742
11
1.69814
21
-1.375
0
LINE
8
BLACK
6
CONTINUOUS
10
1.92747
20
-1.35608
11
1.92901
21
-1.35738
0
LINE
8
BLACK
6
CONTINUOUS
10
1.92901
20
-1.35738
11
1.92936
21
-1.35937
0
LINE
8
BLACK
6
CONTINUOUS
10
1.92936
20
-1.35937
11
1.92835
21
-1.36112
0
LINE
8
BLACK
6
CONTINUOUS
10
1.92835
20
-1.36112
11
1.92646
21
-1.36181
0
LINE
8
BLACK
6
CONTINUOUS
10
1.92646
20
-1.36181
11
1.83646
21
-1.36181
0
LINE
8
BLACK
6
CONTINUOUS
10
1.83646
20
-1.36181
11
1.83545
21
-1.36163
0
LINE
8
BLACK
6
CONTINUOUS
10
1.83545
20
-1.36163
11
1.8339
21
-1.36033
0
LINE
8
BLACK
6
CONTINUOUS
10
1.8339
20
-1.36033
11
1.83355
21
-1.35835
0
LINE
8
BLACK
6
CONTINUOUS
10
1.83355
20
-1.35835
11
1.83456
21
-1.3566
0
LINE
8
BLACK
6
CONTINUOUS
10
1.83456
20
-1.3566
11
1.83646
21
-1.35591
0
LINE
8
BLACK
6
CONTINUOUS
10
1.83646
20
-1.35591
11
1.92646
21
-1.35591
0
LINE
8
BLACK
6
CONTINUOUS
10
1.92646
20
-1.35591
11
1.92747
21
-1.35608
0
LINE
8
BLACK
6
CONTINUOUS
10
1.41247
20
-1.35108
11
1.41401
21
-1.35238
0
LINE
8
BLACK
6
CONTINUOUS
10
1.41401
20
-1.35238
11
1.41436
21
-1.35437
0
LINE
8
BLACK
6
CONTINUOUS
10
1.41436
20
-1.35437
11
1.41335
21
-1.35612
0
LINE
8
BLACK
6
CONTINUOUS
10
1.41335
20
-1.35612
11
1.41146
21
-1.35681
0
LINE
8
BLACK
6
CONTINUOUS
10
1.41146
20
-1.35681
11
1.32146
21
-1.35681
0
LINE
8
BLACK
6
CONTINUOUS
10
1.32146
20
-1.35681
11
1.32045
21
-1.35663
0
LINE
8
BLACK
6
CONTINUOUS
10
1.32045
20
-1.35663
11
1.3189
21
-1.35533
0
LINE
8
BLACK
6
CONTINUOUS
10
1.3189
20
-1.35533
11
1.31855
21
-1.35335
0
LINE
8
BLACK
6
CONTINUOUS
10
1.31855
20
-1.35335
11
1.31956
21
-1.3516
0
LINE
8
BLACK
6
CONTINUOUS
10
1.31956
20
-1.3516
11
1.32146
21
-1.35091
0
LINE
8
BLACK
6
CONTINUOUS
10
1.32146
20
-1.35091
11
1.41146
21
-1.35091
0
LINE
8
BLACK
6
CONTINUOUS
10
1.41146
20
-1.35091
11
1.41247
21
-1.35108
0
LINE
8
BLACK
6
CONTINUOUS
10
1.08747
20
-1.34608
11
1.08901
21
-1.34738
0
LINE
8
BLACK
6
CONTINUOUS
10
1.08901
20
-1.34738
11
1.08936
21
-1.34937
0
LINE
8
BLACK
6
CONTINUOUS
10
1.08936
20
-1.34937
11
1.08835
21
-1.35112
0
LINE
8
BLACK
6
CONTINUOUS
10
1.08835
20
-1.35112
11
1.08646
21
-1.35181
0
LINE
8
BLACK
6
CONTINUOUS
10
1.08646
20
-1.35181
11
1.02646
21
-1.35181
0
LINE
8
BLACK
6
CONTINUOUS
10
1.02646
20
-1.35181
11
1.02545
21
-1.35163
0
LINE
8
BLACK
6
CONTINUOUS
10
1.02545
20
-1.35163
11
1.0239
21
-1.35033
0
LINE
8
BLACK
6
CONTINUOUS
10
1.0239
20
-1.35033
11
1.02355
21
-1.34835
0
LINE
8
BLACK
6
CONTINUOUS
10
1.02355
20
-1.34835
11
1.02456
21
-1.3466
0
LINE
8
BLACK
6
CONTINUOUS
10
1.02456
20
-1.3466
11
1.02646
21
-1.34591
0
LINE
8
BLACK
6
CONTINUOUS
10
1.02646
20
-1.34591
11
1.08646
21
-1.34591
0
LINE
8
BLACK
6
CONTINUOUS
10
1.08646
20
-1.34591
11
1.08747
21
-1.34608
0
LINE
8
BLACK
6
CONTINUOUS
10
1.08813
20
-1.27219
11
1.08882
21
-1.27386
0
LINE
8
BLACK
6
CONTINUOUS
10
1.08882
20
-1.27386
11
1.08882
21
-1.30386
0
LINE
8
BLACK
6
CONTINUOUS
10
1.08882
20
-1.30386
11
1.08813
21
-1.30553
0
LINE
8
BLACK
6
CONTINUOUS
10
1.08813
20
-1.30553
11
1.08646
21
-1.30622
0
LINE
8
BLACK
6
CONTINUOUS
10
1.08646
20
-1.30622
11
1.08479
21
-1.30553
0
LINE
8
BLACK
6
CONTINUOUS
10
1.08479
20
-1.30553
11
1.08409
21
-1.30386
0
LINE
8
BLACK
6
CONTINUOUS
10
1.08409
20
-1.30386
11
1.08409
21
-1.27386
0
LINE
8
BLACK
6
CONTINUOUS
10
1.08409
20
-1.27386
11
1.08479
21
-1.27219
0
LINE
8
BLACK
6
CONTINUOUS
10
1.08479
20
-1.27219
11
1.08646
21
-1.2715
0
LINE
8
BLACK
6
CONTINUOUS
10
1.08646
20
-1.2715
11
1.08813
21
-1.27219
0
LINE
8
BLACK
6
CONTINUOUS
10
1.02813
20
-1.27219
11
1.02882
21
-1.27386
0
LINE
8
BLACK
6
CONTINUOUS
10
1.02882
20
-1.27386
11
1.02882
21
-1.30386
0
LINE
8
BLACK
6
CONTINUOUS
10
1.02882
20
-1.30386
11
1.02813
21
-1.30553
0
LINE
8
BLACK
6
CONTINUOUS
10
1.02813
20
-1.30553
11
1.02646
21
-1.30622
0
LINE
8
BLACK
6
CONTINUOUS
10
1.02646
20
-1.30622
11
1.02479
21
-1.30553
0
LINE
8
BLACK
6
CONTINUOUS
10
1.02479
20
-1.30553
11
1.02409
21
-1.30386
0
LINE
8
BLACK
6
CONTINUOUS
10
1.02409
20
-1.30386
11
1.02409
21
-1.27386
0
LINE
8
BLACK
6
CONTINUOUS
10
1.02409
20
-1.27386
11
1.02479
21
-1.27219
0
LINE
8
BLACK
6
CONTINUOUS
10
1.02479
20
-1.27219
11
1.02646
21
-1.2715
0
LINE
8
BLACK
6
CONTINUOUS
10
1.02646
20
-1.2715
11
1.02813
21
-1.27219
0
LINE
8
BLACK
6
CONTINUOUS
10
1.08747
20
-1.22608
11
1.08901
21
-1.22738
0
LINE
8
BLACK
6
CONTINUOUS
10
1.08901
20
-1.22738
11
1.08936
21
-1.22937
0
LINE
8
BLACK
6
CONTINUOUS
10
1.08936
20
-1.22937
11
1.08835
21
-1.23112
0
LINE
8
BLACK
6
CONTINUOUS
10
1.08835
20
-1.23112
11
1.08646
21
-1.23181
0
LINE
8
BLACK
6
CONTINUOUS
10
1.08646
20
-1.23181
11
1.02646
21
-1.23181
0
LINE
8
BLACK
6
CONTINUOUS
10
1.02646
20
-1.23181
11
1.02545
21
-1.23163
0
LINE
8
BLACK
6
CONTINUOUS
10
1.02545
20
-1.23163
11
1.0239
21
-1.23033
0
LINE
8
BLACK
6
CONTINUOUS
10
1.0239
20
-1.23033
11
1.02355
21
-1.22835
0
LINE
8
BLACK
6
CONTINUOUS
10
1.02355
20
-1.22835
11
1.02456
21
-1.2266
0
LINE
8
BLACK
6
CONTINUOUS
10
1.02456
20
-1.2266
11
1.02646
21
-1.22591
0
LINE
8
BLACK
6
CONTINUOUS
10
1.02646
20
-1.22591
11
1.08646
21
-1.22591
0
LINE
8
BLACK
6
CONTINUOUS
10
1.08646
20
-1.22591
11
1.08747
21
-1.22608
0
LINE
8
BLACK
6
CONTINUOUS
10
1.92747
20
-1.21608
11
1.92901
21
-1.21738
0
LINE
8
BLACK
6
CONTINUOUS
10
1.92901
20
-1.21738
11
1.92936
21
-1.21937
0
LINE
8
BLACK
6
CONTINUOUS
10
1.92936
20
-1.21937
11
1.92835
21
-1.22112
0
LINE
8
BLACK
6
CONTINUOUS
10
1.92835
20
-1.22112
11
1.92646
21
-1.22181
0
LINE
8
BLACK
6
CONTINUOUS
10
1.92646
20
-1.22181
11
1.83646
21
-1.22181
0
LINE
8
BLACK
6
CONTINUOUS
10
1.83646
20
-1.22181
11
1.83545
21
-1.22163
0
LINE
8
BLACK
6
CONTINUOUS
10
1.83545
20
-1.22163
11
1.8339
21
-1.22033
0
LINE
8
BLACK
6
CONTINUOUS
10
1.8339
20
-1.22033
11
1.83355
21
-1.21835
0
LINE
8
BLACK
6
CONTINUOUS
10
1.83355
20
-1.21835
11
1.83456
21
-1.2166
0
LINE
8
BLACK
6
CONTINUOUS
10
1.83456
20
-1.2166
11
1.83646
21
-1.21591
0
LINE
8
BLACK
6
CONTINUOUS
10
1.83646
20
-1.21591
11
1.92646
21
-1.21591
0
LINE
8
BLACK
6
CONTINUOUS
10
1.92646
20
-1.21591
11
1.92747
21
-1.21608
0
LINE
8
BLACK
6
CONTINUOUS
10
1.41247
20
-1.21108
11
1.41401
21
-1.21238
0
LINE
8
BLACK
6
CONTINUOUS
10
1.41401
20
-1.21238
11
1.41436
21
-1.21437
0
LINE
8
BLACK
6
CONTINUOUS
10
1.41436
20
-1.21437
11
1.41335
21
-1.21612
0
LINE
8
BLACK
6
CONTINUOUS
10
1.41335
20
-1.21612
11
1.41146
21
-1.21681
0
LINE
8
BLACK
6
CONTINUOUS
10
1.41146
20
-1.21681
11
1.32146
21
-1.21681
0
LINE
8
BLACK
6
CONTINUOUS
10
1.32146
20
-1.21681
11
1.32045
21
-1.21663
0
LINE
8
BLACK
6
CONTINUOUS
10
1.32045
20
-1.21663
11
1.3189
21
-1.21533
0
LINE
8
BLACK
6
CONTINUOUS
10
1.3189
20
-1.21533
11
1.31855
21
-1.21335
0
LINE
8
BLACK
6
CONTINUOUS
10
1.31855
20
-1.21335
11
1.31956
21
-1.2116
0
LINE
8
BLACK
6
CONTINUOUS
10
1.31956
20
-1.2116
11
1.32146
21
-1.21091
0
LINE
8
BLACK
6
CONTINUOUS
10
1.32146
20
-1.21091
11
1.41146
21
-1.21091
0
LINE
8
BLACK
6
CONTINUOUS
10
1.41146
20
-1.21091
11
1.41247
21
-1.21108
0
LINE
8
BLACK
6
CONTINUOUS
10
1.85018
20
-0.956197
11
1.84799
21
-0.954001
0
LINE
8
BLACK
6
CONTINUOUS
10
1.84799
20
-0.954001
11
1.84718
21
-0.951001
0
LINE
8
BLACK
6
CONTINUOUS
10
1.84718
20
-0.951001
11
1.84799
21
-0.948001
0
LINE
8
BLACK
6
CONTINUOUS
10
1.84799
20
-0.948001
11
1.85018
21
-0.945805
0
LINE
8
BLACK
6
CONTINUOUS
10
1.85018
20
-0.945805
11
1.85318
21
-0.945001
0
LINE
8
BLACK
6
CONTINUOUS
10
1.85318
20
-0.945001
11
1.86433
21
-0.945001
0
LINE
8
BLACK
6
CONTINUOUS
10
1.86433
20
-0.945001
11
1.86433
21
-0.891001
0
LINE
8
BLACK
6
CONTINUOUS
10
1.86433
20
-0.891001
11
1.86468
21
-0.889682
0
LINE
8
BLACK
6
CONTINUOUS
10
1.86468
20
-0.889682
11
1.86495
21
-0.888342
0
LINE
8
BLACK
6
CONTINUOUS
10
1.86495
20
-0.888342
11
1.86508
21
-0.888193
0
LINE
8
BLACK
6
CONTINUOUS
10
1.86508
20
-0.888193
11
1.86513
21
-0.888001
0
LINE
8
BLACK
6
CONTINUOUS
10
1.86513
20
-0.888001
11
1.8661
21
-0.887035
0
LINE
8
BLACK
6
CONTINUOUS
10
1.8661
20
-0.887035
11
1.867
21
-0.886009
0
LINE
8
BLACK
6
CONTINUOUS
10
1.867
20
-0.886009
11
1.86718
21
-0.885945
0
LINE
8
BLACK
6
CONTINUOUS
10
1.86718
20
-0.885945
11
1.86733
21
-0.885805
0
LINE
8
BLACK
6
CONTINUOUS
10
1.86733
20
-0.885805
11
1.86864
21
-0.885451
0
LINE
8
BLACK
6
CONTINUOUS
10
1.86864
20
-0.885451
11
1.86994
21
-0.885014
0
LINE
8
BLACK
6
CONTINUOUS
10
1.86994
20
-0.885014
11
1.87013
21
-0.885052
0
LINE
8
BLACK
6
CONTINUOUS
10
1.87013
20
-0.885052
11
1.87033
21
-0.885001
0
LINE
8
BLACK
6
CONTINUOUS
10
1.87033
20
-0.885001
11
1.87164
21
-0.885355
0
LINE
8
BLACK
6
CONTINUOUS
10
1.87164
20
-0.885355
11
1.87298
21
-0.885623
0
LINE
8
BLACK
6
CONTINUOUS
10
1.87298
20
-0.885623
11
1.87313
21
-0.885754
0
LINE
8
BLACK
6
CONTINUOUS
10
1.87313
20
-0.885754
11
1.87333
21
-0.885805
0
LINE
8
BLACK
6
CONTINUOUS
10
1.87333
20
-0.885805
11
1.87429
21
-0.886771
0
LINE
8
BLACK
6
CONTINUOUS
10
1.87429
20
-0.886771
11
1.87532
21
-0.887673
0
LINE
8
BLACK
6
CONTINUOUS
10
1.87532
20
-0.887673
11
1.8807
21
-0.89575
0
LINE
8
BLACK
6
CONTINUOUS
10
1.8807
20
-0.89575
11
1.88531
21
-0.900356
0
LINE
8
BLACK
6
CONTINUOUS
10
1.88531
20
-0.900356
11
1.89015
21
-0.902777
0
LINE
8
BLACK
6
CONTINUOUS
10
1.89015
20
-0.902777
11
1.89247
21
-0.904838
0
LINE
8
BLACK
6
CONTINUOUS
10
1.89247
20
-0.904838
11
1.89346
21
-0.907784
0
LINE
8
BLACK
6
CONTINUOUS
10
1.89346
20
-0.907784
11
1.89283
21
-0.910827
0
LINE
8
BLACK
6
CONTINUOUS
10
1.89283
20
-0.910827
11
1.89077
21
-0.913151
0
LINE
8
BLACK
6
CONTINUOUS
10
1.89077
20
-0.913151
11
1.88783
21
-0.914133
0
LINE
8
BLACK
6
CONTINUOUS
10
1.88783
20
-0.914133
11
1.88478
21
-0.913511
0
LINE
8
BLACK
6
CONTINUOUS
10
1.88478
20
-0.913511
11
1.87907
21
-0.910653
0
LINE
8
BLACK
6
CONTINUOUS
10
1.87907
20
-0.910653
11
1.87835
21
-0.910012
0
LINE
8
BLACK
6
CONTINUOUS
10
1.87835
20
-0.910012
11
1.87751
21
-0.909529
0
LINE
8
BLACK
6
CONTINUOUS
10
1.87751
20
-0.909529
11
1.87633
21
-0.908344
0
LINE
8
BLACK
6
CONTINUOUS
10
1.87633
20
-0.908344
11
1.87633
21
-0.945001
0
LINE
8
BLACK
6
CONTINUOUS
10
1.87633
20
-0.945001
11
1.88747
21
-0.945001
0
LINE
8
BLACK
6
CONTINUOUS
10
1.88747
20
-0.945001
11
1.89047
21
-0.945805
0
LINE
8
BLACK
6
CONTINUOUS
10
1.89047
20
-0.945805
11
1.89266
21
-0.948001
0
LINE
8
BLACK
6
CONTINUOUS
10
1.89266
20
-0.948001
11
1.89347
21
-0.951001
0
LINE
8
BLACK
6
CONTINUOUS
10
1.89347
20
-0.951001
11
1.89266
21
-0.954001
0
LINE
8
BLACK
6
CONTINUOUS
10
1.89266
20
-0.954001
11
1.89047
21
-0.956197
0
LINE
8
BLACK
6
CONTINUOUS
10
1.89047
20
-0.956197
11
1.88747
21
-0.957001
0
LINE
8
BLACK
6
CONTINUOUS
10
1.88747
20
-0.957001
11
1.85318
21
-0.957001
0
LINE
8
BLACK
6
CONTINUOUS
10
1.85318
20
-0.957001
11
1.85018
21
-0.956197
0
LINE
8
BLACK
6
CONTINUOUS
10
1.93904
20
-0.885805
11
1.94124
21
-0.888001
0
LINE
8
BLACK
6
CONTINUOUS
10
1.94124
20
-0.888001
11
1.94204
21
-0.891001
0
LINE
8
BLACK
6
CONTINUOUS
10
1.94204
20
-0.891001
11
1.94204
21
-0.951001
0
LINE
8
BLACK
6
CONTINUOUS
10
1.94204
20
-0.951001
11
1.94124
21
-0.954001
0
LINE
8
BLACK
6
CONTINUOUS
10
1.94124
20
-0.954001
11
1.93904
21
-0.956197
0
LINE
8
BLACK
6
CONTINUOUS
10
1.93904
20
-0.956197
11
1.93604
21
-0.957001
0
LINE
8
BLACK
6
CONTINUOUS
10
1.93604
20
-0.957001
11
1.93304
21
-0.956197
0
LINE
8
BLACK
6
CONTINUOUS
10
1.93304
20
-0.956197
11
1.93084
21
-0.954001
0
LINE
8
BLACK
6
CONTINUOUS
10
1.93084
20
-0.954001
11
1.93004
21
-0.951001
0
LINE
8
BLACK
6
CONTINUOUS
10
1.93004
20
-0.951001
11
1.93004
21
-0.925573
0
LINE
8
BLACK
6
CONTINUOUS
10
1.93004
20
-0.925573
11
1.91604
21
-0.925573
0
LINE
8
BLACK
6
CONTINUOUS
10
1.91604
20
-0.925573
11
1.91304
21
-0.924769
0
LINE
8
BLACK
6
CONTINUOUS
10
1.91304
20
-0.924769
11
1.91084
21
-0.922573
0
LINE
8
BLACK
6
CONTINUOUS
10
1.91084
20
-0.922573
11
1.91004
21
-0.919573
0
LINE
8
BLACK
6
CONTINUOUS
10
1.91004
20
-0.919573
11
1.91084
21
-0.916573
0
LINE
8
BLACK
6
CONTINUOUS
10
1.91084
20
-0.916573
11
1.91304
21
-0.914376
0
LINE
8
BLACK
6
CONTINUOUS
10
1.91304
20
-0.914376
11
1.91604
21
-0.913573
0
LINE
8
BLACK
6
CONTINUOUS
10
1.91604
20
-0.913573
11
1.93004
21
-0.913573
0
LINE
8
BLACK
6
CONTINUOUS
10
1.93004
20
-0.913573
11
1.93004
21
-0.897001
0
LINE
8
BLACK
6
CONTINUOUS
10
1.93004
20
-0.897001
11
1.90747
21
-0.897001
0
LINE
8
BLACK
6
CONTINUOUS
10
1.90747
20
-0.897001
11
1.90447
21
-0.896197
0
LINE
8
BLACK
6
CONTINUOUS
10
1.90447
20
-0.896197
11
1.90227
21
-0.894001
0
LINE
8
BLACK
6
CONTINUOUS
10
1.90227
20
-0.894001
11
1.90147
21
-0.891001
0
LINE
8
BLACK
6
CONTINUOUS
10
1.90147
20
-0.891001
11
1.90227
21
-0.888001
0
LINE
8
BLACK
6
CONTINUOUS
10
1.90227
20
-0.888001
11
1.90447
21
-0.885805
0
LINE
8
BLACK
6
CONTINUOUS
10
1.90447
20
-0.885805
11
1.90747
21
-0.885001
0
LINE
8
BLACK
6
CONTINUOUS
10
1.90747
20
-0.885001
11
1.93604
21
-0.885001
0
LINE
8
BLACK
6
CONTINUOUS
10
1.93604
20
-0.885001
11
1.93904
21
-0.885805
0
LINE
8
BLACK
6
CONTINUOUS
10
1.94247
20
-0.871084
11
1.94401
21
-0.872382
0
LINE
8
BLACK
6
CONTINUOUS
10
1.94401
20
-0.872382
11
1.94436
21
-0.874371
0
LINE
8
BLACK
6
CONTINUOUS
10
1.94436
20
-0.874371
11
1.94335
21
-0.87612
0
LINE
8
BLACK
6
CONTINUOUS
10
1.94335
20
-0.87612
11
1.94146
21
-0.876811
0
LINE
8
BLACK
6
CONTINUOUS
10
1.94146
20
-0.876811
11
1.85146
21
-0.876811
0
LINE
8
BLACK
6
CONTINUOUS
10
1.85146
20
-0.876811
11
1.85045
21
-0.876633
0
LINE
8
BLACK
6
CONTINUOUS
10
1.85045
20
-0.876633
11
1.8489
21
-0.875335
0
LINE
8
BLACK
6
CONTINUOUS
10
1.8489
20
-0.875335
11
1.84855
21
-0.873346
0
LINE
8
BLACK
6
CONTINUOUS
10
1.84855
20
-0.873346
11
1.84956
21
-0.871596
0
LINE
8
BLACK
6
CONTINUOUS
10
1.84956
20
-0.871596
11
1.85146
21
-0.870906
0
LINE
8
BLACK
6
CONTINUOUS
10
1.85146
20
-0.870906
11
1.94146
21
-0.870906
0
LINE
8
BLACK
6
CONTINUOUS
10
1.94146
20
-0.870906
11
1.94247
21
-0.871084
0
LINE
8
BLACK
6
CONTINUOUS
10
1.94247
20
-0.731084
11
1.94401
21
-0.732382
0
LINE
8
BLACK
6
CONTINUOUS
10
1.94401
20
-0.732382
11
1.94436
21
-0.734371
0
LINE
8
BLACK
6
CONTINUOUS
10
1.94436
20
-0.734371
11
1.94335
21
-0.73612
0
LINE
8
BLACK
6
CONTINUOUS
10
1.94335
20
-0.73612
11
1.94146
21
-0.736811
0
LINE
8
BLACK
6
CONTINUOUS
10
1.94146
20
-0.736811
11
1.85146
21
-0.736811
0
LINE
8
BLACK
6
CONTINUOUS
10
1.85146
20
-0.736811
11
1.85045
21
-0.736633
0
LINE
8
BLACK
6
CONTINUOUS
10
1.85045
20
-0.736633
11
1.8489
21
-0.735335
0
LINE
8
BLACK
6
CONTINUOUS
10
1.8489
20
-0.735335
11
1.84855
21
-0.733346
0
LINE
8
BLACK
6
CONTINUOUS
10
1.84855
20
-0.733346
11
1.84956
21
-0.731596
0
LINE
8
BLACK
6
CONTINUOUS
10
1.84956
20
-0.731596
11
1.85146
21
-0.730906
0
LINE
8
BLACK
6
CONTINUOUS
10
1.85146
20
-0.730906
11
1.94146
21
-0.730906
0
LINE
8
BLACK
6
CONTINUOUS
10
1.94146
20
-0.730906
11
1.94247
21
-0.731084
0
LINE
8
BLACK
6
CONTINUOUS
10
1.60857
20
-0.6517
11
1.60926
21
-0.653598
0
LINE
8
BLACK
6
CONTINUOUS
10
1.60926
20
-0.653598
11
1.60926
21
-0.685469
0
LINE
8
BLACK
6
CONTINUOUS
10
1.60926
20
-0.685469
11
1.60908
21
-0.686479
0
LINE
8
BLACK
6
CONTINUOUS
10
1.60908
20
-0.686479
11
1.60897
21
-0.686614
0
LINE
8
BLACK
6
CONTINUOUS
10
1.60897
20
-0.686614
11
1.60895
21
-0.686789
0
LINE
8
BLACK
6
CONTINUOUS
10
1.60895
20
-0.686789
11
1.60707
21
-0.690539
0
LINE
8
BLACK
6
CONTINUOUS
10
1.60707
20
-0.690539
11
1.60655
21
-0.691248
0
LINE
8
BLACK
6
CONTINUOUS
10
1.60655
20
-0.691248
11
1.60652
21
-0.691306
0
LINE
8
BLACK
6
CONTINUOUS
10
1.60652
20
-0.691306
11
1.60464
21
-0.693181
0
LINE
8
BLACK
6
CONTINUOUS
10
1.60464
20
-0.693181
11
1.60392
21
-0.693687
0
LINE
8
BLACK
6
CONTINUOUS
10
1.60392
20
-0.693687
11
1.60388
21
-0.693734
0
LINE
8
BLACK
6
CONTINUOUS
10
1.60388
20
-0.693734
11
1.60013
21
-0.695609
0
LINE
8
BLACK
6
CONTINUOUS
10
1.60013
20
-0.695609
11
1.59914
21
-0.695901
0
LINE
8
BLACK
6
CONTINUOUS
10
1.59914
20
-0.695901
11
1.59897
21
-0.69586
0
LINE
8
BLACK
6
CONTINUOUS
10
1.59897
20
-0.69586
11
1.59881
21
-0.69592
0
LINE
8
BLACK
6
CONTINUOUS
10
1.59881
20
-0.69592
11
1.59131
21
-0.69592
0
LINE
8
BLACK
6
CONTINUOUS
10
1.59131
20
-0.69592
11
1.5903
21
-0.695742
0
LINE
8
BLACK
6
CONTINUOUS
10
1.5903
20
-0.695742
11
1.59016
21
-0.695629
0
LINE
8
BLACK
6
CONTINUOUS
10
1.59016
20
-0.695629
11
1.58999
21
-0.695609
0
LINE
8
BLACK
6
CONTINUOUS
10
1.58999
20
-0.695609
11
1.58624
21
-0.693734
0
LINE
8
BLACK
6
CONTINUOUS
10
1.58624
20
-0.693734
11
1.58553
21
-0.693208
0
LINE
8
BLACK
6
CONTINUOUS
10
1.58553
20
-0.693208
11
1.58547
21
-0.693181
0
LINE
8
BLACK
6
CONTINUOUS
10
1.58547
20
-0.693181
11
1.5836
21
-0.691306
0
LINE
8
BLACK
6
CONTINUOUS
10
1.5836
20
-0.691306
11
1.58309
21
-0.690583
0
LINE
8
BLACK
6
CONTINUOUS
10
1.58309
20
-0.690583
11
1.58304
21
-0.690539
0
LINE
8
BLACK
6
CONTINUOUS
10
1.58304
20
-0.690539
11
1.58117
21
-0.686789
0
LINE
8
BLACK
6
CONTINUOUS
10
1.58117
20
-0.686789
11
1.58088
21
-0.685806
0
LINE
8
BLACK
6
CONTINUOUS
10
1.58088
20
-0.685806
11
1.58092
21
-0.685635
0
LINE
8
BLACK
6
CONTINUOUS
10
1.58092
20
-0.685635
11
1.58086
21
-0.685469
0
LINE
8
BLACK
6
CONTINUOUS
10
1.58086
20
-0.685469
11
1.58086
21
-0.653598
0
LINE
8
BLACK
6
CONTINUOUS
10
1.58086
20
-0.653598
11
1.58103
21
-0.652588
0
LINE
8
BLACK
6
CONTINUOUS
10
1.58103
20
-0.652588
11
1.58233
21
-0.65104
0
LINE
8
BLACK
6
CONTINUOUS
10
1.58233
20
-0.65104
11
1.58432
21
-0.65069
0
LINE
8
BLACK
6
CONTINUOUS
10
1.58432
20
-0.65069
11
1.58607
21
-0.6517
0
LINE
8
BLACK
6
CONTINUOUS
10
1.58607
20
-0.6517
11
1.58676
21
-0.653598
0
LINE
8
BLACK
6
CONTINUOUS
10
1.58676
20
-0.653598
11
1.58676
21
-0.684772
0
LINE
8
BLACK
6
CONTINUOUS
10
1.58676
20
-0.684772
11
1.58811
21
-0.687469
0
LINE
8
BLACK
6
CONTINUOUS
10
1.58811
20
-0.687469
11
1.58931
21
-0.688666
0
LINE
8
BLACK
6
CONTINUOUS
10
1.58931
20
-0.688666
11
1.59201
21
-0.690015
0
LINE
8
BLACK
6
CONTINUOUS
10
1.59201
20
-0.690015
11
1.59811
21
-0.690015
0
LINE
8
BLACK
6
CONTINUOUS
10
1.59811
20
-0.690015
11
1.60081
21
-0.688666
0
LINE
8
BLACK
6
CONTINUOUS
10
1.60081
20
-0.688666
11
1.602
21
-0.687469
0
LINE
8
BLACK
6
CONTINUOUS
10
1.602
20
-0.687469
11
1.60335
21
-0.684772
0
LINE
8
BLACK
6
CONTINUOUS
10
1.60335
20
-0.684772
11
1.60335
21
-0.653598
0
LINE
8
BLACK
6
CONTINUOUS
10
1.60335
20
-0.653598
11
1.60353
21
-0.652588
0
LINE
8
BLACK
6
CONTINUOUS
10
1.60353
20
-0.652588
11
1.60483
21
-0.65104
0
LINE
8
BLACK
6
CONTINUOUS
10
1.60483
20
-0.65104
11
1.60682
21
-0.65069
0
LINE
8
BLACK
6
CONTINUOUS
10
1.60682
20
-0.65069
11
1.60857
21
-0.6517
0
LINE
8
BLACK
6
CONTINUOUS
10
1.56982
20
-0.650823
11
1.57137
21
-0.652121
0
LINE
8
BLACK
6
CONTINUOUS
10
1.57137
20
-0.652121
11
1.57172
21
-0.65411
0
LINE
8
BLACK
6
CONTINUOUS
10
1.57172
20
-0.65411
11
1.57071
21
-0.65586
0
LINE
8
BLACK
6
CONTINUOUS
10
1.57071
20
-0.65586
11
1.56881
21
-0.65655
0
LINE
8
BLACK
6
CONTINUOUS
10
1.56881
20
-0.65655
11
1.54704
21
-0.65655
0
LINE
8
BLACK
6
CONTINUOUS
10
1.54704
20
-0.65655
11
1.56215
21
-0.691805
0
LINE
8
BLACK
6
CONTINUOUS
10
1.56215
20
-0.691805
11
1.56239
21
-0.692803
0
LINE
8
BLACK
6
CONTINUOUS
10
1.56239
20
-0.692803
11
1.5618
21
-0.694737
0
LINE
8
BLACK
6
CONTINUOUS
10
1.5618
20
-0.694737
11
1.56011
21
-0.695842
0
LINE
8
BLACK
6
CONTINUOUS
10
1.56011
20
-0.695842
11
1.55811
21
-0.695603
0
LINE
8
BLACK
6
CONTINUOUS
10
1.55811
20
-0.695603
11
1.55672
21
-0.694131
0
LINE
8
BLACK
6
CONTINUOUS
10
1.55672
20
-0.694131
11
1.53985
21
-0.654761
0
LINE
8
BLACK
6
CONTINUOUS
10
1.53985
20
-0.654761
11
1.53962
21
-0.653762
0
LINE
8
BLACK
6
CONTINUOUS
10
1.53962
20
-0.653762
11
1.53972
21
-0.653428
0
LINE
8
BLACK
6
CONTINUOUS
10
1.53972
20
-0.653428
11
1.53966
21
-0.653085
0
LINE
8
BLACK
6
CONTINUOUS
10
1.53966
20
-0.653085
11
1.54
21
-0.652488
0
LINE
8
BLACK
6
CONTINUOUS
10
1.54
20
-0.652488
11
1.5402
21
-0.651829
0
LINE
8
BLACK
6
CONTINUOUS
10
1.5402
20
-0.651829
11
1.54049
21
-0.651638
0
LINE
8
BLACK
6
CONTINUOUS
10
1.54049
20
-0.651638
11
1.54067
21
-0.651336
0
LINE
8
BLACK
6
CONTINUOUS
10
1.54067
20
-0.651336
11
1.54131
21
-0.6511
0
LINE
8
BLACK
6
CONTINUOUS
10
1.54131
20
-0.6511
11
1.54189
21
-0.650723
0
LINE
8
BLACK
6
CONTINUOUS
10
1.54189
20
-0.650723
11
1.54224
21
-0.650764
0
LINE
8
BLACK
6
CONTINUOUS
10
1.54224
20
-0.650764
11
1.54256
21
-0.650645
0
LINE
8
BLACK
6
CONTINUOUS
10
1.54256
20
-0.650645
11
1.56881
21
-0.650645
0
LINE
8
BLACK
6
CONTINUOUS
10
1.56881
20
-0.650645
11
1.56982
21
-0.650823
0
LINE
8
BLACK
6
CONTINUOUS
10
1.48015
20
-0.649269
11
1.47946
21
-0.647598
0
LINE
8
BLACK
6
CONTINUOUS
10
1.47946
20
-0.647598
11
1.47946
21
-0.644055
0
LINE
8
BLACK
6
CONTINUOUS
10
1.47946
20
-0.644055
11
1.41489
21
-0.644055
0
LINE
8
BLACK
6
CONTINUOUS
10
1.41489
20
-0.644055
11
1.41322
21
-0.643363
0
LINE
8
BLACK
6
CONTINUOUS
10
1.41322
20
-0.643363
11
1.41253
21
-0.641693
0
LINE
8
BLACK
6
CONTINUOUS
10
1.41253
20
-0.641693
11
1.41322
21
-0.640023
0
LINE
8
BLACK
6
CONTINUOUS
10
1.41322
20
-0.640023
11
1.41489
21
-0.639331
0
LINE
8
BLACK
6
CONTINUOUS
10
1.41489
20
-0.639331
11
1.48182
21
-0.639331
0
LINE
8
BLACK
6
CONTINUOUS
10
1.48182
20
-0.639331
11
1.48349
21
-0.640023
0
LINE
8
BLACK
6
CONTINUOUS
10
1.48349
20
-0.640023
11
1.48418
21
-0.641693
0
LINE
8
BLACK
6
CONTINUOUS
10
1.48418
20
-0.641693
11
1.48418
21
-0.645236
0
LINE
8
BLACK
6
CONTINUOUS
10
1.48418
20
-0.645236
11
1.66844
21
-0.645236
0
LINE
8
BLACK
6
CONTINUOUS
10
1.66844
20
-0.645236
11
1.66844
21
-0.641693
0
LINE
8
BLACK
6
CONTINUOUS
10
1.66844
20
-0.641693
11
1.66913
21
-0.640023
0
LINE
8
BLACK
6
CONTINUOUS
10
1.66913
20
-0.640023
11
1.6708
21
-0.639331
0
LINE
8
BLACK
6
CONTINUOUS
10
1.6708
20
-0.639331
11
1.67247
21
-0.640023
0
LINE
8
BLACK
6
CONTINUOUS
10
1.67247
20
-0.640023
11
1.67316
21
-0.641693
0
LINE
8
BLACK
6
CONTINUOUS
10
1.67316
20
-0.641693
11
1.67316
21
-0.647598
0
LINE
8
BLACK
6
CONTINUOUS
10
1.67316
20
-0.647598
11
1.67247
21
-0.649269
0
LINE
8
BLACK
6
CONTINUOUS
10
1.67247
20
-0.649269
11
1.6708
21
-0.649961
0
LINE
8
BLACK
6
CONTINUOUS
10
1.6708
20
-0.649961
11
1.48182
21
-0.649961
0
LINE
8
BLACK
6
CONTINUOUS
10
1.48182
20
-0.649961
11
1.48015
21
-0.649269
0
LINE
8
BLACK
6
CONTINUOUS
10
1.37845
20
-0.628584
11
1.38
21
-0.629882
0
LINE
8
BLACK
6
CONTINUOUS
10
1.38
20
-0.629882
11
1.38035
21
-0.631871
0
LINE
8
BLACK
6
CONTINUOUS
10
1.38035
20
-0.631871
11
1.37934
21
-0.63362
0
LINE
8
BLACK
6
CONTINUOUS
10
1.37934
20
-0.63362
11
1.37744
21
-0.634311
0
LINE
8
BLACK
6
CONTINUOUS
10
1.37744
20
-0.634311
11
1.31744
21
-0.634311
0
LINE
8
BLACK
6
CONTINUOUS
10
1.31744
20
-0.634311
11
1.31643
21
-0.634133
0
LINE
8
BLACK
6
CONTINUOUS
10
1.31643
20
-0.634133
11
1.31488
21
-0.632835
0
LINE
8
BLACK
6
CONTINUOUS
10
1.31488
20
-0.632835
11
1.31453
21
-0.630846
0
LINE
8
BLACK
6
CONTINUOUS
10
1.31453
20
-0.630846
11
1.31554
21
-0.629096
0
LINE
8
BLACK
6
CONTINUOUS
10
1.31554
20
-0.629096
11
1.31744
21
-0.628406
0
LINE
8
BLACK
6
CONTINUOUS
10
1.31744
20
-0.628406
11
1.37744
21
-0.628406
0
LINE
8
BLACK
6
CONTINUOUS
10
1.37744
20
-0.628406
11
1.37845
21
-0.628584
0
LINE
8
BLACK
6
CONTINUOUS
10
1.85732
20
-0.626084
11
1.85887
21
-0.627382
0
LINE
8
BLACK
6
CONTINUOUS
10
1.85887
20
-0.627382
11
1.85922
21
-0.629371
0
LINE
8
BLACK
6
CONTINUOUS
10
1.85922
20
-0.629371
11
1.85821
21
-0.63112
0
LINE
8
BLACK
6
CONTINUOUS
10
1.85821
20
-0.63112
11
1.85631
21
-0.631811
0
LINE
8
BLACK
6
CONTINUOUS
10
1.85631
20
-0.631811
11
1.79631
21
-0.631811
0
LINE
8
BLACK
6
CONTINUOUS
10
1.79631
20
-0.631811
11
1.7953
21
-0.631633
0
LINE
8
BLACK
6
CONTINUOUS
10
1.7953
20
-0.631633
11
1.79375
21
-0.630335
0
LINE
8
BLACK
6
CONTINUOUS
10
1.79375
20
-0.630335
11
1.7934
21
-0.628346
0
LINE
8
BLACK
6
CONTINUOUS
10
1.7934
20
-0.628346
11
1.79441
21
-0.626596
0
LINE
8
BLACK
6
CONTINUOUS
10
1.79441
20
-0.626596
11
1.79631
21
-0.625906
0
LINE
8
BLACK
6
CONTINUOUS
10
1.79631
20
-0.625906
11
1.85631
21
-0.625906
0
LINE
8
BLACK
6
CONTINUOUS
10
1.85631
20
-0.625906
11
1.85732
21
-0.626084
0
LINE
8
BLACK
6
CONTINUOUS
10
1.31911
20
-0.554688
11
1.3198
21
-0.556358
0
LINE
8
BLACK
6
CONTINUOUS
10
1.3198
20
-0.556358
11
1.3198
21
-0.586358
0
LINE
8
BLACK
6
CONTINUOUS
10
1.3198
20
-0.586358
11
1.31911
21
-0.588029
0
LINE
8
BLACK
6
CONTINUOUS
10
1.31911
20
-0.588029
11
1.31744
21
-0.58872
0
LINE
8
BLACK
6
CONTINUOUS
10
1.31744
20
-0.58872
11
1.31577
21
-0.588029
0
LINE
8
BLACK
6
CONTINUOUS
10
1.31577
20
-0.588029
11
1.31508
21
-0.586358
0
LINE
8
BLACK
6
CONTINUOUS
10
1.31508
20
-0.586358
11
1.31508
21
-0.556358
0
LINE
8
BLACK
6
CONTINUOUS
10
1.31508
20
-0.556358
11
1.31577
21
-0.554688
0
LINE
8
BLACK
6
CONTINUOUS
10
1.31577
20
-0.554688
11
1.31744
21
-0.553996
0
LINE
8
BLACK
6
CONTINUOUS
10
1.31744
20
-0.553996
11
1.31911
21
-0.554688
0
LINE
8
BLACK
6
CONTINUOUS
10
1.37911
20
-0.554688
11
1.3798
21
-0.556358
0
LINE
8
BLACK
6
CONTINUOUS
10
1.3798
20
-0.556358
11
1.3798
21
-0.586358
0
LINE
8
BLACK
6
CONTINUOUS
10
1.3798
20
-0.586358
11
1.37911
21
-0.588029
0
LINE
8
BLACK
6
CONTINUOUS
10
1.37911
20
-0.588029
11
1.37744
21
-0.58872
0
LINE
8
BLACK
6
CONTINUOUS
10
1.37744
20
-0.58872
11
1.37577
21
-0.588029
0
LINE
8
BLACK
6
CONTINUOUS
10
1.37577
20
-0.588029
11
1.37508
21
-0.586358
0
LINE
8
BLACK
6
CONTINUOUS
10
1.37508
20
-0.586358
11
1.37508
21
-0.556358
0
LINE
8
BLACK
6
CONTINUOUS
10
1.37508
20
-0.556358
11
1.37577
21
-0.554688
0
LINE
8
BLACK
6
CONTINUOUS
10
1.37577
20
-0.554688
11
1.37744
21
-0.553996
0
LINE
8
BLACK
6
CONTINUOUS
10
1.37744
20
-0.553996
11
1.37911
21
-0.554688
0
LINE
8
BLACK
6
CONTINUOUS
10
1.79798
20
-0.552188
11
1.79867
21
-0.553858
0
LINE
8
BLACK
6
CONTINUOUS
10
1.79867
20
-0.553858
11
1.79867
21
-0.583858
0
LINE
8
BLACK
6
CONTINUOUS
10
1.79867
20
-0.583858
11
1.79798
21
-0.585529
0
LINE
8
BLACK
6
CONTINUOUS
10
1.79798
20
-0.585529
11
1.79631
21
-0.58622
0
LINE
8
BLACK
6
CONTINUOUS
10
1.79631
20
-0.58622
11
1.79464
21
-0.585529
0
LINE
8
BLACK
6
CONTINUOUS
10
1.79464
20
-0.585529
11
1.79395
21
-0.583858
0
LINE
8
BLACK
6
CONTINUOUS
10
1.79395
20
-0.583858
11
1.79395
21
-0.553858
0
LINE
8
BLACK
6
CONTINUOUS
10
1.79395
20
-0.553858
11
1.79464
21
-0.552188
0
LINE
8
BLACK
6
CONTINUOUS
10
1.79464
20
-0.552188
11
1.79631
21
-0.551496
0
LINE
8
BLACK
6
CONTINUOUS
10
1.79631
20
-0.551496
11
1.79798
21
-0.552188
0
LINE
8
BLACK
6
CONTINUOUS
10
1.85798
20
-0.552188
11
1.85867
21
-0.553858
0
LINE
8
BLACK
6
CONTINUOUS
10
1.85867
20
-0.553858
11
1.85867
21
-0.583858
0
LINE
8
BLACK
6
CONTINUOUS
10
1.85867
20
-0.583858
11
1.85798
21
-0.585529
0
LINE
8
BLACK
6
CONTINUOUS
10
1.85798
20
-0.585529
11
1.85631
21
-0.58622
0
LINE
8
BLACK
6
CONTINUOUS
10
1.85631
20
-0.58622
11
1.85464
21
-0.585529
0
LINE
8
BLACK
6
CONTINUOUS
10
1.85464
20
-0.585529
11
1.85395
21
-0.583858
0
LINE
8
BLACK
6
CONTINUOUS
10
1.85395
20
-0.583858
11
1.85395
21
-0.553858
0
LINE
8
BLACK
6
CONTINUOUS
10
1.85395
20
-0.553858
11
1.85464
21
-0.552188
0
LINE
8
BLACK
6
CONTINUOUS
10
1.85464
20
-0.552188
11
1.85631
21
-0.551496
0
LINE
8
BLACK
6
CONTINUOUS
10
1.85631
20
-0.551496
11
1.85798
21
-0.552188
0
LINE
8
BLACK
6
CONTINUOUS
10
1.37845
20
-0.508584
11
1.38
21
-0.509882
0
LINE
8
BLACK
6
CONTINUOUS
10
1.38
20
-0.509882
11
1.38035
21
-0.511871
0
LINE
8
BLACK
6
CONTINUOUS
10
1.38035
20
-0.511871
11
1.37934
21
-0.51362
0
LINE
8
BLACK
6
CONTINUOUS
10
1.37934
20
-0.51362
11
1.37744
21
-0.514311
0
LINE
8
BLACK
6
CONTINUOUS
10
1.37744
20
-0.514311
11
1.31744
21
-0.514311
0
LINE
8
BLACK
6
CONTINUOUS
10
1.31744
20
-0.514311
11
1.31643
21
-0.514133
0
LINE
8
BLACK
6
CONTINUOUS
10
1.31643
20
-0.514133
11
1.31488
21
-0.512835
0
LINE
8
BLACK
6
CONTINUOUS
10
1.31488
20
-0.512835
11
1.31453
21
-0.510846
0
LINE
8
BLACK
6
CONTINUOUS
10
1.31453
20
-0.510846
11
1.31554
21
-0.509096
0
LINE
8
BLACK
6
CONTINUOUS
10
1.31554
20
-0.509096
11
1.31744
21
-0.508406
0
LINE
8
BLACK
6
CONTINUOUS
10
1.31744
20
-0.508406
11
1.37744
21
-0.508406
0
LINE
8
BLACK
6
CONTINUOUS
10
1.37744
20
-0.508406
11
1.37845
21
-0.508584
0
LINE
8
BLACK
6
CONTINUOUS
10
1.85732
20
-0.506084
11
1.85887
21
-0.507382
0
LINE
8
BLACK
6
CONTINUOUS
10
1.85887
20
-0.507382
11
1.85922
21
-0.509371
0
LINE
8
BLACK
6
CONTINUOUS
10
1.85922
20
-0.509371
11
1.85821
21
-0.51112
0
LINE
8
BLACK
6
CONTINUOUS
10
1.85821
20
-0.51112
11
1.85631
21
-0.511811
0
LINE
8
BLACK
6
CONTINUOUS
10
1.85631
20
-0.511811
11
1.79631
21
-0.511811
0
LINE
8
BLACK
6
CONTINUOUS
10
1.79631
20
-0.511811
11
1.7953
21
-0.511633
0
LINE
8
BLACK
6
CONTINUOUS
10
1.7953
20
-0.511633
11
1.79375
21
-0.510335
0
LINE
8
BLACK
6
CONTINUOUS
10
1.79375
20
-0.510335
11
1.7934
21
-0.508346
0
LINE
8
BLACK
6
CONTINUOUS
10
1.7934
20
-0.508346
11
1.79441
21
-0.506596
0
LINE
8
BLACK
6
CONTINUOUS
10
1.79441
20
-0.506596
11
1.79631
21
-0.505906
0
LINE
8
BLACK
6
CONTINUOUS
10
1.79631
20
-0.505906
11
1.85631
21
-0.505906
0
LINE
8
BLACK
6
CONTINUOUS
10
1.85631
20
-0.505906
11
1.85732
21
-0.506084
0
LINE
8
BLACK
6
CONTINUOUS
10
1.67247
20
-0.488448
11
1.67316
21
-0.490118
0
LINE
8
BLACK
6
CONTINUOUS
10
1.67316
20
-0.490118
11
1.67316
21
-0.496024
0
LINE
8
BLACK
6
CONTINUOUS
10
1.67316
20
-0.496024
11
1.67247
21
-0.497694
0
LINE
8
BLACK
6
CONTINUOUS
10
1.67247
20
-0.497694
11
1.6708
21
-0.498386
0
LINE
8
BLACK
6
CONTINUOUS
10
1.6708
20
-0.498386
11
1.66913
21
-0.497694
0
LINE
8
BLACK
6
CONTINUOUS
10
1.66913
20
-0.497694
11
1.66844
21
-0.496024
0
LINE
8
BLACK
6
CONTINUOUS
10
1.66844
20
-0.496024
11
1.66844
21
-0.49248
0
LINE
8
BLACK
6
CONTINUOUS
10
1.66844
20
-0.49248
11
1.48418
21
-0.49248
0
LINE
8
BLACK
6
CONTINUOUS
10
1.48418
20
-0.49248
11
1.48418
21
-0.496024
0
LINE
8
BLACK
6
CONTINUOUS
10
1.48418
20
-0.496024
11
1.48349
21
-0.497694
0
LINE
8
BLACK
6
CONTINUOUS
10
1.48349
20
-0.497694
11
1.48182
21
-0.498386
0
LINE
8
BLACK
6
CONTINUOUS
10
1.48182
20
-0.498386
11
1.48015
21
-0.497694
0
LINE
8
BLACK
6
CONTINUOUS
10
1.48015
20
-0.497694
11
1.47946
21
-0.496024
0
LINE
8
BLACK
6
CONTINUOUS
10
1.47946
20
-0.496024
11
1.47946
21
-0.490118
0
LINE
8
BLACK
6
CONTINUOUS
10
1.47946
20
-0.490118
11
1.48015
21
-0.488448
0
LINE
8
BLACK
6
CONTINUOUS
10
1.48015
20
-0.488448
11
1.48182
21
-0.487756
0
LINE
8
BLACK
6
CONTINUOUS
10
1.48182
20
-0.487756
11
1.6708
21
-0.487756
0
LINE
8
BLACK
6
CONTINUOUS
10
1.6708
20
-0.487756
11
1.67247
21
-0.488448
0
LINE
8
BLACK
6
CONTINUOUS
10
1.61371
20
-0.2292
11
1.61441
21
-0.231098
0
LINE
8
BLACK
6
CONTINUOUS
10
1.61441
20
-0.231098
11
1.61441
21
-0.262969
0
LINE
8
BLACK
6
CONTINUOUS
10
1.61441
20
-0.262969
11
1.61423
21
-0.263979
0
LINE
8
BLACK
6
CONTINUOUS
10
1.61423
20
-0.263979
11
1.61411
21
-0.264114
0
LINE
8
BLACK
6
CONTINUOUS
10
1.61411
20
-0.264114
11
1.61409
21
-0.264289
0
LINE
8
BLACK
6
CONTINUOUS
10
1.61409
20
-0.264289
11
1.61222
21
-0.268039
0
LINE
8
BLACK
6
CONTINUOUS
10
1.61222
20
-0.268039
11
1.61169
21
-0.268748
0
LINE
8
BLACK
6
CONTINUOUS
10
1.61169
20
-0.268748
11
1.61167
21
-0.268806
0
LINE
8
BLACK
6
CONTINUOUS
10
1.61167
20
-0.268806
11
1.60979
21
-0.270681
0
LINE
8
BLACK
6
CONTINUOUS
10
1.60979
20
-0.270681
11
1.60907
21
-0.271187
0
LINE
8
BLACK
6
CONTINUOUS
10
1.60907
20
-0.271187
11
1.60902
21
-0.271234
0
LINE
8
BLACK
6
CONTINUOUS
10
1.60902
20
-0.271234
11
1.60527
21
-0.273109
0
LINE
8
BLACK
6
CONTINUOUS
10
1.60527
20
-0.273109
11
1.60429
21
-0.273401
0
LINE
8
BLACK
6
CONTINUOUS
10
1.60429
20
-0.273401
11
1.60412
21
-0.27336
0
LINE
8
BLACK
6
CONTINUOUS
10
1.60412
20
-0.27336
11
1.60395
21
-0.27342
0
LINE
8
BLACK
6
CONTINUOUS
10
1.60395
20
-0.27342
11
1.59645
21
-0.27342
0
LINE
8
BLACK
6
CONTINUOUS
10
1.59645
20
-0.27342
11
1.59544
21
-0.273242
0
LINE
8
BLACK
6
CONTINUOUS
10
1.59544
20
-0.273242
11
1.59531
21
-0.273129
0
LINE
8
BLACK
6
CONTINUOUS
10
1.59531
20
-0.273129
11
1.59513
21
-0.273109
0
LINE
8
BLACK
6
CONTINUOUS
10
1.59513
20
-0.273109
11
1.59138
21
-0.271234
0
LINE
8
BLACK
6
CONTINUOUS
10
1.59138
20
-0.271234
11
1.59068
21
-0.270708
0
LINE
8
BLACK
6
CONTINUOUS
10
1.59068
20
-0.270708
11
1.59062
21
-0.270681
0
LINE
8
BLACK
6
CONTINUOUS
10
1.59062
20
-0.270681
11
1.58874
21
-0.268806
0
LINE
8
BLACK
6
CONTINUOUS
10
1.58874
20
-0.268806
11
1.58824
21
-0.268083
0
LINE
8
BLACK
6
CONTINUOUS
10
1.58824
20
-0.268083
11
1.58819
21
-0.268039
0
LINE
8
BLACK
6
CONTINUOUS
10
1.58819
20
-0.268039
11
1.58631
21
-0.264289
0
LINE
8
BLACK
6
CONTINUOUS
10
1.58631
20
-0.264289
11
1.58602
21
-0.263306
0
LINE
8
BLACK
6
CONTINUOUS
10
1.58602
20
-0.263306
11
1.58606
21
-0.263135
0
LINE
8
BLACK
6
CONTINUOUS
10
1.58606
20
-0.263135
11
1.586
21
-0.262969
0
LINE
8
BLACK
6
CONTINUOUS
10
1.586
20
-0.262969
11
1.586
21
-0.231098
0
LINE
8
BLACK
6
CONTINUOUS
10
1.586
20
-0.231098
11
1.58618
21
-0.230088
0
LINE
8
BLACK
6
CONTINUOUS
10
1.58618
20
-0.230088
11
1.58748
21
-0.22854
0
LINE
8
BLACK
6
CONTINUOUS
10
1.58748
20
-0.22854
11
1.58947
21
-0.22819
0
LINE
8
BLACK
6
CONTINUOUS
10
1.58947
20
-0.22819
11
1.59122
21
-0.2292
0
LINE
8
BLACK
6
CONTINUOUS
10
1.59122
20
-0.2292
11
1.59191
21
-0.231098
0
LINE
8
BLACK
6
CONTINUOUS
10
1.59191
20
-0.231098
11
1.59191
21
-0.262272
0
LINE
8
BLACK
6
CONTINUOUS
10
1.59191
20
-0.262272
11
1.59326
21
-0.264969
0
LINE
8
BLACK
6
CONTINUOUS
10
1.59326
20
-0.264969
11
1.59445
21
-0.266166
0
LINE
8
BLACK
6
CONTINUOUS
10
1.59445
20
-0.266166
11
1.59715
21
-0.267515
0
LINE
8
BLACK
6
CONTINUOUS
10
1.59715
20
-0.267515
11
1.60326
21
-0.267515
0
LINE
8
BLACK
6
CONTINUOUS
10
1.60326
20
-0.267515
11
1.60595
21
-0.266166
0
LINE
8
BLACK
6
CONTINUOUS
10
1.60595
20
-0.266166
11
1.60715
21
-0.264969
0
LINE
8
BLACK
6
CONTINUOUS
10
1.60715
20
-0.264969
11
1.6085
21
-0.262272
0
LINE
8
BLACK
6
CONTINUOUS
10
1.6085
20
-0.262272
11
1.6085
21
-0.231098
0
LINE
8
BLACK
6
CONTINUOUS
10
1.6085
20
-0.231098
11
1.60868
21
-0.230088
0
LINE
8
BLACK
6
CONTINUOUS
10
1.60868
20
-0.230088
11
1.60998
21
-0.22854
0
LINE
8
BLACK
6
CONTINUOUS
10
1.60998
20
-0.22854
11
1.61197
21
-0.22819
0
LINE
8
BLACK
6
CONTINUOUS
10
1.61197
20
-0.22819
11
1.61371
21
-0.2292
0
LINE
8
BLACK
6
CONTINUOUS
10
1.56184
20
-0.228323
11
1.56198
21
-0.228436
0
LINE
8
BLACK
6
CONTINUOUS
10
1.56198
20
-0.228436
11
1.56215
21
-0.228457
0
LINE
8
BLACK
6
CONTINUOUS
10
1.56215
20
-0.228457
11
1.5659
21
-0.230331
0
LINE
8
BLACK
6
CONTINUOUS
10
1.5659
20
-0.230331
11
1.56661
21
-0.230857
0
LINE
8
BLACK
6
CONTINUOUS
10
1.56661
20
-0.230857
11
1.56667
21
-0.230885
0
LINE
8
BLACK
6
CONTINUOUS
10
1.56667
20
-0.230885
11
1.56855
21
-0.232759
0
LINE
8
BLACK
6
CONTINUOUS
10
1.56855
20
-0.232759
11
1.5688
21
-0.233128
0
LINE
8
BLACK
6
CONTINUOUS
10
1.5688
20
-0.233128
11
1.56892
21
-0.233209
0
LINE
8
BLACK
6
CONTINUOUS
10
1.56892
20
-0.233209
11
1.57266
21
-0.238834
0
LINE
8
BLACK
6
CONTINUOUS
10
1.57266
20
-0.238834
11
1.57306
21
-0.239741
0
LINE
8
BLACK
6
CONTINUOUS
10
1.57306
20
-0.239741
11
1.57307
21
-0.239755
0
LINE
8
BLACK
6
CONTINUOUS
10
1.57307
20
-0.239755
11
1.57495
21
-0.247254
0
LINE
8
BLACK
6
CONTINUOUS
10
1.57495
20
-0.247254
11
1.57499
21
-0.247842
0
LINE
8
BLACK
6
CONTINUOUS
10
1.57499
20
-0.247842
11
1.57504
21
-0.247971
0
LINE
8
BLACK
6
CONTINUOUS
10
1.57504
20
-0.247971
11
1.57504
21
-0.262969
0
LINE
8
BLACK
6
CONTINUOUS
10
1.57504
20
-0.262969
11
1.57486
21
-0.263979
0
LINE
8
BLACK
6
CONTINUOUS
10
1.57486
20
-0.263979
11
1.57474
21
-0.264114
0
LINE
8
BLACK
6
CONTINUOUS
10
1.57474
20
-0.264114
11
1.57472
21
-0.264289
0
LINE
8
BLACK
6
CONTINUOUS
10
1.57472
20
-0.264289
11
1.57285
21
-0.268039
0
LINE
8
BLACK
6
CONTINUOUS
10
1.57285
20
-0.268039
11
1.57232
21
-0.268748
0
LINE
8
BLACK
6
CONTINUOUS
10
1.57232
20
-0.268748
11
1.5723
21
-0.268806
0
LINE
8
BLACK
6
CONTINUOUS
10
1.5723
20
-0.268806
11
1.57042
21
-0.270681
0
LINE
8
BLACK
6
CONTINUOUS
10
1.57042
20
-0.270681
11
1.5697
21
-0.271187
0
LINE
8
BLACK
6
CONTINUOUS
10
1.5697
20
-0.271187
11
1.56965
21
-0.271234
0
LINE
8
BLACK
6
CONTINUOUS
10
1.56965
20
-0.271234
11
1.5659
21
-0.273109
0
LINE
8
BLACK
6
CONTINUOUS
10
1.5659
20
-0.273109
11
1.56492
21
-0.273401
0
LINE
8
BLACK
6
CONTINUOUS
10
1.56492
20
-0.273401
11
1.56475
21
-0.27336
0
LINE
8
BLACK
6
CONTINUOUS
10
1.56475
20
-0.27336
11
1.56458
21
-0.27342
0
LINE
8
BLACK
6
CONTINUOUS
10
1.56458
20
-0.27342
11
1.55708
21
-0.27342
0
LINE
8
BLACK
6
CONTINUOUS
10
1.55708
20
-0.27342
11
1.55607
21
-0.273242
0
LINE
8
BLACK
6
CONTINUOUS
10
1.55607
20
-0.273242
11
1.55594
21
-0.273129
0
LINE
8
BLACK
6
CONTINUOUS
10
1.55594
20
-0.273129
11
1.55576
21
-0.273109
0
LINE
8
BLACK
6
CONTINUOUS
10
1.55576
20
-0.273109
11
1.55201
21
-0.271234
0
LINE
8
BLACK
6
CONTINUOUS
10
1.55201
20
-0.271234
11
1.55131
21
-0.270708
0
LINE
8
BLACK
6
CONTINUOUS
10
1.55131
20
-0.270708
11
1.55125
21
-0.270681
0
LINE
8
BLACK
6
CONTINUOUS
10
1.55125
20
-0.270681
11
1.54937
21
-0.268806
0
LINE
8
BLACK
6
CONTINUOUS
10
1.54937
20
-0.268806
11
1.54887
21
-0.268083
0
LINE
8
BLACK
6
CONTINUOUS
10
1.54887
20
-0.268083
11
1.54882
21
-0.268039
0
LINE
8
BLACK
6
CONTINUOUS
10
1.54882
20
-0.268039
11
1.54694
21
-0.264289
0
LINE
8
BLACK
6
CONTINUOUS
10
1.54694
20
-0.264289
11
1.54665
21
-0.263306
0
LINE
8
BLACK
6
CONTINUOUS
10
1.54665
20
-0.263306
11
1.54669
21
-0.263135
0
LINE
8
BLACK
6
CONTINUOUS
10
1.54669
20
-0.263135
11
1.54663
21
-0.262969
0
LINE
8
BLACK
6
CONTINUOUS
10
1.54663
20
-0.262969
11
1.54663
21
-0.253595
0
LINE
8
BLACK
6
CONTINUOUS
10
1.54663
20
-0.253595
11
1.54681
21
-0.252585
0
LINE
8
BLACK
6
CONTINUOUS
10
1.54681
20
-0.252585
11
1.54692
21
-0.25245
0
LINE
8
BLACK
6
CONTINUOUS
10
1.54692
20
-0.25245
11
1.54694
21
-0.252274
0
LINE
8
BLACK
6
CONTINUOUS
10
1.54694
20
-0.252274
11
1.54882
21
-0.248525
0
LINE
8
BLACK
6
CONTINUOUS
10
1.54882
20
-0.248525
11
1.54935
21
-0.247816
0
LINE
8
BLACK
6
CONTINUOUS
10
1.54935
20
-0.247816
11
1.54937
21
-0.247757
0
LINE
8
BLACK
6
CONTINUOUS
10
1.54937
20
-0.247757
11
1.55125
21
-0.245883
0
LINE
8
BLACK
6
CONTINUOUS
10
1.55125
20
-0.245883
11
1.55197
21
-0.245376
0
LINE
8
BLACK
6
CONTINUOUS
10
1.55197
20
-0.245376
11
1.55201
21
-0.24533
0
LINE
8
BLACK
6
CONTINUOUS
10
1.55201
20
-0.24533
11
1.55576
21
-0.243455
0
LINE
8
BLACK
6
CONTINUOUS
10
1.55576
20
-0.243455
11
1.55675
21
-0.243162
0
LINE
8
BLACK
6
CONTINUOUS
10
1.55675
20
-0.243162
11
1.55692
21
-0.243203
0
LINE
8
BLACK
6
CONTINUOUS
10
1.55692
20
-0.243203
11
1.55708
21
-0.243143
0
LINE
8
BLACK
6
CONTINUOUS
10
1.55708
20
-0.243143
11
1.56458
21
-0.243143
0
LINE
8
BLACK
6
CONTINUOUS
10
1.56458
20
-0.243143
11
1.56559
21
-0.243321
0
LINE
8
BLACK
6
CONTINUOUS
10
1.56559
20
-0.243321
11
1.56573
21
-0.243435
0
LINE
8
BLACK
6
CONTINUOUS
10
1.56573
20
-0.243435
11
1.5659
21
-0.243455
0
LINE
8
BLACK
6
CONTINUOUS
10
1.5659
20
-0.243455
11
1.5682
21
-0.244601
0
LINE
8
BLACK
6
CONTINUOUS
10
1.5682
20
-0.244601
11
1.56747
21
-0.241684
0
LINE
8
BLACK
6
CONTINUOUS
10
1.56747
20
-0.241684
11
1.56416
21
-0.236728
0
LINE
8
BLACK
6
CONTINUOUS
10
1.56416
20
-0.236728
11
1.56283
21
-0.235399
0
LINE
8
BLACK
6
CONTINUOUS
10
1.56283
20
-0.235399
11
1.56014
21
-0.23405
0
LINE
8
BLACK
6
CONTINUOUS
10
1.56014
20
-0.23405
11
1.55334
21
-0.23405
0
LINE
8
BLACK
6
CONTINUOUS
10
1.55334
20
-0.23405
11
1.55233
21
-0.233872
0
LINE
8
BLACK
6
CONTINUOUS
10
1.55233
20
-0.233872
11
1.55078
21
-0.232574
0
LINE
8
BLACK
6
CONTINUOUS
10
1.55078
20
-0.232574
11
1.55043
21
-0.230585
0
LINE
8
BLACK
6
CONTINUOUS
10
1.55043
20
-0.230585
11
1.55144
21
-0.228836
0
LINE
8
BLACK
6
CONTINUOUS
10
1.55144
20
-0.228836
11
1.55334
21
-0.228145
0
LINE
8
BLACK
6
CONTINUOUS
10
1.55334
20
-0.228145
11
1.56083
21
-0.228145
0
LINE
8
BLACK
6
CONTINUOUS
10
1.56083
20
-0.228145
11
1.56184
21
-0.228323
0
LINE
8
BLACK
6
CONTINUOUS
10
1.55778
20
-0.249049
11
1.55508
21
-0.250397
0
LINE
8
BLACK
6
CONTINUOUS
10
1.55508
20
-0.250397
11
1.55389
21
-0.251594
0
LINE
8
BLACK
6
CONTINUOUS
10
1.55389
20
-0.251594
11
1.55254
21
-0.254292
0
LINE
8
BLACK
6
CONTINUOUS
10
1.55254
20
-0.254292
11
1.55254
21
-0.262272
0
LINE
8
BLACK
6
CONTINUOUS
10
1.55254
20
-0.262272
11
1.55389
21
-0.264969
0
LINE
8
BLACK
6
CONTINUOUS
10
1.55389
20
-0.264969
11
1.55508
21
-0.266166
0
LINE
8
BLACK
6
CONTINUOUS
10
1.55508
20
-0.266166
11
1.55778
21
-0.267515
0
LINE
8
BLACK
6
CONTINUOUS
10
1.55778
20
-0.267515
11
1.56389
21
-0.267515
0
LINE
8
BLACK
6
CONTINUOUS
10
1.56389
20
-0.267515
11
1.56658
21
-0.266166
0
LINE
8
BLACK
6
CONTINUOUS
10
1.56658
20
-0.266166
11
1.56778
21
-0.264969
0
LINE
8
BLACK
6
CONTINUOUS
10
1.56778
20
-0.264969
11
1.56913
21
-0.262272
0
LINE
8
BLACK
6
CONTINUOUS
10
1.56913
20
-0.262272
11
1.56913
21
-0.254292
0
LINE
8
BLACK
6
CONTINUOUS
10
1.56913
20
-0.254292
11
1.56778
21
-0.251594
0
LINE
8
BLACK
6
CONTINUOUS
10
1.56778
20
-0.251594
11
1.56658
21
-0.250397
0
LINE
8
BLACK
6
CONTINUOUS
10
1.56658
20
-0.250397
11
1.56389
21
-0.249049
0
LINE
8
BLACK
6
CONTINUOUS
10
1.56389
20
-0.249049
11
1.55778
21
-0.249049
0
LINE
8
BLACK
6
CONTINUOUS
10
1.4853
20
-0.226769
11
1.48461
21
-0.225098
0
LINE
8
BLACK
6
CONTINUOUS
10
1.48461
20
-0.225098
11
1.48461
21
-0.221555
0
LINE
8
BLACK
6
CONTINUOUS
10
1.48461
20
-0.221555
11
1.42004
21
-0.221555
0
LINE
8
BLACK
6
CONTINUOUS
10
1.42004
20
-0.221555
11
1.41837
21
-0.220863
0
LINE
8
BLACK
6
CONTINUOUS
10
1.41837
20
-0.220863
11
1.41768
21
-0.219193
0
LINE
8
BLACK
6
CONTINUOUS
10
1.41768
20
-0.219193
11
1.41837
21
-0.217523
0
LINE
8
BLACK
6
CONTINUOUS
10
1.41837
20
-0.217523
11
1.42004
21
-0.216831
0
LINE
8
BLACK
6
CONTINUOUS
10
1.42004
20
-0.216831
11
1.48697
21
-0.216831
0
LINE
8
BLACK
6
CONTINUOUS
10
1.48697
20
-0.216831
11
1.48864
21
-0.217523
0
LINE
8
BLACK
6
CONTINUOUS
10
1.48864
20
-0.217523
11
1.48933
21
-0.219193
0
LINE
8
BLACK
6
CONTINUOUS
10
1.48933
20
-0.219193
11
1.48933
21
-0.222736
0
LINE
8
BLACK
6
CONTINUOUS
10
1.48933
20
-0.222736
11
1.67358
21
-0.222736
0
LINE
8
BLACK
6
CONTINUOUS
10
1.67358
20
-0.222736
11
1.67358
21
-0.219193
0
LINE
8
BLACK
6
CONTINUOUS
10
1.67358
20
-0.219193
11
1.67427
21
-0.217523
0
LINE
8
BLACK
6
CONTINUOUS
10
1.67427
20
-0.217523
11
1.67594
21
-0.216831
0
LINE
8
BLACK
6
CONTINUOUS
10
1.67594
20
-0.216831
11
1.67762
21
-0.217523
0
LINE
8
BLACK
6
CONTINUOUS
10
1.67762
20
-0.217523
11
1.67831
21
-0.219193
0
LINE
8
BLACK
6
CONTINUOUS
10
1.67831
20
-0.219193
11
1.67831
21
-0.225098
0
LINE
8
BLACK
6
CONTINUOUS
10
1.67831
20
-0.225098
11
1.67762
21
-0.226769
0
LINE
8
BLACK
6
CONTINUOUS
10
1.67762
20
-0.226769
11
1.67594
21
-0.227461
0
LINE
8
BLACK
6
CONTINUOUS
10
1.67594
20
-0.227461
11
1.48697
21
-0.227461
0
LINE
8
BLACK
6
CONTINUOUS
10
1.48697
20
-0.227461
11
1.4853
21
-0.226769
0
LINE
8
BLACK
6
CONTINUOUS
10
1.3836
20
-0.211084
11
1.38514
21
-0.212382
0
LINE
8
BLACK
6
CONTINUOUS
10
1.38514
20
-0.212382
11
1.3855
21
-0.214371
0
LINE
8
BLACK
6
CONTINUOUS
10
1.3855
20
-0.214371
11
1.38449
21
-0.21612
0
LINE
8
BLACK
6
CONTINUOUS
10
1.38449
20
-0.21612
11
1.38259
21
-0.216811
0
LINE
8
BLACK
6
CONTINUOUS
10
1.38259
20
-0.216811
11
1.32259
21
-0.216811
0
LINE
8
BLACK
6
CONTINUOUS
10
1.32259
20
-0.216811
11
1.32158
21
-0.216633
0
LINE
8
BLACK
6
CONTINUOUS
10
1.32158
20
-0.216633
11
1.32003
21
-0.215335
0
LINE
8
BLACK
6
CONTINUOUS
10
1.32003
20
-0.215335
11
1.31968
21
-0.213346
0
LINE
8
BLACK
6
CONTINUOUS
10
1.31968
20
-0.213346
11
1.32069
21
-0.211596
0
LINE
8
BLACK
6
CONTINUOUS
10
1.32069
20
-0.211596
11
1.32259
21
-0.210906
0
LINE
8
BLACK
6
CONTINUOUS
10
1.32259
20
-0.210906
11
1.38259
21
-0.210906
0
LINE
8
BLACK
6
CONTINUOUS
10
1.38259
20
-0.210906
11
1.3836
21
-0.211084
0
LINE
8
BLACK
6
CONTINUOUS
10
1.86247
20
-0.203584
11
1.86401
21
-0.204882
0
LINE
8
BLACK
6
CONTINUOUS
10
1.86401
20
-0.204882
11
1.86436
21
-0.206871
0
LINE
8
BLACK
6
CONTINUOUS
10
1.86436
20
-0.206871
11
1.86335
21
-0.20862
0
LINE
8
BLACK
6
CONTINUOUS
10
1.86335
20
-0.20862
11
1.86146
21
-0.209311
0
LINE
8
BLACK
6
CONTINUOUS
10
1.86146
20
-0.209311
11
1.80146
21
-0.209311
0
LINE
8
BLACK
6
CONTINUOUS
10
1.80146
20
-0.209311
11
1.80045
21
-0.209133
0
LINE
8
BLACK
6
CONTINUOUS
10
1.80045
20
-0.209133
11
1.7989
21
-0.207835
0
LINE
8
BLACK
6
CONTINUOUS
10
1.7989
20
-0.207835
11
1.79855
21
-0.205846
0
LINE
8
BLACK
6
CONTINUOUS
10
1.79855
20
-0.205846
11
1.79956
21
-0.204096
0
LINE
8
BLACK
6
CONTINUOUS
10
1.79956
20
-0.204096
11
1.80146
21
-0.203406
0
LINE
8
BLACK
6
CONTINUOUS
10
1.80146
20
-0.203406
11
1.86146
21
-0.203406
0
LINE
8
BLACK
6
CONTINUOUS
10
1.86146
20
-0.203406
11
1.86247
21
-0.203584
0
LINE
8
BLACK
6
CONTINUOUS
10
1.38426
20
-0.137188
11
1.38495
21
-0.138858
0
LINE
8
BLACK
6
CONTINUOUS
10
1.38495
20
-0.138858
11
1.38495
21
-0.168858
0
LINE
8
BLACK
6
CONTINUOUS
10
1.38495
20
-0.168858
11
1.38426
21
-0.170529
0
LINE
8
BLACK
6
CONTINUOUS
10
1.38426
20
-0.170529
11
1.38259
21
-0.17122
0
LINE
8
BLACK
6
CONTINUOUS
10
1.38259
20
-0.17122
11
1.38092
21
-0.170529
0
LINE
8
BLACK
6
CONTINUOUS
10
1.38092
20
-0.170529
11
1.38023
21
-0.168858
0
LINE
8
BLACK
6
CONTINUOUS
10
1.38023
20
-0.168858
11
1.38023
21
-0.138858
0
LINE
8
BLACK
6
CONTINUOUS
10
1.38023
20
-0.138858
11
1.38092
21
-0.137188
0
LINE
8
BLACK
6
CONTINUOUS
10
1.38092
20
-0.137188
11
1.38259
21
-0.136496
0
LINE
8
BLACK
6
CONTINUOUS
10
1.38259
20
-0.136496
11
1.38426
21
-0.137188
0
LINE
8
BLACK
6
CONTINUOUS
10
1.32426
20
-0.137188
11
1.32495
21
-0.138858
0
LINE
8
BLACK
6
CONTINUOUS
10
1.32495
20
-0.138858
11
1.32495
21
-0.168858
0
LINE
8
BLACK
6
CONTINUOUS
10
1.32495
20
-0.168858
11
1.32426
21
-0.170529
0
LINE
8
BLACK
6
CONTINUOUS
10
1.32426
20
-0.170529
11
1.32259
21
-0.17122
0
LINE
8
BLACK
6
CONTINUOUS
10
1.32259
20
-0.17122
11
1.32092
21
-0.170529
0
LINE
8
BLACK
6
CONTINUOUS
10
1.32092
20
-0.170529
11
1.32023
21
-0.168858
0
LINE
8
BLACK
6
CONTINUOUS
10
1.32023
20
-0.168858
11
1.32023
21
-0.138858
0
LINE
8
BLACK
6
CONTINUOUS
10
1.32023
20
-0.138858
11
1.32092
21
-0.137188
0
LINE
8
BLACK
6
CONTINUOUS
10
1.32092
20
-0.137188
11
1.32259
21
-0.136496
0
LINE
8
BLACK
6
CONTINUOUS
10
1.32259
20
-0.136496
11
1.32426
21
-0.137188
0
LINE
8
BLACK
6
CONTINUOUS
10
1.80313
20
-0.129688
11
1.80382
21
-0.131358
0
LINE
8
BLACK
6
CONTINUOUS
10
1.80382
20
-0.131358
11
1.80382
21
-0.161358
0
LINE
8
BLACK
6
CONTINUOUS
10
1.80382
20
-0.161358
11
1.80313
21
-0.163029
0
LINE
8
BLACK
6
CONTINUOUS
10
1.80313
20
-0.163029
11
1.80146
21
-0.16372
0
LINE
8
BLACK
6
CONTINUOUS
10
1.80146
20
-0.16372
11
1.79979
21
-0.163029
0
LINE
8
BLACK
6
CONTINUOUS
10
1.79979
20
-0.163029
11
1.79909
21
-0.161358
0
LINE
8
BLACK
6
CONTINUOUS
10
1.79909
20
-0.161358
11
1.79909
21
-0.131358
0
LINE
8
BLACK
6
CONTINUOUS
10
1.79909
20
-0.131358
11
1.79979
21
-0.129688
0
LINE
8
BLACK
6
CONTINUOUS
10
1.79979
20
-0.129688
11
1.80146
21
-0.128996
0
LINE
8
BLACK
6
CONTINUOUS
10
1.80146
20
-0.128996
11
1.80313
21
-0.129688
0
LINE
8
BLACK
6
CONTINUOUS
10
1.86313
20
-0.129688
11
1.86382
21
-0.131358
0
LINE
8
BLACK
6
CONTINUOUS
10
1.86382
20
-0.131358
11
1.86382
21
-0.161358
0
LINE
8
BLACK
6
CONTINUOUS
10
1.86382
20
-0.161358
11
1.86313
21
-0.163029
0
LINE
8
BLACK
6
CONTINUOUS
10
1.86313
20
-0.163029
11
1.86146
21
-0.16372
0
LINE
8
BLACK
6
CONTINUOUS
10
1.86146
20
-0.16372
11
1.85979
21
-0.163029
0
LINE
8
BLACK
6
CONTINUOUS
10
1.85979
20
-0.163029
11
1.85909
21
-0.161358
0
LINE
8
BLACK
6
CONTINUOUS
10
1.85909
20
-0.161358
11
1.85909
21
-0.131358
0
LINE
8
BLACK
6
CONTINUOUS
10
1.85909
20
-0.131358
11
1.85979
21
-0.129688
0
LINE
8
BLACK
6
CONTINUOUS
10
1.85979
20
-0.129688
11
1.86146
21
-0.128996
0
LINE
8
BLACK
6
CONTINUOUS
10
1.86146
20
-0.128996
11
1.86313
21
-0.129688
0
LINE
8
BLACK
6
CONTINUOUS
10
1.3836
20
-0.0910836
11
1.38514
21
-0.0923819
0
LINE
8
BLACK
6
CONTINUOUS
10
1.38514
20
-0.0923819
11
1.3855
21
-0.094371
0
LINE
8
BLACK
6
CONTINUOUS
10
1.3855
20
-0.094371
11
1.38449
21
-0.0961202
0
LINE
8
BLACK
6
CONTINUOUS
10
1.38449
20
-0.0961202
11
1.38259
21
-0.096811
0
LINE
8
BLACK
6
CONTINUOUS
10
1.38259
20
-0.096811
11
1.32259
21
-0.096811
0
LINE
8
BLACK
6
CONTINUOUS
10
1.32259
20
-0.096811
11
1.32158
21
-0.096633
0
LINE
8
BLACK
6
CONTINUOUS
10
1.32158
20
-0.096633
11
1.32003
21
-0.0953346
0
LINE
8
BLACK
6
CONTINUOUS
10
1.32003
20
-0.0953346
11
1.31968
21
-0.0933455
0
LINE
8
BLACK
6
CONTINUOUS
10
1.31968
20
-0.0933455
11
1.32069
21
-0.0915963
0
LINE
8
BLACK
6
CONTINUOUS
10
1.32069
20
-0.0915963
11
1.32259
21
-0.0909055
0
LINE
8
BLACK
6
CONTINUOUS
10
1.32259
20
-0.0909055
11
1.38259
21
-0.0909055
0
LINE
8
BLACK
6
CONTINUOUS
10
1.38259
20
-0.0909055
11
1.3836
21
-0.0910836
0
LINE
8
BLACK
6
CONTINUOUS
10
1.86247
20
-0.0835836
11
1.86401
21
-0.0848819
0
LINE
8
BLACK
6
CONTINUOUS
10
1.86401
20
-0.0848819
11
1.86436
21
-0.086871
0
LINE
8
BLACK
6
CONTINUOUS
10
1.86436
20
-0.086871
11
1.86335
21
-0.0886202
0
LINE
8
BLACK
6
CONTINUOUS
10
1.86335
20
-0.0886202
11
1.86146
21
-0.089311
0
LINE
8
BLACK
6
CONTINUOUS
10
1.86146
20
-0.089311
11
1.80146
21
-0.089311
0
LINE
8
BLACK
6
CONTINUOUS
10
1.80146
20
-0.089311
11
1.80045
21
-0.089133
0
LINE
8
BLACK
6
CONTINUOUS
10
1.80045
20
-0.089133
11
1.7989
21
-0.0878346
0
LINE
8
BLACK
6
CONTINUOUS
10
1.7989
20
-0.0878346
11
1.79855
21
-0.0858455
0
LINE
8
BLACK
6
CONTINUOUS
10
1.79855
20
-0.0858455
11
1.79956
21
-0.0840963
0
LINE
8
BLACK
6
CONTINUOUS
10
1.79956
20
-0.0840963
11
1.80146
21
-0.0834055
0
LINE
8
BLACK
6
CONTINUOUS
10
1.80146
20
-0.0834055
11
1.86146
21
-0.0834055
0
LINE
8
BLACK
6
CONTINUOUS
10
1.86146
20
-0.0834055
11
1.86247
21
-0.0835836
0
LINE
8
BLACK
6
CONTINUOUS
10
1.67762
20
-0.0659478
11
1.67831
21
-0.0676181
0
LINE
8
BLACK
6
CONTINUOUS
10
1.67831
20
-0.0676181
11
1.67831
21
-0.0735236
0
LINE
8
BLACK
6
CONTINUOUS
10
1.67831
20
-0.0735236
11
1.67762
21
-0.0751939
0
LINE
8
BLACK
6
CONTINUOUS
10
1.67762
20
-0.0751939
11
1.67594
21
-0.0758858
0
LINE
8
BLACK
6
CONTINUOUS
10
1.67594
20
-0.0758858
11
1.67427
21
-0.0751939
0
LINE
8
BLACK
6
CONTINUOUS
10
1.67427
20
-0.0751939
11
1.67358
21
-0.0735236
0
LINE
8
BLACK
6
CONTINUOUS
10
1.67358
20
-0.0735236
11
1.67358
21
-0.0699803
0
LINE
8
BLACK
6
CONTINUOUS
10
1.67358
20
-0.0699803
11
1.48933
21
-0.0699803
0
LINE
8
BLACK
6
CONTINUOUS
10
1.48933
20
-0.0699803
11
1.48933
21
-0.0735236
0
LINE
8
BLACK
6
CONTINUOUS
10
1.48933
20
-0.0735236
11
1.48864
21
-0.0751939
0
LINE
8
BLACK
6
CONTINUOUS
10
1.48864
20
-0.0751939
11
1.48697
21
-0.0758858
0
LINE
8
BLACK
6
CONTINUOUS
10
1.48697
20
-0.0758858
11
1.4853
21
-0.0751939
0
LINE
8
BLACK
6
CONTINUOUS
10
1.4853
20
-0.0751939
11
1.48461
21
-0.0735236
0
LINE
8
BLACK
6
CONTINUOUS
10
1.48461
20
-0.0735236
11
1.48461
21
-0.0676181
0
LINE
8
BLACK
6
CONTINUOUS
10
1.48461
20
-0.0676181
11
1.4853
21
-0.0659478
0
LINE
8
BLACK
6
CONTINUOUS
10
1.4853
20
-0.0659478
11
1.48697
21
-0.0652559
0
LINE
8
BLACK
6
CONTINUOUS
10
1.48697
20
-0.0652559
11
1.67594
21
-0.0652559
0
LINE
8
BLACK
6
CONTINUOUS
10
1.67594
20
-0.0652559
11
1.67762
21
-0.0659478
0
LINE
8
BLACK
6
CONTINUOUS
10
1.42845
20
0.166677
11
1.42859
21
0.166564
0
LINE
8
BLACK
6
CONTINUOUS
10
1.42859
20
0.166564
11
1.42876
21
0.166543
0
LINE
8
BLACK
6
CONTINUOUS
10
1.42876
20
0.166543
11
1.43251
21
0.164669
0
LINE
8
BLACK
6
CONTINUOUS
10
1.43251
20
0.164669
11
1.43322
21
0.164143
0
LINE
8
BLACK
6
CONTINUOUS
10
1.43322
20
0.164143
11
1.43328
21
0.164115
0
LINE
8
BLACK
6
CONTINUOUS
10
1.43328
20
0.164115
11
1.43515
21
0.162241
0
LINE
8
BLACK
6
CONTINUOUS
10
1.43515
20
0.162241
11
1.43574
21
0.161401
0
LINE
8
BLACK
6
CONTINUOUS
10
1.43574
20
0.161401
11
1.43592
21
0.159389
0
LINE
8
BLACK
6
CONTINUOUS
10
1.43592
20
0.159389
11
1.43476
21
0.157734
0
LINE
8
BLACK
6
CONTINUOUS
10
1.43476
20
0.157734
11
1.43281
21
0.157211
0
LINE
8
BLACK
6
CONTINUOUS
10
1.43281
20
0.157211
11
1.43098
21
0.158065
0
LINE
8
BLACK
6
CONTINUOUS
10
1.43098
20
0.158065
11
1.42944
21
0.159601
0
LINE
8
BLACK
6
CONTINUOUS
10
1.42944
20
0.159601
11
1.42675
21
0.16095
0
LINE
8
BLACK
6
CONTINUOUS
10
1.42675
20
0.16095
11
1.41877
21
0.16095
0
LINE
8
BLACK
6
CONTINUOUS
10
1.41877
20
0.16095
11
1.41607
21
0.159601
0
LINE
8
BLACK
6
CONTINUOUS
10
1.41607
20
0.159601
11
1.41487
21
0.158404
0
LINE
8
BLACK
6
CONTINUOUS
10
1.41487
20
0.158404
11
1.41352
21
0.155706
0
LINE
8
BLACK
6
CONTINUOUS
10
1.41352
20
0.155706
11
1.41352
21
0.153133
0
LINE
8
BLACK
6
CONTINUOUS
10
1.41352
20
0.153133
11
1.41503
21
0.148624
0
LINE
8
BLACK
6
CONTINUOUS
10
1.41503
20
0.148624
11
1.43703
21
0.12662
0
LINE
8
BLACK
6
CONTINUOUS
10
1.43703
20
0.12662
11
1.4374
21
0.126092
0
LINE
8
BLACK
6
CONTINUOUS
10
1.4374
20
0.126092
11
1.4375
21
0.126009
0
LINE
8
BLACK
6
CONTINUOUS
10
1.4375
20
0.126009
11
1.43751
21
0.12593
0
LINE
8
BLACK
6
CONTINUOUS
10
1.43751
20
0.12593
11
1.43762
21
0.12578
0
LINE
8
BLACK
6
CONTINUOUS
10
1.43762
20
0.12578
11
1.4377
21
0.124895
0
LINE
8
BLACK
6
CONTINUOUS
10
1.4377
20
0.124895
11
1.43785
21
0.12402
0
LINE
8
BLACK
6
CONTINUOUS
10
1.43785
20
0.12402
11
1.43778
21
0.123903
0
LINE
8
BLACK
6
CONTINUOUS
10
1.43778
20
0.123903
11
1.43779
21
0.123768
0
LINE
8
BLACK
6
CONTINUOUS
10
1.43779
20
0.123768
11
1.43728
21
0.12304
0
LINE
8
BLACK
6
CONTINUOUS
10
1.43728
20
0.12304
11
1.43684
21
0.12227
0
LINE
8
BLACK
6
CONTINUOUS
10
1.43684
20
0.12227
11
1.43671
21
0.122224
0
LINE
8
BLACK
6
CONTINUOUS
10
1.43671
20
0.122224
11
1.43664
21
0.122114
0
LINE
8
BLACK
6
CONTINUOUS
10
1.43664
20
0.122114
11
1.43578
21
0.121883
0
LINE
8
BLACK
6
CONTINUOUS
10
1.43578
20
0.121883
11
1.43494
21
0.12158
0
LINE
8
BLACK
6
CONTINUOUS
10
1.43494
20
0.12158
11
1.41057
21
0.12158
0
LINE
8
BLACK
6
CONTINUOUS
10
1.41057
20
0.12158
11
1.40956
21
0.121758
0
LINE
8
BLACK
6
CONTINUOUS
10
1.40956
20
0.121758
11
1.40801
21
0.123056
0
LINE
8
BLACK
6
CONTINUOUS
10
1.40801
20
0.123056
11
1.40766
21
0.125045
0
LINE
8
BLACK
6
CONTINUOUS
10
1.40766
20
0.125045
11
1.40867
21
0.126794
0
LINE
8
BLACK
6
CONTINUOUS
10
1.40867
20
0.126794
11
1.41057
21
0.127485
0
LINE
8
BLACK
6
CONTINUOUS
10
1.41057
20
0.127485
11
1.42781
21
0.127485
0
LINE
8
BLACK
6
CONTINUOUS
10
1.42781
20
0.127485
11
1.41036
21
0.144942
0
LINE
8
BLACK
6
CONTINUOUS
10
1.41036
20
0.144942
11
1.40977
21
0.145782
0
LINE
8
BLACK
6
CONTINUOUS
10
1.40977
20
0.145782
11
1.40975
21
0.145957
0
LINE
8
BLACK
6
CONTINUOUS
10
1.40975
20
0.145957
11
1.40964
21
0.146096
0
LINE
8
BLACK
6
CONTINUOUS
10
1.40964
20
0.146096
11
1.40777
21
0.15172
0
LINE
8
BLACK
6
CONTINUOUS
10
1.40777
20
0.15172
11
1.40764
21
0.152593
0
LINE
8
BLACK
6
CONTINUOUS
10
1.40764
20
0.152593
11
1.40762
21
0.152654
0
LINE
8
BLACK
6
CONTINUOUS
10
1.40762
20
0.152654
11
1.40762
21
0.156403
0
LINE
8
BLACK
6
CONTINUOUS
10
1.40762
20
0.156403
11
1.4078
21
0.157413
0
LINE
8
BLACK
6
CONTINUOUS
10
1.4078
20
0.157413
11
1.40791
21
0.157548
0
LINE
8
BLACK
6
CONTINUOUS
10
1.40791
20
0.157548
11
1.40793
21
0.157724
0
LINE
8
BLACK
6
CONTINUOUS
10
1.40793
20
0.157724
11
1.4098
21
0.161473
0
LINE
8
BLACK
6
CONTINUOUS
10
1.4098
20
0.161473
11
1.41033
21
0.162182
0
LINE
8
BLACK
6
CONTINUOUS
10
1.41033
20
0.162182
11
1.41036
21
0.162241
0
LINE
8
BLACK
6
CONTINUOUS
10
1.41036
20
0.162241
11
1.41223
21
0.164115
0
LINE
8
BLACK
6
CONTINUOUS
10
1.41223
20
0.164115
11
1.41295
21
0.164622
0
LINE
8
BLACK
6
CONTINUOUS
10
1.41295
20
0.164622
11
1.413
21
0.164669
0
LINE
8
BLACK
6
CONTINUOUS
10
1.413
20
0.164669
11
1.41675
21
0.166543
0
LINE
8
BLACK
6
CONTINUOUS
10
1.41675
20
0.166543
11
1.41773
21
0.166836
0
LINE
8
BLACK
6
CONTINUOUS
10
1.41773
20
0.166836
11
1.4179
21
0.166795
0
LINE
8
BLACK
6
CONTINUOUS
10
1.4179
20
0.166795
11
1.41807
21
0.166855
0
LINE
8
BLACK
6
CONTINUOUS
10
1.41807
20
0.166855
11
1.42744
21
0.166855
0
LINE
8
BLACK
6
CONTINUOUS
10
1.42744
20
0.166855
11
1.42845
21
0.166677
0
LINE
8
BLACK
6
CONTINUOUS
10
1.4747
20
0.1658
11
1.47539
21
0.163902
0
LINE
8
BLACK
6
CONTINUOUS
10
1.47539
20
0.163902
11
1.47539
21
0.132031
0
LINE
8
BLACK
6
CONTINUOUS
10
1.47539
20
0.132031
11
1.47521
21
0.131021
0
LINE
8
BLACK
6
CONTINUOUS
10
1.47521
20
0.131021
11
1.4751
21
0.130886
0
LINE
8
BLACK
6
CONTINUOUS
10
1.4751
20
0.130886
11
1.47508
21
0.130711
0
LINE
8
BLACK
6
CONTINUOUS
10
1.47508
20
0.130711
11
1.4732
21
0.126961
0
LINE
8
BLACK
6
CONTINUOUS
10
1.4732
20
0.126961
11
1.47268
21
0.126252
0
LINE
8
BLACK
6
CONTINUOUS
10
1.47268
20
0.126252
11
1.47265
21
0.126194
0
LINE
8
BLACK
6
CONTINUOUS
10
1.47265
20
0.126194
11
1.47078
21
0.124319
0
LINE
8
BLACK
6
CONTINUOUS
10
1.47078
20
0.124319
11
1.47005
21
0.123813
0
LINE
8
BLACK
6
CONTINUOUS
10
1.47005
20
0.123813
11
1.47001
21
0.123766
0
LINE
8
BLACK
6
CONTINUOUS
10
1.47001
20
0.123766
11
1.46626
21
0.121891
0
LINE
8
BLACK
6
CONTINUOUS
10
1.46626
20
0.121891
11
1.46528
21
0.121599
0
LINE
8
BLACK
6
CONTINUOUS
10
1.46528
20
0.121599
11
1.4651
21
0.12164
0
LINE
8
BLACK
6
CONTINUOUS
10
1.4651
20
0.12164
11
1.46494
21
0.12158
0
LINE
8
BLACK
6
CONTINUOUS
10
1.46494
20
0.12158
11
1.45744
21
0.12158
0
LINE
8
BLACK
6
CONTINUOUS
10
1.45744
20
0.12158
11
1.45643
21
0.121758
0
LINE
8
BLACK
6
CONTINUOUS
10
1.45643
20
0.121758
11
1.45629
21
0.121871
0
LINE
8
BLACK
6
CONTINUOUS
10
1.45629
20
0.121871
11
1.45612
21
0.121891
0
LINE
8
BLACK
6
CONTINUOUS
10
1.45612
20
0.121891
11
1.45237
21
0.123766
0
LINE
8
BLACK
6
CONTINUOUS
10
1.45237
20
0.123766
11
1.45166
21
0.124292
0
LINE
8
BLACK
6
CONTINUOUS
10
1.45166
20
0.124292
11
1.4516
21
0.124319
0
LINE
8
BLACK
6
CONTINUOUS
10
1.4516
20
0.124319
11
1.44973
21
0.126194
0
LINE
8
BLACK
6
CONTINUOUS
10
1.44973
20
0.126194
11
1.44922
21
0.126917
0
LINE
8
BLACK
6
CONTINUOUS
10
1.44922
20
0.126917
11
1.44917
21
0.126961
0
LINE
8
BLACK
6
CONTINUOUS
10
1.44917
20
0.126961
11
1.4473
21
0.130711
0
LINE
8
BLACK
6
CONTINUOUS
10
1.4473
20
0.130711
11
1.44701
21
0.131694
0
LINE
8
BLACK
6
CONTINUOUS
10
1.44701
20
0.131694
11
1.44705
21
0.131865
0
LINE
8
BLACK
6
CONTINUOUS
10
1.44705
20
0.131865
11
1.44699
21
0.132031
0
LINE
8
BLACK
6
CONTINUOUS
10
1.44699
20
0.132031
11
1.44699
21
0.163902
0
LINE
8
BLACK
6
CONTINUOUS
10
1.44699
20
0.163902
11
1.44717
21
0.164912
0
LINE
8
BLACK
6
CONTINUOUS
10
1.44717
20
0.164912
11
1.44846
21
0.16646
0
LINE
8
BLACK
6
CONTINUOUS
10
1.44846
20
0.16646
11
1.45045
21
0.16681
0
LINE
8
BLACK
6
CONTINUOUS
10
1.45045
20
0.16681
11
1.4522
21
0.1658
0
LINE
8
BLACK
6
CONTINUOUS
10
1.4522
20
0.1658
11
1.45289
21
0.163902
0
LINE
8
BLACK
6
CONTINUOUS
10
1.45289
20
0.163902
11
1.45289
21
0.132728
0
LINE
8
BLACK
6
CONTINUOUS
10
1.45289
20
0.132728
11
1.45424
21
0.130031
0
LINE
8
BLACK
6
CONTINUOUS
10
1.45424
20
0.130031
11
1.45544
21
0.128834
0
LINE
8
BLACK
6
CONTINUOUS
10
1.45544
20
0.128834
11
1.45814
21
0.127485
0
LINE
8
BLACK
6
CONTINUOUS
10
1.45814
20
0.127485
11
1.46424
21
0.127485
0
LINE
8
BLACK
6
CONTINUOUS
10
1.46424
20
0.127485
11
1.46694
21
0.128834
0
LINE
8
BLACK
6
CONTINUOUS
10
1.46694
20
0.128834
11
1.46814
21
0.130031
0
LINE
8
BLACK
6
CONTINUOUS
10
1.46814
20
0.130031
11
1.46948
21
0.132728
0
LINE
8
BLACK
6
CONTINUOUS
10
1.46948
20
0.132728
11
1.46948
21
0.163902
0
LINE
8
BLACK
6
CONTINUOUS
10
1.46948
20
0.163902
11
1.46966
21
0.164912
0
LINE
8
BLACK
6
CONTINUOUS
10
1.46966
20
0.164912
11
1.47096
21
0.16646
0
LINE
8
BLACK
6
CONTINUOUS
10
1.47096
20
0.16646
11
1.47295
21
0.16681
0
LINE
8
BLACK
6
CONTINUOUS
10
1.47295
20
0.16681
11
1.4747
21
0.1658
0
LINE
8
BLACK
6
CONTINUOUS
10
1.34628
20
0.168231
11
1.34559
21
0.169902
0
LINE
8
BLACK
6
CONTINUOUS
10
1.34559
20
0.169902
11
1.34559
21
0.173445
0
LINE
8
BLACK
6
CONTINUOUS
10
1.34559
20
0.173445
11
1.28102
21
0.173445
0
LINE
8
BLACK
6
CONTINUOUS
10
1.28102
20
0.173445
11
1.27935
21
0.174137
0
LINE
8
BLACK
6
CONTINUOUS
10
1.27935
20
0.174137
11
1.27866
21
0.175807
0
LINE
8
BLACK
6
CONTINUOUS
10
1.27866
20
0.175807
11
1.27935
21
0.177477
0
LINE
8
BLACK
6
CONTINUOUS
10
1.27935
20
0.177477
11
1.28102
21
0.178169
0
LINE
8
BLACK
6
CONTINUOUS
10
1.28102
20
0.178169
11
1.34795
21
0.178169
0
LINE
8
BLACK
6
CONTINUOUS
10
1.34795
20
0.178169
11
1.34962
21
0.177477
0
LINE
8
BLACK
6
CONTINUOUS
10
1.34962
20
0.177477
11
1.35031
21
0.175807
0
LINE
8
BLACK
6
CONTINUOUS
10
1.35031
20
0.175807
11
1.35031
21
0.172264
0
LINE
8
BLACK
6
CONTINUOUS
10
1.35031
20
0.172264
11
1.53457
21
0.172264
0
LINE
8
BLACK
6
CONTINUOUS
10
1.53457
20
0.172264
11
1.53457
21
0.175807
0
LINE
8
BLACK
6
CONTINUOUS
10
1.53457
20
0.175807
11
1.53526
21
0.177477
0
LINE
8
BLACK
6
CONTINUOUS
10
1.53526
20
0.177477
11
1.53693
21
0.178169
0
LINE
8
BLACK
6
CONTINUOUS
10
1.53693
20
0.178169
11
1.5386
21
0.177477
0
LINE
8
BLACK
6
CONTINUOUS
10
1.5386
20
0.177477
11
1.53929
21
0.175807
0
LINE
8
BLACK
6
CONTINUOUS
10
1.53929
20
0.175807
11
1.53929
21
0.169902
0
LINE
8
BLACK
6
CONTINUOUS
10
1.53929
20
0.169902
11
1.5386
21
0.168231
0
LINE
8
BLACK
6
CONTINUOUS
10
1.5386
20
0.168231
11
1.53693
21
0.167539
0
LINE
8
BLACK
6
CONTINUOUS
10
1.53693
20
0.167539
11
1.34795
21
0.167539
0
LINE
8
BLACK
6
CONTINUOUS
10
1.34795
20
0.167539
11
1.34628
21
0.168231
0
LINE
8
BLACK
6
CONTINUOUS
10
1.72747
20
0.191416
11
1.72901
21
0.190118
0
LINE
8
BLACK
6
CONTINUOUS
10
1.72901
20
0.190118
11
1.72936
21
0.188129
0
LINE
8
BLACK
6
CONTINUOUS
10
1.72936
20
0.188129
11
1.72835
21
0.18638
0
LINE
8
BLACK
6
CONTINUOUS
10
1.72835
20
0.18638
11
1.72646
21
0.185689
0
LINE
8
BLACK
6
CONTINUOUS
10
1.72646
20
0.185689
11
1.66646
21
0.185689
0
LINE
8
BLACK
6
CONTINUOUS
10
1.66646
20
0.185689
11
1.66545
21
0.185867
0
LINE
8
BLACK
6
CONTINUOUS
10
1.66545
20
0.185867
11
1.6639
21
0.187165
0
LINE
8
BLACK
6
CONTINUOUS
10
1.6639
20
0.187165
11
1.66355
21
0.189154
0
LINE
8
BLACK
6
CONTINUOUS
10
1.66355
20
0.189154
11
1.66456
21
0.190904
0
LINE
8
BLACK
6
CONTINUOUS
10
1.66456
20
0.190904
11
1.66646
21
0.191594
0
LINE
8
BLACK
6
CONTINUOUS
10
1.66646
20
0.191594
11
1.72646
21
0.191594
0
LINE
8
BLACK
6
CONTINUOUS
10
1.72646
20
0.191594
11
1.72747
21
0.191416
0
LINE
8
BLACK
6
CONTINUOUS
10
1.2436
20
0.211416
11
1.24514
21
0.210118
0
LINE
8
BLACK
6
CONTINUOUS
10
1.24514
20
0.210118
11
1.2455
21
0.208129
0
LINE
8
BLACK
6
CONTINUOUS
10
1.2455
20
0.208129
11
1.24449
21
0.20638
0
LINE
8
BLACK
6
CONTINUOUS
10
1.24449
20
0.20638
11
1.24259
21
0.205689
0
LINE
8
BLACK
6
CONTINUOUS
10
1.24259
20
0.205689
11
1.18259
21
0.205689
0
LINE
8
BLACK
6
CONTINUOUS
10
1.18259
20
0.205689
11
1.18158
21
0.205867
0
LINE
8
BLACK
6
CONTINUOUS
10
1.18158
20
0.205867
11
1.18003
21
0.207165
0
LINE
8
BLACK
6
CONTINUOUS
10
1.18003
20
0.207165
11
1.17968
21
0.209154
0
LINE
8
BLACK
6
CONTINUOUS
10
1.17968
20
0.209154
11
1.18069
21
0.210904
0
LINE
8
BLACK
6
CONTINUOUS
10
1.18069
20
0.210904
11
1.18259
21
0.211594
0
LINE
8
BLACK
6
CONTINUOUS
10
1.18259
20
0.211594
11
1.24259
21
0.211594
0
LINE
8
BLACK
6
CONTINUOUS
10
1.24259
20
0.211594
11
1.2436
21
0.211416
0
LINE
8
BLACK
6
CONTINUOUS
10
1.72813
20
0.265312
11
1.72882
21
0.263642
0
LINE
8
BLACK
6
CONTINUOUS
10
1.72882
20
0.263642
11
1.72882
21
0.233642
0
LINE
8
BLACK
6
CONTINUOUS
10
1.72882
20
0.233642
11
1.72813
21
0.231971
0
LINE
8
BLACK
6
CONTINUOUS
10
1.72813
20
0.231971
11
1.72646
21
0.23128
0
LINE
8
BLACK
6
CONTINUOUS
10
1.72646
20
0.23128
11
1.72479
21
0.231971
0
LINE
8
BLACK
6
CONTINUOUS
10
1.72479
20
0.231971
11
1.72409
21
0.233642
0
LINE
8
BLACK
6
CONTINUOUS
10
1.72409
20
0.233642
11
1.72409
21
0.263642
0
LINE
8
BLACK
6
CONTINUOUS
10
1.72409
20
0.263642
11
1.72479
21
0.265312
0
LINE
8
BLACK
6
CONTINUOUS
10
1.72479
20
0.265312
11
1.72646
21
0.266004
0
LINE
8
BLACK
6
CONTINUOUS
10
1.72646
20
0.266004
11
1.72813
21
0.265312
0
LINE
8
BLACK
6
CONTINUOUS
10
1.66813
20
0.265312
11
1.66882
21
0.263642
0
LINE
8
BLACK
6
CONTINUOUS
10
1.66882
20
0.263642
11
1.66882
21
0.233642
0
LINE
8
BLACK
6
CONTINUOUS
10
1.66882
20
0.233642
11
1.66813
21
0.231971
0
LINE
8
BLACK
6
CONTINUOUS
10
1.66813
20
0.231971
11
1.66646
21
0.23128
0
LINE
8
BLACK
6
CONTINUOUS
10
1.66646
20
0.23128
11
1.66479
21
0.231971
0
LINE
8
BLACK
6
CONTINUOUS
10
1.66479
20
0.231971
11
1.66409
21
0.233642
0
LINE
8
BLACK
6
CONTINUOUS
10
1.66409
20
0.233642
11
1.66409
21
0.263642
0
LINE
8
BLACK
6
CONTINUOUS
10
1.66409
20
0.263642
11
1.66479
21
0.265312
0
LINE
8
BLACK
6
CONTINUOUS
10
1.66479
20
0.265312
11
1.66646
21
0.266004
0
LINE
8
BLACK
6
CONTINUOUS
10
1.66646
20
0.266004
11
1.66813
21
0.265312
0
LINE
8
BLACK
6
CONTINUOUS
10
1.18426
20
0.285312
11
1.18495
21
0.283642
0
LINE
8
BLACK
6
CONTINUOUS
10
1.18495
20
0.283642
11
1.18495
21
0.253642
0
LINE
8
BLACK
6
CONTINUOUS
10
1.18495
20
0.253642
11
1.18426
21
0.251971
0
LINE
8
BLACK
6
CONTINUOUS
10
1.18426
20
0.251971
11
1.18259
21
0.25128
0
LINE
8
BLACK
6
CONTINUOUS
10
1.18259
20
0.25128
11
1.18092
21
0.251971
0
LINE
8
BLACK
6
CONTINUOUS
10
1.18092
20
0.251971
11
1.18023
21
0.253642
0
LINE
8
BLACK
6
CONTINUOUS
10
1.18023
20
0.253642
11
1.18023
21
0.283642
0
LINE
8
BLACK
6
CONTINUOUS
10
1.18023
20
0.283642
11
1.18092
21
0.285312
0
LINE
8
BLACK
6
CONTINUOUS
10
1.18092
20
0.285312
11
1.18259
21
0.286004
0
LINE
8
BLACK
6
CONTINUOUS
10
1.18259
20
0.286004
11
1.18426
21
0.285312
0
LINE
8
BLACK
6
CONTINUOUS
10
1.24426
20
0.285312
11
1.24495
21
0.283642
0
LINE
8
BLACK
6
CONTINUOUS
10
1.24495
20
0.283642
11
1.24495
21
0.253642
0
LINE
8
BLACK
6
CONTINUOUS
10
1.24495
20
0.253642
11
1.24426
21
0.251971
0
LINE
8
BLACK
6
CONTINUOUS
10
1.24426
20
0.251971
11
1.24259
21
0.25128
0
LINE
8
BLACK
6
CONTINUOUS
10
1.24259
20
0.25128
11
1.24092
21
0.251971
0
LINE
8
BLACK
6
CONTINUOUS
10
1.24092
20
0.251971
11
1.24023
21
0.253642
0
LINE
8
BLACK
6
CONTINUOUS
10
1.24023
20
0.253642
11
1.24023
21
0.283642
0
LINE
8
BLACK
6
CONTINUOUS
10
1.24023
20
0.283642
11
1.24092
21
0.285312
0
LINE
8
BLACK
6
CONTINUOUS
10
1.24092
20
0.285312
11
1.24259
21
0.286004
0
LINE
8
BLACK
6
CONTINUOUS
10
1.24259
20
0.286004
11
1.24426
21
0.285312
0
LINE
8
BLACK
6
CONTINUOUS
10
1.72747
20
0.311416
11
1.72901
21
0.310118
0
LINE
8
BLACK
6
CONTINUOUS
10
1.72901
20
0.310118
11
1.72936
21
0.308129
0
LINE
8
BLACK
6
CONTINUOUS
10
1.72936
20
0.308129
11
1.72835
21
0.30638
0
LINE
8
BLACK
6
CONTINUOUS
10
1.72835
20
0.30638
11
1.72646
21
0.305689
0
LINE
8
BLACK
6
CONTINUOUS
10
1.72646
20
0.305689
11
1.66646
21
0.305689
0
LINE
8
BLACK
6
CONTINUOUS
10
1.66646
20
0.305689
11
1.66545
21
0.305867
0
LINE
8
BLACK
6
CONTINUOUS
10
1.66545
20
0.305867
11
1.6639
21
0.307165
0
LINE
8
BLACK
6
CONTINUOUS
10
1.6639
20
0.307165
11
1.66355
21
0.309154
0
LINE
8
BLACK
6
CONTINUOUS
10
1.66355
20
0.309154
11
1.66456
21
0.310904
0
LINE
8
BLACK
6
CONTINUOUS
10
1.66456
20
0.310904
11
1.66646
21
0.311594
0
LINE
8
BLACK
6
CONTINUOUS
10
1.66646
20
0.311594
11
1.72646
21
0.311594
0
LINE
8
BLACK
6
CONTINUOUS
10
1.72646
20
0.311594
11
1.72747
21
0.311416
0
LINE
8
BLACK
6
CONTINUOUS
10
1.5386
20
0.329052
11
1.53929
21
0.327382
0
LINE
8
BLACK
6
CONTINUOUS
10
1.53929
20
0.327382
11
1.53929
21
0.321476
0
LINE
8
BLACK
6
CONTINUOUS
10
1.53929
20
0.321476
11
1.5386
21
0.319806
0
LINE
8
BLACK
6
CONTINUOUS
10
1.5386
20
0.319806
11
1.53693
21
0.319114
0
LINE
8
BLACK
6
CONTINUOUS
10
1.53693
20
0.319114
11
1.53526
21
0.319806
0
LINE
8
BLACK
6
CONTINUOUS
10
1.53526
20
0.319806
11
1.53457
21
0.321476
0
LINE
8
BLACK
6
CONTINUOUS
10
1.53457
20
0.321476
11
1.53457
21
0.32502
0
LINE
8
BLACK
6
CONTINUOUS
10
1.53457
20
0.32502
11
1.35031
21
0.32502
0
LINE
8
BLACK
6
CONTINUOUS
10
1.35031
20
0.32502
11
1.35031
21
0.321476
0
LINE
8
BLACK
6
CONTINUOUS
10
1.35031
20
0.321476
11
1.34962
21
0.319806
0
LINE
8
BLACK
6
CONTINUOUS
10
1.34962
20
0.319806
11
1.34795
21
0.319114
0
LINE
8
BLACK
6
CONTINUOUS
10
1.34795
20
0.319114
11
1.34628
21
0.319806
0
LINE
8
BLACK
6
CONTINUOUS
10
1.34628
20
0.319806
11
1.34559
21
0.321476
0
LINE
8
BLACK
6
CONTINUOUS
10
1.34559
20
0.321476
11
1.34559
21
0.327382
0
LINE
8
BLACK
6
CONTINUOUS
10
1.34559
20
0.327382
11
1.34628
21
0.329052
0
LINE
8
BLACK
6
CONTINUOUS
10
1.34628
20
0.329052
11
1.34795
21
0.329744
0
LINE
8
BLACK
6
CONTINUOUS
10
1.34795
20
0.329744
11
1.53693
21
0.329744
0
LINE
8
BLACK
6
CONTINUOUS
10
1.53693
20
0.329744
11
1.5386
21
0.329052
0
LINE
8
BLACK
6
CONTINUOUS
10
1.2436
20
0.331416
11
1.24514
21
0.330118
0
LINE
8
BLACK
6
CONTINUOUS
10
1.24514
20
0.330118
11
1.2455
21
0.328129
0
LINE
8
BLACK
6
CONTINUOUS
10
1.2455
20
0.328129
11
1.24449
21
0.32638
0
LINE
8
BLACK
6
CONTINUOUS
10
1.24449
20
0.32638
11
1.24259
21
0.325689
0
LINE
8
BLACK
6
CONTINUOUS
10
1.24259
20
0.325689
11
1.18259
21
0.325689
0
LINE
8
BLACK
6
CONTINUOUS
10
1.18259
20
0.325689
11
1.18158
21
0.325867
0
LINE
8
BLACK
6
CONTINUOUS
10
1.18158
20
0.325867
11
1.18003
21
0.327165
0
LINE
8
BLACK
6
CONTINUOUS
10
1.18003
20
0.327165
11
1.17968
21
0.329154
0
LINE
8
BLACK
6
CONTINUOUS
10
1.17968
20
0.329154
11
1.18069
21
0.330904
0
LINE
8
BLACK
6
CONTINUOUS
10
1.18069
20
0.330904
11
1.18259
21
0.331594
0
LINE
8
BLACK
6
CONTINUOUS
10
1.18259
20
0.331594
11
1.24259
21
0.331594
0
LINE
8
BLACK
6
CONTINUOUS
10
1.24259
20
0.331594
11
1.2436
21
0.331416
0
LINE
8
BLACK
6
CONTINUOUS
10
1.34635
20
0.591828
11
1.34641
21
0.591847
0
LINE
8
BLACK
6
CONTINUOUS
10
1.34641
20
0.591847
11
1.34652
21
0.591796
0
LINE
8
BLACK
6
CONTINUOUS
10
1.34652
20
0.591796
11
1.3472
21
0.591677
0
LINE
8
BLACK
6
CONTINUOUS
10
1.3472
20
0.591677
11
1.34768
21
0.591274
0
LINE
8
BLACK
6
CONTINUOUS
10
1.34768
20
0.591274
11
1.34825
21
0.591016
0
LINE
8
BLACK
6
CONTINUOUS
10
1.34825
20
0.591016
11
1.34843
21
0.590644
0
LINE
8
BLACK
6
CONTINUOUS
10
1.34843
20
0.590644
11
1.34875
21
0.590379
0
LINE
8
BLACK
6
CONTINUOUS
10
1.34875
20
0.590379
11
1.34886
21
0.589761
0
LINE
8
BLACK
6
CONTINUOUS
10
1.34886
20
0.589761
11
1.34913
21
0.589196
0
LINE
8
BLACK
6
CONTINUOUS
10
1.34913
20
0.589196
11
1.35101
21
0.570449
0
LINE
8
BLACK
6
CONTINUOUS
10
1.35101
20
0.570449
11
1.35093
21
0.569426
0
LINE
8
BLACK
6
CONTINUOUS
10
1.35093
20
0.569426
11
1.35092
21
0.56941
0
LINE
8
BLACK
6
CONTINUOUS
10
1.35092
20
0.56941
11
1.35092
21
0.56939
0
LINE
8
BLACK
6
CONTINUOUS
10
1.35092
20
0.56939
11
1.35035
21
0.568579
0
LINE
8
BLACK
6
CONTINUOUS
10
1.35035
20
0.568579
11
1.34979
21
0.567757
0
LINE
8
BLACK
6
CONTINUOUS
10
1.34979
20
0.567757
11
1.34977
21
0.567752
0
LINE
8
BLACK
6
CONTINUOUS
10
1.34977
20
0.567752
11
1.34976
21
0.567736
0
LINE
8
BLACK
6
CONTINUOUS
10
1.34976
20
0.567736
11
1.3488
21
0.567479
0
LINE
8
BLACK
6
CONTINUOUS
10
1.3488
20
0.567479
11
1.34785
21
0.56721
0
LINE
8
BLACK
6
CONTINUOUS
10
1.34785
20
0.56721
11
1.34783
21
0.567218
0
LINE
8
BLACK
6
CONTINUOUS
10
1.34783
20
0.567218
11
1.34781
21
0.567213
0
LINE
8
BLACK
6
CONTINUOUS
10
1.34781
20
0.567213
11
1.34691
21
0.567632
0
LINE
8
BLACK
6
CONTINUOUS
10
1.34691
20
0.567632
11
1.34601
21
0.568041
0
LINE
8
BLACK
6
CONTINUOUS
10
1.34601
20
0.568041
11
1.346
21
0.568059
0
LINE
8
BLACK
6
CONTINUOUS
10
1.346
20
0.568059
11
1.34598
21
0.568067
0
LINE
8
BLACK
6
CONTINUOUS
10
1.34598
20
0.568067
11
1.34444
21
0.569603
0
LINE
8
BLACK
6
CONTINUOUS
10
1.34444
20
0.569603
11
1.34175
21
0.570951
0
LINE
8
BLACK
6
CONTINUOUS
10
1.34175
20
0.570951
11
1.33377
21
0.570951
0
LINE
8
BLACK
6
CONTINUOUS
10
1.33377
20
0.570951
11
1.33107
21
0.569603
0
LINE
8
BLACK
6
CONTINUOUS
10
1.33107
20
0.569603
11
1.32987
21
0.568406
0
LINE
8
BLACK
6
CONTINUOUS
10
1.32987
20
0.568406
11
1.32852
21
0.565708
0
LINE
8
BLACK
6
CONTINUOUS
10
1.32852
20
0.565708
11
1.32852
21
0.557728
0
LINE
8
BLACK
6
CONTINUOUS
10
1.32852
20
0.557728
11
1.32987
21
0.555031
0
LINE
8
BLACK
6
CONTINUOUS
10
1.32987
20
0.555031
11
1.33107
21
0.553834
0
LINE
8
BLACK
6
CONTINUOUS
10
1.33107
20
0.553834
11
1.33377
21
0.552485
0
LINE
8
BLACK
6
CONTINUOUS
10
1.33377
20
0.552485
11
1.34175
21
0.552485
0
LINE
8
BLACK
6
CONTINUOUS
10
1.34175
20
0.552485
11
1.34444
21
0.553834
0
LINE
8
BLACK
6
CONTINUOUS
10
1.34444
20
0.553834
11
1.34598
21
0.55537
0
LINE
8
BLACK
6
CONTINUOUS
10
1.34598
20
0.55537
11
1.34682
21
0.555958
0
LINE
8
BLACK
6
CONTINUOUS
10
1.34682
20
0.555958
11
1.34883
21
0.556134
0
LINE
8
BLACK
6
CONTINUOUS
10
1.34883
20
0.556134
11
1.35049
21
0.554975
0
LINE
8
BLACK
6
CONTINUOUS
10
1.35049
20
0.554975
11
1.35101
21
0.553024
0
LINE
8
BLACK
6
CONTINUOUS
10
1.35101
20
0.553024
11
1.35015
21
0.551194
0
LINE
8
BLACK
6
CONTINUOUS
10
1.35015
20
0.551194
11
1.34828
21
0.549319
0
LINE
8
BLACK
6
CONTINUOUS
10
1.34828
20
0.549319
11
1.34756
21
0.548813
0
LINE
8
BLACK
6
CONTINUOUS
10
1.34756
20
0.548813
11
1.34751
21
0.548766
0
LINE
8
BLACK
6
CONTINUOUS
10
1.34751
20
0.548766
11
1.34376
21
0.546891
0
LINE
8
BLACK
6
CONTINUOUS
10
1.34376
20
0.546891
11
1.34278
21
0.546599
0
LINE
8
BLACK
6
CONTINUOUS
10
1.34278
20
0.546599
11
1.34261
21
0.54664
0
LINE
8
BLACK
6
CONTINUOUS
10
1.34261
20
0.54664
11
1.34244
21
0.54658
0
LINE
8
BLACK
6
CONTINUOUS
10
1.34244
20
0.54658
11
1.33307
21
0.54658
0
LINE
8
BLACK
6
CONTINUOUS
10
1.33307
20
0.54658
11
1.33206
21
0.546758
0
LINE
8
BLACK
6
CONTINUOUS
10
1.33206
20
0.546758
11
1.33192
21
0.546871
0
LINE
8
BLACK
6
CONTINUOUS
10
1.33192
20
0.546871
11
1.33175
21
0.546891
0
LINE
8
BLACK
6
CONTINUOUS
10
1.33175
20
0.546891
11
1.328
21
0.548766
0
LINE
8
BLACK
6
CONTINUOUS
10
1.328
20
0.548766
11
1.32729
21
0.549292
0
LINE
8
BLACK
6
CONTINUOUS
10
1.32729
20
0.549292
11
1.32723
21
0.549319
0
LINE
8
BLACK
6
CONTINUOUS
10
1.32723
20
0.549319
11
1.32536
21
0.551194
0
LINE
8
BLACK
6
CONTINUOUS
10
1.32536
20
0.551194
11
1.32485
21
0.551917
0
LINE
8
BLACK
6
CONTINUOUS
10
1.32485
20
0.551917
11
1.3248
21
0.551961
0
LINE
8
BLACK
6
CONTINUOUS
10
1.3248
20
0.551961
11
1.32293
21
0.555711
0
LINE
8
BLACK
6
CONTINUOUS
10
1.32293
20
0.555711
11
1.32264
21
0.556694
0
LINE
8
BLACK
6
CONTINUOUS
10
1.32264
20
0.556694
11
1.32268
21
0.556865
0
LINE
8
BLACK
6
CONTINUOUS
10
1.32268
20
0.556865
11
1.32262
21
0.557031
0
LINE
8
BLACK
6
CONTINUOUS
10
1.32262
20
0.557031
11
1.32262
21
0.566405
0
LINE
8
BLACK
6
CONTINUOUS
10
1.32262
20
0.566405
11
1.3228
21
0.567415
0
LINE
8
BLACK
6
CONTINUOUS
10
1.3228
20
0.567415
11
1.32291
21
0.56755
0
LINE
8
BLACK
6
CONTINUOUS
10
1.32291
20
0.56755
11
1.32293
21
0.567726
0
LINE
8
BLACK
6
CONTINUOUS
10
1.32293
20
0.567726
11
1.3248
21
0.571475
0
LINE
8
BLACK
6
CONTINUOUS
10
1.3248
20
0.571475
11
1.32533
21
0.572184
0
LINE
8
BLACK
6
CONTINUOUS
10
1.32533
20
0.572184
11
1.32536
21
0.572243
0
LINE
8
BLACK
6
CONTINUOUS
10
1.32536
20
0.572243
11
1.32723
21
0.574117
0
LINE
8
BLACK
6
CONTINUOUS
10
1.32723
20
0.574117
11
1.32795
21
0.574624
0
LINE
8
BLACK
6
CONTINUOUS
10
1.32795
20
0.574624
11
1.328
21
0.57467
0
LINE
8
BLACK
6
CONTINUOUS
10
1.328
20
0.57467
11
1.33175
21
0.576545
0
LINE
8
BLACK
6
CONTINUOUS
10
1.33175
20
0.576545
11
1.33273
21
0.576838
0
LINE
8
BLACK
6
CONTINUOUS
10
1.33273
20
0.576838
11
1.3329
21
0.576797
0
LINE
8
BLACK
6
CONTINUOUS
10
1.3329
20
0.576797
11
1.33307
21
0.576857
0
LINE
8
BLACK
6
CONTINUOUS
10
1.33307
20
0.576857
11
1.34244
21
0.576857
0
LINE
8
BLACK
6
CONTINUOUS
10
1.34244
20
0.576857
11
1.34345
21
0.576679
0
LINE
8
BLACK
6
CONTINUOUS
10
1.34345
20
0.576679
11
1.34359
21
0.576565
0
LINE
8
BLACK
6
CONTINUOUS
10
1.34359
20
0.576565
11
1.34376
21
0.576545
0
LINE
8
BLACK
6
CONTINUOUS
10
1.34376
20
0.576545
11
1.3445
21
0.576178
0
LINE
8
BLACK
6
CONTINUOUS
10
1.3445
20
0.576178
11
1.34352
21
0.58595
0
LINE
8
BLACK
6
CONTINUOUS
10
1.34352
20
0.58595
11
1.32744
21
0.58595
0
LINE
8
BLACK
6
CONTINUOUS
10
1.32744
20
0.58595
11
1.32643
21
0.586128
0
LINE
8
BLACK
6
CONTINUOUS
10
1.32643
20
0.586128
11
1.32489
21
0.587426
0
LINE
8
BLACK
6
CONTINUOUS
10
1.32489
20
0.587426
11
1.32454
21
0.589415
0
LINE
8
BLACK
6
CONTINUOUS
10
1.32454
20
0.589415
11
1.32555
21
0.591164
0
LINE
8
BLACK
6
CONTINUOUS
10
1.32555
20
0.591164
11
1.32744
21
0.591855
0
LINE
8
BLACK
6
CONTINUOUS
10
1.32744
20
0.591855
11
1.34619
21
0.591855
0
LINE
8
BLACK
6
CONTINUOUS
10
1.34619
20
0.591855
11
1.34635
21
0.591828
0
LINE
8
BLACK
6
CONTINUOUS
10
1.3897
20
0.5908
11
1.39039
21
0.588902
0
LINE
8
BLACK
6
CONTINUOUS
10
1.39039
20
0.588902
11
1.39039
21
0.557031
0
LINE
8
BLACK
6
CONTINUOUS
10
1.39039
20
0.557031
11
1.39021
21
0.556021
0
LINE
8
BLACK
6
CONTINUOUS
10
1.39021
20
0.556021
11
1.3901
21
0.555886
0
LINE
8
BLACK
6
CONTINUOUS
10
1.3901
20
0.555886
11
1.39008
21
0.555711
0
LINE
8
BLACK
6
CONTINUOUS
10
1.39008
20
0.555711
11
1.3882
21
0.551961
0
LINE
8
BLACK
6
CONTINUOUS
10
1.3882
20
0.551961
11
1.38768
21
0.551252
0
LINE
8
BLACK
6
CONTINUOUS
10
1.38768
20
0.551252
11
1.38765
21
0.551194
0
LINE
8
BLACK
6
CONTINUOUS
10
1.38765
20
0.551194
11
1.38578
21
0.549319
0
LINE
8
BLACK
6
CONTINUOUS
10
1.38578
20
0.549319
11
1.38505
21
0.548813
0
LINE
8
BLACK
6
CONTINUOUS
10
1.38505
20
0.548813
11
1.38501
21
0.548766
0
LINE
8
BLACK
6
CONTINUOUS
10
1.38501
20
0.548766
11
1.38126
21
0.546891
0
LINE
8
BLACK
6
CONTINUOUS
10
1.38126
20
0.546891
11
1.38028
21
0.546599
0
LINE
8
BLACK
6
CONTINUOUS
10
1.38028
20
0.546599
11
1.3801
21
0.54664
0
LINE
8
BLACK
6
CONTINUOUS
10
1.3801
20
0.54664
11
1.37994
21
0.54658
0
LINE
8
BLACK
6
CONTINUOUS
10
1.37994
20
0.54658
11
1.37244
21
0.54658
0
LINE
8
BLACK
6
CONTINUOUS
10
1.37244
20
0.54658
11
1.37143
21
0.546758
0
LINE
8
BLACK
6
CONTINUOUS
10
1.37143
20
0.546758
11
1.37129
21
0.546871
0
LINE
8
BLACK
6
CONTINUOUS
10
1.37129
20
0.546871
11
1.37112
21
0.546891
0
LINE
8
BLACK
6
CONTINUOUS
10
1.37112
20
0.546891
11
1.36737
21
0.548766
0
LINE
8
BLACK
6
CONTINUOUS
10
1.36737
20
0.548766
11
1.36666
21
0.549292
0
LINE
8
BLACK
6
CONTINUOUS
10
1.36666
20
0.549292
11
1.3666
21
0.549319
0
LINE
8
BLACK
6
CONTINUOUS
10
1.3666
20
0.549319
11
1.36473
21
0.551194
0
LINE
8
BLACK
6
CONTINUOUS
10
1.36473
20
0.551194
11
1.36422
21
0.551917
0
LINE
8
BLACK
6
CONTINUOUS
10
1.36422
20
0.551917
11
1.36417
21
0.551961
0
LINE
8
BLACK
6
CONTINUOUS
10
1.36417
20
0.551961
11
1.3623
21
0.555711
0
LINE
8
BLACK
6
CONTINUOUS
10
1.3623
20
0.555711
11
1.36201
21
0.556694
0
LINE
8
BLACK
6
CONTINUOUS
10
1.36201
20
0.556694
11
1.36205
21
0.556865
0
LINE
8
BLACK
6
CONTINUOUS
10
1.36205
20
0.556865
11
1.36199
21
0.557031
0
LINE
8
BLACK
6
CONTINUOUS
10
1.36199
20
0.557031
11
1.36199
21
0.588902
0
LINE
8
BLACK
6
CONTINUOUS
10
1.36199
20
0.588902
11
1.36217
21
0.589912
0
LINE
8
BLACK
6
CONTINUOUS
10
1.36217
20
0.589912
11
1.36346
21
0.59146
0
LINE
8
BLACK
6
CONTINUOUS
10
1.36346
20
0.59146
11
1.36545
21
0.59181
0
LINE
8
BLACK
6
CONTINUOUS
10
1.36545
20
0.59181
11
1.3672
21
0.5908
0
LINE
8
BLACK
6
CONTINUOUS
10
1.3672
20
0.5908
11
1.36789
21
0.588902
0
LINE
8
BLACK
6
CONTINUOUS
10
1.36789
20
0.588902
11
1.36789
21
0.557728
0
LINE
8
BLACK
6
CONTINUOUS
10
1.36789
20
0.557728
11
1.36924
21
0.555031
0
LINE
8
BLACK
6
CONTINUOUS
10
1.36924
20
0.555031
11
1.37044
21
0.553834
0
LINE
8
BLACK
6
CONTINUOUS
10
1.37044
20
0.553834
11
1.37314
21
0.552485
0
LINE
8
BLACK
6
CONTINUOUS
10
1.37314
20
0.552485
11
1.37924
21
0.552485
0
LINE
8
BLACK
6
CONTINUOUS
10
1.37924
20
0.552485
11
1.38194
21
0.553834
0
LINE
8
BLACK
6
CONTINUOUS
10
1.38194
20
0.553834
11
1.38314
21
0.555031
0
LINE
8
BLACK
6
CONTINUOUS
10
1.38314
20
0.555031
11
1.38448
21
0.557728
0
LINE
8
BLACK
6
CONTINUOUS
10
1.38448
20
0.557728
11
1.38448
21
0.588902
0
LINE
8
BLACK
6
CONTINUOUS
10
1.38448
20
0.588902
11
1.38466
21
0.589912
0
LINE
8
BLACK
6
CONTINUOUS
10
1.38466
20
0.589912
11
1.38596
21
0.59146
0
LINE
8
BLACK
6
CONTINUOUS
10
1.38596
20
0.59146
11
1.38795
21
0.59181
0
LINE
8
BLACK
6
CONTINUOUS
10
1.38795
20
0.59181
11
1.3897
21
0.5908
0
LINE
8
BLACK
6
CONTINUOUS
10
1.26128
20
0.593231
11
1.26059
21
0.594902
0
LINE
8
BLACK
6
CONTINUOUS
10
1.26059
20
0.594902
11
1.26059
21
0.598445
0
LINE
8
BLACK
6
CONTINUOUS
10
1.26059
20
0.598445
11
1.19602
21
0.598445
0
LINE
8
BLACK
6
CONTINUOUS
10
1.19602
20
0.598445
11
1.19435
21
0.599137
0
LINE
8
BLACK
6
CONTINUOUS
10
1.19435
20
0.599137
11
1.19366
21
0.600807
0
LINE
8
BLACK
6
CONTINUOUS
10
1.19366
20
0.600807
11
1.19435
21
0.602477
0
LINE
8
BLACK
6
CONTINUOUS
10
1.19435
20
0.602477
11
1.19602
21
0.603169
0
LINE
8
BLACK
6
CONTINUOUS
10
1.19602
20
0.603169
11
1.26295
21
0.603169
0
LINE
8
BLACK
6
CONTINUOUS
10
1.26295
20
0.603169
11
1.26462
21
0.602477
0
LINE
8
BLACK
6
CONTINUOUS
10
1.26462
20
0.602477
11
1.26531
21
0.600807
0
LINE
8
BLACK
6
CONTINUOUS
10
1.26531
20
0.600807
11
1.26531
21
0.597264
0
LINE
8
BLACK
6
CONTINUOUS
10
1.26531
20
0.597264
11
1.44957
21
0.597264
0
LINE
8
BLACK
6
CONTINUOUS
10
1.44957
20
0.597264
11
1.44957
21
0.600807
0
LINE
8
BLACK
6
CONTINUOUS
10
1.44957
20
0.600807
11
1.45026
21
0.602477
0
LINE
8
BLACK
6
CONTINUOUS
10
1.45026
20
0.602477
11
1.45193
21
0.603169
0
LINE
8
BLACK
6
CONTINUOUS
10
1.45193
20
0.603169
11
1.4536
21
0.602477
0
LINE
8
BLACK
6
CONTINUOUS
10
1.4536
20
0.602477
11
1.45429
21
0.600807
0
LINE
8
BLACK
6
CONTINUOUS
10
1.45429
20
0.600807
11
1.45429
21
0.594902
0
LINE
8
BLACK
6
CONTINUOUS
10
1.45429
20
0.594902
11
1.4536
21
0.593231
0
LINE
8
BLACK
6
CONTINUOUS
10
1.4536
20
0.593231
11
1.45193
21
0.592539
0
LINE
8
BLACK
6
CONTINUOUS
10
1.45193
20
0.592539
11
1.26295
21
0.592539
0
LINE
8
BLACK
6
CONTINUOUS
10
1.26295
20
0.592539
11
1.26128
21
0.593231
0
LINE
8
BLACK
6
CONTINUOUS
10
1.15958
20
0.611416
11
1.16113
21
0.610118
0
LINE
8
BLACK
6
CONTINUOUS
10
1.16113
20
0.610118
11
1.16148
21
0.608129
0
LINE
8
BLACK
6
CONTINUOUS
10
1.16148
20
0.608129
11
1.16047
21
0.60638
0
LINE
8
BLACK
6
CONTINUOUS
10
1.16047
20
0.60638
11
1.15857
21
0.605689
0
LINE
8
BLACK
6
CONTINUOUS
10
1.15857
20
0.605689
11
1.09857
21
0.605689
0
LINE
8
BLACK
6
CONTINUOUS
10
1.09857
20
0.605689
11
1.09756
21
0.605867
0
LINE
8
BLACK
6
CONTINUOUS
10
1.09756
20
0.605867
11
1.09601
21
0.607165
0
LINE
8
BLACK
6
CONTINUOUS
10
1.09601
20
0.607165
11
1.09566
21
0.609154
0
LINE
8
BLACK
6
CONTINUOUS
10
1.09566
20
0.609154
11
1.09667
21
0.610904
0
LINE
8
BLACK
6
CONTINUOUS
10
1.09667
20
0.610904
11
1.09857
21
0.611594
0
LINE
8
BLACK
6
CONTINUOUS
10
1.09857
20
0.611594
11
1.15857
21
0.611594
0
LINE
8
BLACK
6
CONTINUOUS
10
1.15857
20
0.611594
11
1.15958
21
0.611416
0
LINE
8
BLACK
6
CONTINUOUS
10
1.64345
20
0.621416
11
1.645
21
0.620118
0
LINE
8
BLACK
6
CONTINUOUS
10
1.645
20
0.620118
11
1.64535
21
0.618129
0
LINE
8
BLACK
6
CONTINUOUS
10
1.64535
20
0.618129
11
1.64434
21
0.61638
0
LINE
8
BLACK
6
CONTINUOUS
10
1.64434
20
0.61638
11
1.64244
21
0.615689
0
LINE
8
BLACK
6
CONTINUOUS
10
1.64244
20
0.615689
11
1.58244
21
0.615689
0
LINE
8
BLACK
6
CONTINUOUS
10
1.58244
20
0.615689
11
1.58143
21
0.615867
0
LINE
8
BLACK
6
CONTINUOUS
10
1.58143
20
0.615867
11
1.57988
21
0.617165
0
LINE
8
BLACK
6
CONTINUOUS
10
1.57988
20
0.617165
11
1.57953
21
0.619154
0
LINE
8
BLACK
6
CONTINUOUS
10
1.57953
20
0.619154
11
1.58054
21
0.620904
0
LINE
8
BLACK
6
CONTINUOUS
10
1.58054
20
0.620904
11
1.58244
21
0.621594
0
LINE
8
BLACK
6
CONTINUOUS
10
1.58244
20
0.621594
11
1.64244
21
0.621594
0
LINE
8
BLACK
6
CONTINUOUS
10
1.64244
20
0.621594
11
1.64345
21
0.621416
0
LINE
8
BLACK
6
CONTINUOUS
10
1.10024
20
0.685312
11
1.10093
21
0.683642
0
LINE
8
BLACK
6
CONTINUOUS
10
1.10093
20
0.683642
11
1.10093
21
0.653642
0
LINE
8
BLACK
6
CONTINUOUS
10
1.10093
20
0.653642
11
1.10024
21
0.651971
0
LINE
8
BLACK
6
CONTINUOUS
10
1.10024
20
0.651971
11
1.09857
21
0.65128
0
LINE
8
BLACK
6
CONTINUOUS
10
1.09857
20
0.65128
11
1.0969
21
0.651971
0
LINE
8
BLACK
6
CONTINUOUS
10
1.0969
20
0.651971
11
1.09621
21
0.653642
0
LINE
8
BLACK
6
CONTINUOUS
10
1.09621
20
0.653642
11
1.09621
21
0.683642
0
LINE
8
BLACK
6
CONTINUOUS
10
1.09621
20
0.683642
11
1.0969
21
0.685312
0
LINE
8
BLACK
6
CONTINUOUS
10
1.0969
20
0.685312
11
1.09857
21
0.686004
0
LINE
8
BLACK
6
CONTINUOUS
10
1.09857
20
0.686004
11
1.10024
21
0.685312
0
LINE
8
BLACK
6
CONTINUOUS
10
1.16024
20
0.685312
11
1.16093
21
0.683642
0
LINE
8
BLACK
6
CONTINUOUS
10
1.16093
20
0.683642
11
1.16093
21
0.653642
0
LINE
8
BLACK
6
CONTINUOUS
10
1.16093
20
0.653642
11
1.16024
21
0.651971
0
LINE
8
BLACK
6
CONTINUOUS
10
1.16024
20
0.651971
11
1.15857
21
0.65128
0
LINE
8
BLACK
6
CONTINUOUS
10
1.15857
20
0.65128
11
1.1569
21
0.651971
0
LINE
8
BLACK
6
CONTINUOUS
10
1.1569
20
0.651971
11
1.15621
21
0.653642
0
LINE
8
BLACK
6
CONTINUOUS
10
1.15621
20
0.653642
11
1.15621
21
0.683642
0
LINE
8
BLACK
6
CONTINUOUS
10
1.15621
20
0.683642
11
1.1569
21
0.685312
0
LINE
8
BLACK
6
CONTINUOUS
10
1.1569
20
0.685312
11
1.15857
21
0.686004
0
LINE
8
BLACK
6
CONTINUOUS
10
1.15857
20
0.686004
11
1.16024
21
0.685312
0
LINE
8
BLACK
6
CONTINUOUS
10
1.64411
20
0.695312
11
1.6448
21
0.693642
0
LINE
8
BLACK
6
CONTINUOUS
10
1.6448
20
0.693642
11
1.6448
21
0.663642
0
LINE
8
BLACK
6
CONTINUOUS
10
1.6448
20
0.663642
11
1.64411
21
0.661971
0
LINE
8
BLACK
6
CONTINUOUS
10
1.64411
20
0.661971
11
1.64244
21
0.66128
0
LINE
8
BLACK
6
CONTINUOUS
10
1.64244
20
0.66128
11
1.64077
21
0.661971
0
LINE
8
BLACK
6
CONTINUOUS
10
1.64077
20
0.661971
11
1.64008
21
0.663642
0
LINE
8
BLACK
6
CONTINUOUS
10
1.64008
20
0.663642
11
1.64008
21
0.693642
0
LINE
8
BLACK
6
CONTINUOUS
10
1.64008
20
0.693642
11
1.64077
21
0.695312
0
LINE
8
BLACK
6
CONTINUOUS
10
1.64077
20
0.695312
11
1.64244
21
0.696004
0
LINE
8
BLACK
6
CONTINUOUS
10
1.64244
20
0.696004
11
1.64411
21
0.695312
0
LINE
8
BLACK
6
CONTINUOUS
10
1.58411
20
0.695312
11
1.5848
21
0.693642
0
LINE
8
BLACK
6
CONTINUOUS
10
1.5848
20
0.693642
11
1.5848
21
0.663642
0
LINE
8
BLACK
6
CONTINUOUS
10
1.5848
20
0.663642
11
1.58411
21
0.661971
0
LINE
8
BLACK
6
CONTINUOUS
10
1.58411
20
0.661971
11
1.58244
21
0.66128
0
LINE
8
BLACK
6
CONTINUOUS
10
1.58244
20
0.66128
11
1.58077
21
0.661971
0
LINE
8
BLACK
6
CONTINUOUS
10
1.58077
20
0.661971
11
1.58008
21
0.663642
0
LINE
8
BLACK
6
CONTINUOUS
10
1.58008
20
0.663642
11
1.58008
21
0.693642
0
LINE
8
BLACK
6
CONTINUOUS
10
1.58008
20
0.693642
11
1.58077
21
0.695312
0
LINE
8
BLACK
6
CONTINUOUS
10
1.58077
20
0.695312
11
1.58244
21
0.696004
0
LINE
8
BLACK
6
CONTINUOUS
10
1.58244
20
0.696004
11
1.58411
21
0.695312
0
LINE
8
BLACK
6
CONTINUOUS
10
1.15958
20
0.731416
11
1.16113
21
0.730118
0
LINE
8
BLACK
6
CONTINUOUS
10
1.16113
20
0.730118
11
1.16148
21
0.728129
0
LINE
8
BLACK
6
CONTINUOUS
10
1.16148
20
0.728129
11
1.16047
21
0.72638
0
LINE
8
BLACK
6
CONTINUOUS
10
1.16047
20
0.72638
11
1.15857
21
0.725689
0
LINE
8
BLACK
6
CONTINUOUS
10
1.15857
20
0.725689
11
1.09857
21
0.725689
0
LINE
8
BLACK
6
CONTINUOUS
10
1.09857
20
0.725689
11
1.09756
21
0.725867
0
LINE
8
BLACK
6
CONTINUOUS
10
1.09756
20
0.725867
11
1.09601
21
0.727165
0
LINE
8
BLACK
6
CONTINUOUS
10
1.09601
20
0.727165
11
1.09566
21
0.729154
0
LINE
8
BLACK
6
CONTINUOUS
10
1.09566
20
0.729154
11
1.09667
21
0.730904
0
LINE
8
BLACK
6
CONTINUOUS
10
1.09667
20
0.730904
11
1.09857
21
0.731594
0
LINE
8
BLACK
6
CONTINUOUS
10
1.09857
20
0.731594
11
1.15857
21
0.731594
0
LINE
8
BLACK
6
CONTINUOUS
10
1.15857
20
0.731594
11
1.15958
21
0.731416
0
LINE
8
BLACK
6
CONTINUOUS
10
1.64345
20
0.741416
11
1.645
21
0.740118
0
LINE
8
BLACK
6
CONTINUOUS
10
1.645
20
0.740118
11
1.64535
21
0.738129
0
LINE
8
BLACK
6
CONTINUOUS
10
1.64535
20
0.738129
11
1.64434
21
0.73638
0
LINE
8
BLACK
6
CONTINUOUS
10
1.64434
20
0.73638
11
1.64244
21
0.735689
0
LINE
8
BLACK
6
CONTINUOUS
10
1.64244
20
0.735689
11
1.58244
21
0.735689
0
LINE
8
BLACK
6
CONTINUOUS
10
1.58244
20
0.735689
11
1.58143
21
0.735867
0
LINE
8
BLACK
6
CONTINUOUS
10
1.58143
20
0.735867
11
1.57988
21
0.737165
0
LINE
8
BLACK
6
CONTINUOUS
10
1.57988
20
0.737165
11
1.57953
21
0.739154
0
LINE
8
BLACK
6
CONTINUOUS
10
1.57953
20
0.739154
11
1.58054
21
0.740904
0
LINE
8
BLACK
6
CONTINUOUS
10
1.58054
20
0.740904
11
1.58244
21
0.741594
0
LINE
8
BLACK
6
CONTINUOUS
10
1.58244
20
0.741594
11
1.64244
21
0.741594
0
LINE
8
BLACK
6
CONTINUOUS
10
1.64244
20
0.741594
11
1.64345
21
0.741416
0
LINE
8
BLACK
6
CONTINUOUS
10
1.4536
20
0.754052
11
1.45429
21
0.752382
0
LINE
8
BLACK
6
CONTINUOUS
10
1.45429
20
0.752382
11
1.45429
21
0.746476
0
LINE
8
BLACK
6
CONTINUOUS
10
1.45429
20
0.746476
11
1.4536
21
0.744806
0
LINE
8
BLACK
6
CONTINUOUS
10
1.4536
20
0.744806
11
1.45193
21
0.744114
0
LINE
8
BLACK
6
CONTINUOUS
10
1.45193
20
0.744114
11
1.45026
21
0.744806
0
LINE
8
BLACK
6
CONTINUOUS
10
1.45026
20
0.744806
11
1.44957
21
0.746476
0
LINE
8
BLACK
6
CONTINUOUS
10
1.44957
20
0.746476
11
1.44957
21
0.75002
0
LINE
8
BLACK
6
CONTINUOUS
10
1.44957
20
0.75002
11
1.26531
21
0.75002
0
LINE
8
BLACK
6
CONTINUOUS
10
1.26531
20
0.75002
11
1.26531
21
0.746476
0
LINE
8
BLACK
6
CONTINUOUS
10
1.26531
20
0.746476
11
1.26462
21
0.744806
0
LINE
8
BLACK
6
CONTINUOUS
10
1.26462
20
0.744806
11
1.26295
21
0.744114
0
LINE
8
BLACK
6
CONTINUOUS
10
1.26295
20
0.744114
11
1.26128
21
0.744806
0
LINE
8
BLACK
6
CONTINUOUS
10
1.26128
20
0.744806
11
1.26059
21
0.746476
0
LINE
8
BLACK
6
CONTINUOUS
10
1.26059
20
0.746476
11
1.26059
21
0.752382
0
LINE
8
BLACK
6
CONTINUOUS
10
1.26059
20
0.752382
11
1.26128
21
0.754052
0
LINE
8
BLACK
6
CONTINUOUS
10
1.26128
20
0.754052
11
1.26295
21
0.754744
0
LINE
8
BLACK
6
CONTINUOUS
10
1.26295
20
0.754744
11
1.45193
21
0.754744
0
LINE
8
BLACK
6
CONTINUOUS
10
1.45193
20
0.754744
11
1.4536
21
0.754052
0
LINE
8
BLACK
6
CONTINUOUS
10
1.33149
20
0.999225
11
1.33166
21
0.999236
0
LINE
8
BLACK
6
CONTINUOUS
10
1.33166
20
0.999236
11
1.33235
21
0.998729
0
LINE
8
BLACK
6
CONTINUOUS
10
1.33235
20
0.998729
11
1.3331
21
0.9983
0
LINE
8
BLACK
6
CONTINUOUS
10
1.3331
20
0.9983
11
1.33315
21
0.998141
0
LINE
8
BLACK
6
CONTINUOUS
10
1.33315
20
0.998141
11
1.33329
21
0.99804
0
LINE
8
BLACK
6
CONTINUOUS
10
1.33329
20
0.99804
11
1.33688
21
0.992659
0
LINE
8
BLACK
6
CONTINUOUS
10
1.33688
20
0.992659
11
1.34008
21
0.989455
0
LINE
8
BLACK
6
CONTINUOUS
10
1.34008
20
0.989455
11
1.3434
21
0.987795
0
LINE
8
BLACK
6
CONTINUOUS
10
1.3434
20
0.987795
11
1.34423
21
0.987184
0
LINE
8
BLACK
6
CONTINUOUS
10
1.34423
20
0.987184
11
1.34503
21
0.985331
0
LINE
8
BLACK
6
CONTINUOUS
10
1.34503
20
0.985331
11
1.34445
21
0.983395
0
LINE
8
BLACK
6
CONTINUOUS
10
1.34445
20
0.983395
11
1.34277
21
0.982282
0
LINE
8
BLACK
6
CONTINUOUS
10
1.34277
20
0.982282
11
1.34076
21
0.982513
0
LINE
8
BLACK
6
CONTINUOUS
10
1.34076
20
0.982513
11
1.33701
21
0.984387
0
LINE
8
BLACK
6
CONTINUOUS
10
1.33701
20
0.984387
11
1.3363
21
0.984913
0
LINE
8
BLACK
6
CONTINUOUS
10
1.3363
20
0.984913
11
1.33625
21
0.984941
0
LINE
8
BLACK
6
CONTINUOUS
10
1.33625
20
0.984941
11
1.33379
21
0.987399
0
LINE
8
BLACK
6
CONTINUOUS
10
1.33379
20
0.987399
11
1.33379
21
0.959985
0
LINE
8
BLACK
6
CONTINUOUS
10
1.33379
20
0.959985
11
1.34208
21
0.959985
0
LINE
8
BLACK
6
CONTINUOUS
10
1.34208
20
0.959985
11
1.34309
21
0.959807
0
LINE
8
BLACK
6
CONTINUOUS
10
1.34309
20
0.959807
11
1.34464
21
0.958509
0
LINE
8
BLACK
6
CONTINUOUS
10
1.34464
20
0.958509
11
1.34499
21
0.95652
0
LINE
8
BLACK
6
CONTINUOUS
10
1.34499
20
0.95652
11
1.34398
21
0.95477
0
LINE
8
BLACK
6
CONTINUOUS
10
1.34398
20
0.95477
11
1.34208
21
0.95408
0
LINE
8
BLACK
6
CONTINUOUS
10
1.34208
20
0.95408
11
1.31959
21
0.95408
0
LINE
8
BLACK
6
CONTINUOUS
10
1.31959
20
0.95408
11
1.31858
21
0.954258
0
LINE
8
BLACK
6
CONTINUOUS
10
1.31858
20
0.954258
11
1.31703
21
0.955556
0
LINE
8
BLACK
6
CONTINUOUS
10
1.31703
20
0.955556
11
1.31668
21
0.957545
0
LINE
8
BLACK
6
CONTINUOUS
10
1.31668
20
0.957545
11
1.31769
21
0.959294
0
LINE
8
BLACK
6
CONTINUOUS
10
1.31769
20
0.959294
11
1.31959
21
0.959985
0
LINE
8
BLACK
6
CONTINUOUS
10
1.31959
20
0.959985
11
1.32788
21
0.959985
0
LINE
8
BLACK
6
CONTINUOUS
10
1.32788
20
0.959985
11
1.32788
21
0.996402
0
LINE
8
BLACK
6
CONTINUOUS
10
1.32788
20
0.996402
11
1.32806
21
0.997412
0
LINE
8
BLACK
6
CONTINUOUS
10
1.32806
20
0.997412
11
1.32817
21
0.997542
0
LINE
8
BLACK
6
CONTINUOUS
10
1.32817
20
0.997542
11
1.32819
21
0.997711
0
LINE
8
BLACK
6
CONTINUOUS
10
1.32819
20
0.997711
11
1.32881
21
0.998303
0
LINE
8
BLACK
6
CONTINUOUS
10
1.32881
20
0.998303
11
1.32936
21
0.99896
0
LINE
8
BLACK
6
CONTINUOUS
10
1.32936
20
0.99896
11
1.32953
21
0.998989
0
LINE
8
BLACK
6
CONTINUOUS
10
1.32953
20
0.998989
11
1.32965
21
0.999106
0
LINE
8
BLACK
6
CONTINUOUS
10
1.32965
20
0.999106
11
1.3305
21
0.999161
0
LINE
8
BLACK
6
CONTINUOUS
10
1.3305
20
0.999161
11
1.33135
21
0.99931
0
LINE
8
BLACK
6
CONTINUOUS
10
1.33135
20
0.99931
11
1.33149
21
0.999225
0
LINE
8
BLACK
6
CONTINUOUS
10
1.38371
20
0.9983
11
1.38441
21
0.996402
0
LINE
8
BLACK
6
CONTINUOUS
10
1.38441
20
0.996402
11
1.38441
21
0.964531
0
LINE
8
BLACK
6
CONTINUOUS
10
1.38441
20
0.964531
11
1.38423
21
0.963521
0
LINE
8
BLACK
6
CONTINUOUS
10
1.38423
20
0.963521
11
1.38411
21
0.963386
0
LINE
8
BLACK
6
CONTINUOUS
10
1.38411
20
0.963386
11
1.38409
21
0.963211
0
LINE
8
BLACK
6
CONTINUOUS
10
1.38409
20
0.963211
11
1.38222
21
0.959461
0
LINE
8
BLACK
6
CONTINUOUS
10
1.38222
20
0.959461
11
1.38169
21
0.958752
0
LINE
8
BLACK
6
CONTINUOUS
10
1.38169
20
0.958752
11
1.38167
21
0.958694
0
LINE
8
BLACK
6
CONTINUOUS
10
1.38167
20
0.958694
11
1.37979
21
0.956819
0
LINE
8
BLACK
6
CONTINUOUS
10
1.37979
20
0.956819
11
1.37907
21
0.956313
0
LINE
8
BLACK
6
CONTINUOUS
10
1.37907
20
0.956313
11
1.37902
21
0.956266
0
LINE
8
BLACK
6
CONTINUOUS
10
1.37902
20
0.956266
11
1.37527
21
0.954391
0
LINE
8
BLACK
6
CONTINUOUS
10
1.37527
20
0.954391
11
1.37429
21
0.954099
0
LINE
8
BLACK
6
CONTINUOUS
10
1.37429
20
0.954099
11
1.37412
21
0.95414
0
LINE
8
BLACK
6
CONTINUOUS
10
1.37412
20
0.95414
11
1.37395
21
0.95408
0
LINE
8
BLACK
6
CONTINUOUS
10
1.37395
20
0.95408
11
1.36645
21
0.95408
0
LINE
8
BLACK
6
CONTINUOUS
10
1.36645
20
0.95408
11
1.36544
21
0.954258
0
LINE
8
BLACK
6
CONTINUOUS
10
1.36544
20
0.954258
11
1.36531
21
0.954371
0
LINE
8
BLACK
6
CONTINUOUS
10
1.36531
20
0.954371
11
1.36513
21
0.954391
0
LINE
8
BLACK
6
CONTINUOUS
10
1.36513
20
0.954391
11
1.36138
21
0.956266
0
LINE
8
BLACK
6
CONTINUOUS
10
1.36138
20
0.956266
11
1.36068
21
0.956792
0
LINE
8
BLACK
6
CONTINUOUS
10
1.36068
20
0.956792
11
1.36062
21
0.956819
0
LINE
8
BLACK
6
CONTINUOUS
10
1.36062
20
0.956819
11
1.35874
21
0.958694
0
LINE
8
BLACK
6
CONTINUOUS
10
1.35874
20
0.958694
11
1.35824
21
0.959417
0
LINE
8
BLACK
6
CONTINUOUS
10
1.35824
20
0.959417
11
1.35819
21
0.959461
0
LINE
8
BLACK
6
CONTINUOUS
10
1.35819
20
0.959461
11
1.35631
21
0.963211
0
LINE
8
BLACK
6
CONTINUOUS
10
1.35631
20
0.963211
11
1.35602
21
0.964194
0
LINE
8
BLACK
6
CONTINUOUS
10
1.35602
20
0.964194
11
1.35606
21
0.964365
0
LINE
8
BLACK
6
CONTINUOUS
10
1.35606
20
0.964365
11
1.356
21
0.964531
0
LINE
8
BLACK
6
CONTINUOUS
10
1.356
20
0.964531
11
1.356
21
0.996402
0
LINE
8
BLACK
6
CONTINUOUS
10
1.356
20
0.996402
11
1.35618
21
0.997412
0
LINE
8
BLACK
6
CONTINUOUS
10
1.35618
20
0.997412
11
1.35748
21
0.99896
0
LINE
8
BLACK
6
CONTINUOUS
10
1.35748
20
0.99896
11
1.35947
21
0.99931
0
LINE
8
BLACK
6
CONTINUOUS
10
1.35947
20
0.99931
11
1.36122
21
0.9983
0
LINE
8
BLACK
6
CONTINUOUS
10
1.36122
20
0.9983
11
1.36191
21
0.996402
0
LINE
8
BLACK
6
CONTINUOUS
10
1.36191
20
0.996402
11
1.36191
21
0.965228
0
LINE
8
BLACK
6
CONTINUOUS
10
1.36191
20
0.965228
11
1.36326
21
0.962531
0
LINE
8
BLACK
6
CONTINUOUS
10
1.36326
20
0.962531
11
1.36445
21
0.961334
0
LINE
8
BLACK
6
CONTINUOUS
10
1.36445
20
0.961334
11
1.36715
21
0.959985
0
LINE
8
BLACK
6
CONTINUOUS
10
1.36715
20
0.959985
11
1.37326
21
0.959985
0
LINE
8
BLACK
6
CONTINUOUS
10
1.37326
20
0.959985
11
1.37595
21
0.961334
0
LINE
8
BLACK
6
CONTINUOUS
10
1.37595
20
0.961334
11
1.37715
21
0.962531
0
LINE
8
BLACK
6
CONTINUOUS
10
1.37715
20
0.962531
11
1.3785
21
0.965228
0
LINE
8
BLACK
6
CONTINUOUS
10
1.3785
20
0.965228
11
1.3785
21
0.996402
0
LINE
8
BLACK
6
CONTINUOUS
10
1.3785
20
0.996402
11
1.37868
21
0.997412
0
LINE
8
BLACK
6
CONTINUOUS
10
1.37868
20
0.997412
11
1.37998
21
0.99896
0
LINE
8
BLACK
6
CONTINUOUS
10
1.37998
20
0.99896
11
1.38197
21
0.99931
0
LINE
8
BLACK
6
CONTINUOUS
10
1.38197
20
0.99931
11
1.38371
21
0.9983
0
LINE
8
BLACK
6
CONTINUOUS
10
2.26562
20
0.993916
11
2.26716
21
0.992618
0
LINE
8
BLACK
6
CONTINUOUS
10
2.26716
20
0.992618
11
2.26751
21
0.990629
0
LINE
8
BLACK
6
CONTINUOUS
10
2.26751
20
0.990629
11
2.2665
21
0.98888
0
LINE
8
BLACK
6
CONTINUOUS
10
2.2665
20
0.98888
11
2.26461
21
0.988189
0
LINE
8
BLACK
6
CONTINUOUS
10
2.26461
20
0.988189
11
2.20461
21
0.988189
0
LINE
8
BLACK
6
CONTINUOUS
10
2.20461
20
0.988189
11
2.2036
21
0.988367
0
LINE
8
BLACK
6
CONTINUOUS
10
2.2036
20
0.988367
11
2.20205
21
0.989665
0
LINE
8
BLACK
6
CONTINUOUS
10
2.20205
20
0.989665
11
2.2017
21
0.991654
0
LINE
8
BLACK
6
CONTINUOUS
10
2.2017
20
0.991654
11
2.20271
21
0.993404
0
LINE
8
BLACK
6
CONTINUOUS
10
2.20271
20
0.993404
11
2.20461
21
0.994094
0
LINE
8
BLACK
6
CONTINUOUS
10
2.20461
20
0.994094
11
2.26461
21
0.994094
0
LINE
8
BLACK
6
CONTINUOUS
10
2.26461
20
0.994094
11
2.26562
21
0.993916
0
LINE
8
BLACK
6
CONTINUOUS
10
1.2553
20
1.00073
11
1.25461
21
1.0024
0
LINE
8
BLACK
6
CONTINUOUS
10
1.25461
20
1.0024
11
1.25461
21
1.00594
0
LINE
8
BLACK
6
CONTINUOUS
10
1.25461
20
1.00594
11
1.19004
21
1.00594
0
LINE
8
BLACK
6
CONTINUOUS
10
1.19004
20
1.00594
11
1.18837
21
1.00664
0
LINE
8
BLACK
6
CONTINUOUS
10
1.18837
20
1.00664
11
1.18768
21
1.00831
0
LINE
8
BLACK
6
CONTINUOUS
10
1.18768
20
1.00831
11
1.18837
21
1.00998
0
LINE
8
BLACK
6
CONTINUOUS
10
1.18837
20
1.00998
11
1.19004
21
1.01067
0
LINE
8
BLACK
6
CONTINUOUS
10
1.19004
20
1.01067
11
1.25697
21
1.01067
0
LINE
8
BLACK
6
CONTINUOUS
10
1.25697
20
1.01067
11
1.25864
21
1.00998
0
LINE
8
BLACK
6
CONTINUOUS
10
1.25864
20
1.00998
11
1.25933
21
1.00831
0
LINE
8
BLACK
6
CONTINUOUS
10
1.25933
20
1.00831
11
1.25933
21
1.00476
0
LINE
8
BLACK
6
CONTINUOUS
10
1.25933
20
1.00476
11
1.44358
21
1.00476
0
LINE
8
BLACK
6
CONTINUOUS
10
1.44358
20
1.00476
11
1.44358
21
1.00831
0
LINE
8
BLACK
6
CONTINUOUS
10
1.44358
20
1.00831
11
1.44427
21
1.00998
0
LINE
8
BLACK
6
CONTINUOUS
10
1.44427
20
1.00998
11
1.44594
21
1.01067
0
LINE
8
BLACK
6
CONTINUOUS
10
1.44594
20
1.01067
11
1.44762
21
1.00998
0
LINE
8
BLACK
6
CONTINUOUS
10
1.44762
20
1.00998
11
1.44831
21
1.00831
0
LINE
8
BLACK
6
CONTINUOUS
10
1.44831
20
1.00831
11
1.44831
21
1.0024
0
LINE
8
BLACK
6
CONTINUOUS
10
1.44831
20
1.0024
11
1.44762
21
1.00073
0
LINE
8
BLACK
6
CONTINUOUS
10
1.44762
20
1.00073
11
1.44594
21
1.00004
0
LINE
8
BLACK
6
CONTINUOUS
10
1.44594
20
1.00004
11
1.25697
21
1.00004
0
LINE
8
BLACK
6
CONTINUOUS
10
1.25697
20
1.00004
11
1.2553
21
1.00073
0
LINE
8
BLACK
6
CONTINUOUS
10
1.1536
20
1.00892
11
1.15514
21
1.00762
0
LINE
8
BLACK
6
CONTINUOUS
10
1.15514
20
1.00762
11
1.1555
21
1.00563
0
LINE
8
BLACK
6
CONTINUOUS
10
1.1555
20
1.00563
11
1.15449
21
1.00388
0
LINE
8
BLACK
6
CONTINUOUS
10
1.15449
20
1.00388
11
1.15259
21
1.00319
0
LINE
8
BLACK
6
CONTINUOUS
10
1.15259
20
1.00319
11
1.09259
21
1.00319
0
LINE
8
BLACK
6
CONTINUOUS
10
1.09259
20
1.00319
11
1.09158
21
1.00337
0
LINE
8
BLACK
6
CONTINUOUS
10
1.09158
20
1.00337
11
1.09003
21
1.00467
0
LINE
8
BLACK
6
CONTINUOUS
10
1.09003
20
1.00467
11
1.08968
21
1.00665
0
LINE
8
BLACK
6
CONTINUOUS
10
1.08968
20
1.00665
11
1.09069
21
1.0084
0
LINE
8
BLACK
6
CONTINUOUS
10
1.09069
20
1.0084
11
1.09259
21
1.00909
0
LINE
8
BLACK
6
CONTINUOUS
10
1.09259
20
1.00909
11
1.15259
21
1.00909
0
LINE
8
BLACK
6
CONTINUOUS
10
1.15259
20
1.00909
11
1.1536
21
1.00892
0
LINE
8
BLACK
6
CONTINUOUS
10
1.63747
20
1.01892
11
1.63901
21
1.01762
0
LINE
8
BLACK
6
CONTINUOUS
10
1.63901
20
1.01762
11
1.63936
21
1.01563
0
LINE
8
BLACK
6
CONTINUOUS
10
1.63936
20
1.01563
11
1.63835
21
1.01388
0
LINE
8
BLACK
6
CONTINUOUS
10
1.63835
20
1.01388
11
1.63646
21
1.01319
0
LINE
8
BLACK
6
CONTINUOUS
10
1.63646
20
1.01319
11
1.57646
21
1.01319
0
LINE
8
BLACK
6
CONTINUOUS
10
1.57646
20
1.01319
11
1.57545
21
1.01337
0
LINE
8
BLACK
6
CONTINUOUS
10
1.57545
20
1.01337
11
1.5739
21
1.01467
0
LINE
8
BLACK
6
CONTINUOUS
10
1.5739
20
1.01467
11
1.57355
21
1.01665
0
LINE
8
BLACK
6
CONTINUOUS
10
1.57355
20
1.01665
11
1.57456
21
1.0184
0
LINE
8
BLACK
6
CONTINUOUS
10
1.57456
20
1.0184
11
1.57646
21
1.01909
0
LINE
8
BLACK
6
CONTINUOUS
10
1.57646
20
1.01909
11
1.63646
21
1.01909
0
LINE
8
BLACK
6
CONTINUOUS
10
1.63646
20
1.01909
11
1.63747
21
1.01892
0
LINE
8
BLACK
6
CONTINUOUS
10
2.20628
20
1.06781
11
2.20697
21
1.06614
0
LINE
8
BLACK
6
CONTINUOUS
10
2.20697
20
1.06614
11
2.20697
21
1.03614
0
LINE
8
BLACK
6
CONTINUOUS
10
2.20697
20
1.03614
11
2.20628
21
1.03447
0
LINE
8
BLACK
6
CONTINUOUS
10
2.20628
20
1.03447
11
2.20461
21
1.03378
0
LINE
8
BLACK
6
CONTINUOUS
10
2.20461
20
1.03378
11
2.20294
21
1.03447
0
LINE
8
BLACK
6
CONTINUOUS
10
2.20294
20
1.03447
11
2.20224
21
1.03614
0
LINE
8
BLACK
6
CONTINUOUS
10
2.20224
20
1.03614
11
2.20224
21
1.06614
0
LINE
8
BLACK
6
CONTINUOUS
10
2.20224
20
1.06614
11
2.20294
21
1.06781
0
LINE
8
BLACK
6
CONTINUOUS
10
2.20294
20
1.06781
11
2.20461
21
1.0685
0
LINE
8
BLACK
6
CONTINUOUS
10
2.20461
20
1.0685
11
2.20628
21
1.06781
0
LINE
8
BLACK
6
CONTINUOUS
10
2.26628
20
1.06781
11
2.26697
21
1.06614
0
LINE
8
BLACK
6
CONTINUOUS
10
2.26697
20
1.06614
11
2.26697
21
1.03614
0
LINE
8
BLACK
6
CONTINUOUS
10
2.26697
20
1.03614
11
2.26628
21
1.03447
0
LINE
8
BLACK
6
CONTINUOUS
10
2.26628
20
1.03447
11
2.26461
21
1.03378
0
LINE
8
BLACK
6
CONTINUOUS
10
2.26461
20
1.03378
11
2.26294
21
1.03447
0
LINE
8
BLACK
6
CONTINUOUS
10
2.26294
20
1.03447
11
2.26224
21
1.03614
0
LINE
8
BLACK
6
CONTINUOUS
10
2.26224
20
1.03614
11
2.26224
21
1.06614
0
LINE
8
BLACK
6
CONTINUOUS
10
2.26224
20
1.06614
11
2.26294
21
1.06781
0
LINE
8
BLACK
6
CONTINUOUS
10
2.26294
20
1.06781
11
2.26461
21
1.0685
0
LINE
8
BLACK
6
CONTINUOUS
10
2.26461
20
1.0685
11
2.26628
21
1.06781
0
LINE
8
BLACK
6
CONTINUOUS
10
1.15426
20
1.08281
11
1.15495
21
1.08114
0
LINE
8
BLACK
6
CONTINUOUS
10
1.15495
20
1.08114
11
1.15495
21
1.05114
0
LINE
8
BLACK
6
CONTINUOUS
10
1.15495
20
1.05114
11
1.15426
21
1.04947
0
LINE
8
BLACK
6
CONTINUOUS
10
1.15426
20
1.04947
11
1.15259
21
1.04878
0
LINE
8
BLACK
6
CONTINUOUS
10
1.15259
20
1.04878
11
1.15092
21
1.04947
0
LINE
8
BLACK
6
CONTINUOUS
10
1.15092
20
1.04947
11
1.15023
21
1.05114
0
LINE
8
BLACK
6
CONTINUOUS
10
1.15023
20
1.05114
11
1.15023
21
1.08114
0
LINE
8
BLACK
6
CONTINUOUS
10
1.15023
20
1.08114
11
1.15092
21
1.08281
0
LINE
8
BLACK
6
CONTINUOUS
10
1.15092
20
1.08281
11
1.15259
21
1.0835
0
LINE
8
BLACK
6
CONTINUOUS
10
1.15259
20
1.0835
11
1.15426
21
1.08281
0
LINE
8
BLACK
6
CONTINUOUS
10
1.09426
20
1.08281
11
1.09495
21
1.08114
0
LINE
8
BLACK
6
CONTINUOUS
10
1.09495
20
1.08114
11
1.09495
21
1.05114
0
LINE
8
BLACK
6
CONTINUOUS
10
1.09495
20
1.05114
11
1.09426
21
1.04947
0
LINE
8
BLACK
6
CONTINUOUS
10
1.09426
20
1.04947
11
1.09259
21
1.04878
0
LINE
8
BLACK
6
CONTINUOUS
10
1.09259
20
1.04878
11
1.09092
21
1.04947
0
LINE
8
BLACK
6
CONTINUOUS
10
1.09092
20
1.04947
11
1.09023
21
1.05114
0
LINE
8
BLACK
6
CONTINUOUS
10
1.09023
20
1.05114
11
1.09023
21
1.08114
0
LINE
8
BLACK
6
CONTINUOUS
10
1.09023
20
1.08114
11
1.09092
21
1.08281
0
LINE
8
BLACK
6
CONTINUOUS
10
1.09092
20
1.08281
11
1.09259
21
1.0835
0
LINE
8
BLACK
6
CONTINUOUS
10
1.09259
20
1.0835
11
1.09426
21
1.08281
0
LINE
8
BLACK
6
CONTINUOUS
10
1.57813
20
1.09281
11
1.57882
21
1.09114
0
LINE
8
BLACK
6
CONTINUOUS
10
1.57882
20
1.09114
11
1.57882
21
1.06114
0
LINE
8
BLACK
6
CONTINUOUS
10
1.57882
20
1.06114
11
1.57813
21
1.05947
0
LINE
8
BLACK
6
CONTINUOUS
10
1.57813
20
1.05947
11
1.57646
21
1.05878
0
LINE
8
BLACK
6
CONTINUOUS
10
1.57646
20
1.05878
11
1.57479
21
1.05947
0
LINE
8
BLACK
6
CONTINUOUS
10
1.57479
20
1.05947
11
1.57409
21
1.06114
0
LINE
8
BLACK
6
CONTINUOUS
10
1.57409
20
1.06114
11
1.57409
21
1.09114
0
LINE
8
BLACK
6
CONTINUOUS
10
1.57409
20
1.09114
11
1.57479
21
1.09281
0
LINE
8
BLACK
6
CONTINUOUS
10
1.57479
20
1.09281
11
1.57646
21
1.0935
0
LINE
8
BLACK
6
CONTINUOUS
10
1.57646
20
1.0935
11
1.57813
21
1.09281
0
LINE
8
BLACK
6
CONTINUOUS
10
1.63813
20
1.09281
11
1.63882
21
1.09114
0
LINE
8
BLACK
6
CONTINUOUS
10
1.63882
20
1.09114
11
1.63882
21
1.06114
0
LINE
8
BLACK
6
CONTINUOUS
10
1.63882
20
1.06114
11
1.63813
21
1.05947
0
LINE
8
BLACK
6
CONTINUOUS
10
1.63813
20
1.05947
11
1.63646
21
1.05878
0
LINE
8
BLACK
6
CONTINUOUS
10
1.63646
20
1.05878
11
1.63479
21
1.05947
0
LINE
8
BLACK
6
CONTINUOUS
10
1.63479
20
1.05947
11
1.63409
21
1.06114
0
LINE
8
BLACK
6
CONTINUOUS
10
1.63409
20
1.06114
11
1.63409
21
1.09114
0
LINE
8
BLACK
6
CONTINUOUS
10
1.63409
20
1.09114
11
1.63479
21
1.09281
0
LINE
8
BLACK
6
CONTINUOUS
10
1.63479
20
1.09281
11
1.63646
21
1.0935
0
LINE
8
BLACK
6
CONTINUOUS
10
1.63646
20
1.0935
11
1.63813
21
1.09281
0
LINE
8
BLACK
6
CONTINUOUS
10
2.26562
20
1.11392
11
2.26716
21
1.11262
0
LINE
8
BLACK
6
CONTINUOUS
10
2.26716
20
1.11262
11
2.26751
21
1.11063
0
LINE
8
BLACK
6
CONTINUOUS
10
2.26751
20
1.11063
11
2.2665
21
1.10888
0
LINE
8
BLACK
6
CONTINUOUS
10
2.2665
20
1.10888
11
2.26461
21
1.10819
0
LINE
8
BLACK
6
CONTINUOUS
10
2.26461
20
1.10819
11
2.20461
21
1.10819
0
LINE
8
BLACK
6
CONTINUOUS
10
2.20461
20
1.10819
11
2.2036
21
1.10837
0
LINE
8
BLACK
6
CONTINUOUS
10
2.2036
20
1.10837
11
2.20205
21
1.10967
0
LINE
8
BLACK
6
CONTINUOUS
10
2.20205
20
1.10967
11
2.2017
21
1.11165
0
LINE
8
BLACK
6
CONTINUOUS
10
2.2017
20
1.11165
11
2.20271
21
1.1134
0
LINE
8
BLACK
6
CONTINUOUS
10
2.20271
20
1.1134
11
2.20461
21
1.11409
0
LINE
8
BLACK
6
CONTINUOUS
10
2.20461
20
1.11409
11
2.26461
21
1.11409
0
LINE
8
BLACK
6
CONTINUOUS
10
2.26461
20
1.11409
11
2.26562
21
1.11392
0
LINE
8
BLACK
6
CONTINUOUS
10
1.1536
20
1.12892
11
1.15514
21
1.12762
0
LINE
8
BLACK
6
CONTINUOUS
10
1.15514
20
1.12762
11
1.1555
21
1.12563
0
LINE
8
BLACK
6
CONTINUOUS
10
1.1555
20
1.12563
11
1.15449
21
1.12388
0
LINE
8
BLACK
6
CONTINUOUS
10
1.15449
20
1.12388
11
1.15259
21
1.12319
0
LINE
8
BLACK
6
CONTINUOUS
10
1.15259
20
1.12319
11
1.09259
21
1.12319
0
LINE
8
BLACK
6
CONTINUOUS
10
1.09259
20
1.12319
11
1.09158
21
1.12337
0
LINE
8
BLACK
6
CONTINUOUS
10
1.09158
20
1.12337
11
1.09003
21
1.12467
0
LINE
8
BLACK
6
CONTINUOUS
10
1.09003
20
1.12467
11
1.08968
21
1.12665
0
LINE
8
BLACK
6
CONTINUOUS
10
1.08968
20
1.12665
11
1.09069
21
1.1284
0
LINE
8
BLACK
6
CONTINUOUS
10
1.09069
20
1.1284
11
1.09259
21
1.12909
0
LINE
8
BLACK
6
CONTINUOUS
10
1.09259
20
1.12909
11
1.15259
21
1.12909
0
LINE
8
BLACK
6
CONTINUOUS
10
1.15259
20
1.12909
11
1.1536
21
1.12892
0
LINE
8
BLACK
6
CONTINUOUS
10
1.63747
20
1.13892
11
1.63901
21
1.13762
0
LINE
8
BLACK
6
CONTINUOUS
10
1.63901
20
1.13762
11
1.63936
21
1.13563
0
LINE
8
BLACK
6
CONTINUOUS
10
1.63936
20
1.13563
11
1.63835
21
1.13388
0
LINE
8
BLACK
6
CONTINUOUS
10
1.63835
20
1.13388
11
1.63646
21
1.13319
0
LINE
8
BLACK
6
CONTINUOUS
10
1.63646
20
1.13319
11
1.57646
21
1.13319
0
LINE
8
BLACK
6
CONTINUOUS
10
1.57646
20
1.13319
11
1.57545
21
1.13337
0
LINE
8
BLACK
6
CONTINUOUS
10
1.57545
20
1.13337
11
1.5739
21
1.13467
0
LINE
8
BLACK
6
CONTINUOUS
10
1.5739
20
1.13467
11
1.57355
21
1.13665
0
LINE
8
BLACK
6
CONTINUOUS
10
1.57355
20
1.13665
11
1.57456
21
1.1384
0
LINE
8
BLACK
6
CONTINUOUS
10
1.57456
20
1.1384
11
1.57646
21
1.13909
0
LINE
8
BLACK
6
CONTINUOUS
10
1.57646
20
1.13909
11
1.63646
21
1.13909
0
LINE
8
BLACK
6
CONTINUOUS
10
1.63646
20
1.13909
11
1.63747
21
1.13892
0
LINE
8
BLACK
6
CONTINUOUS
10
1.44762
20
1.16155
11
1.44831
21
1.15988
0
LINE
8
BLACK
6
CONTINUOUS
10
1.44831
20
1.15988
11
1.44831
21
1.15398
0
LINE
8
BLACK
6
CONTINUOUS
10
1.44831
20
1.15398
11
1.44762
21
1.15231
0
LINE
8
BLACK
6
CONTINUOUS
10
1.44762
20
1.15231
11
1.44594
21
1.15161
0
LINE
8
BLACK
6
CONTINUOUS
10
1.44594
20
1.15161
11
1.44427
21
1.15231
0
LINE
8
BLACK
6
CONTINUOUS
10
1.44427
20
1.15231
11
1.44358
21
1.15398
0
LINE
8
BLACK
6
CONTINUOUS
10
1.44358
20
1.15398
11
1.44358
21
1.15752
0
LINE
8
BLACK
6
CONTINUOUS
10
1.44358
20
1.15752
11
1.25933
21
1.15752
0
LINE
8
BLACK
6
CONTINUOUS
10
1.25933
20
1.15752
11
1.25933
21
1.15398
0
LINE
8
BLACK
6
CONTINUOUS
10
1.25933
20
1.15398
11
1.25864
21
1.15231
0
LINE
8
BLACK
6
CONTINUOUS
10
1.25864
20
1.15231
11
1.25697
21
1.15161
0
LINE
8
BLACK
6
CONTINUOUS
10
1.25697
20
1.15161
11
1.2553
21
1.15231
0
LINE
8
BLACK
6
CONTINUOUS
10
1.2553
20
1.15231
11
1.25461
21
1.15398
0
LINE
8
BLACK
6
CONTINUOUS
10
1.25461
20
1.15398
11
1.25461
21
1.15988
0
LINE
8
BLACK
6
CONTINUOUS
10
1.25461
20
1.15988
11
1.2553
21
1.16155
0
LINE
8
BLACK
6
CONTINUOUS
10
1.2553
20
1.16155
11
1.25697
21
1.16224
0
LINE
8
BLACK
6
CONTINUOUS
10
1.25697
20
1.16224
11
1.44594
21
1.16224
0
LINE
8
BLACK
6
CONTINUOUS
10
1.44594
20
1.16224
11
1.44762
21
1.16155
0
LINE
8
BLACK
6
CONTINUOUS
10
1.42015
20
1.32073
11
1.41946
21
1.3224
0
LINE
8
BLACK
6
CONTINUOUS
10
1.41946
20
1.3224
11
1.41946
21
1.32594
0
LINE
8
BLACK
6
CONTINUOUS
10
1.41946
20
1.32594
11
1.35489
21
1.32594
0
LINE
8
BLACK
6
CONTINUOUS
10
1.35489
20
1.32594
11
1.35322
21
1.32664
0
LINE
8
BLACK
6
CONTINUOUS
10
1.35322
20
1.32664
11
1.35253
21
1.32831
0
LINE
8
BLACK
6
CONTINUOUS
10
1.35253
20
1.32831
11
1.35322
21
1.32998
0
LINE
8
BLACK
6
CONTINUOUS
10
1.35322
20
1.32998
11
1.35489
21
1.33067
0
LINE
8
BLACK
6
CONTINUOUS
10
1.35489
20
1.33067
11
1.42182
21
1.33067
0
LINE
8
BLACK
6
CONTINUOUS
10
1.42182
20
1.33067
11
1.42349
21
1.32998
0
LINE
8
BLACK
6
CONTINUOUS
10
1.42349
20
1.32998
11
1.42418
21
1.32831
0
LINE
8
BLACK
6
CONTINUOUS
10
1.42418
20
1.32831
11
1.42418
21
1.32476
0
LINE
8
BLACK
6
CONTINUOUS
10
1.42418
20
1.32476
11
1.60844
21
1.32476
0
LINE
8
BLACK
6
CONTINUOUS
10
1.60844
20
1.32476
11
1.60844
21
1.32831
0
LINE
8
BLACK
6
CONTINUOUS
10
1.60844
20
1.32831
11
1.60913
21
1.32998
0
LINE
8
BLACK
6
CONTINUOUS
10
1.60913
20
1.32998
11
1.6108
21
1.33067
0
LINE
8
BLACK
6
CONTINUOUS
10
1.6108
20
1.33067
11
1.61247
21
1.32998
0
LINE
8
BLACK
6
CONTINUOUS
10
1.61247
20
1.32998
11
1.61316
21
1.32831
0
LINE
8
BLACK
6
CONTINUOUS
10
1.61316
20
1.32831
11
1.61316
21
1.3224
0
LINE
8
BLACK
6
CONTINUOUS
10
1.61316
20
1.3224
11
1.61247
21
1.32073
0
LINE
8
BLACK
6
CONTINUOUS
10
1.61247
20
1.32073
11
1.6108
21
1.32004
0
LINE
8
BLACK
6
CONTINUOUS
10
1.6108
20
1.32004
11
1.42182
21
1.32004
0
LINE
8
BLACK
6
CONTINUOUS
10
1.42182
20
1.32004
11
1.42015
21
1.32073
0
LINE
8
BLACK
6
CONTINUOUS
10
1.31747
20
1.34142
11
1.31901
21
1.34012
0
LINE
8
BLACK
6
CONTINUOUS
10
1.31901
20
1.34012
11
1.31936
21
1.33813
0
LINE
8
BLACK
6
CONTINUOUS
10
1.31936
20
1.33813
11
1.31835
21
1.33638
0
LINE
8
BLACK
6
CONTINUOUS
10
1.31835
20
1.33638
11
1.31646
21
1.33569
0
LINE
8
BLACK
6
CONTINUOUS
10
1.31646
20
1.33569
11
1.25646
21
1.33569
0
LINE
8
BLACK
6
CONTINUOUS
10
1.25646
20
1.33569
11
1.25545
21
1.33587
0
LINE
8
BLACK
6
CONTINUOUS
10
1.25545
20
1.33587
11
1.2539
21
1.33717
0
LINE
8
BLACK
6
CONTINUOUS
10
1.2539
20
1.33717
11
1.25355
21
1.33915
0
LINE
8
BLACK
6
CONTINUOUS
10
1.25355
20
1.33915
11
1.25456
21
1.3409
0
LINE
8
BLACK
6
CONTINUOUS
10
1.25456
20
1.3409
11
1.25646
21
1.34159
0
LINE
8
BLACK
6
CONTINUOUS
10
1.25646
20
1.34159
11
1.31646
21
1.34159
0
LINE
8
BLACK
6
CONTINUOUS
10
1.31646
20
1.34159
11
1.31747
21
1.34142
0
LINE
8
BLACK
6
CONTINUOUS
10
1.79634
20
1.34392
11
1.79788
21
1.34262
0
LINE
8
BLACK
6
CONTINUOUS
10
1.79788
20
1.34262
11
1.79823
21
1.34063
0
LINE
8
BLACK
6
CONTINUOUS
10
1.79823
20
1.34063
11
1.79722
21
1.33888
0
LINE
8
BLACK
6
CONTINUOUS
10
1.79722
20
1.33888
11
1.79533
21
1.33819
0
LINE
8
BLACK
6
CONTINUOUS
10
1.79533
20
1.33819
11
1.73533
21
1.33819
0
LINE
8
BLACK
6
CONTINUOUS
10
1.73533
20
1.33819
11
1.73432
21
1.33837
0
LINE
8
BLACK
6
CONTINUOUS
10
1.73432
20
1.33837
11
1.73277
21
1.33967
0
LINE
8
BLACK
6
CONTINUOUS
10
1.73277
20
1.33967
11
1.73242
21
1.34165
0
LINE
8
BLACK
6
CONTINUOUS
10
1.73242
20
1.34165
11
1.73343
21
1.3434
0
LINE
8
BLACK
6
CONTINUOUS
10
1.73343
20
1.3434
11
1.73533
21
1.34409
0
LINE
8
BLACK
6
CONTINUOUS
10
1.73533
20
1.34409
11
1.79533
21
1.34409
0
LINE
8
BLACK
6
CONTINUOUS
10
1.79533
20
1.34409
11
1.79634
21
1.34392
0
LINE
8
BLACK
6
CONTINUOUS
10
1.25813
20
1.41531
11
1.25882
21
1.41364
0
LINE
8
BLACK
6
CONTINUOUS
10
1.25882
20
1.41364
11
1.25882
21
1.38364
0
LINE
8
BLACK
6
CONTINUOUS
10
1.25882
20
1.38364
11
1.25813
21
1.38197
0
LINE
8
BLACK
6
CONTINUOUS
10
1.25813
20
1.38197
11
1.25646
21
1.38128
0
LINE
8
BLACK
6
CONTINUOUS
10
1.25646
20
1.38128
11
1.25479
21
1.38197
0
LINE
8
BLACK
6
CONTINUOUS
10
1.25479
20
1.38197
11
1.25409
21
1.38364
0
LINE
8
BLACK
6
CONTINUOUS
10
1.25409
20
1.38364
11
1.25409
21
1.41364
0
LINE
8
BLACK
6
CONTINUOUS
10
1.25409
20
1.41364
11
1.25479
21
1.41531
0
LINE
8
BLACK
6
CONTINUOUS
10
1.25479
20
1.41531
11
1.25646
21
1.416
0
LINE
8
BLACK
6
CONTINUOUS
10
1.25646
20
1.416
11
1.25813
21
1.41531
0
LINE
8
BLACK
6
CONTINUOUS
10
1.31813
20
1.41531
11
1.31882
21
1.41364
0
LINE
8
BLACK
6
CONTINUOUS
10
1.31882
20
1.41364
11
1.31882
21
1.38364
0
LINE
8
BLACK
6
CONTINUOUS
10
1.31882
20
1.38364
11
1.31813
21
1.38197
0
LINE
8
BLACK
6
CONTINUOUS
10
1.31813
20
1.38197
11
1.31646
21
1.38128
0
LINE
8
BLACK
6
CONTINUOUS
10
1.31646
20
1.38128
11
1.31479
21
1.38197
0
LINE
8
BLACK
6
CONTINUOUS
10
1.31479
20
1.38197
11
1.31409
21
1.38364
0
LINE
8
BLACK
6
CONTINUOUS
10
1.31409
20
1.38364
11
1.31409
21
1.41364
0
LINE
8
BLACK
6
CONTINUOUS
10
1.31409
20
1.41364
11
1.31479
21
1.41531
0
LINE
8
BLACK
6
CONTINUOUS
10
1.31479
20
1.41531
11
1.31646
21
1.416
0
LINE
8
BLACK
6
CONTINUOUS
10
1.31646
20
1.416
11
1.31813
21
1.41531
0
LINE
8
BLACK
6
CONTINUOUS
10
1.797
20
1.41781
11
1.79769
21
1.41614
0
LINE
8
BLACK
6
CONTINUOUS
10
1.79769
20
1.41614
11
1.79769
21
1.38614
0
LINE
8
BLACK
6
CONTINUOUS
10
1.79769
20
1.38614
11
1.797
21
1.38447
0
LINE
8
BLACK
6
CONTINUOUS
10
1.797
20
1.38447
11
1.79533
21
1.38378
0
LINE
8
BLACK
6
CONTINUOUS
10
1.79533
20
1.38378
11
1.79366
21
1.38447
0
LINE
8
BLACK
6
CONTINUOUS
10
1.79366
20
1.38447
11
1.79296
21
1.38614
0
LINE
8
BLACK
6
CONTINUOUS
10
1.79296
20
1.38614
11
1.79296
21
1.41614
0
LINE
8
BLACK
6
CONTINUOUS
10
1.79296
20
1.41614
11
1.79366
21
1.41781
0
LINE
8
BLACK
6
CONTINUOUS
10
1.79366
20
1.41781
11
1.79533
21
1.4185
0
LINE
8
BLACK
6
CONTINUOUS
10
1.79533
20
1.4185
11
1.797
21
1.41781
0
LINE
8
BLACK
6
CONTINUOUS
10
1.737
20
1.41781
11
1.73769
21
1.41614
0
LINE
8
BLACK
6
CONTINUOUS
10
1.73769
20
1.41614
11
1.73769
21
1.38614
0
LINE
8
BLACK
6
CONTINUOUS
10
1.73769
20
1.38614
11
1.737
21
1.38447
0
LINE
8
BLACK
6
CONTINUOUS
10
1.737
20
1.38447
11
1.73533
21
1.38378
0
LINE
8
BLACK
6
CONTINUOUS
10
1.73533
20
1.38378
11
1.73366
21
1.38447
0
LINE
8
BLACK
6
CONTINUOUS
10
1.73366
20
1.38447
11
1.73296
21
1.38614
0
LINE
8
BLACK
6
CONTINUOUS
10
1.73296
20
1.38614
11
1.73296
21
1.41614
0
LINE
8
BLACK
6
CONTINUOUS
10
1.73296
20
1.41614
11
1.73366
21
1.41781
0
LINE
8
BLACK
6
CONTINUOUS
10
1.73366
20
1.41781
11
1.73533
21
1.4185
0
LINE
8
BLACK
6
CONTINUOUS
10
1.73533
20
1.4185
11
1.737
21
1.41781
0
LINE
8
BLACK
6
CONTINUOUS
10
1.31747
20
1.46142
11
1.31901
21
1.46012
0
LINE
8
BLACK
6
CONTINUOUS
10
1.31901
20
1.46012
11
1.31936
21
1.45813
0
LINE
8
BLACK
6
CONTINUOUS
10
1.31936
20
1.45813
11
1.31835
21
1.45638
0
LINE
8
BLACK
6
CONTINUOUS
10
1.31835
20
1.45638
11
1.31646
21
1.45569
0
LINE
8
BLACK
6
CONTINUOUS
10
1.31646
20
1.45569
11
1.25646
21
1.45569
0
LINE
8
BLACK
6
CONTINUOUS
10
1.25646
20
1.45569
11
1.25545
21
1.45587
0
LINE
8
BLACK
6
CONTINUOUS
10
1.25545
20
1.45587
11
1.2539
21
1.45717
0
LINE
8
BLACK
6
CONTINUOUS
10
1.2539
20
1.45717
11
1.25355
21
1.45915
0
LINE
8
BLACK
6
CONTINUOUS
10
1.25355
20
1.45915
11
1.25456
21
1.4609
0
LINE
8
BLACK
6
CONTINUOUS
10
1.25456
20
1.4609
11
1.25646
21
1.46159
0
LINE
8
BLACK
6
CONTINUOUS
10
1.25646
20
1.46159
11
1.31646
21
1.46159
0
LINE
8
BLACK
6
CONTINUOUS
10
1.31646
20
1.46159
11
1.31747
21
1.46142
0
LINE
8
BLACK
6
CONTINUOUS
10
1.79634
20
1.46392
11
1.79788
21
1.46262
0
LINE
8
BLACK
6
CONTINUOUS
10
1.79788
20
1.46262
11
1.79823
21
1.46063
0
LINE
8
BLACK
6
CONTINUOUS
10
1.79823
20
1.46063
11
1.79722
21
1.45888
0
LINE
8
BLACK
6
CONTINUOUS
10
1.79722
20
1.45888
11
1.79533
21
1.45819
0
LINE
8
BLACK
6
CONTINUOUS
10
1.79533
20
1.45819
11
1.73533
21
1.45819
0
LINE
8
BLACK
6
CONTINUOUS
10
1.73533
20
1.45819
11
1.73432
21
1.45837
0
LINE
8
BLACK
6
CONTINUOUS
10
1.73432
20
1.45837
11
1.73277
21
1.45967
0
LINE
8
BLACK
6
CONTINUOUS
10
1.73277
20
1.45967
11
1.73242
21
1.46165
0
LINE
8
BLACK
6
CONTINUOUS
10
1.73242
20
1.46165
11
1.73343
21
1.4634
0
LINE
8
BLACK
6
CONTINUOUS
10
1.73343
20
1.4634
11
1.73533
21
1.46409
0
LINE
8
BLACK
6
CONTINUOUS
10
1.73533
20
1.46409
11
1.79533
21
1.46409
0
LINE
8
BLACK
6
CONTINUOUS
10
1.79533
20
1.46409
11
1.79634
21
1.46392
0
LINE
8
BLACK
6
CONTINUOUS
10
1.61247
20
1.48155
11
1.61316
21
1.47988
0
LINE
8
BLACK
6
CONTINUOUS
10
1.61316
20
1.47988
11
1.61316
21
1.47398
0
LINE
8
BLACK
6
CONTINUOUS
10
1.61316
20
1.47398
11
1.61247
21
1.47231
0
LINE
8
BLACK
6
CONTINUOUS
10
1.61247
20
1.47231
11
1.6108
21
1.47161
0
LINE
8
BLACK
6
CONTINUOUS
10
1.6108
20
1.47161
11
1.60913
21
1.47231
0
LINE
8
BLACK
6
CONTINUOUS
10
1.60913
20
1.47231
11
1.60844
21
1.47398
0
LINE
8
BLACK
6
CONTINUOUS
10
1.60844
20
1.47398
11
1.60844
21
1.47752
0
LINE
8
BLACK
6
CONTINUOUS
10
1.60844
20
1.47752
11
1.42418
21
1.47752
0
LINE
8
BLACK
6
CONTINUOUS
10
1.42418
20
1.47752
11
1.42418
21
1.47398
0
LINE
8
BLACK
6
CONTINUOUS
10
1.42418
20
1.47398
11
1.42349
21
1.47231
0
LINE
8
BLACK
6
CONTINUOUS
10
1.42349
20
1.47231
11
1.42182
21
1.47161
0
LINE
8
BLACK
6
CONTINUOUS
10
1.42182
20
1.47161
11
1.42015
21
1.47231
0
LINE
8
BLACK
6
CONTINUOUS
10
1.42015
20
1.47231
11
1.41946
21
1.47398
0
LINE
8
BLACK
6
CONTINUOUS
10
1.41946
20
1.47398
11
1.41946
21
1.47988
0
LINE
8
BLACK
6
CONTINUOUS
10
1.41946
20
1.47988
11
1.42015
21
1.48155
0
LINE
8
BLACK
6
CONTINUOUS
10
1.42015
20
1.48155
11
1.42182
21
1.48224
0
LINE
8
BLACK
6
CONTINUOUS
10
1.42182
20
1.48224
11
1.6108
21
1.48224
0
LINE
8
BLACK
6
CONTINUOUS
10
1.6108
20
1.48224
11
1.61247
21
1.48155
0
LINE
8
BLACK
6
CONTINUOUS
10
1.77371
20
1.5346
11
1.77441
21
1.5327
0
LINE
8
BLACK
6
CONTINUOUS
10
1.77441
20
1.5327
11
1.77441
21
1.50083
0
LINE
8
BLACK
6
CONTINUOUS
10
1.77441
20
1.50083
11
1.77423
21
1.49982
0
LINE
8
BLACK
6
CONTINUOUS
10
1.77423
20
1.49982
11
1.77411
21
1.49969
0
LINE
8
BLACK
6
CONTINUOUS
10
1.77411
20
1.49969
11
1.77409
21
1.49951
0
LINE
8
BLACK
6
CONTINUOUS
10
1.77409
20
1.49951
11
1.77222
21
1.49576
0
LINE
8
BLACK
6
CONTINUOUS
10
1.77222
20
1.49576
11
1.77169
21
1.49505
0
LINE
8
BLACK
6
CONTINUOUS
10
1.77169
20
1.49505
11
1.77167
21
1.49499
0
LINE
8
BLACK
6
CONTINUOUS
10
1.77167
20
1.49499
11
1.76979
21
1.49312
0
LINE
8
BLACK
6
CONTINUOUS
10
1.76979
20
1.49312
11
1.76907
21
1.49261
0
LINE
8
BLACK
6
CONTINUOUS
10
1.76907
20
1.49261
11
1.76902
21
1.49257
0
LINE
8
BLACK
6
CONTINUOUS
10
1.76902
20
1.49257
11
1.76527
21
1.49069
0
LINE
8
BLACK
6
CONTINUOUS
10
1.76527
20
1.49069
11
1.76429
21
1.4904
0
LINE
8
BLACK
6
CONTINUOUS
10
1.76429
20
1.4904
11
1.76412
21
1.49044
0
LINE
8
BLACK
6
CONTINUOUS
10
1.76412
20
1.49044
11
1.76395
21
1.49038
0
LINE
8
BLACK
6
CONTINUOUS
10
1.76395
20
1.49038
11
1.75645
21
1.49038
0
LINE
8
BLACK
6
CONTINUOUS
10
1.75645
20
1.49038
11
1.75544
21
1.49056
0
LINE
8
BLACK
6
CONTINUOUS
10
1.75544
20
1.49056
11
1.75531
21
1.49067
0
LINE
8
BLACK
6
CONTINUOUS
10
1.75531
20
1.49067
11
1.75513
21
1.49069
0
LINE
8
BLACK
6
CONTINUOUS
10
1.75513
20
1.49069
11
1.75138
21
1.49257
0
LINE
8
BLACK
6
CONTINUOUS
10
1.75138
20
1.49257
11
1.75068
21
1.49309
0
LINE
8
BLACK
6
CONTINUOUS
10
1.75068
20
1.49309
11
1.75062
21
1.49312
0
LINE
8
BLACK
6
CONTINUOUS
10
1.75062
20
1.49312
11
1.74874
21
1.49499
0
LINE
8
BLACK
6
CONTINUOUS
10
1.74874
20
1.49499
11
1.74824
21
1.49572
0
LINE
8
BLACK
6
CONTINUOUS
10
1.74824
20
1.49572
11
1.74819
21
1.49576
0
LINE
8
BLACK
6
CONTINUOUS
10
1.74819
20
1.49576
11
1.74631
21
1.49951
0
LINE
8
BLACK
6
CONTINUOUS
10
1.74631
20
1.49951
11
1.74602
21
1.50049
0
LINE
8
BLACK
6
CONTINUOUS
10
1.74602
20
1.50049
11
1.74606
21
1.50066
0
LINE
8
BLACK
6
CONTINUOUS
10
1.74606
20
1.50066
11
1.746
21
1.50083
0
LINE
8
BLACK
6
CONTINUOUS
10
1.746
20
1.50083
11
1.746
21
1.5327
0
LINE
8
BLACK
6
CONTINUOUS
10
1.746
20
1.5327
11
1.74618
21
1.53371
0
LINE
8
BLACK
6
CONTINUOUS
10
1.74618
20
1.53371
11
1.74748
21
1.53526
0
LINE
8
BLACK
6
CONTINUOUS
10
1.74748
20
1.53526
11
1.74947
21
1.53561
0
LINE
8
BLACK
6
CONTINUOUS
10
1.74947
20
1.53561
11
1.75122
21
1.5346
0
LINE
8
BLACK
6
CONTINUOUS
10
1.75122
20
1.5346
11
1.75191
21
1.5327
0
LINE
8
BLACK
6
CONTINUOUS
10
1.75191
20
1.5327
11
1.75191
21
1.50153
0
LINE
8
BLACK
6
CONTINUOUS
10
1.75191
20
1.50153
11
1.75326
21
1.49883
0
LINE
8
BLACK
6
CONTINUOUS
10
1.75326
20
1.49883
11
1.75445
21
1.49763
0
LINE
8
BLACK
6
CONTINUOUS
10
1.75445
20
1.49763
11
1.75715
21
1.49628
0
LINE
8
BLACK
6
CONTINUOUS
10
1.75715
20
1.49628
11
1.76326
21
1.49628
0
LINE
8
BLACK
6
CONTINUOUS
10
1.76326
20
1.49628
11
1.76595
21
1.49763
0
LINE
8
BLACK
6
CONTINUOUS
10
1.76595
20
1.49763
11
1.76715
21
1.49883
0
LINE
8
BLACK
6
CONTINUOUS
10
1.76715
20
1.49883
11
1.7685
21
1.50153
0
LINE
8
BLACK
6
CONTINUOUS
10
1.7685
20
1.50153
11
1.7685
21
1.5327
0
LINE
8
BLACK
6
CONTINUOUS
10
1.7685
20
1.5327
11
1.76868
21
1.53371
0
LINE
8
BLACK
6
CONTINUOUS
10
1.76868
20
1.53371
11
1.76998
21
1.53526
0
LINE
8
BLACK
6
CONTINUOUS
10
1.76998
20
1.53526
11
1.77197
21
1.53561
0
LINE
8
BLACK
6
CONTINUOUS
10
1.77197
20
1.53561
11
1.77371
21
1.5346
0
LINE
8
BLACK
6
CONTINUOUS
10
1.72425
20
1.53709
11
1.72551
21
1.53551
0
LINE
8
BLACK
6
CONTINUOUS
10
1.72551
20
1.53551
11
1.73488
21
1.50739
0
LINE
8
BLACK
6
CONTINUOUS
10
1.73488
20
1.50739
11
1.73503
21
1.50637
0
LINE
8
BLACK
6
CONTINUOUS
10
1.73503
20
1.50637
11
1.73495
21
1.50616
0
LINE
8
BLACK
6
CONTINUOUS
10
1.73495
20
1.50616
11
1.73499
21
1.50594
0
LINE
8
BLACK
6
CONTINUOUS
10
1.73499
20
1.50594
11
1.73459
21
1.50524
0
LINE
8
BLACK
6
CONTINUOUS
10
1.73459
20
1.50524
11
1.73429
21
1.5045
0
LINE
8
BLACK
6
CONTINUOUS
10
1.73429
20
1.5045
11
1.73409
21
1.50439
0
LINE
8
BLACK
6
CONTINUOUS
10
1.73409
20
1.50439
11
1.73398
21
1.50419
0
LINE
8
BLACK
6
CONTINUOUS
10
1.73398
20
1.50419
11
1.73322
21
1.50392
0
LINE
8
BLACK
6
CONTINUOUS
10
1.73322
20
1.50392
11
1.73252
21
1.50353
0
LINE
8
BLACK
6
CONTINUOUS
10
1.73252
20
1.50353
11
1.73229
21
1.50358
0
LINE
8
BLACK
6
CONTINUOUS
10
1.73229
20
1.50358
11
1.73208
21
1.5035
0
LINE
8
BLACK
6
CONTINUOUS
10
1.73208
20
1.5035
11
1.71629
21
1.5035
0
LINE
8
BLACK
6
CONTINUOUS
10
1.71629
20
1.5035
11
1.71629
21
1.49333
0
LINE
8
BLACK
6
CONTINUOUS
10
1.71629
20
1.49333
11
1.71611
21
1.49232
0
LINE
8
BLACK
6
CONTINUOUS
10
1.71611
20
1.49232
11
1.71481
21
1.49077
0
LINE
8
BLACK
6
CONTINUOUS
10
1.71481
20
1.49077
11
1.71282
21
1.49042
0
LINE
8
BLACK
6
CONTINUOUS
10
1.71282
20
1.49042
11
1.71107
21
1.49143
0
LINE
8
BLACK
6
CONTINUOUS
10
1.71107
20
1.49143
11
1.71038
21
1.49333
0
LINE
8
BLACK
6
CONTINUOUS
10
1.71038
20
1.49333
11
1.71038
21
1.5035
0
LINE
8
BLACK
6
CONTINUOUS
10
1.71038
20
1.5035
11
1.70771
21
1.5035
0
LINE
8
BLACK
6
CONTINUOUS
10
1.70771
20
1.5035
11
1.7067
21
1.50368
0
LINE
8
BLACK
6
CONTINUOUS
10
1.7067
20
1.50368
11
1.70515
21
1.50498
0
LINE
8
BLACK
6
CONTINUOUS
10
1.70515
20
1.50498
11
1.7048
21
1.50697
0
LINE
8
BLACK
6
CONTINUOUS
10
1.7048
20
1.50697
11
1.70581
21
1.50872
0
LINE
8
BLACK
6
CONTINUOUS
10
1.70581
20
1.50872
11
1.70771
21
1.50941
0
LINE
8
BLACK
6
CONTINUOUS
10
1.70771
20
1.50941
11
1.71038
21
1.50941
0
LINE
8
BLACK
6
CONTINUOUS
10
1.71038
20
1.50941
11
1.71038
21
1.51958
0
LINE
8
BLACK
6
CONTINUOUS
10
1.71038
20
1.51958
11
1.71056
21
1.52059
0
LINE
8
BLACK
6
CONTINUOUS
10
1.71056
20
1.52059
11
1.71186
21
1.52214
0
LINE
8
BLACK
6
CONTINUOUS
10
1.71186
20
1.52214
11
1.71385
21
1.52249
0
LINE
8
BLACK
6
CONTINUOUS
10
1.71385
20
1.52249
11
1.7156
21
1.52148
0
LINE
8
BLACK
6
CONTINUOUS
10
1.7156
20
1.52148
11
1.71629
21
1.51958
0
LINE
8
BLACK
6
CONTINUOUS
10
1.71629
20
1.51958
11
1.71629
21
1.50941
0
LINE
8
BLACK
6
CONTINUOUS
10
1.71629
20
1.50941
11
1.72799
21
1.50941
0
LINE
8
BLACK
6
CONTINUOUS
10
1.72799
20
1.50941
11
1.71991
21
1.53364
0
LINE
8
BLACK
6
CONTINUOUS
10
1.71991
20
1.53364
11
1.71976
21
1.53466
0
LINE
8
BLACK
6
CONTINUOUS
10
1.71976
20
1.53466
11
1.7205
21
1.53654
0
LINE
8
BLACK
6
CONTINUOUS
10
1.7205
20
1.53654
11
1.72228
21
1.5375
0
LINE
8
BLACK
6
CONTINUOUS
10
1.72228
20
1.5375
11
1.72425
21
1.53709
0
LINE
8
BLACK
6
CONTINUOUS
10
1.31747
20
1.52142
11
1.31901
21
1.52012
0
LINE
8
BLACK
6
CONTINUOUS
10
1.31901
20
1.52012
11
1.31936
21
1.51813
0
LINE
8
BLACK
6
CONTINUOUS
10
1.31936
20
1.51813
11
1.31835
21
1.51638
0
LINE
8
BLACK
6
CONTINUOUS
10
1.31835
20
1.51638
11
1.31646
21
1.51569
0
LINE
8
BLACK
6
CONTINUOUS
10
1.31646
20
1.51569
11
1.25646
21
1.51569
0
LINE
8
BLACK
6
CONTINUOUS
10
1.25646
20
1.51569
11
1.25545
21
1.51587
0
LINE
8
BLACK
6
CONTINUOUS
10
1.25545
20
1.51587
11
1.2539
21
1.51717
0
LINE
8
BLACK
6
CONTINUOUS
10
1.2539
20
1.51717
11
1.25355
21
1.51915
0
LINE
8
BLACK
6
CONTINUOUS
10
1.25355
20
1.51915
11
1.25456
21
1.5209
0
LINE
8
BLACK
6
CONTINUOUS
10
1.25456
20
1.5209
11
1.25646
21
1.52159
0
LINE
8
BLACK
6
CONTINUOUS
10
1.25646
20
1.52159
11
1.31646
21
1.52159
0
LINE
8
BLACK
6
CONTINUOUS
10
1.31646
20
1.52159
11
1.31747
21
1.52142
0
LINE
8
BLACK
6
CONTINUOUS
10
1.19872
20
1.59304
11
1.19941
21
1.59114
0
LINE
8
BLACK
6
CONTINUOUS
10
1.19941
20
1.59114
11
1.19941
21
1.53114
0
LINE
8
BLACK
6
CONTINUOUS
10
1.19941
20
1.53114
11
1.19923
21
1.53013
0
LINE
8
BLACK
6
CONTINUOUS
10
1.19923
20
1.53013
11
1.19793
21
1.52858
0
LINE
8
BLACK
6
CONTINUOUS
10
1.19793
20
1.52858
11
1.19594
21
1.52823
0
LINE
8
BLACK
6
CONTINUOUS
10
1.19594
20
1.52823
11
1.19419
21
1.52924
0
LINE
8
BLACK
6
CONTINUOUS
10
1.19419
20
1.52924
11
1.1935
21
1.53114
0
LINE
8
BLACK
6
CONTINUOUS
10
1.1935
20
1.53114
11
1.1935
21
1.59114
0
LINE
8
BLACK
6
CONTINUOUS
10
1.1935
20
1.59114
11
1.19368
21
1.59215
0
LINE
8
BLACK
6
CONTINUOUS
10
1.19368
20
1.59215
11
1.19498
21
1.5937
0
LINE
8
BLACK
6
CONTINUOUS
10
1.19498
20
1.5937
11
1.19697
21
1.59405
0
LINE
8
BLACK
6
CONTINUOUS
10
1.19697
20
1.59405
11
1.19872
21
1.59304
0
LINE
8
BLACK
6
CONTINUOUS
10
1.07872
20
1.59304
11
1.07941
21
1.59114
0
LINE
8
BLACK
6
CONTINUOUS
10
1.07941
20
1.59114
11
1.07941
21
1.53114
0
LINE
8
BLACK
6
CONTINUOUS
10
1.07941
20
1.53114
11
1.07923
21
1.53013
0
LINE
8
BLACK
6
CONTINUOUS
10
1.07923
20
1.53013
11
1.07793
21
1.52858
0
LINE
8
BLACK
6
CONTINUOUS
10
1.07793
20
1.52858
11
1.07594
21
1.52823
0
LINE
8
BLACK
6
CONTINUOUS
10
1.07594
20
1.52823
11
1.07419
21
1.52924
0
LINE
8
BLACK
6
CONTINUOUS
10
1.07419
20
1.52924
11
1.0735
21
1.53114
0
LINE
8
BLACK
6
CONTINUOUS
10
1.0735
20
1.53114
11
1.0735
21
1.59114
0
LINE
8
BLACK
6
CONTINUOUS
10
1.0735
20
1.59114
11
1.07368
21
1.59215
0
LINE
8
BLACK
6
CONTINUOUS
10
1.07368
20
1.59215
11
1.07498
21
1.5937
0
LINE
8
BLACK
6
CONTINUOUS
10
1.07498
20
1.5937
11
1.07697
21
1.59405
0
LINE
8
BLACK
6
CONTINUOUS
10
1.07697
20
1.59405
11
1.07872
21
1.59304
0
LINE
8
BLACK
6
CONTINUOUS
10
1.15313
20
1.53281
11
1.15382
21
1.53114
0
LINE
8
BLACK
6
CONTINUOUS
10
1.15382
20
1.53114
11
1.15313
21
1.52947
0
LINE
8
BLACK
6
CONTINUOUS
10
1.15313
20
1.52947
11
1.15146
21
1.52878
0
LINE
8
BLACK
6
CONTINUOUS
10
1.15146
20
1.52878
11
1.12146
21
1.52878
0
LINE
8
BLACK
6
CONTINUOUS
10
1.12146
20
1.52878
11
1.11979
21
1.52947
0
LINE
8
BLACK
6
CONTINUOUS
10
1.11979
20
1.52947
11
1.11909
21
1.53114
0
LINE
8
BLACK
6
CONTINUOUS
10
1.11909
20
1.53114
11
1.11979
21
1.53281
0
LINE
8
BLACK
6
CONTINUOUS
10
1.11979
20
1.53281
11
1.12146
21
1.5335
0
LINE
8
BLACK
6
CONTINUOUS
10
1.12146
20
1.5335
11
1.15146
21
1.5335
0
LINE
8
BLACK
6
CONTINUOUS
10
1.15146
20
1.5335
11
1.15313
21
1.53281
0
LINE
8
BLACK
6
CONTINUOUS
10
1.25813
20
1.59531
11
1.25882
21
1.59364
0
LINE
8
BLACK
6
CONTINUOUS
10
1.25882
20
1.59364
11
1.25882
21
1.56364
0
LINE
8
BLACK
6
CONTINUOUS
10
1.25882
20
1.56364
11
1.25813
21
1.56197
0
LINE
8
BLACK
6
CONTINUOUS
10
1.25813
20
1.56197
11
1.25646
21
1.56128
0
LINE
8
BLACK
6
CONTINUOUS
10
1.25646
20
1.56128
11
1.25479
21
1.56197
0
LINE
8
BLACK
6
CONTINUOUS
10
1.25479
20
1.56197
11
1.25409
21
1.56364
0
LINE
8
BLACK
6
CONTINUOUS
10
1.25409
20
1.56364
11
1.25409
21
1.59364
0
LINE
8
BLACK
6
CONTINUOUS
10
1.25409
20
1.59364
11
1.25479
21
1.59531
0
LINE
8
BLACK
6
CONTINUOUS
10
1.25479
20
1.59531
11
1.25646
21
1.596
0
LINE
8
BLACK
6
CONTINUOUS
10
1.25646
20
1.596
11
1.25813
21
1.59531
0
LINE
8
BLACK
6
CONTINUOUS
10
1.31813
20
1.59531
11
1.31882
21
1.59364
0
LINE
8
BLACK
6
CONTINUOUS
10
1.31882
20
1.59364
11
1.31882
21
1.56364
0
LINE
8
BLACK
6
CONTINUOUS
10
1.31882
20
1.56364
11
1.31813
21
1.56197
0
LINE
8
BLACK
6
CONTINUOUS
10
1.31813
20
1.56197
11
1.31646
21
1.56128
0
LINE
8
BLACK
6
CONTINUOUS
10
1.31646
20
1.56128
11
1.31479
21
1.56197
0
LINE
8
BLACK
6
CONTINUOUS
10
1.31479
20
1.56197
11
1.31409
21
1.56364
0
LINE
8
BLACK
6
CONTINUOUS
10
1.31409
20
1.56364
11
1.31409
21
1.59364
0
LINE
8
BLACK
6
CONTINUOUS
10
1.31409
20
1.59364
11
1.31479
21
1.59531
0
LINE
8
BLACK
6
CONTINUOUS
10
1.31479
20
1.59531
11
1.31646
21
1.596
0
LINE
8
BLACK
6
CONTINUOUS
10
1.31646
20
1.596
11
1.31813
21
1.59531
0
LINE
8
BLACK
6
CONTINUOUS
10
1.15313
20
1.59281
11
1.15382
21
1.59114
0
LINE
8
BLACK
6
CONTINUOUS
10
1.15382
20
1.59114
11
1.15313
21
1.58947
0
LINE
8
BLACK
6
CONTINUOUS
10
1.15313
20
1.58947
11
1.15146
21
1.58878
0
LINE
8
BLACK
6
CONTINUOUS
10
1.15146
20
1.58878
11
1.12146
21
1.58878
0
LINE
8
BLACK
6
CONTINUOUS
10
1.12146
20
1.58878
11
1.11979
21
1.58947
0
LINE
8
BLACK
6
CONTINUOUS
10
1.11979
20
1.58947
11
1.11909
21
1.59114
0
LINE
8
BLACK
6
CONTINUOUS
10
1.11909
20
1.59114
11
1.11979
21
1.59281
0
LINE
8
BLACK
6
CONTINUOUS
10
1.11979
20
1.59281
11
1.12146
21
1.5935
0
LINE
8
BLACK
6
CONTINUOUS
10
1.12146
20
1.5935
11
1.15146
21
1.5935
0
LINE
8
BLACK
6
CONTINUOUS
10
1.15146
20
1.5935
11
1.15313
21
1.59281
0
LINE
8
BLACK
6
CONTINUOUS
10
1.40929
20
1.63448
11
1.40859
21
1.63615
0
LINE
8
BLACK
6
CONTINUOUS
10
1.40859
20
1.63615
11
1.40859
21
1.63969
0
LINE
8
BLACK
6
CONTINUOUS
10
1.40859
20
1.63969
11
1.34403
21
1.63969
0
LINE
8
BLACK
6
CONTINUOUS
10
1.34403
20
1.63969
11
1.34236
21
1.64039
0
LINE
8
BLACK
6
CONTINUOUS
10
1.34236
20
1.64039
11
1.34167
21
1.64206
0
LINE
8
BLACK
6
CONTINUOUS
10
1.34167
20
1.64206
11
1.34236
21
1.64373
0
LINE
8
BLACK
6
CONTINUOUS
10
1.34236
20
1.64373
11
1.34403
21
1.64442
0
LINE
8
BLACK
6
CONTINUOUS
10
1.34403
20
1.64442
11
1.41096
21
1.64442
0
LINE
8
BLACK
6
CONTINUOUS
10
1.41096
20
1.64442
11
1.41263
21
1.64373
0
LINE
8
BLACK
6
CONTINUOUS
10
1.41263
20
1.64373
11
1.41332
21
1.64206
0
LINE
8
BLACK
6
CONTINUOUS
10
1.41332
20
1.64206
11
1.41332
21
1.63851
0
LINE
8
BLACK
6
CONTINUOUS
10
1.41332
20
1.63851
11
1.59757
21
1.63851
0
LINE
8
BLACK
6
CONTINUOUS
10
1.59757
20
1.63851
11
1.59757
21
1.64206
0
LINE
8
BLACK
6
CONTINUOUS
10
1.59757
20
1.64206
11
1.59826
21
1.64373
0
LINE
8
BLACK
6
CONTINUOUS
10
1.59826
20
1.64373
11
1.59993
21
1.64442
0
LINE
8
BLACK
6
CONTINUOUS
10
1.59993
20
1.64442
11
1.6016
21
1.64373
0
LINE
8
BLACK
6
CONTINUOUS
10
1.6016
20
1.64373
11
1.6023
21
1.64206
0
LINE
8
BLACK
6
CONTINUOUS
10
1.6023
20
1.64206
11
1.6023
21
1.63615
0
LINE
8
BLACK
6
CONTINUOUS
10
1.6023
20
1.63615
11
1.6016
21
1.63448
0
LINE
8
BLACK
6
CONTINUOUS
10
1.6016
20
1.63448
11
1.59993
21
1.63379
0
LINE
8
BLACK
6
CONTINUOUS
10
1.59993
20
1.63379
11
1.41096
21
1.63379
0
LINE
8
BLACK
6
CONTINUOUS
10
1.41096
20
1.63379
11
1.40929
21
1.63448
0
LINE
8
BLACK
6
CONTINUOUS
10
1.31747
20
1.64142
11
1.31901
21
1.64012
0
LINE
8
BLACK
6
CONTINUOUS
10
1.31901
20
1.64012
11
1.31936
21
1.63813
0
LINE
8
BLACK
6
CONTINUOUS
10
1.31936
20
1.63813
11
1.31835
21
1.63638
0
LINE
8
BLACK
6
CONTINUOUS
10
1.31835
20
1.63638
11
1.31646
21
1.63569
0
LINE
8
BLACK
6
CONTINUOUS
10
1.31646
20
1.63569
11
1.25646
21
1.63569
0
LINE
8
BLACK
6
CONTINUOUS
10
1.25646
20
1.63569
11
1.25545
21
1.63587
0
LINE
8
BLACK
6
CONTINUOUS
10
1.25545
20
1.63587
11
1.2539
21
1.63717
0
LINE
8
BLACK
6
CONTINUOUS
10
1.2539
20
1.63717
11
1.25355
21
1.63915
0
LINE
8
BLACK
6
CONTINUOUS
10
1.25355
20
1.63915
11
1.25456
21
1.6409
0
LINE
8
BLACK
6
CONTINUOUS
10
1.25456
20
1.6409
11
1.25646
21
1.64159
0
LINE
8
BLACK
6
CONTINUOUS
10
1.25646
20
1.64159
11
1.31646
21
1.64159
0
LINE
8
BLACK
6
CONTINUOUS
10
1.31646
20
1.64159
11
1.31747
21
1.64142
0
LINE
8
BLACK
6
CONTINUOUS
10
1.78646
20
1.65767
11
1.788
21
1.65637
0
LINE
8
BLACK
6
CONTINUOUS
10
1.788
20
1.65637
11
1.78835
21
1.65438
0
LINE
8
BLACK
6
CONTINUOUS
10
1.78835
20
1.65438
11
1.78734
21
1.65263
0
LINE
8
BLACK
6
CONTINUOUS
10
1.78734
20
1.65263
11
1.78545
21
1.65194
0
LINE
8
BLACK
6
CONTINUOUS
10
1.78545
20
1.65194
11
1.72545
21
1.65194
0
LINE
8
BLACK
6
CONTINUOUS
10
1.72545
20
1.65194
11
1.72444
21
1.65212
0
LINE
8
BLACK
6
CONTINUOUS
10
1.72444
20
1.65212
11
1.72289
21
1.65342
0
LINE
8
BLACK
6
CONTINUOUS
10
1.72289
20
1.65342
11
1.72254
21
1.6554
0
LINE
8
BLACK
6
CONTINUOUS
10
1.72254
20
1.6554
11
1.72355
21
1.65715
0
LINE
8
BLACK
6
CONTINUOUS
10
1.72355
20
1.65715
11
1.72545
21
1.65784
0
LINE
8
BLACK
6
CONTINUOUS
10
1.72545
20
1.65784
11
1.78545
21
1.65784
0
LINE
8
BLACK
6
CONTINUOUS
10
1.78545
20
1.65784
11
1.78646
21
1.65767
0
LINE
8
BLACK
6
CONTINUOUS
10
1.14538
20
1.68065
11
1.14607
21
1.67898
0
LINE
8
BLACK
6
CONTINUOUS
10
1.14607
20
1.67898
11
1.14538
21
1.67731
0
LINE
8
BLACK
6
CONTINUOUS
10
1.14538
20
1.67731
11
1.14371
21
1.67661
0
LINE
8
BLACK
6
CONTINUOUS
10
1.14371
20
1.67661
11
1.12314
21
1.67661
0
LINE
8
BLACK
6
CONTINUOUS
10
1.12314
20
1.67661
11
1.12147
21
1.67731
0
LINE
8
BLACK
6
CONTINUOUS
10
1.12147
20
1.67731
11
1.12077
21
1.67898
0
LINE
8
BLACK
6
CONTINUOUS
10
1.12077
20
1.67898
11
1.12147
21
1.68065
0
LINE
8
BLACK
6
CONTINUOUS
10
1.12147
20
1.68065
11
1.12314
21
1.68134
0
LINE
8
BLACK
6
CONTINUOUS
10
1.12314
20
1.68134
11
1.14371
21
1.68134
0
LINE
8
BLACK
6
CONTINUOUS
10
1.14371
20
1.68134
11
1.14538
21
1.68065
0
LINE
8
BLACK
6
CONTINUOUS
10
1.03014
20
1.7305
11
1.0302
21
1.7305
0
LINE
8
BLACK
6
CONTINUOUS
10
1.0302
20
1.7305
11
1.03583
21
1.72863
0
LINE
8
BLACK
6
CONTINUOUS
10
1.03583
20
1.72863
11
1.03673
21
1.72814
0
LINE
8
BLACK
6
CONTINUOUS
10
1.03673
20
1.72814
11
1.03682
21
1.72799
0
LINE
8
BLACK
6
CONTINUOUS
10
1.03682
20
1.72799
11
1.03698
21
1.72791
0
LINE
8
BLACK
6
CONTINUOUS
10
1.03698
20
1.72791
11
1.04073
21
1.72417
0
LINE
8
BLACK
6
CONTINUOUS
10
1.04073
20
1.72417
11
1.04124
21
1.72344
0
LINE
8
BLACK
6
CONTINUOUS
10
1.04124
20
1.72344
11
1.04128
21
1.7234
0
LINE
8
BLACK
6
CONTINUOUS
10
1.04128
20
1.7234
11
1.04316
21
1.71965
0
LINE
8
BLACK
6
CONTINUOUS
10
1.04316
20
1.71965
11
1.0433
21
1.71916
0
LINE
8
BLACK
6
CONTINUOUS
10
1.0433
20
1.71916
11
1.04338
21
1.71904
0
LINE
8
BLACK
6
CONTINUOUS
10
1.04338
20
1.71904
11
1.04525
21
1.71154
0
LINE
8
BLACK
6
CONTINUOUS
10
1.04525
20
1.71154
11
1.0453
21
1.71096
0
LINE
8
BLACK
6
CONTINUOUS
10
1.0453
20
1.71096
11
1.04534
21
1.71083
0
LINE
8
BLACK
6
CONTINUOUS
10
1.04534
20
1.71083
11
1.04534
21
1.7052
0
LINE
8
BLACK
6
CONTINUOUS
10
1.04534
20
1.7052
11
1.04524
21
1.70462
0
LINE
8
BLACK
6
CONTINUOUS
10
1.04524
20
1.70462
11
1.04525
21
1.70449
0
LINE
8
BLACK
6
CONTINUOUS
10
1.04525
20
1.70449
11
1.04338
21
1.69699
0
LINE
8
BLACK
6
CONTINUOUS
10
1.04338
20
1.69699
11
1.04317
21
1.69652
0
LINE
8
BLACK
6
CONTINUOUS
10
1.04317
20
1.69652
11
1.04316
21
1.69638
0
LINE
8
BLACK
6
CONTINUOUS
10
1.04316
20
1.69638
11
1.04128
21
1.69264
0
LINE
8
BLACK
6
CONTINUOUS
10
1.04128
20
1.69264
11
1.04076
21
1.69193
0
LINE
8
BLACK
6
CONTINUOUS
10
1.04076
20
1.69193
11
1.04073
21
1.69187
0
LINE
8
BLACK
6
CONTINUOUS
10
1.04073
20
1.69187
11
1.03698
21
1.68812
0
LINE
8
BLACK
6
CONTINUOUS
10
1.03698
20
1.68812
11
1.03614
21
1.68753
0
LINE
8
BLACK
6
CONTINUOUS
10
1.03614
20
1.68753
11
1.03596
21
1.68751
0
LINE
8
BLACK
6
CONTINUOUS
10
1.03596
20
1.68751
11
1.03582
21
1.68741
0
LINE
8
BLACK
6
CONTINUOUS
10
1.03582
20
1.68741
11
1.0302
21
1.68553
0
LINE
8
BLACK
6
CONTINUOUS
10
1.0302
20
1.68553
11
1.02933
21
1.6854
0
LINE
8
BLACK
6
CONTINUOUS
10
1.02933
20
1.6854
11
1.02927
21
1.68538
0
LINE
8
BLACK
6
CONTINUOUS
10
1.02927
20
1.68538
11
1.02552
21
1.68538
0
LINE
8
BLACK
6
CONTINUOUS
10
1.02552
20
1.68538
11
1.02465
21
1.68553
0
LINE
8
BLACK
6
CONTINUOUS
10
1.02465
20
1.68553
11
1.02458
21
1.68553
0
LINE
8
BLACK
6
CONTINUOUS
10
1.02458
20
1.68553
11
1.01896
21
1.68741
0
LINE
8
BLACK
6
CONTINUOUS
10
1.01896
20
1.68741
11
1.01806
21
1.68789
0
LINE
8
BLACK
6
CONTINUOUS
10
1.01806
20
1.68789
11
1.01797
21
1.68804
0
LINE
8
BLACK
6
CONTINUOUS
10
1.01797
20
1.68804
11
1.01781
21
1.68812
0
LINE
8
BLACK
6
CONTINUOUS
10
1.01781
20
1.68812
11
1.01593
21
1.68999
0
LINE
8
BLACK
6
CONTINUOUS
10
1.01593
20
1.68999
11
1.01534
21
1.69083
0
LINE
8
BLACK
6
CONTINUOUS
10
1.01534
20
1.69083
11
1.01517
21
1.69285
0
LINE
8
BLACK
6
CONTINUOUS
10
1.01517
20
1.69285
11
1.01632
21
1.6945
0
LINE
8
BLACK
6
CONTINUOUS
10
1.01632
20
1.6945
11
1.01828
21
1.69502
0
LINE
8
BLACK
6
CONTINUOUS
10
1.01828
20
1.69502
11
1.02011
21
1.69417
0
LINE
8
BLACK
6
CONTINUOUS
10
1.02011
20
1.69417
11
1.02149
21
1.69279
0
LINE
8
BLACK
6
CONTINUOUS
10
1.02149
20
1.69279
11
1.026
21
1.69128
0
LINE
8
BLACK
6
CONTINUOUS
10
1.026
20
1.69128
11
1.02879
21
1.69128
0
LINE
8
BLACK
6
CONTINUOUS
10
1.02879
20
1.69128
11
1.0333
21
1.69279
0
LINE
8
BLACK
6
CONTINUOUS
10
1.0333
20
1.69279
11
1.03621
21
1.6957
0
LINE
8
BLACK
6
CONTINUOUS
10
1.03621
20
1.6957
11
1.03773
21
1.69874
0
LINE
8
BLACK
6
CONTINUOUS
10
1.03773
20
1.69874
11
1.03944
21
1.70557
0
LINE
8
BLACK
6
CONTINUOUS
10
1.03944
20
1.70557
11
1.03944
21
1.71047
0
LINE
8
BLACK
6
CONTINUOUS
10
1.03944
20
1.71047
11
1.03773
21
1.7173
0
LINE
8
BLACK
6
CONTINUOUS
10
1.03773
20
1.7173
11
1.03621
21
1.72033
0
LINE
8
BLACK
6
CONTINUOUS
10
1.03621
20
1.72033
11
1.0333
21
1.72325
0
LINE
8
BLACK
6
CONTINUOUS
10
1.0333
20
1.72325
11
1.02879
21
1.72475
0
LINE
8
BLACK
6
CONTINUOUS
10
1.02879
20
1.72475
11
1.026
21
1.72475
0
LINE
8
BLACK
6
CONTINUOUS
10
1.026
20
1.72475
11
1.02149
21
1.72325
0
LINE
8
BLACK
6
CONTINUOUS
10
1.02149
20
1.72325
11
1.02011
21
1.72186
0
LINE
8
BLACK
6
CONTINUOUS
10
1.02011
20
1.72186
11
1.01927
21
1.72128
0
LINE
8
BLACK
6
CONTINUOUS
10
1.01927
20
1.72128
11
1.01725
21
1.7211
0
LINE
8
BLACK
6
CONTINUOUS
10
1.01725
20
1.7211
11
1.0156
21
1.72226
0
LINE
8
BLACK
6
CONTINUOUS
10
1.0156
20
1.72226
11
1.01508
21
1.72421
0
LINE
8
BLACK
6
CONTINUOUS
10
1.01508
20
1.72421
11
1.01593
21
1.72604
0
LINE
8
BLACK
6
CONTINUOUS
10
1.01593
20
1.72604
11
1.01781
21
1.72791
0
LINE
8
BLACK
6
CONTINUOUS
10
1.01781
20
1.72791
11
1.01865
21
1.7285
0
LINE
8
BLACK
6
CONTINUOUS
10
1.01865
20
1.7285
11
1.01882
21
1.72852
0
LINE
8
BLACK
6
CONTINUOUS
10
1.01882
20
1.72852
11
1.01896
21
1.72863
0
LINE
8
BLACK
6
CONTINUOUS
10
1.01896
20
1.72863
11
1.02458
21
1.7305
0
LINE
8
BLACK
6
CONTINUOUS
10
1.02458
20
1.7305
11
1.02546
21
1.73063
0
LINE
8
BLACK
6
CONTINUOUS
10
1.02546
20
1.73063
11
1.02552
21
1.73065
0
LINE
8
BLACK
6
CONTINUOUS
10
1.02552
20
1.73065
11
1.02927
21
1.73065
0
LINE
8
BLACK
6
CONTINUOUS
10
1.02927
20
1.73065
11
1.03014
21
1.7305
0
LINE
8
BLACK
6
CONTINUOUS
10
0.998406
20
1.73048
11
0.998541
21
1.73036
0
LINE
8
BLACK
6
CONTINUOUS
10
0.998541
20
1.73036
11
0.998716
21
1.73034
0
LINE
8
BLACK
6
CONTINUOUS
10
0.998716
20
1.73034
11
1.00247
21
1.72847
0
LINE
8
BLACK
6
CONTINUOUS
10
1.00247
20
1.72847
11
1.00318
21
1.72794
0
LINE
8
BLACK
6
CONTINUOUS
10
1.00318
20
1.72794
11
1.00323
21
1.72791
0
LINE
8
BLACK
6
CONTINUOUS
10
1.00323
20
1.72791
11
1.00511
21
1.72604
0
LINE
8
BLACK
6
CONTINUOUS
10
1.00511
20
1.72604
11
1.0057
21
1.7252
0
LINE
8
BLACK
6
CONTINUOUS
10
1.0057
20
1.7252
11
1.00587
21
1.72319
0
LINE
8
BLACK
6
CONTINUOUS
10
1.00587
20
1.72319
11
1.00471
21
1.72153
0
LINE
8
BLACK
6
CONTINUOUS
10
1.00471
20
1.72153
11
1.00276
21
1.72101
0
LINE
8
BLACK
6
CONTINUOUS
10
1.00276
20
1.72101
11
1.00093
21
1.72186
0
LINE
8
BLACK
6
CONTINUOUS
10
1.00093
20
1.72186
11
0.999396
21
1.7234
0
LINE
8
BLACK
6
CONTINUOUS
10
0.999396
20
1.7234
11
0.996699
21
1.72475
0
LINE
8
BLACK
6
CONTINUOUS
10
0.996699
20
1.72475
11
0.988719
21
1.72475
0
LINE
8
BLACK
6
CONTINUOUS
10
0.988719
20
1.72475
11
0.986022
21
1.7234
0
LINE
8
BLACK
6
CONTINUOUS
10
0.986022
20
1.7234
11
0.984825
21
1.7222
0
LINE
8
BLACK
6
CONTINUOUS
10
0.984825
20
1.7222
11
0.983476
21
1.71951
0
LINE
8
BLACK
6
CONTINUOUS
10
0.983476
20
1.71951
11
0.983476
21
1.71693
0
LINE
8
BLACK
6
CONTINUOUS
10
0.983476
20
1.71693
11
0.984979
21
1.71242
0
LINE
8
BLACK
6
CONTINUOUS
10
0.984979
20
1.71242
11
1.00698
21
1.69042
0
LINE
8
BLACK
6
CONTINUOUS
10
1.00698
20
1.69042
11
1.00735
21
1.68989
0
LINE
8
BLACK
6
CONTINUOUS
10
1.00735
20
1.68989
11
1.00745
21
1.68981
0
LINE
8
BLACK
6
CONTINUOUS
10
1.00745
20
1.68981
11
1.00747
21
1.68973
0
LINE
8
BLACK
6
CONTINUOUS
10
1.00747
20
1.68973
11
1.00757
21
1.68958
0
LINE
8
BLACK
6
CONTINUOUS
10
1.00757
20
1.68958
11
1.00765
21
1.68869
0
LINE
8
BLACK
6
CONTINUOUS
10
1.00765
20
1.68869
11
1.0078
21
1.68782
0
LINE
8
BLACK
6
CONTINUOUS
10
1.0078
20
1.68782
11
1.00774
21
1.6877
0
LINE
8
BLACK
6
CONTINUOUS
10
1.00774
20
1.6877
11
1.00775
21
1.68757
0
LINE
8
BLACK
6
CONTINUOUS
10
1.00775
20
1.68757
11
1.00724
21
1.68684
0
LINE
8
BLACK
6
CONTINUOUS
10
1.00724
20
1.68684
11
1.00679
21
1.68607
0
LINE
8
BLACK
6
CONTINUOUS
10
1.00679
20
1.68607
11
1.00667
21
1.68602
0
LINE
8
BLACK
6
CONTINUOUS
10
1.00667
20
1.68602
11
1.00659
21
1.68591
0
LINE
8
BLACK
6
CONTINUOUS
10
1.00659
20
1.68591
11
1.00573
21
1.68568
0
LINE
8
BLACK
6
CONTINUOUS
10
1.00573
20
1.68568
11
1.00489
21
1.68538
0
LINE
8
BLACK
6
CONTINUOUS
10
1.00489
20
1.68538
11
0.980523
21
1.68538
0
LINE
8
BLACK
6
CONTINUOUS
10
0.980523
20
1.68538
11
0.979513
21
1.68556
0
LINE
8
BLACK
6
CONTINUOUS
10
0.979513
20
1.68556
11
0.977966
21
1.68686
0
LINE
8
BLACK
6
CONTINUOUS
10
0.977966
20
1.68686
11
0.977615
21
1.68884
0
LINE
8
BLACK
6
CONTINUOUS
10
0.977615
20
1.68884
11
0.978625
21
1.69059
0
LINE
8
BLACK
6
CONTINUOUS
10
0.978625
20
1.69059
11
0.980523
21
1.69128
0
LINE
8
BLACK
6
CONTINUOUS
10
0.980523
20
1.69128
11
0.997766
21
1.69128
0
LINE
8
BLACK
6
CONTINUOUS
10
0.997766
20
1.69128
11
0.98031
21
1.70874
0
LINE
8
BLACK
6
CONTINUOUS
10
0.98031
20
1.70874
11
0.979722
21
1.70958
0
LINE
8
BLACK
6
CONTINUOUS
10
0.979722
20
1.70958
11
0.979706
21
1.70976
0
LINE
8
BLACK
6
CONTINUOUS
10
0.979706
20
1.70976
11
0.979597
21
1.70989
0
LINE
8
BLACK
6
CONTINUOUS
10
0.979597
20
1.70989
11
0.977722
21
1.71552
0
LINE
8
BLACK
6
CONTINUOUS
10
0.977722
20
1.71552
11
0.977592
21
1.71639
0
LINE
8
BLACK
6
CONTINUOUS
10
0.977592
20
1.71639
11
0.97757
21
1.71645
0
LINE
8
BLACK
6
CONTINUOUS
10
0.97757
20
1.71645
11
0.97757
21
1.7202
0
LINE
8
BLACK
6
CONTINUOUS
10
0.97757
20
1.7202
11
0.977748
21
1.72121
0
LINE
8
BLACK
6
CONTINUOUS
10
0.977748
20
1.72121
11
0.977862
21
1.72135
0
LINE
8
BLACK
6
CONTINUOUS
10
0.977862
20
1.72135
11
0.977882
21
1.72152
0
LINE
8
BLACK
6
CONTINUOUS
10
0.977882
20
1.72152
11
0.979757
21
1.72527
0
LINE
8
BLACK
6
CONTINUOUS
10
0.979757
20
1.72527
11
0.980283
21
1.72598
0
LINE
8
BLACK
6
CONTINUOUS
10
0.980283
20
1.72598
11
0.98031
21
1.72604
0
LINE
8
BLACK
6
CONTINUOUS
10
0.98031
20
1.72604
11
0.982185
21
1.72791
0
LINE
8
BLACK
6
CONTINUOUS
10
0.982185
20
1.72791
11
0.982908
21
1.72842
0
LINE
8
BLACK
6
CONTINUOUS
10
0.982908
20
1.72842
11
0.982952
21
1.72847
0
LINE
8
BLACK
6
CONTINUOUS
10
0.982952
20
1.72847
11
0.986702
21
1.73034
0
LINE
8
BLACK
6
CONTINUOUS
10
0.986702
20
1.73034
11
0.987684
21
1.73063
0
LINE
8
BLACK
6
CONTINUOUS
10
0.987684
20
1.73063
11
0.987856
21
1.73059
0
LINE
8
BLACK
6
CONTINUOUS
10
0.987856
20
1.73059
11
0.988022
21
1.73065
0
LINE
8
BLACK
6
CONTINUOUS
10
0.988022
20
1.73065
11
0.997396
21
1.73065
0
LINE
8
BLACK
6
CONTINUOUS
10
0.997396
20
1.73065
11
0.998406
21
1.73048
0
LINE
8
BLACK
6
CONTINUOUS
10
1.78712
20
1.73156
11
1.78781
21
1.72989
0
LINE
8
BLACK
6
CONTINUOUS
10
1.78781
20
1.72989
11
1.78781
21
1.69989
0
LINE
8
BLACK
6
CONTINUOUS
10
1.78781
20
1.69989
11
1.78712
21
1.69822
0
LINE
8
BLACK
6
CONTINUOUS
10
1.78712
20
1.69822
11
1.78545
21
1.69753
0
LINE
8
BLACK
6
CONTINUOUS
10
1.78545
20
1.69753
11
1.78377
21
1.69822
0
LINE
8
BLACK
6
CONTINUOUS
10
1.78377
20
1.69822
11
1.78308
21
1.69989
0
LINE
8
BLACK
6
CONTINUOUS
10
1.78308
20
1.69989
11
1.78308
21
1.72989
0
LINE
8
BLACK
6
CONTINUOUS
10
1.78308
20
1.72989
11
1.78377
21
1.73156
0
LINE
8
BLACK
6
CONTINUOUS
10
1.78377
20
1.73156
11
1.78545
21
1.73225
0
LINE
8
BLACK
6
CONTINUOUS
10
1.78545
20
1.73225
11
1.78712
21
1.73156
0
LINE
8
BLACK
6
CONTINUOUS
10
1.72712
20
1.73156
11
1.72781
21
1.72989
0
LINE
8
BLACK
6
CONTINUOUS
10
1.72781
20
1.72989
11
1.72781
21
1.69989
0
LINE
8
BLACK
6
CONTINUOUS
10
1.72781
20
1.69989
11
1.72712
21
1.69822
0
LINE
8
BLACK
6
CONTINUOUS
10
1.72712
20
1.69822
11
1.72545
21
1.69753
0
LINE
8
BLACK
6
CONTINUOUS
10
1.72545
20
1.69753
11
1.72377
21
1.69822
0
LINE
8
BLACK
6
CONTINUOUS
10
1.72377
20
1.69822
11
1.72308
21
1.69989
0
LINE
8
BLACK
6
CONTINUOUS
10
1.72308
20
1.69989
11
1.72308
21
1.72989
0
LINE
8
BLACK
6
CONTINUOUS
10
1.72308
20
1.72989
11
1.72377
21
1.73156
0
LINE
8
BLACK
6
CONTINUOUS
10
1.72377
20
1.73156
11
1.72545
21
1.73225
0
LINE
8
BLACK
6
CONTINUOUS
10
1.72545
20
1.73225
11
1.72712
21
1.73156
0
LINE
8
BLACK
6
CONTINUOUS
10
1.14538
20
1.73852
11
1.14607
21
1.73685
0
LINE
8
BLACK
6
CONTINUOUS
10
1.14607
20
1.73685
11
1.14538
21
1.73518
0
LINE
8
BLACK
6
CONTINUOUS
10
1.14538
20
1.73518
11
1.14371
21
1.73449
0
LINE
8
BLACK
6
CONTINUOUS
10
1.14371
20
1.73449
11
1.12314
21
1.73449
0
LINE
8
BLACK
6
CONTINUOUS
10
1.12314
20
1.73449
11
1.12147
21
1.73518
0
LINE
8
BLACK
6
CONTINUOUS
10
1.12147
20
1.73518
11
1.12077
21
1.73685
0
LINE
8
BLACK
6
CONTINUOUS
10
1.12077
20
1.73685
11
1.12147
21
1.73852
0
LINE
8
BLACK
6
CONTINUOUS
10
1.12147
20
1.73852
11
1.12314
21
1.73921
0
LINE
8
BLACK
6
CONTINUOUS
10
1.12314
20
1.73921
11
1.14371
21
1.73921
0
LINE
8
BLACK
6
CONTINUOUS
10
1.14371
20
1.73921
11
1.14538
21
1.73852
0
LINE
8
BLACK
6
CONTINUOUS
10
1.78646
20
1.77767
11
1.788
21
1.77637
0
LINE
8
BLACK
6
CONTINUOUS
10
1.788
20
1.77637
11
1.78835
21
1.77438
0
LINE
8
BLACK
6
CONTINUOUS
10
1.78835
20
1.77438
11
1.78734
21
1.77263
0
LINE
8
BLACK
6
CONTINUOUS
10
1.78734
20
1.77263
11
1.78545
21
1.77194
0
LINE
8
BLACK
6
CONTINUOUS
10
1.78545
20
1.77194
11
1.72545
21
1.77194
0
LINE
8
BLACK
6
CONTINUOUS
10
1.72545
20
1.77194
11
1.72444
21
1.77212
0
LINE
8
BLACK
6
CONTINUOUS
10
1.72444
20
1.77212
11
1.72289
21
1.77342
0
LINE
8
BLACK
6
CONTINUOUS
10
1.72289
20
1.77342
11
1.72254
21
1.7754
0
LINE
8
BLACK
6
CONTINUOUS
10
1.72254
20
1.7754
11
1.72355
21
1.77715
0
LINE
8
BLACK
6
CONTINUOUS
10
1.72355
20
1.77715
11
1.72545
21
1.77784
0
LINE
8
BLACK
6
CONTINUOUS
10
1.72545
20
1.77784
11
1.78545
21
1.77784
0
LINE
8
BLACK
6
CONTINUOUS
10
1.78545
20
1.77784
11
1.78646
21
1.77767
0
LINE
8
BLACK
6
CONTINUOUS
10
1.6016
20
1.7953
11
1.6023
21
1.79363
0
LINE
8
BLACK
6
CONTINUOUS
10
1.6023
20
1.79363
11
1.6023
21
1.78773
0
LINE
8
BLACK
6
CONTINUOUS
10
1.6023
20
1.78773
11
1.6016
21
1.78606
0
LINE
8
BLACK
6
CONTINUOUS
10
1.6016
20
1.78606
11
1.59993
21
1.78536
0
LINE
8
BLACK
6
CONTINUOUS
10
1.59993
20
1.78536
11
1.59826
21
1.78606
0
LINE
8
BLACK
6
CONTINUOUS
10
1.59826
20
1.78606
11
1.59757
21
1.78773
0
LINE
8
BLACK
6
CONTINUOUS
10
1.59757
20
1.78773
11
1.59757
21
1.79127
0
LINE
8
BLACK
6
CONTINUOUS
10
1.59757
20
1.79127
11
1.41332
21
1.79127
0
LINE
8
BLACK
6
CONTINUOUS
10
1.41332
20
1.79127
11
1.41332
21
1.78773
0
LINE
8
BLACK
6
CONTINUOUS
10
1.41332
20
1.78773
11
1.41263
21
1.78606
0
LINE
8
BLACK
6
CONTINUOUS
10
1.41263
20
1.78606
11
1.41096
21
1.78536
0
LINE
8
BLACK
6
CONTINUOUS
10
1.41096
20
1.78536
11
1.40929
21
1.78606
0
LINE
8
BLACK
6
CONTINUOUS
10
1.40929
20
1.78606
11
1.40859
21
1.78773
0
LINE
8
BLACK
6
CONTINUOUS
10
1.40859
20
1.78773
11
1.40859
21
1.79363
0
LINE
8
BLACK
6
CONTINUOUS
10
1.40859
20
1.79363
11
1.40929
21
1.7953
0
LINE
8
BLACK
6
CONTINUOUS
10
1.40929
20
1.7953
11
1.41096
21
1.79599
0
LINE
8
BLACK
6
CONTINUOUS
10
1.41096
20
1.79599
11
1.59993
21
1.79599
0
LINE
8
BLACK
6
CONTINUOUS
10
1.59993
20
1.79599
11
1.6016
21
1.7953
0
LINE
8
BLACK
6
CONTINUOUS
10
1.19561
20
1.92277
11
1.1963
21
1.9211
0
LINE
8
BLACK
6
CONTINUOUS
10
1.1963
20
1.9211
11
1.19561
21
1.91943
0
LINE
8
BLACK
6
CONTINUOUS
10
1.19561
20
1.91943
11
1.19394
21
1.91874
0
LINE
8
BLACK
6
CONTINUOUS
10
1.19394
20
1.91874
11
0.983701
21
1.91874
0
LINE
8
BLACK
6
CONTINUOUS
10
0.983701
20
1.91874
11
0.983701
21
1.79354
0
LINE
8
BLACK
6
CONTINUOUS
10
0.983701
20
1.79354
11
1.19394
21
1.79354
0
LINE
8
BLACK
6
CONTINUOUS
10
1.19394
20
1.79354
11
1.19561
21
1.79285
0
LINE
8
BLACK
6
CONTINUOUS
10
1.19561
20
1.79285
11
1.1963
21
1.79118
0
LINE
8
BLACK
6
CONTINUOUS
10
1.1963
20
1.79118
11
1.19561
21
1.78951
0
LINE
8
BLACK
6
CONTINUOUS
10
1.19561
20
1.78951
11
1.19394
21
1.78882
0
LINE
8
BLACK
6
CONTINUOUS
10
1.19394
20
1.78882
11
0.981339
21
1.78882
0
LINE
8
BLACK
6
CONTINUOUS
10
0.981339
20
1.78882
11
0.979668
21
1.78951
0
LINE
8
BLACK
6
CONTINUOUS
10
0.979668
20
1.78951
11
0.978976
21
1.79118
0
LINE
8
BLACK
6
CONTINUOUS
10
0.978976
20
1.79118
11
0.978976
21
1.9211
0
LINE
8
BLACK
6
CONTINUOUS
10
0.978976
20
1.9211
11
0.979668
21
1.92277
0
LINE
8
BLACK
6
CONTINUOUS
10
0.979668
20
1.92277
11
0.981339
21
1.92346
0
LINE
8
BLACK
6
CONTINUOUS
10
0.981339
20
1.92346
11
1.19394
21
1.92346
0
LINE
8
BLACK
6
CONTINUOUS
10
1.19394
20
1.92346
11
1.19561
21
1.92277
0
LINE
8
BLACK
6
CONTINUOUS
10
1.77371
20
1.8546
11
1.77441
21
1.8527
0
LINE
8
BLACK
6
CONTINUOUS
10
1.77441
20
1.8527
11
1.77441
21
1.82083
0
LINE
8
BLACK
6
CONTINUOUS
10
1.77441
20
1.82083
11
1.77423
21
1.81982
0
LINE
8
BLACK
6
CONTINUOUS
10
1.77423
20
1.81982
11
1.77411
21
1.81969
0
LINE
8
BLACK
6
CONTINUOUS
10
1.77411
20
1.81969
11
1.77409
21
1.81951
0
LINE
8
BLACK
6
CONTINUOUS
10
1.77409
20
1.81951
11
1.77222
21
1.81576
0
LINE
8
BLACK
6
CONTINUOUS
10
1.77222
20
1.81576
11
1.77169
21
1.81505
0
LINE
8
BLACK
6
CONTINUOUS
10
1.77169
20
1.81505
11
1.77167
21
1.81499
0
LINE
8
BLACK
6
CONTINUOUS
10
1.77167
20
1.81499
11
1.76979
21
1.81312
0
LINE
8
BLACK
6
CONTINUOUS
10
1.76979
20
1.81312
11
1.76907
21
1.81261
0
LINE
8
BLACK
6
CONTINUOUS
10
1.76907
20
1.81261
11
1.76902
21
1.81257
0
LINE
8
BLACK
6
CONTINUOUS
10
1.76902
20
1.81257
11
1.76527
21
1.81069
0
LINE
8
BLACK
6
CONTINUOUS
10
1.76527
20
1.81069
11
1.76429
21
1.8104
0
LINE
8
BLACK
6
CONTINUOUS
10
1.76429
20
1.8104
11
1.76412
21
1.81044
0
LINE
8
BLACK
6
CONTINUOUS
10
1.76412
20
1.81044
11
1.76395
21
1.81038
0
LINE
8
BLACK
6
CONTINUOUS
10
1.76395
20
1.81038
11
1.75645
21
1.81038
0
LINE
8
BLACK
6
CONTINUOUS
10
1.75645
20
1.81038
11
1.75544
21
1.81056
0
LINE
8
BLACK
6
CONTINUOUS
10
1.75544
20
1.81056
11
1.75531
21
1.81067
0
LINE
8
BLACK
6
CONTINUOUS
10
1.75531
20
1.81067
11
1.75513
21
1.81069
0
LINE
8
BLACK
6
CONTINUOUS
10
1.75513
20
1.81069
11
1.75138
21
1.81257
0
LINE
8
BLACK
6
CONTINUOUS
10
1.75138
20
1.81257
11
1.75068
21
1.81309
0
LINE
8
BLACK
6
CONTINUOUS
10
1.75068
20
1.81309
11
1.75062
21
1.81312
0
LINE
8
BLACK
6
CONTINUOUS
10
1.75062
20
1.81312
11
1.74874
21
1.81499
0
LINE
8
BLACK
6
CONTINUOUS
10
1.74874
20
1.81499
11
1.74824
21
1.81572
0
LINE
8
BLACK
6
CONTINUOUS
10
1.74824
20
1.81572
11
1.74819
21
1.81576
0
LINE
8
BLACK
6
CONTINUOUS
10
1.74819
20
1.81576
11
1.74631
21
1.81951
0
LINE
8
BLACK
6
CONTINUOUS
10
1.74631
20
1.81951
11
1.74602
21
1.82049
0
LINE
8
BLACK
6
CONTINUOUS
10
1.74602
20
1.82049
11
1.74606
21
1.82066
0
LINE
8
BLACK
6
CONTINUOUS
10
1.74606
20
1.82066
11
1.746
21
1.82083
0
LINE
8
BLACK
6
CONTINUOUS
10
1.746
20
1.82083
11
1.746
21
1.8527
0
LINE
8
BLACK
6
CONTINUOUS
10
1.746
20
1.8527
11
1.74618
21
1.85371
0
LINE
8
BLACK
6
CONTINUOUS
10
1.74618
20
1.85371
11
1.74748
21
1.85526
0
LINE
8
BLACK
6
CONTINUOUS
10
1.74748
20
1.85526
11
1.74947
21
1.85561
0
LINE
8
BLACK
6
CONTINUOUS
10
1.74947
20
1.85561
11
1.75122
21
1.8546
0
LINE
8
BLACK
6
CONTINUOUS
10
1.75122
20
1.8546
11
1.75191
21
1.8527
0
LINE
8
BLACK
6
CONTINUOUS
10
1.75191
20
1.8527
11
1.75191
21
1.82153
0
LINE
8
BLACK
6
CONTINUOUS
10
1.75191
20
1.82153
11
1.75326
21
1.81883
0
LINE
8
BLACK
6
CONTINUOUS
10
1.75326
20
1.81883
11
1.75445
21
1.81763
0
LINE
8
BLACK
6
CONTINUOUS
10
1.75445
20
1.81763
11
1.75715
21
1.81628
0
LINE
8
BLACK
6
CONTINUOUS
10
1.75715
20
1.81628
11
1.76326
21
1.81628
0
LINE
8
BLACK
6
CONTINUOUS
10
1.76326
20
1.81628
11
1.76595
21
1.81763
0
LINE
8
BLACK
6
CONTINUOUS
10
1.76595
20
1.81763
11
1.76715
21
1.81883
0
LINE
8
BLACK
6
CONTINUOUS
10
1.76715
20
1.81883
11
1.7685
21
1.82153
0
LINE
8
BLACK
6
CONTINUOUS
10
1.7685
20
1.82153
11
1.7685
21
1.8527
0
LINE
8
BLACK
6
CONTINUOUS
10
1.7685
20
1.8527
11
1.76868
21
1.85371
0
LINE
8
BLACK
6
CONTINUOUS
10
1.76868
20
1.85371
11
1.76998
21
1.85526
0
LINE
8
BLACK
6
CONTINUOUS
10
1.76998
20
1.85526
11
1.77197
21
1.85561
0
LINE
8
BLACK
6
CONTINUOUS
10
1.77197
20
1.85561
11
1.77371
21
1.8546
0
LINE
8
BLACK
6
CONTINUOUS
10
1.73497
20
1.85548
11
1.73651
21
1.85418
0
LINE
8
BLACK
6
CONTINUOUS
10
1.73651
20
1.85418
11
1.73687
21
1.85219
0
LINE
8
BLACK
6
CONTINUOUS
10
1.73687
20
1.85219
11
1.73586
21
1.85044
0
LINE
8
BLACK
6
CONTINUOUS
10
1.73586
20
1.85044
11
1.73396
21
1.84975
0
LINE
8
BLACK
6
CONTINUOUS
10
1.73396
20
1.84975
11
1.71609
21
1.84975
0
LINE
8
BLACK
6
CONTINUOUS
10
1.71609
20
1.84975
11
1.72493
21
1.83965
0
LINE
8
BLACK
6
CONTINUOUS
10
1.72493
20
1.83965
11
1.72516
21
1.83927
0
LINE
8
BLACK
6
CONTINUOUS
10
1.72516
20
1.83927
11
1.72527
21
1.83918
0
LINE
8
BLACK
6
CONTINUOUS
10
1.72527
20
1.83918
11
1.72529
21
1.83906
0
LINE
8
BLACK
6
CONTINUOUS
10
1.72529
20
1.83906
11
1.72546
21
1.83877
0
LINE
8
BLACK
6
CONTINUOUS
10
1.72546
20
1.83877
11
1.72548
21
1.83797
0
LINE
8
BLACK
6
CONTINUOUS
10
1.72548
20
1.83797
11
1.72562
21
1.83719
0
LINE
8
BLACK
6
CONTINUOUS
10
1.72562
20
1.83719
11
1.7255
21
1.83699
0
LINE
8
BLACK
6
CONTINUOUS
10
1.7255
20
1.83699
11
1.7255
21
1.83675
0
LINE
8
BLACK
6
CONTINUOUS
10
1.7255
20
1.83675
11
1.725
21
1.83613
0
LINE
8
BLACK
6
CONTINUOUS
10
1.725
20
1.83613
11
1.72461
21
1.83544
0
LINE
8
BLACK
6
CONTINUOUS
10
1.72461
20
1.83544
11
1.72439
21
1.83536
0
LINE
8
BLACK
6
CONTINUOUS
10
1.72439
20
1.83536
11
1.72424
21
1.83518
0
LINE
8
BLACK
6
CONTINUOUS
10
1.72424
20
1.83518
11
1.72346
21
1.83502
0
LINE
8
BLACK
6
CONTINUOUS
10
1.72346
20
1.83502
11
1.72271
21
1.83475
0
LINE
8
BLACK
6
CONTINUOUS
10
1.72271
20
1.83475
11
1.71778
21
1.83475
0
LINE
8
BLACK
6
CONTINUOUS
10
1.71778
20
1.83475
11
1.71508
21
1.8334
0
LINE
8
BLACK
6
CONTINUOUS
10
1.71508
20
1.8334
11
1.71389
21
1.8322
0
LINE
8
BLACK
6
CONTINUOUS
10
1.71389
20
1.8322
11
1.71254
21
1.82951
0
LINE
8
BLACK
6
CONTINUOUS
10
1.71254
20
1.82951
11
1.71254
21
1.82153
0
LINE
8
BLACK
6
CONTINUOUS
10
1.71254
20
1.82153
11
1.71389
21
1.81883
0
LINE
8
BLACK
6
CONTINUOUS
10
1.71389
20
1.81883
11
1.71508
21
1.81763
0
LINE
8
BLACK
6
CONTINUOUS
10
1.71508
20
1.81763
11
1.71778
21
1.81628
0
LINE
8
BLACK
6
CONTINUOUS
10
1.71778
20
1.81628
11
1.72764
21
1.81628
0
LINE
8
BLACK
6
CONTINUOUS
10
1.72764
20
1.81628
11
1.73033
21
1.81763
0
LINE
8
BLACK
6
CONTINUOUS
10
1.73033
20
1.81763
11
1.73187
21
1.81917
0
LINE
8
BLACK
6
CONTINUOUS
10
1.73187
20
1.81917
11
1.73271
21
1.81976
0
LINE
8
BLACK
6
CONTINUOUS
10
1.73271
20
1.81976
11
1.73472
21
1.81993
0
LINE
8
BLACK
6
CONTINUOUS
10
1.73472
20
1.81993
11
1.73638
21
1.81877
0
LINE
8
BLACK
6
CONTINUOUS
10
1.73638
20
1.81877
11
1.7369
21
1.81682
0
LINE
8
BLACK
6
CONTINUOUS
10
1.7369
20
1.81682
11
1.73605
21
1.81499
0
LINE
8
BLACK
6
CONTINUOUS
10
1.73605
20
1.81499
11
1.73417
21
1.81312
0
LINE
8
BLACK
6
CONTINUOUS
10
1.73417
20
1.81312
11
1.73345
21
1.81261
0
LINE
8
BLACK
6
CONTINUOUS
10
1.73345
20
1.81261
11
1.7334
21
1.81257
0
LINE
8
BLACK
6
CONTINUOUS
10
1.7334
20
1.81257
11
1.72965
21
1.81069
0
LINE
8
BLACK
6
CONTINUOUS
10
1.72965
20
1.81069
11
1.72867
21
1.8104
0
LINE
8
BLACK
6
CONTINUOUS
10
1.72867
20
1.8104
11
1.7285
21
1.81044
0
LINE
8
BLACK
6
CONTINUOUS
10
1.7285
20
1.81044
11
1.72833
21
1.81038
0
LINE
8
BLACK
6
CONTINUOUS
10
1.72833
20
1.81038
11
1.71708
21
1.81038
0
LINE
8
BLACK
6
CONTINUOUS
10
1.71708
20
1.81038
11
1.71607
21
1.81056
0
LINE
8
BLACK
6
CONTINUOUS
10
1.71607
20
1.81056
11
1.71594
21
1.81067
0
LINE
8
BLACK
6
CONTINUOUS
10
1.71594
20
1.81067
11
1.71576
21
1.81069
0
LINE
8
BLACK
6
CONTINUOUS
10
1.71576
20
1.81069
11
1.71201
21
1.81257
0
LINE
8
BLACK
6
CONTINUOUS
10
1.71201
20
1.81257
11
1.71131
21
1.81309
0
LINE
8
BLACK
6
CONTINUOUS
10
1.71131
20
1.81309
11
1.71125
21
1.81312
0
LINE
8
BLACK
6
CONTINUOUS
10
1.71125
20
1.81312
11
1.70937
21
1.81499
0
LINE
8
BLACK
6
CONTINUOUS
10
1.70937
20
1.81499
11
1.70887
21
1.81572
0
LINE
8
BLACK
6
CONTINUOUS
10
1.70887
20
1.81572
11
1.70882
21
1.81576
0
LINE
8
BLACK
6
CONTINUOUS
10
1.70882
20
1.81576
11
1.70694
21
1.81951
0
LINE
8
BLACK
6
CONTINUOUS
10
1.70694
20
1.81951
11
1.70665
21
1.82049
0
LINE
8
BLACK
6
CONTINUOUS
10
1.70665
20
1.82049
11
1.70669
21
1.82066
0
LINE
8
BLACK
6
CONTINUOUS
10
1.70669
20
1.82066
11
1.70663
21
1.82083
0
LINE
8
BLACK
6
CONTINUOUS
10
1.70663
20
1.82083
11
1.70663
21
1.8302
0
LINE
8
BLACK
6
CONTINUOUS
10
1.70663
20
1.8302
11
1.70681
21
1.83121
0
LINE
8
BLACK
6
CONTINUOUS
10
1.70681
20
1.83121
11
1.70692
21
1.83135
0
LINE
8
BLACK
6
CONTINUOUS
10
1.70692
20
1.83135
11
1.70694
21
1.83152
0
LINE
8
BLACK
6
CONTINUOUS
10
1.70694
20
1.83152
11
1.70882
21
1.83527
0
LINE
8
BLACK
6
CONTINUOUS
10
1.70882
20
1.83527
11
1.70935
21
1.83598
0
LINE
8
BLACK
6
CONTINUOUS
10
1.70935
20
1.83598
11
1.70937
21
1.83604
0
LINE
8
BLACK
6
CONTINUOUS
10
1.70937
20
1.83604
11
1.71125
21
1.83792
0
LINE
8
BLACK
6
CONTINUOUS
10
1.71125
20
1.83792
11
1.71197
21
1.83842
0
LINE
8
BLACK
6
CONTINUOUS
10
1.71197
20
1.83842
11
1.71201
21
1.83847
0
LINE
8
BLACK
6
CONTINUOUS
10
1.71201
20
1.83847
11
1.71576
21
1.84034
0
LINE
8
BLACK
6
CONTINUOUS
10
1.71576
20
1.84034
11
1.71633
21
1.84051
0
LINE
8
BLACK
6
CONTINUOUS
10
1.71633
20
1.84051
11
1.70736
21
1.85076
0
LINE
8
BLACK
6
CONTINUOUS
10
1.70736
20
1.85076
11
1.70713
21
1.85114
0
LINE
8
BLACK
6
CONTINUOUS
10
1.70713
20
1.85114
11
1.70703
21
1.85123
0
LINE
8
BLACK
6
CONTINUOUS
10
1.70703
20
1.85123
11
1.70701
21
1.85135
0
LINE
8
BLACK
6
CONTINUOUS
10
1.70701
20
1.85135
11
1.70683
21
1.85163
0
LINE
8
BLACK
6
CONTINUOUS
10
1.70683
20
1.85163
11
1.70682
21
1.85243
0
LINE
8
BLACK
6
CONTINUOUS
10
1.70682
20
1.85243
11
1.70668
21
1.85321
0
LINE
8
BLACK
6
CONTINUOUS
10
1.70668
20
1.85321
11
1.7068
21
1.85342
0
LINE
8
BLACK
6
CONTINUOUS
10
1.7068
20
1.85342
11
1.70679
21
1.85365
0
LINE
8
BLACK
6
CONTINUOUS
10
1.70679
20
1.85365
11
1.70729
21
1.85427
0
LINE
8
BLACK
6
CONTINUOUS
10
1.70729
20
1.85427
11
1.70769
21
1.85496
0
LINE
8
BLACK
6
CONTINUOUS
10
1.70769
20
1.85496
11
1.70791
21
1.85504
0
LINE
8
BLACK
6
CONTINUOUS
10
1.70791
20
1.85504
11
1.70806
21
1.85523
0
LINE
8
BLACK
6
CONTINUOUS
10
1.70806
20
1.85523
11
1.70884
21
1.85538
0
LINE
8
BLACK
6
CONTINUOUS
10
1.70884
20
1.85538
11
1.70959
21
1.85565
0
LINE
8
BLACK
6
CONTINUOUS
10
1.70959
20
1.85565
11
1.73396
21
1.85565
0
LINE
8
BLACK
6
CONTINUOUS
10
1.73396
20
1.85565
11
1.73497
21
1.85548
0
LINE
8
BLACK
6
CONTINUOUS
10
0.865909
20
1.89048
11
0.866044
21
1.89036
0
LINE
8
BLACK
6
CONTINUOUS
10
0.866044
20
1.89036
11
0.866219
21
1.89034
0
LINE
8
BLACK
6
CONTINUOUS
10
0.866219
20
1.89034
11
0.869969
21
1.88847
0
LINE
8
BLACK
6
CONTINUOUS
10
0.869969
20
1.88847
11
0.870678
21
1.88794
0
LINE
8
BLACK
6
CONTINUOUS
10
0.870678
20
1.88794
11
0.870736
21
1.88791
0
LINE
8
BLACK
6
CONTINUOUS
10
0.870736
20
1.88791
11
0.872611
21
1.88604
0
LINE
8
BLACK
6
CONTINUOUS
10
0.872611
20
1.88604
11
0.873117
21
1.88532
0
LINE
8
BLACK
6
CONTINUOUS
10
0.873117
20
1.88532
11
0.873164
21
1.88527
0
LINE
8
BLACK
6
CONTINUOUS
10
0.873164
20
1.88527
11
0.875039
21
1.88152
0
LINE
8
BLACK
6
CONTINUOUS
10
0.875039
20
1.88152
11
0.875184
21
1.88103
0
LINE
8
BLACK
6
CONTINUOUS
10
0.875184
20
1.88103
11
0.875262
21
1.88092
0
LINE
8
BLACK
6
CONTINUOUS
10
0.875262
20
1.88092
11
0.877137
21
1.87342
0
LINE
8
BLACK
6
CONTINUOUS
10
0.877137
20
1.87342
11
0.877179
21
1.87283
0
LINE
8
BLACK
6
CONTINUOUS
10
0.877179
20
1.87283
11
0.877225
21
1.8727
0
LINE
8
BLACK
6
CONTINUOUS
10
0.877225
20
1.8727
11
0.877225
21
1.86333
0
LINE
8
BLACK
6
CONTINUOUS
10
0.877225
20
1.86333
11
0.877123
21
1.86275
0
LINE
8
BLACK
6
CONTINUOUS
10
0.877123
20
1.86275
11
0.877137
21
1.86261
0
LINE
8
BLACK
6
CONTINUOUS
10
0.877137
20
1.86261
11
0.875262
21
1.85511
0
LINE
8
BLACK
6
CONTINUOUS
10
0.875262
20
1.85511
11
0.875055
21
1.85465
0
LINE
8
BLACK
6
CONTINUOUS
10
0.875055
20
1.85465
11
0.875039
21
1.85451
0
LINE
8
BLACK
6
CONTINUOUS
10
0.875039
20
1.85451
11
0.873164
21
1.85076
0
LINE
8
BLACK
6
CONTINUOUS
10
0.873164
20
1.85076
11
0.872638
21
1.85005
0
LINE
8
BLACK
6
CONTINUOUS
10
0.872638
20
1.85005
11
0.872611
21
1.84999
0
LINE
8
BLACK
6
CONTINUOUS
10
0.872611
20
1.84999
11
0.870736
21
1.84812
0
LINE
8
BLACK
6
CONTINUOUS
10
0.870736
20
1.84812
11
0.870013
21
1.84761
0
LINE
8
BLACK
6
CONTINUOUS
10
0.870013
20
1.84761
11
0.869969
21
1.84757
0
LINE
8
BLACK
6
CONTINUOUS
10
0.869969
20
1.84757
11
0.866219
21
1.84569
0
LINE
8
BLACK
6
CONTINUOUS
10
0.866219
20
1.84569
11
0.865236
21
1.8454
0
LINE
8
BLACK
6
CONTINUOUS
10
0.865236
20
1.8454
11
0.865065
21
1.84544
0
LINE
8
BLACK
6
CONTINUOUS
10
0.865065
20
1.84544
11
0.864899
21
1.84538
0
LINE
8
BLACK
6
CONTINUOUS
10
0.864899
20
1.84538
11
0.861149
21
1.84538
0
LINE
8
BLACK
6
CONTINUOUS
10
0.861149
20
1.84538
11
0.860139
21
1.84556
0
LINE
8
BLACK
6
CONTINUOUS
10
0.860139
20
1.84556
11
0.860004
21
1.84567
0
LINE
8
BLACK
6
CONTINUOUS
10
0.860004
20
1.84567
11
0.859829
21
1.84569
0
LINE
8
BLACK
6
CONTINUOUS
10
0.859829
20
1.84569
11
0.856079
21
1.84757
0
LINE
8
BLACK
6
CONTINUOUS
10
0.856079
20
1.84757
11
0.85537
21
1.84809
0
LINE
8
BLACK
6
CONTINUOUS
10
0.85537
20
1.84809
11
0.855312
21
1.84812
0
LINE
8
BLACK
6
CONTINUOUS
10
0.855312
20
1.84812
11
0.853437
21
1.84999
0
LINE
8
BLACK
6
CONTINUOUS
10
0.853437
20
1.84999
11
0.852931
21
1.85072
0
LINE
8
BLACK
6
CONTINUOUS
10
0.852931
20
1.85072
11
0.852884
21
1.85076
0
LINE
8
BLACK
6
CONTINUOUS
10
0.852884
20
1.85076
11
0.851009
21
1.85451
0
LINE
8
BLACK
6
CONTINUOUS
10
0.851009
20
1.85451
11
0.850864
21
1.855
0
LINE
8
BLACK
6
CONTINUOUS
10
0.850864
20
1.855
11
0.850786
21
1.85511
0
LINE
8
BLACK
6
CONTINUOUS
10
0.850786
20
1.85511
11
0.848911
21
1.86261
0
LINE
8
BLACK
6
CONTINUOUS
10
0.848911
20
1.86261
11
0.848869
21
1.8632
0
LINE
8
BLACK
6
CONTINUOUS
10
0.848869
20
1.8632
11
0.848823
21
1.86333
0
LINE
8
BLACK
6
CONTINUOUS
10
0.848823
20
1.86333
11
0.848823
21
1.8727
0
LINE
8
BLACK
6
CONTINUOUS
10
0.848823
20
1.8727
11
0.848925
21
1.87328
0
LINE
8
BLACK
6
CONTINUOUS
10
0.848925
20
1.87328
11
0.848911
21
1.87342
0
LINE
8
BLACK
6
CONTINUOUS
10
0.848911
20
1.87342
11
0.850786
21
1.88092
0
LINE
8
BLACK
6
CONTINUOUS
10
0.850786
20
1.88092
11
0.850993
21
1.88138
0
LINE
8
BLACK
6
CONTINUOUS
10
0.850993
20
1.88138
11
0.851009
21
1.88152
0
LINE
8
BLACK
6
CONTINUOUS
10
0.851009
20
1.88152
11
0.852884
21
1.88527
0
LINE
8
BLACK
6
CONTINUOUS
10
0.852884
20
1.88527
11
0.85341
21
1.88598
0
LINE
8
BLACK
6
CONTINUOUS
10
0.85341
20
1.88598
11
0.853437
21
1.88604
0
LINE
8
BLACK
6
CONTINUOUS
10
0.853437
20
1.88604
11
0.855312
21
1.88791
0
LINE
8
BLACK
6
CONTINUOUS
10
0.855312
20
1.88791
11
0.856035
21
1.88842
0
LINE
8
BLACK
6
CONTINUOUS
10
0.856035
20
1.88842
11
0.856079
21
1.88847
0
LINE
8
BLACK
6
CONTINUOUS
10
0.856079
20
1.88847
11
0.859829
21
1.89034
0
LINE
8
BLACK
6
CONTINUOUS
10
0.859829
20
1.89034
11
0.860812
21
1.89063
0
LINE
8
BLACK
6
CONTINUOUS
10
0.860812
20
1.89063
11
0.860983
21
1.89059
0
LINE
8
BLACK
6
CONTINUOUS
10
0.860983
20
1.89059
11
0.861149
21
1.89065
0
LINE
8
BLACK
6
CONTINUOUS
10
0.861149
20
1.89065
11
0.864899
21
1.89065
0
LINE
8
BLACK
6
CONTINUOUS
10
0.864899
20
1.89065
11
0.865909
21
1.89048
0
LINE
8
BLACK
6
CONTINUOUS
10
0.861846
20
1.88475
11
0.859149
21
1.8834
0
LINE
8
BLACK
6
CONTINUOUS
10
0.859149
20
1.8834
11
0.857952
21
1.8822
0
LINE
8
BLACK
6
CONTINUOUS
10
0.857952
20
1.8822
11
0.856436
21
1.87917
0
LINE
8
BLACK
6
CONTINUOUS
10
0.856436
20
1.87917
11
0.854728
21
1.87234
0
LINE
8
BLACK
6
CONTINUOUS
10
0.854728
20
1.87234
11
0.854728
21
1.86369
0
LINE
8
BLACK
6
CONTINUOUS
10
0.854728
20
1.86369
11
0.856436
21
1.85686
0
LINE
8
BLACK
6
CONTINUOUS
10
0.856436
20
1.85686
11
0.857952
21
1.85383
0
LINE
8
BLACK
6
CONTINUOUS
10
0.857952
20
1.85383
11
0.859149
21
1.85263
0
LINE
8
BLACK
6
CONTINUOUS
10
0.859149
20
1.85263
11
0.861846
21
1.85128
0
LINE
8
BLACK
6
CONTINUOUS
10
0.861846
20
1.85128
11
0.864202
21
1.85128
0
LINE
8
BLACK
6
CONTINUOUS
10
0.864202
20
1.85128
11
0.866899
21
1.85263
0
LINE
8
BLACK
6
CONTINUOUS
10
0.866899
20
1.85263
11
0.868096
21
1.85383
0
LINE
8
BLACK
6
CONTINUOUS
10
0.868096
20
1.85383
11
0.869612
21
1.85686
0
LINE
8
BLACK
6
CONTINUOUS
10
0.869612
20
1.85686
11
0.87132
21
1.86369
0
LINE
8
BLACK
6
CONTINUOUS
10
0.87132
20
1.86369
11
0.87132
21
1.87234
0
LINE
8
BLACK
6
CONTINUOUS
10
0.87132
20
1.87234
11
0.869612
21
1.87917
0
LINE
8
BLACK
6
CONTINUOUS
10
0.869612
20
1.87917
11
0.868096
21
1.8822
0
LINE
8
BLACK
6
CONTINUOUS
10
0.868096
20
1.8822
11
0.866899
21
1.8834
0
LINE
8
BLACK
6
CONTINUOUS
10
0.866899
20
1.8834
11
0.864202
21
1.88475
0
LINE
8
BLACK
6
CONTINUOUS
10
0.864202
20
1.88475
11
0.861846
21
1.88475
0
LINE
8
BLACK
6
CONTINUOUS
10
0.949647
20
1.89059
11
0.949776
21
1.89061
0
LINE
8
BLACK
6
CONTINUOUS
10
0.949776
20
1.89061
11
0.94989
21
1.89054
0
LINE
8
BLACK
6
CONTINUOUS
10
0.94989
20
1.89054
11
0.950273
21
1.89048
0
LINE
8
BLACK
6
CONTINUOUS
10
0.950273
20
1.89048
11
0.950861
21
1.88998
0
LINE
8
BLACK
6
CONTINUOUS
10
0.950861
20
1.88998
11
0.951525
21
1.8896
0
LINE
8
BLACK
6
CONTINUOUS
10
0.951525
20
1.8896
11
0.951616
21
1.88935
0
LINE
8
BLACK
6
CONTINUOUS
10
0.951616
20
1.88935
11
0.95182
21
1.88918
0
LINE
8
BLACK
6
CONTINUOUS
10
0.95182
20
1.88918
11
0.951954
21
1.88842
0
LINE
8
BLACK
6
CONTINUOUS
10
0.951954
20
1.88842
11
0.952216
21
1.8877
0
LINE
8
BLACK
6
CONTINUOUS
10
0.952216
20
1.8877
11
0.952216
21
1.84833
0
LINE
8
BLACK
6
CONTINUOUS
10
0.952216
20
1.84833
11
0.952148
21
1.84795
0
LINE
8
BLACK
6
CONTINUOUS
10
0.952148
20
1.84795
11
0.952171
21
1.84782
0
LINE
8
BLACK
6
CONTINUOUS
10
0.952171
20
1.84782
11
0.952106
21
1.84771
0
LINE
8
BLACK
6
CONTINUOUS
10
0.952106
20
1.84771
11
0.952038
21
1.84732
0
LINE
8
BLACK
6
CONTINUOUS
10
0.952038
20
1.84732
11
0.951545
21
1.84673
0
LINE
8
BLACK
6
CONTINUOUS
10
0.951545
20
1.84673
11
0.951161
21
1.84607
0
LINE
8
BLACK
6
CONTINUOUS
10
0.951161
20
1.84607
11
0.950911
21
1.84598
0
LINE
8
BLACK
6
CONTINUOUS
10
0.950911
20
1.84598
11
0.95074
21
1.84577
0
LINE
8
BLACK
6
CONTINUOUS
10
0.95074
20
1.84577
11
0.949984
21
1.84564
0
LINE
8
BLACK
6
CONTINUOUS
10
0.949984
20
1.84564
11
0.949263
21
1.84538
0
LINE
8
BLACK
6
CONTINUOUS
10
0.949263
20
1.84538
11
0.939889
21
1.84538
0
LINE
8
BLACK
6
CONTINUOUS
10
0.939889
20
1.84538
11
0.93902
21
1.84553
0
LINE
8
BLACK
6
CONTINUOUS
10
0.93902
20
1.84553
11
0.938956
21
1.84553
0
LINE
8
BLACK
6
CONTINUOUS
10
0.938956
20
1.84553
11
0.933331
21
1.84741
0
LINE
8
BLACK
6
CONTINUOUS
10
0.933331
20
1.84741
11
0.93243
21
1.84789
0
LINE
8
BLACK
6
CONTINUOUS
10
0.93243
20
1.84789
11
0.932337
21
1.84804
0
LINE
8
BLACK
6
CONTINUOUS
10
0.932337
20
1.84804
11
0.932177
21
1.84812
0
LINE
8
BLACK
6
CONTINUOUS
10
0.932177
20
1.84812
11
0.928428
21
1.85187
0
LINE
8
BLACK
6
CONTINUOUS
10
0.928428
20
1.85187
11
0.927921
21
1.85259
0
LINE
8
BLACK
6
CONTINUOUS
10
0.927921
20
1.85259
11
0.927875
21
1.85264
0
LINE
8
BLACK
6
CONTINUOUS
10
0.927875
20
1.85264
11
0.926
21
1.85638
0
LINE
8
BLACK
6
CONTINUOUS
10
0.926
20
1.85638
11
0.925854
21
1.85687
0
LINE
8
BLACK
6
CONTINUOUS
10
0.925854
20
1.85687
11
0.925776
21
1.85699
0
LINE
8
BLACK
6
CONTINUOUS
10
0.925776
20
1.85699
11
0.923901
21
1.86449
0
LINE
8
BLACK
6
CONTINUOUS
10
0.923901
20
1.86449
11
0.92386
21
1.86508
0
LINE
8
BLACK
6
CONTINUOUS
10
0.92386
20
1.86508
11
0.923813
21
1.8652
0
LINE
8
BLACK
6
CONTINUOUS
10
0.923813
20
1.8652
11
0.923813
21
1.87083
0
LINE
8
BLACK
6
CONTINUOUS
10
0.923813
20
1.87083
11
0.923916
21
1.87141
0
LINE
8
BLACK
6
CONTINUOUS
10
0.923916
20
1.87141
11
0.923901
21
1.87154
0
LINE
8
BLACK
6
CONTINUOUS
10
0.923901
20
1.87154
11
0.925776
21
1.87904
0
LINE
8
BLACK
6
CONTINUOUS
10
0.925776
20
1.87904
11
0.925984
21
1.87951
0
LINE
8
BLACK
6
CONTINUOUS
10
0.925984
20
1.87951
11
0.926
21
1.87965
0
LINE
8
BLACK
6
CONTINUOUS
10
0.926
20
1.87965
11
0.927875
21
1.8834
0
LINE
8
BLACK
6
CONTINUOUS
10
0.927875
20
1.8834
11
0.9284
21
1.88411
0
LINE
8
BLACK
6
CONTINUOUS
10
0.9284
20
1.88411
11
0.928428
21
1.88417
0
LINE
8
BLACK
6
CONTINUOUS
10
0.928428
20
1.88417
11
0.932177
21
1.88791
0
LINE
8
BLACK
6
CONTINUOUS
10
0.932177
20
1.88791
11
0.933017
21
1.8885
0
LINE
8
BLACK
6
CONTINUOUS
10
0.933017
20
1.8885
11
0.933193
21
1.88852
0
LINE
8
BLACK
6
CONTINUOUS
10
0.933193
20
1.88852
11
0.933331
21
1.88863
0
LINE
8
BLACK
6
CONTINUOUS
10
0.933331
20
1.88863
11
0.938956
21
1.8905
0
LINE
8
BLACK
6
CONTINUOUS
10
0.938956
20
1.8905
11
0.939829
21
1.89063
0
LINE
8
BLACK
6
CONTINUOUS
10
0.939829
20
1.89063
11
0.939889
21
1.89065
0
LINE
8
BLACK
6
CONTINUOUS
10
0.939889
20
1.89065
11
0.949263
21
1.89065
0
LINE
8
BLACK
6
CONTINUOUS
10
0.949263
20
1.89065
11
0.949647
21
1.89059
0
LINE
8
BLACK
6
CONTINUOUS
10
0.940369
20
1.88475
11
0.93586
21
1.88325
0
LINE
8
BLACK
6
CONTINUOUS
10
0.93586
20
1.88325
11
0.932942
21
1.88033
0
LINE
8
BLACK
6
CONTINUOUS
10
0.932942
20
1.88033
11
0.931427
21
1.8773
0
LINE
8
BLACK
6
CONTINUOUS
10
0.931427
20
1.8773
11
0.929719
21
1.87047
0
LINE
8
BLACK
6
CONTINUOUS
10
0.929719
20
1.87047
11
0.929719
21
1.86557
0
LINE
8
BLACK
6
CONTINUOUS
10
0.929719
20
1.86557
11
0.931427
21
1.85874
0
LINE
8
BLACK
6
CONTINUOUS
10
0.931427
20
1.85874
11
0.932942
21
1.8557
0
LINE
8
BLACK
6
CONTINUOUS
10
0.932942
20
1.8557
11
0.93586
21
1.85279
0
LINE
8
BLACK
6
CONTINUOUS
10
0.93586
20
1.85279
11
0.940369
21
1.85128
0
LINE
8
BLACK
6
CONTINUOUS
10
0.940369
20
1.85128
11
0.94631
21
1.85128
0
LINE
8
BLACK
6
CONTINUOUS
10
0.94631
20
1.85128
11
0.94631
21
1.88475
0
LINE
8
BLACK
6
CONTINUOUS
10
0.94631
20
1.88475
11
0.940369
21
1.88475
0
LINE
8
BLACK
6
CONTINUOUS
10
0.901179
20
1.89052
11
0.901349
21
1.89054
0
LINE
8
BLACK
6
CONTINUOUS
10
0.901349
20
1.89054
11
0.902039
21
1.89003
0
LINE
8
BLACK
6
CONTINUOUS
10
0.902039
20
1.89003
11
0.902781
21
1.8896
0
LINE
8
BLACK
6
CONTINUOUS
10
0.902781
20
1.8896
11
0.902839
21
1.88944
0
LINE
8
BLACK
6
CONTINUOUS
10
0.902839
20
1.88944
11
0.902976
21
1.88934
0
LINE
8
BLACK
6
CONTINUOUS
10
0.902976
20
1.88934
11
0.906563
21
1.88396
0
LINE
8
BLACK
6
CONTINUOUS
10
0.906563
20
1.88396
11
0.909767
21
1.88075
0
LINE
8
BLACK
6
CONTINUOUS
10
0.909767
20
1.88075
11
0.913088
21
1.87909
0
LINE
8
BLACK
6
CONTINUOUS
10
0.913088
20
1.87909
11
0.913912
21
1.87848
0
LINE
8
BLACK
6
CONTINUOUS
10
0.913912
20
1.87848
11
0.914715
21
1.87663
0
LINE
8
BLACK
6
CONTINUOUS
10
0.914715
20
1.87663
11
0.914139
21
1.87469
0
LINE
8
BLACK
6
CONTINUOUS
10
0.914139
20
1.87469
11
0.912454
21
1.87358
0
LINE
8
BLACK
6
CONTINUOUS
10
0.912454
20
1.87358
11
0.910447
21
1.87381
0
LINE
8
BLACK
6
CONTINUOUS
10
0.910447
20
1.87381
11
0.906698
21
1.87569
0
LINE
8
BLACK
6
CONTINUOUS
10
0.906698
20
1.87569
11
0.905989
21
1.87621
0
LINE
8
BLACK
6
CONTINUOUS
10
0.905989
20
1.87621
11
0.90593
21
1.87624
0
LINE
8
BLACK
6
CONTINUOUS
10
0.90593
20
1.87624
11
0.903472
21
1.8787
0
LINE
8
BLACK
6
CONTINUOUS
10
0.903472
20
1.8787
11
0.903472
21
1.85128
0
LINE
8
BLACK
6
CONTINUOUS
10
0.903472
20
1.85128
11
0.911768
21
1.85128
0
LINE
8
BLACK
6
CONTINUOUS
10
0.911768
20
1.85128
11
0.912778
21
1.85111
0
LINE
8
BLACK
6
CONTINUOUS
10
0.912778
20
1.85111
11
0.914325
21
1.84981
0
LINE
8
BLACK
6
CONTINUOUS
10
0.914325
20
1.84981
11
0.914676
21
1.84782
0
LINE
8
BLACK
6
CONTINUOUS
10
0.914676
20
1.84782
11
0.913666
21
1.84607
0
LINE
8
BLACK
6
CONTINUOUS
10
0.913666
20
1.84607
11
0.911768
21
1.84538
0
LINE
8
BLACK
6
CONTINUOUS
10
0.911768
20
1.84538
11
0.889271
21
1.84538
0
LINE
8
BLACK
6
CONTINUOUS
10
0.889271
20
1.84538
11
0.888261
21
1.84556
0
LINE
8
BLACK
6
CONTINUOUS
10
0.888261
20
1.84556
11
0.886714
21
1.84686
0
LINE
8
BLACK
6
CONTINUOUS
10
0.886714
20
1.84686
11
0.886363
21
1.84884
0
LINE
8
BLACK
6
CONTINUOUS
10
0.886363
20
1.84884
11
0.887373
21
1.85059
0
LINE
8
BLACK
6
CONTINUOUS
10
0.887373
20
1.85059
11
0.889271
21
1.85128
0
LINE
8
BLACK
6
CONTINUOUS
10
0.889271
20
1.85128
11
0.897567
21
1.85128
0
LINE
8
BLACK
6
CONTINUOUS
10
0.897567
20
1.85128
11
0.897567
21
1.8877
0
LINE
8
BLACK
6
CONTINUOUS
10
0.897567
20
1.8877
11
0.897745
21
1.88871
0
LINE
8
BLACK
6
CONTINUOUS
10
0.897745
20
1.88871
11
0.897854
21
1.88884
0
LINE
8
BLACK
6
CONTINUOUS
10
0.897854
20
1.88884
11
0.897872
21
1.88901
0
LINE
8
BLACK
6
CONTINUOUS
10
0.897872
20
1.88901
11
0.898492
21
1.8896
0
LINE
8
BLACK
6
CONTINUOUS
10
0.898492
20
1.8896
11
0.899043
21
1.89026
0
LINE
8
BLACK
6
CONTINUOUS
10
0.899043
20
1.89026
11
0.89921
21
1.89029
0
LINE
8
BLACK
6
CONTINUOUS
10
0.89921
20
1.89029
11
0.899333
21
1.89041
0
LINE
8
BLACK
6
CONTINUOUS
10
0.899333
20
1.89041
11
0.900188
21
1.89046
0
LINE
8
BLACK
6
CONTINUOUS
10
0.900188
20
1.89046
11
0.901032
21
1.89061
0
LINE
8
BLACK
6
CONTINUOUS
10
0.901032
20
1.89061
11
0.901179
21
1.89052
  0
ENDSEC
  0
EOF
