  0
SECTION
  2
HEADER
  9
$ANGBASE
  50
0.0
  9
$ANGDIR
  70
1
  9
$MEASUREMENT
  70
0
  0
ENDSEC
  0
SECTION
  2
TABLES
  0
TABLE
  2
LTYPE
  70
4
  0
LTYPE
  5
40F
  2
CONTINUOUS
  70
0
  3
Solid line
  72
65
  73
0
  40
0.0
  0
LTYPE
  5
410
  2
DASHDOT
 70
0
  3
Dash Dot ____ _ ____ _
 72
65
 73
4
 40
2.0
 49
1.25
 49
-0.25
 49
0.25
 49
-0.25
  0
LTYPE
  5
411
  2
DASHED
 70
0
  3
Dashed __ __ __ __ __
 72
65
 73
2
 40
0.75
 49
0.5
 49
-0.25
  0
LTYPE
  5
43B
  2
DOTTED
 70
0
  3
Dotted .  .  .  .
 72
65
 73
2
 40
0.2
 49
0.0
 49
-0.2
  0
ENDTAB
  0
TABLE
  2
STYLE
  70
4
  0
STYLE
  2
KICAD
  70
0
  40
0
  41
1
  42
1
  50
0
  71
0
  3
isocp.shx
  0
STYLE
  2
KICADB
  70
0
  40
0
  41
1
  42
1
  50
0
  71
0
  3
isocp.shx
  0
STYLE
  2
KICADI
  70
0
  40
0
  41
1
  42
1
  50
15
  71
0
  3
isocp.shx
  0
STYLE
  2
KICADBI
  70
0
  40
0
  41
1
  42
1
  50
15
  71
0
  3
isocp.shx
  0
ENDTAB
  0
TABLE
  2
LAYER
  70
1
  0
LAYER
  2
BLACK
  70
0
  62
7
  6
CONTINUOUS
  0
ENDTAB
  0
ENDSEC
  0
SECTION
  2
ENTITIES
0
LINE
8
BLACK
6
CONTINUOUS
10
2.123605
20
1.1816179921259842
11
2.1241376771653542
21
1.18108531496063
0
LINE
8
BLACK
6
CONTINUOUS
10
2.1241376771653542
20
1.18108531496063
11
2.1242125984251969
21
1.1807086614173228
0
LINE
8
BLACK
6
CONTINUOUS
10
2.1242125984251969
20
1.1807086614173228
11
2.1242125984251969
21
1.0192913385826772
0
LINE
8
BLACK
6
CONTINUOUS
10
2.1242125984251969
20
1.0192913385826772
11
2.1241376771653542
21
1.01891468503937
0
LINE
8
BLACK
6
CONTINUOUS
10
2.1241376771653542
20
1.01891468503937
11
2.123605
21
1.0183820078740158
0
LINE
8
BLACK
6
CONTINUOUS
10
2.123605
20
1.0183820078740158
11
2.1232283464566928
21
1.0183070866141732
0
LINE
8
BLACK
6
CONTINUOUS
10
2.1232283464566928
20
1.0183070866141732
11
1.7767716535433071
21
1.0183070866141732
0
LINE
8
BLACK
6
CONTINUOUS
10
1.7767716535433071
20
1.0183070866141732
11
1.7763949999999999
21
1.0183820078740158
0
LINE
8
BLACK
6
CONTINUOUS
10
1.7763949999999999
20
1.0183820078740158
11
1.7758623228346457
21
1.01891468503937
0
LINE
8
BLACK
6
CONTINUOUS
10
1.7758623228346457
20
1.01891468503937
11
1.7757874015748032
21
1.0192913385826772
0
LINE
8
BLACK
6
CONTINUOUS
10
1.7757874015748032
20
1.0192913385826772
11
1.7757874015748032
21
1.1807086614173228
0
LINE
8
BLACK
6
CONTINUOUS
10
1.7757874015748032
20
1.1807086614173228
11
1.7758623228346457
21
1.18108531496063
0
LINE
8
BLACK
6
CONTINUOUS
10
1.7758623228346457
20
1.18108531496063
11
1.7763949999999999
21
1.1816179921259842
0
LINE
8
BLACK
6
CONTINUOUS
10
1.7763949999999999
20
1.1816179921259842
11
1.7767716535433071
21
1.1816929133858267
0
LINE
8
BLACK
6
CONTINUOUS
10
1.7767716535433071
20
1.1816929133858267
11
2.1232283464566928
21
1.1816929133858267
0
LINE
8
BLACK
6
CONTINUOUS
10
2.1232283464566928
20
1.1816929133858267
11
2.123605
21
1.1816179921259842
0
LINE
8
BLACK
6
CONTINUOUS
10
1.7777559055118111
20
1.1797244094488188
11
1.7777559055118111
21
1.0202755905511811
0
LINE
8
BLACK
6
CONTINUOUS
10
1.7777559055118111
20
1.0202755905511811
11
2.1222440944881891
21
1.0202755905511811
0
LINE
8
BLACK
6
CONTINUOUS
10
2.1222440944881891
20
1.0202755905511811
11
2.1222440944881891
21
1.1797244094488188
0
LINE
8
BLACK
6
CONTINUOUS
10
2.1222440944881891
20
1.1797244094488188
11
1.7777559055118111
21
1.1797244094488188
0
LINE
8
BLACK
6
CONTINUOUS
10
2.123605
20
1.6032847244094488
11
2.1241376771653542
21
1.6027520472440944
0
LINE
8
BLACK
6
CONTINUOUS
10
2.1241376771653542
20
1.6027520472440944
11
2.1242125984251969
21
1.6023753937007874
0
LINE
8
BLACK
6
CONTINUOUS
10
2.1242125984251969
20
1.6023753937007874
11
2.1242125984251969
21
1.4409580708661418
0
LINE
8
BLACK
6
CONTINUOUS
10
2.1242125984251969
20
1.4409580708661418
11
2.1241376771653542
21
1.4405814173228346
0
LINE
8
BLACK
6
CONTINUOUS
10
2.1241376771653542
20
1.4405814173228346
11
2.123605
21
1.4400487401574802
0
LINE
8
BLACK
6
CONTINUOUS
10
2.123605
20
1.4400487401574802
11
2.1232283464566928
21
1.4399738188976379
0
LINE
8
BLACK
6
CONTINUOUS
10
2.1232283464566928
20
1.4399738188976379
11
1.7767716535433071
21
1.4399738188976379
0
LINE
8
BLACK
6
CONTINUOUS
10
1.7767716535433071
20
1.4399738188976379
11
1.7763949999999999
21
1.4400487401574802
0
LINE
8
BLACK
6
CONTINUOUS
10
1.7763949999999999
20
1.4400487401574802
11
1.7758623228346457
21
1.4405814173228346
0
LINE
8
BLACK
6
CONTINUOUS
10
1.7758623228346457
20
1.4405814173228346
11
1.7757874015748032
21
1.4409580708661418
0
LINE
8
BLACK
6
CONTINUOUS
10
1.7757874015748032
20
1.4409580708661418
11
1.7757874015748032
21
1.6023753937007874
0
LINE
8
BLACK
6
CONTINUOUS
10
1.7757874015748032
20
1.6023753937007874
11
1.7758623228346457
21
1.6027520472440944
0
LINE
8
BLACK
6
CONTINUOUS
10
1.7758623228346457
20
1.6027520472440944
11
1.7763949999999999
21
1.6032847244094488
0
LINE
8
BLACK
6
CONTINUOUS
10
1.7763949999999999
20
1.6032847244094488
11
1.7767716535433071
21
1.6033596456692913
0
LINE
8
BLACK
6
CONTINUOUS
10
1.7767716535433071
20
1.6033596456692913
11
2.1232283464566928
21
1.6033596456692913
0
LINE
8
BLACK
6
CONTINUOUS
10
2.1232283464566928
20
1.6033596456692913
11
2.123605
21
1.6032847244094488
0
LINE
8
BLACK
6
CONTINUOUS
10
1.7777559055118111
20
1.6013911417322835
11
1.7777559055118111
21
1.4419423228346457
0
LINE
8
BLACK
6
CONTINUOUS
10
1.7777559055118111
20
1.4419423228346457
11
2.1222440944881891
21
1.4419423228346457
0
LINE
8
BLACK
6
CONTINUOUS
10
2.1222440944881891
20
1.4419423228346457
11
2.1222440944881891
21
1.6013911417322835
0
LINE
8
BLACK
6
CONTINUOUS
10
2.1222440944881891
20
1.6013911417322835
11
1.7777559055118111
21
1.6013911417322835
0
LINE
8
BLACK
6
CONTINUOUS
10
2.123605
20
2.0249513779527559
11
2.1241376771653542
21
2.0244187007874017
0
LINE
8
BLACK
6
CONTINUOUS
10
2.1241376771653542
20
2.0244187007874017
11
2.1242125984251969
21
2.0240420472440945
0
LINE
8
BLACK
6
CONTINUOUS
10
2.1242125984251969
20
2.0240420472440945
11
2.1242125984251969
21
1.8626247244094487
0
LINE
8
BLACK
6
CONTINUOUS
10
2.1242125984251969
20
1.8626247244094487
11
2.1241376771653542
21
1.8622480708661417
0
LINE
8
BLACK
6
CONTINUOUS
10
2.1241376771653542
20
1.8622480708661417
11
2.123605
21
1.8617153937007873
0
LINE
8
BLACK
6
CONTINUOUS
10
2.123605
20
1.8617153937007873
11
2.1232283464566928
21
1.8616404724409448
0
LINE
8
BLACK
6
CONTINUOUS
10
2.1232283464566928
20
1.8616404724409448
11
1.7767716535433071
21
1.8616404724409448
0
LINE
8
BLACK
6
CONTINUOUS
10
1.7767716535433071
20
1.8616404724409448
11
1.7763949999999999
21
1.8617153937007873
0
LINE
8
BLACK
6
CONTINUOUS
10
1.7763949999999999
20
1.8617153937007873
11
1.7758623228346457
21
1.8622480708661417
0
LINE
8
BLACK
6
CONTINUOUS
10
1.7758623228346457
20
1.8622480708661417
11
1.7757874015748032
21
1.8626247244094487
0
LINE
8
BLACK
6
CONTINUOUS
10
1.7757874015748032
20
1.8626247244094487
11
1.7757874015748032
21
2.0240420472440945
0
LINE
8
BLACK
6
CONTINUOUS
10
1.7757874015748032
20
2.0240420472440945
11
1.7758623228346457
21
2.0244187007874017
0
LINE
8
BLACK
6
CONTINUOUS
10
1.7758623228346457
20
2.0244187007874017
11
1.7763949999999999
21
2.0249513779527559
0
LINE
8
BLACK
6
CONTINUOUS
10
1.7763949999999999
20
2.0249513779527559
11
1.7767716535433071
21
2.0250262992125982
0
LINE
8
BLACK
6
CONTINUOUS
10
1.7767716535433071
20
2.0250262992125982
11
2.1232283464566928
21
2.0250262992125982
0
LINE
8
BLACK
6
CONTINUOUS
10
2.1232283464566928
20
2.0250262992125982
11
2.123605
21
2.0249513779527559
0
LINE
8
BLACK
6
CONTINUOUS
10
1.7777559055118111
20
2.0230577952755904
11
1.7777559055118111
21
1.8636089763779526
0
LINE
8
BLACK
6
CONTINUOUS
10
1.7777559055118111
20
1.8636089763779526
11
2.1222440944881891
21
1.8636089763779526
0
LINE
8
BLACK
6
CONTINUOUS
10
2.1222440944881891
20
1.8636089763779526
11
2.1222440944881891
21
2.0230577952755904
0
LINE
8
BLACK
6
CONTINUOUS
10
2.1222440944881891
20
2.0230577952755904
11
1.7777559055118111
21
2.0230577952755904
0
LINE
8
BLACK
6
CONTINUOUS
10
2.123605
20
2.4466180314960631
11
2.1241376771653542
21
2.4460853543307084
0
LINE
8
BLACK
6
CONTINUOUS
10
2.1241376771653542
20
2.4460853543307084
11
2.1242125984251969
21
2.4457087007874017
0
LINE
8
BLACK
6
CONTINUOUS
10
2.1242125984251969
20
2.4457087007874017
11
2.1242125984251969
21
2.2842913779527558
0
LINE
8
BLACK
6
CONTINUOUS
10
2.1242125984251969
20
2.2842913779527558
11
2.1241376771653542
21
2.2839147244094486
0
LINE
8
BLACK
6
CONTINUOUS
10
2.1241376771653542
20
2.2839147244094486
11
2.123605
21
2.2833820472440944
0
LINE
8
BLACK
6
CONTINUOUS
10
2.123605
20
2.2833820472440944
11
2.1232283464566928
21
2.2833071259842521
0
LINE
8
BLACK
6
CONTINUOUS
10
2.1232283464566928
20
2.2833071259842521
11
1.7767716535433071
21
2.2833071259842521
0
LINE
8
BLACK
6
CONTINUOUS
10
1.7767716535433071
20
2.2833071259842521
11
1.7763949999999999
21
2.2833820472440944
0
LINE
8
BLACK
6
CONTINUOUS
10
1.7763949999999999
20
2.2833820472440944
11
1.7758623228346457
21
2.2839147244094486
0
LINE
8
BLACK
6
CONTINUOUS
10
1.7758623228346457
20
2.2839147244094486
11
1.7757874015748032
21
2.2842913779527558
0
LINE
8
BLACK
6
CONTINUOUS
10
1.7757874015748032
20
2.2842913779527558
11
1.7757874015748032
21
2.4457087007874017
0
LINE
8
BLACK
6
CONTINUOUS
10
1.7757874015748032
20
2.4457087007874017
11
1.7758623228346457
21
2.4460853543307084
0
LINE
8
BLACK
6
CONTINUOUS
10
1.7758623228346457
20
2.4460853543307084
11
1.7763949999999999
21
2.4466180314960631
0
LINE
8
BLACK
6
CONTINUOUS
10
1.7763949999999999
20
2.4466180314960631
11
1.7767716535433071
21
2.4466929527559054
0
LINE
8
BLACK
6
CONTINUOUS
10
1.7767716535433071
20
2.4466929527559054
11
2.1232283464566928
21
2.4466929527559054
0
LINE
8
BLACK
6
CONTINUOUS
10
2.1232283464566928
20
2.4466929527559054
11
2.123605
21
2.4466180314960631
0
LINE
8
BLACK
6
CONTINUOUS
10
1.7777559055118111
20
2.4447244488188975
11
1.7777559055118111
21
2.28527562992126
0
LINE
8
BLACK
6
CONTINUOUS
10
1.7777559055118111
20
2.28527562992126
11
2.1222440944881891
21
2.28527562992126
0
LINE
8
BLACK
6
CONTINUOUS
10
2.1222440944881891
20
2.28527562992126
11
2.1222440944881891
21
2.4447244488188975
0
LINE
8
BLACK
6
CONTINUOUS
10
2.1222440944881891
20
2.4447244488188975
11
1.7777559055118111
21
2.4447244488188975
0
LINE
8
BLACK
6
CONTINUOUS
10
2.6989593307086612
20
2.5904368897637795
11
2.6994920078740159
21
2.5899042125984253
0
LINE
8
BLACK
6
CONTINUOUS
10
2.6994920078740159
20
2.5899042125984253
11
2.6995669291338582
21
2.5895275590551181
0
LINE
8
BLACK
6
CONTINUOUS
10
2.6995669291338582
20
2.5895275590551181
11
2.6995669291338582
21
2.4556692913385825
0
LINE
8
BLACK
6
CONTINUOUS
10
2.6995669291338582
20
2.4556692913385825
11
2.6994920078740159
21
2.4552926377952757
0
LINE
8
BLACK
6
CONTINUOUS
10
2.6994920078740159
20
2.4552926377952757
11
2.6989593307086612
21
2.4547599606299211
0
LINE
8
BLACK
6
CONTINUOUS
10
2.6989593307086612
20
2.4547599606299211
11
2.698582677165354
21
2.4546850393700788
0
LINE
8
BLACK
6
CONTINUOUS
10
2.698582677165354
20
2.4546850393700788
11
2.6214173228346458
21
2.4546850393700788
0
LINE
8
BLACK
6
CONTINUOUS
10
2.6214173228346458
20
2.4546850393700788
11
2.6210406692913386
21
2.4547599606299211
0
LINE
8
BLACK
6
CONTINUOUS
10
2.6210406692913386
20
2.4547599606299211
11
2.6205079921259844
21
2.4552926377952757
0
LINE
8
BLACK
6
CONTINUOUS
10
2.6205079921259844
20
2.4552926377952757
11
2.6204330708661416
21
2.4556692913385825
0
LINE
8
BLACK
6
CONTINUOUS
10
2.6204330708661416
20
2.4556692913385825
11
2.6204330708661416
21
2.5895275590551181
0
LINE
8
BLACK
6
CONTINUOUS
10
2.6204330708661416
20
2.5895275590551181
11
2.6205079921259844
21
2.5899042125984253
0
LINE
8
BLACK
6
CONTINUOUS
10
2.6205079921259844
20
2.5899042125984253
11
2.6210406692913386
21
2.5904368897637795
0
LINE
8
BLACK
6
CONTINUOUS
10
2.6210406692913386
20
2.5904368897637795
11
2.6214173228346458
21
2.5905118110236218
0
LINE
8
BLACK
6
CONTINUOUS
10
2.6214173228346458
20
2.5905118110236218
11
2.698582677165354
21
2.5905118110236218
0
LINE
8
BLACK
6
CONTINUOUS
10
2.698582677165354
20
2.5905118110236218
11
2.6989593307086612
21
2.5904368897637795
0
LINE
8
BLACK
6
CONTINUOUS
10
2.6224015748031495
20
2.588543307086614
11
2.6224015748031495
21
2.4566535433070866
0
LINE
8
BLACK
6
CONTINUOUS
10
2.6224015748031495
20
2.4566535433070866
11
2.6975984251968503
21
2.4566535433070866
0
LINE
8
BLACK
6
CONTINUOUS
10
2.6975984251968503
20
2.4566535433070866
11
2.6975984251968503
21
2.588543307086614
0
LINE
8
BLACK
6
CONTINUOUS
10
2.6975984251968503
20
2.588543307086614
11
2.6224015748031495
21
2.588543307086614
0
LINE
8
BLACK
6
CONTINUOUS
10
2.9092742913385825
20
2.8487046062992127
11
2.9098069685039372
21
2.8481719291338581
0
LINE
8
BLACK
6
CONTINUOUS
10
2.9098069685039372
20
2.8481719291338581
11
2.9098818897637795
21
2.8477952755905509
0
LINE
8
BLACK
6
CONTINUOUS
10
2.9098818897637795
20
2.8477952755905509
11
2.9098818897637795
21
2.5722047244094486
0
LINE
8
BLACK
6
CONTINUOUS
10
2.9098818897637795
20
2.5722047244094486
11
2.9098069685039372
21
2.5718280708661418
0
LINE
8
BLACK
6
CONTINUOUS
10
2.9098069685039372
20
2.5718280708661418
11
2.9092742913385825
21
2.5712953937007872
0
LINE
8
BLACK
6
CONTINUOUS
10
2.9092742913385825
20
2.5712953937007872
11
2.9088976377952753
21
2.5712204724409449
0
LINE
8
BLACK
6
CONTINUOUS
10
2.9088976377952753
20
2.5712204724409449
11
2.7711023622047244
21
2.5712204724409449
0
LINE
8
BLACK
6
CONTINUOUS
10
2.7711023622047244
20
2.5712204724409449
11
2.7707257086614172
21
2.5712953937007872
0
LINE
8
BLACK
6
CONTINUOUS
10
2.7707257086614172
20
2.5712953937007872
11
2.770193031496063
21
2.5718280708661418
0
LINE
8
BLACK
6
CONTINUOUS
10
2.770193031496063
20
2.5718280708661418
11
2.7701181102362202
21
2.5722047244094486
0
LINE
8
BLACK
6
CONTINUOUS
10
2.7701181102362202
20
2.5722047244094486
11
2.7701181102362202
21
2.8477952755905509
0
LINE
8
BLACK
6
CONTINUOUS
10
2.7701181102362202
20
2.8477952755905509
11
2.770193031496063
21
2.8481719291338581
0
LINE
8
BLACK
6
CONTINUOUS
10
2.770193031496063
20
2.8481719291338581
11
2.7707257086614172
21
2.8487046062992127
0
LINE
8
BLACK
6
CONTINUOUS
10
2.7707257086614172
20
2.8487046062992127
11
2.7711023622047244
21
2.8487795275590551
0
LINE
8
BLACK
6
CONTINUOUS
10
2.7711023622047244
20
2.8487795275590551
11
2.9088976377952753
21
2.8487795275590551
0
LINE
8
BLACK
6
CONTINUOUS
10
2.9088976377952753
20
2.8487795275590551
11
2.9092742913385825
21
2.8487046062992127
0
LINE
8
BLACK
6
CONTINUOUS
10
2.7720866141732281
20
2.8468110236220472
11
2.7720866141732281
21
2.5731889763779527
0
LINE
8
BLACK
6
CONTINUOUS
10
2.7720866141732281
20
2.5731889763779527
11
2.9079133858267716
21
2.5731889763779527
0
LINE
8
BLACK
6
CONTINUOUS
10
2.9079133858267716
20
2.5731889763779527
11
2.9079133858267716
21
2.8468110236220472
0
LINE
8
BLACK
6
CONTINUOUS
10
2.9079133858267716
20
2.8468110236220472
11
2.7720866141732281
21
2.8468110236220472
0
LINE
8
BLACK
6
CONTINUOUS
10
2.123605
20
2.8682846850393702
11
2.1241376771653542
21
2.8677520078740155
0
LINE
8
BLACK
6
CONTINUOUS
10
2.1241376771653542
20
2.8677520078740155
11
2.1242125984251969
21
2.8673753543307088
0
LINE
8
BLACK
6
CONTINUOUS
10
2.1242125984251969
20
2.8673753543307088
11
2.1242125984251969
21
2.705958031496063
0
LINE
8
BLACK
6
CONTINUOUS
10
2.1242125984251969
20
2.705958031496063
11
2.1241376771653542
21
2.7055813779527558
0
LINE
8
BLACK
6
CONTINUOUS
10
2.1241376771653542
20
2.7055813779527558
11
2.123605
21
2.7050487007874016
0
LINE
8
BLACK
6
CONTINUOUS
10
2.123605
20
2.7050487007874016
11
2.1232283464566928
21
2.7049737795275588
0
LINE
8
BLACK
6
CONTINUOUS
10
2.1232283464566928
20
2.7049737795275588
11
1.7767716535433071
21
2.7049737795275588
0
LINE
8
BLACK
6
CONTINUOUS
10
1.7767716535433071
20
2.7049737795275588
11
1.7763949999999999
21
2.7050487007874016
0
LINE
8
BLACK
6
CONTINUOUS
10
1.7763949999999999
20
2.7050487007874016
11
1.7758623228346457
21
2.7055813779527558
0
LINE
8
BLACK
6
CONTINUOUS
10
1.7758623228346457
20
2.7055813779527558
11
1.7757874015748032
21
2.705958031496063
0
LINE
8
BLACK
6
CONTINUOUS
10
1.7757874015748032
20
2.705958031496063
11
1.7757874015748032
21
2.8673753543307088
0
LINE
8
BLACK
6
CONTINUOUS
10
1.7757874015748032
20
2.8673753543307088
11
1.7758623228346457
21
2.8677520078740155
0
LINE
8
BLACK
6
CONTINUOUS
10
1.7758623228346457
20
2.8677520078740155
11
1.7763949999999999
21
2.8682846850393702
0
LINE
8
BLACK
6
CONTINUOUS
10
1.7763949999999999
20
2.8682846850393702
11
1.7767716535433071
21
2.8683596062992125
0
LINE
8
BLACK
6
CONTINUOUS
10
1.7767716535433071
20
2.8683596062992125
11
2.1232283464566928
21
2.8683596062992125
0
LINE
8
BLACK
6
CONTINUOUS
10
2.1232283464566928
20
2.8683596062992125
11
2.123605
21
2.8682846850393702
0
LINE
8
BLACK
6
CONTINUOUS
10
1.7777559055118111
20
2.8663911023622046
11
1.7777559055118111
21
2.7069422834645667
0
LINE
8
BLACK
6
CONTINUOUS
10
1.7777559055118111
20
2.7069422834645667
11
2.1222440944881891
21
2.7069422834645667
0
LINE
8
BLACK
6
CONTINUOUS
10
2.1222440944881891
20
2.7069422834645667
11
2.1222440944881891
21
2.8663911023622046
0
LINE
8
BLACK
6
CONTINUOUS
10
2.1222440944881891
20
2.8663911023622046
11
1.7777559055118111
21
2.8663911023622046
0
LINE
8
BLACK
6
CONTINUOUS
10
2.123605
20
3.2899513385826773
11
2.1241376771653542
21
3.2894186614173226
0
LINE
8
BLACK
6
CONTINUOUS
10
2.1241376771653542
20
3.2894186614173226
11
2.1242125984251969
21
3.2890420078740155
0
LINE
8
BLACK
6
CONTINUOUS
10
2.1242125984251969
20
3.2890420078740155
11
2.1242125984251969
21
3.1276246850393701
0
LINE
8
BLACK
6
CONTINUOUS
10
2.1242125984251969
20
3.1276246850393701
11
2.1241376771653542
21
3.1272480314960629
0
LINE
8
BLACK
6
CONTINUOUS
10
2.1241376771653542
20
3.1272480314960629
11
2.123605
21
3.1267153543307087
0
LINE
8
BLACK
6
CONTINUOUS
10
2.123605
20
3.1267153543307087
11
2.1232283464566928
21
3.1266404330708659
0
LINE
8
BLACK
6
CONTINUOUS
10
2.1232283464566928
20
3.1266404330708659
11
1.7767716535433071
21
3.1266404330708659
0
LINE
8
BLACK
6
CONTINUOUS
10
1.7767716535433071
20
3.1266404330708659
11
1.7763949999999999
21
3.1267153543307087
0
LINE
8
BLACK
6
CONTINUOUS
10
1.7763949999999999
20
3.1267153543307087
11
1.7758623228346457
21
3.1272480314960629
0
LINE
8
BLACK
6
CONTINUOUS
10
1.7758623228346457
20
3.1272480314960629
11
1.7757874015748032
21
3.1276246850393701
0
LINE
8
BLACK
6
CONTINUOUS
10
1.7757874015748032
20
3.1276246850393701
11
1.7757874015748032
21
3.2890420078740155
0
LINE
8
BLACK
6
CONTINUOUS
10
1.7757874015748032
20
3.2890420078740155
11
1.7758623228346457
21
3.2894186614173226
0
LINE
8
BLACK
6
CONTINUOUS
10
1.7758623228346457
20
3.2894186614173226
11
1.7763949999999999
21
3.2899513385826773
0
LINE
8
BLACK
6
CONTINUOUS
10
1.7763949999999999
20
3.2899513385826773
11
1.7767716535433071
21
3.2900262598425196
0
LINE
8
BLACK
6
CONTINUOUS
10
1.7767716535433071
20
3.2900262598425196
11
2.1232283464566928
21
3.2900262598425196
0
LINE
8
BLACK
6
CONTINUOUS
10
2.1232283464566928
20
3.2900262598425196
11
2.123605
21
3.2899513385826773
0
LINE
8
BLACK
6
CONTINUOUS
10
1.7777559055118111
20
3.2880577559055117
11
1.7777559055118111
21
3.1286089370078738
0
LINE
8
BLACK
6
CONTINUOUS
10
1.7777559055118111
20
3.1286089370078738
11
2.1222440944881891
21
3.1286089370078738
0
LINE
8
BLACK
6
CONTINUOUS
10
2.1222440944881891
20
3.1286089370078738
11
2.1222440944881891
21
3.2880577559055117
0
LINE
8
BLACK
6
CONTINUOUS
10
2.1222440944881891
20
3.2880577559055117
11
1.7777559055118111
21
3.2880577559055117
0
LINE
8
BLACK
6
CONTINUOUS
10
2.123605
20
3.711617992125984
11
2.1241376771653542
21
3.7110853149606298
0
LINE
8
BLACK
6
CONTINUOUS
10
2.1241376771653542
20
3.7110853149606298
11
2.1242125984251969
21
3.7107086614173226
0
LINE
8
BLACK
6
CONTINUOUS
10
2.1242125984251969
20
3.7107086614173226
11
2.1242125984251969
21
3.5492913385826772
0
LINE
8
BLACK
6
CONTINUOUS
10
2.1242125984251969
20
3.5492913385826772
11
2.1241376771653542
21
3.54891468503937
0
LINE
8
BLACK
6
CONTINUOUS
10
2.1241376771653542
20
3.54891468503937
11
2.123605
21
3.5483820078740158
0
LINE
8
BLACK
6
CONTINUOUS
10
2.123605
20
3.5483820078740158
11
2.1232283464566928
21
3.548307086614173
0
LINE
8
BLACK
6
CONTINUOUS
10
2.1232283464566928
20
3.548307086614173
11
1.7767716535433071
21
3.548307086614173
0
LINE
8
BLACK
6
CONTINUOUS
10
1.7767716535433071
20
3.548307086614173
11
1.7763949999999999
21
3.5483820078740158
0
LINE
8
BLACK
6
CONTINUOUS
10
1.7763949999999999
20
3.5483820078740158
11
1.7758623228346457
21
3.54891468503937
0
LINE
8
BLACK
6
CONTINUOUS
10
1.7758623228346457
20
3.54891468503937
11
1.7757874015748032
21
3.5492913385826772
0
LINE
8
BLACK
6
CONTINUOUS
10
1.7757874015748032
20
3.5492913385826772
11
1.7757874015748032
21
3.7107086614173226
0
LINE
8
BLACK
6
CONTINUOUS
10
1.7757874015748032
20
3.7107086614173226
11
1.7758623228346457
21
3.7110853149606298
0
LINE
8
BLACK
6
CONTINUOUS
10
1.7758623228346457
20
3.7110853149606298
11
1.7763949999999999
21
3.711617992125984
0
LINE
8
BLACK
6
CONTINUOUS
10
1.7763949999999999
20
3.711617992125984
11
1.7767716535433071
21
3.7116929133858267
0
LINE
8
BLACK
6
CONTINUOUS
10
1.7767716535433071
20
3.7116929133858267
11
2.1232283464566928
21
3.7116929133858267
0
LINE
8
BLACK
6
CONTINUOUS
10
2.1232283464566928
20
3.7116929133858267
11
2.123605
21
3.711617992125984
0
LINE
8
BLACK
6
CONTINUOUS
10
1.7777559055118111
20
3.7097244094488189
11
1.7777559055118111
21
3.5502755905511809
0
LINE
8
BLACK
6
CONTINUOUS
10
1.7777559055118111
20
3.5502755905511809
11
2.1222440944881891
21
3.5502755905511809
0
LINE
8
BLACK
6
CONTINUOUS
10
2.1222440944881891
20
3.5502755905511809
11
2.1222440944881891
21
3.7097244094488189
0
LINE
8
BLACK
6
CONTINUOUS
10
2.1222440944881891
20
3.7097244094488189
11
1.7777559055118111
21
3.7097244094488189
0
CIRCLE
8
BLACK
10
0.430240157480315
20
2.8954330708661415
40
0.0068897637795276
0
CIRCLE
8
BLACK
10
0.6270905511811024
20
2.8954330708661415
40
0.0068897637795276
0
CIRCLE
8
BLACK
10
2.7999999999999998
20
3.6000000000000001
40
0.0068897637795276
0
CIRCLE
8
BLACK
10
0.430240157480315
20
2.698582677165354
40
0.0068897637795276
0
CIRCLE
8
BLACK
10
0.6270905511811024
20
2.698582677165354
40
0.0068897637795276
0
CIRCLE
8
BLACK
10
2.7999999999999998
20
0.4
40
0.0068897637795276
0
CIRCLE
8
BLACK
10
2.7794389763779526
20
0.8154330708661417
40
0.0068897637795276
0
CIRCLE
8
BLACK
10
2.5825885826771655
20
0.8154330708661417
40
0.0068897637795276
0
CIRCLE
8
BLACK
10
1.3385826771653544
20
1.8718223622047243
40
0.0068897637795276
0
CIRCLE
8
BLACK
10
1.5354330708661417
20
1.8718223622047243
40
0.0068897637795276
0
CIRCLE
8
BLACK
10
0.430240157480315
20
3.2891338582677165
40
0.0068897637795276
0
CIRCLE
8
BLACK
10
0.6270905511811024
20
3.2891338582677165
40
0.0068897637795276
0
CIRCLE
8
BLACK
10
2.7794389763779526
20
1.0122834645669292
40
0.0068897637795276
0
CIRCLE
8
BLACK
10
2.5825885826771655
20
1.0122834645669292
40
0.0068897637795276
0
CIRCLE
8
BLACK
10
0.430240157480315
20
2.108031496062992
40
0.0068897637795276
0
CIRCLE
8
BLACK
10
0.6270905511811024
20
2.108031496062992
40
0.0068897637795276
0
CIRCLE
8
BLACK
10
0.878267716535433
20
0.6369291338582677
40
0.0068897637795276
0
CIRCLE
8
BLACK
10
0.878267716535433
20
0.5030708661417322
40
0.0068897637795276
0
CIRCLE
8
BLACK
10
1.261732283464567
20
0.6369291338582677
40
0.0068897637795276
0
CIRCLE
8
BLACK
10
1.261732283464567
20
0.5030708661417322
40
0.0068897637795276
0
CIRCLE
8
BLACK
10
0.430240157480315
20
1.1237795275590552
40
0.0068897637795276
0
CIRCLE
8
BLACK
10
0.6270905511811024
20
1.1237795275590552
40
0.0068897637795276
0
CIRCLE
8
BLACK
10
1.3385826771653544
20
3.1254359055118108
40
0.0068897637795276
0
CIRCLE
8
BLACK
10
1.5354330708661417
20
3.1254359055118108
40
0.0068897637795276
0
CIRCLE
8
BLACK
10
2.7825590551181101
20
1.2130708661417322
40
0.0068897637795276
0
CIRCLE
8
BLACK
10
2.5857086614173226
20
1.2130708661417322
40
0.0068897637795276
0
CIRCLE
8
BLACK
10
2.4100000000000001
20
3.3100000000000001
40
0.0068897637795276
0
CIRCLE
8
BLACK
10
2.5099999999999998
20
3.3100000000000001
40
0.0068897637795276
0
CIRCLE
8
BLACK
10
2.4100000000000001
20
3.21
40
0.0068897637795276
0
CIRCLE
8
BLACK
10
2.5099999999999998
20
3.21
40
0.0068897637795276
0
CIRCLE
8
BLACK
10
2.4100000000000001
20
3.1099999999999999
40
0.0068897637795276
0
CIRCLE
8
BLACK
10
2.5099999999999998
20
3.1099999999999999
40
0.0068897637795276
0
CIRCLE
8
BLACK
10
2.4100000000000001
20
3.0099999999999998
40
0.0068897637795276
0
CIRCLE
8
BLACK
10
2.5099999999999998
20
3.0099999999999998
40
0.0068897637795276
0
CIRCLE
8
BLACK
10
2.4100000000000001
20
2.9100000000000001
40
0.0068897637795276
0
CIRCLE
8
BLACK
10
2.5099999999999998
20
2.9100000000000001
40
0.0068897637795276
0
CIRCLE
8
BLACK
10
2.4100000000000001
20
2.8100000000000001
40
0.0068897637795276
0
CIRCLE
8
BLACK
10
2.5099999999999998
20
2.8100000000000001
40
0.0068897637795276
0
CIRCLE
8
BLACK
10
2.4100000000000001
20
2.71
40
0.0068897637795276
0
CIRCLE
8
BLACK
10
2.5099999999999998
20
2.71
40
0.0068897637795276
0
CIRCLE
8
BLACK
10
0.430240157480315
20
2.501732283464567
40
0.0068897637795276
0
CIRCLE
8
BLACK
10
0.6270905511811024
20
2.501732283464567
40
0.0068897637795276
0
CIRCLE
8
BLACK
10
0.430240157480315
20
1.7143307086614172
40
0.0068897637795276
0
CIRCLE
8
BLACK
10
0.6270905511811024
20
1.7143307086614172
40
0.0068897637795276
0
CIRCLE
8
BLACK
10
0.4
20
0.4
40
0.0068897637795276
0
CIRCLE
8
BLACK
10
1.3385826771653544
20
1.4539511811023622
40
0.0068897637795276
0
CIRCLE
8
BLACK
10
1.5354330708661417
20
1.4539511811023622
40
0.0068897637795276
0
CIRCLE
8
BLACK
10
2.7825590551181101
20
1.4099212598425197
40
0.0068897637795276
0
CIRCLE
8
BLACK
10
2.5857086614173226
20
1.4099212598425197
40
0.0068897637795276
0
CIRCLE
8
BLACK
10
1.3385826771653544
20
3.5433070866141732
40
0.0068897637795276
0
CIRCLE
8
BLACK
10
1.5354330708661417
20
3.5433070866141732
40
0.0068897637795276
0
CIRCLE
8
BLACK
10
0.430240157480315
20
1.51748031496063
40
0.0068897637795276
0
CIRCLE
8
BLACK
10
0.6270905511811024
20
1.51748031496063
40
0.0068897637795276
0
CIRCLE
8
BLACK
10
0.4
20
3.6000000000000001
40
0.0068897637795276
0
CIRCLE
8
BLACK
10
0.430240157480315
20
3.092283464566929
40
0.0068897637795276
0
CIRCLE
8
BLACK
10
0.6270905511811024
20
3.092283464566929
40
0.0068897637795276
0
CIRCLE
8
BLACK
10
1.981732283464567
20
0.5030708661417322
40
0.0068897637795276
0
CIRCLE
8
BLACK
10
1.981732283464567
20
0.6369291338582677
40
0.0068897637795276
0
CIRCLE
8
BLACK
10
1.5982677165354331
20
0.5030708661417322
40
0.0068897637795276
0
CIRCLE
8
BLACK
10
1.5982677165354331
20
0.6369291338582677
40
0.0068897637795276
0
CIRCLE
8
BLACK
10
1.3385826771653544
20
2.707564724409449
40
0.0068897637795276
0
CIRCLE
8
BLACK
10
1.5354330708661417
20
2.707564724409449
40
0.0068897637795276
0
CIRCLE
8
BLACK
10
2.7059055118110233
20
2.3153543307086615
40
0.0068897637795276
0
CIRCLE
8
BLACK
10
2.8059055118110234
20
2.3153543307086615
40
0.0068897637795276
0
CIRCLE
8
BLACK
10
2.7059055118110233
20
2.2153543307086614
40
0.0068897637795276
0
CIRCLE
8
BLACK
10
2.8059055118110234
20
2.2153543307086614
40
0.0068897637795276
0
CIRCLE
8
BLACK
10
2.7059055118110233
20
2.1153543307086613
40
0.0068897637795276
0
CIRCLE
8
BLACK
10
2.8059055118110234
20
2.1153543307086613
40
0.0068897637795276
0
CIRCLE
8
BLACK
10
2.7059055118110233
20
2.0153543307086612
40
0.0068897637795276
0
CIRCLE
8
BLACK
10
2.8059055118110234
20
2.0153543307086612
40
0.0068897637795276
0
CIRCLE
8
BLACK
10
1.3385826771653544
20
1.0360799999999999
40
0.0068897637795276
0
CIRCLE
8
BLACK
10
1.5354330708661417
20
1.0360799999999999
40
0.0068897637795276
0
CIRCLE
8
BLACK
10
0.430240157480315
20
2.3048818897637795
40
0.0068897637795276
0
CIRCLE
8
BLACK
10
0.6270905511811024
20
2.3048818897637795
40
0.0068897637795276
0
CIRCLE
8
BLACK
10
2.4696850393700789
20
2.3153543307086615
40
0.0068897637795276
0
CIRCLE
8
BLACK
10
2.5696850393700785
20
2.3153543307086615
40
0.0068897637795276
0
CIRCLE
8
BLACK
10
2.4696850393700789
20
2.2153543307086614
40
0.0068897637795276
0
CIRCLE
8
BLACK
10
2.5696850393700785
20
2.2153543307086614
40
0.0068897637795276
0
CIRCLE
8
BLACK
10
2.4696850393700789
20
2.1153543307086613
40
0.0068897637795276
0
CIRCLE
8
BLACK
10
2.5696850393700785
20
2.1153543307086613
40
0.0068897637795276
0
CIRCLE
8
BLACK
10
2.4696850393700789
20
2.0153543307086612
40
0.0068897637795276
0
CIRCLE
8
BLACK
10
2.5696850393700785
20
2.0153543307086612
40
0.0068897637795276
0
CIRCLE
8
BLACK
10
0.430240157480315
20
1.3206299212598425
40
0.0068897637795276
0
CIRCLE
8
BLACK
10
0.6270905511811024
20
1.3206299212598425
40
0.0068897637795276
0
CIRCLE
8
BLACK
10
1.3385826771653544
20
2.2896935433070866
40
0.0068897637795276
0
CIRCLE
8
BLACK
10
1.5354330708661417
20
2.2896935433070866
40
0.0068897637795276
0
CIRCLE
8
BLACK
10
0.430240157480315
20
1.9111811023622047
40
0.0068897637795276
0
CIRCLE
8
BLACK
10
0.6270905511811024
20
1.9111811023622047
40
0.0068897637795276
0
CIRCLE
8
BLACK
10
2.9100000000000001
20
2.9399999999999999
40
0.0068897637795276
0
CIRCLE
8
BLACK
10
2.8100000000000001
20
2.9399999999999999
40
0.0068897637795276
0
CIRCLE
8
BLACK
10
2.9100000000000001
20
3.04
40
0.0068897637795276
0
CIRCLE
8
BLACK
10
2.8100000000000001
20
3.04
40
0.0068897637795276
0
CIRCLE
8
BLACK
10
2.9100000000000001
20
3.1400000000000001
40
0.0068897637795276
0
CIRCLE
8
BLACK
10
2.8100000000000001
20
3.1400000000000001
40
0.0068897637795276
0
CIRCLE
8
BLACK
10
1.8799999999999999
20
2.1699999999999999
40
0.0068897637795276
0
CIRCLE
8
BLACK
10
2.4149015748031495
20
1.2268503937007873
40
0.0068897637795276
0
CIRCLE
8
BLACK
10
2.3823129921259842
20
0.8396062992125984
40
0.0068897637795276
0
CIRCLE
8
BLACK
10
1.8799999999999999
20
3.0099999999999998
40
0.0068897637795276
0
CIRCLE
8
BLACK
10
1.8799999999999999
20
0.91
40
0.0068897637795276
0
CIRCLE
8
BLACK
10
1.8799999999999999
20
1.3300000000000001
40
0.0068897637795276
0
CIRCLE
8
BLACK
10
1.8799999999999999
20
2.5899999999999999
40
0.0068897637795276
0
CIRCLE
8
BLACK
10
1.8799999999999999
20
1.75
40
0.0068897637795276
0
CIRCLE
8
BLACK
10
1.8799999999999999
20
3.4299999999999997
40
0.0068897637795276
0
CIRCLE
8
BLACK
10
0.430240157480315
20
2.8954330708661415
40
0.0068897637795276
0
CIRCLE
8
BLACK
10
0.6270905511811024
20
2.8954330708661415
40
0.0068897637795276
0
CIRCLE
8
BLACK
10
2.7999999999999998
20
3.6000000000000001
40
0.0068897637795276
0
CIRCLE
8
BLACK
10
0.430240157480315
20
2.698582677165354
40
0.0068897637795276
0
CIRCLE
8
BLACK
10
0.6270905511811024
20
2.698582677165354
40
0.0068897637795276
0
CIRCLE
8
BLACK
10
2.7999999999999998
20
0.4
40
0.0068897637795276
0
CIRCLE
8
BLACK
10
2.7794389763779526
20
0.8154330708661417
40
0.0068897637795276
0
CIRCLE
8
BLACK
10
2.5825885826771655
20
0.8154330708661417
40
0.0068897637795276
0
CIRCLE
8
BLACK
10
1.3385826771653544
20
1.8718223622047243
40
0.0068897637795276
0
CIRCLE
8
BLACK
10
1.5354330708661417
20
1.8718223622047243
40
0.0068897637795276
0
CIRCLE
8
BLACK
10
0.430240157480315
20
3.2891338582677165
40
0.0068897637795276
0
CIRCLE
8
BLACK
10
0.6270905511811024
20
3.2891338582677165
40
0.0068897637795276
0
CIRCLE
8
BLACK
10
2.7794389763779526
20
1.0122834645669292
40
0.0068897637795276
0
CIRCLE
8
BLACK
10
2.5825885826771655
20
1.0122834645669292
40
0.0068897637795276
0
CIRCLE
8
BLACK
10
0.430240157480315
20
2.108031496062992
40
0.0068897637795276
0
CIRCLE
8
BLACK
10
0.6270905511811024
20
2.108031496062992
40
0.0068897637795276
0
CIRCLE
8
BLACK
10
0.878267716535433
20
0.6369291338582677
40
0.0068897637795276
0
CIRCLE
8
BLACK
10
0.878267716535433
20
0.5030708661417322
40
0.0068897637795276
0
CIRCLE
8
BLACK
10
1.261732283464567
20
0.6369291338582677
40
0.0068897637795276
0
CIRCLE
8
BLACK
10
1.261732283464567
20
0.5030708661417322
40
0.0068897637795276
0
CIRCLE
8
BLACK
10
0.430240157480315
20
1.1237795275590552
40
0.0068897637795276
0
CIRCLE
8
BLACK
10
0.6270905511811024
20
1.1237795275590552
40
0.0068897637795276
0
CIRCLE
8
BLACK
10
1.3385826771653544
20
3.1254359055118108
40
0.0068897637795276
0
CIRCLE
8
BLACK
10
1.5354330708661417
20
3.1254359055118108
40
0.0068897637795276
0
CIRCLE
8
BLACK
10
2.7825590551181101
20
1.2130708661417322
40
0.0068897637795276
0
CIRCLE
8
BLACK
10
2.5857086614173226
20
1.2130708661417322
40
0.0068897637795276
0
CIRCLE
8
BLACK
10
2.4100000000000001
20
3.3100000000000001
40
0.0068897637795276
0
CIRCLE
8
BLACK
10
2.5099999999999998
20
3.3100000000000001
40
0.0068897637795276
0
CIRCLE
8
BLACK
10
2.4100000000000001
20
3.21
40
0.0068897637795276
0
CIRCLE
8
BLACK
10
2.5099999999999998
20
3.21
40
0.0068897637795276
0
CIRCLE
8
BLACK
10
2.4100000000000001
20
3.1099999999999999
40
0.0068897637795276
0
CIRCLE
8
BLACK
10
2.5099999999999998
20
3.1099999999999999
40
0.0068897637795276
0
CIRCLE
8
BLACK
10
2.4100000000000001
20
3.0099999999999998
40
0.0068897637795276
0
CIRCLE
8
BLACK
10
2.5099999999999998
20
3.0099999999999998
40
0.0068897637795276
0
CIRCLE
8
BLACK
10
2.4100000000000001
20
2.9100000000000001
40
0.0068897637795276
0
CIRCLE
8
BLACK
10
2.5099999999999998
20
2.9100000000000001
40
0.0068897637795276
0
CIRCLE
8
BLACK
10
2.4100000000000001
20
2.8100000000000001
40
0.0068897637795276
0
CIRCLE
8
BLACK
10
2.5099999999999998
20
2.8100000000000001
40
0.0068897637795276
0
CIRCLE
8
BLACK
10
2.4100000000000001
20
2.71
40
0.0068897637795276
0
CIRCLE
8
BLACK
10
2.5099999999999998
20
2.71
40
0.0068897637795276
0
CIRCLE
8
BLACK
10
0.430240157480315
20
2.501732283464567
40
0.0068897637795276
0
CIRCLE
8
BLACK
10
0.6270905511811024
20
2.501732283464567
40
0.0068897637795276
0
CIRCLE
8
BLACK
10
0.430240157480315
20
1.7143307086614172
40
0.0068897637795276
0
CIRCLE
8
BLACK
10
0.6270905511811024
20
1.7143307086614172
40
0.0068897637795276
0
CIRCLE
8
BLACK
10
0.4
20
0.4
40
0.0068897637795276
0
CIRCLE
8
BLACK
10
1.3385826771653544
20
1.4539511811023622
40
0.0068897637795276
0
CIRCLE
8
BLACK
10
1.5354330708661417
20
1.4539511811023622
40
0.0068897637795276
0
CIRCLE
8
BLACK
10
2.7825590551181101
20
1.4099212598425197
40
0.0068897637795276
0
CIRCLE
8
BLACK
10
2.5857086614173226
20
1.4099212598425197
40
0.0068897637795276
0
CIRCLE
8
BLACK
10
1.3385826771653544
20
3.5433070866141732
40
0.0068897637795276
0
CIRCLE
8
BLACK
10
1.5354330708661417
20
3.5433070866141732
40
0.0068897637795276
0
CIRCLE
8
BLACK
10
0.430240157480315
20
1.51748031496063
40
0.0068897637795276
0
CIRCLE
8
BLACK
10
0.6270905511811024
20
1.51748031496063
40
0.0068897637795276
0
CIRCLE
8
BLACK
10
0.4
20
3.6000000000000001
40
0.0068897637795276
0
CIRCLE
8
BLACK
10
0.430240157480315
20
3.092283464566929
40
0.0068897637795276
0
CIRCLE
8
BLACK
10
0.6270905511811024
20
3.092283464566929
40
0.0068897637795276
0
CIRCLE
8
BLACK
10
1.981732283464567
20
0.5030708661417322
40
0.0068897637795276
0
CIRCLE
8
BLACK
10
1.981732283464567
20
0.6369291338582677
40
0.0068897637795276
0
CIRCLE
8
BLACK
10
1.5982677165354331
20
0.5030708661417322
40
0.0068897637795276
0
CIRCLE
8
BLACK
10
1.5982677165354331
20
0.6369291338582677
40
0.0068897637795276
0
CIRCLE
8
BLACK
10
1.3385826771653544
20
2.707564724409449
40
0.0068897637795276
0
CIRCLE
8
BLACK
10
1.5354330708661417
20
2.707564724409449
40
0.0068897637795276
0
CIRCLE
8
BLACK
10
2.7059055118110233
20
2.3153543307086615
40
0.0068897637795276
0
CIRCLE
8
BLACK
10
2.8059055118110234
20
2.3153543307086615
40
0.0068897637795276
0
CIRCLE
8
BLACK
10
2.7059055118110233
20
2.2153543307086614
40
0.0068897637795276
0
CIRCLE
8
BLACK
10
2.8059055118110234
20
2.2153543307086614
40
0.0068897637795276
0
CIRCLE
8
BLACK
10
2.7059055118110233
20
2.1153543307086613
40
0.0068897637795276
0
CIRCLE
8
BLACK
10
2.8059055118110234
20
2.1153543307086613
40
0.0068897637795276
0
CIRCLE
8
BLACK
10
2.7059055118110233
20
2.0153543307086612
40
0.0068897637795276
0
CIRCLE
8
BLACK
10
2.8059055118110234
20
2.0153543307086612
40
0.0068897637795276
0
CIRCLE
8
BLACK
10
1.3385826771653544
20
1.0360799999999999
40
0.0068897637795276
0
CIRCLE
8
BLACK
10
1.5354330708661417
20
1.0360799999999999
40
0.0068897637795276
0
CIRCLE
8
BLACK
10
0.430240157480315
20
2.3048818897637795
40
0.0068897637795276
0
CIRCLE
8
BLACK
10
0.6270905511811024
20
2.3048818897637795
40
0.0068897637795276
0
CIRCLE
8
BLACK
10
2.4696850393700789
20
2.3153543307086615
40
0.0068897637795276
0
CIRCLE
8
BLACK
10
2.5696850393700785
20
2.3153543307086615
40
0.0068897637795276
0
CIRCLE
8
BLACK
10
2.4696850393700789
20
2.2153543307086614
40
0.0068897637795276
0
CIRCLE
8
BLACK
10
2.5696850393700785
20
2.2153543307086614
40
0.0068897637795276
0
CIRCLE
8
BLACK
10
2.4696850393700789
20
2.1153543307086613
40
0.0068897637795276
0
CIRCLE
8
BLACK
10
2.5696850393700785
20
2.1153543307086613
40
0.0068897637795276
0
CIRCLE
8
BLACK
10
2.4696850393700789
20
2.0153543307086612
40
0.0068897637795276
0
CIRCLE
8
BLACK
10
2.5696850393700785
20
2.0153543307086612
40
0.0068897637795276
0
CIRCLE
8
BLACK
10
0.430240157480315
20
1.3206299212598425
40
0.0068897637795276
0
CIRCLE
8
BLACK
10
0.6270905511811024
20
1.3206299212598425
40
0.0068897637795276
0
CIRCLE
8
BLACK
10
1.3385826771653544
20
2.2896935433070866
40
0.0068897637795276
0
CIRCLE
8
BLACK
10
1.5354330708661417
20
2.2896935433070866
40
0.0068897637795276
0
CIRCLE
8
BLACK
10
0.430240157480315
20
1.9111811023622047
40
0.0068897637795276
0
CIRCLE
8
BLACK
10
0.6270905511811024
20
1.9111811023622047
40
0.0068897637795276
0
CIRCLE
8
BLACK
10
2.9100000000000001
20
2.9399999999999999
40
0.0068897637795276
0
CIRCLE
8
BLACK
10
2.8100000000000001
20
2.9399999999999999
40
0.0068897637795276
0
CIRCLE
8
BLACK
10
2.9100000000000001
20
3.04
40
0.0068897637795276
0
CIRCLE
8
BLACK
10
2.8100000000000001
20
3.04
40
0.0068897637795276
0
CIRCLE
8
BLACK
10
2.9100000000000001
20
3.1400000000000001
40
0.0068897637795276
0
CIRCLE
8
BLACK
10
2.8100000000000001
20
3.1400000000000001
40
0.0068897637795276
0
CIRCLE
8
BLACK
10
1.8799999999999999
20
2.1699999999999999
40
0.0068897637795276
0
CIRCLE
8
BLACK
10
2.4149015748031495
20
1.2268503937007873
40
0.0068897637795276
0
CIRCLE
8
BLACK
10
2.3823129921259842
20
0.8396062992125984
40
0.0068897637795276
0
CIRCLE
8
BLACK
10
1.8799999999999999
20
3.0099999999999998
40
0.0068897637795276
0
CIRCLE
8
BLACK
10
1.8799999999999999
20
0.91
40
0.0068897637795276
0
CIRCLE
8
BLACK
10
1.8799999999999999
20
1.3300000000000001
40
0.0068897637795276
0
CIRCLE
8
BLACK
10
1.8799999999999999
20
2.5899999999999999
40
0.0068897637795276
0
CIRCLE
8
BLACK
10
1.8799999999999999
20
1.75
40
0.0068897637795276
0
CIRCLE
8
BLACK
10
1.8799999999999999
20
3.4299999999999997
40
0.0068897637795276
  0
ENDSEC
  0
EOF
