  0
SECTION
  2
HEADER
  9
$ANGBASE
  50
0.0
  9
$ANGDIR
  70
1
  9
$MEASUREMENT
  70
0
  0
ENDSEC
  0
SECTION
  2
TABLES
  0
TABLE
  2
LTYPE
  70
4
  0
LTYPE
  5
40F
  2
CONTINUOUS
  70
0
  3
Solid line
  72
65
  73
0
  40
0.0
  0
LTYPE
  5
410
  2
DASHDOT
 70
0
  3
Dash Dot ____ _ ____ _
 72
65
 73
4
 40
2.0
 49
1.25
 49
-0.25
 49
0.25
 49
-0.25
  0
LTYPE
  5
411
  2
DASHED
 70
0
  3
Dashed __ __ __ __ __
 72
65
 73
2
 40
0.75
 49
0.5
 49
-0.25
  0
LTYPE
  5
43B
  2
DOTTED
 70
0
  3
Dotted .  .  .  .
 72
65
 73
2
 40
0.2
 49
0.0
 49
-0.2
  0
ENDTAB
  0
TABLE
  2
STYLE
  70
4
  0
STYLE
  2
KICAD
  70
0
  40
0
  41
1
  42
1
  50
0
  71
0
  3
isocp.shx
  0
STYLE
  2
KICADB
  70
0
  40
0
  41
1
  42
1
  50
0
  71
0
  3
isocp.shx
  0
STYLE
  2
KICADI
  70
0
  40
0
  41
1
  42
1
  50
15
  71
0
  3
isocp.shx
  0
STYLE
  2
KICADBI
  70
0
  40
0
  41
1
  42
1
  50
15
  71
0
  3
isocp.shx
  0
ENDTAB
  0
TABLE
  2
LAYER
  70
1
  0
LAYER
  2
BLACK
  70
0
  62
7
  6
CONTINUOUS
  0
ENDTAB
  0
ENDSEC
  0
SECTION
  2
ENTITIES
0
LINE
8
BLACK
6
CONTINUOUS
10
2.07101
20
0.880275
11
2.07256
21
0.878976
0
LINE
8
BLACK
6
CONTINUOUS
10
2.07256
20
0.878976
11
2.07291
21
0.876987
0
LINE
8
BLACK
6
CONTINUOUS
10
2.07291
20
0.876987
11
2.0719
21
0.875238
0
LINE
8
BLACK
6
CONTINUOUS
10
2.0719
20
0.875238
11
2.07
21
0.874547
0
LINE
8
BLACK
6
CONTINUOUS
10
2.07
20
0.874547
11
2.01
21
0.874547
0
LINE
8
BLACK
6
CONTINUOUS
10
2.01
20
0.874547
11
2.00899
21
0.874725
0
LINE
8
BLACK
6
CONTINUOUS
10
2.00899
20
0.874725
11
2.00744
21
0.876024
0
LINE
8
BLACK
6
CONTINUOUS
10
2.00744
20
0.876024
11
2.00709
21
0.878013
0
LINE
8
BLACK
6
CONTINUOUS
10
2.00709
20
0.878013
11
2.0081
21
0.879762
0
LINE
8
BLACK
6
CONTINUOUS
10
2.0081
20
0.879762
11
2.01
21
0.880453
0
LINE
8
BLACK
6
CONTINUOUS
10
2.01
20
0.880453
11
2.07
21
0.880453
0
LINE
8
BLACK
6
CONTINUOUS
10
2.07
20
0.880453
11
2.07101
21
0.880275
0
LINE
8
BLACK
6
CONTINUOUS
10
2.01167
20
0.95417
11
2.01236
21
0.9525
0
LINE
8
BLACK
6
CONTINUOUS
10
2.01236
20
0.9525
11
2.01236
21
0.9225
0
LINE
8
BLACK
6
CONTINUOUS
10
2.01236
20
0.9225
11
2.01167
21
0.92083
0
LINE
8
BLACK
6
CONTINUOUS
10
2.01167
20
0.92083
11
2.01
21
0.920138
0
LINE
8
BLACK
6
CONTINUOUS
10
2.01
20
0.920138
11
2.00833
21
0.92083
0
LINE
8
BLACK
6
CONTINUOUS
10
2.00833
20
0.92083
11
2.00764
21
0.9225
0
LINE
8
BLACK
6
CONTINUOUS
10
2.00764
20
0.9225
11
2.00764
21
0.9525
0
LINE
8
BLACK
6
CONTINUOUS
10
2.00764
20
0.9525
11
2.00833
21
0.95417
0
LINE
8
BLACK
6
CONTINUOUS
10
2.00833
20
0.95417
11
2.01
21
0.954862
0
LINE
8
BLACK
6
CONTINUOUS
10
2.01
20
0.954862
11
2.01167
21
0.95417
0
LINE
8
BLACK
6
CONTINUOUS
10
2.07167
20
0.95417
11
2.07236
21
0.9525
0
LINE
8
BLACK
6
CONTINUOUS
10
2.07236
20
0.9525
11
2.07236
21
0.9225
0
LINE
8
BLACK
6
CONTINUOUS
10
2.07236
20
0.9225
11
2.07167
21
0.92083
0
LINE
8
BLACK
6
CONTINUOUS
10
2.07167
20
0.92083
11
2.07
21
0.920138
0
LINE
8
BLACK
6
CONTINUOUS
10
2.07
20
0.920138
11
2.06833
21
0.92083
0
LINE
8
BLACK
6
CONTINUOUS
10
2.06833
20
0.92083
11
2.06764
21
0.9225
0
LINE
8
BLACK
6
CONTINUOUS
10
2.06764
20
0.9225
11
2.06764
21
0.9525
0
LINE
8
BLACK
6
CONTINUOUS
10
2.06764
20
0.9525
11
2.06833
21
0.95417
0
LINE
8
BLACK
6
CONTINUOUS
10
2.06833
20
0.95417
11
2.07
21
0.954862
0
LINE
8
BLACK
6
CONTINUOUS
10
2.07
20
0.954862
11
2.07167
21
0.95417
0
LINE
8
BLACK
6
CONTINUOUS
10
2.41332
20
0.969881
11
2.41487
21
0.968583
0
LINE
8
BLACK
6
CONTINUOUS
10
2.41487
20
0.968583
11
2.41522
21
0.966594
0
LINE
8
BLACK
6
CONTINUOUS
10
2.41522
20
0.966594
11
2.41421
21
0.964844
0
LINE
8
BLACK
6
CONTINUOUS
10
2.41421
20
0.964844
11
2.41231
21
0.964154
0
LINE
8
BLACK
6
CONTINUOUS
10
2.41231
20
0.964154
11
2.35231
21
0.964154
0
LINE
8
BLACK
6
CONTINUOUS
10
2.35231
20
0.964154
11
2.3513
21
0.964332
0
LINE
8
BLACK
6
CONTINUOUS
10
2.3513
20
0.964332
11
2.34976
21
0.96563
0
LINE
8
BLACK
6
CONTINUOUS
10
2.34976
20
0.96563
11
2.34941
21
0.967619
0
LINE
8
BLACK
6
CONTINUOUS
10
2.34941
20
0.967619
11
2.35041
21
0.969368
0
LINE
8
BLACK
6
CONTINUOUS
10
2.35041
20
0.969368
11
2.35231
21
0.970059
0
LINE
8
BLACK
6
CONTINUOUS
10
2.35231
20
0.970059
11
2.41231
21
0.970059
0
LINE
8
BLACK
6
CONTINUOUS
10
2.41231
20
0.970059
11
2.41332
21
0.969881
0
LINE
8
BLACK
6
CONTINUOUS
10
1.98226
20
1.01706
11
1.98295
21
1.01516
0
LINE
8
BLACK
6
CONTINUOUS
10
1.98295
20
1.01516
11
1.98295
21
0.983294
0
LINE
8
BLACK
6
CONTINUOUS
10
1.98295
20
0.983294
11
1.98277
21
0.982284
0
LINE
8
BLACK
6
CONTINUOUS
10
1.98277
20
0.982284
11
1.98266
21
0.982148
0
LINE
8
BLACK
6
CONTINUOUS
10
1.98266
20
0.982148
11
1.98264
21
0.981973
0
LINE
8
BLACK
6
CONTINUOUS
10
1.98264
20
0.981973
11
1.98076
21
0.978224
0
LINE
8
BLACK
6
CONTINUOUS
10
1.98076
20
0.978224
11
1.98024
21
0.977515
0
LINE
8
BLACK
6
CONTINUOUS
10
1.98024
20
0.977515
11
1.98021
21
0.977456
0
LINE
8
BLACK
6
CONTINUOUS
10
1.98021
20
0.977456
11
1.97833
21
0.975581
0
LINE
8
BLACK
6
CONTINUOUS
10
1.97833
20
0.975581
11
1.97761
21
0.975075
0
LINE
8
BLACK
6
CONTINUOUS
10
1.97761
20
0.975075
11
1.97757
21
0.975028
0
LINE
8
BLACK
6
CONTINUOUS
10
1.97757
20
0.975028
11
1.97382
21
0.973154
0
LINE
8
BLACK
6
CONTINUOUS
10
1.97382
20
0.973154
11
1.97283
21
0.972861
0
LINE
8
BLACK
6
CONTINUOUS
10
1.97283
20
0.972861
11
1.97266
21
0.972902
0
LINE
8
BLACK
6
CONTINUOUS
10
1.97266
20
0.972902
11
1.9725
21
0.972842
0
LINE
8
BLACK
6
CONTINUOUS
10
1.9725
20
0.972842
11
1.965
21
0.972842
0
LINE
8
BLACK
6
CONTINUOUS
10
1.965
20
0.972842
11
1.96399
21
0.97302
0
LINE
8
BLACK
6
CONTINUOUS
10
1.96399
20
0.97302
11
1.96385
21
0.973133
0
LINE
8
BLACK
6
CONTINUOUS
10
1.96385
20
0.973133
11
1.96368
21
0.973154
0
LINE
8
BLACK
6
CONTINUOUS
10
1.96368
20
0.973154
11
1.95993
21
0.975028
0
LINE
8
BLACK
6
CONTINUOUS
10
1.95993
20
0.975028
11
1.95922
21
0.975554
0
LINE
8
BLACK
6
CONTINUOUS
10
1.95922
20
0.975554
11
1.95916
21
0.975581
0
LINE
8
BLACK
6
CONTINUOUS
10
1.95916
20
0.975581
11
1.95729
21
0.977456
0
LINE
8
BLACK
6
CONTINUOUS
10
1.95729
20
0.977456
11
1.95678
21
0.978179
0
LINE
8
BLACK
6
CONTINUOUS
10
1.95678
20
0.978179
11
1.95673
21
0.978224
0
LINE
8
BLACK
6
CONTINUOUS
10
1.95673
20
0.978224
11
1.95486
21
0.981973
0
LINE
8
BLACK
6
CONTINUOUS
10
1.95486
20
0.981973
11
1.95457
21
0.982956
0
LINE
8
BLACK
6
CONTINUOUS
10
1.95457
20
0.982956
11
1.95461
21
0.983128
0
LINE
8
BLACK
6
CONTINUOUS
10
1.95461
20
0.983128
11
1.95455
21
0.983294
0
LINE
8
BLACK
6
CONTINUOUS
10
1.95455
20
0.983294
11
1.95455
21
1.01516
0
LINE
8
BLACK
6
CONTINUOUS
10
1.95455
20
1.01516
11
1.95472
21
1.01617
0
LINE
8
BLACK
6
CONTINUOUS
10
1.95472
20
1.01617
11
1.95602
21
1.01772
0
LINE
8
BLACK
6
CONTINUOUS
10
1.95602
20
1.01772
11
1.95801
21
1.01807
0
LINE
8
BLACK
6
CONTINUOUS
10
1.95801
20
1.01807
11
1.95976
21
1.01706
0
LINE
8
BLACK
6
CONTINUOUS
10
1.95976
20
1.01706
11
1.96045
21
1.01516
0
LINE
8
BLACK
6
CONTINUOUS
10
1.96045
20
1.01516
11
1.96045
21
0.983991
0
LINE
8
BLACK
6
CONTINUOUS
10
1.96045
20
0.983991
11
1.9618
21
0.981293
0
LINE
8
BLACK
6
CONTINUOUS
10
1.9618
20
0.981293
11
1.963
21
0.980096
0
LINE
8
BLACK
6
CONTINUOUS
10
1.963
20
0.980096
11
1.9657
21
0.978747
0
LINE
8
BLACK
6
CONTINUOUS
10
1.9657
20
0.978747
11
1.9718
21
0.978747
0
LINE
8
BLACK
6
CONTINUOUS
10
1.9718
20
0.978747
11
1.9745
21
0.980096
0
LINE
8
BLACK
6
CONTINUOUS
10
1.9745
20
0.980096
11
1.97569
21
0.981293
0
LINE
8
BLACK
6
CONTINUOUS
10
1.97569
20
0.981293
11
1.97704
21
0.983991
0
LINE
8
BLACK
6
CONTINUOUS
10
1.97704
20
0.983991
11
1.97704
21
1.01516
0
LINE
8
BLACK
6
CONTINUOUS
10
1.97704
20
1.01516
11
1.97722
21
1.01617
0
LINE
8
BLACK
6
CONTINUOUS
10
1.97722
20
1.01617
11
1.97852
21
1.01772
0
LINE
8
BLACK
6
CONTINUOUS
10
1.97852
20
1.01772
11
1.98051
21
1.01807
0
LINE
8
BLACK
6
CONTINUOUS
10
1.98051
20
1.01807
11
1.98226
21
1.01706
0
LINE
8
BLACK
6
CONTINUOUS
10
1.94351
20
1.01794
11
1.94506
21
1.01664
0
LINE
8
BLACK
6
CONTINUOUS
10
1.94506
20
1.01664
11
1.94541
21
1.01465
0
LINE
8
BLACK
6
CONTINUOUS
10
1.94541
20
1.01465
11
1.9444
21
1.0129
0
LINE
8
BLACK
6
CONTINUOUS
10
1.9444
20
1.0129
11
1.9425
21
1.01221
0
LINE
8
BLACK
6
CONTINUOUS
10
1.9425
20
1.01221
11
1.92073
21
1.01221
0
LINE
8
BLACK
6
CONTINUOUS
10
1.92073
20
1.01221
11
1.93584
21
0.976958
0
LINE
8
BLACK
6
CONTINUOUS
10
1.93584
20
0.976958
11
1.93608
21
0.975959
0
LINE
8
BLACK
6
CONTINUOUS
10
1.93608
20
0.975959
11
1.93549
21
0.974026
0
LINE
8
BLACK
6
CONTINUOUS
10
1.93549
20
0.974026
11
1.9338
21
0.97292
0
LINE
8
BLACK
6
CONTINUOUS
10
1.9338
20
0.97292
11
1.9318
21
0.973159
0
LINE
8
BLACK
6
CONTINUOUS
10
1.9318
20
0.973159
11
1.93041
21
0.974631
0
LINE
8
BLACK
6
CONTINUOUS
10
1.93041
20
0.974631
11
1.91354
21
1.014
0
LINE
8
BLACK
6
CONTINUOUS
10
1.91354
20
1.014
11
1.91331
21
1.015
0
LINE
8
BLACK
6
CONTINUOUS
10
1.91331
20
1.015
11
1.91341
21
1.01533
0
LINE
8
BLACK
6
CONTINUOUS
10
1.91341
20
1.01533
11
1.91335
21
1.01568
0
LINE
8
BLACK
6
CONTINUOUS
10
1.91335
20
1.01568
11
1.91369
21
1.01627
0
LINE
8
BLACK
6
CONTINUOUS
10
1.91369
20
1.01627
11
1.91389
21
1.01693
0
LINE
8
BLACK
6
CONTINUOUS
10
1.91389
20
1.01693
11
1.91418
21
1.01712
0
LINE
8
BLACK
6
CONTINUOUS
10
1.91418
20
1.01712
11
1.91436
21
1.01743
0
LINE
8
BLACK
6
CONTINUOUS
10
1.91436
20
1.01743
11
1.915
21
1.01766
0
LINE
8
BLACK
6
CONTINUOUS
10
1.915
20
1.01766
11
1.91558
21
1.01804
0
LINE
8
BLACK
6
CONTINUOUS
10
1.91558
20
1.01804
11
1.91593
21
1.018
0
LINE
8
BLACK
6
CONTINUOUS
10
1.91593
20
1.018
11
1.91625
21
1.01812
0
LINE
8
BLACK
6
CONTINUOUS
10
1.91625
20
1.01812
11
1.9425
21
1.01812
0
LINE
8
BLACK
6
CONTINUOUS
10
1.9425
20
1.01812
11
1.94351
21
1.01794
0
LINE
8
BLACK
6
CONTINUOUS
10
2.07101
20
1.00027
11
2.07256
21
0.998976
0
LINE
8
BLACK
6
CONTINUOUS
10
2.07256
20
0.998976
11
2.07291
21
0.996987
0
LINE
8
BLACK
6
CONTINUOUS
10
2.07291
20
0.996987
11
2.0719
21
0.995238
0
LINE
8
BLACK
6
CONTINUOUS
10
2.0719
20
0.995238
11
2.07
21
0.994547
0
LINE
8
BLACK
6
CONTINUOUS
10
2.07
20
0.994547
11
2.01
21
0.994547
0
LINE
8
BLACK
6
CONTINUOUS
10
2.01
20
0.994547
11
2.00899
21
0.994725
0
LINE
8
BLACK
6
CONTINUOUS
10
2.00899
20
0.994725
11
2.00744
21
0.996024
0
LINE
8
BLACK
6
CONTINUOUS
10
2.00744
20
0.996024
11
2.00709
21
0.998013
0
LINE
8
BLACK
6
CONTINUOUS
10
2.00709
20
0.998013
11
2.0081
21
0.999762
0
LINE
8
BLACK
6
CONTINUOUS
10
2.0081
20
0.999762
11
2.01
21
1.00045
0
LINE
8
BLACK
6
CONTINUOUS
10
2.01
20
1.00045
11
2.07
21
1.00045
0
LINE
8
BLACK
6
CONTINUOUS
10
2.07
20
1.00045
11
2.07101
21
1.00027
0
LINE
8
BLACK
6
CONTINUOUS
10
2.35398
20
1.04378
11
2.35468
21
1.04211
0
LINE
8
BLACK
6
CONTINUOUS
10
2.35468
20
1.04211
11
2.35468
21
1.01211
0
LINE
8
BLACK
6
CONTINUOUS
10
2.35468
20
1.01211
11
2.35398
21
1.01044
0
LINE
8
BLACK
6
CONTINUOUS
10
2.35398
20
1.01044
11
2.35231
21
1.00974
0
LINE
8
BLACK
6
CONTINUOUS
10
2.35231
20
1.00974
11
2.35064
21
1.01044
0
LINE
8
BLACK
6
CONTINUOUS
10
2.35064
20
1.01044
11
2.34995
21
1.01211
0
LINE
8
BLACK
6
CONTINUOUS
10
2.34995
20
1.01211
11
2.34995
21
1.04211
0
LINE
8
BLACK
6
CONTINUOUS
10
2.34995
20
1.04211
11
2.35064
21
1.04378
0
LINE
8
BLACK
6
CONTINUOUS
10
2.35064
20
1.04378
11
2.35231
21
1.04447
0
LINE
8
BLACK
6
CONTINUOUS
10
2.35231
20
1.04447
11
2.35398
21
1.04378
0
LINE
8
BLACK
6
CONTINUOUS
10
2.41398
20
1.04378
11
2.41468
21
1.04211
0
LINE
8
BLACK
6
CONTINUOUS
10
2.41468
20
1.04211
11
2.41468
21
1.01211
0
LINE
8
BLACK
6
CONTINUOUS
10
2.41468
20
1.01211
11
2.41398
21
1.01044
0
LINE
8
BLACK
6
CONTINUOUS
10
2.41398
20
1.01044
11
2.41231
21
1.00974
0
LINE
8
BLACK
6
CONTINUOUS
10
2.41231
20
1.00974
11
2.41064
21
1.01044
0
LINE
8
BLACK
6
CONTINUOUS
10
2.41064
20
1.01044
11
2.40995
21
1.01211
0
LINE
8
BLACK
6
CONTINUOUS
10
2.40995
20
1.01211
11
2.40995
21
1.04211
0
LINE
8
BLACK
6
CONTINUOUS
10
2.40995
20
1.04211
11
2.41064
21
1.04378
0
LINE
8
BLACK
6
CONTINUOUS
10
2.41064
20
1.04378
11
2.41231
21
1.04447
0
LINE
8
BLACK
6
CONTINUOUS
10
2.41231
20
1.04447
11
2.41398
21
1.04378
0
LINE
8
BLACK
6
CONTINUOUS
10
1.85551
20
1.02953
11
1.85718
21
1.02884
0
LINE
8
BLACK
6
CONTINUOUS
10
1.85718
20
1.02884
11
1.85787
21
1.02717
0
LINE
8
BLACK
6
CONTINUOUS
10
1.85787
20
1.02717
11
1.85787
21
1.02362
0
LINE
8
BLACK
6
CONTINUOUS
10
1.85787
20
1.02362
11
2.04213
21
1.02362
0
LINE
8
BLACK
6
CONTINUOUS
10
2.04213
20
1.02362
11
2.04213
21
1.02717
0
LINE
8
BLACK
6
CONTINUOUS
10
2.04213
20
1.02717
11
2.04282
21
1.02884
0
LINE
8
BLACK
6
CONTINUOUS
10
2.04282
20
1.02884
11
2.04449
21
1.02953
0
LINE
8
BLACK
6
CONTINUOUS
10
2.04449
20
1.02953
11
2.04616
21
1.02884
0
LINE
8
BLACK
6
CONTINUOUS
10
2.04616
20
1.02884
11
2.04685
21
1.02717
0
LINE
8
BLACK
6
CONTINUOUS
10
2.04685
20
1.02717
11
2.04685
21
1.02126
0
LINE
8
BLACK
6
CONTINUOUS
10
2.04685
20
1.02126
11
2.04616
21
1.01959
0
LINE
8
BLACK
6
CONTINUOUS
10
2.04616
20
1.01959
11
2.04449
21
1.0189
0
LINE
8
BLACK
6
CONTINUOUS
10
2.04449
20
1.0189
11
1.85551
21
1.0189
0
LINE
8
BLACK
6
CONTINUOUS
10
1.85551
20
1.0189
11
1.85384
21
1.01959
0
LINE
8
BLACK
6
CONTINUOUS
10
1.85384
20
1.01959
11
1.85315
21
1.02126
0
LINE
8
BLACK
6
CONTINUOUS
10
1.85315
20
1.02126
11
1.85315
21
1.0248
0
LINE
8
BLACK
6
CONTINUOUS
10
1.85315
20
1.0248
11
1.78858
21
1.0248
0
LINE
8
BLACK
6
CONTINUOUS
10
1.78858
20
1.0248
11
1.78691
21
1.0255
0
LINE
8
BLACK
6
CONTINUOUS
10
1.78691
20
1.0255
11
1.78622
21
1.02717
0
LINE
8
BLACK
6
CONTINUOUS
10
1.78622
20
1.02717
11
1.78691
21
1.02884
0
LINE
8
BLACK
6
CONTINUOUS
10
1.78691
20
1.02884
11
1.78858
21
1.02953
0
LINE
8
BLACK
6
CONTINUOUS
10
1.78858
20
1.02953
11
1.85551
21
1.02953
0
LINE
8
BLACK
6
CONTINUOUS
10
2.41332
20
1.08988
11
2.41487
21
1.08858
0
LINE
8
BLACK
6
CONTINUOUS
10
2.41487
20
1.08858
11
2.41522
21
1.08659
0
LINE
8
BLACK
6
CONTINUOUS
10
2.41522
20
1.08659
11
2.41421
21
1.08484
0
LINE
8
BLACK
6
CONTINUOUS
10
2.41421
20
1.08484
11
2.41231
21
1.08415
0
LINE
8
BLACK
6
CONTINUOUS
10
2.41231
20
1.08415
11
2.35231
21
1.08415
0
LINE
8
BLACK
6
CONTINUOUS
10
2.35231
20
1.08415
11
2.3513
21
1.08433
0
LINE
8
BLACK
6
CONTINUOUS
10
2.3513
20
1.08433
11
2.34976
21
1.08563
0
LINE
8
BLACK
6
CONTINUOUS
10
2.34976
20
1.08563
11
2.34941
21
1.08762
0
LINE
8
BLACK
6
CONTINUOUS
10
2.34941
20
1.08762
11
2.35041
21
1.08937
0
LINE
8
BLACK
6
CONTINUOUS
10
2.35041
20
1.08937
11
2.35231
21
1.09006
0
LINE
8
BLACK
6
CONTINUOUS
10
2.35231
20
1.09006
11
2.41231
21
1.09006
0
LINE
8
BLACK
6
CONTINUOUS
10
2.41231
20
1.09006
11
2.41332
21
1.08988
0
LINE
8
BLACK
6
CONTINUOUS
10
2.04449
20
1.1811
11
2.04616
21
1.18041
0
LINE
8
BLACK
6
CONTINUOUS
10
2.04616
20
1.18041
11
2.04685
21
1.17874
0
LINE
8
BLACK
6
CONTINUOUS
10
2.04685
20
1.17874
11
2.04685
21
1.17283
0
LINE
8
BLACK
6
CONTINUOUS
10
2.04685
20
1.17283
11
2.04616
21
1.17116
0
LINE
8
BLACK
6
CONTINUOUS
10
2.04616
20
1.17116
11
2.04449
21
1.17047
0
LINE
8
BLACK
6
CONTINUOUS
10
2.04449
20
1.17047
11
2.04282
21
1.17116
0
LINE
8
BLACK
6
CONTINUOUS
10
2.04282
20
1.17116
11
2.04213
21
1.17283
0
LINE
8
BLACK
6
CONTINUOUS
10
2.04213
20
1.17283
11
2.04213
21
1.17638
0
LINE
8
BLACK
6
CONTINUOUS
10
2.04213
20
1.17638
11
1.85787
21
1.17638
0
LINE
8
BLACK
6
CONTINUOUS
10
1.85787
20
1.17638
11
1.85787
21
1.17283
0
LINE
8
BLACK
6
CONTINUOUS
10
1.85787
20
1.17283
11
1.85718
21
1.17116
0
LINE
8
BLACK
6
CONTINUOUS
10
1.85718
20
1.17116
11
1.85551
21
1.17047
0
LINE
8
BLACK
6
CONTINUOUS
10
1.85551
20
1.17047
11
1.85384
21
1.17116
0
LINE
8
BLACK
6
CONTINUOUS
10
1.85384
20
1.17116
11
1.85315
21
1.17283
0
LINE
8
BLACK
6
CONTINUOUS
10
1.85315
20
1.17283
11
1.85315
21
1.17874
0
LINE
8
BLACK
6
CONTINUOUS
10
1.85315
20
1.17874
11
1.85384
21
1.18041
0
LINE
8
BLACK
6
CONTINUOUS
10
1.85384
20
1.18041
11
1.85551
21
1.1811
0
LINE
8
BLACK
6
CONTINUOUS
10
1.85551
20
1.1811
11
2.04449
21
1.1811
0
LINE
8
BLACK
6
CONTINUOUS
10
2.07101
20
1.30069
11
2.07256
21
1.29939
0
LINE
8
BLACK
6
CONTINUOUS
10
2.07256
20
1.29939
11
2.07291
21
1.2974
0
LINE
8
BLACK
6
CONTINUOUS
10
2.07291
20
1.2974
11
2.0719
21
1.29565
0
LINE
8
BLACK
6
CONTINUOUS
10
2.0719
20
1.29565
11
2.07
21
1.29496
0
LINE
8
BLACK
6
CONTINUOUS
10
2.07
20
1.29496
11
2.01
21
1.29496
0
LINE
8
BLACK
6
CONTINUOUS
10
2.01
20
1.29496
11
2.00899
21
1.29514
0
LINE
8
BLACK
6
CONTINUOUS
10
2.00899
20
1.29514
11
2.00744
21
1.29644
0
LINE
8
BLACK
6
CONTINUOUS
10
2.00744
20
1.29644
11
2.00709
21
1.29843
0
LINE
8
BLACK
6
CONTINUOUS
10
2.00709
20
1.29843
11
2.0081
21
1.30018
0
LINE
8
BLACK
6
CONTINUOUS
10
2.0081
20
1.30018
11
2.01
21
1.30087
0
LINE
8
BLACK
6
CONTINUOUS
10
2.01
20
1.30087
11
2.07
21
1.30087
0
LINE
8
BLACK
6
CONTINUOUS
10
2.07
20
1.30087
11
2.07101
21
1.30069
0
LINE
8
BLACK
6
CONTINUOUS
10
2.01167
20
1.37459
11
2.01236
21
1.37292
0
LINE
8
BLACK
6
CONTINUOUS
10
2.01236
20
1.37292
11
2.01236
21
1.34292
0
LINE
8
BLACK
6
CONTINUOUS
10
2.01236
20
1.34292
11
2.01167
21
1.34125
0
LINE
8
BLACK
6
CONTINUOUS
10
2.01167
20
1.34125
11
2.01
21
1.34055
0
LINE
8
BLACK
6
CONTINUOUS
10
2.01
20
1.34055
11
2.00833
21
1.34125
0
LINE
8
BLACK
6
CONTINUOUS
10
2.00833
20
1.34125
11
2.00764
21
1.34292
0
LINE
8
BLACK
6
CONTINUOUS
10
2.00764
20
1.34292
11
2.00764
21
1.37292
0
LINE
8
BLACK
6
CONTINUOUS
10
2.00764
20
1.37292
11
2.00833
21
1.37459
0
LINE
8
BLACK
6
CONTINUOUS
10
2.00833
20
1.37459
11
2.01
21
1.37528
0
LINE
8
BLACK
6
CONTINUOUS
10
2.01
20
1.37528
11
2.01167
21
1.37459
0
LINE
8
BLACK
6
CONTINUOUS
10
2.07167
20
1.37459
11
2.07236
21
1.37292
0
LINE
8
BLACK
6
CONTINUOUS
10
2.07236
20
1.37292
11
2.07236
21
1.34292
0
LINE
8
BLACK
6
CONTINUOUS
10
2.07236
20
1.34292
11
2.07167
21
1.34125
0
LINE
8
BLACK
6
CONTINUOUS
10
2.07167
20
1.34125
11
2.07
21
1.34055
0
LINE
8
BLACK
6
CONTINUOUS
10
2.07
20
1.34055
11
2.06833
21
1.34125
0
LINE
8
BLACK
6
CONTINUOUS
10
2.06833
20
1.34125
11
2.06764
21
1.34292
0
LINE
8
BLACK
6
CONTINUOUS
10
2.06764
20
1.34292
11
2.06764
21
1.37292
0
LINE
8
BLACK
6
CONTINUOUS
10
2.06764
20
1.37292
11
2.06833
21
1.37459
0
LINE
8
BLACK
6
CONTINUOUS
10
2.06833
20
1.37459
11
2.07
21
1.37528
0
LINE
8
BLACK
6
CONTINUOUS
10
2.07
20
1.37528
11
2.07167
21
1.37459
0
LINE
8
BLACK
6
CONTINUOUS
10
2.44591
20
1.36963
11
2.44746
21
1.36833
0
LINE
8
BLACK
6
CONTINUOUS
10
2.44746
20
1.36833
11
2.44781
21
1.36634
0
LINE
8
BLACK
6
CONTINUOUS
10
2.44781
20
1.36634
11
2.4468
21
1.36459
0
LINE
8
BLACK
6
CONTINUOUS
10
2.4468
20
1.36459
11
2.4449
21
1.3639
0
LINE
8
BLACK
6
CONTINUOUS
10
2.4449
20
1.3639
11
2.3849
21
1.3639
0
LINE
8
BLACK
6
CONTINUOUS
10
2.3849
20
1.3639
11
2.38389
21
1.36408
0
LINE
8
BLACK
6
CONTINUOUS
10
2.38389
20
1.36408
11
2.38234
21
1.36537
0
LINE
8
BLACK
6
CONTINUOUS
10
2.38234
20
1.36537
11
2.38199
21
1.36736
0
LINE
8
BLACK
6
CONTINUOUS
10
2.38199
20
1.36736
11
2.383
21
1.36911
0
LINE
8
BLACK
6
CONTINUOUS
10
2.383
20
1.36911
11
2.3849
21
1.3698
0
LINE
8
BLACK
6
CONTINUOUS
10
2.3849
20
1.3698
11
2.4449
21
1.3698
0
LINE
8
BLACK
6
CONTINUOUS
10
2.4449
20
1.3698
11
2.44591
21
1.36963
0
LINE
8
BLACK
6
CONTINUOUS
10
1.93039
20
1.43961
11
1.93052
21
1.43949
0
LINE
8
BLACK
6
CONTINUOUS
10
1.93052
20
1.43949
11
1.9307
21
1.43947
0
LINE
8
BLACK
6
CONTINUOUS
10
1.9307
20
1.43947
11
1.93445
21
1.4376
0
LINE
8
BLACK
6
CONTINUOUS
10
1.93445
20
1.4376
11
1.93516
21
1.43707
0
LINE
8
BLACK
6
CONTINUOUS
10
1.93516
20
1.43707
11
1.93521
21
1.43704
0
LINE
8
BLACK
6
CONTINUOUS
10
1.93521
20
1.43704
11
1.93709
21
1.43517
0
LINE
8
BLACK
6
CONTINUOUS
10
1.93709
20
1.43517
11
1.93735
21
1.4348
0
LINE
8
BLACK
6
CONTINUOUS
10
1.93735
20
1.4348
11
1.93746
21
1.43472
0
LINE
8
BLACK
6
CONTINUOUS
10
1.93746
20
1.43472
11
1.94121
21
1.4291
0
LINE
8
BLACK
6
CONTINUOUS
10
1.94121
20
1.4291
11
1.94161
21
1.42819
0
LINE
8
BLACK
6
CONTINUOUS
10
1.94161
20
1.42819
11
1.94162
21
1.42817
0
LINE
8
BLACK
6
CONTINUOUS
10
1.94162
20
1.42817
11
1.94349
21
1.42067
0
LINE
8
BLACK
6
CONTINUOUS
10
1.94349
20
1.42067
11
1.94353
21
1.42009
0
LINE
8
BLACK
6
CONTINUOUS
10
1.94353
20
1.42009
11
1.94358
21
1.41996
0
LINE
8
BLACK
6
CONTINUOUS
10
1.94358
20
1.41996
11
1.94358
21
1.40496
0
LINE
8
BLACK
6
CONTINUOUS
10
1.94358
20
1.40496
11
1.9434
21
1.40395
0
LINE
8
BLACK
6
CONTINUOUS
10
1.9434
20
1.40395
11
1.94329
21
1.40382
0
LINE
8
BLACK
6
CONTINUOUS
10
1.94329
20
1.40382
11
1.94327
21
1.40364
0
LINE
8
BLACK
6
CONTINUOUS
10
1.94327
20
1.40364
11
1.94139
21
1.39989
0
LINE
8
BLACK
6
CONTINUOUS
10
1.94139
20
1.39989
11
1.94087
21
1.39918
0
LINE
8
BLACK
6
CONTINUOUS
10
1.94087
20
1.39918
11
1.94084
21
1.39912
0
LINE
8
BLACK
6
CONTINUOUS
10
1.94084
20
1.39912
11
1.93896
21
1.39725
0
LINE
8
BLACK
6
CONTINUOUS
10
1.93896
20
1.39725
11
1.93824
21
1.39674
0
LINE
8
BLACK
6
CONTINUOUS
10
1.93824
20
1.39674
11
1.9382
21
1.3967
0
LINE
8
BLACK
6
CONTINUOUS
10
1.9382
20
1.3967
11
1.93445
21
1.39482
0
LINE
8
BLACK
6
CONTINUOUS
10
1.93445
20
1.39482
11
1.93346
21
1.39453
0
LINE
8
BLACK
6
CONTINUOUS
10
1.93346
20
1.39453
11
1.93329
21
1.39457
0
LINE
8
BLACK
6
CONTINUOUS
10
1.93329
20
1.39457
11
1.93313
21
1.39451
0
LINE
8
BLACK
6
CONTINUOUS
10
1.93313
20
1.39451
11
1.92563
21
1.39451
0
LINE
8
BLACK
6
CONTINUOUS
10
1.92563
20
1.39451
11
1.92462
21
1.39469
0
LINE
8
BLACK
6
CONTINUOUS
10
1.92462
20
1.39469
11
1.92448
21
1.3948
0
LINE
8
BLACK
6
CONTINUOUS
10
1.92448
20
1.3948
11
1.92431
21
1.39482
0
LINE
8
BLACK
6
CONTINUOUS
10
1.92431
20
1.39482
11
1.92056
21
1.3967
0
LINE
8
BLACK
6
CONTINUOUS
10
1.92056
20
1.3967
11
1.91985
21
1.39722
0
LINE
8
BLACK
6
CONTINUOUS
10
1.91985
20
1.39722
11
1.91979
21
1.39725
0
LINE
8
BLACK
6
CONTINUOUS
10
1.91979
20
1.39725
11
1.91792
21
1.39912
0
LINE
8
BLACK
6
CONTINUOUS
10
1.91792
20
1.39912
11
1.91741
21
1.39985
0
LINE
8
BLACK
6
CONTINUOUS
10
1.91741
20
1.39985
11
1.91736
21
1.39989
0
LINE
8
BLACK
6
CONTINUOUS
10
1.91736
20
1.39989
11
1.91549
21
1.40364
0
LINE
8
BLACK
6
CONTINUOUS
10
1.91549
20
1.40364
11
1.9152
21
1.40462
0
LINE
8
BLACK
6
CONTINUOUS
10
1.9152
20
1.40462
11
1.91524
21
1.40479
0
LINE
8
BLACK
6
CONTINUOUS
10
1.91524
20
1.40479
11
1.91518
21
1.40496
0
LINE
8
BLACK
6
CONTINUOUS
10
1.91518
20
1.40496
11
1.91518
21
1.41433
0
LINE
8
BLACK
6
CONTINUOUS
10
1.91518
20
1.41433
11
1.91535
21
1.41534
0
LINE
8
BLACK
6
CONTINUOUS
10
1.91535
20
1.41534
11
1.91547
21
1.41548
0
LINE
8
BLACK
6
CONTINUOUS
10
1.91547
20
1.41548
11
1.91549
21
1.41565
0
LINE
8
BLACK
6
CONTINUOUS
10
1.91549
20
1.41565
11
1.91736
21
1.4194
0
LINE
8
BLACK
6
CONTINUOUS
10
1.91736
20
1.4194
11
1.91789
21
1.42011
0
LINE
8
BLACK
6
CONTINUOUS
10
1.91789
20
1.42011
11
1.91792
21
1.42017
0
LINE
8
BLACK
6
CONTINUOUS
10
1.91792
20
1.42017
11
1.91979
21
1.42205
0
LINE
8
BLACK
6
CONTINUOUS
10
1.91979
20
1.42205
11
1.92051
21
1.42255
0
LINE
8
BLACK
6
CONTINUOUS
10
1.92051
20
1.42255
11
1.92056
21
1.4226
0
LINE
8
BLACK
6
CONTINUOUS
10
1.92056
20
1.4226
11
1.92431
21
1.42447
0
LINE
8
BLACK
6
CONTINUOUS
10
1.92431
20
1.42447
11
1.92529
21
1.42477
0
LINE
8
BLACK
6
CONTINUOUS
10
1.92529
20
1.42477
11
1.92546
21
1.42473
0
LINE
8
BLACK
6
CONTINUOUS
10
1.92546
20
1.42473
11
1.92563
21
1.42479
0
LINE
8
BLACK
6
CONTINUOUS
10
1.92563
20
1.42479
11
1.93313
21
1.42479
0
LINE
8
BLACK
6
CONTINUOUS
10
1.93313
20
1.42479
11
1.93414
21
1.42461
0
LINE
8
BLACK
6
CONTINUOUS
10
1.93414
20
1.42461
11
1.93427
21
1.42449
0
LINE
8
BLACK
6
CONTINUOUS
10
1.93427
20
1.42449
11
1.93445
21
1.42447
0
LINE
8
BLACK
6
CONTINUOUS
10
1.93445
20
1.42447
11
1.93674
21
1.42333
0
LINE
8
BLACK
6
CONTINUOUS
10
1.93674
20
1.42333
11
1.93601
21
1.42625
0
LINE
8
BLACK
6
CONTINUOUS
10
1.93601
20
1.42625
11
1.93271
21
1.4312
0
LINE
8
BLACK
6
CONTINUOUS
10
1.93271
20
1.4312
11
1.93138
21
1.43253
0
LINE
8
BLACK
6
CONTINUOUS
10
1.93138
20
1.43253
11
1.92868
21
1.43388
0
LINE
8
BLACK
6
CONTINUOUS
10
1.92868
20
1.43388
11
1.92188
21
1.43388
0
LINE
8
BLACK
6
CONTINUOUS
10
1.92188
20
1.43388
11
1.92087
21
1.43406
0
LINE
8
BLACK
6
CONTINUOUS
10
1.92087
20
1.43406
11
1.91932
21
1.43535
0
LINE
8
BLACK
6
CONTINUOUS
10
1.91932
20
1.43535
11
1.91897
21
1.43734
0
LINE
8
BLACK
6
CONTINUOUS
10
1.91897
20
1.43734
11
1.91998
21
1.43909
0
LINE
8
BLACK
6
CONTINUOUS
10
1.91998
20
1.43909
11
1.92188
21
1.43978
0
LINE
8
BLACK
6
CONTINUOUS
10
1.92188
20
1.43978
11
1.92938
21
1.43978
0
LINE
8
BLACK
6
CONTINUOUS
10
1.92938
20
1.43978
11
1.93039
21
1.43961
0
LINE
8
BLACK
6
CONTINUOUS
10
1.92363
20
1.41753
11
1.92243
21
1.41633
0
LINE
8
BLACK
6
CONTINUOUS
10
1.92243
20
1.41633
11
1.92108
21
1.41364
0
LINE
8
BLACK
6
CONTINUOUS
10
1.92108
20
1.41364
11
1.92108
21
1.40566
0
LINE
8
BLACK
6
CONTINUOUS
10
1.92108
20
1.40566
11
1.92243
21
1.40296
0
LINE
8
BLACK
6
CONTINUOUS
10
1.92243
20
1.40296
11
1.92363
21
1.40176
0
LINE
8
BLACK
6
CONTINUOUS
10
1.92363
20
1.40176
11
1.92633
21
1.40041
0
LINE
8
BLACK
6
CONTINUOUS
10
1.92633
20
1.40041
11
1.93243
21
1.40041
0
LINE
8
BLACK
6
CONTINUOUS
10
1.93243
20
1.40041
11
1.93513
21
1.40176
0
LINE
8
BLACK
6
CONTINUOUS
10
1.93513
20
1.40176
11
1.93632
21
1.40296
0
LINE
8
BLACK
6
CONTINUOUS
10
1.93632
20
1.40296
11
1.93767
21
1.40566
0
LINE
8
BLACK
6
CONTINUOUS
10
1.93767
20
1.40566
11
1.93767
21
1.41364
0
LINE
8
BLACK
6
CONTINUOUS
10
1.93767
20
1.41364
11
1.93632
21
1.41633
0
LINE
8
BLACK
6
CONTINUOUS
10
1.93632
20
1.41633
11
1.93513
21
1.41753
0
LINE
8
BLACK
6
CONTINUOUS
10
1.93513
20
1.41753
11
1.93243
21
1.41888
0
LINE
8
BLACK
6
CONTINUOUS
10
1.93243
20
1.41888
11
1.92633
21
1.41888
0
LINE
8
BLACK
6
CONTINUOUS
10
1.92633
20
1.41888
11
1.92363
21
1.41753
0
LINE
8
BLACK
6
CONTINUOUS
10
1.98226
20
1.43873
11
1.98295
21
1.43683
0
LINE
8
BLACK
6
CONTINUOUS
10
1.98295
20
1.43683
11
1.98295
21
1.40496
0
LINE
8
BLACK
6
CONTINUOUS
10
1.98295
20
1.40496
11
1.98277
21
1.40395
0
LINE
8
BLACK
6
CONTINUOUS
10
1.98277
20
1.40395
11
1.98266
21
1.40382
0
LINE
8
BLACK
6
CONTINUOUS
10
1.98266
20
1.40382
11
1.98264
21
1.40364
0
LINE
8
BLACK
6
CONTINUOUS
10
1.98264
20
1.40364
11
1.98076
21
1.39989
0
LINE
8
BLACK
6
CONTINUOUS
10
1.98076
20
1.39989
11
1.98024
21
1.39918
0
LINE
8
BLACK
6
CONTINUOUS
10
1.98024
20
1.39918
11
1.98021
21
1.39912
0
LINE
8
BLACK
6
CONTINUOUS
10
1.98021
20
1.39912
11
1.97833
21
1.39725
0
LINE
8
BLACK
6
CONTINUOUS
10
1.97833
20
1.39725
11
1.97761
21
1.39674
0
LINE
8
BLACK
6
CONTINUOUS
10
1.97761
20
1.39674
11
1.97757
21
1.3967
0
LINE
8
BLACK
6
CONTINUOUS
10
1.97757
20
1.3967
11
1.97382
21
1.39482
0
LINE
8
BLACK
6
CONTINUOUS
10
1.97382
20
1.39482
11
1.97283
21
1.39453
0
LINE
8
BLACK
6
CONTINUOUS
10
1.97283
20
1.39453
11
1.97266
21
1.39457
0
LINE
8
BLACK
6
CONTINUOUS
10
1.97266
20
1.39457
11
1.9725
21
1.39451
0
LINE
8
BLACK
6
CONTINUOUS
10
1.9725
20
1.39451
11
1.965
21
1.39451
0
LINE
8
BLACK
6
CONTINUOUS
10
1.965
20
1.39451
11
1.96399
21
1.39469
0
LINE
8
BLACK
6
CONTINUOUS
10
1.96399
20
1.39469
11
1.96385
21
1.3948
0
LINE
8
BLACK
6
CONTINUOUS
10
1.96385
20
1.3948
11
1.96368
21
1.39482
0
LINE
8
BLACK
6
CONTINUOUS
10
1.96368
20
1.39482
11
1.95993
21
1.3967
0
LINE
8
BLACK
6
CONTINUOUS
10
1.95993
20
1.3967
11
1.95922
21
1.39722
0
LINE
8
BLACK
6
CONTINUOUS
10
1.95922
20
1.39722
11
1.95916
21
1.39725
0
LINE
8
BLACK
6
CONTINUOUS
10
1.95916
20
1.39725
11
1.95729
21
1.39912
0
LINE
8
BLACK
6
CONTINUOUS
10
1.95729
20
1.39912
11
1.95678
21
1.39985
0
LINE
8
BLACK
6
CONTINUOUS
10
1.95678
20
1.39985
11
1.95673
21
1.39989
0
LINE
8
BLACK
6
CONTINUOUS
10
1.95673
20
1.39989
11
1.95486
21
1.40364
0
LINE
8
BLACK
6
CONTINUOUS
10
1.95486
20
1.40364
11
1.95457
21
1.40462
0
LINE
8
BLACK
6
CONTINUOUS
10
1.95457
20
1.40462
11
1.95461
21
1.40479
0
LINE
8
BLACK
6
CONTINUOUS
10
1.95461
20
1.40479
11
1.95455
21
1.40496
0
LINE
8
BLACK
6
CONTINUOUS
10
1.95455
20
1.40496
11
1.95455
21
1.43683
0
LINE
8
BLACK
6
CONTINUOUS
10
1.95455
20
1.43683
11
1.95472
21
1.43784
0
LINE
8
BLACK
6
CONTINUOUS
10
1.95472
20
1.43784
11
1.95602
21
1.43939
0
LINE
8
BLACK
6
CONTINUOUS
10
1.95602
20
1.43939
11
1.95801
21
1.43974
0
LINE
8
BLACK
6
CONTINUOUS
10
1.95801
20
1.43974
11
1.95976
21
1.43873
0
LINE
8
BLACK
6
CONTINUOUS
10
1.95976
20
1.43873
11
1.96045
21
1.43683
0
LINE
8
BLACK
6
CONTINUOUS
10
1.96045
20
1.43683
11
1.96045
21
1.40566
0
LINE
8
BLACK
6
CONTINUOUS
10
1.96045
20
1.40566
11
1.9618
21
1.40296
0
LINE
8
BLACK
6
CONTINUOUS
10
1.9618
20
1.40296
11
1.963
21
1.40176
0
LINE
8
BLACK
6
CONTINUOUS
10
1.963
20
1.40176
11
1.9657
21
1.40041
0
LINE
8
BLACK
6
CONTINUOUS
10
1.9657
20
1.40041
11
1.9718
21
1.40041
0
LINE
8
BLACK
6
CONTINUOUS
10
1.9718
20
1.40041
11
1.9745
21
1.40176
0
LINE
8
BLACK
6
CONTINUOUS
10
1.9745
20
1.40176
11
1.97569
21
1.40296
0
LINE
8
BLACK
6
CONTINUOUS
10
1.97569
20
1.40296
11
1.97704
21
1.40566
0
LINE
8
BLACK
6
CONTINUOUS
10
1.97704
20
1.40566
11
1.97704
21
1.43683
0
LINE
8
BLACK
6
CONTINUOUS
10
1.97704
20
1.43683
11
1.97722
21
1.43784
0
LINE
8
BLACK
6
CONTINUOUS
10
1.97722
20
1.43784
11
1.97852
21
1.43939
0
LINE
8
BLACK
6
CONTINUOUS
10
1.97852
20
1.43939
11
1.98051
21
1.43974
0
LINE
8
BLACK
6
CONTINUOUS
10
1.98051
20
1.43974
11
1.98226
21
1.43873
0
LINE
8
BLACK
6
CONTINUOUS
10
2.38657
20
1.44352
11
2.38726
21
1.44185
0
LINE
8
BLACK
6
CONTINUOUS
10
2.38726
20
1.44185
11
2.38726
21
1.41185
0
LINE
8
BLACK
6
CONTINUOUS
10
2.38726
20
1.41185
11
2.38657
21
1.41018
0
LINE
8
BLACK
6
CONTINUOUS
10
2.38657
20
1.41018
11
2.3849
21
1.40949
0
LINE
8
BLACK
6
CONTINUOUS
10
2.3849
20
1.40949
11
2.38323
21
1.41018
0
LINE
8
BLACK
6
CONTINUOUS
10
2.38323
20
1.41018
11
2.38254
21
1.41185
0
LINE
8
BLACK
6
CONTINUOUS
10
2.38254
20
1.41185
11
2.38254
21
1.44185
0
LINE
8
BLACK
6
CONTINUOUS
10
2.38254
20
1.44185
11
2.38323
21
1.44352
0
LINE
8
BLACK
6
CONTINUOUS
10
2.38323
20
1.44352
11
2.3849
21
1.44421
0
LINE
8
BLACK
6
CONTINUOUS
10
2.3849
20
1.44421
11
2.38657
21
1.44352
0
LINE
8
BLACK
6
CONTINUOUS
10
2.44657
20
1.44352
11
2.44726
21
1.44185
0
LINE
8
BLACK
6
CONTINUOUS
10
2.44726
20
1.44185
11
2.44726
21
1.41185
0
LINE
8
BLACK
6
CONTINUOUS
10
2.44726
20
1.41185
11
2.44657
21
1.41018
0
LINE
8
BLACK
6
CONTINUOUS
10
2.44657
20
1.41018
11
2.4449
21
1.40949
0
LINE
8
BLACK
6
CONTINUOUS
10
2.4449
20
1.40949
11
2.44323
21
1.41018
0
LINE
8
BLACK
6
CONTINUOUS
10
2.44323
20
1.41018
11
2.44254
21
1.41185
0
LINE
8
BLACK
6
CONTINUOUS
10
2.44254
20
1.41185
11
2.44254
21
1.44185
0
LINE
8
BLACK
6
CONTINUOUS
10
2.44254
20
1.44185
11
2.44323
21
1.44352
0
LINE
8
BLACK
6
CONTINUOUS
10
2.44323
20
1.44352
11
2.4449
21
1.44421
0
LINE
8
BLACK
6
CONTINUOUS
10
2.4449
20
1.44421
11
2.44657
21
1.44352
0
LINE
8
BLACK
6
CONTINUOUS
10
2.07101
20
1.42069
11
2.07256
21
1.41939
0
LINE
8
BLACK
6
CONTINUOUS
10
2.07256
20
1.41939
11
2.07291
21
1.4174
0
LINE
8
BLACK
6
CONTINUOUS
10
2.07291
20
1.4174
11
2.0719
21
1.41565
0
LINE
8
BLACK
6
CONTINUOUS
10
2.0719
20
1.41565
11
2.07
21
1.41496
0
LINE
8
BLACK
6
CONTINUOUS
10
2.07
20
1.41496
11
2.01
21
1.41496
0
LINE
8
BLACK
6
CONTINUOUS
10
2.01
20
1.41496
11
2.00899
21
1.41514
0
LINE
8
BLACK
6
CONTINUOUS
10
2.00899
20
1.41514
11
2.00744
21
1.41644
0
LINE
8
BLACK
6
CONTINUOUS
10
2.00744
20
1.41644
11
2.00709
21
1.41843
0
LINE
8
BLACK
6
CONTINUOUS
10
2.00709
20
1.41843
11
2.0081
21
1.42018
0
LINE
8
BLACK
6
CONTINUOUS
10
2.0081
20
1.42018
11
2.01
21
1.42087
0
LINE
8
BLACK
6
CONTINUOUS
10
2.01
20
1.42087
11
2.07
21
1.42087
0
LINE
8
BLACK
6
CONTINUOUS
10
2.07
20
1.42087
11
2.07101
21
1.42069
0
LINE
8
BLACK
6
CONTINUOUS
10
1.85551
20
1.45119
11
1.85718
21
1.4505
0
LINE
8
BLACK
6
CONTINUOUS
10
1.85718
20
1.4505
11
1.85787
21
1.44883
0
LINE
8
BLACK
6
CONTINUOUS
10
1.85787
20
1.44883
11
1.85787
21
1.44529
0
LINE
8
BLACK
6
CONTINUOUS
10
1.85787
20
1.44529
11
2.04213
21
1.44529
0
LINE
8
BLACK
6
CONTINUOUS
10
2.04213
20
1.44529
11
2.04213
21
1.44883
0
LINE
8
BLACK
6
CONTINUOUS
10
2.04213
20
1.44883
11
2.04282
21
1.4505
0
LINE
8
BLACK
6
CONTINUOUS
10
2.04282
20
1.4505
11
2.04449
21
1.45119
0
LINE
8
BLACK
6
CONTINUOUS
10
2.04449
20
1.45119
11
2.04616
21
1.4505
0
LINE
8
BLACK
6
CONTINUOUS
10
2.04616
20
1.4505
11
2.04685
21
1.44883
0
LINE
8
BLACK
6
CONTINUOUS
10
2.04685
20
1.44883
11
2.04685
21
1.44293
0
LINE
8
BLACK
6
CONTINUOUS
10
2.04685
20
1.44293
11
2.04616
21
1.44126
0
LINE
8
BLACK
6
CONTINUOUS
10
2.04616
20
1.44126
11
2.04449
21
1.44056
0
LINE
8
BLACK
6
CONTINUOUS
10
2.04449
20
1.44056
11
1.85551
21
1.44056
0
LINE
8
BLACK
6
CONTINUOUS
10
1.85551
20
1.44056
11
1.85384
21
1.44126
0
LINE
8
BLACK
6
CONTINUOUS
10
1.85384
20
1.44126
11
1.85315
21
1.44293
0
LINE
8
BLACK
6
CONTINUOUS
10
1.85315
20
1.44293
11
1.85315
21
1.44647
0
LINE
8
BLACK
6
CONTINUOUS
10
1.85315
20
1.44647
11
1.78858
21
1.44647
0
LINE
8
BLACK
6
CONTINUOUS
10
1.78858
20
1.44647
11
1.78691
21
1.44716
0
LINE
8
BLACK
6
CONTINUOUS
10
1.78691
20
1.44716
11
1.78622
21
1.44883
0
LINE
8
BLACK
6
CONTINUOUS
10
1.78622
20
1.44883
11
1.78691
21
1.4505
0
LINE
8
BLACK
6
CONTINUOUS
10
1.78691
20
1.4505
11
1.78858
21
1.45119
0
LINE
8
BLACK
6
CONTINUOUS
10
1.78858
20
1.45119
11
1.85551
21
1.45119
0
LINE
8
BLACK
6
CONTINUOUS
10
2.44591
20
1.48963
11
2.44746
21
1.48833
0
LINE
8
BLACK
6
CONTINUOUS
10
2.44746
20
1.48833
11
2.44781
21
1.48634
0
LINE
8
BLACK
6
CONTINUOUS
10
2.44781
20
1.48634
11
2.4468
21
1.48459
0
LINE
8
BLACK
6
CONTINUOUS
10
2.4468
20
1.48459
11
2.4449
21
1.4839
0
LINE
8
BLACK
6
CONTINUOUS
10
2.4449
20
1.4839
11
2.3849
21
1.4839
0
LINE
8
BLACK
6
CONTINUOUS
10
2.3849
20
1.4839
11
2.38389
21
1.48408
0
LINE
8
BLACK
6
CONTINUOUS
10
2.38389
20
1.48408
11
2.38234
21
1.48537
0
LINE
8
BLACK
6
CONTINUOUS
10
2.38234
20
1.48537
11
2.38199
21
1.48736
0
LINE
8
BLACK
6
CONTINUOUS
10
2.38199
20
1.48736
11
2.383
21
1.48911
0
LINE
8
BLACK
6
CONTINUOUS
10
2.383
20
1.48911
11
2.3849
21
1.4898
0
LINE
8
BLACK
6
CONTINUOUS
10
2.3849
20
1.4898
11
2.4449
21
1.4898
0
LINE
8
BLACK
6
CONTINUOUS
10
2.4449
20
1.4898
11
2.44591
21
1.48963
0
LINE
8
BLACK
6
CONTINUOUS
10
2.04449
20
1.60277
11
2.04616
21
1.60208
0
LINE
8
BLACK
6
CONTINUOUS
10
2.04616
20
1.60208
11
2.04685
21
1.60041
0
LINE
8
BLACK
6
CONTINUOUS
10
2.04685
20
1.60041
11
2.04685
21
1.5945
0
LINE
8
BLACK
6
CONTINUOUS
10
2.04685
20
1.5945
11
2.04616
21
1.59283
0
LINE
8
BLACK
6
CONTINUOUS
10
2.04616
20
1.59283
11
2.04449
21
1.59214
0
LINE
8
BLACK
6
CONTINUOUS
10
2.04449
20
1.59214
11
2.04282
21
1.59283
0
LINE
8
BLACK
6
CONTINUOUS
10
2.04282
20
1.59283
11
2.04213
21
1.5945
0
LINE
8
BLACK
6
CONTINUOUS
10
2.04213
20
1.5945
11
2.04213
21
1.59804
0
LINE
8
BLACK
6
CONTINUOUS
10
2.04213
20
1.59804
11
1.85787
21
1.59804
0
LINE
8
BLACK
6
CONTINUOUS
10
1.85787
20
1.59804
11
1.85787
21
1.5945
0
LINE
8
BLACK
6
CONTINUOUS
10
1.85787
20
1.5945
11
1.85718
21
1.59283
0
LINE
8
BLACK
6
CONTINUOUS
10
1.85718
20
1.59283
11
1.85551
21
1.59214
0
LINE
8
BLACK
6
CONTINUOUS
10
1.85551
20
1.59214
11
1.85384
21
1.59283
0
LINE
8
BLACK
6
CONTINUOUS
10
1.85384
20
1.59283
11
1.85315
21
1.5945
0
LINE
8
BLACK
6
CONTINUOUS
10
1.85315
20
1.5945
11
1.85315
21
1.60041
0
LINE
8
BLACK
6
CONTINUOUS
10
1.85315
20
1.60041
11
1.85384
21
1.60208
0
LINE
8
BLACK
6
CONTINUOUS
10
1.85384
20
1.60208
11
1.85551
21
1.60277
0
LINE
8
BLACK
6
CONTINUOUS
10
1.85551
20
1.60277
11
2.04449
21
1.60277
0
LINE
8
BLACK
6
CONTINUOUS
10
2.07101
20
1.72111
11
2.07256
21
1.71981
0
LINE
8
BLACK
6
CONTINUOUS
10
2.07256
20
1.71981
11
2.07291
21
1.71782
0
LINE
8
BLACK
6
CONTINUOUS
10
2.07291
20
1.71782
11
2.0719
21
1.71607
0
LINE
8
BLACK
6
CONTINUOUS
10
2.0719
20
1.71607
11
2.07
21
1.71538
0
LINE
8
BLACK
6
CONTINUOUS
10
2.07
20
1.71538
11
2.01
21
1.71538
0
LINE
8
BLACK
6
CONTINUOUS
10
2.01
20
1.71538
11
2.00899
21
1.71556
0
LINE
8
BLACK
6
CONTINUOUS
10
2.00899
20
1.71556
11
2.00744
21
1.71686
0
LINE
8
BLACK
6
CONTINUOUS
10
2.00744
20
1.71686
11
2.00709
21
1.71885
0
LINE
8
BLACK
6
CONTINUOUS
10
2.00709
20
1.71885
11
2.0081
21
1.7206
0
LINE
8
BLACK
6
CONTINUOUS
10
2.0081
20
1.7206
11
2.01
21
1.72129
0
LINE
8
BLACK
6
CONTINUOUS
10
2.01
20
1.72129
11
2.07
21
1.72129
0
LINE
8
BLACK
6
CONTINUOUS
10
2.07
20
1.72129
11
2.07101
21
1.72111
0
LINE
8
BLACK
6
CONTINUOUS
10
2.35982
20
1.77114
11
2.36201
21
1.76894
0
LINE
8
BLACK
6
CONTINUOUS
10
2.36201
20
1.76894
11
2.36282
21
1.76594
0
LINE
8
BLACK
6
CONTINUOUS
10
2.36282
20
1.76594
11
2.36282
21
1.74202
0
LINE
8
BLACK
6
CONTINUOUS
10
2.36282
20
1.74202
11
2.37572
21
1.75331
0
LINE
8
BLACK
6
CONTINUOUS
10
2.37572
20
1.75331
11
2.37626
21
1.75357
0
LINE
8
BLACK
6
CONTINUOUS
10
2.37626
20
1.75357
11
2.37668
21
1.75399
0
LINE
8
BLACK
6
CONTINUOUS
10
2.37668
20
1.75399
11
2.37763
21
1.75425
0
LINE
8
BLACK
6
CONTINUOUS
10
2.37763
20
1.75425
11
2.37851
21
1.75468
0
LINE
8
BLACK
6
CONTINUOUS
10
2.37851
20
1.75468
11
2.3791
21
1.75464
0
LINE
8
BLACK
6
CONTINUOUS
10
2.3791
20
1.75464
11
2.37968
21
1.7548
0
LINE
8
BLACK
6
CONTINUOUS
10
2.37968
20
1.7548
11
2.38063
21
1.75454
0
LINE
8
BLACK
6
CONTINUOUS
10
2.38063
20
1.75454
11
2.38161
21
1.75448
0
LINE
8
BLACK
6
CONTINUOUS
10
2.38161
20
1.75448
11
2.3821
21
1.75415
0
LINE
8
BLACK
6
CONTINUOUS
10
2.3821
20
1.75415
11
2.38268
21
1.75399
0
LINE
8
BLACK
6
CONTINUOUS
10
2.38268
20
1.75399
11
2.38337
21
1.7533
0
LINE
8
BLACK
6
CONTINUOUS
10
2.38337
20
1.7533
11
2.38419
21
1.75275
0
LINE
8
BLACK
6
CONTINUOUS
10
2.38419
20
1.75275
11
2.38445
21
1.75222
0
LINE
8
BLACK
6
CONTINUOUS
10
2.38445
20
1.75222
11
2.38487
21
1.7518
0
LINE
8
BLACK
6
CONTINUOUS
10
2.38487
20
1.7518
11
2.38513
21
1.75084
0
LINE
8
BLACK
6
CONTINUOUS
10
2.38513
20
1.75084
11
2.38556
21
1.74996
0
LINE
8
BLACK
6
CONTINUOUS
10
2.38556
20
1.74996
11
2.38552
21
1.74937
0
LINE
8
BLACK
6
CONTINUOUS
10
2.38552
20
1.74937
11
2.38568
21
1.7488
0
LINE
8
BLACK
6
CONTINUOUS
10
2.38568
20
1.7488
11
2.38568
21
1.74164
0
LINE
8
BLACK
6
CONTINUOUS
10
2.38568
20
1.74164
11
2.38746
21
1.73806
0
LINE
8
BLACK
6
CONTINUOUS
10
2.38746
20
1.73806
11
2.38894
21
1.73658
0
LINE
8
BLACK
6
CONTINUOUS
10
2.38894
20
1.73658
11
2.39252
21
1.7348
0
LINE
8
BLACK
6
CONTINUOUS
10
2.39252
20
1.7348
11
2.40397
21
1.7348
0
LINE
8
BLACK
6
CONTINUOUS
10
2.40397
20
1.7348
11
2.40755
21
1.73658
0
LINE
8
BLACK
6
CONTINUOUS
10
2.40755
20
1.73658
11
2.40903
21
1.73806
0
LINE
8
BLACK
6
CONTINUOUS
10
2.40903
20
1.73806
11
2.41082
21
1.74164
0
LINE
8
BLACK
6
CONTINUOUS
10
2.41082
20
1.74164
11
2.41082
21
1.75595
0
LINE
8
BLACK
6
CONTINUOUS
10
2.41082
20
1.75595
11
2.40903
21
1.75953
0
LINE
8
BLACK
6
CONTINUOUS
10
2.40903
20
1.75953
11
2.40686
21
1.7617
0
LINE
8
BLACK
6
CONTINUOUS
10
2.40686
20
1.7617
11
2.40531
21
1.76439
0
LINE
8
BLACK
6
CONTINUOUS
10
2.40531
20
1.76439
11
2.40531
21
1.76749
0
LINE
8
BLACK
6
CONTINUOUS
10
2.40531
20
1.76749
11
2.40686
21
1.77018
0
LINE
8
BLACK
6
CONTINUOUS
10
2.40686
20
1.77018
11
2.40955
21
1.77173
0
LINE
8
BLACK
6
CONTINUOUS
10
2.40955
20
1.77173
11
2.41266
21
1.77173
0
LINE
8
BLACK
6
CONTINUOUS
10
2.41266
20
1.77173
11
2.41535
21
1.77018
0
LINE
8
BLACK
6
CONTINUOUS
10
2.41535
20
1.77018
11
2.4182
21
1.76732
0
LINE
8
BLACK
6
CONTINUOUS
10
2.4182
20
1.76732
11
2.41869
21
1.76649
0
LINE
8
BLACK
6
CONTINUOUS
10
2.41869
20
1.76649
11
2.41933
21
1.76577
0
LINE
8
BLACK
6
CONTINUOUS
10
2.41933
20
1.76577
11
2.42218
21
1.76005
0
LINE
8
BLACK
6
CONTINUOUS
10
2.42218
20
1.76005
11
2.42246
21
1.7587
0
LINE
8
BLACK
6
CONTINUOUS
10
2.42246
20
1.7587
11
2.42282
21
1.75737
0
LINE
8
BLACK
6
CONTINUOUS
10
2.42282
20
1.75737
11
2.42282
21
1.74022
0
LINE
8
BLACK
6
CONTINUOUS
10
2.42282
20
1.74022
11
2.42246
21
1.73889
0
LINE
8
BLACK
6
CONTINUOUS
10
2.42246
20
1.73889
11
2.42218
21
1.73754
0
LINE
8
BLACK
6
CONTINUOUS
10
2.42218
20
1.73754
11
2.41933
21
1.73183
0
LINE
8
BLACK
6
CONTINUOUS
10
2.41933
20
1.73183
11
2.41869
21
1.7311
0
LINE
8
BLACK
6
CONTINUOUS
10
2.41869
20
1.7311
11
2.4182
21
1.73027
0
LINE
8
BLACK
6
CONTINUOUS
10
2.4182
20
1.73027
11
2.41535
21
1.72741
0
LINE
8
BLACK
6
CONTINUOUS
10
2.41535
20
1.72741
11
2.41451
21
1.72693
0
LINE
8
BLACK
6
CONTINUOUS
10
2.41451
20
1.72693
11
2.41379
21
1.72629
0
LINE
8
BLACK
6
CONTINUOUS
10
2.41379
20
1.72629
11
2.40807
21
1.72343
0
LINE
8
BLACK
6
CONTINUOUS
10
2.40807
20
1.72343
11
2.40672
21
1.72315
0
LINE
8
BLACK
6
CONTINUOUS
10
2.40672
20
1.72315
11
2.40539
21
1.7228
0
LINE
8
BLACK
6
CONTINUOUS
10
2.40539
20
1.7228
11
2.3911
21
1.7228
0
LINE
8
BLACK
6
CONTINUOUS
10
2.3911
20
1.7228
11
2.38977
21
1.72315
0
LINE
8
BLACK
6
CONTINUOUS
10
2.38977
20
1.72315
11
2.38842
21
1.72343
0
LINE
8
BLACK
6
CONTINUOUS
10
2.38842
20
1.72343
11
2.38271
21
1.72629
0
LINE
8
BLACK
6
CONTINUOUS
10
2.38271
20
1.72629
11
2.38198
21
1.72693
0
LINE
8
BLACK
6
CONTINUOUS
10
2.38198
20
1.72693
11
2.38115
21
1.72741
0
LINE
8
BLACK
6
CONTINUOUS
10
2.38115
20
1.72741
11
2.37829
21
1.73027
0
LINE
8
BLACK
6
CONTINUOUS
10
2.37829
20
1.73027
11
2.37781
21
1.7311
0
LINE
8
BLACK
6
CONTINUOUS
10
2.37781
20
1.7311
11
2.37717
21
1.73183
0
LINE
8
BLACK
6
CONTINUOUS
10
2.37717
20
1.73183
11
2.3748
21
1.73656
0
LINE
8
BLACK
6
CONTINUOUS
10
2.3748
20
1.73656
11
2.36077
21
1.72428
0
LINE
8
BLACK
6
CONTINUOUS
10
2.36077
20
1.72428
11
2.36024
21
1.72402
0
LINE
8
BLACK
6
CONTINUOUS
10
2.36024
20
1.72402
11
2.35982
21
1.7236
0
LINE
8
BLACK
6
CONTINUOUS
10
2.35982
20
1.7236
11
2.35887
21
1.72335
0
LINE
8
BLACK
6
CONTINUOUS
10
2.35887
20
1.72335
11
2.35798
21
1.72291
0
LINE
8
BLACK
6
CONTINUOUS
10
2.35798
20
1.72291
11
2.35739
21
1.72295
0
LINE
8
BLACK
6
CONTINUOUS
10
2.35739
20
1.72295
11
2.35682
21
1.7228
0
LINE
8
BLACK
6
CONTINUOUS
10
2.35682
20
1.7228
11
2.35587
21
1.72305
0
LINE
8
BLACK
6
CONTINUOUS
10
2.35587
20
1.72305
11
2.35488
21
1.72312
0
LINE
8
BLACK
6
CONTINUOUS
10
2.35488
20
1.72312
11
2.35439
21
1.72345
0
LINE
8
BLACK
6
CONTINUOUS
10
2.35439
20
1.72345
11
2.35382
21
1.7236
0
LINE
8
BLACK
6
CONTINUOUS
10
2.35382
20
1.7236
11
2.35312
21
1.7243
0
LINE
8
BLACK
6
CONTINUOUS
10
2.35312
20
1.7243
11
2.3523
21
1.72485
0
LINE
8
BLACK
6
CONTINUOUS
10
2.3523
20
1.72485
11
2.35204
21
1.72538
0
LINE
8
BLACK
6
CONTINUOUS
10
2.35204
20
1.72538
11
2.35162
21
1.7258
0
LINE
8
BLACK
6
CONTINUOUS
10
2.35162
20
1.7258
11
2.35137
21
1.72675
0
LINE
8
BLACK
6
CONTINUOUS
10
2.35137
20
1.72675
11
2.35093
21
1.72763
0
LINE
8
BLACK
6
CONTINUOUS
10
2.35093
20
1.72763
11
2.35097
21
1.72822
0
LINE
8
BLACK
6
CONTINUOUS
10
2.35097
20
1.72822
11
2.35082
21
1.7288
0
LINE
8
BLACK
6
CONTINUOUS
10
2.35082
20
1.7288
11
2.35082
21
1.76594
0
LINE
8
BLACK
6
CONTINUOUS
10
2.35082
20
1.76594
11
2.35162
21
1.76894
0
LINE
8
BLACK
6
CONTINUOUS
10
2.35162
20
1.76894
11
2.35382
21
1.77114
0
LINE
8
BLACK
6
CONTINUOUS
10
2.35382
20
1.77114
11
2.35682
21
1.77194
0
LINE
8
BLACK
6
CONTINUOUS
10
2.35682
20
1.77194
11
2.35982
21
1.77114
0
LINE
8
BLACK
6
CONTINUOUS
10
2.68541
20
1.76828
11
2.6876
21
1.76608
0
LINE
8
BLACK
6
CONTINUOUS
10
2.6876
20
1.76608
11
2.68841
21
1.76308
0
LINE
8
BLACK
6
CONTINUOUS
10
2.68841
20
1.76308
11
2.68841
21
1.7288
0
LINE
8
BLACK
6
CONTINUOUS
10
2.68841
20
1.7288
11
2.6876
21
1.7258
0
LINE
8
BLACK
6
CONTINUOUS
10
2.6876
20
1.7258
11
2.68541
21
1.7236
0
LINE
8
BLACK
6
CONTINUOUS
10
2.68541
20
1.7236
11
2.68241
21
1.7228
0
LINE
8
BLACK
6
CONTINUOUS
10
2.68241
20
1.7228
11
2.67941
21
1.7236
0
LINE
8
BLACK
6
CONTINUOUS
10
2.67941
20
1.7236
11
2.67721
21
1.7258
0
LINE
8
BLACK
6
CONTINUOUS
10
2.67721
20
1.7258
11
2.67641
21
1.7288
0
LINE
8
BLACK
6
CONTINUOUS
10
2.67641
20
1.7288
11
2.67641
21
1.73994
0
LINE
8
BLACK
6
CONTINUOUS
10
2.67641
20
1.73994
11
2.62241
21
1.73994
0
LINE
8
BLACK
6
CONTINUOUS
10
2.62241
20
1.73994
11
2.62109
21
1.74029
0
LINE
8
BLACK
6
CONTINUOUS
10
2.62109
20
1.74029
11
2.61975
21
1.74056
0
LINE
8
BLACK
6
CONTINUOUS
10
2.61975
20
1.74056
11
2.6196
21
1.74069
0
LINE
8
BLACK
6
CONTINUOUS
10
2.6196
20
1.74069
11
2.61941
21
1.74074
0
LINE
8
BLACK
6
CONTINUOUS
10
2.61941
20
1.74074
11
2.61844
21
1.74171
0
LINE
8
BLACK
6
CONTINUOUS
10
2.61844
20
1.74171
11
2.61742
21
1.74261
0
LINE
8
BLACK
6
CONTINUOUS
10
2.61742
20
1.74261
11
2.61735
21
1.7428
0
LINE
8
BLACK
6
CONTINUOUS
10
2.61735
20
1.7428
11
2.61721
21
1.74294
0
LINE
8
BLACK
6
CONTINUOUS
10
2.61721
20
1.74294
11
2.61686
21
1.74426
0
LINE
8
BLACK
6
CONTINUOUS
10
2.61686
20
1.74426
11
2.61642
21
1.74555
0
LINE
8
BLACK
6
CONTINUOUS
10
2.61642
20
1.74555
11
2.61646
21
1.74575
0
LINE
8
BLACK
6
CONTINUOUS
10
2.61646
20
1.74575
11
2.61641
21
1.74594
0
LINE
8
BLACK
6
CONTINUOUS
10
2.61641
20
1.74594
11
2.61676
21
1.74726
0
LINE
8
BLACK
6
CONTINUOUS
10
2.61676
20
1.74726
11
2.61703
21
1.7486
0
LINE
8
BLACK
6
CONTINUOUS
10
2.61703
20
1.7486
11
2.61716
21
1.74875
0
LINE
8
BLACK
6
CONTINUOUS
10
2.61716
20
1.74875
11
2.61721
21
1.74894
0
LINE
8
BLACK
6
CONTINUOUS
10
2.61721
20
1.74894
11
2.61818
21
1.74991
0
LINE
8
BLACK
6
CONTINUOUS
10
2.61818
20
1.74991
11
2.61908
21
1.75093
0
LINE
8
BLACK
6
CONTINUOUS
10
2.61908
20
1.75093
11
2.62716
21
1.75632
0
LINE
8
BLACK
6
CONTINUOUS
10
2.62716
20
1.75632
11
2.63176
21
1.76092
0
LINE
8
BLACK
6
CONTINUOUS
10
2.63176
20
1.76092
11
2.63418
21
1.76577
0
LINE
8
BLACK
6
CONTINUOUS
10
2.63418
20
1.76577
11
2.63625
21
1.76809
0
LINE
8
BLACK
6
CONTINUOUS
10
2.63625
20
1.76809
11
2.63919
21
1.76907
0
LINE
8
BLACK
6
CONTINUOUS
10
2.63919
20
1.76907
11
2.64223
21
1.76845
0
LINE
8
BLACK
6
CONTINUOUS
10
2.64223
20
1.76845
11
2.64456
21
1.76639
0
LINE
8
BLACK
6
CONTINUOUS
10
2.64456
20
1.76639
11
2.64554
21
1.76344
0
LINE
8
BLACK
6
CONTINUOUS
10
2.64554
20
1.76344
11
2.64492
21
1.7604
0
LINE
8
BLACK
6
CONTINUOUS
10
2.64492
20
1.7604
11
2.64206
21
1.75468
0
LINE
8
BLACK
6
CONTINUOUS
10
2.64206
20
1.75468
11
2.64142
21
1.75396
0
LINE
8
BLACK
6
CONTINUOUS
10
2.64142
20
1.75396
11
2.64094
21
1.75313
0
LINE
8
BLACK
6
CONTINUOUS
10
2.64094
20
1.75313
11
2.63975
21
1.75194
0
LINE
8
BLACK
6
CONTINUOUS
10
2.63975
20
1.75194
11
2.67641
21
1.75194
0
LINE
8
BLACK
6
CONTINUOUS
10
2.67641
20
1.75194
11
2.67641
21
1.76308
0
LINE
8
BLACK
6
CONTINUOUS
10
2.67641
20
1.76308
11
2.67721
21
1.76608
0
LINE
8
BLACK
6
CONTINUOUS
10
2.67721
20
1.76608
11
2.67941
21
1.76828
0
LINE
8
BLACK
6
CONTINUOUS
10
2.67941
20
1.76828
11
2.68241
21
1.76908
0
LINE
8
BLACK
6
CONTINUOUS
10
2.68241
20
1.76908
11
2.68541
21
1.76828
0
LINE
8
BLACK
6
CONTINUOUS
10
2.45195
20
1.81855
11
2.45264
21
1.81665
0
LINE
8
BLACK
6
CONTINUOUS
10
2.45264
20
1.81665
11
2.45264
21
1.72665
0
LINE
8
BLACK
6
CONTINUOUS
10
2.45264
20
1.72665
11
2.45246
21
1.72564
0
LINE
8
BLACK
6
CONTINUOUS
10
2.45246
20
1.72564
11
2.45116
21
1.7241
0
LINE
8
BLACK
6
CONTINUOUS
10
2.45116
20
1.7241
11
2.44917
21
1.72375
0
LINE
8
BLACK
6
CONTINUOUS
10
2.44917
20
1.72375
11
2.44742
21
1.72476
0
LINE
8
BLACK
6
CONTINUOUS
10
2.44742
20
1.72476
11
2.44673
21
1.72665
0
LINE
8
BLACK
6
CONTINUOUS
10
2.44673
20
1.72665
11
2.44673
21
1.81665
0
LINE
8
BLACK
6
CONTINUOUS
10
2.44673
20
1.81665
11
2.44691
21
1.81766
0
LINE
8
BLACK
6
CONTINUOUS
10
2.44691
20
1.81766
11
2.44821
21
1.81921
0
LINE
8
BLACK
6
CONTINUOUS
10
2.44821
20
1.81921
11
2.4502
21
1.81956
0
LINE
8
BLACK
6
CONTINUOUS
10
2.4502
20
1.81956
11
2.45195
21
1.81855
0
LINE
8
BLACK
6
CONTINUOUS
10
2.59195
20
1.81855
11
2.59264
21
1.81665
0
LINE
8
BLACK
6
CONTINUOUS
10
2.59264
20
1.81665
11
2.59264
21
1.72665
0
LINE
8
BLACK
6
CONTINUOUS
10
2.59264
20
1.72665
11
2.59246
21
1.72564
0
LINE
8
BLACK
6
CONTINUOUS
10
2.59246
20
1.72564
11
2.59116
21
1.7241
0
LINE
8
BLACK
6
CONTINUOUS
10
2.59116
20
1.7241
11
2.58917
21
1.72375
0
LINE
8
BLACK
6
CONTINUOUS
10
2.58917
20
1.72375
11
2.58742
21
1.72476
0
LINE
8
BLACK
6
CONTINUOUS
10
2.58742
20
1.72476
11
2.58673
21
1.72665
0
LINE
8
BLACK
6
CONTINUOUS
10
2.58673
20
1.72665
11
2.58673
21
1.81665
0
LINE
8
BLACK
6
CONTINUOUS
10
2.58673
20
1.81665
11
2.58691
21
1.81766
0
LINE
8
BLACK
6
CONTINUOUS
10
2.58691
20
1.81766
11
2.58821
21
1.81921
0
LINE
8
BLACK
6
CONTINUOUS
10
2.58821
20
1.81921
11
2.5902
21
1.81956
0
LINE
8
BLACK
6
CONTINUOUS
10
2.5902
20
1.81956
11
2.59195
21
1.81855
0
LINE
8
BLACK
6
CONTINUOUS
10
2.72754
20
1.81855
11
2.72823
21
1.81665
0
LINE
8
BLACK
6
CONTINUOUS
10
2.72823
20
1.81665
11
2.72823
21
1.72665
0
LINE
8
BLACK
6
CONTINUOUS
10
2.72823
20
1.72665
11
2.72805
21
1.72564
0
LINE
8
BLACK
6
CONTINUOUS
10
2.72805
20
1.72564
11
2.72675
21
1.7241
0
LINE
8
BLACK
6
CONTINUOUS
10
2.72675
20
1.7241
11
2.72476
21
1.72375
0
LINE
8
BLACK
6
CONTINUOUS
10
2.72476
20
1.72375
11
2.72301
21
1.72476
0
LINE
8
BLACK
6
CONTINUOUS
10
2.72301
20
1.72476
11
2.72232
21
1.72665
0
LINE
8
BLACK
6
CONTINUOUS
10
2.72232
20
1.72665
11
2.72232
21
1.81665
0
LINE
8
BLACK
6
CONTINUOUS
10
2.72232
20
1.81665
11
2.7225
21
1.81766
0
LINE
8
BLACK
6
CONTINUOUS
10
2.7225
20
1.81766
11
2.7238
21
1.81921
0
LINE
8
BLACK
6
CONTINUOUS
10
2.7238
20
1.81921
11
2.72579
21
1.81956
0
LINE
8
BLACK
6
CONTINUOUS
10
2.72579
20
1.81956
11
2.72754
21
1.81855
0
LINE
8
BLACK
6
CONTINUOUS
10
2.86754
20
1.81855
11
2.86823
21
1.81665
0
LINE
8
BLACK
6
CONTINUOUS
10
2.86823
20
1.81665
11
2.86823
21
1.72665
0
LINE
8
BLACK
6
CONTINUOUS
10
2.86823
20
1.72665
11
2.86805
21
1.72564
0
LINE
8
BLACK
6
CONTINUOUS
10
2.86805
20
1.72564
11
2.86675
21
1.7241
0
LINE
8
BLACK
6
CONTINUOUS
10
2.86675
20
1.7241
11
2.86476
21
1.72375
0
LINE
8
BLACK
6
CONTINUOUS
10
2.86476
20
1.72375
11
2.86301
21
1.72476
0
LINE
8
BLACK
6
CONTINUOUS
10
2.86301
20
1.72476
11
2.86232
21
1.72665
0
LINE
8
BLACK
6
CONTINUOUS
10
2.86232
20
1.72665
11
2.86232
21
1.81665
0
LINE
8
BLACK
6
CONTINUOUS
10
2.86232
20
1.81665
11
2.8625
21
1.81766
0
LINE
8
BLACK
6
CONTINUOUS
10
2.8625
20
1.81766
11
2.8638
21
1.81921
0
LINE
8
BLACK
6
CONTINUOUS
10
2.8638
20
1.81921
11
2.86579
21
1.81956
0
LINE
8
BLACK
6
CONTINUOUS
10
2.86579
20
1.81956
11
2.86754
21
1.81855
0
LINE
8
BLACK
6
CONTINUOUS
10
2.01167
20
1.795
11
2.01236
21
1.79333
0
LINE
8
BLACK
6
CONTINUOUS
10
2.01236
20
1.79333
11
2.01236
21
1.76333
0
LINE
8
BLACK
6
CONTINUOUS
10
2.01236
20
1.76333
11
2.01167
21
1.76166
0
LINE
8
BLACK
6
CONTINUOUS
10
2.01167
20
1.76166
11
2.01
21
1.76097
0
LINE
8
BLACK
6
CONTINUOUS
10
2.01
20
1.76097
11
2.00833
21
1.76166
0
LINE
8
BLACK
6
CONTINUOUS
10
2.00833
20
1.76166
11
2.00764
21
1.76333
0
LINE
8
BLACK
6
CONTINUOUS
10
2.00764
20
1.76333
11
2.00764
21
1.79333
0
LINE
8
BLACK
6
CONTINUOUS
10
2.00764
20
1.79333
11
2.00833
21
1.795
0
LINE
8
BLACK
6
CONTINUOUS
10
2.00833
20
1.795
11
2.01
21
1.7957
0
LINE
8
BLACK
6
CONTINUOUS
10
2.01
20
1.7957
11
2.01167
21
1.795
0
LINE
8
BLACK
6
CONTINUOUS
10
2.07167
20
1.795
11
2.07236
21
1.79333
0
LINE
8
BLACK
6
CONTINUOUS
10
2.07236
20
1.79333
11
2.07236
21
1.76333
0
LINE
8
BLACK
6
CONTINUOUS
10
2.07236
20
1.76333
11
2.07167
21
1.76166
0
LINE
8
BLACK
6
CONTINUOUS
10
2.07167
20
1.76166
11
2.07
21
1.76097
0
LINE
8
BLACK
6
CONTINUOUS
10
2.07
20
1.76097
11
2.06833
21
1.76166
0
LINE
8
BLACK
6
CONTINUOUS
10
2.06833
20
1.76166
11
2.06764
21
1.76333
0
LINE
8
BLACK
6
CONTINUOUS
10
2.06764
20
1.76333
11
2.06764
21
1.79333
0
LINE
8
BLACK
6
CONTINUOUS
10
2.06764
20
1.79333
11
2.06833
21
1.795
0
LINE
8
BLACK
6
CONTINUOUS
10
2.06833
20
1.795
11
2.07
21
1.7957
0
LINE
8
BLACK
6
CONTINUOUS
10
2.07
20
1.7957
11
2.07167
21
1.795
0
LINE
8
BLACK
6
CONTINUOUS
10
2.41982
20
1.81685
11
2.42201
21
1.81465
0
LINE
8
BLACK
6
CONTINUOUS
10
2.42201
20
1.81465
11
2.42282
21
1.81165
0
LINE
8
BLACK
6
CONTINUOUS
10
2.42282
20
1.81165
11
2.42201
21
1.80865
0
LINE
8
BLACK
6
CONTINUOUS
10
2.42201
20
1.80865
11
2.41982
21
1.80646
0
LINE
8
BLACK
6
CONTINUOUS
10
2.41982
20
1.80646
11
2.41682
21
1.80565
0
LINE
8
BLACK
6
CONTINUOUS
10
2.41682
20
1.80565
11
2.39139
21
1.80565
0
LINE
8
BLACK
6
CONTINUOUS
10
2.39139
20
1.80565
11
2.39139
21
1.79165
0
LINE
8
BLACK
6
CONTINUOUS
10
2.39139
20
1.79165
11
2.39059
21
1.78865
0
LINE
8
BLACK
6
CONTINUOUS
10
2.39059
20
1.78865
11
2.38839
21
1.78646
0
LINE
8
BLACK
6
CONTINUOUS
10
2.38839
20
1.78646
11
2.38539
21
1.78565
0
LINE
8
BLACK
6
CONTINUOUS
10
2.38539
20
1.78565
11
2.38239
21
1.78646
0
LINE
8
BLACK
6
CONTINUOUS
10
2.38239
20
1.78646
11
2.38019
21
1.78865
0
LINE
8
BLACK
6
CONTINUOUS
10
2.38019
20
1.78865
11
2.37939
21
1.79165
0
LINE
8
BLACK
6
CONTINUOUS
10
2.37939
20
1.79165
11
2.37939
21
1.80565
0
LINE
8
BLACK
6
CONTINUOUS
10
2.37939
20
1.80565
11
2.36282
21
1.80565
0
LINE
8
BLACK
6
CONTINUOUS
10
2.36282
20
1.80565
11
2.36282
21
1.78308
0
LINE
8
BLACK
6
CONTINUOUS
10
2.36282
20
1.78308
11
2.36201
21
1.78008
0
LINE
8
BLACK
6
CONTINUOUS
10
2.36201
20
1.78008
11
2.35982
21
1.77789
0
LINE
8
BLACK
6
CONTINUOUS
10
2.35982
20
1.77789
11
2.35682
21
1.77708
0
LINE
8
BLACK
6
CONTINUOUS
10
2.35682
20
1.77708
11
2.35382
21
1.77789
0
LINE
8
BLACK
6
CONTINUOUS
10
2.35382
20
1.77789
11
2.35162
21
1.78008
0
LINE
8
BLACK
6
CONTINUOUS
10
2.35162
20
1.78008
11
2.35082
21
1.78308
0
LINE
8
BLACK
6
CONTINUOUS
10
2.35082
20
1.78308
11
2.35082
21
1.81165
0
LINE
8
BLACK
6
CONTINUOUS
10
2.35082
20
1.81165
11
2.35162
21
1.81465
0
LINE
8
BLACK
6
CONTINUOUS
10
2.35162
20
1.81465
11
2.35382
21
1.81685
0
LINE
8
BLACK
6
CONTINUOUS
10
2.35382
20
1.81685
11
2.35682
21
1.81765
0
LINE
8
BLACK
6
CONTINUOUS
10
2.35682
20
1.81765
11
2.41682
21
1.81765
0
LINE
8
BLACK
6
CONTINUOUS
10
2.41682
20
1.81765
11
2.41982
21
1.81685
0
LINE
8
BLACK
6
CONTINUOUS
10
2.68541
20
1.81685
11
2.6876
21
1.81465
0
LINE
8
BLACK
6
CONTINUOUS
10
2.6876
20
1.81465
11
2.68841
21
1.81165
0
LINE
8
BLACK
6
CONTINUOUS
10
2.68841
20
1.81165
11
2.6876
21
1.80865
0
LINE
8
BLACK
6
CONTINUOUS
10
2.6876
20
1.80865
11
2.68541
21
1.80646
0
LINE
8
BLACK
6
CONTINUOUS
10
2.68541
20
1.80646
11
2.68241
21
1.80565
0
LINE
8
BLACK
6
CONTINUOUS
10
2.68241
20
1.80565
11
2.65698
21
1.80565
0
LINE
8
BLACK
6
CONTINUOUS
10
2.65698
20
1.80565
11
2.65698
21
1.79165
0
LINE
8
BLACK
6
CONTINUOUS
10
2.65698
20
1.79165
11
2.65618
21
1.78865
0
LINE
8
BLACK
6
CONTINUOUS
10
2.65618
20
1.78865
11
2.65398
21
1.78646
0
LINE
8
BLACK
6
CONTINUOUS
10
2.65398
20
1.78646
11
2.65098
21
1.78565
0
LINE
8
BLACK
6
CONTINUOUS
10
2.65098
20
1.78565
11
2.64798
21
1.78646
0
LINE
8
BLACK
6
CONTINUOUS
10
2.64798
20
1.78646
11
2.64578
21
1.78865
0
LINE
8
BLACK
6
CONTINUOUS
10
2.64578
20
1.78865
11
2.64498
21
1.79165
0
LINE
8
BLACK
6
CONTINUOUS
10
2.64498
20
1.79165
11
2.64498
21
1.80565
0
LINE
8
BLACK
6
CONTINUOUS
10
2.64498
20
1.80565
11
2.62841
21
1.80565
0
LINE
8
BLACK
6
CONTINUOUS
10
2.62841
20
1.80565
11
2.62841
21
1.78308
0
LINE
8
BLACK
6
CONTINUOUS
10
2.62841
20
1.78308
11
2.6276
21
1.78008
0
LINE
8
BLACK
6
CONTINUOUS
10
2.6276
20
1.78008
11
2.62541
21
1.77789
0
LINE
8
BLACK
6
CONTINUOUS
10
2.62541
20
1.77789
11
2.62241
21
1.77708
0
LINE
8
BLACK
6
CONTINUOUS
10
2.62241
20
1.77708
11
2.61941
21
1.77789
0
LINE
8
BLACK
6
CONTINUOUS
10
2.61941
20
1.77789
11
2.61721
21
1.78008
0
LINE
8
BLACK
6
CONTINUOUS
10
2.61721
20
1.78008
11
2.61641
21
1.78308
0
LINE
8
BLACK
6
CONTINUOUS
10
2.61641
20
1.78308
11
2.61641
21
1.81165
0
LINE
8
BLACK
6
CONTINUOUS
10
2.61641
20
1.81165
11
2.61721
21
1.81465
0
LINE
8
BLACK
6
CONTINUOUS
10
2.61721
20
1.81465
11
2.61941
21
1.81685
0
LINE
8
BLACK
6
CONTINUOUS
10
2.61941
20
1.81685
11
2.62241
21
1.81765
0
LINE
8
BLACK
6
CONTINUOUS
10
2.62241
20
1.81765
11
2.68241
21
1.81765
0
LINE
8
BLACK
6
CONTINUOUS
10
2.68241
20
1.81765
11
2.68541
21
1.81685
0
LINE
8
BLACK
6
CONTINUOUS
10
1.93891
20
1.86142
11
1.93897
21
1.86144
0
LINE
8
BLACK
6
CONTINUOUS
10
1.93897
20
1.86144
11
1.93908
21
1.86139
0
LINE
8
BLACK
6
CONTINUOUS
10
1.93908
20
1.86139
11
1.93976
21
1.86127
0
LINE
8
BLACK
6
CONTINUOUS
10
1.93976
20
1.86127
11
1.94024
21
1.86087
0
LINE
8
BLACK
6
CONTINUOUS
10
1.94024
20
1.86087
11
1.94081
21
1.86061
0
LINE
8
BLACK
6
CONTINUOUS
10
1.94081
20
1.86061
11
1.94099
21
1.86024
0
LINE
8
BLACK
6
CONTINUOUS
10
1.94099
20
1.86024
11
1.94131
21
1.85997
0
LINE
8
BLACK
6
CONTINUOUS
10
1.94131
20
1.85997
11
1.94142
21
1.85936
0
LINE
8
BLACK
6
CONTINUOUS
10
1.94142
20
1.85936
11
1.94169
21
1.85879
0
LINE
8
BLACK
6
CONTINUOUS
10
1.94169
20
1.85879
11
1.94356
21
1.84004
0
LINE
8
BLACK
6
CONTINUOUS
10
1.94356
20
1.84004
11
1.94349
21
1.83902
0
LINE
8
BLACK
6
CONTINUOUS
10
1.94349
20
1.83902
11
1.94348
21
1.83901
0
LINE
8
BLACK
6
CONTINUOUS
10
1.94348
20
1.83901
11
1.94348
21
1.83899
0
LINE
8
BLACK
6
CONTINUOUS
10
1.94348
20
1.83899
11
1.94291
21
1.83817
0
LINE
8
BLACK
6
CONTINUOUS
10
1.94291
20
1.83817
11
1.94235
21
1.83735
0
LINE
8
BLACK
6
CONTINUOUS
10
1.94235
20
1.83735
11
1.94233
21
1.83735
0
LINE
8
BLACK
6
CONTINUOUS
10
1.94233
20
1.83735
11
1.94232
21
1.83733
0
LINE
8
BLACK
6
CONTINUOUS
10
1.94232
20
1.83733
11
1.94136
21
1.83707
0
LINE
8
BLACK
6
CONTINUOUS
10
1.94136
20
1.83707
11
1.94041
21
1.83681
0
LINE
8
BLACK
6
CONTINUOUS
10
1.94041
20
1.83681
11
1.94039
21
1.83681
0
LINE
8
BLACK
6
CONTINUOUS
10
1.94039
20
1.83681
11
1.94037
21
1.83681
0
LINE
8
BLACK
6
CONTINUOUS
10
1.94037
20
1.83681
11
1.93947
21
1.83723
0
LINE
8
BLACK
6
CONTINUOUS
10
1.93947
20
1.83723
11
1.93856
21
1.83764
0
LINE
8
BLACK
6
CONTINUOUS
10
1.93856
20
1.83764
11
1.93856
21
1.83765
0
LINE
8
BLACK
6
CONTINUOUS
10
1.93856
20
1.83765
11
1.93854
21
1.83766
0
LINE
8
BLACK
6
CONTINUOUS
10
1.93854
20
1.83766
11
1.937
21
1.8392
0
LINE
8
BLACK
6
CONTINUOUS
10
1.937
20
1.8392
11
1.9343
21
1.84055
0
LINE
8
BLACK
6
CONTINUOUS
10
1.9343
20
1.84055
11
1.92633
21
1.84055
0
LINE
8
BLACK
6
CONTINUOUS
10
1.92633
20
1.84055
11
1.92363
21
1.8392
0
LINE
8
BLACK
6
CONTINUOUS
10
1.92363
20
1.8392
11
1.92243
21
1.838
0
LINE
8
BLACK
6
CONTINUOUS
10
1.92243
20
1.838
11
1.92108
21
1.8353
0
LINE
8
BLACK
6
CONTINUOUS
10
1.92108
20
1.8353
11
1.92108
21
1.82732
0
LINE
8
BLACK
6
CONTINUOUS
10
1.92108
20
1.82732
11
1.92243
21
1.82463
0
LINE
8
BLACK
6
CONTINUOUS
10
1.92243
20
1.82463
11
1.92363
21
1.82343
0
LINE
8
BLACK
6
CONTINUOUS
10
1.92363
20
1.82343
11
1.92633
21
1.82208
0
LINE
8
BLACK
6
CONTINUOUS
10
1.92633
20
1.82208
11
1.9343
21
1.82208
0
LINE
8
BLACK
6
CONTINUOUS
10
1.9343
20
1.82208
11
1.937
21
1.82343
0
LINE
8
BLACK
6
CONTINUOUS
10
1.937
20
1.82343
11
1.93854
21
1.82497
0
LINE
8
BLACK
6
CONTINUOUS
10
1.93854
20
1.82497
11
1.93938
21
1.82555
0
LINE
8
BLACK
6
CONTINUOUS
10
1.93938
20
1.82555
11
1.94139
21
1.82573
0
LINE
8
BLACK
6
CONTINUOUS
10
1.94139
20
1.82573
11
1.94304
21
1.82457
0
LINE
8
BLACK
6
CONTINUOUS
10
1.94304
20
1.82457
11
1.94357
21
1.82262
0
LINE
8
BLACK
6
CONTINUOUS
10
1.94357
20
1.82262
11
1.94271
21
1.82079
0
LINE
8
BLACK
6
CONTINUOUS
10
1.94271
20
1.82079
11
1.94084
21
1.81891
0
LINE
8
BLACK
6
CONTINUOUS
10
1.94084
20
1.81891
11
1.94012
21
1.81841
0
LINE
8
BLACK
6
CONTINUOUS
10
1.94012
20
1.81841
11
1.94007
21
1.81836
0
LINE
8
BLACK
6
CONTINUOUS
10
1.94007
20
1.81836
11
1.93632
21
1.81649
0
LINE
8
BLACK
6
CONTINUOUS
10
1.93632
20
1.81649
11
1.93534
21
1.81619
0
LINE
8
BLACK
6
CONTINUOUS
10
1.93534
20
1.81619
11
1.93517
21
1.81624
0
LINE
8
BLACK
6
CONTINUOUS
10
1.93517
20
1.81624
11
1.935
21
1.81618
0
LINE
8
BLACK
6
CONTINUOUS
10
1.935
20
1.81618
11
1.92563
21
1.81618
0
LINE
8
BLACK
6
CONTINUOUS
10
1.92563
20
1.81618
11
1.92462
21
1.81635
0
LINE
8
BLACK
6
CONTINUOUS
10
1.92462
20
1.81635
11
1.92448
21
1.81647
0
LINE
8
BLACK
6
CONTINUOUS
10
1.92448
20
1.81647
11
1.92431
21
1.81649
0
LINE
8
BLACK
6
CONTINUOUS
10
1.92431
20
1.81649
11
1.92056
21
1.81836
0
LINE
8
BLACK
6
CONTINUOUS
10
1.92056
20
1.81836
11
1.91985
21
1.81889
0
LINE
8
BLACK
6
CONTINUOUS
10
1.91985
20
1.81889
11
1.91979
21
1.81891
0
LINE
8
BLACK
6
CONTINUOUS
10
1.91979
20
1.81891
11
1.91792
21
1.82079
0
LINE
8
BLACK
6
CONTINUOUS
10
1.91792
20
1.82079
11
1.91741
21
1.82151
0
LINE
8
BLACK
6
CONTINUOUS
10
1.91741
20
1.82151
11
1.91736
21
1.82156
0
LINE
8
BLACK
6
CONTINUOUS
10
1.91736
20
1.82156
11
1.91549
21
1.82531
0
LINE
8
BLACK
6
CONTINUOUS
10
1.91549
20
1.82531
11
1.9152
21
1.82629
0
LINE
8
BLACK
6
CONTINUOUS
10
1.9152
20
1.82629
11
1.91524
21
1.82646
0
LINE
8
BLACK
6
CONTINUOUS
10
1.91524
20
1.82646
11
1.91518
21
1.82663
0
LINE
8
BLACK
6
CONTINUOUS
10
1.91518
20
1.82663
11
1.91518
21
1.836
0
LINE
8
BLACK
6
CONTINUOUS
10
1.91518
20
1.836
11
1.91535
21
1.83701
0
LINE
8
BLACK
6
CONTINUOUS
10
1.91535
20
1.83701
11
1.91547
21
1.83715
0
LINE
8
BLACK
6
CONTINUOUS
10
1.91547
20
1.83715
11
1.91549
21
1.83732
0
LINE
8
BLACK
6
CONTINUOUS
10
1.91549
20
1.83732
11
1.91736
21
1.84107
0
LINE
8
BLACK
6
CONTINUOUS
10
1.91736
20
1.84107
11
1.91789
21
1.84178
0
LINE
8
BLACK
6
CONTINUOUS
10
1.91789
20
1.84178
11
1.91792
21
1.84184
0
LINE
8
BLACK
6
CONTINUOUS
10
1.91792
20
1.84184
11
1.91979
21
1.84371
0
LINE
8
BLACK
6
CONTINUOUS
10
1.91979
20
1.84371
11
1.92051
21
1.84422
0
LINE
8
BLACK
6
CONTINUOUS
10
1.92051
20
1.84422
11
1.92056
21
1.84427
0
LINE
8
BLACK
6
CONTINUOUS
10
1.92056
20
1.84427
11
1.92431
21
1.84614
0
LINE
8
BLACK
6
CONTINUOUS
10
1.92431
20
1.84614
11
1.92529
21
1.84643
0
LINE
8
BLACK
6
CONTINUOUS
10
1.92529
20
1.84643
11
1.92546
21
1.84639
0
LINE
8
BLACK
6
CONTINUOUS
10
1.92546
20
1.84639
11
1.92563
21
1.84645
0
LINE
8
BLACK
6
CONTINUOUS
10
1.92563
20
1.84645
11
1.935
21
1.84645
0
LINE
8
BLACK
6
CONTINUOUS
10
1.935
20
1.84645
11
1.93601
21
1.84627
0
LINE
8
BLACK
6
CONTINUOUS
10
1.93601
20
1.84627
11
1.93615
21
1.84616
0
LINE
8
BLACK
6
CONTINUOUS
10
1.93615
20
1.84616
11
1.93632
21
1.84614
0
LINE
8
BLACK
6
CONTINUOUS
10
1.93632
20
1.84614
11
1.93706
21
1.84577
0
LINE
8
BLACK
6
CONTINUOUS
10
1.93706
20
1.84577
11
1.93608
21
1.85555
0
LINE
8
BLACK
6
CONTINUOUS
10
1.93608
20
1.85555
11
1.92
21
1.85555
0
LINE
8
BLACK
6
CONTINUOUS
10
1.92
20
1.85555
11
1.91899
21
1.85572
0
LINE
8
BLACK
6
CONTINUOUS
10
1.91899
20
1.85572
11
1.91745
21
1.85702
0
LINE
8
BLACK
6
CONTINUOUS
10
1.91745
20
1.85702
11
1.9171
21
1.85901
0
LINE
8
BLACK
6
CONTINUOUS
10
1.9171
20
1.85901
11
1.91811
21
1.86076
0
LINE
8
BLACK
6
CONTINUOUS
10
1.91811
20
1.86076
11
1.92
21
1.86145
0
LINE
8
BLACK
6
CONTINUOUS
10
1.92
20
1.86145
11
1.93875
21
1.86145
0
LINE
8
BLACK
6
CONTINUOUS
10
1.93875
20
1.86145
11
1.93891
21
1.86142
0
LINE
8
BLACK
6
CONTINUOUS
10
1.98226
20
1.8604
11
1.98295
21
1.8585
0
LINE
8
BLACK
6
CONTINUOUS
10
1.98295
20
1.8585
11
1.98295
21
1.82663
0
LINE
8
BLACK
6
CONTINUOUS
10
1.98295
20
1.82663
11
1.98277
21
1.82562
0
LINE
8
BLACK
6
CONTINUOUS
10
1.98277
20
1.82562
11
1.98266
21
1.82548
0
LINE
8
BLACK
6
CONTINUOUS
10
1.98266
20
1.82548
11
1.98264
21
1.82531
0
LINE
8
BLACK
6
CONTINUOUS
10
1.98264
20
1.82531
11
1.98076
21
1.82156
0
LINE
8
BLACK
6
CONTINUOUS
10
1.98076
20
1.82156
11
1.98024
21
1.82085
0
LINE
8
BLACK
6
CONTINUOUS
10
1.98024
20
1.82085
11
1.98021
21
1.82079
0
LINE
8
BLACK
6
CONTINUOUS
10
1.98021
20
1.82079
11
1.97833
21
1.81891
0
LINE
8
BLACK
6
CONTINUOUS
10
1.97833
20
1.81891
11
1.97761
21
1.81841
0
LINE
8
BLACK
6
CONTINUOUS
10
1.97761
20
1.81841
11
1.97757
21
1.81836
0
LINE
8
BLACK
6
CONTINUOUS
10
1.97757
20
1.81836
11
1.97382
21
1.81649
0
LINE
8
BLACK
6
CONTINUOUS
10
1.97382
20
1.81649
11
1.97283
21
1.81619
0
LINE
8
BLACK
6
CONTINUOUS
10
1.97283
20
1.81619
11
1.97266
21
1.81624
0
LINE
8
BLACK
6
CONTINUOUS
10
1.97266
20
1.81624
11
1.9725
21
1.81618
0
LINE
8
BLACK
6
CONTINUOUS
10
1.9725
20
1.81618
11
1.965
21
1.81618
0
LINE
8
BLACK
6
CONTINUOUS
10
1.965
20
1.81618
11
1.96399
21
1.81635
0
LINE
8
BLACK
6
CONTINUOUS
10
1.96399
20
1.81635
11
1.96385
21
1.81647
0
LINE
8
BLACK
6
CONTINUOUS
10
1.96385
20
1.81647
11
1.96368
21
1.81649
0
LINE
8
BLACK
6
CONTINUOUS
10
1.96368
20
1.81649
11
1.95993
21
1.81836
0
LINE
8
BLACK
6
CONTINUOUS
10
1.95993
20
1.81836
11
1.95922
21
1.81889
0
LINE
8
BLACK
6
CONTINUOUS
10
1.95922
20
1.81889
11
1.95916
21
1.81891
0
LINE
8
BLACK
6
CONTINUOUS
10
1.95916
20
1.81891
11
1.95729
21
1.82079
0
LINE
8
BLACK
6
CONTINUOUS
10
1.95729
20
1.82079
11
1.95678
21
1.82151
0
LINE
8
BLACK
6
CONTINUOUS
10
1.95678
20
1.82151
11
1.95673
21
1.82156
0
LINE
8
BLACK
6
CONTINUOUS
10
1.95673
20
1.82156
11
1.95486
21
1.82531
0
LINE
8
BLACK
6
CONTINUOUS
10
1.95486
20
1.82531
11
1.95457
21
1.82629
0
LINE
8
BLACK
6
CONTINUOUS
10
1.95457
20
1.82629
11
1.95461
21
1.82646
0
LINE
8
BLACK
6
CONTINUOUS
10
1.95461
20
1.82646
11
1.95455
21
1.82663
0
LINE
8
BLACK
6
CONTINUOUS
10
1.95455
20
1.82663
11
1.95455
21
1.8585
0
LINE
8
BLACK
6
CONTINUOUS
10
1.95455
20
1.8585
11
1.95472
21
1.85951
0
LINE
8
BLACK
6
CONTINUOUS
10
1.95472
20
1.85951
11
1.95602
21
1.86106
0
LINE
8
BLACK
6
CONTINUOUS
10
1.95602
20
1.86106
11
1.95801
21
1.86141
0
LINE
8
BLACK
6
CONTINUOUS
10
1.95801
20
1.86141
11
1.95976
21
1.8604
0
LINE
8
BLACK
6
CONTINUOUS
10
1.95976
20
1.8604
11
1.96045
21
1.8585
0
LINE
8
BLACK
6
CONTINUOUS
10
1.96045
20
1.8585
11
1.96045
21
1.82732
0
LINE
8
BLACK
6
CONTINUOUS
10
1.96045
20
1.82732
11
1.9618
21
1.82463
0
LINE
8
BLACK
6
CONTINUOUS
10
1.9618
20
1.82463
11
1.963
21
1.82343
0
LINE
8
BLACK
6
CONTINUOUS
10
1.963
20
1.82343
11
1.9657
21
1.82208
0
LINE
8
BLACK
6
CONTINUOUS
10
1.9657
20
1.82208
11
1.9718
21
1.82208
0
LINE
8
BLACK
6
CONTINUOUS
10
1.9718
20
1.82208
11
1.9745
21
1.82343
0
LINE
8
BLACK
6
CONTINUOUS
10
1.9745
20
1.82343
11
1.97569
21
1.82463
0
LINE
8
BLACK
6
CONTINUOUS
10
1.97569
20
1.82463
11
1.97704
21
1.82732
0
LINE
8
BLACK
6
CONTINUOUS
10
1.97704
20
1.82732
11
1.97704
21
1.8585
0
LINE
8
BLACK
6
CONTINUOUS
10
1.97704
20
1.8585
11
1.97722
21
1.85951
0
LINE
8
BLACK
6
CONTINUOUS
10
1.97722
20
1.85951
11
1.97852
21
1.86106
0
LINE
8
BLACK
6
CONTINUOUS
10
1.97852
20
1.86106
11
1.98051
21
1.86141
0
LINE
8
BLACK
6
CONTINUOUS
10
1.98051
20
1.86141
11
1.98226
21
1.8604
0
LINE
8
BLACK
6
CONTINUOUS
10
2.07101
20
1.84111
11
2.07256
21
1.83981
0
LINE
8
BLACK
6
CONTINUOUS
10
2.07256
20
1.83981
11
2.07291
21
1.83782
0
LINE
8
BLACK
6
CONTINUOUS
10
2.07291
20
1.83782
11
2.0719
21
1.83607
0
LINE
8
BLACK
6
CONTINUOUS
10
2.0719
20
1.83607
11
2.07
21
1.83538
0
LINE
8
BLACK
6
CONTINUOUS
10
2.07
20
1.83538
11
2.01
21
1.83538
0
LINE
8
BLACK
6
CONTINUOUS
10
2.01
20
1.83538
11
2.00899
21
1.83556
0
LINE
8
BLACK
6
CONTINUOUS
10
2.00899
20
1.83556
11
2.00744
21
1.83686
0
LINE
8
BLACK
6
CONTINUOUS
10
2.00744
20
1.83686
11
2.00709
21
1.83885
0
LINE
8
BLACK
6
CONTINUOUS
10
2.00709
20
1.83885
11
2.0081
21
1.8406
0
LINE
8
BLACK
6
CONTINUOUS
10
2.0081
20
1.8406
11
2.01
21
1.84129
0
LINE
8
BLACK
6
CONTINUOUS
10
2.01
20
1.84129
11
2.07
21
1.84129
0
LINE
8
BLACK
6
CONTINUOUS
10
2.07
20
1.84129
11
2.07101
21
1.84111
0
LINE
8
BLACK
6
CONTINUOUS
10
1.85551
20
1.87286
11
1.85718
21
1.87217
0
LINE
8
BLACK
6
CONTINUOUS
10
1.85718
20
1.87217
11
1.85787
21
1.8705
0
LINE
8
BLACK
6
CONTINUOUS
10
1.85787
20
1.8705
11
1.85787
21
1.86696
0
LINE
8
BLACK
6
CONTINUOUS
10
1.85787
20
1.86696
11
2.04213
21
1.86696
0
LINE
8
BLACK
6
CONTINUOUS
10
2.04213
20
1.86696
11
2.04213
21
1.8705
0
LINE
8
BLACK
6
CONTINUOUS
10
2.04213
20
1.8705
11
2.04282
21
1.87217
0
LINE
8
BLACK
6
CONTINUOUS
10
2.04282
20
1.87217
11
2.04449
21
1.87286
0
LINE
8
BLACK
6
CONTINUOUS
10
2.04449
20
1.87286
11
2.04616
21
1.87217
0
LINE
8
BLACK
6
CONTINUOUS
10
2.04616
20
1.87217
11
2.04685
21
1.8705
0
LINE
8
BLACK
6
CONTINUOUS
10
2.04685
20
1.8705
11
2.04685
21
1.86459
0
LINE
8
BLACK
6
CONTINUOUS
10
2.04685
20
1.86459
11
2.04616
21
1.86292
0
LINE
8
BLACK
6
CONTINUOUS
10
2.04616
20
1.86292
11
2.04449
21
1.86223
0
LINE
8
BLACK
6
CONTINUOUS
10
2.04449
20
1.86223
11
1.85551
21
1.86223
0
LINE
8
BLACK
6
CONTINUOUS
10
1.85551
20
1.86223
11
1.85384
21
1.86292
0
LINE
8
BLACK
6
CONTINUOUS
10
1.85384
20
1.86292
11
1.85315
21
1.86459
0
LINE
8
BLACK
6
CONTINUOUS
10
1.85315
20
1.86459
11
1.85315
21
1.86459
0
LINE
8
BLACK
6
CONTINUOUS
10
1.85315
20
1.86459
11
1.85315
21
1.86814
0
LINE
8
BLACK
6
CONTINUOUS
10
1.85315
20
1.86814
11
1.78858
21
1.86814
0
LINE
8
BLACK
6
CONTINUOUS
10
1.78858
20
1.86814
11
1.78691
21
1.86883
0
LINE
8
BLACK
6
CONTINUOUS
10
1.78691
20
1.86883
11
1.78622
21
1.8705
0
LINE
8
BLACK
6
CONTINUOUS
10
1.78622
20
1.8705
11
1.78691
21
1.87217
0
LINE
8
BLACK
6
CONTINUOUS
10
1.78691
20
1.87217
11
1.78858
21
1.87286
0
LINE
8
BLACK
6
CONTINUOUS
10
1.78858
20
1.87286
11
1.85551
21
1.87286
0
LINE
8
BLACK
6
CONTINUOUS
10
2.04449
20
2.02444
11
2.04616
21
2.02374
0
LINE
8
BLACK
6
CONTINUOUS
10
2.04616
20
2.02374
11
2.04685
21
2.02207
0
LINE
8
BLACK
6
CONTINUOUS
10
2.04685
20
2.02207
11
2.04685
21
2.01617
0
LINE
8
BLACK
6
CONTINUOUS
10
2.04685
20
2.01617
11
2.04616
21
2.0145
0
LINE
8
BLACK
6
CONTINUOUS
10
2.04616
20
2.0145
11
2.04449
21
2.01381
0
LINE
8
BLACK
6
CONTINUOUS
10
2.04449
20
2.01381
11
2.04282
21
2.0145
0
LINE
8
BLACK
6
CONTINUOUS
10
2.04282
20
2.0145
11
2.04213
21
2.01617
0
LINE
8
BLACK
6
CONTINUOUS
10
2.04213
20
2.01617
11
2.04213
21
2.01971
0
LINE
8
BLACK
6
CONTINUOUS
10
2.04213
20
2.01971
11
1.85787
21
2.01971
0
LINE
8
BLACK
6
CONTINUOUS
10
1.85787
20
2.01971
11
1.85787
21
2.01617
0
LINE
8
BLACK
6
CONTINUOUS
10
1.85787
20
2.01617
11
1.85718
21
2.0145
0
LINE
8
BLACK
6
CONTINUOUS
10
1.85718
20
2.0145
11
1.85551
21
2.01381
0
LINE
8
BLACK
6
CONTINUOUS
10
1.85551
20
2.01381
11
1.85384
21
2.0145
0
LINE
8
BLACK
6
CONTINUOUS
10
1.85384
20
2.0145
11
1.85315
21
2.01617
0
LINE
8
BLACK
6
CONTINUOUS
10
1.85315
20
2.01617
11
1.85315
21
2.02207
0
LINE
8
BLACK
6
CONTINUOUS
10
1.85315
20
2.02207
11
1.85384
21
2.02374
0
LINE
8
BLACK
6
CONTINUOUS
10
1.85384
20
2.02374
11
1.85551
21
2.02444
0
LINE
8
BLACK
6
CONTINUOUS
10
1.85551
20
2.02444
11
2.04449
21
2.02444
0
LINE
8
BLACK
6
CONTINUOUS
10
2.07101
20
2.14152
11
2.07256
21
2.14023
0
LINE
8
BLACK
6
CONTINUOUS
10
2.07256
20
2.14023
11
2.07291
21
2.13824
0
LINE
8
BLACK
6
CONTINUOUS
10
2.07291
20
2.13824
11
2.0719
21
2.13649
0
LINE
8
BLACK
6
CONTINUOUS
10
2.0719
20
2.13649
11
2.07
21
2.1358
0
LINE
8
BLACK
6
CONTINUOUS
10
2.07
20
2.1358
11
2.01
21
2.1358
0
LINE
8
BLACK
6
CONTINUOUS
10
2.01
20
2.1358
11
2.00899
21
2.13598
0
LINE
8
BLACK
6
CONTINUOUS
10
2.00899
20
2.13598
11
2.00744
21
2.13727
0
LINE
8
BLACK
6
CONTINUOUS
10
2.00744
20
2.13727
11
2.00709
21
2.13926
0
LINE
8
BLACK
6
CONTINUOUS
10
2.00709
20
2.13926
11
2.0081
21
2.14101
0
LINE
8
BLACK
6
CONTINUOUS
10
2.0081
20
2.14101
11
2.01
21
2.1417
0
LINE
8
BLACK
6
CONTINUOUS
10
2.01
20
2.1417
11
2.07
21
2.1417
0
LINE
8
BLACK
6
CONTINUOUS
10
2.07
20
2.1417
11
2.07101
21
2.14152
0
LINE
8
BLACK
6
CONTINUOUS
10
2.01167
20
2.21542
11
2.01236
21
2.21375
0
LINE
8
BLACK
6
CONTINUOUS
10
2.01236
20
2.21375
11
2.01236
21
2.18375
0
LINE
8
BLACK
6
CONTINUOUS
10
2.01236
20
2.18375
11
2.01167
21
2.18208
0
LINE
8
BLACK
6
CONTINUOUS
10
2.01167
20
2.18208
11
2.01
21
2.18139
0
LINE
8
BLACK
6
CONTINUOUS
10
2.01
20
2.18139
11
2.00833
21
2.18208
0
LINE
8
BLACK
6
CONTINUOUS
10
2.00833
20
2.18208
11
2.00764
21
2.18375
0
LINE
8
BLACK
6
CONTINUOUS
10
2.00764
20
2.18375
11
2.00764
21
2.21375
0
LINE
8
BLACK
6
CONTINUOUS
10
2.00764
20
2.21375
11
2.00833
21
2.21542
0
LINE
8
BLACK
6
CONTINUOUS
10
2.00833
20
2.21542
11
2.01
21
2.21611
0
LINE
8
BLACK
6
CONTINUOUS
10
2.01
20
2.21611
11
2.01167
21
2.21542
0
LINE
8
BLACK
6
CONTINUOUS
10
2.07167
20
2.21542
11
2.07236
21
2.21375
0
LINE
8
BLACK
6
CONTINUOUS
10
2.07236
20
2.21375
11
2.07236
21
2.18375
0
LINE
8
BLACK
6
CONTINUOUS
10
2.07236
20
2.18375
11
2.07167
21
2.18208
0
LINE
8
BLACK
6
CONTINUOUS
10
2.07167
20
2.18208
11
2.07
21
2.18139
0
LINE
8
BLACK
6
CONTINUOUS
10
2.07
20
2.18139
11
2.06833
21
2.18208
0
LINE
8
BLACK
6
CONTINUOUS
10
2.06833
20
2.18208
11
2.06764
21
2.18375
0
LINE
8
BLACK
6
CONTINUOUS
10
2.06764
20
2.18375
11
2.06764
21
2.21375
0
LINE
8
BLACK
6
CONTINUOUS
10
2.06764
20
2.21375
11
2.06833
21
2.21542
0
LINE
8
BLACK
6
CONTINUOUS
10
2.06833
20
2.21542
11
2.07
21
2.21611
0
LINE
8
BLACK
6
CONTINUOUS
10
2.07
20
2.21611
11
2.07167
21
2.21542
0
LINE
8
BLACK
6
CONTINUOUS
10
2.07101
20
2.26152
11
2.07256
21
2.26023
0
LINE
8
BLACK
6
CONTINUOUS
10
2.07256
20
2.26023
11
2.07291
21
2.25824
0
LINE
8
BLACK
6
CONTINUOUS
10
2.07291
20
2.25824
11
2.0719
21
2.25649
0
LINE
8
BLACK
6
CONTINUOUS
10
2.0719
20
2.25649
11
2.07
21
2.2558
0
LINE
8
BLACK
6
CONTINUOUS
10
2.07
20
2.2558
11
2.01
21
2.2558
0
LINE
8
BLACK
6
CONTINUOUS
10
2.01
20
2.2558
11
2.00899
21
2.25598
0
LINE
8
BLACK
6
CONTINUOUS
10
2.00899
20
2.25598
11
2.00744
21
2.25727
0
LINE
8
BLACK
6
CONTINUOUS
10
2.00744
20
2.25727
11
2.00709
21
2.25926
0
LINE
8
BLACK
6
CONTINUOUS
10
2.00709
20
2.25926
11
2.0081
21
2.26101
0
LINE
8
BLACK
6
CONTINUOUS
10
2.0081
20
2.26101
11
2.01
21
2.2617
0
LINE
8
BLACK
6
CONTINUOUS
10
2.01
20
2.2617
11
2.07
21
2.2617
0
LINE
8
BLACK
6
CONTINUOUS
10
2.07
20
2.2617
11
2.07101
21
2.26152
0
LINE
8
BLACK
6
CONTINUOUS
10
1.85551
20
2.29453
11
1.85718
21
2.29384
0
LINE
8
BLACK
6
CONTINUOUS
10
1.85718
20
2.29384
11
1.85787
21
2.29217
0
LINE
8
BLACK
6
CONTINUOUS
10
1.85787
20
2.29217
11
1.85787
21
2.28862
0
LINE
8
BLACK
6
CONTINUOUS
10
1.85787
20
2.28862
11
2.04213
21
2.28862
0
LINE
8
BLACK
6
CONTINUOUS
10
2.04213
20
2.28862
11
2.04213
21
2.29217
0
LINE
8
BLACK
6
CONTINUOUS
10
2.04213
20
2.29217
11
2.04282
21
2.29384
0
LINE
8
BLACK
6
CONTINUOUS
10
2.04282
20
2.29384
11
2.04449
21
2.29453
0
LINE
8
BLACK
6
CONTINUOUS
10
2.04449
20
2.29453
11
2.04616
21
2.29384
0
LINE
8
BLACK
6
CONTINUOUS
10
2.04616
20
2.29384
11
2.04685
21
2.29217
0
LINE
8
BLACK
6
CONTINUOUS
10
2.04685
20
2.29217
11
2.04685
21
2.28626
0
LINE
8
BLACK
6
CONTINUOUS
10
2.04685
20
2.28626
11
2.04616
21
2.28459
0
LINE
8
BLACK
6
CONTINUOUS
10
2.04616
20
2.28459
11
2.04449
21
2.2839
0
LINE
8
BLACK
6
CONTINUOUS
10
2.04449
20
2.2839
11
1.85551
21
2.2839
0
LINE
8
BLACK
6
CONTINUOUS
10
1.85551
20
2.2839
11
1.85384
21
2.28459
0
LINE
8
BLACK
6
CONTINUOUS
10
1.85384
20
2.28459
11
1.85315
21
2.28626
0
LINE
8
BLACK
6
CONTINUOUS
10
1.85315
20
2.28626
11
1.85315
21
2.28626
0
LINE
8
BLACK
6
CONTINUOUS
10
1.85315
20
2.28626
11
1.85315
21
2.2898
0
LINE
8
BLACK
6
CONTINUOUS
10
1.85315
20
2.2898
11
1.78858
21
2.2898
0
LINE
8
BLACK
6
CONTINUOUS
10
1.78858
20
2.2898
11
1.78691
21
2.2905
0
LINE
8
BLACK
6
CONTINUOUS
10
1.78691
20
2.2905
11
1.78622
21
2.29217
0
LINE
8
BLACK
6
CONTINUOUS
10
1.78622
20
2.29217
11
1.78691
21
2.29384
0
LINE
8
BLACK
6
CONTINUOUS
10
1.78691
20
2.29384
11
1.78858
21
2.29453
0
LINE
8
BLACK
6
CONTINUOUS
10
1.78858
20
2.29453
11
1.85551
21
2.29453
0
LINE
8
BLACK
6
CONTINUOUS
10
2.20226
20
2.37836
11
2.20295
21
2.37646
0
LINE
8
BLACK
6
CONTINUOUS
10
2.20295
20
2.37646
11
2.20295
21
2.34459
0
LINE
8
BLACK
6
CONTINUOUS
10
2.20295
20
2.34459
11
2.20277
21
2.34358
0
LINE
8
BLACK
6
CONTINUOUS
10
2.20277
20
2.34358
11
2.20266
21
2.34345
0
LINE
8
BLACK
6
CONTINUOUS
10
2.20266
20
2.34345
11
2.20264
21
2.34327
0
LINE
8
BLACK
6
CONTINUOUS
10
2.20264
20
2.34327
11
2.20076
21
2.33952
0
LINE
8
BLACK
6
CONTINUOUS
10
2.20076
20
2.33952
11
2.20024
21
2.33881
0
LINE
8
BLACK
6
CONTINUOUS
10
2.20024
20
2.33881
11
2.20021
21
2.33876
0
LINE
8
BLACK
6
CONTINUOUS
10
2.20021
20
2.33876
11
2.19833
21
2.33688
0
LINE
8
BLACK
6
CONTINUOUS
10
2.19833
20
2.33688
11
2.19761
21
2.33637
0
LINE
8
BLACK
6
CONTINUOUS
10
2.19761
20
2.33637
11
2.19757
21
2.33633
0
LINE
8
BLACK
6
CONTINUOUS
10
2.19757
20
2.33633
11
2.19382
21
2.33445
0
LINE
8
BLACK
6
CONTINUOUS
10
2.19382
20
2.33445
11
2.19283
21
2.33416
0
LINE
8
BLACK
6
CONTINUOUS
10
2.19283
20
2.33416
11
2.19266
21
2.3342
0
LINE
8
BLACK
6
CONTINUOUS
10
2.19266
20
2.3342
11
2.1925
21
2.33414
0
LINE
8
BLACK
6
CONTINUOUS
10
2.1925
20
2.33414
11
2.185
21
2.33414
0
LINE
8
BLACK
6
CONTINUOUS
10
2.185
20
2.33414
11
2.18399
21
2.33432
0
LINE
8
BLACK
6
CONTINUOUS
10
2.18399
20
2.33432
11
2.18385
21
2.33443
0
LINE
8
BLACK
6
CONTINUOUS
10
2.18385
20
2.33443
11
2.18368
21
2.33445
0
LINE
8
BLACK
6
CONTINUOUS
10
2.18368
20
2.33445
11
2.17993
21
2.33633
0
LINE
8
BLACK
6
CONTINUOUS
10
2.17993
20
2.33633
11
2.17922
21
2.33685
0
LINE
8
BLACK
6
CONTINUOUS
10
2.17922
20
2.33685
11
2.17916
21
2.33688
0
LINE
8
BLACK
6
CONTINUOUS
10
2.17916
20
2.33688
11
2.17729
21
2.33876
0
LINE
8
BLACK
6
CONTINUOUS
10
2.17729
20
2.33876
11
2.17678
21
2.33948
0
LINE
8
BLACK
6
CONTINUOUS
10
2.17678
20
2.33948
11
2.17673
21
2.33952
0
LINE
8
BLACK
6
CONTINUOUS
10
2.17673
20
2.33952
11
2.17486
21
2.34327
0
LINE
8
BLACK
6
CONTINUOUS
10
2.17486
20
2.34327
11
2.17457
21
2.34426
0
LINE
8
BLACK
6
CONTINUOUS
10
2.17457
20
2.34426
11
2.17461
21
2.34443
0
LINE
8
BLACK
6
CONTINUOUS
10
2.17461
20
2.34443
11
2.17455
21
2.34459
0
LINE
8
BLACK
6
CONTINUOUS
10
2.17455
20
2.34459
11
2.17455
21
2.37646
0
LINE
8
BLACK
6
CONTINUOUS
10
2.17455
20
2.37646
11
2.17472
21
2.37747
0
LINE
8
BLACK
6
CONTINUOUS
10
2.17472
20
2.37747
11
2.17602
21
2.37902
0
LINE
8
BLACK
6
CONTINUOUS
10
2.17602
20
2.37902
11
2.17801
21
2.37937
0
LINE
8
BLACK
6
CONTINUOUS
10
2.17801
20
2.37937
11
2.17976
21
2.37836
0
LINE
8
BLACK
6
CONTINUOUS
10
2.17976
20
2.37836
11
2.18045
21
2.37646
0
LINE
8
BLACK
6
CONTINUOUS
10
2.18045
20
2.37646
11
2.18045
21
2.34529
0
LINE
8
BLACK
6
CONTINUOUS
10
2.18045
20
2.34529
11
2.1818
21
2.34259
0
LINE
8
BLACK
6
CONTINUOUS
10
2.1818
20
2.34259
11
2.183
21
2.3414
0
LINE
8
BLACK
6
CONTINUOUS
10
2.183
20
2.3414
11
2.1857
21
2.34005
0
LINE
8
BLACK
6
CONTINUOUS
10
2.1857
20
2.34005
11
2.1918
21
2.34005
0
LINE
8
BLACK
6
CONTINUOUS
10
2.1918
20
2.34005
11
2.1945
21
2.3414
0
LINE
8
BLACK
6
CONTINUOUS
10
2.1945
20
2.3414
11
2.19569
21
2.34259
0
LINE
8
BLACK
6
CONTINUOUS
10
2.19569
20
2.34259
11
2.19704
21
2.34529
0
LINE
8
BLACK
6
CONTINUOUS
10
2.19704
20
2.34529
11
2.19704
21
2.37646
0
LINE
8
BLACK
6
CONTINUOUS
10
2.19704
20
2.37646
11
2.19722
21
2.37747
0
LINE
8
BLACK
6
CONTINUOUS
10
2.19722
20
2.37747
11
2.19852
21
2.37902
0
LINE
8
BLACK
6
CONTINUOUS
10
2.19852
20
2.37902
11
2.20051
21
2.37937
0
LINE
8
BLACK
6
CONTINUOUS
10
2.20051
20
2.37937
11
2.20226
21
2.37836
0
LINE
8
BLACK
6
CONTINUOUS
10
2.1528
20
2.38085
11
2.15405
21
2.37927
0
LINE
8
BLACK
6
CONTINUOUS
10
2.15405
20
2.37927
11
2.16343
21
2.35115
0
LINE
8
BLACK
6
CONTINUOUS
10
2.16343
20
2.35115
11
2.16358
21
2.35014
0
LINE
8
BLACK
6
CONTINUOUS
10
2.16358
20
2.35014
11
2.16349
21
2.34993
0
LINE
8
BLACK
6
CONTINUOUS
10
2.16349
20
2.34993
11
2.16353
21
2.3497
0
LINE
8
BLACK
6
CONTINUOUS
10
2.16353
20
2.3497
11
2.16313
21
2.34901
0
LINE
8
BLACK
6
CONTINUOUS
10
2.16313
20
2.34901
11
2.16284
21
2.34826
0
LINE
8
BLACK
6
CONTINUOUS
10
2.16284
20
2.34826
11
2.16264
21
2.34815
0
LINE
8
BLACK
6
CONTINUOUS
10
2.16264
20
2.34815
11
2.16252
21
2.34796
0
LINE
8
BLACK
6
CONTINUOUS
10
2.16252
20
2.34796
11
2.16177
21
2.34768
0
LINE
8
BLACK
6
CONTINUOUS
10
2.16177
20
2.34768
11
2.16106
21
2.3473
0
LINE
8
BLACK
6
CONTINUOUS
10
2.16106
20
2.3473
11
2.16084
21
2.34734
0
LINE
8
BLACK
6
CONTINUOUS
10
2.16084
20
2.34734
11
2.16063
21
2.34726
0
LINE
8
BLACK
6
CONTINUOUS
10
2.16063
20
2.34726
11
2.14483
21
2.34726
0
LINE
8
BLACK
6
CONTINUOUS
10
2.14483
20
2.34726
11
2.14483
21
2.33709
0
LINE
8
BLACK
6
CONTINUOUS
10
2.14483
20
2.33709
11
2.14465
21
2.33608
0
LINE
8
BLACK
6
CONTINUOUS
10
2.14465
20
2.33608
11
2.14335
21
2.33454
0
LINE
8
BLACK
6
CONTINUOUS
10
2.14335
20
2.33454
11
2.14137
21
2.33419
0
LINE
8
BLACK
6
CONTINUOUS
10
2.14137
20
2.33419
11
2.13962
21
2.3352
0
LINE
8
BLACK
6
CONTINUOUS
10
2.13962
20
2.3352
11
2.13893
21
2.33709
0
LINE
8
BLACK
6
CONTINUOUS
10
2.13893
20
2.33709
11
2.13893
21
2.34726
0
LINE
8
BLACK
6
CONTINUOUS
10
2.13893
20
2.34726
11
2.13625
21
2.34726
0
LINE
8
BLACK
6
CONTINUOUS
10
2.13625
20
2.34726
11
2.13524
21
2.34744
0
LINE
8
BLACK
6
CONTINUOUS
10
2.13524
20
2.34744
11
2.1337
21
2.34874
0
LINE
8
BLACK
6
CONTINUOUS
10
2.1337
20
2.34874
11
2.13335
21
2.35073
0
LINE
8
BLACK
6
CONTINUOUS
10
2.13335
20
2.35073
11
2.13436
21
2.35248
0
LINE
8
BLACK
6
CONTINUOUS
10
2.13436
20
2.35248
11
2.13625
21
2.35317
0
LINE
8
BLACK
6
CONTINUOUS
10
2.13625
20
2.35317
11
2.13893
21
2.35317
0
LINE
8
BLACK
6
CONTINUOUS
10
2.13893
20
2.35317
11
2.13893
21
2.36334
0
LINE
8
BLACK
6
CONTINUOUS
10
2.13893
20
2.36334
11
2.1391
21
2.36435
0
LINE
8
BLACK
6
CONTINUOUS
10
2.1391
20
2.36435
11
2.1404
21
2.3659
0
LINE
8
BLACK
6
CONTINUOUS
10
2.1404
20
2.3659
11
2.14239
21
2.36625
0
LINE
8
BLACK
6
CONTINUOUS
10
2.14239
20
2.36625
11
2.14414
21
2.36524
0
LINE
8
BLACK
6
CONTINUOUS
10
2.14414
20
2.36524
11
2.14483
21
2.36334
0
LINE
8
BLACK
6
CONTINUOUS
10
2.14483
20
2.36334
11
2.14483
21
2.35317
0
LINE
8
BLACK
6
CONTINUOUS
10
2.14483
20
2.35317
11
2.15653
21
2.35317
0
LINE
8
BLACK
6
CONTINUOUS
10
2.15653
20
2.35317
11
2.14845
21
2.3774
0
LINE
8
BLACK
6
CONTINUOUS
10
2.14845
20
2.3774
11
2.1483
21
2.37842
0
LINE
8
BLACK
6
CONTINUOUS
10
2.1483
20
2.37842
11
2.14904
21
2.3803
0
LINE
8
BLACK
6
CONTINUOUS
10
2.14904
20
2.3803
11
2.15082
21
2.38126
0
LINE
8
BLACK
6
CONTINUOUS
10
2.15082
20
2.38126
11
2.1528
21
2.38085
0
LINE
8
BLACK
6
CONTINUOUS
10
2.04449
20
2.4461
11
2.04616
21
2.44541
0
LINE
8
BLACK
6
CONTINUOUS
10
2.04616
20
2.44541
11
2.04685
21
2.44374
0
LINE
8
BLACK
6
CONTINUOUS
10
2.04685
20
2.44374
11
2.04685
21
2.43783
0
LINE
8
BLACK
6
CONTINUOUS
10
2.04685
20
2.43783
11
2.04616
21
2.43616
0
LINE
8
BLACK
6
CONTINUOUS
10
2.04616
20
2.43616
11
2.04449
21
2.43547
0
LINE
8
BLACK
6
CONTINUOUS
10
2.04449
20
2.43547
11
2.04282
21
2.43616
0
LINE
8
BLACK
6
CONTINUOUS
10
2.04282
20
2.43616
11
2.04213
21
2.43783
0
LINE
8
BLACK
6
CONTINUOUS
10
2.04213
20
2.43783
11
2.04213
21
2.44138
0
LINE
8
BLACK
6
CONTINUOUS
10
2.04213
20
2.44138
11
1.85787
21
2.44138
0
LINE
8
BLACK
6
CONTINUOUS
10
1.85787
20
2.44138
11
1.85787
21
2.43783
0
LINE
8
BLACK
6
CONTINUOUS
10
1.85787
20
2.43783
11
1.85718
21
2.43616
0
LINE
8
BLACK
6
CONTINUOUS
10
1.85718
20
2.43616
11
1.85551
21
2.43547
0
LINE
8
BLACK
6
CONTINUOUS
10
1.85551
20
2.43547
11
1.85384
21
2.43616
0
LINE
8
BLACK
6
CONTINUOUS
10
1.85384
20
2.43616
11
1.85315
21
2.43783
0
LINE
8
BLACK
6
CONTINUOUS
10
1.85315
20
2.43783
11
1.85315
21
2.44374
0
LINE
8
BLACK
6
CONTINUOUS
10
1.85315
20
2.44374
11
1.85384
21
2.44541
0
LINE
8
BLACK
6
CONTINUOUS
10
1.85384
20
2.44541
11
1.85551
21
2.4461
0
LINE
8
BLACK
6
CONTINUOUS
10
1.85551
20
2.4461
11
2.04449
21
2.4461
0
LINE
8
BLACK
6
CONTINUOUS
10
2.60101
20
2.46277
11
2.60256
21
2.46148
0
LINE
8
BLACK
6
CONTINUOUS
10
2.60256
20
2.46148
11
2.60291
21
2.45949
0
LINE
8
BLACK
6
CONTINUOUS
10
2.60291
20
2.45949
11
2.6019
21
2.45774
0
LINE
8
BLACK
6
CONTINUOUS
10
2.6019
20
2.45774
11
2.6
21
2.45705
0
LINE
8
BLACK
6
CONTINUOUS
10
2.6
20
2.45705
11
2.54
21
2.45705
0
LINE
8
BLACK
6
CONTINUOUS
10
2.54
20
2.45705
11
2.53899
21
2.45723
0
LINE
8
BLACK
6
CONTINUOUS
10
2.53899
20
2.45723
11
2.53744
21
2.45852
0
LINE
8
BLACK
6
CONTINUOUS
10
2.53744
20
2.45852
11
2.53709
21
2.46051
0
LINE
8
BLACK
6
CONTINUOUS
10
2.53709
20
2.46051
11
2.5381
21
2.46226
0
LINE
8
BLACK
6
CONTINUOUS
10
2.5381
20
2.46226
11
2.54
21
2.46295
0
LINE
8
BLACK
6
CONTINUOUS
10
2.54
20
2.46295
11
2.6
21
2.46295
0
LINE
8
BLACK
6
CONTINUOUS
10
2.6
20
2.46295
11
2.60101
21
2.46277
0
LINE
8
BLACK
6
CONTINUOUS
10
2.54167
20
2.53667
11
2.54236
21
2.535
0
LINE
8
BLACK
6
CONTINUOUS
10
2.54236
20
2.535
11
2.54236
21
2.505
0
LINE
8
BLACK
6
CONTINUOUS
10
2.54236
20
2.505
11
2.54167
21
2.50333
0
LINE
8
BLACK
6
CONTINUOUS
10
2.54167
20
2.50333
11
2.54
21
2.50264
0
LINE
8
BLACK
6
CONTINUOUS
10
2.54
20
2.50264
11
2.53833
21
2.50333
0
LINE
8
BLACK
6
CONTINUOUS
10
2.53833
20
2.50333
11
2.53764
21
2.505
0
LINE
8
BLACK
6
CONTINUOUS
10
2.53764
20
2.505
11
2.53764
21
2.535
0
LINE
8
BLACK
6
CONTINUOUS
10
2.53764
20
2.535
11
2.53833
21
2.53667
0
LINE
8
BLACK
6
CONTINUOUS
10
2.53833
20
2.53667
11
2.54
21
2.53736
0
LINE
8
BLACK
6
CONTINUOUS
10
2.54
20
2.53736
11
2.54167
21
2.53667
0
LINE
8
BLACK
6
CONTINUOUS
10
2.60167
20
2.53667
11
2.60236
21
2.535
0
LINE
8
BLACK
6
CONTINUOUS
10
2.60236
20
2.535
11
2.60236
21
2.505
0
LINE
8
BLACK
6
CONTINUOUS
10
2.60236
20
2.505
11
2.60167
21
2.50333
0
LINE
8
BLACK
6
CONTINUOUS
10
2.60167
20
2.50333
11
2.6
21
2.50264
0
LINE
8
BLACK
6
CONTINUOUS
10
2.6
20
2.50264
11
2.59833
21
2.50333
0
LINE
8
BLACK
6
CONTINUOUS
10
2.59833
20
2.50333
11
2.59764
21
2.505
0
LINE
8
BLACK
6
CONTINUOUS
10
2.59764
20
2.505
11
2.59764
21
2.535
0
LINE
8
BLACK
6
CONTINUOUS
10
2.59764
20
2.535
11
2.59833
21
2.53667
0
LINE
8
BLACK
6
CONTINUOUS
10
2.59833
20
2.53667
11
2.6
21
2.53736
0
LINE
8
BLACK
6
CONTINUOUS
10
2.6
20
2.53736
11
2.60167
21
2.53667
0
LINE
8
BLACK
6
CONTINUOUS
10
2.63273
20
2.53455
11
2.63343
21
2.53288
0
LINE
8
BLACK
6
CONTINUOUS
10
2.63343
20
2.53288
11
2.63343
21
2.51231
0
LINE
8
BLACK
6
CONTINUOUS
10
2.63343
20
2.51231
11
2.63273
21
2.51064
0
LINE
8
BLACK
6
CONTINUOUS
10
2.63273
20
2.51064
11
2.63106
21
2.50995
0
LINE
8
BLACK
6
CONTINUOUS
10
2.63106
20
2.50995
11
2.62939
21
2.51064
0
LINE
8
BLACK
6
CONTINUOUS
10
2.62939
20
2.51064
11
2.6287
21
2.51231
0
LINE
8
BLACK
6
CONTINUOUS
10
2.6287
20
2.51231
11
2.6287
21
2.53288
0
LINE
8
BLACK
6
CONTINUOUS
10
2.6287
20
2.53288
11
2.62939
21
2.53455
0
LINE
8
BLACK
6
CONTINUOUS
10
2.62939
20
2.53455
11
2.63106
21
2.53525
0
LINE
8
BLACK
6
CONTINUOUS
10
2.63106
20
2.53525
11
2.63273
21
2.53455
0
LINE
8
BLACK
6
CONTINUOUS
10
2.69061
20
2.53455
11
2.6913
21
2.53288
0
LINE
8
BLACK
6
CONTINUOUS
10
2.6913
20
2.53288
11
2.6913
21
2.51231
0
LINE
8
BLACK
6
CONTINUOUS
10
2.6913
20
2.51231
11
2.69061
21
2.51064
0
LINE
8
BLACK
6
CONTINUOUS
10
2.69061
20
2.51064
11
2.68894
21
2.50995
0
LINE
8
BLACK
6
CONTINUOUS
10
2.68894
20
2.50995
11
2.68727
21
2.51064
0
LINE
8
BLACK
6
CONTINUOUS
10
2.68727
20
2.51064
11
2.68657
21
2.51231
0
LINE
8
BLACK
6
CONTINUOUS
10
2.68657
20
2.51231
11
2.68657
21
2.53288
0
LINE
8
BLACK
6
CONTINUOUS
10
2.68657
20
2.53288
11
2.68727
21
2.53455
0
LINE
8
BLACK
6
CONTINUOUS
10
2.68727
20
2.53455
11
2.68894
21
2.53525
0
LINE
8
BLACK
6
CONTINUOUS
10
2.68894
20
2.53525
11
2.69061
21
2.53455
0
LINE
8
BLACK
6
CONTINUOUS
10
2.07101
20
2.56194
11
2.07256
21
2.56064
0
LINE
8
BLACK
6
CONTINUOUS
10
2.07256
20
2.56064
11
2.07291
21
2.55865
0
LINE
8
BLACK
6
CONTINUOUS
10
2.07291
20
2.55865
11
2.0719
21
2.5569
0
LINE
8
BLACK
6
CONTINUOUS
10
2.0719
20
2.5569
11
2.07
21
2.55621
0
LINE
8
BLACK
6
CONTINUOUS
10
2.07
20
2.55621
11
2.01
21
2.55621
0
LINE
8
BLACK
6
CONTINUOUS
10
2.01
20
2.55621
11
2.00899
21
2.55639
0
LINE
8
BLACK
6
CONTINUOUS
10
2.00899
20
2.55639
11
2.00744
21
2.55769
0
LINE
8
BLACK
6
CONTINUOUS
10
2.00744
20
2.55769
11
2.00709
21
2.55968
0
LINE
8
BLACK
6
CONTINUOUS
10
2.00709
20
2.55968
11
2.0081
21
2.56143
0
LINE
8
BLACK
6
CONTINUOUS
10
2.0081
20
2.56143
11
2.01
21
2.56212
0
LINE
8
BLACK
6
CONTINUOUS
10
2.01
20
2.56212
11
2.07
21
2.56212
0
LINE
8
BLACK
6
CONTINUOUS
10
2.07
20
2.56212
11
2.07101
21
2.56194
0
LINE
8
BLACK
6
CONTINUOUS
10
2.90663
20
2.79041
11
2.90732
21
2.78874
0
LINE
8
BLACK
6
CONTINUOUS
10
2.90732
20
2.78874
11
2.90732
21
2.57614
0
LINE
8
BLACK
6
CONTINUOUS
10
2.90732
20
2.57614
11
2.90663
21
2.57447
0
LINE
8
BLACK
6
CONTINUOUS
10
2.90663
20
2.57447
11
2.90496
21
2.57378
0
LINE
8
BLACK
6
CONTINUOUS
10
2.90496
20
2.57378
11
2.77504
21
2.57378
0
LINE
8
BLACK
6
CONTINUOUS
10
2.77504
20
2.57378
11
2.77337
21
2.57447
0
LINE
8
BLACK
6
CONTINUOUS
10
2.77337
20
2.57447
11
2.77268
21
2.57614
0
LINE
8
BLACK
6
CONTINUOUS
10
2.77268
20
2.57614
11
2.77268
21
2.78874
0
LINE
8
BLACK
6
CONTINUOUS
10
2.77268
20
2.78874
11
2.77337
21
2.79041
0
LINE
8
BLACK
6
CONTINUOUS
10
2.77337
20
2.79041
11
2.77504
21
2.7911
0
LINE
8
BLACK
6
CONTINUOUS
10
2.77504
20
2.7911
11
2.77671
21
2.79041
0
LINE
8
BLACK
6
CONTINUOUS
10
2.77671
20
2.79041
11
2.7774
21
2.78874
0
LINE
8
BLACK
6
CONTINUOUS
10
2.7774
20
2.78874
11
2.7774
21
2.5785
0
LINE
8
BLACK
6
CONTINUOUS
10
2.7774
20
2.5785
11
2.9026
21
2.5785
0
LINE
8
BLACK
6
CONTINUOUS
10
2.9026
20
2.5785
11
2.9026
21
2.78874
0
LINE
8
BLACK
6
CONTINUOUS
10
2.9026
20
2.78874
11
2.90329
21
2.79041
0
LINE
8
BLACK
6
CONTINUOUS
10
2.90329
20
2.79041
11
2.90496
21
2.7911
0
LINE
8
BLACK
6
CONTINUOUS
10
2.90496
20
2.7911
11
2.90663
21
2.79041
0
LINE
8
BLACK
6
CONTINUOUS
10
2.60101
20
2.58277
11
2.60256
21
2.58148
0
LINE
8
BLACK
6
CONTINUOUS
10
2.60256
20
2.58148
11
2.60291
21
2.57949
0
LINE
8
BLACK
6
CONTINUOUS
10
2.60291
20
2.57949
11
2.6019
21
2.57774
0
LINE
8
BLACK
6
CONTINUOUS
10
2.6019
20
2.57774
11
2.6
21
2.57705
0
LINE
8
BLACK
6
CONTINUOUS
10
2.6
20
2.57705
11
2.54
21
2.57705
0
LINE
8
BLACK
6
CONTINUOUS
10
2.54
20
2.57705
11
2.53899
21
2.57723
0
LINE
8
BLACK
6
CONTINUOUS
10
2.53899
20
2.57723
11
2.53744
21
2.57852
0
LINE
8
BLACK
6
CONTINUOUS
10
2.53744
20
2.57852
11
2.53709
21
2.58051
0
LINE
8
BLACK
6
CONTINUOUS
10
2.53709
20
2.58051
11
2.5381
21
2.58226
0
LINE
8
BLACK
6
CONTINUOUS
10
2.5381
20
2.58226
11
2.54
21
2.58295
0
LINE
8
BLACK
6
CONTINUOUS
10
2.54
20
2.58295
11
2.6
21
2.58295
0
LINE
8
BLACK
6
CONTINUOUS
10
2.6
20
2.58295
11
2.60101
21
2.58277
0
LINE
8
BLACK
6
CONTINUOUS
10
2.01167
20
2.63584
11
2.01236
21
2.63417
0
LINE
8
BLACK
6
CONTINUOUS
10
2.01236
20
2.63417
11
2.01236
21
2.60417
0
LINE
8
BLACK
6
CONTINUOUS
10
2.01236
20
2.60417
11
2.01167
21
2.6025
0
LINE
8
BLACK
6
CONTINUOUS
10
2.01167
20
2.6025
11
2.01
21
2.6018
0
LINE
8
BLACK
6
CONTINUOUS
10
2.01
20
2.6018
11
2.00833
21
2.6025
0
LINE
8
BLACK
6
CONTINUOUS
10
2.00833
20
2.6025
11
2.00764
21
2.60417
0
LINE
8
BLACK
6
CONTINUOUS
10
2.00764
20
2.60417
11
2.00764
21
2.63417
0
LINE
8
BLACK
6
CONTINUOUS
10
2.00764
20
2.63417
11
2.00833
21
2.63584
0
LINE
8
BLACK
6
CONTINUOUS
10
2.00833
20
2.63584
11
2.01
21
2.63653
0
LINE
8
BLACK
6
CONTINUOUS
10
2.01
20
2.63653
11
2.01167
21
2.63584
0
LINE
8
BLACK
6
CONTINUOUS
10
2.07167
20
2.63584
11
2.07236
21
2.63417
0
LINE
8
BLACK
6
CONTINUOUS
10
2.07236
20
2.63417
11
2.07236
21
2.60417
0
LINE
8
BLACK
6
CONTINUOUS
10
2.07236
20
2.60417
11
2.07167
21
2.6025
0
LINE
8
BLACK
6
CONTINUOUS
10
2.07167
20
2.6025
11
2.07
21
2.6018
0
LINE
8
BLACK
6
CONTINUOUS
10
2.07
20
2.6018
11
2.06833
21
2.6025
0
LINE
8
BLACK
6
CONTINUOUS
10
2.06833
20
2.6025
11
2.06764
21
2.60417
0
LINE
8
BLACK
6
CONTINUOUS
10
2.06764
20
2.60417
11
2.06764
21
2.63417
0
LINE
8
BLACK
6
CONTINUOUS
10
2.06764
20
2.63417
11
2.06833
21
2.63584
0
LINE
8
BLACK
6
CONTINUOUS
10
2.06833
20
2.63584
11
2.07
21
2.63653
0
LINE
8
BLACK
6
CONTINUOUS
10
2.07
20
2.63653
11
2.07167
21
2.63584
0
LINE
8
BLACK
6
CONTINUOUS
10
2.67676
20
2.64084
11
2.6769
21
2.64085
0
LINE
8
BLACK
6
CONTINUOUS
10
2.6769
20
2.64085
11
2.67763
21
2.64034
0
LINE
8
BLACK
6
CONTINUOUS
10
2.67763
20
2.64034
11
2.6784
21
2.6399
0
LINE
8
BLACK
6
CONTINUOUS
10
2.6784
20
2.6399
11
2.67844
21
2.63977
0
LINE
8
BLACK
6
CONTINUOUS
10
2.67844
20
2.63977
11
2.67855
21
2.63969
0
LINE
8
BLACK
6
CONTINUOUS
10
2.67855
20
2.63969
11
2.67878
21
2.63884
0
LINE
8
BLACK
6
CONTINUOUS
10
2.67878
20
2.63884
11
2.67909
21
2.638
0
LINE
8
BLACK
6
CONTINUOUS
10
2.67909
20
2.638
11
2.67909
21
2.61363
0
LINE
8
BLACK
6
CONTINUOUS
10
2.67909
20
2.61363
11
2.67891
21
2.61262
0
LINE
8
BLACK
6
CONTINUOUS
10
2.67891
20
2.61262
11
2.67761
21
2.61107
0
LINE
8
BLACK
6
CONTINUOUS
10
2.67761
20
2.61107
11
2.67562
21
2.61072
0
LINE
8
BLACK
6
CONTINUOUS
10
2.67562
20
2.61072
11
2.67387
21
2.61173
0
LINE
8
BLACK
6
CONTINUOUS
10
2.67387
20
2.61173
11
2.67318
21
2.61363
0
LINE
8
BLACK
6
CONTINUOUS
10
2.67318
20
2.61363
11
2.67318
21
2.63087
0
LINE
8
BLACK
6
CONTINUOUS
10
2.67318
20
2.63087
11
2.65572
21
2.61342
0
LINE
8
BLACK
6
CONTINUOUS
10
2.65572
20
2.61342
11
2.65488
21
2.61283
0
LINE
8
BLACK
6
CONTINUOUS
10
2.65488
20
2.61283
11
2.65471
21
2.61281
0
LINE
8
BLACK
6
CONTINUOUS
10
2.65471
20
2.61281
11
2.65457
21
2.6127
0
LINE
8
BLACK
6
CONTINUOUS
10
2.65457
20
2.6127
11
2.64895
21
2.61083
0
LINE
8
BLACK
6
CONTINUOUS
10
2.64895
20
2.61083
11
2.64807
21
2.6107
0
LINE
8
BLACK
6
CONTINUOUS
10
2.64807
20
2.6107
11
2.64801
21
2.61068
0
LINE
8
BLACK
6
CONTINUOUS
10
2.64801
20
2.61068
11
2.64426
21
2.61068
0
LINE
8
BLACK
6
CONTINUOUS
10
2.64426
20
2.61068
11
2.64325
21
2.61085
0
LINE
8
BLACK
6
CONTINUOUS
10
2.64325
20
2.61085
11
2.64312
21
2.61097
0
LINE
8
BLACK
6
CONTINUOUS
10
2.64312
20
2.61097
11
2.64294
21
2.61099
0
LINE
8
BLACK
6
CONTINUOUS
10
2.64294
20
2.61099
11
2.63919
21
2.61286
0
LINE
8
BLACK
6
CONTINUOUS
10
2.63919
20
2.61286
11
2.63848
21
2.61339
0
LINE
8
BLACK
6
CONTINUOUS
10
2.63848
20
2.61339
11
2.63843
21
2.61342
0
LINE
8
BLACK
6
CONTINUOUS
10
2.63843
20
2.61342
11
2.63655
21
2.61529
0
LINE
8
BLACK
6
CONTINUOUS
10
2.63655
20
2.61529
11
2.63604
21
2.61601
0
LINE
8
BLACK
6
CONTINUOUS
10
2.63604
20
2.61601
11
2.636
21
2.61606
0
LINE
8
BLACK
6
CONTINUOUS
10
2.636
20
2.61606
11
2.63412
21
2.61981
0
LINE
8
BLACK
6
CONTINUOUS
10
2.63412
20
2.61981
11
2.63383
21
2.62079
0
LINE
8
BLACK
6
CONTINUOUS
10
2.63383
20
2.62079
11
2.63387
21
2.62096
0
LINE
8
BLACK
6
CONTINUOUS
10
2.63387
20
2.62096
11
2.63381
21
2.62113
0
LINE
8
BLACK
6
CONTINUOUS
10
2.63381
20
2.62113
11
2.63381
21
2.6305
0
LINE
8
BLACK
6
CONTINUOUS
10
2.63381
20
2.6305
11
2.63399
21
2.63151
0
LINE
8
BLACK
6
CONTINUOUS
10
2.63399
20
2.63151
11
2.6341
21
2.63165
0
LINE
8
BLACK
6
CONTINUOUS
10
2.6341
20
2.63165
11
2.63412
21
2.63182
0
LINE
8
BLACK
6
CONTINUOUS
10
2.63412
20
2.63182
11
2.636
21
2.63557
0
LINE
8
BLACK
6
CONTINUOUS
10
2.636
20
2.63557
11
2.63652
21
2.63628
0
LINE
8
BLACK
6
CONTINUOUS
10
2.63652
20
2.63628
11
2.63655
21
2.63634
0
LINE
8
BLACK
6
CONTINUOUS
10
2.63655
20
2.63634
11
2.63843
21
2.63821
0
LINE
8
BLACK
6
CONTINUOUS
10
2.63843
20
2.63821
11
2.63927
21
2.6388
0
LINE
8
BLACK
6
CONTINUOUS
10
2.63927
20
2.6388
11
2.64128
21
2.63898
0
LINE
8
BLACK
6
CONTINUOUS
10
2.64128
20
2.63898
11
2.64293
21
2.63782
0
LINE
8
BLACK
6
CONTINUOUS
10
2.64293
20
2.63782
11
2.64345
21
2.63587
0
LINE
8
BLACK
6
CONTINUOUS
10
2.64345
20
2.63587
11
2.6426
21
2.63404
0
LINE
8
BLACK
6
CONTINUOUS
10
2.6426
20
2.63404
11
2.64107
21
2.6325
0
LINE
8
BLACK
6
CONTINUOUS
10
2.64107
20
2.6325
11
2.63972
21
2.62981
0
LINE
8
BLACK
6
CONTINUOUS
10
2.63972
20
2.62981
11
2.63972
21
2.62183
0
LINE
8
BLACK
6
CONTINUOUS
10
2.63972
20
2.62183
11
2.64107
21
2.61913
0
LINE
8
BLACK
6
CONTINUOUS
10
2.64107
20
2.61913
11
2.64226
21
2.61793
0
LINE
8
BLACK
6
CONTINUOUS
10
2.64226
20
2.61793
11
2.64496
21
2.61658
0
LINE
8
BLACK
6
CONTINUOUS
10
2.64496
20
2.61658
11
2.64753
21
2.61658
0
LINE
8
BLACK
6
CONTINUOUS
10
2.64753
20
2.61658
11
2.65204
21
2.61808
0
LINE
8
BLACK
6
CONTINUOUS
10
2.65204
20
2.61808
11
2.67405
21
2.64009
0
LINE
8
BLACK
6
CONTINUOUS
10
2.67405
20
2.64009
11
2.67457
21
2.64046
0
LINE
8
BLACK
6
CONTINUOUS
10
2.67457
20
2.64046
11
2.67466
21
2.64056
0
LINE
8
BLACK
6
CONTINUOUS
10
2.67466
20
2.64056
11
2.67474
21
2.64057
0
LINE
8
BLACK
6
CONTINUOUS
10
2.67474
20
2.64057
11
2.67489
21
2.64068
0
LINE
8
BLACK
6
CONTINUOUS
10
2.67489
20
2.64068
11
2.67577
21
2.64075
0
LINE
8
BLACK
6
CONTINUOUS
10
2.67577
20
2.64075
11
2.67665
21
2.64091
0
LINE
8
BLACK
6
CONTINUOUS
10
2.67665
20
2.64091
11
2.67676
21
2.64084
0
LINE
8
BLACK
6
CONTINUOUS
10
2.67667
20
2.68167
11
2.67736
21
2.68
0
LINE
8
BLACK
6
CONTINUOUS
10
2.67736
20
2.68
11
2.67667
21
2.67833
0
LINE
8
BLACK
6
CONTINUOUS
10
2.67667
20
2.67833
11
2.675
21
2.67764
0
LINE
8
BLACK
6
CONTINUOUS
10
2.675
20
2.67764
11
2.66287
21
2.67764
0
LINE
8
BLACK
6
CONTINUOUS
10
2.66287
20
2.67764
11
2.66748
21
2.67649
0
LINE
8
BLACK
6
CONTINUOUS
10
2.66748
20
2.67649
11
2.66794
21
2.67628
0
LINE
8
BLACK
6
CONTINUOUS
10
2.66794
20
2.67628
11
2.66808
21
2.67626
0
LINE
8
BLACK
6
CONTINUOUS
10
2.66808
20
2.67626
11
2.67183
21
2.67439
0
LINE
8
BLACK
6
CONTINUOUS
10
2.67183
20
2.67439
11
2.67254
21
2.67386
0
LINE
8
BLACK
6
CONTINUOUS
10
2.67254
20
2.67386
11
2.6726
21
2.67383
0
LINE
8
BLACK
6
CONTINUOUS
10
2.6726
20
2.67383
11
2.67635
21
2.67009
0
LINE
8
BLACK
6
CONTINUOUS
10
2.67635
20
2.67009
11
2.67694
21
2.66925
0
LINE
8
BLACK
6
CONTINUOUS
10
2.67694
20
2.66925
11
2.67695
21
2.66907
0
LINE
8
BLACK
6
CONTINUOUS
10
2.67695
20
2.66907
11
2.67706
21
2.66893
0
LINE
8
BLACK
6
CONTINUOUS
10
2.67706
20
2.66893
11
2.67894
21
2.66331
0
LINE
8
BLACK
6
CONTINUOUS
10
2.67894
20
2.66331
11
2.67906
21
2.66243
0
LINE
8
BLACK
6
CONTINUOUS
10
2.67906
20
2.66243
11
2.67909
21
2.66237
0
LINE
8
BLACK
6
CONTINUOUS
10
2.67909
20
2.66237
11
2.67909
21
2.65862
0
LINE
8
BLACK
6
CONTINUOUS
10
2.67909
20
2.65862
11
2.67893
21
2.65775
0
LINE
8
BLACK
6
CONTINUOUS
10
2.67893
20
2.65775
11
2.67894
21
2.65769
0
LINE
8
BLACK
6
CONTINUOUS
10
2.67894
20
2.65769
11
2.67706
21
2.65207
0
LINE
8
BLACK
6
CONTINUOUS
10
2.67706
20
2.65207
11
2.67657
21
2.65116
0
LINE
8
BLACK
6
CONTINUOUS
10
2.67657
20
2.65116
11
2.67642
21
2.65107
0
LINE
8
BLACK
6
CONTINUOUS
10
2.67642
20
2.65107
11
2.67635
21
2.65091
0
LINE
8
BLACK
6
CONTINUOUS
10
2.67635
20
2.65091
11
2.67447
21
2.64904
0
LINE
8
BLACK
6
CONTINUOUS
10
2.67447
20
2.64904
11
2.67363
21
2.64845
0
LINE
8
BLACK
6
CONTINUOUS
10
2.67363
20
2.64845
11
2.67162
21
2.64827
0
LINE
8
BLACK
6
CONTINUOUS
10
2.67162
20
2.64827
11
2.66997
21
2.64943
0
LINE
8
BLACK
6
CONTINUOUS
10
2.66997
20
2.64943
11
2.66944
21
2.65138
0
LINE
8
BLACK
6
CONTINUOUS
10
2.66944
20
2.65138
11
2.6703
21
2.65321
0
LINE
8
BLACK
6
CONTINUOUS
10
2.6703
20
2.65321
11
2.67168
21
2.65459
0
LINE
8
BLACK
6
CONTINUOUS
10
2.67168
20
2.65459
11
2.67318
21
2.6591
0
LINE
8
BLACK
6
CONTINUOUS
10
2.67318
20
2.6591
11
2.67318
21
2.66189
0
LINE
8
BLACK
6
CONTINUOUS
10
2.67318
20
2.66189
11
2.67168
21
2.6664
0
LINE
8
BLACK
6
CONTINUOUS
10
2.67168
20
2.6664
11
2.66876
21
2.66932
0
LINE
8
BLACK
6
CONTINUOUS
10
2.66876
20
2.66932
11
2.66573
21
2.67084
0
LINE
8
BLACK
6
CONTINUOUS
10
2.66573
20
2.67084
11
2.6589
21
2.67254
0
LINE
8
BLACK
6
CONTINUOUS
10
2.6589
20
2.67254
11
2.654
21
2.67254
0
LINE
8
BLACK
6
CONTINUOUS
10
2.654
20
2.67254
11
2.64717
21
2.67084
0
LINE
8
BLACK
6
CONTINUOUS
10
2.64717
20
2.67084
11
2.64414
21
2.66932
0
LINE
8
BLACK
6
CONTINUOUS
10
2.64414
20
2.66932
11
2.64122
21
2.6664
0
LINE
8
BLACK
6
CONTINUOUS
10
2.64122
20
2.6664
11
2.63972
21
2.66189
0
LINE
8
BLACK
6
CONTINUOUS
10
2.63972
20
2.66189
11
2.63972
21
2.6591
0
LINE
8
BLACK
6
CONTINUOUS
10
2.63972
20
2.6591
11
2.64122
21
2.65459
0
LINE
8
BLACK
6
CONTINUOUS
10
2.64122
20
2.65459
11
2.6426
21
2.65321
0
LINE
8
BLACK
6
CONTINUOUS
10
2.6426
20
2.65321
11
2.64319
21
2.65237
0
LINE
8
BLACK
6
CONTINUOUS
10
2.64319
20
2.65237
11
2.64337
21
2.65036
0
LINE
8
BLACK
6
CONTINUOUS
10
2.64337
20
2.65036
11
2.64221
21
2.64871
0
LINE
8
BLACK
6
CONTINUOUS
10
2.64221
20
2.64871
11
2.64026
21
2.64818
0
LINE
8
BLACK
6
CONTINUOUS
10
2.64026
20
2.64818
11
2.63843
21
2.64904
0
LINE
8
BLACK
6
CONTINUOUS
10
2.63843
20
2.64904
11
2.63655
21
2.65091
0
LINE
8
BLACK
6
CONTINUOUS
10
2.63655
20
2.65091
11
2.63596
21
2.65175
0
LINE
8
BLACK
6
CONTINUOUS
10
2.63596
20
2.65175
11
2.63595
21
2.65193
0
LINE
8
BLACK
6
CONTINUOUS
10
2.63595
20
2.65193
11
2.63584
21
2.65207
0
LINE
8
BLACK
6
CONTINUOUS
10
2.63584
20
2.65207
11
2.63396
21
2.65769
0
LINE
8
BLACK
6
CONTINUOUS
10
2.63396
20
2.65769
11
2.63383
21
2.65856
0
LINE
8
BLACK
6
CONTINUOUS
10
2.63383
20
2.65856
11
2.63381
21
2.65862
0
LINE
8
BLACK
6
CONTINUOUS
10
2.63381
20
2.65862
11
2.63381
21
2.66237
0
LINE
8
BLACK
6
CONTINUOUS
10
2.63381
20
2.66237
11
2.63396
21
2.66324
0
LINE
8
BLACK
6
CONTINUOUS
10
2.63396
20
2.66324
11
2.63396
21
2.66331
0
LINE
8
BLACK
6
CONTINUOUS
10
2.63396
20
2.66331
11
2.63584
21
2.66893
0
LINE
8
BLACK
6
CONTINUOUS
10
2.63584
20
2.66893
11
2.63633
21
2.66983
0
LINE
8
BLACK
6
CONTINUOUS
10
2.63633
20
2.66983
11
2.63648
21
2.66993
0
LINE
8
BLACK
6
CONTINUOUS
10
2.63648
20
2.66993
11
2.63655
21
2.67009
0
LINE
8
BLACK
6
CONTINUOUS
10
2.63655
20
2.67009
11
2.6403
21
2.67383
0
LINE
8
BLACK
6
CONTINUOUS
10
2.6403
20
2.67383
11
2.64102
21
2.67434
0
LINE
8
BLACK
6
CONTINUOUS
10
2.64102
20
2.67434
11
2.64107
21
2.67439
0
LINE
8
BLACK
6
CONTINUOUS
10
2.64107
20
2.67439
11
2.64482
21
2.67626
0
LINE
8
BLACK
6
CONTINUOUS
10
2.64482
20
2.67626
11
2.64531
21
2.67641
0
LINE
8
BLACK
6
CONTINUOUS
10
2.64531
20
2.67641
11
2.64542
21
2.67649
0
LINE
8
BLACK
6
CONTINUOUS
10
2.64542
20
2.67649
11
2.65003
21
2.67764
0
LINE
8
BLACK
6
CONTINUOUS
10
2.65003
20
2.67764
11
2.645
21
2.67764
0
LINE
8
BLACK
6
CONTINUOUS
10
2.645
20
2.67764
11
2.64333
21
2.67833
0
LINE
8
BLACK
6
CONTINUOUS
10
2.64333
20
2.67833
11
2.64264
21
2.68
0
LINE
8
BLACK
6
CONTINUOUS
10
2.64264
20
2.68
11
2.64333
21
2.68167
0
LINE
8
BLACK
6
CONTINUOUS
10
2.64333
20
2.68167
11
2.645
21
2.68236
0
LINE
8
BLACK
6
CONTINUOUS
10
2.645
20
2.68236
11
2.675
21
2.68236
0
LINE
8
BLACK
6
CONTINUOUS
10
2.675
20
2.68236
11
2.67667
21
2.68167
0
LINE
8
BLACK
6
CONTINUOUS
10
2.18452
20
2.71716
11
2.18607
21
2.71586
0
LINE
8
BLACK
6
CONTINUOUS
10
2.18607
20
2.71586
11
2.18642
21
2.71387
0
LINE
8
BLACK
6
CONTINUOUS
10
2.18642
20
2.71387
11
2.18541
21
2.71212
0
LINE
8
BLACK
6
CONTINUOUS
10
2.18541
20
2.71212
11
2.18351
21
2.71143
0
LINE
8
BLACK
6
CONTINUOUS
10
2.18351
20
2.71143
11
2.16565
21
2.71143
0
LINE
8
BLACK
6
CONTINUOUS
10
2.16565
20
2.71143
11
2.17449
21
2.70133
0
LINE
8
BLACK
6
CONTINUOUS
10
2.17449
20
2.70133
11
2.17472
21
2.70095
0
LINE
8
BLACK
6
CONTINUOUS
10
2.17472
20
2.70095
11
2.17482
21
2.70086
0
LINE
8
BLACK
6
CONTINUOUS
10
2.17482
20
2.70086
11
2.17484
21
2.70074
0
LINE
8
BLACK
6
CONTINUOUS
10
2.17484
20
2.70074
11
2.17502
21
2.70045
0
LINE
8
BLACK
6
CONTINUOUS
10
2.17502
20
2.70045
11
2.17503
21
2.69965
0
LINE
8
BLACK
6
CONTINUOUS
10
2.17503
20
2.69965
11
2.17517
21
2.69887
0
LINE
8
BLACK
6
CONTINUOUS
10
2.17517
20
2.69887
11
2.17505
21
2.69867
0
LINE
8
BLACK
6
CONTINUOUS
10
2.17505
20
2.69867
11
2.17506
21
2.69843
0
LINE
8
BLACK
6
CONTINUOUS
10
2.17506
20
2.69843
11
2.17456
21
2.69781
0
LINE
8
BLACK
6
CONTINUOUS
10
2.17456
20
2.69781
11
2.17416
21
2.69712
0
LINE
8
BLACK
6
CONTINUOUS
10
2.17416
20
2.69712
11
2.17394
21
2.69704
0
LINE
8
BLACK
6
CONTINUOUS
10
2.17394
20
2.69704
11
2.17379
21
2.69686
0
LINE
8
BLACK
6
CONTINUOUS
10
2.17379
20
2.69686
11
2.17301
21
2.6967
0
LINE
8
BLACK
6
CONTINUOUS
10
2.17301
20
2.6967
11
2.17226
21
2.69643
0
LINE
8
BLACK
6
CONTINUOUS
10
2.17226
20
2.69643
11
2.16734
21
2.69643
0
LINE
8
BLACK
6
CONTINUOUS
10
2.16734
20
2.69643
11
2.16464
21
2.69508
0
LINE
8
BLACK
6
CONTINUOUS
10
2.16464
20
2.69508
11
2.16344
21
2.69388
0
LINE
8
BLACK
6
CONTINUOUS
10
2.16344
20
2.69388
11
2.16209
21
2.69119
0
LINE
8
BLACK
6
CONTINUOUS
10
2.16209
20
2.69119
11
2.16209
21
2.68321
0
LINE
8
BLACK
6
CONTINUOUS
10
2.16209
20
2.68321
11
2.16344
21
2.68051
0
LINE
8
BLACK
6
CONTINUOUS
10
2.16344
20
2.68051
11
2.16464
21
2.67931
0
LINE
8
BLACK
6
CONTINUOUS
10
2.16464
20
2.67931
11
2.16734
21
2.67796
0
LINE
8
BLACK
6
CONTINUOUS
10
2.16734
20
2.67796
11
2.17719
21
2.67796
0
LINE
8
BLACK
6
CONTINUOUS
10
2.17719
20
2.67796
11
2.17989
21
2.67931
0
LINE
8
BLACK
6
CONTINUOUS
10
2.17989
20
2.67931
11
2.18142
21
2.68085
0
LINE
8
BLACK
6
CONTINUOUS
10
2.18142
20
2.68085
11
2.18226
21
2.68144
0
LINE
8
BLACK
6
CONTINUOUS
10
2.18226
20
2.68144
11
2.18428
21
2.68161
0
LINE
8
BLACK
6
CONTINUOUS
10
2.18428
20
2.68161
11
2.18593
21
2.68045
0
LINE
8
BLACK
6
CONTINUOUS
10
2.18593
20
2.68045
11
2.18645
21
2.6785
0
LINE
8
BLACK
6
CONTINUOUS
10
2.18645
20
2.6785
11
2.1856
21
2.67667
0
LINE
8
BLACK
6
CONTINUOUS
10
2.1856
20
2.67667
11
2.18373
21
2.6748
0
LINE
8
BLACK
6
CONTINUOUS
10
2.18373
20
2.6748
11
2.183
21
2.67429
0
LINE
8
BLACK
6
CONTINUOUS
10
2.183
20
2.67429
11
2.18296
21
2.67424
0
LINE
8
BLACK
6
CONTINUOUS
10
2.18296
20
2.67424
11
2.17921
21
2.67237
0
LINE
8
BLACK
6
CONTINUOUS
10
2.17921
20
2.67237
11
2.17823
21
2.67208
0
LINE
8
BLACK
6
CONTINUOUS
10
2.17823
20
2.67208
11
2.17805
21
2.67212
0
LINE
8
BLACK
6
CONTINUOUS
10
2.17805
20
2.67212
11
2.17789
21
2.67206
0
LINE
8
BLACK
6
CONTINUOUS
10
2.17789
20
2.67206
11
2.16664
21
2.67206
0
LINE
8
BLACK
6
CONTINUOUS
10
2.16664
20
2.67206
11
2.16563
21
2.67224
0
LINE
8
BLACK
6
CONTINUOUS
10
2.16563
20
2.67224
11
2.16549
21
2.67235
0
LINE
8
BLACK
6
CONTINUOUS
10
2.16549
20
2.67235
11
2.16532
21
2.67237
0
LINE
8
BLACK
6
CONTINUOUS
10
2.16532
20
2.67237
11
2.16157
21
2.67424
0
LINE
8
BLACK
6
CONTINUOUS
10
2.16157
20
2.67424
11
2.16086
21
2.67477
0
LINE
8
BLACK
6
CONTINUOUS
10
2.16086
20
2.67477
11
2.1608
21
2.6748
0
LINE
8
BLACK
6
CONTINUOUS
10
2.1608
20
2.6748
11
2.15893
21
2.67667
0
LINE
8
BLACK
6
CONTINUOUS
10
2.15893
20
2.67667
11
2.15842
21
2.6774
0
LINE
8
BLACK
6
CONTINUOUS
10
2.15842
20
2.6774
11
2.15837
21
2.67744
0
LINE
8
BLACK
6
CONTINUOUS
10
2.15837
20
2.67744
11
2.1565
21
2.68119
0
LINE
8
BLACK
6
CONTINUOUS
10
2.1565
20
2.68119
11
2.15621
21
2.68217
0
LINE
8
BLACK
6
CONTINUOUS
10
2.15621
20
2.68217
11
2.15625
21
2.68234
0
LINE
8
BLACK
6
CONTINUOUS
10
2.15625
20
2.68234
11
2.15619
21
2.68251
0
LINE
8
BLACK
6
CONTINUOUS
10
2.15619
20
2.68251
11
2.15619
21
2.69188
0
LINE
8
BLACK
6
CONTINUOUS
10
2.15619
20
2.69188
11
2.15637
21
2.69289
0
LINE
8
BLACK
6
CONTINUOUS
10
2.15637
20
2.69289
11
2.15648
21
2.69303
0
LINE
8
BLACK
6
CONTINUOUS
10
2.15648
20
2.69303
11
2.1565
21
2.6932
0
LINE
8
BLACK
6
CONTINUOUS
10
2.1565
20
2.6932
11
2.15837
21
2.69695
0
LINE
8
BLACK
6
CONTINUOUS
10
2.15837
20
2.69695
11
2.1589
21
2.69766
0
LINE
8
BLACK
6
CONTINUOUS
10
2.1589
20
2.69766
11
2.15893
21
2.69772
0
LINE
8
BLACK
6
CONTINUOUS
10
2.15893
20
2.69772
11
2.1608
21
2.6996
0
LINE
8
BLACK
6
CONTINUOUS
10
2.1608
20
2.6996
11
2.16153
21
2.7001
0
LINE
8
BLACK
6
CONTINUOUS
10
2.16153
20
2.7001
11
2.16157
21
2.70015
0
LINE
8
BLACK
6
CONTINUOUS
10
2.16157
20
2.70015
11
2.16532
21
2.70202
0
LINE
8
BLACK
6
CONTINUOUS
10
2.16532
20
2.70202
11
2.16588
21
2.70219
0
LINE
8
BLACK
6
CONTINUOUS
10
2.16588
20
2.70219
11
2.15692
21
2.71244
0
LINE
8
BLACK
6
CONTINUOUS
10
2.15692
20
2.71244
11
2.15669
21
2.71282
0
LINE
8
BLACK
6
CONTINUOUS
10
2.15669
20
2.71282
11
2.15658
21
2.7129
0
LINE
8
BLACK
6
CONTINUOUS
10
2.15658
20
2.7129
11
2.15656
21
2.71302
0
LINE
8
BLACK
6
CONTINUOUS
10
2.15656
20
2.71302
11
2.15639
21
2.71331
0
LINE
8
BLACK
6
CONTINUOUS
10
2.15639
20
2.71331
11
2.15637
21
2.71411
0
LINE
8
BLACK
6
CONTINUOUS
10
2.15637
20
2.71411
11
2.15623
21
2.71489
0
LINE
8
BLACK
6
CONTINUOUS
10
2.15623
20
2.71489
11
2.15635
21
2.7151
0
LINE
8
BLACK
6
CONTINUOUS
10
2.15635
20
2.7151
11
2.15635
21
2.71533
0
LINE
8
BLACK
6
CONTINUOUS
10
2.15635
20
2.71533
11
2.15684
21
2.71595
0
LINE
8
BLACK
6
CONTINUOUS
10
2.15684
20
2.71595
11
2.15724
21
2.71664
0
LINE
8
BLACK
6
CONTINUOUS
10
2.15724
20
2.71664
11
2.15746
21
2.71672
0
LINE
8
BLACK
6
CONTINUOUS
10
2.15746
20
2.71672
11
2.15761
21
2.71691
0
LINE
8
BLACK
6
CONTINUOUS
10
2.15761
20
2.71691
11
2.15839
21
2.71706
0
LINE
8
BLACK
6
CONTINUOUS
10
2.15839
20
2.71706
11
2.15914
21
2.71733
0
LINE
8
BLACK
6
CONTINUOUS
10
2.15914
20
2.71733
11
2.18351
21
2.71733
0
LINE
8
BLACK
6
CONTINUOUS
10
2.18351
20
2.71733
11
2.18452
21
2.71716
0
LINE
8
BLACK
6
CONTINUOUS
10
2.22327
20
2.71628
11
2.22396
21
2.71438
0
LINE
8
BLACK
6
CONTINUOUS
10
2.22396
20
2.71438
11
2.22396
21
2.68251
0
LINE
8
BLACK
6
CONTINUOUS
10
2.22396
20
2.68251
11
2.22378
21
2.6815
0
LINE
8
BLACK
6
CONTINUOUS
10
2.22378
20
2.6815
11
2.22367
21
2.68136
0
LINE
8
BLACK
6
CONTINUOUS
10
2.22367
20
2.68136
11
2.22365
21
2.68119
0
LINE
8
BLACK
6
CONTINUOUS
10
2.22365
20
2.68119
11
2.22177
21
2.67744
0
LINE
8
BLACK
6
CONTINUOUS
10
2.22177
20
2.67744
11
2.22125
21
2.67673
0
LINE
8
BLACK
6
CONTINUOUS
10
2.22125
20
2.67673
11
2.22122
21
2.67667
0
LINE
8
BLACK
6
CONTINUOUS
10
2.22122
20
2.67667
11
2.21935
21
2.6748
0
LINE
8
BLACK
6
CONTINUOUS
10
2.21935
20
2.6748
11
2.21862
21
2.67429
0
LINE
8
BLACK
6
CONTINUOUS
10
2.21862
20
2.67429
11
2.21858
21
2.67424
0
LINE
8
BLACK
6
CONTINUOUS
10
2.21858
20
2.67424
11
2.21483
21
2.67237
0
LINE
8
BLACK
6
CONTINUOUS
10
2.21483
20
2.67237
11
2.21385
21
2.67208
0
LINE
8
BLACK
6
CONTINUOUS
10
2.21385
20
2.67208
11
2.21367
21
2.67212
0
LINE
8
BLACK
6
CONTINUOUS
10
2.21367
20
2.67212
11
2.21351
21
2.67206
0
LINE
8
BLACK
6
CONTINUOUS
10
2.21351
20
2.67206
11
2.20601
21
2.67206
0
LINE
8
BLACK
6
CONTINUOUS
10
2.20601
20
2.67206
11
2.205
21
2.67224
0
LINE
8
BLACK
6
CONTINUOUS
10
2.205
20
2.67224
11
2.20486
21
2.67235
0
LINE
8
BLACK
6
CONTINUOUS
10
2.20486
20
2.67235
11
2.20469
21
2.67237
0
LINE
8
BLACK
6
CONTINUOUS
10
2.20469
20
2.67237
11
2.20094
21
2.67424
0
LINE
8
BLACK
6
CONTINUOUS
10
2.20094
20
2.67424
11
2.20023
21
2.67477
0
LINE
8
BLACK
6
CONTINUOUS
10
2.20023
20
2.67477
11
2.20017
21
2.6748
0
LINE
8
BLACK
6
CONTINUOUS
10
2.20017
20
2.6748
11
2.1983
21
2.67667
0
LINE
8
BLACK
6
CONTINUOUS
10
2.1983
20
2.67667
11
2.19779
21
2.6774
0
LINE
8
BLACK
6
CONTINUOUS
10
2.19779
20
2.6774
11
2.19774
21
2.67744
0
LINE
8
BLACK
6
CONTINUOUS
10
2.19774
20
2.67744
11
2.19587
21
2.68119
0
LINE
8
BLACK
6
CONTINUOUS
10
2.19587
20
2.68119
11
2.19558
21
2.68217
0
LINE
8
BLACK
6
CONTINUOUS
10
2.19558
20
2.68217
11
2.19562
21
2.68234
0
LINE
8
BLACK
6
CONTINUOUS
10
2.19562
20
2.68234
11
2.19556
21
2.68251
0
LINE
8
BLACK
6
CONTINUOUS
10
2.19556
20
2.68251
11
2.19556
21
2.71438
0
LINE
8
BLACK
6
CONTINUOUS
10
2.19556
20
2.71438
11
2.19574
21
2.71539
0
LINE
8
BLACK
6
CONTINUOUS
10
2.19574
20
2.71539
11
2.19703
21
2.71694
0
LINE
8
BLACK
6
CONTINUOUS
10
2.19703
20
2.71694
11
2.19902
21
2.71729
0
LINE
8
BLACK
6
CONTINUOUS
10
2.19902
20
2.71729
11
2.20077
21
2.71628
0
LINE
8
BLACK
6
CONTINUOUS
10
2.20077
20
2.71628
11
2.20146
21
2.71438
0
LINE
8
BLACK
6
CONTINUOUS
10
2.20146
20
2.71438
11
2.20146
21
2.68321
0
LINE
8
BLACK
6
CONTINUOUS
10
2.20146
20
2.68321
11
2.20281
21
2.68051
0
LINE
8
BLACK
6
CONTINUOUS
10
2.20281
20
2.68051
11
2.20401
21
2.67931
0
LINE
8
BLACK
6
CONTINUOUS
10
2.20401
20
2.67931
11
2.20671
21
2.67796
0
LINE
8
BLACK
6
CONTINUOUS
10
2.20671
20
2.67796
11
2.21281
21
2.67796
0
LINE
8
BLACK
6
CONTINUOUS
10
2.21281
20
2.67796
11
2.21551
21
2.67931
0
LINE
8
BLACK
6
CONTINUOUS
10
2.21551
20
2.67931
11
2.21671
21
2.68051
0
LINE
8
BLACK
6
CONTINUOUS
10
2.21671
20
2.68051
11
2.21806
21
2.68321
0
LINE
8
BLACK
6
CONTINUOUS
10
2.21806
20
2.68321
11
2.21806
21
2.71438
0
LINE
8
BLACK
6
CONTINUOUS
10
2.21806
20
2.71438
11
2.21823
21
2.71539
0
LINE
8
BLACK
6
CONTINUOUS
10
2.21823
20
2.71539
11
2.21953
21
2.71694
0
LINE
8
BLACK
6
CONTINUOUS
10
2.21953
20
2.71694
11
2.22152
21
2.71729
0
LINE
8
BLACK
6
CONTINUOUS
10
2.22152
20
2.71729
11
2.22327
21
2.71628
0
LINE
8
BLACK
6
CONTINUOUS
10
2.92997
20
2.70394
11
2.93108
21
2.70225
0
LINE
8
BLACK
6
CONTINUOUS
10
2.93108
20
2.70225
11
2.93085
21
2.70024
0
LINE
8
BLACK
6
CONTINUOUS
10
2.93085
20
2.70024
11
2.92898
21
2.69649
0
LINE
8
BLACK
6
CONTINUOUS
10
2.92898
20
2.69649
11
2.92845
21
2.69578
0
LINE
8
BLACK
6
CONTINUOUS
10
2.92845
20
2.69578
11
2.92842
21
2.69573
0
LINE
8
BLACK
6
CONTINUOUS
10
2.92842
20
2.69573
11
2.92596
21
2.69327
0
LINE
8
BLACK
6
CONTINUOUS
10
2.92596
20
2.69327
11
2.95338
21
2.69327
0
LINE
8
BLACK
6
CONTINUOUS
10
2.95338
20
2.69327
11
2.95338
21
2.70156
0
LINE
8
BLACK
6
CONTINUOUS
10
2.95338
20
2.70156
11
2.95356
21
2.70257
0
LINE
8
BLACK
6
CONTINUOUS
10
2.95356
20
2.70257
11
2.95486
21
2.70412
0
LINE
8
BLACK
6
CONTINUOUS
10
2.95486
20
2.70412
11
2.95684
21
2.70447
0
LINE
8
BLACK
6
CONTINUOUS
10
2.95684
20
2.70447
11
2.95859
21
2.70346
0
LINE
8
BLACK
6
CONTINUOUS
10
2.95859
20
2.70346
11
2.95928
21
2.70156
0
LINE
8
BLACK
6
CONTINUOUS
10
2.95928
20
2.70156
11
2.95928
21
2.67907
0
LINE
8
BLACK
6
CONTINUOUS
10
2.95928
20
2.67907
11
2.95911
21
2.67806
0
LINE
8
BLACK
6
CONTINUOUS
10
2.95911
20
2.67806
11
2.95781
21
2.67651
0
LINE
8
BLACK
6
CONTINUOUS
10
2.95781
20
2.67651
11
2.95582
21
2.67616
0
LINE
8
BLACK
6
CONTINUOUS
10
2.95582
20
2.67616
11
2.95407
21
2.67717
0
LINE
8
BLACK
6
CONTINUOUS
10
2.95407
20
2.67717
11
2.95338
21
2.67907
0
LINE
8
BLACK
6
CONTINUOUS
10
2.95338
20
2.67907
11
2.95338
21
2.68736
0
LINE
8
BLACK
6
CONTINUOUS
10
2.95338
20
2.68736
11
2.91696
21
2.68736
0
LINE
8
BLACK
6
CONTINUOUS
10
2.91696
20
2.68736
11
2.91595
21
2.68754
0
LINE
8
BLACK
6
CONTINUOUS
10
2.91595
20
2.68754
11
2.91582
21
2.68765
0
LINE
8
BLACK
6
CONTINUOUS
10
2.91582
20
2.68765
11
2.91565
21
2.68767
0
LINE
8
BLACK
6
CONTINUOUS
10
2.91565
20
2.68767
11
2.91506
21
2.68829
0
LINE
8
BLACK
6
CONTINUOUS
10
2.91506
20
2.68829
11
2.9144
21
2.68884
0
LINE
8
BLACK
6
CONTINUOUS
10
2.9144
20
2.68884
11
2.91437
21
2.68901
0
LINE
8
BLACK
6
CONTINUOUS
10
2.91437
20
2.68901
11
2.91426
21
2.68913
0
LINE
8
BLACK
6
CONTINUOUS
10
2.91426
20
2.68913
11
2.9142
21
2.68998
0
LINE
8
BLACK
6
CONTINUOUS
10
2.9142
20
2.68998
11
2.91405
21
2.69083
0
LINE
8
BLACK
6
CONTINUOUS
10
2.91405
20
2.69083
11
2.91414
21
2.69097
0
LINE
8
BLACK
6
CONTINUOUS
10
2.91414
20
2.69097
11
2.91413
21
2.69114
0
LINE
8
BLACK
6
CONTINUOUS
10
2.91413
20
2.69114
11
2.91463
21
2.69183
0
LINE
8
BLACK
6
CONTINUOUS
10
2.91463
20
2.69183
11
2.91506
21
2.69258
0
LINE
8
BLACK
6
CONTINUOUS
10
2.91506
20
2.69258
11
2.91522
21
2.69263
0
LINE
8
BLACK
6
CONTINUOUS
10
2.91522
20
2.69263
11
2.91532
21
2.69277
0
LINE
8
BLACK
6
CONTINUOUS
10
2.91532
20
2.69277
11
2.9207
21
2.69636
0
LINE
8
BLACK
6
CONTINUOUS
10
2.9207
20
2.69636
11
2.92391
21
2.69956
0
LINE
8
BLACK
6
CONTINUOUS
10
2.92391
20
2.69956
11
2.92557
21
2.70288
0
LINE
8
BLACK
6
CONTINUOUS
10
2.92557
20
2.70288
11
2.92618
21
2.70371
0
LINE
8
BLACK
6
CONTINUOUS
10
2.92618
20
2.70371
11
2.92803
21
2.70451
0
LINE
8
BLACK
6
CONTINUOUS
10
2.92803
20
2.70451
11
2.92997
21
2.70394
0
LINE
8
BLACK
6
CONTINUOUS
10
2.07101
20
2.68194
11
2.07256
21
2.68064
0
LINE
8
BLACK
6
CONTINUOUS
10
2.07256
20
2.68064
11
2.07291
21
2.67865
0
LINE
8
BLACK
6
CONTINUOUS
10
2.07291
20
2.67865
11
2.0719
21
2.6769
0
LINE
8
BLACK
6
CONTINUOUS
10
2.0719
20
2.6769
11
2.07
21
2.67621
0
LINE
8
BLACK
6
CONTINUOUS
10
2.07
20
2.67621
11
2.01
21
2.67621
0
LINE
8
BLACK
6
CONTINUOUS
10
2.01
20
2.67621
11
2.00899
21
2.67639
0
LINE
8
BLACK
6
CONTINUOUS
10
2.00899
20
2.67639
11
2.00744
21
2.67769
0
LINE
8
BLACK
6
CONTINUOUS
10
2.00744
20
2.67769
11
2.00709
21
2.67968
0
LINE
8
BLACK
6
CONTINUOUS
10
2.00709
20
2.67968
11
2.0081
21
2.68143
0
LINE
8
BLACK
6
CONTINUOUS
10
2.0081
20
2.68143
11
2.01
21
2.68212
0
LINE
8
BLACK
6
CONTINUOUS
10
2.01
20
2.68212
11
2.07
21
2.68212
0
LINE
8
BLACK
6
CONTINUOUS
10
2.07
20
2.68212
11
2.07101
21
2.68194
0
LINE
8
BLACK
6
CONTINUOUS
10
2.60226
20
2.7419
11
2.60295
21
2.74
0
LINE
8
BLACK
6
CONTINUOUS
10
2.60295
20
2.74
11
2.60295
21
2.68
0
LINE
8
BLACK
6
CONTINUOUS
10
2.60295
20
2.68
11
2.60277
21
2.67899
0
LINE
8
BLACK
6
CONTINUOUS
10
2.60277
20
2.67899
11
2.60148
21
2.67744
0
LINE
8
BLACK
6
CONTINUOUS
10
2.60148
20
2.67744
11
2.59949
21
2.67709
0
LINE
8
BLACK
6
CONTINUOUS
10
2.59949
20
2.67709
11
2.59774
21
2.6781
0
LINE
8
BLACK
6
CONTINUOUS
10
2.59774
20
2.6781
11
2.59705
21
2.68
0
LINE
8
BLACK
6
CONTINUOUS
10
2.59705
20
2.68
11
2.59705
21
2.74
0
LINE
8
BLACK
6
CONTINUOUS
10
2.59705
20
2.74
11
2.59723
21
2.74101
0
LINE
8
BLACK
6
CONTINUOUS
10
2.59723
20
2.74101
11
2.59852
21
2.74256
0
LINE
8
BLACK
6
CONTINUOUS
10
2.59852
20
2.74256
11
2.60051
21
2.74291
0
LINE
8
BLACK
6
CONTINUOUS
10
2.60051
20
2.74291
11
2.60226
21
2.7419
0
LINE
8
BLACK
6
CONTINUOUS
10
2.72226
20
2.7419
11
2.72295
21
2.74
0
LINE
8
BLACK
6
CONTINUOUS
10
2.72295
20
2.74
11
2.72295
21
2.68
0
LINE
8
BLACK
6
CONTINUOUS
10
2.72295
20
2.68
11
2.72277
21
2.67899
0
LINE
8
BLACK
6
CONTINUOUS
10
2.72277
20
2.67899
11
2.72148
21
2.67744
0
LINE
8
BLACK
6
CONTINUOUS
10
2.72148
20
2.67744
11
2.71949
21
2.67709
0
LINE
8
BLACK
6
CONTINUOUS
10
2.71949
20
2.67709
11
2.71774
21
2.6781
0
LINE
8
BLACK
6
CONTINUOUS
10
2.71774
20
2.6781
11
2.71705
21
2.68
0
LINE
8
BLACK
6
CONTINUOUS
10
2.71705
20
2.68
11
2.71705
21
2.74
0
LINE
8
BLACK
6
CONTINUOUS
10
2.71705
20
2.74
11
2.71723
21
2.74101
0
LINE
8
BLACK
6
CONTINUOUS
10
2.71723
20
2.74101
11
2.71852
21
2.74256
0
LINE
8
BLACK
6
CONTINUOUS
10
2.71852
20
2.74256
11
2.72051
21
2.74291
0
LINE
8
BLACK
6
CONTINUOUS
10
2.72051
20
2.74291
11
2.72226
21
2.7419
0
LINE
8
BLACK
6
CONTINUOUS
10
1.85551
20
2.71619
11
1.85718
21
2.7155
0
LINE
8
BLACK
6
CONTINUOUS
10
1.85718
20
2.7155
11
1.85787
21
2.71383
0
LINE
8
BLACK
6
CONTINUOUS
10
1.85787
20
2.71383
11
1.85787
21
2.71029
0
LINE
8
BLACK
6
CONTINUOUS
10
1.85787
20
2.71029
11
2.04213
21
2.71029
0
LINE
8
BLACK
6
CONTINUOUS
10
2.04213
20
2.71029
11
2.04213
21
2.71383
0
LINE
8
BLACK
6
CONTINUOUS
10
2.04213
20
2.71383
11
2.04282
21
2.7155
0
LINE
8
BLACK
6
CONTINUOUS
10
2.04282
20
2.7155
11
2.04449
21
2.71619
0
LINE
8
BLACK
6
CONTINUOUS
10
2.04449
20
2.71619
11
2.04616
21
2.7155
0
LINE
8
BLACK
6
CONTINUOUS
10
2.04616
20
2.7155
11
2.04685
21
2.71383
0
LINE
8
BLACK
6
CONTINUOUS
10
2.04685
20
2.71383
11
2.04685
21
2.70793
0
LINE
8
BLACK
6
CONTINUOUS
10
2.04685
20
2.70793
11
2.04616
21
2.70626
0
LINE
8
BLACK
6
CONTINUOUS
10
2.04616
20
2.70626
11
2.04449
21
2.70556
0
LINE
8
BLACK
6
CONTINUOUS
10
2.04449
20
2.70556
11
1.85551
21
2.70556
0
LINE
8
BLACK
6
CONTINUOUS
10
1.85551
20
2.70556
11
1.85384
21
2.70626
0
LINE
8
BLACK
6
CONTINUOUS
10
1.85384
20
2.70626
11
1.85315
21
2.70793
0
LINE
8
BLACK
6
CONTINUOUS
10
1.85315
20
2.70793
11
1.85315
21
2.70793
0
LINE
8
BLACK
6
CONTINUOUS
10
1.85315
20
2.70793
11
1.85315
21
2.71147
0
LINE
8
BLACK
6
CONTINUOUS
10
1.85315
20
2.71147
11
1.78858
21
2.71147
0
LINE
8
BLACK
6
CONTINUOUS
10
1.78858
20
2.71147
11
1.78691
21
2.71216
0
LINE
8
BLACK
6
CONTINUOUS
10
1.78691
20
2.71216
11
1.78622
21
2.71383
0
LINE
8
BLACK
6
CONTINUOUS
10
1.78622
20
2.71383
11
1.78691
21
2.7155
0
LINE
8
BLACK
6
CONTINUOUS
10
1.78691
20
2.7155
11
1.78858
21
2.71619
0
LINE
8
BLACK
6
CONTINUOUS
10
1.78858
20
2.71619
11
1.85551
21
2.71619
0
LINE
8
BLACK
6
CONTINUOUS
10
2.95671
20
2.74194
11
2.95684
21
2.74197
0
LINE
8
BLACK
6
CONTINUOUS
10
2.95684
20
2.74197
11
2.95696
21
2.7419
0
LINE
8
BLACK
6
CONTINUOUS
10
2.95696
20
2.7419
11
2.95734
21
2.74183
0
LINE
8
BLACK
6
CONTINUOUS
10
2.95734
20
2.74183
11
2.95793
21
2.74134
0
LINE
8
BLACK
6
CONTINUOUS
10
2.95793
20
2.74134
11
2.95859
21
2.74096
0
LINE
8
BLACK
6
CONTINUOUS
10
2.95859
20
2.74096
11
2.95868
21
2.74071
0
LINE
8
BLACK
6
CONTINUOUS
10
2.95868
20
2.74071
11
2.95889
21
2.74054
0
LINE
8
BLACK
6
CONTINUOUS
10
2.95889
20
2.74054
11
2.95902
21
2.73978
0
LINE
8
BLACK
6
CONTINUOUS
10
2.95902
20
2.73978
11
2.95928
21
2.73906
0
LINE
8
BLACK
6
CONTINUOUS
10
2.95928
20
2.73906
11
2.95928
21
2.72969
0
LINE
8
BLACK
6
CONTINUOUS
10
2.95928
20
2.72969
11
2.95913
21
2.72882
0
LINE
8
BLACK
6
CONTINUOUS
10
2.95913
20
2.72882
11
2.95913
21
2.72875
0
LINE
8
BLACK
6
CONTINUOUS
10
2.95913
20
2.72875
11
2.95726
21
2.72313
0
LINE
8
BLACK
6
CONTINUOUS
10
2.95726
20
2.72313
11
2.95677
21
2.72223
0
LINE
8
BLACK
6
CONTINUOUS
10
2.95677
20
2.72223
11
2.95662
21
2.72213
0
LINE
8
BLACK
6
CONTINUOUS
10
2.95662
20
2.72213
11
2.95654
21
2.72197
0
LINE
8
BLACK
6
CONTINUOUS
10
2.95654
20
2.72197
11
2.9528
21
2.71822
0
LINE
8
BLACK
6
CONTINUOUS
10
2.9528
20
2.71822
11
2.95207
21
2.71772
0
LINE
8
BLACK
6
CONTINUOUS
10
2.95207
20
2.71772
11
2.95203
21
2.71767
0
LINE
8
BLACK
6
CONTINUOUS
10
2.95203
20
2.71767
11
2.94828
21
2.7158
0
LINE
8
BLACK
6
CONTINUOUS
10
2.94828
20
2.7158
11
2.94779
21
2.71565
0
LINE
8
BLACK
6
CONTINUOUS
10
2.94779
20
2.71565
11
2.94767
21
2.71557
0
LINE
8
BLACK
6
CONTINUOUS
10
2.94767
20
2.71557
11
2.94017
21
2.7137
0
LINE
8
BLACK
6
CONTINUOUS
10
2.94017
20
2.7137
11
2.93959
21
2.71366
0
LINE
8
BLACK
6
CONTINUOUS
10
2.93959
20
2.71366
11
2.93946
21
2.71361
0
LINE
8
BLACK
6
CONTINUOUS
10
2.93946
20
2.71361
11
2.93383
21
2.71361
0
LINE
8
BLACK
6
CONTINUOUS
10
2.93383
20
2.71361
11
2.93325
21
2.71371
0
LINE
8
BLACK
6
CONTINUOUS
10
2.93325
20
2.71371
11
2.93312
21
2.7137
0
LINE
8
BLACK
6
CONTINUOUS
10
2.93312
20
2.7137
11
2.92562
21
2.71557
0
LINE
8
BLACK
6
CONTINUOUS
10
2.92562
20
2.71557
11
2.92515
21
2.71578
0
LINE
8
BLACK
6
CONTINUOUS
10
2.92515
20
2.71578
11
2.92501
21
2.7158
0
LINE
8
BLACK
6
CONTINUOUS
10
2.92501
20
2.7158
11
2.92127
21
2.71767
0
LINE
8
BLACK
6
CONTINUOUS
10
2.92127
20
2.71767
11
2.92056
21
2.7182
0
LINE
8
BLACK
6
CONTINUOUS
10
2.92056
20
2.7182
11
2.9205
21
2.71822
0
LINE
8
BLACK
6
CONTINUOUS
10
2.9205
20
2.71822
11
2.91675
21
2.72197
0
LINE
8
BLACK
6
CONTINUOUS
10
2.91675
20
2.72197
11
2.91616
21
2.72281
0
LINE
8
BLACK
6
CONTINUOUS
10
2.91616
20
2.72281
11
2.91614
21
2.72299
0
LINE
8
BLACK
6
CONTINUOUS
10
2.91614
20
2.72299
11
2.91603
21
2.72313
0
LINE
8
BLACK
6
CONTINUOUS
10
2.91603
20
2.72313
11
2.91416
21
2.72875
0
LINE
8
BLACK
6
CONTINUOUS
10
2.91416
20
2.72875
11
2.91403
21
2.72962
0
LINE
8
BLACK
6
CONTINUOUS
10
2.91403
20
2.72962
11
2.91401
21
2.72969
0
LINE
8
BLACK
6
CONTINUOUS
10
2.91401
20
2.72969
11
2.91401
21
2.73906
0
LINE
8
BLACK
6
CONTINUOUS
10
2.91401
20
2.73906
11
2.91408
21
2.73944
0
LINE
8
BLACK
6
CONTINUOUS
10
2.91408
20
2.73944
11
2.91405
21
2.73957
0
LINE
8
BLACK
6
CONTINUOUS
10
2.91405
20
2.73957
11
2.91412
21
2.73969
0
LINE
8
BLACK
6
CONTINUOUS
10
2.91412
20
2.73969
11
2.91419
21
2.74007
0
LINE
8
BLACK
6
CONTINUOUS
10
2.91419
20
2.74007
11
2.91468
21
2.74066
0
LINE
8
BLACK
6
CONTINUOUS
10
2.91468
20
2.74066
11
2.91506
21
2.74132
0
LINE
8
BLACK
6
CONTINUOUS
10
2.91506
20
2.74132
11
2.91531
21
2.74141
0
LINE
8
BLACK
6
CONTINUOUS
10
2.91531
20
2.74141
11
2.91548
21
2.74162
0
LINE
8
BLACK
6
CONTINUOUS
10
2.91548
20
2.74162
11
2.91624
21
2.74175
0
LINE
8
BLACK
6
CONTINUOUS
10
2.91624
20
2.74175
11
2.91696
21
2.74201
0
LINE
8
BLACK
6
CONTINUOUS
10
2.91696
20
2.74201
11
2.95633
21
2.74201
0
LINE
8
BLACK
6
CONTINUOUS
10
2.95633
20
2.74201
11
2.95671
21
2.74194
0
LINE
8
BLACK
6
CONTINUOUS
10
2.91991
20
2.73016
11
2.92142
21
2.72566
0
LINE
8
BLACK
6
CONTINUOUS
10
2.92142
20
2.72566
11
2.92433
21
2.72274
0
LINE
8
BLACK
6
CONTINUOUS
10
2.92433
20
2.72274
11
2.92737
21
2.72122
0
LINE
8
BLACK
6
CONTINUOUS
10
2.92737
20
2.72122
11
2.9342
21
2.71951
0
LINE
8
BLACK
6
CONTINUOUS
10
2.9342
20
2.71951
11
2.9391
21
2.71951
0
LINE
8
BLACK
6
CONTINUOUS
10
2.9391
20
2.71951
11
2.94593
21
2.72122
0
LINE
8
BLACK
6
CONTINUOUS
10
2.94593
20
2.72122
11
2.94896
21
2.72274
0
LINE
8
BLACK
6
CONTINUOUS
10
2.94896
20
2.72274
11
2.95188
21
2.72566
0
LINE
8
BLACK
6
CONTINUOUS
10
2.95188
20
2.72566
11
2.95338
21
2.73016
0
LINE
8
BLACK
6
CONTINUOUS
10
2.95338
20
2.73016
11
2.95338
21
2.73611
0
LINE
8
BLACK
6
CONTINUOUS
10
2.95338
20
2.73611
11
2.91991
21
2.73611
0
LINE
8
BLACK
6
CONTINUOUS
10
2.91991
20
2.73611
11
2.91991
21
2.73016
0
LINE
8
BLACK
6
CONTINUOUS
10
2.67667
20
2.74167
11
2.67736
21
2.74
0
LINE
8
BLACK
6
CONTINUOUS
10
2.67736
20
2.74
11
2.67667
21
2.73833
0
LINE
8
BLACK
6
CONTINUOUS
10
2.67667
20
2.73833
11
2.675
21
2.73764
0
LINE
8
BLACK
6
CONTINUOUS
10
2.675
20
2.73764
11
2.645
21
2.73764
0
LINE
8
BLACK
6
CONTINUOUS
10
2.645
20
2.73764
11
2.64333
21
2.73833
0
LINE
8
BLACK
6
CONTINUOUS
10
2.64333
20
2.73833
11
2.64264
21
2.74
0
LINE
8
BLACK
6
CONTINUOUS
10
2.64264
20
2.74
11
2.64333
21
2.74167
0
LINE
8
BLACK
6
CONTINUOUS
10
2.64333
20
2.74167
11
2.645
21
2.74236
0
LINE
8
BLACK
6
CONTINUOUS
10
2.645
20
2.74236
11
2.675
21
2.74236
0
LINE
8
BLACK
6
CONTINUOUS
10
2.675
20
2.74236
11
2.67667
21
2.74167
0
LINE
8
BLACK
6
CONTINUOUS
10
2.60226
20
2.8419
11
2.60295
21
2.84
0
LINE
8
BLACK
6
CONTINUOUS
10
2.60295
20
2.84
11
2.60295
21
2.78
0
LINE
8
BLACK
6
CONTINUOUS
10
2.60295
20
2.78
11
2.60277
21
2.77899
0
LINE
8
BLACK
6
CONTINUOUS
10
2.60277
20
2.77899
11
2.60148
21
2.77744
0
LINE
8
BLACK
6
CONTINUOUS
10
2.60148
20
2.77744
11
2.59949
21
2.77709
0
LINE
8
BLACK
6
CONTINUOUS
10
2.59949
20
2.77709
11
2.59774
21
2.7781
0
LINE
8
BLACK
6
CONTINUOUS
10
2.59774
20
2.7781
11
2.59705
21
2.78
0
LINE
8
BLACK
6
CONTINUOUS
10
2.59705
20
2.78
11
2.59705
21
2.84
0
LINE
8
BLACK
6
CONTINUOUS
10
2.59705
20
2.84
11
2.59723
21
2.84101
0
LINE
8
BLACK
6
CONTINUOUS
10
2.59723
20
2.84101
11
2.59852
21
2.84256
0
LINE
8
BLACK
6
CONTINUOUS
10
2.59852
20
2.84256
11
2.60051
21
2.84291
0
LINE
8
BLACK
6
CONTINUOUS
10
2.60051
20
2.84291
11
2.60226
21
2.8419
0
LINE
8
BLACK
6
CONTINUOUS
10
2.72226
20
2.8419
11
2.72295
21
2.84
0
LINE
8
BLACK
6
CONTINUOUS
10
2.72295
20
2.84
11
2.72295
21
2.78
0
LINE
8
BLACK
6
CONTINUOUS
10
2.72295
20
2.78
11
2.72277
21
2.77899
0
LINE
8
BLACK
6
CONTINUOUS
10
2.72277
20
2.77899
11
2.72148
21
2.77744
0
LINE
8
BLACK
6
CONTINUOUS
10
2.72148
20
2.77744
11
2.71949
21
2.77709
0
LINE
8
BLACK
6
CONTINUOUS
10
2.71949
20
2.77709
11
2.71774
21
2.7781
0
LINE
8
BLACK
6
CONTINUOUS
10
2.71774
20
2.7781
11
2.71705
21
2.78
0
LINE
8
BLACK
6
CONTINUOUS
10
2.71705
20
2.78
11
2.71705
21
2.84
0
LINE
8
BLACK
6
CONTINUOUS
10
2.71705
20
2.84
11
2.71723
21
2.84101
0
LINE
8
BLACK
6
CONTINUOUS
10
2.71723
20
2.84101
11
2.71852
21
2.84256
0
LINE
8
BLACK
6
CONTINUOUS
10
2.71852
20
2.84256
11
2.72051
21
2.84291
0
LINE
8
BLACK
6
CONTINUOUS
10
2.72051
20
2.84291
11
2.72226
21
2.8419
0
LINE
8
BLACK
6
CONTINUOUS
10
2.67667
20
2.78167
11
2.67736
21
2.78
0
LINE
8
BLACK
6
CONTINUOUS
10
2.67736
20
2.78
11
2.67667
21
2.77833
0
LINE
8
BLACK
6
CONTINUOUS
10
2.67667
20
2.77833
11
2.675
21
2.77764
0
LINE
8
BLACK
6
CONTINUOUS
10
2.675
20
2.77764
11
2.645
21
2.77764
0
LINE
8
BLACK
6
CONTINUOUS
10
2.645
20
2.77764
11
2.64333
21
2.77833
0
LINE
8
BLACK
6
CONTINUOUS
10
2.64333
20
2.77833
11
2.64264
21
2.78
0
LINE
8
BLACK
6
CONTINUOUS
10
2.64264
20
2.78
11
2.64333
21
2.78167
0
LINE
8
BLACK
6
CONTINUOUS
10
2.64333
20
2.78167
11
2.645
21
2.78236
0
LINE
8
BLACK
6
CONTINUOUS
10
2.645
20
2.78236
11
2.675
21
2.78236
0
LINE
8
BLACK
6
CONTINUOUS
10
2.675
20
2.78236
11
2.67667
21
2.78167
0
LINE
8
BLACK
6
CONTINUOUS
10
2.67667
20
2.84167
11
2.67736
21
2.84
0
LINE
8
BLACK
6
CONTINUOUS
10
2.67736
20
2.84
11
2.67667
21
2.83833
0
LINE
8
BLACK
6
CONTINUOUS
10
2.67667
20
2.83833
11
2.675
21
2.83764
0
LINE
8
BLACK
6
CONTINUOUS
10
2.675
20
2.83764
11
2.645
21
2.83764
0
LINE
8
BLACK
6
CONTINUOUS
10
2.645
20
2.83764
11
2.64333
21
2.83833
0
LINE
8
BLACK
6
CONTINUOUS
10
2.64333
20
2.83833
11
2.64264
21
2.84
0
LINE
8
BLACK
6
CONTINUOUS
10
2.64264
20
2.84
11
2.64333
21
2.84167
0
LINE
8
BLACK
6
CONTINUOUS
10
2.64333
20
2.84167
11
2.645
21
2.84236
0
LINE
8
BLACK
6
CONTINUOUS
10
2.645
20
2.84236
11
2.675
21
2.84236
0
LINE
8
BLACK
6
CONTINUOUS
10
2.675
20
2.84236
11
2.67667
21
2.84167
0
LINE
8
BLACK
6
CONTINUOUS
10
2.04449
20
2.86777
11
2.04616
21
2.86708
0
LINE
8
BLACK
6
CONTINUOUS
10
2.04616
20
2.86708
11
2.04685
21
2.86541
0
LINE
8
BLACK
6
CONTINUOUS
10
2.04685
20
2.86541
11
2.04685
21
2.8595
0
LINE
8
BLACK
6
CONTINUOUS
10
2.04685
20
2.8595
11
2.04616
21
2.85783
0
LINE
8
BLACK
6
CONTINUOUS
10
2.04616
20
2.85783
11
2.04449
21
2.85714
0
LINE
8
BLACK
6
CONTINUOUS
10
2.04449
20
2.85714
11
2.04282
21
2.85783
0
LINE
8
BLACK
6
CONTINUOUS
10
2.04282
20
2.85783
11
2.04213
21
2.8595
0
LINE
8
BLACK
6
CONTINUOUS
10
2.04213
20
2.8595
11
2.04213
21
2.86304
0
LINE
8
BLACK
6
CONTINUOUS
10
2.04213
20
2.86304
11
1.85787
21
2.86304
0
LINE
8
BLACK
6
CONTINUOUS
10
1.85787
20
2.86304
11
1.85787
21
2.8595
0
LINE
8
BLACK
6
CONTINUOUS
10
1.85787
20
2.8595
11
1.85718
21
2.85783
0
LINE
8
BLACK
6
CONTINUOUS
10
1.85718
20
2.85783
11
1.85551
21
2.85714
0
LINE
8
BLACK
6
CONTINUOUS
10
1.85551
20
2.85714
11
1.85384
21
2.85783
0
LINE
8
BLACK
6
CONTINUOUS
10
1.85384
20
2.85783
11
1.85315
21
2.8595
0
LINE
8
BLACK
6
CONTINUOUS
10
1.85315
20
2.8595
11
1.85315
21
2.86541
0
LINE
8
BLACK
6
CONTINUOUS
10
1.85315
20
2.86541
11
1.85384
21
2.86708
0
LINE
8
BLACK
6
CONTINUOUS
10
1.85384
20
2.86708
11
1.85551
21
2.86777
0
LINE
8
BLACK
6
CONTINUOUS
10
1.85551
20
2.86777
11
2.04449
21
2.86777
0
LINE
8
BLACK
6
CONTINUOUS
10
2.60226
20
2.9419
11
2.60295
21
2.94
0
LINE
8
BLACK
6
CONTINUOUS
10
2.60295
20
2.94
11
2.60295
21
2.88
0
LINE
8
BLACK
6
CONTINUOUS
10
2.60295
20
2.88
11
2.60277
21
2.87899
0
LINE
8
BLACK
6
CONTINUOUS
10
2.60277
20
2.87899
11
2.60148
21
2.87744
0
LINE
8
BLACK
6
CONTINUOUS
10
2.60148
20
2.87744
11
2.59949
21
2.87709
0
LINE
8
BLACK
6
CONTINUOUS
10
2.59949
20
2.87709
11
2.59774
21
2.8781
0
LINE
8
BLACK
6
CONTINUOUS
10
2.59774
20
2.8781
11
2.59705
21
2.88
0
LINE
8
BLACK
6
CONTINUOUS
10
2.59705
20
2.88
11
2.59705
21
2.94
0
LINE
8
BLACK
6
CONTINUOUS
10
2.59705
20
2.94
11
2.59723
21
2.94101
0
LINE
8
BLACK
6
CONTINUOUS
10
2.59723
20
2.94101
11
2.59852
21
2.94256
0
LINE
8
BLACK
6
CONTINUOUS
10
2.59852
20
2.94256
11
2.60051
21
2.94291
0
LINE
8
BLACK
6
CONTINUOUS
10
2.60051
20
2.94291
11
2.60226
21
2.9419
0
LINE
8
BLACK
6
CONTINUOUS
10
2.72226
20
2.9419
11
2.72295
21
2.94
0
LINE
8
BLACK
6
CONTINUOUS
10
2.72295
20
2.94
11
2.72295
21
2.88
0
LINE
8
BLACK
6
CONTINUOUS
10
2.72295
20
2.88
11
2.72277
21
2.87899
0
LINE
8
BLACK
6
CONTINUOUS
10
2.72277
20
2.87899
11
2.72148
21
2.87744
0
LINE
8
BLACK
6
CONTINUOUS
10
2.72148
20
2.87744
11
2.71949
21
2.87709
0
LINE
8
BLACK
6
CONTINUOUS
10
2.71949
20
2.87709
11
2.71774
21
2.8781
0
LINE
8
BLACK
6
CONTINUOUS
10
2.71774
20
2.8781
11
2.71705
21
2.88
0
LINE
8
BLACK
6
CONTINUOUS
10
2.71705
20
2.88
11
2.71705
21
2.94
0
LINE
8
BLACK
6
CONTINUOUS
10
2.71705
20
2.94
11
2.71723
21
2.94101
0
LINE
8
BLACK
6
CONTINUOUS
10
2.71723
20
2.94101
11
2.71852
21
2.94256
0
LINE
8
BLACK
6
CONTINUOUS
10
2.71852
20
2.94256
11
2.72051
21
2.94291
0
LINE
8
BLACK
6
CONTINUOUS
10
2.72051
20
2.94291
11
2.72226
21
2.9419
0
LINE
8
BLACK
6
CONTINUOUS
10
2.67667
20
2.88167
11
2.67736
21
2.88
0
LINE
8
BLACK
6
CONTINUOUS
10
2.67736
20
2.88
11
2.67667
21
2.87833
0
LINE
8
BLACK
6
CONTINUOUS
10
2.67667
20
2.87833
11
2.675
21
2.87764
0
LINE
8
BLACK
6
CONTINUOUS
10
2.675
20
2.87764
11
2.645
21
2.87764
0
LINE
8
BLACK
6
CONTINUOUS
10
2.645
20
2.87764
11
2.64333
21
2.87833
0
LINE
8
BLACK
6
CONTINUOUS
10
2.64333
20
2.87833
11
2.64264
21
2.88
0
LINE
8
BLACK
6
CONTINUOUS
10
2.64264
20
2.88
11
2.64333
21
2.88167
0
LINE
8
BLACK
6
CONTINUOUS
10
2.64333
20
2.88167
11
2.645
21
2.88236
0
LINE
8
BLACK
6
CONTINUOUS
10
2.645
20
2.88236
11
2.675
21
2.88236
0
LINE
8
BLACK
6
CONTINUOUS
10
2.675
20
2.88236
11
2.67667
21
2.88167
0
LINE
8
BLACK
6
CONTINUOUS
10
2.67667
20
2.94167
11
2.67736
21
2.94
0
LINE
8
BLACK
6
CONTINUOUS
10
2.67736
20
2.94
11
2.67667
21
2.93833
0
LINE
8
BLACK
6
CONTINUOUS
10
2.67667
20
2.93833
11
2.675
21
2.93764
0
LINE
8
BLACK
6
CONTINUOUS
10
2.675
20
2.93764
11
2.645
21
2.93764
0
LINE
8
BLACK
6
CONTINUOUS
10
2.645
20
2.93764
11
2.64333
21
2.93833
0
LINE
8
BLACK
6
CONTINUOUS
10
2.64333
20
2.93833
11
2.64264
21
2.94
0
LINE
8
BLACK
6
CONTINUOUS
10
2.64264
20
2.94
11
2.64333
21
2.94167
0
LINE
8
BLACK
6
CONTINUOUS
10
2.64333
20
2.94167
11
2.645
21
2.94236
0
LINE
8
BLACK
6
CONTINUOUS
10
2.645
20
2.94236
11
2.675
21
2.94236
0
LINE
8
BLACK
6
CONTINUOUS
10
2.675
20
2.94236
11
2.67667
21
2.94167
0
LINE
8
BLACK
6
CONTINUOUS
10
2.07101
20
2.98236
11
2.07256
21
2.98106
0
LINE
8
BLACK
6
CONTINUOUS
10
2.07256
20
2.98106
11
2.07291
21
2.97907
0
LINE
8
BLACK
6
CONTINUOUS
10
2.07291
20
2.97907
11
2.0719
21
2.97732
0
LINE
8
BLACK
6
CONTINUOUS
10
2.0719
20
2.97732
11
2.07
21
2.97663
0
LINE
8
BLACK
6
CONTINUOUS
10
2.07
20
2.97663
11
2.01
21
2.97663
0
LINE
8
BLACK
6
CONTINUOUS
10
2.01
20
2.97663
11
2.00899
21
2.97681
0
LINE
8
BLACK
6
CONTINUOUS
10
2.00899
20
2.97681
11
2.00744
21
2.97811
0
LINE
8
BLACK
6
CONTINUOUS
10
2.00744
20
2.97811
11
2.00709
21
2.9801
0
LINE
8
BLACK
6
CONTINUOUS
10
2.00709
20
2.9801
11
2.0081
21
2.98185
0
LINE
8
BLACK
6
CONTINUOUS
10
2.0081
20
2.98185
11
2.01
21
2.98254
0
LINE
8
BLACK
6
CONTINUOUS
10
2.01
20
2.98254
11
2.07
21
2.98254
0
LINE
8
BLACK
6
CONTINUOUS
10
2.07
20
2.98254
11
2.07101
21
2.98236
0
LINE
8
BLACK
6
CONTINUOUS
10
2.60226
20
3.0419
11
2.60295
21
3.04
0
LINE
8
BLACK
6
CONTINUOUS
10
2.60295
20
3.04
11
2.60295
21
2.98
0
LINE
8
BLACK
6
CONTINUOUS
10
2.60295
20
2.98
11
2.60277
21
2.97899
0
LINE
8
BLACK
6
CONTINUOUS
10
2.60277
20
2.97899
11
2.60148
21
2.97744
0
LINE
8
BLACK
6
CONTINUOUS
10
2.60148
20
2.97744
11
2.59949
21
2.97709
0
LINE
8
BLACK
6
CONTINUOUS
10
2.59949
20
2.97709
11
2.59774
21
2.9781
0
LINE
8
BLACK
6
CONTINUOUS
10
2.59774
20
2.9781
11
2.59705
21
2.98
0
LINE
8
BLACK
6
CONTINUOUS
10
2.59705
20
2.98
11
2.59705
21
3.04
0
LINE
8
BLACK
6
CONTINUOUS
10
2.59705
20
3.04
11
2.59723
21
3.04101
0
LINE
8
BLACK
6
CONTINUOUS
10
2.59723
20
3.04101
11
2.59852
21
3.04256
0
LINE
8
BLACK
6
CONTINUOUS
10
2.59852
20
3.04256
11
2.60051
21
3.04291
0
LINE
8
BLACK
6
CONTINUOUS
10
2.60051
20
3.04291
11
2.60226
21
3.0419
0
LINE
8
BLACK
6
CONTINUOUS
10
2.72226
20
3.0419
11
2.72295
21
3.04
0
LINE
8
BLACK
6
CONTINUOUS
10
2.72295
20
3.04
11
2.72295
21
2.98
0
LINE
8
BLACK
6
CONTINUOUS
10
2.72295
20
2.98
11
2.72277
21
2.97899
0
LINE
8
BLACK
6
CONTINUOUS
10
2.72277
20
2.97899
11
2.72148
21
2.97744
0
LINE
8
BLACK
6
CONTINUOUS
10
2.72148
20
2.97744
11
2.71949
21
2.97709
0
LINE
8
BLACK
6
CONTINUOUS
10
2.71949
20
2.97709
11
2.71774
21
2.9781
0
LINE
8
BLACK
6
CONTINUOUS
10
2.71774
20
2.9781
11
2.71705
21
2.98
0
LINE
8
BLACK
6
CONTINUOUS
10
2.71705
20
2.98
11
2.71705
21
3.04
0
LINE
8
BLACK
6
CONTINUOUS
10
2.71705
20
3.04
11
2.71723
21
3.04101
0
LINE
8
BLACK
6
CONTINUOUS
10
2.71723
20
3.04101
11
2.71852
21
3.04256
0
LINE
8
BLACK
6
CONTINUOUS
10
2.71852
20
3.04256
11
2.72051
21
3.04291
0
LINE
8
BLACK
6
CONTINUOUS
10
2.72051
20
3.04291
11
2.72226
21
3.0419
0
LINE
8
BLACK
6
CONTINUOUS
10
2.67667
20
2.98167
11
2.67736
21
2.98
0
LINE
8
BLACK
6
CONTINUOUS
10
2.67736
20
2.98
11
2.67667
21
2.97833
0
LINE
8
BLACK
6
CONTINUOUS
10
2.67667
20
2.97833
11
2.675
21
2.97764
0
LINE
8
BLACK
6
CONTINUOUS
10
2.675
20
2.97764
11
2.645
21
2.97764
0
LINE
8
BLACK
6
CONTINUOUS
10
2.645
20
2.97764
11
2.64333
21
2.97833
0
LINE
8
BLACK
6
CONTINUOUS
10
2.64333
20
2.97833
11
2.64264
21
2.98
0
LINE
8
BLACK
6
CONTINUOUS
10
2.64264
20
2.98
11
2.64333
21
2.98167
0
LINE
8
BLACK
6
CONTINUOUS
10
2.64333
20
2.98167
11
2.645
21
2.98236
0
LINE
8
BLACK
6
CONTINUOUS
10
2.645
20
2.98236
11
2.675
21
2.98236
0
LINE
8
BLACK
6
CONTINUOUS
10
2.675
20
2.98236
11
2.67667
21
2.98167
0
LINE
8
BLACK
6
CONTINUOUS
10
2.01167
20
3.05625
11
2.01236
21
3.05458
0
LINE
8
BLACK
6
CONTINUOUS
10
2.01236
20
3.05458
11
2.01236
21
3.02458
0
LINE
8
BLACK
6
CONTINUOUS
10
2.01236
20
3.02458
11
2.01167
21
3.02291
0
LINE
8
BLACK
6
CONTINUOUS
10
2.01167
20
3.02291
11
2.01
21
3.02222
0
LINE
8
BLACK
6
CONTINUOUS
10
2.01
20
3.02222
11
2.00833
21
3.02291
0
LINE
8
BLACK
6
CONTINUOUS
10
2.00833
20
3.02291
11
2.00764
21
3.02458
0
LINE
8
BLACK
6
CONTINUOUS
10
2.00764
20
3.02458
11
2.00764
21
3.05458
0
LINE
8
BLACK
6
CONTINUOUS
10
2.00764
20
3.05458
11
2.00833
21
3.05625
0
LINE
8
BLACK
6
CONTINUOUS
10
2.00833
20
3.05625
11
2.01
21
3.05695
0
LINE
8
BLACK
6
CONTINUOUS
10
2.01
20
3.05695
11
2.01167
21
3.05625
0
LINE
8
BLACK
6
CONTINUOUS
10
2.07167
20
3.05625
11
2.07236
21
3.05458
0
LINE
8
BLACK
6
CONTINUOUS
10
2.07236
20
3.05458
11
2.07236
21
3.02458
0
LINE
8
BLACK
6
CONTINUOUS
10
2.07236
20
3.02458
11
2.07167
21
3.02291
0
LINE
8
BLACK
6
CONTINUOUS
10
2.07167
20
3.02291
11
2.07
21
3.02222
0
LINE
8
BLACK
6
CONTINUOUS
10
2.07
20
3.02222
11
2.06833
21
3.02291
0
LINE
8
BLACK
6
CONTINUOUS
10
2.06833
20
3.02291
11
2.06764
21
3.02458
0
LINE
8
BLACK
6
CONTINUOUS
10
2.06764
20
3.02458
11
2.06764
21
3.05458
0
LINE
8
BLACK
6
CONTINUOUS
10
2.06764
20
3.05458
11
2.06833
21
3.05625
0
LINE
8
BLACK
6
CONTINUOUS
10
2.06833
20
3.05625
11
2.07
21
3.05695
0
LINE
8
BLACK
6
CONTINUOUS
10
2.07
20
3.05695
11
2.07167
21
3.05625
0
LINE
8
BLACK
6
CONTINUOUS
10
2.67667
20
3.04167
11
2.67736
21
3.04
0
LINE
8
BLACK
6
CONTINUOUS
10
2.67736
20
3.04
11
2.67667
21
3.03833
0
LINE
8
BLACK
6
CONTINUOUS
10
2.67667
20
3.03833
11
2.675
21
3.03764
0
LINE
8
BLACK
6
CONTINUOUS
10
2.675
20
3.03764
11
2.645
21
3.03764
0
LINE
8
BLACK
6
CONTINUOUS
10
2.645
20
3.03764
11
2.64333
21
3.03833
0
LINE
8
BLACK
6
CONTINUOUS
10
2.64333
20
3.03833
11
2.64264
21
3.04
0
LINE
8
BLACK
6
CONTINUOUS
10
2.64264
20
3.04
11
2.64333
21
3.04167
0
LINE
8
BLACK
6
CONTINUOUS
10
2.64333
20
3.04167
11
2.645
21
3.04236
0
LINE
8
BLACK
6
CONTINUOUS
10
2.645
20
3.04236
11
2.675
21
3.04236
0
LINE
8
BLACK
6
CONTINUOUS
10
2.675
20
3.04236
11
2.67667
21
3.04167
0
LINE
8
BLACK
6
CONTINUOUS
10
2.60226
20
3.1419
11
2.60295
21
3.14
0
LINE
8
BLACK
6
CONTINUOUS
10
2.60295
20
3.14
11
2.60295
21
3.08
0
LINE
8
BLACK
6
CONTINUOUS
10
2.60295
20
3.08
11
2.60277
21
3.07899
0
LINE
8
BLACK
6
CONTINUOUS
10
2.60277
20
3.07899
11
2.60148
21
3.07744
0
LINE
8
BLACK
6
CONTINUOUS
10
2.60148
20
3.07744
11
2.59949
21
3.07709
0
LINE
8
BLACK
6
CONTINUOUS
10
2.59949
20
3.07709
11
2.59774
21
3.0781
0
LINE
8
BLACK
6
CONTINUOUS
10
2.59774
20
3.0781
11
2.59705
21
3.08
0
LINE
8
BLACK
6
CONTINUOUS
10
2.59705
20
3.08
11
2.59705
21
3.14
0
LINE
8
BLACK
6
CONTINUOUS
10
2.59705
20
3.14
11
2.59723
21
3.14101
0
LINE
8
BLACK
6
CONTINUOUS
10
2.59723
20
3.14101
11
2.59852
21
3.14256
0
LINE
8
BLACK
6
CONTINUOUS
10
2.59852
20
3.14256
11
2.60051
21
3.14291
0
LINE
8
BLACK
6
CONTINUOUS
10
2.60051
20
3.14291
11
2.60226
21
3.1419
0
LINE
8
BLACK
6
CONTINUOUS
10
2.72226
20
3.1419
11
2.72295
21
3.14
0
LINE
8
BLACK
6
CONTINUOUS
10
2.72295
20
3.14
11
2.72295
21
3.08
0
LINE
8
BLACK
6
CONTINUOUS
10
2.72295
20
3.08
11
2.72277
21
3.07899
0
LINE
8
BLACK
6
CONTINUOUS
10
2.72277
20
3.07899
11
2.72148
21
3.07744
0
LINE
8
BLACK
6
CONTINUOUS
10
2.72148
20
3.07744
11
2.71949
21
3.07709
0
LINE
8
BLACK
6
CONTINUOUS
10
2.71949
20
3.07709
11
2.71774
21
3.0781
0
LINE
8
BLACK
6
CONTINUOUS
10
2.71774
20
3.0781
11
2.71705
21
3.08
0
LINE
8
BLACK
6
CONTINUOUS
10
2.71705
20
3.08
11
2.71705
21
3.14
0
LINE
8
BLACK
6
CONTINUOUS
10
2.71705
20
3.14
11
2.71723
21
3.14101
0
LINE
8
BLACK
6
CONTINUOUS
10
2.71723
20
3.14101
11
2.71852
21
3.14256
0
LINE
8
BLACK
6
CONTINUOUS
10
2.71852
20
3.14256
11
2.72051
21
3.14291
0
LINE
8
BLACK
6
CONTINUOUS
10
2.72051
20
3.14291
11
2.72226
21
3.1419
0
LINE
8
BLACK
6
CONTINUOUS
10
2.67667
20
3.08167
11
2.67736
21
3.08
0
LINE
8
BLACK
6
CONTINUOUS
10
2.67736
20
3.08
11
2.67667
21
3.07833
0
LINE
8
BLACK
6
CONTINUOUS
10
2.67667
20
3.07833
11
2.675
21
3.07764
0
LINE
8
BLACK
6
CONTINUOUS
10
2.675
20
3.07764
11
2.645
21
3.07764
0
LINE
8
BLACK
6
CONTINUOUS
10
2.645
20
3.07764
11
2.64333
21
3.07833
0
LINE
8
BLACK
6
CONTINUOUS
10
2.64333
20
3.07833
11
2.64264
21
3.08
0
LINE
8
BLACK
6
CONTINUOUS
10
2.64264
20
3.08
11
2.64333
21
3.08167
0
LINE
8
BLACK
6
CONTINUOUS
10
2.64333
20
3.08167
11
2.645
21
3.08236
0
LINE
8
BLACK
6
CONTINUOUS
10
2.645
20
3.08236
11
2.675
21
3.08236
0
LINE
8
BLACK
6
CONTINUOUS
10
2.675
20
3.08236
11
2.67667
21
3.08167
0
LINE
8
BLACK
6
CONTINUOUS
10
1.93601
20
3.12627
11
1.93615
21
3.12616
0
LINE
8
BLACK
6
CONTINUOUS
10
1.93615
20
3.12616
11
1.93632
21
3.12614
0
LINE
8
BLACK
6
CONTINUOUS
10
1.93632
20
3.12614
11
1.94007
21
3.12426
0
LINE
8
BLACK
6
CONTINUOUS
10
1.94007
20
3.12426
11
1.94078
21
3.12374
0
LINE
8
BLACK
6
CONTINUOUS
10
1.94078
20
3.12374
11
1.94084
21
3.12371
0
LINE
8
BLACK
6
CONTINUOUS
10
1.94084
20
3.12371
11
1.94271
21
3.12184
0
LINE
8
BLACK
6
CONTINUOUS
10
1.94271
20
3.12184
11
1.9433
21
3.121
0
LINE
8
BLACK
6
CONTINUOUS
10
1.9433
20
3.121
11
1.94348
21
3.11898
0
LINE
8
BLACK
6
CONTINUOUS
10
1.94348
20
3.11898
11
1.94232
21
3.11733
0
LINE
8
BLACK
6
CONTINUOUS
10
1.94232
20
3.11733
11
1.94037
21
3.11681
0
LINE
8
BLACK
6
CONTINUOUS
10
1.94037
20
3.11681
11
1.93854
21
3.11766
0
LINE
8
BLACK
6
CONTINUOUS
10
1.93854
20
3.11766
11
1.937
21
3.1192
0
LINE
8
BLACK
6
CONTINUOUS
10
1.937
20
3.1192
11
1.9343
21
3.12055
0
LINE
8
BLACK
6
CONTINUOUS
10
1.9343
20
3.12055
11
1.92633
21
3.12055
0
LINE
8
BLACK
6
CONTINUOUS
10
1.92633
20
3.12055
11
1.92363
21
3.1192
0
LINE
8
BLACK
6
CONTINUOUS
10
1.92363
20
3.1192
11
1.92243
21
3.118
0
LINE
8
BLACK
6
CONTINUOUS
10
1.92243
20
3.118
11
1.92108
21
3.1153
0
LINE
8
BLACK
6
CONTINUOUS
10
1.92108
20
3.1153
11
1.92108
21
3.11273
0
LINE
8
BLACK
6
CONTINUOUS
10
1.92108
20
3.11273
11
1.92258
21
3.10822
0
LINE
8
BLACK
6
CONTINUOUS
10
1.92258
20
3.10822
11
1.94459
21
3.08622
0
LINE
8
BLACK
6
CONTINUOUS
10
1.94459
20
3.08622
11
1.94496
21
3.08569
0
LINE
8
BLACK
6
CONTINUOUS
10
1.94496
20
3.08569
11
1.94506
21
3.0856
0
LINE
8
BLACK
6
CONTINUOUS
10
1.94506
20
3.0856
11
1.94507
21
3.08553
0
LINE
8
BLACK
6
CONTINUOUS
10
1.94507
20
3.08553
11
1.94518
21
3.08538
0
LINE
8
BLACK
6
CONTINUOUS
10
1.94518
20
3.08538
11
1.94525
21
3.08449
0
LINE
8
BLACK
6
CONTINUOUS
10
1.94525
20
3.08449
11
1.94541
21
3.08362
0
LINE
8
BLACK
6
CONTINUOUS
10
1.94541
20
3.08362
11
1.94534
21
3.0835
0
LINE
8
BLACK
6
CONTINUOUS
10
1.94534
20
3.0835
11
1.94535
21
3.08336
0
LINE
8
BLACK
6
CONTINUOUS
10
1.94535
20
3.08336
11
1.94484
21
3.08264
0
LINE
8
BLACK
6
CONTINUOUS
10
1.94484
20
3.08264
11
1.9444
21
3.08187
0
LINE
8
BLACK
6
CONTINUOUS
10
1.9444
20
3.08187
11
1.94427
21
3.08182
0
LINE
8
BLACK
6
CONTINUOUS
10
1.94427
20
3.08182
11
1.94419
21
3.08171
0
LINE
8
BLACK
6
CONTINUOUS
10
1.94419
20
3.08171
11
1.94334
21
3.08148
0
LINE
8
BLACK
6
CONTINUOUS
10
1.94334
20
3.08148
11
1.9425
21
3.08118
0
LINE
8
BLACK
6
CONTINUOUS
10
1.9425
20
3.08118
11
1.91813
21
3.08118
0
LINE
8
BLACK
6
CONTINUOUS
10
1.91813
20
3.08118
11
1.91712
21
3.08135
0
LINE
8
BLACK
6
CONTINUOUS
10
1.91712
20
3.08135
11
1.91557
21
3.08265
0
LINE
8
BLACK
6
CONTINUOUS
10
1.91557
20
3.08265
11
1.91522
21
3.08464
0
LINE
8
BLACK
6
CONTINUOUS
10
1.91522
20
3.08464
11
1.91623
21
3.08639
0
LINE
8
BLACK
6
CONTINUOUS
10
1.91623
20
3.08639
11
1.91813
21
3.08708
0
LINE
8
BLACK
6
CONTINUOUS
10
1.91813
20
3.08708
11
1.93537
21
3.08708
0
LINE
8
BLACK
6
CONTINUOUS
10
1.93537
20
3.08708
11
1.91792
21
3.10454
0
LINE
8
BLACK
6
CONTINUOUS
10
1.91792
20
3.10454
11
1.91733
21
3.10538
0
LINE
8
BLACK
6
CONTINUOUS
10
1.91733
20
3.10538
11
1.91731
21
3.10555
0
LINE
8
BLACK
6
CONTINUOUS
10
1.91731
20
3.10555
11
1.9172
21
3.10569
0
LINE
8
BLACK
6
CONTINUOUS
10
1.9172
20
3.10569
11
1.91533
21
3.11132
0
LINE
8
BLACK
6
CONTINUOUS
10
1.91533
20
3.11132
11
1.9152
21
3.11219
0
LINE
8
BLACK
6
CONTINUOUS
10
1.9152
20
3.11219
11
1.91518
21
3.11225
0
LINE
8
BLACK
6
CONTINUOUS
10
1.91518
20
3.11225
11
1.91518
21
3.116
0
LINE
8
BLACK
6
CONTINUOUS
10
1.91518
20
3.116
11
1.91535
21
3.11701
0
LINE
8
BLACK
6
CONTINUOUS
10
1.91535
20
3.11701
11
1.91547
21
3.11714
0
LINE
8
BLACK
6
CONTINUOUS
10
1.91547
20
3.11714
11
1.91549
21
3.11732
0
LINE
8
BLACK
6
CONTINUOUS
10
1.91549
20
3.11732
11
1.91736
21
3.12107
0
LINE
8
BLACK
6
CONTINUOUS
10
1.91736
20
3.12107
11
1.91789
21
3.12178
0
LINE
8
BLACK
6
CONTINUOUS
10
1.91789
20
3.12178
11
1.91792
21
3.12184
0
LINE
8
BLACK
6
CONTINUOUS
10
1.91792
20
3.12184
11
1.91979
21
3.12371
0
LINE
8
BLACK
6
CONTINUOUS
10
1.91979
20
3.12371
11
1.92051
21
3.12422
0
LINE
8
BLACK
6
CONTINUOUS
10
1.92051
20
3.12422
11
1.92056
21
3.12426
0
LINE
8
BLACK
6
CONTINUOUS
10
1.92056
20
3.12426
11
1.92431
21
3.12614
0
LINE
8
BLACK
6
CONTINUOUS
10
1.92431
20
3.12614
11
1.92529
21
3.12643
0
LINE
8
BLACK
6
CONTINUOUS
10
1.92529
20
3.12643
11
1.92546
21
3.12639
0
LINE
8
BLACK
6
CONTINUOUS
10
1.92546
20
3.12639
11
1.92563
21
3.12645
0
LINE
8
BLACK
6
CONTINUOUS
10
1.92563
20
3.12645
11
1.935
21
3.12645
0
LINE
8
BLACK
6
CONTINUOUS
10
1.935
20
3.12645
11
1.93601
21
3.12627
0
LINE
8
BLACK
6
CONTINUOUS
10
1.98226
20
3.1254
11
1.98295
21
3.1235
0
LINE
8
BLACK
6
CONTINUOUS
10
1.98295
20
3.1235
11
1.98295
21
3.09163
0
LINE
8
BLACK
6
CONTINUOUS
10
1.98295
20
3.09163
11
1.98277
21
3.09062
0
LINE
8
BLACK
6
CONTINUOUS
10
1.98277
20
3.09062
11
1.98266
21
3.09048
0
LINE
8
BLACK
6
CONTINUOUS
10
1.98266
20
3.09048
11
1.98264
21
3.09031
0
LINE
8
BLACK
6
CONTINUOUS
10
1.98264
20
3.09031
11
1.98076
21
3.08656
0
LINE
8
BLACK
6
CONTINUOUS
10
1.98076
20
3.08656
11
1.98024
21
3.08585
0
LINE
8
BLACK
6
CONTINUOUS
10
1.98024
20
3.08585
11
1.98021
21
3.08579
0
LINE
8
BLACK
6
CONTINUOUS
10
1.98021
20
3.08579
11
1.97833
21
3.08391
0
LINE
8
BLACK
6
CONTINUOUS
10
1.97833
20
3.08391
11
1.97761
21
3.08341
0
LINE
8
BLACK
6
CONTINUOUS
10
1.97761
20
3.08341
11
1.97757
21
3.08336
0
LINE
8
BLACK
6
CONTINUOUS
10
1.97757
20
3.08336
11
1.97382
21
3.08149
0
LINE
8
BLACK
6
CONTINUOUS
10
1.97382
20
3.08149
11
1.97283
21
3.08119
0
LINE
8
BLACK
6
CONTINUOUS
10
1.97283
20
3.08119
11
1.97266
21
3.08124
0
LINE
8
BLACK
6
CONTINUOUS
10
1.97266
20
3.08124
11
1.9725
21
3.08118
0
LINE
8
BLACK
6
CONTINUOUS
10
1.9725
20
3.08118
11
1.965
21
3.08118
0
LINE
8
BLACK
6
CONTINUOUS
10
1.965
20
3.08118
11
1.96399
21
3.08135
0
LINE
8
BLACK
6
CONTINUOUS
10
1.96399
20
3.08135
11
1.96385
21
3.08147
0
LINE
8
BLACK
6
CONTINUOUS
10
1.96385
20
3.08147
11
1.96368
21
3.08149
0
LINE
8
BLACK
6
CONTINUOUS
10
1.96368
20
3.08149
11
1.95993
21
3.08336
0
LINE
8
BLACK
6
CONTINUOUS
10
1.95993
20
3.08336
11
1.95922
21
3.08389
0
LINE
8
BLACK
6
CONTINUOUS
10
1.95922
20
3.08389
11
1.95916
21
3.08391
0
LINE
8
BLACK
6
CONTINUOUS
10
1.95916
20
3.08391
11
1.95729
21
3.08579
0
LINE
8
BLACK
6
CONTINUOUS
10
1.95729
20
3.08579
11
1.95678
21
3.08651
0
LINE
8
BLACK
6
CONTINUOUS
10
1.95678
20
3.08651
11
1.95673
21
3.08656
0
LINE
8
BLACK
6
CONTINUOUS
10
1.95673
20
3.08656
11
1.95486
21
3.09031
0
LINE
8
BLACK
6
CONTINUOUS
10
1.95486
20
3.09031
11
1.95457
21
3.09129
0
LINE
8
BLACK
6
CONTINUOUS
10
1.95457
20
3.09129
11
1.95461
21
3.09146
0
LINE
8
BLACK
6
CONTINUOUS
10
1.95461
20
3.09146
11
1.95455
21
3.09163
0
LINE
8
BLACK
6
CONTINUOUS
10
1.95455
20
3.09163
11
1.95455
21
3.1235
0
LINE
8
BLACK
6
CONTINUOUS
10
1.95455
20
3.1235
11
1.95472
21
3.12451
0
LINE
8
BLACK
6
CONTINUOUS
10
1.95472
20
3.12451
11
1.95602
21
3.12606
0
LINE
8
BLACK
6
CONTINUOUS
10
1.95602
20
3.12606
11
1.95801
21
3.12641
0
LINE
8
BLACK
6
CONTINUOUS
10
1.95801
20
3.12641
11
1.95976
21
3.1254
0
LINE
8
BLACK
6
CONTINUOUS
10
1.95976
20
3.1254
11
1.96045
21
3.1235
0
LINE
8
BLACK
6
CONTINUOUS
10
1.96045
20
3.1235
11
1.96045
21
3.09232
0
LINE
8
BLACK
6
CONTINUOUS
10
1.96045
20
3.09232
11
1.9618
21
3.08963
0
LINE
8
BLACK
6
CONTINUOUS
10
1.9618
20
3.08963
11
1.963
21
3.08843
0
LINE
8
BLACK
6
CONTINUOUS
10
1.963
20
3.08843
11
1.9657
21
3.08708
0
LINE
8
BLACK
6
CONTINUOUS
10
1.9657
20
3.08708
11
1.9718
21
3.08708
0
LINE
8
BLACK
6
CONTINUOUS
10
1.9718
20
3.08708
11
1.9745
21
3.08843
0
LINE
8
BLACK
6
CONTINUOUS
10
1.9745
20
3.08843
11
1.97569
21
3.08963
0
LINE
8
BLACK
6
CONTINUOUS
10
1.97569
20
3.08963
11
1.97704
21
3.09232
0
LINE
8
BLACK
6
CONTINUOUS
10
1.97704
20
3.09232
11
1.97704
21
3.1235
0
LINE
8
BLACK
6
CONTINUOUS
10
1.97704
20
3.1235
11
1.97722
21
3.12451
0
LINE
8
BLACK
6
CONTINUOUS
10
1.97722
20
3.12451
11
1.97852
21
3.12606
0
LINE
8
BLACK
6
CONTINUOUS
10
1.97852
20
3.12606
11
1.98051
21
3.12641
0
LINE
8
BLACK
6
CONTINUOUS
10
1.98051
20
3.12641
11
1.98226
21
3.1254
0
LINE
8
BLACK
6
CONTINUOUS
10
2.07101
20
3.10236
11
2.07256
21
3.10106
0
LINE
8
BLACK
6
CONTINUOUS
10
2.07256
20
3.10106
11
2.07291
21
3.09907
0
LINE
8
BLACK
6
CONTINUOUS
10
2.07291
20
3.09907
11
2.0719
21
3.09732
0
LINE
8
BLACK
6
CONTINUOUS
10
2.0719
20
3.09732
11
2.07
21
3.09663
0
LINE
8
BLACK
6
CONTINUOUS
10
2.07
20
3.09663
11
2.01
21
3.09663
0
LINE
8
BLACK
6
CONTINUOUS
10
2.01
20
3.09663
11
2.00899
21
3.09681
0
LINE
8
BLACK
6
CONTINUOUS
10
2.00899
20
3.09681
11
2.00744
21
3.09811
0
LINE
8
BLACK
6
CONTINUOUS
10
2.00744
20
3.09811
11
2.00709
21
3.1001
0
LINE
8
BLACK
6
CONTINUOUS
10
2.00709
20
3.1001
11
2.0081
21
3.10185
0
LINE
8
BLACK
6
CONTINUOUS
10
2.0081
20
3.10185
11
2.01
21
3.10254
0
LINE
8
BLACK
6
CONTINUOUS
10
2.01
20
3.10254
11
2.07
21
3.10254
0
LINE
8
BLACK
6
CONTINUOUS
10
2.07
20
3.10254
11
2.07101
21
3.10236
0
LINE
8
BLACK
6
CONTINUOUS
10
1.85551
20
3.13786
11
1.85718
21
3.13717
0
LINE
8
BLACK
6
CONTINUOUS
10
1.85718
20
3.13717
11
1.85787
21
3.1355
0
LINE
8
BLACK
6
CONTINUOUS
10
1.85787
20
3.1355
11
1.85787
21
3.13196
0
LINE
8
BLACK
6
CONTINUOUS
10
1.85787
20
3.13196
11
2.04213
21
3.13196
0
LINE
8
BLACK
6
CONTINUOUS
10
2.04213
20
3.13196
11
2.04213
21
3.1355
0
LINE
8
BLACK
6
CONTINUOUS
10
2.04213
20
3.1355
11
2.04282
21
3.13717
0
LINE
8
BLACK
6
CONTINUOUS
10
2.04282
20
3.13717
11
2.04449
21
3.13786
0
LINE
8
BLACK
6
CONTINUOUS
10
2.04449
20
3.13786
11
2.04616
21
3.13717
0
LINE
8
BLACK
6
CONTINUOUS
10
2.04616
20
3.13717
11
2.04685
21
3.1355
0
LINE
8
BLACK
6
CONTINUOUS
10
2.04685
20
3.1355
11
2.04685
21
3.12959
0
LINE
8
BLACK
6
CONTINUOUS
10
2.04685
20
3.12959
11
2.04616
21
3.12792
0
LINE
8
BLACK
6
CONTINUOUS
10
2.04616
20
3.12792
11
2.04449
21
3.12723
0
LINE
8
BLACK
6
CONTINUOUS
10
2.04449
20
3.12723
11
1.85551
21
3.12723
0
LINE
8
BLACK
6
CONTINUOUS
10
1.85551
20
3.12723
11
1.85384
21
3.12792
0
LINE
8
BLACK
6
CONTINUOUS
10
1.85384
20
3.12792
11
1.85315
21
3.12959
0
LINE
8
BLACK
6
CONTINUOUS
10
1.85315
20
3.12959
11
1.85315
21
3.12959
0
LINE
8
BLACK
6
CONTINUOUS
10
1.85315
20
3.12959
11
1.85315
21
3.13314
0
LINE
8
BLACK
6
CONTINUOUS
10
1.85315
20
3.13314
11
1.78858
21
3.13314
0
LINE
8
BLACK
6
CONTINUOUS
10
1.78858
20
3.13314
11
1.78691
21
3.13383
0
LINE
8
BLACK
6
CONTINUOUS
10
1.78691
20
3.13383
11
1.78622
21
3.1355
0
LINE
8
BLACK
6
CONTINUOUS
10
1.78622
20
3.1355
11
1.78691
21
3.13717
0
LINE
8
BLACK
6
CONTINUOUS
10
1.78691
20
3.13717
11
1.78858
21
3.13786
0
LINE
8
BLACK
6
CONTINUOUS
10
1.78858
20
3.13786
11
1.85551
21
3.13786
0
LINE
8
BLACK
6
CONTINUOUS
10
2.67667
20
3.14167
11
2.67736
21
3.14
0
LINE
8
BLACK
6
CONTINUOUS
10
2.67736
20
3.14
11
2.67667
21
3.13833
0
LINE
8
BLACK
6
CONTINUOUS
10
2.67667
20
3.13833
11
2.675
21
3.13764
0
LINE
8
BLACK
6
CONTINUOUS
10
2.675
20
3.13764
11
2.645
21
3.13764
0
LINE
8
BLACK
6
CONTINUOUS
10
2.645
20
3.13764
11
2.64333
21
3.13833
0
LINE
8
BLACK
6
CONTINUOUS
10
2.64333
20
3.13833
11
2.64264
21
3.14
0
LINE
8
BLACK
6
CONTINUOUS
10
2.64264
20
3.14
11
2.64333
21
3.14167
0
LINE
8
BLACK
6
CONTINUOUS
10
2.64333
20
3.14167
11
2.645
21
3.14236
0
LINE
8
BLACK
6
CONTINUOUS
10
2.645
20
3.14236
11
2.675
21
3.14236
0
LINE
8
BLACK
6
CONTINUOUS
10
2.675
20
3.14236
11
2.67667
21
3.14167
0
LINE
8
BLACK
6
CONTINUOUS
10
2.60226
20
3.2419
11
2.60295
21
3.24
0
LINE
8
BLACK
6
CONTINUOUS
10
2.60295
20
3.24
11
2.60295
21
3.18
0
LINE
8
BLACK
6
CONTINUOUS
10
2.60295
20
3.18
11
2.60277
21
3.17899
0
LINE
8
BLACK
6
CONTINUOUS
10
2.60277
20
3.17899
11
2.60148
21
3.17744
0
LINE
8
BLACK
6
CONTINUOUS
10
2.60148
20
3.17744
11
2.59949
21
3.17709
0
LINE
8
BLACK
6
CONTINUOUS
10
2.59949
20
3.17709
11
2.59774
21
3.1781
0
LINE
8
BLACK
6
CONTINUOUS
10
2.59774
20
3.1781
11
2.59705
21
3.18
0
LINE
8
BLACK
6
CONTINUOUS
10
2.59705
20
3.18
11
2.59705
21
3.24
0
LINE
8
BLACK
6
CONTINUOUS
10
2.59705
20
3.24
11
2.59723
21
3.24101
0
LINE
8
BLACK
6
CONTINUOUS
10
2.59723
20
3.24101
11
2.59852
21
3.24256
0
LINE
8
BLACK
6
CONTINUOUS
10
2.59852
20
3.24256
11
2.60051
21
3.24291
0
LINE
8
BLACK
6
CONTINUOUS
10
2.60051
20
3.24291
11
2.60226
21
3.2419
0
LINE
8
BLACK
6
CONTINUOUS
10
2.72226
20
3.2419
11
2.72295
21
3.24
0
LINE
8
BLACK
6
CONTINUOUS
10
2.72295
20
3.24
11
2.72295
21
3.18
0
LINE
8
BLACK
6
CONTINUOUS
10
2.72295
20
3.18
11
2.72277
21
3.17899
0
LINE
8
BLACK
6
CONTINUOUS
10
2.72277
20
3.17899
11
2.72148
21
3.17744
0
LINE
8
BLACK
6
CONTINUOUS
10
2.72148
20
3.17744
11
2.71949
21
3.17709
0
LINE
8
BLACK
6
CONTINUOUS
10
2.71949
20
3.17709
11
2.71774
21
3.1781
0
LINE
8
BLACK
6
CONTINUOUS
10
2.71774
20
3.1781
11
2.71705
21
3.18
0
LINE
8
BLACK
6
CONTINUOUS
10
2.71705
20
3.18
11
2.71705
21
3.24
0
LINE
8
BLACK
6
CONTINUOUS
10
2.71705
20
3.24
11
2.71723
21
3.24101
0
LINE
8
BLACK
6
CONTINUOUS
10
2.71723
20
3.24101
11
2.71852
21
3.24256
0
LINE
8
BLACK
6
CONTINUOUS
10
2.71852
20
3.24256
11
2.72051
21
3.24291
0
LINE
8
BLACK
6
CONTINUOUS
10
2.72051
20
3.24291
11
2.72226
21
3.2419
0
LINE
8
BLACK
6
CONTINUOUS
10
2.67667
20
3.18167
11
2.67736
21
3.18
0
LINE
8
BLACK
6
CONTINUOUS
10
2.67736
20
3.18
11
2.67667
21
3.17833
0
LINE
8
BLACK
6
CONTINUOUS
10
2.67667
20
3.17833
11
2.675
21
3.17764
0
LINE
8
BLACK
6
CONTINUOUS
10
2.675
20
3.17764
11
2.645
21
3.17764
0
LINE
8
BLACK
6
CONTINUOUS
10
2.645
20
3.17764
11
2.64333
21
3.17833
0
LINE
8
BLACK
6
CONTINUOUS
10
2.64333
20
3.17833
11
2.64264
21
3.18
0
LINE
8
BLACK
6
CONTINUOUS
10
2.64264
20
3.18
11
2.64333
21
3.18167
0
LINE
8
BLACK
6
CONTINUOUS
10
2.64333
20
3.18167
11
2.645
21
3.18236
0
LINE
8
BLACK
6
CONTINUOUS
10
2.645
20
3.18236
11
2.675
21
3.18236
0
LINE
8
BLACK
6
CONTINUOUS
10
2.675
20
3.18236
11
2.67667
21
3.18167
0
LINE
8
BLACK
6
CONTINUOUS
10
2.67667
20
3.24167
11
2.67736
21
3.24
0
LINE
8
BLACK
6
CONTINUOUS
10
2.67736
20
3.24
11
2.67667
21
3.23833
0
LINE
8
BLACK
6
CONTINUOUS
10
2.67667
20
3.23833
11
2.675
21
3.23764
0
LINE
8
BLACK
6
CONTINUOUS
10
2.675
20
3.23764
11
2.645
21
3.23764
0
LINE
8
BLACK
6
CONTINUOUS
10
2.645
20
3.23764
11
2.64333
21
3.23833
0
LINE
8
BLACK
6
CONTINUOUS
10
2.64333
20
3.23833
11
2.64264
21
3.24
0
LINE
8
BLACK
6
CONTINUOUS
10
2.64264
20
3.24
11
2.64333
21
3.24167
0
LINE
8
BLACK
6
CONTINUOUS
10
2.64333
20
3.24167
11
2.645
21
3.24236
0
LINE
8
BLACK
6
CONTINUOUS
10
2.645
20
3.24236
11
2.675
21
3.24236
0
LINE
8
BLACK
6
CONTINUOUS
10
2.675
20
3.24236
11
2.67667
21
3.24167
0
LINE
8
BLACK
6
CONTINUOUS
10
2.60226
20
3.3419
11
2.60295
21
3.34
0
LINE
8
BLACK
6
CONTINUOUS
10
2.60295
20
3.34
11
2.60295
21
3.28
0
LINE
8
BLACK
6
CONTINUOUS
10
2.60295
20
3.28
11
2.60277
21
3.27899
0
LINE
8
BLACK
6
CONTINUOUS
10
2.60277
20
3.27899
11
2.60148
21
3.27744
0
LINE
8
BLACK
6
CONTINUOUS
10
2.60148
20
3.27744
11
2.59949
21
3.27709
0
LINE
8
BLACK
6
CONTINUOUS
10
2.59949
20
3.27709
11
2.59774
21
3.2781
0
LINE
8
BLACK
6
CONTINUOUS
10
2.59774
20
3.2781
11
2.59705
21
3.28
0
LINE
8
BLACK
6
CONTINUOUS
10
2.59705
20
3.28
11
2.59705
21
3.34
0
LINE
8
BLACK
6
CONTINUOUS
10
2.59705
20
3.34
11
2.59723
21
3.34101
0
LINE
8
BLACK
6
CONTINUOUS
10
2.59723
20
3.34101
11
2.59852
21
3.34256
0
LINE
8
BLACK
6
CONTINUOUS
10
2.59852
20
3.34256
11
2.60051
21
3.34291
0
LINE
8
BLACK
6
CONTINUOUS
10
2.60051
20
3.34291
11
2.60226
21
3.3419
0
LINE
8
BLACK
6
CONTINUOUS
10
2.72226
20
3.3419
11
2.72295
21
3.34
0
LINE
8
BLACK
6
CONTINUOUS
10
2.72295
20
3.34
11
2.72295
21
3.28
0
LINE
8
BLACK
6
CONTINUOUS
10
2.72295
20
3.28
11
2.72277
21
3.27899
0
LINE
8
BLACK
6
CONTINUOUS
10
2.72277
20
3.27899
11
2.72148
21
3.27744
0
LINE
8
BLACK
6
CONTINUOUS
10
2.72148
20
3.27744
11
2.71949
21
3.27709
0
LINE
8
BLACK
6
CONTINUOUS
10
2.71949
20
3.27709
11
2.71774
21
3.2781
0
LINE
8
BLACK
6
CONTINUOUS
10
2.71774
20
3.2781
11
2.71705
21
3.28
0
LINE
8
BLACK
6
CONTINUOUS
10
2.71705
20
3.28
11
2.71705
21
3.34
0
LINE
8
BLACK
6
CONTINUOUS
10
2.71705
20
3.34
11
2.71723
21
3.34101
0
LINE
8
BLACK
6
CONTINUOUS
10
2.71723
20
3.34101
11
2.71852
21
3.34256
0
LINE
8
BLACK
6
CONTINUOUS
10
2.71852
20
3.34256
11
2.72051
21
3.34291
0
LINE
8
BLACK
6
CONTINUOUS
10
2.72051
20
3.34291
11
2.72226
21
3.3419
0
LINE
8
BLACK
6
CONTINUOUS
10
2.67667
20
3.28167
11
2.67736
21
3.28
0
LINE
8
BLACK
6
CONTINUOUS
10
2.67736
20
3.28
11
2.67667
21
3.27833
0
LINE
8
BLACK
6
CONTINUOUS
10
2.67667
20
3.27833
11
2.675
21
3.27764
0
LINE
8
BLACK
6
CONTINUOUS
10
2.675
20
3.27764
11
2.645
21
3.27764
0
LINE
8
BLACK
6
CONTINUOUS
10
2.645
20
3.27764
11
2.64333
21
3.27833
0
LINE
8
BLACK
6
CONTINUOUS
10
2.64333
20
3.27833
11
2.64264
21
3.28
0
LINE
8
BLACK
6
CONTINUOUS
10
2.64264
20
3.28
11
2.64333
21
3.28167
0
LINE
8
BLACK
6
CONTINUOUS
10
2.64333
20
3.28167
11
2.645
21
3.28236
0
LINE
8
BLACK
6
CONTINUOUS
10
2.645
20
3.28236
11
2.675
21
3.28236
0
LINE
8
BLACK
6
CONTINUOUS
10
2.675
20
3.28236
11
2.67667
21
3.28167
0
LINE
8
BLACK
6
CONTINUOUS
10
2.04449
20
3.28944
11
2.04616
21
3.28874
0
LINE
8
BLACK
6
CONTINUOUS
10
2.04616
20
3.28874
11
2.04685
21
3.28707
0
LINE
8
BLACK
6
CONTINUOUS
10
2.04685
20
3.28707
11
2.04685
21
3.28117
0
LINE
8
BLACK
6
CONTINUOUS
10
2.04685
20
3.28117
11
2.04616
21
3.2795
0
LINE
8
BLACK
6
CONTINUOUS
10
2.04616
20
3.2795
11
2.04449
21
3.27881
0
LINE
8
BLACK
6
CONTINUOUS
10
2.04449
20
3.27881
11
2.04282
21
3.2795
0
LINE
8
BLACK
6
CONTINUOUS
10
2.04282
20
3.2795
11
2.04213
21
3.28117
0
LINE
8
BLACK
6
CONTINUOUS
10
2.04213
20
3.28117
11
2.04213
21
3.28471
0
LINE
8
BLACK
6
CONTINUOUS
10
2.04213
20
3.28471
11
1.85787
21
3.28471
0
LINE
8
BLACK
6
CONTINUOUS
10
1.85787
20
3.28471
11
1.85787
21
3.28117
0
LINE
8
BLACK
6
CONTINUOUS
10
1.85787
20
3.28117
11
1.85718
21
3.2795
0
LINE
8
BLACK
6
CONTINUOUS
10
1.85718
20
3.2795
11
1.85551
21
3.27881
0
LINE
8
BLACK
6
CONTINUOUS
10
1.85551
20
3.27881
11
1.85384
21
3.2795
0
LINE
8
BLACK
6
CONTINUOUS
10
1.85384
20
3.2795
11
1.85315
21
3.28117
0
LINE
8
BLACK
6
CONTINUOUS
10
1.85315
20
3.28117
11
1.85315
21
3.28707
0
LINE
8
BLACK
6
CONTINUOUS
10
1.85315
20
3.28707
11
1.85384
21
3.28874
0
LINE
8
BLACK
6
CONTINUOUS
10
1.85384
20
3.28874
11
1.85551
21
3.28944
0
LINE
8
BLACK
6
CONTINUOUS
10
1.85551
20
3.28944
11
2.04449
21
3.28944
0
LINE
8
BLACK
6
CONTINUOUS
10
2.67667
20
3.34167
11
2.67736
21
3.34
0
LINE
8
BLACK
6
CONTINUOUS
10
2.67736
20
3.34
11
2.67667
21
3.33833
0
LINE
8
BLACK
6
CONTINUOUS
10
2.67667
20
3.33833
11
2.675
21
3.33764
0
LINE
8
BLACK
6
CONTINUOUS
10
2.675
20
3.33764
11
2.645
21
3.33764
0
LINE
8
BLACK
6
CONTINUOUS
10
2.645
20
3.33764
11
2.64333
21
3.33833
0
LINE
8
BLACK
6
CONTINUOUS
10
2.64333
20
3.33833
11
2.64264
21
3.34
0
LINE
8
BLACK
6
CONTINUOUS
10
2.64264
20
3.34
11
2.64333
21
3.34167
0
LINE
8
BLACK
6
CONTINUOUS
10
2.64333
20
3.34167
11
2.645
21
3.34236
0
LINE
8
BLACK
6
CONTINUOUS
10
2.645
20
3.34236
11
2.675
21
3.34236
0
LINE
8
BLACK
6
CONTINUOUS
10
2.675
20
3.34236
11
2.67667
21
3.34167
0
LINE
8
BLACK
6
CONTINUOUS
10
2.07101
20
3.40277
11
2.07256
21
3.40148
0
LINE
8
BLACK
6
CONTINUOUS
10
2.07256
20
3.40148
11
2.07291
21
3.39949
0
LINE
8
BLACK
6
CONTINUOUS
10
2.07291
20
3.39949
11
2.0719
21
3.39774
0
LINE
8
BLACK
6
CONTINUOUS
10
2.0719
20
3.39774
11
2.07
21
3.39705
0
LINE
8
BLACK
6
CONTINUOUS
10
2.07
20
3.39705
11
2.01
21
3.39705
0
LINE
8
BLACK
6
CONTINUOUS
10
2.01
20
3.39705
11
2.00899
21
3.39723
0
LINE
8
BLACK
6
CONTINUOUS
10
2.00899
20
3.39723
11
2.00744
21
3.39852
0
LINE
8
BLACK
6
CONTINUOUS
10
2.00744
20
3.39852
11
2.00709
21
3.40051
0
LINE
8
BLACK
6
CONTINUOUS
10
2.00709
20
3.40051
11
2.0081
21
3.40226
0
LINE
8
BLACK
6
CONTINUOUS
10
2.0081
20
3.40226
11
2.01
21
3.40295
0
LINE
8
BLACK
6
CONTINUOUS
10
2.01
20
3.40295
11
2.07
21
3.40295
0
LINE
8
BLACK
6
CONTINUOUS
10
2.07
20
3.40295
11
2.07101
21
3.40277
0
LINE
8
BLACK
6
CONTINUOUS
10
2.01167
20
3.47667
11
2.01236
21
3.475
0
LINE
8
BLACK
6
CONTINUOUS
10
2.01236
20
3.475
11
2.01236
21
3.445
0
LINE
8
BLACK
6
CONTINUOUS
10
2.01236
20
3.445
11
2.01167
21
3.44333
0
LINE
8
BLACK
6
CONTINUOUS
10
2.01167
20
3.44333
11
2.01
21
3.44264
0
LINE
8
BLACK
6
CONTINUOUS
10
2.01
20
3.44264
11
2.00833
21
3.44333
0
LINE
8
BLACK
6
CONTINUOUS
10
2.00833
20
3.44333
11
2.00764
21
3.445
0
LINE
8
BLACK
6
CONTINUOUS
10
2.00764
20
3.445
11
2.00764
21
3.475
0
LINE
8
BLACK
6
CONTINUOUS
10
2.00764
20
3.475
11
2.00833
21
3.47667
0
LINE
8
BLACK
6
CONTINUOUS
10
2.00833
20
3.47667
11
2.01
21
3.47736
0
LINE
8
BLACK
6
CONTINUOUS
10
2.01
20
3.47736
11
2.01167
21
3.47667
0
LINE
8
BLACK
6
CONTINUOUS
10
2.07167
20
3.47667
11
2.07236
21
3.475
0
LINE
8
BLACK
6
CONTINUOUS
10
2.07236
20
3.475
11
2.07236
21
3.445
0
LINE
8
BLACK
6
CONTINUOUS
10
2.07236
20
3.445
11
2.07167
21
3.44333
0
LINE
8
BLACK
6
CONTINUOUS
10
2.07167
20
3.44333
11
2.07
21
3.44264
0
LINE
8
BLACK
6
CONTINUOUS
10
2.07
20
3.44264
11
2.06833
21
3.44333
0
LINE
8
BLACK
6
CONTINUOUS
10
2.06833
20
3.44333
11
2.06764
21
3.445
0
LINE
8
BLACK
6
CONTINUOUS
10
2.06764
20
3.445
11
2.06764
21
3.475
0
LINE
8
BLACK
6
CONTINUOUS
10
2.06764
20
3.475
11
2.06833
21
3.47667
0
LINE
8
BLACK
6
CONTINUOUS
10
2.06833
20
3.47667
11
2.07
21
3.47736
0
LINE
8
BLACK
6
CONTINUOUS
10
2.07
20
3.47736
11
2.07167
21
3.47667
0
LINE
8
BLACK
6
CONTINUOUS
10
1.93004
20
3.54799
11
1.93021
21
3.548
0
LINE
8
BLACK
6
CONTINUOUS
10
1.93021
20
3.548
11
1.9309
21
3.54749
0
LINE
8
BLACK
6
CONTINUOUS
10
1.9309
20
3.54749
11
1.93164
21
3.54706
0
LINE
8
BLACK
6
CONTINUOUS
10
1.93164
20
3.54706
11
1.9317
21
3.5469
0
LINE
8
BLACK
6
CONTINUOUS
10
1.9317
20
3.5469
11
1.93183
21
3.5468
0
LINE
8
BLACK
6
CONTINUOUS
10
1.93183
20
3.5468
11
1.93542
21
3.54142
0
LINE
8
BLACK
6
CONTINUOUS
10
1.93542
20
3.54142
11
1.93863
21
3.53822
0
LINE
8
BLACK
6
CONTINUOUS
10
1.93863
20
3.53822
11
1.94195
21
3.53656
0
LINE
8
BLACK
6
CONTINUOUS
10
1.94195
20
3.53656
11
1.94277
21
3.53595
0
LINE
8
BLACK
6
CONTINUOUS
10
1.94277
20
3.53595
11
1.94357
21
3.53409
0
LINE
8
BLACK
6
CONTINUOUS
10
1.94357
20
3.53409
11
1.943
21
3.53216
0
LINE
8
BLACK
6
CONTINUOUS
10
1.943
20
3.53216
11
1.94131
21
3.53104
0
LINE
8
BLACK
6
CONTINUOUS
10
1.94131
20
3.53104
11
1.93931
21
3.53127
0
LINE
8
BLACK
6
CONTINUOUS
10
1.93931
20
3.53127
11
1.93556
21
3.53315
0
LINE
8
BLACK
6
CONTINUOUS
10
1.93556
20
3.53315
11
1.93485
21
3.53368
0
LINE
8
BLACK
6
CONTINUOUS
10
1.93485
20
3.53368
11
1.93479
21
3.5337
0
LINE
8
BLACK
6
CONTINUOUS
10
1.93479
20
3.5337
11
1.93233
21
3.53616
0
LINE
8
BLACK
6
CONTINUOUS
10
1.93233
20
3.53616
11
1.93233
21
3.50875
0
LINE
8
BLACK
6
CONTINUOUS
10
1.93233
20
3.50875
11
1.94063
21
3.50875
0
LINE
8
BLACK
6
CONTINUOUS
10
1.94063
20
3.50875
11
1.94164
21
3.50857
0
LINE
8
BLACK
6
CONTINUOUS
10
1.94164
20
3.50857
11
1.94318
21
3.50727
0
LINE
8
BLACK
6
CONTINUOUS
10
1.94318
20
3.50727
11
1.94353
21
3.50528
0
LINE
8
BLACK
6
CONTINUOUS
10
1.94353
20
3.50528
11
1.94252
21
3.50353
0
LINE
8
BLACK
6
CONTINUOUS
10
1.94252
20
3.50353
11
1.94063
21
3.50284
0
LINE
8
BLACK
6
CONTINUOUS
10
1.94063
20
3.50284
11
1.91813
21
3.50284
0
LINE
8
BLACK
6
CONTINUOUS
10
1.91813
20
3.50284
11
1.91712
21
3.50302
0
LINE
8
BLACK
6
CONTINUOUS
10
1.91712
20
3.50302
11
1.91557
21
3.50432
0
LINE
8
BLACK
6
CONTINUOUS
10
1.91557
20
3.50432
11
1.91522
21
3.50631
0
LINE
8
BLACK
6
CONTINUOUS
10
1.91522
20
3.50631
11
1.91623
21
3.50806
0
LINE
8
BLACK
6
CONTINUOUS
10
1.91623
20
3.50806
11
1.91813
21
3.50875
0
LINE
8
BLACK
6
CONTINUOUS
10
1.91813
20
3.50875
11
1.92642
21
3.50875
0
LINE
8
BLACK
6
CONTINUOUS
10
1.92642
20
3.50875
11
1.92642
21
3.54516
0
LINE
8
BLACK
6
CONTINUOUS
10
1.92642
20
3.54516
11
1.9266
21
3.54617
0
LINE
8
BLACK
6
CONTINUOUS
10
1.9266
20
3.54617
11
1.92671
21
3.5463
0
LINE
8
BLACK
6
CONTINUOUS
10
1.92671
20
3.5463
11
1.92673
21
3.54647
0
LINE
8
BLACK
6
CONTINUOUS
10
1.92673
20
3.54647
11
1.92735
21
3.54707
0
LINE
8
BLACK
6
CONTINUOUS
10
1.92735
20
3.54707
11
1.9279
21
3.54772
0
LINE
8
BLACK
6
CONTINUOUS
10
1.9279
20
3.54772
11
1.92807
21
3.54775
0
LINE
8
BLACK
6
CONTINUOUS
10
1.92807
20
3.54775
11
1.92819
21
3.54787
0
LINE
8
BLACK
6
CONTINUOUS
10
1.92819
20
3.54787
11
1.92905
21
3.54792
0
LINE
8
BLACK
6
CONTINUOUS
10
1.92905
20
3.54792
11
1.92989
21
3.54807
0
LINE
8
BLACK
6
CONTINUOUS
10
1.92989
20
3.54807
11
1.93004
21
3.54799
0
LINE
8
BLACK
6
CONTINUOUS
10
1.98226
20
3.54706
11
1.98295
21
3.54516
0
LINE
8
BLACK
6
CONTINUOUS
10
1.98295
20
3.54516
11
1.98295
21
3.51329
0
LINE
8
BLACK
6
CONTINUOUS
10
1.98295
20
3.51329
11
1.98277
21
3.51228
0
LINE
8
BLACK
6
CONTINUOUS
10
1.98277
20
3.51228
11
1.98266
21
3.51215
0
LINE
8
BLACK
6
CONTINUOUS
10
1.98266
20
3.51215
11
1.98264
21
3.51197
0
LINE
8
BLACK
6
CONTINUOUS
10
1.98264
20
3.51197
11
1.98076
21
3.50822
0
LINE
8
BLACK
6
CONTINUOUS
10
1.98076
20
3.50822
11
1.98024
21
3.50751
0
LINE
8
BLACK
6
CONTINUOUS
10
1.98024
20
3.50751
11
1.98021
21
3.50746
0
LINE
8
BLACK
6
CONTINUOUS
10
1.98021
20
3.50746
11
1.97833
21
3.50558
0
LINE
8
BLACK
6
CONTINUOUS
10
1.97833
20
3.50558
11
1.97761
21
3.50508
0
LINE
8
BLACK
6
CONTINUOUS
10
1.97761
20
3.50508
11
1.97757
21
3.50503
0
LINE
8
BLACK
6
CONTINUOUS
10
1.97757
20
3.50503
11
1.97382
21
3.50315
0
LINE
8
BLACK
6
CONTINUOUS
10
1.97382
20
3.50315
11
1.97283
21
3.50286
0
LINE
8
BLACK
6
CONTINUOUS
10
1.97283
20
3.50286
11
1.97266
21
3.5029
0
LINE
8
BLACK
6
CONTINUOUS
10
1.97266
20
3.5029
11
1.9725
21
3.50284
0
LINE
8
BLACK
6
CONTINUOUS
10
1.9725
20
3.50284
11
1.965
21
3.50284
0
LINE
8
BLACK
6
CONTINUOUS
10
1.965
20
3.50284
11
1.96399
21
3.50302
0
LINE
8
BLACK
6
CONTINUOUS
10
1.96399
20
3.50302
11
1.96385
21
3.50313
0
LINE
8
BLACK
6
CONTINUOUS
10
1.96385
20
3.50313
11
1.96368
21
3.50315
0
LINE
8
BLACK
6
CONTINUOUS
10
1.96368
20
3.50315
11
1.95993
21
3.50503
0
LINE
8
BLACK
6
CONTINUOUS
10
1.95993
20
3.50503
11
1.95922
21
3.50555
0
LINE
8
BLACK
6
CONTINUOUS
10
1.95922
20
3.50555
11
1.95916
21
3.50558
0
LINE
8
BLACK
6
CONTINUOUS
10
1.95916
20
3.50558
11
1.95729
21
3.50746
0
LINE
8
BLACK
6
CONTINUOUS
10
1.95729
20
3.50746
11
1.95678
21
3.50818
0
LINE
8
BLACK
6
CONTINUOUS
10
1.95678
20
3.50818
11
1.95673
21
3.50822
0
LINE
8
BLACK
6
CONTINUOUS
10
1.95673
20
3.50822
11
1.95486
21
3.51197
0
LINE
8
BLACK
6
CONTINUOUS
10
1.95486
20
3.51197
11
1.95457
21
3.51296
0
LINE
8
BLACK
6
CONTINUOUS
10
1.95457
20
3.51296
11
1.95461
21
3.51313
0
LINE
8
BLACK
6
CONTINUOUS
10
1.95461
20
3.51313
11
1.95455
21
3.51329
0
LINE
8
BLACK
6
CONTINUOUS
10
1.95455
20
3.51329
11
1.95455
21
3.54516
0
LINE
8
BLACK
6
CONTINUOUS
10
1.95455
20
3.54516
11
1.95472
21
3.54617
0
LINE
8
BLACK
6
CONTINUOUS
10
1.95472
20
3.54617
11
1.95602
21
3.54772
0
LINE
8
BLACK
6
CONTINUOUS
10
1.95602
20
3.54772
11
1.95801
21
3.54807
0
LINE
8
BLACK
6
CONTINUOUS
10
1.95801
20
3.54807
11
1.95976
21
3.54706
0
LINE
8
BLACK
6
CONTINUOUS
10
1.95976
20
3.54706
11
1.96045
21
3.54516
0
LINE
8
BLACK
6
CONTINUOUS
10
1.96045
20
3.54516
11
1.96045
21
3.51399
0
LINE
8
BLACK
6
CONTINUOUS
10
1.96045
20
3.51399
11
1.9618
21
3.51129
0
LINE
8
BLACK
6
CONTINUOUS
10
1.9618
20
3.51129
11
1.963
21
3.5101
0
LINE
8
BLACK
6
CONTINUOUS
10
1.963
20
3.5101
11
1.9657
21
3.50875
0
LINE
8
BLACK
6
CONTINUOUS
10
1.9657
20
3.50875
11
1.9718
21
3.50875
0
LINE
8
BLACK
6
CONTINUOUS
10
1.9718
20
3.50875
11
1.9745
21
3.5101
0
LINE
8
BLACK
6
CONTINUOUS
10
1.9745
20
3.5101
11
1.97569
21
3.51129
0
LINE
8
BLACK
6
CONTINUOUS
10
1.97569
20
3.51129
11
1.97704
21
3.51399
0
LINE
8
BLACK
6
CONTINUOUS
10
1.97704
20
3.51399
11
1.97704
21
3.54516
0
LINE
8
BLACK
6
CONTINUOUS
10
1.97704
20
3.54516
11
1.97722
21
3.54617
0
LINE
8
BLACK
6
CONTINUOUS
10
1.97722
20
3.54617
11
1.97852
21
3.54772
0
LINE
8
BLACK
6
CONTINUOUS
10
1.97852
20
3.54772
11
1.98051
21
3.54807
0
LINE
8
BLACK
6
CONTINUOUS
10
1.98051
20
3.54807
11
1.98226
21
3.54706
0
LINE
8
BLACK
6
CONTINUOUS
10
2.07101
20
3.52277
11
2.07256
21
3.52148
0
LINE
8
BLACK
6
CONTINUOUS
10
2.07256
20
3.52148
11
2.07291
21
3.51949
0
LINE
8
BLACK
6
CONTINUOUS
10
2.07291
20
3.51949
11
2.0719
21
3.51774
0
LINE
8
BLACK
6
CONTINUOUS
10
2.0719
20
3.51774
11
2.07
21
3.51705
0
LINE
8
BLACK
6
CONTINUOUS
10
2.07
20
3.51705
11
2.01
21
3.51705
0
LINE
8
BLACK
6
CONTINUOUS
10
2.01
20
3.51705
11
2.00899
21
3.51723
0
LINE
8
BLACK
6
CONTINUOUS
10
2.00899
20
3.51723
11
2.00744
21
3.51852
0
LINE
8
BLACK
6
CONTINUOUS
10
2.00744
20
3.51852
11
2.00709
21
3.52051
0
LINE
8
BLACK
6
CONTINUOUS
10
2.00709
20
3.52051
11
2.0081
21
3.52226
0
LINE
8
BLACK
6
CONTINUOUS
10
2.0081
20
3.52226
11
2.01
21
3.52295
0
LINE
8
BLACK
6
CONTINUOUS
10
2.01
20
3.52295
11
2.07
21
3.52295
0
LINE
8
BLACK
6
CONTINUOUS
10
2.07
20
3.52295
11
2.07101
21
3.52277
0
LINE
8
BLACK
6
CONTINUOUS
10
1.85551
20
3.55953
11
1.85718
21
3.55884
0
LINE
8
BLACK
6
CONTINUOUS
10
1.85718
20
3.55884
11
1.85787
21
3.55717
0
LINE
8
BLACK
6
CONTINUOUS
10
1.85787
20
3.55717
11
1.85787
21
3.55362
0
LINE
8
BLACK
6
CONTINUOUS
10
1.85787
20
3.55362
11
2.04213
21
3.55362
0
LINE
8
BLACK
6
CONTINUOUS
10
2.04213
20
3.55362
11
2.04213
21
3.55717
0
LINE
8
BLACK
6
CONTINUOUS
10
2.04213
20
3.55717
11
2.04282
21
3.55884
0
LINE
8
BLACK
6
CONTINUOUS
10
2.04282
20
3.55884
11
2.04449
21
3.55953
0
LINE
8
BLACK
6
CONTINUOUS
10
2.04449
20
3.55953
11
2.04616
21
3.55884
0
LINE
8
BLACK
6
CONTINUOUS
10
2.04616
20
3.55884
11
2.04685
21
3.55717
0
LINE
8
BLACK
6
CONTINUOUS
10
2.04685
20
3.55717
11
2.04685
21
3.55126
0
LINE
8
BLACK
6
CONTINUOUS
10
2.04685
20
3.55126
11
2.04616
21
3.54959
0
LINE
8
BLACK
6
CONTINUOUS
10
2.04616
20
3.54959
11
2.04449
21
3.5489
0
LINE
8
BLACK
6
CONTINUOUS
10
2.04449
20
3.5489
11
1.85551
21
3.5489
0
LINE
8
BLACK
6
CONTINUOUS
10
1.85551
20
3.5489
11
1.85384
21
3.54959
0
LINE
8
BLACK
6
CONTINUOUS
10
1.85384
20
3.54959
11
1.85315
21
3.55126
0
LINE
8
BLACK
6
CONTINUOUS
10
1.85315
20
3.55126
11
1.85315
21
3.5548
0
LINE
8
BLACK
6
CONTINUOUS
10
1.85315
20
3.5548
11
1.78858
21
3.5548
0
LINE
8
BLACK
6
CONTINUOUS
10
1.78858
20
3.5548
11
1.78691
21
3.5555
0
LINE
8
BLACK
6
CONTINUOUS
10
1.78691
20
3.5555
11
1.78622
21
3.55717
0
LINE
8
BLACK
6
CONTINUOUS
10
1.78622
20
3.55717
11
1.78691
21
3.55884
0
LINE
8
BLACK
6
CONTINUOUS
10
1.78691
20
3.55884
11
1.78858
21
3.55953
0
LINE
8
BLACK
6
CONTINUOUS
10
1.78858
20
3.55953
11
1.85551
21
3.55953
0
LINE
8
BLACK
6
CONTINUOUS
10
2.04449
20
3.7111
11
2.04616
21
3.71041
0
LINE
8
BLACK
6
CONTINUOUS
10
2.04616
20
3.71041
11
2.04685
21
3.70874
0
LINE
8
BLACK
6
CONTINUOUS
10
2.04685
20
3.70874
11
2.04685
21
3.70283
0
LINE
8
BLACK
6
CONTINUOUS
10
2.04685
20
3.70283
11
2.04616
21
3.70116
0
LINE
8
BLACK
6
CONTINUOUS
10
2.04616
20
3.70116
11
2.04449
21
3.70047
0
LINE
8
BLACK
6
CONTINUOUS
10
2.04449
20
3.70047
11
2.04282
21
3.70116
0
LINE
8
BLACK
6
CONTINUOUS
10
2.04282
20
3.70116
11
2.04213
21
3.70283
0
LINE
8
BLACK
6
CONTINUOUS
10
2.04213
20
3.70283
11
2.04213
21
3.70638
0
LINE
8
BLACK
6
CONTINUOUS
10
2.04213
20
3.70638
11
1.85787
21
3.70638
0
LINE
8
BLACK
6
CONTINUOUS
10
1.85787
20
3.70638
11
1.85787
21
3.70283
0
LINE
8
BLACK
6
CONTINUOUS
10
1.85787
20
3.70283
11
1.85718
21
3.70116
0
LINE
8
BLACK
6
CONTINUOUS
10
1.85718
20
3.70116
11
1.85551
21
3.70047
0
LINE
8
BLACK
6
CONTINUOUS
10
1.85551
20
3.70047
11
1.85384
21
3.70116
0
LINE
8
BLACK
6
CONTINUOUS
10
1.85384
20
3.70116
11
1.85315
21
3.70283
0
LINE
8
BLACK
6
CONTINUOUS
10
1.85315
20
3.70283
11
1.85315
21
3.70874
0
LINE
8
BLACK
6
CONTINUOUS
10
1.85315
20
3.70874
11
1.85384
21
3.71041
0
LINE
8
BLACK
6
CONTINUOUS
10
1.85384
20
3.71041
11
1.85551
21
3.7111
0
LINE
8
BLACK
6
CONTINUOUS
10
1.85551
20
3.7111
11
2.04449
21
3.7111
0
CIRCLE
8
BLACK
10
0.627091
20
2.89543
40
0.00688976
0
CIRCLE
8
BLACK
10
0.43024
20
2.89543
40
0.00688976
0
CIRCLE
8
BLACK
10
2.8
20
3.6
40
0.00688976
0
CIRCLE
8
BLACK
10
0.43024
20
2.69858
40
0.00688976
0
CIRCLE
8
BLACK
10
0.627091
20
2.69858
40
0.00688976
0
CIRCLE
8
BLACK
10
2.8
20
0.4
40
0.00688976
0
CIRCLE
8
BLACK
10
2.58259
20
0.815433
40
0.00688976
0
CIRCLE
8
BLACK
10
2.77944
20
0.815433
40
0.00688976
0
CIRCLE
8
BLACK
10
1.33858
20
1.87182
40
0.00688976
0
CIRCLE
8
BLACK
10
1.53543
20
1.87182
40
0.00688976
0
CIRCLE
8
BLACK
10
0.627091
20
3.28913
40
0.00688976
0
CIRCLE
8
BLACK
10
0.43024
20
3.28913
40
0.00688976
0
CIRCLE
8
BLACK
10
2.77944
20
1.01228
40
0.00688976
0
CIRCLE
8
BLACK
10
2.58259
20
1.01228
40
0.00688976
0
CIRCLE
8
BLACK
10
0.43024
20
2.10803
40
0.00688976
0
CIRCLE
8
BLACK
10
0.627091
20
2.10803
40
0.00688976
0
CIRCLE
8
BLACK
10
0.878268
20
0.636929
40
0.00688976
0
CIRCLE
8
BLACK
10
0.878268
20
0.503071
40
0.00688976
0
CIRCLE
8
BLACK
10
1.26173
20
0.636929
40
0.00688976
0
CIRCLE
8
BLACK
10
1.26173
20
0.503071
40
0.00688976
0
CIRCLE
8
BLACK
10
0.43024
20
1.12378
40
0.00688976
0
CIRCLE
8
BLACK
10
0.627091
20
1.12378
40
0.00688976
0
CIRCLE
8
BLACK
10
1.33858
20
3.12544
40
0.00688976
0
CIRCLE
8
BLACK
10
1.53543
20
3.12544
40
0.00688976
0
CIRCLE
8
BLACK
10
2.78256
20
1.21307
40
0.00688976
0
CIRCLE
8
BLACK
10
2.58571
20
1.21307
40
0.00688976
0
CIRCLE
8
BLACK
10
2.41
20
3.31
40
0.00688976
0
CIRCLE
8
BLACK
10
2.51
20
3.31
40
0.00688976
0
CIRCLE
8
BLACK
10
2.41
20
3.21
40
0.00688976
0
CIRCLE
8
BLACK
10
2.51
20
3.21
40
0.00688976
0
CIRCLE
8
BLACK
10
2.41
20
3.11
40
0.00688976
0
CIRCLE
8
BLACK
10
2.51
20
3.11
40
0.00688976
0
CIRCLE
8
BLACK
10
2.41
20
3.01
40
0.00688976
0
CIRCLE
8
BLACK
10
2.51
20
3.01
40
0.00688976
0
CIRCLE
8
BLACK
10
2.41
20
2.91
40
0.00688976
0
CIRCLE
8
BLACK
10
2.51
20
2.91
40
0.00688976
0
CIRCLE
8
BLACK
10
2.41
20
2.81
40
0.00688976
0
CIRCLE
8
BLACK
10
2.51
20
2.81
40
0.00688976
0
CIRCLE
8
BLACK
10
2.41
20
2.71
40
0.00688976
0
CIRCLE
8
BLACK
10
2.51
20
2.71
40
0.00688976
0
CIRCLE
8
BLACK
10
0.627091
20
2.50173
40
0.00688976
0
CIRCLE
8
BLACK
10
0.43024
20
2.50173
40
0.00688976
0
CIRCLE
8
BLACK
10
0.43024
20
1.71433
40
0.00688976
0
CIRCLE
8
BLACK
10
0.627091
20
1.71433
40
0.00688976
0
CIRCLE
8
BLACK
10
0.4
20
0.4
40
0.00688976
0
CIRCLE
8
BLACK
10
1.33858
20
1.45395
40
0.00688976
0
CIRCLE
8
BLACK
10
1.53543
20
1.45395
40
0.00688976
0
CIRCLE
8
BLACK
10
2.58571
20
1.40992
40
0.00688976
0
CIRCLE
8
BLACK
10
2.78256
20
1.40992
40
0.00688976
0
CIRCLE
8
BLACK
10
1.33858
20
3.54331
40
0.00688976
0
CIRCLE
8
BLACK
10
1.53543
20
3.54331
40
0.00688976
0
CIRCLE
8
BLACK
10
0.43024
20
1.51748
40
0.00688976
0
CIRCLE
8
BLACK
10
0.627091
20
1.51748
40
0.00688976
0
CIRCLE
8
BLACK
10
0.4
20
3.6
40
0.00688976
0
CIRCLE
8
BLACK
10
0.43024
20
3.09228
40
0.00688976
0
CIRCLE
8
BLACK
10
0.627091
20
3.09228
40
0.00688976
0
CIRCLE
8
BLACK
10
1.98173
20
0.503071
40
0.00688976
0
CIRCLE
8
BLACK
10
1.98173
20
0.636929
40
0.00688976
0
CIRCLE
8
BLACK
10
1.59827
20
0.503071
40
0.00688976
0
CIRCLE
8
BLACK
10
1.59827
20
0.636929
40
0.00688976
0
CIRCLE
8
BLACK
10
1.33858
20
2.70756
40
0.00688976
0
CIRCLE
8
BLACK
10
1.53543
20
2.70756
40
0.00688976
0
CIRCLE
8
BLACK
10
2.70591
20
2.31535
40
0.00688976
0
CIRCLE
8
BLACK
10
2.80591
20
2.31535
40
0.00688976
0
CIRCLE
8
BLACK
10
2.70591
20
2.21535
40
0.00688976
0
CIRCLE
8
BLACK
10
2.80591
20
2.21535
40
0.00688976
0
CIRCLE
8
BLACK
10
2.70591
20
2.11535
40
0.00688976
0
CIRCLE
8
BLACK
10
2.80591
20
2.11535
40
0.00688976
0
CIRCLE
8
BLACK
10
2.70591
20
2.01535
40
0.00688976
0
CIRCLE
8
BLACK
10
2.80591
20
2.01535
40
0.00688976
0
CIRCLE
8
BLACK
10
1.33858
20
1.03608
40
0.00688976
0
CIRCLE
8
BLACK
10
1.53543
20
1.03608
40
0.00688976
0
CIRCLE
8
BLACK
10
0.43024
20
2.30488
40
0.00688976
0
CIRCLE
8
BLACK
10
0.627091
20
2.30488
40
0.00688976
0
CIRCLE
8
BLACK
10
2.46969
20
2.31535
40
0.00688976
0
CIRCLE
8
BLACK
10
2.56969
20
2.31535
40
0.00688976
0
CIRCLE
8
BLACK
10
2.46969
20
2.21535
40
0.00688976
0
CIRCLE
8
BLACK
10
2.56969
20
2.21535
40
0.00688976
0
CIRCLE
8
BLACK
10
2.46969
20
2.11535
40
0.00688976
0
CIRCLE
8
BLACK
10
2.56969
20
2.11535
40
0.00688976
0
CIRCLE
8
BLACK
10
2.46969
20
2.01535
40
0.00688976
0
CIRCLE
8
BLACK
10
2.56969
20
2.01535
40
0.00688976
0
CIRCLE
8
BLACK
10
0.627091
20
1.32063
40
0.00688976
0
CIRCLE
8
BLACK
10
0.43024
20
1.32063
40
0.00688976
0
CIRCLE
8
BLACK
10
1.33858
20
2.28969
40
0.00688976
0
CIRCLE
8
BLACK
10
1.53543
20
2.28969
40
0.00688976
0
CIRCLE
8
BLACK
10
0.43024
20
1.91118
40
0.00688976
0
CIRCLE
8
BLACK
10
0.627091
20
1.91118
40
0.00688976
0
CIRCLE
8
BLACK
10
2.91
20
2.94
40
0.00688976
0
CIRCLE
8
BLACK
10
2.81
20
2.94
40
0.00688976
0
CIRCLE
8
BLACK
10
2.91
20
3.04
40
0.00688976
0
CIRCLE
8
BLACK
10
2.81
20
3.04
40
0.00688976
0
CIRCLE
8
BLACK
10
2.91
20
3.14
40
0.00688976
0
CIRCLE
8
BLACK
10
2.81
20
3.14
40
0.00688976
0
CIRCLE
8
BLACK
10
1.88
20
2.17
40
0.00688976
0
CIRCLE
8
BLACK
10
2.4149
20
1.22685
40
0.00688976
0
CIRCLE
8
BLACK
10
2.38231
20
0.839606
40
0.00688976
0
CIRCLE
8
BLACK
10
1.88
20
3.01
40
0.00688976
0
CIRCLE
8
BLACK
10
1.88
20
0.91
40
0.00688976
0
CIRCLE
8
BLACK
10
1.88
20
1.33
40
0.00688976
0
CIRCLE
8
BLACK
10
1.88
20
2.59
40
0.00688976
0
CIRCLE
8
BLACK
10
1.88
20
1.75
40
0.00688976
0
CIRCLE
8
BLACK
10
1.88
20
3.43
40
0.00688976
  0
ENDSEC
  0
EOF
