  0
SECTION
  2
HEADER
  9
$ANGBASE
  50
0.0
  9
$ANGDIR
  70
1
  9
$MEASUREMENT
  70
0
  0
ENDSEC
  0
SECTION
  2
TABLES
  0
TABLE
  2
LTYPE
  70
4
  0
LTYPE
  5
40F
  2
CONTINUOUS
  70
0
  3
Solid line
  72
65
  73
0
  40
0.0
  0
LTYPE
  5
410
  2
DASHDOT
 70
0
  3
Dash Dot ____ _ ____ _
 72
65
 73
4
 40
2.0
 49
1.25
 49
-0.25
 49
0.25
 49
-0.25
  0
LTYPE
  5
411
  2
DASHED
 70
0
  3
Dashed __ __ __ __ __
 72
65
 73
2
 40
0.75
 49
0.5
 49
-0.25
  0
LTYPE
  5
43B
  2
DOTTED
 70
0
  3
Dotted .  .  .  .
 72
65
 73
2
 40
0.2
 49
0.0
 49
-0.2
  0
ENDTAB
  0
TABLE
  2
STYLE
  70
4
  0
STYLE
  2
KICAD
  70
0
  40
0
  41
1
  42
1
  50
0
  71
0
  3
isocp.shx
  0
STYLE
  2
KICADB
  70
0
  40
0
  41
1
  42
1
  50
0
  71
0
  3
isocp.shx
  0
STYLE
  2
KICADI
  70
0
  40
0
  41
1
  42
1
  50
15
  71
0
  3
isocp.shx
  0
STYLE
  2
KICADBI
  70
0
  40
0
  41
1
  42
1
  50
15
  71
0
  3
isocp.shx
  0
ENDTAB
  0
TABLE
  2
LAYER
  70
1
  0
LAYER
  2
BLACK
  70
0
  62
7
  6
CONTINUOUS
  0
ENDTAB
  0
ENDSEC
  0
SECTION
  2
ENTITIES
0
LINE
8
BLACK
6
CONTINUOUS
10
3.80593
20
-0.401312
11
3.80579
21
-0.401337
0
LINE
8
BLACK
6
CONTINUOUS
10
3.80579
20
-0.401337
11
3.80566
21
-0.401266
0
LINE
8
BLACK
6
CONTINUOUS
10
3.80566
20
-0.401266
11
3.80529
21
-0.4012
0
LINE
8
BLACK
6
CONTINUOUS
10
3.80529
20
-0.4012
11
3.80472
21
-0.400719
0
LINE
8
BLACK
6
CONTINUOUS
10
3.80472
20
-0.400719
11
3.80404
21
-0.400327
0
LINE
8
BLACK
6
CONTINUOUS
10
3.80404
20
-0.400327
11
3.80394
21
-0.400071
0
LINE
8
BLACK
6
CONTINUOUS
10
3.80394
20
-0.400071
11
3.80374
21
-0.399902
0
LINE
8
BLACK
6
CONTINUOUS
10
3.80374
20
-0.399902
11
3.80361
21
-0.399154
0
LINE
8
BLACK
6
CONTINUOUS
10
3.80361
20
-0.399154
11
3.80335
21
-0.398429
0
LINE
8
BLACK
6
CONTINUOUS
10
3.80335
20
-0.398429
11
3.80335
21
-0.201571
0
LINE
8
BLACK
6
CONTINUOUS
10
3.80335
20
-0.201571
11
3.80341
21
-0.201189
0
LINE
8
BLACK
6
CONTINUOUS
10
3.80341
20
-0.201189
11
3.80339
21
-0.201062
0
LINE
8
BLACK
6
CONTINUOUS
10
3.80339
20
-0.201062
11
3.80346
21
-0.20095
0
LINE
8
BLACK
6
CONTINUOUS
10
3.80346
20
-0.20095
11
3.80352
21
-0.200561
0
LINE
8
BLACK
6
CONTINUOUS
10
3.80352
20
-0.200561
11
3.80394
21
-0.200067
0
LINE
8
BLACK
6
CONTINUOUS
10
3.80394
20
-0.200067
11
3.80374
21
-0.199902
0
LINE
8
BLACK
6
CONTINUOUS
10
3.80374
20
-0.199902
11
3.80361
21
-0.199154
0
LINE
8
BLACK
6
CONTINUOUS
10
3.80361
20
-0.199154
11
3.80335
21
-0.198429
0
LINE
8
BLACK
6
CONTINUOUS
10
3.80335
20
-0.198429
11
3.80335
21
-0.00157087
0
LINE
8
BLACK
6
CONTINUOUS
10
3.80335
20
-0.00157087
11
3.80341
21
-0.00118929
0
LINE
8
BLACK
6
CONTINUOUS
10
3.80341
20
-0.00118929
11
3.80339
21
-0.00106205
0
LINE
8
BLACK
6
CONTINUOUS
10
3.80339
20
-0.00106205
11
3.80346
21
-0.000950157
0
LINE
8
BLACK
6
CONTINUOUS
10
3.80346
20
-0.000950157
11
3.80352
21
-0.000560945
0
LINE
8
BLACK
6
CONTINUOUS
10
3.80352
20
-0.000560945
11
3.80402
21
3.54331e-05
0
LINE
8
BLACK
6
CONTINUOUS
10
3.80402
20
3.54331e-05
11
3.8044
21
0.000687126
0
LINE
8
BLACK
6
CONTINUOUS
10
3.8044
20
0.000687126
11
3.80465
21
0.000776496
0
LINE
8
BLACK
6
CONTINUOUS
10
3.80465
20
0.000776496
11
3.80482
21
0.000986299
0
LINE
8
BLACK
6
CONTINUOUS
10
3.80482
20
0.000986299
11
3.8056
21
0.00112323
0
LINE
8
BLACK
6
CONTINUOUS
10
3.8056
20
0.00112323
11
3.8063
21
0.00137795
0
LINE
8
BLACK
6
CONTINUOUS
10
3.8063
20
0.00137795
11
4.39685
21
0.00137795
0
LINE
8
BLACK
6
CONTINUOUS
10
4.39685
20
0.00137795
11
4.39723
21
0.00131031
0
LINE
8
BLACK
6
CONTINUOUS
10
4.39723
20
0.00131031
11
4.39736
21
0.00133311
0
LINE
8
BLACK
6
CONTINUOUS
10
4.39736
20
0.00133311
11
4.39748
21
0.00126752
0
LINE
8
BLACK
6
CONTINUOUS
10
4.39748
20
0.00126752
11
4.39786
21
0.00119988
0
LINE
8
BLACK
6
CONTINUOUS
10
4.39786
20
0.00119988
11
4.39845
21
0.000706732
0
LINE
8
BLACK
6
CONTINUOUS
10
4.39845
20
0.000706732
11
4.39911
21
0.000323189
0
LINE
8
BLACK
6
CONTINUOUS
10
4.39911
20
0.000323189
11
4.3992
21
7.28346e-05
0
LINE
8
BLACK
6
CONTINUOUS
10
4.3992
20
7.28346e-05
11
4.39941
21
-9.84252e-05
0
LINE
8
BLACK
6
CONTINUOUS
10
4.39941
20
-9.84252e-05
11
4.39954
21
-0.000853976
0
LINE
8
BLACK
6
CONTINUOUS
10
4.39954
20
-0.000853976
11
4.3998
21
-0.0015748
0
LINE
8
BLACK
6
CONTINUOUS
10
4.3998
20
-0.0015748
11
4.3998
21
-0.0183071
0
LINE
8
BLACK
6
CONTINUOUS
10
4.3998
20
-0.0183071
11
4.49531
21
-0.0183071
0
LINE
8
BLACK
6
CONTINUOUS
10
4.49531
20
-0.0183071
11
4.49568
21
-0.0183716
0
LINE
8
BLACK
6
CONTINUOUS
10
4.49568
20
-0.0183716
11
4.49579
21
-0.0183519
0
LINE
8
BLACK
6
CONTINUOUS
10
4.49579
20
-0.0183519
11
4.49589
21
-0.0184085
0
LINE
8
BLACK
6
CONTINUOUS
10
4.49589
20
-0.0184085
11
4.49632
21
-0.0184852
0
LINE
8
BLACK
6
CONTINUOUS
10
4.49632
20
-0.0184852
11
4.49699
21
-0.0190439
0
LINE
8
BLACK
6
CONTINUOUS
10
4.49699
20
-0.0190439
11
4.49754
21
-0.0193619
0
LINE
8
BLACK
6
CONTINUOUS
10
4.49754
20
-0.0193619
11
4.49762
21
-0.0195694
0
LINE
8
BLACK
6
CONTINUOUS
10
4.49762
20
-0.0195694
11
4.49787
21
-0.0197835
0
LINE
8
BLACK
6
CONTINUOUS
10
4.49787
20
-0.0197835
11
4.49804
21
-0.0207279
0
LINE
8
BLACK
6
CONTINUOUS
10
4.49804
20
-0.0207279
11
4.49823
21
-0.0212598
0
LINE
8
BLACK
6
CONTINUOUS
10
4.49823
20
-0.0212598
11
4.49823
21
-0.17874
0
LINE
8
BLACK
6
CONTINUOUS
10
4.49823
20
-0.17874
11
4.49816
21
-0.179124
0
LINE
8
BLACK
6
CONTINUOUS
10
4.49816
20
-0.179124
11
4.49819
21
-0.179253
0
LINE
8
BLACK
6
CONTINUOUS
10
4.49819
20
-0.179253
11
4.49812
21
-0.179367
0
LINE
8
BLACK
6
CONTINUOUS
10
4.49812
20
-0.179367
11
4.49805
21
-0.17975
0
LINE
8
BLACK
6
CONTINUOUS
10
4.49805
20
-0.17975
11
4.49756
21
-0.180338
0
LINE
8
BLACK
6
CONTINUOUS
10
4.49756
20
-0.180338
11
4.49718
21
-0.181002
0
LINE
8
BLACK
6
CONTINUOUS
10
4.49718
20
-0.181002
11
4.49693
21
-0.181093
0
LINE
8
BLACK
6
CONTINUOUS
10
4.49693
20
-0.181093
11
4.49676
21
-0.181297
0
LINE
8
BLACK
6
CONTINUOUS
10
4.49676
20
-0.181297
11
4.496
21
-0.181431
0
LINE
8
BLACK
6
CONTINUOUS
10
4.496
20
-0.181431
11
4.49528
21
-0.181693
0
LINE
8
BLACK
6
CONTINUOUS
10
4.49528
20
-0.181693
11
4.3998
21
-0.181693
0
LINE
8
BLACK
6
CONTINUOUS
10
4.3998
20
-0.181693
11
4.3998
21
-0.198425
0
LINE
8
BLACK
6
CONTINUOUS
10
4.3998
20
-0.198425
11
4.39974
21
-0.198809
0
LINE
8
BLACK
6
CONTINUOUS
10
4.39974
20
-0.198809
11
4.39976
21
-0.198938
0
LINE
8
BLACK
6
CONTINUOUS
10
4.39976
20
-0.198938
11
4.39969
21
-0.199052
0
LINE
8
BLACK
6
CONTINUOUS
10
4.39969
20
-0.199052
11
4.39963
21
-0.199435
0
LINE
8
BLACK
6
CONTINUOUS
10
4.39963
20
-0.199435
11
4.39921
21
-0.199931
0
LINE
8
BLACK
6
CONTINUOUS
10
4.39921
20
-0.199931
11
4.39941
21
-0.200098
0
LINE
8
BLACK
6
CONTINUOUS
10
4.39941
20
-0.200098
11
4.39954
21
-0.200854
0
LINE
8
BLACK
6
CONTINUOUS
10
4.39954
20
-0.200854
11
4.3998
21
-0.201575
0
LINE
8
BLACK
6
CONTINUOUS
10
4.3998
20
-0.201575
11
4.3998
21
-0.218307
0
LINE
8
BLACK
6
CONTINUOUS
10
4.3998
20
-0.218307
11
4.49531
21
-0.218307
0
LINE
8
BLACK
6
CONTINUOUS
10
4.49531
20
-0.218307
11
4.49568
21
-0.218372
0
LINE
8
BLACK
6
CONTINUOUS
10
4.49568
20
-0.218372
11
4.49579
21
-0.218352
0
LINE
8
BLACK
6
CONTINUOUS
10
4.49579
20
-0.218352
11
4.49589
21
-0.218409
0
LINE
8
BLACK
6
CONTINUOUS
10
4.49589
20
-0.218409
11
4.49632
21
-0.218485
0
LINE
8
BLACK
6
CONTINUOUS
10
4.49632
20
-0.218485
11
4.49699
21
-0.219044
0
LINE
8
BLACK
6
CONTINUOUS
10
4.49699
20
-0.219044
11
4.49754
21
-0.219362
0
LINE
8
BLACK
6
CONTINUOUS
10
4.49754
20
-0.219362
11
4.49762
21
-0.219569
0
LINE
8
BLACK
6
CONTINUOUS
10
4.49762
20
-0.219569
11
4.49787
21
-0.219783
0
LINE
8
BLACK
6
CONTINUOUS
10
4.49787
20
-0.219783
11
4.49804
21
-0.220728
0
LINE
8
BLACK
6
CONTINUOUS
10
4.49804
20
-0.220728
11
4.49823
21
-0.22126
0
LINE
8
BLACK
6
CONTINUOUS
10
4.49823
20
-0.22126
11
4.49823
21
-0.37874
0
LINE
8
BLACK
6
CONTINUOUS
10
4.49823
20
-0.37874
11
4.49816
21
-0.379124
0
LINE
8
BLACK
6
CONTINUOUS
10
4.49816
20
-0.379124
11
4.49819
21
-0.379253
0
LINE
8
BLACK
6
CONTINUOUS
10
4.49819
20
-0.379253
11
4.49812
21
-0.379367
0
LINE
8
BLACK
6
CONTINUOUS
10
4.49812
20
-0.379367
11
4.49805
21
-0.37975
0
LINE
8
BLACK
6
CONTINUOUS
10
4.49805
20
-0.37975
11
4.49756
21
-0.380338
0
LINE
8
BLACK
6
CONTINUOUS
10
4.49756
20
-0.380338
11
4.49718
21
-0.381002
0
LINE
8
BLACK
6
CONTINUOUS
10
4.49718
20
-0.381002
11
4.49693
21
-0.381093
0
LINE
8
BLACK
6
CONTINUOUS
10
4.49693
20
-0.381093
11
4.49676
21
-0.381297
0
LINE
8
BLACK
6
CONTINUOUS
10
4.49676
20
-0.381297
11
4.496
21
-0.381431
0
LINE
8
BLACK
6
CONTINUOUS
10
4.496
20
-0.381431
11
4.49528
21
-0.381693
0
LINE
8
BLACK
6
CONTINUOUS
10
4.49528
20
-0.381693
11
4.3998
21
-0.381693
0
LINE
8
BLACK
6
CONTINUOUS
10
4.3998
20
-0.381693
11
4.3998
21
-0.398425
0
LINE
8
BLACK
6
CONTINUOUS
10
4.3998
20
-0.398425
11
4.39974
21
-0.398809
0
LINE
8
BLACK
6
CONTINUOUS
10
4.39974
20
-0.398809
11
4.39976
21
-0.398938
0
LINE
8
BLACK
6
CONTINUOUS
10
4.39976
20
-0.398938
11
4.39969
21
-0.399052
0
LINE
8
BLACK
6
CONTINUOUS
10
4.39969
20
-0.399052
11
4.39963
21
-0.399435
0
LINE
8
BLACK
6
CONTINUOUS
10
4.39963
20
-0.399435
11
4.39913
21
-0.400023
0
LINE
8
BLACK
6
CONTINUOUS
10
4.39913
20
-0.400023
11
4.39875
21
-0.400687
0
LINE
8
BLACK
6
CONTINUOUS
10
4.39875
20
-0.400687
11
4.3985
21
-0.400778
0
LINE
8
BLACK
6
CONTINUOUS
10
4.3985
20
-0.400778
11
4.39833
21
-0.400982
0
LINE
8
BLACK
6
CONTINUOUS
10
4.39833
20
-0.400982
11
4.39757
21
-0.401116
0
LINE
8
BLACK
6
CONTINUOUS
10
4.39757
20
-0.401116
11
4.39685
21
-0.401378
0
LINE
8
BLACK
6
CONTINUOUS
10
4.39685
20
-0.401378
11
3.8063
21
-0.401378
0
LINE
8
BLACK
6
CONTINUOUS
10
3.8063
20
-0.401378
11
3.80593
21
-0.401312
0
LINE
8
BLACK
6
CONTINUOUS
10
4.3939
20
-0.381693
11
4.35748
21
-0.381693
0
LINE
8
BLACK
6
CONTINUOUS
10
4.35748
20
-0.381693
11
4.3571
21
-0.381625
0
LINE
8
BLACK
6
CONTINUOUS
10
4.3571
20
-0.381625
11
4.35697
21
-0.381648
0
LINE
8
BLACK
6
CONTINUOUS
10
4.35697
20
-0.381648
11
4.35685
21
-0.381582
0
LINE
8
BLACK
6
CONTINUOUS
10
4.35685
20
-0.381582
11
4.35647
21
-0.381515
0
LINE
8
BLACK
6
CONTINUOUS
10
4.35647
20
-0.381515
11
4.35588
21
-0.381022
0
LINE
8
BLACK
6
CONTINUOUS
10
4.35588
20
-0.381022
11
4.35522
21
-0.380638
0
LINE
8
BLACK
6
CONTINUOUS
10
4.35522
20
-0.380638
11
4.35513
21
-0.380388
0
LINE
8
BLACK
6
CONTINUOUS
10
4.35513
20
-0.380388
11
4.35492
21
-0.380217
0
LINE
8
BLACK
6
CONTINUOUS
10
4.35492
20
-0.380217
11
4.35479
21
-0.379461
0
LINE
8
BLACK
6
CONTINUOUS
10
4.35479
20
-0.379461
11
4.35453
21
-0.37874
0
LINE
8
BLACK
6
CONTINUOUS
10
4.35453
20
-0.37874
11
4.35453
21
-0.22126
0
LINE
8
BLACK
6
CONTINUOUS
10
4.35453
20
-0.22126
11
4.3546
21
-0.220876
0
LINE
8
BLACK
6
CONTINUOUS
10
4.3546
20
-0.220876
11
4.35457
21
-0.220747
0
LINE
8
BLACK
6
CONTINUOUS
10
4.35457
20
-0.220747
11
4.35464
21
-0.220633
0
LINE
8
BLACK
6
CONTINUOUS
10
4.35464
20
-0.220633
11
4.35471
21
-0.22025
0
LINE
8
BLACK
6
CONTINUOUS
10
4.35471
20
-0.22025
11
4.3552
21
-0.219662
0
LINE
8
BLACK
6
CONTINUOUS
10
4.3552
20
-0.219662
11
4.35558
21
-0.218998
0
LINE
8
BLACK
6
CONTINUOUS
10
4.35558
20
-0.218998
11
4.35583
21
-0.218907
0
LINE
8
BLACK
6
CONTINUOUS
10
4.35583
20
-0.218907
11
4.356
21
-0.218703
0
LINE
8
BLACK
6
CONTINUOUS
10
4.356
20
-0.218703
11
4.35676
21
-0.218569
0
LINE
8
BLACK
6
CONTINUOUS
10
4.35676
20
-0.218569
11
4.35748
21
-0.218307
0
LINE
8
BLACK
6
CONTINUOUS
10
4.35748
20
-0.218307
11
4.3939
21
-0.218307
0
LINE
8
BLACK
6
CONTINUOUS
10
4.3939
20
-0.218307
11
4.3939
21
-0.204528
0
LINE
8
BLACK
6
CONTINUOUS
10
4.3939
20
-0.204528
11
3.80925
21
-0.204528
0
LINE
8
BLACK
6
CONTINUOUS
10
3.80925
20
-0.204528
11
3.80925
21
-0.395472
0
LINE
8
BLACK
6
CONTINUOUS
10
3.80925
20
-0.395472
11
4.3939
21
-0.395472
0
LINE
8
BLACK
6
CONTINUOUS
10
4.3939
20
-0.395472
11
4.3939
21
-0.381693
0
LINE
8
BLACK
6
CONTINUOUS
10
4.36043
20
-0.224213
11
4.36043
21
-0.375787
0
LINE
8
BLACK
6
CONTINUOUS
10
4.36043
20
-0.375787
11
4.49233
21
-0.375787
0
LINE
8
BLACK
6
CONTINUOUS
10
4.49233
20
-0.375787
11
4.49233
21
-0.224213
0
LINE
8
BLACK
6
CONTINUOUS
10
4.49233
20
-0.224213
11
4.36043
21
-0.224213
0
LINE
8
BLACK
6
CONTINUOUS
10
4.3939
20
-0.181693
11
4.35748
21
-0.181693
0
LINE
8
BLACK
6
CONTINUOUS
10
4.35748
20
-0.181693
11
4.3571
21
-0.181625
0
LINE
8
BLACK
6
CONTINUOUS
10
4.3571
20
-0.181625
11
4.35697
21
-0.181648
0
LINE
8
BLACK
6
CONTINUOUS
10
4.35697
20
-0.181648
11
4.35685
21
-0.181582
0
LINE
8
BLACK
6
CONTINUOUS
10
4.35685
20
-0.181582
11
4.35647
21
-0.181515
0
LINE
8
BLACK
6
CONTINUOUS
10
4.35647
20
-0.181515
11
4.35588
21
-0.181022
0
LINE
8
BLACK
6
CONTINUOUS
10
4.35588
20
-0.181022
11
4.35522
21
-0.180638
0
LINE
8
BLACK
6
CONTINUOUS
10
4.35522
20
-0.180638
11
4.35513
21
-0.180388
0
LINE
8
BLACK
6
CONTINUOUS
10
4.35513
20
-0.180388
11
4.35492
21
-0.180217
0
LINE
8
BLACK
6
CONTINUOUS
10
4.35492
20
-0.180217
11
4.35479
21
-0.179461
0
LINE
8
BLACK
6
CONTINUOUS
10
4.35479
20
-0.179461
11
4.35453
21
-0.17874
0
LINE
8
BLACK
6
CONTINUOUS
10
4.35453
20
-0.17874
11
4.35453
21
-0.0212598
0
LINE
8
BLACK
6
CONTINUOUS
10
4.35453
20
-0.0212598
11
4.3546
21
-0.0208763
0
LINE
8
BLACK
6
CONTINUOUS
10
4.3546
20
-0.0208763
11
4.35457
21
-0.0207471
0
LINE
8
BLACK
6
CONTINUOUS
10
4.35457
20
-0.0207471
11
4.35464
21
-0.0206335
0
LINE
8
BLACK
6
CONTINUOUS
10
4.35464
20
-0.0206335
11
4.35471
21
-0.0202499
0
LINE
8
BLACK
6
CONTINUOUS
10
4.35471
20
-0.0202499
11
4.3552
21
-0.0196622
0
LINE
8
BLACK
6
CONTINUOUS
10
4.3552
20
-0.0196622
11
4.35558
21
-0.0189979
0
LINE
8
BLACK
6
CONTINUOUS
10
4.35558
20
-0.0189979
11
4.35583
21
-0.0189068
0
LINE
8
BLACK
6
CONTINUOUS
10
4.35583
20
-0.0189068
11
4.356
21
-0.0187027
0
LINE
8
BLACK
6
CONTINUOUS
10
4.356
20
-0.0187027
11
4.35676
21
-0.0185694
0
LINE
8
BLACK
6
CONTINUOUS
10
4.35676
20
-0.0185694
11
4.35748
21
-0.0183071
0
LINE
8
BLACK
6
CONTINUOUS
10
4.35748
20
-0.0183071
11
4.3939
21
-0.0183071
0
LINE
8
BLACK
6
CONTINUOUS
10
4.3939
20
-0.0183071
11
4.3939
21
-0.00452756
0
LINE
8
BLACK
6
CONTINUOUS
10
4.3939
20
-0.00452756
11
3.80925
21
-0.00452756
0
LINE
8
BLACK
6
CONTINUOUS
10
3.80925
20
-0.00452756
11
3.80925
21
-0.195472
0
LINE
8
BLACK
6
CONTINUOUS
10
3.80925
20
-0.195472
11
4.3939
21
-0.195472
0
LINE
8
BLACK
6
CONTINUOUS
10
4.3939
20
-0.195472
11
4.3939
21
-0.181693
0
LINE
8
BLACK
6
CONTINUOUS
10
4.36043
20
-0.0242126
11
4.36043
21
-0.175787
0
LINE
8
BLACK
6
CONTINUOUS
10
4.36043
20
-0.175787
11
4.49233
21
-0.175787
0
LINE
8
BLACK
6
CONTINUOUS
10
4.49233
20
-0.175787
11
4.49233
21
-0.0242126
0
LINE
8
BLACK
6
CONTINUOUS
10
4.49233
20
-0.0242126
11
4.36043
21
-0.0242126
0
LINE
8
BLACK
6
CONTINUOUS
10
3.88093
20
-0.31425
11
3.8819
21
-0.314308
0
LINE
8
BLACK
6
CONTINUOUS
10
3.8819
20
-0.314308
11
3.89047
21
-0.317165
0
LINE
8
BLACK
6
CONTINUOUS
10
3.89047
20
-0.317165
11
3.89162
21
-0.317925
0
LINE
8
BLACK
6
CONTINUOUS
10
3.89162
20
-0.317925
11
3.89281
21
-0.318614
0
LINE
8
BLACK
6
CONTINUOUS
10
3.89281
20
-0.318614
11
3.89853
21
-0.324329
0
LINE
8
BLACK
6
CONTINUOUS
10
3.89853
20
-0.324329
11
3.89922
21
-0.325523
0
LINE
8
BLACK
6
CONTINUOUS
10
3.89922
20
-0.325523
11
3.89998
21
-0.326674
0
LINE
8
BLACK
6
CONTINUOUS
10
3.89998
20
-0.326674
11
3.90283
21
-0.335245
0
LINE
8
BLACK
6
CONTINUOUS
10
3.90283
20
-0.335245
11
3.90289
21
-0.33621
0
LINE
8
BLACK
6
CONTINUOUS
10
3.90289
20
-0.33621
11
3.90314
21
-0.337143
0
LINE
8
BLACK
6
CONTINUOUS
10
3.90314
20
-0.337143
11
3.90314
21
-0.342857
0
LINE
8
BLACK
6
CONTINUOUS
10
3.90314
20
-0.342857
11
3.90234
21
-0.345857
0
LINE
8
BLACK
6
CONTINUOUS
10
3.90234
20
-0.345857
11
3.90014
21
-0.348053
0
LINE
8
BLACK
6
CONTINUOUS
10
3.90014
20
-0.348053
11
3.89714
21
-0.348857
0
LINE
8
BLACK
6
CONTINUOUS
10
3.89714
20
-0.348857
11
3.89414
21
-0.348053
0
LINE
8
BLACK
6
CONTINUOUS
10
3.89414
20
-0.348053
11
3.89195
21
-0.345857
0
LINE
8
BLACK
6
CONTINUOUS
10
3.89195
20
-0.345857
11
3.89114
21
-0.342857
0
LINE
8
BLACK
6
CONTINUOUS
10
3.89114
20
-0.342857
11
3.89114
21
-0.338116
0
LINE
8
BLACK
6
CONTINUOUS
10
3.89114
20
-0.338116
11
3.88904
21
-0.331813
0
LINE
8
BLACK
6
CONTINUOUS
10
3.88904
20
-0.331813
11
3.88533
21
-0.328101
0
LINE
8
BLACK
6
CONTINUOUS
10
3.88533
20
-0.328101
11
3.87903
21
-0.326
0
LINE
8
BLACK
6
CONTINUOUS
10
3.87903
20
-0.326
11
3.83714
21
-0.326
0
LINE
8
BLACK
6
CONTINUOUS
10
3.83714
20
-0.326
11
3.83414
21
-0.325196
0
LINE
8
BLACK
6
CONTINUOUS
10
3.83414
20
-0.325196
11
3.83195
21
-0.323
0
LINE
8
BLACK
6
CONTINUOUS
10
3.83195
20
-0.323
11
3.83114
21
-0.32
0
LINE
8
BLACK
6
CONTINUOUS
10
3.83114
20
-0.32
11
3.83195
21
-0.317
0
LINE
8
BLACK
6
CONTINUOUS
10
3.83195
20
-0.317
11
3.83414
21
-0.314804
0
LINE
8
BLACK
6
CONTINUOUS
10
3.83414
20
-0.314804
11
3.83714
21
-0.314
0
LINE
8
BLACK
6
CONTINUOUS
10
3.83714
20
-0.314
11
3.88
21
-0.314
0
LINE
8
BLACK
6
CONTINUOUS
10
3.88
20
-0.314
11
3.88093
21
-0.31425
0
LINE
8
BLACK
6
CONTINUOUS
10
3.83831
20
-0.251456
11
3.83951
21
-0.251628
0
LINE
8
BLACK
6
CONTINUOUS
10
3.83951
20
-0.251628
11
3.89951
21
-0.277342
0
LINE
8
BLACK
6
CONTINUOUS
10
3.89951
20
-0.277342
11
3.90195
21
-0.279263
0
LINE
8
BLACK
6
CONTINUOUS
10
3.90195
20
-0.279263
11
3.9031
21
-0.282147
0
LINE
8
BLACK
6
CONTINUOUS
10
3.9031
20
-0.282147
11
3.90266
21
-0.285221
0
LINE
8
BLACK
6
CONTINUOUS
10
3.90266
20
-0.285221
11
3.90074
21
-0.287661
0
LINE
8
BLACK
6
CONTINUOUS
10
3.90074
20
-0.287661
11
3.89785
21
-0.288815
0
LINE
8
BLACK
6
CONTINUOUS
10
3.89785
20
-0.288815
11
3.89478
21
-0.288372
0
LINE
8
BLACK
6
CONTINUOUS
10
3.89478
20
-0.288372
11
3.84314
21
-0.266242
0
LINE
8
BLACK
6
CONTINUOUS
10
3.84314
20
-0.266242
11
3.84314
21
-0.297143
0
LINE
8
BLACK
6
CONTINUOUS
10
3.84314
20
-0.297143
11
3.84234
21
-0.300143
0
LINE
8
BLACK
6
CONTINUOUS
10
3.84234
20
-0.300143
11
3.84014
21
-0.302339
0
LINE
8
BLACK
6
CONTINUOUS
10
3.84014
20
-0.302339
11
3.83714
21
-0.303143
0
LINE
8
BLACK
6
CONTINUOUS
10
3.83714
20
-0.303143
11
3.83414
21
-0.302339
0
LINE
8
BLACK
6
CONTINUOUS
10
3.83414
20
-0.302339
11
3.83195
21
-0.300143
0
LINE
8
BLACK
6
CONTINUOUS
10
3.83195
20
-0.300143
11
3.83114
21
-0.297143
0
LINE
8
BLACK
6
CONTINUOUS
10
3.83114
20
-0.297143
11
3.83114
21
-0.257143
0
LINE
8
BLACK
6
CONTINUOUS
10
3.83114
20
-0.257143
11
3.83146
21
-0.255976
0
LINE
8
BLACK
6
CONTINUOUS
10
3.83146
20
-0.255976
11
3.83163
21
-0.254779
0
LINE
8
BLACK
6
CONTINUOUS
10
3.83163
20
-0.254779
11
3.83185
21
-0.254494
0
LINE
8
BLACK
6
CONTINUOUS
10
3.83185
20
-0.254494
11
3.83195
21
-0.254143
0
LINE
8
BLACK
6
CONTINUOUS
10
3.83195
20
-0.254143
11
3.8328
21
-0.253288
0
LINE
8
BLACK
6
CONTINUOUS
10
3.8328
20
-0.253288
11
3.83355
21
-0.252339
0
LINE
8
BLACK
6
CONTINUOUS
10
3.83355
20
-0.252339
11
3.83389
21
-0.252204
0
LINE
8
BLACK
6
CONTINUOUS
10
3.83389
20
-0.252204
11
3.83414
21
-0.251947
0
LINE
8
BLACK
6
CONTINUOUS
10
3.83414
20
-0.251947
11
3.83531
21
-0.251634
0
LINE
8
BLACK
6
CONTINUOUS
10
3.83531
20
-0.251634
11
3.83643
21
-0.251185
0
LINE
8
BLACK
6
CONTINUOUS
10
3.83643
20
-0.251185
11
3.83679
21
-0.251237
0
LINE
8
BLACK
6
CONTINUOUS
10
3.83679
20
-0.251237
11
3.83714
21
-0.251143
0
LINE
8
BLACK
6
CONTINUOUS
10
3.83714
20
-0.251143
11
3.83831
21
-0.251456
0
LINE
8
BLACK
6
CONTINUOUS
10
4.47586
20
-0.23804
11
4.4761
21
-0.237998
0
LINE
8
BLACK
6
CONTINUOUS
10
4.4761
20
-0.237998
11
4.47632
21
-0.23812
0
LINE
8
BLACK
6
CONTINUOUS
10
4.47632
20
-0.23812
11
4.4766
21
-0.23817
0
LINE
8
BLACK
6
CONTINUOUS
10
4.4766
20
-0.23817
11
4.47704
21
-0.238537
0
LINE
8
BLACK
6
CONTINUOUS
10
4.47704
20
-0.238537
11
4.47785
21
-0.239008
0
LINE
8
BLACK
6
CONTINUOUS
10
4.47785
20
-0.239008
11
4.47796
21
-0.239315
0
LINE
8
BLACK
6
CONTINUOUS
10
4.47796
20
-0.239315
11
4.47815
21
-0.239469
0
LINE
8
BLACK
6
CONTINUOUS
10
4.47815
20
-0.239469
11
4.47827
21
-0.240148
0
LINE
8
BLACK
6
CONTINUOUS
10
4.47827
20
-0.240148
11
4.47854
21
-0.240906
0
LINE
8
BLACK
6
CONTINUOUS
10
4.47854
20
-0.240906
11
4.47854
21
-0.359094
0
LINE
8
BLACK
6
CONTINUOUS
10
4.47854
20
-0.359094
11
4.47848
21
-0.359458
0
LINE
8
BLACK
6
CONTINUOUS
10
4.47848
20
-0.359458
11
4.4785
21
-0.359568
0
LINE
8
BLACK
6
CONTINUOUS
10
4.4785
20
-0.359568
11
4.47844
21
-0.359664
0
LINE
8
BLACK
6
CONTINUOUS
10
4.47844
20
-0.359664
11
4.47837
21
-0.360104
0
LINE
8
BLACK
6
CONTINUOUS
10
4.47837
20
-0.360104
11
4.4778
21
-0.360779
0
LINE
8
BLACK
6
CONTINUOUS
10
4.4778
20
-0.360779
11
4.47749
21
-0.361317
0
LINE
8
BLACK
6
CONTINUOUS
10
4.47749
20
-0.361317
11
4.47729
21
-0.361391
0
LINE
8
BLACK
6
CONTINUOUS
10
4.47729
20
-0.361391
11
4.47707
21
-0.361652
0
LINE
8
BLACK
6
CONTINUOUS
10
4.47707
20
-0.361652
11
4.4761
21
-0.361822
0
LINE
8
BLACK
6
CONTINUOUS
10
4.4761
20
-0.361822
11
4.47559
21
-0.362008
0
LINE
8
BLACK
6
CONTINUOUS
10
4.47559
20
-0.362008
11
4.37717
21
-0.362008
0
LINE
8
BLACK
6
CONTINUOUS
10
4.37717
20
-0.362008
11
4.3769
21
-0.36196
0
LINE
8
BLACK
6
CONTINUOUS
10
4.3769
20
-0.36196
11
4.37666
21
-0.362002
0
LINE
8
BLACK
6
CONTINUOUS
10
4.37666
20
-0.362002
11
4.37644
21
-0.36188
0
LINE
8
BLACK
6
CONTINUOUS
10
4.37644
20
-0.36188
11
4.37616
21
-0.36183
0
LINE
8
BLACK
6
CONTINUOUS
10
4.37616
20
-0.36183
11
4.37572
21
-0.361463
0
LINE
8
BLACK
6
CONTINUOUS
10
4.37572
20
-0.361463
11
4.37491
21
-0.360992
0
LINE
8
BLACK
6
CONTINUOUS
10
4.37491
20
-0.360992
11
4.3748
21
-0.360685
0
LINE
8
BLACK
6
CONTINUOUS
10
4.3748
20
-0.360685
11
4.37461
21
-0.360531
0
LINE
8
BLACK
6
CONTINUOUS
10
4.37461
20
-0.360531
11
4.37449
21
-0.359852
0
LINE
8
BLACK
6
CONTINUOUS
10
4.37449
20
-0.359852
11
4.37422
21
-0.359094
0
LINE
8
BLACK
6
CONTINUOUS
10
4.37422
20
-0.359094
11
4.37422
21
-0.240906
0
LINE
8
BLACK
6
CONTINUOUS
10
4.37422
20
-0.240906
11
4.37428
21
-0.240542
0
LINE
8
BLACK
6
CONTINUOUS
10
4.37428
20
-0.240542
11
4.37426
21
-0.240432
0
LINE
8
BLACK
6
CONTINUOUS
10
4.37426
20
-0.240432
11
4.37432
21
-0.240336
0
LINE
8
BLACK
6
CONTINUOUS
10
4.37432
20
-0.240336
11
4.37439
21
-0.239896
0
LINE
8
BLACK
6
CONTINUOUS
10
4.37439
20
-0.239896
11
4.37496
21
-0.239221
0
LINE
8
BLACK
6
CONTINUOUS
10
4.37496
20
-0.239221
11
4.37527
21
-0.238683
0
LINE
8
BLACK
6
CONTINUOUS
10
4.37527
20
-0.238683
11
4.37547
21
-0.238609
0
LINE
8
BLACK
6
CONTINUOUS
10
4.37547
20
-0.238609
11
4.37569
21
-0.238348
0
LINE
8
BLACK
6
CONTINUOUS
10
4.37569
20
-0.238348
11
4.37666
21
-0.238178
0
LINE
8
BLACK
6
CONTINUOUS
10
4.37666
20
-0.238178
11
4.37717
21
-0.237992
0
LINE
8
BLACK
6
CONTINUOUS
10
4.37717
20
-0.237992
11
4.47559
21
-0.237992
0
LINE
8
BLACK
6
CONTINUOUS
10
4.47559
20
-0.237992
11
4.47586
21
-0.23804
0
LINE
8
BLACK
6
CONTINUOUS
10
4.38012
20
-0.243898
11
4.38012
21
-0.356102
0
LINE
8
BLACK
6
CONTINUOUS
10
4.38012
20
-0.356102
11
4.47264
21
-0.356102
0
LINE
8
BLACK
6
CONTINUOUS
10
4.47264
20
-0.356102
11
4.47264
21
-0.243898
0
LINE
8
BLACK
6
CONTINUOUS
10
4.47264
20
-0.243898
11
4.38012
21
-0.243898
0
LINE
8
BLACK
6
CONTINUOUS
10
3.88093
20
-0.11425
11
3.8819
21
-0.114308
0
LINE
8
BLACK
6
CONTINUOUS
10
3.8819
20
-0.114308
11
3.89047
21
-0.117165
0
LINE
8
BLACK
6
CONTINUOUS
10
3.89047
20
-0.117165
11
3.89162
21
-0.117925
0
LINE
8
BLACK
6
CONTINUOUS
10
3.89162
20
-0.117925
11
3.89281
21
-0.118614
0
LINE
8
BLACK
6
CONTINUOUS
10
3.89281
20
-0.118614
11
3.89853
21
-0.124329
0
LINE
8
BLACK
6
CONTINUOUS
10
3.89853
20
-0.124329
11
3.89922
21
-0.125523
0
LINE
8
BLACK
6
CONTINUOUS
10
3.89922
20
-0.125523
11
3.89998
21
-0.126674
0
LINE
8
BLACK
6
CONTINUOUS
10
3.89998
20
-0.126674
11
3.90283
21
-0.135245
0
LINE
8
BLACK
6
CONTINUOUS
10
3.90283
20
-0.135245
11
3.90289
21
-0.13621
0
LINE
8
BLACK
6
CONTINUOUS
10
3.90289
20
-0.13621
11
3.90314
21
-0.137143
0
LINE
8
BLACK
6
CONTINUOUS
10
3.90314
20
-0.137143
11
3.90314
21
-0.142857
0
LINE
8
BLACK
6
CONTINUOUS
10
3.90314
20
-0.142857
11
3.90234
21
-0.145857
0
LINE
8
BLACK
6
CONTINUOUS
10
3.90234
20
-0.145857
11
3.90014
21
-0.148053
0
LINE
8
BLACK
6
CONTINUOUS
10
3.90014
20
-0.148053
11
3.89714
21
-0.148857
0
LINE
8
BLACK
6
CONTINUOUS
10
3.89714
20
-0.148857
11
3.89414
21
-0.148053
0
LINE
8
BLACK
6
CONTINUOUS
10
3.89414
20
-0.148053
11
3.89195
21
-0.145857
0
LINE
8
BLACK
6
CONTINUOUS
10
3.89195
20
-0.145857
11
3.89114
21
-0.142857
0
LINE
8
BLACK
6
CONTINUOUS
10
3.89114
20
-0.142857
11
3.89114
21
-0.138116
0
LINE
8
BLACK
6
CONTINUOUS
10
3.89114
20
-0.138116
11
3.88904
21
-0.131813
0
LINE
8
BLACK
6
CONTINUOUS
10
3.88904
20
-0.131813
11
3.88533
21
-0.128101
0
LINE
8
BLACK
6
CONTINUOUS
10
3.88533
20
-0.128101
11
3.87903
21
-0.126
0
LINE
8
BLACK
6
CONTINUOUS
10
3.87903
20
-0.126
11
3.83714
21
-0.126
0
LINE
8
BLACK
6
CONTINUOUS
10
3.83714
20
-0.126
11
3.83414
21
-0.125196
0
LINE
8
BLACK
6
CONTINUOUS
10
3.83414
20
-0.125196
11
3.83195
21
-0.123
0
LINE
8
BLACK
6
CONTINUOUS
10
3.83195
20
-0.123
11
3.83114
21
-0.12
0
LINE
8
BLACK
6
CONTINUOUS
10
3.83114
20
-0.12
11
3.83195
21
-0.117
0
LINE
8
BLACK
6
CONTINUOUS
10
3.83195
20
-0.117
11
3.83414
21
-0.114804
0
LINE
8
BLACK
6
CONTINUOUS
10
3.83414
20
-0.114804
11
3.83714
21
-0.114
0
LINE
8
BLACK
6
CONTINUOUS
10
3.83714
20
-0.114
11
3.88
21
-0.114
0
LINE
8
BLACK
6
CONTINUOUS
10
3.88
20
-0.114
11
3.88093
21
-0.11425
0
LINE
8
BLACK
6
CONTINUOUS
10
3.88014
20
-0.0519467
11
3.88234
21
-0.0541428
0
LINE
8
BLACK
6
CONTINUOUS
10
3.88234
20
-0.0541428
11
3.88314
21
-0.0571428
0
LINE
8
BLACK
6
CONTINUOUS
10
3.88314
20
-0.0571428
11
3.88314
21
-0.0597143
0
LINE
8
BLACK
6
CONTINUOUS
10
3.88314
20
-0.0597143
11
3.89714
21
-0.0597143
0
LINE
8
BLACK
6
CONTINUOUS
10
3.89714
20
-0.0597143
11
3.90014
21
-0.0605181
0
LINE
8
BLACK
6
CONTINUOUS
10
3.90014
20
-0.0605181
11
3.90234
21
-0.0627143
0
LINE
8
BLACK
6
CONTINUOUS
10
3.90234
20
-0.0627143
11
3.90314
21
-0.0657143
0
LINE
8
BLACK
6
CONTINUOUS
10
3.90314
20
-0.0657143
11
3.90234
21
-0.0687143
0
LINE
8
BLACK
6
CONTINUOUS
10
3.90234
20
-0.0687143
11
3.90014
21
-0.0709104
0
LINE
8
BLACK
6
CONTINUOUS
10
3.90014
20
-0.0709104
11
3.89714
21
-0.0717143
0
LINE
8
BLACK
6
CONTINUOUS
10
3.89714
20
-0.0717143
11
3.88314
21
-0.0717143
0
LINE
8
BLACK
6
CONTINUOUS
10
3.88314
20
-0.0717143
11
3.88314
21
-0.0942857
0
LINE
8
BLACK
6
CONTINUOUS
10
3.88314
20
-0.0942857
11
3.88289
21
-0.0952187
0
LINE
8
BLACK
6
CONTINUOUS
10
3.88289
20
-0.0952187
11
3.88283
21
-0.0961831
0
LINE
8
BLACK
6
CONTINUOUS
10
3.88283
20
-0.0961831
11
3.8825
21
-0.0966942
0
LINE
8
BLACK
6
CONTINUOUS
10
3.8825
20
-0.0966942
11
3.88234
21
-0.0972857
0
LINE
8
BLACK
6
CONTINUOUS
10
3.88234
20
-0.0972857
11
3.88166
21
-0.0979687
0
LINE
8
BLACK
6
CONTINUOUS
10
3.88166
20
-0.0979687
11
3.88112
21
-0.0987749
0
LINE
8
BLACK
6
CONTINUOUS
10
3.88112
20
-0.0987749
11
3.88058
21
-0.0990488
0
LINE
8
BLACK
6
CONTINUOUS
10
3.88058
20
-0.0990488
11
3.88014
21
-0.0994819
0
LINE
8
BLACK
6
CONTINUOUS
10
3.88014
20
-0.0994819
11
3.87921
21
-0.0997319
0
LINE
8
BLACK
6
CONTINUOUS
10
3.87921
20
-0.0997319
11
3.87835
21
-0.100164
0
LINE
8
BLACK
6
CONTINUOUS
10
3.87835
20
-0.100164
11
3.87773
21
-0.100127
0
LINE
8
BLACK
6
CONTINUOUS
10
3.87773
20
-0.100127
11
3.87714
21
-0.100286
0
LINE
8
BLACK
6
CONTINUOUS
10
3.87714
20
-0.100286
11
3.87621
21
-0.100036
0
LINE
8
BLACK
6
CONTINUOUS
10
3.87621
20
-0.100036
11
3.87525
21
-0.0999778
0
LINE
8
BLACK
6
CONTINUOUS
10
3.87525
20
-0.0999778
11
3.83239
21
-0.0856921
0
LINE
8
BLACK
6
CONTINUOUS
10
3.83239
20
-0.0856921
11
3.8298
21
-0.0839808
0
LINE
8
BLACK
6
CONTINUOUS
10
3.8298
20
-0.0839808
11
3.82841
21
-0.0812029
0
LINE
8
BLACK
6
CONTINUOUS
10
3.82841
20
-0.0812029
11
3.82859
21
-0.0781026
0
LINE
8
BLACK
6
CONTINUOUS
10
3.82859
20
-0.0781026
11
3.8303
21
-0.0755108
0
LINE
8
BLACK
6
CONTINUOUS
10
3.8303
20
-0.0755108
11
3.83308
21
-0.0741218
0
LINE
8
BLACK
6
CONTINUOUS
10
3.83308
20
-0.0741218
11
3.83618
21
-0.0743079
0
LINE
8
BLACK
6
CONTINUOUS
10
3.83618
20
-0.0743079
11
3.87114
21
-0.0859611
0
LINE
8
BLACK
6
CONTINUOUS
10
3.87114
20
-0.0859611
11
3.87114
21
-0.0717143
0
LINE
8
BLACK
6
CONTINUOUS
10
3.87114
20
-0.0717143
11
3.85714
21
-0.0717143
0
LINE
8
BLACK
6
CONTINUOUS
10
3.85714
20
-0.0717143
11
3.85414
21
-0.0709104
0
LINE
8
BLACK
6
CONTINUOUS
10
3.85414
20
-0.0709104
11
3.85195
21
-0.0687143
0
LINE
8
BLACK
6
CONTINUOUS
10
3.85195
20
-0.0687143
11
3.85114
21
-0.0657143
0
LINE
8
BLACK
6
CONTINUOUS
10
3.85114
20
-0.0657143
11
3.85195
21
-0.0627143
0
LINE
8
BLACK
6
CONTINUOUS
10
3.85195
20
-0.0627143
11
3.85414
21
-0.0605181
0
LINE
8
BLACK
6
CONTINUOUS
10
3.85414
20
-0.0605181
11
3.85714
21
-0.0597143
0
LINE
8
BLACK
6
CONTINUOUS
10
3.85714
20
-0.0597143
11
3.87114
21
-0.0597143
0
LINE
8
BLACK
6
CONTINUOUS
10
3.87114
20
-0.0597143
11
3.87114
21
-0.0571428
0
LINE
8
BLACK
6
CONTINUOUS
10
3.87114
20
-0.0571428
11
3.87195
21
-0.0541428
0
LINE
8
BLACK
6
CONTINUOUS
10
3.87195
20
-0.0541428
11
3.87414
21
-0.0519467
0
LINE
8
BLACK
6
CONTINUOUS
10
3.87414
20
-0.0519467
11
3.87714
21
-0.0511428
0
LINE
8
BLACK
6
CONTINUOUS
10
3.87714
20
-0.0511428
11
3.88014
21
-0.0519467
0
LINE
8
BLACK
6
CONTINUOUS
10
4.47586
20
-0.0380401
11
4.4761
21
-0.0379976
0
LINE
8
BLACK
6
CONTINUOUS
10
4.4761
20
-0.0379976
11
4.47632
21
-0.0381199
0
LINE
8
BLACK
6
CONTINUOUS
10
4.47632
20
-0.0381199
11
4.4766
21
-0.0381702
0
LINE
8
BLACK
6
CONTINUOUS
10
4.4766
20
-0.0381702
11
4.47704
21
-0.0385371
0
LINE
8
BLACK
6
CONTINUOUS
10
4.47704
20
-0.0385371
11
4.47785
21
-0.0390075
0
LINE
8
BLACK
6
CONTINUOUS
10
4.47785
20
-0.0390075
11
4.47796
21
-0.0393145
0
LINE
8
BLACK
6
CONTINUOUS
10
4.47796
20
-0.0393145
11
4.47815
21
-0.0394685
0
LINE
8
BLACK
6
CONTINUOUS
10
4.47815
20
-0.0394685
11
4.47827
21
-0.0401477
0
LINE
8
BLACK
6
CONTINUOUS
10
4.47827
20
-0.0401477
11
4.47854
21
-0.0409055
0
LINE
8
BLACK
6
CONTINUOUS
10
4.47854
20
-0.0409055
11
4.47854
21
-0.159094
0
LINE
8
BLACK
6
CONTINUOUS
10
4.47854
20
-0.159094
11
4.47848
21
-0.159458
0
LINE
8
BLACK
6
CONTINUOUS
10
4.47848
20
-0.159458
11
4.4785
21
-0.159568
0
LINE
8
BLACK
6
CONTINUOUS
10
4.4785
20
-0.159568
11
4.47844
21
-0.159664
0
LINE
8
BLACK
6
CONTINUOUS
10
4.47844
20
-0.159664
11
4.47837
21
-0.160104
0
LINE
8
BLACK
6
CONTINUOUS
10
4.47837
20
-0.160104
11
4.4778
21
-0.160779
0
LINE
8
BLACK
6
CONTINUOUS
10
4.4778
20
-0.160779
11
4.47749
21
-0.161317
0
LINE
8
BLACK
6
CONTINUOUS
10
4.47749
20
-0.161317
11
4.47729
21
-0.161391
0
LINE
8
BLACK
6
CONTINUOUS
10
4.47729
20
-0.161391
11
4.47707
21
-0.161652
0
LINE
8
BLACK
6
CONTINUOUS
10
4.47707
20
-0.161652
11
4.4761
21
-0.161822
0
LINE
8
BLACK
6
CONTINUOUS
10
4.4761
20
-0.161822
11
4.47559
21
-0.162008
0
LINE
8
BLACK
6
CONTINUOUS
10
4.47559
20
-0.162008
11
4.37717
21
-0.162008
0
LINE
8
BLACK
6
CONTINUOUS
10
4.37717
20
-0.162008
11
4.3769
21
-0.16196
0
LINE
8
BLACK
6
CONTINUOUS
10
4.3769
20
-0.16196
11
4.37666
21
-0.162002
0
LINE
8
BLACK
6
CONTINUOUS
10
4.37666
20
-0.162002
11
4.37644
21
-0.16188
0
LINE
8
BLACK
6
CONTINUOUS
10
4.37644
20
-0.16188
11
4.37616
21
-0.16183
0
LINE
8
BLACK
6
CONTINUOUS
10
4.37616
20
-0.16183
11
4.37572
21
-0.161463
0
LINE
8
BLACK
6
CONTINUOUS
10
4.37572
20
-0.161463
11
4.37491
21
-0.160992
0
LINE
8
BLACK
6
CONTINUOUS
10
4.37491
20
-0.160992
11
4.3748
21
-0.160685
0
LINE
8
BLACK
6
CONTINUOUS
10
4.3748
20
-0.160685
11
4.37461
21
-0.160531
0
LINE
8
BLACK
6
CONTINUOUS
10
4.37461
20
-0.160531
11
4.37449
21
-0.159852
0
LINE
8
BLACK
6
CONTINUOUS
10
4.37449
20
-0.159852
11
4.37422
21
-0.159094
0
LINE
8
BLACK
6
CONTINUOUS
10
4.37422
20
-0.159094
11
4.37422
21
-0.0409055
0
LINE
8
BLACK
6
CONTINUOUS
10
4.37422
20
-0.0409055
11
4.37428
21
-0.0405417
0
LINE
8
BLACK
6
CONTINUOUS
10
4.37428
20
-0.0405417
11
4.37426
21
-0.0404321
0
LINE
8
BLACK
6
CONTINUOUS
10
4.37426
20
-0.0404321
11
4.37432
21
-0.0403358
0
LINE
8
BLACK
6
CONTINUOUS
10
4.37432
20
-0.0403358
11
4.37439
21
-0.0398956
0
LINE
8
BLACK
6
CONTINUOUS
10
4.37439
20
-0.0398956
11
4.37496
21
-0.0392211
0
LINE
8
BLACK
6
CONTINUOUS
10
4.37496
20
-0.0392211
11
4.37527
21
-0.038683
0
LINE
8
BLACK
6
CONTINUOUS
10
4.37527
20
-0.038683
11
4.37547
21
-0.0386091
0
LINE
8
BLACK
6
CONTINUOUS
10
4.37547
20
-0.0386091
11
4.37569
21
-0.0383483
0
LINE
8
BLACK
6
CONTINUOUS
10
4.37569
20
-0.0383483
11
4.37666
21
-0.0381781
0
LINE
8
BLACK
6
CONTINUOUS
10
4.37666
20
-0.0381781
11
4.37717
21
-0.0379921
0
LINE
8
BLACK
6
CONTINUOUS
10
4.37717
20
-0.0379921
11
4.47559
21
-0.0379921
0
LINE
8
BLACK
6
CONTINUOUS
10
4.47559
20
-0.0379921
11
4.47586
21
-0.0380401
0
LINE
8
BLACK
6
CONTINUOUS
10
4.38012
20
-0.0438976
11
4.38012
21
-0.156102
0
LINE
8
BLACK
6
CONTINUOUS
10
4.38012
20
-0.156102
11
4.47264
21
-0.156102
0
LINE
8
BLACK
6
CONTINUOUS
10
4.47264
20
-0.156102
11
4.47264
21
-0.0438976
0
LINE
8
BLACK
6
CONTINUOUS
10
4.47264
20
-0.0438976
11
4.38012
21
-0.0438976
0
LINE
8
BLACK
6
CONTINUOUS
10
6.05038
20
0.552885
11
6.05051
21
0.552908
0
LINE
8
BLACK
6
CONTINUOUS
10
6.05051
20
0.552908
11
6.05063
21
0.552842
0
LINE
8
BLACK
6
CONTINUOUS
10
6.05063
20
0.552842
11
6.05101
21
0.552775
0
LINE
8
BLACK
6
CONTINUOUS
10
6.05101
20
0.552775
11
6.0516
21
0.552282
0
LINE
8
BLACK
6
CONTINUOUS
10
6.0516
20
0.552282
11
6.05226
21
0.551898
0
LINE
8
BLACK
6
CONTINUOUS
10
6.05226
20
0.551898
11
6.05235
21
0.551648
0
LINE
8
BLACK
6
CONTINUOUS
10
6.05235
20
0.551648
11
6.05256
21
0.551476
0
LINE
8
BLACK
6
CONTINUOUS
10
6.05256
20
0.551476
11
6.05269
21
0.550721
0
LINE
8
BLACK
6
CONTINUOUS
10
6.05269
20
0.550721
11
6.05295
21
0.55
0
LINE
8
BLACK
6
CONTINUOUS
10
6.05295
20
0.55
11
6.05295
21
0.15
0
LINE
8
BLACK
6
CONTINUOUS
10
6.05295
20
0.15
11
6.05289
21
0.149616
0
LINE
8
BLACK
6
CONTINUOUS
10
6.05289
20
0.149616
11
6.05291
21
0.149487
0
LINE
8
BLACK
6
CONTINUOUS
10
6.05291
20
0.149487
11
6.05284
21
0.149374
0
LINE
8
BLACK
6
CONTINUOUS
10
6.05284
20
0.149374
11
6.05277
21
0.14899
0
LINE
8
BLACK
6
CONTINUOUS
10
6.05277
20
0.14899
11
6.05228
21
0.148402
0
LINE
8
BLACK
6
CONTINUOUS
10
6.05228
20
0.148402
11
6.0519
21
0.147738
0
LINE
8
BLACK
6
CONTINUOUS
10
6.0519
20
0.147738
11
6.05165
21
0.147647
0
LINE
8
BLACK
6
CONTINUOUS
10
6.05165
20
0.147647
11
6.05148
21
0.147443
0
LINE
8
BLACK
6
CONTINUOUS
10
6.05148
20
0.147443
11
6.05072
21
0.14731
0
LINE
8
BLACK
6
CONTINUOUS
10
6.05072
20
0.14731
11
6.05
21
0.147047
0
LINE
8
BLACK
6
CONTINUOUS
10
6.05
20
0.147047
11
5.85
21
0.147047
0
LINE
8
BLACK
6
CONTINUOUS
10
5.85
20
0.147047
11
5.84962
21
0.147115
0
LINE
8
BLACK
6
CONTINUOUS
10
5.84962
20
0.147115
11
5.84949
21
0.147092
0
LINE
8
BLACK
6
CONTINUOUS
10
5.84949
20
0.147092
11
5.84937
21
0.147158
0
LINE
8
BLACK
6
CONTINUOUS
10
5.84937
20
0.147158
11
5.84899
21
0.147225
0
LINE
8
BLACK
6
CONTINUOUS
10
5.84899
20
0.147225
11
5.8484
21
0.147718
0
LINE
8
BLACK
6
CONTINUOUS
10
5.8484
20
0.147718
11
5.84774
21
0.148102
0
LINE
8
BLACK
6
CONTINUOUS
10
5.84774
20
0.148102
11
5.84765
21
0.148352
0
LINE
8
BLACK
6
CONTINUOUS
10
5.84765
20
0.148352
11
5.84744
21
0.148524
0
LINE
8
BLACK
6
CONTINUOUS
10
5.84744
20
0.148524
11
5.84731
21
0.149279
0
LINE
8
BLACK
6
CONTINUOUS
10
5.84731
20
0.149279
11
5.84705
21
0.15
0
LINE
8
BLACK
6
CONTINUOUS
10
5.84705
20
0.15
11
5.84705
21
0.55
0
LINE
8
BLACK
6
CONTINUOUS
10
5.84705
20
0.55
11
5.84711
21
0.550384
0
LINE
8
BLACK
6
CONTINUOUS
10
5.84711
20
0.550384
11
5.84709
21
0.550513
0
LINE
8
BLACK
6
CONTINUOUS
10
5.84709
20
0.550513
11
5.84716
21
0.550626
0
LINE
8
BLACK
6
CONTINUOUS
10
5.84716
20
0.550626
11
5.84723
21
0.55101
0
LINE
8
BLACK
6
CONTINUOUS
10
5.84723
20
0.55101
11
5.84772
21
0.551598
0
LINE
8
BLACK
6
CONTINUOUS
10
5.84772
20
0.551598
11
5.8481
21
0.552262
0
LINE
8
BLACK
6
CONTINUOUS
10
5.8481
20
0.552262
11
5.84835
21
0.552353
0
LINE
8
BLACK
6
CONTINUOUS
10
5.84835
20
0.552353
11
5.84852
21
0.552557
0
LINE
8
BLACK
6
CONTINUOUS
10
5.84852
20
0.552557
11
5.84928
21
0.55269
0
LINE
8
BLACK
6
CONTINUOUS
10
5.84928
20
0.55269
11
5.85
21
0.552953
0
LINE
8
BLACK
6
CONTINUOUS
10
5.85
20
0.552953
11
6.05
21
0.552953
0
LINE
8
BLACK
6
CONTINUOUS
10
6.05
20
0.552953
11
6.05038
21
0.552885
0
LINE
8
BLACK
6
CONTINUOUS
10
5.85295
20
0.547047
11
5.85295
21
0.152953
0
LINE
8
BLACK
6
CONTINUOUS
10
5.85295
20
0.152953
11
6.04705
21
0.152953
0
LINE
8
BLACK
6
CONTINUOUS
10
6.04705
20
0.152953
11
6.04705
21
0.547047
0
LINE
8
BLACK
6
CONTINUOUS
10
6.04705
20
0.547047
11
5.85295
21
0.547047
0
LINE
8
BLACK
6
CONTINUOUS
10
6.03
20
0.17
11
5.97
21
0.17
0
LINE
8
BLACK
6
CONTINUOUS
10
5.97
20
0.17
11
5.97
21
0.23
0
LINE
8
BLACK
6
CONTINUOUS
10
5.97
20
0.23
11
6.03
21
0.23
0
LINE
8
BLACK
6
CONTINUOUS
10
6.03
20
0.23
11
6.03
21
0.17
0
LINE
8
BLACK
6
CONTINUOUS
10
5.93
20
0.17
11
5.87
21
0.17
0
LINE
8
BLACK
6
CONTINUOUS
10
5.87
20
0.17
11
5.87
21
0.23
0
LINE
8
BLACK
6
CONTINUOUS
10
5.87
20
0.23
11
5.93
21
0.23
0
LINE
8
BLACK
6
CONTINUOUS
10
5.93
20
0.23
11
5.93
21
0.17
0
LINE
8
BLACK
6
CONTINUOUS
10
5.93
20
0.27
11
5.87
21
0.27
0
LINE
8
BLACK
6
CONTINUOUS
10
5.87
20
0.27
11
5.87
21
0.33
0
LINE
8
BLACK
6
CONTINUOUS
10
5.87
20
0.33
11
5.93
21
0.33
0
LINE
8
BLACK
6
CONTINUOUS
10
5.93
20
0.33
11
5.93
21
0.27
0
LINE
8
BLACK
6
CONTINUOUS
10
6.03
20
0.27
11
5.97
21
0.27
0
LINE
8
BLACK
6
CONTINUOUS
10
5.97
20
0.27
11
5.97
21
0.33
0
LINE
8
BLACK
6
CONTINUOUS
10
5.97
20
0.33
11
6.03
21
0.33
0
LINE
8
BLACK
6
CONTINUOUS
10
6.03
20
0.33
11
6.03
21
0.27
0
LINE
8
BLACK
6
CONTINUOUS
10
5.93
20
0.37
11
5.87
21
0.37
0
LINE
8
BLACK
6
CONTINUOUS
10
5.87
20
0.37
11
5.87
21
0.43
0
LINE
8
BLACK
6
CONTINUOUS
10
5.87
20
0.43
11
5.93
21
0.43
0
LINE
8
BLACK
6
CONTINUOUS
10
5.93
20
0.43
11
5.93
21
0.37
0
LINE
8
BLACK
6
CONTINUOUS
10
6.03
20
0.37
11
5.97
21
0.37
0
LINE
8
BLACK
6
CONTINUOUS
10
5.97
20
0.37
11
5.97
21
0.43
0
LINE
8
BLACK
6
CONTINUOUS
10
5.97
20
0.43
11
6.03
21
0.43
0
LINE
8
BLACK
6
CONTINUOUS
10
6.03
20
0.43
11
6.03
21
0.37
0
LINE
8
BLACK
6
CONTINUOUS
10
6.03
20
0.47
11
5.97
21
0.47
0
LINE
8
BLACK
6
CONTINUOUS
10
5.97
20
0.47
11
5.97
21
0.53
0
LINE
8
BLACK
6
CONTINUOUS
10
5.97
20
0.53
11
6.03
21
0.53
0
LINE
8
BLACK
6
CONTINUOUS
10
6.03
20
0.53
11
6.03
21
0.47
0
LINE
8
BLACK
6
CONTINUOUS
10
5.93
20
0.47
11
5.87
21
0.47
0
LINE
8
BLACK
6
CONTINUOUS
10
5.87
20
0.47
11
5.87
21
0.53
0
LINE
8
BLACK
6
CONTINUOUS
10
5.87
20
0.53
11
5.93
21
0.53
0
LINE
8
BLACK
6
CONTINUOUS
10
5.93
20
0.53
11
5.93
21
0.47
0
LINE
8
BLACK
6
CONTINUOUS
10
1.30038
20
0.752885
11
1.30051
21
0.752908
0
LINE
8
BLACK
6
CONTINUOUS
10
1.30051
20
0.752908
11
1.30063
21
0.752842
0
LINE
8
BLACK
6
CONTINUOUS
10
1.30063
20
0.752842
11
1.30101
21
0.752775
0
LINE
8
BLACK
6
CONTINUOUS
10
1.30101
20
0.752775
11
1.3016
21
0.752282
0
LINE
8
BLACK
6
CONTINUOUS
10
1.3016
20
0.752282
11
1.30226
21
0.751898
0
LINE
8
BLACK
6
CONTINUOUS
10
1.30226
20
0.751898
11
1.30235
21
0.751648
0
LINE
8
BLACK
6
CONTINUOUS
10
1.30235
20
0.751648
11
1.30256
21
0.751476
0
LINE
8
BLACK
6
CONTINUOUS
10
1.30256
20
0.751476
11
1.30269
21
0.750721
0
LINE
8
BLACK
6
CONTINUOUS
10
1.30269
20
0.750721
11
1.30295
21
0.75
0
LINE
8
BLACK
6
CONTINUOUS
10
1.30295
20
0.75
11
1.30295
21
0.45
0
LINE
8
BLACK
6
CONTINUOUS
10
1.30295
20
0.45
11
1.30289
21
0.449616
0
LINE
8
BLACK
6
CONTINUOUS
10
1.30289
20
0.449616
11
1.30291
21
0.449487
0
LINE
8
BLACK
6
CONTINUOUS
10
1.30291
20
0.449487
11
1.30284
21
0.449374
0
LINE
8
BLACK
6
CONTINUOUS
10
1.30284
20
0.449374
11
1.30277
21
0.44899
0
LINE
8
BLACK
6
CONTINUOUS
10
1.30277
20
0.44899
11
1.30228
21
0.448402
0
LINE
8
BLACK
6
CONTINUOUS
10
1.30228
20
0.448402
11
1.3019
21
0.447738
0
LINE
8
BLACK
6
CONTINUOUS
10
1.3019
20
0.447738
11
1.30165
21
0.447647
0
LINE
8
BLACK
6
CONTINUOUS
10
1.30165
20
0.447647
11
1.30148
21
0.447443
0
LINE
8
BLACK
6
CONTINUOUS
10
1.30148
20
0.447443
11
1.30072
21
0.44731
0
LINE
8
BLACK
6
CONTINUOUS
10
1.30072
20
0.44731
11
1.3
21
0.447047
0
LINE
8
BLACK
6
CONTINUOUS
10
1.3
20
0.447047
11
1.1
21
0.447047
0
LINE
8
BLACK
6
CONTINUOUS
10
1.1
20
0.447047
11
1.09962
21
0.447115
0
LINE
8
BLACK
6
CONTINUOUS
10
1.09962
20
0.447115
11
1.09949
21
0.447092
0
LINE
8
BLACK
6
CONTINUOUS
10
1.09949
20
0.447092
11
1.09937
21
0.447158
0
LINE
8
BLACK
6
CONTINUOUS
10
1.09937
20
0.447158
11
1.09899
21
0.447225
0
LINE
8
BLACK
6
CONTINUOUS
10
1.09899
20
0.447225
11
1.0984
21
0.447718
0
LINE
8
BLACK
6
CONTINUOUS
10
1.0984
20
0.447718
11
1.09774
21
0.448102
0
LINE
8
BLACK
6
CONTINUOUS
10
1.09774
20
0.448102
11
1.09765
21
0.448352
0
LINE
8
BLACK
6
CONTINUOUS
10
1.09765
20
0.448352
11
1.09744
21
0.448524
0
LINE
8
BLACK
6
CONTINUOUS
10
1.09744
20
0.448524
11
1.09731
21
0.449279
0
LINE
8
BLACK
6
CONTINUOUS
10
1.09731
20
0.449279
11
1.09705
21
0.45
0
LINE
8
BLACK
6
CONTINUOUS
10
1.09705
20
0.45
11
1.09705
21
0.75
0
LINE
8
BLACK
6
CONTINUOUS
10
1.09705
20
0.75
11
1.09711
21
0.750384
0
LINE
8
BLACK
6
CONTINUOUS
10
1.09711
20
0.750384
11
1.09709
21
0.750513
0
LINE
8
BLACK
6
CONTINUOUS
10
1.09709
20
0.750513
11
1.09716
21
0.750626
0
LINE
8
BLACK
6
CONTINUOUS
10
1.09716
20
0.750626
11
1.09723
21
0.75101
0
LINE
8
BLACK
6
CONTINUOUS
10
1.09723
20
0.75101
11
1.09772
21
0.751598
0
LINE
8
BLACK
6
CONTINUOUS
10
1.09772
20
0.751598
11
1.0981
21
0.752262
0
LINE
8
BLACK
6
CONTINUOUS
10
1.0981
20
0.752262
11
1.09835
21
0.752353
0
LINE
8
BLACK
6
CONTINUOUS
10
1.09835
20
0.752353
11
1.09852
21
0.752557
0
LINE
8
BLACK
6
CONTINUOUS
10
1.09852
20
0.752557
11
1.09928
21
0.75269
0
LINE
8
BLACK
6
CONTINUOUS
10
1.09928
20
0.75269
11
1.1
21
0.752953
0
LINE
8
BLACK
6
CONTINUOUS
10
1.1
20
0.752953
11
1.3
21
0.752953
0
LINE
8
BLACK
6
CONTINUOUS
10
1.3
20
0.752953
11
1.30038
21
0.752885
0
LINE
8
BLACK
6
CONTINUOUS
10
1.10295
20
0.747047
11
1.10295
21
0.452953
0
LINE
8
BLACK
6
CONTINUOUS
10
1.10295
20
0.452953
11
1.29705
21
0.452953
0
LINE
8
BLACK
6
CONTINUOUS
10
1.29705
20
0.452953
11
1.29705
21
0.747047
0
LINE
8
BLACK
6
CONTINUOUS
10
1.29705
20
0.747047
11
1.10295
21
0.747047
0
LINE
8
BLACK
6
CONTINUOUS
10
5.82868
20
0.490399
11
5.82839
21
0.491095
0
LINE
8
BLACK
6
CONTINUOUS
10
5.82839
20
0.491095
11
5.82868
21
0.491791
0
LINE
8
BLACK
6
CONTINUOUS
10
5.82868
20
0.491791
11
5.82938
21
0.492079
0
LINE
8
BLACK
6
CONTINUOUS
10
5.82938
20
0.492079
11
5.83402
21
0.492079
0
LINE
8
BLACK
6
CONTINUOUS
10
5.83402
20
0.492079
11
5.83402
21
0.507529
0
LINE
8
BLACK
6
CONTINUOUS
10
5.83402
20
0.507529
11
5.83394
21
0.507422
0
LINE
8
BLACK
6
CONTINUOUS
10
5.83394
20
0.507422
11
5.83386
21
0.507365
0
LINE
8
BLACK
6
CONTINUOUS
10
5.83386
20
0.507365
11
5.83382
21
0.507272
0
LINE
8
BLACK
6
CONTINUOUS
10
5.83382
20
0.507272
11
5.83195
21
0.505397
0
LINE
8
BLACK
6
CONTINUOUS
10
5.83195
20
0.505397
11
5.8318
21
0.505335
0
LINE
8
BLACK
6
CONTINUOUS
10
5.8318
20
0.505335
11
5.83169
21
0.505213
0
LINE
8
BLACK
6
CONTINUOUS
10
5.83169
20
0.505213
11
5.82982
21
0.504275
0
LINE
8
BLACK
6
CONTINUOUS
10
5.82982
20
0.504275
11
5.82906
21
0.504222
0
LINE
8
BLACK
6
CONTINUOUS
10
5.82906
20
0.504222
11
5.8285
21
0.504715
0
LINE
8
BLACK
6
CONTINUOUS
10
5.8285
20
0.504715
11
5.82844
21
0.505467
0
LINE
8
BLACK
6
CONTINUOUS
10
5.82844
20
0.505467
11
5.82894
21
0.506036
0
LINE
8
BLACK
6
CONTINUOUS
10
5.82894
20
0.506036
11
5.83067
21
0.506902
0
LINE
8
BLACK
6
CONTINUOUS
10
5.83067
20
0.506902
11
5.83236
21
0.508595
0
LINE
8
BLACK
6
CONTINUOUS
10
5.83236
20
0.508595
11
5.83418
21
0.511326
0
LINE
8
BLACK
6
CONTINUOUS
10
5.83418
20
0.511326
11
5.83427
21
0.511382
0
LINE
8
BLACK
6
CONTINUOUS
10
5.83427
20
0.511382
11
5.8343
21
0.511476
0
LINE
8
BLACK
6
CONTINUOUS
10
5.8343
20
0.511476
11
5.83457
21
0.511586
0
LINE
8
BLACK
6
CONTINUOUS
10
5.83457
20
0.511586
11
5.83481
21
0.511745
0
LINE
8
BLACK
6
CONTINUOUS
10
5.83481
20
0.511745
11
5.83491
21
0.511725
0
LINE
8
BLACK
6
CONTINUOUS
10
5.83491
20
0.511725
11
5.835
21
0.511764
0
LINE
8
BLACK
6
CONTINUOUS
10
5.835
20
0.511764
11
5.83526
21
0.511654
0
LINE
8
BLACK
6
CONTINUOUS
10
5.83526
20
0.511654
11
5.83555
21
0.511599
0
LINE
8
BLACK
6
CONTINUOUS
10
5.83555
20
0.511599
11
5.8356
21
0.511515
0
LINE
8
BLACK
6
CONTINUOUS
10
5.8356
20
0.511515
11
5.8357
21
0.511476
0
LINE
8
BLACK
6
CONTINUOUS
10
5.8357
20
0.511476
11
5.83581
21
0.511211
0
LINE
8
BLACK
6
CONTINUOUS
10
5.83581
20
0.511211
11
5.83597
21
0.510973
0
LINE
8
BLACK
6
CONTINUOUS
10
5.83597
20
0.510973
11
5.83595
21
0.510874
0
LINE
8
BLACK
6
CONTINUOUS
10
5.83595
20
0.510874
11
5.83598
21
0.51078
0
LINE
8
BLACK
6
CONTINUOUS
10
5.83598
20
0.51078
11
5.83598
21
0.492079
0
LINE
8
BLACK
6
CONTINUOUS
10
5.83598
20
0.492079
11
5.84062
21
0.492079
0
LINE
8
BLACK
6
CONTINUOUS
10
5.84062
20
0.492079
11
5.84132
21
0.491791
0
LINE
8
BLACK
6
CONTINUOUS
10
5.84132
20
0.491791
11
5.84161
21
0.491095
0
LINE
8
BLACK
6
CONTINUOUS
10
5.84161
20
0.491095
11
5.84132
21
0.490399
0
LINE
8
BLACK
6
CONTINUOUS
10
5.84132
20
0.490399
11
5.84062
21
0.490111
0
LINE
8
BLACK
6
CONTINUOUS
10
5.84062
20
0.490111
11
5.82938
21
0.490111
0
LINE
8
BLACK
6
CONTINUOUS
10
5.82938
20
0.490111
11
5.82868
21
0.490399
0
LINE
8
BLACK
6
CONTINUOUS
10
3.96706
20
0.74104
11
3.96776
21
0.73937
0
LINE
8
BLACK
6
CONTINUOUS
10
3.96776
20
0.73937
11
3.96706
21
0.7377
0
LINE
8
BLACK
6
CONTINUOUS
10
3.96706
20
0.7377
11
3.96539
21
0.737008
0
LINE
8
BLACK
6
CONTINUOUS
10
3.96539
20
0.737008
11
3.9039
21
0.737008
0
LINE
8
BLACK
6
CONTINUOUS
10
3.9039
20
0.737008
11
3.9039
21
0.615748
0
LINE
8
BLACK
6
CONTINUOUS
10
3.9039
20
0.615748
11
4.16622
21
0.615748
0
LINE
8
BLACK
6
CONTINUOUS
10
4.16622
20
0.615748
11
4.16789
21
0.615056
0
LINE
8
BLACK
6
CONTINUOUS
10
4.16789
20
0.615056
11
4.16858
21
0.613386
0
LINE
8
BLACK
6
CONTINUOUS
10
4.16858
20
0.613386
11
4.16789
21
0.611716
0
LINE
8
BLACK
6
CONTINUOUS
10
4.16789
20
0.611716
11
4.16622
21
0.611024
0
LINE
8
BLACK
6
CONTINUOUS
10
4.16622
20
0.611024
11
3.90154
21
0.611024
0
LINE
8
BLACK
6
CONTINUOUS
10
3.90154
20
0.611024
11
3.89987
21
0.611716
0
LINE
8
BLACK
6
CONTINUOUS
10
3.89987
20
0.611716
11
3.89917
21
0.613386
0
LINE
8
BLACK
6
CONTINUOUS
10
3.89917
20
0.613386
11
3.89917
21
0.73937
0
LINE
8
BLACK
6
CONTINUOUS
10
3.89917
20
0.73937
11
3.89987
21
0.74104
0
LINE
8
BLACK
6
CONTINUOUS
10
3.89987
20
0.74104
11
3.90154
21
0.741732
0
LINE
8
BLACK
6
CONTINUOUS
10
3.90154
20
0.741732
11
3.96539
21
0.741732
0
LINE
8
BLACK
6
CONTINUOUS
10
3.96539
20
0.741732
11
3.96706
21
0.74104
0
LINE
8
BLACK
6
CONTINUOUS
10
4.23372
20
0.611716
11
4.23303
21
0.613386
0
LINE
8
BLACK
6
CONTINUOUS
10
4.23303
20
0.613386
11
4.23372
21
0.615056
0
LINE
8
BLACK
6
CONTINUOUS
10
4.23372
20
0.615056
11
4.23539
21
0.615748
0
LINE
8
BLACK
6
CONTINUOUS
10
4.23539
20
0.615748
11
4.29685
21
0.615748
0
LINE
8
BLACK
6
CONTINUOUS
10
4.29685
20
0.615748
11
4.29685
21
0.737008
0
LINE
8
BLACK
6
CONTINUOUS
10
4.29685
20
0.737008
11
4.03461
21
0.737008
0
LINE
8
BLACK
6
CONTINUOUS
10
4.03461
20
0.737008
11
4.03294
21
0.7377
0
LINE
8
BLACK
6
CONTINUOUS
10
4.03294
20
0.7377
11
4.03224
21
0.73937
0
LINE
8
BLACK
6
CONTINUOUS
10
4.03224
20
0.73937
11
4.03294
21
0.74104
0
LINE
8
BLACK
6
CONTINUOUS
10
4.03294
20
0.74104
11
4.03461
21
0.741732
0
LINE
8
BLACK
6
CONTINUOUS
10
4.03461
20
0.741732
11
4.29921
21
0.741732
0
LINE
8
BLACK
6
CONTINUOUS
10
4.29921
20
0.741732
11
4.30088
21
0.74104
0
LINE
8
BLACK
6
CONTINUOUS
10
4.30088
20
0.74104
11
4.30157
21
0.73937
0
LINE
8
BLACK
6
CONTINUOUS
10
4.30157
20
0.73937
11
4.30157
21
0.613386
0
LINE
8
BLACK
6
CONTINUOUS
10
4.30157
20
0.613386
11
4.30088
21
0.611716
0
LINE
8
BLACK
6
CONTINUOUS
10
4.30088
20
0.611716
11
4.29921
21
0.611024
0
LINE
8
BLACK
6
CONTINUOUS
10
4.29921
20
0.611024
11
4.23539
21
0.611024
0
LINE
8
BLACK
6
CONTINUOUS
10
4.23539
20
0.611024
11
4.23372
21
0.611716
0
LINE
8
BLACK
6
CONTINUOUS
10
4.12203
20
0.799138
11
4.12216
21
0.799024
0
LINE
8
BLACK
6
CONTINUOUS
10
4.12216
20
0.799024
11
4.12234
21
0.799004
0
LINE
8
BLACK
6
CONTINUOUS
10
4.12234
20
0.799004
11
4.12609
21
0.797129
0
LINE
8
BLACK
6
CONTINUOUS
10
4.12609
20
0.797129
11
4.1268
21
0.796603
0
LINE
8
BLACK
6
CONTINUOUS
10
4.1268
20
0.796603
11
4.12685
21
0.796576
0
LINE
8
BLACK
6
CONTINUOUS
10
4.12685
20
0.796576
11
4.12873
21
0.794701
0
LINE
8
BLACK
6
CONTINUOUS
10
4.12873
20
0.794701
11
4.12923
21
0.793978
0
LINE
8
BLACK
6
CONTINUOUS
10
4.12923
20
0.793978
11
4.12928
21
0.793934
0
LINE
8
BLACK
6
CONTINUOUS
10
4.12928
20
0.793934
11
4.13116
21
0.790184
0
LINE
8
BLACK
6
CONTINUOUS
10
4.13116
20
0.790184
11
4.13145
21
0.789201
0
LINE
8
BLACK
6
CONTINUOUS
10
4.13145
20
0.789201
11
4.13141
21
0.78903
0
LINE
8
BLACK
6
CONTINUOUS
10
4.13141
20
0.78903
11
4.13147
21
0.788864
0
LINE
8
BLACK
6
CONTINUOUS
10
4.13147
20
0.788864
11
4.13147
21
0.785114
0
LINE
8
BLACK
6
CONTINUOUS
10
4.13147
20
0.785114
11
4.13131
21
0.784245
0
LINE
8
BLACK
6
CONTINUOUS
10
4.13131
20
0.784245
11
4.13132
21
0.784181
0
LINE
8
BLACK
6
CONTINUOUS
10
4.13132
20
0.784181
11
4.12944
21
0.778556
0
LINE
8
BLACK
6
CONTINUOUS
10
4.12944
20
0.778556
11
4.12895
21
0.777655
0
LINE
8
BLACK
6
CONTINUOUS
10
4.12895
20
0.777655
11
4.1288
21
0.777562
0
LINE
8
BLACK
6
CONTINUOUS
10
4.1288
20
0.777562
11
4.12873
21
0.777402
0
LINE
8
BLACK
6
CONTINUOUS
10
4.12873
20
0.777402
11
4.11127
21
0.759946
0
LINE
8
BLACK
6
CONTINUOUS
10
4.11127
20
0.759946
11
4.12852
21
0.759946
0
LINE
8
BLACK
6
CONTINUOUS
10
4.12852
20
0.759946
11
4.12953
21
0.759768
0
LINE
8
BLACK
6
CONTINUOUS
10
4.12953
20
0.759768
11
4.13107
21
0.758469
0
LINE
8
BLACK
6
CONTINUOUS
10
4.13107
20
0.758469
11
4.13142
21
0.75648
0
LINE
8
BLACK
6
CONTINUOUS
10
4.13142
20
0.75648
11
4.13041
21
0.754731
0
LINE
8
BLACK
6
CONTINUOUS
10
4.13041
20
0.754731
11
4.12852
21
0.75404
0
LINE
8
BLACK
6
CONTINUOUS
10
4.12852
20
0.75404
11
4.10414
21
0.75404
0
LINE
8
BLACK
6
CONTINUOUS
10
4.10414
20
0.75404
11
4.10351
21
0.754152
0
LINE
8
BLACK
6
CONTINUOUS
10
4.10351
20
0.754152
11
4.10338
21
0.754141
0
LINE
8
BLACK
6
CONTINUOUS
10
4.10338
20
0.754141
11
4.10331
21
0.754186
0
LINE
8
BLACK
6
CONTINUOUS
10
4.10331
20
0.754186
11
4.10313
21
0.754218
0
LINE
8
BLACK
6
CONTINUOUS
10
4.10313
20
0.754218
11
4.10245
21
0.75479
0
LINE
8
BLACK
6
CONTINUOUS
10
4.10245
20
0.75479
11
4.10172
21
0.755299
0
LINE
8
BLACK
6
CONTINUOUS
10
4.10172
20
0.755299
11
4.10169
21
0.75543
0
LINE
8
BLACK
6
CONTINUOUS
10
4.10169
20
0.75543
11
4.10159
21
0.755517
0
LINE
8
BLACK
6
CONTINUOUS
10
4.10159
20
0.755517
11
4.10143
21
0.756392
0
LINE
8
BLACK
6
CONTINUOUS
10
4.10143
20
0.756392
11
4.1012
21
0.75725
0
LINE
8
BLACK
6
CONTINUOUS
10
4.1012
20
0.75725
11
4.10126
21
0.757373
0
LINE
8
BLACK
6
CONTINUOUS
10
4.10126
20
0.757373
11
4.10124
21
0.757506
0
LINE
8
BLACK
6
CONTINUOUS
10
4.10124
20
0.757506
11
4.10168
21
0.758276
0
LINE
8
BLACK
6
CONTINUOUS
10
4.10168
20
0.758276
11
4.10206
21
0.759081
0
LINE
8
BLACK
6
CONTINUOUS
10
4.10206
20
0.759081
11
4.12406
21
0.781085
0
LINE
8
BLACK
6
CONTINUOUS
10
4.12406
20
0.781085
11
4.12556
21
0.785594
0
LINE
8
BLACK
6
CONTINUOUS
10
4.12556
20
0.785594
11
4.12556
21
0.788167
0
LINE
8
BLACK
6
CONTINUOUS
10
4.12556
20
0.788167
11
4.12421
21
0.790864
0
LINE
8
BLACK
6
CONTINUOUS
10
4.12421
20
0.790864
11
4.12302
21
0.792061
0
LINE
8
BLACK
6
CONTINUOUS
10
4.12302
20
0.792061
11
4.12032
21
0.79341
0
LINE
8
BLACK
6
CONTINUOUS
10
4.12032
20
0.79341
11
4.11234
21
0.79341
0
LINE
8
BLACK
6
CONTINUOUS
10
4.11234
20
0.79341
11
4.10964
21
0.792061
0
LINE
8
BLACK
6
CONTINUOUS
10
4.10964
20
0.792061
11
4.10811
21
0.790526
0
LINE
8
BLACK
6
CONTINUOUS
10
4.10811
20
0.790526
11
4.10727
21
0.789937
0
LINE
8
BLACK
6
CONTINUOUS
10
4.10727
20
0.789937
11
4.10525
21
0.789761
0
LINE
8
BLACK
6
CONTINUOUS
10
4.10525
20
0.789761
11
4.1036
21
0.79092
0
LINE
8
BLACK
6
CONTINUOUS
10
4.1036
20
0.79092
11
4.10308
21
0.792871
0
LINE
8
BLACK
6
CONTINUOUS
10
4.10308
20
0.792871
11
4.10393
21
0.794701
0
LINE
8
BLACK
6
CONTINUOUS
10
4.10393
20
0.794701
11
4.1058
21
0.796576
0
LINE
8
BLACK
6
CONTINUOUS
10
4.1058
20
0.796576
11
4.10653
21
0.797082
0
LINE
8
BLACK
6
CONTINUOUS
10
4.10653
20
0.797082
11
4.10657
21
0.797129
0
LINE
8
BLACK
6
CONTINUOUS
10
4.10657
20
0.797129
11
4.11032
21
0.799004
0
LINE
8
BLACK
6
CONTINUOUS
10
4.11032
20
0.799004
11
4.1113
21
0.799296
0
LINE
8
BLACK
6
CONTINUOUS
10
4.1113
20
0.799296
11
4.11148
21
0.799255
0
LINE
8
BLACK
6
CONTINUOUS
10
4.11148
20
0.799255
11
4.11164
21
0.799316
0
LINE
8
BLACK
6
CONTINUOUS
10
4.11164
20
0.799316
11
4.12102
21
0.799316
0
LINE
8
BLACK
6
CONTINUOUS
10
4.12102
20
0.799316
11
4.12203
21
0.799138
0
LINE
8
BLACK
6
CONTINUOUS
10
4.0939
20
0.799138
11
4.09545
21
0.797839
0
LINE
8
BLACK
6
CONTINUOUS
10
4.09545
20
0.797839
11
4.0958
21
0.79585
0
LINE
8
BLACK
6
CONTINUOUS
10
4.0958
20
0.79585
11
4.09479
21
0.794101
0
LINE
8
BLACK
6
CONTINUOUS
10
4.09479
20
0.794101
11
4.09289
21
0.79341
0
LINE
8
BLACK
6
CONTINUOUS
10
4.09289
20
0.79341
11
4.0771
21
0.79341
0
LINE
8
BLACK
6
CONTINUOUS
10
4.0771
20
0.79341
11
4.0771
21
0.780568
0
LINE
8
BLACK
6
CONTINUOUS
10
4.0771
20
0.780568
11
4.08727
21
0.780568
0
LINE
8
BLACK
6
CONTINUOUS
10
4.08727
20
0.780568
11
4.08828
21
0.78039
0
LINE
8
BLACK
6
CONTINUOUS
10
4.08828
20
0.78039
11
4.08983
21
0.779092
0
LINE
8
BLACK
6
CONTINUOUS
10
4.08983
20
0.779092
11
4.09018
21
0.777103
0
LINE
8
BLACK
6
CONTINUOUS
10
4.09018
20
0.777103
11
4.08917
21
0.775353
0
LINE
8
BLACK
6
CONTINUOUS
10
4.08917
20
0.775353
11
4.08727
21
0.774663
0
LINE
8
BLACK
6
CONTINUOUS
10
4.08727
20
0.774663
11
4.0771
21
0.774663
0
LINE
8
BLACK
6
CONTINUOUS
10
4.0771
20
0.774663
11
4.0771
21
0.756993
0
LINE
8
BLACK
6
CONTINUOUS
10
4.0771
20
0.756993
11
4.07692
21
0.755983
0
LINE
8
BLACK
6
CONTINUOUS
10
4.07692
20
0.755983
11
4.07562
21
0.754436
0
LINE
8
BLACK
6
CONTINUOUS
10
4.07562
20
0.754436
11
4.07363
21
0.754085
0
LINE
8
BLACK
6
CONTINUOUS
10
4.07363
20
0.754085
11
4.07189
21
0.755095
0
LINE
8
BLACK
6
CONTINUOUS
10
4.07189
20
0.755095
11
4.07119
21
0.756993
0
LINE
8
BLACK
6
CONTINUOUS
10
4.07119
20
0.756993
11
4.07119
21
0.796363
0
LINE
8
BLACK
6
CONTINUOUS
10
4.07119
20
0.796363
11
4.07126
21
0.796747
0
LINE
8
BLACK
6
CONTINUOUS
10
4.07126
20
0.796747
11
4.07124
21
0.796876
0
LINE
8
BLACK
6
CONTINUOUS
10
4.07124
20
0.796876
11
4.0713
21
0.796989
0
LINE
8
BLACK
6
CONTINUOUS
10
4.0713
20
0.796989
11
4.07137
21
0.797373
0
LINE
8
BLACK
6
CONTINUOUS
10
4.07137
20
0.797373
11
4.07187
21
0.797961
0
LINE
8
BLACK
6
CONTINUOUS
10
4.07187
20
0.797961
11
4.07225
21
0.798625
0
LINE
8
BLACK
6
CONTINUOUS
10
4.07225
20
0.798625
11
4.0725
21
0.798716
0
LINE
8
BLACK
6
CONTINUOUS
10
4.0725
20
0.798716
11
4.07267
21
0.79892
0
LINE
8
BLACK
6
CONTINUOUS
10
4.07267
20
0.79892
11
4.07343
21
0.799053
0
LINE
8
BLACK
6
CONTINUOUS
10
4.07343
20
0.799053
11
4.07415
21
0.799316
0
LINE
8
BLACK
6
CONTINUOUS
10
4.07415
20
0.799316
11
4.09289
21
0.799316
0
LINE
8
BLACK
6
CONTINUOUS
10
4.09289
20
0.799316
11
4.0939
21
0.799138
0
LINE
8
BLACK
6
CONTINUOUS
10
3.68924
20
0.99833
11
3.68854
21
1
0
LINE
8
BLACK
6
CONTINUOUS
10
3.68854
20
1
11
3.68924
21
1.00167
0
LINE
8
BLACK
6
CONTINUOUS
10
3.68924
20
1.00167
11
3.69091
21
1.00236
0
LINE
8
BLACK
6
CONTINUOUS
10
3.69091
20
1.00236
11
3.75236
21
1.00236
0
LINE
8
BLACK
6
CONTINUOUS
10
3.75236
20
1.00236
11
3.75236
21
1.12362
0
LINE
8
BLACK
6
CONTINUOUS
10
3.75236
20
1.12362
11
3.49012
21
1.12362
0
LINE
8
BLACK
6
CONTINUOUS
10
3.49012
20
1.12362
11
3.48845
21
1.12431
0
LINE
8
BLACK
6
CONTINUOUS
10
3.48845
20
1.12431
11
3.48776
21
1.12598
0
LINE
8
BLACK
6
CONTINUOUS
10
3.48776
20
1.12598
11
3.48845
21
1.12765
0
LINE
8
BLACK
6
CONTINUOUS
10
3.48845
20
1.12765
11
3.49012
21
1.12835
0
LINE
8
BLACK
6
CONTINUOUS
10
3.49012
20
1.12835
11
3.75472
21
1.12835
0
LINE
8
BLACK
6
CONTINUOUS
10
3.75472
20
1.12835
11
3.75639
21
1.12765
0
LINE
8
BLACK
6
CONTINUOUS
10
3.75639
20
1.12765
11
3.75709
21
1.12598
0
LINE
8
BLACK
6
CONTINUOUS
10
3.75709
20
1.12598
11
3.75709
21
1
0
LINE
8
BLACK
6
CONTINUOUS
10
3.75709
20
1
11
3.75639
21
0.99833
0
LINE
8
BLACK
6
CONTINUOUS
10
3.75639
20
0.99833
11
3.75472
21
0.997638
0
LINE
8
BLACK
6
CONTINUOUS
10
3.75472
20
0.997638
11
3.69091
21
0.997638
0
LINE
8
BLACK
6
CONTINUOUS
10
3.69091
20
0.997638
11
3.68924
21
0.99833
0
LINE
8
BLACK
6
CONTINUOUS
10
3.42258
20
1.12765
11
3.42327
21
1.12598
0
LINE
8
BLACK
6
CONTINUOUS
10
3.42327
20
1.12598
11
3.42258
21
1.12431
0
LINE
8
BLACK
6
CONTINUOUS
10
3.42258
20
1.12431
11
3.42091
21
1.12362
0
LINE
8
BLACK
6
CONTINUOUS
10
3.42091
20
1.12362
11
3.35941
21
1.12362
0
LINE
8
BLACK
6
CONTINUOUS
10
3.35941
20
1.12362
11
3.35941
21
1.00236
0
LINE
8
BLACK
6
CONTINUOUS
10
3.35941
20
1.00236
11
3.62173
21
1.00236
0
LINE
8
BLACK
6
CONTINUOUS
10
3.62173
20
1.00236
11
3.6234
21
1.00167
0
LINE
8
BLACK
6
CONTINUOUS
10
3.6234
20
1.00167
11
3.62409
21
1
0
LINE
8
BLACK
6
CONTINUOUS
10
3.62409
20
1
11
3.6234
21
0.99833
0
LINE
8
BLACK
6
CONTINUOUS
10
3.6234
20
0.99833
11
3.62173
21
0.997638
0
LINE
8
BLACK
6
CONTINUOUS
10
3.62173
20
0.997638
11
3.35705
21
0.997638
0
LINE
8
BLACK
6
CONTINUOUS
10
3.35705
20
0.997638
11
3.35538
21
0.99833
0
LINE
8
BLACK
6
CONTINUOUS
10
3.35538
20
0.99833
11
3.35469
21
1
0
LINE
8
BLACK
6
CONTINUOUS
10
3.35469
20
1
11
3.35469
21
1.12598
0
LINE
8
BLACK
6
CONTINUOUS
10
3.35469
20
1.12598
11
3.35538
21
1.12765
0
LINE
8
BLACK
6
CONTINUOUS
10
3.35538
20
1.12765
11
3.35705
21
1.12835
0
LINE
8
BLACK
6
CONTINUOUS
10
3.35705
20
1.12835
11
3.42091
21
1.12835
0
LINE
8
BLACK
6
CONTINUOUS
10
3.42091
20
1.12835
11
3.42258
21
1.12765
0
LINE
8
BLACK
6
CONTINUOUS
10
3.57312
20
1.18586
11
3.57329
21
1.18589
0
LINE
8
BLACK
6
CONTINUOUS
10
3.57329
20
1.18589
11
3.57403
21
1.18546
0
LINE
8
BLACK
6
CONTINUOUS
10
3.57403
20
1.18546
11
3.57482
21
1.18511
0
LINE
8
BLACK
6
CONTINUOUS
10
3.57482
20
1.18511
11
3.57489
21
1.18496
0
LINE
8
BLACK
6
CONTINUOUS
10
3.57489
20
1.18496
11
3.57504
21
1.18488
0
LINE
8
BLACK
6
CONTINUOUS
10
3.57504
20
1.18488
11
3.57533
21
1.18407
0
LINE
8
BLACK
6
CONTINUOUS
10
3.57533
20
1.18407
11
3.57571
21
1.1833
0
LINE
8
BLACK
6
CONTINUOUS
10
3.57571
20
1.1833
11
3.57567
21
1.18314
0
LINE
8
BLACK
6
CONTINUOUS
10
3.57567
20
1.18314
11
3.57573
21
1.18298
0
LINE
8
BLACK
6
CONTINUOUS
10
3.57573
20
1.18298
11
3.57573
21
1.14656
0
LINE
8
BLACK
6
CONTINUOUS
10
3.57573
20
1.14656
11
3.58403
21
1.14656
0
LINE
8
BLACK
6
CONTINUOUS
10
3.58403
20
1.14656
11
3.58504
21
1.14638
0
LINE
8
BLACK
6
CONTINUOUS
10
3.58504
20
1.14638
11
3.58658
21
1.14508
0
LINE
8
BLACK
6
CONTINUOUS
10
3.58658
20
1.14508
11
3.58693
21
1.14309
0
LINE
8
BLACK
6
CONTINUOUS
10
3.58693
20
1.14309
11
3.58592
21
1.14135
0
LINE
8
BLACK
6
CONTINUOUS
10
3.58592
20
1.14135
11
3.58403
21
1.14065
0
LINE
8
BLACK
6
CONTINUOUS
10
3.58403
20
1.14065
11
3.56153
21
1.14065
0
LINE
8
BLACK
6
CONTINUOUS
10
3.56153
20
1.14065
11
3.56052
21
1.14083
0
LINE
8
BLACK
6
CONTINUOUS
10
3.56052
20
1.14083
11
3.55897
21
1.14213
0
LINE
8
BLACK
6
CONTINUOUS
10
3.55897
20
1.14213
11
3.55862
21
1.14412
0
LINE
8
BLACK
6
CONTINUOUS
10
3.55862
20
1.14412
11
3.55963
21
1.14587
0
LINE
8
BLACK
6
CONTINUOUS
10
3.55963
20
1.14587
11
3.56153
21
1.14656
0
LINE
8
BLACK
6
CONTINUOUS
10
3.56153
20
1.14656
11
3.56983
21
1.14656
0
LINE
8
BLACK
6
CONTINUOUS
10
3.56983
20
1.14656
11
3.56983
21
1.17397
0
LINE
8
BLACK
6
CONTINUOUS
10
3.56983
20
1.17397
11
3.56737
21
1.17152
0
LINE
8
BLACK
6
CONTINUOUS
10
3.56737
20
1.17152
11
3.56664
21
1.17101
0
LINE
8
BLACK
6
CONTINUOUS
10
3.56664
20
1.17101
11
3.5666
21
1.17096
0
LINE
8
BLACK
6
CONTINUOUS
10
3.5666
20
1.17096
11
3.56285
21
1.16909
0
LINE
8
BLACK
6
CONTINUOUS
10
3.56285
20
1.16909
11
3.56187
21
1.1688
0
LINE
8
BLACK
6
CONTINUOUS
10
3.56187
20
1.1688
11
3.5599
21
1.16926
0
LINE
8
BLACK
6
CONTINUOUS
10
3.5599
20
1.16926
11
3.5587
21
1.17089
0
LINE
8
BLACK
6
CONTINUOUS
10
3.5587
20
1.17089
11
3.55882
21
1.1729
0
LINE
8
BLACK
6
CONTINUOUS
10
3.55882
20
1.1729
11
3.56021
21
1.17437
0
LINE
8
BLACK
6
CONTINUOUS
10
3.56021
20
1.17437
11
3.56353
21
1.17603
0
LINE
8
BLACK
6
CONTINUOUS
10
3.56353
20
1.17603
11
3.56673
21
1.17923
0
LINE
8
BLACK
6
CONTINUOUS
10
3.56673
20
1.17923
11
3.57032
21
1.18462
0
LINE
8
BLACK
6
CONTINUOUS
10
3.57032
20
1.18462
11
3.57103
21
1.18536
0
LINE
8
BLACK
6
CONTINUOUS
10
3.57103
20
1.18536
11
3.57119
21
1.1854
0
LINE
8
BLACK
6
CONTINUOUS
10
3.57119
20
1.1854
11
3.5713
21
1.18553
0
LINE
8
BLACK
6
CONTINUOUS
10
3.5713
20
1.18553
11
3.57215
21
1.18568
0
LINE
8
BLACK
6
CONTINUOUS
10
3.57215
20
1.18568
11
3.57297
21
1.18592
0
LINE
8
BLACK
6
CONTINUOUS
10
3.57297
20
1.18592
11
3.57312
21
1.18586
0
LINE
8
BLACK
6
CONTINUOUS
10
3.54942
20
1.18575
11
3.55096
21
1.18445
0
LINE
8
BLACK
6
CONTINUOUS
10
3.55096
20
1.18445
11
3.55131
21
1.18246
0
LINE
8
BLACK
6
CONTINUOUS
10
3.55131
20
1.18246
11
3.5503
21
1.18072
0
LINE
8
BLACK
6
CONTINUOUS
10
3.5503
20
1.18072
11
3.54841
21
1.18002
0
LINE
8
BLACK
6
CONTINUOUS
10
3.54841
20
1.18002
11
3.53261
21
1.18002
0
LINE
8
BLACK
6
CONTINUOUS
10
3.53261
20
1.18002
11
3.53261
21
1.16718
0
LINE
8
BLACK
6
CONTINUOUS
10
3.53261
20
1.16718
11
3.54278
21
1.16718
0
LINE
8
BLACK
6
CONTINUOUS
10
3.54278
20
1.16718
11
3.54379
21
1.167
0
LINE
8
BLACK
6
CONTINUOUS
10
3.54379
20
1.167
11
3.54534
21
1.16571
0
LINE
8
BLACK
6
CONTINUOUS
10
3.54534
20
1.16571
11
3.54569
21
1.16372
0
LINE
8
BLACK
6
CONTINUOUS
10
3.54569
20
1.16372
11
3.54468
21
1.16197
0
LINE
8
BLACK
6
CONTINUOUS
10
3.54468
20
1.16197
11
3.54278
21
1.16128
0
LINE
8
BLACK
6
CONTINUOUS
10
3.54278
20
1.16128
11
3.53261
21
1.16128
0
LINE
8
BLACK
6
CONTINUOUS
10
3.53261
20
1.16128
11
3.53261
21
1.14361
0
LINE
8
BLACK
6
CONTINUOUS
10
3.53261
20
1.14361
11
3.53243
21
1.1426
0
LINE
8
BLACK
6
CONTINUOUS
10
3.53243
20
1.1426
11
3.53114
21
1.14105
0
LINE
8
BLACK
6
CONTINUOUS
10
3.53114
20
1.14105
11
3.52915
21
1.1407
0
LINE
8
BLACK
6
CONTINUOUS
10
3.52915
20
1.1407
11
3.5274
21
1.14171
0
LINE
8
BLACK
6
CONTINUOUS
10
3.5274
20
1.14171
11
3.52671
21
1.14361
0
LINE
8
BLACK
6
CONTINUOUS
10
3.52671
20
1.14361
11
3.52671
21
1.18298
0
LINE
8
BLACK
6
CONTINUOUS
10
3.52671
20
1.18298
11
3.52677
21
1.18336
0
LINE
8
BLACK
6
CONTINUOUS
10
3.52677
20
1.18336
11
3.52675
21
1.18349
0
LINE
8
BLACK
6
CONTINUOUS
10
3.52675
20
1.18349
11
3.52682
21
1.1836
0
LINE
8
BLACK
6
CONTINUOUS
10
3.52682
20
1.1836
11
3.52688
21
1.18399
0
LINE
8
BLACK
6
CONTINUOUS
10
3.52688
20
1.18399
11
3.52738
21
1.18457
0
LINE
8
BLACK
6
CONTINUOUS
10
3.52738
20
1.18457
11
3.52776
21
1.18524
0
LINE
8
BLACK
6
CONTINUOUS
10
3.52776
20
1.18524
11
3.52801
21
1.18533
0
LINE
8
BLACK
6
CONTINUOUS
10
3.52801
20
1.18533
11
3.52818
21
1.18553
0
LINE
8
BLACK
6
CONTINUOUS
10
3.52818
20
1.18553
11
3.52894
21
1.18567
0
LINE
8
BLACK
6
CONTINUOUS
10
3.52894
20
1.18567
11
3.52966
21
1.18593
0
LINE
8
BLACK
6
CONTINUOUS
10
3.52966
20
1.18593
11
3.54841
21
1.18593
0
LINE
8
BLACK
6
CONTINUOUS
10
3.54841
20
1.18593
11
3.54942
21
1.18575
0
LINE
8
BLACK
6
CONTINUOUS
10
5.50038
20
1.60289
11
5.50051
21
1.60291
0
LINE
8
BLACK
6
CONTINUOUS
10
5.50051
20
1.60291
11
5.50063
21
1.60284
0
LINE
8
BLACK
6
CONTINUOUS
10
5.50063
20
1.60284
11
5.50101
21
1.60277
0
LINE
8
BLACK
6
CONTINUOUS
10
5.50101
20
1.60277
11
5.5016
21
1.60228
0
LINE
8
BLACK
6
CONTINUOUS
10
5.5016
20
1.60228
11
5.50226
21
1.6019
0
LINE
8
BLACK
6
CONTINUOUS
10
5.50226
20
1.6019
11
5.50235
21
1.60165
0
LINE
8
BLACK
6
CONTINUOUS
10
5.50235
20
1.60165
11
5.50256
21
1.60148
0
LINE
8
BLACK
6
CONTINUOUS
10
5.50256
20
1.60148
11
5.50269
21
1.60072
0
LINE
8
BLACK
6
CONTINUOUS
10
5.50269
20
1.60072
11
5.50295
21
1.6
0
LINE
8
BLACK
6
CONTINUOUS
10
5.50295
20
1.6
11
5.50295
21
1.2
0
LINE
8
BLACK
6
CONTINUOUS
10
5.50295
20
1.2
11
5.50289
21
1.19962
0
LINE
8
BLACK
6
CONTINUOUS
10
5.50289
20
1.19962
11
5.50291
21
1.19949
0
LINE
8
BLACK
6
CONTINUOUS
10
5.50291
20
1.19949
11
5.50284
21
1.19937
0
LINE
8
BLACK
6
CONTINUOUS
10
5.50284
20
1.19937
11
5.50277
21
1.19899
0
LINE
8
BLACK
6
CONTINUOUS
10
5.50277
20
1.19899
11
5.50228
21
1.1984
0
LINE
8
BLACK
6
CONTINUOUS
10
5.50228
20
1.1984
11
5.5019
21
1.19774
0
LINE
8
BLACK
6
CONTINUOUS
10
5.5019
20
1.19774
11
5.50165
21
1.19765
0
LINE
8
BLACK
6
CONTINUOUS
10
5.50165
20
1.19765
11
5.50148
21
1.19744
0
LINE
8
BLACK
6
CONTINUOUS
10
5.50148
20
1.19744
11
5.50072
21
1.19731
0
LINE
8
BLACK
6
CONTINUOUS
10
5.50072
20
1.19731
11
5.5
21
1.19705
0
LINE
8
BLACK
6
CONTINUOUS
10
5.5
20
1.19705
11
5.3
21
1.19705
0
LINE
8
BLACK
6
CONTINUOUS
10
5.3
20
1.19705
11
5.29962
21
1.19711
0
LINE
8
BLACK
6
CONTINUOUS
10
5.29962
20
1.19711
11
5.29949
21
1.19709
0
LINE
8
BLACK
6
CONTINUOUS
10
5.29949
20
1.19709
11
5.29937
21
1.19716
0
LINE
8
BLACK
6
CONTINUOUS
10
5.29937
20
1.19716
11
5.29899
21
1.19723
0
LINE
8
BLACK
6
CONTINUOUS
10
5.29899
20
1.19723
11
5.2984
21
1.19772
0
LINE
8
BLACK
6
CONTINUOUS
10
5.2984
20
1.19772
11
5.29774
21
1.1981
0
LINE
8
BLACK
6
CONTINUOUS
10
5.29774
20
1.1981
11
5.29765
21
1.19835
0
LINE
8
BLACK
6
CONTINUOUS
10
5.29765
20
1.19835
11
5.29744
21
1.19852
0
LINE
8
BLACK
6
CONTINUOUS
10
5.29744
20
1.19852
11
5.29731
21
1.19928
0
LINE
8
BLACK
6
CONTINUOUS
10
5.29731
20
1.19928
11
5.29705
21
1.2
0
LINE
8
BLACK
6
CONTINUOUS
10
5.29705
20
1.2
11
5.29705
21
1.6
0
LINE
8
BLACK
6
CONTINUOUS
10
5.29705
20
1.6
11
5.29711
21
1.60038
0
LINE
8
BLACK
6
CONTINUOUS
10
5.29711
20
1.60038
11
5.29709
21
1.60051
0
LINE
8
BLACK
6
CONTINUOUS
10
5.29709
20
1.60051
11
5.29716
21
1.60063
0
LINE
8
BLACK
6
CONTINUOUS
10
5.29716
20
1.60063
11
5.29723
21
1.60101
0
LINE
8
BLACK
6
CONTINUOUS
10
5.29723
20
1.60101
11
5.29772
21
1.6016
0
LINE
8
BLACK
6
CONTINUOUS
10
5.29772
20
1.6016
11
5.2981
21
1.60226
0
LINE
8
BLACK
6
CONTINUOUS
10
5.2981
20
1.60226
11
5.29835
21
1.60235
0
LINE
8
BLACK
6
CONTINUOUS
10
5.29835
20
1.60235
11
5.29852
21
1.60256
0
LINE
8
BLACK
6
CONTINUOUS
10
5.29852
20
1.60256
11
5.29928
21
1.60269
0
LINE
8
BLACK
6
CONTINUOUS
10
5.29928
20
1.60269
11
5.3
21
1.60295
0
LINE
8
BLACK
6
CONTINUOUS
10
5.3
20
1.60295
11
5.5
21
1.60295
0
LINE
8
BLACK
6
CONTINUOUS
10
5.5
20
1.60295
11
5.50038
21
1.60289
0
LINE
8
BLACK
6
CONTINUOUS
10
5.30295
20
1.59705
11
5.30295
21
1.20295
0
LINE
8
BLACK
6
CONTINUOUS
10
5.30295
20
1.20295
11
5.49705
21
1.20295
0
LINE
8
BLACK
6
CONTINUOUS
10
5.49705
20
1.20295
11
5.49705
21
1.59705
0
LINE
8
BLACK
6
CONTINUOUS
10
5.49705
20
1.59705
11
5.30295
21
1.59705
0
LINE
8
BLACK
6
CONTINUOUS
10
5.38
20
1.22
11
5.32
21
1.22
0
LINE
8
BLACK
6
CONTINUOUS
10
5.32
20
1.22
11
5.32
21
1.28
0
LINE
8
BLACK
6
CONTINUOUS
10
5.32
20
1.28
11
5.38
21
1.28
0
LINE
8
BLACK
6
CONTINUOUS
10
5.38
20
1.28
11
5.38
21
1.22
0
LINE
8
BLACK
6
CONTINUOUS
10
5.48
20
1.22
11
5.42
21
1.22
0
LINE
8
BLACK
6
CONTINUOUS
10
5.42
20
1.22
11
5.42
21
1.28
0
LINE
8
BLACK
6
CONTINUOUS
10
5.42
20
1.28
11
5.48
21
1.28
0
LINE
8
BLACK
6
CONTINUOUS
10
5.48
20
1.28
11
5.48
21
1.22
0
LINE
8
BLACK
6
CONTINUOUS
10
5.38
20
1.32
11
5.32
21
1.32
0
LINE
8
BLACK
6
CONTINUOUS
10
5.32
20
1.32
11
5.32
21
1.38
0
LINE
8
BLACK
6
CONTINUOUS
10
5.32
20
1.38
11
5.38
21
1.38
0
LINE
8
BLACK
6
CONTINUOUS
10
5.38
20
1.38
11
5.38
21
1.32
0
LINE
8
BLACK
6
CONTINUOUS
10
5.48
20
1.32
11
5.42
21
1.32
0
LINE
8
BLACK
6
CONTINUOUS
10
5.42
20
1.32
11
5.42
21
1.38
0
LINE
8
BLACK
6
CONTINUOUS
10
5.42
20
1.38
11
5.48
21
1.38
0
LINE
8
BLACK
6
CONTINUOUS
10
5.48
20
1.38
11
5.48
21
1.32
0
LINE
8
BLACK
6
CONTINUOUS
10
5.38
20
1.42
11
5.32
21
1.42
0
LINE
8
BLACK
6
CONTINUOUS
10
5.32
20
1.42
11
5.32
21
1.48
0
LINE
8
BLACK
6
CONTINUOUS
10
5.32
20
1.48
11
5.38
21
1.48
0
LINE
8
BLACK
6
CONTINUOUS
10
5.38
20
1.48
11
5.38
21
1.42
0
LINE
8
BLACK
6
CONTINUOUS
10
5.48
20
1.42
11
5.42
21
1.42
0
LINE
8
BLACK
6
CONTINUOUS
10
5.42
20
1.42
11
5.42
21
1.48
0
LINE
8
BLACK
6
CONTINUOUS
10
5.42
20
1.48
11
5.48
21
1.48
0
LINE
8
BLACK
6
CONTINUOUS
10
5.48
20
1.48
11
5.48
21
1.42
0
LINE
8
BLACK
6
CONTINUOUS
10
5.48
20
1.52
11
5.42
21
1.52
0
LINE
8
BLACK
6
CONTINUOUS
10
5.42
20
1.52
11
5.42
21
1.58
0
LINE
8
BLACK
6
CONTINUOUS
10
5.42
20
1.58
11
5.48
21
1.58
0
LINE
8
BLACK
6
CONTINUOUS
10
5.48
20
1.58
11
5.48
21
1.52
0
LINE
8
BLACK
6
CONTINUOUS
10
5.38
20
1.52
11
5.32
21
1.52
0
LINE
8
BLACK
6
CONTINUOUS
10
5.32
20
1.52
11
5.32
21
1.58
0
LINE
8
BLACK
6
CONTINUOUS
10
5.32
20
1.58
11
5.38
21
1.58
0
LINE
8
BLACK
6
CONTINUOUS
10
5.38
20
1.58
11
5.38
21
1.52
0
LINE
8
BLACK
6
CONTINUOUS
10
5.27868
20
1.5404
11
5.27839
21
1.54109
0
LINE
8
BLACK
6
CONTINUOUS
10
5.27839
20
1.54109
11
5.27868
21
1.54179
0
LINE
8
BLACK
6
CONTINUOUS
10
5.27868
20
1.54179
11
5.27938
21
1.54208
0
LINE
8
BLACK
6
CONTINUOUS
10
5.27938
20
1.54208
11
5.28402
21
1.54208
0
LINE
8
BLACK
6
CONTINUOUS
10
5.28402
20
1.54208
11
5.28402
21
1.55753
0
LINE
8
BLACK
6
CONTINUOUS
10
5.28402
20
1.55753
11
5.28394
21
1.55742
0
LINE
8
BLACK
6
CONTINUOUS
10
5.28394
20
1.55742
11
5.28386
21
1.55737
0
LINE
8
BLACK
6
CONTINUOUS
10
5.28386
20
1.55737
11
5.28382
21
1.55727
0
LINE
8
BLACK
6
CONTINUOUS
10
5.28382
20
1.55727
11
5.28195
21
1.5554
0
LINE
8
BLACK
6
CONTINUOUS
10
5.28195
20
1.5554
11
5.2818
21
1.55533
0
LINE
8
BLACK
6
CONTINUOUS
10
5.2818
20
1.55533
11
5.28169
21
1.55521
0
LINE
8
BLACK
6
CONTINUOUS
10
5.28169
20
1.55521
11
5.27982
21
1.55428
0
LINE
8
BLACK
6
CONTINUOUS
10
5.27982
20
1.55428
11
5.27906
21
1.55422
0
LINE
8
BLACK
6
CONTINUOUS
10
5.27906
20
1.55422
11
5.2785
21
1.55472
0
LINE
8
BLACK
6
CONTINUOUS
10
5.2785
20
1.55472
11
5.27844
21
1.55547
0
LINE
8
BLACK
6
CONTINUOUS
10
5.27844
20
1.55547
11
5.27894
21
1.55604
0
LINE
8
BLACK
6
CONTINUOUS
10
5.27894
20
1.55604
11
5.28067
21
1.5569
0
LINE
8
BLACK
6
CONTINUOUS
10
5.28067
20
1.5569
11
5.28236
21
1.55859
0
LINE
8
BLACK
6
CONTINUOUS
10
5.28236
20
1.55859
11
5.28418
21
1.56133
0
LINE
8
BLACK
6
CONTINUOUS
10
5.28418
20
1.56133
11
5.28427
21
1.56138
0
LINE
8
BLACK
6
CONTINUOUS
10
5.28427
20
1.56138
11
5.2843
21
1.56148
0
LINE
8
BLACK
6
CONTINUOUS
10
5.2843
20
1.56148
11
5.28457
21
1.56159
0
LINE
8
BLACK
6
CONTINUOUS
10
5.28457
20
1.56159
11
5.28481
21
1.56175
0
LINE
8
BLACK
6
CONTINUOUS
10
5.28481
20
1.56175
11
5.28491
21
1.56173
0
LINE
8
BLACK
6
CONTINUOUS
10
5.28491
20
1.56173
11
5.285
21
1.56176
0
LINE
8
BLACK
6
CONTINUOUS
10
5.285
20
1.56176
11
5.28526
21
1.56165
0
LINE
8
BLACK
6
CONTINUOUS
10
5.28526
20
1.56165
11
5.28555
21
1.5616
0
LINE
8
BLACK
6
CONTINUOUS
10
5.28555
20
1.5616
11
5.2856
21
1.56151
0
LINE
8
BLACK
6
CONTINUOUS
10
5.2856
20
1.56151
11
5.2857
21
1.56148
0
LINE
8
BLACK
6
CONTINUOUS
10
5.2857
20
1.56148
11
5.28581
21
1.56121
0
LINE
8
BLACK
6
CONTINUOUS
10
5.28581
20
1.56121
11
5.28597
21
1.56097
0
LINE
8
BLACK
6
CONTINUOUS
10
5.28597
20
1.56097
11
5.28595
21
1.56087
0
LINE
8
BLACK
6
CONTINUOUS
10
5.28595
20
1.56087
11
5.28598
21
1.56078
0
LINE
8
BLACK
6
CONTINUOUS
10
5.28598
20
1.56078
11
5.28598
21
1.54208
0
LINE
8
BLACK
6
CONTINUOUS
10
5.28598
20
1.54208
11
5.29062
21
1.54208
0
LINE
8
BLACK
6
CONTINUOUS
10
5.29062
20
1.54208
11
5.29132
21
1.54179
0
LINE
8
BLACK
6
CONTINUOUS
10
5.29132
20
1.54179
11
5.29161
21
1.54109
0
LINE
8
BLACK
6
CONTINUOUS
10
5.29161
20
1.54109
11
5.29132
21
1.5404
0
LINE
8
BLACK
6
CONTINUOUS
10
5.29132
20
1.5404
11
5.29062
21
1.54011
0
LINE
8
BLACK
6
CONTINUOUS
10
5.29062
20
1.54011
11
5.27938
21
1.54011
0
LINE
8
BLACK
6
CONTINUOUS
10
5.27938
20
1.54011
11
5.27868
21
1.5404
0
LINE
8
BLACK
6
CONTINUOUS
10
5.30038
20
2.40289
11
5.30051
21
2.40291
0
LINE
8
BLACK
6
CONTINUOUS
10
5.30051
20
2.40291
11
5.30063
21
2.40284
0
LINE
8
BLACK
6
CONTINUOUS
10
5.30063
20
2.40284
11
5.30101
21
2.40277
0
LINE
8
BLACK
6
CONTINUOUS
10
5.30101
20
2.40277
11
5.3016
21
2.40228
0
LINE
8
BLACK
6
CONTINUOUS
10
5.3016
20
2.40228
11
5.30226
21
2.4019
0
LINE
8
BLACK
6
CONTINUOUS
10
5.30226
20
2.4019
11
5.30235
21
2.40165
0
LINE
8
BLACK
6
CONTINUOUS
10
5.30235
20
2.40165
11
5.30256
21
2.40148
0
LINE
8
BLACK
6
CONTINUOUS
10
5.30256
20
2.40148
11
5.30269
21
2.40072
0
LINE
8
BLACK
6
CONTINUOUS
10
5.30269
20
2.40072
11
5.30295
21
2.4
0
LINE
8
BLACK
6
CONTINUOUS
10
5.30295
20
2.4
11
5.30295
21
2
0
LINE
8
BLACK
6
CONTINUOUS
10
5.30295
20
2
11
5.30289
21
1.99962
0
LINE
8
BLACK
6
CONTINUOUS
10
5.30289
20
1.99962
11
5.30291
21
1.99949
0
LINE
8
BLACK
6
CONTINUOUS
10
5.30291
20
1.99949
11
5.30284
21
1.99937
0
LINE
8
BLACK
6
CONTINUOUS
10
5.30284
20
1.99937
11
5.30277
21
1.99899
0
LINE
8
BLACK
6
CONTINUOUS
10
5.30277
20
1.99899
11
5.30228
21
1.9984
0
LINE
8
BLACK
6
CONTINUOUS
10
5.30228
20
1.9984
11
5.3019
21
1.99774
0
LINE
8
BLACK
6
CONTINUOUS
10
5.3019
20
1.99774
11
5.30165
21
1.99765
0
LINE
8
BLACK
6
CONTINUOUS
10
5.30165
20
1.99765
11
5.30148
21
1.99744
0
LINE
8
BLACK
6
CONTINUOUS
10
5.30148
20
1.99744
11
5.30072
21
1.99731
0
LINE
8
BLACK
6
CONTINUOUS
10
5.30072
20
1.99731
11
5.3
21
1.99705
0
LINE
8
BLACK
6
CONTINUOUS
10
5.3
20
1.99705
11
5.1
21
1.99705
0
LINE
8
BLACK
6
CONTINUOUS
10
5.1
20
1.99705
11
5.09962
21
1.99711
0
LINE
8
BLACK
6
CONTINUOUS
10
5.09962
20
1.99711
11
5.09949
21
1.99709
0
LINE
8
BLACK
6
CONTINUOUS
10
5.09949
20
1.99709
11
5.09937
21
1.99716
0
LINE
8
BLACK
6
CONTINUOUS
10
5.09937
20
1.99716
11
5.09899
21
1.99723
0
LINE
8
BLACK
6
CONTINUOUS
10
5.09899
20
1.99723
11
5.0984
21
1.99772
0
LINE
8
BLACK
6
CONTINUOUS
10
5.0984
20
1.99772
11
5.09774
21
1.9981
0
LINE
8
BLACK
6
CONTINUOUS
10
5.09774
20
1.9981
11
5.09765
21
1.99835
0
LINE
8
BLACK
6
CONTINUOUS
10
5.09765
20
1.99835
11
5.09744
21
1.99852
0
LINE
8
BLACK
6
CONTINUOUS
10
5.09744
20
1.99852
11
5.09731
21
1.99928
0
LINE
8
BLACK
6
CONTINUOUS
10
5.09731
20
1.99928
11
5.09705
21
2
0
LINE
8
BLACK
6
CONTINUOUS
10
5.09705
20
2
11
5.09705
21
2.4
0
LINE
8
BLACK
6
CONTINUOUS
10
5.09705
20
2.4
11
5.09711
21
2.40038
0
LINE
8
BLACK
6
CONTINUOUS
10
5.09711
20
2.40038
11
5.09709
21
2.40051
0
LINE
8
BLACK
6
CONTINUOUS
10
5.09709
20
2.40051
11
5.09716
21
2.40063
0
LINE
8
BLACK
6
CONTINUOUS
10
5.09716
20
2.40063
11
5.09723
21
2.40101
0
LINE
8
BLACK
6
CONTINUOUS
10
5.09723
20
2.40101
11
5.09772
21
2.4016
0
LINE
8
BLACK
6
CONTINUOUS
10
5.09772
20
2.4016
11
5.0981
21
2.40226
0
LINE
8
BLACK
6
CONTINUOUS
10
5.0981
20
2.40226
11
5.09835
21
2.40235
0
LINE
8
BLACK
6
CONTINUOUS
10
5.09835
20
2.40235
11
5.09852
21
2.40256
0
LINE
8
BLACK
6
CONTINUOUS
10
5.09852
20
2.40256
11
5.09928
21
2.40269
0
LINE
8
BLACK
6
CONTINUOUS
10
5.09928
20
2.40269
11
5.1
21
2.40295
0
LINE
8
BLACK
6
CONTINUOUS
10
5.1
20
2.40295
11
5.3
21
2.40295
0
LINE
8
BLACK
6
CONTINUOUS
10
5.3
20
2.40295
11
5.30038
21
2.40289
0
LINE
8
BLACK
6
CONTINUOUS
10
5.10295
20
2.39705
11
5.10295
21
2.00295
0
LINE
8
BLACK
6
CONTINUOUS
10
5.10295
20
2.00295
11
5.29705
21
2.00295
0
LINE
8
BLACK
6
CONTINUOUS
10
5.29705
20
2.00295
11
5.29705
21
2.39705
0
LINE
8
BLACK
6
CONTINUOUS
10
5.29705
20
2.39705
11
5.10295
21
2.39705
0
LINE
8
BLACK
6
CONTINUOUS
10
5.28
20
2.02
11
5.22
21
2.02
0
LINE
8
BLACK
6
CONTINUOUS
10
5.22
20
2.02
11
5.22
21
2.08
0
LINE
8
BLACK
6
CONTINUOUS
10
5.22
20
2.08
11
5.28
21
2.08
0
LINE
8
BLACK
6
CONTINUOUS
10
5.28
20
2.08
11
5.28
21
2.02
0
LINE
8
BLACK
6
CONTINUOUS
10
5.18
20
2.02
11
5.12
21
2.02
0
LINE
8
BLACK
6
CONTINUOUS
10
5.12
20
2.02
11
5.12
21
2.08
0
LINE
8
BLACK
6
CONTINUOUS
10
5.12
20
2.08
11
5.18
21
2.08
0
LINE
8
BLACK
6
CONTINUOUS
10
5.18
20
2.08
11
5.18
21
2.02
0
LINE
8
BLACK
6
CONTINUOUS
10
5.18
20
2.12
11
5.12
21
2.12
0
LINE
8
BLACK
6
CONTINUOUS
10
5.12
20
2.12
11
5.12
21
2.18
0
LINE
8
BLACK
6
CONTINUOUS
10
5.12
20
2.18
11
5.18
21
2.18
0
LINE
8
BLACK
6
CONTINUOUS
10
5.18
20
2.18
11
5.18
21
2.12
0
LINE
8
BLACK
6
CONTINUOUS
10
5.28
20
2.12
11
5.22
21
2.12
0
LINE
8
BLACK
6
CONTINUOUS
10
5.22
20
2.12
11
5.22
21
2.18
0
LINE
8
BLACK
6
CONTINUOUS
10
5.22
20
2.18
11
5.28
21
2.18
0
LINE
8
BLACK
6
CONTINUOUS
10
5.28
20
2.18
11
5.28
21
2.12
0
LINE
8
BLACK
6
CONTINUOUS
10
5.28
20
2.22
11
5.22
21
2.22
0
LINE
8
BLACK
6
CONTINUOUS
10
5.22
20
2.22
11
5.22
21
2.28
0
LINE
8
BLACK
6
CONTINUOUS
10
5.22
20
2.28
11
5.28
21
2.28
0
LINE
8
BLACK
6
CONTINUOUS
10
5.28
20
2.28
11
5.28
21
2.22
0
LINE
8
BLACK
6
CONTINUOUS
10
5.18
20
2.22
11
5.12
21
2.22
0
LINE
8
BLACK
6
CONTINUOUS
10
5.12
20
2.22
11
5.12
21
2.28
0
LINE
8
BLACK
6
CONTINUOUS
10
5.12
20
2.28
11
5.18
21
2.28
0
LINE
8
BLACK
6
CONTINUOUS
10
5.18
20
2.28
11
5.18
21
2.22
0
LINE
8
BLACK
6
CONTINUOUS
10
5.18
20
2.32
11
5.12
21
2.32
0
LINE
8
BLACK
6
CONTINUOUS
10
5.12
20
2.32
11
5.12
21
2.38
0
LINE
8
BLACK
6
CONTINUOUS
10
5.12
20
2.38
11
5.18
21
2.38
0
LINE
8
BLACK
6
CONTINUOUS
10
5.18
20
2.38
11
5.18
21
2.32
0
LINE
8
BLACK
6
CONTINUOUS
10
5.28
20
2.32
11
5.22
21
2.32
0
LINE
8
BLACK
6
CONTINUOUS
10
5.22
20
2.32
11
5.22
21
2.38
0
LINE
8
BLACK
6
CONTINUOUS
10
5.22
20
2.38
11
5.28
21
2.38
0
LINE
8
BLACK
6
CONTINUOUS
10
5.28
20
2.38
11
5.28
21
2.32
0
LINE
8
BLACK
6
CONTINUOUS
10
4.30593
20
2.09869
11
4.30579
21
2.09866
0
LINE
8
BLACK
6
CONTINUOUS
10
4.30579
20
2.09866
11
4.30566
21
2.09873
0
LINE
8
BLACK
6
CONTINUOUS
10
4.30566
20
2.09873
11
4.30529
21
2.0988
0
LINE
8
BLACK
6
CONTINUOUS
10
4.30529
20
2.0988
11
4.30472
21
2.09928
0
LINE
8
BLACK
6
CONTINUOUS
10
4.30472
20
2.09928
11
4.30404
21
2.09967
0
LINE
8
BLACK
6
CONTINUOUS
10
4.30404
20
2.09967
11
4.30394
21
2.09993
0
LINE
8
BLACK
6
CONTINUOUS
10
4.30394
20
2.09993
11
4.30374
21
2.1001
0
LINE
8
BLACK
6
CONTINUOUS
10
4.30374
20
2.1001
11
4.30361
21
2.10085
0
LINE
8
BLACK
6
CONTINUOUS
10
4.30361
20
2.10085
11
4.30335
21
2.10157
0
LINE
8
BLACK
6
CONTINUOUS
10
4.30335
20
2.10157
11
4.30335
21
2.29843
0
LINE
8
BLACK
6
CONTINUOUS
10
4.30335
20
2.29843
11
4.30341
21
2.29881
0
LINE
8
BLACK
6
CONTINUOUS
10
4.30341
20
2.29881
11
4.30339
21
2.29894
0
LINE
8
BLACK
6
CONTINUOUS
10
4.30339
20
2.29894
11
4.30346
21
2.29905
0
LINE
8
BLACK
6
CONTINUOUS
10
4.30346
20
2.29905
11
4.30352
21
2.29944
0
LINE
8
BLACK
6
CONTINUOUS
10
4.30352
20
2.29944
11
4.30402
21
2.30004
0
LINE
8
BLACK
6
CONTINUOUS
10
4.30402
20
2.30004
11
4.3044
21
2.30069
0
LINE
8
BLACK
6
CONTINUOUS
10
4.3044
20
2.30069
11
4.30465
21
2.30078
0
LINE
8
BLACK
6
CONTINUOUS
10
4.30465
20
2.30078
11
4.30482
21
2.30099
0
LINE
8
BLACK
6
CONTINUOUS
10
4.30482
20
2.30099
11
4.3056
21
2.30112
0
LINE
8
BLACK
6
CONTINUOUS
10
4.3056
20
2.30112
11
4.3063
21
2.30138
0
LINE
8
BLACK
6
CONTINUOUS
10
4.3063
20
2.30138
11
4.89685
21
2.30138
0
LINE
8
BLACK
6
CONTINUOUS
10
4.89685
20
2.30138
11
4.89723
21
2.30131
0
LINE
8
BLACK
6
CONTINUOUS
10
4.89723
20
2.30131
11
4.89736
21
2.30133
0
LINE
8
BLACK
6
CONTINUOUS
10
4.89736
20
2.30133
11
4.89748
21
2.30127
0
LINE
8
BLACK
6
CONTINUOUS
10
4.89748
20
2.30127
11
4.89786
21
2.3012
0
LINE
8
BLACK
6
CONTINUOUS
10
4.89786
20
2.3012
11
4.89845
21
2.30071
0
LINE
8
BLACK
6
CONTINUOUS
10
4.89845
20
2.30071
11
4.89911
21
2.30032
0
LINE
8
BLACK
6
CONTINUOUS
10
4.89911
20
2.30032
11
4.8992
21
2.30007
0
LINE
8
BLACK
6
CONTINUOUS
10
4.8992
20
2.30007
11
4.89941
21
2.2999
0
LINE
8
BLACK
6
CONTINUOUS
10
4.89941
20
2.2999
11
4.89954
21
2.29915
0
LINE
8
BLACK
6
CONTINUOUS
10
4.89954
20
2.29915
11
4.8998
21
2.29843
0
LINE
8
BLACK
6
CONTINUOUS
10
4.8998
20
2.29843
11
4.8998
21
2.28169
0
LINE
8
BLACK
6
CONTINUOUS
10
4.8998
20
2.28169
11
4.99531
21
2.28169
0
LINE
8
BLACK
6
CONTINUOUS
10
4.99531
20
2.28169
11
4.99568
21
2.28163
0
LINE
8
BLACK
6
CONTINUOUS
10
4.99568
20
2.28163
11
4.99579
21
2.28165
0
LINE
8
BLACK
6
CONTINUOUS
10
4.99579
20
2.28165
11
4.99589
21
2.28159
0
LINE
8
BLACK
6
CONTINUOUS
10
4.99589
20
2.28159
11
4.99632
21
2.28151
0
LINE
8
BLACK
6
CONTINUOUS
10
4.99632
20
2.28151
11
4.99699
21
2.28096
0
LINE
8
BLACK
6
CONTINUOUS
10
4.99699
20
2.28096
11
4.99754
21
2.28064
0
LINE
8
BLACK
6
CONTINUOUS
10
4.99754
20
2.28064
11
4.99762
21
2.28043
0
LINE
8
BLACK
6
CONTINUOUS
10
4.99762
20
2.28043
11
4.99787
21
2.28022
0
LINE
8
BLACK
6
CONTINUOUS
10
4.99787
20
2.28022
11
4.99804
21
2.27927
0
LINE
8
BLACK
6
CONTINUOUS
10
4.99804
20
2.27927
11
4.99823
21
2.27874
0
LINE
8
BLACK
6
CONTINUOUS
10
4.99823
20
2.27874
11
4.99823
21
2.12126
0
LINE
8
BLACK
6
CONTINUOUS
10
4.99823
20
2.12126
11
4.99816
21
2.12088
0
LINE
8
BLACK
6
CONTINUOUS
10
4.99816
20
2.12088
11
4.99819
21
2.12075
0
LINE
8
BLACK
6
CONTINUOUS
10
4.99819
20
2.12075
11
4.99812
21
2.12063
0
LINE
8
BLACK
6
CONTINUOUS
10
4.99812
20
2.12063
11
4.99805
21
2.12025
0
LINE
8
BLACK
6
CONTINUOUS
10
4.99805
20
2.12025
11
4.99756
21
2.11966
0
LINE
8
BLACK
6
CONTINUOUS
10
4.99756
20
2.11966
11
4.99718
21
2.119
0
LINE
8
BLACK
6
CONTINUOUS
10
4.99718
20
2.119
11
4.99693
21
2.11891
0
LINE
8
BLACK
6
CONTINUOUS
10
4.99693
20
2.11891
11
4.99676
21
2.1187
0
LINE
8
BLACK
6
CONTINUOUS
10
4.99676
20
2.1187
11
4.996
21
2.11857
0
LINE
8
BLACK
6
CONTINUOUS
10
4.996
20
2.11857
11
4.99528
21
2.11831
0
LINE
8
BLACK
6
CONTINUOUS
10
4.99528
20
2.11831
11
4.8998
21
2.11831
0
LINE
8
BLACK
6
CONTINUOUS
10
4.8998
20
2.11831
11
4.8998
21
2.10157
0
LINE
8
BLACK
6
CONTINUOUS
10
4.8998
20
2.10157
11
4.89974
21
2.10119
0
LINE
8
BLACK
6
CONTINUOUS
10
4.89974
20
2.10119
11
4.89976
21
2.10106
0
LINE
8
BLACK
6
CONTINUOUS
10
4.89976
20
2.10106
11
4.89969
21
2.10095
0
LINE
8
BLACK
6
CONTINUOUS
10
4.89969
20
2.10095
11
4.89963
21
2.10056
0
LINE
8
BLACK
6
CONTINUOUS
10
4.89963
20
2.10056
11
4.89913
21
2.09998
0
LINE
8
BLACK
6
CONTINUOUS
10
4.89913
20
2.09998
11
4.89875
21
2.09931
0
LINE
8
BLACK
6
CONTINUOUS
10
4.89875
20
2.09931
11
4.8985
21
2.09922
0
LINE
8
BLACK
6
CONTINUOUS
10
4.8985
20
2.09922
11
4.89833
21
2.09902
0
LINE
8
BLACK
6
CONTINUOUS
10
4.89833
20
2.09902
11
4.89757
21
2.09888
0
LINE
8
BLACK
6
CONTINUOUS
10
4.89757
20
2.09888
11
4.89685
21
2.09862
0
LINE
8
BLACK
6
CONTINUOUS
10
4.89685
20
2.09862
11
4.3063
21
2.09862
0
LINE
8
BLACK
6
CONTINUOUS
10
4.3063
20
2.09862
11
4.30593
21
2.09869
0
LINE
8
BLACK
6
CONTINUOUS
10
4.30925
20
2.10453
11
4.8939
21
2.10453
0
LINE
8
BLACK
6
CONTINUOUS
10
4.8939
20
2.10453
11
4.8939
21
2.11831
0
LINE
8
BLACK
6
CONTINUOUS
10
4.8939
20
2.11831
11
4.85748
21
2.11831
0
LINE
8
BLACK
6
CONTINUOUS
10
4.85748
20
2.11831
11
4.8571
21
2.11837
0
LINE
8
BLACK
6
CONTINUOUS
10
4.8571
20
2.11837
11
4.85697
21
2.11835
0
LINE
8
BLACK
6
CONTINUOUS
10
4.85697
20
2.11835
11
4.85685
21
2.11842
0
LINE
8
BLACK
6
CONTINUOUS
10
4.85685
20
2.11842
11
4.85647
21
2.11849
0
LINE
8
BLACK
6
CONTINUOUS
10
4.85647
20
2.11849
11
4.85588
21
2.11898
0
LINE
8
BLACK
6
CONTINUOUS
10
4.85588
20
2.11898
11
4.85522
21
2.11936
0
LINE
8
BLACK
6
CONTINUOUS
10
4.85522
20
2.11936
11
4.85513
21
2.11961
0
LINE
8
BLACK
6
CONTINUOUS
10
4.85513
20
2.11961
11
4.85492
21
2.11978
0
LINE
8
BLACK
6
CONTINUOUS
10
4.85492
20
2.11978
11
4.85479
21
2.12054
0
LINE
8
BLACK
6
CONTINUOUS
10
4.85479
20
2.12054
11
4.85453
21
2.12126
0
LINE
8
BLACK
6
CONTINUOUS
10
4.85453
20
2.12126
11
4.85453
21
2.27874
0
LINE
8
BLACK
6
CONTINUOUS
10
4.85453
20
2.27874
11
4.8546
21
2.27912
0
LINE
8
BLACK
6
CONTINUOUS
10
4.8546
20
2.27912
11
4.85457
21
2.27925
0
LINE
8
BLACK
6
CONTINUOUS
10
4.85457
20
2.27925
11
4.85464
21
2.27937
0
LINE
8
BLACK
6
CONTINUOUS
10
4.85464
20
2.27937
11
4.85471
21
2.27975
0
LINE
8
BLACK
6
CONTINUOUS
10
4.85471
20
2.27975
11
4.8552
21
2.28034
0
LINE
8
BLACK
6
CONTINUOUS
10
4.8552
20
2.28034
11
4.85558
21
2.281
0
LINE
8
BLACK
6
CONTINUOUS
10
4.85558
20
2.281
11
4.85583
21
2.28109
0
LINE
8
BLACK
6
CONTINUOUS
10
4.85583
20
2.28109
11
4.856
21
2.2813
0
LINE
8
BLACK
6
CONTINUOUS
10
4.856
20
2.2813
11
4.85676
21
2.28143
0
LINE
8
BLACK
6
CONTINUOUS
10
4.85676
20
2.28143
11
4.85748
21
2.28169
0
LINE
8
BLACK
6
CONTINUOUS
10
4.85748
20
2.28169
11
4.8939
21
2.28169
0
LINE
8
BLACK
6
CONTINUOUS
10
4.8939
20
2.28169
11
4.8939
21
2.29547
0
LINE
8
BLACK
6
CONTINUOUS
10
4.8939
20
2.29547
11
4.30925
21
2.29547
0
LINE
8
BLACK
6
CONTINUOUS
10
4.30925
20
2.29547
11
4.30925
21
2.10453
0
LINE
8
BLACK
6
CONTINUOUS
10
4.86043
20
2.27579
11
4.86043
21
2.12421
0
LINE
8
BLACK
6
CONTINUOUS
10
4.86043
20
2.12421
11
4.99233
21
2.12421
0
LINE
8
BLACK
6
CONTINUOUS
10
4.99233
20
2.12421
11
4.99233
21
2.27579
0
LINE
8
BLACK
6
CONTINUOUS
10
4.99233
20
2.27579
11
4.86043
21
2.27579
0
LINE
8
BLACK
6
CONTINUOUS
10
4.38093
20
2.18575
11
4.3819
21
2.18569
0
LINE
8
BLACK
6
CONTINUOUS
10
4.3819
20
2.18569
11
4.39047
21
2.18283
0
LINE
8
BLACK
6
CONTINUOUS
10
4.39047
20
2.18283
11
4.39162
21
2.18208
0
LINE
8
BLACK
6
CONTINUOUS
10
4.39162
20
2.18208
11
4.39281
21
2.18139
0
LINE
8
BLACK
6
CONTINUOUS
10
4.39281
20
2.18139
11
4.39853
21
2.17567
0
LINE
8
BLACK
6
CONTINUOUS
10
4.39853
20
2.17567
11
4.39922
21
2.17448
0
LINE
8
BLACK
6
CONTINUOUS
10
4.39922
20
2.17448
11
4.39998
21
2.17333
0
LINE
8
BLACK
6
CONTINUOUS
10
4.39998
20
2.17333
11
4.40283
21
2.16475
0
LINE
8
BLACK
6
CONTINUOUS
10
4.40283
20
2.16475
11
4.40289
21
2.16379
0
LINE
8
BLACK
6
CONTINUOUS
10
4.40289
20
2.16379
11
4.40314
21
2.16286
0
LINE
8
BLACK
6
CONTINUOUS
10
4.40314
20
2.16286
11
4.40314
21
2.15714
0
LINE
8
BLACK
6
CONTINUOUS
10
4.40314
20
2.15714
11
4.40234
21
2.15414
0
LINE
8
BLACK
6
CONTINUOUS
10
4.40234
20
2.15414
11
4.40014
21
2.15195
0
LINE
8
BLACK
6
CONTINUOUS
10
4.40014
20
2.15195
11
4.39714
21
2.15114
0
LINE
8
BLACK
6
CONTINUOUS
10
4.39714
20
2.15114
11
4.39414
21
2.15195
0
LINE
8
BLACK
6
CONTINUOUS
10
4.39414
20
2.15195
11
4.39195
21
2.15414
0
LINE
8
BLACK
6
CONTINUOUS
10
4.39195
20
2.15414
11
4.39114
21
2.15714
0
LINE
8
BLACK
6
CONTINUOUS
10
4.39114
20
2.15714
11
4.39114
21
2.16188
0
LINE
8
BLACK
6
CONTINUOUS
10
4.39114
20
2.16188
11
4.38904
21
2.16819
0
LINE
8
BLACK
6
CONTINUOUS
10
4.38904
20
2.16819
11
4.38533
21
2.1719
0
LINE
8
BLACK
6
CONTINUOUS
10
4.38533
20
2.1719
11
4.37903
21
2.174
0
LINE
8
BLACK
6
CONTINUOUS
10
4.37903
20
2.174
11
4.33714
21
2.174
0
LINE
8
BLACK
6
CONTINUOUS
10
4.33714
20
2.174
11
4.33414
21
2.1748
0
LINE
8
BLACK
6
CONTINUOUS
10
4.33414
20
2.1748
11
4.33195
21
2.177
0
LINE
8
BLACK
6
CONTINUOUS
10
4.33195
20
2.177
11
4.33114
21
2.18
0
LINE
8
BLACK
6
CONTINUOUS
10
4.33114
20
2.18
11
4.33195
21
2.183
0
LINE
8
BLACK
6
CONTINUOUS
10
4.33195
20
2.183
11
4.33414
21
2.1852
0
LINE
8
BLACK
6
CONTINUOUS
10
4.33414
20
2.1852
11
4.33714
21
2.186
0
LINE
8
BLACK
6
CONTINUOUS
10
4.33714
20
2.186
11
4.38
21
2.186
0
LINE
8
BLACK
6
CONTINUOUS
10
4.38
20
2.186
11
4.38093
21
2.18575
0
LINE
8
BLACK
6
CONTINUOUS
10
4.38705
20
2.24564
11
4.3884
21
2.24537
0
LINE
8
BLACK
6
CONTINUOUS
10
4.3884
20
2.24537
11
4.39411
21
2.24251
0
LINE
8
BLACK
6
CONTINUOUS
10
4.39411
20
2.24251
11
4.39483
21
2.24187
0
LINE
8
BLACK
6
CONTINUOUS
10
4.39483
20
2.24187
11
4.39567
21
2.24139
0
LINE
8
BLACK
6
CONTINUOUS
10
4.39567
20
2.24139
11
4.39853
21
2.23853
0
LINE
8
BLACK
6
CONTINUOUS
10
4.39853
20
2.23853
11
4.39901
21
2.23769
0
LINE
8
BLACK
6
CONTINUOUS
10
4.39901
20
2.23769
11
4.39965
21
2.23697
0
LINE
8
BLACK
6
CONTINUOUS
10
4.39965
20
2.23697
11
4.40251
21
2.23125
0
LINE
8
BLACK
6
CONTINUOUS
10
4.40251
20
2.23125
11
4.40279
21
2.2299
0
LINE
8
BLACK
6
CONTINUOUS
10
4.40279
20
2.2299
11
4.40314
21
2.22857
0
LINE
8
BLACK
6
CONTINUOUS
10
4.40314
20
2.22857
11
4.40314
21
2.21429
0
LINE
8
BLACK
6
CONTINUOUS
10
4.40314
20
2.21429
11
4.40279
21
2.21295
0
LINE
8
BLACK
6
CONTINUOUS
10
4.40279
20
2.21295
11
4.40251
21
2.2116
0
LINE
8
BLACK
6
CONTINUOUS
10
4.40251
20
2.2116
11
4.39965
21
2.20589
0
LINE
8
BLACK
6
CONTINUOUS
10
4.39965
20
2.20589
11
4.39901
21
2.20517
0
LINE
8
BLACK
6
CONTINUOUS
10
4.39901
20
2.20517
11
4.39853
21
2.20433
0
LINE
8
BLACK
6
CONTINUOUS
10
4.39853
20
2.20433
11
4.39567
21
2.20147
0
LINE
8
BLACK
6
CONTINUOUS
10
4.39567
20
2.20147
11
4.39298
21
2.19992
0
LINE
8
BLACK
6
CONTINUOUS
10
4.39298
20
2.19992
11
4.38988
21
2.19992
0
LINE
8
BLACK
6
CONTINUOUS
10
4.38988
20
2.19992
11
4.38719
21
2.20147
0
LINE
8
BLACK
6
CONTINUOUS
10
4.38719
20
2.20147
11
4.38563
21
2.20416
0
LINE
8
BLACK
6
CONTINUOUS
10
4.38563
20
2.20416
11
4.38563
21
2.20727
0
LINE
8
BLACK
6
CONTINUOUS
10
4.38563
20
2.20727
11
4.38719
21
2.20996
0
LINE
8
BLACK
6
CONTINUOUS
10
4.38719
20
2.20996
11
4.38935
21
2.21213
0
LINE
8
BLACK
6
CONTINUOUS
10
4.38935
20
2.21213
11
4.39114
21
2.2157
0
LINE
8
BLACK
6
CONTINUOUS
10
4.39114
20
2.2157
11
4.39114
21
2.22716
0
LINE
8
BLACK
6
CONTINUOUS
10
4.39114
20
2.22716
11
4.38935
21
2.23073
0
LINE
8
BLACK
6
CONTINUOUS
10
4.38935
20
2.23073
11
4.38787
21
2.23221
0
LINE
8
BLACK
6
CONTINUOUS
10
4.38787
20
2.23221
11
4.3843
21
2.234
0
LINE
8
BLACK
6
CONTINUOUS
10
4.3843
20
2.234
11
4.37284
21
2.234
0
LINE
8
BLACK
6
CONTINUOUS
10
4.37284
20
2.234
11
4.36927
21
2.23221
0
LINE
8
BLACK
6
CONTINUOUS
10
4.36927
20
2.23221
11
4.36779
21
2.23073
0
LINE
8
BLACK
6
CONTINUOUS
10
4.36779
20
2.23073
11
4.366
21
2.22716
0
LINE
8
BLACK
6
CONTINUOUS
10
4.366
20
2.22716
11
4.366
21
2.2157
0
LINE
8
BLACK
6
CONTINUOUS
10
4.366
20
2.2157
11
4.36779
21
2.21213
0
LINE
8
BLACK
6
CONTINUOUS
10
4.36779
20
2.21213
11
4.36996
21
2.20996
0
LINE
8
BLACK
6
CONTINUOUS
10
4.36996
20
2.20996
11
4.3705
21
2.20902
0
LINE
8
BLACK
6
CONTINUOUS
10
4.3705
20
2.20902
11
4.37118
21
2.20818
0
LINE
8
BLACK
6
CONTINUOUS
10
4.37118
20
2.20818
11
4.37126
21
2.20769
0
LINE
8
BLACK
6
CONTINUOUS
10
4.37126
20
2.20769
11
4.37151
21
2.20727
0
LINE
8
BLACK
6
CONTINUOUS
10
4.37151
20
2.20727
11
4.37151
21
2.20619
0
LINE
8
BLACK
6
CONTINUOUS
10
4.37151
20
2.20619
11
4.37168
21
2.20512
0
LINE
8
BLACK
6
CONTINUOUS
10
4.37168
20
2.20512
11
4.37151
21
2.20466
0
LINE
8
BLACK
6
CONTINUOUS
10
4.37151
20
2.20466
11
4.37151
21
2.20416
0
LINE
8
BLACK
6
CONTINUOUS
10
4.37151
20
2.20416
11
4.37097
21
2.20322
0
LINE
8
BLACK
6
CONTINUOUS
10
4.37097
20
2.20322
11
4.37059
21
2.20221
0
LINE
8
BLACK
6
CONTINUOUS
10
4.37059
20
2.20221
11
4.3702
21
2.2019
0
LINE
8
BLACK
6
CONTINUOUS
10
4.3702
20
2.2019
11
4.36996
21
2.20147
0
LINE
8
BLACK
6
CONTINUOUS
10
4.36996
20
2.20147
11
4.36902
21
2.20093
0
LINE
8
BLACK
6
CONTINUOUS
10
4.36902
20
2.20093
11
4.36818
21
2.20025
0
LINE
8
BLACK
6
CONTINUOUS
10
4.36818
20
2.20025
11
4.36769
21
2.20017
0
LINE
8
BLACK
6
CONTINUOUS
10
4.36769
20
2.20017
11
4.36727
21
2.19992
0
LINE
8
BLACK
6
CONTINUOUS
10
4.36727
20
2.19992
11
4.36619
21
2.19992
0
LINE
8
BLACK
6
CONTINUOUS
10
4.36619
20
2.19992
11
4.36512
21
2.19974
0
LINE
8
BLACK
6
CONTINUOUS
10
4.36512
20
2.19974
11
4.33655
21
2.2026
0
LINE
8
BLACK
6
CONTINUOUS
10
4.33655
20
2.2026
11
4.33536
21
2.20305
0
LINE
8
BLACK
6
CONTINUOUS
10
4.33536
20
2.20305
11
4.33414
21
2.20338
0
LINE
8
BLACK
6
CONTINUOUS
10
4.33414
20
2.20338
11
4.33393
21
2.20359
0
LINE
8
BLACK
6
CONTINUOUS
10
4.33393
20
2.20359
11
4.33364
21
2.2037
0
LINE
8
BLACK
6
CONTINUOUS
10
4.33364
20
2.2037
11
4.33284
21
2.20468
0
LINE
8
BLACK
6
CONTINUOUS
10
4.33284
20
2.20468
11
4.33195
21
2.20557
0
LINE
8
BLACK
6
CONTINUOUS
10
4.33195
20
2.20557
11
4.33187
21
2.20587
0
LINE
8
BLACK
6
CONTINUOUS
10
4.33187
20
2.20587
11
4.33167
21
2.2061
0
LINE
8
BLACK
6
CONTINUOUS
10
4.33167
20
2.2061
11
4.33147
21
2.20735
0
LINE
8
BLACK
6
CONTINUOUS
10
4.33147
20
2.20735
11
4.33114
21
2.20857
0
LINE
8
BLACK
6
CONTINUOUS
10
4.33114
20
2.20857
11
4.33114
21
2.23714
0
LINE
8
BLACK
6
CONTINUOUS
10
4.33114
20
2.23714
11
4.33195
21
2.24014
0
LINE
8
BLACK
6
CONTINUOUS
10
4.33195
20
2.24014
11
4.33414
21
2.24234
0
LINE
8
BLACK
6
CONTINUOUS
10
4.33414
20
2.24234
11
4.33714
21
2.24314
0
LINE
8
BLACK
6
CONTINUOUS
10
4.33714
20
2.24314
11
4.34014
21
2.24234
0
LINE
8
BLACK
6
CONTINUOUS
10
4.34014
20
2.24234
11
4.34234
21
2.24014
0
LINE
8
BLACK
6
CONTINUOUS
10
4.34234
20
2.24014
11
4.34314
21
2.23714
0
LINE
8
BLACK
6
CONTINUOUS
10
4.34314
20
2.23714
11
4.34314
21
2.214
0
LINE
8
BLACK
6
CONTINUOUS
10
4.34314
20
2.214
11
4.35437
21
2.21288
0
LINE
8
BLACK
6
CONTINUOUS
10
4.35437
20
2.21288
11
4.35436
21
2.21295
0
LINE
8
BLACK
6
CONTINUOUS
10
4.35436
20
2.21295
11
4.354
21
2.21429
0
LINE
8
BLACK
6
CONTINUOUS
10
4.354
20
2.21429
11
4.354
21
2.22857
0
LINE
8
BLACK
6
CONTINUOUS
10
4.354
20
2.22857
11
4.35436
21
2.2299
0
LINE
8
BLACK
6
CONTINUOUS
10
4.35436
20
2.2299
11
4.35463
21
2.23125
0
LINE
8
BLACK
6
CONTINUOUS
10
4.35463
20
2.23125
11
4.35749
21
2.23697
0
LINE
8
BLACK
6
CONTINUOUS
10
4.35749
20
2.23697
11
4.35813
21
2.23769
0
LINE
8
BLACK
6
CONTINUOUS
10
4.35813
20
2.23769
11
4.35861
21
2.23853
0
LINE
8
BLACK
6
CONTINUOUS
10
4.35861
20
2.23853
11
4.36147
21
2.24139
0
LINE
8
BLACK
6
CONTINUOUS
10
4.36147
20
2.24139
11
4.36231
21
2.24187
0
LINE
8
BLACK
6
CONTINUOUS
10
4.36231
20
2.24187
11
4.36303
21
2.24251
0
LINE
8
BLACK
6
CONTINUOUS
10
4.36303
20
2.24251
11
4.36875
21
2.24537
0
LINE
8
BLACK
6
CONTINUOUS
10
4.36875
20
2.24537
11
4.3701
21
2.24564
0
LINE
8
BLACK
6
CONTINUOUS
10
4.3701
20
2.24564
11
4.37143
21
2.246
0
LINE
8
BLACK
6
CONTINUOUS
10
4.37143
20
2.246
11
4.38571
21
2.246
0
LINE
8
BLACK
6
CONTINUOUS
10
4.38571
20
2.246
11
4.38705
21
2.24564
0
LINE
8
BLACK
6
CONTINUOUS
10
4.97586
20
2.26196
11
4.9761
21
2.262
0
LINE
8
BLACK
6
CONTINUOUS
10
4.9761
20
2.262
11
4.97632
21
2.26188
0
LINE
8
BLACK
6
CONTINUOUS
10
4.97632
20
2.26188
11
4.9766
21
2.26183
0
LINE
8
BLACK
6
CONTINUOUS
10
4.9766
20
2.26183
11
4.97704
21
2.26146
0
LINE
8
BLACK
6
CONTINUOUS
10
4.97704
20
2.26146
11
4.97785
21
2.26099
0
LINE
8
BLACK
6
CONTINUOUS
10
4.97785
20
2.26099
11
4.97796
21
2.26069
0
LINE
8
BLACK
6
CONTINUOUS
10
4.97796
20
2.26069
11
4.97815
21
2.26053
0
LINE
8
BLACK
6
CONTINUOUS
10
4.97815
20
2.26053
11
4.97827
21
2.25985
0
LINE
8
BLACK
6
CONTINUOUS
10
4.97827
20
2.25985
11
4.97854
21
2.25909
0
LINE
8
BLACK
6
CONTINUOUS
10
4.97854
20
2.25909
11
4.97854
21
2.14091
0
LINE
8
BLACK
6
CONTINUOUS
10
4.97854
20
2.14091
11
4.97848
21
2.14054
0
LINE
8
BLACK
6
CONTINUOUS
10
4.97848
20
2.14054
11
4.9785
21
2.14043
0
LINE
8
BLACK
6
CONTINUOUS
10
4.9785
20
2.14043
11
4.97844
21
2.14034
0
LINE
8
BLACK
6
CONTINUOUS
10
4.97844
20
2.14034
11
4.97837
21
2.1399
0
LINE
8
BLACK
6
CONTINUOUS
10
4.97837
20
2.1399
11
4.9778
21
2.13922
0
LINE
8
BLACK
6
CONTINUOUS
10
4.9778
20
2.13922
11
4.97749
21
2.13868
0
LINE
8
BLACK
6
CONTINUOUS
10
4.97749
20
2.13868
11
4.97729
21
2.13861
0
LINE
8
BLACK
6
CONTINUOUS
10
4.97729
20
2.13861
11
4.97707
21
2.13835
0
LINE
8
BLACK
6
CONTINUOUS
10
4.97707
20
2.13835
11
4.9761
21
2.13818
0
LINE
8
BLACK
6
CONTINUOUS
10
4.9761
20
2.13818
11
4.97559
21
2.13799
0
LINE
8
BLACK
6
CONTINUOUS
10
4.97559
20
2.13799
11
4.87717
21
2.13799
0
LINE
8
BLACK
6
CONTINUOUS
10
4.87717
20
2.13799
11
4.8769
21
2.13804
0
LINE
8
BLACK
6
CONTINUOUS
10
4.8769
20
2.13804
11
4.87666
21
2.138
0
LINE
8
BLACK
6
CONTINUOUS
10
4.87666
20
2.138
11
4.87644
21
2.13812
0
LINE
8
BLACK
6
CONTINUOUS
10
4.87644
20
2.13812
11
4.87616
21
2.13817
0
LINE
8
BLACK
6
CONTINUOUS
10
4.87616
20
2.13817
11
4.87572
21
2.13854
0
LINE
8
BLACK
6
CONTINUOUS
10
4.87572
20
2.13854
11
4.87491
21
2.13901
0
LINE
8
BLACK
6
CONTINUOUS
10
4.87491
20
2.13901
11
4.8748
21
2.13931
0
LINE
8
BLACK
6
CONTINUOUS
10
4.8748
20
2.13931
11
4.87461
21
2.13947
0
LINE
8
BLACK
6
CONTINUOUS
10
4.87461
20
2.13947
11
4.87449
21
2.14015
0
LINE
8
BLACK
6
CONTINUOUS
10
4.87449
20
2.14015
11
4.87422
21
2.14091
0
LINE
8
BLACK
6
CONTINUOUS
10
4.87422
20
2.14091
11
4.87422
21
2.25909
0
LINE
8
BLACK
6
CONTINUOUS
10
4.87422
20
2.25909
11
4.87428
21
2.25946
0
LINE
8
BLACK
6
CONTINUOUS
10
4.87428
20
2.25946
11
4.87426
21
2.25957
0
LINE
8
BLACK
6
CONTINUOUS
10
4.87426
20
2.25957
11
4.87432
21
2.25966
0
LINE
8
BLACK
6
CONTINUOUS
10
4.87432
20
2.25966
11
4.87439
21
2.2601
0
LINE
8
BLACK
6
CONTINUOUS
10
4.87439
20
2.2601
11
4.87496
21
2.26078
0
LINE
8
BLACK
6
CONTINUOUS
10
4.87496
20
2.26078
11
4.87527
21
2.26132
0
LINE
8
BLACK
6
CONTINUOUS
10
4.87527
20
2.26132
11
4.87547
21
2.26139
0
LINE
8
BLACK
6
CONTINUOUS
10
4.87547
20
2.26139
11
4.87569
21
2.26165
0
LINE
8
BLACK
6
CONTINUOUS
10
4.87569
20
2.26165
11
4.87666
21
2.26182
0
LINE
8
BLACK
6
CONTINUOUS
10
4.87666
20
2.26182
11
4.87717
21
2.26201
0
LINE
8
BLACK
6
CONTINUOUS
10
4.87717
20
2.26201
11
4.97559
21
2.26201
0
LINE
8
BLACK
6
CONTINUOUS
10
4.97559
20
2.26201
11
4.97586
21
2.26196
0
LINE
8
BLACK
6
CONTINUOUS
10
4.88012
20
2.2561
11
4.88012
21
2.1439
0
LINE
8
BLACK
6
CONTINUOUS
10
4.88012
20
2.1439
11
4.97264
21
2.1439
0
LINE
8
BLACK
6
CONTINUOUS
10
4.97264
20
2.1439
11
4.97264
21
2.2561
0
LINE
8
BLACK
6
CONTINUOUS
10
4.97264
20
2.2561
11
4.88012
21
2.2561
0
LINE
8
BLACK
6
CONTINUOUS
10
5.07868
20
2.3404
11
5.07839
21
2.34109
0
LINE
8
BLACK
6
CONTINUOUS
10
5.07839
20
2.34109
11
5.07868
21
2.34179
0
LINE
8
BLACK
6
CONTINUOUS
10
5.07868
20
2.34179
11
5.07938
21
2.34208
0
LINE
8
BLACK
6
CONTINUOUS
10
5.07938
20
2.34208
11
5.08402
21
2.34208
0
LINE
8
BLACK
6
CONTINUOUS
10
5.08402
20
2.34208
11
5.08402
21
2.35753
0
LINE
8
BLACK
6
CONTINUOUS
10
5.08402
20
2.35753
11
5.08394
21
2.35742
0
LINE
8
BLACK
6
CONTINUOUS
10
5.08394
20
2.35742
11
5.08386
21
2.35737
0
LINE
8
BLACK
6
CONTINUOUS
10
5.08386
20
2.35737
11
5.08382
21
2.35727
0
LINE
8
BLACK
6
CONTINUOUS
10
5.08382
20
2.35727
11
5.08195
21
2.3554
0
LINE
8
BLACK
6
CONTINUOUS
10
5.08195
20
2.3554
11
5.0818
21
2.35533
0
LINE
8
BLACK
6
CONTINUOUS
10
5.0818
20
2.35533
11
5.08169
21
2.35521
0
LINE
8
BLACK
6
CONTINUOUS
10
5.08169
20
2.35521
11
5.07982
21
2.35428
0
LINE
8
BLACK
6
CONTINUOUS
10
5.07982
20
2.35428
11
5.07906
21
2.35422
0
LINE
8
BLACK
6
CONTINUOUS
10
5.07906
20
2.35422
11
5.0785
21
2.35472
0
LINE
8
BLACK
6
CONTINUOUS
10
5.0785
20
2.35472
11
5.07844
21
2.35547
0
LINE
8
BLACK
6
CONTINUOUS
10
5.07844
20
2.35547
11
5.07894
21
2.35604
0
LINE
8
BLACK
6
CONTINUOUS
10
5.07894
20
2.35604
11
5.08067
21
2.3569
0
LINE
8
BLACK
6
CONTINUOUS
10
5.08067
20
2.3569
11
5.08236
21
2.35859
0
LINE
8
BLACK
6
CONTINUOUS
10
5.08236
20
2.35859
11
5.08418
21
2.36133
0
LINE
8
BLACK
6
CONTINUOUS
10
5.08418
20
2.36133
11
5.08427
21
2.36138
0
LINE
8
BLACK
6
CONTINUOUS
10
5.08427
20
2.36138
11
5.0843
21
2.36148
0
LINE
8
BLACK
6
CONTINUOUS
10
5.0843
20
2.36148
11
5.08457
21
2.36159
0
LINE
8
BLACK
6
CONTINUOUS
10
5.08457
20
2.36159
11
5.08481
21
2.36175
0
LINE
8
BLACK
6
CONTINUOUS
10
5.08481
20
2.36175
11
5.08491
21
2.36173
0
LINE
8
BLACK
6
CONTINUOUS
10
5.08491
20
2.36173
11
5.085
21
2.36176
0
LINE
8
BLACK
6
CONTINUOUS
10
5.085
20
2.36176
11
5.08526
21
2.36165
0
LINE
8
BLACK
6
CONTINUOUS
10
5.08526
20
2.36165
11
5.08555
21
2.3616
0
LINE
8
BLACK
6
CONTINUOUS
10
5.08555
20
2.3616
11
5.0856
21
2.36151
0
LINE
8
BLACK
6
CONTINUOUS
10
5.0856
20
2.36151
11
5.0857
21
2.36148
0
LINE
8
BLACK
6
CONTINUOUS
10
5.0857
20
2.36148
11
5.08581
21
2.36121
0
LINE
8
BLACK
6
CONTINUOUS
10
5.08581
20
2.36121
11
5.08597
21
2.36097
0
LINE
8
BLACK
6
CONTINUOUS
10
5.08597
20
2.36097
11
5.08595
21
2.36087
0
LINE
8
BLACK
6
CONTINUOUS
10
5.08595
20
2.36087
11
5.08598
21
2.36078
0
LINE
8
BLACK
6
CONTINUOUS
10
5.08598
20
2.36078
11
5.08598
21
2.34208
0
LINE
8
BLACK
6
CONTINUOUS
10
5.08598
20
2.34208
11
5.09062
21
2.34208
0
LINE
8
BLACK
6
CONTINUOUS
10
5.09062
20
2.34208
11
5.09132
21
2.34179
0
LINE
8
BLACK
6
CONTINUOUS
10
5.09132
20
2.34179
11
5.09161
21
2.34109
0
LINE
8
BLACK
6
CONTINUOUS
10
5.09161
20
2.34109
11
5.09132
21
2.3404
0
LINE
8
BLACK
6
CONTINUOUS
10
5.09132
20
2.3404
11
5.09062
21
2.34011
0
LINE
8
BLACK
6
CONTINUOUS
10
5.09062
20
2.34011
11
5.07938
21
2.34011
0
LINE
8
BLACK
6
CONTINUOUS
10
5.07938
20
2.34011
11
5.07868
21
2.3404
0
LINE
8
BLACK
6
CONTINUOUS
10
3.80593
20
2.59869
11
3.80579
21
2.59866
0
LINE
8
BLACK
6
CONTINUOUS
10
3.80579
20
2.59866
11
3.80566
21
2.59873
0
LINE
8
BLACK
6
CONTINUOUS
10
3.80566
20
2.59873
11
3.80529
21
2.5988
0
LINE
8
BLACK
6
CONTINUOUS
10
3.80529
20
2.5988
11
3.80472
21
2.59928
0
LINE
8
BLACK
6
CONTINUOUS
10
3.80472
20
2.59928
11
3.80404
21
2.59967
0
LINE
8
BLACK
6
CONTINUOUS
10
3.80404
20
2.59967
11
3.80394
21
2.59993
0
LINE
8
BLACK
6
CONTINUOUS
10
3.80394
20
2.59993
11
3.80374
21
2.6001
0
LINE
8
BLACK
6
CONTINUOUS
10
3.80374
20
2.6001
11
3.80361
21
2.60085
0
LINE
8
BLACK
6
CONTINUOUS
10
3.80361
20
2.60085
11
3.80335
21
2.60157
0
LINE
8
BLACK
6
CONTINUOUS
10
3.80335
20
2.60157
11
3.80335
21
2.79843
0
LINE
8
BLACK
6
CONTINUOUS
10
3.80335
20
2.79843
11
3.80341
21
2.79881
0
LINE
8
BLACK
6
CONTINUOUS
10
3.80341
20
2.79881
11
3.80339
21
2.79894
0
LINE
8
BLACK
6
CONTINUOUS
10
3.80339
20
2.79894
11
3.80346
21
2.79905
0
LINE
8
BLACK
6
CONTINUOUS
10
3.80346
20
2.79905
11
3.80352
21
2.79944
0
LINE
8
BLACK
6
CONTINUOUS
10
3.80352
20
2.79944
11
3.80402
21
2.80004
0
LINE
8
BLACK
6
CONTINUOUS
10
3.80402
20
2.80004
11
3.8044
21
2.80069
0
LINE
8
BLACK
6
CONTINUOUS
10
3.8044
20
2.80069
11
3.80465
21
2.80078
0
LINE
8
BLACK
6
CONTINUOUS
10
3.80465
20
2.80078
11
3.80482
21
2.80099
0
LINE
8
BLACK
6
CONTINUOUS
10
3.80482
20
2.80099
11
3.8056
21
2.80112
0
LINE
8
BLACK
6
CONTINUOUS
10
3.8056
20
2.80112
11
3.8063
21
2.80138
0
LINE
8
BLACK
6
CONTINUOUS
10
3.8063
20
2.80138
11
4.39685
21
2.80138
0
LINE
8
BLACK
6
CONTINUOUS
10
4.39685
20
2.80138
11
4.39723
21
2.80131
0
LINE
8
BLACK
6
CONTINUOUS
10
4.39723
20
2.80131
11
4.39736
21
2.80133
0
LINE
8
BLACK
6
CONTINUOUS
10
4.39736
20
2.80133
11
4.39748
21
2.80127
0
LINE
8
BLACK
6
CONTINUOUS
10
4.39748
20
2.80127
11
4.39786
21
2.8012
0
LINE
8
BLACK
6
CONTINUOUS
10
4.39786
20
2.8012
11
4.39845
21
2.80071
0
LINE
8
BLACK
6
CONTINUOUS
10
4.39845
20
2.80071
11
4.39911
21
2.80032
0
LINE
8
BLACK
6
CONTINUOUS
10
4.39911
20
2.80032
11
4.3992
21
2.80007
0
LINE
8
BLACK
6
CONTINUOUS
10
4.3992
20
2.80007
11
4.39941
21
2.7999
0
LINE
8
BLACK
6
CONTINUOUS
10
4.39941
20
2.7999
11
4.39954
21
2.79915
0
LINE
8
BLACK
6
CONTINUOUS
10
4.39954
20
2.79915
11
4.3998
21
2.79843
0
LINE
8
BLACK
6
CONTINUOUS
10
4.3998
20
2.79843
11
4.3998
21
2.78169
0
LINE
8
BLACK
6
CONTINUOUS
10
4.3998
20
2.78169
11
4.49531
21
2.78169
0
LINE
8
BLACK
6
CONTINUOUS
10
4.49531
20
2.78169
11
4.49568
21
2.78163
0
LINE
8
BLACK
6
CONTINUOUS
10
4.49568
20
2.78163
11
4.49579
21
2.78165
0
LINE
8
BLACK
6
CONTINUOUS
10
4.49579
20
2.78165
11
4.49589
21
2.78159
0
LINE
8
BLACK
6
CONTINUOUS
10
4.49589
20
2.78159
11
4.49632
21
2.78151
0
LINE
8
BLACK
6
CONTINUOUS
10
4.49632
20
2.78151
11
4.49699
21
2.78096
0
LINE
8
BLACK
6
CONTINUOUS
10
4.49699
20
2.78096
11
4.49754
21
2.78064
0
LINE
8
BLACK
6
CONTINUOUS
10
4.49754
20
2.78064
11
4.49762
21
2.78043
0
LINE
8
BLACK
6
CONTINUOUS
10
4.49762
20
2.78043
11
4.49787
21
2.78022
0
LINE
8
BLACK
6
CONTINUOUS
10
4.49787
20
2.78022
11
4.49804
21
2.77927
0
LINE
8
BLACK
6
CONTINUOUS
10
4.49804
20
2.77927
11
4.49823
21
2.77874
0
LINE
8
BLACK
6
CONTINUOUS
10
4.49823
20
2.77874
11
4.49823
21
2.62126
0
LINE
8
BLACK
6
CONTINUOUS
10
4.49823
20
2.62126
11
4.49816
21
2.62088
0
LINE
8
BLACK
6
CONTINUOUS
10
4.49816
20
2.62088
11
4.49819
21
2.62075
0
LINE
8
BLACK
6
CONTINUOUS
10
4.49819
20
2.62075
11
4.49812
21
2.62063
0
LINE
8
BLACK
6
CONTINUOUS
10
4.49812
20
2.62063
11
4.49805
21
2.62025
0
LINE
8
BLACK
6
CONTINUOUS
10
4.49805
20
2.62025
11
4.49756
21
2.61966
0
LINE
8
BLACK
6
CONTINUOUS
10
4.49756
20
2.61966
11
4.49718
21
2.619
0
LINE
8
BLACK
6
CONTINUOUS
10
4.49718
20
2.619
11
4.49693
21
2.61891
0
LINE
8
BLACK
6
CONTINUOUS
10
4.49693
20
2.61891
11
4.49676
21
2.6187
0
LINE
8
BLACK
6
CONTINUOUS
10
4.49676
20
2.6187
11
4.496
21
2.61857
0
LINE
8
BLACK
6
CONTINUOUS
10
4.496
20
2.61857
11
4.49528
21
2.61831
0
LINE
8
BLACK
6
CONTINUOUS
10
4.49528
20
2.61831
11
4.3998
21
2.61831
0
LINE
8
BLACK
6
CONTINUOUS
10
4.3998
20
2.61831
11
4.3998
21
2.60157
0
LINE
8
BLACK
6
CONTINUOUS
10
4.3998
20
2.60157
11
4.39974
21
2.60119
0
LINE
8
BLACK
6
CONTINUOUS
10
4.39974
20
2.60119
11
4.39976
21
2.60106
0
LINE
8
BLACK
6
CONTINUOUS
10
4.39976
20
2.60106
11
4.39969
21
2.60095
0
LINE
8
BLACK
6
CONTINUOUS
10
4.39969
20
2.60095
11
4.39963
21
2.60056
0
LINE
8
BLACK
6
CONTINUOUS
10
4.39963
20
2.60056
11
4.39913
21
2.59998
0
LINE
8
BLACK
6
CONTINUOUS
10
4.39913
20
2.59998
11
4.39875
21
2.59931
0
LINE
8
BLACK
6
CONTINUOUS
10
4.39875
20
2.59931
11
4.3985
21
2.59922
0
LINE
8
BLACK
6
CONTINUOUS
10
4.3985
20
2.59922
11
4.39833
21
2.59902
0
LINE
8
BLACK
6
CONTINUOUS
10
4.39833
20
2.59902
11
4.39757
21
2.59888
0
LINE
8
BLACK
6
CONTINUOUS
10
4.39757
20
2.59888
11
4.39685
21
2.59862
0
LINE
8
BLACK
6
CONTINUOUS
10
4.39685
20
2.59862
11
3.8063
21
2.59862
0
LINE
8
BLACK
6
CONTINUOUS
10
3.8063
20
2.59862
11
3.80593
21
2.59869
0
LINE
8
BLACK
6
CONTINUOUS
10
4.3939
20
2.61831
11
4.35748
21
2.61831
0
LINE
8
BLACK
6
CONTINUOUS
10
4.35748
20
2.61831
11
4.3571
21
2.61837
0
LINE
8
BLACK
6
CONTINUOUS
10
4.3571
20
2.61837
11
4.35697
21
2.61835
0
LINE
8
BLACK
6
CONTINUOUS
10
4.35697
20
2.61835
11
4.35685
21
2.61842
0
LINE
8
BLACK
6
CONTINUOUS
10
4.35685
20
2.61842
11
4.35647
21
2.61849
0
LINE
8
BLACK
6
CONTINUOUS
10
4.35647
20
2.61849
11
4.35588
21
2.61898
0
LINE
8
BLACK
6
CONTINUOUS
10
4.35588
20
2.61898
11
4.35522
21
2.61936
0
LINE
8
BLACK
6
CONTINUOUS
10
4.35522
20
2.61936
11
4.35513
21
2.61961
0
LINE
8
BLACK
6
CONTINUOUS
10
4.35513
20
2.61961
11
4.35492
21
2.61978
0
LINE
8
BLACK
6
CONTINUOUS
10
4.35492
20
2.61978
11
4.35479
21
2.62054
0
LINE
8
BLACK
6
CONTINUOUS
10
4.35479
20
2.62054
11
4.35453
21
2.62126
0
LINE
8
BLACK
6
CONTINUOUS
10
4.35453
20
2.62126
11
4.35453
21
2.77874
0
LINE
8
BLACK
6
CONTINUOUS
10
4.35453
20
2.77874
11
4.3546
21
2.77912
0
LINE
8
BLACK
6
CONTINUOUS
10
4.3546
20
2.77912
11
4.35457
21
2.77925
0
LINE
8
BLACK
6
CONTINUOUS
10
4.35457
20
2.77925
11
4.35464
21
2.77937
0
LINE
8
BLACK
6
CONTINUOUS
10
4.35464
20
2.77937
11
4.35471
21
2.77975
0
LINE
8
BLACK
6
CONTINUOUS
10
4.35471
20
2.77975
11
4.3552
21
2.78034
0
LINE
8
BLACK
6
CONTINUOUS
10
4.3552
20
2.78034
11
4.35558
21
2.781
0
LINE
8
BLACK
6
CONTINUOUS
10
4.35558
20
2.781
11
4.35583
21
2.78109
0
LINE
8
BLACK
6
CONTINUOUS
10
4.35583
20
2.78109
11
4.356
21
2.7813
0
LINE
8
BLACK
6
CONTINUOUS
10
4.356
20
2.7813
11
4.35676
21
2.78143
0
LINE
8
BLACK
6
CONTINUOUS
10
4.35676
20
2.78143
11
4.35748
21
2.78169
0
LINE
8
BLACK
6
CONTINUOUS
10
4.35748
20
2.78169
11
4.3939
21
2.78169
0
LINE
8
BLACK
6
CONTINUOUS
10
4.3939
20
2.78169
11
4.3939
21
2.79547
0
LINE
8
BLACK
6
CONTINUOUS
10
4.3939
20
2.79547
11
3.80925
21
2.79547
0
LINE
8
BLACK
6
CONTINUOUS
10
3.80925
20
2.79547
11
3.80925
21
2.60453
0
LINE
8
BLACK
6
CONTINUOUS
10
3.80925
20
2.60453
11
4.3939
21
2.60453
0
LINE
8
BLACK
6
CONTINUOUS
10
4.3939
20
2.60453
11
4.3939
21
2.61831
0
LINE
8
BLACK
6
CONTINUOUS
10
4.36043
20
2.77579
11
4.36043
21
2.62421
0
LINE
8
BLACK
6
CONTINUOUS
10
4.36043
20
2.62421
11
4.49233
21
2.62421
0
LINE
8
BLACK
6
CONTINUOUS
10
4.49233
20
2.62421
11
4.49233
21
2.77579
0
LINE
8
BLACK
6
CONTINUOUS
10
4.49233
20
2.77579
11
4.36043
21
2.77579
0
LINE
8
BLACK
6
CONTINUOUS
10
3.88093
20
2.68575
11
3.8819
21
2.68569
0
LINE
8
BLACK
6
CONTINUOUS
10
3.8819
20
2.68569
11
3.89047
21
2.68283
0
LINE
8
BLACK
6
CONTINUOUS
10
3.89047
20
2.68283
11
3.89162
21
2.68208
0
LINE
8
BLACK
6
CONTINUOUS
10
3.89162
20
2.68208
11
3.89281
21
2.68139
0
LINE
8
BLACK
6
CONTINUOUS
10
3.89281
20
2.68139
11
3.89853
21
2.67567
0
LINE
8
BLACK
6
CONTINUOUS
10
3.89853
20
2.67567
11
3.89922
21
2.67448
0
LINE
8
BLACK
6
CONTINUOUS
10
3.89922
20
2.67448
11
3.89998
21
2.67333
0
LINE
8
BLACK
6
CONTINUOUS
10
3.89998
20
2.67333
11
3.90283
21
2.66475
0
LINE
8
BLACK
6
CONTINUOUS
10
3.90283
20
2.66475
11
3.90289
21
2.66379
0
LINE
8
BLACK
6
CONTINUOUS
10
3.90289
20
2.66379
11
3.90314
21
2.66286
0
LINE
8
BLACK
6
CONTINUOUS
10
3.90314
20
2.66286
11
3.90314
21
2.65714
0
LINE
8
BLACK
6
CONTINUOUS
10
3.90314
20
2.65714
11
3.90234
21
2.65414
0
LINE
8
BLACK
6
CONTINUOUS
10
3.90234
20
2.65414
11
3.90014
21
2.65195
0
LINE
8
BLACK
6
CONTINUOUS
10
3.90014
20
2.65195
11
3.89714
21
2.65114
0
LINE
8
BLACK
6
CONTINUOUS
10
3.89714
20
2.65114
11
3.89414
21
2.65195
0
LINE
8
BLACK
6
CONTINUOUS
10
3.89414
20
2.65195
11
3.89195
21
2.65414
0
LINE
8
BLACK
6
CONTINUOUS
10
3.89195
20
2.65414
11
3.89114
21
2.65714
0
LINE
8
BLACK
6
CONTINUOUS
10
3.89114
20
2.65714
11
3.89114
21
2.66188
0
LINE
8
BLACK
6
CONTINUOUS
10
3.89114
20
2.66188
11
3.88904
21
2.66819
0
LINE
8
BLACK
6
CONTINUOUS
10
3.88904
20
2.66819
11
3.88533
21
2.6719
0
LINE
8
BLACK
6
CONTINUOUS
10
3.88533
20
2.6719
11
3.87903
21
2.674
0
LINE
8
BLACK
6
CONTINUOUS
10
3.87903
20
2.674
11
3.83714
21
2.674
0
LINE
8
BLACK
6
CONTINUOUS
10
3.83714
20
2.674
11
3.83414
21
2.6748
0
LINE
8
BLACK
6
CONTINUOUS
10
3.83414
20
2.6748
11
3.83195
21
2.677
0
LINE
8
BLACK
6
CONTINUOUS
10
3.83195
20
2.677
11
3.83114
21
2.68
0
LINE
8
BLACK
6
CONTINUOUS
10
3.83114
20
2.68
11
3.83195
21
2.683
0
LINE
8
BLACK
6
CONTINUOUS
10
3.83195
20
2.683
11
3.83414
21
2.6852
0
LINE
8
BLACK
6
CONTINUOUS
10
3.83414
20
2.6852
11
3.83714
21
2.686
0
LINE
8
BLACK
6
CONTINUOUS
10
3.83714
20
2.686
11
3.88
21
2.686
0
LINE
8
BLACK
6
CONTINUOUS
10
3.88
20
2.686
11
3.88093
21
2.68575
0
LINE
8
BLACK
6
CONTINUOUS
10
3.88705
20
2.74564
11
3.8884
21
2.74537
0
LINE
8
BLACK
6
CONTINUOUS
10
3.8884
20
2.74537
11
3.89411
21
2.74251
0
LINE
8
BLACK
6
CONTINUOUS
10
3.89411
20
2.74251
11
3.89483
21
2.74187
0
LINE
8
BLACK
6
CONTINUOUS
10
3.89483
20
2.74187
11
3.89567
21
2.74139
0
LINE
8
BLACK
6
CONTINUOUS
10
3.89567
20
2.74139
11
3.89853
21
2.73853
0
LINE
8
BLACK
6
CONTINUOUS
10
3.89853
20
2.73853
11
3.89901
21
2.73769
0
LINE
8
BLACK
6
CONTINUOUS
10
3.89901
20
2.73769
11
3.89965
21
2.73697
0
LINE
8
BLACK
6
CONTINUOUS
10
3.89965
20
2.73697
11
3.90251
21
2.73125
0
LINE
8
BLACK
6
CONTINUOUS
10
3.90251
20
2.73125
11
3.90279
21
2.7299
0
LINE
8
BLACK
6
CONTINUOUS
10
3.90279
20
2.7299
11
3.90314
21
2.72857
0
LINE
8
BLACK
6
CONTINUOUS
10
3.90314
20
2.72857
11
3.90314
21
2.71714
0
LINE
8
BLACK
6
CONTINUOUS
10
3.90314
20
2.71714
11
3.90279
21
2.71581
0
LINE
8
BLACK
6
CONTINUOUS
10
3.90279
20
2.71581
11
3.90251
21
2.71446
0
LINE
8
BLACK
6
CONTINUOUS
10
3.90251
20
2.71446
11
3.89965
21
2.70875
0
LINE
8
BLACK
6
CONTINUOUS
10
3.89965
20
2.70875
11
3.89901
21
2.70802
0
LINE
8
BLACK
6
CONTINUOUS
10
3.89901
20
2.70802
11
3.89853
21
2.70719
0
LINE
8
BLACK
6
CONTINUOUS
10
3.89853
20
2.70719
11
3.89567
21
2.70433
0
LINE
8
BLACK
6
CONTINUOUS
10
3.89567
20
2.70433
11
3.89483
21
2.70385
0
LINE
8
BLACK
6
CONTINUOUS
10
3.89483
20
2.70385
11
3.89411
21
2.7032
0
LINE
8
BLACK
6
CONTINUOUS
10
3.89411
20
2.7032
11
3.8884
21
2.70035
0
LINE
8
BLACK
6
CONTINUOUS
10
3.8884
20
2.70035
11
3.88705
21
2.70007
0
LINE
8
BLACK
6
CONTINUOUS
10
3.88705
20
2.70007
11
3.88571
21
2.69971
0
LINE
8
BLACK
6
CONTINUOUS
10
3.88571
20
2.69971
11
3.86286
21
2.69971
0
LINE
8
BLACK
6
CONTINUOUS
10
3.86286
20
2.69971
11
3.86214
21
2.69991
0
LINE
8
BLACK
6
CONTINUOUS
10
3.86214
20
2.69991
11
3.8614
21
2.69989
0
LINE
8
BLACK
6
CONTINUOUS
10
3.8614
20
2.69989
11
3.84997
21
2.70275
0
LINE
8
BLACK
6
CONTINUOUS
10
3.84997
20
2.70275
11
3.84907
21
2.70325
0
LINE
8
BLACK
6
CONTINUOUS
10
3.84907
20
2.70325
11
3.8481
21
2.70358
0
LINE
8
BLACK
6
CONTINUOUS
10
3.8481
20
2.70358
11
3.83953
21
2.70929
0
LINE
8
BLACK
6
CONTINUOUS
10
3.83953
20
2.70929
11
3.83913
21
2.70974
0
LINE
8
BLACK
6
CONTINUOUS
10
3.83913
20
2.70974
11
3.83861
21
2.71004
0
LINE
8
BLACK
6
CONTINUOUS
10
3.83861
20
2.71004
11
3.83576
21
2.7129
0
LINE
8
BLACK
6
CONTINUOUS
10
3.83576
20
2.7129
11
3.83527
21
2.71374
0
LINE
8
BLACK
6
CONTINUOUS
10
3.83527
20
2.71374
11
3.83463
21
2.71446
0
LINE
8
BLACK
6
CONTINUOUS
10
3.83463
20
2.71446
11
3.83178
21
2.72017
0
LINE
8
BLACK
6
CONTINUOUS
10
3.83178
20
2.72017
11
3.8315
21
2.72153
0
LINE
8
BLACK
6
CONTINUOUS
10
3.8315
20
2.72153
11
3.83114
21
2.72286
0
LINE
8
BLACK
6
CONTINUOUS
10
3.83114
20
2.72286
11
3.83114
21
2.73429
0
LINE
8
BLACK
6
CONTINUOUS
10
3.83114
20
2.73429
11
3.83195
21
2.73729
0
LINE
8
BLACK
6
CONTINUOUS
10
3.83195
20
2.73729
11
3.83414
21
2.73948
0
LINE
8
BLACK
6
CONTINUOUS
10
3.83414
20
2.73948
11
3.83714
21
2.74029
0
LINE
8
BLACK
6
CONTINUOUS
10
3.83714
20
2.74029
11
3.84014
21
2.73948
0
LINE
8
BLACK
6
CONTINUOUS
10
3.84014
20
2.73948
11
3.84234
21
2.73729
0
LINE
8
BLACK
6
CONTINUOUS
10
3.84234
20
2.73729
11
3.84314
21
2.73429
0
LINE
8
BLACK
6
CONTINUOUS
10
3.84314
20
2.73429
11
3.84314
21
2.72427
0
LINE
8
BLACK
6
CONTINUOUS
10
3.84314
20
2.72427
11
3.84493
21
2.7207
0
LINE
8
BLACK
6
CONTINUOUS
10
3.84493
20
2.7207
11
3.84668
21
2.71895
0
LINE
8
BLACK
6
CONTINUOUS
10
3.84668
20
2.71895
11
3.85389
21
2.71414
0
LINE
8
BLACK
6
CONTINUOUS
10
3.85389
20
2.71414
11
3.85492
21
2.71388
0
LINE
8
BLACK
6
CONTINUOUS
10
3.85492
20
2.71388
11
3.85463
21
2.71446
0
LINE
8
BLACK
6
CONTINUOUS
10
3.85463
20
2.71446
11
3.85436
21
2.71581
0
LINE
8
BLACK
6
CONTINUOUS
10
3.85436
20
2.71581
11
3.854
21
2.71714
0
LINE
8
BLACK
6
CONTINUOUS
10
3.854
20
2.71714
11
3.854
21
2.72857
0
LINE
8
BLACK
6
CONTINUOUS
10
3.854
20
2.72857
11
3.85436
21
2.7299
0
LINE
8
BLACK
6
CONTINUOUS
10
3.85436
20
2.7299
11
3.85463
21
2.73125
0
LINE
8
BLACK
6
CONTINUOUS
10
3.85463
20
2.73125
11
3.85749
21
2.73697
0
LINE
8
BLACK
6
CONTINUOUS
10
3.85749
20
2.73697
11
3.85813
21
2.73769
0
LINE
8
BLACK
6
CONTINUOUS
10
3.85813
20
2.73769
11
3.85861
21
2.73853
0
LINE
8
BLACK
6
CONTINUOUS
10
3.85861
20
2.73853
11
3.86147
21
2.74139
0
LINE
8
BLACK
6
CONTINUOUS
10
3.86147
20
2.74139
11
3.86231
21
2.74187
0
LINE
8
BLACK
6
CONTINUOUS
10
3.86231
20
2.74187
11
3.86303
21
2.74251
0
LINE
8
BLACK
6
CONTINUOUS
10
3.86303
20
2.74251
11
3.86875
21
2.74537
0
LINE
8
BLACK
6
CONTINUOUS
10
3.86875
20
2.74537
11
3.8701
21
2.74564
0
LINE
8
BLACK
6
CONTINUOUS
10
3.8701
20
2.74564
11
3.87143
21
2.746
0
LINE
8
BLACK
6
CONTINUOUS
10
3.87143
20
2.746
11
3.88571
21
2.746
0
LINE
8
BLACK
6
CONTINUOUS
10
3.88571
20
2.746
11
3.88705
21
2.74564
0
LINE
8
BLACK
6
CONTINUOUS
10
3.87284
20
2.734
11
3.86927
21
2.73221
0
LINE
8
BLACK
6
CONTINUOUS
10
3.86927
20
2.73221
11
3.86779
21
2.73073
0
LINE
8
BLACK
6
CONTINUOUS
10
3.86779
20
2.73073
11
3.866
21
2.72716
0
LINE
8
BLACK
6
CONTINUOUS
10
3.866
20
2.72716
11
3.866
21
2.71856
0
LINE
8
BLACK
6
CONTINUOUS
10
3.866
20
2.71856
11
3.86779
21
2.71498
0
LINE
8
BLACK
6
CONTINUOUS
10
3.86779
20
2.71498
11
3.86927
21
2.7135
0
LINE
8
BLACK
6
CONTINUOUS
10
3.86927
20
2.7135
11
3.87284
21
2.71171
0
LINE
8
BLACK
6
CONTINUOUS
10
3.87284
20
2.71171
11
3.8843
21
2.71171
0
LINE
8
BLACK
6
CONTINUOUS
10
3.8843
20
2.71171
11
3.88787
21
2.7135
0
LINE
8
BLACK
6
CONTINUOUS
10
3.88787
20
2.7135
11
3.88935
21
2.71498
0
LINE
8
BLACK
6
CONTINUOUS
10
3.88935
20
2.71498
11
3.89114
21
2.71856
0
LINE
8
BLACK
6
CONTINUOUS
10
3.89114
20
2.71856
11
3.89114
21
2.72716
0
LINE
8
BLACK
6
CONTINUOUS
10
3.89114
20
2.72716
11
3.88935
21
2.73073
0
LINE
8
BLACK
6
CONTINUOUS
10
3.88935
20
2.73073
11
3.88787
21
2.73221
0
LINE
8
BLACK
6
CONTINUOUS
10
3.88787
20
2.73221
11
3.8843
21
2.734
0
LINE
8
BLACK
6
CONTINUOUS
10
3.8843
20
2.734
11
3.87284
21
2.734
0
LINE
8
BLACK
6
CONTINUOUS
10
4.47586
20
2.76196
11
4.4761
21
2.762
0
LINE
8
BLACK
6
CONTINUOUS
10
4.4761
20
2.762
11
4.47632
21
2.76188
0
LINE
8
BLACK
6
CONTINUOUS
10
4.47632
20
2.76188
11
4.4766
21
2.76183
0
LINE
8
BLACK
6
CONTINUOUS
10
4.4766
20
2.76183
11
4.47704
21
2.76146
0
LINE
8
BLACK
6
CONTINUOUS
10
4.47704
20
2.76146
11
4.47785
21
2.76099
0
LINE
8
BLACK
6
CONTINUOUS
10
4.47785
20
2.76099
11
4.47796
21
2.76069
0
LINE
8
BLACK
6
CONTINUOUS
10
4.47796
20
2.76069
11
4.47815
21
2.76053
0
LINE
8
BLACK
6
CONTINUOUS
10
4.47815
20
2.76053
11
4.47827
21
2.75985
0
LINE
8
BLACK
6
CONTINUOUS
10
4.47827
20
2.75985
11
4.47854
21
2.75909
0
LINE
8
BLACK
6
CONTINUOUS
10
4.47854
20
2.75909
11
4.47854
21
2.64091
0
LINE
8
BLACK
6
CONTINUOUS
10
4.47854
20
2.64091
11
4.47848
21
2.64054
0
LINE
8
BLACK
6
CONTINUOUS
10
4.47848
20
2.64054
11
4.4785
21
2.64043
0
LINE
8
BLACK
6
CONTINUOUS
10
4.4785
20
2.64043
11
4.47844
21
2.64034
0
LINE
8
BLACK
6
CONTINUOUS
10
4.47844
20
2.64034
11
4.47837
21
2.6399
0
LINE
8
BLACK
6
CONTINUOUS
10
4.47837
20
2.6399
11
4.4778
21
2.63922
0
LINE
8
BLACK
6
CONTINUOUS
10
4.4778
20
2.63922
11
4.47749
21
2.63868
0
LINE
8
BLACK
6
CONTINUOUS
10
4.47749
20
2.63868
11
4.47729
21
2.63861
0
LINE
8
BLACK
6
CONTINUOUS
10
4.47729
20
2.63861
11
4.47707
21
2.63835
0
LINE
8
BLACK
6
CONTINUOUS
10
4.47707
20
2.63835
11
4.4761
21
2.63818
0
LINE
8
BLACK
6
CONTINUOUS
10
4.4761
20
2.63818
11
4.47559
21
2.63799
0
LINE
8
BLACK
6
CONTINUOUS
10
4.47559
20
2.63799
11
4.37717
21
2.63799
0
LINE
8
BLACK
6
CONTINUOUS
10
4.37717
20
2.63799
11
4.3769
21
2.63804
0
LINE
8
BLACK
6
CONTINUOUS
10
4.3769
20
2.63804
11
4.37666
21
2.638
0
LINE
8
BLACK
6
CONTINUOUS
10
4.37666
20
2.638
11
4.37644
21
2.63812
0
LINE
8
BLACK
6
CONTINUOUS
10
4.37644
20
2.63812
11
4.37616
21
2.63817
0
LINE
8
BLACK
6
CONTINUOUS
10
4.37616
20
2.63817
11
4.37572
21
2.63854
0
LINE
8
BLACK
6
CONTINUOUS
10
4.37572
20
2.63854
11
4.37491
21
2.63901
0
LINE
8
BLACK
6
CONTINUOUS
10
4.37491
20
2.63901
11
4.3748
21
2.63931
0
LINE
8
BLACK
6
CONTINUOUS
10
4.3748
20
2.63931
11
4.37461
21
2.63947
0
LINE
8
BLACK
6
CONTINUOUS
10
4.37461
20
2.63947
11
4.37449
21
2.64015
0
LINE
8
BLACK
6
CONTINUOUS
10
4.37449
20
2.64015
11
4.37422
21
2.64091
0
LINE
8
BLACK
6
CONTINUOUS
10
4.37422
20
2.64091
11
4.37422
21
2.75909
0
LINE
8
BLACK
6
CONTINUOUS
10
4.37422
20
2.75909
11
4.37428
21
2.75946
0
LINE
8
BLACK
6
CONTINUOUS
10
4.37428
20
2.75946
11
4.37426
21
2.75957
0
LINE
8
BLACK
6
CONTINUOUS
10
4.37426
20
2.75957
11
4.37432
21
2.75966
0
LINE
8
BLACK
6
CONTINUOUS
10
4.37432
20
2.75966
11
4.37439
21
2.7601
0
LINE
8
BLACK
6
CONTINUOUS
10
4.37439
20
2.7601
11
4.37496
21
2.76078
0
LINE
8
BLACK
6
CONTINUOUS
10
4.37496
20
2.76078
11
4.37527
21
2.76132
0
LINE
8
BLACK
6
CONTINUOUS
10
4.37527
20
2.76132
11
4.37547
21
2.76139
0
LINE
8
BLACK
6
CONTINUOUS
10
4.37547
20
2.76139
11
4.37569
21
2.76165
0
LINE
8
BLACK
6
CONTINUOUS
10
4.37569
20
2.76165
11
4.37666
21
2.76182
0
LINE
8
BLACK
6
CONTINUOUS
10
4.37666
20
2.76182
11
4.37717
21
2.76201
0
LINE
8
BLACK
6
CONTINUOUS
10
4.37717
20
2.76201
11
4.47559
21
2.76201
0
LINE
8
BLACK
6
CONTINUOUS
10
4.47559
20
2.76201
11
4.47586
21
2.76196
0
LINE
8
BLACK
6
CONTINUOUS
10
4.38012
20
2.7561
11
4.38012
21
2.6439
0
LINE
8
BLACK
6
CONTINUOUS
10
4.38012
20
2.6439
11
4.47264
21
2.6439
0
LINE
8
BLACK
6
CONTINUOUS
10
4.47264
20
2.6439
11
4.47264
21
2.7561
0
LINE
8
BLACK
6
CONTINUOUS
10
4.47264
20
2.7561
11
4.38012
21
2.7561
  0
ENDSEC
  0
EOF
