  0
SECTION
  2
HEADER
  9
$ANGBASE
  50
0.0
  9
$ANGDIR
  70
1
  9
$MEASUREMENT
  70
0
  0
ENDSEC
  0
SECTION
  2
TABLES
  0
TABLE
  2
LTYPE
  70
4
  0
LTYPE
  5
40F
  2
CONTINUOUS
  70
0
  3
Solid line
  72
65
  73
0
  40
0.0
  0
LTYPE
  5
410
  2
DASHDOT
 70
0
  3
Dash Dot ____ _ ____ _
 72
65
 73
4
 40
2.0
 49
1.25
 49
-0.25
 49
0.25
 49
-0.25
  0
LTYPE
  5
411
  2
DASHED
 70
0
  3
Dashed __ __ __ __ __
 72
65
 73
2
 40
0.75
 49
0.5
 49
-0.25
  0
LTYPE
  5
43B
  2
DOTTED
 70
0
  3
Dotted .  .  .  .
 72
65
 73
2
 40
0.2
 49
0.0
 49
-0.2
  0
ENDTAB
  0
TABLE
  2
STYLE
  70
4
  0
STYLE
  2
KICAD
  70
0
  40
0
  41
1
  42
1
  50
0
  71
0
  3
isocp.shx
  0
STYLE
  2
KICADB
  70
0
  40
0
  41
1
  42
1
  50
0
  71
0
  3
isocp.shx
  0
STYLE
  2
KICADI
  70
0
  40
0
  41
1
  42
1
  50
15
  71
0
  3
isocp.shx
  0
STYLE
  2
KICADBI
  70
0
  40
0
  41
1
  42
1
  50
15
  71
0
  3
isocp.shx
  0
ENDTAB
  0
TABLE
  2
LAYER
  70
1
  0
LAYER
  2
BLACK
  70
0
  62
7
  6
CONTINUOUS
  0
ENDTAB
  0
ENDSEC
  0
SECTION
  2
ENTITIES
0
LINE
8
BLACK
6
CONTINUOUS
10
1.40465
20
0.729449
11
1.40604
21
0.728872
0
LINE
8
BLACK
6
CONTINUOUS
10
1.40604
20
0.728872
11
1.40661
21
0.72748
0
LINE
8
BLACK
6
CONTINUOUS
10
1.40661
20
0.72748
11
1.40661
21
0.41252
0
LINE
8
BLACK
6
CONTINUOUS
10
1.40661
20
0.41252
11
1.40604
21
0.411128
0
LINE
8
BLACK
6
CONTINUOUS
10
1.40604
20
0.411128
11
1.40465
21
0.410551
0
LINE
8
BLACK
6
CONTINUOUS
10
1.40465
20
0.410551
11
0.735354
21
0.410551
0
LINE
8
BLACK
6
CONTINUOUS
10
0.735354
20
0.410551
11
0.733962
21
0.411128
0
LINE
8
BLACK
6
CONTINUOUS
10
0.733962
20
0.411128
11
0.733386
21
0.41252
0
LINE
8
BLACK
6
CONTINUOUS
10
0.733386
20
0.41252
11
0.733386
21
0.72748
0
LINE
8
BLACK
6
CONTINUOUS
10
0.733386
20
0.72748
11
0.733962
21
0.728872
0
LINE
8
BLACK
6
CONTINUOUS
10
0.733962
20
0.728872
11
0.735354
21
0.729449
0
LINE
8
BLACK
6
CONTINUOUS
10
0.735354
20
0.729449
11
1.40465
21
0.729449
0
LINE
8
BLACK
6
CONTINUOUS
10
0.737323
20
0.725512
11
0.737323
21
0.414488
0
LINE
8
BLACK
6
CONTINUOUS
10
0.737323
20
0.414488
11
1.40268
21
0.414488
0
LINE
8
BLACK
6
CONTINUOUS
10
1.40268
20
0.414488
11
1.40268
21
0.725512
0
LINE
8
BLACK
6
CONTINUOUS
10
1.40268
20
0.725512
11
0.737323
21
0.725512
0
LINE
8
BLACK
6
CONTINUOUS
10
2.12465
20
0.729449
11
2.12604
21
0.728872
0
LINE
8
BLACK
6
CONTINUOUS
10
2.12604
20
0.728872
11
2.12661
21
0.72748
0
LINE
8
BLACK
6
CONTINUOUS
10
2.12661
20
0.72748
11
2.12661
21
0.41252
0
LINE
8
BLACK
6
CONTINUOUS
10
2.12661
20
0.41252
11
2.12604
21
0.411128
0
LINE
8
BLACK
6
CONTINUOUS
10
2.12604
20
0.411128
11
2.12465
21
0.410551
0
LINE
8
BLACK
6
CONTINUOUS
10
2.12465
20
0.410551
11
1.45535
21
0.410551
0
LINE
8
BLACK
6
CONTINUOUS
10
1.45535
20
0.410551
11
1.45396
21
0.411128
0
LINE
8
BLACK
6
CONTINUOUS
10
1.45396
20
0.411128
11
1.45339
21
0.41252
0
LINE
8
BLACK
6
CONTINUOUS
10
1.45339
20
0.41252
11
1.45339
21
0.72748
0
LINE
8
BLACK
6
CONTINUOUS
10
1.45339
20
0.72748
11
1.45396
21
0.728872
0
LINE
8
BLACK
6
CONTINUOUS
10
1.45396
20
0.728872
11
1.45535
21
0.729449
0
LINE
8
BLACK
6
CONTINUOUS
10
1.45535
20
0.729449
11
2.12465
21
0.729449
0
LINE
8
BLACK
6
CONTINUOUS
10
1.45732
20
0.725512
11
1.45732
21
0.414488
0
LINE
8
BLACK
6
CONTINUOUS
10
1.45732
20
0.414488
11
2.12268
21
0.414488
0
LINE
8
BLACK
6
CONTINUOUS
10
2.12268
20
0.414488
11
2.12268
21
0.725512
0
LINE
8
BLACK
6
CONTINUOUS
10
2.12268
20
0.725512
11
1.45732
21
0.725512
0
LINE
8
BLACK
6
CONTINUOUS
10
1.70276
20
1.22407
11
1.70345
21
1.22378
0
LINE
8
BLACK
6
CONTINUOUS
10
1.70345
20
1.22378
11
1.70374
21
1.22309
0
LINE
8
BLACK
6
CONTINUOUS
10
1.70374
20
1.22309
11
1.70374
21
0.849072
0
LINE
8
BLACK
6
CONTINUOUS
10
1.70374
20
0.849072
11
1.70345
21
0.848376
0
LINE
8
BLACK
6
CONTINUOUS
10
1.70345
20
0.848376
11
1.70276
21
0.848088
0
LINE
8
BLACK
6
CONTINUOUS
10
1.70276
20
0.848088
11
1.17126
21
0.848088
0
LINE
8
BLACK
6
CONTINUOUS
10
1.17126
20
0.848088
11
1.17056
21
0.848376
0
LINE
8
BLACK
6
CONTINUOUS
10
1.17056
20
0.848376
11
1.17028
21
0.849072
0
LINE
8
BLACK
6
CONTINUOUS
10
1.17028
20
0.849072
11
1.17028
21
1.22309
0
LINE
8
BLACK
6
CONTINUOUS
10
1.17028
20
1.22309
11
1.17056
21
1.22378
0
LINE
8
BLACK
6
CONTINUOUS
10
1.17056
20
1.22378
11
1.17126
21
1.22407
0
LINE
8
BLACK
6
CONTINUOUS
10
1.17126
20
1.22407
11
1.70276
21
1.22407
0
LINE
8
BLACK
6
CONTINUOUS
10
1.17224
20
1.2221
11
1.17224
21
0.850056
0
LINE
8
BLACK
6
CONTINUOUS
10
1.17224
20
0.850056
11
1.70177
21
0.850056
0
LINE
8
BLACK
6
CONTINUOUS
10
1.70177
20
0.850056
11
1.70177
21
1.2221
0
LINE
8
BLACK
6
CONTINUOUS
10
1.70177
20
1.2221
11
1.17224
21
1.2221
0
LINE
8
BLACK
6
CONTINUOUS
10
1.70276
20
1.64194
11
1.70345
21
1.64166
0
LINE
8
BLACK
6
CONTINUOUS
10
1.70345
20
1.64166
11
1.70374
21
1.64096
0
LINE
8
BLACK
6
CONTINUOUS
10
1.70374
20
1.64096
11
1.70374
21
1.26694
0
LINE
8
BLACK
6
CONTINUOUS
10
1.70374
20
1.26694
11
1.70345
21
1.26625
0
LINE
8
BLACK
6
CONTINUOUS
10
1.70345
20
1.26625
11
1.70276
21
1.26596
0
LINE
8
BLACK
6
CONTINUOUS
10
1.70276
20
1.26596
11
1.17126
21
1.26596
0
LINE
8
BLACK
6
CONTINUOUS
10
1.17126
20
1.26596
11
1.17056
21
1.26625
0
LINE
8
BLACK
6
CONTINUOUS
10
1.17056
20
1.26625
11
1.17028
21
1.26694
0
LINE
8
BLACK
6
CONTINUOUS
10
1.17028
20
1.26694
11
1.17028
21
1.64096
0
LINE
8
BLACK
6
CONTINUOUS
10
1.17028
20
1.64096
11
1.17056
21
1.64166
0
LINE
8
BLACK
6
CONTINUOUS
10
1.17056
20
1.64166
11
1.17126
21
1.64194
0
LINE
8
BLACK
6
CONTINUOUS
10
1.17126
20
1.64194
11
1.70276
21
1.64194
0
LINE
8
BLACK
6
CONTINUOUS
10
1.17224
20
1.63997
11
1.17224
21
1.26793
0
LINE
8
BLACK
6
CONTINUOUS
10
1.17224
20
1.26793
11
1.70177
21
1.26793
0
LINE
8
BLACK
6
CONTINUOUS
10
1.70177
20
1.26793
11
1.70177
21
1.63997
0
LINE
8
BLACK
6
CONTINUOUS
10
1.70177
20
1.63997
11
1.17224
21
1.63997
0
LINE
8
BLACK
6
CONTINUOUS
10
1.70276
20
2.05981
11
1.70345
21
2.05953
0
LINE
8
BLACK
6
CONTINUOUS
10
1.70345
20
2.05953
11
1.70374
21
2.05883
0
LINE
8
BLACK
6
CONTINUOUS
10
1.70374
20
2.05883
11
1.70374
21
1.68481
0
LINE
8
BLACK
6
CONTINUOUS
10
1.70374
20
1.68481
11
1.70345
21
1.68412
0
LINE
8
BLACK
6
CONTINUOUS
10
1.70345
20
1.68412
11
1.70276
21
1.68383
0
LINE
8
BLACK
6
CONTINUOUS
10
1.70276
20
1.68383
11
1.17126
21
1.68383
0
LINE
8
BLACK
6
CONTINUOUS
10
1.17126
20
1.68383
11
1.17056
21
1.68412
0
LINE
8
BLACK
6
CONTINUOUS
10
1.17056
20
1.68412
11
1.17028
21
1.68481
0
LINE
8
BLACK
6
CONTINUOUS
10
1.17028
20
1.68481
11
1.17028
21
2.05883
0
LINE
8
BLACK
6
CONTINUOUS
10
1.17028
20
2.05883
11
1.17056
21
2.05953
0
LINE
8
BLACK
6
CONTINUOUS
10
1.17056
20
2.05953
11
1.17126
21
2.05981
0
LINE
8
BLACK
6
CONTINUOUS
10
1.17126
20
2.05981
11
1.70276
21
2.05981
0
LINE
8
BLACK
6
CONTINUOUS
10
1.17224
20
2.05785
11
1.17224
21
1.6858
0
LINE
8
BLACK
6
CONTINUOUS
10
1.17224
20
1.6858
11
1.70177
21
1.6858
0
LINE
8
BLACK
6
CONTINUOUS
10
1.70177
20
1.6858
11
1.70177
21
2.05785
0
LINE
8
BLACK
6
CONTINUOUS
10
1.70177
20
2.05785
11
1.17224
21
2.05785
0
LINE
8
BLACK
6
CONTINUOUS
10
1.70276
20
2.47769
11
1.70345
21
2.4774
0
LINE
8
BLACK
6
CONTINUOUS
10
1.70345
20
2.4774
11
1.70374
21
2.4767
0
LINE
8
BLACK
6
CONTINUOUS
10
1.70374
20
2.4767
11
1.70374
21
2.10269
0
LINE
8
BLACK
6
CONTINUOUS
10
1.70374
20
2.10269
11
1.70345
21
2.10199
0
LINE
8
BLACK
6
CONTINUOUS
10
1.70345
20
2.10199
11
1.70276
21
2.1017
0
LINE
8
BLACK
6
CONTINUOUS
10
1.70276
20
2.1017
11
1.17126
21
2.1017
0
LINE
8
BLACK
6
CONTINUOUS
10
1.17126
20
2.1017
11
1.17056
21
2.10199
0
LINE
8
BLACK
6
CONTINUOUS
10
1.17056
20
2.10199
11
1.17028
21
2.10269
0
LINE
8
BLACK
6
CONTINUOUS
10
1.17028
20
2.10269
11
1.17028
21
2.4767
0
LINE
8
BLACK
6
CONTINUOUS
10
1.17028
20
2.4767
11
1.17056
21
2.4774
0
LINE
8
BLACK
6
CONTINUOUS
10
1.17056
20
2.4774
11
1.17126
21
2.47769
0
LINE
8
BLACK
6
CONTINUOUS
10
1.17126
20
2.47769
11
1.70276
21
2.47769
0
LINE
8
BLACK
6
CONTINUOUS
10
1.17224
20
2.47572
11
1.17224
21
2.10367
0
LINE
8
BLACK
6
CONTINUOUS
10
1.17224
20
2.10367
11
1.70177
21
2.10367
0
LINE
8
BLACK
6
CONTINUOUS
10
1.70177
20
2.10367
11
1.70177
21
2.47572
0
LINE
8
BLACK
6
CONTINUOUS
10
1.70177
20
2.47572
11
1.17224
21
2.47572
0
LINE
8
BLACK
6
CONTINUOUS
10
1.70276
20
2.89556
11
1.70345
21
2.89527
0
LINE
8
BLACK
6
CONTINUOUS
10
1.70345
20
2.89527
11
1.70374
21
2.89457
0
LINE
8
BLACK
6
CONTINUOUS
10
1.70374
20
2.89457
11
1.70374
21
2.52056
0
LINE
8
BLACK
6
CONTINUOUS
10
1.70374
20
2.52056
11
1.70345
21
2.51986
0
LINE
8
BLACK
6
CONTINUOUS
10
1.70345
20
2.51986
11
1.70276
21
2.51957
0
LINE
8
BLACK
6
CONTINUOUS
10
1.70276
20
2.51957
11
1.17126
21
2.51957
0
LINE
8
BLACK
6
CONTINUOUS
10
1.17126
20
2.51957
11
1.17056
21
2.51986
0
LINE
8
BLACK
6
CONTINUOUS
10
1.17056
20
2.51986
11
1.17028
21
2.52056
0
LINE
8
BLACK
6
CONTINUOUS
10
1.17028
20
2.52056
11
1.17028
21
2.89457
0
LINE
8
BLACK
6
CONTINUOUS
10
1.17028
20
2.89457
11
1.17056
21
2.89527
0
LINE
8
BLACK
6
CONTINUOUS
10
1.17056
20
2.89527
11
1.17126
21
2.89556
0
LINE
8
BLACK
6
CONTINUOUS
10
1.17126
20
2.89556
11
1.70276
21
2.89556
0
LINE
8
BLACK
6
CONTINUOUS
10
1.17224
20
2.89359
11
1.17224
21
2.52154
0
LINE
8
BLACK
6
CONTINUOUS
10
1.17224
20
2.52154
11
1.70177
21
2.52154
0
LINE
8
BLACK
6
CONTINUOUS
10
1.70177
20
2.52154
11
1.70177
21
2.89359
0
LINE
8
BLACK
6
CONTINUOUS
10
1.70177
20
2.89359
11
1.17224
21
2.89359
0
LINE
8
BLACK
6
CONTINUOUS
10
1.70276
20
3.31343
11
1.70345
21
3.31314
0
LINE
8
BLACK
6
CONTINUOUS
10
1.70345
20
3.31314
11
1.70374
21
3.31244
0
LINE
8
BLACK
6
CONTINUOUS
10
1.70374
20
3.31244
11
1.70374
21
2.93843
0
LINE
8
BLACK
6
CONTINUOUS
10
1.70374
20
2.93843
11
1.70345
21
2.93773
0
LINE
8
BLACK
6
CONTINUOUS
10
1.70345
20
2.93773
11
1.70276
21
2.93744
0
LINE
8
BLACK
6
CONTINUOUS
10
1.70276
20
2.93744
11
1.17126
21
2.93744
0
LINE
8
BLACK
6
CONTINUOUS
10
1.17126
20
2.93744
11
1.17056
21
2.93773
0
LINE
8
BLACK
6
CONTINUOUS
10
1.17056
20
2.93773
11
1.17028
21
2.93843
0
LINE
8
BLACK
6
CONTINUOUS
10
1.17028
20
2.93843
11
1.17028
21
3.31244
0
LINE
8
BLACK
6
CONTINUOUS
10
1.17028
20
3.31244
11
1.17056
21
3.31314
0
LINE
8
BLACK
6
CONTINUOUS
10
1.17056
20
3.31314
11
1.17126
21
3.31343
0
LINE
8
BLACK
6
CONTINUOUS
10
1.17126
20
3.31343
11
1.70276
21
3.31343
0
LINE
8
BLACK
6
CONTINUOUS
10
1.17224
20
3.31146
11
1.17224
21
2.93941
0
LINE
8
BLACK
6
CONTINUOUS
10
1.17224
20
2.93941
11
1.70177
21
2.93941
0
LINE
8
BLACK
6
CONTINUOUS
10
1.70177
20
2.93941
11
1.70177
21
3.31146
0
LINE
8
BLACK
6
CONTINUOUS
10
1.70177
20
3.31146
11
1.17224
21
3.31146
0
LINE
8
BLACK
6
CONTINUOUS
10
1.70276
20
3.7313
11
1.70345
21
3.73101
0
LINE
8
BLACK
6
CONTINUOUS
10
1.70345
20
3.73101
11
1.70374
21
3.73031
0
LINE
8
BLACK
6
CONTINUOUS
10
1.70374
20
3.73031
11
1.70374
21
3.3563
0
LINE
8
BLACK
6
CONTINUOUS
10
1.70374
20
3.3563
11
1.70345
21
3.3556
0
LINE
8
BLACK
6
CONTINUOUS
10
1.70345
20
3.3556
11
1.70276
21
3.35531
0
LINE
8
BLACK
6
CONTINUOUS
10
1.70276
20
3.35531
11
1.17126
21
3.35531
0
LINE
8
BLACK
6
CONTINUOUS
10
1.17126
20
3.35531
11
1.17056
21
3.3556
0
LINE
8
BLACK
6
CONTINUOUS
10
1.17056
20
3.3556
11
1.17028
21
3.3563
0
LINE
8
BLACK
6
CONTINUOUS
10
1.17028
20
3.3563
11
1.17028
21
3.3563
0
LINE
8
BLACK
6
CONTINUOUS
10
1.17028
20
3.3563
11
1.17028
21
3.73031
0
LINE
8
BLACK
6
CONTINUOUS
10
1.17028
20
3.73031
11
1.17056
21
3.73101
0
LINE
8
BLACK
6
CONTINUOUS
10
1.17056
20
3.73101
11
1.17126
21
3.7313
0
LINE
8
BLACK
6
CONTINUOUS
10
1.17126
20
3.7313
11
1.70276
21
3.7313
0
LINE
8
BLACK
6
CONTINUOUS
10
1.17224
20
3.72933
11
1.17224
21
3.35728
0
LINE
8
BLACK
6
CONTINUOUS
10
1.17224
20
3.35728
11
1.70177
21
3.35728
0
LINE
8
BLACK
6
CONTINUOUS
10
1.70177
20
3.35728
11
1.70177
21
3.72933
0
LINE
8
BLACK
6
CONTINUOUS
10
1.70177
20
3.72933
11
1.17224
21
3.72933
  0
ENDSEC
  0
EOF
