  0
SECTION
  2
HEADER
  9
$ANGBASE
  50
0.0
  9
$ANGDIR
  70
1
  9
$MEASUREMENT
  70
0
  0
ENDSEC
  0
SECTION
  2
TABLES
  0
TABLE
  2
LTYPE
  70
4
  0
LTYPE
  5
40F
  2
CONTINUOUS
  70
0
  3
Solid line
  72
65
  73
0
  40
0.0
  0
LTYPE
  5
410
  2
DASHDOT
 70
0
  3
Dash Dot ____ _ ____ _
 72
65
 73
4
 40
2.0
 49
1.25
 49
-0.25
 49
0.25
 49
-0.25
  0
LTYPE
  5
411
  2
DASHED
 70
0
  3
Dashed __ __ __ __ __
 72
65
 73
2
 40
0.75
 49
0.5
 49
-0.25
  0
LTYPE
  5
43B
  2
DOTTED
 70
0
  3
Dotted .  .  .  .
 72
65
 73
2
 40
0.2
 49
0.0
 49
-0.2
  0
ENDTAB
  0
TABLE
  2
STYLE
  70
4
  0
STYLE
  2
KICAD
  70
0
  40
0
  41
1
  42
1
  50
0
  71
0
  3
isocp.shx
  0
STYLE
  2
KICADB
  70
0
  40
0
  41
1
  42
1
  50
0
  71
0
  3
isocp.shx
  0
STYLE
  2
KICADI
  70
0
  40
0
  41
1
  42
1
  50
15
  71
0
  3
isocp.shx
  0
STYLE
  2
KICADBI
  70
0
  40
0
  41
1
  42
1
  50
15
  71
0
  3
isocp.shx
  0
ENDTAB
  0
TABLE
  2
LAYER
  70
1
  0
LAYER
  2
BLACK
  70
0
  62
7
  6
CONTINUOUS
  0
ENDTAB
  0
ENDSEC
  0
SECTION
  2
ENTITIES
0
LINE
8
BLACK
6
CONTINUOUS
10
1.84209
20
-1.35579
11
1.76728
21
-1.35579
0
LINE
8
BLACK
6
CONTINUOUS
10
1.76728
20
-1.35579
11
1.76728
21
-1.22193
0
LINE
8
BLACK
6
CONTINUOUS
10
1.76728
20
-1.22193
11
1.84209
21
-1.22193
0
LINE
8
BLACK
6
CONTINUOUS
10
1.84209
20
-1.22193
11
1.84209
21
-1.35579
0
LINE
8
BLACK
6
CONTINUOUS
10
1.99563
20
-1.35579
11
1.92083
21
-1.35579
0
LINE
8
BLACK
6
CONTINUOUS
10
1.92083
20
-1.35579
11
1.92083
21
-1.22193
0
LINE
8
BLACK
6
CONTINUOUS
10
1.92083
20
-1.22193
11
1.99563
21
-1.22193
0
LINE
8
BLACK
6
CONTINUOUS
10
1.99563
20
-1.22193
11
1.99563
21
-1.35579
0
LINE
8
BLACK
6
CONTINUOUS
10
1.48063
20
-1.35079
11
1.40583
21
-1.35079
0
LINE
8
BLACK
6
CONTINUOUS
10
1.40583
20
-1.35079
11
1.40583
21
-1.21693
0
LINE
8
BLACK
6
CONTINUOUS
10
1.40583
20
-1.21693
11
1.48063
21
-1.21693
0
LINE
8
BLACK
6
CONTINUOUS
10
1.48063
20
-1.21693
11
1.48063
21
-1.35079
0
LINE
8
BLACK
6
CONTINUOUS
10
1.32709
20
-1.35079
11
1.25228
21
-1.35079
0
LINE
8
BLACK
6
CONTINUOUS
10
1.25228
20
-1.35079
11
1.25228
21
-1.21693
0
LINE
8
BLACK
6
CONTINUOUS
10
1.25228
20
-1.21693
11
1.32709
21
-1.21693
0
LINE
8
BLACK
6
CONTINUOUS
10
1.32709
20
-1.21693
11
1.32709
21
-1.35079
0
LINE
8
BLACK
6
CONTINUOUS
10
1.08396
20
-1.33636
11
1.02896
21
-1.33636
0
LINE
8
BLACK
6
CONTINUOUS
10
1.02896
20
-1.33636
11
1.02896
21
-1.30136
0
LINE
8
BLACK
6
CONTINUOUS
10
1.02896
20
-1.30136
11
1.08396
21
-1.30136
0
LINE
8
BLACK
6
CONTINUOUS
10
1.08396
20
-1.30136
11
1.08396
21
-1.33636
0
LINE
8
BLACK
6
CONTINUOUS
10
1.08396
20
-1.26136
11
1.02896
21
-1.26136
0
LINE
8
BLACK
6
CONTINUOUS
10
1.02896
20
-1.26136
11
1.02896
21
-1.22636
0
LINE
8
BLACK
6
CONTINUOUS
10
1.02896
20
-1.22636
11
1.08396
21
-1.22636
0
LINE
8
BLACK
6
CONTINUOUS
10
1.08396
20
-1.22636
11
1.08396
21
-1.26136
0
LINE
8
BLACK
6
CONTINUOUS
10
1.03753
20
-1.17053
11
1.03791
21
-1.17077
0
LINE
8
BLACK
6
CONTINUOUS
10
1.03791
20
-1.17077
11
1.0449
21
-1.17279
0
LINE
8
BLACK
6
CONTINUOUS
10
1.0449
20
-1.17279
11
1.05255
21
-1.17388
0
LINE
8
BLACK
6
CONTINUOUS
10
1.05255
20
-1.17388
11
1.06029
21
-1.17389
0
LINE
8
BLACK
6
CONTINUOUS
10
1.06029
20
-1.17389
11
1.06795
21
-1.17281
0
LINE
8
BLACK
6
CONTINUOUS
10
1.06795
20
-1.17281
11
1.07495
21
-1.17079
0
LINE
8
BLACK
6
CONTINUOUS
10
1.07495
20
-1.17079
11
1.07535
21
-1.17054
0
LINE
8
BLACK
6
CONTINUOUS
10
1.07535
20
-1.17054
11
1.07882
21
-1.17011
0
LINE
8
BLACK
6
CONTINUOUS
10
1.07882
20
-1.17011
11
1.08214
21
-1.17122
0
LINE
8
BLACK
6
CONTINUOUS
10
1.08214
20
-1.17122
11
1.08465
21
-1.17367
0
LINE
8
BLACK
6
CONTINUOUS
10
1.08465
20
-1.17367
11
1.08585
21
-1.17696
0
LINE
8
BLACK
6
CONTINUOUS
10
1.08585
20
-1.17696
11
1.08575
21
-1.17791
0
LINE
8
BLACK
6
CONTINUOUS
10
1.08575
20
-1.17791
11
1.08598
21
-1.17791
0
LINE
8
BLACK
6
CONTINUOUS
10
1.08598
20
-1.17791
11
1.08598
21
-1.21925
0
LINE
8
BLACK
6
CONTINUOUS
10
1.08598
20
-1.21925
11
1.02693
21
-1.21925
0
LINE
8
BLACK
6
CONTINUOUS
10
1.02693
20
-1.21925
11
1.02693
21
-1.17791
0
LINE
8
BLACK
6
CONTINUOUS
10
1.02693
20
-1.17791
11
1.02709
21
-1.17791
0
LINE
8
BLACK
6
CONTINUOUS
10
1.02709
20
-1.17791
11
1.027
21
-1.17689
0
LINE
8
BLACK
6
CONTINUOUS
10
1.027
20
-1.17689
11
1.02821
21
-1.17361
0
LINE
8
BLACK
6
CONTINUOUS
10
1.02821
20
-1.17361
11
1.03073
21
-1.17118
0
LINE
8
BLACK
6
CONTINUOUS
10
1.03073
20
-1.17118
11
1.03405
21
-1.17008
0
LINE
8
BLACK
6
CONTINUOUS
10
1.03405
20
-1.17008
11
1.03753
21
-1.17053
0
LINE
8
BLACK
6
CONTINUOUS
10
1.08598
20
-1.0598
11
1.08582
21
-1.0598
0
LINE
8
BLACK
6
CONTINUOUS
10
1.08582
20
-1.0598
11
1.08592
21
-1.06082
0
LINE
8
BLACK
6
CONTINUOUS
10
1.08592
20
-1.06082
11
1.0847
21
-1.06411
0
LINE
8
BLACK
6
CONTINUOUS
10
1.0847
20
-1.06411
11
1.08218
21
-1.06654
0
LINE
8
BLACK
6
CONTINUOUS
10
1.08218
20
-1.06654
11
1.07886
21
-1.06764
0
LINE
8
BLACK
6
CONTINUOUS
10
1.07886
20
-1.06764
11
1.07539
21
-1.06719
0
LINE
8
BLACK
6
CONTINUOUS
10
1.07539
20
-1.06719
11
1.075
21
-1.06694
0
LINE
8
BLACK
6
CONTINUOUS
10
1.075
20
-1.06694
11
1.06802
21
-1.06492
0
LINE
8
BLACK
6
CONTINUOUS
10
1.06802
20
-1.06492
11
1.06036
21
-1.06384
0
LINE
8
BLACK
6
CONTINUOUS
10
1.06036
20
-1.06384
11
1.05262
21
-1.06383
0
LINE
8
BLACK
6
CONTINUOUS
10
1.05262
20
-1.06383
11
1.04497
21
-1.06491
0
LINE
8
BLACK
6
CONTINUOUS
10
1.04497
20
-1.06491
11
1.03796
21
-1.06692
0
LINE
8
BLACK
6
CONTINUOUS
10
1.03796
20
-1.06692
11
1.03757
21
-1.06718
0
LINE
8
BLACK
6
CONTINUOUS
10
1.03757
20
-1.06718
11
1.03409
21
-1.06761
0
LINE
8
BLACK
6
CONTINUOUS
10
1.03409
20
-1.06761
11
1.03077
21
-1.06649
0
LINE
8
BLACK
6
CONTINUOUS
10
1.03077
20
-1.06649
11
1.02826
21
-1.06405
0
LINE
8
BLACK
6
CONTINUOUS
10
1.02826
20
-1.06405
11
1.02707
21
-1.06076
0
LINE
8
BLACK
6
CONTINUOUS
10
1.02707
20
-1.06076
11
1.02716
21
-1.0598
0
LINE
8
BLACK
6
CONTINUOUS
10
1.02716
20
-1.0598
11
1.02693
21
-1.0598
0
LINE
8
BLACK
6
CONTINUOUS
10
1.02693
20
-1.0598
11
1.02693
21
-1.01846
0
LINE
8
BLACK
6
CONTINUOUS
10
1.02693
20
-1.01846
11
1.08598
21
-1.01846
0
LINE
8
BLACK
6
CONTINUOUS
10
1.08598
20
-1.01846
11
1.08598
21
-1.0598
0
LINE
8
BLACK
6
CONTINUOUS
10
1.85709
20
-0.870787
11
1.78228
21
-0.870787
0
LINE
8
BLACK
6
CONTINUOUS
10
1.78228
20
-0.870787
11
1.78228
21
-0.736929
0
LINE
8
BLACK
6
CONTINUOUS
10
1.78228
20
-0.736929
11
1.85709
21
-0.736929
0
LINE
8
BLACK
6
CONTINUOUS
10
1.85709
20
-0.736929
11
1.85709
21
-0.870787
0
LINE
8
BLACK
6
CONTINUOUS
10
2.01063
20
-0.870787
11
1.93583
21
-0.870787
0
LINE
8
BLACK
6
CONTINUOUS
10
1.93583
20
-0.870787
11
1.93583
21
-0.736929
0
LINE
8
BLACK
6
CONTINUOUS
10
1.93583
20
-0.736929
11
2.01063
21
-0.736929
0
LINE
8
BLACK
6
CONTINUOUS
10
2.01063
20
-0.736929
11
2.01063
21
-0.870787
0
LINE
8
BLACK
6
CONTINUOUS
10
1.7397
20
-0.631457
11
1.66096
21
-0.631457
0
LINE
8
BLACK
6
CONTINUOUS
10
1.66096
20
-0.631457
11
1.66096
21
-0.60626
0
LINE
8
BLACK
6
CONTINUOUS
10
1.66096
20
-0.60626
11
1.7397
21
-0.60626
0
LINE
8
BLACK
6
CONTINUOUS
10
1.7397
20
-0.60626
11
1.7397
21
-0.631457
0
LINE
8
BLACK
6
CONTINUOUS
10
1.49166
20
-0.631457
11
1.41292
21
-0.631457
0
LINE
8
BLACK
6
CONTINUOUS
10
1.41292
20
-0.631457
11
1.41292
21
-0.60626
0
LINE
8
BLACK
6
CONTINUOUS
10
1.41292
20
-0.60626
11
1.49166
21
-0.60626
0
LINE
8
BLACK
6
CONTINUOUS
10
1.49166
20
-0.60626
11
1.49166
21
-0.631457
0
LINE
8
BLACK
6
CONTINUOUS
10
1.37494
20
-0.626358
11
1.31994
21
-0.626358
0
LINE
8
BLACK
6
CONTINUOUS
10
1.31994
20
-0.626358
11
1.31994
21
-0.591358
0
LINE
8
BLACK
6
CONTINUOUS
10
1.31994
20
-0.591358
11
1.37494
21
-0.591358
0
LINE
8
BLACK
6
CONTINUOUS
10
1.37494
20
-0.591358
11
1.37494
21
-0.626358
0
LINE
8
BLACK
6
CONTINUOUS
10
1.85381
20
-0.623858
11
1.79881
21
-0.623858
0
LINE
8
BLACK
6
CONTINUOUS
10
1.79881
20
-0.623858
11
1.79881
21
-0.588858
0
LINE
8
BLACK
6
CONTINUOUS
10
1.79881
20
-0.588858
11
1.85381
21
-0.588858
0
LINE
8
BLACK
6
CONTINUOUS
10
1.85381
20
-0.588858
11
1.85381
21
-0.623858
0
LINE
8
BLACK
6
CONTINUOUS
10
1.37494
20
-0.551358
11
1.31994
21
-0.551358
0
LINE
8
BLACK
6
CONTINUOUS
10
1.31994
20
-0.551358
11
1.31994
21
-0.516358
0
LINE
8
BLACK
6
CONTINUOUS
10
1.31994
20
-0.516358
11
1.37494
21
-0.516358
0
LINE
8
BLACK
6
CONTINUOUS
10
1.37494
20
-0.516358
11
1.37494
21
-0.551358
0
LINE
8
BLACK
6
CONTINUOUS
10
1.85381
20
-0.548858
11
1.79881
21
-0.548858
0
LINE
8
BLACK
6
CONTINUOUS
10
1.79881
20
-0.548858
11
1.79881
21
-0.513858
0
LINE
8
BLACK
6
CONTINUOUS
10
1.79881
20
-0.513858
11
1.85381
21
-0.513858
0
LINE
8
BLACK
6
CONTINUOUS
10
1.85381
20
-0.513858
11
1.85381
21
-0.548858
0
LINE
8
BLACK
6
CONTINUOUS
10
1.7397
20
-0.531457
11
1.66096
21
-0.531457
0
LINE
8
BLACK
6
CONTINUOUS
10
1.66096
20
-0.531457
11
1.66096
21
-0.50626
0
LINE
8
BLACK
6
CONTINUOUS
10
1.66096
20
-0.50626
11
1.7397
21
-0.50626
0
LINE
8
BLACK
6
CONTINUOUS
10
1.7397
20
-0.50626
11
1.7397
21
-0.531457
0
LINE
8
BLACK
6
CONTINUOUS
10
1.49166
20
-0.531457
11
1.41292
21
-0.531457
0
LINE
8
BLACK
6
CONTINUOUS
10
1.41292
20
-0.531457
11
1.41292
21
-0.50626
0
LINE
8
BLACK
6
CONTINUOUS
10
1.41292
20
-0.50626
11
1.49166
21
-0.50626
0
LINE
8
BLACK
6
CONTINUOUS
10
1.49166
20
-0.50626
11
1.49166
21
-0.531457
0
LINE
8
BLACK
6
CONTINUOUS
10
1.49681
20
-0.208957
11
1.41807
21
-0.208957
0
LINE
8
BLACK
6
CONTINUOUS
10
1.41807
20
-0.208957
11
1.41807
21
-0.18376
0
LINE
8
BLACK
6
CONTINUOUS
10
1.41807
20
-0.18376
11
1.49681
21
-0.18376
0
LINE
8
BLACK
6
CONTINUOUS
10
1.49681
20
-0.18376
11
1.49681
21
-0.208957
0
LINE
8
BLACK
6
CONTINUOUS
10
1.74484
20
-0.208957
11
1.6661
21
-0.208957
0
LINE
8
BLACK
6
CONTINUOUS
10
1.6661
20
-0.208957
11
1.6661
21
-0.18376
0
LINE
8
BLACK
6
CONTINUOUS
10
1.6661
20
-0.18376
11
1.74484
21
-0.18376
0
LINE
8
BLACK
6
CONTINUOUS
10
1.74484
20
-0.18376
11
1.74484
21
-0.208957
0
LINE
8
BLACK
6
CONTINUOUS
10
1.38009
20
-0.208858
11
1.32509
21
-0.208858
0
LINE
8
BLACK
6
CONTINUOUS
10
1.32509
20
-0.208858
11
1.32509
21
-0.173858
0
LINE
8
BLACK
6
CONTINUOUS
10
1.32509
20
-0.173858
11
1.38009
21
-0.173858
0
LINE
8
BLACK
6
CONTINUOUS
10
1.38009
20
-0.173858
11
1.38009
21
-0.208858
0
LINE
8
BLACK
6
CONTINUOUS
10
1.85896
20
-0.201358
11
1.80396
21
-0.201358
0
LINE
8
BLACK
6
CONTINUOUS
10
1.80396
20
-0.201358
11
1.80396
21
-0.166358
0
LINE
8
BLACK
6
CONTINUOUS
10
1.80396
20
-0.166358
11
1.85896
21
-0.166358
0
LINE
8
BLACK
6
CONTINUOUS
10
1.85896
20
-0.166358
11
1.85896
21
-0.201358
0
LINE
8
BLACK
6
CONTINUOUS
10
1.38009
20
-0.133858
11
1.32509
21
-0.133858
0
LINE
8
BLACK
6
CONTINUOUS
10
1.32509
20
-0.133858
11
1.32509
21
-0.0988583
0
LINE
8
BLACK
6
CONTINUOUS
10
1.32509
20
-0.0988583
11
1.38009
21
-0.0988583
0
LINE
8
BLACK
6
CONTINUOUS
10
1.38009
20
-0.0988583
11
1.38009
21
-0.133858
0
LINE
8
BLACK
6
CONTINUOUS
10
1.85896
20
-0.126358
11
1.80396
21
-0.126358
0
LINE
8
BLACK
6
CONTINUOUS
10
1.80396
20
-0.126358
11
1.80396
21
-0.0913583
0
LINE
8
BLACK
6
CONTINUOUS
10
1.80396
20
-0.0913583
11
1.85896
21
-0.0913583
0
LINE
8
BLACK
6
CONTINUOUS
10
1.85896
20
-0.0913583
11
1.85896
21
-0.126358
0
LINE
8
BLACK
6
CONTINUOUS
10
1.49681
20
-0.108957
11
1.41807
21
-0.108957
0
LINE
8
BLACK
6
CONTINUOUS
10
1.41807
20
-0.108957
11
1.41807
21
-0.0837598
0
LINE
8
BLACK
6
CONTINUOUS
10
1.41807
20
-0.0837598
11
1.49681
21
-0.0837598
0
LINE
8
BLACK
6
CONTINUOUS
10
1.49681
20
-0.0837598
11
1.49681
21
-0.108957
0
LINE
8
BLACK
6
CONTINUOUS
10
1.74484
20
-0.108957
11
1.6661
21
-0.108957
0
LINE
8
BLACK
6
CONTINUOUS
10
1.6661
20
-0.108957
11
1.6661
21
-0.0837598
0
LINE
8
BLACK
6
CONTINUOUS
10
1.6661
20
-0.0837598
11
1.74484
21
-0.0837598
0
LINE
8
BLACK
6
CONTINUOUS
10
1.74484
20
-0.0837598
11
1.74484
21
-0.108957
0
LINE
8
BLACK
6
CONTINUOUS
10
0.79185
20
0.156614
11
0.750512
21
0.156614
0
LINE
8
BLACK
6
CONTINUOUS
10
0.750512
20
0.156614
11
0.750512
21
0.156777
0
LINE
8
BLACK
6
CONTINUOUS
10
0.750512
20
0.156777
11
0.749493
21
0.15668
0
LINE
8
BLACK
6
CONTINUOUS
10
0.749493
20
0.15668
11
0.746208
21
0.157895
0
LINE
8
BLACK
6
CONTINUOUS
10
0.746208
20
0.157895
11
0.743774
21
0.160414
0
LINE
8
BLACK
6
CONTINUOUS
10
0.743774
20
0.160414
11
0.742674
21
0.163738
0
LINE
8
BLACK
6
CONTINUOUS
10
0.742674
20
0.163738
11
0.743124
21
0.167212
0
LINE
8
BLACK
6
CONTINUOUS
10
0.743124
20
0.167212
11
0.743373
21
0.167594
0
LINE
8
BLACK
6
CONTINUOUS
10
0.743373
20
0.167594
11
0.745392
21
0.174583
0
LINE
8
BLACK
6
CONTINUOUS
10
0.745392
20
0.174583
11
0.746479
21
0.18224
0
LINE
8
BLACK
6
CONTINUOUS
10
0.746479
20
0.18224
11
0.746484
21
0.189974
0
LINE
8
BLACK
6
CONTINUOUS
10
0.746484
20
0.189974
11
0.745407
21
0.197632
0
LINE
8
BLACK
6
CONTINUOUS
10
0.745407
20
0.197632
11
0.743392
21
0.204639
0
LINE
8
BLACK
6
CONTINUOUS
10
0.743392
20
0.204639
11
0.743138
21
0.205032
0
LINE
8
BLACK
6
CONTINUOUS
10
0.743138
20
0.205032
11
0.742705
21
0.208507
0
LINE
8
BLACK
6
CONTINUOUS
10
0.742705
20
0.208507
11
0.743821
21
0.211827
0
LINE
8
BLACK
6
CONTINUOUS
10
0.743821
20
0.211827
11
0.746266
21
0.214334
0
LINE
8
BLACK
6
CONTINUOUS
10
0.746266
20
0.214334
11
0.749557
21
0.215533
0
LINE
8
BLACK
6
CONTINUOUS
10
0.749557
20
0.215533
11
0.750512
21
0.215438
0
LINE
8
BLACK
6
CONTINUOUS
10
0.750512
20
0.215438
11
0.750512
21
0.215669
0
LINE
8
BLACK
6
CONTINUOUS
10
0.750512
20
0.215669
11
0.79185
21
0.215669
0
LINE
8
BLACK
6
CONTINUOUS
10
0.79185
20
0.215669
11
0.79185
21
0.156614
0
LINE
8
BLACK
6
CONTINUOUS
10
0.632402
20
0.215506
11
0.633421
21
0.215603
0
LINE
8
BLACK
6
CONTINUOUS
10
0.633421
20
0.215603
11
0.636706
21
0.214389
0
LINE
8
BLACK
6
CONTINUOUS
10
0.636706
20
0.214389
11
0.639139
21
0.21187
0
LINE
8
BLACK
6
CONTINUOUS
10
0.639139
20
0.21187
11
0.64024
21
0.208545
0
LINE
8
BLACK
6
CONTINUOUS
10
0.64024
20
0.208545
11
0.63979
21
0.205072
0
LINE
8
BLACK
6
CONTINUOUS
10
0.63979
20
0.205072
11
0.639541
21
0.20469
0
LINE
8
BLACK
6
CONTINUOUS
10
0.639541
20
0.20469
11
0.637521
21
0.197701
0
LINE
8
BLACK
6
CONTINUOUS
10
0.637521
20
0.197701
11
0.636435
21
0.190044
0
LINE
8
BLACK
6
CONTINUOUS
10
0.636435
20
0.190044
11
0.63643
21
0.18231
0
LINE
8
BLACK
6
CONTINUOUS
10
0.63643
20
0.18231
11
0.637507
21
0.174651
0
LINE
8
BLACK
6
CONTINUOUS
10
0.637507
20
0.174651
11
0.639522
21
0.167645
0
LINE
8
BLACK
6
CONTINUOUS
10
0.639522
20
0.167645
11
0.639775
21
0.167251
0
LINE
8
BLACK
6
CONTINUOUS
10
0.639775
20
0.167251
11
0.640209
21
0.163776
0
LINE
8
BLACK
6
CONTINUOUS
10
0.640209
20
0.163776
11
0.639092
21
0.160456
0
LINE
8
BLACK
6
CONTINUOUS
10
0.639092
20
0.160456
11
0.636647
21
0.157949
0
LINE
8
BLACK
6
CONTINUOUS
10
0.636647
20
0.157949
11
0.633356
21
0.15675
0
LINE
8
BLACK
6
CONTINUOUS
10
0.633356
20
0.15675
11
0.632402
21
0.156846
0
LINE
8
BLACK
6
CONTINUOUS
10
0.632402
20
0.156846
11
0.632402
21
0.156614
0
LINE
8
BLACK
6
CONTINUOUS
10
0.632402
20
0.156614
11
0.591063
21
0.156614
0
LINE
8
BLACK
6
CONTINUOUS
10
0.591063
20
0.156614
11
0.591063
21
0.215669
0
LINE
8
BLACK
6
CONTINUOUS
10
0.591063
20
0.215669
11
0.632402
21
0.215669
0
LINE
8
BLACK
6
CONTINUOUS
10
0.632402
20
0.215669
11
0.632402
21
0.215506
0
LINE
8
BLACK
6
CONTINUOUS
10
1.3578
20
0.186043
11
1.27906
21
0.186043
0
LINE
8
BLACK
6
CONTINUOUS
10
1.27906
20
0.186043
11
1.27906
21
0.21124
0
LINE
8
BLACK
6
CONTINUOUS
10
1.27906
20
0.21124
11
1.3578
21
0.21124
0
LINE
8
BLACK
6
CONTINUOUS
10
1.3578
20
0.21124
11
1.3578
21
0.186043
0
LINE
8
BLACK
6
CONTINUOUS
10
1.60583
20
0.186043
11
1.52709
21
0.186043
0
LINE
8
BLACK
6
CONTINUOUS
10
1.52709
20
0.186043
11
1.52709
21
0.21124
0
LINE
8
BLACK
6
CONTINUOUS
10
1.52709
20
0.21124
11
1.60583
21
0.21124
0
LINE
8
BLACK
6
CONTINUOUS
10
1.60583
20
0.21124
11
1.60583
21
0.186043
0
LINE
8
BLACK
6
CONTINUOUS
10
1.72396
20
0.193642
11
1.66896
21
0.193642
0
LINE
8
BLACK
6
CONTINUOUS
10
1.66896
20
0.193642
11
1.66896
21
0.228642
0
LINE
8
BLACK
6
CONTINUOUS
10
1.66896
20
0.228642
11
1.72396
21
0.228642
0
LINE
8
BLACK
6
CONTINUOUS
10
1.72396
20
0.228642
11
1.72396
21
0.193642
0
LINE
8
BLACK
6
CONTINUOUS
10
1.24009
20
0.213642
11
1.18509
21
0.213642
0
LINE
8
BLACK
6
CONTINUOUS
10
1.18509
20
0.213642
11
1.18509
21
0.248642
0
LINE
8
BLACK
6
CONTINUOUS
10
1.18509
20
0.248642
11
1.24009
21
0.248642
0
LINE
8
BLACK
6
CONTINUOUS
10
1.24009
20
0.248642
11
1.24009
21
0.213642
0
LINE
8
BLACK
6
CONTINUOUS
10
1.72396
20
0.268642
11
1.66896
21
0.268642
0
LINE
8
BLACK
6
CONTINUOUS
10
1.66896
20
0.268642
11
1.66896
21
0.303642
0
LINE
8
BLACK
6
CONTINUOUS
10
1.66896
20
0.303642
11
1.72396
21
0.303642
0
LINE
8
BLACK
6
CONTINUOUS
10
1.72396
20
0.303642
11
1.72396
21
0.268642
0
LINE
8
BLACK
6
CONTINUOUS
10
1.60583
20
0.286043
11
1.52709
21
0.286043
0
LINE
8
BLACK
6
CONTINUOUS
10
1.52709
20
0.286043
11
1.52709
21
0.31124
0
LINE
8
BLACK
6
CONTINUOUS
10
1.52709
20
0.31124
11
1.60583
21
0.31124
0
LINE
8
BLACK
6
CONTINUOUS
10
1.60583
20
0.31124
11
1.60583
21
0.286043
0
LINE
8
BLACK
6
CONTINUOUS
10
1.3578
20
0.286043
11
1.27906
21
0.286043
0
LINE
8
BLACK
6
CONTINUOUS
10
1.27906
20
0.286043
11
1.27906
21
0.31124
0
LINE
8
BLACK
6
CONTINUOUS
10
1.27906
20
0.31124
11
1.3578
21
0.31124
0
LINE
8
BLACK
6
CONTINUOUS
10
1.3578
20
0.31124
11
1.3578
21
0.286043
0
LINE
8
BLACK
6
CONTINUOUS
10
1.24009
20
0.288642
11
1.18509
21
0.288642
0
LINE
8
BLACK
6
CONTINUOUS
10
1.18509
20
0.288642
11
1.18509
21
0.323642
0
LINE
8
BLACK
6
CONTINUOUS
10
1.18509
20
0.323642
11
1.24009
21
0.323642
0
LINE
8
BLACK
6
CONTINUOUS
10
1.24009
20
0.323642
11
1.24009
21
0.288642
0
LINE
8
BLACK
6
CONTINUOUS
10
0.627402
20
0.415506
11
0.628421
21
0.415603
0
LINE
8
BLACK
6
CONTINUOUS
10
0.628421
20
0.415603
11
0.631706
21
0.414389
0
LINE
8
BLACK
6
CONTINUOUS
10
0.631706
20
0.414389
11
0.634139
21
0.41187
0
LINE
8
BLACK
6
CONTINUOUS
10
0.634139
20
0.41187
11
0.63524
21
0.408545
0
LINE
8
BLACK
6
CONTINUOUS
10
0.63524
20
0.408545
11
0.63479
21
0.405072
0
LINE
8
BLACK
6
CONTINUOUS
10
0.63479
20
0.405072
11
0.634541
21
0.40469
0
LINE
8
BLACK
6
CONTINUOUS
10
0.634541
20
0.40469
11
0.632521
21
0.397701
0
LINE
8
BLACK
6
CONTINUOUS
10
0.632521
20
0.397701
11
0.631435
21
0.390044
0
LINE
8
BLACK
6
CONTINUOUS
10
0.631435
20
0.390044
11
0.63143
21
0.38231
0
LINE
8
BLACK
6
CONTINUOUS
10
0.63143
20
0.38231
11
0.632507
21
0.374651
0
LINE
8
BLACK
6
CONTINUOUS
10
0.632507
20
0.374651
11
0.634522
21
0.367645
0
LINE
8
BLACK
6
CONTINUOUS
10
0.634522
20
0.367645
11
0.634775
21
0.367251
0
LINE
8
BLACK
6
CONTINUOUS
10
0.634775
20
0.367251
11
0.635209
21
0.363776
0
LINE
8
BLACK
6
CONTINUOUS
10
0.635209
20
0.363776
11
0.634092
21
0.360456
0
LINE
8
BLACK
6
CONTINUOUS
10
0.634092
20
0.360456
11
0.631647
21
0.357949
0
LINE
8
BLACK
6
CONTINUOUS
10
0.631647
20
0.357949
11
0.628356
21
0.35675
0
LINE
8
BLACK
6
CONTINUOUS
10
0.628356
20
0.35675
11
0.627402
21
0.356846
0
LINE
8
BLACK
6
CONTINUOUS
10
0.627402
20
0.356846
11
0.627402
21
0.356614
0
LINE
8
BLACK
6
CONTINUOUS
10
0.627402
20
0.356614
11
0.586063
21
0.356614
0
LINE
8
BLACK
6
CONTINUOUS
10
0.586063
20
0.356614
11
0.586063
21
0.415669
0
LINE
8
BLACK
6
CONTINUOUS
10
0.586063
20
0.415669
11
0.627402
21
0.415669
0
LINE
8
BLACK
6
CONTINUOUS
10
0.627402
20
0.415669
11
0.627402
21
0.415506
0
LINE
8
BLACK
6
CONTINUOUS
10
0.78685
20
0.356614
11
0.745512
21
0.356614
0
LINE
8
BLACK
6
CONTINUOUS
10
0.745512
20
0.356614
11
0.745512
21
0.356777
0
LINE
8
BLACK
6
CONTINUOUS
10
0.745512
20
0.356777
11
0.744493
21
0.35668
0
LINE
8
BLACK
6
CONTINUOUS
10
0.744493
20
0.35668
11
0.741208
21
0.357895
0
LINE
8
BLACK
6
CONTINUOUS
10
0.741208
20
0.357895
11
0.738774
21
0.360414
0
LINE
8
BLACK
6
CONTINUOUS
10
0.738774
20
0.360414
11
0.737674
21
0.363738
0
LINE
8
BLACK
6
CONTINUOUS
10
0.737674
20
0.363738
11
0.738124
21
0.367212
0
LINE
8
BLACK
6
CONTINUOUS
10
0.738124
20
0.367212
11
0.738373
21
0.367594
0
LINE
8
BLACK
6
CONTINUOUS
10
0.738373
20
0.367594
11
0.740392
21
0.374583
0
LINE
8
BLACK
6
CONTINUOUS
10
0.740392
20
0.374583
11
0.741479
21
0.38224
0
LINE
8
BLACK
6
CONTINUOUS
10
0.741479
20
0.38224
11
0.741484
21
0.389974
0
LINE
8
BLACK
6
CONTINUOUS
10
0.741484
20
0.389974
11
0.740407
21
0.397632
0
LINE
8
BLACK
6
CONTINUOUS
10
0.740407
20
0.397632
11
0.738392
21
0.404639
0
LINE
8
BLACK
6
CONTINUOUS
10
0.738392
20
0.404639
11
0.738138
21
0.405032
0
LINE
8
BLACK
6
CONTINUOUS
10
0.738138
20
0.405032
11
0.737705
21
0.408507
0
LINE
8
BLACK
6
CONTINUOUS
10
0.737705
20
0.408507
11
0.738821
21
0.411827
0
LINE
8
BLACK
6
CONTINUOUS
10
0.738821
20
0.411827
11
0.741266
21
0.414334
0
LINE
8
BLACK
6
CONTINUOUS
10
0.741266
20
0.414334
11
0.744557
21
0.415533
0
LINE
8
BLACK
6
CONTINUOUS
10
0.744557
20
0.415533
11
0.745512
21
0.415438
0
LINE
8
BLACK
6
CONTINUOUS
10
0.745512
20
0.415438
11
0.745512
21
0.415669
0
LINE
8
BLACK
6
CONTINUOUS
10
0.745512
20
0.415669
11
0.78685
21
0.415669
0
LINE
8
BLACK
6
CONTINUOUS
10
0.78685
20
0.415669
11
0.78685
21
0.356614
0
LINE
8
BLACK
6
CONTINUOUS
10
0.78685
20
0.556614
11
0.745512
21
0.556614
0
LINE
8
BLACK
6
CONTINUOUS
10
0.745512
20
0.556614
11
0.745512
21
0.556777
0
LINE
8
BLACK
6
CONTINUOUS
10
0.745512
20
0.556777
11
0.744493
21
0.55668
0
LINE
8
BLACK
6
CONTINUOUS
10
0.744493
20
0.55668
11
0.741208
21
0.557895
0
LINE
8
BLACK
6
CONTINUOUS
10
0.741208
20
0.557895
11
0.738774
21
0.560414
0
LINE
8
BLACK
6
CONTINUOUS
10
0.738774
20
0.560414
11
0.737674
21
0.563738
0
LINE
8
BLACK
6
CONTINUOUS
10
0.737674
20
0.563738
11
0.738124
21
0.567212
0
LINE
8
BLACK
6
CONTINUOUS
10
0.738124
20
0.567212
11
0.738373
21
0.567594
0
LINE
8
BLACK
6
CONTINUOUS
10
0.738373
20
0.567594
11
0.740392
21
0.574583
0
LINE
8
BLACK
6
CONTINUOUS
10
0.740392
20
0.574583
11
0.741479
21
0.58224
0
LINE
8
BLACK
6
CONTINUOUS
10
0.741479
20
0.58224
11
0.741484
21
0.589974
0
LINE
8
BLACK
6
CONTINUOUS
10
0.741484
20
0.589974
11
0.740407
21
0.597632
0
LINE
8
BLACK
6
CONTINUOUS
10
0.740407
20
0.597632
11
0.738392
21
0.604639
0
LINE
8
BLACK
6
CONTINUOUS
10
0.738392
20
0.604639
11
0.738138
21
0.605032
0
LINE
8
BLACK
6
CONTINUOUS
10
0.738138
20
0.605032
11
0.737705
21
0.608507
0
LINE
8
BLACK
6
CONTINUOUS
10
0.737705
20
0.608507
11
0.738821
21
0.611827
0
LINE
8
BLACK
6
CONTINUOUS
10
0.738821
20
0.611827
11
0.741266
21
0.614334
0
LINE
8
BLACK
6
CONTINUOUS
10
0.741266
20
0.614334
11
0.744557
21
0.615533
0
LINE
8
BLACK
6
CONTINUOUS
10
0.744557
20
0.615533
11
0.745512
21
0.615438
0
LINE
8
BLACK
6
CONTINUOUS
10
0.745512
20
0.615438
11
0.745512
21
0.615669
0
LINE
8
BLACK
6
CONTINUOUS
10
0.745512
20
0.615669
11
0.78685
21
0.615669
0
LINE
8
BLACK
6
CONTINUOUS
10
0.78685
20
0.615669
11
0.78685
21
0.556614
0
LINE
8
BLACK
6
CONTINUOUS
10
0.627402
20
0.615506
11
0.628421
21
0.615603
0
LINE
8
BLACK
6
CONTINUOUS
10
0.628421
20
0.615603
11
0.631706
21
0.614389
0
LINE
8
BLACK
6
CONTINUOUS
10
0.631706
20
0.614389
11
0.634139
21
0.61187
0
LINE
8
BLACK
6
CONTINUOUS
10
0.634139
20
0.61187
11
0.63524
21
0.608545
0
LINE
8
BLACK
6
CONTINUOUS
10
0.63524
20
0.608545
11
0.63479
21
0.605072
0
LINE
8
BLACK
6
CONTINUOUS
10
0.63479
20
0.605072
11
0.634541
21
0.60469
0
LINE
8
BLACK
6
CONTINUOUS
10
0.634541
20
0.60469
11
0.632521
21
0.597701
0
LINE
8
BLACK
6
CONTINUOUS
10
0.632521
20
0.597701
11
0.631435
21
0.590044
0
LINE
8
BLACK
6
CONTINUOUS
10
0.631435
20
0.590044
11
0.63143
21
0.58231
0
LINE
8
BLACK
6
CONTINUOUS
10
0.63143
20
0.58231
11
0.632507
21
0.574651
0
LINE
8
BLACK
6
CONTINUOUS
10
0.632507
20
0.574651
11
0.634522
21
0.567645
0
LINE
8
BLACK
6
CONTINUOUS
10
0.634522
20
0.567645
11
0.634775
21
0.567251
0
LINE
8
BLACK
6
CONTINUOUS
10
0.634775
20
0.567251
11
0.635209
21
0.563776
0
LINE
8
BLACK
6
CONTINUOUS
10
0.635209
20
0.563776
11
0.634092
21
0.560456
0
LINE
8
BLACK
6
CONTINUOUS
10
0.634092
20
0.560456
11
0.631647
21
0.557949
0
LINE
8
BLACK
6
CONTINUOUS
10
0.631647
20
0.557949
11
0.628356
21
0.55675
0
LINE
8
BLACK
6
CONTINUOUS
10
0.628356
20
0.55675
11
0.627402
21
0.556846
0
LINE
8
BLACK
6
CONTINUOUS
10
0.627402
20
0.556846
11
0.627402
21
0.556614
0
LINE
8
BLACK
6
CONTINUOUS
10
0.627402
20
0.556614
11
0.586063
21
0.556614
0
LINE
8
BLACK
6
CONTINUOUS
10
0.586063
20
0.556614
11
0.586063
21
0.615669
0
LINE
8
BLACK
6
CONTINUOUS
10
0.586063
20
0.615669
11
0.627402
21
0.615669
0
LINE
8
BLACK
6
CONTINUOUS
10
0.627402
20
0.615669
11
0.627402
21
0.615506
0
LINE
8
BLACK
6
CONTINUOUS
10
1.2728
20
0.611043
11
1.19406
21
0.611043
0
LINE
8
BLACK
6
CONTINUOUS
10
1.19406
20
0.611043
11
1.19406
21
0.63624
0
LINE
8
BLACK
6
CONTINUOUS
10
1.19406
20
0.63624
11
1.2728
21
0.63624
0
LINE
8
BLACK
6
CONTINUOUS
10
1.2728
20
0.63624
11
1.2728
21
0.611043
0
LINE
8
BLACK
6
CONTINUOUS
10
1.52083
20
0.611043
11
1.44209
21
0.611043
0
LINE
8
BLACK
6
CONTINUOUS
10
1.44209
20
0.611043
11
1.44209
21
0.63624
0
LINE
8
BLACK
6
CONTINUOUS
10
1.44209
20
0.63624
11
1.52083
21
0.63624
0
LINE
8
BLACK
6
CONTINUOUS
10
1.52083
20
0.63624
11
1.52083
21
0.611043
0
LINE
8
BLACK
6
CONTINUOUS
10
1.15607
20
0.613642
11
1.10107
21
0.613642
0
LINE
8
BLACK
6
CONTINUOUS
10
1.10107
20
0.613642
11
1.10107
21
0.648642
0
LINE
8
BLACK
6
CONTINUOUS
10
1.10107
20
0.648642
11
1.15607
21
0.648642
0
LINE
8
BLACK
6
CONTINUOUS
10
1.15607
20
0.648642
11
1.15607
21
0.613642
0
LINE
8
BLACK
6
CONTINUOUS
10
1.63994
20
0.623642
11
1.58494
21
0.623642
0
LINE
8
BLACK
6
CONTINUOUS
10
1.58494
20
0.623642
11
1.58494
21
0.658642
0
LINE
8
BLACK
6
CONTINUOUS
10
1.58494
20
0.658642
11
1.63994
21
0.658642
0
LINE
8
BLACK
6
CONTINUOUS
10
1.63994
20
0.658642
11
1.63994
21
0.623642
0
LINE
8
BLACK
6
CONTINUOUS
10
1.15607
20
0.688642
11
1.10107
21
0.688642
0
LINE
8
BLACK
6
CONTINUOUS
10
1.10107
20
0.688642
11
1.10107
21
0.723642
0
LINE
8
BLACK
6
CONTINUOUS
10
1.10107
20
0.723642
11
1.15607
21
0.723642
0
LINE
8
BLACK
6
CONTINUOUS
10
1.15607
20
0.723642
11
1.15607
21
0.688642
0
LINE
8
BLACK
6
CONTINUOUS
10
1.63994
20
0.698642
11
1.58494
21
0.698642
0
LINE
8
BLACK
6
CONTINUOUS
10
1.58494
20
0.698642
11
1.58494
21
0.733642
0
LINE
8
BLACK
6
CONTINUOUS
10
1.58494
20
0.733642
11
1.63994
21
0.733642
0
LINE
8
BLACK
6
CONTINUOUS
10
1.63994
20
0.733642
11
1.63994
21
0.698642
0
LINE
8
BLACK
6
CONTINUOUS
10
1.2728
20
0.711043
11
1.19406
21
0.711043
0
LINE
8
BLACK
6
CONTINUOUS
10
1.19406
20
0.711043
11
1.19406
21
0.73624
0
LINE
8
BLACK
6
CONTINUOUS
10
1.19406
20
0.73624
11
1.2728
21
0.73624
0
LINE
8
BLACK
6
CONTINUOUS
10
1.2728
20
0.73624
11
1.2728
21
0.711043
0
LINE
8
BLACK
6
CONTINUOUS
10
1.52083
20
0.711043
11
1.44209
21
0.711043
0
LINE
8
BLACK
6
CONTINUOUS
10
1.44209
20
0.711043
11
1.44209
21
0.73624
0
LINE
8
BLACK
6
CONTINUOUS
10
1.44209
20
0.73624
11
1.52083
21
0.73624
0
LINE
8
BLACK
6
CONTINUOUS
10
1.52083
20
0.73624
11
1.52083
21
0.711043
0
LINE
8
BLACK
6
CONTINUOUS
10
2.23851
20
0.791975
11
2.23889
21
0.791726
0
LINE
8
BLACK
6
CONTINUOUS
10
2.23889
20
0.791726
11
2.24588
21
0.789706
0
LINE
8
BLACK
6
CONTINUOUS
10
2.24588
20
0.789706
11
2.25354
21
0.78862
0
LINE
8
BLACK
6
CONTINUOUS
10
2.25354
20
0.78862
11
2.26127
21
0.788615
0
LINE
8
BLACK
6
CONTINUOUS
10
2.26127
20
0.788615
11
2.26893
21
0.789692
0
LINE
8
BLACK
6
CONTINUOUS
10
2.26893
20
0.789692
11
2.27594
21
0.791707
0
LINE
8
BLACK
6
CONTINUOUS
10
2.27594
20
0.791707
11
2.27633
21
0.79196
0
LINE
8
BLACK
6
CONTINUOUS
10
2.27633
20
0.79196
11
2.27981
21
0.792394
0
LINE
8
BLACK
6
CONTINUOUS
10
2.27981
20
0.792394
11
2.28313
21
0.791277
0
LINE
8
BLACK
6
CONTINUOUS
10
2.28313
20
0.791277
11
2.28563
21
0.788832
0
LINE
8
BLACK
6
CONTINUOUS
10
2.28563
20
0.788832
11
2.28683
21
0.785541
0
LINE
8
BLACK
6
CONTINUOUS
10
2.28683
20
0.785541
11
2.28674
21
0.784587
0
LINE
8
BLACK
6
CONTINUOUS
10
2.28674
20
0.784587
11
2.28697
21
0.784587
0
LINE
8
BLACK
6
CONTINUOUS
10
2.28697
20
0.784587
11
2.28697
21
0.743248
0
LINE
8
BLACK
6
CONTINUOUS
10
2.28697
20
0.743248
11
2.22791
21
0.743248
0
LINE
8
BLACK
6
CONTINUOUS
10
2.22791
20
0.743248
11
2.22791
21
0.784587
0
LINE
8
BLACK
6
CONTINUOUS
10
2.22791
20
0.784587
11
2.22808
21
0.784587
0
LINE
8
BLACK
6
CONTINUOUS
10
2.22808
20
0.784587
11
2.22798
21
0.785606
0
LINE
8
BLACK
6
CONTINUOUS
10
2.22798
20
0.785606
11
2.22919
21
0.788891
0
LINE
8
BLACK
6
CONTINUOUS
10
2.22919
20
0.788891
11
2.23171
21
0.791324
0
LINE
8
BLACK
6
CONTINUOUS
10
2.23171
20
0.791324
11
2.23504
21
0.792425
0
LINE
8
BLACK
6
CONTINUOUS
10
2.23504
20
0.792425
11
2.23851
21
0.791975
0
LINE
8
BLACK
6
CONTINUOUS
10
0.792835
20
0.764114
11
0.751496
21
0.764114
0
LINE
8
BLACK
6
CONTINUOUS
10
0.751496
20
0.764114
11
0.751496
21
0.764277
0
LINE
8
BLACK
6
CONTINUOUS
10
0.751496
20
0.764277
11
0.750477
21
0.76418
0
LINE
8
BLACK
6
CONTINUOUS
10
0.750477
20
0.76418
11
0.747192
21
0.765395
0
LINE
8
BLACK
6
CONTINUOUS
10
0.747192
20
0.765395
11
0.744758
21
0.767914
0
LINE
8
BLACK
6
CONTINUOUS
10
0.744758
20
0.767914
11
0.743658
21
0.771238
0
LINE
8
BLACK
6
CONTINUOUS
10
0.743658
20
0.771238
11
0.744108
21
0.774712
0
LINE
8
BLACK
6
CONTINUOUS
10
0.744108
20
0.774712
11
0.744357
21
0.775094
0
LINE
8
BLACK
6
CONTINUOUS
10
0.744357
20
0.775094
11
0.746376
21
0.782083
0
LINE
8
BLACK
6
CONTINUOUS
10
0.746376
20
0.782083
11
0.747463
21
0.78974
0
LINE
8
BLACK
6
CONTINUOUS
10
0.747463
20
0.78974
11
0.747468
21
0.797474
0
LINE
8
BLACK
6
CONTINUOUS
10
0.747468
20
0.797474
11
0.746391
21
0.805132
0
LINE
8
BLACK
6
CONTINUOUS
10
0.746391
20
0.805132
11
0.744376
21
0.812139
0
LINE
8
BLACK
6
CONTINUOUS
10
0.744376
20
0.812139
11
0.744123
21
0.812532
0
LINE
8
BLACK
6
CONTINUOUS
10
0.744123
20
0.812532
11
0.743689
21
0.816007
0
LINE
8
BLACK
6
CONTINUOUS
10
0.743689
20
0.816007
11
0.744805
21
0.819327
0
LINE
8
BLACK
6
CONTINUOUS
10
0.744805
20
0.819327
11
0.747251
21
0.821834
0
LINE
8
BLACK
6
CONTINUOUS
10
0.747251
20
0.821834
11
0.750542
21
0.823033
0
LINE
8
BLACK
6
CONTINUOUS
10
0.750542
20
0.823033
11
0.751496
21
0.822938
0
LINE
8
BLACK
6
CONTINUOUS
10
0.751496
20
0.822938
11
0.751496
21
0.823169
0
LINE
8
BLACK
6
CONTINUOUS
10
0.751496
20
0.823169
11
0.792835
21
0.823169
0
LINE
8
BLACK
6
CONTINUOUS
10
0.792835
20
0.823169
11
0.792835
21
0.764114
0
LINE
8
BLACK
6
CONTINUOUS
10
0.633386
20
0.823006
11
0.634405
21
0.823103
0
LINE
8
BLACK
6
CONTINUOUS
10
0.634405
20
0.823103
11
0.63769
21
0.821889
0
LINE
8
BLACK
6
CONTINUOUS
10
0.63769
20
0.821889
11
0.640124
21
0.81937
0
LINE
8
BLACK
6
CONTINUOUS
10
0.640124
20
0.81937
11
0.641224
21
0.816045
0
LINE
8
BLACK
6
CONTINUOUS
10
0.641224
20
0.816045
11
0.640774
21
0.812572
0
LINE
8
BLACK
6
CONTINUOUS
10
0.640774
20
0.812572
11
0.640525
21
0.81219
0
LINE
8
BLACK
6
CONTINUOUS
10
0.640525
20
0.81219
11
0.638506
21
0.805201
0
LINE
8
BLACK
6
CONTINUOUS
10
0.638506
20
0.805201
11
0.637419
21
0.797544
0
LINE
8
BLACK
6
CONTINUOUS
10
0.637419
20
0.797544
11
0.637414
21
0.78981
0
LINE
8
BLACK
6
CONTINUOUS
10
0.637414
20
0.78981
11
0.638491
21
0.782151
0
LINE
8
BLACK
6
CONTINUOUS
10
0.638491
20
0.782151
11
0.640506
21
0.775145
0
LINE
8
BLACK
6
CONTINUOUS
10
0.640506
20
0.775145
11
0.640759
21
0.774751
0
LINE
8
BLACK
6
CONTINUOUS
10
0.640759
20
0.774751
11
0.641193
21
0.771276
0
LINE
8
BLACK
6
CONTINUOUS
10
0.641193
20
0.771276
11
0.640077
21
0.767956
0
LINE
8
BLACK
6
CONTINUOUS
10
0.640077
20
0.767956
11
0.637631
21
0.765449
0
LINE
8
BLACK
6
CONTINUOUS
10
0.637631
20
0.765449
11
0.63434
21
0.76425
0
LINE
8
BLACK
6
CONTINUOUS
10
0.63434
20
0.76425
11
0.633386
21
0.764346
0
LINE
8
BLACK
6
CONTINUOUS
10
0.633386
20
0.764346
11
0.633386
21
0.764114
0
LINE
8
BLACK
6
CONTINUOUS
10
0.633386
20
0.764114
11
0.592047
21
0.764114
0
LINE
8
BLACK
6
CONTINUOUS
10
0.592047
20
0.764114
11
0.592047
21
0.823169
0
LINE
8
BLACK
6
CONTINUOUS
10
0.592047
20
0.823169
11
0.633386
21
0.823169
0
LINE
8
BLACK
6
CONTINUOUS
10
0.633386
20
0.823169
11
0.633386
21
0.823006
0
LINE
8
BLACK
6
CONTINUOUS
10
2.28697
20
0.902697
11
2.28681
21
0.902697
0
LINE
8
BLACK
6
CONTINUOUS
10
2.28681
20
0.902697
11
2.2869
21
0.901678
0
LINE
8
BLACK
6
CONTINUOUS
10
2.2869
20
0.901678
11
2.28569
21
0.898393
0
LINE
8
BLACK
6
CONTINUOUS
10
2.28569
20
0.898393
11
2.28317
21
0.895959
0
LINE
8
BLACK
6
CONTINUOUS
10
2.28317
20
0.895959
11
2.27984
21
0.894859
0
LINE
8
BLACK
6
CONTINUOUS
10
2.27984
20
0.894859
11
2.27637
21
0.895309
0
LINE
8
BLACK
6
CONTINUOUS
10
2.27637
20
0.895309
11
2.27599
21
0.895558
0
LINE
8
BLACK
6
CONTINUOUS
10
2.27599
20
0.895558
11
2.269
21
0.897577
0
LINE
8
BLACK
6
CONTINUOUS
10
2.269
20
0.897577
11
2.26134
21
0.898664
0
LINE
8
BLACK
6
CONTINUOUS
10
2.26134
20
0.898664
11
2.25361
21
0.898669
0
LINE
8
BLACK
6
CONTINUOUS
10
2.25361
20
0.898669
11
2.24595
21
0.897592
0
LINE
8
BLACK
6
CONTINUOUS
10
2.24595
20
0.897592
11
2.23894
21
0.895577
0
LINE
8
BLACK
6
CONTINUOUS
10
2.23894
20
0.895577
11
2.23855
21
0.895323
0
LINE
8
BLACK
6
CONTINUOUS
10
2.23855
20
0.895323
11
2.23508
21
0.89489
0
LINE
8
BLACK
6
CONTINUOUS
10
2.23508
20
0.89489
11
2.23176
21
0.896006
0
LINE
8
BLACK
6
CONTINUOUS
10
2.23176
20
0.896006
11
2.22925
21
0.898451
0
LINE
8
BLACK
6
CONTINUOUS
10
2.22925
20
0.898451
11
2.22805
21
0.901742
0
LINE
8
BLACK
6
CONTINUOUS
10
2.22805
20
0.901742
11
2.22814
21
0.902697
0
LINE
8
BLACK
6
CONTINUOUS
10
2.22814
20
0.902697
11
2.22791
21
0.902697
0
LINE
8
BLACK
6
CONTINUOUS
10
2.22791
20
0.902697
11
2.22791
21
0.944035
0
LINE
8
BLACK
6
CONTINUOUS
10
2.22791
20
0.944035
11
2.28697
21
0.944035
0
LINE
8
BLACK
6
CONTINUOUS
10
2.28697
20
0.944035
11
2.28697
21
0.902697
0
LINE
8
BLACK
6
CONTINUOUS
10
0.633386
20
1.01301
11
0.634405
21
1.0131
0
LINE
8
BLACK
6
CONTINUOUS
10
0.634405
20
1.0131
11
0.63769
21
1.01189
0
LINE
8
BLACK
6
CONTINUOUS
10
0.63769
20
1.01189
11
0.640124
21
1.00937
0
LINE
8
BLACK
6
CONTINUOUS
10
0.640124
20
1.00937
11
0.641224
21
1.00605
0
LINE
8
BLACK
6
CONTINUOUS
10
0.641224
20
1.00605
11
0.640774
21
1.00257
0
LINE
8
BLACK
6
CONTINUOUS
10
0.640774
20
1.00257
11
0.640525
21
1.00219
0
LINE
8
BLACK
6
CONTINUOUS
10
0.640525
20
1.00219
11
0.638506
21
0.995201
0
LINE
8
BLACK
6
CONTINUOUS
10
0.638506
20
0.995201
11
0.637419
21
0.987544
0
LINE
8
BLACK
6
CONTINUOUS
10
0.637419
20
0.987544
11
0.637414
21
0.97981
0
LINE
8
BLACK
6
CONTINUOUS
10
0.637414
20
0.97981
11
0.638491
21
0.972151
0
LINE
8
BLACK
6
CONTINUOUS
10
0.638491
20
0.972151
11
0.640506
21
0.965145
0
LINE
8
BLACK
6
CONTINUOUS
10
0.640506
20
0.965145
11
0.640759
21
0.964751
0
LINE
8
BLACK
6
CONTINUOUS
10
0.640759
20
0.964751
11
0.641193
21
0.961276
0
LINE
8
BLACK
6
CONTINUOUS
10
0.641193
20
0.961276
11
0.640077
21
0.957956
0
LINE
8
BLACK
6
CONTINUOUS
10
0.640077
20
0.957956
11
0.637631
21
0.955449
0
LINE
8
BLACK
6
CONTINUOUS
10
0.637631
20
0.955449
11
0.63434
21
0.95425
0
LINE
8
BLACK
6
CONTINUOUS
10
0.63434
20
0.95425
11
0.633386
21
0.954346
0
LINE
8
BLACK
6
CONTINUOUS
10
0.633386
20
0.954346
11
0.633386
21
0.954114
0
LINE
8
BLACK
6
CONTINUOUS
10
0.633386
20
0.954114
11
0.592047
21
0.954114
0
LINE
8
BLACK
6
CONTINUOUS
10
0.592047
20
0.954114
11
0.592047
21
1.01317
0
LINE
8
BLACK
6
CONTINUOUS
10
0.592047
20
1.01317
11
0.633386
21
1.01317
0
LINE
8
BLACK
6
CONTINUOUS
10
0.633386
20
1.01317
11
0.633386
21
1.01301
0
LINE
8
BLACK
6
CONTINUOUS
10
0.792835
20
0.954114
11
0.751496
21
0.954114
0
LINE
8
BLACK
6
CONTINUOUS
10
0.751496
20
0.954114
11
0.751496
21
0.954277
0
LINE
8
BLACK
6
CONTINUOUS
10
0.751496
20
0.954277
11
0.750477
21
0.95418
0
LINE
8
BLACK
6
CONTINUOUS
10
0.750477
20
0.95418
11
0.747192
21
0.955395
0
LINE
8
BLACK
6
CONTINUOUS
10
0.747192
20
0.955395
11
0.744758
21
0.957914
0
LINE
8
BLACK
6
CONTINUOUS
10
0.744758
20
0.957914
11
0.743658
21
0.961238
0
LINE
8
BLACK
6
CONTINUOUS
10
0.743658
20
0.961238
11
0.744108
21
0.964712
0
LINE
8
BLACK
6
CONTINUOUS
10
0.744108
20
0.964712
11
0.744357
21
0.965094
0
LINE
8
BLACK
6
CONTINUOUS
10
0.744357
20
0.965094
11
0.746376
21
0.972083
0
LINE
8
BLACK
6
CONTINUOUS
10
0.746376
20
0.972083
11
0.747463
21
0.97974
0
LINE
8
BLACK
6
CONTINUOUS
10
0.747463
20
0.97974
11
0.747468
21
0.987474
0
LINE
8
BLACK
6
CONTINUOUS
10
0.747468
20
0.987474
11
0.746391
21
0.995132
0
LINE
8
BLACK
6
CONTINUOUS
10
0.746391
20
0.995132
11
0.744376
21
1.00214
0
LINE
8
BLACK
6
CONTINUOUS
10
0.744376
20
1.00214
11
0.744123
21
1.00253
0
LINE
8
BLACK
6
CONTINUOUS
10
0.744123
20
1.00253
11
0.743689
21
1.00601
0
LINE
8
BLACK
6
CONTINUOUS
10
0.743689
20
1.00601
11
0.744805
21
1.00933
0
LINE
8
BLACK
6
CONTINUOUS
10
0.744805
20
1.00933
11
0.747251
21
1.01183
0
LINE
8
BLACK
6
CONTINUOUS
10
0.747251
20
1.01183
11
0.750542
21
1.01303
0
LINE
8
BLACK
6
CONTINUOUS
10
0.750542
20
1.01303
11
0.751496
21
1.01294
0
LINE
8
BLACK
6
CONTINUOUS
10
0.751496
20
1.01294
11
0.751496
21
1.01317
0
LINE
8
BLACK
6
CONTINUOUS
10
0.751496
20
1.01317
11
0.792835
21
1.01317
0
LINE
8
BLACK
6
CONTINUOUS
10
0.792835
20
1.01317
11
0.792835
21
0.954114
0
LINE
8
BLACK
6
CONTINUOUS
10
2.28494
20
0.988642
11
2.22994
21
0.988642
0
LINE
8
BLACK
6
CONTINUOUS
10
2.22994
20
0.988642
11
2.22994
21
1.02364
0
LINE
8
BLACK
6
CONTINUOUS
10
2.22994
20
1.02364
11
2.28494
21
1.02364
0
LINE
8
BLACK
6
CONTINUOUS
10
2.28494
20
1.02364
11
2.28494
21
0.988642
0
LINE
8
BLACK
6
CONTINUOUS
10
1.15009
20
1.01114
11
1.09509
21
1.01114
0
LINE
8
BLACK
6
CONTINUOUS
10
1.09509
20
1.01114
11
1.09509
21
1.04614
0
LINE
8
BLACK
6
CONTINUOUS
10
1.09509
20
1.04614
11
1.15009
21
1.04614
0
LINE
8
BLACK
6
CONTINUOUS
10
1.15009
20
1.04614
11
1.15009
21
1.01114
0
LINE
8
BLACK
6
CONTINUOUS
10
1.51484
20
1.01854
11
1.4361
21
1.01854
0
LINE
8
BLACK
6
CONTINUOUS
10
1.4361
20
1.01854
11
1.4361
21
1.04374
0
LINE
8
BLACK
6
CONTINUOUS
10
1.4361
20
1.04374
11
1.51484
21
1.04374
0
LINE
8
BLACK
6
CONTINUOUS
10
1.51484
20
1.04374
11
1.51484
21
1.01854
0
LINE
8
BLACK
6
CONTINUOUS
10
1.26681
20
1.01854
11
1.18807
21
1.01854
0
LINE
8
BLACK
6
CONTINUOUS
10
1.18807
20
1.01854
11
1.18807
21
1.04374
0
LINE
8
BLACK
6
CONTINUOUS
10
1.18807
20
1.04374
11
1.26681
21
1.04374
0
LINE
8
BLACK
6
CONTINUOUS
10
1.26681
20
1.04374
11
1.26681
21
1.01854
0
LINE
8
BLACK
6
CONTINUOUS
10
1.63396
20
1.02114
11
1.57896
21
1.02114
0
LINE
8
BLACK
6
CONTINUOUS
10
1.57896
20
1.02114
11
1.57896
21
1.05614
0
LINE
8
BLACK
6
CONTINUOUS
10
1.57896
20
1.05614
11
1.63396
21
1.05614
0
LINE
8
BLACK
6
CONTINUOUS
10
1.63396
20
1.05614
11
1.63396
21
1.02114
0
LINE
8
BLACK
6
CONTINUOUS
10
2.28494
20
1.06364
11
2.22994
21
1.06364
0
LINE
8
BLACK
6
CONTINUOUS
10
2.22994
20
1.06364
11
2.22994
21
1.09864
0
LINE
8
BLACK
6
CONTINUOUS
10
2.22994
20
1.09864
11
2.28494
21
1.09864
0
LINE
8
BLACK
6
CONTINUOUS
10
2.28494
20
1.09864
11
2.28494
21
1.06364
0
LINE
8
BLACK
6
CONTINUOUS
10
1.15009
20
1.08614
11
1.09509
21
1.08614
0
LINE
8
BLACK
6
CONTINUOUS
10
1.09509
20
1.08614
11
1.09509
21
1.12114
0
LINE
8
BLACK
6
CONTINUOUS
10
1.09509
20
1.12114
11
1.15009
21
1.12114
0
LINE
8
BLACK
6
CONTINUOUS
10
1.15009
20
1.12114
11
1.15009
21
1.08614
0
LINE
8
BLACK
6
CONTINUOUS
10
1.63396
20
1.09614
11
1.57896
21
1.09614
0
LINE
8
BLACK
6
CONTINUOUS
10
1.57896
20
1.09614
11
1.57896
21
1.13114
0
LINE
8
BLACK
6
CONTINUOUS
10
1.57896
20
1.13114
11
1.63396
21
1.13114
0
LINE
8
BLACK
6
CONTINUOUS
10
1.63396
20
1.13114
11
1.63396
21
1.09614
0
LINE
8
BLACK
6
CONTINUOUS
10
1.26681
20
1.11854
11
1.18807
21
1.11854
0
LINE
8
BLACK
6
CONTINUOUS
10
1.18807
20
1.11854
11
1.18807
21
1.14374
0
LINE
8
BLACK
6
CONTINUOUS
10
1.18807
20
1.14374
11
1.26681
21
1.14374
0
LINE
8
BLACK
6
CONTINUOUS
10
1.26681
20
1.14374
11
1.26681
21
1.11854
0
LINE
8
BLACK
6
CONTINUOUS
10
1.51484
20
1.11854
11
1.4361
21
1.11854
0
LINE
8
BLACK
6
CONTINUOUS
10
1.4361
20
1.11854
11
1.4361
21
1.14374
0
LINE
8
BLACK
6
CONTINUOUS
10
1.4361
20
1.14374
11
1.51484
21
1.14374
0
LINE
8
BLACK
6
CONTINUOUS
10
1.51484
20
1.14374
11
1.51484
21
1.11854
0
LINE
8
BLACK
6
CONTINUOUS
10
1.43166
20
1.33854
11
1.35292
21
1.33854
0
LINE
8
BLACK
6
CONTINUOUS
10
1.35292
20
1.33854
11
1.35292
21
1.36374
0
LINE
8
BLACK
6
CONTINUOUS
10
1.35292
20
1.36374
11
1.43166
21
1.36374
0
LINE
8
BLACK
6
CONTINUOUS
10
1.43166
20
1.36374
11
1.43166
21
1.33854
0
LINE
8
BLACK
6
CONTINUOUS
10
1.6797
20
1.33854
11
1.60096
21
1.33854
0
LINE
8
BLACK
6
CONTINUOUS
10
1.60096
20
1.33854
11
1.60096
21
1.36374
0
LINE
8
BLACK
6
CONTINUOUS
10
1.60096
20
1.36374
11
1.6797
21
1.36374
0
LINE
8
BLACK
6
CONTINUOUS
10
1.6797
20
1.36374
11
1.6797
21
1.33854
0
LINE
8
BLACK
6
CONTINUOUS
10
1.31396
20
1.34364
11
1.25896
21
1.34364
0
LINE
8
BLACK
6
CONTINUOUS
10
1.25896
20
1.34364
11
1.25896
21
1.37864
0
LINE
8
BLACK
6
CONTINUOUS
10
1.25896
20
1.37864
11
1.31396
21
1.37864
0
LINE
8
BLACK
6
CONTINUOUS
10
1.31396
20
1.37864
11
1.31396
21
1.34364
0
LINE
8
BLACK
6
CONTINUOUS
10
1.79283
20
1.34614
11
1.73783
21
1.34614
0
LINE
8
BLACK
6
CONTINUOUS
10
1.73783
20
1.34614
11
1.73783
21
1.38114
0
LINE
8
BLACK
6
CONTINUOUS
10
1.73783
20
1.38114
11
1.79283
21
1.38114
0
LINE
8
BLACK
6
CONTINUOUS
10
1.79283
20
1.38114
11
1.79283
21
1.34614
0
LINE
8
BLACK
6
CONTINUOUS
10
0.633386
20
1.41301
11
0.634405
21
1.4131
0
LINE
8
BLACK
6
CONTINUOUS
10
0.634405
20
1.4131
11
0.63769
21
1.41189
0
LINE
8
BLACK
6
CONTINUOUS
10
0.63769
20
1.41189
11
0.640124
21
1.40937
0
LINE
8
BLACK
6
CONTINUOUS
10
0.640124
20
1.40937
11
0.641224
21
1.40604
0
LINE
8
BLACK
6
CONTINUOUS
10
0.641224
20
1.40604
11
0.640774
21
1.40257
0
LINE
8
BLACK
6
CONTINUOUS
10
0.640774
20
1.40257
11
0.640525
21
1.40219
0
LINE
8
BLACK
6
CONTINUOUS
10
0.640525
20
1.40219
11
0.638506
21
1.3952
0
LINE
8
BLACK
6
CONTINUOUS
10
0.638506
20
1.3952
11
0.637419
21
1.38754
0
LINE
8
BLACK
6
CONTINUOUS
10
0.637419
20
1.38754
11
0.637414
21
1.37981
0
LINE
8
BLACK
6
CONTINUOUS
10
0.637414
20
1.37981
11
0.638491
21
1.37215
0
LINE
8
BLACK
6
CONTINUOUS
10
0.638491
20
1.37215
11
0.640506
21
1.36514
0
LINE
8
BLACK
6
CONTINUOUS
10
0.640506
20
1.36514
11
0.640759
21
1.36475
0
LINE
8
BLACK
6
CONTINUOUS
10
0.640759
20
1.36475
11
0.641193
21
1.36128
0
LINE
8
BLACK
6
CONTINUOUS
10
0.641193
20
1.36128
11
0.640077
21
1.35796
0
LINE
8
BLACK
6
CONTINUOUS
10
0.640077
20
1.35796
11
0.637631
21
1.35545
0
LINE
8
BLACK
6
CONTINUOUS
10
0.637631
20
1.35545
11
0.63434
21
1.35425
0
LINE
8
BLACK
6
CONTINUOUS
10
0.63434
20
1.35425
11
0.633386
21
1.35435
0
LINE
8
BLACK
6
CONTINUOUS
10
0.633386
20
1.35435
11
0.633386
21
1.35411
0
LINE
8
BLACK
6
CONTINUOUS
10
0.633386
20
1.35411
11
0.592047
21
1.35411
0
LINE
8
BLACK
6
CONTINUOUS
10
0.592047
20
1.35411
11
0.592047
21
1.41317
0
LINE
8
BLACK
6
CONTINUOUS
10
0.592047
20
1.41317
11
0.633386
21
1.41317
0
LINE
8
BLACK
6
CONTINUOUS
10
0.633386
20
1.41317
11
0.633386
21
1.41301
0
LINE
8
BLACK
6
CONTINUOUS
10
0.792835
20
1.35411
11
0.751496
21
1.35411
0
LINE
8
BLACK
6
CONTINUOUS
10
0.751496
20
1.35411
11
0.751496
21
1.35428
0
LINE
8
BLACK
6
CONTINUOUS
10
0.751496
20
1.35428
11
0.750477
21
1.35418
0
LINE
8
BLACK
6
CONTINUOUS
10
0.750477
20
1.35418
11
0.747192
21
1.35539
0
LINE
8
BLACK
6
CONTINUOUS
10
0.747192
20
1.35539
11
0.744758
21
1.35791
0
LINE
8
BLACK
6
CONTINUOUS
10
0.744758
20
1.35791
11
0.743658
21
1.36124
0
LINE
8
BLACK
6
CONTINUOUS
10
0.743658
20
1.36124
11
0.744108
21
1.36471
0
LINE
8
BLACK
6
CONTINUOUS
10
0.744108
20
1.36471
11
0.744357
21
1.36509
0
LINE
8
BLACK
6
CONTINUOUS
10
0.744357
20
1.36509
11
0.746376
21
1.37208
0
LINE
8
BLACK
6
CONTINUOUS
10
0.746376
20
1.37208
11
0.747463
21
1.37974
0
LINE
8
BLACK
6
CONTINUOUS
10
0.747463
20
1.37974
11
0.747468
21
1.38747
0
LINE
8
BLACK
6
CONTINUOUS
10
0.747468
20
1.38747
11
0.746391
21
1.39513
0
LINE
8
BLACK
6
CONTINUOUS
10
0.746391
20
1.39513
11
0.744376
21
1.40214
0
LINE
8
BLACK
6
CONTINUOUS
10
0.744376
20
1.40214
11
0.744123
21
1.40253
0
LINE
8
BLACK
6
CONTINUOUS
10
0.744123
20
1.40253
11
0.743689
21
1.40601
0
LINE
8
BLACK
6
CONTINUOUS
10
0.743689
20
1.40601
11
0.744805
21
1.40933
0
LINE
8
BLACK
6
CONTINUOUS
10
0.744805
20
1.40933
11
0.747251
21
1.41183
0
LINE
8
BLACK
6
CONTINUOUS
10
0.747251
20
1.41183
11
0.750542
21
1.41303
0
LINE
8
BLACK
6
CONTINUOUS
10
0.750542
20
1.41303
11
0.751496
21
1.41294
0
LINE
8
BLACK
6
CONTINUOUS
10
0.751496
20
1.41294
11
0.751496
21
1.41317
0
LINE
8
BLACK
6
CONTINUOUS
10
0.751496
20
1.41317
11
0.792835
21
1.41317
0
LINE
8
BLACK
6
CONTINUOUS
10
0.792835
20
1.41317
11
0.792835
21
1.35411
0
LINE
8
BLACK
6
CONTINUOUS
10
1.31396
20
1.41864
11
1.25896
21
1.41864
0
LINE
8
BLACK
6
CONTINUOUS
10
1.25896
20
1.41864
11
1.25896
21
1.45364
0
LINE
8
BLACK
6
CONTINUOUS
10
1.25896
20
1.45364
11
1.31396
21
1.45364
0
LINE
8
BLACK
6
CONTINUOUS
10
1.31396
20
1.45364
11
1.31396
21
1.41864
0
LINE
8
BLACK
6
CONTINUOUS
10
1.79283
20
1.42114
11
1.73783
21
1.42114
0
LINE
8
BLACK
6
CONTINUOUS
10
1.73783
20
1.42114
11
1.73783
21
1.45614
0
LINE
8
BLACK
6
CONTINUOUS
10
1.73783
20
1.45614
11
1.79283
21
1.45614
0
LINE
8
BLACK
6
CONTINUOUS
10
1.79283
20
1.45614
11
1.79283
21
1.42114
0
LINE
8
BLACK
6
CONTINUOUS
10
1.6797
20
1.43854
11
1.60096
21
1.43854
0
LINE
8
BLACK
6
CONTINUOUS
10
1.60096
20
1.43854
11
1.60096
21
1.46374
0
LINE
8
BLACK
6
CONTINUOUS
10
1.60096
20
1.46374
11
1.6797
21
1.46374
0
LINE
8
BLACK
6
CONTINUOUS
10
1.6797
20
1.46374
11
1.6797
21
1.43854
0
LINE
8
BLACK
6
CONTINUOUS
10
1.43166
20
1.43854
11
1.35292
21
1.43854
0
LINE
8
BLACK
6
CONTINUOUS
10
1.35292
20
1.43854
11
1.35292
21
1.46374
0
LINE
8
BLACK
6
CONTINUOUS
10
1.35292
20
1.46374
11
1.43166
21
1.46374
0
LINE
8
BLACK
6
CONTINUOUS
10
1.43166
20
1.46374
11
1.43166
21
1.43854
0
LINE
8
BLACK
6
CONTINUOUS
10
1.31396
20
1.52364
11
1.25896
21
1.52364
0
LINE
8
BLACK
6
CONTINUOUS
10
1.25896
20
1.52364
11
1.25896
21
1.55864
0
LINE
8
BLACK
6
CONTINUOUS
10
1.25896
20
1.55864
11
1.31396
21
1.55864
0
LINE
8
BLACK
6
CONTINUOUS
10
1.31396
20
1.55864
11
1.31396
21
1.52364
0
LINE
8
BLACK
6
CONTINUOUS
10
1.11646
20
1.53364
11
1.08146
21
1.53364
0
LINE
8
BLACK
6
CONTINUOUS
10
1.08146
20
1.53364
11
1.08146
21
1.58864
0
LINE
8
BLACK
6
CONTINUOUS
10
1.08146
20
1.58864
11
1.11646
21
1.58864
0
LINE
8
BLACK
6
CONTINUOUS
10
1.11646
20
1.58864
11
1.11646
21
1.53364
0
LINE
8
BLACK
6
CONTINUOUS
10
1.19146
20
1.53364
11
1.15646
21
1.53364
0
LINE
8
BLACK
6
CONTINUOUS
10
1.15646
20
1.53364
11
1.15646
21
1.58864
0
LINE
8
BLACK
6
CONTINUOUS
10
1.15646
20
1.58864
11
1.19146
21
1.58864
0
LINE
8
BLACK
6
CONTINUOUS
10
1.19146
20
1.58864
11
1.19146
21
1.53364
0
LINE
8
BLACK
6
CONTINUOUS
10
0.633386
20
1.61801
11
0.634405
21
1.6181
0
LINE
8
BLACK
6
CONTINUOUS
10
0.634405
20
1.6181
11
0.63769
21
1.61689
0
LINE
8
BLACK
6
CONTINUOUS
10
0.63769
20
1.61689
11
0.640124
21
1.61437
0
LINE
8
BLACK
6
CONTINUOUS
10
0.640124
20
1.61437
11
0.641224
21
1.61105
0
LINE
8
BLACK
6
CONTINUOUS
10
0.641224
20
1.61105
11
0.640774
21
1.60757
0
LINE
8
BLACK
6
CONTINUOUS
10
0.640774
20
1.60757
11
0.640525
21
1.60719
0
LINE
8
BLACK
6
CONTINUOUS
10
0.640525
20
1.60719
11
0.638506
21
1.6002
0
LINE
8
BLACK
6
CONTINUOUS
10
0.638506
20
1.6002
11
0.637419
21
1.59254
0
LINE
8
BLACK
6
CONTINUOUS
10
0.637419
20
1.59254
11
0.637414
21
1.58481
0
LINE
8
BLACK
6
CONTINUOUS
10
0.637414
20
1.58481
11
0.638491
21
1.57715
0
LINE
8
BLACK
6
CONTINUOUS
10
0.638491
20
1.57715
11
0.640506
21
1.57014
0
LINE
8
BLACK
6
CONTINUOUS
10
0.640506
20
1.57014
11
0.640759
21
1.56975
0
LINE
8
BLACK
6
CONTINUOUS
10
0.640759
20
1.56975
11
0.641193
21
1.56628
0
LINE
8
BLACK
6
CONTINUOUS
10
0.641193
20
1.56628
11
0.640077
21
1.56296
0
LINE
8
BLACK
6
CONTINUOUS
10
0.640077
20
1.56296
11
0.637631
21
1.56045
0
LINE
8
BLACK
6
CONTINUOUS
10
0.637631
20
1.56045
11
0.63434
21
1.55925
0
LINE
8
BLACK
6
CONTINUOUS
10
0.63434
20
1.55925
11
0.633386
21
1.55935
0
LINE
8
BLACK
6
CONTINUOUS
10
0.633386
20
1.55935
11
0.633386
21
1.55911
0
LINE
8
BLACK
6
CONTINUOUS
10
0.633386
20
1.55911
11
0.592047
21
1.55911
0
LINE
8
BLACK
6
CONTINUOUS
10
0.592047
20
1.55911
11
0.592047
21
1.61817
0
LINE
8
BLACK
6
CONTINUOUS
10
0.592047
20
1.61817
11
0.633386
21
1.61817
0
LINE
8
BLACK
6
CONTINUOUS
10
0.633386
20
1.61817
11
0.633386
21
1.61801
0
LINE
8
BLACK
6
CONTINUOUS
10
0.792835
20
1.55911
11
0.751496
21
1.55911
0
LINE
8
BLACK
6
CONTINUOUS
10
0.751496
20
1.55911
11
0.751496
21
1.55928
0
LINE
8
BLACK
6
CONTINUOUS
10
0.751496
20
1.55928
11
0.750477
21
1.55918
0
LINE
8
BLACK
6
CONTINUOUS
10
0.750477
20
1.55918
11
0.747192
21
1.56039
0
LINE
8
BLACK
6
CONTINUOUS
10
0.747192
20
1.56039
11
0.744758
21
1.56291
0
LINE
8
BLACK
6
CONTINUOUS
10
0.744758
20
1.56291
11
0.743658
21
1.56624
0
LINE
8
BLACK
6
CONTINUOUS
10
0.743658
20
1.56624
11
0.744108
21
1.56971
0
LINE
8
BLACK
6
CONTINUOUS
10
0.744108
20
1.56971
11
0.744357
21
1.57009
0
LINE
8
BLACK
6
CONTINUOUS
10
0.744357
20
1.57009
11
0.746376
21
1.57708
0
LINE
8
BLACK
6
CONTINUOUS
10
0.746376
20
1.57708
11
0.747463
21
1.58474
0
LINE
8
BLACK
6
CONTINUOUS
10
0.747463
20
1.58474
11
0.747468
21
1.59247
0
LINE
8
BLACK
6
CONTINUOUS
10
0.747468
20
1.59247
11
0.746391
21
1.60013
0
LINE
8
BLACK
6
CONTINUOUS
10
0.746391
20
1.60013
11
0.744376
21
1.60714
0
LINE
8
BLACK
6
CONTINUOUS
10
0.744376
20
1.60714
11
0.744123
21
1.60753
0
LINE
8
BLACK
6
CONTINUOUS
10
0.744123
20
1.60753
11
0.743689
21
1.61101
0
LINE
8
BLACK
6
CONTINUOUS
10
0.743689
20
1.61101
11
0.744805
21
1.61433
0
LINE
8
BLACK
6
CONTINUOUS
10
0.744805
20
1.61433
11
0.747251
21
1.61683
0
LINE
8
BLACK
6
CONTINUOUS
10
0.747251
20
1.61683
11
0.750542
21
1.61803
0
LINE
8
BLACK
6
CONTINUOUS
10
0.750542
20
1.61803
11
0.751496
21
1.61794
0
LINE
8
BLACK
6
CONTINUOUS
10
0.751496
20
1.61794
11
0.751496
21
1.61817
0
LINE
8
BLACK
6
CONTINUOUS
10
0.751496
20
1.61817
11
0.792835
21
1.61817
0
LINE
8
BLACK
6
CONTINUOUS
10
0.792835
20
1.61817
11
0.792835
21
1.55911
0
LINE
8
BLACK
6
CONTINUOUS
10
1.31396
20
1.59864
11
1.25896
21
1.59864
0
LINE
8
BLACK
6
CONTINUOUS
10
1.25896
20
1.59864
11
1.25896
21
1.63364
0
LINE
8
BLACK
6
CONTINUOUS
10
1.25896
20
1.63364
11
1.31396
21
1.63364
0
LINE
8
BLACK
6
CONTINUOUS
10
1.31396
20
1.63364
11
1.31396
21
1.59864
0
LINE
8
BLACK
6
CONTINUOUS
10
1.66883
20
1.65229
11
1.59009
21
1.65229
0
LINE
8
BLACK
6
CONTINUOUS
10
1.59009
20
1.65229
11
1.59009
21
1.67749
0
LINE
8
BLACK
6
CONTINUOUS
10
1.59009
20
1.67749
11
1.66883
21
1.67749
0
LINE
8
BLACK
6
CONTINUOUS
10
1.66883
20
1.67749
11
1.66883
21
1.65229
0
LINE
8
BLACK
6
CONTINUOUS
10
1.4208
20
1.65229
11
1.34206
21
1.65229
0
LINE
8
BLACK
6
CONTINUOUS
10
1.34206
20
1.65229
11
1.34206
21
1.67749
0
LINE
8
BLACK
6
CONTINUOUS
10
1.34206
20
1.67749
11
1.4208
21
1.67749
0
LINE
8
BLACK
6
CONTINUOUS
10
1.4208
20
1.67749
11
1.4208
21
1.65229
0
LINE
8
BLACK
6
CONTINUOUS
10
1.78295
20
1.65989
11
1.72795
21
1.65989
0
LINE
8
BLACK
6
CONTINUOUS
10
1.72795
20
1.65989
11
1.72795
21
1.69489
0
LINE
8
BLACK
6
CONTINUOUS
10
1.72795
20
1.69489
11
1.78295
21
1.69489
0
LINE
8
BLACK
6
CONTINUOUS
10
1.78295
20
1.69489
11
1.78295
21
1.65989
0
LINE
8
BLACK
6
CONTINUOUS
10
1.18443
20
1.73571
11
1.18763
21
1.73357
0
LINE
8
BLACK
6
CONTINUOUS
10
1.18763
20
1.73357
11
1.18976
21
1.73038
0
LINE
8
BLACK
6
CONTINUOUS
10
1.18976
20
1.73038
11
1.19051
21
1.72661
0
LINE
8
BLACK
6
CONTINUOUS
10
1.19051
20
1.72661
11
1.19051
21
1.68921
0
LINE
8
BLACK
6
CONTINUOUS
10
1.19051
20
1.68921
11
1.18976
21
1.68545
0
LINE
8
BLACK
6
CONTINUOUS
10
1.18976
20
1.68545
11
1.18763
21
1.68225
0
LINE
8
BLACK
6
CONTINUOUS
10
1.18763
20
1.68225
11
1.18443
21
1.68012
0
LINE
8
BLACK
6
CONTINUOUS
10
1.18443
20
1.68012
11
1.18067
21
1.67937
0
LINE
8
BLACK
6
CONTINUOUS
10
1.18067
20
1.67937
11
1.16098
21
1.67937
0
LINE
8
BLACK
6
CONTINUOUS
10
1.16098
20
1.67937
11
1.15721
21
1.68012
0
LINE
8
BLACK
6
CONTINUOUS
10
1.15721
20
1.68012
11
1.15402
21
1.68225
0
LINE
8
BLACK
6
CONTINUOUS
10
1.15402
20
1.68225
11
1.15189
21
1.68545
0
LINE
8
BLACK
6
CONTINUOUS
10
1.15189
20
1.68545
11
1.15114
21
1.68921
0
LINE
8
BLACK
6
CONTINUOUS
10
1.15114
20
1.68921
11
1.15114
21
1.72661
0
LINE
8
BLACK
6
CONTINUOUS
10
1.15114
20
1.72661
11
1.15189
21
1.73038
0
LINE
8
BLACK
6
CONTINUOUS
10
1.15189
20
1.73038
11
1.15402
21
1.73357
0
LINE
8
BLACK
6
CONTINUOUS
10
1.15402
20
1.73357
11
1.15721
21
1.73571
0
LINE
8
BLACK
6
CONTINUOUS
10
1.15721
20
1.73571
11
1.16098
21
1.73646
0
LINE
8
BLACK
6
CONTINUOUS
10
1.16098
20
1.73646
11
1.18067
21
1.73646
0
LINE
8
BLACK
6
CONTINUOUS
10
1.18067
20
1.73646
11
1.18443
21
1.73571
0
LINE
8
BLACK
6
CONTINUOUS
10
1.10963
20
1.73571
11
1.11282
21
1.73357
0
LINE
8
BLACK
6
CONTINUOUS
10
1.11282
20
1.73357
11
1.11496
21
1.73038
0
LINE
8
BLACK
6
CONTINUOUS
10
1.11496
20
1.73038
11
1.1157
21
1.72661
0
LINE
8
BLACK
6
CONTINUOUS
10
1.1157
20
1.72661
11
1.1157
21
1.68921
0
LINE
8
BLACK
6
CONTINUOUS
10
1.1157
20
1.68921
11
1.11496
21
1.68545
0
LINE
8
BLACK
6
CONTINUOUS
10
1.11496
20
1.68545
11
1.11282
21
1.68225
0
LINE
8
BLACK
6
CONTINUOUS
10
1.11282
20
1.68225
11
1.10963
21
1.68012
0
LINE
8
BLACK
6
CONTINUOUS
10
1.10963
20
1.68012
11
1.10586
21
1.67937
0
LINE
8
BLACK
6
CONTINUOUS
10
1.10586
20
1.67937
11
1.08618
21
1.67937
0
LINE
8
BLACK
6
CONTINUOUS
10
1.08618
20
1.67937
11
1.08241
21
1.68012
0
LINE
8
BLACK
6
CONTINUOUS
10
1.08241
20
1.68012
11
1.07922
21
1.68225
0
LINE
8
BLACK
6
CONTINUOUS
10
1.07922
20
1.68225
11
1.07708
21
1.68545
0
LINE
8
BLACK
6
CONTINUOUS
10
1.07708
20
1.68545
11
1.07633
21
1.68921
0
LINE
8
BLACK
6
CONTINUOUS
10
1.07633
20
1.68921
11
1.07633
21
1.72661
0
LINE
8
BLACK
6
CONTINUOUS
10
1.07633
20
1.72661
11
1.07708
21
1.73038
0
LINE
8
BLACK
6
CONTINUOUS
10
1.07708
20
1.73038
11
1.07922
21
1.73357
0
LINE
8
BLACK
6
CONTINUOUS
10
1.07922
20
1.73357
11
1.08241
21
1.73571
0
LINE
8
BLACK
6
CONTINUOUS
10
1.08241
20
1.73571
11
1.08618
21
1.73646
0
LINE
8
BLACK
6
CONTINUOUS
10
1.08618
20
1.73646
11
1.10586
21
1.73646
0
LINE
8
BLACK
6
CONTINUOUS
10
1.10586
20
1.73646
11
1.10963
21
1.73571
0
LINE
8
BLACK
6
CONTINUOUS
10
1.78295
20
1.73489
11
1.72795
21
1.73489
0
LINE
8
BLACK
6
CONTINUOUS
10
1.72795
20
1.73489
11
1.72795
21
1.76989
0
LINE
8
BLACK
6
CONTINUOUS
10
1.72795
20
1.76989
11
1.78295
21
1.76989
0
LINE
8
BLACK
6
CONTINUOUS
10
1.78295
20
1.76989
11
1.78295
21
1.73489
0
LINE
8
BLACK
6
CONTINUOUS
10
1.66883
20
1.75229
11
1.59009
21
1.75229
0
LINE
8
BLACK
6
CONTINUOUS
10
1.59009
20
1.75229
11
1.59009
21
1.77749
0
LINE
8
BLACK
6
CONTINUOUS
10
1.59009
20
1.77749
11
1.66883
21
1.77749
0
LINE
8
BLACK
6
CONTINUOUS
10
1.66883
20
1.77749
11
1.66883
21
1.75229
0
LINE
8
BLACK
6
CONTINUOUS
10
1.4208
20
1.75229
11
1.34206
21
1.75229
0
LINE
8
BLACK
6
CONTINUOUS
10
1.34206
20
1.75229
11
1.34206
21
1.77749
0
LINE
8
BLACK
6
CONTINUOUS
10
1.34206
20
1.77749
11
1.4208
21
1.77749
0
LINE
8
BLACK
6
CONTINUOUS
10
1.4208
20
1.77749
11
1.4208
21
1.75229
0
LINE
8
BLACK
6
CONTINUOUS
10
1.08567
20
1.82071
11
0.987244
21
1.82071
0
LINE
8
BLACK
6
CONTINUOUS
10
0.987244
20
1.82071
11
0.987244
21
1.89157
0
LINE
8
BLACK
6
CONTINUOUS
10
0.987244
20
1.89157
11
1.08567
21
1.89157
0
LINE
8
BLACK
6
CONTINUOUS
10
1.08567
20
1.89157
11
1.08567
21
1.82071
0
LINE
8
BLACK
6
CONTINUOUS
10
1.24315
20
1.82071
11
1.14472
21
1.82071
0
LINE
8
BLACK
6
CONTINUOUS
10
1.14472
20
1.82071
11
1.14472
21
1.89157
0
LINE
8
BLACK
6
CONTINUOUS
10
1.14472
20
1.89157
11
1.24315
21
1.89157
0
LINE
8
BLACK
6
CONTINUOUS
10
1.24315
20
1.89157
11
1.24315
21
1.82071
  0
ENDSEC
  0
EOF
