  0
SECTION
  2
HEADER
  9
$ANGBASE
  50
0.0
  9
$ANGDIR
  70
1
  9
$MEASUREMENT
  70
0
  0
ENDSEC
  0
SECTION
  2
TABLES
  0
TABLE
  2
LTYPE
  70
4
  0
LTYPE
  5
40F
  2
CONTINUOUS
  70
0
  3
Solid line
  72
65
  73
0
  40
0.0
  0
LTYPE
  5
410
  2
DASHDOT
 70
0
  3
Dash Dot ____ _ ____ _
 72
65
 73
4
 40
2.0
 49
1.25
 49
-0.25
 49
0.25
 49
-0.25
  0
LTYPE
  5
411
  2
DASHED
 70
0
  3
Dashed __ __ __ __ __
 72
65
 73
2
 40
0.75
 49
0.5
 49
-0.25
  0
LTYPE
  5
43B
  2
DOTTED
 70
0
  3
Dotted .  .  .  .
 72
65
 73
2
 40
0.2
 49
0.0
 49
-0.2
  0
ENDTAB
  0
TABLE
  2
STYLE
  70
4
  0
STYLE
  2
KICAD
  70
0
  40
0
  41
1
  42
1
  50
0
  71
0
  3
isocp.shx
  0
STYLE
  2
KICADB
  70
0
  40
0
  41
1
  42
1
  50
0
  71
0
  3
isocp.shx
  0
STYLE
  2
KICADI
  70
0
  40
0
  41
1
  42
1
  50
15
  71
0
  3
isocp.shx
  0
STYLE
  2
KICADBI
  70
0
  40
0
  41
1
  42
1
  50
15
  71
0
  3
isocp.shx
  0
ENDTAB
  0
TABLE
  2
LAYER
  70
1
  0
LAYER
  2
BLACK
  70
0
  62
7
  6
CONTINUOUS
  0
ENDTAB
  0
ENDSEC
  0
SECTION
  2
ENTITIES
0
LINE
8
BLACK
6
CONTINUOUS
10
3.89497
20
0.606784
11
3.89469
21
0.60748
0
LINE
8
BLACK
6
CONTINUOUS
10
3.89469
20
0.60748
11
3.89469
21
0.745276
0
LINE
8
BLACK
6
CONTINUOUS
10
3.89469
20
0.745276
11
3.89497
21
0.745972
0
LINE
8
BLACK
6
CONTINUOUS
10
3.89497
20
0.745972
11
3.89567
21
0.74626
0
LINE
8
BLACK
6
CONTINUOUS
10
3.89567
20
0.74626
11
4.30512
21
0.74626
0
LINE
8
BLACK
6
CONTINUOUS
10
4.30512
20
0.74626
11
4.30581
21
0.745972
0
LINE
8
BLACK
6
CONTINUOUS
10
4.30581
20
0.745972
11
4.3061
21
0.745276
0
LINE
8
BLACK
6
CONTINUOUS
10
4.3061
20
0.745276
11
4.3061
21
0.60748
0
LINE
8
BLACK
6
CONTINUOUS
10
4.3061
20
0.60748
11
4.30581
21
0.606784
0
LINE
8
BLACK
6
CONTINUOUS
10
4.30581
20
0.606784
11
4.30512
21
0.606496
0
LINE
8
BLACK
6
CONTINUOUS
10
4.30512
20
0.606496
11
3.89567
21
0.606496
0
LINE
8
BLACK
6
CONTINUOUS
10
3.89567
20
0.606496
11
3.89497
21
0.606784
0
LINE
8
BLACK
6
CONTINUOUS
10
3.89665
20
0.744291
11
3.89665
21
0.608465
0
LINE
8
BLACK
6
CONTINUOUS
10
3.89665
20
0.608465
11
4.30413
21
0.608465
0
LINE
8
BLACK
6
CONTINUOUS
10
4.30413
20
0.608465
11
4.30413
21
0.744291
0
LINE
8
BLACK
6
CONTINUOUS
10
4.30413
20
0.744291
11
3.89665
21
0.744291
0
LINE
8
BLACK
6
CONTINUOUS
10
3.35049
20
0.993399
11
3.3502
21
0.994094
0
LINE
8
BLACK
6
CONTINUOUS
10
3.3502
20
0.994094
11
3.3502
21
1.13189
0
LINE
8
BLACK
6
CONTINUOUS
10
3.3502
20
1.13189
11
3.35049
21
1.13259
0
LINE
8
BLACK
6
CONTINUOUS
10
3.35049
20
1.13259
11
3.35118
21
1.13287
0
LINE
8
BLACK
6
CONTINUOUS
10
3.35118
20
1.13287
11
3.76063
21
1.13287
0
LINE
8
BLACK
6
CONTINUOUS
10
3.76063
20
1.13287
11
3.76133
21
1.13259
0
LINE
8
BLACK
6
CONTINUOUS
10
3.76133
20
1.13259
11
3.76161
21
1.13189
0
LINE
8
BLACK
6
CONTINUOUS
10
3.76161
20
1.13189
11
3.76161
21
0.994094
0
LINE
8
BLACK
6
CONTINUOUS
10
3.76161
20
0.994094
11
3.76133
21
0.993399
0
LINE
8
BLACK
6
CONTINUOUS
10
3.76133
20
0.993399
11
3.76063
21
0.99311
0
LINE
8
BLACK
6
CONTINUOUS
10
3.76063
20
0.99311
11
3.35118
21
0.99311
0
LINE
8
BLACK
6
CONTINUOUS
10
3.35118
20
0.99311
11
3.35049
21
0.993399
0
LINE
8
BLACK
6
CONTINUOUS
10
3.35217
20
1.13091
11
3.35217
21
0.995079
0
LINE
8
BLACK
6
CONTINUOUS
10
3.35217
20
0.995079
11
3.75965
21
0.995079
0
LINE
8
BLACK
6
CONTINUOUS
10
3.75965
20
0.995079
11
3.75965
21
1.13091
0
LINE
8
BLACK
6
CONTINUOUS
10
3.75965
20
1.13091
11
3.35217
21
1.13091
  0
ENDSEC
  0
EOF
