  0
SECTION
  2
HEADER
  9
$ANGBASE
  50
0.0
  9
$ANGDIR
  70
1
  9
$MEASUREMENT
  70
0
  0
ENDSEC
  0
SECTION
  2
TABLES
  0
TABLE
  2
LTYPE
  70
4
  0
LTYPE
  5
40F
  2
CONTINUOUS
  70
0
  3
Solid line
  72
65
  73
0
  40
0.0
  0
LTYPE
  5
410
  2
DASHDOT
 70
0
  3
Dash Dot ____ _ ____ _
 72
65
 73
4
 40
2.0
 49
1.25
 49
-0.25
 49
0.25
 49
-0.25
  0
LTYPE
  5
411
  2
DASHED
 70
0
  3
Dashed __ __ __ __ __
 72
65
 73
2
 40
0.75
 49
0.5
 49
-0.25
  0
LTYPE
  5
43B
  2
DOTTED
 70
0
  3
Dotted .  .  .  .
 72
65
 73
2
 40
0.2
 49
0.0
 49
-0.2
  0
ENDTAB
  0
TABLE
  2
STYLE
  70
4
  0
STYLE
  2
KICAD
  70
0
  40
0
  41
1
  42
1
  50
0
  71
0
  3
isocp.shx
  0
STYLE
  2
KICADB
  70
0
  40
0
  41
1
  42
1
  50
0
  71
0
  3
isocp.shx
  0
STYLE
  2
KICADI
  70
0
  40
0
  41
1
  42
1
  50
15
  71
0
  3
isocp.shx
  0
STYLE
  2
KICADBI
  70
0
  40
0
  41
1
  42
1
  50
15
  71
0
  3
isocp.shx
  0
ENDTAB
  0
TABLE
  2
LAYER
  70
1
  0
LAYER
  2
BLACK
  70
0
  62
7
  6
CONTINUOUS
  0
ENDTAB
  0
ENDSEC
  0
SECTION
  2
ENTITIES
0
LINE
8
BLACK
6
CONTINUOUS
10
0.0451069
20
-1.20607
11
0.0585883
21
-1.20784
0
LINE
8
BLACK
6
CONTINUOUS
10
0.0585883
20
-1.20784
11
0.0717765
21
-1.21115
0
LINE
8
BLACK
6
CONTINUOUS
10
0.0717765
20
-1.21115
11
0.0844965
21
-1.21596
0
LINE
8
BLACK
6
CONTINUOUS
10
0.0844965
20
-1.21596
11
0.0965797
21
-1.2222
0
LINE
8
BLACK
6
CONTINUOUS
10
0.0965797
20
-1.2222
11
0.107866
21
-1.22978
0
LINE
8
BLACK
6
CONTINUOUS
10
0.107866
20
-1.22978
11
0.118206
21
-1.23861
0
LINE
8
BLACK
6
CONTINUOUS
10
0.118206
20
-1.23861
11
0.127462
21
-1.24857
0
LINE
8
BLACK
6
CONTINUOUS
10
0.127462
20
-1.24857
11
0.135512
21
-1.25953
0
LINE
8
BLACK
6
CONTINUOUS
10
0.135512
20
-1.25953
11
0.142249
21
-1.27134
0
LINE
8
BLACK
6
CONTINUOUS
10
0.142249
20
-1.27134
11
0.147584
21
-1.28385
0
LINE
8
BLACK
6
CONTINUOUS
10
0.147584
20
-1.28385
11
0.151446
21
-1.29689
0
LINE
8
BLACK
6
CONTINUOUS
10
0.151446
20
-1.29689
11
0.153784
21
-1.31028
0
LINE
8
BLACK
6
CONTINUOUS
10
0.153784
20
-1.31028
11
0.154567
21
-1.32386
0
LINE
8
BLACK
6
CONTINUOUS
10
0.154567
20
-1.32386
11
0.154334
21
-1.33127
0
LINE
8
BLACK
6
CONTINUOUS
10
0.154334
20
-1.33127
11
0.1527
21
-1.34477
0
LINE
8
BLACK
6
CONTINUOUS
10
0.1527
20
-1.34477
11
0.149526
21
-1.358
0
LINE
8
BLACK
6
CONTINUOUS
10
0.149526
20
-1.358
11
0.144853
21
-1.37077
0
LINE
8
BLACK
6
CONTINUOUS
10
0.144853
20
-1.37077
11
0.138743
21
-1.38291
0
LINE
8
BLACK
6
CONTINUOUS
10
0.138743
20
-1.38291
11
0.131278
21
-1.39428
0
LINE
8
BLACK
6
CONTINUOUS
10
0.131278
20
-1.39428
11
0.122555
21
-1.40471
0
LINE
8
BLACK
6
CONTINUOUS
10
0.122555
20
-1.40471
11
0.112692
21
-1.41407
0
LINE
8
BLACK
6
CONTINUOUS
10
0.112692
20
-1.41407
11
0.101818
21
-1.42223
0
LINE
8
BLACK
6
CONTINUOUS
10
0.101818
20
-1.42223
11
0.0900776
21
-1.4291
0
LINE
8
BLACK
6
CONTINUOUS
10
0.0900776
20
-1.4291
11
0.0776266
21
-1.43456
0
LINE
8
BLACK
6
CONTINUOUS
10
0.0776266
20
-1.43456
11
0.0646299
21
-1.43856
0
LINE
8
BLACK
6
CONTINUOUS
10
0.0646299
20
-1.43856
11
0.0512598
21
-1.44104
0
LINE
8
BLACK
6
CONTINUOUS
10
0.0512598
20
-1.44104
11
0.0376935
21
-1.44196
0
LINE
8
BLACK
6
CONTINUOUS
10
0.0376935
20
-1.44196
11
0.0241108
21
-1.44132
0
LINE
8
BLACK
6
CONTINUOUS
10
0.0241108
20
-1.44132
11
0.0106917
21
-1.43912
0
LINE
8
BLACK
6
CONTINUOUS
10
0.0106917
20
-1.43912
11
-0.00238583
21
-1.4354
0
LINE
8
BLACK
6
CONTINUOUS
10
-0.00238583
20
-1.4354
11
-0.0149485
21
-1.4302
0
LINE
8
BLACK
6
CONTINUOUS
10
-0.0149485
20
-1.4302
11
-0.0268299
21
-1.42358
0
LINE
8
BLACK
6
CONTINUOUS
10
-0.0268299
20
-1.42358
11
-0.0378725
21
-1.41565
0
LINE
8
BLACK
6
CONTINUOUS
10
-0.0378725
20
-1.41565
11
-0.0479298
21
-1.4065
0
LINE
8
BLACK
6
CONTINUOUS
10
-0.0479298
20
-1.4065
11
-0.0568687
21
-1.39625
0
LINE
8
BLACK
6
CONTINUOUS
10
-0.0568687
20
-1.39625
11
-0.0645706
21
-1.38504
0
LINE
8
BLACK
6
CONTINUOUS
10
-0.0645706
20
-1.38504
11
-0.0709334
21
-1.37303
0
LINE
8
BLACK
6
CONTINUOUS
10
-0.0709334
20
-1.37303
11
-0.0758728
21
-1.36036
0
LINE
8
BLACK
6
CONTINUOUS
10
-0.0758728
20
-1.36036
11
-0.0793234
21
-1.3472
0
LINE
8
BLACK
6
CONTINUOUS
10
-0.0793234
20
-1.3472
11
-0.0812393
21
-1.33374
0
LINE
8
BLACK
6
CONTINUOUS
10
-0.0812393
20
-1.33374
11
-0.0815953
21
-1.32015
0
LINE
8
BLACK
6
CONTINUOUS
10
-0.0815953
20
-1.32015
11
-0.0803865
21
-1.3066
0
LINE
8
BLACK
6
CONTINUOUS
10
-0.0803865
20
-1.3066
11
-0.077629
21
-1.29329
0
LINE
8
BLACK
6
CONTINUOUS
10
-0.077629
20
-1.29329
11
-0.0733594
21
-1.28038
0
LINE
8
BLACK
6
CONTINUOUS
10
-0.0733594
20
-1.28038
11
-0.0676343
21
-1.26805
0
LINE
8
BLACK
6
CONTINUOUS
10
-0.0676343
20
-1.26805
11
-0.0605294
21
-1.25645
0
LINE
8
BLACK
6
CONTINUOUS
10
-0.0605294
20
-1.25645
11
-0.0521391
21
-1.24575
0
LINE
8
BLACK
6
CONTINUOUS
10
-0.0521391
20
-1.24575
11
-0.0425745
21
-1.23609
0
LINE
8
BLACK
6
CONTINUOUS
10
-0.0425745
20
-1.23609
11
-0.0319624
21
-1.22758
0
LINE
8
BLACK
6
CONTINUOUS
10
-0.0319624
20
-1.22758
11
-0.0204433
21
-1.22036
0
LINE
8
BLACK
6
CONTINUOUS
10
-0.0204433
20
-1.22036
11
-0.00817016
21
-1.2145
0
LINE
8
BLACK
6
CONTINUOUS
10
-0.00817016
20
-1.2145
11
0.00469453
21
-1.2101
0
LINE
8
BLACK
6
CONTINUOUS
10
0.00469453
20
-1.2101
11
0.0179802
21
-1.2072
0
LINE
8
BLACK
6
CONTINUOUS
10
0.0179802
20
-1.2072
11
0.0315107
21
-1.20585
0
LINE
8
BLACK
6
CONTINUOUS
10
0.0315107
20
-1.20585
11
0.0451069
21
-1.20607
0
LINE
8
BLACK
6
CONTINUOUS
10
2.84511
20
-1.20607
11
2.85859
21
-1.20784
0
LINE
8
BLACK
6
CONTINUOUS
10
2.85859
20
-1.20784
11
2.87178
21
-1.21115
0
LINE
8
BLACK
6
CONTINUOUS
10
2.87178
20
-1.21115
11
2.8845
21
-1.21596
0
LINE
8
BLACK
6
CONTINUOUS
10
2.8845
20
-1.21596
11
2.89658
21
-1.2222
0
LINE
8
BLACK
6
CONTINUOUS
10
2.89658
20
-1.2222
11
2.90787
21
-1.22978
0
LINE
8
BLACK
6
CONTINUOUS
10
2.90787
20
-1.22978
11
2.91821
21
-1.23861
0
LINE
8
BLACK
6
CONTINUOUS
10
2.91821
20
-1.23861
11
2.92746
21
-1.24857
0
LINE
8
BLACK
6
CONTINUOUS
10
2.92746
20
-1.24857
11
2.93551
21
-1.25953
0
LINE
8
BLACK
6
CONTINUOUS
10
2.93551
20
-1.25953
11
2.94225
21
-1.27134
0
LINE
8
BLACK
6
CONTINUOUS
10
2.94225
20
-1.27134
11
2.94758
21
-1.28385
0
LINE
8
BLACK
6
CONTINUOUS
10
2.94758
20
-1.28385
11
2.95145
21
-1.29689
0
LINE
8
BLACK
6
CONTINUOUS
10
2.95145
20
-1.29689
11
2.95378
21
-1.31028
0
LINE
8
BLACK
6
CONTINUOUS
10
2.95378
20
-1.31028
11
2.95457
21
-1.32386
0
LINE
8
BLACK
6
CONTINUOUS
10
2.95457
20
-1.32386
11
2.95433
21
-1.33127
0
LINE
8
BLACK
6
CONTINUOUS
10
2.95433
20
-1.33127
11
2.9527
21
-1.34477
0
LINE
8
BLACK
6
CONTINUOUS
10
2.9527
20
-1.34477
11
2.94953
21
-1.358
0
LINE
8
BLACK
6
CONTINUOUS
10
2.94953
20
-1.358
11
2.94485
21
-1.37077
0
LINE
8
BLACK
6
CONTINUOUS
10
2.94485
20
-1.37077
11
2.93874
21
-1.38291
0
LINE
8
BLACK
6
CONTINUOUS
10
2.93874
20
-1.38291
11
2.93128
21
-1.39428
0
LINE
8
BLACK
6
CONTINUOUS
10
2.93128
20
-1.39428
11
2.92256
21
-1.40471
0
LINE
8
BLACK
6
CONTINUOUS
10
2.92256
20
-1.40471
11
2.91269
21
-1.41407
0
LINE
8
BLACK
6
CONTINUOUS
10
2.91269
20
-1.41407
11
2.90182
21
-1.42223
0
LINE
8
BLACK
6
CONTINUOUS
10
2.90182
20
-1.42223
11
2.89008
21
-1.4291
0
LINE
8
BLACK
6
CONTINUOUS
10
2.89008
20
-1.4291
11
2.87763
21
-1.43456
0
LINE
8
BLACK
6
CONTINUOUS
10
2.87763
20
-1.43456
11
2.86463
21
-1.43856
0
LINE
8
BLACK
6
CONTINUOUS
10
2.86463
20
-1.43856
11
2.85126
21
-1.44104
0
LINE
8
BLACK
6
CONTINUOUS
10
2.85126
20
-1.44104
11
2.83769
21
-1.44196
0
LINE
8
BLACK
6
CONTINUOUS
10
2.83769
20
-1.44196
11
2.82411
21
-1.44132
0
LINE
8
BLACK
6
CONTINUOUS
10
2.82411
20
-1.44132
11
2.81069
21
-1.43912
0
LINE
8
BLACK
6
CONTINUOUS
10
2.81069
20
-1.43912
11
2.79761
21
-1.4354
0
LINE
8
BLACK
6
CONTINUOUS
10
2.79761
20
-1.4354
11
2.78505
21
-1.4302
0
LINE
8
BLACK
6
CONTINUOUS
10
2.78505
20
-1.4302
11
2.77317
21
-1.42358
0
LINE
8
BLACK
6
CONTINUOUS
10
2.77317
20
-1.42358
11
2.76213
21
-1.41565
0
LINE
8
BLACK
6
CONTINUOUS
10
2.76213
20
-1.41565
11
2.75207
21
-1.4065
0
LINE
8
BLACK
6
CONTINUOUS
10
2.75207
20
-1.4065
11
2.74313
21
-1.39625
0
LINE
8
BLACK
6
CONTINUOUS
10
2.74313
20
-1.39625
11
2.73543
21
-1.38504
0
LINE
8
BLACK
6
CONTINUOUS
10
2.73543
20
-1.38504
11
2.72907
21
-1.37303
0
LINE
8
BLACK
6
CONTINUOUS
10
2.72907
20
-1.37303
11
2.72413
21
-1.36036
0
LINE
8
BLACK
6
CONTINUOUS
10
2.72413
20
-1.36036
11
2.72068
21
-1.3472
0
LINE
8
BLACK
6
CONTINUOUS
10
2.72068
20
-1.3472
11
2.71876
21
-1.33374
0
LINE
8
BLACK
6
CONTINUOUS
10
2.71876
20
-1.33374
11
2.7184
21
-1.32015
0
LINE
8
BLACK
6
CONTINUOUS
10
2.7184
20
-1.32015
11
2.71961
21
-1.3066
0
LINE
8
BLACK
6
CONTINUOUS
10
2.71961
20
-1.3066
11
2.72237
21
-1.29329
0
LINE
8
BLACK
6
CONTINUOUS
10
2.72237
20
-1.29329
11
2.72664
21
-1.28038
0
LINE
8
BLACK
6
CONTINUOUS
10
2.72664
20
-1.28038
11
2.73237
21
-1.26805
0
LINE
8
BLACK
6
CONTINUOUS
10
2.73237
20
-1.26805
11
2.73947
21
-1.25645
0
LINE
8
BLACK
6
CONTINUOUS
10
2.73947
20
-1.25645
11
2.74786
21
-1.24575
0
LINE
8
BLACK
6
CONTINUOUS
10
2.74786
20
-1.24575
11
2.75743
21
-1.23609
0
LINE
8
BLACK
6
CONTINUOUS
10
2.75743
20
-1.23609
11
2.76804
21
-1.22758
0
LINE
8
BLACK
6
CONTINUOUS
10
2.76804
20
-1.22758
11
2.77956
21
-1.22036
0
LINE
8
BLACK
6
CONTINUOUS
10
2.77956
20
-1.22036
11
2.79183
21
-1.2145
0
LINE
8
BLACK
6
CONTINUOUS
10
2.79183
20
-1.2145
11
2.80469
21
-1.2101
0
LINE
8
BLACK
6
CONTINUOUS
10
2.80469
20
-1.2101
11
2.81798
21
-1.2072
0
LINE
8
BLACK
6
CONTINUOUS
10
2.81798
20
-1.2072
11
2.83151
21
-1.20585
0
LINE
8
BLACK
6
CONTINUOUS
10
2.83151
20
-1.20585
11
2.84511
21
-1.20607
0
LINE
8
BLACK
6
CONTINUOUS
10
0.818307
20
-1.37264
11
0.668307
21
-1.37264
0
LINE
8
BLACK
6
CONTINUOUS
10
0.668307
20
-1.37264
11
0.668307
21
-1.22264
0
LINE
8
BLACK
6
CONTINUOUS
10
0.668307
20
-1.22264
11
0.818307
21
-1.22264
0
LINE
8
BLACK
6
CONTINUOUS
10
0.818307
20
-1.22264
11
0.818307
21
-1.37264
0
LINE
8
BLACK
6
CONTINUOUS
10
0.621457
20
-1.37264
11
0.471457
21
-1.37264
0
LINE
8
BLACK
6
CONTINUOUS
10
0.471457
20
-1.37264
11
0.471457
21
-1.22264
0
LINE
8
BLACK
6
CONTINUOUS
10
0.471457
20
-1.22264
11
0.621457
21
-1.22264
0
LINE
8
BLACK
6
CONTINUOUS
10
0.621457
20
-1.22264
11
0.621457
21
-1.37264
0
LINE
8
BLACK
6
CONTINUOUS
10
2.60646
20
-1.18386
11
2.54646
21
-1.18386
0
LINE
8
BLACK
6
CONTINUOUS
10
2.54646
20
-1.18386
11
2.54646
21
-1.12386
0
LINE
8
BLACK
6
CONTINUOUS
10
2.54646
20
-1.12386
11
2.60646
21
-1.12386
0
LINE
8
BLACK
6
CONTINUOUS
10
2.60646
20
-1.12386
11
2.60646
21
-1.18386
0
LINE
8
BLACK
6
CONTINUOUS
10
2.30646
20
-1.18386
11
2.24646
21
-1.18386
0
LINE
8
BLACK
6
CONTINUOUS
10
2.24646
20
-1.18386
11
2.24646
21
-1.12386
0
LINE
8
BLACK
6
CONTINUOUS
10
2.24646
20
-1.12386
11
2.30646
21
-1.12386
0
LINE
8
BLACK
6
CONTINUOUS
10
2.30646
20
-1.12386
11
2.30646
21
-1.18386
0
LINE
8
BLACK
6
CONTINUOUS
10
2.40646
20
-1.18386
11
2.34646
21
-1.18386
0
LINE
8
BLACK
6
CONTINUOUS
10
2.34646
20
-1.18386
11
2.34646
21
-1.12386
0
LINE
8
BLACK
6
CONTINUOUS
10
2.34646
20
-1.12386
11
2.40646
21
-1.12386
0
LINE
8
BLACK
6
CONTINUOUS
10
2.40646
20
-1.12386
11
2.40646
21
-1.18386
0
LINE
8
BLACK
6
CONTINUOUS
10
2.50646
20
-1.18386
11
2.44646
21
-1.18386
0
LINE
8
BLACK
6
CONTINUOUS
10
2.44646
20
-1.18386
11
2.44646
21
-1.12386
0
LINE
8
BLACK
6
CONTINUOUS
10
2.44646
20
-1.12386
11
2.50646
21
-1.12386
0
LINE
8
BLACK
6
CONTINUOUS
10
2.50646
20
-1.12386
11
2.50646
21
-1.18386
0
LINE
8
BLACK
6
CONTINUOUS
10
2.09771
20
-1.18136
11
2.03771
21
-1.18136
0
LINE
8
BLACK
6
CONTINUOUS
10
2.03771
20
-1.18136
11
2.03771
21
-1.12136
0
LINE
8
BLACK
6
CONTINUOUS
10
2.03771
20
-1.12136
11
2.09771
21
-1.12136
0
LINE
8
BLACK
6
CONTINUOUS
10
2.09771
20
-1.12136
11
2.09771
21
-1.18136
0
LINE
8
BLACK
6
CONTINUOUS
10
1.99771
20
-1.18136
11
1.93771
21
-1.18136
0
LINE
8
BLACK
6
CONTINUOUS
10
1.93771
20
-1.18136
11
1.93771
21
-1.12136
0
LINE
8
BLACK
6
CONTINUOUS
10
1.93771
20
-1.12136
11
1.99771
21
-1.12136
0
LINE
8
BLACK
6
CONTINUOUS
10
1.99771
20
-1.12136
11
1.99771
21
-1.18136
0
LINE
8
BLACK
6
CONTINUOUS
10
1.89771
20
-1.18136
11
1.83771
21
-1.18136
0
LINE
8
BLACK
6
CONTINUOUS
10
1.83771
20
-1.18136
11
1.83771
21
-1.12136
0
LINE
8
BLACK
6
CONTINUOUS
10
1.83771
20
-1.12136
11
1.89771
21
-1.12136
0
LINE
8
BLACK
6
CONTINUOUS
10
1.89771
20
-1.12136
11
1.89771
21
-1.18136
0
LINE
8
BLACK
6
CONTINUOUS
10
1.79771
20
-1.18136
11
1.73771
21
-1.18136
0
LINE
8
BLACK
6
CONTINUOUS
10
1.73771
20
-1.18136
11
1.73771
21
-1.12136
0
LINE
8
BLACK
6
CONTINUOUS
10
1.73771
20
-1.12136
11
1.79771
21
-1.12136
0
LINE
8
BLACK
6
CONTINUOUS
10
1.79771
20
-1.12136
11
1.79771
21
-1.18136
0
LINE
8
BLACK
6
CONTINUOUS
10
1.58646
20
-1.17886
11
1.52646
21
-1.17886
0
LINE
8
BLACK
6
CONTINUOUS
10
1.52646
20
-1.17886
11
1.52646
21
-1.11886
0
LINE
8
BLACK
6
CONTINUOUS
10
1.52646
20
-1.11886
11
1.58646
21
-1.11886
0
LINE
8
BLACK
6
CONTINUOUS
10
1.58646
20
-1.11886
11
1.58646
21
-1.17886
0
LINE
8
BLACK
6
CONTINUOUS
10
1.28646
20
-1.17886
11
1.22646
21
-1.17886
0
LINE
8
BLACK
6
CONTINUOUS
10
1.22646
20
-1.17886
11
1.22646
21
-1.11886
0
LINE
8
BLACK
6
CONTINUOUS
10
1.22646
20
-1.11886
11
1.28646
21
-1.11886
0
LINE
8
BLACK
6
CONTINUOUS
10
1.28646
20
-1.11886
11
1.28646
21
-1.17886
0
LINE
8
BLACK
6
CONTINUOUS
10
1.48646
20
-1.17886
11
1.42646
21
-1.17886
0
LINE
8
BLACK
6
CONTINUOUS
10
1.42646
20
-1.17886
11
1.42646
21
-1.11886
0
LINE
8
BLACK
6
CONTINUOUS
10
1.42646
20
-1.11886
11
1.48646
21
-1.11886
0
LINE
8
BLACK
6
CONTINUOUS
10
1.48646
20
-1.11886
11
1.48646
21
-1.17886
0
LINE
8
BLACK
6
CONTINUOUS
10
1.38646
20
-1.17886
11
1.32646
21
-1.17886
0
LINE
8
BLACK
6
CONTINUOUS
10
1.32646
20
-1.17886
11
1.32646
21
-1.11886
0
LINE
8
BLACK
6
CONTINUOUS
10
1.32646
20
-1.11886
11
1.38646
21
-1.11886
0
LINE
8
BLACK
6
CONTINUOUS
10
1.38646
20
-1.11886
11
1.38646
21
-1.17886
0
LINE
8
BLACK
6
CONTINUOUS
10
1.06569
20
-1.06652
11
1.07463
21
-1.06891
0
LINE
8
BLACK
6
CONTINUOUS
10
1.07463
20
-1.06891
11
1.08303
21
-1.07283
0
LINE
8
BLACK
6
CONTINUOUS
10
1.08303
20
-1.07283
11
1.09062
21
-1.07814
0
LINE
8
BLACK
6
CONTINUOUS
10
1.09062
20
-1.07814
11
1.09717
21
-1.08469
0
LINE
8
BLACK
6
CONTINUOUS
10
1.09717
20
-1.08469
11
1.10249
21
-1.09228
0
LINE
8
BLACK
6
CONTINUOUS
10
1.10249
20
-1.09228
11
1.1064
21
-1.10068
0
LINE
8
BLACK
6
CONTINUOUS
10
1.1064
20
-1.10068
11
1.1088
21
-1.10963
0
LINE
8
BLACK
6
CONTINUOUS
10
1.1088
20
-1.10963
11
1.10961
21
-1.11886
0
LINE
8
BLACK
6
CONTINUOUS
10
1.10961
20
-1.11886
11
1.1088
21
-1.12809
0
LINE
8
BLACK
6
CONTINUOUS
10
1.1088
20
-1.12809
11
1.1064
21
-1.13704
0
LINE
8
BLACK
6
CONTINUOUS
10
1.1064
20
-1.13704
11
1.10249
21
-1.14543
0
LINE
8
BLACK
6
CONTINUOUS
10
1.10249
20
-1.14543
11
1.09717
21
-1.15302
0
LINE
8
BLACK
6
CONTINUOUS
10
1.09717
20
-1.15302
11
1.09062
21
-1.15957
0
LINE
8
BLACK
6
CONTINUOUS
10
1.09062
20
-1.15957
11
1.08303
21
-1.16489
0
LINE
8
BLACK
6
CONTINUOUS
10
1.08303
20
-1.16489
11
1.07463
21
-1.1688
0
LINE
8
BLACK
6
CONTINUOUS
10
1.07463
20
-1.1688
11
1.06569
21
-1.1712
0
LINE
8
BLACK
6
CONTINUOUS
10
1.06569
20
-1.1712
11
1.05646
21
-1.17201
0
LINE
8
BLACK
6
CONTINUOUS
10
1.05646
20
-1.17201
11
1.04723
21
-1.1712
0
LINE
8
BLACK
6
CONTINUOUS
10
1.04723
20
-1.1712
11
1.03828
21
-1.1688
0
LINE
8
BLACK
6
CONTINUOUS
10
1.03828
20
-1.1688
11
1.02988
21
-1.16489
0
LINE
8
BLACK
6
CONTINUOUS
10
1.02988
20
-1.16489
11
1.02229
21
-1.15957
0
LINE
8
BLACK
6
CONTINUOUS
10
1.02229
20
-1.15957
11
1.01574
21
-1.15302
0
LINE
8
BLACK
6
CONTINUOUS
10
1.01574
20
-1.15302
11
1.01043
21
-1.14543
0
LINE
8
BLACK
6
CONTINUOUS
10
1.01043
20
-1.14543
11
1.00651
21
-1.13704
0
LINE
8
BLACK
6
CONTINUOUS
10
1.00651
20
-1.13704
11
1.00411
21
-1.12809
0
LINE
8
BLACK
6
CONTINUOUS
10
1.00411
20
-1.12809
11
1.00331
21
-1.11886
0
LINE
8
BLACK
6
CONTINUOUS
10
1.00331
20
-1.11886
11
1.00411
21
-1.10963
0
LINE
8
BLACK
6
CONTINUOUS
10
1.00411
20
-1.10963
11
1.00651
21
-1.10068
0
LINE
8
BLACK
6
CONTINUOUS
10
1.00651
20
-1.10068
11
1.01043
21
-1.09228
0
LINE
8
BLACK
6
CONTINUOUS
10
1.01043
20
-1.09228
11
1.01574
21
-1.08469
0
LINE
8
BLACK
6
CONTINUOUS
10
1.01574
20
-1.08469
11
1.02229
21
-1.07814
0
LINE
8
BLACK
6
CONTINUOUS
10
1.02229
20
-1.07814
11
1.02988
21
-1.07283
0
LINE
8
BLACK
6
CONTINUOUS
10
1.02988
20
-1.07283
11
1.03828
21
-1.06891
0
LINE
8
BLACK
6
CONTINUOUS
10
1.03828
20
-1.06891
11
1.04723
21
-1.06652
0
LINE
8
BLACK
6
CONTINUOUS
10
1.04723
20
-1.06652
11
1.05646
21
-1.06571
0
LINE
8
BLACK
6
CONTINUOUS
10
1.05646
20
-1.06571
11
1.06569
21
-1.06652
0
LINE
8
BLACK
6
CONTINUOUS
10
0.818307
20
-1.16764
11
0.668307
21
-1.16764
0
LINE
8
BLACK
6
CONTINUOUS
10
0.668307
20
-1.16764
11
0.668307
21
-1.01764
0
LINE
8
BLACK
6
CONTINUOUS
10
0.668307
20
-1.01764
11
0.818307
21
-1.01764
0
LINE
8
BLACK
6
CONTINUOUS
10
0.818307
20
-1.01764
11
0.818307
21
-1.16764
0
LINE
8
BLACK
6
CONTINUOUS
10
0.621457
20
-1.16764
11
0.471457
21
-1.16764
0
LINE
8
BLACK
6
CONTINUOUS
10
0.471457
20
-1.16764
11
0.471457
21
-1.01764
0
LINE
8
BLACK
6
CONTINUOUS
10
0.471457
20
-1.01764
11
0.621457
21
-1.01764
0
LINE
8
BLACK
6
CONTINUOUS
10
0.621457
20
-1.01764
11
0.621457
21
-1.16764
0
LINE
8
BLACK
6
CONTINUOUS
10
2.30646
20
-1.08386
11
2.24646
21
-1.08386
0
LINE
8
BLACK
6
CONTINUOUS
10
2.24646
20
-1.08386
11
2.24646
21
-1.02386
0
LINE
8
BLACK
6
CONTINUOUS
10
2.24646
20
-1.02386
11
2.30646
21
-1.02386
0
LINE
8
BLACK
6
CONTINUOUS
10
2.30646
20
-1.02386
11
2.30646
21
-1.08386
0
LINE
8
BLACK
6
CONTINUOUS
10
2.40646
20
-1.08386
11
2.34646
21
-1.08386
0
LINE
8
BLACK
6
CONTINUOUS
10
2.34646
20
-1.08386
11
2.34646
21
-1.02386
0
LINE
8
BLACK
6
CONTINUOUS
10
2.34646
20
-1.02386
11
2.40646
21
-1.02386
0
LINE
8
BLACK
6
CONTINUOUS
10
2.40646
20
-1.02386
11
2.40646
21
-1.08386
0
LINE
8
BLACK
6
CONTINUOUS
10
2.50646
20
-1.08386
11
2.44646
21
-1.08386
0
LINE
8
BLACK
6
CONTINUOUS
10
2.44646
20
-1.08386
11
2.44646
21
-1.02386
0
LINE
8
BLACK
6
CONTINUOUS
10
2.44646
20
-1.02386
11
2.50646
21
-1.02386
0
LINE
8
BLACK
6
CONTINUOUS
10
2.50646
20
-1.02386
11
2.50646
21
-1.08386
0
LINE
8
BLACK
6
CONTINUOUS
10
2.60646
20
-1.08386
11
2.54646
21
-1.08386
0
LINE
8
BLACK
6
CONTINUOUS
10
2.54646
20
-1.08386
11
2.54646
21
-1.02386
0
LINE
8
BLACK
6
CONTINUOUS
10
2.54646
20
-1.02386
11
2.60646
21
-1.02386
0
LINE
8
BLACK
6
CONTINUOUS
10
2.60646
20
-1.02386
11
2.60646
21
-1.08386
0
LINE
8
BLACK
6
CONTINUOUS
10
1.79771
20
-1.08136
11
1.73771
21
-1.08136
0
LINE
8
BLACK
6
CONTINUOUS
10
1.73771
20
-1.08136
11
1.73771
21
-1.02136
0
LINE
8
BLACK
6
CONTINUOUS
10
1.73771
20
-1.02136
11
1.79771
21
-1.02136
0
LINE
8
BLACK
6
CONTINUOUS
10
1.79771
20
-1.02136
11
1.79771
21
-1.08136
0
LINE
8
BLACK
6
CONTINUOUS
10
1.89771
20
-1.08136
11
1.83771
21
-1.08136
0
LINE
8
BLACK
6
CONTINUOUS
10
1.83771
20
-1.08136
11
1.83771
21
-1.02136
0
LINE
8
BLACK
6
CONTINUOUS
10
1.83771
20
-1.02136
11
1.89771
21
-1.02136
0
LINE
8
BLACK
6
CONTINUOUS
10
1.89771
20
-1.02136
11
1.89771
21
-1.08136
0
LINE
8
BLACK
6
CONTINUOUS
10
2.09771
20
-1.08136
11
2.03771
21
-1.08136
0
LINE
8
BLACK
6
CONTINUOUS
10
2.03771
20
-1.08136
11
2.03771
21
-1.02136
0
LINE
8
BLACK
6
CONTINUOUS
10
2.03771
20
-1.02136
11
2.09771
21
-1.02136
0
LINE
8
BLACK
6
CONTINUOUS
10
2.09771
20
-1.02136
11
2.09771
21
-1.08136
0
LINE
8
BLACK
6
CONTINUOUS
10
1.99771
20
-1.08136
11
1.93771
21
-1.08136
0
LINE
8
BLACK
6
CONTINUOUS
10
1.93771
20
-1.08136
11
1.93771
21
-1.02136
0
LINE
8
BLACK
6
CONTINUOUS
10
1.93771
20
-1.02136
11
1.99771
21
-1.02136
0
LINE
8
BLACK
6
CONTINUOUS
10
1.99771
20
-1.02136
11
1.99771
21
-1.08136
0
LINE
8
BLACK
6
CONTINUOUS
10
1.38646
20
-1.07886
11
1.32646
21
-1.07886
0
LINE
8
BLACK
6
CONTINUOUS
10
1.32646
20
-1.07886
11
1.32646
21
-1.01886
0
LINE
8
BLACK
6
CONTINUOUS
10
1.32646
20
-1.01886
11
1.38646
21
-1.01886
0
LINE
8
BLACK
6
CONTINUOUS
10
1.38646
20
-1.01886
11
1.38646
21
-1.07886
0
LINE
8
BLACK
6
CONTINUOUS
10
1.28646
20
-1.07886
11
1.22646
21
-1.07886
0
LINE
8
BLACK
6
CONTINUOUS
10
1.22646
20
-1.07886
11
1.22646
21
-1.01886
0
LINE
8
BLACK
6
CONTINUOUS
10
1.22646
20
-1.01886
11
1.28646
21
-1.01886
0
LINE
8
BLACK
6
CONTINUOUS
10
1.28646
20
-1.01886
11
1.28646
21
-1.07886
0
LINE
8
BLACK
6
CONTINUOUS
10
1.58646
20
-1.07886
11
1.52646
21
-1.07886
0
LINE
8
BLACK
6
CONTINUOUS
10
1.52646
20
-1.07886
11
1.52646
21
-1.01886
0
LINE
8
BLACK
6
CONTINUOUS
10
1.52646
20
-1.01886
11
1.58646
21
-1.01886
0
LINE
8
BLACK
6
CONTINUOUS
10
1.58646
20
-1.01886
11
1.58646
21
-1.07886
0
LINE
8
BLACK
6
CONTINUOUS
10
1.48646
20
-1.07886
11
1.42646
21
-1.07886
0
LINE
8
BLACK
6
CONTINUOUS
10
1.42646
20
-1.07886
11
1.42646
21
-1.01886
0
LINE
8
BLACK
6
CONTINUOUS
10
1.42646
20
-1.01886
11
1.48646
21
-1.01886
0
LINE
8
BLACK
6
CONTINUOUS
10
1.48646
20
-1.01886
11
1.48646
21
-1.07886
0
LINE
8
BLACK
6
CONTINUOUS
10
0.320591
20
-0.891358
11
0.170591
21
-0.891358
0
LINE
8
BLACK
6
CONTINUOUS
10
0.170591
20
-0.891358
11
0.170591
21
-0.741358
0
LINE
8
BLACK
6
CONTINUOUS
10
0.170591
20
-0.741358
11
0.320591
21
-0.741358
0
LINE
8
BLACK
6
CONTINUOUS
10
0.320591
20
-0.741358
11
0.320591
21
-0.891358
0
LINE
8
BLACK
6
CONTINUOUS
10
0.517441
20
-0.891358
11
0.367441
21
-0.891358
0
LINE
8
BLACK
6
CONTINUOUS
10
0.367441
20
-0.891358
11
0.367441
21
-0.741358
0
LINE
8
BLACK
6
CONTINUOUS
10
0.367441
20
-0.741358
11
0.517441
21
-0.741358
0
LINE
8
BLACK
6
CONTINUOUS
10
0.517441
20
-0.741358
11
0.517441
21
-0.891358
0
LINE
8
BLACK
6
CONTINUOUS
10
2.31923
20
-0.723153
11
2.32771
21
-0.724839
0
LINE
8
BLACK
6
CONTINUOUS
10
2.32771
20
-0.724839
11
2.33574
21
-0.728043
0
LINE
8
BLACK
6
CONTINUOUS
10
2.33574
20
-0.728043
11
2.34305
21
-0.732657
0
LINE
8
BLACK
6
CONTINUOUS
10
2.34305
20
-0.732657
11
2.3494
21
-0.738525
0
LINE
8
BLACK
6
CONTINUOUS
10
2.3494
20
-0.738525
11
2.35457
21
-0.745453
0
LINE
8
BLACK
6
CONTINUOUS
10
2.35457
20
-0.745453
11
2.3584
21
-0.753207
0
LINE
8
BLACK
6
CONTINUOUS
10
2.3584
20
-0.753207
11
2.36074
21
-0.761528
0
LINE
8
BLACK
6
CONTINUOUS
10
2.36074
20
-0.761528
11
2.36154
21
-0.770138
0
LINE
8
BLACK
6
CONTINUOUS
10
2.36154
20
-0.770138
11
2.36147
21
-0.77261
0
LINE
8
BLACK
6
CONTINUOUS
10
2.36147
20
-0.77261
11
2.36023
21
-0.781167
0
LINE
8
BLACK
6
CONTINUOUS
10
2.36023
20
-0.781167
11
2.35745
21
-0.789354
0
LINE
8
BLACK
6
CONTINUOUS
10
2.35745
20
-0.789354
11
2.35323
21
-0.796897
0
LINE
8
BLACK
6
CONTINUOUS
10
2.35323
20
-0.796897
11
2.3477
21
-0.803544
0
LINE
8
BLACK
6
CONTINUOUS
10
2.3477
20
-0.803544
11
2.34105
21
-0.809073
0
LINE
8
BLACK
6
CONTINUOUS
10
2.34105
20
-0.809073
11
2.33351
21
-0.813297
0
LINE
8
BLACK
6
CONTINUOUS
10
2.33351
20
-0.813297
11
2.32532
21
-0.816077
0
LINE
8
BLACK
6
CONTINUOUS
10
2.32532
20
-0.816077
11
2.31676
21
-0.817317
0
LINE
8
BLACK
6
CONTINUOUS
10
2.31676
20
-0.817317
11
2.30812
21
-0.816978
0
LINE
8
BLACK
6
CONTINUOUS
10
2.30812
20
-0.816978
11
2.29969
21
-0.81507
0
LINE
8
BLACK
6
CONTINUOUS
10
2.29969
20
-0.81507
11
2.29175
21
-0.811657
0
LINE
8
BLACK
6
CONTINUOUS
10
2.29175
20
-0.811657
11
2.28456
21
-0.806853
0
LINE
8
BLACK
6
CONTINUOUS
10
2.28456
20
-0.806853
11
2.27837
21
-0.80082
0
LINE
8
BLACK
6
CONTINUOUS
10
2.27837
20
-0.80082
11
2.27338
21
-0.79376
0
LINE
8
BLACK
6
CONTINUOUS
10
2.27338
20
-0.79376
11
2.26976
21
-0.785908
0
LINE
8
BLACK
6
CONTINUOUS
10
2.26976
20
-0.785908
11
2.26763
21
-0.777528
0
LINE
8
BLACK
6
CONTINUOUS
10
2.26763
20
-0.777528
11
2.26706
21
-0.768901
0
LINE
8
BLACK
6
CONTINUOUS
10
2.26706
20
-0.768901
11
2.26808
21
-0.760315
0
LINE
8
BLACK
6
CONTINUOUS
10
2.26808
20
-0.760315
11
2.27064
21
-0.752058
0
LINE
8
BLACK
6
CONTINUOUS
10
2.27064
20
-0.752058
11
2.27467
21
-0.744407
0
LINE
8
BLACK
6
CONTINUOUS
10
2.27467
20
-0.744407
11
2.28002
21
-0.737617
0
LINE
8
BLACK
6
CONTINUOUS
10
2.28002
20
-0.737617
11
2.28652
21
-0.731917
0
LINE
8
BLACK
6
CONTINUOUS
10
2.28652
20
-0.731917
11
2.29395
21
-0.727496
0
LINE
8
BLACK
6
CONTINUOUS
10
2.29395
20
-0.727496
11
2.30206
21
-0.724504
0
LINE
8
BLACK
6
CONTINUOUS
10
2.30206
20
-0.724504
11
2.31058
21
-0.723039
0
LINE
8
BLACK
6
CONTINUOUS
10
2.31058
20
-0.723039
11
2.31923
21
-0.723153
0
LINE
8
BLACK
6
CONTINUOUS
10
1.11923
20
-0.723153
11
1.12771
21
-0.724839
0
LINE
8
BLACK
6
CONTINUOUS
10
1.12771
20
-0.724839
11
1.13574
21
-0.728043
0
LINE
8
BLACK
6
CONTINUOUS
10
1.13574
20
-0.728043
11
1.14305
21
-0.732657
0
LINE
8
BLACK
6
CONTINUOUS
10
1.14305
20
-0.732657
11
1.1494
21
-0.738525
0
LINE
8
BLACK
6
CONTINUOUS
10
1.1494
20
-0.738525
11
1.15457
21
-0.745453
0
LINE
8
BLACK
6
CONTINUOUS
10
1.15457
20
-0.745453
11
1.1584
21
-0.753207
0
LINE
8
BLACK
6
CONTINUOUS
10
1.1584
20
-0.753207
11
1.16074
21
-0.761528
0
LINE
8
BLACK
6
CONTINUOUS
10
1.16074
20
-0.761528
11
1.16154
21
-0.770138
0
LINE
8
BLACK
6
CONTINUOUS
10
1.16154
20
-0.770138
11
1.16147
21
-0.77261
0
LINE
8
BLACK
6
CONTINUOUS
10
1.16147
20
-0.77261
11
1.16023
21
-0.781167
0
LINE
8
BLACK
6
CONTINUOUS
10
1.16023
20
-0.781167
11
1.15745
21
-0.789354
0
LINE
8
BLACK
6
CONTINUOUS
10
1.15745
20
-0.789354
11
1.15323
21
-0.796897
0
LINE
8
BLACK
6
CONTINUOUS
10
1.15323
20
-0.796897
11
1.1477
21
-0.803544
0
LINE
8
BLACK
6
CONTINUOUS
10
1.1477
20
-0.803544
11
1.14105
21
-0.809073
0
LINE
8
BLACK
6
CONTINUOUS
10
1.14105
20
-0.809073
11
1.13351
21
-0.813297
0
LINE
8
BLACK
6
CONTINUOUS
10
1.13351
20
-0.813297
11
1.12532
21
-0.816077
0
LINE
8
BLACK
6
CONTINUOUS
10
1.12532
20
-0.816077
11
1.11676
21
-0.817317
0
LINE
8
BLACK
6
CONTINUOUS
10
1.11676
20
-0.817317
11
1.10812
21
-0.816978
0
LINE
8
BLACK
6
CONTINUOUS
10
1.10812
20
-0.816978
11
1.09969
21
-0.81507
0
LINE
8
BLACK
6
CONTINUOUS
10
1.09969
20
-0.81507
11
1.09175
21
-0.811657
0
LINE
8
BLACK
6
CONTINUOUS
10
1.09175
20
-0.811657
11
1.08456
21
-0.806853
0
LINE
8
BLACK
6
CONTINUOUS
10
1.08456
20
-0.806853
11
1.07837
21
-0.80082
0
LINE
8
BLACK
6
CONTINUOUS
10
1.07837
20
-0.80082
11
1.07338
21
-0.79376
0
LINE
8
BLACK
6
CONTINUOUS
10
1.07338
20
-0.79376
11
1.06976
21
-0.785908
0
LINE
8
BLACK
6
CONTINUOUS
10
1.06976
20
-0.785908
11
1.06763
21
-0.777528
0
LINE
8
BLACK
6
CONTINUOUS
10
1.06763
20
-0.777528
11
1.06706
21
-0.768901
0
LINE
8
BLACK
6
CONTINUOUS
10
1.06706
20
-0.768901
11
1.06808
21
-0.760315
0
LINE
8
BLACK
6
CONTINUOUS
10
1.06808
20
-0.760315
11
1.07064
21
-0.752058
0
LINE
8
BLACK
6
CONTINUOUS
10
1.07064
20
-0.752058
11
1.07467
21
-0.744407
0
LINE
8
BLACK
6
CONTINUOUS
10
1.07467
20
-0.744407
11
1.08002
21
-0.737617
0
LINE
8
BLACK
6
CONTINUOUS
10
1.08002
20
-0.737617
11
1.08652
21
-0.731917
0
LINE
8
BLACK
6
CONTINUOUS
10
1.08652
20
-0.731917
11
1.09395
21
-0.727496
0
LINE
8
BLACK
6
CONTINUOUS
10
1.09395
20
-0.727496
11
1.10206
21
-0.724504
0
LINE
8
BLACK
6
CONTINUOUS
10
1.10206
20
-0.724504
11
1.11058
21
-0.723039
0
LINE
8
BLACK
6
CONTINUOUS
10
1.11058
20
-0.723039
11
1.11923
21
-0.723153
0
LINE
8
BLACK
6
CONTINUOUS
10
2.58712
20
-0.576631
11
2.59902
21
-0.578398
0
LINE
8
BLACK
6
CONTINUOUS
10
2.59902
20
-0.578398
11
2.6106
21
-0.581664
0
LINE
8
BLACK
6
CONTINUOUS
10
2.6106
20
-0.581664
11
2.62167
21
-0.586374
0
LINE
8
BLACK
6
CONTINUOUS
10
2.62167
20
-0.586374
11
2.63205
21
-0.592453
0
LINE
8
BLACK
6
CONTINUOUS
10
2.63205
20
-0.592453
11
2.64157
21
-0.599802
0
LINE
8
BLACK
6
CONTINUOUS
10
2.64157
20
-0.599802
11
2.65009
21
-0.608301
0
LINE
8
BLACK
6
CONTINUOUS
10
2.65009
20
-0.608301
11
2.65745
21
-0.617814
0
LINE
8
BLACK
6
CONTINUOUS
10
2.65745
20
-0.617814
11
2.66355
21
-0.628185
0
LINE
8
BLACK
6
CONTINUOUS
10
2.66355
20
-0.628185
11
2.66828
21
-0.639247
0
LINE
8
BLACK
6
CONTINUOUS
10
2.66828
20
-0.639247
11
2.67157
21
-0.65082
0
LINE
8
BLACK
6
CONTINUOUS
10
2.67157
20
-0.65082
11
2.67336
21
-0.662716
0
LINE
8
BLACK
6
CONTINUOUS
10
2.67336
20
-0.662716
11
2.6737
21
-0.670787
0
LINE
8
BLACK
6
CONTINUOUS
10
2.6737
20
-0.670787
11
2.6737
21
-0.718031
0
LINE
8
BLACK
6
CONTINUOUS
10
2.6737
20
-0.718031
11
2.67337
21
-0.725938
0
LINE
8
BLACK
6
CONTINUOUS
10
2.67337
20
-0.725938
11
2.6716
21
-0.737838
0
LINE
8
BLACK
6
CONTINUOUS
10
2.6716
20
-0.737838
11
2.66834
21
-0.749417
0
LINE
8
BLACK
6
CONTINUOUS
10
2.66834
20
-0.749417
11
2.66363
21
-0.760487
0
LINE
8
BLACK
6
CONTINUOUS
10
2.66363
20
-0.760487
11
2.65755
21
-0.770869
0
LINE
8
BLACK
6
CONTINUOUS
10
2.65755
20
-0.770869
11
2.6502
21
-0.780394
0
LINE
8
BLACK
6
CONTINUOUS
10
2.6502
20
-0.780394
11
2.6417
21
-0.788908
0
LINE
8
BLACK
6
CONTINUOUS
10
2.6417
20
-0.788908
11
2.63219
21
-0.796273
0
LINE
8
BLACK
6
CONTINUOUS
10
2.63219
20
-0.796273
11
2.62182
21
-0.80237
0
LINE
8
BLACK
6
CONTINUOUS
10
2.62182
20
-0.80237
11
2.61075
21
-0.8071
0
LINE
8
BLACK
6
CONTINUOUS
10
2.61075
20
-0.8071
11
2.59918
21
-0.810386
0
LINE
8
BLACK
6
CONTINUOUS
10
2.59918
20
-0.810386
11
2.58728
21
-0.812174
0
LINE
8
BLACK
6
CONTINUOUS
10
2.58728
20
-0.812174
11
2.57921
21
-0.81252
0
LINE
8
BLACK
6
CONTINUOUS
10
2.57921
20
-0.81252
11
2.53197
21
-0.81252
0
LINE
8
BLACK
6
CONTINUOUS
10
2.53197
20
-0.81252
11
2.52406
21
-0.812188
0
LINE
8
BLACK
6
CONTINUOUS
10
2.52406
20
-0.812188
11
2.51216
21
-0.81042
0
LINE
8
BLACK
6
CONTINUOUS
10
2.51216
20
-0.81042
11
2.50058
21
-0.807155
0
LINE
8
BLACK
6
CONTINUOUS
10
2.50058
20
-0.807155
11
2.48951
21
-0.802445
0
LINE
8
BLACK
6
CONTINUOUS
10
2.48951
20
-0.802445
11
2.47913
21
-0.796366
0
LINE
8
BLACK
6
CONTINUOUS
10
2.47913
20
-0.796366
11
2.46961
21
-0.789017
0
LINE
8
BLACK
6
CONTINUOUS
10
2.46961
20
-0.789017
11
2.46109
21
-0.780518
0
LINE
8
BLACK
6
CONTINUOUS
10
2.46109
20
-0.780518
11
2.45373
21
-0.771005
0
LINE
8
BLACK
6
CONTINUOUS
10
2.45373
20
-0.771005
11
2.44763
21
-0.760634
0
LINE
8
BLACK
6
CONTINUOUS
10
2.44763
20
-0.760634
11
2.4429
21
-0.749572
0
LINE
8
BLACK
6
CONTINUOUS
10
2.4429
20
-0.749572
11
2.43961
21
-0.737999
0
LINE
8
BLACK
6
CONTINUOUS
10
2.43961
20
-0.737999
11
2.43783
21
-0.726102
0
LINE
8
BLACK
6
CONTINUOUS
10
2.43783
20
-0.726102
11
2.43748
21
-0.718031
0
LINE
8
BLACK
6
CONTINUOUS
10
2.43748
20
-0.718031
11
2.43748
21
-0.670787
0
LINE
8
BLACK
6
CONTINUOUS
10
2.43748
20
-0.670787
11
2.43781
21
-0.662881
0
LINE
8
BLACK
6
CONTINUOUS
10
2.43781
20
-0.662881
11
2.43958
21
-0.650981
0
LINE
8
BLACK
6
CONTINUOUS
10
2.43958
20
-0.650981
11
2.44285
21
-0.639402
0
LINE
8
BLACK
6
CONTINUOUS
10
2.44285
20
-0.639402
11
2.44756
21
-0.628332
0
LINE
8
BLACK
6
CONTINUOUS
10
2.44756
20
-0.628332
11
2.45363
21
-0.61795
0
LINE
8
BLACK
6
CONTINUOUS
10
2.45363
20
-0.61795
11
2.46098
21
-0.608425
0
LINE
8
BLACK
6
CONTINUOUS
10
2.46098
20
-0.608425
11
2.46948
21
-0.599911
0
LINE
8
BLACK
6
CONTINUOUS
10
2.46948
20
-0.599911
11
2.47899
21
-0.592545
0
LINE
8
BLACK
6
CONTINUOUS
10
2.47899
20
-0.592545
11
2.48937
21
-0.586449
0
LINE
8
BLACK
6
CONTINUOUS
10
2.48937
20
-0.586449
11
2.50043
21
-0.581719
0
LINE
8
BLACK
6
CONTINUOUS
10
2.50043
20
-0.581719
11
2.512
21
-0.578433
0
LINE
8
BLACK
6
CONTINUOUS
10
2.512
20
-0.578433
11
2.5239
21
-0.576645
0
LINE
8
BLACK
6
CONTINUOUS
10
2.5239
20
-0.576645
11
2.53197
21
-0.576299
0
LINE
8
BLACK
6
CONTINUOUS
10
2.53197
20
-0.576299
11
2.57921
21
-0.576299
0
LINE
8
BLACK
6
CONTINUOUS
10
2.57921
20
-0.576299
11
2.58712
21
-0.576631
0
LINE
8
BLACK
6
CONTINUOUS
10
0.320591
20
-0.691358
11
0.170591
21
-0.691358
0
LINE
8
BLACK
6
CONTINUOUS
10
0.170591
20
-0.691358
11
0.170591
21
-0.541358
0
LINE
8
BLACK
6
CONTINUOUS
10
0.170591
20
-0.541358
11
0.320591
21
-0.541358
0
LINE
8
BLACK
6
CONTINUOUS
10
0.320591
20
-0.541358
11
0.320591
21
-0.691358
0
LINE
8
BLACK
6
CONTINUOUS
10
0.517441
20
-0.691358
11
0.367441
21
-0.691358
0
LINE
8
BLACK
6
CONTINUOUS
10
0.367441
20
-0.691358
11
0.367441
21
-0.541358
0
LINE
8
BLACK
6
CONTINUOUS
10
0.367441
20
-0.541358
11
0.517441
21
-0.541358
0
LINE
8
BLACK
6
CONTINUOUS
10
0.517441
20
-0.541358
11
0.517441
21
-0.691358
0
LINE
8
BLACK
6
CONTINUOUS
10
0.320591
20
-0.491358
11
0.170591
21
-0.491358
0
LINE
8
BLACK
6
CONTINUOUS
10
0.170591
20
-0.491358
11
0.170591
21
-0.341358
0
LINE
8
BLACK
6
CONTINUOUS
10
0.170591
20
-0.341358
11
0.320591
21
-0.341358
0
LINE
8
BLACK
6
CONTINUOUS
10
0.320591
20
-0.341358
11
0.320591
21
-0.491358
0
LINE
8
BLACK
6
CONTINUOUS
10
0.517441
20
-0.491358
11
0.367441
21
-0.491358
0
LINE
8
BLACK
6
CONTINUOUS
10
0.367441
20
-0.491358
11
0.367441
21
-0.341358
0
LINE
8
BLACK
6
CONTINUOUS
10
0.367441
20
-0.341358
11
0.517441
21
-0.341358
0
LINE
8
BLACK
6
CONTINUOUS
10
0.517441
20
-0.341358
11
0.517441
21
-0.491358
0
LINE
8
BLACK
6
CONTINUOUS
10
2.58712
20
-0.245922
11
2.59902
21
-0.24769
0
LINE
8
BLACK
6
CONTINUOUS
10
2.59902
20
-0.24769
11
2.6106
21
-0.250955
0
LINE
8
BLACK
6
CONTINUOUS
10
2.6106
20
-0.250955
11
2.62167
21
-0.255666
0
LINE
8
BLACK
6
CONTINUOUS
10
2.62167
20
-0.255666
11
2.63205
21
-0.261744
0
LINE
8
BLACK
6
CONTINUOUS
10
2.63205
20
-0.261744
11
2.64157
21
-0.269093
0
LINE
8
BLACK
6
CONTINUOUS
10
2.64157
20
-0.269093
11
2.65009
21
-0.277593
0
LINE
8
BLACK
6
CONTINUOUS
10
2.65009
20
-0.277593
11
2.65745
21
-0.287105
0
LINE
8
BLACK
6
CONTINUOUS
10
2.65745
20
-0.287105
11
2.66355
21
-0.297476
0
LINE
8
BLACK
6
CONTINUOUS
10
2.66355
20
-0.297476
11
2.66828
21
-0.308538
0
LINE
8
BLACK
6
CONTINUOUS
10
2.66828
20
-0.308538
11
2.67157
21
-0.320111
0
LINE
8
BLACK
6
CONTINUOUS
10
2.67157
20
-0.320111
11
2.67336
21
-0.332008
0
LINE
8
BLACK
6
CONTINUOUS
10
2.67336
20
-0.332008
11
2.6737
21
-0.340079
0
LINE
8
BLACK
6
CONTINUOUS
10
2.6737
20
-0.340079
11
2.6737
21
-0.387323
0
LINE
8
BLACK
6
CONTINUOUS
10
2.6737
20
-0.387323
11
2.67337
21
-0.395229
0
LINE
8
BLACK
6
CONTINUOUS
10
2.67337
20
-0.395229
11
2.6716
21
-0.407129
0
LINE
8
BLACK
6
CONTINUOUS
10
2.6716
20
-0.407129
11
2.66834
21
-0.418708
0
LINE
8
BLACK
6
CONTINUOUS
10
2.66834
20
-0.418708
11
2.66363
21
-0.429778
0
LINE
8
BLACK
6
CONTINUOUS
10
2.66363
20
-0.429778
11
2.65755
21
-0.44016
0
LINE
8
BLACK
6
CONTINUOUS
10
2.65755
20
-0.44016
11
2.6502
21
-0.449685
0
LINE
8
BLACK
6
CONTINUOUS
10
2.6502
20
-0.449685
11
2.6417
21
-0.458199
0
LINE
8
BLACK
6
CONTINUOUS
10
2.6417
20
-0.458199
11
2.63219
21
-0.465565
0
LINE
8
BLACK
6
CONTINUOUS
10
2.63219
20
-0.465565
11
2.62182
21
-0.471662
0
LINE
8
BLACK
6
CONTINUOUS
10
2.62182
20
-0.471662
11
2.61075
21
-0.476391
0
LINE
8
BLACK
6
CONTINUOUS
10
2.61075
20
-0.476391
11
2.59918
21
-0.479677
0
LINE
8
BLACK
6
CONTINUOUS
10
2.59918
20
-0.479677
11
2.58728
21
-0.481466
0
LINE
8
BLACK
6
CONTINUOUS
10
2.58728
20
-0.481466
11
2.57921
21
-0.481811
0
LINE
8
BLACK
6
CONTINUOUS
10
2.57921
20
-0.481811
11
2.53197
21
-0.481811
0
LINE
8
BLACK
6
CONTINUOUS
10
2.53197
20
-0.481811
11
2.52406
21
-0.48148
0
LINE
8
BLACK
6
CONTINUOUS
10
2.52406
20
-0.48148
11
2.51216
21
-0.479712
0
LINE
8
BLACK
6
CONTINUOUS
10
2.51216
20
-0.479712
11
2.50058
21
-0.476446
0
LINE
8
BLACK
6
CONTINUOUS
10
2.50058
20
-0.476446
11
2.48951
21
-0.471736
0
LINE
8
BLACK
6
CONTINUOUS
10
2.48951
20
-0.471736
11
2.47913
21
-0.465657
0
LINE
8
BLACK
6
CONTINUOUS
10
2.47913
20
-0.465657
11
2.46961
21
-0.458308
0
LINE
8
BLACK
6
CONTINUOUS
10
2.46961
20
-0.458308
11
2.46109
21
-0.449809
0
LINE
8
BLACK
6
CONTINUOUS
10
2.46109
20
-0.449809
11
2.45373
21
-0.440297
0
LINE
8
BLACK
6
CONTINUOUS
10
2.45373
20
-0.440297
11
2.44763
21
-0.429925
0
LINE
8
BLACK
6
CONTINUOUS
10
2.44763
20
-0.429925
11
2.4429
21
-0.418864
0
LINE
8
BLACK
6
CONTINUOUS
10
2.4429
20
-0.418864
11
2.43961
21
-0.407291
0
LINE
8
BLACK
6
CONTINUOUS
10
2.43961
20
-0.407291
11
2.43783
21
-0.395394
0
LINE
8
BLACK
6
CONTINUOUS
10
2.43783
20
-0.395394
11
2.43748
21
-0.387323
0
LINE
8
BLACK
6
CONTINUOUS
10
2.43748
20
-0.387323
11
2.43748
21
-0.340079
0
LINE
8
BLACK
6
CONTINUOUS
10
2.43748
20
-0.340079
11
2.43781
21
-0.332172
0
LINE
8
BLACK
6
CONTINUOUS
10
2.43781
20
-0.332172
11
2.43958
21
-0.320272
0
LINE
8
BLACK
6
CONTINUOUS
10
2.43958
20
-0.320272
11
2.44285
21
-0.308693
0
LINE
8
BLACK
6
CONTINUOUS
10
2.44285
20
-0.308693
11
2.44756
21
-0.297623
0
LINE
8
BLACK
6
CONTINUOUS
10
2.44756
20
-0.297623
11
2.45363
21
-0.287242
0
LINE
8
BLACK
6
CONTINUOUS
10
2.45363
20
-0.287242
11
2.46098
21
-0.277716
0
LINE
8
BLACK
6
CONTINUOUS
10
2.46098
20
-0.277716
11
2.46948
21
-0.269202
0
LINE
8
BLACK
6
CONTINUOUS
10
2.46948
20
-0.269202
11
2.47899
21
-0.261837
0
LINE
8
BLACK
6
CONTINUOUS
10
2.47899
20
-0.261837
11
2.48937
21
-0.25574
0
LINE
8
BLACK
6
CONTINUOUS
10
2.48937
20
-0.25574
11
2.50043
21
-0.25101
0
LINE
8
BLACK
6
CONTINUOUS
10
2.50043
20
-0.25101
11
2.512
21
-0.247724
0
LINE
8
BLACK
6
CONTINUOUS
10
2.512
20
-0.247724
11
2.5239
21
-0.245936
0
LINE
8
BLACK
6
CONTINUOUS
10
2.5239
20
-0.245936
11
2.53197
21
-0.245591
0
LINE
8
BLACK
6
CONTINUOUS
10
2.53197
20
-0.245591
11
2.57921
21
-0.245591
0
LINE
8
BLACK
6
CONTINUOUS
10
2.57921
20
-0.245591
11
2.58712
21
-0.245922
0
LINE
8
BLACK
6
CONTINUOUS
10
2.31923
20
-0.323153
11
2.32771
21
-0.324839
0
LINE
8
BLACK
6
CONTINUOUS
10
2.32771
20
-0.324839
11
2.33574
21
-0.328043
0
LINE
8
BLACK
6
CONTINUOUS
10
2.33574
20
-0.328043
11
2.34305
21
-0.332657
0
LINE
8
BLACK
6
CONTINUOUS
10
2.34305
20
-0.332657
11
2.3494
21
-0.338525
0
LINE
8
BLACK
6
CONTINUOUS
10
2.3494
20
-0.338525
11
2.35457
21
-0.345453
0
LINE
8
BLACK
6
CONTINUOUS
10
2.35457
20
-0.345453
11
2.3584
21
-0.353207
0
LINE
8
BLACK
6
CONTINUOUS
10
2.3584
20
-0.353207
11
2.36074
21
-0.361528
0
LINE
8
BLACK
6
CONTINUOUS
10
2.36074
20
-0.361528
11
2.36154
21
-0.370138
0
LINE
8
BLACK
6
CONTINUOUS
10
2.36154
20
-0.370138
11
2.36147
21
-0.37261
0
LINE
8
BLACK
6
CONTINUOUS
10
2.36147
20
-0.37261
11
2.36023
21
-0.381167
0
LINE
8
BLACK
6
CONTINUOUS
10
2.36023
20
-0.381167
11
2.35745
21
-0.389354
0
LINE
8
BLACK
6
CONTINUOUS
10
2.35745
20
-0.389354
11
2.35323
21
-0.396897
0
LINE
8
BLACK
6
CONTINUOUS
10
2.35323
20
-0.396897
11
2.3477
21
-0.403544
0
LINE
8
BLACK
6
CONTINUOUS
10
2.3477
20
-0.403544
11
2.34105
21
-0.409073
0
LINE
8
BLACK
6
CONTINUOUS
10
2.34105
20
-0.409073
11
2.33351
21
-0.413297
0
LINE
8
BLACK
6
CONTINUOUS
10
2.33351
20
-0.413297
11
2.32532
21
-0.416077
0
LINE
8
BLACK
6
CONTINUOUS
10
2.32532
20
-0.416077
11
2.31676
21
-0.417317
0
LINE
8
BLACK
6
CONTINUOUS
10
2.31676
20
-0.417317
11
2.30812
21
-0.416978
0
LINE
8
BLACK
6
CONTINUOUS
10
2.30812
20
-0.416978
11
2.29969
21
-0.41507
0
LINE
8
BLACK
6
CONTINUOUS
10
2.29969
20
-0.41507
11
2.29175
21
-0.411657
0
LINE
8
BLACK
6
CONTINUOUS
10
2.29175
20
-0.411657
11
2.28456
21
-0.406853
0
LINE
8
BLACK
6
CONTINUOUS
10
2.28456
20
-0.406853
11
2.27837
21
-0.40082
0
LINE
8
BLACK
6
CONTINUOUS
10
2.27837
20
-0.40082
11
2.27338
21
-0.39376
0
LINE
8
BLACK
6
CONTINUOUS
10
2.27338
20
-0.39376
11
2.26976
21
-0.385908
0
LINE
8
BLACK
6
CONTINUOUS
10
2.26976
20
-0.385908
11
2.26763
21
-0.377528
0
LINE
8
BLACK
6
CONTINUOUS
10
2.26763
20
-0.377528
11
2.26706
21
-0.368901
0
LINE
8
BLACK
6
CONTINUOUS
10
2.26706
20
-0.368901
11
2.26808
21
-0.360315
0
LINE
8
BLACK
6
CONTINUOUS
10
2.26808
20
-0.360315
11
2.27064
21
-0.352058
0
LINE
8
BLACK
6
CONTINUOUS
10
2.27064
20
-0.352058
11
2.27467
21
-0.344407
0
LINE
8
BLACK
6
CONTINUOUS
10
2.27467
20
-0.344407
11
2.28002
21
-0.337617
0
LINE
8
BLACK
6
CONTINUOUS
10
2.28002
20
-0.337617
11
2.28652
21
-0.331917
0
LINE
8
BLACK
6
CONTINUOUS
10
2.28652
20
-0.331917
11
2.29395
21
-0.327496
0
LINE
8
BLACK
6
CONTINUOUS
10
2.29395
20
-0.327496
11
2.30206
21
-0.324504
0
LINE
8
BLACK
6
CONTINUOUS
10
2.30206
20
-0.324504
11
2.31058
21
-0.323039
0
LINE
8
BLACK
6
CONTINUOUS
10
2.31058
20
-0.323039
11
2.31923
21
-0.323153
0
LINE
8
BLACK
6
CONTINUOUS
10
1.11923
20
-0.323153
11
1.12771
21
-0.324839
0
LINE
8
BLACK
6
CONTINUOUS
10
1.12771
20
-0.324839
11
1.13574
21
-0.328043
0
LINE
8
BLACK
6
CONTINUOUS
10
1.13574
20
-0.328043
11
1.14305
21
-0.332657
0
LINE
8
BLACK
6
CONTINUOUS
10
1.14305
20
-0.332657
11
1.1494
21
-0.338525
0
LINE
8
BLACK
6
CONTINUOUS
10
1.1494
20
-0.338525
11
1.15457
21
-0.345453
0
LINE
8
BLACK
6
CONTINUOUS
10
1.15457
20
-0.345453
11
1.1584
21
-0.353207
0
LINE
8
BLACK
6
CONTINUOUS
10
1.1584
20
-0.353207
11
1.16074
21
-0.361528
0
LINE
8
BLACK
6
CONTINUOUS
10
1.16074
20
-0.361528
11
1.16154
21
-0.370138
0
LINE
8
BLACK
6
CONTINUOUS
10
1.16154
20
-0.370138
11
1.16147
21
-0.37261
0
LINE
8
BLACK
6
CONTINUOUS
10
1.16147
20
-0.37261
11
1.16023
21
-0.381167
0
LINE
8
BLACK
6
CONTINUOUS
10
1.16023
20
-0.381167
11
1.15745
21
-0.389354
0
LINE
8
BLACK
6
CONTINUOUS
10
1.15745
20
-0.389354
11
1.15323
21
-0.396897
0
LINE
8
BLACK
6
CONTINUOUS
10
1.15323
20
-0.396897
11
1.1477
21
-0.403544
0
LINE
8
BLACK
6
CONTINUOUS
10
1.1477
20
-0.403544
11
1.14105
21
-0.409073
0
LINE
8
BLACK
6
CONTINUOUS
10
1.14105
20
-0.409073
11
1.13351
21
-0.413297
0
LINE
8
BLACK
6
CONTINUOUS
10
1.13351
20
-0.413297
11
1.12532
21
-0.416077
0
LINE
8
BLACK
6
CONTINUOUS
10
1.12532
20
-0.416077
11
1.11676
21
-0.417317
0
LINE
8
BLACK
6
CONTINUOUS
10
1.11676
20
-0.417317
11
1.10812
21
-0.416978
0
LINE
8
BLACK
6
CONTINUOUS
10
1.10812
20
-0.416978
11
1.09969
21
-0.41507
0
LINE
8
BLACK
6
CONTINUOUS
10
1.09969
20
-0.41507
11
1.09175
21
-0.411657
0
LINE
8
BLACK
6
CONTINUOUS
10
1.09175
20
-0.411657
11
1.08456
21
-0.406853
0
LINE
8
BLACK
6
CONTINUOUS
10
1.08456
20
-0.406853
11
1.07837
21
-0.40082
0
LINE
8
BLACK
6
CONTINUOUS
10
1.07837
20
-0.40082
11
1.07338
21
-0.39376
0
LINE
8
BLACK
6
CONTINUOUS
10
1.07338
20
-0.39376
11
1.06976
21
-0.385908
0
LINE
8
BLACK
6
CONTINUOUS
10
1.06976
20
-0.385908
11
1.06763
21
-0.377528
0
LINE
8
BLACK
6
CONTINUOUS
10
1.06763
20
-0.377528
11
1.06706
21
-0.368901
0
LINE
8
BLACK
6
CONTINUOUS
10
1.06706
20
-0.368901
11
1.06808
21
-0.360315
0
LINE
8
BLACK
6
CONTINUOUS
10
1.06808
20
-0.360315
11
1.07064
21
-0.352058
0
LINE
8
BLACK
6
CONTINUOUS
10
1.07064
20
-0.352058
11
1.07467
21
-0.344407
0
LINE
8
BLACK
6
CONTINUOUS
10
1.07467
20
-0.344407
11
1.08002
21
-0.337617
0
LINE
8
BLACK
6
CONTINUOUS
10
1.08002
20
-0.337617
11
1.08652
21
-0.331917
0
LINE
8
BLACK
6
CONTINUOUS
10
1.08652
20
-0.331917
11
1.09395
21
-0.327496
0
LINE
8
BLACK
6
CONTINUOUS
10
1.09395
20
-0.327496
11
1.10206
21
-0.324504
0
LINE
8
BLACK
6
CONTINUOUS
10
1.10206
20
-0.324504
11
1.11058
21
-0.323039
0
LINE
8
BLACK
6
CONTINUOUS
10
1.11058
20
-0.323039
11
1.11923
21
-0.323153
0
LINE
8
BLACK
6
CONTINUOUS
10
0.320591
20
-0.291358
11
0.170591
21
-0.291358
0
LINE
8
BLACK
6
CONTINUOUS
10
0.170591
20
-0.291358
11
0.170591
21
-0.141358
0
LINE
8
BLACK
6
CONTINUOUS
10
0.170591
20
-0.141358
11
0.320591
21
-0.141358
0
LINE
8
BLACK
6
CONTINUOUS
10
0.320591
20
-0.141358
11
0.320591
21
-0.291358
0
LINE
8
BLACK
6
CONTINUOUS
10
0.517441
20
-0.291358
11
0.367441
21
-0.291358
0
LINE
8
BLACK
6
CONTINUOUS
10
0.367441
20
-0.291358
11
0.367441
21
-0.141358
0
LINE
8
BLACK
6
CONTINUOUS
10
0.367441
20
-0.141358
11
0.517441
21
-0.141358
0
LINE
8
BLACK
6
CONTINUOUS
10
0.517441
20
-0.141358
11
0.517441
21
-0.291358
0
LINE
8
BLACK
6
CONTINUOUS
10
0.320591
20
-0.0913583
11
0.170591
21
-0.0913583
0
LINE
8
BLACK
6
CONTINUOUS
10
0.170591
20
-0.0913583
11
0.170591
21
0.0586417
0
LINE
8
BLACK
6
CONTINUOUS
10
0.170591
20
0.0586417
11
0.320591
21
0.0586417
0
LINE
8
BLACK
6
CONTINUOUS
10
0.320591
20
0.0586417
11
0.320591
21
-0.0913583
0
LINE
8
BLACK
6
CONTINUOUS
10
0.517441
20
-0.0913583
11
0.367441
21
-0.0913583
0
LINE
8
BLACK
6
CONTINUOUS
10
0.367441
20
-0.0913583
11
0.367441
21
0.0586417
0
LINE
8
BLACK
6
CONTINUOUS
10
0.367441
20
0.0586417
11
0.517441
21
0.0586417
0
LINE
8
BLACK
6
CONTINUOUS
10
0.517441
20
0.0586417
11
0.517441
21
-0.0913583
0
LINE
8
BLACK
6
CONTINUOUS
10
2.31718
20
0.105627
11
2.32566
21
0.10394
0
LINE
8
BLACK
6
CONTINUOUS
10
2.32566
20
0.10394
11
2.33369
21
0.100737
0
LINE
8
BLACK
6
CONTINUOUS
10
2.33369
20
0.100737
11
2.341
21
0.096123
0
LINE
8
BLACK
6
CONTINUOUS
10
2.341
20
0.096123
11
2.34735
21
0.0902542
0
LINE
8
BLACK
6
CONTINUOUS
10
2.34735
20
0.0902542
11
2.35253
21
0.0833267
0
LINE
8
BLACK
6
CONTINUOUS
10
2.35253
20
0.0833267
11
2.35635
21
0.0755725
0
LINE
8
BLACK
6
CONTINUOUS
10
2.35635
20
0.0755725
11
2.3587
21
0.0672513
0
LINE
8
BLACK
6
CONTINUOUS
10
2.3587
20
0.0672513
11
2.35949
21
0.0586417
0
LINE
8
BLACK
6
CONTINUOUS
10
2.35949
20
0.0586417
11
2.35942
21
0.0561692
0
LINE
8
BLACK
6
CONTINUOUS
10
2.35942
20
0.0561692
11
2.35818
21
0.0476128
0
LINE
8
BLACK
6
CONTINUOUS
10
2.35818
20
0.0476128
11
2.3554
21
0.0394258
0
LINE
8
BLACK
6
CONTINUOUS
10
2.3554
20
0.0394258
11
2.35118
21
0.0318824
0
LINE
8
BLACK
6
CONTINUOUS
10
2.35118
20
0.0318824
11
2.34565
21
0.0252351
0
LINE
8
BLACK
6
CONTINUOUS
10
2.34565
20
0.0252351
11
2.339
21
0.0197067
0
LINE
8
BLACK
6
CONTINUOUS
10
2.339
20
0.0197067
11
2.33146
21
0.0154821
0
LINE
8
BLACK
6
CONTINUOUS
10
2.33146
20
0.0154821
11
2.32327
21
0.012703
0
LINE
8
BLACK
6
CONTINUOUS
10
2.32327
20
0.012703
11
2.31472
21
0.0114624
0
LINE
8
BLACK
6
CONTINUOUS
10
2.31472
20
0.0114624
11
2.30608
21
0.0118018
0
LINE
8
BLACK
6
CONTINUOUS
10
2.30608
20
0.0118018
11
2.29764
21
0.0137099
0
LINE
8
BLACK
6
CONTINUOUS
10
2.29764
20
0.0137099
11
2.2897
21
0.0171228
0
LINE
8
BLACK
6
CONTINUOUS
10
2.2897
20
0.0171228
11
2.28251
21
0.0219262
0
LINE
8
BLACK
6
CONTINUOUS
10
2.28251
20
0.0219262
11
2.27632
21
0.0279591
0
LINE
8
BLACK
6
CONTINUOUS
10
2.27632
20
0.0279591
11
2.27133
21
0.0350197
0
LINE
8
BLACK
6
CONTINUOUS
10
2.27133
20
0.0350197
11
2.26771
21
0.0428713
0
LINE
8
BLACK
6
CONTINUOUS
10
2.26771
20
0.0428713
11
2.26558
21
0.0512511
0
LINE
8
BLACK
6
CONTINUOUS
10
2.26558
20
0.0512511
11
2.26502
21
0.0598784
0
LINE
8
BLACK
6
CONTINUOUS
10
2.26502
20
0.0598784
11
2.26603
21
0.0684643
0
LINE
8
BLACK
6
CONTINUOUS
10
2.26603
20
0.0684643
11
2.2686
21
0.0767213
0
LINE
8
BLACK
6
CONTINUOUS
10
2.2686
20
0.0767213
11
2.27262
21
0.0843727
0
LINE
8
BLACK
6
CONTINUOUS
10
2.27262
20
0.0843727
11
2.27797
21
0.0911624
0
LINE
8
BLACK
6
CONTINUOUS
10
2.27797
20
0.0911624
11
2.28447
21
0.096863
0
LINE
8
BLACK
6
CONTINUOUS
10
2.28447
20
0.096863
11
2.2919
21
0.101284
0
LINE
8
BLACK
6
CONTINUOUS
10
2.2919
20
0.101284
11
2.30002
21
0.104276
0
LINE
8
BLACK
6
CONTINUOUS
10
2.30002
20
0.104276
11
2.30854
21
0.10574
0
LINE
8
BLACK
6
CONTINUOUS
10
2.30854
20
0.10574
11
2.31718
21
0.105627
0
LINE
8
BLACK
6
CONTINUOUS
10
1.11718
20
0.105627
11
1.12566
21
0.10394
0
LINE
8
BLACK
6
CONTINUOUS
10
1.12566
20
0.10394
11
1.13369
21
0.100737
0
LINE
8
BLACK
6
CONTINUOUS
10
1.13369
20
0.100737
11
1.141
21
0.096123
0
LINE
8
BLACK
6
CONTINUOUS
10
1.141
20
0.096123
11
1.14735
21
0.0902542
0
LINE
8
BLACK
6
CONTINUOUS
10
1.14735
20
0.0902542
11
1.15253
21
0.0833267
0
LINE
8
BLACK
6
CONTINUOUS
10
1.15253
20
0.0833267
11
1.15635
21
0.0755725
0
LINE
8
BLACK
6
CONTINUOUS
10
1.15635
20
0.0755725
11
1.1587
21
0.0672513
0
LINE
8
BLACK
6
CONTINUOUS
10
1.1587
20
0.0672513
11
1.15949
21
0.0586417
0
LINE
8
BLACK
6
CONTINUOUS
10
1.15949
20
0.0586417
11
1.15942
21
0.0561692
0
LINE
8
BLACK
6
CONTINUOUS
10
1.15942
20
0.0561692
11
1.15818
21
0.0476128
0
LINE
8
BLACK
6
CONTINUOUS
10
1.15818
20
0.0476128
11
1.1554
21
0.0394258
0
LINE
8
BLACK
6
CONTINUOUS
10
1.1554
20
0.0394258
11
1.15118
21
0.0318824
0
LINE
8
BLACK
6
CONTINUOUS
10
1.15118
20
0.0318824
11
1.14565
21
0.0252351
0
LINE
8
BLACK
6
CONTINUOUS
10
1.14565
20
0.0252351
11
1.139
21
0.0197067
0
LINE
8
BLACK
6
CONTINUOUS
10
1.139
20
0.0197067
11
1.13146
21
0.0154821
0
LINE
8
BLACK
6
CONTINUOUS
10
1.13146
20
0.0154821
11
1.12327
21
0.012703
0
LINE
8
BLACK
6
CONTINUOUS
10
1.12327
20
0.012703
11
1.11472
21
0.0114624
0
LINE
8
BLACK
6
CONTINUOUS
10
1.11472
20
0.0114624
11
1.10608
21
0.0118018
0
LINE
8
BLACK
6
CONTINUOUS
10
1.10608
20
0.0118018
11
1.09764
21
0.0137099
0
LINE
8
BLACK
6
CONTINUOUS
10
1.09764
20
0.0137099
11
1.0897
21
0.0171228
0
LINE
8
BLACK
6
CONTINUOUS
10
1.0897
20
0.0171228
11
1.08251
21
0.0219262
0
LINE
8
BLACK
6
CONTINUOUS
10
1.08251
20
0.0219262
11
1.07632
21
0.0279591
0
LINE
8
BLACK
6
CONTINUOUS
10
1.07632
20
0.0279591
11
1.07133
21
0.0350197
0
LINE
8
BLACK
6
CONTINUOUS
10
1.07133
20
0.0350197
11
1.06771
21
0.0428713
0
LINE
8
BLACK
6
CONTINUOUS
10
1.06771
20
0.0428713
11
1.06558
21
0.0512511
0
LINE
8
BLACK
6
CONTINUOUS
10
1.06558
20
0.0512511
11
1.06502
21
0.0598784
0
LINE
8
BLACK
6
CONTINUOUS
10
1.06502
20
0.0598784
11
1.06603
21
0.0684643
0
LINE
8
BLACK
6
CONTINUOUS
10
1.06603
20
0.0684643
11
1.0686
21
0.0767213
0
LINE
8
BLACK
6
CONTINUOUS
10
1.0686
20
0.0767213
11
1.07262
21
0.0843727
0
LINE
8
BLACK
6
CONTINUOUS
10
1.07262
20
0.0843727
11
1.07797
21
0.0911624
0
LINE
8
BLACK
6
CONTINUOUS
10
1.07797
20
0.0911624
11
1.08447
21
0.096863
0
LINE
8
BLACK
6
CONTINUOUS
10
1.08447
20
0.096863
11
1.0919
21
0.101284
0
LINE
8
BLACK
6
CONTINUOUS
10
1.0919
20
0.101284
11
1.10002
21
0.104276
0
LINE
8
BLACK
6
CONTINUOUS
10
1.10002
20
0.104276
11
1.10854
21
0.10574
0
LINE
8
BLACK
6
CONTINUOUS
10
1.10854
20
0.10574
11
1.11718
21
0.105627
0
LINE
8
BLACK
6
CONTINUOUS
10
2.56424
20
0.254092
11
2.57772
21
0.252317
0
LINE
8
BLACK
6
CONTINUOUS
10
2.57772
20
0.252317
11
2.59091
21
0.249005
0
LINE
8
BLACK
6
CONTINUOUS
10
2.59091
20
0.249005
11
2.60363
21
0.244198
0
LINE
8
BLACK
6
CONTINUOUS
10
2.60363
20
0.244198
11
2.61571
21
0.237962
0
LINE
8
BLACK
6
CONTINUOUS
10
2.61571
20
0.237962
11
2.627
21
0.230378
0
LINE
8
BLACK
6
CONTINUOUS
10
2.627
20
0.230378
11
2.63734
21
0.221546
0
LINE
8
BLACK
6
CONTINUOUS
10
2.63734
20
0.221546
11
2.6466
21
0.211586
0
LINE
8
BLACK
6
CONTINUOUS
10
2.6466
20
0.211586
11
2.65465
21
0.200627
0
LINE
8
BLACK
6
CONTINUOUS
10
2.65465
20
0.200627
11
2.66138
21
0.188815
0
LINE
8
BLACK
6
CONTINUOUS
10
2.66138
20
0.188815
11
2.66672
21
0.176308
0
LINE
8
BLACK
6
CONTINUOUS
10
2.66672
20
0.176308
11
2.67058
21
0.16327
0
LINE
8
BLACK
6
CONTINUOUS
10
2.67058
20
0.16327
11
2.67292
21
0.149874
0
LINE
8
BLACK
6
CONTINUOUS
10
2.67292
20
0.149874
11
2.6737
21
0.136299
0
LINE
8
BLACK
6
CONTINUOUS
10
2.6737
20
0.136299
11
2.67347
21
0.128883
0
LINE
8
BLACK
6
CONTINUOUS
10
2.67347
20
0.128883
11
2.67183
21
0.115384
0
LINE
8
BLACK
6
CONTINUOUS
10
2.67183
20
0.115384
11
2.66866
21
0.102162
0
LINE
8
BLACK
6
CONTINUOUS
10
2.66866
20
0.102162
11
2.66399
21
0.089392
0
LINE
8
BLACK
6
CONTINUOUS
10
2.66399
20
0.089392
11
2.65788
21
0.0772441
0
LINE
8
BLACK
6
CONTINUOUS
10
2.65788
20
0.0772441
11
2.65041
21
0.0658789
0
LINE
8
BLACK
6
CONTINUOUS
10
2.65041
20
0.0658789
11
2.64169
21
0.0554472
0
LINE
8
BLACK
6
CONTINUOUS
10
2.64169
20
0.0554472
11
2.63183
21
0.0460871
0
LINE
8
BLACK
6
CONTINUOUS
10
2.63183
20
0.0460871
11
2.62095
21
0.0379227
0
LINE
8
BLACK
6
CONTINUOUS
10
2.62095
20
0.0379227
11
2.60921
21
0.0310622
0
LINE
8
BLACK
6
CONTINUOUS
10
2.60921
20
0.0310622
11
2.59676
21
0.0255966
0
LINE
8
BLACK
6
CONTINUOUS
10
2.59676
20
0.0255966
11
2.58376
21
0.0215983
0
LINE
8
BLACK
6
CONTINUOUS
10
2.58376
20
0.0215983
11
2.57039
21
0.0191203
0
LINE
8
BLACK
6
CONTINUOUS
10
2.57039
20
0.0191203
11
2.55683
21
0.0181954
0
LINE
8
BLACK
6
CONTINUOUS
10
2.55683
20
0.0181954
11
2.54324
21
0.018836
0
LINE
8
BLACK
6
CONTINUOUS
10
2.54324
20
0.018836
11
2.52983
21
0.0210335
0
LINE
8
BLACK
6
CONTINUOUS
10
2.52983
20
0.0210335
11
2.51675
21
0.0247587
0
LINE
8
BLACK
6
CONTINUOUS
10
2.51675
20
0.0247587
11
2.50419
21
0.0299624
0
LINE
8
BLACK
6
CONTINUOUS
10
2.50419
20
0.0299624
11
2.4923
21
0.0365754
0
LINE
8
BLACK
6
CONTINUOUS
10
2.4923
20
0.0365754
11
2.48126
21
0.0445103
0
LINE
8
BLACK
6
CONTINUOUS
10
2.48126
20
0.0445103
11
2.4712
21
0.0536618
0
LINE
8
BLACK
6
CONTINUOUS
10
2.4712
20
0.0536618
11
2.46227
21
0.0639086
0
LINE
8
BLACK
6
CONTINUOUS
10
2.46227
20
0.0639086
11
2.45456
21
0.0751149
0
LINE
8
BLACK
6
CONTINUOUS
10
2.45456
20
0.0751149
11
2.4482
21
0.0871322
0
LINE
8
BLACK
6
CONTINUOUS
10
2.4482
20
0.0871322
11
2.44326
21
0.0998011
0
LINE
8
BLACK
6
CONTINUOUS
10
2.44326
20
0.0998011
11
2.43981
21
0.112954
0
LINE
8
BLACK
6
CONTINUOUS
10
2.43981
20
0.112954
11
2.43789
21
0.126416
0
LINE
8
BLACK
6
CONTINUOUS
10
2.43789
20
0.126416
11
2.43754
21
0.140009
0
LINE
8
BLACK
6
CONTINUOUS
10
2.43754
20
0.140009
11
2.43875
21
0.153553
0
LINE
8
BLACK
6
CONTINUOUS
10
2.43875
20
0.153553
11
2.4415
21
0.166868
0
LINE
8
BLACK
6
CONTINUOUS
10
2.4415
20
0.166868
11
2.44577
21
0.179779
0
LINE
8
BLACK
6
CONTINUOUS
10
2.44577
20
0.179779
11
2.4515
21
0.192112
0
LINE
8
BLACK
6
CONTINUOUS
10
2.4515
20
0.192112
11
2.4586
21
0.203706
0
LINE
8
BLACK
6
CONTINUOUS
10
2.4586
20
0.203706
11
2.46699
21
0.214407
0
LINE
8
BLACK
6
CONTINUOUS
10
2.46699
20
0.214407
11
2.47656
21
0.224072
0
LINE
8
BLACK
6
CONTINUOUS
10
2.47656
20
0.224072
11
2.48717
21
0.232574
0
LINE
8
BLACK
6
CONTINUOUS
10
2.48717
20
0.232574
11
2.49869
21
0.2398
0
LINE
8
BLACK
6
CONTINUOUS
10
2.49869
20
0.2398
11
2.51096
21
0.245654
0
LINE
8
BLACK
6
CONTINUOUS
10
2.51096
20
0.245654
11
2.52383
21
0.250059
0
LINE
8
BLACK
6
CONTINUOUS
10
2.52383
20
0.250059
11
2.53711
21
0.252955
0
LINE
8
BLACK
6
CONTINUOUS
10
2.53711
20
0.252955
11
2.55064
21
0.254306
0
LINE
8
BLACK
6
CONTINUOUS
10
2.55064
20
0.254306
11
2.56424
21
0.254092
0
LINE
8
BLACK
6
CONTINUOUS
10
0.517441
20
0.108642
11
0.367441
21
0.108642
0
LINE
8
BLACK
6
CONTINUOUS
10
0.367441
20
0.108642
11
0.367441
21
0.258642
0
LINE
8
BLACK
6
CONTINUOUS
10
0.367441
20
0.258642
11
0.517441
21
0.258642
0
LINE
8
BLACK
6
CONTINUOUS
10
0.517441
20
0.258642
11
0.517441
21
0.108642
0
LINE
8
BLACK
6
CONTINUOUS
10
0.320591
20
0.108642
11
0.170591
21
0.108642
0
LINE
8
BLACK
6
CONTINUOUS
10
0.170591
20
0.108642
11
0.170591
21
0.258642
0
LINE
8
BLACK
6
CONTINUOUS
10
0.170591
20
0.258642
11
0.320591
21
0.258642
0
LINE
8
BLACK
6
CONTINUOUS
10
0.320591
20
0.258642
11
0.320591
21
0.108642
0
LINE
8
BLACK
6
CONTINUOUS
10
0.705686
20
0.238484
11
0.714635
21
0.236086
0
LINE
8
BLACK
6
CONTINUOUS
10
0.714635
20
0.236086
11
0.723031
21
0.232171
0
LINE
8
BLACK
6
CONTINUOUS
10
0.723031
20
0.232171
11
0.730621
21
0.226857
0
LINE
8
BLACK
6
CONTINUOUS
10
0.730621
20
0.226857
11
0.737172
21
0.220306
0
LINE
8
BLACK
6
CONTINUOUS
10
0.737172
20
0.220306
11
0.742486
21
0.212717
0
LINE
8
BLACK
6
CONTINUOUS
10
0.742486
20
0.212717
11
0.746401
21
0.20432
0
LINE
8
BLACK
6
CONTINUOUS
10
0.746401
20
0.20432
11
0.748799
21
0.195371
0
LINE
8
BLACK
6
CONTINUOUS
10
0.748799
20
0.195371
11
0.749606
21
0.186142
0
LINE
8
BLACK
6
CONTINUOUS
10
0.749606
20
0.186142
11
0.748799
21
0.176912
0
LINE
8
BLACK
6
CONTINUOUS
10
0.748799
20
0.176912
11
0.746401
21
0.167964
0
LINE
8
BLACK
6
CONTINUOUS
10
0.746401
20
0.167964
11
0.742486
21
0.159567
0
LINE
8
BLACK
6
CONTINUOUS
10
0.742486
20
0.159567
11
0.737172
21
0.151978
0
LINE
8
BLACK
6
CONTINUOUS
10
0.737172
20
0.151978
11
0.730621
21
0.145427
0
LINE
8
BLACK
6
CONTINUOUS
10
0.730621
20
0.145427
11
0.723031
21
0.140113
0
LINE
8
BLACK
6
CONTINUOUS
10
0.723031
20
0.140113
11
0.714635
21
0.136197
0
LINE
8
BLACK
6
CONTINUOUS
10
0.714635
20
0.136197
11
0.705686
21
0.1338
0
LINE
8
BLACK
6
CONTINUOUS
10
0.705686
20
0.1338
11
0.696457
21
0.132992
0
LINE
8
BLACK
6
CONTINUOUS
10
0.696457
20
0.132992
11
0.687227
21
0.1338
0
LINE
8
BLACK
6
CONTINUOUS
10
0.687227
20
0.1338
11
0.678278
21
0.136197
0
LINE
8
BLACK
6
CONTINUOUS
10
0.678278
20
0.136197
11
0.669882
21
0.140113
0
LINE
8
BLACK
6
CONTINUOUS
10
0.669882
20
0.140113
11
0.662293
21
0.145427
0
LINE
8
BLACK
6
CONTINUOUS
10
0.662293
20
0.145427
11
0.655742
21
0.151978
0
LINE
8
BLACK
6
CONTINUOUS
10
0.655742
20
0.151978
11
0.650428
21
0.159567
0
LINE
8
BLACK
6
CONTINUOUS
10
0.650428
20
0.159567
11
0.646512
21
0.167964
0
LINE
8
BLACK
6
CONTINUOUS
10
0.646512
20
0.167964
11
0.644115
21
0.176912
0
LINE
8
BLACK
6
CONTINUOUS
10
0.644115
20
0.176912
11
0.643307
21
0.186142
0
LINE
8
BLACK
6
CONTINUOUS
10
0.643307
20
0.186142
11
0.644115
21
0.195371
0
LINE
8
BLACK
6
CONTINUOUS
10
0.644115
20
0.195371
11
0.646512
21
0.20432
0
LINE
8
BLACK
6
CONTINUOUS
10
0.646512
20
0.20432
11
0.650428
21
0.212717
0
LINE
8
BLACK
6
CONTINUOUS
10
0.650428
20
0.212717
11
0.655742
21
0.220306
0
LINE
8
BLACK
6
CONTINUOUS
10
0.655742
20
0.220306
11
0.662293
21
0.226857
0
LINE
8
BLACK
6
CONTINUOUS
10
0.662293
20
0.226857
11
0.669882
21
0.232171
0
LINE
8
BLACK
6
CONTINUOUS
10
0.669882
20
0.232171
11
0.678278
21
0.236086
0
LINE
8
BLACK
6
CONTINUOUS
10
0.678278
20
0.236086
11
0.687227
21
0.238484
0
LINE
8
BLACK
6
CONTINUOUS
10
0.687227
20
0.238484
11
0.696457
21
0.239291
0
LINE
8
BLACK
6
CONTINUOUS
10
0.696457
20
0.239291
11
0.705686
21
0.238484
0
LINE
8
BLACK
6
CONTINUOUS
10
0.320591
20
0.308642
11
0.170591
21
0.308642
0
LINE
8
BLACK
6
CONTINUOUS
10
0.170591
20
0.308642
11
0.170591
21
0.458642
0
LINE
8
BLACK
6
CONTINUOUS
10
0.170591
20
0.458642
11
0.320591
21
0.458642
0
LINE
8
BLACK
6
CONTINUOUS
10
0.320591
20
0.458642
11
0.320591
21
0.308642
0
LINE
8
BLACK
6
CONTINUOUS
10
0.517441
20
0.308642
11
0.367441
21
0.308642
0
LINE
8
BLACK
6
CONTINUOUS
10
0.367441
20
0.308642
11
0.367441
21
0.458642
0
LINE
8
BLACK
6
CONTINUOUS
10
0.367441
20
0.458642
11
0.517441
21
0.458642
0
LINE
8
BLACK
6
CONTINUOUS
10
0.517441
20
0.458642
11
0.517441
21
0.308642
0
LINE
8
BLACK
6
CONTINUOUS
10
0.710686
20
0.438484
11
0.719635
21
0.436086
0
LINE
8
BLACK
6
CONTINUOUS
10
0.719635
20
0.436086
11
0.728031
21
0.432171
0
LINE
8
BLACK
6
CONTINUOUS
10
0.728031
20
0.432171
11
0.735621
21
0.426857
0
LINE
8
BLACK
6
CONTINUOUS
10
0.735621
20
0.426857
11
0.742172
21
0.420306
0
LINE
8
BLACK
6
CONTINUOUS
10
0.742172
20
0.420306
11
0.747486
21
0.412717
0
LINE
8
BLACK
6
CONTINUOUS
10
0.747486
20
0.412717
11
0.751401
21
0.40432
0
LINE
8
BLACK
6
CONTINUOUS
10
0.751401
20
0.40432
11
0.753799
21
0.395371
0
LINE
8
BLACK
6
CONTINUOUS
10
0.753799
20
0.395371
11
0.754606
21
0.386142
0
LINE
8
BLACK
6
CONTINUOUS
10
0.754606
20
0.386142
11
0.753799
21
0.376912
0
LINE
8
BLACK
6
CONTINUOUS
10
0.753799
20
0.376912
11
0.751401
21
0.367964
0
LINE
8
BLACK
6
CONTINUOUS
10
0.751401
20
0.367964
11
0.747486
21
0.359567
0
LINE
8
BLACK
6
CONTINUOUS
10
0.747486
20
0.359567
11
0.742172
21
0.351978
0
LINE
8
BLACK
6
CONTINUOUS
10
0.742172
20
0.351978
11
0.735621
21
0.345427
0
LINE
8
BLACK
6
CONTINUOUS
10
0.735621
20
0.345427
11
0.728031
21
0.340113
0
LINE
8
BLACK
6
CONTINUOUS
10
0.728031
20
0.340113
11
0.719635
21
0.336197
0
LINE
8
BLACK
6
CONTINUOUS
10
0.719635
20
0.336197
11
0.710686
21
0.3338
0
LINE
8
BLACK
6
CONTINUOUS
10
0.710686
20
0.3338
11
0.701457
21
0.332992
0
LINE
8
BLACK
6
CONTINUOUS
10
0.701457
20
0.332992
11
0.692227
21
0.3338
0
LINE
8
BLACK
6
CONTINUOUS
10
0.692227
20
0.3338
11
0.683278
21
0.336197
0
LINE
8
BLACK
6
CONTINUOUS
10
0.683278
20
0.336197
11
0.674882
21
0.340113
0
LINE
8
BLACK
6
CONTINUOUS
10
0.674882
20
0.340113
11
0.667293
21
0.345427
0
LINE
8
BLACK
6
CONTINUOUS
10
0.667293
20
0.345427
11
0.660742
21
0.351978
0
LINE
8
BLACK
6
CONTINUOUS
10
0.660742
20
0.351978
11
0.655428
21
0.359567
0
LINE
8
BLACK
6
CONTINUOUS
10
0.655428
20
0.359567
11
0.651512
21
0.367964
0
LINE
8
BLACK
6
CONTINUOUS
10
0.651512
20
0.367964
11
0.649115
21
0.376912
0
LINE
8
BLACK
6
CONTINUOUS
10
0.649115
20
0.376912
11
0.648307
21
0.386142
0
LINE
8
BLACK
6
CONTINUOUS
10
0.648307
20
0.386142
11
0.649115
21
0.395371
0
LINE
8
BLACK
6
CONTINUOUS
10
0.649115
20
0.395371
11
0.651512
21
0.40432
0
LINE
8
BLACK
6
CONTINUOUS
10
0.651512
20
0.40432
11
0.655428
21
0.412717
0
LINE
8
BLACK
6
CONTINUOUS
10
0.655428
20
0.412717
11
0.660742
21
0.420306
0
LINE
8
BLACK
6
CONTINUOUS
10
0.660742
20
0.420306
11
0.667293
21
0.426857
0
LINE
8
BLACK
6
CONTINUOUS
10
0.667293
20
0.426857
11
0.674882
21
0.432171
0
LINE
8
BLACK
6
CONTINUOUS
10
0.674882
20
0.432171
11
0.683278
21
0.436086
0
LINE
8
BLACK
6
CONTINUOUS
10
0.683278
20
0.436086
11
0.692227
21
0.438484
0
LINE
8
BLACK
6
CONTINUOUS
10
0.692227
20
0.438484
11
0.701457
21
0.439291
0
LINE
8
BLACK
6
CONTINUOUS
10
0.701457
20
0.439291
11
0.710686
21
0.438484
0
LINE
8
BLACK
6
CONTINUOUS
10
2.56424
20
0.584801
11
2.57772
21
0.583026
0
LINE
8
BLACK
6
CONTINUOUS
10
2.57772
20
0.583026
11
2.59091
21
0.579713
0
LINE
8
BLACK
6
CONTINUOUS
10
2.59091
20
0.579713
11
2.60363
21
0.574907
0
LINE
8
BLACK
6
CONTINUOUS
10
2.60363
20
0.574907
11
2.61571
21
0.56867
0
LINE
8
BLACK
6
CONTINUOUS
10
2.61571
20
0.56867
11
2.627
21
0.561086
0
LINE
8
BLACK
6
CONTINUOUS
10
2.627
20
0.561086
11
2.63734
21
0.552255
0
LINE
8
BLACK
6
CONTINUOUS
10
2.63734
20
0.552255
11
2.6466
21
0.542294
0
LINE
8
BLACK
6
CONTINUOUS
10
2.6466
20
0.542294
11
2.65465
21
0.531335
0
LINE
8
BLACK
6
CONTINUOUS
10
2.65465
20
0.531335
11
2.66138
21
0.519524
0
LINE
8
BLACK
6
CONTINUOUS
10
2.66138
20
0.519524
11
2.66672
21
0.507016
0
LINE
8
BLACK
6
CONTINUOUS
10
2.66672
20
0.507016
11
2.67058
21
0.493978
0
LINE
8
BLACK
6
CONTINUOUS
10
2.67058
20
0.493978
11
2.67292
21
0.480583
0
LINE
8
BLACK
6
CONTINUOUS
10
2.67292
20
0.480583
11
2.6737
21
0.467008
0
LINE
8
BLACK
6
CONTINUOUS
10
2.6737
20
0.467008
11
2.67347
21
0.459592
0
LINE
8
BLACK
6
CONTINUOUS
10
2.67347
20
0.459592
11
2.67183
21
0.446092
0
LINE
8
BLACK
6
CONTINUOUS
10
2.67183
20
0.446092
11
2.66866
21
0.43287
0
LINE
8
BLACK
6
CONTINUOUS
10
2.66866
20
0.43287
11
2.66399
21
0.420101
0
LINE
8
BLACK
6
CONTINUOUS
10
2.66399
20
0.420101
11
2.65788
21
0.407953
0
LINE
8
BLACK
6
CONTINUOUS
10
2.65788
20
0.407953
11
2.65041
21
0.396588
0
LINE
8
BLACK
6
CONTINUOUS
10
2.65041
20
0.396588
11
2.64169
21
0.386156
0
LINE
8
BLACK
6
CONTINUOUS
10
2.64169
20
0.386156
11
2.63183
21
0.376796
0
LINE
8
BLACK
6
CONTINUOUS
10
2.63183
20
0.376796
11
2.62095
21
0.368631
0
LINE
8
BLACK
6
CONTINUOUS
10
2.62095
20
0.368631
11
2.60921
21
0.361771
0
LINE
8
BLACK
6
CONTINUOUS
10
2.60921
20
0.361771
11
2.59676
21
0.356305
0
LINE
8
BLACK
6
CONTINUOUS
10
2.59676
20
0.356305
11
2.58376
21
0.352307
0
LINE
8
BLACK
6
CONTINUOUS
10
2.58376
20
0.352307
11
2.57039
21
0.349829
0
LINE
8
BLACK
6
CONTINUOUS
10
2.57039
20
0.349829
11
2.55683
21
0.348904
0
LINE
8
BLACK
6
CONTINUOUS
10
2.55683
20
0.348904
11
2.54324
21
0.349545
0
LINE
8
BLACK
6
CONTINUOUS
10
2.54324
20
0.349545
11
2.52983
21
0.351742
0
LINE
8
BLACK
6
CONTINUOUS
10
2.52983
20
0.351742
11
2.51675
21
0.355467
0
LINE
8
BLACK
6
CONTINUOUS
10
2.51675
20
0.355467
11
2.50419
21
0.360671
0
LINE
8
BLACK
6
CONTINUOUS
10
2.50419
20
0.360671
11
2.4923
21
0.367284
0
LINE
8
BLACK
6
CONTINUOUS
10
2.4923
20
0.367284
11
2.48126
21
0.375219
0
LINE
8
BLACK
6
CONTINUOUS
10
2.48126
20
0.375219
11
2.4712
21
0.38437
0
LINE
8
BLACK
6
CONTINUOUS
10
2.4712
20
0.38437
11
2.46227
21
0.394617
0
LINE
8
BLACK
6
CONTINUOUS
10
2.46227
20
0.394617
11
2.45456
21
0.405824
0
LINE
8
BLACK
6
CONTINUOUS
10
2.45456
20
0.405824
11
2.4482
21
0.417841
0
LINE
8
BLACK
6
CONTINUOUS
10
2.4482
20
0.417841
11
2.44326
21
0.43051
0
LINE
8
BLACK
6
CONTINUOUS
10
2.44326
20
0.43051
11
2.43981
21
0.443663
0
LINE
8
BLACK
6
CONTINUOUS
10
2.43981
20
0.443663
11
2.43789
21
0.457125
0
LINE
8
BLACK
6
CONTINUOUS
10
2.43789
20
0.457125
11
2.43754
21
0.470718
0
LINE
8
BLACK
6
CONTINUOUS
10
2.43754
20
0.470718
11
2.43875
21
0.484262
0
LINE
8
BLACK
6
CONTINUOUS
10
2.43875
20
0.484262
11
2.4415
21
0.497577
0
LINE
8
BLACK
6
CONTINUOUS
10
2.4415
20
0.497577
11
2.44577
21
0.510487
0
LINE
8
BLACK
6
CONTINUOUS
10
2.44577
20
0.510487
11
2.4515
21
0.522821
0
LINE
8
BLACK
6
CONTINUOUS
10
2.4515
20
0.522821
11
2.4586
21
0.534415
0
LINE
8
BLACK
6
CONTINUOUS
10
2.4586
20
0.534415
11
2.46699
21
0.545116
0
LINE
8
BLACK
6
CONTINUOUS
10
2.46699
20
0.545116
11
2.47656
21
0.554781
0
LINE
8
BLACK
6
CONTINUOUS
10
2.47656
20
0.554781
11
2.48717
21
0.563283
0
LINE
8
BLACK
6
CONTINUOUS
10
2.48717
20
0.563283
11
2.49869
21
0.570509
0
LINE
8
BLACK
6
CONTINUOUS
10
2.49869
20
0.570509
11
2.51096
21
0.576363
0
LINE
8
BLACK
6
CONTINUOUS
10
2.51096
20
0.576363
11
2.52383
21
0.580767
0
LINE
8
BLACK
6
CONTINUOUS
10
2.52383
20
0.580767
11
2.53711
21
0.583664
0
LINE
8
BLACK
6
CONTINUOUS
10
2.53711
20
0.583664
11
2.55064
21
0.585014
0
LINE
8
BLACK
6
CONTINUOUS
10
2.55064
20
0.585014
11
2.56424
21
0.584801
0
LINE
8
BLACK
6
CONTINUOUS
10
2.18718
20
0.510627
11
2.19566
21
0.50894
0
LINE
8
BLACK
6
CONTINUOUS
10
2.19566
20
0.50894
11
2.20369
21
0.505737
0
LINE
8
BLACK
6
CONTINUOUS
10
2.20369
20
0.505737
11
2.211
21
0.501123
0
LINE
8
BLACK
6
CONTINUOUS
10
2.211
20
0.501123
11
2.21735
21
0.495254
0
LINE
8
BLACK
6
CONTINUOUS
10
2.21735
20
0.495254
11
2.22253
21
0.488327
0
LINE
8
BLACK
6
CONTINUOUS
10
2.22253
20
0.488327
11
2.22635
21
0.480573
0
LINE
8
BLACK
6
CONTINUOUS
10
2.22635
20
0.480573
11
2.2287
21
0.472251
0
LINE
8
BLACK
6
CONTINUOUS
10
2.2287
20
0.472251
11
2.22949
21
0.463642
0
LINE
8
BLACK
6
CONTINUOUS
10
2.22949
20
0.463642
11
2.22942
21
0.461169
0
LINE
8
BLACK
6
CONTINUOUS
10
2.22942
20
0.461169
11
2.22818
21
0.452613
0
LINE
8
BLACK
6
CONTINUOUS
10
2.22818
20
0.452613
11
2.2254
21
0.444426
0
LINE
8
BLACK
6
CONTINUOUS
10
2.2254
20
0.444426
11
2.22118
21
0.436882
0
LINE
8
BLACK
6
CONTINUOUS
10
2.22118
20
0.436882
11
2.21565
21
0.430235
0
LINE
8
BLACK
6
CONTINUOUS
10
2.21565
20
0.430235
11
2.209
21
0.424707
0
LINE
8
BLACK
6
CONTINUOUS
10
2.209
20
0.424707
11
2.20146
21
0.420482
0
LINE
8
BLACK
6
CONTINUOUS
10
2.20146
20
0.420482
11
2.19327
21
0.417703
0
LINE
8
BLACK
6
CONTINUOUS
10
2.19327
20
0.417703
11
2.18472
21
0.416462
0
LINE
8
BLACK
6
CONTINUOUS
10
2.18472
20
0.416462
11
2.17608
21
0.416802
0
LINE
8
BLACK
6
CONTINUOUS
10
2.17608
20
0.416802
11
2.16764
21
0.41871
0
LINE
8
BLACK
6
CONTINUOUS
10
2.16764
20
0.41871
11
2.1597
21
0.422123
0
LINE
8
BLACK
6
CONTINUOUS
10
2.1597
20
0.422123
11
2.15251
21
0.426926
0
LINE
8
BLACK
6
CONTINUOUS
10
2.15251
20
0.426926
11
2.14632
21
0.432959
0
LINE
8
BLACK
6
CONTINUOUS
10
2.14632
20
0.432959
11
2.14133
21
0.44002
0
LINE
8
BLACK
6
CONTINUOUS
10
2.14133
20
0.44002
11
2.13771
21
0.447871
0
LINE
8
BLACK
6
CONTINUOUS
10
2.13771
20
0.447871
11
2.13558
21
0.456251
0
LINE
8
BLACK
6
CONTINUOUS
10
2.13558
20
0.456251
11
2.13502
21
0.464878
0
LINE
8
BLACK
6
CONTINUOUS
10
2.13502
20
0.464878
11
2.13603
21
0.473464
0
LINE
8
BLACK
6
CONTINUOUS
10
2.13603
20
0.473464
11
2.1386
21
0.481721
0
LINE
8
BLACK
6
CONTINUOUS
10
2.1386
20
0.481721
11
2.14262
21
0.489373
0
LINE
8
BLACK
6
CONTINUOUS
10
2.14262
20
0.489373
11
2.14797
21
0.496162
0
LINE
8
BLACK
6
CONTINUOUS
10
2.14797
20
0.496162
11
2.15447
21
0.501863
0
LINE
8
BLACK
6
CONTINUOUS
10
2.15447
20
0.501863
11
2.1619
21
0.506284
0
LINE
8
BLACK
6
CONTINUOUS
10
2.1619
20
0.506284
11
2.17002
21
0.509276
0
LINE
8
BLACK
6
CONTINUOUS
10
2.17002
20
0.509276
11
2.17854
21
0.51074
0
LINE
8
BLACK
6
CONTINUOUS
10
2.17854
20
0.51074
11
2.18718
21
0.510627
0
LINE
8
BLACK
6
CONTINUOUS
10
0.987182
20
0.510627
11
0.995662
21
0.50894
0
LINE
8
BLACK
6
CONTINUOUS
10
0.995662
20
0.50894
11
1.00369
21
0.505737
0
LINE
8
BLACK
6
CONTINUOUS
10
1.00369
20
0.505737
11
1.011
21
0.501123
0
LINE
8
BLACK
6
CONTINUOUS
10
1.011
20
0.501123
11
1.01735
21
0.495254
0
LINE
8
BLACK
6
CONTINUOUS
10
1.01735
20
0.495254
11
1.02253
21
0.488327
0
LINE
8
BLACK
6
CONTINUOUS
10
1.02253
20
0.488327
11
1.02635
21
0.480573
0
LINE
8
BLACK
6
CONTINUOUS
10
1.02635
20
0.480573
11
1.0287
21
0.472251
0
LINE
8
BLACK
6
CONTINUOUS
10
1.0287
20
0.472251
11
1.02949
21
0.463642
0
LINE
8
BLACK
6
CONTINUOUS
10
1.02949
20
0.463642
11
1.02942
21
0.461169
0
LINE
8
BLACK
6
CONTINUOUS
10
1.02942
20
0.461169
11
1.02818
21
0.452613
0
LINE
8
BLACK
6
CONTINUOUS
10
1.02818
20
0.452613
11
1.0254
21
0.444426
0
LINE
8
BLACK
6
CONTINUOUS
10
1.0254
20
0.444426
11
1.02118
21
0.436882
0
LINE
8
BLACK
6
CONTINUOUS
10
1.02118
20
0.436882
11
1.01565
21
0.430235
0
LINE
8
BLACK
6
CONTINUOUS
10
1.01565
20
0.430235
11
1.009
21
0.424707
0
LINE
8
BLACK
6
CONTINUOUS
10
1.009
20
0.424707
11
1.00146
21
0.420482
0
LINE
8
BLACK
6
CONTINUOUS
10
1.00146
20
0.420482
11
0.993273
21
0.417703
0
LINE
8
BLACK
6
CONTINUOUS
10
0.993273
20
0.417703
11
0.984717
21
0.416462
0
LINE
8
BLACK
6
CONTINUOUS
10
0.984717
20
0.416462
11
0.976078
21
0.416802
0
LINE
8
BLACK
6
CONTINUOUS
10
0.976078
20
0.416802
11
0.967645
21
0.41871
0
LINE
8
BLACK
6
CONTINUOUS
10
0.967645
20
0.41871
11
0.959701
21
0.422123
0
LINE
8
BLACK
6
CONTINUOUS
10
0.959701
20
0.422123
11
0.952512
21
0.426926
0
LINE
8
BLACK
6
CONTINUOUS
10
0.952512
20
0.426926
11
0.946319
21
0.432959
0
LINE
8
BLACK
6
CONTINUOUS
10
0.946319
20
0.432959
11
0.94133
21
0.44002
0
LINE
8
BLACK
6
CONTINUOUS
10
0.94133
20
0.44002
11
0.93771
21
0.447871
0
LINE
8
BLACK
6
CONTINUOUS
10
0.93771
20
0.447871
11
0.935582
21
0.456251
0
LINE
8
BLACK
6
CONTINUOUS
10
0.935582
20
0.456251
11
0.935016
21
0.464878
0
LINE
8
BLACK
6
CONTINUOUS
10
0.935016
20
0.464878
11
0.936032
21
0.473464
0
LINE
8
BLACK
6
CONTINUOUS
10
0.936032
20
0.473464
11
0.938596
21
0.481721
0
LINE
8
BLACK
6
CONTINUOUS
10
0.938596
20
0.481721
11
0.942622
21
0.489373
0
LINE
8
BLACK
6
CONTINUOUS
10
0.942622
20
0.489373
11
0.947974
21
0.496162
0
LINE
8
BLACK
6
CONTINUOUS
10
0.947974
20
0.496162
11
0.954475
21
0.501863
0
LINE
8
BLACK
6
CONTINUOUS
10
0.954475
20
0.501863
11
0.961905
21
0.506284
0
LINE
8
BLACK
6
CONTINUOUS
10
0.961905
20
0.506284
11
0.970016
21
0.509276
0
LINE
8
BLACK
6
CONTINUOUS
10
0.970016
20
0.509276
11
0.978537
21
0.51074
0
LINE
8
BLACK
6
CONTINUOUS
10
0.978537
20
0.51074
11
0.987182
21
0.510627
0
LINE
8
BLACK
6
CONTINUOUS
10
0.517441
20
0.508642
11
0.367441
21
0.508642
0
LINE
8
BLACK
6
CONTINUOUS
10
0.367441
20
0.508642
11
0.367441
21
0.658642
0
LINE
8
BLACK
6
CONTINUOUS
10
0.367441
20
0.658642
11
0.517441
21
0.658642
0
LINE
8
BLACK
6
CONTINUOUS
10
0.517441
20
0.658642
11
0.517441
21
0.508642
0
LINE
8
BLACK
6
CONTINUOUS
10
0.320591
20
0.508642
11
0.170591
21
0.508642
0
LINE
8
BLACK
6
CONTINUOUS
10
0.170591
20
0.508642
11
0.170591
21
0.658642
0
LINE
8
BLACK
6
CONTINUOUS
10
0.170591
20
0.658642
11
0.320591
21
0.658642
0
LINE
8
BLACK
6
CONTINUOUS
10
0.320591
20
0.658642
11
0.320591
21
0.508642
0
LINE
8
BLACK
6
CONTINUOUS
10
0.710686
20
0.643484
11
0.719635
21
0.641086
0
LINE
8
BLACK
6
CONTINUOUS
10
0.719635
20
0.641086
11
0.728031
21
0.637171
0
LINE
8
BLACK
6
CONTINUOUS
10
0.728031
20
0.637171
11
0.735621
21
0.631857
0
LINE
8
BLACK
6
CONTINUOUS
10
0.735621
20
0.631857
11
0.742172
21
0.625306
0
LINE
8
BLACK
6
CONTINUOUS
10
0.742172
20
0.625306
11
0.747486
21
0.617717
0
LINE
8
BLACK
6
CONTINUOUS
10
0.747486
20
0.617717
11
0.751401
21
0.60932
0
LINE
8
BLACK
6
CONTINUOUS
10
0.751401
20
0.60932
11
0.753799
21
0.600371
0
LINE
8
BLACK
6
CONTINUOUS
10
0.753799
20
0.600371
11
0.754606
21
0.591142
0
LINE
8
BLACK
6
CONTINUOUS
10
0.754606
20
0.591142
11
0.753799
21
0.581912
0
LINE
8
BLACK
6
CONTINUOUS
10
0.753799
20
0.581912
11
0.751401
21
0.572964
0
LINE
8
BLACK
6
CONTINUOUS
10
0.751401
20
0.572964
11
0.747486
21
0.564567
0
LINE
8
BLACK
6
CONTINUOUS
10
0.747486
20
0.564567
11
0.742172
21
0.556978
0
LINE
8
BLACK
6
CONTINUOUS
10
0.742172
20
0.556978
11
0.735621
21
0.550427
0
LINE
8
BLACK
6
CONTINUOUS
10
0.735621
20
0.550427
11
0.728031
21
0.545113
0
LINE
8
BLACK
6
CONTINUOUS
10
0.728031
20
0.545113
11
0.719635
21
0.541197
0
LINE
8
BLACK
6
CONTINUOUS
10
0.719635
20
0.541197
11
0.710686
21
0.5388
0
LINE
8
BLACK
6
CONTINUOUS
10
0.710686
20
0.5388
11
0.701457
21
0.537992
0
LINE
8
BLACK
6
CONTINUOUS
10
0.701457
20
0.537992
11
0.692227
21
0.5388
0
LINE
8
BLACK
6
CONTINUOUS
10
0.692227
20
0.5388
11
0.683278
21
0.541197
0
LINE
8
BLACK
6
CONTINUOUS
10
0.683278
20
0.541197
11
0.674882
21
0.545113
0
LINE
8
BLACK
6
CONTINUOUS
10
0.674882
20
0.545113
11
0.667293
21
0.550427
0
LINE
8
BLACK
6
CONTINUOUS
10
0.667293
20
0.550427
11
0.660742
21
0.556978
0
LINE
8
BLACK
6
CONTINUOUS
10
0.660742
20
0.556978
11
0.655428
21
0.564567
0
LINE
8
BLACK
6
CONTINUOUS
10
0.655428
20
0.564567
11
0.651512
21
0.572964
0
LINE
8
BLACK
6
CONTINUOUS
10
0.651512
20
0.572964
11
0.649115
21
0.581912
0
LINE
8
BLACK
6
CONTINUOUS
10
0.649115
20
0.581912
11
0.648307
21
0.591142
0
LINE
8
BLACK
6
CONTINUOUS
10
0.648307
20
0.591142
11
0.649115
21
0.600371
0
LINE
8
BLACK
6
CONTINUOUS
10
0.649115
20
0.600371
11
0.651512
21
0.60932
0
LINE
8
BLACK
6
CONTINUOUS
10
0.651512
20
0.60932
11
0.655428
21
0.617717
0
LINE
8
BLACK
6
CONTINUOUS
10
0.655428
20
0.617717
11
0.660742
21
0.625306
0
LINE
8
BLACK
6
CONTINUOUS
10
0.660742
20
0.625306
11
0.667293
21
0.631857
0
LINE
8
BLACK
6
CONTINUOUS
10
0.667293
20
0.631857
11
0.674882
21
0.637171
0
LINE
8
BLACK
6
CONTINUOUS
10
0.674882
20
0.637171
11
0.683278
21
0.641086
0
LINE
8
BLACK
6
CONTINUOUS
10
0.683278
20
0.641086
11
0.692227
21
0.643484
0
LINE
8
BLACK
6
CONTINUOUS
10
0.692227
20
0.643484
11
0.701457
21
0.644291
0
LINE
8
BLACK
6
CONTINUOUS
10
0.701457
20
0.644291
11
0.710686
21
0.643484
0
LINE
8
BLACK
6
CONTINUOUS
10
0.517441
20
0.708642
11
0.367441
21
0.708642
0
LINE
8
BLACK
6
CONTINUOUS
10
0.367441
20
0.708642
11
0.367441
21
0.858642
0
LINE
8
BLACK
6
CONTINUOUS
10
0.367441
20
0.858642
11
0.517441
21
0.858642
0
LINE
8
BLACK
6
CONTINUOUS
10
0.517441
20
0.858642
11
0.517441
21
0.708642
0
LINE
8
BLACK
6
CONTINUOUS
10
0.320591
20
0.708642
11
0.170591
21
0.708642
0
LINE
8
BLACK
6
CONTINUOUS
10
0.170591
20
0.708642
11
0.170591
21
0.858642
0
LINE
8
BLACK
6
CONTINUOUS
10
0.170591
20
0.858642
11
0.320591
21
0.858642
0
LINE
8
BLACK
6
CONTINUOUS
10
0.320591
20
0.858642
11
0.320591
21
0.708642
0
LINE
8
BLACK
6
CONTINUOUS
10
0.710686
20
0.848484
11
0.719635
21
0.846086
0
LINE
8
BLACK
6
CONTINUOUS
10
0.719635
20
0.846086
11
0.728031
21
0.842171
0
LINE
8
BLACK
6
CONTINUOUS
10
0.728031
20
0.842171
11
0.735621
21
0.836857
0
LINE
8
BLACK
6
CONTINUOUS
10
0.735621
20
0.836857
11
0.742172
21
0.830306
0
LINE
8
BLACK
6
CONTINUOUS
10
0.742172
20
0.830306
11
0.747486
21
0.822717
0
LINE
8
BLACK
6
CONTINUOUS
10
0.747486
20
0.822717
11
0.751401
21
0.81432
0
LINE
8
BLACK
6
CONTINUOUS
10
0.751401
20
0.81432
11
0.753799
21
0.805371
0
LINE
8
BLACK
6
CONTINUOUS
10
0.753799
20
0.805371
11
0.754606
21
0.796142
0
LINE
8
BLACK
6
CONTINUOUS
10
0.754606
20
0.796142
11
0.753799
21
0.786912
0
LINE
8
BLACK
6
CONTINUOUS
10
0.753799
20
0.786912
11
0.751401
21
0.777964
0
LINE
8
BLACK
6
CONTINUOUS
10
0.751401
20
0.777964
11
0.747486
21
0.769567
0
LINE
8
BLACK
6
CONTINUOUS
10
0.747486
20
0.769567
11
0.742172
21
0.761978
0
LINE
8
BLACK
6
CONTINUOUS
10
0.742172
20
0.761978
11
0.735621
21
0.755427
0
LINE
8
BLACK
6
CONTINUOUS
10
0.735621
20
0.755427
11
0.728031
21
0.750113
0
LINE
8
BLACK
6
CONTINUOUS
10
0.728031
20
0.750113
11
0.719635
21
0.746197
0
LINE
8
BLACK
6
CONTINUOUS
10
0.719635
20
0.746197
11
0.710686
21
0.7438
0
LINE
8
BLACK
6
CONTINUOUS
10
0.710686
20
0.7438
11
0.701457
21
0.742992
0
LINE
8
BLACK
6
CONTINUOUS
10
0.701457
20
0.742992
11
0.692227
21
0.7438
0
LINE
8
BLACK
6
CONTINUOUS
10
0.692227
20
0.7438
11
0.683278
21
0.746197
0
LINE
8
BLACK
6
CONTINUOUS
10
0.683278
20
0.746197
11
0.674882
21
0.750113
0
LINE
8
BLACK
6
CONTINUOUS
10
0.674882
20
0.750113
11
0.667293
21
0.755427
0
LINE
8
BLACK
6
CONTINUOUS
10
0.667293
20
0.755427
11
0.660742
21
0.761978
0
LINE
8
BLACK
6
CONTINUOUS
10
0.660742
20
0.761978
11
0.655428
21
0.769567
0
LINE
8
BLACK
6
CONTINUOUS
10
0.655428
20
0.769567
11
0.651512
21
0.777964
0
LINE
8
BLACK
6
CONTINUOUS
10
0.651512
20
0.777964
11
0.649115
21
0.786912
0
LINE
8
BLACK
6
CONTINUOUS
10
0.649115
20
0.786912
11
0.648307
21
0.796142
0
LINE
8
BLACK
6
CONTINUOUS
10
0.648307
20
0.796142
11
0.649115
21
0.805371
0
LINE
8
BLACK
6
CONTINUOUS
10
0.649115
20
0.805371
11
0.651512
21
0.81432
0
LINE
8
BLACK
6
CONTINUOUS
10
0.651512
20
0.81432
11
0.655428
21
0.822717
0
LINE
8
BLACK
6
CONTINUOUS
10
0.655428
20
0.822717
11
0.660742
21
0.830306
0
LINE
8
BLACK
6
CONTINUOUS
10
0.660742
20
0.830306
11
0.667293
21
0.836857
0
LINE
8
BLACK
6
CONTINUOUS
10
0.667293
20
0.836857
11
0.674882
21
0.842171
0
LINE
8
BLACK
6
CONTINUOUS
10
0.674882
20
0.842171
11
0.683278
21
0.846086
0
LINE
8
BLACK
6
CONTINUOUS
10
0.683278
20
0.846086
11
0.692227
21
0.848484
0
LINE
8
BLACK
6
CONTINUOUS
10
0.692227
20
0.848484
11
0.701457
21
0.849291
0
LINE
8
BLACK
6
CONTINUOUS
10
0.701457
20
0.849291
11
0.710686
21
0.848484
0
LINE
8
BLACK
6
CONTINUOUS
10
2.58961
20
0.771142
11
2.43961
21
0.771142
0
LINE
8
BLACK
6
CONTINUOUS
10
2.43961
20
0.771142
11
2.43961
21
0.921142
0
LINE
8
BLACK
6
CONTINUOUS
10
2.43961
20
0.921142
11
2.58961
21
0.921142
0
LINE
8
BLACK
6
CONTINUOUS
10
2.58961
20
0.921142
11
2.58961
21
0.771142
0
LINE
8
BLACK
6
CONTINUOUS
10
2.78646
20
0.771142
11
2.63646
21
0.771142
0
LINE
8
BLACK
6
CONTINUOUS
10
2.63646
20
0.771142
11
2.63646
21
0.921142
0
LINE
8
BLACK
6
CONTINUOUS
10
2.63646
20
0.921142
11
2.78646
21
0.921142
0
LINE
8
BLACK
6
CONTINUOUS
10
2.78646
20
0.921142
11
2.78646
21
0.771142
0
LINE
8
BLACK
6
CONTINUOUS
10
2.24384
20
0.903484
11
2.25278
21
0.901086
0
LINE
8
BLACK
6
CONTINUOUS
10
2.25278
20
0.901086
11
2.26118
21
0.897171
0
LINE
8
BLACK
6
CONTINUOUS
10
2.26118
20
0.897171
11
2.26877
21
0.891857
0
LINE
8
BLACK
6
CONTINUOUS
10
2.26877
20
0.891857
11
2.27532
21
0.885306
0
LINE
8
BLACK
6
CONTINUOUS
10
2.27532
20
0.885306
11
2.28064
21
0.877717
0
LINE
8
BLACK
6
CONTINUOUS
10
2.28064
20
0.877717
11
2.28455
21
0.86932
0
LINE
8
BLACK
6
CONTINUOUS
10
2.28455
20
0.86932
11
2.28695
21
0.860371
0
LINE
8
BLACK
6
CONTINUOUS
10
2.28695
20
0.860371
11
2.28776
21
0.851142
0
LINE
8
BLACK
6
CONTINUOUS
10
2.28776
20
0.851142
11
2.28695
21
0.841912
0
LINE
8
BLACK
6
CONTINUOUS
10
2.28695
20
0.841912
11
2.28455
21
0.832964
0
LINE
8
BLACK
6
CONTINUOUS
10
2.28455
20
0.832964
11
2.28064
21
0.824567
0
LINE
8
BLACK
6
CONTINUOUS
10
2.28064
20
0.824567
11
2.27532
21
0.816978
0
LINE
8
BLACK
6
CONTINUOUS
10
2.27532
20
0.816978
11
2.26877
21
0.810427
0
LINE
8
BLACK
6
CONTINUOUS
10
2.26877
20
0.810427
11
2.26118
21
0.805113
0
LINE
8
BLACK
6
CONTINUOUS
10
2.26118
20
0.805113
11
2.25278
21
0.801197
0
LINE
8
BLACK
6
CONTINUOUS
10
2.25278
20
0.801197
11
2.24384
21
0.7988
0
LINE
8
BLACK
6
CONTINUOUS
10
2.24384
20
0.7988
11
2.23461
21
0.797992
0
LINE
8
BLACK
6
CONTINUOUS
10
2.23461
20
0.797992
11
2.22538
21
0.7988
0
LINE
8
BLACK
6
CONTINUOUS
10
2.22538
20
0.7988
11
2.21643
21
0.801197
0
LINE
8
BLACK
6
CONTINUOUS
10
2.21643
20
0.801197
11
2.20803
21
0.805113
0
LINE
8
BLACK
6
CONTINUOUS
10
2.20803
20
0.805113
11
2.20044
21
0.810427
0
LINE
8
BLACK
6
CONTINUOUS
10
2.20044
20
0.810427
11
2.19389
21
0.816978
0
LINE
8
BLACK
6
CONTINUOUS
10
2.19389
20
0.816978
11
2.18858
21
0.824567
0
LINE
8
BLACK
6
CONTINUOUS
10
2.18858
20
0.824567
11
2.18466
21
0.832964
0
LINE
8
BLACK
6
CONTINUOUS
10
2.18466
20
0.832964
11
2.18226
21
0.841912
0
LINE
8
BLACK
6
CONTINUOUS
10
2.18226
20
0.841912
11
2.18146
21
0.851142
0
LINE
8
BLACK
6
CONTINUOUS
10
2.18146
20
0.851142
11
2.18226
21
0.860371
0
LINE
8
BLACK
6
CONTINUOUS
10
2.18226
20
0.860371
11
2.18466
21
0.86932
0
LINE
8
BLACK
6
CONTINUOUS
10
2.18466
20
0.86932
11
2.18858
21
0.877717
0
LINE
8
BLACK
6
CONTINUOUS
10
2.18858
20
0.877717
11
2.19389
21
0.885306
0
LINE
8
BLACK
6
CONTINUOUS
10
2.19389
20
0.885306
11
2.20044
21
0.891857
0
LINE
8
BLACK
6
CONTINUOUS
10
2.20044
20
0.891857
11
2.20803
21
0.897171
0
LINE
8
BLACK
6
CONTINUOUS
10
2.20803
20
0.897171
11
2.21643
21
0.901086
0
LINE
8
BLACK
6
CONTINUOUS
10
2.21643
20
0.901086
11
2.22538
21
0.903484
0
LINE
8
BLACK
6
CONTINUOUS
10
2.22538
20
0.903484
11
2.23461
21
0.904291
0
LINE
8
BLACK
6
CONTINUOUS
10
2.23461
20
0.904291
11
2.24384
21
0.903484
0
LINE
8
BLACK
6
CONTINUOUS
10
2.08343
20
0.911877
11
2.09191
21
0.91019
0
LINE
8
BLACK
6
CONTINUOUS
10
2.09191
20
0.91019
11
2.09994
21
0.906987
0
LINE
8
BLACK
6
CONTINUOUS
10
2.09994
20
0.906987
11
2.10725
21
0.902373
0
LINE
8
BLACK
6
CONTINUOUS
10
2.10725
20
0.902373
11
2.1136
21
0.896504
0
LINE
8
BLACK
6
CONTINUOUS
10
2.1136
20
0.896504
11
2.11878
21
0.889577
0
LINE
8
BLACK
6
CONTINUOUS
10
2.11878
20
0.889577
11
2.1226
21
0.881823
0
LINE
8
BLACK
6
CONTINUOUS
10
2.1226
20
0.881823
11
2.12495
21
0.873501
0
LINE
8
BLACK
6
CONTINUOUS
10
2.12495
20
0.873501
11
2.12574
21
0.864892
0
LINE
8
BLACK
6
CONTINUOUS
10
2.12574
20
0.864892
11
2.12567
21
0.862419
0
LINE
8
BLACK
6
CONTINUOUS
10
2.12567
20
0.862419
11
2.12443
21
0.853863
0
LINE
8
BLACK
6
CONTINUOUS
10
2.12443
20
0.853863
11
2.12165
21
0.845676
0
LINE
8
BLACK
6
CONTINUOUS
10
2.12165
20
0.845676
11
2.11743
21
0.838132
0
LINE
8
BLACK
6
CONTINUOUS
10
2.11743
20
0.838132
11
2.1119
21
0.831485
0
LINE
8
BLACK
6
CONTINUOUS
10
2.1119
20
0.831485
11
2.10525
21
0.825957
0
LINE
8
BLACK
6
CONTINUOUS
10
2.10525
20
0.825957
11
2.09771
21
0.821732
0
LINE
8
BLACK
6
CONTINUOUS
10
2.09771
20
0.821732
11
2.08952
21
0.818953
0
LINE
8
BLACK
6
CONTINUOUS
10
2.08952
20
0.818953
11
2.08097
21
0.817712
0
LINE
8
BLACK
6
CONTINUOUS
10
2.08097
20
0.817712
11
2.07233
21
0.818052
0
LINE
8
BLACK
6
CONTINUOUS
10
2.07233
20
0.818052
11
2.06389
21
0.81996
0
LINE
8
BLACK
6
CONTINUOUS
10
2.06389
20
0.81996
11
2.05595
21
0.823373
0
LINE
8
BLACK
6
CONTINUOUS
10
2.05595
20
0.823373
11
2.04876
21
0.828176
0
LINE
8
BLACK
6
CONTINUOUS
10
2.04876
20
0.828176
11
2.04257
21
0.834209
0
LINE
8
BLACK
6
CONTINUOUS
10
2.04257
20
0.834209
11
2.03758
21
0.84127
0
LINE
8
BLACK
6
CONTINUOUS
10
2.03758
20
0.84127
11
2.03396
21
0.849121
0
LINE
8
BLACK
6
CONTINUOUS
10
2.03396
20
0.849121
11
2.03183
21
0.857501
0
LINE
8
BLACK
6
CONTINUOUS
10
2.03183
20
0.857501
11
2.03127
21
0.866128
0
LINE
8
BLACK
6
CONTINUOUS
10
2.03127
20
0.866128
11
2.03228
21
0.874714
0
LINE
8
BLACK
6
CONTINUOUS
10
2.03228
20
0.874714
11
2.03485
21
0.882971
0
LINE
8
BLACK
6
CONTINUOUS
10
2.03485
20
0.882971
11
2.03887
21
0.890623
0
LINE
8
BLACK
6
CONTINUOUS
10
2.03887
20
0.890623
11
2.04422
21
0.897412
0
LINE
8
BLACK
6
CONTINUOUS
10
2.04422
20
0.897412
11
2.05072
21
0.903113
0
LINE
8
BLACK
6
CONTINUOUS
10
2.05072
20
0.903113
11
2.05815
21
0.907534
0
LINE
8
BLACK
6
CONTINUOUS
10
2.05815
20
0.907534
11
2.06627
21
0.910526
0
LINE
8
BLACK
6
CONTINUOUS
10
2.06627
20
0.910526
11
2.07479
21
0.91199
0
LINE
8
BLACK
6
CONTINUOUS
10
2.07479
20
0.91199
11
2.08343
21
0.911877
0
LINE
8
BLACK
6
CONTINUOUS
10
0.883432
20
0.911877
11
0.891912
21
0.91019
0
LINE
8
BLACK
6
CONTINUOUS
10
0.891912
20
0.91019
11
0.899942
21
0.906987
0
LINE
8
BLACK
6
CONTINUOUS
10
0.899942
20
0.906987
11
0.907254
21
0.902373
0
LINE
8
BLACK
6
CONTINUOUS
10
0.907254
20
0.902373
11
0.913603
21
0.896504
0
LINE
8
BLACK
6
CONTINUOUS
10
0.913603
20
0.896504
11
0.918776
21
0.889577
0
LINE
8
BLACK
6
CONTINUOUS
10
0.918776
20
0.889577
11
0.9226
21
0.881823
0
LINE
8
BLACK
6
CONTINUOUS
10
0.9226
20
0.881823
11
0.924947
21
0.873501
0
LINE
8
BLACK
6
CONTINUOUS
10
0.924947
20
0.873501
11
0.925738
21
0.864892
0
LINE
8
BLACK
6
CONTINUOUS
10
0.925738
20
0.864892
11
0.925673
21
0.862419
0
LINE
8
BLACK
6
CONTINUOUS
10
0.925673
20
0.862419
11
0.924433
21
0.853863
0
LINE
8
BLACK
6
CONTINUOUS
10
0.924433
20
0.853863
11
0.921654
21
0.845676
0
LINE
8
BLACK
6
CONTINUOUS
10
0.921654
20
0.845676
11
0.917429
21
0.838132
0
LINE
8
BLACK
6
CONTINUOUS
10
0.917429
20
0.838132
11
0.911901
21
0.831485
0
LINE
8
BLACK
6
CONTINUOUS
10
0.911901
20
0.831485
11
0.905253
21
0.825957
0
LINE
8
BLACK
6
CONTINUOUS
10
0.905253
20
0.825957
11
0.89771
21
0.821732
0
LINE
8
BLACK
6
CONTINUOUS
10
0.89771
20
0.821732
11
0.889523
21
0.818953
0
LINE
8
BLACK
6
CONTINUOUS
10
0.889523
20
0.818953
11
0.880967
21
0.817712
0
LINE
8
BLACK
6
CONTINUOUS
10
0.880967
20
0.817712
11
0.872328
21
0.818052
0
LINE
8
BLACK
6
CONTINUOUS
10
0.872328
20
0.818052
11
0.863895
21
0.81996
0
LINE
8
BLACK
6
CONTINUOUS
10
0.863895
20
0.81996
11
0.855951
21
0.823373
0
LINE
8
BLACK
6
CONTINUOUS
10
0.855951
20
0.823373
11
0.848762
21
0.828176
0
LINE
8
BLACK
6
CONTINUOUS
10
0.848762
20
0.828176
11
0.842569
21
0.834209
0
LINE
8
BLACK
6
CONTINUOUS
10
0.842569
20
0.834209
11
0.83758
21
0.84127
0
LINE
8
BLACK
6
CONTINUOUS
10
0.83758
20
0.84127
11
0.83396
21
0.849121
0
LINE
8
BLACK
6
CONTINUOUS
10
0.83396
20
0.849121
11
0.831832
21
0.857501
0
LINE
8
BLACK
6
CONTINUOUS
10
0.831832
20
0.857501
11
0.831266
21
0.866128
0
LINE
8
BLACK
6
CONTINUOUS
10
0.831266
20
0.866128
11
0.832282
21
0.874714
0
LINE
8
BLACK
6
CONTINUOUS
10
0.832282
20
0.874714
11
0.834846
21
0.882971
0
LINE
8
BLACK
6
CONTINUOUS
10
0.834846
20
0.882971
11
0.838872
21
0.890623
0
LINE
8
BLACK
6
CONTINUOUS
10
0.838872
20
0.890623
11
0.844224
21
0.897412
0
LINE
8
BLACK
6
CONTINUOUS
10
0.844224
20
0.897412
11
0.850725
21
0.903113
0
LINE
8
BLACK
6
CONTINUOUS
10
0.850725
20
0.903113
11
0.858155
21
0.907534
0
LINE
8
BLACK
6
CONTINUOUS
10
0.858155
20
0.907534
11
0.866266
21
0.910526
0
LINE
8
BLACK
6
CONTINUOUS
10
0.866266
20
0.910526
11
0.874787
21
0.91199
0
LINE
8
BLACK
6
CONTINUOUS
10
0.874787
20
0.91199
11
0.883432
21
0.911877
0
LINE
8
BLACK
6
CONTINUOUS
10
0.517441
20
0.908642
11
0.367441
21
0.908642
0
LINE
8
BLACK
6
CONTINUOUS
10
0.367441
20
0.908642
11
0.367441
21
1.05864
0
LINE
8
BLACK
6
CONTINUOUS
10
0.367441
20
1.05864
11
0.517441
21
1.05864
0
LINE
8
BLACK
6
CONTINUOUS
10
0.517441
20
1.05864
11
0.517441
21
0.908642
0
LINE
8
BLACK
6
CONTINUOUS
10
0.320591
20
0.908642
11
0.170591
21
0.908642
0
LINE
8
BLACK
6
CONTINUOUS
10
0.170591
20
0.908642
11
0.170591
21
1.05864
0
LINE
8
BLACK
6
CONTINUOUS
10
0.170591
20
1.05864
11
0.320591
21
1.05864
0
LINE
8
BLACK
6
CONTINUOUS
10
0.320591
20
1.05864
11
0.320591
21
0.908642
0
LINE
8
BLACK
6
CONTINUOUS
10
0.710686
20
1.03848
11
0.719635
21
1.03609
0
LINE
8
BLACK
6
CONTINUOUS
10
0.719635
20
1.03609
11
0.728031
21
1.03217
0
LINE
8
BLACK
6
CONTINUOUS
10
0.728031
20
1.03217
11
0.735621
21
1.02686
0
LINE
8
BLACK
6
CONTINUOUS
10
0.735621
20
1.02686
11
0.742172
21
1.02031
0
LINE
8
BLACK
6
CONTINUOUS
10
0.742172
20
1.02031
11
0.747486
21
1.01272
0
LINE
8
BLACK
6
CONTINUOUS
10
0.747486
20
1.01272
11
0.751401
21
1.00432
0
LINE
8
BLACK
6
CONTINUOUS
10
0.751401
20
1.00432
11
0.753799
21
0.995371
0
LINE
8
BLACK
6
CONTINUOUS
10
0.753799
20
0.995371
11
0.754606
21
0.986142
0
LINE
8
BLACK
6
CONTINUOUS
10
0.754606
20
0.986142
11
0.753799
21
0.976912
0
LINE
8
BLACK
6
CONTINUOUS
10
0.753799
20
0.976912
11
0.751401
21
0.967964
0
LINE
8
BLACK
6
CONTINUOUS
10
0.751401
20
0.967964
11
0.747486
21
0.959567
0
LINE
8
BLACK
6
CONTINUOUS
10
0.747486
20
0.959567
11
0.742172
21
0.951978
0
LINE
8
BLACK
6
CONTINUOUS
10
0.742172
20
0.951978
11
0.735621
21
0.945427
0
LINE
8
BLACK
6
CONTINUOUS
10
0.735621
20
0.945427
11
0.728031
21
0.940113
0
LINE
8
BLACK
6
CONTINUOUS
10
0.728031
20
0.940113
11
0.719635
21
0.936197
0
LINE
8
BLACK
6
CONTINUOUS
10
0.719635
20
0.936197
11
0.710686
21
0.9338
0
LINE
8
BLACK
6
CONTINUOUS
10
0.710686
20
0.9338
11
0.701457
21
0.932992
0
LINE
8
BLACK
6
CONTINUOUS
10
0.701457
20
0.932992
11
0.692227
21
0.9338
0
LINE
8
BLACK
6
CONTINUOUS
10
0.692227
20
0.9338
11
0.683278
21
0.936197
0
LINE
8
BLACK
6
CONTINUOUS
10
0.683278
20
0.936197
11
0.674882
21
0.940113
0
LINE
8
BLACK
6
CONTINUOUS
10
0.674882
20
0.940113
11
0.667293
21
0.945427
0
LINE
8
BLACK
6
CONTINUOUS
10
0.667293
20
0.945427
11
0.660742
21
0.951978
0
LINE
8
BLACK
6
CONTINUOUS
10
0.660742
20
0.951978
11
0.655428
21
0.959567
0
LINE
8
BLACK
6
CONTINUOUS
10
0.655428
20
0.959567
11
0.651512
21
0.967964
0
LINE
8
BLACK
6
CONTINUOUS
10
0.651512
20
0.967964
11
0.649115
21
0.976912
0
LINE
8
BLACK
6
CONTINUOUS
10
0.649115
20
0.976912
11
0.648307
21
0.986142
0
LINE
8
BLACK
6
CONTINUOUS
10
0.648307
20
0.986142
11
0.649115
21
0.995371
0
LINE
8
BLACK
6
CONTINUOUS
10
0.649115
20
0.995371
11
0.651512
21
1.00432
0
LINE
8
BLACK
6
CONTINUOUS
10
0.651512
20
1.00432
11
0.655428
21
1.01272
0
LINE
8
BLACK
6
CONTINUOUS
10
0.655428
20
1.01272
11
0.660742
21
1.02031
0
LINE
8
BLACK
6
CONTINUOUS
10
0.660742
20
1.02031
11
0.667293
21
1.02686
0
LINE
8
BLACK
6
CONTINUOUS
10
0.667293
20
1.02686
11
0.674882
21
1.03217
0
LINE
8
BLACK
6
CONTINUOUS
10
0.674882
20
1.03217
11
0.683278
21
1.03609
0
LINE
8
BLACK
6
CONTINUOUS
10
0.683278
20
1.03609
11
0.692227
21
1.03848
0
LINE
8
BLACK
6
CONTINUOUS
10
0.692227
20
1.03848
11
0.701457
21
1.03929
0
LINE
8
BLACK
6
CONTINUOUS
10
0.701457
20
1.03929
11
0.710686
21
1.03848
0
LINE
8
BLACK
6
CONTINUOUS
10
2.78646
20
0.971142
11
2.63646
21
0.971142
0
LINE
8
BLACK
6
CONTINUOUS
10
2.63646
20
0.971142
11
2.63646
21
1.12114
0
LINE
8
BLACK
6
CONTINUOUS
10
2.63646
20
1.12114
11
2.78646
21
1.12114
0
LINE
8
BLACK
6
CONTINUOUS
10
2.78646
20
1.12114
11
2.78646
21
0.971142
0
LINE
8
BLACK
6
CONTINUOUS
10
2.58961
20
0.971142
11
2.43961
21
0.971142
0
LINE
8
BLACK
6
CONTINUOUS
10
2.43961
20
0.971142
11
2.43961
21
1.12114
0
LINE
8
BLACK
6
CONTINUOUS
10
2.43961
20
1.12114
11
2.58961
21
1.12114
0
LINE
8
BLACK
6
CONTINUOUS
10
2.58961
20
1.12114
11
2.58961
21
0.971142
0
LINE
8
BLACK
6
CONTINUOUS
10
0.320591
20
1.10864
11
0.170591
21
1.10864
0
LINE
8
BLACK
6
CONTINUOUS
10
0.170591
20
1.10864
11
0.170591
21
1.25864
0
LINE
8
BLACK
6
CONTINUOUS
10
0.170591
20
1.25864
11
0.320591
21
1.25864
0
LINE
8
BLACK
6
CONTINUOUS
10
0.320591
20
1.25864
11
0.320591
21
1.10864
0
LINE
8
BLACK
6
CONTINUOUS
10
0.517441
20
1.10864
11
0.367441
21
1.10864
0
LINE
8
BLACK
6
CONTINUOUS
10
0.367441
20
1.10864
11
0.367441
21
1.25864
0
LINE
8
BLACK
6
CONTINUOUS
10
0.367441
20
1.25864
11
0.517441
21
1.25864
0
LINE
8
BLACK
6
CONTINUOUS
10
0.517441
20
1.25864
11
0.517441
21
1.10864
0
LINE
8
BLACK
6
CONTINUOUS
10
0.881198
20
1.37313
11
0.889678
21
1.37144
0
LINE
8
BLACK
6
CONTINUOUS
10
0.889678
20
1.37144
11
0.897708
21
1.36824
0
LINE
8
BLACK
6
CONTINUOUS
10
0.897708
20
1.36824
11
0.90502
21
1.36362
0
LINE
8
BLACK
6
CONTINUOUS
10
0.90502
20
1.36362
11
0.911369
21
1.35775
0
LINE
8
BLACK
6
CONTINUOUS
10
0.911369
20
1.35775
11
0.916542
21
1.35083
0
LINE
8
BLACK
6
CONTINUOUS
10
0.916542
20
1.35083
11
0.920366
21
1.34307
0
LINE
8
BLACK
6
CONTINUOUS
10
0.920366
20
1.34307
11
0.922713
21
1.33475
0
LINE
8
BLACK
6
CONTINUOUS
10
0.922713
20
1.33475
11
0.923504
21
1.32614
0
LINE
8
BLACK
6
CONTINUOUS
10
0.923504
20
1.32614
11
0.923439
21
1.32367
0
LINE
8
BLACK
6
CONTINUOUS
10
0.923439
20
1.32367
11
0.922199
21
1.31511
0
LINE
8
BLACK
6
CONTINUOUS
10
0.922199
20
1.31511
11
0.919419
21
1.30693
0
LINE
8
BLACK
6
CONTINUOUS
10
0.919419
20
1.30693
11
0.915195
21
1.29938
0
LINE
8
BLACK
6
CONTINUOUS
10
0.915195
20
1.29938
11
0.909666
21
1.29274
0
LINE
8
BLACK
6
CONTINUOUS
10
0.909666
20
1.29274
11
0.903019
21
1.28721
0
LINE
8
BLACK
6
CONTINUOUS
10
0.903019
20
1.28721
11
0.895476
21
1.28298
0
LINE
8
BLACK
6
CONTINUOUS
10
0.895476
20
1.28298
11
0.887289
21
1.2802
0
LINE
8
BLACK
6
CONTINUOUS
10
0.887289
20
1.2802
11
0.878732
21
1.27896
0
LINE
8
BLACK
6
CONTINUOUS
10
0.878732
20
1.27896
11
0.870093
21
1.2793
0
LINE
8
BLACK
6
CONTINUOUS
10
0.870093
20
1.2793
11
0.861661
21
1.28121
0
LINE
8
BLACK
6
CONTINUOUS
10
0.861661
20
1.28121
11
0.853717
21
1.28462
0
LINE
8
BLACK
6
CONTINUOUS
10
0.853717
20
1.28462
11
0.846528
21
1.28943
0
LINE
8
BLACK
6
CONTINUOUS
10
0.846528
20
1.28943
11
0.840335
21
1.29546
0
LINE
8
BLACK
6
CONTINUOUS
10
0.840335
20
1.29546
11
0.835345
21
1.30252
0
LINE
8
BLACK
6
CONTINUOUS
10
0.835345
20
1.30252
11
0.831726
21
1.31037
0
LINE
8
BLACK
6
CONTINUOUS
10
0.831726
20
1.31037
11
0.829597
21
1.31875
0
LINE
8
BLACK
6
CONTINUOUS
10
0.829597
20
1.31875
11
0.829032
21
1.32738
0
LINE
8
BLACK
6
CONTINUOUS
10
0.829032
20
1.32738
11
0.830048
21
1.33596
0
LINE
8
BLACK
6
CONTINUOUS
10
0.830048
20
1.33596
11
0.832612
21
1.34422
0
LINE
8
BLACK
6
CONTINUOUS
10
0.832612
20
1.34422
11
0.836638
21
1.35187
0
LINE
8
BLACK
6
CONTINUOUS
10
0.836638
20
1.35187
11
0.84199
21
1.35866
0
LINE
8
BLACK
6
CONTINUOUS
10
0.84199
20
1.35866
11
0.84849
21
1.36436
0
LINE
8
BLACK
6
CONTINUOUS
10
0.84849
20
1.36436
11
0.855921
21
1.36878
0
LINE
8
BLACK
6
CONTINUOUS
10
0.855921
20
1.36878
11
0.864032
21
1.37178
0
LINE
8
BLACK
6
CONTINUOUS
10
0.864032
20
1.37178
11
0.872553
21
1.37324
0
LINE
8
BLACK
6
CONTINUOUS
10
0.872553
20
1.37324
11
0.881198
21
1.37313
0
LINE
8
BLACK
6
CONTINUOUS
10
2.0812
20
1.37313
11
2.08968
21
1.37144
0
LINE
8
BLACK
6
CONTINUOUS
10
2.08968
20
1.37144
11
2.09771
21
1.36824
0
LINE
8
BLACK
6
CONTINUOUS
10
2.09771
20
1.36824
11
2.10502
21
1.36362
0
LINE
8
BLACK
6
CONTINUOUS
10
2.10502
20
1.36362
11
2.11137
21
1.35775
0
LINE
8
BLACK
6
CONTINUOUS
10
2.11137
20
1.35775
11
2.11654
21
1.35083
0
LINE
8
BLACK
6
CONTINUOUS
10
2.11654
20
1.35083
11
2.12037
21
1.34307
0
LINE
8
BLACK
6
CONTINUOUS
10
2.12037
20
1.34307
11
2.12271
21
1.33475
0
LINE
8
BLACK
6
CONTINUOUS
10
2.12271
20
1.33475
11
2.1235
21
1.32614
0
LINE
8
BLACK
6
CONTINUOUS
10
2.1235
20
1.32614
11
2.12344
21
1.32367
0
LINE
8
BLACK
6
CONTINUOUS
10
2.12344
20
1.32367
11
2.1222
21
1.31511
0
LINE
8
BLACK
6
CONTINUOUS
10
2.1222
20
1.31511
11
2.11942
21
1.30693
0
LINE
8
BLACK
6
CONTINUOUS
10
2.11942
20
1.30693
11
2.11519
21
1.29938
0
LINE
8
BLACK
6
CONTINUOUS
10
2.11519
20
1.29938
11
2.10967
21
1.29274
0
LINE
8
BLACK
6
CONTINUOUS
10
2.10967
20
1.29274
11
2.10302
21
1.28721
0
LINE
8
BLACK
6
CONTINUOUS
10
2.10302
20
1.28721
11
2.09548
21
1.28298
0
LINE
8
BLACK
6
CONTINUOUS
10
2.09548
20
1.28298
11
2.08729
21
1.2802
0
LINE
8
BLACK
6
CONTINUOUS
10
2.08729
20
1.2802
11
2.07873
21
1.27896
0
LINE
8
BLACK
6
CONTINUOUS
10
2.07873
20
1.27896
11
2.07009
21
1.2793
0
LINE
8
BLACK
6
CONTINUOUS
10
2.07009
20
1.2793
11
2.06166
21
1.28121
0
LINE
8
BLACK
6
CONTINUOUS
10
2.06166
20
1.28121
11
2.05372
21
1.28462
0
LINE
8
BLACK
6
CONTINUOUS
10
2.05372
20
1.28462
11
2.04653
21
1.28943
0
LINE
8
BLACK
6
CONTINUOUS
10
2.04653
20
1.28943
11
2.04034
21
1.29546
0
LINE
8
BLACK
6
CONTINUOUS
10
2.04034
20
1.29546
11
2.03535
21
1.30252
0
LINE
8
BLACK
6
CONTINUOUS
10
2.03535
20
1.30252
11
2.03173
21
1.31037
0
LINE
8
BLACK
6
CONTINUOUS
10
2.03173
20
1.31037
11
2.0296
21
1.31875
0
LINE
8
BLACK
6
CONTINUOUS
10
2.0296
20
1.31875
11
2.02903
21
1.32738
0
LINE
8
BLACK
6
CONTINUOUS
10
2.02903
20
1.32738
11
2.03005
21
1.33596
0
LINE
8
BLACK
6
CONTINUOUS
10
2.03005
20
1.33596
11
2.03261
21
1.34422
0
LINE
8
BLACK
6
CONTINUOUS
10
2.03261
20
1.34422
11
2.03664
21
1.35187
0
LINE
8
BLACK
6
CONTINUOUS
10
2.03664
20
1.35187
11
2.04199
21
1.35866
0
LINE
8
BLACK
6
CONTINUOUS
10
2.04199
20
1.35866
11
2.04849
21
1.36436
0
LINE
8
BLACK
6
CONTINUOUS
10
2.04849
20
1.36436
11
2.05592
21
1.36878
0
LINE
8
BLACK
6
CONTINUOUS
10
2.05592
20
1.36878
11
2.06403
21
1.37178
0
LINE
8
BLACK
6
CONTINUOUS
10
2.06403
20
1.37178
11
2.07255
21
1.37324
0
LINE
8
BLACK
6
CONTINUOUS
10
2.07255
20
1.37324
11
2.0812
21
1.37313
0
LINE
8
BLACK
6
CONTINUOUS
10
0.320591
20
1.30864
11
0.170591
21
1.30864
0
LINE
8
BLACK
6
CONTINUOUS
10
0.170591
20
1.30864
11
0.170591
21
1.45864
0
LINE
8
BLACK
6
CONTINUOUS
10
0.170591
20
1.45864
11
0.320591
21
1.45864
0
LINE
8
BLACK
6
CONTINUOUS
10
0.320591
20
1.45864
11
0.320591
21
1.30864
0
LINE
8
BLACK
6
CONTINUOUS
10
0.517441
20
1.30864
11
0.367441
21
1.30864
0
LINE
8
BLACK
6
CONTINUOUS
10
0.367441
20
1.30864
11
0.367441
21
1.45864
0
LINE
8
BLACK
6
CONTINUOUS
10
0.367441
20
1.45864
11
0.517441
21
1.45864
0
LINE
8
BLACK
6
CONTINUOUS
10
0.517441
20
1.45864
11
0.517441
21
1.30864
0
LINE
8
BLACK
6
CONTINUOUS
10
2.53646
20
1.32114
11
2.47646
21
1.32114
0
LINE
8
BLACK
6
CONTINUOUS
10
2.47646
20
1.32114
11
2.47646
21
1.38114
0
LINE
8
BLACK
6
CONTINUOUS
10
2.47646
20
1.38114
11
2.53646
21
1.38114
0
LINE
8
BLACK
6
CONTINUOUS
10
2.53646
20
1.38114
11
2.53646
21
1.32114
0
LINE
8
BLACK
6
CONTINUOUS
10
2.43646
20
1.32114
11
2.37646
21
1.32114
0
LINE
8
BLACK
6
CONTINUOUS
10
2.37646
20
1.32114
11
2.37646
21
1.38114
0
LINE
8
BLACK
6
CONTINUOUS
10
2.37646
20
1.38114
11
2.43646
21
1.38114
0
LINE
8
BLACK
6
CONTINUOUS
10
2.43646
20
1.38114
11
2.43646
21
1.32114
0
LINE
8
BLACK
6
CONTINUOUS
10
0.710686
20
1.43848
11
0.719635
21
1.43609
0
LINE
8
BLACK
6
CONTINUOUS
10
0.719635
20
1.43609
11
0.728031
21
1.43217
0
LINE
8
BLACK
6
CONTINUOUS
10
0.728031
20
1.43217
11
0.735621
21
1.42686
0
LINE
8
BLACK
6
CONTINUOUS
10
0.735621
20
1.42686
11
0.742172
21
1.42031
0
LINE
8
BLACK
6
CONTINUOUS
10
0.742172
20
1.42031
11
0.747486
21
1.41272
0
LINE
8
BLACK
6
CONTINUOUS
10
0.747486
20
1.41272
11
0.751401
21
1.40432
0
LINE
8
BLACK
6
CONTINUOUS
10
0.751401
20
1.40432
11
0.753799
21
1.39537
0
LINE
8
BLACK
6
CONTINUOUS
10
0.753799
20
1.39537
11
0.754606
21
1.38614
0
LINE
8
BLACK
6
CONTINUOUS
10
0.754606
20
1.38614
11
0.753799
21
1.37691
0
LINE
8
BLACK
6
CONTINUOUS
10
0.753799
20
1.37691
11
0.751401
21
1.36796
0
LINE
8
BLACK
6
CONTINUOUS
10
0.751401
20
1.36796
11
0.747486
21
1.35957
0
LINE
8
BLACK
6
CONTINUOUS
10
0.747486
20
1.35957
11
0.742172
21
1.35198
0
LINE
8
BLACK
6
CONTINUOUS
10
0.742172
20
1.35198
11
0.735621
21
1.34543
0
LINE
8
BLACK
6
CONTINUOUS
10
0.735621
20
1.34543
11
0.728031
21
1.34011
0
LINE
8
BLACK
6
CONTINUOUS
10
0.728031
20
1.34011
11
0.719635
21
1.3362
0
LINE
8
BLACK
6
CONTINUOUS
10
0.719635
20
1.3362
11
0.710686
21
1.3338
0
LINE
8
BLACK
6
CONTINUOUS
10
0.710686
20
1.3338
11
0.701457
21
1.33299
0
LINE
8
BLACK
6
CONTINUOUS
10
0.701457
20
1.33299
11
0.692227
21
1.3338
0
LINE
8
BLACK
6
CONTINUOUS
10
0.692227
20
1.3338
11
0.683278
21
1.3362
0
LINE
8
BLACK
6
CONTINUOUS
10
0.683278
20
1.3362
11
0.674882
21
1.34011
0
LINE
8
BLACK
6
CONTINUOUS
10
0.674882
20
1.34011
11
0.667293
21
1.34543
0
LINE
8
BLACK
6
CONTINUOUS
10
0.667293
20
1.34543
11
0.660742
21
1.35198
0
LINE
8
BLACK
6
CONTINUOUS
10
0.660742
20
1.35198
11
0.655428
21
1.35957
0
LINE
8
BLACK
6
CONTINUOUS
10
0.655428
20
1.35957
11
0.651512
21
1.36796
0
LINE
8
BLACK
6
CONTINUOUS
10
0.651512
20
1.36796
11
0.649115
21
1.37691
0
LINE
8
BLACK
6
CONTINUOUS
10
0.649115
20
1.37691
11
0.648307
21
1.38614
0
LINE
8
BLACK
6
CONTINUOUS
10
0.648307
20
1.38614
11
0.649115
21
1.39537
0
LINE
8
BLACK
6
CONTINUOUS
10
0.649115
20
1.39537
11
0.651512
21
1.40432
0
LINE
8
BLACK
6
CONTINUOUS
10
0.651512
20
1.40432
11
0.655428
21
1.41272
0
LINE
8
BLACK
6
CONTINUOUS
10
0.655428
20
1.41272
11
0.660742
21
1.42031
0
LINE
8
BLACK
6
CONTINUOUS
10
0.660742
20
1.42031
11
0.667293
21
1.42686
0
LINE
8
BLACK
6
CONTINUOUS
10
0.667293
20
1.42686
11
0.674882
21
1.43217
0
LINE
8
BLACK
6
CONTINUOUS
10
0.674882
20
1.43217
11
0.683278
21
1.43609
0
LINE
8
BLACK
6
CONTINUOUS
10
0.683278
20
1.43609
11
0.692227
21
1.43848
0
LINE
8
BLACK
6
CONTINUOUS
10
0.692227
20
1.43848
11
0.701457
21
1.43929
0
LINE
8
BLACK
6
CONTINUOUS
10
0.701457
20
1.43929
11
0.710686
21
1.43848
0
LINE
8
BLACK
6
CONTINUOUS
10
2.43646
20
1.42114
11
2.37646
21
1.42114
0
LINE
8
BLACK
6
CONTINUOUS
10
2.37646
20
1.42114
11
2.37646
21
1.48114
0
LINE
8
BLACK
6
CONTINUOUS
10
2.37646
20
1.48114
11
2.43646
21
1.48114
0
LINE
8
BLACK
6
CONTINUOUS
10
2.43646
20
1.48114
11
2.43646
21
1.42114
0
LINE
8
BLACK
6
CONTINUOUS
10
2.53646
20
1.42114
11
2.47646
21
1.42114
0
LINE
8
BLACK
6
CONTINUOUS
10
2.47646
20
1.42114
11
2.47646
21
1.48114
0
LINE
8
BLACK
6
CONTINUOUS
10
2.47646
20
1.48114
11
2.53646
21
1.48114
0
LINE
8
BLACK
6
CONTINUOUS
10
2.53646
20
1.48114
11
2.53646
21
1.42114
0
LINE
8
BLACK
6
CONTINUOUS
10
0.517441
20
1.50864
11
0.367441
21
1.50864
0
LINE
8
BLACK
6
CONTINUOUS
10
0.367441
20
1.50864
11
0.367441
21
1.65864
0
LINE
8
BLACK
6
CONTINUOUS
10
0.367441
20
1.65864
11
0.517441
21
1.65864
0
LINE
8
BLACK
6
CONTINUOUS
10
0.517441
20
1.65864
11
0.517441
21
1.50864
0
LINE
8
BLACK
6
CONTINUOUS
10
0.320591
20
1.50864
11
0.170591
21
1.50864
0
LINE
8
BLACK
6
CONTINUOUS
10
0.170591
20
1.50864
11
0.170591
21
1.65864
0
LINE
8
BLACK
6
CONTINUOUS
10
0.170591
20
1.65864
11
0.320591
21
1.65864
0
LINE
8
BLACK
6
CONTINUOUS
10
0.320591
20
1.65864
11
0.320591
21
1.50864
0
LINE
8
BLACK
6
CONTINUOUS
10
2.53646
20
1.52114
11
2.47646
21
1.52114
0
LINE
8
BLACK
6
CONTINUOUS
10
2.47646
20
1.52114
11
2.47646
21
1.58114
0
LINE
8
BLACK
6
CONTINUOUS
10
2.47646
20
1.58114
11
2.53646
21
1.58114
0
LINE
8
BLACK
6
CONTINUOUS
10
2.53646
20
1.58114
11
2.53646
21
1.52114
0
LINE
8
BLACK
6
CONTINUOUS
10
2.43646
20
1.52114
11
2.37646
21
1.52114
0
LINE
8
BLACK
6
CONTINUOUS
10
2.37646
20
1.52114
11
2.37646
21
1.58114
0
LINE
8
BLACK
6
CONTINUOUS
10
2.37646
20
1.58114
11
2.43646
21
1.58114
0
LINE
8
BLACK
6
CONTINUOUS
10
2.43646
20
1.58114
11
2.43646
21
1.52114
0
LINE
8
BLACK
6
CONTINUOUS
10
0.710686
20
1.63848
11
0.719635
21
1.63609
0
LINE
8
BLACK
6
CONTINUOUS
10
0.719635
20
1.63609
11
0.728031
21
1.63217
0
LINE
8
BLACK
6
CONTINUOUS
10
0.728031
20
1.63217
11
0.735621
21
1.62686
0
LINE
8
BLACK
6
CONTINUOUS
10
0.735621
20
1.62686
11
0.742172
21
1.62031
0
LINE
8
BLACK
6
CONTINUOUS
10
0.742172
20
1.62031
11
0.747486
21
1.61272
0
LINE
8
BLACK
6
CONTINUOUS
10
0.747486
20
1.61272
11
0.751401
21
1.60432
0
LINE
8
BLACK
6
CONTINUOUS
10
0.751401
20
1.60432
11
0.753799
21
1.59537
0
LINE
8
BLACK
6
CONTINUOUS
10
0.753799
20
1.59537
11
0.754606
21
1.58614
0
LINE
8
BLACK
6
CONTINUOUS
10
0.754606
20
1.58614
11
0.753799
21
1.57691
0
LINE
8
BLACK
6
CONTINUOUS
10
0.753799
20
1.57691
11
0.751401
21
1.56796
0
LINE
8
BLACK
6
CONTINUOUS
10
0.751401
20
1.56796
11
0.747486
21
1.55957
0
LINE
8
BLACK
6
CONTINUOUS
10
0.747486
20
1.55957
11
0.742172
21
1.55198
0
LINE
8
BLACK
6
CONTINUOUS
10
0.742172
20
1.55198
11
0.735621
21
1.54543
0
LINE
8
BLACK
6
CONTINUOUS
10
0.735621
20
1.54543
11
0.728031
21
1.54011
0
LINE
8
BLACK
6
CONTINUOUS
10
0.728031
20
1.54011
11
0.719635
21
1.5362
0
LINE
8
BLACK
6
CONTINUOUS
10
0.719635
20
1.5362
11
0.710686
21
1.5338
0
LINE
8
BLACK
6
CONTINUOUS
10
0.710686
20
1.5338
11
0.701457
21
1.53299
0
LINE
8
BLACK
6
CONTINUOUS
10
0.701457
20
1.53299
11
0.692227
21
1.5338
0
LINE
8
BLACK
6
CONTINUOUS
10
0.692227
20
1.5338
11
0.683278
21
1.5362
0
LINE
8
BLACK
6
CONTINUOUS
10
0.683278
20
1.5362
11
0.674882
21
1.54011
0
LINE
8
BLACK
6
CONTINUOUS
10
0.674882
20
1.54011
11
0.667293
21
1.54543
0
LINE
8
BLACK
6
CONTINUOUS
10
0.667293
20
1.54543
11
0.660742
21
1.55198
0
LINE
8
BLACK
6
CONTINUOUS
10
0.660742
20
1.55198
11
0.655428
21
1.55957
0
LINE
8
BLACK
6
CONTINUOUS
10
0.655428
20
1.55957
11
0.651512
21
1.56796
0
LINE
8
BLACK
6
CONTINUOUS
10
0.651512
20
1.56796
11
0.649115
21
1.57691
0
LINE
8
BLACK
6
CONTINUOUS
10
0.649115
20
1.57691
11
0.648307
21
1.58614
0
LINE
8
BLACK
6
CONTINUOUS
10
0.648307
20
1.58614
11
0.649115
21
1.59537
0
LINE
8
BLACK
6
CONTINUOUS
10
0.649115
20
1.59537
11
0.651512
21
1.60432
0
LINE
8
BLACK
6
CONTINUOUS
10
0.651512
20
1.60432
11
0.655428
21
1.61272
0
LINE
8
BLACK
6
CONTINUOUS
10
0.655428
20
1.61272
11
0.660742
21
1.62031
0
LINE
8
BLACK
6
CONTINUOUS
10
0.660742
20
1.62031
11
0.667293
21
1.62686
0
LINE
8
BLACK
6
CONTINUOUS
10
0.667293
20
1.62686
11
0.674882
21
1.63217
0
LINE
8
BLACK
6
CONTINUOUS
10
0.674882
20
1.63217
11
0.683278
21
1.63609
0
LINE
8
BLACK
6
CONTINUOUS
10
0.683278
20
1.63609
11
0.692227
21
1.63848
0
LINE
8
BLACK
6
CONTINUOUS
10
0.692227
20
1.63848
11
0.701457
21
1.63929
0
LINE
8
BLACK
6
CONTINUOUS
10
0.701457
20
1.63929
11
0.710686
21
1.63848
0
LINE
8
BLACK
6
CONTINUOUS
10
2.53646
20
1.62114
11
2.47646
21
1.62114
0
LINE
8
BLACK
6
CONTINUOUS
10
2.47646
20
1.62114
11
2.47646
21
1.68114
0
LINE
8
BLACK
6
CONTINUOUS
10
2.47646
20
1.68114
11
2.53646
21
1.68114
0
LINE
8
BLACK
6
CONTINUOUS
10
2.53646
20
1.68114
11
2.53646
21
1.62114
0
LINE
8
BLACK
6
CONTINUOUS
10
2.43646
20
1.62114
11
2.37646
21
1.62114
0
LINE
8
BLACK
6
CONTINUOUS
10
2.37646
20
1.62114
11
2.37646
21
1.68114
0
LINE
8
BLACK
6
CONTINUOUS
10
2.37646
20
1.68114
11
2.43646
21
1.68114
0
LINE
8
BLACK
6
CONTINUOUS
10
2.43646
20
1.68114
11
2.43646
21
1.62114
0
LINE
8
BLACK
6
CONTINUOUS
10
0.881395
20
1.78313
11
0.889875
21
1.78144
0
LINE
8
BLACK
6
CONTINUOUS
10
0.889875
20
1.78144
11
0.897905
21
1.77824
0
LINE
8
BLACK
6
CONTINUOUS
10
0.897905
20
1.77824
11
0.905217
21
1.77362
0
LINE
8
BLACK
6
CONTINUOUS
10
0.905217
20
1.77362
11
0.911566
21
1.76775
0
LINE
8
BLACK
6
CONTINUOUS
10
0.911566
20
1.76775
11
0.916739
21
1.76083
0
LINE
8
BLACK
6
CONTINUOUS
10
0.916739
20
1.76083
11
0.920563
21
1.75307
0
LINE
8
BLACK
6
CONTINUOUS
10
0.920563
20
1.75307
11
0.92291
21
1.74475
0
LINE
8
BLACK
6
CONTINUOUS
10
0.92291
20
1.74475
11
0.923701
21
1.73614
0
LINE
8
BLACK
6
CONTINUOUS
10
0.923701
20
1.73614
11
0.923636
21
1.73367
0
LINE
8
BLACK
6
CONTINUOUS
10
0.923636
20
1.73367
11
0.922395
21
1.72511
0
LINE
8
BLACK
6
CONTINUOUS
10
0.922395
20
1.72511
11
0.919616
21
1.71693
0
LINE
8
BLACK
6
CONTINUOUS
10
0.919616
20
1.71693
11
0.915392
21
1.70938
0
LINE
8
BLACK
6
CONTINUOUS
10
0.915392
20
1.70938
11
0.909863
21
1.70274
0
LINE
8
BLACK
6
CONTINUOUS
10
0.909863
20
1.70274
11
0.903216
21
1.69721
0
LINE
8
BLACK
6
CONTINUOUS
10
0.903216
20
1.69721
11
0.895673
21
1.69298
0
LINE
8
BLACK
6
CONTINUOUS
10
0.895673
20
1.69298
11
0.887486
21
1.6902
0
LINE
8
BLACK
6
CONTINUOUS
10
0.887486
20
1.6902
11
0.878929
21
1.68896
0
LINE
8
BLACK
6
CONTINUOUS
10
0.878929
20
1.68896
11
0.87029
21
1.6893
0
LINE
8
BLACK
6
CONTINUOUS
10
0.87029
20
1.6893
11
0.861857
21
1.69121
0
LINE
8
BLACK
6
CONTINUOUS
10
0.861857
20
1.69121
11
0.853914
21
1.69462
0
LINE
8
BLACK
6
CONTINUOUS
10
0.853914
20
1.69462
11
0.846725
21
1.69943
0
LINE
8
BLACK
6
CONTINUOUS
10
0.846725
20
1.69943
11
0.840532
21
1.70546
0
LINE
8
BLACK
6
CONTINUOUS
10
0.840532
20
1.70546
11
0.835542
21
1.71252
0
LINE
8
BLACK
6
CONTINUOUS
10
0.835542
20
1.71252
11
0.831922
21
1.72037
0
LINE
8
BLACK
6
CONTINUOUS
10
0.831922
20
1.72037
11
0.829794
21
1.72875
0
LINE
8
BLACK
6
CONTINUOUS
10
0.829794
20
1.72875
11
0.829229
21
1.73738
0
LINE
8
BLACK
6
CONTINUOUS
10
0.829229
20
1.73738
11
0.830245
21
1.74596
0
LINE
8
BLACK
6
CONTINUOUS
10
0.830245
20
1.74596
11
0.832809
21
1.75422
0
LINE
8
BLACK
6
CONTINUOUS
10
0.832809
20
1.75422
11
0.836834
21
1.76187
0
LINE
8
BLACK
6
CONTINUOUS
10
0.836834
20
1.76187
11
0.842187
21
1.76866
0
LINE
8
BLACK
6
CONTINUOUS
10
0.842187
20
1.76866
11
0.848687
21
1.77436
0
LINE
8
BLACK
6
CONTINUOUS
10
0.848687
20
1.77436
11
0.856118
21
1.77878
0
LINE
8
BLACK
6
CONTINUOUS
10
0.856118
20
1.77878
11
0.864229
21
1.78178
0
LINE
8
BLACK
6
CONTINUOUS
10
0.864229
20
1.78178
11
0.87275
21
1.78324
0
LINE
8
BLACK
6
CONTINUOUS
10
0.87275
20
1.78324
11
0.881395
21
1.78313
0
LINE
8
BLACK
6
CONTINUOUS
10
2.0814
20
1.78313
11
2.08987
21
1.78144
0
LINE
8
BLACK
6
CONTINUOUS
10
2.08987
20
1.78144
11
2.09791
21
1.77824
0
LINE
8
BLACK
6
CONTINUOUS
10
2.09791
20
1.77824
11
2.10522
21
1.77362
0
LINE
8
BLACK
6
CONTINUOUS
10
2.10522
20
1.77362
11
2.11157
21
1.76775
0
LINE
8
BLACK
6
CONTINUOUS
10
2.11157
20
1.76775
11
2.11674
21
1.76083
0
LINE
8
BLACK
6
CONTINUOUS
10
2.11674
20
1.76083
11
2.12056
21
1.75307
0
LINE
8
BLACK
6
CONTINUOUS
10
2.12056
20
1.75307
11
2.12291
21
1.74475
0
LINE
8
BLACK
6
CONTINUOUS
10
2.12291
20
1.74475
11
2.1237
21
1.73614
0
LINE
8
BLACK
6
CONTINUOUS
10
2.1237
20
1.73614
11
2.12364
21
1.73367
0
LINE
8
BLACK
6
CONTINUOUS
10
2.12364
20
1.73367
11
2.1224
21
1.72511
0
LINE
8
BLACK
6
CONTINUOUS
10
2.1224
20
1.72511
11
2.11962
21
1.71693
0
LINE
8
BLACK
6
CONTINUOUS
10
2.11962
20
1.71693
11
2.11539
21
1.70938
0
LINE
8
BLACK
6
CONTINUOUS
10
2.11539
20
1.70938
11
2.10986
21
1.70274
0
LINE
8
BLACK
6
CONTINUOUS
10
2.10986
20
1.70274
11
2.10322
21
1.69721
0
LINE
8
BLACK
6
CONTINUOUS
10
2.10322
20
1.69721
11
2.09567
21
1.69298
0
LINE
8
BLACK
6
CONTINUOUS
10
2.09567
20
1.69298
11
2.08749
21
1.6902
0
LINE
8
BLACK
6
CONTINUOUS
10
2.08749
20
1.6902
11
2.07893
21
1.68896
0
LINE
8
BLACK
6
CONTINUOUS
10
2.07893
20
1.68896
11
2.07029
21
1.6893
0
LINE
8
BLACK
6
CONTINUOUS
10
2.07029
20
1.6893
11
2.06186
21
1.69121
0
LINE
8
BLACK
6
CONTINUOUS
10
2.06186
20
1.69121
11
2.05391
21
1.69462
0
LINE
8
BLACK
6
CONTINUOUS
10
2.05391
20
1.69462
11
2.04673
21
1.69943
0
LINE
8
BLACK
6
CONTINUOUS
10
2.04673
20
1.69943
11
2.04053
21
1.70546
0
LINE
8
BLACK
6
CONTINUOUS
10
2.04053
20
1.70546
11
2.03554
21
1.71252
0
LINE
8
BLACK
6
CONTINUOUS
10
2.03554
20
1.71252
11
2.03192
21
1.72037
0
LINE
8
BLACK
6
CONTINUOUS
10
2.03192
20
1.72037
11
2.02979
21
1.72875
0
LINE
8
BLACK
6
CONTINUOUS
10
2.02979
20
1.72875
11
2.02923
21
1.73738
0
LINE
8
BLACK
6
CONTINUOUS
10
2.02923
20
1.73738
11
2.03024
21
1.74596
0
LINE
8
BLACK
6
CONTINUOUS
10
2.03024
20
1.74596
11
2.03281
21
1.75422
0
LINE
8
BLACK
6
CONTINUOUS
10
2.03281
20
1.75422
11
2.03683
21
1.76187
0
LINE
8
BLACK
6
CONTINUOUS
10
2.03683
20
1.76187
11
2.04219
21
1.76866
0
LINE
8
BLACK
6
CONTINUOUS
10
2.04219
20
1.76866
11
2.04869
21
1.77436
0
LINE
8
BLACK
6
CONTINUOUS
10
2.04869
20
1.77436
11
2.05612
21
1.77878
0
LINE
8
BLACK
6
CONTINUOUS
10
2.05612
20
1.77878
11
2.06423
21
1.78178
0
LINE
8
BLACK
6
CONTINUOUS
10
2.06423
20
1.78178
11
2.07275
21
1.78324
0
LINE
8
BLACK
6
CONTINUOUS
10
2.07275
20
1.78324
11
2.0814
21
1.78313
0
LINE
8
BLACK
6
CONTINUOUS
10
2.53646
20
1.72114
11
2.47646
21
1.72114
0
LINE
8
BLACK
6
CONTINUOUS
10
2.47646
20
1.72114
11
2.47646
21
1.78114
0
LINE
8
BLACK
6
CONTINUOUS
10
2.47646
20
1.78114
11
2.53646
21
1.78114
0
LINE
8
BLACK
6
CONTINUOUS
10
2.53646
20
1.78114
11
2.53646
21
1.72114
0
LINE
8
BLACK
6
CONTINUOUS
10
2.43646
20
1.72114
11
2.37646
21
1.72114
0
LINE
8
BLACK
6
CONTINUOUS
10
2.37646
20
1.72114
11
2.37646
21
1.78114
0
LINE
8
BLACK
6
CONTINUOUS
10
2.37646
20
1.78114
11
2.43646
21
1.78114
0
LINE
8
BLACK
6
CONTINUOUS
10
2.43646
20
1.78114
11
2.43646
21
1.72114
0
LINE
8
BLACK
6
CONTINUOUS
10
0.0451069
20
1.99393
11
0.0585883
21
1.99216
0
LINE
8
BLACK
6
CONTINUOUS
10
0.0585883
20
1.99216
11
0.0717765
21
1.98885
0
LINE
8
BLACK
6
CONTINUOUS
10
0.0717765
20
1.98885
11
0.0844965
21
1.98404
0
LINE
8
BLACK
6
CONTINUOUS
10
0.0844965
20
1.98404
11
0.0965797
21
1.9778
0
LINE
8
BLACK
6
CONTINUOUS
10
0.0965797
20
1.9778
11
0.107866
21
1.97022
0
LINE
8
BLACK
6
CONTINUOUS
10
0.107866
20
1.97022
11
0.118206
21
1.96139
0
LINE
8
BLACK
6
CONTINUOUS
10
0.118206
20
1.96139
11
0.127462
21
1.95143
0
LINE
8
BLACK
6
CONTINUOUS
10
0.127462
20
1.95143
11
0.135512
21
1.94047
0
LINE
8
BLACK
6
CONTINUOUS
10
0.135512
20
1.94047
11
0.142249
21
1.92866
0
LINE
8
BLACK
6
CONTINUOUS
10
0.142249
20
1.92866
11
0.147584
21
1.91615
0
LINE
8
BLACK
6
CONTINUOUS
10
0.147584
20
1.91615
11
0.151446
21
1.90311
0
LINE
8
BLACK
6
CONTINUOUS
10
0.151446
20
1.90311
11
0.153784
21
1.88972
0
LINE
8
BLACK
6
CONTINUOUS
10
0.153784
20
1.88972
11
0.154567
21
1.87614
0
LINE
8
BLACK
6
CONTINUOUS
10
0.154567
20
1.87614
11
0.154334
21
1.86873
0
LINE
8
BLACK
6
CONTINUOUS
10
0.154334
20
1.86873
11
0.1527
21
1.85523
0
LINE
8
BLACK
6
CONTINUOUS
10
0.1527
20
1.85523
11
0.149526
21
1.842
0
LINE
8
BLACK
6
CONTINUOUS
10
0.149526
20
1.842
11
0.144853
21
1.82923
0
LINE
8
BLACK
6
CONTINUOUS
10
0.144853
20
1.82923
11
0.138743
21
1.81709
0
LINE
8
BLACK
6
CONTINUOUS
10
0.138743
20
1.81709
11
0.131278
21
1.80572
0
LINE
8
BLACK
6
CONTINUOUS
10
0.131278
20
1.80572
11
0.122555
21
1.79529
0
LINE
8
BLACK
6
CONTINUOUS
10
0.122555
20
1.79529
11
0.112692
21
1.78593
0
LINE
8
BLACK
6
CONTINUOUS
10
0.112692
20
1.78593
11
0.101818
21
1.77777
0
LINE
8
BLACK
6
CONTINUOUS
10
0.101818
20
1.77777
11
0.0900776
21
1.7709
0
LINE
8
BLACK
6
CONTINUOUS
10
0.0900776
20
1.7709
11
0.0776266
21
1.76544
0
LINE
8
BLACK
6
CONTINUOUS
10
0.0776266
20
1.76544
11
0.0646299
21
1.76144
0
LINE
8
BLACK
6
CONTINUOUS
10
0.0646299
20
1.76144
11
0.0512598
21
1.75896
0
LINE
8
BLACK
6
CONTINUOUS
10
0.0512598
20
1.75896
11
0.0376935
21
1.75804
0
LINE
8
BLACK
6
CONTINUOUS
10
0.0376935
20
1.75804
11
0.0241108
21
1.75868
0
LINE
8
BLACK
6
CONTINUOUS
10
0.0241108
20
1.75868
11
0.0106917
21
1.76088
0
LINE
8
BLACK
6
CONTINUOUS
10
0.0106917
20
1.76088
11
-0.00238583
21
1.7646
0
LINE
8
BLACK
6
CONTINUOUS
10
-0.00238583
20
1.7646
11
-0.0149485
21
1.7698
0
LINE
8
BLACK
6
CONTINUOUS
10
-0.0149485
20
1.7698
11
-0.0268299
21
1.77642
0
LINE
8
BLACK
6
CONTINUOUS
10
-0.0268299
20
1.77642
11
-0.0378725
21
1.78435
0
LINE
8
BLACK
6
CONTINUOUS
10
-0.0378725
20
1.78435
11
-0.0479298
21
1.7935
0
LINE
8
BLACK
6
CONTINUOUS
10
-0.0479298
20
1.7935
11
-0.0568687
21
1.80375
0
LINE
8
BLACK
6
CONTINUOUS
10
-0.0568687
20
1.80375
11
-0.0645706
21
1.81496
0
LINE
8
BLACK
6
CONTINUOUS
10
-0.0645706
20
1.81496
11
-0.0709334
21
1.82697
0
LINE
8
BLACK
6
CONTINUOUS
10
-0.0709334
20
1.82697
11
-0.0758728
21
1.83964
0
LINE
8
BLACK
6
CONTINUOUS
10
-0.0758728
20
1.83964
11
-0.0793234
21
1.8528
0
LINE
8
BLACK
6
CONTINUOUS
10
-0.0793234
20
1.8528
11
-0.0812393
21
1.86626
0
LINE
8
BLACK
6
CONTINUOUS
10
-0.0812393
20
1.86626
11
-0.0815953
21
1.87985
0
LINE
8
BLACK
6
CONTINUOUS
10
-0.0815953
20
1.87985
11
-0.0803865
21
1.8934
0
LINE
8
BLACK
6
CONTINUOUS
10
-0.0803865
20
1.8934
11
-0.077629
21
1.90671
0
LINE
8
BLACK
6
CONTINUOUS
10
-0.077629
20
1.90671
11
-0.0733594
21
1.91962
0
LINE
8
BLACK
6
CONTINUOUS
10
-0.0733594
20
1.91962
11
-0.0676343
21
1.93195
0
LINE
8
BLACK
6
CONTINUOUS
10
-0.0676343
20
1.93195
11
-0.0605294
21
1.94355
0
LINE
8
BLACK
6
CONTINUOUS
10
-0.0605294
20
1.94355
11
-0.0521391
21
1.95425
0
LINE
8
BLACK
6
CONTINUOUS
10
-0.0521391
20
1.95425
11
-0.0425745
21
1.96391
0
LINE
8
BLACK
6
CONTINUOUS
10
-0.0425745
20
1.96391
11
-0.0319624
21
1.97242
0
LINE
8
BLACK
6
CONTINUOUS
10
-0.0319624
20
1.97242
11
-0.0204433
21
1.97964
0
LINE
8
BLACK
6
CONTINUOUS
10
-0.0204433
20
1.97964
11
-0.00817016
21
1.9855
0
LINE
8
BLACK
6
CONTINUOUS
10
-0.00817016
20
1.9855
11
0.00469453
21
1.9899
0
LINE
8
BLACK
6
CONTINUOUS
10
0.00469453
20
1.9899
11
0.0179802
21
1.9928
0
LINE
8
BLACK
6
CONTINUOUS
10
0.0179802
20
1.9928
11
0.0315107
21
1.99415
0
LINE
8
BLACK
6
CONTINUOUS
10
0.0315107
20
1.99415
11
0.0451069
21
1.99393
0
LINE
8
BLACK
6
CONTINUOUS
10
2.84511
20
1.99393
11
2.85859
21
1.99216
0
LINE
8
BLACK
6
CONTINUOUS
10
2.85859
20
1.99216
11
2.87178
21
1.98885
0
LINE
8
BLACK
6
CONTINUOUS
10
2.87178
20
1.98885
11
2.8845
21
1.98404
0
LINE
8
BLACK
6
CONTINUOUS
10
2.8845
20
1.98404
11
2.89658
21
1.9778
0
LINE
8
BLACK
6
CONTINUOUS
10
2.89658
20
1.9778
11
2.90787
21
1.97022
0
LINE
8
BLACK
6
CONTINUOUS
10
2.90787
20
1.97022
11
2.91821
21
1.96139
0
LINE
8
BLACK
6
CONTINUOUS
10
2.91821
20
1.96139
11
2.92746
21
1.95143
0
LINE
8
BLACK
6
CONTINUOUS
10
2.92746
20
1.95143
11
2.93551
21
1.94047
0
LINE
8
BLACK
6
CONTINUOUS
10
2.93551
20
1.94047
11
2.94225
21
1.92866
0
LINE
8
BLACK
6
CONTINUOUS
10
2.94225
20
1.92866
11
2.94758
21
1.91615
0
LINE
8
BLACK
6
CONTINUOUS
10
2.94758
20
1.91615
11
2.95145
21
1.90311
0
LINE
8
BLACK
6
CONTINUOUS
10
2.95145
20
1.90311
11
2.95378
21
1.88972
0
LINE
8
BLACK
6
CONTINUOUS
10
2.95378
20
1.88972
11
2.95457
21
1.87614
0
LINE
8
BLACK
6
CONTINUOUS
10
2.95457
20
1.87614
11
2.95433
21
1.86873
0
LINE
8
BLACK
6
CONTINUOUS
10
2.95433
20
1.86873
11
2.9527
21
1.85523
0
LINE
8
BLACK
6
CONTINUOUS
10
2.9527
20
1.85523
11
2.94953
21
1.842
0
LINE
8
BLACK
6
CONTINUOUS
10
2.94953
20
1.842
11
2.94485
21
1.82923
0
LINE
8
BLACK
6
CONTINUOUS
10
2.94485
20
1.82923
11
2.93874
21
1.81709
0
LINE
8
BLACK
6
CONTINUOUS
10
2.93874
20
1.81709
11
2.93128
21
1.80572
0
LINE
8
BLACK
6
CONTINUOUS
10
2.93128
20
1.80572
11
2.92256
21
1.79529
0
LINE
8
BLACK
6
CONTINUOUS
10
2.92256
20
1.79529
11
2.91269
21
1.78593
0
LINE
8
BLACK
6
CONTINUOUS
10
2.91269
20
1.78593
11
2.90182
21
1.77777
0
LINE
8
BLACK
6
CONTINUOUS
10
2.90182
20
1.77777
11
2.89008
21
1.7709
0
LINE
8
BLACK
6
CONTINUOUS
10
2.89008
20
1.7709
11
2.87763
21
1.76544
0
LINE
8
BLACK
6
CONTINUOUS
10
2.87763
20
1.76544
11
2.86463
21
1.76144
0
LINE
8
BLACK
6
CONTINUOUS
10
2.86463
20
1.76144
11
2.85126
21
1.75896
0
LINE
8
BLACK
6
CONTINUOUS
10
2.85126
20
1.75896
11
2.83769
21
1.75804
0
LINE
8
BLACK
6
CONTINUOUS
10
2.83769
20
1.75804
11
2.82411
21
1.75868
0
LINE
8
BLACK
6
CONTINUOUS
10
2.82411
20
1.75868
11
2.81069
21
1.76088
0
LINE
8
BLACK
6
CONTINUOUS
10
2.81069
20
1.76088
11
2.79761
21
1.7646
0
LINE
8
BLACK
6
CONTINUOUS
10
2.79761
20
1.7646
11
2.78505
21
1.7698
0
LINE
8
BLACK
6
CONTINUOUS
10
2.78505
20
1.7698
11
2.77317
21
1.77642
0
LINE
8
BLACK
6
CONTINUOUS
10
2.77317
20
1.77642
11
2.76213
21
1.78435
0
LINE
8
BLACK
6
CONTINUOUS
10
2.76213
20
1.78435
11
2.75207
21
1.7935
0
LINE
8
BLACK
6
CONTINUOUS
10
2.75207
20
1.7935
11
2.74313
21
1.80375
0
LINE
8
BLACK
6
CONTINUOUS
10
2.74313
20
1.80375
11
2.73543
21
1.81496
0
LINE
8
BLACK
6
CONTINUOUS
10
2.73543
20
1.81496
11
2.72907
21
1.82697
0
LINE
8
BLACK
6
CONTINUOUS
10
2.72907
20
1.82697
11
2.72413
21
1.83964
0
LINE
8
BLACK
6
CONTINUOUS
10
2.72413
20
1.83964
11
2.72068
21
1.8528
0
LINE
8
BLACK
6
CONTINUOUS
10
2.72068
20
1.8528
11
2.71876
21
1.86626
0
LINE
8
BLACK
6
CONTINUOUS
10
2.71876
20
1.86626
11
2.7184
21
1.87985
0
LINE
8
BLACK
6
CONTINUOUS
10
2.7184
20
1.87985
11
2.71961
21
1.8934
0
LINE
8
BLACK
6
CONTINUOUS
10
2.71961
20
1.8934
11
2.72237
21
1.90671
0
LINE
8
BLACK
6
CONTINUOUS
10
2.72237
20
1.90671
11
2.72664
21
1.91962
0
LINE
8
BLACK
6
CONTINUOUS
10
2.72664
20
1.91962
11
2.73237
21
1.93195
0
LINE
8
BLACK
6
CONTINUOUS
10
2.73237
20
1.93195
11
2.73947
21
1.94355
0
LINE
8
BLACK
6
CONTINUOUS
10
2.73947
20
1.94355
11
2.74786
21
1.95425
0
LINE
8
BLACK
6
CONTINUOUS
10
2.74786
20
1.95425
11
2.75743
21
1.96391
0
LINE
8
BLACK
6
CONTINUOUS
10
2.75743
20
1.96391
11
2.76804
21
1.97242
0
LINE
8
BLACK
6
CONTINUOUS
10
2.76804
20
1.97242
11
2.77956
21
1.97964
0
LINE
8
BLACK
6
CONTINUOUS
10
2.77956
20
1.97964
11
2.79183
21
1.9855
0
LINE
8
BLACK
6
CONTINUOUS
10
2.79183
20
1.9855
11
2.80469
21
1.9899
0
LINE
8
BLACK
6
CONTINUOUS
10
2.80469
20
1.9899
11
2.81798
21
1.9928
0
LINE
8
BLACK
6
CONTINUOUS
10
2.81798
20
1.9928
11
2.83151
21
1.99415
0
LINE
8
BLACK
6
CONTINUOUS
10
2.83151
20
1.99415
11
2.84511
21
1.99393
0
LINE
8
BLACK
6
CONTINUOUS
10
0.516457
20
1.78114
11
0.456457
21
1.78114
0
LINE
8
BLACK
6
CONTINUOUS
10
0.456457
20
1.78114
11
0.456457
21
1.84114
0
LINE
8
BLACK
6
CONTINUOUS
10
0.456457
20
1.84114
11
0.516457
21
1.84114
0
LINE
8
BLACK
6
CONTINUOUS
10
0.516457
20
1.84114
11
0.516457
21
1.78114
0
LINE
8
BLACK
6
CONTINUOUS
10
0.416457
20
1.78114
11
0.356457
21
1.78114
0
LINE
8
BLACK
6
CONTINUOUS
10
0.356457
20
1.78114
11
0.356457
21
1.84114
0
LINE
8
BLACK
6
CONTINUOUS
10
0.356457
20
1.84114
11
0.416457
21
1.84114
0
LINE
8
BLACK
6
CONTINUOUS
10
0.416457
20
1.84114
11
0.416457
21
1.78114
0
LINE
8
BLACK
6
CONTINUOUS
10
0.616457
20
1.78114
11
0.556457
21
1.78114
0
LINE
8
BLACK
6
CONTINUOUS
10
0.556457
20
1.78114
11
0.556457
21
1.84114
0
LINE
8
BLACK
6
CONTINUOUS
10
0.556457
20
1.84114
11
0.616457
21
1.84114
0
LINE
8
BLACK
6
CONTINUOUS
10
0.616457
20
1.84114
11
0.616457
21
1.78114
0
LINE
8
BLACK
6
CONTINUOUS
10
2.53646
20
1.82114
11
2.47646
21
1.82114
0
LINE
8
BLACK
6
CONTINUOUS
10
2.47646
20
1.82114
11
2.47646
21
1.88114
0
LINE
8
BLACK
6
CONTINUOUS
10
2.47646
20
1.88114
11
2.53646
21
1.88114
0
LINE
8
BLACK
6
CONTINUOUS
10
2.53646
20
1.88114
11
2.53646
21
1.82114
0
LINE
8
BLACK
6
CONTINUOUS
10
2.43646
20
1.82114
11
2.37646
21
1.82114
0
LINE
8
BLACK
6
CONTINUOUS
10
2.37646
20
1.82114
11
2.37646
21
1.88114
0
LINE
8
BLACK
6
CONTINUOUS
10
2.37646
20
1.88114
11
2.43646
21
1.88114
0
LINE
8
BLACK
6
CONTINUOUS
10
2.43646
20
1.88114
11
2.43646
21
1.82114
0
LINE
8
BLACK
6
CONTINUOUS
10
0.416457
20
1.88114
11
0.356457
21
1.88114
0
LINE
8
BLACK
6
CONTINUOUS
10
0.356457
20
1.88114
11
0.356457
21
1.94114
0
LINE
8
BLACK
6
CONTINUOUS
10
0.356457
20
1.94114
11
0.416457
21
1.94114
0
LINE
8
BLACK
6
CONTINUOUS
10
0.416457
20
1.94114
11
0.416457
21
1.88114
0
LINE
8
BLACK
6
CONTINUOUS
10
0.516457
20
1.88114
11
0.456457
21
1.88114
0
LINE
8
BLACK
6
CONTINUOUS
10
0.456457
20
1.88114
11
0.456457
21
1.94114
0
LINE
8
BLACK
6
CONTINUOUS
10
0.456457
20
1.94114
11
0.516457
21
1.94114
0
LINE
8
BLACK
6
CONTINUOUS
10
0.516457
20
1.94114
11
0.516457
21
1.88114
0
LINE
8
BLACK
6
CONTINUOUS
10
0.616457
20
1.88114
11
0.556457
21
1.88114
0
LINE
8
BLACK
6
CONTINUOUS
10
0.556457
20
1.88114
11
0.556457
21
1.94114
0
LINE
8
BLACK
6
CONTINUOUS
10
0.556457
20
1.94114
11
0.616457
21
1.94114
0
LINE
8
BLACK
6
CONTINUOUS
10
0.616457
20
1.94114
11
0.616457
21
1.88114
0
LINE
8
BLACK
6
CONTINUOUS
10
2.43646
20
1.92114
11
2.37646
21
1.92114
0
LINE
8
BLACK
6
CONTINUOUS
10
2.37646
20
1.92114
11
2.37646
21
1.98114
0
LINE
8
BLACK
6
CONTINUOUS
10
2.37646
20
1.98114
11
2.43646
21
1.98114
0
LINE
8
BLACK
6
CONTINUOUS
10
2.43646
20
1.98114
11
2.43646
21
1.92114
0
LINE
8
BLACK
6
CONTINUOUS
10
2.53646
20
1.92114
11
2.47646
21
1.92114
0
LINE
8
BLACK
6
CONTINUOUS
10
2.47646
20
1.92114
11
2.47646
21
1.98114
0
LINE
8
BLACK
6
CONTINUOUS
10
2.47646
20
1.98114
11
2.53646
21
1.98114
0
LINE
8
BLACK
6
CONTINUOUS
10
2.53646
20
1.98114
11
2.53646
21
1.92114
  0
ENDSEC
  0
EOF
