  0
SECTION
  2
HEADER
  9
$ANGBASE
  50
0.0
  9
$ANGDIR
  70
1
  9
$MEASUREMENT
  70
0
  0
ENDSEC
  0
SECTION
  2
TABLES
  0
TABLE
  2
LTYPE
  70
4
  0
LTYPE
  5
40F
  2
CONTINUOUS
  70
0
  3
Solid line
  72
65
  73
0
  40
0.0
  0
LTYPE
  5
410
  2
DASHDOT
 70
0
  3
Dash Dot ____ _ ____ _
 72
65
 73
4
 40
2.0
 49
1.25
 49
-0.25
 49
0.25
 49
-0.25
  0
LTYPE
  5
411
  2
DASHED
 70
0
  3
Dashed __ __ __ __ __
 72
65
 73
2
 40
0.75
 49
0.5
 49
-0.25
  0
LTYPE
  5
43B
  2
DOTTED
 70
0
  3
Dotted .  .  .  .
 72
65
 73
2
 40
0.2
 49
0.0
 49
-0.2
  0
ENDTAB
  0
TABLE
  2
STYLE
  70
4
  0
STYLE
  2
KICAD
  70
0
  40
0
  41
1
  42
1
  50
0
  71
0
  3
isocp.shx
  0
STYLE
  2
KICADB
  70
0
  40
0
  41
1
  42
1
  50
0
  71
0
  3
isocp.shx
  0
STYLE
  2
KICADI
  70
0
  40
0
  41
1
  42
1
  50
15
  71
0
  3
isocp.shx
  0
STYLE
  2
KICADBI
  70
0
  40
0
  41
1
  42
1
  50
15
  71
0
  3
isocp.shx
  0
ENDTAB
  0
TABLE
  2
LAYER
  70
1
  0
LAYER
  2
BLACK
  70
0
  62
7
  6
CONTINUOUS
  0
ENDTAB
  0
ENDSEC
  0
SECTION
  2
ENTITIES
0
LINE
8
BLACK
6
CONTINUOUS
10
2.36338
20
0.787939
11
2.36377
21
0.78769
0
LINE
8
BLACK
6
CONTINUOUS
10
2.36377
20
0.78769
11
2.37075
21
0.785671
0
LINE
8
BLACK
6
CONTINUOUS
10
2.37075
20
0.785671
11
2.37841
21
0.784584
0
LINE
8
BLACK
6
CONTINUOUS
10
2.37841
20
0.784584
11
2.38615
21
0.784579
0
LINE
8
BLACK
6
CONTINUOUS
10
2.38615
20
0.784579
11
2.3938
21
0.785656
0
LINE
8
BLACK
6
CONTINUOUS
10
2.3938
20
0.785656
11
2.40081
21
0.787671
0
LINE
8
BLACK
6
CONTINUOUS
10
2.40081
20
0.787671
11
2.4012
21
0.787925
0
LINE
8
BLACK
6
CONTINUOUS
10
2.4012
20
0.787925
11
2.40468
21
0.788358
0
LINE
8
BLACK
6
CONTINUOUS
10
2.40468
20
0.788358
11
2.408
21
0.787242
0
LINE
8
BLACK
6
CONTINUOUS
10
2.408
20
0.787242
11
2.41051
21
0.784797
0
LINE
8
BLACK
6
CONTINUOUS
10
2.41051
20
0.784797
11
2.4117
21
0.781506
0
LINE
8
BLACK
6
CONTINUOUS
10
2.4117
20
0.781506
11
2.41161
21
0.780551
0
LINE
8
BLACK
6
CONTINUOUS
10
2.41161
20
0.780551
11
2.41184
21
0.780551
0
LINE
8
BLACK
6
CONTINUOUS
10
2.41184
20
0.780551
11
2.41184
21
0.739213
0
LINE
8
BLACK
6
CONTINUOUS
10
2.41184
20
0.739213
11
2.35279
21
0.739213
0
LINE
8
BLACK
6
CONTINUOUS
10
2.35279
20
0.739213
11
2.35279
21
0.780551
0
LINE
8
BLACK
6
CONTINUOUS
10
2.35279
20
0.780551
11
2.35295
21
0.780551
0
LINE
8
BLACK
6
CONTINUOUS
10
2.35295
20
0.780551
11
2.35285
21
0.78157
0
LINE
8
BLACK
6
CONTINUOUS
10
2.35285
20
0.78157
11
2.35407
21
0.784855
0
LINE
8
BLACK
6
CONTINUOUS
10
2.35407
20
0.784855
11
2.35658
21
0.787289
0
LINE
8
BLACK
6
CONTINUOUS
10
2.35658
20
0.787289
11
2.35991
21
0.788389
0
LINE
8
BLACK
6
CONTINUOUS
10
2.35991
20
0.788389
11
2.36338
21
0.787939
0
LINE
8
BLACK
6
CONTINUOUS
10
1.98039
20
0.880472
11
1.93906
21
0.880472
0
LINE
8
BLACK
6
CONTINUOUS
10
1.93906
20
0.880472
11
1.93906
21
0.880635
0
LINE
8
BLACK
6
CONTINUOUS
10
1.93906
20
0.880635
11
1.93804
21
0.880539
0
LINE
8
BLACK
6
CONTINUOUS
10
1.93804
20
0.880539
11
1.93475
21
0.881753
0
LINE
8
BLACK
6
CONTINUOUS
10
1.93475
20
0.881753
11
1.93232
21
0.884272
0
LINE
8
BLACK
6
CONTINUOUS
10
1.93232
20
0.884272
11
1.93122
21
0.887597
0
LINE
8
BLACK
6
CONTINUOUS
10
1.93122
20
0.887597
11
1.93167
21
0.89107
0
LINE
8
BLACK
6
CONTINUOUS
10
1.93167
20
0.89107
11
1.93192
21
0.891452
0
LINE
8
BLACK
6
CONTINUOUS
10
1.93192
20
0.891452
11
1.93394
21
0.898441
0
LINE
8
BLACK
6
CONTINUOUS
10
1.93394
20
0.898441
11
1.93502
21
0.906098
0
LINE
8
BLACK
6
CONTINUOUS
10
1.93502
20
0.906098
11
1.93503
21
0.913832
0
LINE
8
BLACK
6
CONTINUOUS
10
1.93503
20
0.913832
11
1.93395
21
0.921491
0
LINE
8
BLACK
6
CONTINUOUS
10
1.93395
20
0.921491
11
1.93194
21
0.928497
0
LINE
8
BLACK
6
CONTINUOUS
10
1.93194
20
0.928497
11
1.93168
21
0.92889
0
LINE
8
BLACK
6
CONTINUOUS
10
1.93168
20
0.92889
11
1.93125
21
0.932366
0
LINE
8
BLACK
6
CONTINUOUS
10
1.93125
20
0.932366
11
1.93236
21
0.935685
0
LINE
8
BLACK
6
CONTINUOUS
10
1.93236
20
0.935685
11
1.93481
21
0.938193
0
LINE
8
BLACK
6
CONTINUOUS
10
1.93481
20
0.938193
11
1.9381
21
0.939391
0
LINE
8
BLACK
6
CONTINUOUS
10
1.9381
20
0.939391
11
1.93906
21
0.939296
0
LINE
8
BLACK
6
CONTINUOUS
10
1.93906
20
0.939296
11
1.93906
21
0.939528
0
LINE
8
BLACK
6
CONTINUOUS
10
1.93906
20
0.939528
11
1.98039
21
0.939528
0
LINE
8
BLACK
6
CONTINUOUS
10
1.98039
20
0.939528
11
1.98039
21
0.880472
0
LINE
8
BLACK
6
CONTINUOUS
10
1.82094
20
0.939365
11
1.82196
21
0.939461
0
LINE
8
BLACK
6
CONTINUOUS
10
1.82196
20
0.939461
11
1.82525
21
0.938247
0
LINE
8
BLACK
6
CONTINUOUS
10
1.82525
20
0.938247
11
1.82768
21
0.935728
0
LINE
8
BLACK
6
CONTINUOUS
10
1.82768
20
0.935728
11
1.82878
21
0.932403
0
LINE
8
BLACK
6
CONTINUOUS
10
1.82878
20
0.932403
11
1.82833
21
0.92893
0
LINE
8
BLACK
6
CONTINUOUS
10
1.82833
20
0.92893
11
1.82808
21
0.928548
0
LINE
8
BLACK
6
CONTINUOUS
10
1.82808
20
0.928548
11
1.82606
21
0.921559
0
LINE
8
BLACK
6
CONTINUOUS
10
1.82606
20
0.921559
11
1.82498
21
0.913902
0
LINE
8
BLACK
6
CONTINUOUS
10
1.82498
20
0.913902
11
1.82497
21
0.906168
0
LINE
8
BLACK
6
CONTINUOUS
10
1.82497
20
0.906168
11
1.82605
21
0.898509
0
LINE
8
BLACK
6
CONTINUOUS
10
1.82605
20
0.898509
11
1.82806
21
0.891503
0
LINE
8
BLACK
6
CONTINUOUS
10
1.82806
20
0.891503
11
1.82832
21
0.89111
0
LINE
8
BLACK
6
CONTINUOUS
10
1.82832
20
0.89111
11
1.82875
21
0.887634
0
LINE
8
BLACK
6
CONTINUOUS
10
1.82875
20
0.887634
11
1.82764
21
0.884315
0
LINE
8
BLACK
6
CONTINUOUS
10
1.82764
20
0.884315
11
1.82519
21
0.881807
0
LINE
8
BLACK
6
CONTINUOUS
10
1.82519
20
0.881807
11
1.8219
21
0.880609
0
LINE
8
BLACK
6
CONTINUOUS
10
1.8219
20
0.880609
11
1.82094
21
0.880704
0
LINE
8
BLACK
6
CONTINUOUS
10
1.82094
20
0.880704
11
1.82094
21
0.880472
0
LINE
8
BLACK
6
CONTINUOUS
10
1.82094
20
0.880472
11
1.77961
21
0.880472
0
LINE
8
BLACK
6
CONTINUOUS
10
1.77961
20
0.880472
11
1.77961
21
0.939528
0
LINE
8
BLACK
6
CONTINUOUS
10
1.77961
20
0.939528
11
1.82094
21
0.939528
0
LINE
8
BLACK
6
CONTINUOUS
10
1.82094
20
0.939528
11
1.82094
21
0.939365
0
LINE
8
BLACK
6
CONTINUOUS
10
2.0675
20
0.8825
11
2.0125
21
0.8825
0
LINE
8
BLACK
6
CONTINUOUS
10
2.0125
20
0.8825
11
2.0125
21
0.9175
0
LINE
8
BLACK
6
CONTINUOUS
10
2.0125
20
0.9175
11
2.0675
21
0.9175
0
LINE
8
BLACK
6
CONTINUOUS
10
2.0675
20
0.9175
11
2.0675
21
0.8825
0
LINE
8
BLACK
6
CONTINUOUS
10
2.41184
20
0.898661
11
2.41168
21
0.898661
0
LINE
8
BLACK
6
CONTINUOUS
10
2.41168
20
0.898661
11
2.41177
21
0.897642
0
LINE
8
BLACK
6
CONTINUOUS
10
2.41177
20
0.897642
11
2.41056
21
0.894357
0
LINE
8
BLACK
6
CONTINUOUS
10
2.41056
20
0.894357
11
2.40804
21
0.891924
0
LINE
8
BLACK
6
CONTINUOUS
10
2.40804
20
0.891924
11
2.40472
21
0.890823
0
LINE
8
BLACK
6
CONTINUOUS
10
2.40472
20
0.890823
11
2.40124
21
0.891273
0
LINE
8
BLACK
6
CONTINUOUS
10
2.40124
20
0.891273
11
2.40086
21
0.891522
0
LINE
8
BLACK
6
CONTINUOUS
10
2.40086
20
0.891522
11
2.39387
21
0.893542
0
LINE
8
BLACK
6
CONTINUOUS
10
2.39387
20
0.893542
11
2.38621
21
0.894628
0
LINE
8
BLACK
6
CONTINUOUS
10
2.38621
20
0.894628
11
2.37848
21
0.894633
0
LINE
8
BLACK
6
CONTINUOUS
10
2.37848
20
0.894633
11
2.37082
21
0.893556
0
LINE
8
BLACK
6
CONTINUOUS
10
2.37082
20
0.893556
11
2.36382
21
0.891541
0
LINE
8
BLACK
6
CONTINUOUS
10
2.36382
20
0.891541
11
2.36342
21
0.891288
0
LINE
8
BLACK
6
CONTINUOUS
10
2.36342
20
0.891288
11
2.35995
21
0.890854
0
LINE
8
BLACK
6
CONTINUOUS
10
2.35995
20
0.890854
11
2.35663
21
0.891971
0
LINE
8
BLACK
6
CONTINUOUS
10
2.35663
20
0.891971
11
2.35412
21
0.894416
0
LINE
8
BLACK
6
CONTINUOUS
10
2.35412
20
0.894416
11
2.35292
21
0.897707
0
LINE
8
BLACK
6
CONTINUOUS
10
2.35292
20
0.897707
11
2.35302
21
0.898661
0
LINE
8
BLACK
6
CONTINUOUS
10
2.35302
20
0.898661
11
2.35279
21
0.898661
0
LINE
8
BLACK
6
CONTINUOUS
10
2.35279
20
0.898661
11
2.35279
21
0.94
0
LINE
8
BLACK
6
CONTINUOUS
10
2.35279
20
0.94
11
2.41184
21
0.94
0
LINE
8
BLACK
6
CONTINUOUS
10
2.41184
20
0.94
11
2.41184
21
0.898661
0
LINE
8
BLACK
6
CONTINUOUS
10
2.0675
20
0.9575
11
2.0125
21
0.9575
0
LINE
8
BLACK
6
CONTINUOUS
10
2.0125
20
0.9575
11
2.0125
21
0.9925
0
LINE
8
BLACK
6
CONTINUOUS
10
2.0125
20
0.9925
11
2.0675
21
0.9925
0
LINE
8
BLACK
6
CONTINUOUS
10
2.0675
20
0.9925
11
2.0675
21
0.9575
0
LINE
8
BLACK
6
CONTINUOUS
10
2.40981
20
0.972106
11
2.35481
21
0.972106
0
LINE
8
BLACK
6
CONTINUOUS
10
2.35481
20
0.972106
11
2.35481
21
1.00711
0
LINE
8
BLACK
6
CONTINUOUS
10
2.35481
20
1.00711
11
2.40981
21
1.00711
0
LINE
8
BLACK
6
CONTINUOUS
10
2.40981
20
1.00711
11
2.40981
21
0.972106
0
LINE
8
BLACK
6
CONTINUOUS
10
2.11339
20
1.0374
11
2.03465
21
1.0374
0
LINE
8
BLACK
6
CONTINUOUS
10
2.03465
20
1.0374
11
2.03465
21
1.0626
0
LINE
8
BLACK
6
CONTINUOUS
10
2.03465
20
1.0626
11
2.11339
21
1.0626
0
LINE
8
BLACK
6
CONTINUOUS
10
2.11339
20
1.0626
11
2.11339
21
1.0374
0
LINE
8
BLACK
6
CONTINUOUS
10
1.86535
20
1.0374
11
1.78661
21
1.0374
0
LINE
8
BLACK
6
CONTINUOUS
10
1.78661
20
1.0374
11
1.78661
21
1.0626
0
LINE
8
BLACK
6
CONTINUOUS
10
1.78661
20
1.0626
11
1.86535
21
1.0626
0
LINE
8
BLACK
6
CONTINUOUS
10
1.86535
20
1.0626
11
1.86535
21
1.0374
0
LINE
8
BLACK
6
CONTINUOUS
10
2.40981
20
1.04711
11
2.35481
21
1.04711
0
LINE
8
BLACK
6
CONTINUOUS
10
2.35481
20
1.04711
11
2.35481
21
1.08211
0
LINE
8
BLACK
6
CONTINUOUS
10
2.35481
20
1.08211
11
2.40981
21
1.08211
0
LINE
8
BLACK
6
CONTINUOUS
10
2.40981
20
1.08211
11
2.40981
21
1.04711
0
LINE
8
BLACK
6
CONTINUOUS
10
2.39597
20
1.17518
11
2.39635
21
1.17493
0
LINE
8
BLACK
6
CONTINUOUS
10
2.39635
20
1.17493
11
2.40334
21
1.17291
0
LINE
8
BLACK
6
CONTINUOUS
10
2.40334
20
1.17291
11
2.411
21
1.17183
0
LINE
8
BLACK
6
CONTINUOUS
10
2.411
20
1.17183
11
2.41873
21
1.17182
0
LINE
8
BLACK
6
CONTINUOUS
10
2.41873
20
1.17182
11
2.42639
21
1.1729
0
LINE
8
BLACK
6
CONTINUOUS
10
2.42639
20
1.1729
11
2.4334
21
1.17492
0
LINE
8
BLACK
6
CONTINUOUS
10
2.4334
20
1.17492
11
2.43379
21
1.17517
0
LINE
8
BLACK
6
CONTINUOUS
10
2.43379
20
1.17517
11
2.43727
21
1.1756
0
LINE
8
BLACK
6
CONTINUOUS
10
2.43727
20
1.1756
11
2.44059
21
1.17449
0
LINE
8
BLACK
6
CONTINUOUS
10
2.44059
20
1.17449
11
2.44309
21
1.17204
0
LINE
8
BLACK
6
CONTINUOUS
10
2.44309
20
1.17204
11
2.44429
21
1.16875
0
LINE
8
BLACK
6
CONTINUOUS
10
2.44429
20
1.16875
11
2.4442
21
1.1678
0
LINE
8
BLACK
6
CONTINUOUS
10
2.4442
20
1.1678
11
2.44443
21
1.1678
0
LINE
8
BLACK
6
CONTINUOUS
10
2.44443
20
1.1678
11
2.44443
21
1.12646
0
LINE
8
BLACK
6
CONTINUOUS
10
2.44443
20
1.12646
11
2.38537
21
1.12646
0
LINE
8
BLACK
6
CONTINUOUS
10
2.38537
20
1.12646
11
2.38537
21
1.1678
0
LINE
8
BLACK
6
CONTINUOUS
10
2.38537
20
1.1678
11
2.38554
21
1.1678
0
LINE
8
BLACK
6
CONTINUOUS
10
2.38554
20
1.1678
11
2.38544
21
1.16881
0
LINE
8
BLACK
6
CONTINUOUS
10
2.38544
20
1.16881
11
2.38665
21
1.1721
0
LINE
8
BLACK
6
CONTINUOUS
10
2.38665
20
1.1721
11
2.38917
21
1.17453
0
LINE
8
BLACK
6
CONTINUOUS
10
2.38917
20
1.17453
11
2.3925
21
1.17563
0
LINE
8
BLACK
6
CONTINUOUS
10
2.3925
20
1.17563
11
2.39597
21
1.17518
0
LINE
8
BLACK
6
CONTINUOUS
10
1.86535
20
1.1374
11
1.78661
21
1.1374
0
LINE
8
BLACK
6
CONTINUOUS
10
1.78661
20
1.1374
11
1.78661
21
1.1626
0
LINE
8
BLACK
6
CONTINUOUS
10
1.78661
20
1.1626
11
1.86535
21
1.1626
0
LINE
8
BLACK
6
CONTINUOUS
10
1.86535
20
1.1626
11
1.86535
21
1.1374
0
LINE
8
BLACK
6
CONTINUOUS
10
2.11339
20
1.1374
11
2.03465
21
1.1374
0
LINE
8
BLACK
6
CONTINUOUS
10
2.03465
20
1.1374
11
2.03465
21
1.1626
0
LINE
8
BLACK
6
CONTINUOUS
10
2.03465
20
1.1626
11
2.11339
21
1.1626
0
LINE
8
BLACK
6
CONTINUOUS
10
2.11339
20
1.1626
11
2.11339
21
1.1374
0
LINE
8
BLACK
6
CONTINUOUS
10
2.44443
20
1.28591
11
2.44427
21
1.28591
0
LINE
8
BLACK
6
CONTINUOUS
10
2.44427
20
1.28591
11
2.44436
21
1.28489
0
LINE
8
BLACK
6
CONTINUOUS
10
2.44436
20
1.28489
11
2.44315
21
1.2816
0
LINE
8
BLACK
6
CONTINUOUS
10
2.44315
20
1.2816
11
2.44063
21
1.27917
0
LINE
8
BLACK
6
CONTINUOUS
10
2.44063
20
1.27917
11
2.4373
21
1.27807
0
LINE
8
BLACK
6
CONTINUOUS
10
2.4373
20
1.27807
11
2.43383
21
1.27852
0
LINE
8
BLACK
6
CONTINUOUS
10
2.43383
20
1.27852
11
2.43345
21
1.27877
0
LINE
8
BLACK
6
CONTINUOUS
10
2.43345
20
1.27877
11
2.42646
21
1.28079
0
LINE
8
BLACK
6
CONTINUOUS
10
2.42646
20
1.28079
11
2.4188
21
1.28187
0
LINE
8
BLACK
6
CONTINUOUS
10
2.4188
20
1.28187
11
2.41107
21
1.28188
0
LINE
8
BLACK
6
CONTINUOUS
10
2.41107
20
1.28188
11
2.40341
21
1.2808
0
LINE
8
BLACK
6
CONTINUOUS
10
2.40341
20
1.2808
11
2.3964
21
1.27879
0
LINE
8
BLACK
6
CONTINUOUS
10
2.3964
20
1.27879
11
2.39601
21
1.27853
0
LINE
8
BLACK
6
CONTINUOUS
10
2.39601
20
1.27853
11
2.39254
21
1.2781
0
LINE
8
BLACK
6
CONTINUOUS
10
2.39254
20
1.2781
11
2.38922
21
1.27921
0
LINE
8
BLACK
6
CONTINUOUS
10
2.38922
20
1.27921
11
2.38671
21
1.28166
0
LINE
8
BLACK
6
CONTINUOUS
10
2.38671
20
1.28166
11
2.38551
21
1.28495
0
LINE
8
BLACK
6
CONTINUOUS
10
2.38551
20
1.28495
11
2.38561
21
1.28591
0
LINE
8
BLACK
6
CONTINUOUS
10
2.38561
20
1.28591
11
2.38537
21
1.28591
0
LINE
8
BLACK
6
CONTINUOUS
10
2.38537
20
1.28591
11
2.38537
21
1.32724
0
LINE
8
BLACK
6
CONTINUOUS
10
2.38537
20
1.32724
11
2.44443
21
1.32724
0
LINE
8
BLACK
6
CONTINUOUS
10
2.44443
20
1.32724
11
2.44443
21
1.28591
0
LINE
8
BLACK
6
CONTINUOUS
10
1.82094
20
1.35936
11
1.82196
21
1.35946
0
LINE
8
BLACK
6
CONTINUOUS
10
1.82196
20
1.35946
11
1.82525
21
1.35825
0
LINE
8
BLACK
6
CONTINUOUS
10
1.82525
20
1.35825
11
1.82768
21
1.35573
0
LINE
8
BLACK
6
CONTINUOUS
10
1.82768
20
1.35573
11
1.82878
21
1.3524
0
LINE
8
BLACK
6
CONTINUOUS
10
1.82878
20
1.3524
11
1.82833
21
1.34893
0
LINE
8
BLACK
6
CONTINUOUS
10
1.82833
20
1.34893
11
1.82808
21
1.34855
0
LINE
8
BLACK
6
CONTINUOUS
10
1.82808
20
1.34855
11
1.82606
21
1.34156
0
LINE
8
BLACK
6
CONTINUOUS
10
1.82606
20
1.34156
11
1.82498
21
1.3339
0
LINE
8
BLACK
6
CONTINUOUS
10
1.82498
20
1.3339
11
1.82497
21
1.32617
0
LINE
8
BLACK
6
CONTINUOUS
10
1.82497
20
1.32617
11
1.82605
21
1.31851
0
LINE
8
BLACK
6
CONTINUOUS
10
1.82605
20
1.31851
11
1.82806
21
1.3115
0
LINE
8
BLACK
6
CONTINUOUS
10
1.82806
20
1.3115
11
1.82832
21
1.31111
0
LINE
8
BLACK
6
CONTINUOUS
10
1.82832
20
1.31111
11
1.82875
21
1.30763
0
LINE
8
BLACK
6
CONTINUOUS
10
1.82875
20
1.30763
11
1.82764
21
1.30431
0
LINE
8
BLACK
6
CONTINUOUS
10
1.82764
20
1.30431
11
1.82519
21
1.30181
0
LINE
8
BLACK
6
CONTINUOUS
10
1.82519
20
1.30181
11
1.8219
21
1.30061
0
LINE
8
BLACK
6
CONTINUOUS
10
1.8219
20
1.30061
11
1.82094
21
1.3007
0
LINE
8
BLACK
6
CONTINUOUS
10
1.82094
20
1.3007
11
1.82094
21
1.30047
0
LINE
8
BLACK
6
CONTINUOUS
10
1.82094
20
1.30047
11
1.77961
21
1.30047
0
LINE
8
BLACK
6
CONTINUOUS
10
1.77961
20
1.30047
11
1.77961
21
1.35953
0
LINE
8
BLACK
6
CONTINUOUS
10
1.77961
20
1.35953
11
1.82094
21
1.35953
0
LINE
8
BLACK
6
CONTINUOUS
10
1.82094
20
1.35953
11
1.82094
21
1.35936
0
LINE
8
BLACK
6
CONTINUOUS
10
1.98039
20
1.30047
11
1.93906
21
1.30047
0
LINE
8
BLACK
6
CONTINUOUS
10
1.93906
20
1.30047
11
1.93906
21
1.30064
0
LINE
8
BLACK
6
CONTINUOUS
10
1.93906
20
1.30064
11
1.93804
21
1.30054
0
LINE
8
BLACK
6
CONTINUOUS
10
1.93804
20
1.30054
11
1.93475
21
1.30175
0
LINE
8
BLACK
6
CONTINUOUS
10
1.93475
20
1.30175
11
1.93232
21
1.30427
0
LINE
8
BLACK
6
CONTINUOUS
10
1.93232
20
1.30427
11
1.93122
21
1.3076
0
LINE
8
BLACK
6
CONTINUOUS
10
1.93122
20
1.3076
11
1.93167
21
1.31107
0
LINE
8
BLACK
6
CONTINUOUS
10
1.93167
20
1.31107
11
1.93192
21
1.31145
0
LINE
8
BLACK
6
CONTINUOUS
10
1.93192
20
1.31145
11
1.93394
21
1.31844
0
LINE
8
BLACK
6
CONTINUOUS
10
1.93394
20
1.31844
11
1.93502
21
1.3261
0
LINE
8
BLACK
6
CONTINUOUS
10
1.93502
20
1.3261
11
1.93503
21
1.33383
0
LINE
8
BLACK
6
CONTINUOUS
10
1.93503
20
1.33383
11
1.93395
21
1.34149
0
LINE
8
BLACK
6
CONTINUOUS
10
1.93395
20
1.34149
11
1.93194
21
1.3485
0
LINE
8
BLACK
6
CONTINUOUS
10
1.93194
20
1.3485
11
1.93168
21
1.34889
0
LINE
8
BLACK
6
CONTINUOUS
10
1.93168
20
1.34889
11
1.93125
21
1.35237
0
LINE
8
BLACK
6
CONTINUOUS
10
1.93125
20
1.35237
11
1.93236
21
1.35569
0
LINE
8
BLACK
6
CONTINUOUS
10
1.93236
20
1.35569
11
1.93481
21
1.35819
0
LINE
8
BLACK
6
CONTINUOUS
10
1.93481
20
1.35819
11
1.9381
21
1.35939
0
LINE
8
BLACK
6
CONTINUOUS
10
1.9381
20
1.35939
11
1.93906
21
1.3593
0
LINE
8
BLACK
6
CONTINUOUS
10
1.93906
20
1.3593
11
1.93906
21
1.35953
0
LINE
8
BLACK
6
CONTINUOUS
10
1.93906
20
1.35953
11
1.98039
21
1.35953
0
LINE
8
BLACK
6
CONTINUOUS
10
1.98039
20
1.35953
11
1.98039
21
1.30047
0
LINE
8
BLACK
6
CONTINUOUS
10
2.0675
20
1.30292
11
2.0125
21
1.30292
0
LINE
8
BLACK
6
CONTINUOUS
10
2.0125
20
1.30292
11
2.0125
21
1.33792
0
LINE
8
BLACK
6
CONTINUOUS
10
2.0125
20
1.33792
11
2.0675
21
1.33792
0
LINE
8
BLACK
6
CONTINUOUS
10
2.0675
20
1.33792
11
2.0675
21
1.30292
0
LINE
8
BLACK
6
CONTINUOUS
10
2.4424
20
1.37185
11
2.3874
21
1.37185
0
LINE
8
BLACK
6
CONTINUOUS
10
2.3874
20
1.37185
11
2.3874
21
1.40685
0
LINE
8
BLACK
6
CONTINUOUS
10
2.3874
20
1.40685
11
2.4424
21
1.40685
0
LINE
8
BLACK
6
CONTINUOUS
10
2.4424
20
1.40685
11
2.4424
21
1.37185
0
LINE
8
BLACK
6
CONTINUOUS
10
2.0675
20
1.37792
11
2.0125
21
1.37792
0
LINE
8
BLACK
6
CONTINUOUS
10
2.0125
20
1.37792
11
2.0125
21
1.41292
0
LINE
8
BLACK
6
CONTINUOUS
10
2.0125
20
1.41292
11
2.0675
21
1.41292
0
LINE
8
BLACK
6
CONTINUOUS
10
2.0675
20
1.41292
11
2.0675
21
1.37792
0
LINE
8
BLACK
6
CONTINUOUS
10
2.4424
20
1.44685
11
2.3874
21
1.44685
0
LINE
8
BLACK
6
CONTINUOUS
10
2.3874
20
1.44685
11
2.3874
21
1.48185
0
LINE
8
BLACK
6
CONTINUOUS
10
2.3874
20
1.48185
11
2.4424
21
1.48185
0
LINE
8
BLACK
6
CONTINUOUS
10
2.4424
20
1.48185
11
2.4424
21
1.44685
0
LINE
8
BLACK
6
CONTINUOUS
10
1.86535
20
1.45907
11
1.78661
21
1.45907
0
LINE
8
BLACK
6
CONTINUOUS
10
1.78661
20
1.45907
11
1.78661
21
1.48427
0
LINE
8
BLACK
6
CONTINUOUS
10
1.78661
20
1.48427
11
1.86535
21
1.48427
0
LINE
8
BLACK
6
CONTINUOUS
10
1.86535
20
1.48427
11
1.86535
21
1.45907
0
LINE
8
BLACK
6
CONTINUOUS
10
2.11339
20
1.45907
11
2.03465
21
1.45907
0
LINE
8
BLACK
6
CONTINUOUS
10
2.03465
20
1.45907
11
2.03465
21
1.48427
0
LINE
8
BLACK
6
CONTINUOUS
10
2.03465
20
1.48427
11
2.11339
21
1.48427
0
LINE
8
BLACK
6
CONTINUOUS
10
2.11339
20
1.48427
11
2.11339
21
1.45907
0
LINE
8
BLACK
6
CONTINUOUS
10
1.86535
20
1.55907
11
1.78661
21
1.55907
0
LINE
8
BLACK
6
CONTINUOUS
10
1.78661
20
1.55907
11
1.78661
21
1.58427
0
LINE
8
BLACK
6
CONTINUOUS
10
1.78661
20
1.58427
11
1.86535
21
1.58427
0
LINE
8
BLACK
6
CONTINUOUS
10
1.86535
20
1.58427
11
1.86535
21
1.55907
0
LINE
8
BLACK
6
CONTINUOUS
10
2.11339
20
1.55907
11
2.03465
21
1.55907
0
LINE
8
BLACK
6
CONTINUOUS
10
2.03465
20
1.55907
11
2.03465
21
1.58427
0
LINE
8
BLACK
6
CONTINUOUS
10
2.03465
20
1.58427
11
2.11339
21
1.58427
0
LINE
8
BLACK
6
CONTINUOUS
10
2.11339
20
1.58427
11
2.11339
21
1.55907
0
LINE
8
BLACK
6
CONTINUOUS
10
2.8622
20
1.65748
11
2.72835
21
1.65748
0
LINE
8
BLACK
6
CONTINUOUS
10
2.72835
20
1.65748
11
2.72835
21
1.73228
0
LINE
8
BLACK
6
CONTINUOUS
10
2.72835
20
1.73228
11
2.8622
21
1.73228
0
LINE
8
BLACK
6
CONTINUOUS
10
2.8622
20
1.73228
11
2.8622
21
1.65748
0
LINE
8
BLACK
6
CONTINUOUS
10
2.58661
20
1.65748
11
2.45276
21
1.65748
0
LINE
8
BLACK
6
CONTINUOUS
10
2.45276
20
1.65748
11
2.45276
21
1.73228
0
LINE
8
BLACK
6
CONTINUOUS
10
2.45276
20
1.73228
11
2.58661
21
1.73228
0
LINE
8
BLACK
6
CONTINUOUS
10
2.58661
20
1.73228
11
2.58661
21
1.65748
0
LINE
8
BLACK
6
CONTINUOUS
10
1.82094
20
1.77936
11
1.82196
21
1.77946
0
LINE
8
BLACK
6
CONTINUOUS
10
1.82196
20
1.77946
11
1.82525
21
1.77825
0
LINE
8
BLACK
6
CONTINUOUS
10
1.82525
20
1.77825
11
1.82768
21
1.77573
0
LINE
8
BLACK
6
CONTINUOUS
10
1.82768
20
1.77573
11
1.82878
21
1.7724
0
LINE
8
BLACK
6
CONTINUOUS
10
1.82878
20
1.7724
11
1.82833
21
1.76893
0
LINE
8
BLACK
6
CONTINUOUS
10
1.82833
20
1.76893
11
1.82808
21
1.76855
0
LINE
8
BLACK
6
CONTINUOUS
10
1.82808
20
1.76855
11
1.82606
21
1.76156
0
LINE
8
BLACK
6
CONTINUOUS
10
1.82606
20
1.76156
11
1.82498
21
1.7539
0
LINE
8
BLACK
6
CONTINUOUS
10
1.82498
20
1.7539
11
1.82497
21
1.74617
0
LINE
8
BLACK
6
CONTINUOUS
10
1.82497
20
1.74617
11
1.82605
21
1.73851
0
LINE
8
BLACK
6
CONTINUOUS
10
1.82605
20
1.73851
11
1.82806
21
1.7315
0
LINE
8
BLACK
6
CONTINUOUS
10
1.82806
20
1.7315
11
1.82832
21
1.73111
0
LINE
8
BLACK
6
CONTINUOUS
10
1.82832
20
1.73111
11
1.82875
21
1.72763
0
LINE
8
BLACK
6
CONTINUOUS
10
1.82875
20
1.72763
11
1.82764
21
1.72431
0
LINE
8
BLACK
6
CONTINUOUS
10
1.82764
20
1.72431
11
1.82519
21
1.72181
0
LINE
8
BLACK
6
CONTINUOUS
10
1.82519
20
1.72181
11
1.8219
21
1.72061
0
LINE
8
BLACK
6
CONTINUOUS
10
1.8219
20
1.72061
11
1.82094
21
1.7207
0
LINE
8
BLACK
6
CONTINUOUS
10
1.82094
20
1.7207
11
1.82094
21
1.72047
0
LINE
8
BLACK
6
CONTINUOUS
10
1.82094
20
1.72047
11
1.77961
21
1.72047
0
LINE
8
BLACK
6
CONTINUOUS
10
1.77961
20
1.72047
11
1.77961
21
1.77953
0
LINE
8
BLACK
6
CONTINUOUS
10
1.77961
20
1.77953
11
1.82094
21
1.77953
0
LINE
8
BLACK
6
CONTINUOUS
10
1.82094
20
1.77953
11
1.82094
21
1.77936
0
LINE
8
BLACK
6
CONTINUOUS
10
1.98039
20
1.72047
11
1.93906
21
1.72047
0
LINE
8
BLACK
6
CONTINUOUS
10
1.93906
20
1.72047
11
1.93906
21
1.72064
0
LINE
8
BLACK
6
CONTINUOUS
10
1.93906
20
1.72064
11
1.93804
21
1.72054
0
LINE
8
BLACK
6
CONTINUOUS
10
1.93804
20
1.72054
11
1.93475
21
1.72175
0
LINE
8
BLACK
6
CONTINUOUS
10
1.93475
20
1.72175
11
1.93232
21
1.72427
0
LINE
8
BLACK
6
CONTINUOUS
10
1.93232
20
1.72427
11
1.93122
21
1.7276
0
LINE
8
BLACK
6
CONTINUOUS
10
1.93122
20
1.7276
11
1.93167
21
1.73107
0
LINE
8
BLACK
6
CONTINUOUS
10
1.93167
20
1.73107
11
1.93192
21
1.73145
0
LINE
8
BLACK
6
CONTINUOUS
10
1.93192
20
1.73145
11
1.93394
21
1.73844
0
LINE
8
BLACK
6
CONTINUOUS
10
1.93394
20
1.73844
11
1.93502
21
1.7461
0
LINE
8
BLACK
6
CONTINUOUS
10
1.93502
20
1.7461
11
1.93503
21
1.75383
0
LINE
8
BLACK
6
CONTINUOUS
10
1.93503
20
1.75383
11
1.93395
21
1.76149
0
LINE
8
BLACK
6
CONTINUOUS
10
1.93395
20
1.76149
11
1.93194
21
1.7685
0
LINE
8
BLACK
6
CONTINUOUS
10
1.93194
20
1.7685
11
1.93168
21
1.76889
0
LINE
8
BLACK
6
CONTINUOUS
10
1.93168
20
1.76889
11
1.93125
21
1.77237
0
LINE
8
BLACK
6
CONTINUOUS
10
1.93125
20
1.77237
11
1.93236
21
1.77569
0
LINE
8
BLACK
6
CONTINUOUS
10
1.93236
20
1.77569
11
1.93481
21
1.77819
0
LINE
8
BLACK
6
CONTINUOUS
10
1.93481
20
1.77819
11
1.9381
21
1.77939
0
LINE
8
BLACK
6
CONTINUOUS
10
1.9381
20
1.77939
11
1.93906
21
1.7793
0
LINE
8
BLACK
6
CONTINUOUS
10
1.93906
20
1.7793
11
1.93906
21
1.77953
0
LINE
8
BLACK
6
CONTINUOUS
10
1.93906
20
1.77953
11
1.98039
21
1.77953
0
LINE
8
BLACK
6
CONTINUOUS
10
1.98039
20
1.77953
11
1.98039
21
1.72047
0
LINE
8
BLACK
6
CONTINUOUS
10
2.0675
20
1.72333
11
2.0125
21
1.72333
0
LINE
8
BLACK
6
CONTINUOUS
10
2.0125
20
1.72333
11
2.0125
21
1.75833
0
LINE
8
BLACK
6
CONTINUOUS
10
2.0125
20
1.75833
11
2.0675
21
1.75833
0
LINE
8
BLACK
6
CONTINUOUS
10
2.0675
20
1.75833
11
2.0675
21
1.72333
0
LINE
8
BLACK
6
CONTINUOUS
10
2.0675
20
1.79833
11
2.0125
21
1.79833
0
LINE
8
BLACK
6
CONTINUOUS
10
2.0125
20
1.79833
11
2.0125
21
1.83333
0
LINE
8
BLACK
6
CONTINUOUS
10
2.0125
20
1.83333
11
2.0675
21
1.83333
0
LINE
8
BLACK
6
CONTINUOUS
10
2.0675
20
1.83333
11
2.0675
21
1.79833
0
LINE
8
BLACK
6
CONTINUOUS
10
2.58661
20
1.81102
11
2.45276
21
1.81102
0
LINE
8
BLACK
6
CONTINUOUS
10
2.45276
20
1.81102
11
2.45276
21
1.88583
0
LINE
8
BLACK
6
CONTINUOUS
10
2.45276
20
1.88583
11
2.58661
21
1.88583
0
LINE
8
BLACK
6
CONTINUOUS
10
2.58661
20
1.88583
11
2.58661
21
1.81102
0
LINE
8
BLACK
6
CONTINUOUS
10
2.8622
20
1.81102
11
2.72835
21
1.81102
0
LINE
8
BLACK
6
CONTINUOUS
10
2.72835
20
1.81102
11
2.72835
21
1.88583
0
LINE
8
BLACK
6
CONTINUOUS
10
2.72835
20
1.88583
11
2.8622
21
1.88583
0
LINE
8
BLACK
6
CONTINUOUS
10
2.8622
20
1.88583
11
2.8622
21
1.81102
0
LINE
8
BLACK
6
CONTINUOUS
10
1.86535
20
1.88073
11
1.78661
21
1.88073
0
LINE
8
BLACK
6
CONTINUOUS
10
1.78661
20
1.88073
11
1.78661
21
1.90593
0
LINE
8
BLACK
6
CONTINUOUS
10
1.78661
20
1.90593
11
1.86535
21
1.90593
0
LINE
8
BLACK
6
CONTINUOUS
10
1.86535
20
1.90593
11
1.86535
21
1.88073
0
LINE
8
BLACK
6
CONTINUOUS
10
2.11339
20
1.88073
11
2.03465
21
1.88073
0
LINE
8
BLACK
6
CONTINUOUS
10
2.03465
20
1.88073
11
2.03465
21
1.90593
0
LINE
8
BLACK
6
CONTINUOUS
10
2.03465
20
1.90593
11
2.11339
21
1.90593
0
LINE
8
BLACK
6
CONTINUOUS
10
2.11339
20
1.90593
11
2.11339
21
1.88073
0
LINE
8
BLACK
6
CONTINUOUS
10
1.86535
20
1.98073
11
1.78661
21
1.98073
0
LINE
8
BLACK
6
CONTINUOUS
10
1.78661
20
1.98073
11
1.78661
21
2.00593
0
LINE
8
BLACK
6
CONTINUOUS
10
1.78661
20
2.00593
11
1.86535
21
2.00593
0
LINE
8
BLACK
6
CONTINUOUS
10
1.86535
20
2.00593
11
1.86535
21
1.98073
0
LINE
8
BLACK
6
CONTINUOUS
10
2.11339
20
1.98073
11
2.03465
21
1.98073
0
LINE
8
BLACK
6
CONTINUOUS
10
2.03465
20
1.98073
11
2.03465
21
2.00593
0
LINE
8
BLACK
6
CONTINUOUS
10
2.03465
20
2.00593
11
2.11339
21
2.00593
0
LINE
8
BLACK
6
CONTINUOUS
10
2.11339
20
2.00593
11
2.11339
21
1.98073
0
LINE
8
BLACK
6
CONTINUOUS
10
1.82094
20
2.19936
11
1.82196
21
2.19946
0
LINE
8
BLACK
6
CONTINUOUS
10
1.82196
20
2.19946
11
1.82525
21
2.19825
0
LINE
8
BLACK
6
CONTINUOUS
10
1.82525
20
2.19825
11
1.82768
21
2.19573
0
LINE
8
BLACK
6
CONTINUOUS
10
1.82768
20
2.19573
11
1.82878
21
2.1924
0
LINE
8
BLACK
6
CONTINUOUS
10
1.82878
20
2.1924
11
1.82833
21
2.18893
0
LINE
8
BLACK
6
CONTINUOUS
10
1.82833
20
2.18893
11
1.82808
21
2.18855
0
LINE
8
BLACK
6
CONTINUOUS
10
1.82808
20
2.18855
11
1.82606
21
2.18156
0
LINE
8
BLACK
6
CONTINUOUS
10
1.82606
20
2.18156
11
1.82498
21
2.1739
0
LINE
8
BLACK
6
CONTINUOUS
10
1.82498
20
2.1739
11
1.82497
21
2.16617
0
LINE
8
BLACK
6
CONTINUOUS
10
1.82497
20
2.16617
11
1.82605
21
2.15851
0
LINE
8
BLACK
6
CONTINUOUS
10
1.82605
20
2.15851
11
1.82806
21
2.1515
0
LINE
8
BLACK
6
CONTINUOUS
10
1.82806
20
2.1515
11
1.82832
21
2.15111
0
LINE
8
BLACK
6
CONTINUOUS
10
1.82832
20
2.15111
11
1.82875
21
2.14763
0
LINE
8
BLACK
6
CONTINUOUS
10
1.82875
20
2.14763
11
1.82764
21
2.14431
0
LINE
8
BLACK
6
CONTINUOUS
10
1.82764
20
2.14431
11
1.82519
21
2.14181
0
LINE
8
BLACK
6
CONTINUOUS
10
1.82519
20
2.14181
11
1.8219
21
2.14061
0
LINE
8
BLACK
6
CONTINUOUS
10
1.8219
20
2.14061
11
1.82094
21
2.1407
0
LINE
8
BLACK
6
CONTINUOUS
10
1.82094
20
2.1407
11
1.82094
21
2.14047
0
LINE
8
BLACK
6
CONTINUOUS
10
1.82094
20
2.14047
11
1.77961
21
2.14047
0
LINE
8
BLACK
6
CONTINUOUS
10
1.77961
20
2.14047
11
1.77961
21
2.19953
0
LINE
8
BLACK
6
CONTINUOUS
10
1.77961
20
2.19953
11
1.82094
21
2.19953
0
LINE
8
BLACK
6
CONTINUOUS
10
1.82094
20
2.19953
11
1.82094
21
2.19936
0
LINE
8
BLACK
6
CONTINUOUS
10
1.98039
20
2.14047
11
1.93906
21
2.14047
0
LINE
8
BLACK
6
CONTINUOUS
10
1.93906
20
2.14047
11
1.93906
21
2.14064
0
LINE
8
BLACK
6
CONTINUOUS
10
1.93906
20
2.14064
11
1.93804
21
2.14054
0
LINE
8
BLACK
6
CONTINUOUS
10
1.93804
20
2.14054
11
1.93475
21
2.14175
0
LINE
8
BLACK
6
CONTINUOUS
10
1.93475
20
2.14175
11
1.93232
21
2.14427
0
LINE
8
BLACK
6
CONTINUOUS
10
1.93232
20
2.14427
11
1.93122
21
2.1476
0
LINE
8
BLACK
6
CONTINUOUS
10
1.93122
20
2.1476
11
1.93167
21
2.15107
0
LINE
8
BLACK
6
CONTINUOUS
10
1.93167
20
2.15107
11
1.93192
21
2.15145
0
LINE
8
BLACK
6
CONTINUOUS
10
1.93192
20
2.15145
11
1.93394
21
2.15844
0
LINE
8
BLACK
6
CONTINUOUS
10
1.93394
20
2.15844
11
1.93502
21
2.1661
0
LINE
8
BLACK
6
CONTINUOUS
10
1.93502
20
2.1661
11
1.93503
21
2.17383
0
LINE
8
BLACK
6
CONTINUOUS
10
1.93503
20
2.17383
11
1.93395
21
2.18149
0
LINE
8
BLACK
6
CONTINUOUS
10
1.93395
20
2.18149
11
1.93194
21
2.1885
0
LINE
8
BLACK
6
CONTINUOUS
10
1.93194
20
2.1885
11
1.93168
21
2.18889
0
LINE
8
BLACK
6
CONTINUOUS
10
1.93168
20
2.18889
11
1.93125
21
2.19237
0
LINE
8
BLACK
6
CONTINUOUS
10
1.93125
20
2.19237
11
1.93236
21
2.19569
0
LINE
8
BLACK
6
CONTINUOUS
10
1.93236
20
2.19569
11
1.93481
21
2.19819
0
LINE
8
BLACK
6
CONTINUOUS
10
1.93481
20
2.19819
11
1.9381
21
2.19939
0
LINE
8
BLACK
6
CONTINUOUS
10
1.9381
20
2.19939
11
1.93906
21
2.1993
0
LINE
8
BLACK
6
CONTINUOUS
10
1.93906
20
2.1993
11
1.93906
21
2.19953
0
LINE
8
BLACK
6
CONTINUOUS
10
1.93906
20
2.19953
11
1.98039
21
2.19953
0
LINE
8
BLACK
6
CONTINUOUS
10
1.98039
20
2.19953
11
1.98039
21
2.14047
0
LINE
8
BLACK
6
CONTINUOUS
10
2.0675
20
2.14375
11
2.0125
21
2.14375
0
LINE
8
BLACK
6
CONTINUOUS
10
2.0125
20
2.14375
11
2.0125
21
2.17875
0
LINE
8
BLACK
6
CONTINUOUS
10
2.0125
20
2.17875
11
2.0675
21
2.17875
0
LINE
8
BLACK
6
CONTINUOUS
10
2.0675
20
2.17875
11
2.0675
21
2.14375
0
LINE
8
BLACK
6
CONTINUOUS
10
2.0675
20
2.21875
11
2.0125
21
2.21875
0
LINE
8
BLACK
6
CONTINUOUS
10
2.0125
20
2.21875
11
2.0125
21
2.25375
0
LINE
8
BLACK
6
CONTINUOUS
10
2.0125
20
2.25375
11
2.0675
21
2.25375
0
LINE
8
BLACK
6
CONTINUOUS
10
2.0675
20
2.25375
11
2.0675
21
2.21875
0
LINE
8
BLACK
6
CONTINUOUS
10
2.11339
20
2.3024
11
2.03465
21
2.3024
0
LINE
8
BLACK
6
CONTINUOUS
10
2.03465
20
2.3024
11
2.03465
21
2.3276
0
LINE
8
BLACK
6
CONTINUOUS
10
2.03465
20
2.3276
11
2.11339
21
2.3276
0
LINE
8
BLACK
6
CONTINUOUS
10
2.11339
20
2.3276
11
2.11339
21
2.3024
0
LINE
8
BLACK
6
CONTINUOUS
10
1.86535
20
2.3024
11
1.78661
21
2.3024
0
LINE
8
BLACK
6
CONTINUOUS
10
1.78661
20
2.3024
11
1.78661
21
2.3276
0
LINE
8
BLACK
6
CONTINUOUS
10
1.78661
20
2.3276
11
1.86535
21
2.3276
0
LINE
8
BLACK
6
CONTINUOUS
10
1.86535
20
2.3276
11
1.86535
21
2.3024
0
LINE
8
BLACK
6
CONTINUOUS
10
2.11339
20
2.4024
11
2.03465
21
2.4024
0
LINE
8
BLACK
6
CONTINUOUS
10
2.03465
20
2.4024
11
2.03465
21
2.4276
0
LINE
8
BLACK
6
CONTINUOUS
10
2.03465
20
2.4276
11
2.11339
21
2.4276
0
LINE
8
BLACK
6
CONTINUOUS
10
2.11339
20
2.4276
11
2.11339
21
2.4024
0
LINE
8
BLACK
6
CONTINUOUS
10
1.86535
20
2.4024
11
1.78661
21
2.4024
0
LINE
8
BLACK
6
CONTINUOUS
10
1.78661
20
2.4024
11
1.78661
21
2.4276
0
LINE
8
BLACK
6
CONTINUOUS
10
1.78661
20
2.4276
11
1.86535
21
2.4276
0
LINE
8
BLACK
6
CONTINUOUS
10
1.86535
20
2.4276
11
1.86535
21
2.4024
0
LINE
8
BLACK
6
CONTINUOUS
10
2.5975
20
2.465
11
2.5425
21
2.465
0
LINE
8
BLACK
6
CONTINUOUS
10
2.5425
20
2.465
11
2.5425
21
2.5
0
LINE
8
BLACK
6
CONTINUOUS
10
2.5425
20
2.5
11
2.5975
21
2.5
0
LINE
8
BLACK
6
CONTINUOUS
10
2.5975
20
2.5
11
2.5975
21
2.465
0
LINE
8
BLACK
6
CONTINUOUS
10
2.68247
20
2.50413
11
2.68566
21
2.502
0
LINE
8
BLACK
6
CONTINUOUS
10
2.68566
20
2.502
11
2.68779
21
2.49881
0
LINE
8
BLACK
6
CONTINUOUS
10
2.68779
20
2.49881
11
2.68854
21
2.49504
0
LINE
8
BLACK
6
CONTINUOUS
10
2.68854
20
2.49504
11
2.68854
21
2.47535
0
LINE
8
BLACK
6
CONTINUOUS
10
2.68854
20
2.47535
11
2.68779
21
2.47159
0
LINE
8
BLACK
6
CONTINUOUS
10
2.68779
20
2.47159
11
2.68566
21
2.46839
0
LINE
8
BLACK
6
CONTINUOUS
10
2.68566
20
2.46839
11
2.68247
21
2.46626
0
LINE
8
BLACK
6
CONTINUOUS
10
2.68247
20
2.46626
11
2.6787
21
2.46551
0
LINE
8
BLACK
6
CONTINUOUS
10
2.6787
20
2.46551
11
2.6413
21
2.46551
0
LINE
8
BLACK
6
CONTINUOUS
10
2.6413
20
2.46551
11
2.63753
21
2.46626
0
LINE
8
BLACK
6
CONTINUOUS
10
2.63753
20
2.46626
11
2.63434
21
2.46839
0
LINE
8
BLACK
6
CONTINUOUS
10
2.63434
20
2.46839
11
2.63221
21
2.47159
0
LINE
8
BLACK
6
CONTINUOUS
10
2.63221
20
2.47159
11
2.63146
21
2.47535
0
LINE
8
BLACK
6
CONTINUOUS
10
2.63146
20
2.47535
11
2.63146
21
2.49504
0
LINE
8
BLACK
6
CONTINUOUS
10
2.63146
20
2.49504
11
2.63221
21
2.49881
0
LINE
8
BLACK
6
CONTINUOUS
10
2.63221
20
2.49881
11
2.63434
21
2.502
0
LINE
8
BLACK
6
CONTINUOUS
10
2.63434
20
2.502
11
2.63753
21
2.50413
0
LINE
8
BLACK
6
CONTINUOUS
10
2.63753
20
2.50413
11
2.6413
21
2.50488
0
LINE
8
BLACK
6
CONTINUOUS
10
2.6413
20
2.50488
11
2.6787
21
2.50488
0
LINE
8
BLACK
6
CONTINUOUS
10
2.6787
20
2.50488
11
2.68247
21
2.50413
0
LINE
8
BLACK
6
CONTINUOUS
10
2.5975
20
2.54
11
2.5425
21
2.54
0
LINE
8
BLACK
6
CONTINUOUS
10
2.5425
20
2.54
11
2.5425
21
2.575
0
LINE
8
BLACK
6
CONTINUOUS
10
2.5425
20
2.575
11
2.5975
21
2.575
0
LINE
8
BLACK
6
CONTINUOUS
10
2.5975
20
2.575
11
2.5975
21
2.54
0
LINE
8
BLACK
6
CONTINUOUS
10
2.68247
20
2.57894
11
2.68566
21
2.5768
0
LINE
8
BLACK
6
CONTINUOUS
10
2.68566
20
2.5768
11
2.68779
21
2.57361
0
LINE
8
BLACK
6
CONTINUOUS
10
2.68779
20
2.57361
11
2.68854
21
2.56984
0
LINE
8
BLACK
6
CONTINUOUS
10
2.68854
20
2.56984
11
2.68854
21
2.55016
0
LINE
8
BLACK
6
CONTINUOUS
10
2.68854
20
2.55016
11
2.68779
21
2.54639
0
LINE
8
BLACK
6
CONTINUOUS
10
2.68779
20
2.54639
11
2.68566
21
2.5432
0
LINE
8
BLACK
6
CONTINUOUS
10
2.68566
20
2.5432
11
2.68247
21
2.54106
0
LINE
8
BLACK
6
CONTINUOUS
10
2.68247
20
2.54106
11
2.6787
21
2.54031
0
LINE
8
BLACK
6
CONTINUOUS
10
2.6787
20
2.54031
11
2.6413
21
2.54031
0
LINE
8
BLACK
6
CONTINUOUS
10
2.6413
20
2.54031
11
2.63753
21
2.54106
0
LINE
8
BLACK
6
CONTINUOUS
10
2.63753
20
2.54106
11
2.63434
21
2.5432
0
LINE
8
BLACK
6
CONTINUOUS
10
2.63434
20
2.5432
11
2.63221
21
2.54639
0
LINE
8
BLACK
6
CONTINUOUS
10
2.63221
20
2.54639
11
2.63146
21
2.55016
0
LINE
8
BLACK
6
CONTINUOUS
10
2.63146
20
2.55016
11
2.63146
21
2.56984
0
LINE
8
BLACK
6
CONTINUOUS
10
2.63146
20
2.56984
11
2.63221
21
2.57361
0
LINE
8
BLACK
6
CONTINUOUS
10
2.63221
20
2.57361
11
2.63434
21
2.5768
0
LINE
8
BLACK
6
CONTINUOUS
10
2.63434
20
2.5768
11
2.63753
21
2.57894
0
LINE
8
BLACK
6
CONTINUOUS
10
2.63753
20
2.57894
11
2.6413
21
2.57969
0
LINE
8
BLACK
6
CONTINUOUS
10
2.6413
20
2.57969
11
2.6787
21
2.57969
0
LINE
8
BLACK
6
CONTINUOUS
10
2.6787
20
2.57969
11
2.68247
21
2.57894
0
LINE
8
BLACK
6
CONTINUOUS
10
1.82094
20
2.61936
11
1.82196
21
2.61946
0
LINE
8
BLACK
6
CONTINUOUS
10
1.82196
20
2.61946
11
1.82525
21
2.61825
0
LINE
8
BLACK
6
CONTINUOUS
10
1.82525
20
2.61825
11
1.82768
21
2.61573
0
LINE
8
BLACK
6
CONTINUOUS
10
1.82768
20
2.61573
11
1.82878
21
2.6124
0
LINE
8
BLACK
6
CONTINUOUS
10
1.82878
20
2.6124
11
1.82833
21
2.60893
0
LINE
8
BLACK
6
CONTINUOUS
10
1.82833
20
2.60893
11
1.82808
21
2.60855
0
LINE
8
BLACK
6
CONTINUOUS
10
1.82808
20
2.60855
11
1.82606
21
2.60156
0
LINE
8
BLACK
6
CONTINUOUS
10
1.82606
20
2.60156
11
1.82498
21
2.5939
0
LINE
8
BLACK
6
CONTINUOUS
10
1.82498
20
2.5939
11
1.82497
21
2.58617
0
LINE
8
BLACK
6
CONTINUOUS
10
1.82497
20
2.58617
11
1.82605
21
2.57851
0
LINE
8
BLACK
6
CONTINUOUS
10
1.82605
20
2.57851
11
1.82806
21
2.5715
0
LINE
8
BLACK
6
CONTINUOUS
10
1.82806
20
2.5715
11
1.82832
21
2.57111
0
LINE
8
BLACK
6
CONTINUOUS
10
1.82832
20
2.57111
11
1.82875
21
2.56763
0
LINE
8
BLACK
6
CONTINUOUS
10
1.82875
20
2.56763
11
1.82764
21
2.56431
0
LINE
8
BLACK
6
CONTINUOUS
10
1.82764
20
2.56431
11
1.82519
21
2.56181
0
LINE
8
BLACK
6
CONTINUOUS
10
1.82519
20
2.56181
11
1.8219
21
2.56061
0
LINE
8
BLACK
6
CONTINUOUS
10
1.8219
20
2.56061
11
1.82094
21
2.5607
0
LINE
8
BLACK
6
CONTINUOUS
10
1.82094
20
2.5607
11
1.82094
21
2.56047
0
LINE
8
BLACK
6
CONTINUOUS
10
1.82094
20
2.56047
11
1.77961
21
2.56047
0
LINE
8
BLACK
6
CONTINUOUS
10
1.77961
20
2.56047
11
1.77961
21
2.61953
0
LINE
8
BLACK
6
CONTINUOUS
10
1.77961
20
2.61953
11
1.82094
21
2.61953
0
LINE
8
BLACK
6
CONTINUOUS
10
1.82094
20
2.61953
11
1.82094
21
2.61936
0
LINE
8
BLACK
6
CONTINUOUS
10
1.98039
20
2.56047
11
1.93906
21
2.56047
0
LINE
8
BLACK
6
CONTINUOUS
10
1.93906
20
2.56047
11
1.93906
21
2.56064
0
LINE
8
BLACK
6
CONTINUOUS
10
1.93906
20
2.56064
11
1.93804
21
2.56054
0
LINE
8
BLACK
6
CONTINUOUS
10
1.93804
20
2.56054
11
1.93475
21
2.56175
0
LINE
8
BLACK
6
CONTINUOUS
10
1.93475
20
2.56175
11
1.93232
21
2.56427
0
LINE
8
BLACK
6
CONTINUOUS
10
1.93232
20
2.56427
11
1.93122
21
2.5676
0
LINE
8
BLACK
6
CONTINUOUS
10
1.93122
20
2.5676
11
1.93167
21
2.57107
0
LINE
8
BLACK
6
CONTINUOUS
10
1.93167
20
2.57107
11
1.93192
21
2.57145
0
LINE
8
BLACK
6
CONTINUOUS
10
1.93192
20
2.57145
11
1.93394
21
2.57844
0
LINE
8
BLACK
6
CONTINUOUS
10
1.93394
20
2.57844
11
1.93502
21
2.5861
0
LINE
8
BLACK
6
CONTINUOUS
10
1.93502
20
2.5861
11
1.93503
21
2.59383
0
LINE
8
BLACK
6
CONTINUOUS
10
1.93503
20
2.59383
11
1.93395
21
2.60149
0
LINE
8
BLACK
6
CONTINUOUS
10
1.93395
20
2.60149
11
1.93194
21
2.6085
0
LINE
8
BLACK
6
CONTINUOUS
10
1.93194
20
2.6085
11
1.93168
21
2.60889
0
LINE
8
BLACK
6
CONTINUOUS
10
1.93168
20
2.60889
11
1.93125
21
2.61237
0
LINE
8
BLACK
6
CONTINUOUS
10
1.93125
20
2.61237
11
1.93236
21
2.61569
0
LINE
8
BLACK
6
CONTINUOUS
10
1.93236
20
2.61569
11
1.93481
21
2.61819
0
LINE
8
BLACK
6
CONTINUOUS
10
1.93481
20
2.61819
11
1.9381
21
2.61939
0
LINE
8
BLACK
6
CONTINUOUS
10
1.9381
20
2.61939
11
1.93906
21
2.6193
0
LINE
8
BLACK
6
CONTINUOUS
10
1.93906
20
2.6193
11
1.93906
21
2.61953
0
LINE
8
BLACK
6
CONTINUOUS
10
1.93906
20
2.61953
11
1.98039
21
2.61953
0
LINE
8
BLACK
6
CONTINUOUS
10
1.98039
20
2.61953
11
1.98039
21
2.56047
0
LINE
8
BLACK
6
CONTINUOUS
10
2.0675
20
2.56417
11
2.0125
21
2.56417
0
LINE
8
BLACK
6
CONTINUOUS
10
2.0125
20
2.56417
11
2.0125
21
2.59917
0
LINE
8
BLACK
6
CONTINUOUS
10
2.0125
20
2.59917
11
2.0675
21
2.59917
0
LINE
8
BLACK
6
CONTINUOUS
10
2.0675
20
2.59917
11
2.0675
21
2.56417
0
LINE
8
BLACK
6
CONTINUOUS
10
2.87543
20
2.58205
11
2.80457
21
2.58205
0
LINE
8
BLACK
6
CONTINUOUS
10
2.80457
20
2.58205
11
2.80457
21
2.68047
0
LINE
8
BLACK
6
CONTINUOUS
10
2.80457
20
2.68047
11
2.87543
21
2.68047
0
LINE
8
BLACK
6
CONTINUOUS
10
2.87543
20
2.68047
11
2.87543
21
2.58205
0
LINE
8
BLACK
6
CONTINUOUS
10
2.0675
20
2.63917
11
2.0125
21
2.63917
0
LINE
8
BLACK
6
CONTINUOUS
10
2.0125
20
2.63917
11
2.0125
21
2.67417
0
LINE
8
BLACK
6
CONTINUOUS
10
2.0125
20
2.67417
11
2.0675
21
2.67417
0
LINE
8
BLACK
6
CONTINUOUS
10
2.0675
20
2.67417
11
2.0675
21
2.63917
0
LINE
8
BLACK
6
CONTINUOUS
10
2.64
20
2.6825
11
2.605
21
2.6825
0
LINE
8
BLACK
6
CONTINUOUS
10
2.605
20
2.6825
11
2.605
21
2.7375
0
LINE
8
BLACK
6
CONTINUOUS
10
2.605
20
2.7375
11
2.64
21
2.7375
0
LINE
8
BLACK
6
CONTINUOUS
10
2.64
20
2.7375
11
2.64
21
2.6825
0
LINE
8
BLACK
6
CONTINUOUS
10
2.715
20
2.6825
11
2.68
21
2.6825
0
LINE
8
BLACK
6
CONTINUOUS
10
2.68
20
2.6825
11
2.68
21
2.7375
0
LINE
8
BLACK
6
CONTINUOUS
10
2.68
20
2.7375
11
2.715
21
2.7375
0
LINE
8
BLACK
6
CONTINUOUS
10
2.715
20
2.7375
11
2.715
21
2.6825
0
LINE
8
BLACK
6
CONTINUOUS
10
2.11339
20
2.72407
11
2.03465
21
2.72407
0
LINE
8
BLACK
6
CONTINUOUS
10
2.03465
20
2.72407
11
2.03465
21
2.74927
0
LINE
8
BLACK
6
CONTINUOUS
10
2.03465
20
2.74927
11
2.11339
21
2.74927
0
LINE
8
BLACK
6
CONTINUOUS
10
2.11339
20
2.74927
11
2.11339
21
2.72407
0
LINE
8
BLACK
6
CONTINUOUS
10
1.86535
20
2.72407
11
1.78661
21
2.72407
0
LINE
8
BLACK
6
CONTINUOUS
10
1.78661
20
2.72407
11
1.78661
21
2.74927
0
LINE
8
BLACK
6
CONTINUOUS
10
1.78661
20
2.74927
11
1.86535
21
2.74927
0
LINE
8
BLACK
6
CONTINUOUS
10
1.86535
20
2.74927
11
1.86535
21
2.72407
0
LINE
8
BLACK
6
CONTINUOUS
10
2.87543
20
2.73953
11
2.80457
21
2.73953
0
LINE
8
BLACK
6
CONTINUOUS
10
2.80457
20
2.73953
11
2.80457
21
2.83795
0
LINE
8
BLACK
6
CONTINUOUS
10
2.80457
20
2.83795
11
2.87543
21
2.83795
0
LINE
8
BLACK
6
CONTINUOUS
10
2.87543
20
2.83795
11
2.87543
21
2.73953
0
LINE
8
BLACK
6
CONTINUOUS
10
2.64
20
2.7825
11
2.605
21
2.7825
0
LINE
8
BLACK
6
CONTINUOUS
10
2.605
20
2.7825
11
2.605
21
2.8375
0
LINE
8
BLACK
6
CONTINUOUS
10
2.605
20
2.8375
11
2.64
21
2.8375
0
LINE
8
BLACK
6
CONTINUOUS
10
2.64
20
2.8375
11
2.64
21
2.7825
0
LINE
8
BLACK
6
CONTINUOUS
10
2.715
20
2.7825
11
2.68
21
2.7825
0
LINE
8
BLACK
6
CONTINUOUS
10
2.68
20
2.7825
11
2.68
21
2.8375
0
LINE
8
BLACK
6
CONTINUOUS
10
2.68
20
2.8375
11
2.715
21
2.8375
0
LINE
8
BLACK
6
CONTINUOUS
10
2.715
20
2.8375
11
2.715
21
2.7825
0
LINE
8
BLACK
6
CONTINUOUS
10
2.11339
20
2.82407
11
2.03465
21
2.82407
0
LINE
8
BLACK
6
CONTINUOUS
10
2.03465
20
2.82407
11
2.03465
21
2.84927
0
LINE
8
BLACK
6
CONTINUOUS
10
2.03465
20
2.84927
11
2.11339
21
2.84927
0
LINE
8
BLACK
6
CONTINUOUS
10
2.11339
20
2.84927
11
2.11339
21
2.82407
0
LINE
8
BLACK
6
CONTINUOUS
10
1.86535
20
2.82407
11
1.78661
21
2.82407
0
LINE
8
BLACK
6
CONTINUOUS
10
1.78661
20
2.82407
11
1.78661
21
2.84927
0
LINE
8
BLACK
6
CONTINUOUS
10
1.78661
20
2.84927
11
1.86535
21
2.84927
0
LINE
8
BLACK
6
CONTINUOUS
10
1.86535
20
2.84927
11
1.86535
21
2.82407
0
LINE
8
BLACK
6
CONTINUOUS
10
2.715
20
2.8825
11
2.68
21
2.8825
0
LINE
8
BLACK
6
CONTINUOUS
10
2.68
20
2.8825
11
2.68
21
2.9375
0
LINE
8
BLACK
6
CONTINUOUS
10
2.68
20
2.9375
11
2.715
21
2.9375
0
LINE
8
BLACK
6
CONTINUOUS
10
2.715
20
2.9375
11
2.715
21
2.8825
0
LINE
8
BLACK
6
CONTINUOUS
10
2.64
20
2.8825
11
2.605
21
2.8825
0
LINE
8
BLACK
6
CONTINUOUS
10
2.605
20
2.8825
11
2.605
21
2.9375
0
LINE
8
BLACK
6
CONTINUOUS
10
2.605
20
2.9375
11
2.64
21
2.9375
0
LINE
8
BLACK
6
CONTINUOUS
10
2.64
20
2.9375
11
2.64
21
2.8825
0
LINE
8
BLACK
6
CONTINUOUS
10
1.98039
20
2.98047
11
1.93906
21
2.98047
0
LINE
8
BLACK
6
CONTINUOUS
10
1.93906
20
2.98047
11
1.93906
21
2.98064
0
LINE
8
BLACK
6
CONTINUOUS
10
1.93906
20
2.98064
11
1.93804
21
2.98054
0
LINE
8
BLACK
6
CONTINUOUS
10
1.93804
20
2.98054
11
1.93475
21
2.98175
0
LINE
8
BLACK
6
CONTINUOUS
10
1.93475
20
2.98175
11
1.93232
21
2.98427
0
LINE
8
BLACK
6
CONTINUOUS
10
1.93232
20
2.98427
11
1.93122
21
2.9876
0
LINE
8
BLACK
6
CONTINUOUS
10
1.93122
20
2.9876
11
1.93167
21
2.99107
0
LINE
8
BLACK
6
CONTINUOUS
10
1.93167
20
2.99107
11
1.93192
21
2.99145
0
LINE
8
BLACK
6
CONTINUOUS
10
1.93192
20
2.99145
11
1.93394
21
2.99844
0
LINE
8
BLACK
6
CONTINUOUS
10
1.93394
20
2.99844
11
1.93502
21
3.0061
0
LINE
8
BLACK
6
CONTINUOUS
10
1.93502
20
3.0061
11
1.93503
21
3.01383
0
LINE
8
BLACK
6
CONTINUOUS
10
1.93503
20
3.01383
11
1.93395
21
3.02149
0
LINE
8
BLACK
6
CONTINUOUS
10
1.93395
20
3.02149
11
1.93194
21
3.0285
0
LINE
8
BLACK
6
CONTINUOUS
10
1.93194
20
3.0285
11
1.93168
21
3.02889
0
LINE
8
BLACK
6
CONTINUOUS
10
1.93168
20
3.02889
11
1.93125
21
3.03237
0
LINE
8
BLACK
6
CONTINUOUS
10
1.93125
20
3.03237
11
1.93236
21
3.03569
0
LINE
8
BLACK
6
CONTINUOUS
10
1.93236
20
3.03569
11
1.93481
21
3.03819
0
LINE
8
BLACK
6
CONTINUOUS
10
1.93481
20
3.03819
11
1.9381
21
3.03939
0
LINE
8
BLACK
6
CONTINUOUS
10
1.9381
20
3.03939
11
1.93906
21
3.0393
0
LINE
8
BLACK
6
CONTINUOUS
10
1.93906
20
3.0393
11
1.93906
21
3.03953
0
LINE
8
BLACK
6
CONTINUOUS
10
1.93906
20
3.03953
11
1.98039
21
3.03953
0
LINE
8
BLACK
6
CONTINUOUS
10
1.98039
20
3.03953
11
1.98039
21
2.98047
0
LINE
8
BLACK
6
CONTINUOUS
10
1.82094
20
3.03936
11
1.82196
21
3.03946
0
LINE
8
BLACK
6
CONTINUOUS
10
1.82196
20
3.03946
11
1.82525
21
3.03825
0
LINE
8
BLACK
6
CONTINUOUS
10
1.82525
20
3.03825
11
1.82768
21
3.03573
0
LINE
8
BLACK
6
CONTINUOUS
10
1.82768
20
3.03573
11
1.82878
21
3.0324
0
LINE
8
BLACK
6
CONTINUOUS
10
1.82878
20
3.0324
11
1.82833
21
3.02893
0
LINE
8
BLACK
6
CONTINUOUS
10
1.82833
20
3.02893
11
1.82808
21
3.02855
0
LINE
8
BLACK
6
CONTINUOUS
10
1.82808
20
3.02855
11
1.82606
21
3.02156
0
LINE
8
BLACK
6
CONTINUOUS
10
1.82606
20
3.02156
11
1.82498
21
3.0139
0
LINE
8
BLACK
6
CONTINUOUS
10
1.82498
20
3.0139
11
1.82497
21
3.00617
0
LINE
8
BLACK
6
CONTINUOUS
10
1.82497
20
3.00617
11
1.82605
21
2.99851
0
LINE
8
BLACK
6
CONTINUOUS
10
1.82605
20
2.99851
11
1.82806
21
2.9915
0
LINE
8
BLACK
6
CONTINUOUS
10
1.82806
20
2.9915
11
1.82832
21
2.99111
0
LINE
8
BLACK
6
CONTINUOUS
10
1.82832
20
2.99111
11
1.82875
21
2.98763
0
LINE
8
BLACK
6
CONTINUOUS
10
1.82875
20
2.98763
11
1.82764
21
2.98431
0
LINE
8
BLACK
6
CONTINUOUS
10
1.82764
20
2.98431
11
1.82519
21
2.98181
0
LINE
8
BLACK
6
CONTINUOUS
10
1.82519
20
2.98181
11
1.8219
21
2.98061
0
LINE
8
BLACK
6
CONTINUOUS
10
1.8219
20
2.98061
11
1.82094
21
2.9807
0
LINE
8
BLACK
6
CONTINUOUS
10
1.82094
20
2.9807
11
1.82094
21
2.98047
0
LINE
8
BLACK
6
CONTINUOUS
10
1.82094
20
2.98047
11
1.77961
21
2.98047
0
LINE
8
BLACK
6
CONTINUOUS
10
1.77961
20
2.98047
11
1.77961
21
3.03953
0
LINE
8
BLACK
6
CONTINUOUS
10
1.77961
20
3.03953
11
1.82094
21
3.03953
0
LINE
8
BLACK
6
CONTINUOUS
10
1.82094
20
3.03953
11
1.82094
21
3.03936
0
LINE
8
BLACK
6
CONTINUOUS
10
2.64
20
2.9825
11
2.605
21
2.9825
0
LINE
8
BLACK
6
CONTINUOUS
10
2.605
20
2.9825
11
2.605
21
3.0375
0
LINE
8
BLACK
6
CONTINUOUS
10
2.605
20
3.0375
11
2.64
21
3.0375
0
LINE
8
BLACK
6
CONTINUOUS
10
2.64
20
3.0375
11
2.64
21
2.9825
0
LINE
8
BLACK
6
CONTINUOUS
10
2.715
20
2.9825
11
2.68
21
2.9825
0
LINE
8
BLACK
6
CONTINUOUS
10
2.68
20
2.9825
11
2.68
21
3.0375
0
LINE
8
BLACK
6
CONTINUOUS
10
2.68
20
3.0375
11
2.715
21
3.0375
0
LINE
8
BLACK
6
CONTINUOUS
10
2.715
20
3.0375
11
2.715
21
2.9825
0
LINE
8
BLACK
6
CONTINUOUS
10
2.0675
20
2.98458
11
2.0125
21
2.98458
0
LINE
8
BLACK
6
CONTINUOUS
10
2.0125
20
2.98458
11
2.0125
21
3.01958
0
LINE
8
BLACK
6
CONTINUOUS
10
2.0125
20
3.01958
11
2.0675
21
3.01958
0
LINE
8
BLACK
6
CONTINUOUS
10
2.0675
20
3.01958
11
2.0675
21
2.98458
0
LINE
8
BLACK
6
CONTINUOUS
10
2.0675
20
3.05958
11
2.0125
21
3.05958
0
LINE
8
BLACK
6
CONTINUOUS
10
2.0125
20
3.05958
11
2.0125
21
3.09458
0
LINE
8
BLACK
6
CONTINUOUS
10
2.0125
20
3.09458
11
2.0675
21
3.09458
0
LINE
8
BLACK
6
CONTINUOUS
10
2.0675
20
3.09458
11
2.0675
21
3.05958
0
LINE
8
BLACK
6
CONTINUOUS
10
2.64
20
3.0825
11
2.605
21
3.0825
0
LINE
8
BLACK
6
CONTINUOUS
10
2.605
20
3.0825
11
2.605
21
3.1375
0
LINE
8
BLACK
6
CONTINUOUS
10
2.605
20
3.1375
11
2.64
21
3.1375
0
LINE
8
BLACK
6
CONTINUOUS
10
2.64
20
3.1375
11
2.64
21
3.0825
0
LINE
8
BLACK
6
CONTINUOUS
10
2.715
20
3.0825
11
2.68
21
3.0825
0
LINE
8
BLACK
6
CONTINUOUS
10
2.68
20
3.0825
11
2.68
21
3.1375
0
LINE
8
BLACK
6
CONTINUOUS
10
2.68
20
3.1375
11
2.715
21
3.1375
0
LINE
8
BLACK
6
CONTINUOUS
10
2.715
20
3.1375
11
2.715
21
3.0825
0
LINE
8
BLACK
6
CONTINUOUS
10
1.86535
20
3.14573
11
1.78661
21
3.14573
0
LINE
8
BLACK
6
CONTINUOUS
10
1.78661
20
3.14573
11
1.78661
21
3.17093
0
LINE
8
BLACK
6
CONTINUOUS
10
1.78661
20
3.17093
11
1.86535
21
3.17093
0
LINE
8
BLACK
6
CONTINUOUS
10
1.86535
20
3.17093
11
1.86535
21
3.14573
0
LINE
8
BLACK
6
CONTINUOUS
10
2.11339
20
3.14573
11
2.03465
21
3.14573
0
LINE
8
BLACK
6
CONTINUOUS
10
2.03465
20
3.14573
11
2.03465
21
3.17093
0
LINE
8
BLACK
6
CONTINUOUS
10
2.03465
20
3.17093
11
2.11339
21
3.17093
0
LINE
8
BLACK
6
CONTINUOUS
10
2.11339
20
3.17093
11
2.11339
21
3.14573
0
LINE
8
BLACK
6
CONTINUOUS
10
2.64
20
3.1825
11
2.605
21
3.1825
0
LINE
8
BLACK
6
CONTINUOUS
10
2.605
20
3.1825
11
2.605
21
3.2375
0
LINE
8
BLACK
6
CONTINUOUS
10
2.605
20
3.2375
11
2.64
21
3.2375
0
LINE
8
BLACK
6
CONTINUOUS
10
2.64
20
3.2375
11
2.64
21
3.1825
0
LINE
8
BLACK
6
CONTINUOUS
10
2.715
20
3.1825
11
2.68
21
3.1825
0
LINE
8
BLACK
6
CONTINUOUS
10
2.68
20
3.1825
11
2.68
21
3.2375
0
LINE
8
BLACK
6
CONTINUOUS
10
2.68
20
3.2375
11
2.715
21
3.2375
0
LINE
8
BLACK
6
CONTINUOUS
10
2.715
20
3.2375
11
2.715
21
3.1825
0
LINE
8
BLACK
6
CONTINUOUS
10
1.86535
20
3.24573
11
1.78661
21
3.24573
0
LINE
8
BLACK
6
CONTINUOUS
10
1.78661
20
3.24573
11
1.78661
21
3.27093
0
LINE
8
BLACK
6
CONTINUOUS
10
1.78661
20
3.27093
11
1.86535
21
3.27093
0
LINE
8
BLACK
6
CONTINUOUS
10
1.86535
20
3.27093
11
1.86535
21
3.24573
0
LINE
8
BLACK
6
CONTINUOUS
10
2.11339
20
3.24573
11
2.03465
21
3.24573
0
LINE
8
BLACK
6
CONTINUOUS
10
2.03465
20
3.24573
11
2.03465
21
3.27093
0
LINE
8
BLACK
6
CONTINUOUS
10
2.03465
20
3.27093
11
2.11339
21
3.27093
0
LINE
8
BLACK
6
CONTINUOUS
10
2.11339
20
3.27093
11
2.11339
21
3.24573
0
LINE
8
BLACK
6
CONTINUOUS
10
2.715
20
3.2825
11
2.68
21
3.2825
0
LINE
8
BLACK
6
CONTINUOUS
10
2.68
20
3.2825
11
2.68
21
3.3375
0
LINE
8
BLACK
6
CONTINUOUS
10
2.68
20
3.3375
11
2.715
21
3.3375
0
LINE
8
BLACK
6
CONTINUOUS
10
2.715
20
3.3375
11
2.715
21
3.2825
0
LINE
8
BLACK
6
CONTINUOUS
10
2.64
20
3.2825
11
2.605
21
3.2825
0
LINE
8
BLACK
6
CONTINUOUS
10
2.605
20
3.2825
11
2.605
21
3.3375
0
LINE
8
BLACK
6
CONTINUOUS
10
2.605
20
3.3375
11
2.64
21
3.3375
0
LINE
8
BLACK
6
CONTINUOUS
10
2.64
20
3.3375
11
2.64
21
3.2825
0
LINE
8
BLACK
6
CONTINUOUS
10
1.82094
20
3.45936
11
1.82196
21
3.45946
0
LINE
8
BLACK
6
CONTINUOUS
10
1.82196
20
3.45946
11
1.82525
21
3.45825
0
LINE
8
BLACK
6
CONTINUOUS
10
1.82525
20
3.45825
11
1.82768
21
3.45573
0
LINE
8
BLACK
6
CONTINUOUS
10
1.82768
20
3.45573
11
1.82878
21
3.4524
0
LINE
8
BLACK
6
CONTINUOUS
10
1.82878
20
3.4524
11
1.82833
21
3.44893
0
LINE
8
BLACK
6
CONTINUOUS
10
1.82833
20
3.44893
11
1.82808
21
3.44855
0
LINE
8
BLACK
6
CONTINUOUS
10
1.82808
20
3.44855
11
1.82606
21
3.44156
0
LINE
8
BLACK
6
CONTINUOUS
10
1.82606
20
3.44156
11
1.82498
21
3.4339
0
LINE
8
BLACK
6
CONTINUOUS
10
1.82498
20
3.4339
11
1.82497
21
3.42617
0
LINE
8
BLACK
6
CONTINUOUS
10
1.82497
20
3.42617
11
1.82605
21
3.41851
0
LINE
8
BLACK
6
CONTINUOUS
10
1.82605
20
3.41851
11
1.82806
21
3.4115
0
LINE
8
BLACK
6
CONTINUOUS
10
1.82806
20
3.4115
11
1.82832
21
3.41111
0
LINE
8
BLACK
6
CONTINUOUS
10
1.82832
20
3.41111
11
1.82875
21
3.40763
0
LINE
8
BLACK
6
CONTINUOUS
10
1.82875
20
3.40763
11
1.82764
21
3.40431
0
LINE
8
BLACK
6
CONTINUOUS
10
1.82764
20
3.40431
11
1.82519
21
3.40181
0
LINE
8
BLACK
6
CONTINUOUS
10
1.82519
20
3.40181
11
1.8219
21
3.40061
0
LINE
8
BLACK
6
CONTINUOUS
10
1.8219
20
3.40061
11
1.82094
21
3.4007
0
LINE
8
BLACK
6
CONTINUOUS
10
1.82094
20
3.4007
11
1.82094
21
3.40047
0
LINE
8
BLACK
6
CONTINUOUS
10
1.82094
20
3.40047
11
1.77961
21
3.40047
0
LINE
8
BLACK
6
CONTINUOUS
10
1.77961
20
3.40047
11
1.77961
21
3.45953
0
LINE
8
BLACK
6
CONTINUOUS
10
1.77961
20
3.45953
11
1.82094
21
3.45953
0
LINE
8
BLACK
6
CONTINUOUS
10
1.82094
20
3.45953
11
1.82094
21
3.45936
0
LINE
8
BLACK
6
CONTINUOUS
10
1.98039
20
3.40047
11
1.93906
21
3.40047
0
LINE
8
BLACK
6
CONTINUOUS
10
1.93906
20
3.40047
11
1.93906
21
3.40064
0
LINE
8
BLACK
6
CONTINUOUS
10
1.93906
20
3.40064
11
1.93804
21
3.40054
0
LINE
8
BLACK
6
CONTINUOUS
10
1.93804
20
3.40054
11
1.93475
21
3.40175
0
LINE
8
BLACK
6
CONTINUOUS
10
1.93475
20
3.40175
11
1.93232
21
3.40427
0
LINE
8
BLACK
6
CONTINUOUS
10
1.93232
20
3.40427
11
1.93122
21
3.4076
0
LINE
8
BLACK
6
CONTINUOUS
10
1.93122
20
3.4076
11
1.93167
21
3.41107
0
LINE
8
BLACK
6
CONTINUOUS
10
1.93167
20
3.41107
11
1.93192
21
3.41145
0
LINE
8
BLACK
6
CONTINUOUS
10
1.93192
20
3.41145
11
1.93394
21
3.41844
0
LINE
8
BLACK
6
CONTINUOUS
10
1.93394
20
3.41844
11
1.93502
21
3.4261
0
LINE
8
BLACK
6
CONTINUOUS
10
1.93502
20
3.4261
11
1.93503
21
3.43383
0
LINE
8
BLACK
6
CONTINUOUS
10
1.93503
20
3.43383
11
1.93395
21
3.44149
0
LINE
8
BLACK
6
CONTINUOUS
10
1.93395
20
3.44149
11
1.93194
21
3.4485
0
LINE
8
BLACK
6
CONTINUOUS
10
1.93194
20
3.4485
11
1.93168
21
3.44889
0
LINE
8
BLACK
6
CONTINUOUS
10
1.93168
20
3.44889
11
1.93125
21
3.45237
0
LINE
8
BLACK
6
CONTINUOUS
10
1.93125
20
3.45237
11
1.93236
21
3.45569
0
LINE
8
BLACK
6
CONTINUOUS
10
1.93236
20
3.45569
11
1.93481
21
3.45819
0
LINE
8
BLACK
6
CONTINUOUS
10
1.93481
20
3.45819
11
1.9381
21
3.45939
0
LINE
8
BLACK
6
CONTINUOUS
10
1.9381
20
3.45939
11
1.93906
21
3.4593
0
LINE
8
BLACK
6
CONTINUOUS
10
1.93906
20
3.4593
11
1.93906
21
3.45953
0
LINE
8
BLACK
6
CONTINUOUS
10
1.93906
20
3.45953
11
1.98039
21
3.45953
0
LINE
8
BLACK
6
CONTINUOUS
10
1.98039
20
3.45953
11
1.98039
21
3.40047
0
LINE
8
BLACK
6
CONTINUOUS
10
2.0675
20
3.405
11
2.0125
21
3.405
0
LINE
8
BLACK
6
CONTINUOUS
10
2.0125
20
3.405
11
2.0125
21
3.44
0
LINE
8
BLACK
6
CONTINUOUS
10
2.0125
20
3.44
11
2.0675
21
3.44
0
LINE
8
BLACK
6
CONTINUOUS
10
2.0675
20
3.44
11
2.0675
21
3.405
0
LINE
8
BLACK
6
CONTINUOUS
10
2.0675
20
3.48
11
2.0125
21
3.48
0
LINE
8
BLACK
6
CONTINUOUS
10
2.0125
20
3.48
11
2.0125
21
3.515
0
LINE
8
BLACK
6
CONTINUOUS
10
2.0125
20
3.515
11
2.0675
21
3.515
0
LINE
8
BLACK
6
CONTINUOUS
10
2.0675
20
3.515
11
2.0675
21
3.48
0
LINE
8
BLACK
6
CONTINUOUS
10
2.11339
20
3.5674
11
2.03465
21
3.5674
0
LINE
8
BLACK
6
CONTINUOUS
10
2.03465
20
3.5674
11
2.03465
21
3.5926
0
LINE
8
BLACK
6
CONTINUOUS
10
2.03465
20
3.5926
11
2.11339
21
3.5926
0
LINE
8
BLACK
6
CONTINUOUS
10
2.11339
20
3.5926
11
2.11339
21
3.5674
0
LINE
8
BLACK
6
CONTINUOUS
10
1.86535
20
3.5674
11
1.78661
21
3.5674
0
LINE
8
BLACK
6
CONTINUOUS
10
1.78661
20
3.5674
11
1.78661
21
3.5926
0
LINE
8
BLACK
6
CONTINUOUS
10
1.78661
20
3.5926
11
1.86535
21
3.5926
0
LINE
8
BLACK
6
CONTINUOUS
10
1.86535
20
3.5926
11
1.86535
21
3.5674
0
LINE
8
BLACK
6
CONTINUOUS
10
2.11339
20
3.6674
11
2.03465
21
3.6674
0
LINE
8
BLACK
6
CONTINUOUS
10
2.03465
20
3.6674
11
2.03465
21
3.6926
0
LINE
8
BLACK
6
CONTINUOUS
10
2.03465
20
3.6926
11
2.11339
21
3.6926
0
LINE
8
BLACK
6
CONTINUOUS
10
2.11339
20
3.6926
11
2.11339
21
3.6674
0
LINE
8
BLACK
6
CONTINUOUS
10
1.86535
20
3.6674
11
1.78661
21
3.6674
0
LINE
8
BLACK
6
CONTINUOUS
10
1.78661
20
3.6674
11
1.78661
21
3.6926
0
LINE
8
BLACK
6
CONTINUOUS
10
1.78661
20
3.6926
11
1.86535
21
3.6926
0
LINE
8
BLACK
6
CONTINUOUS
10
1.86535
20
3.6926
11
1.86535
21
3.6674
  0
ENDSEC
  0
EOF
