  0
SECTION
  2
HEADER
  9
$ANGBASE
  50
0.0
  9
$ANGDIR
  70
1
  9
$MEASUREMENT
  70
0
  0
ENDSEC
  0
SECTION
  2
TABLES
  0
TABLE
  2
LTYPE
  70
4
  0
LTYPE
  5
40F
  2
CONTINUOUS
  70
0
  3
Solid line
  72
65
  73
0
  40
0.0
  0
LTYPE
  5
410
  2
DASHDOT
 70
0
  3
Dash Dot ____ _ ____ _
 72
65
 73
4
 40
2.0
 49
1.25
 49
-0.25
 49
0.25
 49
-0.25
  0
LTYPE
  5
411
  2
DASHED
 70
0
  3
Dashed __ __ __ __ __
 72
65
 73
2
 40
0.75
 49
0.5
 49
-0.25
  0
LTYPE
  5
43B
  2
DOTTED
 70
0
  3
Dotted .  .  .  .
 72
65
 73
2
 40
0.2
 49
0.0
 49
-0.2
  0
ENDTAB
  0
TABLE
  2
STYLE
  70
4
  0
STYLE
  2
KICAD
  70
0
  40
0
  41
1
  42
1
  50
0
  71
0
  3
isocp.shx
  0
STYLE
  2
KICADB
  70
0
  40
0
  41
1
  42
1
  50
0
  71
0
  3
isocp.shx
  0
STYLE
  2
KICADI
  70
0
  40
0
  41
1
  42
1
  50
15
  71
0
  3
isocp.shx
  0
STYLE
  2
KICADBI
  70
0
  40
0
  41
1
  42
1
  50
15
  71
0
  3
isocp.shx
  0
ENDTAB
  0
TABLE
  2
LAYER
  70
1
  0
LAYER
  2
BLACK
  70
0
  62
7
  6
CONTINUOUS
  0
ENDTAB
  0
ENDSEC
  0
SECTION
  2
ENTITIES
0
LINE
8
BLACK
6
CONTINUOUS
10
0.40865
20
0.517793
11
0.422132
21
0.516018
0
LINE
8
BLACK
6
CONTINUOUS
10
0.422132
20
0.516018
11
0.43532
21
0.512706
0
LINE
8
BLACK
6
CONTINUOUS
10
0.43532
20
0.512706
11
0.44804
21
0.507899
0
LINE
8
BLACK
6
CONTINUOUS
10
0.44804
20
0.507899
11
0.460123
21
0.501662
0
LINE
8
BLACK
6
CONTINUOUS
10
0.460123
20
0.501662
11
0.471409
21
0.494078
0
LINE
8
BLACK
6
CONTINUOUS
10
0.471409
20
0.494078
11
0.481749
21
0.485247
0
LINE
8
BLACK
6
CONTINUOUS
10
0.481749
20
0.485247
11
0.491006
21
0.475286
0
LINE
8
BLACK
6
CONTINUOUS
10
0.491006
20
0.475286
11
0.499056
21
0.464327
0
LINE
8
BLACK
6
CONTINUOUS
10
0.499056
20
0.464327
11
0.505793
21
0.452516
0
LINE
8
BLACK
6
CONTINUOUS
10
0.505793
20
0.452516
11
0.511128
21
0.440008
0
LINE
8
BLACK
6
CONTINUOUS
10
0.511128
20
0.440008
11
0.51499
21
0.426971
0
LINE
8
BLACK
6
CONTINUOUS
10
0.51499
20
0.426971
11
0.517327
21
0.413575
0
LINE
8
BLACK
6
CONTINUOUS
10
0.517327
20
0.413575
11
0.51811
21
0.4
0
LINE
8
BLACK
6
CONTINUOUS
10
0.51811
20
0.4
11
0.517877
21
0.392584
0
LINE
8
BLACK
6
CONTINUOUS
10
0.517877
20
0.392584
11
0.516244
21
0.379084
0
LINE
8
BLACK
6
CONTINUOUS
10
0.516244
20
0.379084
11
0.513069
21
0.365862
0
LINE
8
BLACK
6
CONTINUOUS
10
0.513069
20
0.365862
11
0.508396
21
0.353093
0
LINE
8
BLACK
6
CONTINUOUS
10
0.508396
20
0.353093
11
0.502286
21
0.340945
0
LINE
8
BLACK
6
CONTINUOUS
10
0.502286
20
0.340945
11
0.494821
21
0.32958
0
LINE
8
BLACK
6
CONTINUOUS
10
0.494821
20
0.32958
11
0.486099
21
0.319148
0
LINE
8
BLACK
6
CONTINUOUS
10
0.486099
20
0.319148
11
0.476235
21
0.309788
0
LINE
8
BLACK
6
CONTINUOUS
10
0.476235
20
0.309788
11
0.465361
21
0.301623
0
LINE
8
BLACK
6
CONTINUOUS
10
0.465361
20
0.301623
11
0.453621
21
0.294763
0
LINE
8
BLACK
6
CONTINUOUS
10
0.453621
20
0.294763
11
0.44117
21
0.289297
0
LINE
8
BLACK
6
CONTINUOUS
10
0.44117
20
0.289297
11
0.428173
21
0.285299
0
LINE
8
BLACK
6
CONTINUOUS
10
0.428173
20
0.285299
11
0.414803
21
0.282821
0
LINE
8
BLACK
6
CONTINUOUS
10
0.414803
20
0.282821
11
0.401237
21
0.281896
0
LINE
8
BLACK
6
CONTINUOUS
10
0.401237
20
0.281896
11
0.387654
21
0.282537
0
LINE
8
BLACK
6
CONTINUOUS
10
0.387654
20
0.282537
11
0.374235
21
0.284734
0
LINE
8
BLACK
6
CONTINUOUS
10
0.374235
20
0.284734
11
0.361157
21
0.288459
0
LINE
8
BLACK
6
CONTINUOUS
10
0.361157
20
0.288459
11
0.348595
21
0.293663
0
LINE
8
BLACK
6
CONTINUOUS
10
0.348595
20
0.293663
11
0.336713
21
0.300276
0
LINE
8
BLACK
6
CONTINUOUS
10
0.336713
20
0.300276
11
0.325671
21
0.308211
0
LINE
8
BLACK
6
CONTINUOUS
10
0.325671
20
0.308211
11
0.315613
21
0.317363
0
LINE
8
BLACK
6
CONTINUOUS
10
0.315613
20
0.317363
11
0.306675
21
0.327609
0
LINE
8
BLACK
6
CONTINUOUS
10
0.306675
20
0.327609
11
0.298973
21
0.338816
0
LINE
8
BLACK
6
CONTINUOUS
10
0.298973
20
0.338816
11
0.29261
21
0.350833
0
LINE
8
BLACK
6
CONTINUOUS
10
0.29261
20
0.350833
11
0.28767
21
0.363502
0
LINE
8
BLACK
6
CONTINUOUS
10
0.28767
20
0.363502
11
0.28422
21
0.376655
0
LINE
8
BLACK
6
CONTINUOUS
10
0.28422
20
0.376655
11
0.282304
21
0.390117
0
LINE
8
BLACK
6
CONTINUOUS
10
0.282304
20
0.390117
11
0.281948
21
0.40371
0
LINE
8
BLACK
6
CONTINUOUS
10
0.281948
20
0.40371
11
0.283157
21
0.417254
0
LINE
8
BLACK
6
CONTINUOUS
10
0.283157
20
0.417254
11
0.285914
21
0.430569
0
LINE
8
BLACK
6
CONTINUOUS
10
0.285914
20
0.430569
11
0.290184
21
0.443479
0
LINE
8
BLACK
6
CONTINUOUS
10
0.290184
20
0.443479
11
0.295909
21
0.455813
0
LINE
8
BLACK
6
CONTINUOUS
10
0.295909
20
0.455813
11
0.303014
21
0.467407
0
LINE
8
BLACK
6
CONTINUOUS
10
0.303014
20
0.467407
11
0.311404
21
0.478108
0
LINE
8
BLACK
6
CONTINUOUS
10
0.311404
20
0.478108
11
0.320969
21
0.487773
0
LINE
8
BLACK
6
CONTINUOUS
10
0.320969
20
0.487773
11
0.331581
21
0.496275
0
LINE
8
BLACK
6
CONTINUOUS
10
0.331581
20
0.496275
11
0.3431
21
0.503501
0
LINE
8
BLACK
6
CONTINUOUS
10
0.3431
20
0.503501
11
0.355373
21
0.509355
0
LINE
8
BLACK
6
CONTINUOUS
10
0.355373
20
0.509355
11
0.368238
21
0.513759
0
LINE
8
BLACK
6
CONTINUOUS
10
0.368238
20
0.513759
11
0.381524
21
0.516656
0
LINE
8
BLACK
6
CONTINUOUS
10
0.381524
20
0.516656
11
0.395054
21
0.518007
0
LINE
8
BLACK
6
CONTINUOUS
10
0.395054
20
0.518007
11
0.40865
21
0.517793
0
LINE
8
BLACK
6
CONTINUOUS
10
2.80865
20
0.517793
11
2.82213
21
0.516018
0
LINE
8
BLACK
6
CONTINUOUS
10
2.82213
20
0.516018
11
2.83532
21
0.512706
0
LINE
8
BLACK
6
CONTINUOUS
10
2.83532
20
0.512706
11
2.84804
21
0.507899
0
LINE
8
BLACK
6
CONTINUOUS
10
2.84804
20
0.507899
11
2.86012
21
0.501662
0
LINE
8
BLACK
6
CONTINUOUS
10
2.86012
20
0.501662
11
2.87141
21
0.494078
0
LINE
8
BLACK
6
CONTINUOUS
10
2.87141
20
0.494078
11
2.88175
21
0.485247
0
LINE
8
BLACK
6
CONTINUOUS
10
2.88175
20
0.485247
11
2.89101
21
0.475286
0
LINE
8
BLACK
6
CONTINUOUS
10
2.89101
20
0.475286
11
2.89906
21
0.464327
0
LINE
8
BLACK
6
CONTINUOUS
10
2.89906
20
0.464327
11
2.90579
21
0.452516
0
LINE
8
BLACK
6
CONTINUOUS
10
2.90579
20
0.452516
11
2.91113
21
0.440008
0
LINE
8
BLACK
6
CONTINUOUS
10
2.91113
20
0.440008
11
2.91499
21
0.426971
0
LINE
8
BLACK
6
CONTINUOUS
10
2.91499
20
0.426971
11
2.91733
21
0.413575
0
LINE
8
BLACK
6
CONTINUOUS
10
2.91733
20
0.413575
11
2.91811
21
0.4
0
LINE
8
BLACK
6
CONTINUOUS
10
2.91811
20
0.4
11
2.91788
21
0.392584
0
LINE
8
BLACK
6
CONTINUOUS
10
2.91788
20
0.392584
11
2.91624
21
0.379084
0
LINE
8
BLACK
6
CONTINUOUS
10
2.91624
20
0.379084
11
2.91307
21
0.365862
0
LINE
8
BLACK
6
CONTINUOUS
10
2.91307
20
0.365862
11
2.9084
21
0.353093
0
LINE
8
BLACK
6
CONTINUOUS
10
2.9084
20
0.353093
11
2.90229
21
0.340945
0
LINE
8
BLACK
6
CONTINUOUS
10
2.90229
20
0.340945
11
2.89482
21
0.32958
0
LINE
8
BLACK
6
CONTINUOUS
10
2.89482
20
0.32958
11
2.8861
21
0.319148
0
LINE
8
BLACK
6
CONTINUOUS
10
2.8861
20
0.319148
11
2.87624
21
0.309788
0
LINE
8
BLACK
6
CONTINUOUS
10
2.87624
20
0.309788
11
2.86536
21
0.301623
0
LINE
8
BLACK
6
CONTINUOUS
10
2.86536
20
0.301623
11
2.85362
21
0.294763
0
LINE
8
BLACK
6
CONTINUOUS
10
2.85362
20
0.294763
11
2.84117
21
0.289297
0
LINE
8
BLACK
6
CONTINUOUS
10
2.84117
20
0.289297
11
2.82817
21
0.285299
0
LINE
8
BLACK
6
CONTINUOUS
10
2.82817
20
0.285299
11
2.8148
21
0.282821
0
LINE
8
BLACK
6
CONTINUOUS
10
2.8148
20
0.282821
11
2.80124
21
0.281896
0
LINE
8
BLACK
6
CONTINUOUS
10
2.80124
20
0.281896
11
2.78765
21
0.282537
0
LINE
8
BLACK
6
CONTINUOUS
10
2.78765
20
0.282537
11
2.77424
21
0.284734
0
LINE
8
BLACK
6
CONTINUOUS
10
2.77424
20
0.284734
11
2.76116
21
0.288459
0
LINE
8
BLACK
6
CONTINUOUS
10
2.76116
20
0.288459
11
2.74859
21
0.293663
0
LINE
8
BLACK
6
CONTINUOUS
10
2.74859
20
0.293663
11
2.73671
21
0.300276
0
LINE
8
BLACK
6
CONTINUOUS
10
2.73671
20
0.300276
11
2.72567
21
0.308211
0
LINE
8
BLACK
6
CONTINUOUS
10
2.72567
20
0.308211
11
2.71561
21
0.317363
0
LINE
8
BLACK
6
CONTINUOUS
10
2.71561
20
0.317363
11
2.70667
21
0.327609
0
LINE
8
BLACK
6
CONTINUOUS
10
2.70667
20
0.327609
11
2.69897
21
0.338816
0
LINE
8
BLACK
6
CONTINUOUS
10
2.69897
20
0.338816
11
2.69261
21
0.350833
0
LINE
8
BLACK
6
CONTINUOUS
10
2.69261
20
0.350833
11
2.68767
21
0.363502
0
LINE
8
BLACK
6
CONTINUOUS
10
2.68767
20
0.363502
11
2.68422
21
0.376655
0
LINE
8
BLACK
6
CONTINUOUS
10
2.68422
20
0.376655
11
2.6823
21
0.390117
0
LINE
8
BLACK
6
CONTINUOUS
10
2.6823
20
0.390117
11
2.68195
21
0.40371
0
LINE
8
BLACK
6
CONTINUOUS
10
2.68195
20
0.40371
11
2.68316
21
0.417254
0
LINE
8
BLACK
6
CONTINUOUS
10
2.68316
20
0.417254
11
2.68591
21
0.430569
0
LINE
8
BLACK
6
CONTINUOUS
10
2.68591
20
0.430569
11
2.69018
21
0.443479
0
LINE
8
BLACK
6
CONTINUOUS
10
2.69018
20
0.443479
11
2.69591
21
0.455813
0
LINE
8
BLACK
6
CONTINUOUS
10
2.69591
20
0.455813
11
2.70301
21
0.467407
0
LINE
8
BLACK
6
CONTINUOUS
10
2.70301
20
0.467407
11
2.7114
21
0.478108
0
LINE
8
BLACK
6
CONTINUOUS
10
2.7114
20
0.478108
11
2.72097
21
0.487773
0
LINE
8
BLACK
6
CONTINUOUS
10
2.72097
20
0.487773
11
2.73158
21
0.496275
0
LINE
8
BLACK
6
CONTINUOUS
10
2.73158
20
0.496275
11
2.7431
21
0.503501
0
LINE
8
BLACK
6
CONTINUOUS
10
2.7431
20
0.503501
11
2.75537
21
0.509355
0
LINE
8
BLACK
6
CONTINUOUS
10
2.75537
20
0.509355
11
2.76824
21
0.513759
0
LINE
8
BLACK
6
CONTINUOUS
10
2.76824
20
0.513759
11
2.78152
21
0.516656
0
LINE
8
BLACK
6
CONTINUOUS
10
2.78152
20
0.516656
11
2.79505
21
0.518007
0
LINE
8
BLACK
6
CONTINUOUS
10
2.79505
20
0.518007
11
2.80865
21
0.517793
0
LINE
8
BLACK
6
CONTINUOUS
10
1.60733
20
0.554444
11
1.61611
21
0.55209
0
LINE
8
BLACK
6
CONTINUOUS
10
1.61611
20
0.55209
11
1.62435
21
0.548247
0
LINE
8
BLACK
6
CONTINUOUS
10
1.62435
20
0.548247
11
1.6318
21
0.543032
0
LINE
8
BLACK
6
CONTINUOUS
10
1.6318
20
0.543032
11
1.63823
21
0.536602
0
LINE
8
BLACK
6
CONTINUOUS
10
1.63823
20
0.536602
11
1.64344
21
0.529154
0
LINE
8
BLACK
6
CONTINUOUS
10
1.64344
20
0.529154
11
1.64729
21
0.520912
0
LINE
8
BLACK
6
CONTINUOUS
10
1.64729
20
0.520912
11
1.64964
21
0.512129
0
LINE
8
BLACK
6
CONTINUOUS
10
1.64964
20
0.512129
11
1.65043
21
0.503071
0
LINE
8
BLACK
6
CONTINUOUS
10
1.65043
20
0.503071
11
1.64964
21
0.494012
0
LINE
8
BLACK
6
CONTINUOUS
10
1.64964
20
0.494012
11
1.64729
21
0.485229
0
LINE
8
BLACK
6
CONTINUOUS
10
1.64729
20
0.485229
11
1.64344
21
0.476988
0
LINE
8
BLACK
6
CONTINUOUS
10
1.64344
20
0.476988
11
1.63823
21
0.46954
0
LINE
8
BLACK
6
CONTINUOUS
10
1.63823
20
0.46954
11
1.6318
21
0.46311
0
LINE
8
BLACK
6
CONTINUOUS
10
1.6318
20
0.46311
11
1.62435
21
0.457894
0
LINE
8
BLACK
6
CONTINUOUS
10
1.62435
20
0.457894
11
1.61611
21
0.454051
0
LINE
8
BLACK
6
CONTINUOUS
10
1.61611
20
0.454051
11
1.60733
21
0.451698
0
LINE
8
BLACK
6
CONTINUOUS
10
1.60733
20
0.451698
11
1.59827
21
0.450906
0
LINE
8
BLACK
6
CONTINUOUS
10
1.59827
20
0.450906
11
1.58921
21
0.451698
0
LINE
8
BLACK
6
CONTINUOUS
10
1.58921
20
0.451698
11
1.58043
21
0.454051
0
LINE
8
BLACK
6
CONTINUOUS
10
1.58043
20
0.454051
11
1.57219
21
0.457894
0
LINE
8
BLACK
6
CONTINUOUS
10
1.57219
20
0.457894
11
1.56474
21
0.46311
0
LINE
8
BLACK
6
CONTINUOUS
10
1.56474
20
0.46311
11
1.55831
21
0.46954
0
LINE
8
BLACK
6
CONTINUOUS
10
1.55831
20
0.46954
11
1.55309
21
0.476988
0
LINE
8
BLACK
6
CONTINUOUS
10
1.55309
20
0.476988
11
1.54925
21
0.485229
0
LINE
8
BLACK
6
CONTINUOUS
10
1.54925
20
0.485229
11
1.54689
21
0.494012
0
LINE
8
BLACK
6
CONTINUOUS
10
1.54689
20
0.494012
11
1.5461
21
0.503071
0
LINE
8
BLACK
6
CONTINUOUS
10
1.5461
20
0.503071
11
1.54689
21
0.512129
0
LINE
8
BLACK
6
CONTINUOUS
10
1.54689
20
0.512129
11
1.54925
21
0.520912
0
LINE
8
BLACK
6
CONTINUOUS
10
1.54925
20
0.520912
11
1.55309
21
0.529154
0
LINE
8
BLACK
6
CONTINUOUS
10
1.55309
20
0.529154
11
1.55831
21
0.536602
0
LINE
8
BLACK
6
CONTINUOUS
10
1.55831
20
0.536602
11
1.56474
21
0.543032
0
LINE
8
BLACK
6
CONTINUOUS
10
1.56474
20
0.543032
11
1.57219
21
0.548247
0
LINE
8
BLACK
6
CONTINUOUS
10
1.57219
20
0.548247
11
1.58043
21
0.55209
0
LINE
8
BLACK
6
CONTINUOUS
10
1.58043
20
0.55209
11
1.58921
21
0.554444
0
LINE
8
BLACK
6
CONTINUOUS
10
1.58921
20
0.554444
11
1.59827
21
0.555236
0
LINE
8
BLACK
6
CONTINUOUS
10
1.59827
20
0.555236
11
1.60733
21
0.554444
0
LINE
8
BLACK
6
CONTINUOUS
10
1.99079
20
0.554444
11
1.99957
21
0.55209
0
LINE
8
BLACK
6
CONTINUOUS
10
1.99957
20
0.55209
11
2.00781
21
0.548247
0
LINE
8
BLACK
6
CONTINUOUS
10
2.00781
20
0.548247
11
2.01526
21
0.543032
0
LINE
8
BLACK
6
CONTINUOUS
10
2.01526
20
0.543032
11
2.02169
21
0.536602
0
LINE
8
BLACK
6
CONTINUOUS
10
2.02169
20
0.536602
11
2.02691
21
0.529154
0
LINE
8
BLACK
6
CONTINUOUS
10
2.02691
20
0.529154
11
2.03075
21
0.520912
0
LINE
8
BLACK
6
CONTINUOUS
10
2.03075
20
0.520912
11
2.03311
21
0.512129
0
LINE
8
BLACK
6
CONTINUOUS
10
2.03311
20
0.512129
11
2.0339
21
0.503071
0
LINE
8
BLACK
6
CONTINUOUS
10
2.0339
20
0.503071
11
2.03311
21
0.494012
0
LINE
8
BLACK
6
CONTINUOUS
10
2.03311
20
0.494012
11
2.03075
21
0.485229
0
LINE
8
BLACK
6
CONTINUOUS
10
2.03075
20
0.485229
11
2.02691
21
0.476988
0
LINE
8
BLACK
6
CONTINUOUS
10
2.02691
20
0.476988
11
2.02169
21
0.46954
0
LINE
8
BLACK
6
CONTINUOUS
10
2.02169
20
0.46954
11
2.01526
21
0.46311
0
LINE
8
BLACK
6
CONTINUOUS
10
2.01526
20
0.46311
11
2.00781
21
0.457894
0
LINE
8
BLACK
6
CONTINUOUS
10
2.00781
20
0.457894
11
1.99957
21
0.454051
0
LINE
8
BLACK
6
CONTINUOUS
10
1.99957
20
0.454051
11
1.99079
21
0.451698
0
LINE
8
BLACK
6
CONTINUOUS
10
1.99079
20
0.451698
11
1.98173
21
0.450906
0
LINE
8
BLACK
6
CONTINUOUS
10
1.98173
20
0.450906
11
1.97267
21
0.451698
0
LINE
8
BLACK
6
CONTINUOUS
10
1.97267
20
0.451698
11
1.96389
21
0.454051
0
LINE
8
BLACK
6
CONTINUOUS
10
1.96389
20
0.454051
11
1.95565
21
0.457894
0
LINE
8
BLACK
6
CONTINUOUS
10
1.95565
20
0.457894
11
1.9482
21
0.46311
0
LINE
8
BLACK
6
CONTINUOUS
10
1.9482
20
0.46311
11
1.94177
21
0.46954
0
LINE
8
BLACK
6
CONTINUOUS
10
1.94177
20
0.46954
11
1.93656
21
0.476988
0
LINE
8
BLACK
6
CONTINUOUS
10
1.93656
20
0.476988
11
1.93271
21
0.485229
0
LINE
8
BLACK
6
CONTINUOUS
10
1.93271
20
0.485229
11
1.93036
21
0.494012
0
LINE
8
BLACK
6
CONTINUOUS
10
1.93036
20
0.494012
11
1.92957
21
0.503071
0
LINE
8
BLACK
6
CONTINUOUS
10
1.92957
20
0.503071
11
1.93036
21
0.512129
0
LINE
8
BLACK
6
CONTINUOUS
10
1.93036
20
0.512129
11
1.93271
21
0.520912
0
LINE
8
BLACK
6
CONTINUOUS
10
1.93271
20
0.520912
11
1.93656
21
0.529154
0
LINE
8
BLACK
6
CONTINUOUS
10
1.93656
20
0.529154
11
1.94177
21
0.536602
0
LINE
8
BLACK
6
CONTINUOUS
10
1.94177
20
0.536602
11
1.9482
21
0.543032
0
LINE
8
BLACK
6
CONTINUOUS
10
1.9482
20
0.543032
11
1.95565
21
0.548247
0
LINE
8
BLACK
6
CONTINUOUS
10
1.95565
20
0.548247
11
1.96389
21
0.55209
0
LINE
8
BLACK
6
CONTINUOUS
10
1.96389
20
0.55209
11
1.97267
21
0.554444
0
LINE
8
BLACK
6
CONTINUOUS
10
1.97267
20
0.554444
11
1.98173
21
0.555236
0
LINE
8
BLACK
6
CONTINUOUS
10
1.98173
20
0.555236
11
1.99079
21
0.554444
0
LINE
8
BLACK
6
CONTINUOUS
10
0.887326
20
0.554444
11
0.896109
21
0.55209
0
LINE
8
BLACK
6
CONTINUOUS
10
0.896109
20
0.55209
11
0.90435
21
0.548247
0
LINE
8
BLACK
6
CONTINUOUS
10
0.90435
20
0.548247
11
0.911799
21
0.543032
0
LINE
8
BLACK
6
CONTINUOUS
10
0.911799
20
0.543032
11
0.918229
21
0.536602
0
LINE
8
BLACK
6
CONTINUOUS
10
0.918229
20
0.536602
11
0.923444
21
0.529154
0
LINE
8
BLACK
6
CONTINUOUS
10
0.923444
20
0.529154
11
0.927287
21
0.520912
0
LINE
8
BLACK
6
CONTINUOUS
10
0.927287
20
0.520912
11
0.929641
21
0.512129
0
LINE
8
BLACK
6
CONTINUOUS
10
0.929641
20
0.512129
11
0.930433
21
0.503071
0
LINE
8
BLACK
6
CONTINUOUS
10
0.930433
20
0.503071
11
0.929641
21
0.494012
0
LINE
8
BLACK
6
CONTINUOUS
10
0.929641
20
0.494012
11
0.927287
21
0.485229
0
LINE
8
BLACK
6
CONTINUOUS
10
0.927287
20
0.485229
11
0.923444
21
0.476988
0
LINE
8
BLACK
6
CONTINUOUS
10
0.923444
20
0.476988
11
0.918229
21
0.46954
0
LINE
8
BLACK
6
CONTINUOUS
10
0.918229
20
0.46954
11
0.911799
21
0.46311
0
LINE
8
BLACK
6
CONTINUOUS
10
0.911799
20
0.46311
11
0.90435
21
0.457894
0
LINE
8
BLACK
6
CONTINUOUS
10
0.90435
20
0.457894
11
0.896109
21
0.454051
0
LINE
8
BLACK
6
CONTINUOUS
10
0.896109
20
0.454051
11
0.887326
21
0.451698
0
LINE
8
BLACK
6
CONTINUOUS
10
0.887326
20
0.451698
11
0.878268
21
0.450906
0
LINE
8
BLACK
6
CONTINUOUS
10
0.878268
20
0.450906
11
0.869209
21
0.451698
0
LINE
8
BLACK
6
CONTINUOUS
10
0.869209
20
0.451698
11
0.860426
21
0.454051
0
LINE
8
BLACK
6
CONTINUOUS
10
0.860426
20
0.454051
11
0.852185
21
0.457894
0
LINE
8
BLACK
6
CONTINUOUS
10
0.852185
20
0.457894
11
0.844736
21
0.46311
0
LINE
8
BLACK
6
CONTINUOUS
10
0.844736
20
0.46311
11
0.838307
21
0.46954
0
LINE
8
BLACK
6
CONTINUOUS
10
0.838307
20
0.46954
11
0.833091
21
0.476988
0
LINE
8
BLACK
6
CONTINUOUS
10
0.833091
20
0.476988
11
0.829248
21
0.485229
0
LINE
8
BLACK
6
CONTINUOUS
10
0.829248
20
0.485229
11
0.826895
21
0.494012
0
LINE
8
BLACK
6
CONTINUOUS
10
0.826895
20
0.494012
11
0.826102
21
0.503071
0
LINE
8
BLACK
6
CONTINUOUS
10
0.826102
20
0.503071
11
0.826895
21
0.512129
0
LINE
8
BLACK
6
CONTINUOUS
10
0.826895
20
0.512129
11
0.829248
21
0.520912
0
LINE
8
BLACK
6
CONTINUOUS
10
0.829248
20
0.520912
11
0.833091
21
0.529154
0
LINE
8
BLACK
6
CONTINUOUS
10
0.833091
20
0.529154
11
0.838307
21
0.536602
0
LINE
8
BLACK
6
CONTINUOUS
10
0.838307
20
0.536602
11
0.844736
21
0.543032
0
LINE
8
BLACK
6
CONTINUOUS
10
0.844736
20
0.543032
11
0.852185
21
0.548247
0
LINE
8
BLACK
6
CONTINUOUS
10
0.852185
20
0.548247
11
0.860426
21
0.55209
0
LINE
8
BLACK
6
CONTINUOUS
10
0.860426
20
0.55209
11
0.869209
21
0.554444
0
LINE
8
BLACK
6
CONTINUOUS
10
0.869209
20
0.554444
11
0.878268
21
0.555236
0
LINE
8
BLACK
6
CONTINUOUS
10
0.878268
20
0.555236
11
0.887326
21
0.554444
0
LINE
8
BLACK
6
CONTINUOUS
10
1.27079
20
0.554444
11
1.27957
21
0.55209
0
LINE
8
BLACK
6
CONTINUOUS
10
1.27957
20
0.55209
11
1.28781
21
0.548247
0
LINE
8
BLACK
6
CONTINUOUS
10
1.28781
20
0.548247
11
1.29526
21
0.543032
0
LINE
8
BLACK
6
CONTINUOUS
10
1.29526
20
0.543032
11
1.30169
21
0.536602
0
LINE
8
BLACK
6
CONTINUOUS
10
1.30169
20
0.536602
11
1.30691
21
0.529154
0
LINE
8
BLACK
6
CONTINUOUS
10
1.30691
20
0.529154
11
1.31075
21
0.520912
0
LINE
8
BLACK
6
CONTINUOUS
10
1.31075
20
0.520912
11
1.31311
21
0.512129
0
LINE
8
BLACK
6
CONTINUOUS
10
1.31311
20
0.512129
11
1.3139
21
0.503071
0
LINE
8
BLACK
6
CONTINUOUS
10
1.3139
20
0.503071
11
1.31311
21
0.494012
0
LINE
8
BLACK
6
CONTINUOUS
10
1.31311
20
0.494012
11
1.31075
21
0.485229
0
LINE
8
BLACK
6
CONTINUOUS
10
1.31075
20
0.485229
11
1.30691
21
0.476988
0
LINE
8
BLACK
6
CONTINUOUS
10
1.30691
20
0.476988
11
1.30169
21
0.46954
0
LINE
8
BLACK
6
CONTINUOUS
10
1.30169
20
0.46954
11
1.29526
21
0.46311
0
LINE
8
BLACK
6
CONTINUOUS
10
1.29526
20
0.46311
11
1.28781
21
0.457894
0
LINE
8
BLACK
6
CONTINUOUS
10
1.28781
20
0.457894
11
1.27957
21
0.454051
0
LINE
8
BLACK
6
CONTINUOUS
10
1.27957
20
0.454051
11
1.27079
21
0.451698
0
LINE
8
BLACK
6
CONTINUOUS
10
1.27079
20
0.451698
11
1.26173
21
0.450906
0
LINE
8
BLACK
6
CONTINUOUS
10
1.26173
20
0.450906
11
1.25267
21
0.451698
0
LINE
8
BLACK
6
CONTINUOUS
10
1.25267
20
0.451698
11
1.24389
21
0.454051
0
LINE
8
BLACK
6
CONTINUOUS
10
1.24389
20
0.454051
11
1.23565
21
0.457894
0
LINE
8
BLACK
6
CONTINUOUS
10
1.23565
20
0.457894
11
1.2282
21
0.46311
0
LINE
8
BLACK
6
CONTINUOUS
10
1.2282
20
0.46311
11
1.22177
21
0.46954
0
LINE
8
BLACK
6
CONTINUOUS
10
1.22177
20
0.46954
11
1.21656
21
0.476988
0
LINE
8
BLACK
6
CONTINUOUS
10
1.21656
20
0.476988
11
1.21271
21
0.485229
0
LINE
8
BLACK
6
CONTINUOUS
10
1.21271
20
0.485229
11
1.21036
21
0.494012
0
LINE
8
BLACK
6
CONTINUOUS
10
1.21036
20
0.494012
11
1.20957
21
0.503071
0
LINE
8
BLACK
6
CONTINUOUS
10
1.20957
20
0.503071
11
1.21036
21
0.512129
0
LINE
8
BLACK
6
CONTINUOUS
10
1.21036
20
0.512129
11
1.21271
21
0.520912
0
LINE
8
BLACK
6
CONTINUOUS
10
1.21271
20
0.520912
11
1.21656
21
0.529154
0
LINE
8
BLACK
6
CONTINUOUS
10
1.21656
20
0.529154
11
1.22177
21
0.536602
0
LINE
8
BLACK
6
CONTINUOUS
10
1.22177
20
0.536602
11
1.2282
21
0.543032
0
LINE
8
BLACK
6
CONTINUOUS
10
1.2282
20
0.543032
11
1.23565
21
0.548247
0
LINE
8
BLACK
6
CONTINUOUS
10
1.23565
20
0.548247
11
1.24389
21
0.55209
0
LINE
8
BLACK
6
CONTINUOUS
10
1.24389
20
0.55209
11
1.25267
21
0.554444
0
LINE
8
BLACK
6
CONTINUOUS
10
1.25267
20
0.554444
11
1.26173
21
0.555236
0
LINE
8
BLACK
6
CONTINUOUS
10
1.26173
20
0.555236
11
1.27079
21
0.554444
0
LINE
8
BLACK
6
CONTINUOUS
10
0.887326
20
0.688302
11
0.896109
21
0.685949
0
LINE
8
BLACK
6
CONTINUOUS
10
0.896109
20
0.685949
11
0.90435
21
0.682106
0
LINE
8
BLACK
6
CONTINUOUS
10
0.90435
20
0.682106
11
0.911799
21
0.67689
0
LINE
8
BLACK
6
CONTINUOUS
10
0.911799
20
0.67689
11
0.918229
21
0.67046
0
LINE
8
BLACK
6
CONTINUOUS
10
0.918229
20
0.67046
11
0.923444
21
0.663012
0
LINE
8
BLACK
6
CONTINUOUS
10
0.923444
20
0.663012
11
0.927287
21
0.654771
0
LINE
8
BLACK
6
CONTINUOUS
10
0.927287
20
0.654771
11
0.929641
21
0.645988
0
LINE
8
BLACK
6
CONTINUOUS
10
0.929641
20
0.645988
11
0.930433
21
0.636929
0
LINE
8
BLACK
6
CONTINUOUS
10
0.930433
20
0.636929
11
0.929641
21
0.627871
0
LINE
8
BLACK
6
CONTINUOUS
10
0.929641
20
0.627871
11
0.927287
21
0.619088
0
LINE
8
BLACK
6
CONTINUOUS
10
0.927287
20
0.619088
11
0.923444
21
0.610846
0
LINE
8
BLACK
6
CONTINUOUS
10
0.923444
20
0.610846
11
0.918229
21
0.603398
0
LINE
8
BLACK
6
CONTINUOUS
10
0.918229
20
0.603398
11
0.911799
21
0.596968
0
LINE
8
BLACK
6
CONTINUOUS
10
0.911799
20
0.596968
11
0.90435
21
0.591753
0
LINE
8
BLACK
6
CONTINUOUS
10
0.90435
20
0.591753
11
0.896109
21
0.58791
0
LINE
8
BLACK
6
CONTINUOUS
10
0.896109
20
0.58791
11
0.887326
21
0.585556
0
LINE
8
BLACK
6
CONTINUOUS
10
0.887326
20
0.585556
11
0.878268
21
0.584764
0
LINE
8
BLACK
6
CONTINUOUS
10
0.878268
20
0.584764
11
0.869209
21
0.585556
0
LINE
8
BLACK
6
CONTINUOUS
10
0.869209
20
0.585556
11
0.860426
21
0.58791
0
LINE
8
BLACK
6
CONTINUOUS
10
0.860426
20
0.58791
11
0.852185
21
0.591753
0
LINE
8
BLACK
6
CONTINUOUS
10
0.852185
20
0.591753
11
0.844736
21
0.596968
0
LINE
8
BLACK
6
CONTINUOUS
10
0.844736
20
0.596968
11
0.838307
21
0.603398
0
LINE
8
BLACK
6
CONTINUOUS
10
0.838307
20
0.603398
11
0.833091
21
0.610846
0
LINE
8
BLACK
6
CONTINUOUS
10
0.833091
20
0.610846
11
0.829248
21
0.619088
0
LINE
8
BLACK
6
CONTINUOUS
10
0.829248
20
0.619088
11
0.826895
21
0.627871
0
LINE
8
BLACK
6
CONTINUOUS
10
0.826895
20
0.627871
11
0.826102
21
0.636929
0
LINE
8
BLACK
6
CONTINUOUS
10
0.826102
20
0.636929
11
0.826895
21
0.645988
0
LINE
8
BLACK
6
CONTINUOUS
10
0.826895
20
0.645988
11
0.829248
21
0.654771
0
LINE
8
BLACK
6
CONTINUOUS
10
0.829248
20
0.654771
11
0.833091
21
0.663012
0
LINE
8
BLACK
6
CONTINUOUS
10
0.833091
20
0.663012
11
0.838307
21
0.67046
0
LINE
8
BLACK
6
CONTINUOUS
10
0.838307
20
0.67046
11
0.844736
21
0.67689
0
LINE
8
BLACK
6
CONTINUOUS
10
0.844736
20
0.67689
11
0.852185
21
0.682106
0
LINE
8
BLACK
6
CONTINUOUS
10
0.852185
20
0.682106
11
0.860426
21
0.685949
0
LINE
8
BLACK
6
CONTINUOUS
10
0.860426
20
0.685949
11
0.869209
21
0.688302
0
LINE
8
BLACK
6
CONTINUOUS
10
0.869209
20
0.688302
11
0.878268
21
0.689094
0
LINE
8
BLACK
6
CONTINUOUS
10
0.878268
20
0.689094
11
0.887326
21
0.688302
0
LINE
8
BLACK
6
CONTINUOUS
10
1.99079
20
0.688302
11
1.99957
21
0.685949
0
LINE
8
BLACK
6
CONTINUOUS
10
1.99957
20
0.685949
11
2.00781
21
0.682106
0
LINE
8
BLACK
6
CONTINUOUS
10
2.00781
20
0.682106
11
2.01526
21
0.67689
0
LINE
8
BLACK
6
CONTINUOUS
10
2.01526
20
0.67689
11
2.02169
21
0.67046
0
LINE
8
BLACK
6
CONTINUOUS
10
2.02169
20
0.67046
11
2.02691
21
0.663012
0
LINE
8
BLACK
6
CONTINUOUS
10
2.02691
20
0.663012
11
2.03075
21
0.654771
0
LINE
8
BLACK
6
CONTINUOUS
10
2.03075
20
0.654771
11
2.03311
21
0.645988
0
LINE
8
BLACK
6
CONTINUOUS
10
2.03311
20
0.645988
11
2.0339
21
0.636929
0
LINE
8
BLACK
6
CONTINUOUS
10
2.0339
20
0.636929
11
2.03311
21
0.627871
0
LINE
8
BLACK
6
CONTINUOUS
10
2.03311
20
0.627871
11
2.03075
21
0.619088
0
LINE
8
BLACK
6
CONTINUOUS
10
2.03075
20
0.619088
11
2.02691
21
0.610846
0
LINE
8
BLACK
6
CONTINUOUS
10
2.02691
20
0.610846
11
2.02169
21
0.603398
0
LINE
8
BLACK
6
CONTINUOUS
10
2.02169
20
0.603398
11
2.01526
21
0.596968
0
LINE
8
BLACK
6
CONTINUOUS
10
2.01526
20
0.596968
11
2.00781
21
0.591753
0
LINE
8
BLACK
6
CONTINUOUS
10
2.00781
20
0.591753
11
1.99957
21
0.58791
0
LINE
8
BLACK
6
CONTINUOUS
10
1.99957
20
0.58791
11
1.99079
21
0.585556
0
LINE
8
BLACK
6
CONTINUOUS
10
1.99079
20
0.585556
11
1.98173
21
0.584764
0
LINE
8
BLACK
6
CONTINUOUS
10
1.98173
20
0.584764
11
1.97267
21
0.585556
0
LINE
8
BLACK
6
CONTINUOUS
10
1.97267
20
0.585556
11
1.96389
21
0.58791
0
LINE
8
BLACK
6
CONTINUOUS
10
1.96389
20
0.58791
11
1.95565
21
0.591753
0
LINE
8
BLACK
6
CONTINUOUS
10
1.95565
20
0.591753
11
1.9482
21
0.596968
0
LINE
8
BLACK
6
CONTINUOUS
10
1.9482
20
0.596968
11
1.94177
21
0.603398
0
LINE
8
BLACK
6
CONTINUOUS
10
1.94177
20
0.603398
11
1.93656
21
0.610846
0
LINE
8
BLACK
6
CONTINUOUS
10
1.93656
20
0.610846
11
1.93271
21
0.619088
0
LINE
8
BLACK
6
CONTINUOUS
10
1.93271
20
0.619088
11
1.93036
21
0.627871
0
LINE
8
BLACK
6
CONTINUOUS
10
1.93036
20
0.627871
11
1.92957
21
0.636929
0
LINE
8
BLACK
6
CONTINUOUS
10
1.92957
20
0.636929
11
1.93036
21
0.645988
0
LINE
8
BLACK
6
CONTINUOUS
10
1.93036
20
0.645988
11
1.93271
21
0.654771
0
LINE
8
BLACK
6
CONTINUOUS
10
1.93271
20
0.654771
11
1.93656
21
0.663012
0
LINE
8
BLACK
6
CONTINUOUS
10
1.93656
20
0.663012
11
1.94177
21
0.67046
0
LINE
8
BLACK
6
CONTINUOUS
10
1.94177
20
0.67046
11
1.9482
21
0.67689
0
LINE
8
BLACK
6
CONTINUOUS
10
1.9482
20
0.67689
11
1.95565
21
0.682106
0
LINE
8
BLACK
6
CONTINUOUS
10
1.95565
20
0.682106
11
1.96389
21
0.685949
0
LINE
8
BLACK
6
CONTINUOUS
10
1.96389
20
0.685949
11
1.97267
21
0.688302
0
LINE
8
BLACK
6
CONTINUOUS
10
1.97267
20
0.688302
11
1.98173
21
0.689094
0
LINE
8
BLACK
6
CONTINUOUS
10
1.98173
20
0.689094
11
1.99079
21
0.688302
0
LINE
8
BLACK
6
CONTINUOUS
10
1.27079
20
0.688302
11
1.27957
21
0.685949
0
LINE
8
BLACK
6
CONTINUOUS
10
1.27957
20
0.685949
11
1.28781
21
0.682106
0
LINE
8
BLACK
6
CONTINUOUS
10
1.28781
20
0.682106
11
1.29526
21
0.67689
0
LINE
8
BLACK
6
CONTINUOUS
10
1.29526
20
0.67689
11
1.30169
21
0.67046
0
LINE
8
BLACK
6
CONTINUOUS
10
1.30169
20
0.67046
11
1.30691
21
0.663012
0
LINE
8
BLACK
6
CONTINUOUS
10
1.30691
20
0.663012
11
1.31075
21
0.654771
0
LINE
8
BLACK
6
CONTINUOUS
10
1.31075
20
0.654771
11
1.31311
21
0.645988
0
LINE
8
BLACK
6
CONTINUOUS
10
1.31311
20
0.645988
11
1.3139
21
0.636929
0
LINE
8
BLACK
6
CONTINUOUS
10
1.3139
20
0.636929
11
1.31311
21
0.627871
0
LINE
8
BLACK
6
CONTINUOUS
10
1.31311
20
0.627871
11
1.31075
21
0.619088
0
LINE
8
BLACK
6
CONTINUOUS
10
1.31075
20
0.619088
11
1.30691
21
0.610846
0
LINE
8
BLACK
6
CONTINUOUS
10
1.30691
20
0.610846
11
1.30169
21
0.603398
0
LINE
8
BLACK
6
CONTINUOUS
10
1.30169
20
0.603398
11
1.29526
21
0.596968
0
LINE
8
BLACK
6
CONTINUOUS
10
1.29526
20
0.596968
11
1.28781
21
0.591753
0
LINE
8
BLACK
6
CONTINUOUS
10
1.28781
20
0.591753
11
1.27957
21
0.58791
0
LINE
8
BLACK
6
CONTINUOUS
10
1.27957
20
0.58791
11
1.27079
21
0.585556
0
LINE
8
BLACK
6
CONTINUOUS
10
1.27079
20
0.585556
11
1.26173
21
0.584764
0
LINE
8
BLACK
6
CONTINUOUS
10
1.26173
20
0.584764
11
1.25267
21
0.585556
0
LINE
8
BLACK
6
CONTINUOUS
10
1.25267
20
0.585556
11
1.24389
21
0.58791
0
LINE
8
BLACK
6
CONTINUOUS
10
1.24389
20
0.58791
11
1.23565
21
0.591753
0
LINE
8
BLACK
6
CONTINUOUS
10
1.23565
20
0.591753
11
1.2282
21
0.596968
0
LINE
8
BLACK
6
CONTINUOUS
10
1.2282
20
0.596968
11
1.22177
21
0.603398
0
LINE
8
BLACK
6
CONTINUOUS
10
1.22177
20
0.603398
11
1.21656
21
0.610846
0
LINE
8
BLACK
6
CONTINUOUS
10
1.21656
20
0.610846
11
1.21271
21
0.619088
0
LINE
8
BLACK
6
CONTINUOUS
10
1.21271
20
0.619088
11
1.21036
21
0.627871
0
LINE
8
BLACK
6
CONTINUOUS
10
1.21036
20
0.627871
11
1.20957
21
0.636929
0
LINE
8
BLACK
6
CONTINUOUS
10
1.20957
20
0.636929
11
1.21036
21
0.645988
0
LINE
8
BLACK
6
CONTINUOUS
10
1.21036
20
0.645988
11
1.21271
21
0.654771
0
LINE
8
BLACK
6
CONTINUOUS
10
1.21271
20
0.654771
11
1.21656
21
0.663012
0
LINE
8
BLACK
6
CONTINUOUS
10
1.21656
20
0.663012
11
1.22177
21
0.67046
0
LINE
8
BLACK
6
CONTINUOUS
10
1.22177
20
0.67046
11
1.2282
21
0.67689
0
LINE
8
BLACK
6
CONTINUOUS
10
1.2282
20
0.67689
11
1.23565
21
0.682106
0
LINE
8
BLACK
6
CONTINUOUS
10
1.23565
20
0.682106
11
1.24389
21
0.685949
0
LINE
8
BLACK
6
CONTINUOUS
10
1.24389
20
0.685949
11
1.25267
21
0.688302
0
LINE
8
BLACK
6
CONTINUOUS
10
1.25267
20
0.688302
11
1.26173
21
0.689094
0
LINE
8
BLACK
6
CONTINUOUS
10
1.26173
20
0.689094
11
1.27079
21
0.688302
0
LINE
8
BLACK
6
CONTINUOUS
10
1.60733
20
0.688302
11
1.61611
21
0.685949
0
LINE
8
BLACK
6
CONTINUOUS
10
1.61611
20
0.685949
11
1.62435
21
0.682106
0
LINE
8
BLACK
6
CONTINUOUS
10
1.62435
20
0.682106
11
1.6318
21
0.67689
0
LINE
8
BLACK
6
CONTINUOUS
10
1.6318
20
0.67689
11
1.63823
21
0.67046
0
LINE
8
BLACK
6
CONTINUOUS
10
1.63823
20
0.67046
11
1.64344
21
0.663012
0
LINE
8
BLACK
6
CONTINUOUS
10
1.64344
20
0.663012
11
1.64729
21
0.654771
0
LINE
8
BLACK
6
CONTINUOUS
10
1.64729
20
0.654771
11
1.64964
21
0.645988
0
LINE
8
BLACK
6
CONTINUOUS
10
1.64964
20
0.645988
11
1.65043
21
0.636929
0
LINE
8
BLACK
6
CONTINUOUS
10
1.65043
20
0.636929
11
1.64964
21
0.627871
0
LINE
8
BLACK
6
CONTINUOUS
10
1.64964
20
0.627871
11
1.64729
21
0.619088
0
LINE
8
BLACK
6
CONTINUOUS
10
1.64729
20
0.619088
11
1.64344
21
0.610846
0
LINE
8
BLACK
6
CONTINUOUS
10
1.64344
20
0.610846
11
1.63823
21
0.603398
0
LINE
8
BLACK
6
CONTINUOUS
10
1.63823
20
0.603398
11
1.6318
21
0.596968
0
LINE
8
BLACK
6
CONTINUOUS
10
1.6318
20
0.596968
11
1.62435
21
0.591753
0
LINE
8
BLACK
6
CONTINUOUS
10
1.62435
20
0.591753
11
1.61611
21
0.58791
0
LINE
8
BLACK
6
CONTINUOUS
10
1.61611
20
0.58791
11
1.60733
21
0.585556
0
LINE
8
BLACK
6
CONTINUOUS
10
1.60733
20
0.585556
11
1.59827
21
0.584764
0
LINE
8
BLACK
6
CONTINUOUS
10
1.59827
20
0.584764
11
1.58921
21
0.585556
0
LINE
8
BLACK
6
CONTINUOUS
10
1.58921
20
0.585556
11
1.58043
21
0.58791
0
LINE
8
BLACK
6
CONTINUOUS
10
1.58043
20
0.58791
11
1.57219
21
0.591753
0
LINE
8
BLACK
6
CONTINUOUS
10
1.57219
20
0.591753
11
1.56474
21
0.596968
0
LINE
8
BLACK
6
CONTINUOUS
10
1.56474
20
0.596968
11
1.55831
21
0.603398
0
LINE
8
BLACK
6
CONTINUOUS
10
1.55831
20
0.603398
11
1.55309
21
0.610846
0
LINE
8
BLACK
6
CONTINUOUS
10
1.55309
20
0.610846
11
1.54925
21
0.619088
0
LINE
8
BLACK
6
CONTINUOUS
10
1.54925
20
0.619088
11
1.54689
21
0.627871
0
LINE
8
BLACK
6
CONTINUOUS
10
1.54689
20
0.627871
11
1.5461
21
0.636929
0
LINE
8
BLACK
6
CONTINUOUS
10
1.5461
20
0.636929
11
1.54689
21
0.645988
0
LINE
8
BLACK
6
CONTINUOUS
10
1.54689
20
0.645988
11
1.54925
21
0.654771
0
LINE
8
BLACK
6
CONTINUOUS
10
1.54925
20
0.654771
11
1.55309
21
0.663012
0
LINE
8
BLACK
6
CONTINUOUS
10
1.55309
20
0.663012
11
1.55831
21
0.67046
0
LINE
8
BLACK
6
CONTINUOUS
10
1.55831
20
0.67046
11
1.56474
21
0.67689
0
LINE
8
BLACK
6
CONTINUOUS
10
1.56474
20
0.67689
11
1.57219
21
0.682106
0
LINE
8
BLACK
6
CONTINUOUS
10
1.57219
20
0.682106
11
1.58043
21
0.685949
0
LINE
8
BLACK
6
CONTINUOUS
10
1.58043
20
0.685949
11
1.58921
21
0.688302
0
LINE
8
BLACK
6
CONTINUOUS
10
1.58921
20
0.688302
11
1.59827
21
0.689094
0
LINE
8
BLACK
6
CONTINUOUS
10
1.59827
20
0.689094
11
1.60733
21
0.688302
0
LINE
8
BLACK
6
CONTINUOUS
10
2.36338
20
0.787939
11
2.36377
21
0.78769
0
LINE
8
BLACK
6
CONTINUOUS
10
2.36377
20
0.78769
11
2.37075
21
0.785671
0
LINE
8
BLACK
6
CONTINUOUS
10
2.37075
20
0.785671
11
2.37841
21
0.784584
0
LINE
8
BLACK
6
CONTINUOUS
10
2.37841
20
0.784584
11
2.38615
21
0.784579
0
LINE
8
BLACK
6
CONTINUOUS
10
2.38615
20
0.784579
11
2.3938
21
0.785656
0
LINE
8
BLACK
6
CONTINUOUS
10
2.3938
20
0.785656
11
2.40081
21
0.787671
0
LINE
8
BLACK
6
CONTINUOUS
10
2.40081
20
0.787671
11
2.4012
21
0.787925
0
LINE
8
BLACK
6
CONTINUOUS
10
2.4012
20
0.787925
11
2.40468
21
0.788358
0
LINE
8
BLACK
6
CONTINUOUS
10
2.40468
20
0.788358
11
2.408
21
0.787242
0
LINE
8
BLACK
6
CONTINUOUS
10
2.408
20
0.787242
11
2.41051
21
0.784797
0
LINE
8
BLACK
6
CONTINUOUS
10
2.41051
20
0.784797
11
2.4117
21
0.781506
0
LINE
8
BLACK
6
CONTINUOUS
10
2.4117
20
0.781506
11
2.41161
21
0.780551
0
LINE
8
BLACK
6
CONTINUOUS
10
2.41161
20
0.780551
11
2.41184
21
0.780551
0
LINE
8
BLACK
6
CONTINUOUS
10
2.41184
20
0.780551
11
2.41184
21
0.739213
0
LINE
8
BLACK
6
CONTINUOUS
10
2.41184
20
0.739213
11
2.35279
21
0.739213
0
LINE
8
BLACK
6
CONTINUOUS
10
2.35279
20
0.739213
11
2.35279
21
0.780551
0
LINE
8
BLACK
6
CONTINUOUS
10
2.35279
20
0.780551
11
2.35295
21
0.780551
0
LINE
8
BLACK
6
CONTINUOUS
10
2.35295
20
0.780551
11
2.35285
21
0.78157
0
LINE
8
BLACK
6
CONTINUOUS
10
2.35285
20
0.78157
11
2.35407
21
0.784855
0
LINE
8
BLACK
6
CONTINUOUS
10
2.35407
20
0.784855
11
2.35658
21
0.787289
0
LINE
8
BLACK
6
CONTINUOUS
10
2.35658
20
0.787289
11
2.35991
21
0.788389
0
LINE
8
BLACK
6
CONTINUOUS
10
2.35991
20
0.788389
11
2.36338
21
0.787939
0
LINE
8
BLACK
6
CONTINUOUS
10
2.85444
20
0.740433
11
2.70444
21
0.740433
0
LINE
8
BLACK
6
CONTINUOUS
10
2.70444
20
0.740433
11
2.70444
21
0.890433
0
LINE
8
BLACK
6
CONTINUOUS
10
2.70444
20
0.890433
11
2.85444
21
0.890433
0
LINE
8
BLACK
6
CONTINUOUS
10
2.85444
20
0.890433
11
2.85444
21
0.740433
0
LINE
8
BLACK
6
CONTINUOUS
10
2.65759
20
0.740433
11
2.50759
21
0.740433
0
LINE
8
BLACK
6
CONTINUOUS
10
2.50759
20
0.740433
11
2.50759
21
0.890433
0
LINE
8
BLACK
6
CONTINUOUS
10
2.50759
20
0.890433
11
2.65759
21
0.890433
0
LINE
8
BLACK
6
CONTINUOUS
10
2.65759
20
0.890433
11
2.65759
21
0.740433
0
LINE
8
BLACK
6
CONTINUOUS
10
1.82094
20
0.939365
11
1.82196
21
0.939461
0
LINE
8
BLACK
6
CONTINUOUS
10
1.82196
20
0.939461
11
1.82525
21
0.938247
0
LINE
8
BLACK
6
CONTINUOUS
10
1.82525
20
0.938247
11
1.82768
21
0.935728
0
LINE
8
BLACK
6
CONTINUOUS
10
1.82768
20
0.935728
11
1.82878
21
0.932403
0
LINE
8
BLACK
6
CONTINUOUS
10
1.82878
20
0.932403
11
1.82833
21
0.92893
0
LINE
8
BLACK
6
CONTINUOUS
10
1.82833
20
0.92893
11
1.82808
21
0.928548
0
LINE
8
BLACK
6
CONTINUOUS
10
1.82808
20
0.928548
11
1.82606
21
0.921559
0
LINE
8
BLACK
6
CONTINUOUS
10
1.82606
20
0.921559
11
1.82498
21
0.913902
0
LINE
8
BLACK
6
CONTINUOUS
10
1.82498
20
0.913902
11
1.82497
21
0.906168
0
LINE
8
BLACK
6
CONTINUOUS
10
1.82497
20
0.906168
11
1.82605
21
0.898509
0
LINE
8
BLACK
6
CONTINUOUS
10
1.82605
20
0.898509
11
1.82806
21
0.891503
0
LINE
8
BLACK
6
CONTINUOUS
10
1.82806
20
0.891503
11
1.82832
21
0.89111
0
LINE
8
BLACK
6
CONTINUOUS
10
1.82832
20
0.89111
11
1.82875
21
0.887634
0
LINE
8
BLACK
6
CONTINUOUS
10
1.82875
20
0.887634
11
1.82764
21
0.884315
0
LINE
8
BLACK
6
CONTINUOUS
10
1.82764
20
0.884315
11
1.82519
21
0.881807
0
LINE
8
BLACK
6
CONTINUOUS
10
1.82519
20
0.881807
11
1.8219
21
0.880609
0
LINE
8
BLACK
6
CONTINUOUS
10
1.8219
20
0.880609
11
1.82094
21
0.880704
0
LINE
8
BLACK
6
CONTINUOUS
10
1.82094
20
0.880704
11
1.82094
21
0.880472
0
LINE
8
BLACK
6
CONTINUOUS
10
1.82094
20
0.880472
11
1.77961
21
0.880472
0
LINE
8
BLACK
6
CONTINUOUS
10
1.77961
20
0.880472
11
1.77961
21
0.939528
0
LINE
8
BLACK
6
CONTINUOUS
10
1.77961
20
0.939528
11
1.82094
21
0.939528
0
LINE
8
BLACK
6
CONTINUOUS
10
1.82094
20
0.939528
11
1.82094
21
0.939365
0
LINE
8
BLACK
6
CONTINUOUS
10
1.98039
20
0.880472
11
1.93906
21
0.880472
0
LINE
8
BLACK
6
CONTINUOUS
10
1.93906
20
0.880472
11
1.93906
21
0.880635
0
LINE
8
BLACK
6
CONTINUOUS
10
1.93906
20
0.880635
11
1.93804
21
0.880539
0
LINE
8
BLACK
6
CONTINUOUS
10
1.93804
20
0.880539
11
1.93475
21
0.881753
0
LINE
8
BLACK
6
CONTINUOUS
10
1.93475
20
0.881753
11
1.93232
21
0.884272
0
LINE
8
BLACK
6
CONTINUOUS
10
1.93232
20
0.884272
11
1.93122
21
0.887597
0
LINE
8
BLACK
6
CONTINUOUS
10
1.93122
20
0.887597
11
1.93167
21
0.89107
0
LINE
8
BLACK
6
CONTINUOUS
10
1.93167
20
0.89107
11
1.93192
21
0.891452
0
LINE
8
BLACK
6
CONTINUOUS
10
1.93192
20
0.891452
11
1.93394
21
0.898441
0
LINE
8
BLACK
6
CONTINUOUS
10
1.93394
20
0.898441
11
1.93502
21
0.906098
0
LINE
8
BLACK
6
CONTINUOUS
10
1.93502
20
0.906098
11
1.93503
21
0.913832
0
LINE
8
BLACK
6
CONTINUOUS
10
1.93503
20
0.913832
11
1.93395
21
0.921491
0
LINE
8
BLACK
6
CONTINUOUS
10
1.93395
20
0.921491
11
1.93194
21
0.928497
0
LINE
8
BLACK
6
CONTINUOUS
10
1.93194
20
0.928497
11
1.93168
21
0.92889
0
LINE
8
BLACK
6
CONTINUOUS
10
1.93168
20
0.92889
11
1.93125
21
0.932366
0
LINE
8
BLACK
6
CONTINUOUS
10
1.93125
20
0.932366
11
1.93236
21
0.935685
0
LINE
8
BLACK
6
CONTINUOUS
10
1.93236
20
0.935685
11
1.93481
21
0.938193
0
LINE
8
BLACK
6
CONTINUOUS
10
1.93481
20
0.938193
11
1.9381
21
0.939391
0
LINE
8
BLACK
6
CONTINUOUS
10
1.9381
20
0.939391
11
1.93906
21
0.939296
0
LINE
8
BLACK
6
CONTINUOUS
10
1.93906
20
0.939296
11
1.93906
21
0.939528
0
LINE
8
BLACK
6
CONTINUOUS
10
1.93906
20
0.939528
11
1.98039
21
0.939528
0
LINE
8
BLACK
6
CONTINUOUS
10
1.98039
20
0.939528
11
1.98039
21
0.880472
0
LINE
8
BLACK
6
CONTINUOUS
10
2.0675
20
0.8825
11
2.0125
21
0.8825
0
LINE
8
BLACK
6
CONTINUOUS
10
2.0125
20
0.8825
11
2.0125
21
0.9175
0
LINE
8
BLACK
6
CONTINUOUS
10
2.0125
20
0.9175
11
2.0675
21
0.9175
0
LINE
8
BLACK
6
CONTINUOUS
10
2.0675
20
0.9175
11
2.0675
21
0.8825
0
LINE
8
BLACK
6
CONTINUOUS
10
2.41184
20
0.898661
11
2.41168
21
0.898661
0
LINE
8
BLACK
6
CONTINUOUS
10
2.41168
20
0.898661
11
2.41177
21
0.897642
0
LINE
8
BLACK
6
CONTINUOUS
10
2.41177
20
0.897642
11
2.41056
21
0.894357
0
LINE
8
BLACK
6
CONTINUOUS
10
2.41056
20
0.894357
11
2.40804
21
0.891924
0
LINE
8
BLACK
6
CONTINUOUS
10
2.40804
20
0.891924
11
2.40472
21
0.890823
0
LINE
8
BLACK
6
CONTINUOUS
10
2.40472
20
0.890823
11
2.40124
21
0.891273
0
LINE
8
BLACK
6
CONTINUOUS
10
2.40124
20
0.891273
11
2.40086
21
0.891522
0
LINE
8
BLACK
6
CONTINUOUS
10
2.40086
20
0.891522
11
2.39387
21
0.893542
0
LINE
8
BLACK
6
CONTINUOUS
10
2.39387
20
0.893542
11
2.38621
21
0.894628
0
LINE
8
BLACK
6
CONTINUOUS
10
2.38621
20
0.894628
11
2.37848
21
0.894633
0
LINE
8
BLACK
6
CONTINUOUS
10
2.37848
20
0.894633
11
2.37082
21
0.893556
0
LINE
8
BLACK
6
CONTINUOUS
10
2.37082
20
0.893556
11
2.36382
21
0.891541
0
LINE
8
BLACK
6
CONTINUOUS
10
2.36382
20
0.891541
11
2.36342
21
0.891288
0
LINE
8
BLACK
6
CONTINUOUS
10
2.36342
20
0.891288
11
2.35995
21
0.890854
0
LINE
8
BLACK
6
CONTINUOUS
10
2.35995
20
0.890854
11
2.35663
21
0.891971
0
LINE
8
BLACK
6
CONTINUOUS
10
2.35663
20
0.891971
11
2.35412
21
0.894416
0
LINE
8
BLACK
6
CONTINUOUS
10
2.35412
20
0.894416
11
2.35292
21
0.897707
0
LINE
8
BLACK
6
CONTINUOUS
10
2.35292
20
0.897707
11
2.35302
21
0.898661
0
LINE
8
BLACK
6
CONTINUOUS
10
2.35302
20
0.898661
11
2.35279
21
0.898661
0
LINE
8
BLACK
6
CONTINUOUS
10
2.35279
20
0.898661
11
2.35279
21
0.94
0
LINE
8
BLACK
6
CONTINUOUS
10
2.35279
20
0.94
11
2.41184
21
0.94
0
LINE
8
BLACK
6
CONTINUOUS
10
2.41184
20
0.94
11
2.41184
21
0.898661
0
LINE
8
BLACK
6
CONTINUOUS
10
2.65759
20
0.937283
11
2.50759
21
0.937283
0
LINE
8
BLACK
6
CONTINUOUS
10
2.50759
20
0.937283
11
2.50759
21
1.08728
0
LINE
8
BLACK
6
CONTINUOUS
10
2.50759
20
1.08728
11
2.65759
21
1.08728
0
LINE
8
BLACK
6
CONTINUOUS
10
2.65759
20
1.08728
11
2.65759
21
0.937283
0
LINE
8
BLACK
6
CONTINUOUS
10
2.85444
20
0.937283
11
2.70444
21
0.937283
0
LINE
8
BLACK
6
CONTINUOUS
10
2.70444
20
0.937283
11
2.70444
21
1.08728
0
LINE
8
BLACK
6
CONTINUOUS
10
2.70444
20
1.08728
11
2.85444
21
1.08728
0
LINE
8
BLACK
6
CONTINUOUS
10
2.85444
20
1.08728
11
2.85444
21
0.937283
0
LINE
8
BLACK
6
CONTINUOUS
10
2.0675
20
0.9575
11
2.0125
21
0.9575
0
LINE
8
BLACK
6
CONTINUOUS
10
2.0125
20
0.9575
11
2.0125
21
0.9925
0
LINE
8
BLACK
6
CONTINUOUS
10
2.0125
20
0.9925
11
2.0675
21
0.9925
0
LINE
8
BLACK
6
CONTINUOUS
10
2.0675
20
0.9925
11
2.0675
21
0.9575
0
LINE
8
BLACK
6
CONTINUOUS
10
2.40981
20
0.972106
11
2.35481
21
0.972106
0
LINE
8
BLACK
6
CONTINUOUS
10
2.35481
20
0.972106
11
2.35481
21
1.00711
0
LINE
8
BLACK
6
CONTINUOUS
10
2.35481
20
1.00711
11
2.40981
21
1.00711
0
LINE
8
BLACK
6
CONTINUOUS
10
2.40981
20
1.00711
11
2.40981
21
0.972106
0
LINE
8
BLACK
6
CONTINUOUS
10
1.34352
20
1.08307
11
1.352
21
1.08138
0
LINE
8
BLACK
6
CONTINUOUS
10
1.352
20
1.08138
11
1.36003
21
1.07817
0
LINE
8
BLACK
6
CONTINUOUS
10
1.36003
20
1.07817
11
1.36734
21
1.07356
0
LINE
8
BLACK
6
CONTINUOUS
10
1.36734
20
1.07356
11
1.37369
21
1.06769
0
LINE
8
BLACK
6
CONTINUOUS
10
1.37369
20
1.06769
11
1.37886
21
1.06076
0
LINE
8
BLACK
6
CONTINUOUS
10
1.37886
20
1.06076
11
1.38269
21
1.05301
0
LINE
8
BLACK
6
CONTINUOUS
10
1.38269
20
1.05301
11
1.38504
21
1.04469
0
LINE
8
BLACK
6
CONTINUOUS
10
1.38504
20
1.04469
11
1.38583
21
1.03608
0
LINE
8
BLACK
6
CONTINUOUS
10
1.38583
20
1.03608
11
1.38576
21
1.03361
0
LINE
8
BLACK
6
CONTINUOUS
10
1.38576
20
1.03361
11
1.38452
21
1.02505
0
LINE
8
BLACK
6
CONTINUOUS
10
1.38452
20
1.02505
11
1.38174
21
1.01686
0
LINE
8
BLACK
6
CONTINUOUS
10
1.38174
20
1.01686
11
1.37752
21
1.00932
0
LINE
8
BLACK
6
CONTINUOUS
10
1.37752
20
1.00932
11
1.37199
21
1.00267
0
LINE
8
BLACK
6
CONTINUOUS
10
1.37199
20
1.00267
11
1.36534
21
0.997145
0
LINE
8
BLACK
6
CONTINUOUS
10
1.36534
20
0.997145
11
1.3578
21
0.99292
0
LINE
8
BLACK
6
CONTINUOUS
10
1.3578
20
0.99292
11
1.34961
21
0.990141
0
LINE
8
BLACK
6
CONTINUOUS
10
1.34961
20
0.990141
11
1.34106
21
0.988901
0
LINE
8
BLACK
6
CONTINUOUS
10
1.34106
20
0.988901
11
1.33242
21
0.98924
0
LINE
8
BLACK
6
CONTINUOUS
10
1.33242
20
0.98924
11
1.32398
21
0.991148
0
LINE
8
BLACK
6
CONTINUOUS
10
1.32398
20
0.991148
11
1.31604
21
0.994561
0
LINE
8
BLACK
6
CONTINUOUS
10
1.31604
20
0.994561
11
1.30885
21
0.999364
0
LINE
8
BLACK
6
CONTINUOUS
10
1.30885
20
0.999364
11
1.30266
21
1.0054
0
LINE
8
BLACK
6
CONTINUOUS
10
1.30266
20
1.0054
11
1.29767
21
1.01246
0
LINE
8
BLACK
6
CONTINUOUS
10
1.29767
20
1.01246
11
1.29405
21
1.02031
0
LINE
8
BLACK
6
CONTINUOUS
10
1.29405
20
1.02031
11
1.29192
21
1.02869
0
LINE
8
BLACK
6
CONTINUOUS
10
1.29192
20
1.02869
11
1.29135
21
1.03732
0
LINE
8
BLACK
6
CONTINUOUS
10
1.29135
20
1.03732
11
1.29237
21
1.0459
0
LINE
8
BLACK
6
CONTINUOUS
10
1.29237
20
1.0459
11
1.29493
21
1.05416
0
LINE
8
BLACK
6
CONTINUOUS
10
1.29493
20
1.05416
11
1.29896
21
1.06181
0
LINE
8
BLACK
6
CONTINUOUS
10
1.29896
20
1.06181
11
1.30431
21
1.0686
0
LINE
8
BLACK
6
CONTINUOUS
10
1.30431
20
1.0686
11
1.31081
21
1.0743
0
LINE
8
BLACK
6
CONTINUOUS
10
1.31081
20
1.0743
11
1.31824
21
1.07872
0
LINE
8
BLACK
6
CONTINUOUS
10
1.31824
20
1.07872
11
1.32635
21
1.08171
0
LINE
8
BLACK
6
CONTINUOUS
10
1.32635
20
1.08171
11
1.33488
21
1.08318
0
LINE
8
BLACK
6
CONTINUOUS
10
1.33488
20
1.08318
11
1.34352
21
1.08307
0
LINE
8
BLACK
6
CONTINUOUS
10
1.54037
20
1.08307
11
1.54885
21
1.08138
0
LINE
8
BLACK
6
CONTINUOUS
10
1.54885
20
1.08138
11
1.55688
21
1.07817
0
LINE
8
BLACK
6
CONTINUOUS
10
1.55688
20
1.07817
11
1.56419
21
1.07356
0
LINE
8
BLACK
6
CONTINUOUS
10
1.56419
20
1.07356
11
1.57054
21
1.06769
0
LINE
8
BLACK
6
CONTINUOUS
10
1.57054
20
1.06769
11
1.57572
21
1.06076
0
LINE
8
BLACK
6
CONTINUOUS
10
1.57572
20
1.06076
11
1.57954
21
1.05301
0
LINE
8
BLACK
6
CONTINUOUS
10
1.57954
20
1.05301
11
1.58189
21
1.04469
0
LINE
8
BLACK
6
CONTINUOUS
10
1.58189
20
1.04469
11
1.58268
21
1.03608
0
LINE
8
BLACK
6
CONTINUOUS
10
1.58268
20
1.03608
11
1.58261
21
1.03361
0
LINE
8
BLACK
6
CONTINUOUS
10
1.58261
20
1.03361
11
1.58137
21
1.02505
0
LINE
8
BLACK
6
CONTINUOUS
10
1.58137
20
1.02505
11
1.57859
21
1.01686
0
LINE
8
BLACK
6
CONTINUOUS
10
1.57859
20
1.01686
11
1.57437
21
1.00932
0
LINE
8
BLACK
6
CONTINUOUS
10
1.57437
20
1.00932
11
1.56884
21
1.00267
0
LINE
8
BLACK
6
CONTINUOUS
10
1.56884
20
1.00267
11
1.56219
21
0.997145
0
LINE
8
BLACK
6
CONTINUOUS
10
1.56219
20
0.997145
11
1.55465
21
0.99292
0
LINE
8
BLACK
6
CONTINUOUS
10
1.55465
20
0.99292
11
1.54646
21
0.990141
0
LINE
8
BLACK
6
CONTINUOUS
10
1.54646
20
0.990141
11
1.53791
21
0.988901
0
LINE
8
BLACK
6
CONTINUOUS
10
1.53791
20
0.988901
11
1.52927
21
0.98924
0
LINE
8
BLACK
6
CONTINUOUS
10
1.52927
20
0.98924
11
1.52083
21
0.991148
0
LINE
8
BLACK
6
CONTINUOUS
10
1.52083
20
0.991148
11
1.51289
21
0.994561
0
LINE
8
BLACK
6
CONTINUOUS
10
1.51289
20
0.994561
11
1.5057
21
0.999364
0
LINE
8
BLACK
6
CONTINUOUS
10
1.5057
20
0.999364
11
1.49951
21
1.0054
0
LINE
8
BLACK
6
CONTINUOUS
10
1.49951
20
1.0054
11
1.49452
21
1.01246
0
LINE
8
BLACK
6
CONTINUOUS
10
1.49452
20
1.01246
11
1.4909
21
1.02031
0
LINE
8
BLACK
6
CONTINUOUS
10
1.4909
20
1.02031
11
1.48877
21
1.02869
0
LINE
8
BLACK
6
CONTINUOUS
10
1.48877
20
1.02869
11
1.48821
21
1.03732
0
LINE
8
BLACK
6
CONTINUOUS
10
1.48821
20
1.03732
11
1.48922
21
1.0459
0
LINE
8
BLACK
6
CONTINUOUS
10
1.48922
20
1.0459
11
1.49179
21
1.05416
0
LINE
8
BLACK
6
CONTINUOUS
10
1.49179
20
1.05416
11
1.49581
21
1.06181
0
LINE
8
BLACK
6
CONTINUOUS
10
1.49581
20
1.06181
11
1.50116
21
1.0686
0
LINE
8
BLACK
6
CONTINUOUS
10
1.50116
20
1.0686
11
1.50766
21
1.0743
0
LINE
8
BLACK
6
CONTINUOUS
10
1.50766
20
1.0743
11
1.51509
21
1.07872
0
LINE
8
BLACK
6
CONTINUOUS
10
1.51509
20
1.07872
11
1.52321
21
1.08171
0
LINE
8
BLACK
6
CONTINUOUS
10
1.52321
20
1.08171
11
1.53173
21
1.08318
0
LINE
8
BLACK
6
CONTINUOUS
10
1.53173
20
1.08318
11
1.54037
21
1.08307
0
LINE
8
BLACK
6
CONTINUOUS
10
1.86535
20
1.0374
11
1.78661
21
1.0374
0
LINE
8
BLACK
6
CONTINUOUS
10
1.78661
20
1.0374
11
1.78661
21
1.0626
0
LINE
8
BLACK
6
CONTINUOUS
10
1.78661
20
1.0626
11
1.86535
21
1.0626
0
LINE
8
BLACK
6
CONTINUOUS
10
1.86535
20
1.0626
11
1.86535
21
1.0374
0
LINE
8
BLACK
6
CONTINUOUS
10
2.11339
20
1.0374
11
2.03465
21
1.0374
0
LINE
8
BLACK
6
CONTINUOUS
10
2.03465
20
1.0374
11
2.03465
21
1.0626
0
LINE
8
BLACK
6
CONTINUOUS
10
2.03465
20
1.0626
11
2.11339
21
1.0626
0
LINE
8
BLACK
6
CONTINUOUS
10
2.11339
20
1.0626
11
2.11339
21
1.0374
0
LINE
8
BLACK
6
CONTINUOUS
10
2.40981
20
1.04711
11
2.35481
21
1.04711
0
LINE
8
BLACK
6
CONTINUOUS
10
2.35481
20
1.04711
11
2.35481
21
1.08211
0
LINE
8
BLACK
6
CONTINUOUS
10
2.35481
20
1.08211
11
2.40981
21
1.08211
0
LINE
8
BLACK
6
CONTINUOUS
10
2.40981
20
1.08211
11
2.40981
21
1.04711
0
LINE
8
BLACK
6
CONTINUOUS
10
0.702091
20
1.04878
11
0.552091
21
1.04878
0
LINE
8
BLACK
6
CONTINUOUS
10
0.552091
20
1.04878
11
0.552091
21
1.19878
0
LINE
8
BLACK
6
CONTINUOUS
10
0.552091
20
1.19878
11
0.702091
21
1.19878
0
LINE
8
BLACK
6
CONTINUOUS
10
0.702091
20
1.19878
11
0.702091
21
1.04878
0
LINE
8
BLACK
6
CONTINUOUS
10
0.50524
20
1.04878
11
0.35524
21
1.04878
0
LINE
8
BLACK
6
CONTINUOUS
10
0.35524
20
1.04878
11
0.35524
21
1.19878
0
LINE
8
BLACK
6
CONTINUOUS
10
0.35524
20
1.19878
11
0.50524
21
1.19878
0
LINE
8
BLACK
6
CONTINUOUS
10
0.50524
20
1.19878
11
0.50524
21
1.04878
0
LINE
8
BLACK
6
CONTINUOUS
10
2.39597
20
1.17518
11
2.39635
21
1.17493
0
LINE
8
BLACK
6
CONTINUOUS
10
2.39635
20
1.17493
11
2.40334
21
1.17291
0
LINE
8
BLACK
6
CONTINUOUS
10
2.40334
20
1.17291
11
2.411
21
1.17183
0
LINE
8
BLACK
6
CONTINUOUS
10
2.411
20
1.17183
11
2.41873
21
1.17182
0
LINE
8
BLACK
6
CONTINUOUS
10
2.41873
20
1.17182
11
2.42639
21
1.1729
0
LINE
8
BLACK
6
CONTINUOUS
10
2.42639
20
1.1729
11
2.4334
21
1.17492
0
LINE
8
BLACK
6
CONTINUOUS
10
2.4334
20
1.17492
11
2.43379
21
1.17517
0
LINE
8
BLACK
6
CONTINUOUS
10
2.43379
20
1.17517
11
2.43727
21
1.1756
0
LINE
8
BLACK
6
CONTINUOUS
10
2.43727
20
1.1756
11
2.44059
21
1.17449
0
LINE
8
BLACK
6
CONTINUOUS
10
2.44059
20
1.17449
11
2.44309
21
1.17204
0
LINE
8
BLACK
6
CONTINUOUS
10
2.44309
20
1.17204
11
2.44429
21
1.16875
0
LINE
8
BLACK
6
CONTINUOUS
10
2.44429
20
1.16875
11
2.4442
21
1.1678
0
LINE
8
BLACK
6
CONTINUOUS
10
2.4442
20
1.1678
11
2.44443
21
1.1678
0
LINE
8
BLACK
6
CONTINUOUS
10
2.44443
20
1.1678
11
2.44443
21
1.12646
0
LINE
8
BLACK
6
CONTINUOUS
10
2.44443
20
1.12646
11
2.38537
21
1.12646
0
LINE
8
BLACK
6
CONTINUOUS
10
2.38537
20
1.12646
11
2.38537
21
1.1678
0
LINE
8
BLACK
6
CONTINUOUS
10
2.38537
20
1.1678
11
2.38554
21
1.1678
0
LINE
8
BLACK
6
CONTINUOUS
10
2.38554
20
1.1678
11
2.38544
21
1.16881
0
LINE
8
BLACK
6
CONTINUOUS
10
2.38544
20
1.16881
11
2.38665
21
1.1721
0
LINE
8
BLACK
6
CONTINUOUS
10
2.38665
20
1.1721
11
2.38917
21
1.17453
0
LINE
8
BLACK
6
CONTINUOUS
10
2.38917
20
1.17453
11
2.3925
21
1.17563
0
LINE
8
BLACK
6
CONTINUOUS
10
2.3925
20
1.17563
11
2.39597
21
1.17518
0
LINE
8
BLACK
6
CONTINUOUS
10
1.86535
20
1.1374
11
1.78661
21
1.1374
0
LINE
8
BLACK
6
CONTINUOUS
10
1.78661
20
1.1374
11
1.78661
21
1.1626
0
LINE
8
BLACK
6
CONTINUOUS
10
1.78661
20
1.1626
11
1.86535
21
1.1626
0
LINE
8
BLACK
6
CONTINUOUS
10
1.86535
20
1.1626
11
1.86535
21
1.1374
0
LINE
8
BLACK
6
CONTINUOUS
10
2.11339
20
1.1374
11
2.03465
21
1.1374
0
LINE
8
BLACK
6
CONTINUOUS
10
2.03465
20
1.1374
11
2.03465
21
1.1626
0
LINE
8
BLACK
6
CONTINUOUS
10
2.03465
20
1.1626
11
2.11339
21
1.1626
0
LINE
8
BLACK
6
CONTINUOUS
10
2.11339
20
1.1626
11
2.11339
21
1.1374
0
LINE
8
BLACK
6
CONTINUOUS
10
2.66071
20
1.13807
11
2.51071
21
1.13807
0
LINE
8
BLACK
6
CONTINUOUS
10
2.51071
20
1.13807
11
2.51071
21
1.28807
0
LINE
8
BLACK
6
CONTINUOUS
10
2.51071
20
1.28807
11
2.66071
21
1.28807
0
LINE
8
BLACK
6
CONTINUOUS
10
2.66071
20
1.28807
11
2.66071
21
1.13807
0
LINE
8
BLACK
6
CONTINUOUS
10
2.85756
20
1.13807
11
2.70756
21
1.13807
0
LINE
8
BLACK
6
CONTINUOUS
10
2.70756
20
1.13807
11
2.70756
21
1.28807
0
LINE
8
BLACK
6
CONTINUOUS
10
2.70756
20
1.28807
11
2.85756
21
1.28807
0
LINE
8
BLACK
6
CONTINUOUS
10
2.85756
20
1.28807
11
2.85756
21
1.13807
0
LINE
8
BLACK
6
CONTINUOUS
10
0.702091
20
1.24563
11
0.552091
21
1.24563
0
LINE
8
BLACK
6
CONTINUOUS
10
0.552091
20
1.24563
11
0.552091
21
1.39563
0
LINE
8
BLACK
6
CONTINUOUS
10
0.552091
20
1.39563
11
0.702091
21
1.39563
0
LINE
8
BLACK
6
CONTINUOUS
10
0.702091
20
1.39563
11
0.702091
21
1.24563
0
LINE
8
BLACK
6
CONTINUOUS
10
0.50524
20
1.24563
11
0.35524
21
1.24563
0
LINE
8
BLACK
6
CONTINUOUS
10
0.35524
20
1.24563
11
0.35524
21
1.39563
0
LINE
8
BLACK
6
CONTINUOUS
10
0.35524
20
1.39563
11
0.50524
21
1.39563
0
LINE
8
BLACK
6
CONTINUOUS
10
0.50524
20
1.39563
11
0.50524
21
1.24563
0
LINE
8
BLACK
6
CONTINUOUS
10
2.44443
20
1.28591
11
2.44427
21
1.28591
0
LINE
8
BLACK
6
CONTINUOUS
10
2.44427
20
1.28591
11
2.44436
21
1.28489
0
LINE
8
BLACK
6
CONTINUOUS
10
2.44436
20
1.28489
11
2.44315
21
1.2816
0
LINE
8
BLACK
6
CONTINUOUS
10
2.44315
20
1.2816
11
2.44063
21
1.27917
0
LINE
8
BLACK
6
CONTINUOUS
10
2.44063
20
1.27917
11
2.4373
21
1.27807
0
LINE
8
BLACK
6
CONTINUOUS
10
2.4373
20
1.27807
11
2.43383
21
1.27852
0
LINE
8
BLACK
6
CONTINUOUS
10
2.43383
20
1.27852
11
2.43345
21
1.27877
0
LINE
8
BLACK
6
CONTINUOUS
10
2.43345
20
1.27877
11
2.42646
21
1.28079
0
LINE
8
BLACK
6
CONTINUOUS
10
2.42646
20
1.28079
11
2.4188
21
1.28187
0
LINE
8
BLACK
6
CONTINUOUS
10
2.4188
20
1.28187
11
2.41107
21
1.28188
0
LINE
8
BLACK
6
CONTINUOUS
10
2.41107
20
1.28188
11
2.40341
21
1.2808
0
LINE
8
BLACK
6
CONTINUOUS
10
2.40341
20
1.2808
11
2.3964
21
1.27879
0
LINE
8
BLACK
6
CONTINUOUS
10
2.3964
20
1.27879
11
2.39601
21
1.27853
0
LINE
8
BLACK
6
CONTINUOUS
10
2.39601
20
1.27853
11
2.39254
21
1.2781
0
LINE
8
BLACK
6
CONTINUOUS
10
2.39254
20
1.2781
11
2.38922
21
1.27921
0
LINE
8
BLACK
6
CONTINUOUS
10
2.38922
20
1.27921
11
2.38671
21
1.28166
0
LINE
8
BLACK
6
CONTINUOUS
10
2.38671
20
1.28166
11
2.38551
21
1.28495
0
LINE
8
BLACK
6
CONTINUOUS
10
2.38551
20
1.28495
11
2.38561
21
1.28591
0
LINE
8
BLACK
6
CONTINUOUS
10
2.38561
20
1.28591
11
2.38537
21
1.28591
0
LINE
8
BLACK
6
CONTINUOUS
10
2.38537
20
1.28591
11
2.38537
21
1.32724
0
LINE
8
BLACK
6
CONTINUOUS
10
2.38537
20
1.32724
11
2.44443
21
1.32724
0
LINE
8
BLACK
6
CONTINUOUS
10
2.44443
20
1.32724
11
2.44443
21
1.28591
0
LINE
8
BLACK
6
CONTINUOUS
10
1.82094
20
1.35936
11
1.82196
21
1.35946
0
LINE
8
BLACK
6
CONTINUOUS
10
1.82196
20
1.35946
11
1.82525
21
1.35825
0
LINE
8
BLACK
6
CONTINUOUS
10
1.82525
20
1.35825
11
1.82768
21
1.35573
0
LINE
8
BLACK
6
CONTINUOUS
10
1.82768
20
1.35573
11
1.82878
21
1.3524
0
LINE
8
BLACK
6
CONTINUOUS
10
1.82878
20
1.3524
11
1.82833
21
1.34893
0
LINE
8
BLACK
6
CONTINUOUS
10
1.82833
20
1.34893
11
1.82808
21
1.34855
0
LINE
8
BLACK
6
CONTINUOUS
10
1.82808
20
1.34855
11
1.82606
21
1.34156
0
LINE
8
BLACK
6
CONTINUOUS
10
1.82606
20
1.34156
11
1.82498
21
1.3339
0
LINE
8
BLACK
6
CONTINUOUS
10
1.82498
20
1.3339
11
1.82497
21
1.32617
0
LINE
8
BLACK
6
CONTINUOUS
10
1.82497
20
1.32617
11
1.82605
21
1.31851
0
LINE
8
BLACK
6
CONTINUOUS
10
1.82605
20
1.31851
11
1.82806
21
1.3115
0
LINE
8
BLACK
6
CONTINUOUS
10
1.82806
20
1.3115
11
1.82832
21
1.31111
0
LINE
8
BLACK
6
CONTINUOUS
10
1.82832
20
1.31111
11
1.82875
21
1.30763
0
LINE
8
BLACK
6
CONTINUOUS
10
1.82875
20
1.30763
11
1.82764
21
1.30431
0
LINE
8
BLACK
6
CONTINUOUS
10
1.82764
20
1.30431
11
1.82519
21
1.30181
0
LINE
8
BLACK
6
CONTINUOUS
10
1.82519
20
1.30181
11
1.8219
21
1.30061
0
LINE
8
BLACK
6
CONTINUOUS
10
1.8219
20
1.30061
11
1.82094
21
1.3007
0
LINE
8
BLACK
6
CONTINUOUS
10
1.82094
20
1.3007
11
1.82094
21
1.30047
0
LINE
8
BLACK
6
CONTINUOUS
10
1.82094
20
1.30047
11
1.77961
21
1.30047
0
LINE
8
BLACK
6
CONTINUOUS
10
1.77961
20
1.30047
11
1.77961
21
1.35953
0
LINE
8
BLACK
6
CONTINUOUS
10
1.77961
20
1.35953
11
1.82094
21
1.35953
0
LINE
8
BLACK
6
CONTINUOUS
10
1.82094
20
1.35953
11
1.82094
21
1.35936
0
LINE
8
BLACK
6
CONTINUOUS
10
1.98039
20
1.30047
11
1.93906
21
1.30047
0
LINE
8
BLACK
6
CONTINUOUS
10
1.93906
20
1.30047
11
1.93906
21
1.30064
0
LINE
8
BLACK
6
CONTINUOUS
10
1.93906
20
1.30064
11
1.93804
21
1.30054
0
LINE
8
BLACK
6
CONTINUOUS
10
1.93804
20
1.30054
11
1.93475
21
1.30175
0
LINE
8
BLACK
6
CONTINUOUS
10
1.93475
20
1.30175
11
1.93232
21
1.30427
0
LINE
8
BLACK
6
CONTINUOUS
10
1.93232
20
1.30427
11
1.93122
21
1.3076
0
LINE
8
BLACK
6
CONTINUOUS
10
1.93122
20
1.3076
11
1.93167
21
1.31107
0
LINE
8
BLACK
6
CONTINUOUS
10
1.93167
20
1.31107
11
1.93192
21
1.31145
0
LINE
8
BLACK
6
CONTINUOUS
10
1.93192
20
1.31145
11
1.93394
21
1.31844
0
LINE
8
BLACK
6
CONTINUOUS
10
1.93394
20
1.31844
11
1.93502
21
1.3261
0
LINE
8
BLACK
6
CONTINUOUS
10
1.93502
20
1.3261
11
1.93503
21
1.33383
0
LINE
8
BLACK
6
CONTINUOUS
10
1.93503
20
1.33383
11
1.93395
21
1.34149
0
LINE
8
BLACK
6
CONTINUOUS
10
1.93395
20
1.34149
11
1.93194
21
1.3485
0
LINE
8
BLACK
6
CONTINUOUS
10
1.93194
20
1.3485
11
1.93168
21
1.34889
0
LINE
8
BLACK
6
CONTINUOUS
10
1.93168
20
1.34889
11
1.93125
21
1.35237
0
LINE
8
BLACK
6
CONTINUOUS
10
1.93125
20
1.35237
11
1.93236
21
1.35569
0
LINE
8
BLACK
6
CONTINUOUS
10
1.93236
20
1.35569
11
1.93481
21
1.35819
0
LINE
8
BLACK
6
CONTINUOUS
10
1.93481
20
1.35819
11
1.9381
21
1.35939
0
LINE
8
BLACK
6
CONTINUOUS
10
1.9381
20
1.35939
11
1.93906
21
1.3593
0
LINE
8
BLACK
6
CONTINUOUS
10
1.93906
20
1.3593
11
1.93906
21
1.35953
0
LINE
8
BLACK
6
CONTINUOUS
10
1.93906
20
1.35953
11
1.98039
21
1.35953
0
LINE
8
BLACK
6
CONTINUOUS
10
1.98039
20
1.35953
11
1.98039
21
1.30047
0
LINE
8
BLACK
6
CONTINUOUS
10
2.0675
20
1.30292
11
2.0125
21
1.30292
0
LINE
8
BLACK
6
CONTINUOUS
10
2.0125
20
1.30292
11
2.0125
21
1.33792
0
LINE
8
BLACK
6
CONTINUOUS
10
2.0125
20
1.33792
11
2.0675
21
1.33792
0
LINE
8
BLACK
6
CONTINUOUS
10
2.0675
20
1.33792
11
2.0675
21
1.30292
0
LINE
8
BLACK
6
CONTINUOUS
10
2.66071
20
1.33492
11
2.51071
21
1.33492
0
LINE
8
BLACK
6
CONTINUOUS
10
2.51071
20
1.33492
11
2.51071
21
1.48492
0
LINE
8
BLACK
6
CONTINUOUS
10
2.51071
20
1.48492
11
2.66071
21
1.48492
0
LINE
8
BLACK
6
CONTINUOUS
10
2.66071
20
1.48492
11
2.66071
21
1.33492
0
LINE
8
BLACK
6
CONTINUOUS
10
2.85756
20
1.33492
11
2.70756
21
1.33492
0
LINE
8
BLACK
6
CONTINUOUS
10
2.70756
20
1.33492
11
2.70756
21
1.48492
0
LINE
8
BLACK
6
CONTINUOUS
10
2.70756
20
1.48492
11
2.85756
21
1.48492
0
LINE
8
BLACK
6
CONTINUOUS
10
2.85756
20
1.48492
11
2.85756
21
1.33492
0
LINE
8
BLACK
6
CONTINUOUS
10
2.4424
20
1.37185
11
2.3874
21
1.37185
0
LINE
8
BLACK
6
CONTINUOUS
10
2.3874
20
1.37185
11
2.3874
21
1.40685
0
LINE
8
BLACK
6
CONTINUOUS
10
2.3874
20
1.40685
11
2.4424
21
1.40685
0
LINE
8
BLACK
6
CONTINUOUS
10
2.4424
20
1.40685
11
2.4424
21
1.37185
0
LINE
8
BLACK
6
CONTINUOUS
10
2.0675
20
1.37792
11
2.0125
21
1.37792
0
LINE
8
BLACK
6
CONTINUOUS
10
2.0125
20
1.37792
11
2.0125
21
1.41292
0
LINE
8
BLACK
6
CONTINUOUS
10
2.0125
20
1.41292
11
2.0675
21
1.41292
0
LINE
8
BLACK
6
CONTINUOUS
10
2.0675
20
1.41292
11
2.0675
21
1.37792
0
LINE
8
BLACK
6
CONTINUOUS
10
1.54037
20
1.50094
11
1.54885
21
1.49925
0
LINE
8
BLACK
6
CONTINUOUS
10
1.54885
20
1.49925
11
1.55688
21
1.49605
0
LINE
8
BLACK
6
CONTINUOUS
10
1.55688
20
1.49605
11
1.56419
21
1.49143
0
LINE
8
BLACK
6
CONTINUOUS
10
1.56419
20
1.49143
11
1.57054
21
1.48556
0
LINE
8
BLACK
6
CONTINUOUS
10
1.57054
20
1.48556
11
1.57572
21
1.47864
0
LINE
8
BLACK
6
CONTINUOUS
10
1.57572
20
1.47864
11
1.57954
21
1.47088
0
LINE
8
BLACK
6
CONTINUOUS
10
1.57954
20
1.47088
11
1.58189
21
1.46256
0
LINE
8
BLACK
6
CONTINUOUS
10
1.58189
20
1.46256
11
1.58268
21
1.45395
0
LINE
8
BLACK
6
CONTINUOUS
10
1.58268
20
1.45395
11
1.58261
21
1.45148
0
LINE
8
BLACK
6
CONTINUOUS
10
1.58261
20
1.45148
11
1.58137
21
1.44292
0
LINE
8
BLACK
6
CONTINUOUS
10
1.58137
20
1.44292
11
1.57859
21
1.43474
0
LINE
8
BLACK
6
CONTINUOUS
10
1.57859
20
1.43474
11
1.57437
21
1.42719
0
LINE
8
BLACK
6
CONTINUOUS
10
1.57437
20
1.42719
11
1.56884
21
1.42054
0
LINE
8
BLACK
6
CONTINUOUS
10
1.56884
20
1.42054
11
1.56219
21
1.41502
0
LINE
8
BLACK
6
CONTINUOUS
10
1.56219
20
1.41502
11
1.55465
21
1.41079
0
LINE
8
BLACK
6
CONTINUOUS
10
1.55465
20
1.41079
11
1.54646
21
1.40801
0
LINE
8
BLACK
6
CONTINUOUS
10
1.54646
20
1.40801
11
1.53791
21
1.40677
0
LINE
8
BLACK
6
CONTINUOUS
10
1.53791
20
1.40677
11
1.52927
21
1.40711
0
LINE
8
BLACK
6
CONTINUOUS
10
1.52927
20
1.40711
11
1.52083
21
1.40902
0
LINE
8
BLACK
6
CONTINUOUS
10
1.52083
20
1.40902
11
1.51289
21
1.41243
0
LINE
8
BLACK
6
CONTINUOUS
10
1.51289
20
1.41243
11
1.5057
21
1.41724
0
LINE
8
BLACK
6
CONTINUOUS
10
1.5057
20
1.41724
11
1.49951
21
1.42327
0
LINE
8
BLACK
6
CONTINUOUS
10
1.49951
20
1.42327
11
1.49452
21
1.43033
0
LINE
8
BLACK
6
CONTINUOUS
10
1.49452
20
1.43033
11
1.4909
21
1.43818
0
LINE
8
BLACK
6
CONTINUOUS
10
1.4909
20
1.43818
11
1.48877
21
1.44656
0
LINE
8
BLACK
6
CONTINUOUS
10
1.48877
20
1.44656
11
1.48821
21
1.45519
0
LINE
8
BLACK
6
CONTINUOUS
10
1.48821
20
1.45519
11
1.48922
21
1.46377
0
LINE
8
BLACK
6
CONTINUOUS
10
1.48922
20
1.46377
11
1.49179
21
1.47203
0
LINE
8
BLACK
6
CONTINUOUS
10
1.49179
20
1.47203
11
1.49581
21
1.47968
0
LINE
8
BLACK
6
CONTINUOUS
10
1.49581
20
1.47968
11
1.50116
21
1.48647
0
LINE
8
BLACK
6
CONTINUOUS
10
1.50116
20
1.48647
11
1.50766
21
1.49217
0
LINE
8
BLACK
6
CONTINUOUS
10
1.50766
20
1.49217
11
1.51509
21
1.49659
0
LINE
8
BLACK
6
CONTINUOUS
10
1.51509
20
1.49659
11
1.52321
21
1.49959
0
LINE
8
BLACK
6
CONTINUOUS
10
1.52321
20
1.49959
11
1.53173
21
1.50105
0
LINE
8
BLACK
6
CONTINUOUS
10
1.53173
20
1.50105
11
1.54037
21
1.50094
0
LINE
8
BLACK
6
CONTINUOUS
10
1.34352
20
1.50094
11
1.352
21
1.49925
0
LINE
8
BLACK
6
CONTINUOUS
10
1.352
20
1.49925
11
1.36003
21
1.49605
0
LINE
8
BLACK
6
CONTINUOUS
10
1.36003
20
1.49605
11
1.36734
21
1.49143
0
LINE
8
BLACK
6
CONTINUOUS
10
1.36734
20
1.49143
11
1.37369
21
1.48556
0
LINE
8
BLACK
6
CONTINUOUS
10
1.37369
20
1.48556
11
1.37886
21
1.47864
0
LINE
8
BLACK
6
CONTINUOUS
10
1.37886
20
1.47864
11
1.38269
21
1.47088
0
LINE
8
BLACK
6
CONTINUOUS
10
1.38269
20
1.47088
11
1.38504
21
1.46256
0
LINE
8
BLACK
6
CONTINUOUS
10
1.38504
20
1.46256
11
1.38583
21
1.45395
0
LINE
8
BLACK
6
CONTINUOUS
10
1.38583
20
1.45395
11
1.38576
21
1.45148
0
LINE
8
BLACK
6
CONTINUOUS
10
1.38576
20
1.45148
11
1.38452
21
1.44292
0
LINE
8
BLACK
6
CONTINUOUS
10
1.38452
20
1.44292
11
1.38174
21
1.43474
0
LINE
8
BLACK
6
CONTINUOUS
10
1.38174
20
1.43474
11
1.37752
21
1.42719
0
LINE
8
BLACK
6
CONTINUOUS
10
1.37752
20
1.42719
11
1.37199
21
1.42054
0
LINE
8
BLACK
6
CONTINUOUS
10
1.37199
20
1.42054
11
1.36534
21
1.41502
0
LINE
8
BLACK
6
CONTINUOUS
10
1.36534
20
1.41502
11
1.3578
21
1.41079
0
LINE
8
BLACK
6
CONTINUOUS
10
1.3578
20
1.41079
11
1.34961
21
1.40801
0
LINE
8
BLACK
6
CONTINUOUS
10
1.34961
20
1.40801
11
1.34106
21
1.40677
0
LINE
8
BLACK
6
CONTINUOUS
10
1.34106
20
1.40677
11
1.33242
21
1.40711
0
LINE
8
BLACK
6
CONTINUOUS
10
1.33242
20
1.40711
11
1.32398
21
1.40902
0
LINE
8
BLACK
6
CONTINUOUS
10
1.32398
20
1.40902
11
1.31604
21
1.41243
0
LINE
8
BLACK
6
CONTINUOUS
10
1.31604
20
1.41243
11
1.30885
21
1.41724
0
LINE
8
BLACK
6
CONTINUOUS
10
1.30885
20
1.41724
11
1.30266
21
1.42327
0
LINE
8
BLACK
6
CONTINUOUS
10
1.30266
20
1.42327
11
1.29767
21
1.43033
0
LINE
8
BLACK
6
CONTINUOUS
10
1.29767
20
1.43033
11
1.29405
21
1.43818
0
LINE
8
BLACK
6
CONTINUOUS
10
1.29405
20
1.43818
11
1.29192
21
1.44656
0
LINE
8
BLACK
6
CONTINUOUS
10
1.29192
20
1.44656
11
1.29135
21
1.45519
0
LINE
8
BLACK
6
CONTINUOUS
10
1.29135
20
1.45519
11
1.29237
21
1.46377
0
LINE
8
BLACK
6
CONTINUOUS
10
1.29237
20
1.46377
11
1.29493
21
1.47203
0
LINE
8
BLACK
6
CONTINUOUS
10
1.29493
20
1.47203
11
1.29896
21
1.47968
0
LINE
8
BLACK
6
CONTINUOUS
10
1.29896
20
1.47968
11
1.30431
21
1.48647
0
LINE
8
BLACK
6
CONTINUOUS
10
1.30431
20
1.48647
11
1.31081
21
1.49217
0
LINE
8
BLACK
6
CONTINUOUS
10
1.31081
20
1.49217
11
1.31824
21
1.49659
0
LINE
8
BLACK
6
CONTINUOUS
10
1.31824
20
1.49659
11
1.32635
21
1.49959
0
LINE
8
BLACK
6
CONTINUOUS
10
1.32635
20
1.49959
11
1.33488
21
1.50105
0
LINE
8
BLACK
6
CONTINUOUS
10
1.33488
20
1.50105
11
1.34352
21
1.50094
0
LINE
8
BLACK
6
CONTINUOUS
10
0.50524
20
1.44248
11
0.35524
21
1.44248
0
LINE
8
BLACK
6
CONTINUOUS
10
0.35524
20
1.44248
11
0.35524
21
1.59248
0
LINE
8
BLACK
6
CONTINUOUS
10
0.35524
20
1.59248
11
0.50524
21
1.59248
0
LINE
8
BLACK
6
CONTINUOUS
10
0.50524
20
1.59248
11
0.50524
21
1.44248
0
LINE
8
BLACK
6
CONTINUOUS
10
0.702091
20
1.44248
11
0.552091
21
1.44248
0
LINE
8
BLACK
6
CONTINUOUS
10
0.552091
20
1.44248
11
0.552091
21
1.59248
0
LINE
8
BLACK
6
CONTINUOUS
10
0.552091
20
1.59248
11
0.702091
21
1.59248
0
LINE
8
BLACK
6
CONTINUOUS
10
0.702091
20
1.59248
11
0.702091
21
1.44248
0
LINE
8
BLACK
6
CONTINUOUS
10
2.4424
20
1.44685
11
2.3874
21
1.44685
0
LINE
8
BLACK
6
CONTINUOUS
10
2.3874
20
1.44685
11
2.3874
21
1.48185
0
LINE
8
BLACK
6
CONTINUOUS
10
2.3874
20
1.48185
11
2.4424
21
1.48185
0
LINE
8
BLACK
6
CONTINUOUS
10
2.4424
20
1.48185
11
2.4424
21
1.44685
0
LINE
8
BLACK
6
CONTINUOUS
10
2.11339
20
1.45907
11
2.03465
21
1.45907
0
LINE
8
BLACK
6
CONTINUOUS
10
2.03465
20
1.45907
11
2.03465
21
1.48427
0
LINE
8
BLACK
6
CONTINUOUS
10
2.03465
20
1.48427
11
2.11339
21
1.48427
0
LINE
8
BLACK
6
CONTINUOUS
10
2.11339
20
1.48427
11
2.11339
21
1.45907
0
LINE
8
BLACK
6
CONTINUOUS
10
1.86535
20
1.45907
11
1.78661
21
1.45907
0
LINE
8
BLACK
6
CONTINUOUS
10
1.78661
20
1.45907
11
1.78661
21
1.48427
0
LINE
8
BLACK
6
CONTINUOUS
10
1.78661
20
1.48427
11
1.86535
21
1.48427
0
LINE
8
BLACK
6
CONTINUOUS
10
1.86535
20
1.48427
11
1.86535
21
1.45907
0
LINE
8
BLACK
6
CONTINUOUS
10
2.11339
20
1.55907
11
2.03465
21
1.55907
0
LINE
8
BLACK
6
CONTINUOUS
10
2.03465
20
1.55907
11
2.03465
21
1.58427
0
LINE
8
BLACK
6
CONTINUOUS
10
2.03465
20
1.58427
11
2.11339
21
1.58427
0
LINE
8
BLACK
6
CONTINUOUS
10
2.11339
20
1.58427
11
2.11339
21
1.55907
0
LINE
8
BLACK
6
CONTINUOUS
10
1.86535
20
1.55907
11
1.78661
21
1.55907
0
LINE
8
BLACK
6
CONTINUOUS
10
1.78661
20
1.55907
11
1.78661
21
1.58427
0
LINE
8
BLACK
6
CONTINUOUS
10
1.78661
20
1.58427
11
1.86535
21
1.58427
0
LINE
8
BLACK
6
CONTINUOUS
10
1.86535
20
1.58427
11
1.86535
21
1.55907
0
LINE
8
BLACK
6
CONTINUOUS
10
0.50524
20
1.63933
11
0.35524
21
1.63933
0
LINE
8
BLACK
6
CONTINUOUS
10
0.35524
20
1.63933
11
0.35524
21
1.78933
0
LINE
8
BLACK
6
CONTINUOUS
10
0.35524
20
1.78933
11
0.50524
21
1.78933
0
LINE
8
BLACK
6
CONTINUOUS
10
0.50524
20
1.78933
11
0.50524
21
1.63933
0
LINE
8
BLACK
6
CONTINUOUS
10
0.702091
20
1.63933
11
0.552091
21
1.63933
0
LINE
8
BLACK
6
CONTINUOUS
10
0.552091
20
1.63933
11
0.552091
21
1.78933
0
LINE
8
BLACK
6
CONTINUOUS
10
0.552091
20
1.78933
11
0.702091
21
1.78933
0
LINE
8
BLACK
6
CONTINUOUS
10
0.702091
20
1.78933
11
0.702091
21
1.63933
0
LINE
8
BLACK
6
CONTINUOUS
10
2.58661
20
1.65748
11
2.45276
21
1.65748
0
LINE
8
BLACK
6
CONTINUOUS
10
2.45276
20
1.65748
11
2.45276
21
1.73228
0
LINE
8
BLACK
6
CONTINUOUS
10
2.45276
20
1.73228
11
2.58661
21
1.73228
0
LINE
8
BLACK
6
CONTINUOUS
10
2.58661
20
1.73228
11
2.58661
21
1.65748
0
LINE
8
BLACK
6
CONTINUOUS
10
2.8622
20
1.65748
11
2.72835
21
1.65748
0
LINE
8
BLACK
6
CONTINUOUS
10
2.72835
20
1.65748
11
2.72835
21
1.73228
0
LINE
8
BLACK
6
CONTINUOUS
10
2.72835
20
1.73228
11
2.8622
21
1.73228
0
LINE
8
BLACK
6
CONTINUOUS
10
2.8622
20
1.73228
11
2.8622
21
1.65748
0
LINE
8
BLACK
6
CONTINUOUS
10
1.98039
20
1.72047
11
1.93906
21
1.72047
0
LINE
8
BLACK
6
CONTINUOUS
10
1.93906
20
1.72047
11
1.93906
21
1.72064
0
LINE
8
BLACK
6
CONTINUOUS
10
1.93906
20
1.72064
11
1.93804
21
1.72054
0
LINE
8
BLACK
6
CONTINUOUS
10
1.93804
20
1.72054
11
1.93475
21
1.72175
0
LINE
8
BLACK
6
CONTINUOUS
10
1.93475
20
1.72175
11
1.93232
21
1.72427
0
LINE
8
BLACK
6
CONTINUOUS
10
1.93232
20
1.72427
11
1.93122
21
1.7276
0
LINE
8
BLACK
6
CONTINUOUS
10
1.93122
20
1.7276
11
1.93167
21
1.73107
0
LINE
8
BLACK
6
CONTINUOUS
10
1.93167
20
1.73107
11
1.93192
21
1.73145
0
LINE
8
BLACK
6
CONTINUOUS
10
1.93192
20
1.73145
11
1.93394
21
1.73844
0
LINE
8
BLACK
6
CONTINUOUS
10
1.93394
20
1.73844
11
1.93502
21
1.7461
0
LINE
8
BLACK
6
CONTINUOUS
10
1.93502
20
1.7461
11
1.93503
21
1.75383
0
LINE
8
BLACK
6
CONTINUOUS
10
1.93503
20
1.75383
11
1.93395
21
1.76149
0
LINE
8
BLACK
6
CONTINUOUS
10
1.93395
20
1.76149
11
1.93194
21
1.7685
0
LINE
8
BLACK
6
CONTINUOUS
10
1.93194
20
1.7685
11
1.93168
21
1.76889
0
LINE
8
BLACK
6
CONTINUOUS
10
1.93168
20
1.76889
11
1.93125
21
1.77237
0
LINE
8
BLACK
6
CONTINUOUS
10
1.93125
20
1.77237
11
1.93236
21
1.77569
0
LINE
8
BLACK
6
CONTINUOUS
10
1.93236
20
1.77569
11
1.93481
21
1.77819
0
LINE
8
BLACK
6
CONTINUOUS
10
1.93481
20
1.77819
11
1.9381
21
1.77939
0
LINE
8
BLACK
6
CONTINUOUS
10
1.9381
20
1.77939
11
1.93906
21
1.7793
0
LINE
8
BLACK
6
CONTINUOUS
10
1.93906
20
1.7793
11
1.93906
21
1.77953
0
LINE
8
BLACK
6
CONTINUOUS
10
1.93906
20
1.77953
11
1.98039
21
1.77953
0
LINE
8
BLACK
6
CONTINUOUS
10
1.98039
20
1.77953
11
1.98039
21
1.72047
0
LINE
8
BLACK
6
CONTINUOUS
10
1.82094
20
1.77936
11
1.82196
21
1.77946
0
LINE
8
BLACK
6
CONTINUOUS
10
1.82196
20
1.77946
11
1.82525
21
1.77825
0
LINE
8
BLACK
6
CONTINUOUS
10
1.82525
20
1.77825
11
1.82768
21
1.77573
0
LINE
8
BLACK
6
CONTINUOUS
10
1.82768
20
1.77573
11
1.82878
21
1.7724
0
LINE
8
BLACK
6
CONTINUOUS
10
1.82878
20
1.7724
11
1.82833
21
1.76893
0
LINE
8
BLACK
6
CONTINUOUS
10
1.82833
20
1.76893
11
1.82808
21
1.76855
0
LINE
8
BLACK
6
CONTINUOUS
10
1.82808
20
1.76855
11
1.82606
21
1.76156
0
LINE
8
BLACK
6
CONTINUOUS
10
1.82606
20
1.76156
11
1.82498
21
1.7539
0
LINE
8
BLACK
6
CONTINUOUS
10
1.82498
20
1.7539
11
1.82497
21
1.74617
0
LINE
8
BLACK
6
CONTINUOUS
10
1.82497
20
1.74617
11
1.82605
21
1.73851
0
LINE
8
BLACK
6
CONTINUOUS
10
1.82605
20
1.73851
11
1.82806
21
1.7315
0
LINE
8
BLACK
6
CONTINUOUS
10
1.82806
20
1.7315
11
1.82832
21
1.73111
0
LINE
8
BLACK
6
CONTINUOUS
10
1.82832
20
1.73111
11
1.82875
21
1.72763
0
LINE
8
BLACK
6
CONTINUOUS
10
1.82875
20
1.72763
11
1.82764
21
1.72431
0
LINE
8
BLACK
6
CONTINUOUS
10
1.82764
20
1.72431
11
1.82519
21
1.72181
0
LINE
8
BLACK
6
CONTINUOUS
10
1.82519
20
1.72181
11
1.8219
21
1.72061
0
LINE
8
BLACK
6
CONTINUOUS
10
1.8219
20
1.72061
11
1.82094
21
1.7207
0
LINE
8
BLACK
6
CONTINUOUS
10
1.82094
20
1.7207
11
1.82094
21
1.72047
0
LINE
8
BLACK
6
CONTINUOUS
10
1.82094
20
1.72047
11
1.77961
21
1.72047
0
LINE
8
BLACK
6
CONTINUOUS
10
1.77961
20
1.72047
11
1.77961
21
1.77953
0
LINE
8
BLACK
6
CONTINUOUS
10
1.77961
20
1.77953
11
1.82094
21
1.77953
0
LINE
8
BLACK
6
CONTINUOUS
10
1.82094
20
1.77953
11
1.82094
21
1.77936
0
LINE
8
BLACK
6
CONTINUOUS
10
2.0675
20
1.72333
11
2.0125
21
1.72333
0
LINE
8
BLACK
6
CONTINUOUS
10
2.0125
20
1.72333
11
2.0125
21
1.75833
0
LINE
8
BLACK
6
CONTINUOUS
10
2.0125
20
1.75833
11
2.0675
21
1.75833
0
LINE
8
BLACK
6
CONTINUOUS
10
2.0675
20
1.75833
11
2.0675
21
1.72333
0
LINE
8
BLACK
6
CONTINUOUS
10
2.0675
20
1.79833
11
2.0125
21
1.79833
0
LINE
8
BLACK
6
CONTINUOUS
10
2.0125
20
1.79833
11
2.0125
21
1.83333
0
LINE
8
BLACK
6
CONTINUOUS
10
2.0125
20
1.83333
11
2.0675
21
1.83333
0
LINE
8
BLACK
6
CONTINUOUS
10
2.0675
20
1.83333
11
2.0675
21
1.79833
0
LINE
8
BLACK
6
CONTINUOUS
10
2.58661
20
1.81102
11
2.45276
21
1.81102
0
LINE
8
BLACK
6
CONTINUOUS
10
2.45276
20
1.81102
11
2.45276
21
1.88583
0
LINE
8
BLACK
6
CONTINUOUS
10
2.45276
20
1.88583
11
2.58661
21
1.88583
0
LINE
8
BLACK
6
CONTINUOUS
10
2.58661
20
1.88583
11
2.58661
21
1.81102
0
LINE
8
BLACK
6
CONTINUOUS
10
2.8622
20
1.81102
11
2.72835
21
1.81102
0
LINE
8
BLACK
6
CONTINUOUS
10
2.72835
20
1.81102
11
2.72835
21
1.88583
0
LINE
8
BLACK
6
CONTINUOUS
10
2.72835
20
1.88583
11
2.8622
21
1.88583
0
LINE
8
BLACK
6
CONTINUOUS
10
2.8622
20
1.88583
11
2.8622
21
1.81102
0
LINE
8
BLACK
6
CONTINUOUS
10
1.34352
20
1.91881
11
1.352
21
1.91712
0
LINE
8
BLACK
6
CONTINUOUS
10
1.352
20
1.91712
11
1.36003
21
1.91392
0
LINE
8
BLACK
6
CONTINUOUS
10
1.36003
20
1.91392
11
1.36734
21
1.9093
0
LINE
8
BLACK
6
CONTINUOUS
10
1.36734
20
1.9093
11
1.37369
21
1.90343
0
LINE
8
BLACK
6
CONTINUOUS
10
1.37369
20
1.90343
11
1.37886
21
1.89651
0
LINE
8
BLACK
6
CONTINUOUS
10
1.37886
20
1.89651
11
1.38269
21
1.88875
0
LINE
8
BLACK
6
CONTINUOUS
10
1.38269
20
1.88875
11
1.38504
21
1.88043
0
LINE
8
BLACK
6
CONTINUOUS
10
1.38504
20
1.88043
11
1.38583
21
1.87182
0
LINE
8
BLACK
6
CONTINUOUS
10
1.38583
20
1.87182
11
1.38576
21
1.86935
0
LINE
8
BLACK
6
CONTINUOUS
10
1.38576
20
1.86935
11
1.38452
21
1.86079
0
LINE
8
BLACK
6
CONTINUOUS
10
1.38452
20
1.86079
11
1.38174
21
1.85261
0
LINE
8
BLACK
6
CONTINUOUS
10
1.38174
20
1.85261
11
1.37752
21
1.84506
0
LINE
8
BLACK
6
CONTINUOUS
10
1.37752
20
1.84506
11
1.37199
21
1.83842
0
LINE
8
BLACK
6
CONTINUOUS
10
1.37199
20
1.83842
11
1.36534
21
1.83289
0
LINE
8
BLACK
6
CONTINUOUS
10
1.36534
20
1.83289
11
1.3578
21
1.82866
0
LINE
8
BLACK
6
CONTINUOUS
10
1.3578
20
1.82866
11
1.34961
21
1.82588
0
LINE
8
BLACK
6
CONTINUOUS
10
1.34961
20
1.82588
11
1.34106
21
1.82464
0
LINE
8
BLACK
6
CONTINUOUS
10
1.34106
20
1.82464
11
1.33242
21
1.82498
0
LINE
8
BLACK
6
CONTINUOUS
10
1.33242
20
1.82498
11
1.32398
21
1.82689
0
LINE
8
BLACK
6
CONTINUOUS
10
1.32398
20
1.82689
11
1.31604
21
1.8303
0
LINE
8
BLACK
6
CONTINUOUS
10
1.31604
20
1.8303
11
1.30885
21
1.83511
0
LINE
8
BLACK
6
CONTINUOUS
10
1.30885
20
1.83511
11
1.30266
21
1.84114
0
LINE
8
BLACK
6
CONTINUOUS
10
1.30266
20
1.84114
11
1.29767
21
1.8482
0
LINE
8
BLACK
6
CONTINUOUS
10
1.29767
20
1.8482
11
1.29405
21
1.85605
0
LINE
8
BLACK
6
CONTINUOUS
10
1.29405
20
1.85605
11
1.29192
21
1.86443
0
LINE
8
BLACK
6
CONTINUOUS
10
1.29192
20
1.86443
11
1.29135
21
1.87306
0
LINE
8
BLACK
6
CONTINUOUS
10
1.29135
20
1.87306
11
1.29237
21
1.88164
0
LINE
8
BLACK
6
CONTINUOUS
10
1.29237
20
1.88164
11
1.29493
21
1.8899
0
LINE
8
BLACK
6
CONTINUOUS
10
1.29493
20
1.8899
11
1.29896
21
1.89755
0
LINE
8
BLACK
6
CONTINUOUS
10
1.29896
20
1.89755
11
1.30431
21
1.90434
0
LINE
8
BLACK
6
CONTINUOUS
10
1.30431
20
1.90434
11
1.31081
21
1.91004
0
LINE
8
BLACK
6
CONTINUOUS
10
1.31081
20
1.91004
11
1.31824
21
1.91446
0
LINE
8
BLACK
6
CONTINUOUS
10
1.31824
20
1.91446
11
1.32635
21
1.91746
0
LINE
8
BLACK
6
CONTINUOUS
10
1.32635
20
1.91746
11
1.33488
21
1.91892
0
LINE
8
BLACK
6
CONTINUOUS
10
1.33488
20
1.91892
11
1.34352
21
1.91881
0
LINE
8
BLACK
6
CONTINUOUS
10
1.54037
20
1.91881
11
1.54885
21
1.91712
0
LINE
8
BLACK
6
CONTINUOUS
10
1.54885
20
1.91712
11
1.55688
21
1.91392
0
LINE
8
BLACK
6
CONTINUOUS
10
1.55688
20
1.91392
11
1.56419
21
1.9093
0
LINE
8
BLACK
6
CONTINUOUS
10
1.56419
20
1.9093
11
1.57054
21
1.90343
0
LINE
8
BLACK
6
CONTINUOUS
10
1.57054
20
1.90343
11
1.57572
21
1.89651
0
LINE
8
BLACK
6
CONTINUOUS
10
1.57572
20
1.89651
11
1.57954
21
1.88875
0
LINE
8
BLACK
6
CONTINUOUS
10
1.57954
20
1.88875
11
1.58189
21
1.88043
0
LINE
8
BLACK
6
CONTINUOUS
10
1.58189
20
1.88043
11
1.58268
21
1.87182
0
LINE
8
BLACK
6
CONTINUOUS
10
1.58268
20
1.87182
11
1.58261
21
1.86935
0
LINE
8
BLACK
6
CONTINUOUS
10
1.58261
20
1.86935
11
1.58137
21
1.86079
0
LINE
8
BLACK
6
CONTINUOUS
10
1.58137
20
1.86079
11
1.57859
21
1.85261
0
LINE
8
BLACK
6
CONTINUOUS
10
1.57859
20
1.85261
11
1.57437
21
1.84506
0
LINE
8
BLACK
6
CONTINUOUS
10
1.57437
20
1.84506
11
1.56884
21
1.83842
0
LINE
8
BLACK
6
CONTINUOUS
10
1.56884
20
1.83842
11
1.56219
21
1.83289
0
LINE
8
BLACK
6
CONTINUOUS
10
1.56219
20
1.83289
11
1.55465
21
1.82866
0
LINE
8
BLACK
6
CONTINUOUS
10
1.55465
20
1.82866
11
1.54646
21
1.82588
0
LINE
8
BLACK
6
CONTINUOUS
10
1.54646
20
1.82588
11
1.53791
21
1.82464
0
LINE
8
BLACK
6
CONTINUOUS
10
1.53791
20
1.82464
11
1.52927
21
1.82498
0
LINE
8
BLACK
6
CONTINUOUS
10
1.52927
20
1.82498
11
1.52083
21
1.82689
0
LINE
8
BLACK
6
CONTINUOUS
10
1.52083
20
1.82689
11
1.51289
21
1.8303
0
LINE
8
BLACK
6
CONTINUOUS
10
1.51289
20
1.8303
11
1.5057
21
1.83511
0
LINE
8
BLACK
6
CONTINUOUS
10
1.5057
20
1.83511
11
1.49951
21
1.84114
0
LINE
8
BLACK
6
CONTINUOUS
10
1.49951
20
1.84114
11
1.49452
21
1.8482
0
LINE
8
BLACK
6
CONTINUOUS
10
1.49452
20
1.8482
11
1.4909
21
1.85605
0
LINE
8
BLACK
6
CONTINUOUS
10
1.4909
20
1.85605
11
1.48877
21
1.86443
0
LINE
8
BLACK
6
CONTINUOUS
10
1.48877
20
1.86443
11
1.48821
21
1.87306
0
LINE
8
BLACK
6
CONTINUOUS
10
1.48821
20
1.87306
11
1.48922
21
1.88164
0
LINE
8
BLACK
6
CONTINUOUS
10
1.48922
20
1.88164
11
1.49179
21
1.8899
0
LINE
8
BLACK
6
CONTINUOUS
10
1.49179
20
1.8899
11
1.49581
21
1.89755
0
LINE
8
BLACK
6
CONTINUOUS
10
1.49581
20
1.89755
11
1.50116
21
1.90434
0
LINE
8
BLACK
6
CONTINUOUS
10
1.50116
20
1.90434
11
1.50766
21
1.91004
0
LINE
8
BLACK
6
CONTINUOUS
10
1.50766
20
1.91004
11
1.51509
21
1.91446
0
LINE
8
BLACK
6
CONTINUOUS
10
1.51509
20
1.91446
11
1.52321
21
1.91746
0
LINE
8
BLACK
6
CONTINUOUS
10
1.52321
20
1.91746
11
1.53173
21
1.91892
0
LINE
8
BLACK
6
CONTINUOUS
10
1.53173
20
1.91892
11
1.54037
21
1.91881
0
LINE
8
BLACK
6
CONTINUOUS
10
0.50524
20
1.83618
11
0.35524
21
1.83618
0
LINE
8
BLACK
6
CONTINUOUS
10
0.35524
20
1.83618
11
0.35524
21
1.98618
0
LINE
8
BLACK
6
CONTINUOUS
10
0.35524
20
1.98618
11
0.50524
21
1.98618
0
LINE
8
BLACK
6
CONTINUOUS
10
0.50524
20
1.98618
11
0.50524
21
1.83618
0
LINE
8
BLACK
6
CONTINUOUS
10
0.702091
20
1.83618
11
0.552091
21
1.83618
0
LINE
8
BLACK
6
CONTINUOUS
10
0.552091
20
1.83618
11
0.552091
21
1.98618
0
LINE
8
BLACK
6
CONTINUOUS
10
0.552091
20
1.98618
11
0.702091
21
1.98618
0
LINE
8
BLACK
6
CONTINUOUS
10
0.702091
20
1.98618
11
0.702091
21
1.83618
0
LINE
8
BLACK
6
CONTINUOUS
10
2.11339
20
1.88073
11
2.03465
21
1.88073
0
LINE
8
BLACK
6
CONTINUOUS
10
2.03465
20
1.88073
11
2.03465
21
1.90593
0
LINE
8
BLACK
6
CONTINUOUS
10
2.03465
20
1.90593
11
2.11339
21
1.90593
0
LINE
8
BLACK
6
CONTINUOUS
10
2.11339
20
1.90593
11
2.11339
21
1.88073
0
LINE
8
BLACK
6
CONTINUOUS
10
1.86535
20
1.88073
11
1.78661
21
1.88073
0
LINE
8
BLACK
6
CONTINUOUS
10
1.78661
20
1.88073
11
1.78661
21
1.90593
0
LINE
8
BLACK
6
CONTINUOUS
10
1.78661
20
1.90593
11
1.86535
21
1.90593
0
LINE
8
BLACK
6
CONTINUOUS
10
1.86535
20
1.90593
11
1.86535
21
1.88073
0
LINE
8
BLACK
6
CONTINUOUS
10
1.86535
20
1.98073
11
1.78661
21
1.98073
0
LINE
8
BLACK
6
CONTINUOUS
10
1.78661
20
1.98073
11
1.78661
21
2.00593
0
LINE
8
BLACK
6
CONTINUOUS
10
1.78661
20
2.00593
11
1.86535
21
2.00593
0
LINE
8
BLACK
6
CONTINUOUS
10
1.86535
20
2.00593
11
1.86535
21
1.98073
0
LINE
8
BLACK
6
CONTINUOUS
10
2.11339
20
1.98073
11
2.03465
21
1.98073
0
LINE
8
BLACK
6
CONTINUOUS
10
2.03465
20
1.98073
11
2.03465
21
2.00593
0
LINE
8
BLACK
6
CONTINUOUS
10
2.03465
20
2.00593
11
2.11339
21
2.00593
0
LINE
8
BLACK
6
CONTINUOUS
10
2.11339
20
2.00593
11
2.11339
21
1.98073
0
LINE
8
BLACK
6
CONTINUOUS
10
2.49969
20
1.98535
11
2.43969
21
1.98535
0
LINE
8
BLACK
6
CONTINUOUS
10
2.43969
20
1.98535
11
2.43969
21
2.04535
0
LINE
8
BLACK
6
CONTINUOUS
10
2.43969
20
2.04535
11
2.49969
21
2.04535
0
LINE
8
BLACK
6
CONTINUOUS
10
2.49969
20
2.04535
11
2.49969
21
1.98535
0
LINE
8
BLACK
6
CONTINUOUS
10
2.59969
20
1.98535
11
2.53969
21
1.98535
0
LINE
8
BLACK
6
CONTINUOUS
10
2.53969
20
1.98535
11
2.53969
21
2.04535
0
LINE
8
BLACK
6
CONTINUOUS
10
2.53969
20
2.04535
11
2.59969
21
2.04535
0
LINE
8
BLACK
6
CONTINUOUS
10
2.59969
20
2.04535
11
2.59969
21
1.98535
0
LINE
8
BLACK
6
CONTINUOUS
10
2.83591
20
1.98535
11
2.77591
21
1.98535
0
LINE
8
BLACK
6
CONTINUOUS
10
2.77591
20
1.98535
11
2.77591
21
2.04535
0
LINE
8
BLACK
6
CONTINUOUS
10
2.77591
20
2.04535
11
2.83591
21
2.04535
0
LINE
8
BLACK
6
CONTINUOUS
10
2.83591
20
2.04535
11
2.83591
21
1.98535
0
LINE
8
BLACK
6
CONTINUOUS
10
2.73591
20
1.98535
11
2.67591
21
1.98535
0
LINE
8
BLACK
6
CONTINUOUS
10
2.67591
20
1.98535
11
2.67591
21
2.04535
0
LINE
8
BLACK
6
CONTINUOUS
10
2.67591
20
2.04535
11
2.73591
21
2.04535
0
LINE
8
BLACK
6
CONTINUOUS
10
2.73591
20
2.04535
11
2.73591
21
1.98535
0
LINE
8
BLACK
6
CONTINUOUS
10
0.702091
20
2.03303
11
0.552091
21
2.03303
0
LINE
8
BLACK
6
CONTINUOUS
10
0.552091
20
2.03303
11
0.552091
21
2.18303
0
LINE
8
BLACK
6
CONTINUOUS
10
0.552091
20
2.18303
11
0.702091
21
2.18303
0
LINE
8
BLACK
6
CONTINUOUS
10
0.702091
20
2.18303
11
0.702091
21
2.03303
0
LINE
8
BLACK
6
CONTINUOUS
10
0.50524
20
2.03303
11
0.35524
21
2.03303
0
LINE
8
BLACK
6
CONTINUOUS
10
0.35524
20
2.03303
11
0.35524
21
2.18303
0
LINE
8
BLACK
6
CONTINUOUS
10
0.35524
20
2.18303
11
0.50524
21
2.18303
0
LINE
8
BLACK
6
CONTINUOUS
10
0.50524
20
2.18303
11
0.50524
21
2.03303
0
LINE
8
BLACK
6
CONTINUOUS
10
2.83591
20
2.08535
11
2.77591
21
2.08535
0
LINE
8
BLACK
6
CONTINUOUS
10
2.77591
20
2.08535
11
2.77591
21
2.14535
0
LINE
8
BLACK
6
CONTINUOUS
10
2.77591
20
2.14535
11
2.83591
21
2.14535
0
LINE
8
BLACK
6
CONTINUOUS
10
2.83591
20
2.14535
11
2.83591
21
2.08535
0
LINE
8
BLACK
6
CONTINUOUS
10
2.73591
20
2.08535
11
2.67591
21
2.08535
0
LINE
8
BLACK
6
CONTINUOUS
10
2.67591
20
2.08535
11
2.67591
21
2.14535
0
LINE
8
BLACK
6
CONTINUOUS
10
2.67591
20
2.14535
11
2.73591
21
2.14535
0
LINE
8
BLACK
6
CONTINUOUS
10
2.73591
20
2.14535
11
2.73591
21
2.08535
0
LINE
8
BLACK
6
CONTINUOUS
10
2.49969
20
2.08535
11
2.43969
21
2.08535
0
LINE
8
BLACK
6
CONTINUOUS
10
2.43969
20
2.08535
11
2.43969
21
2.14535
0
LINE
8
BLACK
6
CONTINUOUS
10
2.43969
20
2.14535
11
2.49969
21
2.14535
0
LINE
8
BLACK
6
CONTINUOUS
10
2.49969
20
2.14535
11
2.49969
21
2.08535
0
LINE
8
BLACK
6
CONTINUOUS
10
2.59969
20
2.08535
11
2.53969
21
2.08535
0
LINE
8
BLACK
6
CONTINUOUS
10
2.53969
20
2.08535
11
2.53969
21
2.14535
0
LINE
8
BLACK
6
CONTINUOUS
10
2.53969
20
2.14535
11
2.59969
21
2.14535
0
LINE
8
BLACK
6
CONTINUOUS
10
2.59969
20
2.14535
11
2.59969
21
2.08535
0
LINE
8
BLACK
6
CONTINUOUS
10
1.98039
20
2.14047
11
1.93906
21
2.14047
0
LINE
8
BLACK
6
CONTINUOUS
10
1.93906
20
2.14047
11
1.93906
21
2.14064
0
LINE
8
BLACK
6
CONTINUOUS
10
1.93906
20
2.14064
11
1.93804
21
2.14054
0
LINE
8
BLACK
6
CONTINUOUS
10
1.93804
20
2.14054
11
1.93475
21
2.14175
0
LINE
8
BLACK
6
CONTINUOUS
10
1.93475
20
2.14175
11
1.93232
21
2.14427
0
LINE
8
BLACK
6
CONTINUOUS
10
1.93232
20
2.14427
11
1.93122
21
2.1476
0
LINE
8
BLACK
6
CONTINUOUS
10
1.93122
20
2.1476
11
1.93167
21
2.15107
0
LINE
8
BLACK
6
CONTINUOUS
10
1.93167
20
2.15107
11
1.93192
21
2.15145
0
LINE
8
BLACK
6
CONTINUOUS
10
1.93192
20
2.15145
11
1.93394
21
2.15844
0
LINE
8
BLACK
6
CONTINUOUS
10
1.93394
20
2.15844
11
1.93502
21
2.1661
0
LINE
8
BLACK
6
CONTINUOUS
10
1.93502
20
2.1661
11
1.93503
21
2.17383
0
LINE
8
BLACK
6
CONTINUOUS
10
1.93503
20
2.17383
11
1.93395
21
2.18149
0
LINE
8
BLACK
6
CONTINUOUS
10
1.93395
20
2.18149
11
1.93194
21
2.1885
0
LINE
8
BLACK
6
CONTINUOUS
10
1.93194
20
2.1885
11
1.93168
21
2.18889
0
LINE
8
BLACK
6
CONTINUOUS
10
1.93168
20
2.18889
11
1.93125
21
2.19237
0
LINE
8
BLACK
6
CONTINUOUS
10
1.93125
20
2.19237
11
1.93236
21
2.19569
0
LINE
8
BLACK
6
CONTINUOUS
10
1.93236
20
2.19569
11
1.93481
21
2.19819
0
LINE
8
BLACK
6
CONTINUOUS
10
1.93481
20
2.19819
11
1.9381
21
2.19939
0
LINE
8
BLACK
6
CONTINUOUS
10
1.9381
20
2.19939
11
1.93906
21
2.1993
0
LINE
8
BLACK
6
CONTINUOUS
10
1.93906
20
2.1993
11
1.93906
21
2.19953
0
LINE
8
BLACK
6
CONTINUOUS
10
1.93906
20
2.19953
11
1.98039
21
2.19953
0
LINE
8
BLACK
6
CONTINUOUS
10
1.98039
20
2.19953
11
1.98039
21
2.14047
0
LINE
8
BLACK
6
CONTINUOUS
10
1.82094
20
2.19936
11
1.82196
21
2.19946
0
LINE
8
BLACK
6
CONTINUOUS
10
1.82196
20
2.19946
11
1.82525
21
2.19825
0
LINE
8
BLACK
6
CONTINUOUS
10
1.82525
20
2.19825
11
1.82768
21
2.19573
0
LINE
8
BLACK
6
CONTINUOUS
10
1.82768
20
2.19573
11
1.82878
21
2.1924
0
LINE
8
BLACK
6
CONTINUOUS
10
1.82878
20
2.1924
11
1.82833
21
2.18893
0
LINE
8
BLACK
6
CONTINUOUS
10
1.82833
20
2.18893
11
1.82808
21
2.18855
0
LINE
8
BLACK
6
CONTINUOUS
10
1.82808
20
2.18855
11
1.82606
21
2.18156
0
LINE
8
BLACK
6
CONTINUOUS
10
1.82606
20
2.18156
11
1.82498
21
2.1739
0
LINE
8
BLACK
6
CONTINUOUS
10
1.82498
20
2.1739
11
1.82497
21
2.16617
0
LINE
8
BLACK
6
CONTINUOUS
10
1.82497
20
2.16617
11
1.82605
21
2.15851
0
LINE
8
BLACK
6
CONTINUOUS
10
1.82605
20
2.15851
11
1.82806
21
2.1515
0
LINE
8
BLACK
6
CONTINUOUS
10
1.82806
20
2.1515
11
1.82832
21
2.15111
0
LINE
8
BLACK
6
CONTINUOUS
10
1.82832
20
2.15111
11
1.82875
21
2.14763
0
LINE
8
BLACK
6
CONTINUOUS
10
1.82875
20
2.14763
11
1.82764
21
2.14431
0
LINE
8
BLACK
6
CONTINUOUS
10
1.82764
20
2.14431
11
1.82519
21
2.14181
0
LINE
8
BLACK
6
CONTINUOUS
10
1.82519
20
2.14181
11
1.8219
21
2.14061
0
LINE
8
BLACK
6
CONTINUOUS
10
1.8219
20
2.14061
11
1.82094
21
2.1407
0
LINE
8
BLACK
6
CONTINUOUS
10
1.82094
20
2.1407
11
1.82094
21
2.14047
0
LINE
8
BLACK
6
CONTINUOUS
10
1.82094
20
2.14047
11
1.77961
21
2.14047
0
LINE
8
BLACK
6
CONTINUOUS
10
1.77961
20
2.14047
11
1.77961
21
2.19953
0
LINE
8
BLACK
6
CONTINUOUS
10
1.77961
20
2.19953
11
1.82094
21
2.19953
0
LINE
8
BLACK
6
CONTINUOUS
10
1.82094
20
2.19953
11
1.82094
21
2.19936
0
LINE
8
BLACK
6
CONTINUOUS
10
2.0675
20
2.14375
11
2.0125
21
2.14375
0
LINE
8
BLACK
6
CONTINUOUS
10
2.0125
20
2.14375
11
2.0125
21
2.17875
0
LINE
8
BLACK
6
CONTINUOUS
10
2.0125
20
2.17875
11
2.0675
21
2.17875
0
LINE
8
BLACK
6
CONTINUOUS
10
2.0675
20
2.17875
11
2.0675
21
2.14375
0
LINE
8
BLACK
6
CONTINUOUS
10
2.59969
20
2.18535
11
2.53969
21
2.18535
0
LINE
8
BLACK
6
CONTINUOUS
10
2.53969
20
2.18535
11
2.53969
21
2.24535
0
LINE
8
BLACK
6
CONTINUOUS
10
2.53969
20
2.24535
11
2.59969
21
2.24535
0
LINE
8
BLACK
6
CONTINUOUS
10
2.59969
20
2.24535
11
2.59969
21
2.18535
0
LINE
8
BLACK
6
CONTINUOUS
10
2.49969
20
2.18535
11
2.43969
21
2.18535
0
LINE
8
BLACK
6
CONTINUOUS
10
2.43969
20
2.18535
11
2.43969
21
2.24535
0
LINE
8
BLACK
6
CONTINUOUS
10
2.43969
20
2.24535
11
2.49969
21
2.24535
0
LINE
8
BLACK
6
CONTINUOUS
10
2.49969
20
2.24535
11
2.49969
21
2.18535
0
LINE
8
BLACK
6
CONTINUOUS
10
2.73591
20
2.18535
11
2.67591
21
2.18535
0
LINE
8
BLACK
6
CONTINUOUS
10
2.67591
20
2.18535
11
2.67591
21
2.24535
0
LINE
8
BLACK
6
CONTINUOUS
10
2.67591
20
2.24535
11
2.73591
21
2.24535
0
LINE
8
BLACK
6
CONTINUOUS
10
2.73591
20
2.24535
11
2.73591
21
2.18535
0
LINE
8
BLACK
6
CONTINUOUS
10
2.83591
20
2.18535
11
2.77591
21
2.18535
0
LINE
8
BLACK
6
CONTINUOUS
10
2.77591
20
2.18535
11
2.77591
21
2.24535
0
LINE
8
BLACK
6
CONTINUOUS
10
2.77591
20
2.24535
11
2.83591
21
2.24535
0
LINE
8
BLACK
6
CONTINUOUS
10
2.83591
20
2.24535
11
2.83591
21
2.18535
0
LINE
8
BLACK
6
CONTINUOUS
10
2.0675
20
2.21875
11
2.0125
21
2.21875
0
LINE
8
BLACK
6
CONTINUOUS
10
2.0125
20
2.21875
11
2.0125
21
2.25375
0
LINE
8
BLACK
6
CONTINUOUS
10
2.0125
20
2.25375
11
2.0675
21
2.25375
0
LINE
8
BLACK
6
CONTINUOUS
10
2.0675
20
2.25375
11
2.0675
21
2.21875
0
LINE
8
BLACK
6
CONTINUOUS
10
0.702091
20
2.22988
11
0.552091
21
2.22988
0
LINE
8
BLACK
6
CONTINUOUS
10
0.552091
20
2.22988
11
0.552091
21
2.37988
0
LINE
8
BLACK
6
CONTINUOUS
10
0.552091
20
2.37988
11
0.702091
21
2.37988
0
LINE
8
BLACK
6
CONTINUOUS
10
0.702091
20
2.37988
11
0.702091
21
2.22988
0
LINE
8
BLACK
6
CONTINUOUS
10
0.50524
20
2.22988
11
0.35524
21
2.22988
0
LINE
8
BLACK
6
CONTINUOUS
10
0.35524
20
2.22988
11
0.35524
21
2.37988
0
LINE
8
BLACK
6
CONTINUOUS
10
0.35524
20
2.37988
11
0.50524
21
2.37988
0
LINE
8
BLACK
6
CONTINUOUS
10
0.50524
20
2.37988
11
0.50524
21
2.22988
0
LINE
8
BLACK
6
CONTINUOUS
10
1.34352
20
2.33668
11
1.352
21
2.33499
0
LINE
8
BLACK
6
CONTINUOUS
10
1.352
20
2.33499
11
1.36003
21
2.33179
0
LINE
8
BLACK
6
CONTINUOUS
10
1.36003
20
2.33179
11
1.36734
21
2.32717
0
LINE
8
BLACK
6
CONTINUOUS
10
1.36734
20
2.32717
11
1.37369
21
2.32131
0
LINE
8
BLACK
6
CONTINUOUS
10
1.37369
20
2.32131
11
1.37886
21
2.31438
0
LINE
8
BLACK
6
CONTINUOUS
10
1.37886
20
2.31438
11
1.38269
21
2.30662
0
LINE
8
BLACK
6
CONTINUOUS
10
1.38269
20
2.30662
11
1.38504
21
2.2983
0
LINE
8
BLACK
6
CONTINUOUS
10
1.38504
20
2.2983
11
1.38583
21
2.28969
0
LINE
8
BLACK
6
CONTINUOUS
10
1.38583
20
2.28969
11
1.38576
21
2.28722
0
LINE
8
BLACK
6
CONTINUOUS
10
1.38576
20
2.28722
11
1.38452
21
2.27866
0
LINE
8
BLACK
6
CONTINUOUS
10
1.38452
20
2.27866
11
1.38174
21
2.27048
0
LINE
8
BLACK
6
CONTINUOUS
10
1.38174
20
2.27048
11
1.37752
21
2.26293
0
LINE
8
BLACK
6
CONTINUOUS
10
1.37752
20
2.26293
11
1.37199
21
2.25629
0
LINE
8
BLACK
6
CONTINUOUS
10
1.37199
20
2.25629
11
1.36534
21
2.25076
0
LINE
8
BLACK
6
CONTINUOUS
10
1.36534
20
2.25076
11
1.3578
21
2.24653
0
LINE
8
BLACK
6
CONTINUOUS
10
1.3578
20
2.24653
11
1.34961
21
2.24375
0
LINE
8
BLACK
6
CONTINUOUS
10
1.34961
20
2.24375
11
1.34106
21
2.24251
0
LINE
8
BLACK
6
CONTINUOUS
10
1.34106
20
2.24251
11
1.33242
21
2.24285
0
LINE
8
BLACK
6
CONTINUOUS
10
1.33242
20
2.24285
11
1.32398
21
2.24476
0
LINE
8
BLACK
6
CONTINUOUS
10
1.32398
20
2.24476
11
1.31604
21
2.24817
0
LINE
8
BLACK
6
CONTINUOUS
10
1.31604
20
2.24817
11
1.30885
21
2.25298
0
LINE
8
BLACK
6
CONTINUOUS
10
1.30885
20
2.25298
11
1.30266
21
2.25901
0
LINE
8
BLACK
6
CONTINUOUS
10
1.30266
20
2.25901
11
1.29767
21
2.26607
0
LINE
8
BLACK
6
CONTINUOUS
10
1.29767
20
2.26607
11
1.29405
21
2.27392
0
LINE
8
BLACK
6
CONTINUOUS
10
1.29405
20
2.27392
11
1.29192
21
2.2823
0
LINE
8
BLACK
6
CONTINUOUS
10
1.29192
20
2.2823
11
1.29135
21
2.29093
0
LINE
8
BLACK
6
CONTINUOUS
10
1.29135
20
2.29093
11
1.29237
21
2.29952
0
LINE
8
BLACK
6
CONTINUOUS
10
1.29237
20
2.29952
11
1.29493
21
2.30777
0
LINE
8
BLACK
6
CONTINUOUS
10
1.29493
20
2.30777
11
1.29896
21
2.31542
0
LINE
8
BLACK
6
CONTINUOUS
10
1.29896
20
2.31542
11
1.30431
21
2.32221
0
LINE
8
BLACK
6
CONTINUOUS
10
1.30431
20
2.32221
11
1.31081
21
2.32791
0
LINE
8
BLACK
6
CONTINUOUS
10
1.31081
20
2.32791
11
1.31824
21
2.33234
0
LINE
8
BLACK
6
CONTINUOUS
10
1.31824
20
2.33234
11
1.32635
21
2.33533
0
LINE
8
BLACK
6
CONTINUOUS
10
1.32635
20
2.33533
11
1.33488
21
2.33679
0
LINE
8
BLACK
6
CONTINUOUS
10
1.33488
20
2.33679
11
1.34352
21
2.33668
0
LINE
8
BLACK
6
CONTINUOUS
10
1.54037
20
2.33668
11
1.54885
21
2.33499
0
LINE
8
BLACK
6
CONTINUOUS
10
1.54885
20
2.33499
11
1.55688
21
2.33179
0
LINE
8
BLACK
6
CONTINUOUS
10
1.55688
20
2.33179
11
1.56419
21
2.32717
0
LINE
8
BLACK
6
CONTINUOUS
10
1.56419
20
2.32717
11
1.57054
21
2.32131
0
LINE
8
BLACK
6
CONTINUOUS
10
1.57054
20
2.32131
11
1.57572
21
2.31438
0
LINE
8
BLACK
6
CONTINUOUS
10
1.57572
20
2.31438
11
1.57954
21
2.30662
0
LINE
8
BLACK
6
CONTINUOUS
10
1.57954
20
2.30662
11
1.58189
21
2.2983
0
LINE
8
BLACK
6
CONTINUOUS
10
1.58189
20
2.2983
11
1.58268
21
2.28969
0
LINE
8
BLACK
6
CONTINUOUS
10
1.58268
20
2.28969
11
1.58261
21
2.28722
0
LINE
8
BLACK
6
CONTINUOUS
10
1.58261
20
2.28722
11
1.58137
21
2.27866
0
LINE
8
BLACK
6
CONTINUOUS
10
1.58137
20
2.27866
11
1.57859
21
2.27048
0
LINE
8
BLACK
6
CONTINUOUS
10
1.57859
20
2.27048
11
1.57437
21
2.26293
0
LINE
8
BLACK
6
CONTINUOUS
10
1.57437
20
2.26293
11
1.56884
21
2.25629
0
LINE
8
BLACK
6
CONTINUOUS
10
1.56884
20
2.25629
11
1.56219
21
2.25076
0
LINE
8
BLACK
6
CONTINUOUS
10
1.56219
20
2.25076
11
1.55465
21
2.24653
0
LINE
8
BLACK
6
CONTINUOUS
10
1.55465
20
2.24653
11
1.54646
21
2.24375
0
LINE
8
BLACK
6
CONTINUOUS
10
1.54646
20
2.24375
11
1.53791
21
2.24251
0
LINE
8
BLACK
6
CONTINUOUS
10
1.53791
20
2.24251
11
1.52927
21
2.24285
0
LINE
8
BLACK
6
CONTINUOUS
10
1.52927
20
2.24285
11
1.52083
21
2.24476
0
LINE
8
BLACK
6
CONTINUOUS
10
1.52083
20
2.24476
11
1.51289
21
2.24817
0
LINE
8
BLACK
6
CONTINUOUS
10
1.51289
20
2.24817
11
1.5057
21
2.25298
0
LINE
8
BLACK
6
CONTINUOUS
10
1.5057
20
2.25298
11
1.49951
21
2.25901
0
LINE
8
BLACK
6
CONTINUOUS
10
1.49951
20
2.25901
11
1.49452
21
2.26607
0
LINE
8
BLACK
6
CONTINUOUS
10
1.49452
20
2.26607
11
1.4909
21
2.27392
0
LINE
8
BLACK
6
CONTINUOUS
10
1.4909
20
2.27392
11
1.48877
21
2.2823
0
LINE
8
BLACK
6
CONTINUOUS
10
1.48877
20
2.2823
11
1.48821
21
2.29093
0
LINE
8
BLACK
6
CONTINUOUS
10
1.48821
20
2.29093
11
1.48922
21
2.29952
0
LINE
8
BLACK
6
CONTINUOUS
10
1.48922
20
2.29952
11
1.49179
21
2.30777
0
LINE
8
BLACK
6
CONTINUOUS
10
1.49179
20
2.30777
11
1.49581
21
2.31542
0
LINE
8
BLACK
6
CONTINUOUS
10
1.49581
20
2.31542
11
1.50116
21
2.32221
0
LINE
8
BLACK
6
CONTINUOUS
10
1.50116
20
2.32221
11
1.50766
21
2.32791
0
LINE
8
BLACK
6
CONTINUOUS
10
1.50766
20
2.32791
11
1.51509
21
2.33234
0
LINE
8
BLACK
6
CONTINUOUS
10
1.51509
20
2.33234
11
1.52321
21
2.33533
0
LINE
8
BLACK
6
CONTINUOUS
10
1.52321
20
2.33533
11
1.53173
21
2.33679
0
LINE
8
BLACK
6
CONTINUOUS
10
1.53173
20
2.33679
11
1.54037
21
2.33668
0
LINE
8
BLACK
6
CONTINUOUS
10
2.83591
20
2.28535
11
2.77591
21
2.28535
0
LINE
8
BLACK
6
CONTINUOUS
10
2.77591
20
2.28535
11
2.77591
21
2.34535
0
LINE
8
BLACK
6
CONTINUOUS
10
2.77591
20
2.34535
11
2.83591
21
2.34535
0
LINE
8
BLACK
6
CONTINUOUS
10
2.83591
20
2.34535
11
2.83591
21
2.28535
0
LINE
8
BLACK
6
CONTINUOUS
10
2.73591
20
2.28535
11
2.67591
21
2.28535
0
LINE
8
BLACK
6
CONTINUOUS
10
2.67591
20
2.28535
11
2.67591
21
2.34535
0
LINE
8
BLACK
6
CONTINUOUS
10
2.67591
20
2.34535
11
2.73591
21
2.34535
0
LINE
8
BLACK
6
CONTINUOUS
10
2.73591
20
2.34535
11
2.73591
21
2.28535
0
LINE
8
BLACK
6
CONTINUOUS
10
2.59969
20
2.28535
11
2.53969
21
2.28535
0
LINE
8
BLACK
6
CONTINUOUS
10
2.53969
20
2.28535
11
2.53969
21
2.34535
0
LINE
8
BLACK
6
CONTINUOUS
10
2.53969
20
2.34535
11
2.59969
21
2.34535
0
LINE
8
BLACK
6
CONTINUOUS
10
2.59969
20
2.34535
11
2.59969
21
2.28535
0
LINE
8
BLACK
6
CONTINUOUS
10
2.49969
20
2.28535
11
2.43969
21
2.28535
0
LINE
8
BLACK
6
CONTINUOUS
10
2.43969
20
2.28535
11
2.43969
21
2.34535
0
LINE
8
BLACK
6
CONTINUOUS
10
2.43969
20
2.34535
11
2.49969
21
2.34535
0
LINE
8
BLACK
6
CONTINUOUS
10
2.49969
20
2.34535
11
2.49969
21
2.28535
0
LINE
8
BLACK
6
CONTINUOUS
10
1.86535
20
2.3024
11
1.78661
21
2.3024
0
LINE
8
BLACK
6
CONTINUOUS
10
1.78661
20
2.3024
11
1.78661
21
2.3276
0
LINE
8
BLACK
6
CONTINUOUS
10
1.78661
20
2.3276
11
1.86535
21
2.3276
0
LINE
8
BLACK
6
CONTINUOUS
10
1.86535
20
2.3276
11
1.86535
21
2.3024
0
LINE
8
BLACK
6
CONTINUOUS
10
2.11339
20
2.3024
11
2.03465
21
2.3024
0
LINE
8
BLACK
6
CONTINUOUS
10
2.03465
20
2.3024
11
2.03465
21
2.3276
0
LINE
8
BLACK
6
CONTINUOUS
10
2.03465
20
2.3276
11
2.11339
21
2.3276
0
LINE
8
BLACK
6
CONTINUOUS
10
2.11339
20
2.3276
11
2.11339
21
2.3024
0
LINE
8
BLACK
6
CONTINUOUS
10
1.86535
20
2.4024
11
1.78661
21
2.4024
0
LINE
8
BLACK
6
CONTINUOUS
10
1.78661
20
2.4024
11
1.78661
21
2.4276
0
LINE
8
BLACK
6
CONTINUOUS
10
1.78661
20
2.4276
11
1.86535
21
2.4276
0
LINE
8
BLACK
6
CONTINUOUS
10
1.86535
20
2.4276
11
1.86535
21
2.4024
0
LINE
8
BLACK
6
CONTINUOUS
10
2.11339
20
2.4024
11
2.03465
21
2.4024
0
LINE
8
BLACK
6
CONTINUOUS
10
2.03465
20
2.4024
11
2.03465
21
2.4276
0
LINE
8
BLACK
6
CONTINUOUS
10
2.03465
20
2.4276
11
2.11339
21
2.4276
0
LINE
8
BLACK
6
CONTINUOUS
10
2.11339
20
2.4276
11
2.11339
21
2.4024
0
LINE
8
BLACK
6
CONTINUOUS
10
0.702091
20
2.42673
11
0.552091
21
2.42673
0
LINE
8
BLACK
6
CONTINUOUS
10
0.552091
20
2.42673
11
0.552091
21
2.57673
0
LINE
8
BLACK
6
CONTINUOUS
10
0.552091
20
2.57673
11
0.702091
21
2.57673
0
LINE
8
BLACK
6
CONTINUOUS
10
0.702091
20
2.57673
11
0.702091
21
2.42673
0
LINE
8
BLACK
6
CONTINUOUS
10
0.50524
20
2.42673
11
0.35524
21
2.42673
0
LINE
8
BLACK
6
CONTINUOUS
10
0.35524
20
2.42673
11
0.35524
21
2.57673
0
LINE
8
BLACK
6
CONTINUOUS
10
0.35524
20
2.57673
11
0.50524
21
2.57673
0
LINE
8
BLACK
6
CONTINUOUS
10
0.50524
20
2.57673
11
0.50524
21
2.42673
0
LINE
8
BLACK
6
CONTINUOUS
10
2.5975
20
2.465
11
2.5425
21
2.465
0
LINE
8
BLACK
6
CONTINUOUS
10
2.5425
20
2.465
11
2.5425
21
2.5
0
LINE
8
BLACK
6
CONTINUOUS
10
2.5425
20
2.5
11
2.5975
21
2.5
0
LINE
8
BLACK
6
CONTINUOUS
10
2.5975
20
2.5
11
2.5975
21
2.465
0
LINE
8
BLACK
6
CONTINUOUS
10
2.68247
20
2.50413
11
2.68566
21
2.502
0
LINE
8
BLACK
6
CONTINUOUS
10
2.68566
20
2.502
11
2.68779
21
2.49881
0
LINE
8
BLACK
6
CONTINUOUS
10
2.68779
20
2.49881
11
2.68854
21
2.49504
0
LINE
8
BLACK
6
CONTINUOUS
10
2.68854
20
2.49504
11
2.68854
21
2.47535
0
LINE
8
BLACK
6
CONTINUOUS
10
2.68854
20
2.47535
11
2.68779
21
2.47159
0
LINE
8
BLACK
6
CONTINUOUS
10
2.68779
20
2.47159
11
2.68566
21
2.46839
0
LINE
8
BLACK
6
CONTINUOUS
10
2.68566
20
2.46839
11
2.68247
21
2.46626
0
LINE
8
BLACK
6
CONTINUOUS
10
2.68247
20
2.46626
11
2.6787
21
2.46551
0
LINE
8
BLACK
6
CONTINUOUS
10
2.6787
20
2.46551
11
2.6413
21
2.46551
0
LINE
8
BLACK
6
CONTINUOUS
10
2.6413
20
2.46551
11
2.63753
21
2.46626
0
LINE
8
BLACK
6
CONTINUOUS
10
2.63753
20
2.46626
11
2.63434
21
2.46839
0
LINE
8
BLACK
6
CONTINUOUS
10
2.63434
20
2.46839
11
2.63221
21
2.47159
0
LINE
8
BLACK
6
CONTINUOUS
10
2.63221
20
2.47159
11
2.63146
21
2.47535
0
LINE
8
BLACK
6
CONTINUOUS
10
2.63146
20
2.47535
11
2.63146
21
2.49504
0
LINE
8
BLACK
6
CONTINUOUS
10
2.63146
20
2.49504
11
2.63221
21
2.49881
0
LINE
8
BLACK
6
CONTINUOUS
10
2.63221
20
2.49881
11
2.63434
21
2.502
0
LINE
8
BLACK
6
CONTINUOUS
10
2.63434
20
2.502
11
2.63753
21
2.50413
0
LINE
8
BLACK
6
CONTINUOUS
10
2.63753
20
2.50413
11
2.6413
21
2.50488
0
LINE
8
BLACK
6
CONTINUOUS
10
2.6413
20
2.50488
11
2.6787
21
2.50488
0
LINE
8
BLACK
6
CONTINUOUS
10
2.6787
20
2.50488
11
2.68247
21
2.50413
0
LINE
8
BLACK
6
CONTINUOUS
10
2.5975
20
2.54
11
2.5425
21
2.54
0
LINE
8
BLACK
6
CONTINUOUS
10
2.5425
20
2.54
11
2.5425
21
2.575
0
LINE
8
BLACK
6
CONTINUOUS
10
2.5425
20
2.575
11
2.5975
21
2.575
0
LINE
8
BLACK
6
CONTINUOUS
10
2.5975
20
2.575
11
2.5975
21
2.54
0
LINE
8
BLACK
6
CONTINUOUS
10
2.68247
20
2.57894
11
2.68566
21
2.5768
0
LINE
8
BLACK
6
CONTINUOUS
10
2.68566
20
2.5768
11
2.68779
21
2.57361
0
LINE
8
BLACK
6
CONTINUOUS
10
2.68779
20
2.57361
11
2.68854
21
2.56984
0
LINE
8
BLACK
6
CONTINUOUS
10
2.68854
20
2.56984
11
2.68854
21
2.55016
0
LINE
8
BLACK
6
CONTINUOUS
10
2.68854
20
2.55016
11
2.68779
21
2.54639
0
LINE
8
BLACK
6
CONTINUOUS
10
2.68779
20
2.54639
11
2.68566
21
2.5432
0
LINE
8
BLACK
6
CONTINUOUS
10
2.68566
20
2.5432
11
2.68247
21
2.54106
0
LINE
8
BLACK
6
CONTINUOUS
10
2.68247
20
2.54106
11
2.6787
21
2.54031
0
LINE
8
BLACK
6
CONTINUOUS
10
2.6787
20
2.54031
11
2.6413
21
2.54031
0
LINE
8
BLACK
6
CONTINUOUS
10
2.6413
20
2.54031
11
2.63753
21
2.54106
0
LINE
8
BLACK
6
CONTINUOUS
10
2.63753
20
2.54106
11
2.63434
21
2.5432
0
LINE
8
BLACK
6
CONTINUOUS
10
2.63434
20
2.5432
11
2.63221
21
2.54639
0
LINE
8
BLACK
6
CONTINUOUS
10
2.63221
20
2.54639
11
2.63146
21
2.55016
0
LINE
8
BLACK
6
CONTINUOUS
10
2.63146
20
2.55016
11
2.63146
21
2.56984
0
LINE
8
BLACK
6
CONTINUOUS
10
2.63146
20
2.56984
11
2.63221
21
2.57361
0
LINE
8
BLACK
6
CONTINUOUS
10
2.63221
20
2.57361
11
2.63434
21
2.5768
0
LINE
8
BLACK
6
CONTINUOUS
10
2.63434
20
2.5768
11
2.63753
21
2.57894
0
LINE
8
BLACK
6
CONTINUOUS
10
2.63753
20
2.57894
11
2.6413
21
2.57969
0
LINE
8
BLACK
6
CONTINUOUS
10
2.6413
20
2.57969
11
2.6787
21
2.57969
0
LINE
8
BLACK
6
CONTINUOUS
10
2.6787
20
2.57969
11
2.68247
21
2.57894
0
LINE
8
BLACK
6
CONTINUOUS
10
1.82094
20
2.61936
11
1.82196
21
2.61946
0
LINE
8
BLACK
6
CONTINUOUS
10
1.82196
20
2.61946
11
1.82525
21
2.61825
0
LINE
8
BLACK
6
CONTINUOUS
10
1.82525
20
2.61825
11
1.82768
21
2.61573
0
LINE
8
BLACK
6
CONTINUOUS
10
1.82768
20
2.61573
11
1.82878
21
2.6124
0
LINE
8
BLACK
6
CONTINUOUS
10
1.82878
20
2.6124
11
1.82833
21
2.60893
0
LINE
8
BLACK
6
CONTINUOUS
10
1.82833
20
2.60893
11
1.82808
21
2.60855
0
LINE
8
BLACK
6
CONTINUOUS
10
1.82808
20
2.60855
11
1.82606
21
2.60156
0
LINE
8
BLACK
6
CONTINUOUS
10
1.82606
20
2.60156
11
1.82498
21
2.5939
0
LINE
8
BLACK
6
CONTINUOUS
10
1.82498
20
2.5939
11
1.82497
21
2.58617
0
LINE
8
BLACK
6
CONTINUOUS
10
1.82497
20
2.58617
11
1.82605
21
2.57851
0
LINE
8
BLACK
6
CONTINUOUS
10
1.82605
20
2.57851
11
1.82806
21
2.5715
0
LINE
8
BLACK
6
CONTINUOUS
10
1.82806
20
2.5715
11
1.82832
21
2.57111
0
LINE
8
BLACK
6
CONTINUOUS
10
1.82832
20
2.57111
11
1.82875
21
2.56763
0
LINE
8
BLACK
6
CONTINUOUS
10
1.82875
20
2.56763
11
1.82764
21
2.56431
0
LINE
8
BLACK
6
CONTINUOUS
10
1.82764
20
2.56431
11
1.82519
21
2.56181
0
LINE
8
BLACK
6
CONTINUOUS
10
1.82519
20
2.56181
11
1.8219
21
2.56061
0
LINE
8
BLACK
6
CONTINUOUS
10
1.8219
20
2.56061
11
1.82094
21
2.5607
0
LINE
8
BLACK
6
CONTINUOUS
10
1.82094
20
2.5607
11
1.82094
21
2.56047
0
LINE
8
BLACK
6
CONTINUOUS
10
1.82094
20
2.56047
11
1.77961
21
2.56047
0
LINE
8
BLACK
6
CONTINUOUS
10
1.77961
20
2.56047
11
1.77961
21
2.61953
0
LINE
8
BLACK
6
CONTINUOUS
10
1.77961
20
2.61953
11
1.82094
21
2.61953
0
LINE
8
BLACK
6
CONTINUOUS
10
1.82094
20
2.61953
11
1.82094
21
2.61936
0
LINE
8
BLACK
6
CONTINUOUS
10
1.98039
20
2.56047
11
1.93906
21
2.56047
0
LINE
8
BLACK
6
CONTINUOUS
10
1.93906
20
2.56047
11
1.93906
21
2.56064
0
LINE
8
BLACK
6
CONTINUOUS
10
1.93906
20
2.56064
11
1.93804
21
2.56054
0
LINE
8
BLACK
6
CONTINUOUS
10
1.93804
20
2.56054
11
1.93475
21
2.56175
0
LINE
8
BLACK
6
CONTINUOUS
10
1.93475
20
2.56175
11
1.93232
21
2.56427
0
LINE
8
BLACK
6
CONTINUOUS
10
1.93232
20
2.56427
11
1.93122
21
2.5676
0
LINE
8
BLACK
6
CONTINUOUS
10
1.93122
20
2.5676
11
1.93167
21
2.57107
0
LINE
8
BLACK
6
CONTINUOUS
10
1.93167
20
2.57107
11
1.93192
21
2.57145
0
LINE
8
BLACK
6
CONTINUOUS
10
1.93192
20
2.57145
11
1.93394
21
2.57844
0
LINE
8
BLACK
6
CONTINUOUS
10
1.93394
20
2.57844
11
1.93502
21
2.5861
0
LINE
8
BLACK
6
CONTINUOUS
10
1.93502
20
2.5861
11
1.93503
21
2.59383
0
LINE
8
BLACK
6
CONTINUOUS
10
1.93503
20
2.59383
11
1.93395
21
2.60149
0
LINE
8
BLACK
6
CONTINUOUS
10
1.93395
20
2.60149
11
1.93194
21
2.6085
0
LINE
8
BLACK
6
CONTINUOUS
10
1.93194
20
2.6085
11
1.93168
21
2.60889
0
LINE
8
BLACK
6
CONTINUOUS
10
1.93168
20
2.60889
11
1.93125
21
2.61237
0
LINE
8
BLACK
6
CONTINUOUS
10
1.93125
20
2.61237
11
1.93236
21
2.61569
0
LINE
8
BLACK
6
CONTINUOUS
10
1.93236
20
2.61569
11
1.93481
21
2.61819
0
LINE
8
BLACK
6
CONTINUOUS
10
1.93481
20
2.61819
11
1.9381
21
2.61939
0
LINE
8
BLACK
6
CONTINUOUS
10
1.9381
20
2.61939
11
1.93906
21
2.6193
0
LINE
8
BLACK
6
CONTINUOUS
10
1.93906
20
2.6193
11
1.93906
21
2.61953
0
LINE
8
BLACK
6
CONTINUOUS
10
1.93906
20
2.61953
11
1.98039
21
2.61953
0
LINE
8
BLACK
6
CONTINUOUS
10
1.98039
20
2.61953
11
1.98039
21
2.56047
0
LINE
8
BLACK
6
CONTINUOUS
10
2.0675
20
2.56417
11
2.0125
21
2.56417
0
LINE
8
BLACK
6
CONTINUOUS
10
2.0125
20
2.56417
11
2.0125
21
2.59917
0
LINE
8
BLACK
6
CONTINUOUS
10
2.0125
20
2.59917
11
2.0675
21
2.59917
0
LINE
8
BLACK
6
CONTINUOUS
10
2.0675
20
2.59917
11
2.0675
21
2.56417
0
LINE
8
BLACK
6
CONTINUOUS
10
2.87543
20
2.58205
11
2.80457
21
2.58205
0
LINE
8
BLACK
6
CONTINUOUS
10
2.80457
20
2.58205
11
2.80457
21
2.68047
0
LINE
8
BLACK
6
CONTINUOUS
10
2.80457
20
2.68047
11
2.87543
21
2.68047
0
LINE
8
BLACK
6
CONTINUOUS
10
2.87543
20
2.68047
11
2.87543
21
2.58205
0
LINE
8
BLACK
6
CONTINUOUS
10
0.702091
20
2.62358
11
0.552091
21
2.62358
0
LINE
8
BLACK
6
CONTINUOUS
10
0.552091
20
2.62358
11
0.552091
21
2.77358
0
LINE
8
BLACK
6
CONTINUOUS
10
0.552091
20
2.77358
11
0.702091
21
2.77358
0
LINE
8
BLACK
6
CONTINUOUS
10
0.702091
20
2.77358
11
0.702091
21
2.62358
0
LINE
8
BLACK
6
CONTINUOUS
10
0.50524
20
2.62358
11
0.35524
21
2.62358
0
LINE
8
BLACK
6
CONTINUOUS
10
0.35524
20
2.62358
11
0.35524
21
2.77358
0
LINE
8
BLACK
6
CONTINUOUS
10
0.35524
20
2.77358
11
0.50524
21
2.77358
0
LINE
8
BLACK
6
CONTINUOUS
10
0.50524
20
2.77358
11
0.50524
21
2.62358
0
LINE
8
BLACK
6
CONTINUOUS
10
2.0675
20
2.63917
11
2.0125
21
2.63917
0
LINE
8
BLACK
6
CONTINUOUS
10
2.0125
20
2.63917
11
2.0125
21
2.67417
0
LINE
8
BLACK
6
CONTINUOUS
10
2.0125
20
2.67417
11
2.0675
21
2.67417
0
LINE
8
BLACK
6
CONTINUOUS
10
2.0675
20
2.67417
11
2.0675
21
2.63917
0
LINE
8
BLACK
6
CONTINUOUS
10
1.34352
20
2.75455
11
1.352
21
2.75286
0
LINE
8
BLACK
6
CONTINUOUS
10
1.352
20
2.75286
11
1.36003
21
2.74966
0
LINE
8
BLACK
6
CONTINUOUS
10
1.36003
20
2.74966
11
1.36734
21
2.74505
0
LINE
8
BLACK
6
CONTINUOUS
10
1.36734
20
2.74505
11
1.37369
21
2.73918
0
LINE
8
BLACK
6
CONTINUOUS
10
1.37369
20
2.73918
11
1.37886
21
2.73225
0
LINE
8
BLACK
6
CONTINUOUS
10
1.37886
20
2.73225
11
1.38269
21
2.7245
0
LINE
8
BLACK
6
CONTINUOUS
10
1.38269
20
2.7245
11
1.38504
21
2.71617
0
LINE
8
BLACK
6
CONTINUOUS
10
1.38504
20
2.71617
11
1.38583
21
2.70756
0
LINE
8
BLACK
6
CONTINUOUS
10
1.38583
20
2.70756
11
1.38576
21
2.70509
0
LINE
8
BLACK
6
CONTINUOUS
10
1.38576
20
2.70509
11
1.38452
21
2.69654
0
LINE
8
BLACK
6
CONTINUOUS
10
1.38452
20
2.69654
11
1.38174
21
2.68835
0
LINE
8
BLACK
6
CONTINUOUS
10
1.38174
20
2.68835
11
1.37752
21
2.68081
0
LINE
8
BLACK
6
CONTINUOUS
10
1.37752
20
2.68081
11
1.37199
21
2.67416
0
LINE
8
BLACK
6
CONTINUOUS
10
1.37199
20
2.67416
11
1.36534
21
2.66863
0
LINE
8
BLACK
6
CONTINUOUS
10
1.36534
20
2.66863
11
1.3578
21
2.66441
0
LINE
8
BLACK
6
CONTINUOUS
10
1.3578
20
2.66441
11
1.34961
21
2.66163
0
LINE
8
BLACK
6
CONTINUOUS
10
1.34961
20
2.66163
11
1.34106
21
2.66039
0
LINE
8
BLACK
6
CONTINUOUS
10
1.34106
20
2.66039
11
1.33242
21
2.66072
0
LINE
8
BLACK
6
CONTINUOUS
10
1.33242
20
2.66072
11
1.32398
21
2.66263
0
LINE
8
BLACK
6
CONTINUOUS
10
1.32398
20
2.66263
11
1.31604
21
2.66605
0
LINE
8
BLACK
6
CONTINUOUS
10
1.31604
20
2.66605
11
1.30885
21
2.67085
0
LINE
8
BLACK
6
CONTINUOUS
10
1.30885
20
2.67085
11
1.30266
21
2.67688
0
LINE
8
BLACK
6
CONTINUOUS
10
1.30266
20
2.67688
11
1.29767
21
2.68394
0
LINE
8
BLACK
6
CONTINUOUS
10
1.29767
20
2.68394
11
1.29405
21
2.69179
0
LINE
8
BLACK
6
CONTINUOUS
10
1.29405
20
2.69179
11
1.29192
21
2.70017
0
LINE
8
BLACK
6
CONTINUOUS
10
1.29192
20
2.70017
11
1.29135
21
2.7088
0
LINE
8
BLACK
6
CONTINUOUS
10
1.29135
20
2.7088
11
1.29237
21
2.71739
0
LINE
8
BLACK
6
CONTINUOUS
10
1.29237
20
2.71739
11
1.29493
21
2.72564
0
LINE
8
BLACK
6
CONTINUOUS
10
1.29493
20
2.72564
11
1.29896
21
2.7333
0
LINE
8
BLACK
6
CONTINUOUS
10
1.29896
20
2.7333
11
1.30431
21
2.74009
0
LINE
8
BLACK
6
CONTINUOUS
10
1.30431
20
2.74009
11
1.31081
21
2.74579
0
LINE
8
BLACK
6
CONTINUOUS
10
1.31081
20
2.74579
11
1.31824
21
2.75021
0
LINE
8
BLACK
6
CONTINUOUS
10
1.31824
20
2.75021
11
1.32635
21
2.7532
0
LINE
8
BLACK
6
CONTINUOUS
10
1.32635
20
2.7532
11
1.33488
21
2.75466
0
LINE
8
BLACK
6
CONTINUOUS
10
1.33488
20
2.75466
11
1.34352
21
2.75455
0
LINE
8
BLACK
6
CONTINUOUS
10
1.54037
20
2.75455
11
1.54885
21
2.75286
0
LINE
8
BLACK
6
CONTINUOUS
10
1.54885
20
2.75286
11
1.55688
21
2.74966
0
LINE
8
BLACK
6
CONTINUOUS
10
1.55688
20
2.74966
11
1.56419
21
2.74505
0
LINE
8
BLACK
6
CONTINUOUS
10
1.56419
20
2.74505
11
1.57054
21
2.73918
0
LINE
8
BLACK
6
CONTINUOUS
10
1.57054
20
2.73918
11
1.57572
21
2.73225
0
LINE
8
BLACK
6
CONTINUOUS
10
1.57572
20
2.73225
11
1.57954
21
2.7245
0
LINE
8
BLACK
6
CONTINUOUS
10
1.57954
20
2.7245
11
1.58189
21
2.71617
0
LINE
8
BLACK
6
CONTINUOUS
10
1.58189
20
2.71617
11
1.58268
21
2.70756
0
LINE
8
BLACK
6
CONTINUOUS
10
1.58268
20
2.70756
11
1.58261
21
2.70509
0
LINE
8
BLACK
6
CONTINUOUS
10
1.58261
20
2.70509
11
1.58137
21
2.69654
0
LINE
8
BLACK
6
CONTINUOUS
10
1.58137
20
2.69654
11
1.57859
21
2.68835
0
LINE
8
BLACK
6
CONTINUOUS
10
1.57859
20
2.68835
11
1.57437
21
2.68081
0
LINE
8
BLACK
6
CONTINUOUS
10
1.57437
20
2.68081
11
1.56884
21
2.67416
0
LINE
8
BLACK
6
CONTINUOUS
10
1.56884
20
2.67416
11
1.56219
21
2.66863
0
LINE
8
BLACK
6
CONTINUOUS
10
1.56219
20
2.66863
11
1.55465
21
2.66441
0
LINE
8
BLACK
6
CONTINUOUS
10
1.55465
20
2.66441
11
1.54646
21
2.66163
0
LINE
8
BLACK
6
CONTINUOUS
10
1.54646
20
2.66163
11
1.53791
21
2.66039
0
LINE
8
BLACK
6
CONTINUOUS
10
1.53791
20
2.66039
11
1.52927
21
2.66072
0
LINE
8
BLACK
6
CONTINUOUS
10
1.52927
20
2.66072
11
1.52083
21
2.66263
0
LINE
8
BLACK
6
CONTINUOUS
10
1.52083
20
2.66263
11
1.51289
21
2.66605
0
LINE
8
BLACK
6
CONTINUOUS
10
1.51289
20
2.66605
11
1.5057
21
2.67085
0
LINE
8
BLACK
6
CONTINUOUS
10
1.5057
20
2.67085
11
1.49951
21
2.67688
0
LINE
8
BLACK
6
CONTINUOUS
10
1.49951
20
2.67688
11
1.49452
21
2.68394
0
LINE
8
BLACK
6
CONTINUOUS
10
1.49452
20
2.68394
11
1.4909
21
2.69179
0
LINE
8
BLACK
6
CONTINUOUS
10
1.4909
20
2.69179
11
1.48877
21
2.70017
0
LINE
8
BLACK
6
CONTINUOUS
10
1.48877
20
2.70017
11
1.48821
21
2.7088
0
LINE
8
BLACK
6
CONTINUOUS
10
1.48821
20
2.7088
11
1.48922
21
2.71739
0
LINE
8
BLACK
6
CONTINUOUS
10
1.48922
20
2.71739
11
1.49179
21
2.72564
0
LINE
8
BLACK
6
CONTINUOUS
10
1.49179
20
2.72564
11
1.49581
21
2.7333
0
LINE
8
BLACK
6
CONTINUOUS
10
1.49581
20
2.7333
11
1.50116
21
2.74009
0
LINE
8
BLACK
6
CONTINUOUS
10
1.50116
20
2.74009
11
1.50766
21
2.74579
0
LINE
8
BLACK
6
CONTINUOUS
10
1.50766
20
2.74579
11
1.51509
21
2.75021
0
LINE
8
BLACK
6
CONTINUOUS
10
1.51509
20
2.75021
11
1.52321
21
2.7532
0
LINE
8
BLACK
6
CONTINUOUS
10
1.52321
20
2.7532
11
1.53173
21
2.75466
0
LINE
8
BLACK
6
CONTINUOUS
10
1.53173
20
2.75466
11
1.54037
21
2.75455
0
LINE
8
BLACK
6
CONTINUOUS
10
2.44
20
2.68
11
2.38
21
2.68
0
LINE
8
BLACK
6
CONTINUOUS
10
2.38
20
2.68
11
2.38
21
2.74
0
LINE
8
BLACK
6
CONTINUOUS
10
2.38
20
2.74
11
2.44
21
2.74
0
LINE
8
BLACK
6
CONTINUOUS
10
2.44
20
2.74
11
2.44
21
2.68
0
LINE
8
BLACK
6
CONTINUOUS
10
2.54
20
2.68
11
2.48
21
2.68
0
LINE
8
BLACK
6
CONTINUOUS
10
2.48
20
2.68
11
2.48
21
2.74
0
LINE
8
BLACK
6
CONTINUOUS
10
2.48
20
2.74
11
2.54
21
2.74
0
LINE
8
BLACK
6
CONTINUOUS
10
2.54
20
2.74
11
2.54
21
2.68
0
LINE
8
BLACK
6
CONTINUOUS
10
2.64
20
2.6825
11
2.605
21
2.6825
0
LINE
8
BLACK
6
CONTINUOUS
10
2.605
20
2.6825
11
2.605
21
2.7375
0
LINE
8
BLACK
6
CONTINUOUS
10
2.605
20
2.7375
11
2.64
21
2.7375
0
LINE
8
BLACK
6
CONTINUOUS
10
2.64
20
2.7375
11
2.64
21
2.6825
0
LINE
8
BLACK
6
CONTINUOUS
10
2.715
20
2.6825
11
2.68
21
2.6825
0
LINE
8
BLACK
6
CONTINUOUS
10
2.68
20
2.6825
11
2.68
21
2.7375
0
LINE
8
BLACK
6
CONTINUOUS
10
2.68
20
2.7375
11
2.715
21
2.7375
0
LINE
8
BLACK
6
CONTINUOUS
10
2.715
20
2.7375
11
2.715
21
2.6825
0
LINE
8
BLACK
6
CONTINUOUS
10
1.86535
20
2.72407
11
1.78661
21
2.72407
0
LINE
8
BLACK
6
CONTINUOUS
10
1.78661
20
2.72407
11
1.78661
21
2.74927
0
LINE
8
BLACK
6
CONTINUOUS
10
1.78661
20
2.74927
11
1.86535
21
2.74927
0
LINE
8
BLACK
6
CONTINUOUS
10
1.86535
20
2.74927
11
1.86535
21
2.72407
0
LINE
8
BLACK
6
CONTINUOUS
10
2.11339
20
2.72407
11
2.03465
21
2.72407
0
LINE
8
BLACK
6
CONTINUOUS
10
2.03465
20
2.72407
11
2.03465
21
2.74927
0
LINE
8
BLACK
6
CONTINUOUS
10
2.03465
20
2.74927
11
2.11339
21
2.74927
0
LINE
8
BLACK
6
CONTINUOUS
10
2.11339
20
2.74927
11
2.11339
21
2.72407
0
LINE
8
BLACK
6
CONTINUOUS
10
2.87543
20
2.73953
11
2.80457
21
2.73953
0
LINE
8
BLACK
6
CONTINUOUS
10
2.80457
20
2.73953
11
2.80457
21
2.83795
0
LINE
8
BLACK
6
CONTINUOUS
10
2.80457
20
2.83795
11
2.87543
21
2.83795
0
LINE
8
BLACK
6
CONTINUOUS
10
2.87543
20
2.83795
11
2.87543
21
2.73953
0
LINE
8
BLACK
6
CONTINUOUS
10
2.54
20
2.78
11
2.48
21
2.78
0
LINE
8
BLACK
6
CONTINUOUS
10
2.48
20
2.78
11
2.48
21
2.84
0
LINE
8
BLACK
6
CONTINUOUS
10
2.48
20
2.84
11
2.54
21
2.84
0
LINE
8
BLACK
6
CONTINUOUS
10
2.54
20
2.84
11
2.54
21
2.78
0
LINE
8
BLACK
6
CONTINUOUS
10
2.44
20
2.78
11
2.38
21
2.78
0
LINE
8
BLACK
6
CONTINUOUS
10
2.38
20
2.78
11
2.38
21
2.84
0
LINE
8
BLACK
6
CONTINUOUS
10
2.38
20
2.84
11
2.44
21
2.84
0
LINE
8
BLACK
6
CONTINUOUS
10
2.44
20
2.84
11
2.44
21
2.78
0
LINE
8
BLACK
6
CONTINUOUS
10
2.64
20
2.7825
11
2.605
21
2.7825
0
LINE
8
BLACK
6
CONTINUOUS
10
2.605
20
2.7825
11
2.605
21
2.8375
0
LINE
8
BLACK
6
CONTINUOUS
10
2.605
20
2.8375
11
2.64
21
2.8375
0
LINE
8
BLACK
6
CONTINUOUS
10
2.64
20
2.8375
11
2.64
21
2.7825
0
LINE
8
BLACK
6
CONTINUOUS
10
2.715
20
2.7825
11
2.68
21
2.7825
0
LINE
8
BLACK
6
CONTINUOUS
10
2.68
20
2.7825
11
2.68
21
2.8375
0
LINE
8
BLACK
6
CONTINUOUS
10
2.68
20
2.8375
11
2.715
21
2.8375
0
LINE
8
BLACK
6
CONTINUOUS
10
2.715
20
2.8375
11
2.715
21
2.7825
0
LINE
8
BLACK
6
CONTINUOUS
10
0.50524
20
2.82043
11
0.35524
21
2.82043
0
LINE
8
BLACK
6
CONTINUOUS
10
0.35524
20
2.82043
11
0.35524
21
2.97043
0
LINE
8
BLACK
6
CONTINUOUS
10
0.35524
20
2.97043
11
0.50524
21
2.97043
0
LINE
8
BLACK
6
CONTINUOUS
10
0.50524
20
2.97043
11
0.50524
21
2.82043
0
LINE
8
BLACK
6
CONTINUOUS
10
0.702091
20
2.82043
11
0.552091
21
2.82043
0
LINE
8
BLACK
6
CONTINUOUS
10
0.552091
20
2.82043
11
0.552091
21
2.97043
0
LINE
8
BLACK
6
CONTINUOUS
10
0.552091
20
2.97043
11
0.702091
21
2.97043
0
LINE
8
BLACK
6
CONTINUOUS
10
0.702091
20
2.97043
11
0.702091
21
2.82043
0
LINE
8
BLACK
6
CONTINUOUS
10
1.86535
20
2.82407
11
1.78661
21
2.82407
0
LINE
8
BLACK
6
CONTINUOUS
10
1.78661
20
2.82407
11
1.78661
21
2.84927
0
LINE
8
BLACK
6
CONTINUOUS
10
1.78661
20
2.84927
11
1.86535
21
2.84927
0
LINE
8
BLACK
6
CONTINUOUS
10
1.86535
20
2.84927
11
1.86535
21
2.82407
0
LINE
8
BLACK
6
CONTINUOUS
10
2.11339
20
2.82407
11
2.03465
21
2.82407
0
LINE
8
BLACK
6
CONTINUOUS
10
2.03465
20
2.82407
11
2.03465
21
2.84927
0
LINE
8
BLACK
6
CONTINUOUS
10
2.03465
20
2.84927
11
2.11339
21
2.84927
0
LINE
8
BLACK
6
CONTINUOUS
10
2.11339
20
2.84927
11
2.11339
21
2.82407
0
LINE
8
BLACK
6
CONTINUOUS
10
2.44
20
2.88
11
2.38
21
2.88
0
LINE
8
BLACK
6
CONTINUOUS
10
2.38
20
2.88
11
2.38
21
2.94
0
LINE
8
BLACK
6
CONTINUOUS
10
2.38
20
2.94
11
2.44
21
2.94
0
LINE
8
BLACK
6
CONTINUOUS
10
2.44
20
2.94
11
2.44
21
2.88
0
LINE
8
BLACK
6
CONTINUOUS
10
2.54
20
2.88
11
2.48
21
2.88
0
LINE
8
BLACK
6
CONTINUOUS
10
2.48
20
2.88
11
2.48
21
2.94
0
LINE
8
BLACK
6
CONTINUOUS
10
2.48
20
2.94
11
2.54
21
2.94
0
LINE
8
BLACK
6
CONTINUOUS
10
2.54
20
2.94
11
2.54
21
2.88
0
LINE
8
BLACK
6
CONTINUOUS
10
2.64
20
2.8825
11
2.605
21
2.8825
0
LINE
8
BLACK
6
CONTINUOUS
10
2.605
20
2.8825
11
2.605
21
2.9375
0
LINE
8
BLACK
6
CONTINUOUS
10
2.605
20
2.9375
11
2.64
21
2.9375
0
LINE
8
BLACK
6
CONTINUOUS
10
2.64
20
2.9375
11
2.64
21
2.8825
0
LINE
8
BLACK
6
CONTINUOUS
10
2.715
20
2.8825
11
2.68
21
2.8825
0
LINE
8
BLACK
6
CONTINUOUS
10
2.68
20
2.8825
11
2.68
21
2.9375
0
LINE
8
BLACK
6
CONTINUOUS
10
2.68
20
2.9375
11
2.715
21
2.9375
0
LINE
8
BLACK
6
CONTINUOUS
10
2.715
20
2.9375
11
2.715
21
2.8825
0
LINE
8
BLACK
6
CONTINUOUS
10
2.94
20
2.91
11
2.88
21
2.91
0
LINE
8
BLACK
6
CONTINUOUS
10
2.88
20
2.91
11
2.88
21
2.97
0
LINE
8
BLACK
6
CONTINUOUS
10
2.88
20
2.97
11
2.94
21
2.97
0
LINE
8
BLACK
6
CONTINUOUS
10
2.94
20
2.97
11
2.94
21
2.91
0
LINE
8
BLACK
6
CONTINUOUS
10
2.84
20
2.91
11
2.78
21
2.91
0
LINE
8
BLACK
6
CONTINUOUS
10
2.78
20
2.91
11
2.78
21
2.97
0
LINE
8
BLACK
6
CONTINUOUS
10
2.78
20
2.97
11
2.84
21
2.97
0
LINE
8
BLACK
6
CONTINUOUS
10
2.84
20
2.97
11
2.84
21
2.91
0
LINE
8
BLACK
6
CONTINUOUS
10
2.54
20
2.98
11
2.48
21
2.98
0
LINE
8
BLACK
6
CONTINUOUS
10
2.48
20
2.98
11
2.48
21
3.04
0
LINE
8
BLACK
6
CONTINUOUS
10
2.48
20
3.04
11
2.54
21
3.04
0
LINE
8
BLACK
6
CONTINUOUS
10
2.54
20
3.04
11
2.54
21
2.98
0
LINE
8
BLACK
6
CONTINUOUS
10
2.44
20
2.98
11
2.38
21
2.98
0
LINE
8
BLACK
6
CONTINUOUS
10
2.38
20
2.98
11
2.38
21
3.04
0
LINE
8
BLACK
6
CONTINUOUS
10
2.38
20
3.04
11
2.44
21
3.04
0
LINE
8
BLACK
6
CONTINUOUS
10
2.44
20
3.04
11
2.44
21
2.98
0
LINE
8
BLACK
6
CONTINUOUS
10
1.82094
20
3.03936
11
1.82196
21
3.03946
0
LINE
8
BLACK
6
CONTINUOUS
10
1.82196
20
3.03946
11
1.82525
21
3.03825
0
LINE
8
BLACK
6
CONTINUOUS
10
1.82525
20
3.03825
11
1.82768
21
3.03573
0
LINE
8
BLACK
6
CONTINUOUS
10
1.82768
20
3.03573
11
1.82878
21
3.0324
0
LINE
8
BLACK
6
CONTINUOUS
10
1.82878
20
3.0324
11
1.82833
21
3.02893
0
LINE
8
BLACK
6
CONTINUOUS
10
1.82833
20
3.02893
11
1.82808
21
3.02855
0
LINE
8
BLACK
6
CONTINUOUS
10
1.82808
20
3.02855
11
1.82606
21
3.02156
0
LINE
8
BLACK
6
CONTINUOUS
10
1.82606
20
3.02156
11
1.82498
21
3.0139
0
LINE
8
BLACK
6
CONTINUOUS
10
1.82498
20
3.0139
11
1.82497
21
3.00617
0
LINE
8
BLACK
6
CONTINUOUS
10
1.82497
20
3.00617
11
1.82605
21
2.99851
0
LINE
8
BLACK
6
CONTINUOUS
10
1.82605
20
2.99851
11
1.82806
21
2.9915
0
LINE
8
BLACK
6
CONTINUOUS
10
1.82806
20
2.9915
11
1.82832
21
2.99111
0
LINE
8
BLACK
6
CONTINUOUS
10
1.82832
20
2.99111
11
1.82875
21
2.98763
0
LINE
8
BLACK
6
CONTINUOUS
10
1.82875
20
2.98763
11
1.82764
21
2.98431
0
LINE
8
BLACK
6
CONTINUOUS
10
1.82764
20
2.98431
11
1.82519
21
2.98181
0
LINE
8
BLACK
6
CONTINUOUS
10
1.82519
20
2.98181
11
1.8219
21
2.98061
0
LINE
8
BLACK
6
CONTINUOUS
10
1.8219
20
2.98061
11
1.82094
21
2.9807
0
LINE
8
BLACK
6
CONTINUOUS
10
1.82094
20
2.9807
11
1.82094
21
2.98047
0
LINE
8
BLACK
6
CONTINUOUS
10
1.82094
20
2.98047
11
1.77961
21
2.98047
0
LINE
8
BLACK
6
CONTINUOUS
10
1.77961
20
2.98047
11
1.77961
21
3.03953
0
LINE
8
BLACK
6
CONTINUOUS
10
1.77961
20
3.03953
11
1.82094
21
3.03953
0
LINE
8
BLACK
6
CONTINUOUS
10
1.82094
20
3.03953
11
1.82094
21
3.03936
0
LINE
8
BLACK
6
CONTINUOUS
10
1.98039
20
2.98047
11
1.93906
21
2.98047
0
LINE
8
BLACK
6
CONTINUOUS
10
1.93906
20
2.98047
11
1.93906
21
2.98064
0
LINE
8
BLACK
6
CONTINUOUS
10
1.93906
20
2.98064
11
1.93804
21
2.98054
0
LINE
8
BLACK
6
CONTINUOUS
10
1.93804
20
2.98054
11
1.93475
21
2.98175
0
LINE
8
BLACK
6
CONTINUOUS
10
1.93475
20
2.98175
11
1.93232
21
2.98427
0
LINE
8
BLACK
6
CONTINUOUS
10
1.93232
20
2.98427
11
1.93122
21
2.9876
0
LINE
8
BLACK
6
CONTINUOUS
10
1.93122
20
2.9876
11
1.93167
21
2.99107
0
LINE
8
BLACK
6
CONTINUOUS
10
1.93167
20
2.99107
11
1.93192
21
2.99145
0
LINE
8
BLACK
6
CONTINUOUS
10
1.93192
20
2.99145
11
1.93394
21
2.99844
0
LINE
8
BLACK
6
CONTINUOUS
10
1.93394
20
2.99844
11
1.93502
21
3.0061
0
LINE
8
BLACK
6
CONTINUOUS
10
1.93502
20
3.0061
11
1.93503
21
3.01383
0
LINE
8
BLACK
6
CONTINUOUS
10
1.93503
20
3.01383
11
1.93395
21
3.02149
0
LINE
8
BLACK
6
CONTINUOUS
10
1.93395
20
3.02149
11
1.93194
21
3.0285
0
LINE
8
BLACK
6
CONTINUOUS
10
1.93194
20
3.0285
11
1.93168
21
3.02889
0
LINE
8
BLACK
6
CONTINUOUS
10
1.93168
20
3.02889
11
1.93125
21
3.03237
0
LINE
8
BLACK
6
CONTINUOUS
10
1.93125
20
3.03237
11
1.93236
21
3.03569
0
LINE
8
BLACK
6
CONTINUOUS
10
1.93236
20
3.03569
11
1.93481
21
3.03819
0
LINE
8
BLACK
6
CONTINUOUS
10
1.93481
20
3.03819
11
1.9381
21
3.03939
0
LINE
8
BLACK
6
CONTINUOUS
10
1.9381
20
3.03939
11
1.93906
21
3.0393
0
LINE
8
BLACK
6
CONTINUOUS
10
1.93906
20
3.0393
11
1.93906
21
3.03953
0
LINE
8
BLACK
6
CONTINUOUS
10
1.93906
20
3.03953
11
1.98039
21
3.03953
0
LINE
8
BLACK
6
CONTINUOUS
10
1.98039
20
3.03953
11
1.98039
21
2.98047
0
LINE
8
BLACK
6
CONTINUOUS
10
2.64
20
2.9825
11
2.605
21
2.9825
0
LINE
8
BLACK
6
CONTINUOUS
10
2.605
20
2.9825
11
2.605
21
3.0375
0
LINE
8
BLACK
6
CONTINUOUS
10
2.605
20
3.0375
11
2.64
21
3.0375
0
LINE
8
BLACK
6
CONTINUOUS
10
2.64
20
3.0375
11
2.64
21
2.9825
0
LINE
8
BLACK
6
CONTINUOUS
10
2.715
20
2.9825
11
2.68
21
2.9825
0
LINE
8
BLACK
6
CONTINUOUS
10
2.68
20
2.9825
11
2.68
21
3.0375
0
LINE
8
BLACK
6
CONTINUOUS
10
2.68
20
3.0375
11
2.715
21
3.0375
0
LINE
8
BLACK
6
CONTINUOUS
10
2.715
20
3.0375
11
2.715
21
2.9825
0
LINE
8
BLACK
6
CONTINUOUS
10
2.0675
20
2.98458
11
2.0125
21
2.98458
0
LINE
8
BLACK
6
CONTINUOUS
10
2.0125
20
2.98458
11
2.0125
21
3.01958
0
LINE
8
BLACK
6
CONTINUOUS
10
2.0125
20
3.01958
11
2.0675
21
3.01958
0
LINE
8
BLACK
6
CONTINUOUS
10
2.0675
20
3.01958
11
2.0675
21
2.98458
0
LINE
8
BLACK
6
CONTINUOUS
10
2.94
20
3.01
11
2.88
21
3.01
0
LINE
8
BLACK
6
CONTINUOUS
10
2.88
20
3.01
11
2.88
21
3.07
0
LINE
8
BLACK
6
CONTINUOUS
10
2.88
20
3.07
11
2.94
21
3.07
0
LINE
8
BLACK
6
CONTINUOUS
10
2.94
20
3.07
11
2.94
21
3.01
0
LINE
8
BLACK
6
CONTINUOUS
10
2.84
20
3.01
11
2.78
21
3.01
0
LINE
8
BLACK
6
CONTINUOUS
10
2.78
20
3.01
11
2.78
21
3.07
0
LINE
8
BLACK
6
CONTINUOUS
10
2.78
20
3.07
11
2.84
21
3.07
0
LINE
8
BLACK
6
CONTINUOUS
10
2.84
20
3.07
11
2.84
21
3.01
0
LINE
8
BLACK
6
CONTINUOUS
10
0.50524
20
3.01728
11
0.35524
21
3.01728
0
LINE
8
BLACK
6
CONTINUOUS
10
0.35524
20
3.01728
11
0.35524
21
3.16728
0
LINE
8
BLACK
6
CONTINUOUS
10
0.35524
20
3.16728
11
0.50524
21
3.16728
0
LINE
8
BLACK
6
CONTINUOUS
10
0.50524
20
3.16728
11
0.50524
21
3.01728
0
LINE
8
BLACK
6
CONTINUOUS
10
0.702091
20
3.01728
11
0.552091
21
3.01728
0
LINE
8
BLACK
6
CONTINUOUS
10
0.552091
20
3.01728
11
0.552091
21
3.16728
0
LINE
8
BLACK
6
CONTINUOUS
10
0.552091
20
3.16728
11
0.702091
21
3.16728
0
LINE
8
BLACK
6
CONTINUOUS
10
0.702091
20
3.16728
11
0.702091
21
3.01728
0
LINE
8
BLACK
6
CONTINUOUS
10
2.0675
20
3.05958
11
2.0125
21
3.05958
0
LINE
8
BLACK
6
CONTINUOUS
10
2.0125
20
3.05958
11
2.0125
21
3.09458
0
LINE
8
BLACK
6
CONTINUOUS
10
2.0125
20
3.09458
11
2.0675
21
3.09458
0
LINE
8
BLACK
6
CONTINUOUS
10
2.0675
20
3.09458
11
2.0675
21
3.05958
0
LINE
8
BLACK
6
CONTINUOUS
10
1.34352
20
3.17242
11
1.352
21
3.17073
0
LINE
8
BLACK
6
CONTINUOUS
10
1.352
20
3.17073
11
1.36003
21
3.16753
0
LINE
8
BLACK
6
CONTINUOUS
10
1.36003
20
3.16753
11
1.36734
21
3.16292
0
LINE
8
BLACK
6
CONTINUOUS
10
1.36734
20
3.16292
11
1.37369
21
3.15705
0
LINE
8
BLACK
6
CONTINUOUS
10
1.37369
20
3.15705
11
1.37886
21
3.15012
0
LINE
8
BLACK
6
CONTINUOUS
10
1.37886
20
3.15012
11
1.38269
21
3.14237
0
LINE
8
BLACK
6
CONTINUOUS
10
1.38269
20
3.14237
11
1.38504
21
3.13405
0
LINE
8
BLACK
6
CONTINUOUS
10
1.38504
20
3.13405
11
1.38583
21
3.12544
0
LINE
8
BLACK
6
CONTINUOUS
10
1.38583
20
3.12544
11
1.38576
21
3.12296
0
LINE
8
BLACK
6
CONTINUOUS
10
1.38576
20
3.12296
11
1.38452
21
3.11441
0
LINE
8
BLACK
6
CONTINUOUS
10
1.38452
20
3.11441
11
1.38174
21
3.10622
0
LINE
8
BLACK
6
CONTINUOUS
10
1.38174
20
3.10622
11
1.37752
21
3.09868
0
LINE
8
BLACK
6
CONTINUOUS
10
1.37752
20
3.09868
11
1.37199
21
3.09203
0
LINE
8
BLACK
6
CONTINUOUS
10
1.37199
20
3.09203
11
1.36534
21
3.0865
0
LINE
8
BLACK
6
CONTINUOUS
10
1.36534
20
3.0865
11
1.3578
21
3.08228
0
LINE
8
BLACK
6
CONTINUOUS
10
1.3578
20
3.08228
11
1.34961
21
3.0795
0
LINE
8
BLACK
6
CONTINUOUS
10
1.34961
20
3.0795
11
1.34106
21
3.07826
0
LINE
8
BLACK
6
CONTINUOUS
10
1.34106
20
3.07826
11
1.33242
21
3.0786
0
LINE
8
BLACK
6
CONTINUOUS
10
1.33242
20
3.0786
11
1.32398
21
3.0805
0
LINE
8
BLACK
6
CONTINUOUS
10
1.32398
20
3.0805
11
1.31604
21
3.08392
0
LINE
8
BLACK
6
CONTINUOUS
10
1.31604
20
3.08392
11
1.30885
21
3.08872
0
LINE
8
BLACK
6
CONTINUOUS
10
1.30885
20
3.08872
11
1.30266
21
3.09475
0
LINE
8
BLACK
6
CONTINUOUS
10
1.30266
20
3.09475
11
1.29767
21
3.10181
0
LINE
8
BLACK
6
CONTINUOUS
10
1.29767
20
3.10181
11
1.29405
21
3.10967
0
LINE
8
BLACK
6
CONTINUOUS
10
1.29405
20
3.10967
11
1.29192
21
3.11805
0
LINE
8
BLACK
6
CONTINUOUS
10
1.29192
20
3.11805
11
1.29135
21
3.12667
0
LINE
8
BLACK
6
CONTINUOUS
10
1.29135
20
3.12667
11
1.29237
21
3.13526
0
LINE
8
BLACK
6
CONTINUOUS
10
1.29237
20
3.13526
11
1.29493
21
3.14352
0
LINE
8
BLACK
6
CONTINUOUS
10
1.29493
20
3.14352
11
1.29896
21
3.15117
0
LINE
8
BLACK
6
CONTINUOUS
10
1.29896
20
3.15117
11
1.30431
21
3.15796
0
LINE
8
BLACK
6
CONTINUOUS
10
1.30431
20
3.15796
11
1.31081
21
3.16366
0
LINE
8
BLACK
6
CONTINUOUS
10
1.31081
20
3.16366
11
1.31824
21
3.16808
0
LINE
8
BLACK
6
CONTINUOUS
10
1.31824
20
3.16808
11
1.32635
21
3.17107
0
LINE
8
BLACK
6
CONTINUOUS
10
1.32635
20
3.17107
11
1.33488
21
3.17253
0
LINE
8
BLACK
6
CONTINUOUS
10
1.33488
20
3.17253
11
1.34352
21
3.17242
0
LINE
8
BLACK
6
CONTINUOUS
10
1.54037
20
3.17242
11
1.54885
21
3.17073
0
LINE
8
BLACK
6
CONTINUOUS
10
1.54885
20
3.17073
11
1.55688
21
3.16753
0
LINE
8
BLACK
6
CONTINUOUS
10
1.55688
20
3.16753
11
1.56419
21
3.16292
0
LINE
8
BLACK
6
CONTINUOUS
10
1.56419
20
3.16292
11
1.57054
21
3.15705
0
LINE
8
BLACK
6
CONTINUOUS
10
1.57054
20
3.15705
11
1.57572
21
3.15012
0
LINE
8
BLACK
6
CONTINUOUS
10
1.57572
20
3.15012
11
1.57954
21
3.14237
0
LINE
8
BLACK
6
CONTINUOUS
10
1.57954
20
3.14237
11
1.58189
21
3.13405
0
LINE
8
BLACK
6
CONTINUOUS
10
1.58189
20
3.13405
11
1.58268
21
3.12544
0
LINE
8
BLACK
6
CONTINUOUS
10
1.58268
20
3.12544
11
1.58261
21
3.12296
0
LINE
8
BLACK
6
CONTINUOUS
10
1.58261
20
3.12296
11
1.58137
21
3.11441
0
LINE
8
BLACK
6
CONTINUOUS
10
1.58137
20
3.11441
11
1.57859
21
3.10622
0
LINE
8
BLACK
6
CONTINUOUS
10
1.57859
20
3.10622
11
1.57437
21
3.09868
0
LINE
8
BLACK
6
CONTINUOUS
10
1.57437
20
3.09868
11
1.56884
21
3.09203
0
LINE
8
BLACK
6
CONTINUOUS
10
1.56884
20
3.09203
11
1.56219
21
3.0865
0
LINE
8
BLACK
6
CONTINUOUS
10
1.56219
20
3.0865
11
1.55465
21
3.08228
0
LINE
8
BLACK
6
CONTINUOUS
10
1.55465
20
3.08228
11
1.54646
21
3.0795
0
LINE
8
BLACK
6
CONTINUOUS
10
1.54646
20
3.0795
11
1.53791
21
3.07826
0
LINE
8
BLACK
6
CONTINUOUS
10
1.53791
20
3.07826
11
1.52927
21
3.0786
0
LINE
8
BLACK
6
CONTINUOUS
10
1.52927
20
3.0786
11
1.52083
21
3.0805
0
LINE
8
BLACK
6
CONTINUOUS
10
1.52083
20
3.0805
11
1.51289
21
3.08392
0
LINE
8
BLACK
6
CONTINUOUS
10
1.51289
20
3.08392
11
1.5057
21
3.08872
0
LINE
8
BLACK
6
CONTINUOUS
10
1.5057
20
3.08872
11
1.49951
21
3.09475
0
LINE
8
BLACK
6
CONTINUOUS
10
1.49951
20
3.09475
11
1.49452
21
3.10181
0
LINE
8
BLACK
6
CONTINUOUS
10
1.49452
20
3.10181
11
1.4909
21
3.10967
0
LINE
8
BLACK
6
CONTINUOUS
10
1.4909
20
3.10967
11
1.48877
21
3.11805
0
LINE
8
BLACK
6
CONTINUOUS
10
1.48877
20
3.11805
11
1.48821
21
3.12667
0
LINE
8
BLACK
6
CONTINUOUS
10
1.48821
20
3.12667
11
1.48922
21
3.13526
0
LINE
8
BLACK
6
CONTINUOUS
10
1.48922
20
3.13526
11
1.49179
21
3.14352
0
LINE
8
BLACK
6
CONTINUOUS
10
1.49179
20
3.14352
11
1.49581
21
3.15117
0
LINE
8
BLACK
6
CONTINUOUS
10
1.49581
20
3.15117
11
1.50116
21
3.15796
0
LINE
8
BLACK
6
CONTINUOUS
10
1.50116
20
3.15796
11
1.50766
21
3.16366
0
LINE
8
BLACK
6
CONTINUOUS
10
1.50766
20
3.16366
11
1.51509
21
3.16808
0
LINE
8
BLACK
6
CONTINUOUS
10
1.51509
20
3.16808
11
1.52321
21
3.17107
0
LINE
8
BLACK
6
CONTINUOUS
10
1.52321
20
3.17107
11
1.53173
21
3.17253
0
LINE
8
BLACK
6
CONTINUOUS
10
1.53173
20
3.17253
11
1.54037
21
3.17242
0
LINE
8
BLACK
6
CONTINUOUS
10
2.54
20
3.08
11
2.48
21
3.08
0
LINE
8
BLACK
6
CONTINUOUS
10
2.48
20
3.08
11
2.48
21
3.14
0
LINE
8
BLACK
6
CONTINUOUS
10
2.48
20
3.14
11
2.54
21
3.14
0
LINE
8
BLACK
6
CONTINUOUS
10
2.54
20
3.14
11
2.54
21
3.08
0
LINE
8
BLACK
6
CONTINUOUS
10
2.44
20
3.08
11
2.38
21
3.08
0
LINE
8
BLACK
6
CONTINUOUS
10
2.38
20
3.08
11
2.38
21
3.14
0
LINE
8
BLACK
6
CONTINUOUS
10
2.38
20
3.14
11
2.44
21
3.14
0
LINE
8
BLACK
6
CONTINUOUS
10
2.44
20
3.14
11
2.44
21
3.08
0
LINE
8
BLACK
6
CONTINUOUS
10
2.715
20
3.0825
11
2.68
21
3.0825
0
LINE
8
BLACK
6
CONTINUOUS
10
2.68
20
3.0825
11
2.68
21
3.1375
0
LINE
8
BLACK
6
CONTINUOUS
10
2.68
20
3.1375
11
2.715
21
3.1375
0
LINE
8
BLACK
6
CONTINUOUS
10
2.715
20
3.1375
11
2.715
21
3.0825
0
LINE
8
BLACK
6
CONTINUOUS
10
2.64
20
3.0825
11
2.605
21
3.0825
0
LINE
8
BLACK
6
CONTINUOUS
10
2.605
20
3.0825
11
2.605
21
3.1375
0
LINE
8
BLACK
6
CONTINUOUS
10
2.605
20
3.1375
11
2.64
21
3.1375
0
LINE
8
BLACK
6
CONTINUOUS
10
2.64
20
3.1375
11
2.64
21
3.0825
0
LINE
8
BLACK
6
CONTINUOUS
10
2.84
20
3.11
11
2.78
21
3.11
0
LINE
8
BLACK
6
CONTINUOUS
10
2.78
20
3.11
11
2.78
21
3.17
0
LINE
8
BLACK
6
CONTINUOUS
10
2.78
20
3.17
11
2.84
21
3.17
0
LINE
8
BLACK
6
CONTINUOUS
10
2.84
20
3.17
11
2.84
21
3.11
0
LINE
8
BLACK
6
CONTINUOUS
10
2.94
20
3.11
11
2.88
21
3.11
0
LINE
8
BLACK
6
CONTINUOUS
10
2.88
20
3.11
11
2.88
21
3.17
0
LINE
8
BLACK
6
CONTINUOUS
10
2.88
20
3.17
11
2.94
21
3.17
0
LINE
8
BLACK
6
CONTINUOUS
10
2.94
20
3.17
11
2.94
21
3.11
0
LINE
8
BLACK
6
CONTINUOUS
10
2.11339
20
3.14573
11
2.03465
21
3.14573
0
LINE
8
BLACK
6
CONTINUOUS
10
2.03465
20
3.14573
11
2.03465
21
3.17093
0
LINE
8
BLACK
6
CONTINUOUS
10
2.03465
20
3.17093
11
2.11339
21
3.17093
0
LINE
8
BLACK
6
CONTINUOUS
10
2.11339
20
3.17093
11
2.11339
21
3.14573
0
LINE
8
BLACK
6
CONTINUOUS
10
1.86535
20
3.14573
11
1.78661
21
3.14573
0
LINE
8
BLACK
6
CONTINUOUS
10
1.78661
20
3.14573
11
1.78661
21
3.17093
0
LINE
8
BLACK
6
CONTINUOUS
10
1.78661
20
3.17093
11
1.86535
21
3.17093
0
LINE
8
BLACK
6
CONTINUOUS
10
1.86535
20
3.17093
11
1.86535
21
3.14573
0
LINE
8
BLACK
6
CONTINUOUS
10
2.54
20
3.18
11
2.48
21
3.18
0
LINE
8
BLACK
6
CONTINUOUS
10
2.48
20
3.18
11
2.48
21
3.24
0
LINE
8
BLACK
6
CONTINUOUS
10
2.48
20
3.24
11
2.54
21
3.24
0
LINE
8
BLACK
6
CONTINUOUS
10
2.54
20
3.24
11
2.54
21
3.18
0
LINE
8
BLACK
6
CONTINUOUS
10
2.44
20
3.18
11
2.38
21
3.18
0
LINE
8
BLACK
6
CONTINUOUS
10
2.38
20
3.18
11
2.38
21
3.24
0
LINE
8
BLACK
6
CONTINUOUS
10
2.38
20
3.24
11
2.44
21
3.24
0
LINE
8
BLACK
6
CONTINUOUS
10
2.44
20
3.24
11
2.44
21
3.18
0
LINE
8
BLACK
6
CONTINUOUS
10
2.715
20
3.1825
11
2.68
21
3.1825
0
LINE
8
BLACK
6
CONTINUOUS
10
2.68
20
3.1825
11
2.68
21
3.2375
0
LINE
8
BLACK
6
CONTINUOUS
10
2.68
20
3.2375
11
2.715
21
3.2375
0
LINE
8
BLACK
6
CONTINUOUS
10
2.715
20
3.2375
11
2.715
21
3.1825
0
LINE
8
BLACK
6
CONTINUOUS
10
2.64
20
3.1825
11
2.605
21
3.1825
0
LINE
8
BLACK
6
CONTINUOUS
10
2.605
20
3.1825
11
2.605
21
3.2375
0
LINE
8
BLACK
6
CONTINUOUS
10
2.605
20
3.2375
11
2.64
21
3.2375
0
LINE
8
BLACK
6
CONTINUOUS
10
2.64
20
3.2375
11
2.64
21
3.1825
0
LINE
8
BLACK
6
CONTINUOUS
10
0.702091
20
3.21413
11
0.552091
21
3.21413
0
LINE
8
BLACK
6
CONTINUOUS
10
0.552091
20
3.21413
11
0.552091
21
3.36413
0
LINE
8
BLACK
6
CONTINUOUS
10
0.552091
20
3.36413
11
0.702091
21
3.36413
0
LINE
8
BLACK
6
CONTINUOUS
10
0.702091
20
3.36413
11
0.702091
21
3.21413
0
LINE
8
BLACK
6
CONTINUOUS
10
0.50524
20
3.21413
11
0.35524
21
3.21413
0
LINE
8
BLACK
6
CONTINUOUS
10
0.35524
20
3.21413
11
0.35524
21
3.36413
0
LINE
8
BLACK
6
CONTINUOUS
10
0.35524
20
3.36413
11
0.50524
21
3.36413
0
LINE
8
BLACK
6
CONTINUOUS
10
0.50524
20
3.36413
11
0.50524
21
3.21413
0
LINE
8
BLACK
6
CONTINUOUS
10
2.11339
20
3.24573
11
2.03465
21
3.24573
0
LINE
8
BLACK
6
CONTINUOUS
10
2.03465
20
3.24573
11
2.03465
21
3.27093
0
LINE
8
BLACK
6
CONTINUOUS
10
2.03465
20
3.27093
11
2.11339
21
3.27093
0
LINE
8
BLACK
6
CONTINUOUS
10
2.11339
20
3.27093
11
2.11339
21
3.24573
0
LINE
8
BLACK
6
CONTINUOUS
10
1.86535
20
3.24573
11
1.78661
21
3.24573
0
LINE
8
BLACK
6
CONTINUOUS
10
1.78661
20
3.24573
11
1.78661
21
3.27093
0
LINE
8
BLACK
6
CONTINUOUS
10
1.78661
20
3.27093
11
1.86535
21
3.27093
0
LINE
8
BLACK
6
CONTINUOUS
10
1.86535
20
3.27093
11
1.86535
21
3.24573
0
LINE
8
BLACK
6
CONTINUOUS
10
2.54
20
3.28
11
2.48
21
3.28
0
LINE
8
BLACK
6
CONTINUOUS
10
2.48
20
3.28
11
2.48
21
3.34
0
LINE
8
BLACK
6
CONTINUOUS
10
2.48
20
3.34
11
2.54
21
3.34
0
LINE
8
BLACK
6
CONTINUOUS
10
2.54
20
3.34
11
2.54
21
3.28
0
LINE
8
BLACK
6
CONTINUOUS
10
2.44
20
3.28
11
2.38
21
3.28
0
LINE
8
BLACK
6
CONTINUOUS
10
2.38
20
3.28
11
2.38
21
3.34
0
LINE
8
BLACK
6
CONTINUOUS
10
2.38
20
3.34
11
2.44
21
3.34
0
LINE
8
BLACK
6
CONTINUOUS
10
2.44
20
3.34
11
2.44
21
3.28
0
LINE
8
BLACK
6
CONTINUOUS
10
2.64
20
3.2825
11
2.605
21
3.2825
0
LINE
8
BLACK
6
CONTINUOUS
10
2.605
20
3.2825
11
2.605
21
3.3375
0
LINE
8
BLACK
6
CONTINUOUS
10
2.605
20
3.3375
11
2.64
21
3.3375
0
LINE
8
BLACK
6
CONTINUOUS
10
2.64
20
3.3375
11
2.64
21
3.2825
0
LINE
8
BLACK
6
CONTINUOUS
10
2.715
20
3.2825
11
2.68
21
3.2825
0
LINE
8
BLACK
6
CONTINUOUS
10
2.68
20
3.2825
11
2.68
21
3.3375
0
LINE
8
BLACK
6
CONTINUOUS
10
2.68
20
3.3375
11
2.715
21
3.3375
0
LINE
8
BLACK
6
CONTINUOUS
10
2.715
20
3.3375
11
2.715
21
3.2825
0
LINE
8
BLACK
6
CONTINUOUS
10
1.98039
20
3.40047
11
1.93906
21
3.40047
0
LINE
8
BLACK
6
CONTINUOUS
10
1.93906
20
3.40047
11
1.93906
21
3.40064
0
LINE
8
BLACK
6
CONTINUOUS
10
1.93906
20
3.40064
11
1.93804
21
3.40054
0
LINE
8
BLACK
6
CONTINUOUS
10
1.93804
20
3.40054
11
1.93475
21
3.40175
0
LINE
8
BLACK
6
CONTINUOUS
10
1.93475
20
3.40175
11
1.93232
21
3.40427
0
LINE
8
BLACK
6
CONTINUOUS
10
1.93232
20
3.40427
11
1.93122
21
3.4076
0
LINE
8
BLACK
6
CONTINUOUS
10
1.93122
20
3.4076
11
1.93167
21
3.41107
0
LINE
8
BLACK
6
CONTINUOUS
10
1.93167
20
3.41107
11
1.93192
21
3.41145
0
LINE
8
BLACK
6
CONTINUOUS
10
1.93192
20
3.41145
11
1.93394
21
3.41844
0
LINE
8
BLACK
6
CONTINUOUS
10
1.93394
20
3.41844
11
1.93502
21
3.4261
0
LINE
8
BLACK
6
CONTINUOUS
10
1.93502
20
3.4261
11
1.93503
21
3.43383
0
LINE
8
BLACK
6
CONTINUOUS
10
1.93503
20
3.43383
11
1.93395
21
3.44149
0
LINE
8
BLACK
6
CONTINUOUS
10
1.93395
20
3.44149
11
1.93194
21
3.4485
0
LINE
8
BLACK
6
CONTINUOUS
10
1.93194
20
3.4485
11
1.93168
21
3.44889
0
LINE
8
BLACK
6
CONTINUOUS
10
1.93168
20
3.44889
11
1.93125
21
3.45237
0
LINE
8
BLACK
6
CONTINUOUS
10
1.93125
20
3.45237
11
1.93236
21
3.45569
0
LINE
8
BLACK
6
CONTINUOUS
10
1.93236
20
3.45569
11
1.93481
21
3.45819
0
LINE
8
BLACK
6
CONTINUOUS
10
1.93481
20
3.45819
11
1.9381
21
3.45939
0
LINE
8
BLACK
6
CONTINUOUS
10
1.9381
20
3.45939
11
1.93906
21
3.4593
0
LINE
8
BLACK
6
CONTINUOUS
10
1.93906
20
3.4593
11
1.93906
21
3.45953
0
LINE
8
BLACK
6
CONTINUOUS
10
1.93906
20
3.45953
11
1.98039
21
3.45953
0
LINE
8
BLACK
6
CONTINUOUS
10
1.98039
20
3.45953
11
1.98039
21
3.40047
0
LINE
8
BLACK
6
CONTINUOUS
10
1.82094
20
3.45936
11
1.82196
21
3.45946
0
LINE
8
BLACK
6
CONTINUOUS
10
1.82196
20
3.45946
11
1.82525
21
3.45825
0
LINE
8
BLACK
6
CONTINUOUS
10
1.82525
20
3.45825
11
1.82768
21
3.45573
0
LINE
8
BLACK
6
CONTINUOUS
10
1.82768
20
3.45573
11
1.82878
21
3.4524
0
LINE
8
BLACK
6
CONTINUOUS
10
1.82878
20
3.4524
11
1.82833
21
3.44893
0
LINE
8
BLACK
6
CONTINUOUS
10
1.82833
20
3.44893
11
1.82808
21
3.44855
0
LINE
8
BLACK
6
CONTINUOUS
10
1.82808
20
3.44855
11
1.82606
21
3.44156
0
LINE
8
BLACK
6
CONTINUOUS
10
1.82606
20
3.44156
11
1.82498
21
3.4339
0
LINE
8
BLACK
6
CONTINUOUS
10
1.82498
20
3.4339
11
1.82497
21
3.42617
0
LINE
8
BLACK
6
CONTINUOUS
10
1.82497
20
3.42617
11
1.82605
21
3.41851
0
LINE
8
BLACK
6
CONTINUOUS
10
1.82605
20
3.41851
11
1.82806
21
3.4115
0
LINE
8
BLACK
6
CONTINUOUS
10
1.82806
20
3.4115
11
1.82832
21
3.41111
0
LINE
8
BLACK
6
CONTINUOUS
10
1.82832
20
3.41111
11
1.82875
21
3.40763
0
LINE
8
BLACK
6
CONTINUOUS
10
1.82875
20
3.40763
11
1.82764
21
3.40431
0
LINE
8
BLACK
6
CONTINUOUS
10
1.82764
20
3.40431
11
1.82519
21
3.40181
0
LINE
8
BLACK
6
CONTINUOUS
10
1.82519
20
3.40181
11
1.8219
21
3.40061
0
LINE
8
BLACK
6
CONTINUOUS
10
1.8219
20
3.40061
11
1.82094
21
3.4007
0
LINE
8
BLACK
6
CONTINUOUS
10
1.82094
20
3.4007
11
1.82094
21
3.40047
0
LINE
8
BLACK
6
CONTINUOUS
10
1.82094
20
3.40047
11
1.77961
21
3.40047
0
LINE
8
BLACK
6
CONTINUOUS
10
1.77961
20
3.40047
11
1.77961
21
3.45953
0
LINE
8
BLACK
6
CONTINUOUS
10
1.77961
20
3.45953
11
1.82094
21
3.45953
0
LINE
8
BLACK
6
CONTINUOUS
10
1.82094
20
3.45953
11
1.82094
21
3.45936
0
LINE
8
BLACK
6
CONTINUOUS
10
2.0675
20
3.405
11
2.0125
21
3.405
0
LINE
8
BLACK
6
CONTINUOUS
10
2.0125
20
3.405
11
2.0125
21
3.44
0
LINE
8
BLACK
6
CONTINUOUS
10
2.0125
20
3.44
11
2.0675
21
3.44
0
LINE
8
BLACK
6
CONTINUOUS
10
2.0675
20
3.44
11
2.0675
21
3.405
0
LINE
8
BLACK
6
CONTINUOUS
10
2.0675
20
3.48
11
2.0125
21
3.48
0
LINE
8
BLACK
6
CONTINUOUS
10
2.0125
20
3.48
11
2.0125
21
3.515
0
LINE
8
BLACK
6
CONTINUOUS
10
2.0125
20
3.515
11
2.0675
21
3.515
0
LINE
8
BLACK
6
CONTINUOUS
10
2.0675
20
3.515
11
2.0675
21
3.48
0
LINE
8
BLACK
6
CONTINUOUS
10
0.40865
20
3.71779
11
0.422132
21
3.71602
0
LINE
8
BLACK
6
CONTINUOUS
10
0.422132
20
3.71602
11
0.43532
21
3.71271
0
LINE
8
BLACK
6
CONTINUOUS
10
0.43532
20
3.71271
11
0.44804
21
3.7079
0
LINE
8
BLACK
6
CONTINUOUS
10
0.44804
20
3.7079
11
0.460123
21
3.70166
0
LINE
8
BLACK
6
CONTINUOUS
10
0.460123
20
3.70166
11
0.471409
21
3.69408
0
LINE
8
BLACK
6
CONTINUOUS
10
0.471409
20
3.69408
11
0.481749
21
3.68525
0
LINE
8
BLACK
6
CONTINUOUS
10
0.481749
20
3.68525
11
0.491006
21
3.67529
0
LINE
8
BLACK
6
CONTINUOUS
10
0.491006
20
3.67529
11
0.499056
21
3.66433
0
LINE
8
BLACK
6
CONTINUOUS
10
0.499056
20
3.66433
11
0.505793
21
3.65252
0
LINE
8
BLACK
6
CONTINUOUS
10
0.505793
20
3.65252
11
0.511128
21
3.64001
0
LINE
8
BLACK
6
CONTINUOUS
10
0.511128
20
3.64001
11
0.51499
21
3.62697
0
LINE
8
BLACK
6
CONTINUOUS
10
0.51499
20
3.62697
11
0.517327
21
3.61358
0
LINE
8
BLACK
6
CONTINUOUS
10
0.517327
20
3.61358
11
0.51811
21
3.6
0
LINE
8
BLACK
6
CONTINUOUS
10
0.51811
20
3.6
11
0.517877
21
3.59258
0
LINE
8
BLACK
6
CONTINUOUS
10
0.517877
20
3.59258
11
0.516244
21
3.57908
0
LINE
8
BLACK
6
CONTINUOUS
10
0.516244
20
3.57908
11
0.513069
21
3.56586
0
LINE
8
BLACK
6
CONTINUOUS
10
0.513069
20
3.56586
11
0.508396
21
3.55309
0
LINE
8
BLACK
6
CONTINUOUS
10
0.508396
20
3.55309
11
0.502286
21
3.54094
0
LINE
8
BLACK
6
CONTINUOUS
10
0.502286
20
3.54094
11
0.494821
21
3.52958
0
LINE
8
BLACK
6
CONTINUOUS
10
0.494821
20
3.52958
11
0.486099
21
3.51915
0
LINE
8
BLACK
6
CONTINUOUS
10
0.486099
20
3.51915
11
0.476235
21
3.50979
0
LINE
8
BLACK
6
CONTINUOUS
10
0.476235
20
3.50979
11
0.465361
21
3.50162
0
LINE
8
BLACK
6
CONTINUOUS
10
0.465361
20
3.50162
11
0.453621
21
3.49476
0
LINE
8
BLACK
6
CONTINUOUS
10
0.453621
20
3.49476
11
0.44117
21
3.4893
0
LINE
8
BLACK
6
CONTINUOUS
10
0.44117
20
3.4893
11
0.428173
21
3.4853
0
LINE
8
BLACK
6
CONTINUOUS
10
0.428173
20
3.4853
11
0.414803
21
3.48282
0
LINE
8
BLACK
6
CONTINUOUS
10
0.414803
20
3.48282
11
0.401237
21
3.4819
0
LINE
8
BLACK
6
CONTINUOUS
10
0.401237
20
3.4819
11
0.387654
21
3.48254
0
LINE
8
BLACK
6
CONTINUOUS
10
0.387654
20
3.48254
11
0.374235
21
3.48473
0
LINE
8
BLACK
6
CONTINUOUS
10
0.374235
20
3.48473
11
0.361157
21
3.48846
0
LINE
8
BLACK
6
CONTINUOUS
10
0.361157
20
3.48846
11
0.348595
21
3.49366
0
LINE
8
BLACK
6
CONTINUOUS
10
0.348595
20
3.49366
11
0.336713
21
3.50028
0
LINE
8
BLACK
6
CONTINUOUS
10
0.336713
20
3.50028
11
0.325671
21
3.50821
0
LINE
8
BLACK
6
CONTINUOUS
10
0.325671
20
3.50821
11
0.315613
21
3.51736
0
LINE
8
BLACK
6
CONTINUOUS
10
0.315613
20
3.51736
11
0.306675
21
3.52761
0
LINE
8
BLACK
6
CONTINUOUS
10
0.306675
20
3.52761
11
0.298973
21
3.53882
0
LINE
8
BLACK
6
CONTINUOUS
10
0.298973
20
3.53882
11
0.29261
21
3.55083
0
LINE
8
BLACK
6
CONTINUOUS
10
0.29261
20
3.55083
11
0.28767
21
3.5635
0
LINE
8
BLACK
6
CONTINUOUS
10
0.28767
20
3.5635
11
0.28422
21
3.57665
0
LINE
8
BLACK
6
CONTINUOUS
10
0.28422
20
3.57665
11
0.282304
21
3.59012
0
LINE
8
BLACK
6
CONTINUOUS
10
0.282304
20
3.59012
11
0.281948
21
3.60371
0
LINE
8
BLACK
6
CONTINUOUS
10
0.281948
20
3.60371
11
0.283157
21
3.61725
0
LINE
8
BLACK
6
CONTINUOUS
10
0.283157
20
3.61725
11
0.285914
21
3.63057
0
LINE
8
BLACK
6
CONTINUOUS
10
0.285914
20
3.63057
11
0.290184
21
3.64348
0
LINE
8
BLACK
6
CONTINUOUS
10
0.290184
20
3.64348
11
0.295909
21
3.65581
0
LINE
8
BLACK
6
CONTINUOUS
10
0.295909
20
3.65581
11
0.303014
21
3.66741
0
LINE
8
BLACK
6
CONTINUOUS
10
0.303014
20
3.66741
11
0.311404
21
3.67811
0
LINE
8
BLACK
6
CONTINUOUS
10
0.311404
20
3.67811
11
0.320969
21
3.68777
0
LINE
8
BLACK
6
CONTINUOUS
10
0.320969
20
3.68777
11
0.331581
21
3.69627
0
LINE
8
BLACK
6
CONTINUOUS
10
0.331581
20
3.69627
11
0.3431
21
3.7035
0
LINE
8
BLACK
6
CONTINUOUS
10
0.3431
20
3.7035
11
0.355373
21
3.70935
0
LINE
8
BLACK
6
CONTINUOUS
10
0.355373
20
3.70935
11
0.368238
21
3.71376
0
LINE
8
BLACK
6
CONTINUOUS
10
0.368238
20
3.71376
11
0.381524
21
3.71666
0
LINE
8
BLACK
6
CONTINUOUS
10
0.381524
20
3.71666
11
0.395054
21
3.71801
0
LINE
8
BLACK
6
CONTINUOUS
10
0.395054
20
3.71801
11
0.40865
21
3.71779
0
LINE
8
BLACK
6
CONTINUOUS
10
2.80865
20
3.71779
11
2.82213
21
3.71602
0
LINE
8
BLACK
6
CONTINUOUS
10
2.82213
20
3.71602
11
2.83532
21
3.71271
0
LINE
8
BLACK
6
CONTINUOUS
10
2.83532
20
3.71271
11
2.84804
21
3.7079
0
LINE
8
BLACK
6
CONTINUOUS
10
2.84804
20
3.7079
11
2.86012
21
3.70166
0
LINE
8
BLACK
6
CONTINUOUS
10
2.86012
20
3.70166
11
2.87141
21
3.69408
0
LINE
8
BLACK
6
CONTINUOUS
10
2.87141
20
3.69408
11
2.88175
21
3.68525
0
LINE
8
BLACK
6
CONTINUOUS
10
2.88175
20
3.68525
11
2.89101
21
3.67529
0
LINE
8
BLACK
6
CONTINUOUS
10
2.89101
20
3.67529
11
2.89906
21
3.66433
0
LINE
8
BLACK
6
CONTINUOUS
10
2.89906
20
3.66433
11
2.90579
21
3.65252
0
LINE
8
BLACK
6
CONTINUOUS
10
2.90579
20
3.65252
11
2.91113
21
3.64001
0
LINE
8
BLACK
6
CONTINUOUS
10
2.91113
20
3.64001
11
2.91499
21
3.62697
0
LINE
8
BLACK
6
CONTINUOUS
10
2.91499
20
3.62697
11
2.91733
21
3.61358
0
LINE
8
BLACK
6
CONTINUOUS
10
2.91733
20
3.61358
11
2.91811
21
3.6
0
LINE
8
BLACK
6
CONTINUOUS
10
2.91811
20
3.6
11
2.91788
21
3.59258
0
LINE
8
BLACK
6
CONTINUOUS
10
2.91788
20
3.59258
11
2.91624
21
3.57908
0
LINE
8
BLACK
6
CONTINUOUS
10
2.91624
20
3.57908
11
2.91307
21
3.56586
0
LINE
8
BLACK
6
CONTINUOUS
10
2.91307
20
3.56586
11
2.9084
21
3.55309
0
LINE
8
BLACK
6
CONTINUOUS
10
2.9084
20
3.55309
11
2.90229
21
3.54094
0
LINE
8
BLACK
6
CONTINUOUS
10
2.90229
20
3.54094
11
2.89482
21
3.52958
0
LINE
8
BLACK
6
CONTINUOUS
10
2.89482
20
3.52958
11
2.8861
21
3.51915
0
LINE
8
BLACK
6
CONTINUOUS
10
2.8861
20
3.51915
11
2.87624
21
3.50979
0
LINE
8
BLACK
6
CONTINUOUS
10
2.87624
20
3.50979
11
2.86536
21
3.50162
0
LINE
8
BLACK
6
CONTINUOUS
10
2.86536
20
3.50162
11
2.85362
21
3.49476
0
LINE
8
BLACK
6
CONTINUOUS
10
2.85362
20
3.49476
11
2.84117
21
3.4893
0
LINE
8
BLACK
6
CONTINUOUS
10
2.84117
20
3.4893
11
2.82817
21
3.4853
0
LINE
8
BLACK
6
CONTINUOUS
10
2.82817
20
3.4853
11
2.8148
21
3.48282
0
LINE
8
BLACK
6
CONTINUOUS
10
2.8148
20
3.48282
11
2.80124
21
3.4819
0
LINE
8
BLACK
6
CONTINUOUS
10
2.80124
20
3.4819
11
2.78765
21
3.48254
0
LINE
8
BLACK
6
CONTINUOUS
10
2.78765
20
3.48254
11
2.77424
21
3.48473
0
LINE
8
BLACK
6
CONTINUOUS
10
2.77424
20
3.48473
11
2.76116
21
3.48846
0
LINE
8
BLACK
6
CONTINUOUS
10
2.76116
20
3.48846
11
2.74859
21
3.49366
0
LINE
8
BLACK
6
CONTINUOUS
10
2.74859
20
3.49366
11
2.73671
21
3.50028
0
LINE
8
BLACK
6
CONTINUOUS
10
2.73671
20
3.50028
11
2.72567
21
3.50821
0
LINE
8
BLACK
6
CONTINUOUS
10
2.72567
20
3.50821
11
2.71561
21
3.51736
0
LINE
8
BLACK
6
CONTINUOUS
10
2.71561
20
3.51736
11
2.70667
21
3.52761
0
LINE
8
BLACK
6
CONTINUOUS
10
2.70667
20
3.52761
11
2.69897
21
3.53882
0
LINE
8
BLACK
6
CONTINUOUS
10
2.69897
20
3.53882
11
2.69261
21
3.55083
0
LINE
8
BLACK
6
CONTINUOUS
10
2.69261
20
3.55083
11
2.68767
21
3.5635
0
LINE
8
BLACK
6
CONTINUOUS
10
2.68767
20
3.5635
11
2.68422
21
3.57665
0
LINE
8
BLACK
6
CONTINUOUS
10
2.68422
20
3.57665
11
2.6823
21
3.59012
0
LINE
8
BLACK
6
CONTINUOUS
10
2.6823
20
3.59012
11
2.68195
21
3.60371
0
LINE
8
BLACK
6
CONTINUOUS
10
2.68195
20
3.60371
11
2.68316
21
3.61725
0
LINE
8
BLACK
6
CONTINUOUS
10
2.68316
20
3.61725
11
2.68591
21
3.63057
0
LINE
8
BLACK
6
CONTINUOUS
10
2.68591
20
3.63057
11
2.69018
21
3.64348
0
LINE
8
BLACK
6
CONTINUOUS
10
2.69018
20
3.64348
11
2.69591
21
3.65581
0
LINE
8
BLACK
6
CONTINUOUS
10
2.69591
20
3.65581
11
2.70301
21
3.66741
0
LINE
8
BLACK
6
CONTINUOUS
10
2.70301
20
3.66741
11
2.7114
21
3.67811
0
LINE
8
BLACK
6
CONTINUOUS
10
2.7114
20
3.67811
11
2.72097
21
3.68777
0
LINE
8
BLACK
6
CONTINUOUS
10
2.72097
20
3.68777
11
2.73158
21
3.69627
0
LINE
8
BLACK
6
CONTINUOUS
10
2.73158
20
3.69627
11
2.7431
21
3.7035
0
LINE
8
BLACK
6
CONTINUOUS
10
2.7431
20
3.7035
11
2.75537
21
3.70935
0
LINE
8
BLACK
6
CONTINUOUS
10
2.75537
20
3.70935
11
2.76824
21
3.71376
0
LINE
8
BLACK
6
CONTINUOUS
10
2.76824
20
3.71376
11
2.78152
21
3.71666
0
LINE
8
BLACK
6
CONTINUOUS
10
2.78152
20
3.71666
11
2.79505
21
3.71801
0
LINE
8
BLACK
6
CONTINUOUS
10
2.79505
20
3.71801
11
2.80865
21
3.71779
0
LINE
8
BLACK
6
CONTINUOUS
10
1.34352
20
3.59029
11
1.352
21
3.58861
0
LINE
8
BLACK
6
CONTINUOUS
10
1.352
20
3.58861
11
1.36003
21
3.5854
0
LINE
8
BLACK
6
CONTINUOUS
10
1.36003
20
3.5854
11
1.36734
21
3.58079
0
LINE
8
BLACK
6
CONTINUOUS
10
1.36734
20
3.58079
11
1.37369
21
3.57492
0
LINE
8
BLACK
6
CONTINUOUS
10
1.37369
20
3.57492
11
1.37886
21
3.56799
0
LINE
8
BLACK
6
CONTINUOUS
10
1.37886
20
3.56799
11
1.38269
21
3.56024
0
LINE
8
BLACK
6
CONTINUOUS
10
1.38269
20
3.56024
11
1.38504
21
3.55192
0
LINE
8
BLACK
6
CONTINUOUS
10
1.38504
20
3.55192
11
1.38583
21
3.54331
0
LINE
8
BLACK
6
CONTINUOUS
10
1.38583
20
3.54331
11
1.38576
21
3.54083
0
LINE
8
BLACK
6
CONTINUOUS
10
1.38576
20
3.54083
11
1.38452
21
3.53228
0
LINE
8
BLACK
6
CONTINUOUS
10
1.38452
20
3.53228
11
1.38174
21
3.52409
0
LINE
8
BLACK
6
CONTINUOUS
10
1.38174
20
3.52409
11
1.37752
21
3.51655
0
LINE
8
BLACK
6
CONTINUOUS
10
1.37752
20
3.51655
11
1.37199
21
3.5099
0
LINE
8
BLACK
6
CONTINUOUS
10
1.37199
20
3.5099
11
1.36534
21
3.50437
0
LINE
8
BLACK
6
CONTINUOUS
10
1.36534
20
3.50437
11
1.3578
21
3.50015
0
LINE
8
BLACK
6
CONTINUOUS
10
1.3578
20
3.50015
11
1.34961
21
3.49737
0
LINE
8
BLACK
6
CONTINUOUS
10
1.34961
20
3.49737
11
1.34106
21
3.49613
0
LINE
8
BLACK
6
CONTINUOUS
10
1.34106
20
3.49613
11
1.33242
21
3.49647
0
LINE
8
BLACK
6
CONTINUOUS
10
1.33242
20
3.49647
11
1.32398
21
3.49838
0
LINE
8
BLACK
6
CONTINUOUS
10
1.32398
20
3.49838
11
1.31604
21
3.50179
0
LINE
8
BLACK
6
CONTINUOUS
10
1.31604
20
3.50179
11
1.30885
21
3.50659
0
LINE
8
BLACK
6
CONTINUOUS
10
1.30885
20
3.50659
11
1.30266
21
3.51262
0
LINE
8
BLACK
6
CONTINUOUS
10
1.30266
20
3.51262
11
1.29767
21
3.51969
0
LINE
8
BLACK
6
CONTINUOUS
10
1.29767
20
3.51969
11
1.29405
21
3.52754
0
LINE
8
BLACK
6
CONTINUOUS
10
1.29405
20
3.52754
11
1.29192
21
3.53592
0
LINE
8
BLACK
6
CONTINUOUS
10
1.29192
20
3.53592
11
1.29135
21
3.54454
0
LINE
8
BLACK
6
CONTINUOUS
10
1.29135
20
3.54454
11
1.29237
21
3.55313
0
LINE
8
BLACK
6
CONTINUOUS
10
1.29237
20
3.55313
11
1.29493
21
3.56139
0
LINE
8
BLACK
6
CONTINUOUS
10
1.29493
20
3.56139
11
1.29896
21
3.56904
0
LINE
8
BLACK
6
CONTINUOUS
10
1.29896
20
3.56904
11
1.30431
21
3.57583
0
LINE
8
BLACK
6
CONTINUOUS
10
1.30431
20
3.57583
11
1.31081
21
3.58153
0
LINE
8
BLACK
6
CONTINUOUS
10
1.31081
20
3.58153
11
1.31824
21
3.58595
0
LINE
8
BLACK
6
CONTINUOUS
10
1.31824
20
3.58595
11
1.32635
21
3.58894
0
LINE
8
BLACK
6
CONTINUOUS
10
1.32635
20
3.58894
11
1.33488
21
3.59041
0
LINE
8
BLACK
6
CONTINUOUS
10
1.33488
20
3.59041
11
1.34352
21
3.59029
0
LINE
8
BLACK
6
CONTINUOUS
10
1.54037
20
3.59029
11
1.54885
21
3.58861
0
LINE
8
BLACK
6
CONTINUOUS
10
1.54885
20
3.58861
11
1.55688
21
3.5854
0
LINE
8
BLACK
6
CONTINUOUS
10
1.55688
20
3.5854
11
1.56419
21
3.58079
0
LINE
8
BLACK
6
CONTINUOUS
10
1.56419
20
3.58079
11
1.57054
21
3.57492
0
LINE
8
BLACK
6
CONTINUOUS
10
1.57054
20
3.57492
11
1.57572
21
3.56799
0
LINE
8
BLACK
6
CONTINUOUS
10
1.57572
20
3.56799
11
1.57954
21
3.56024
0
LINE
8
BLACK
6
CONTINUOUS
10
1.57954
20
3.56024
11
1.58189
21
3.55192
0
LINE
8
BLACK
6
CONTINUOUS
10
1.58189
20
3.55192
11
1.58268
21
3.54331
0
LINE
8
BLACK
6
CONTINUOUS
10
1.58268
20
3.54331
11
1.58261
21
3.54083
0
LINE
8
BLACK
6
CONTINUOUS
10
1.58261
20
3.54083
11
1.58137
21
3.53228
0
LINE
8
BLACK
6
CONTINUOUS
10
1.58137
20
3.53228
11
1.57859
21
3.52409
0
LINE
8
BLACK
6
CONTINUOUS
10
1.57859
20
3.52409
11
1.57437
21
3.51655
0
LINE
8
BLACK
6
CONTINUOUS
10
1.57437
20
3.51655
11
1.56884
21
3.5099
0
LINE
8
BLACK
6
CONTINUOUS
10
1.56884
20
3.5099
11
1.56219
21
3.50437
0
LINE
8
BLACK
6
CONTINUOUS
10
1.56219
20
3.50437
11
1.55465
21
3.50015
0
LINE
8
BLACK
6
CONTINUOUS
10
1.55465
20
3.50015
11
1.54646
21
3.49737
0
LINE
8
BLACK
6
CONTINUOUS
10
1.54646
20
3.49737
11
1.53791
21
3.49613
0
LINE
8
BLACK
6
CONTINUOUS
10
1.53791
20
3.49613
11
1.52927
21
3.49647
0
LINE
8
BLACK
6
CONTINUOUS
10
1.52927
20
3.49647
11
1.52083
21
3.49838
0
LINE
8
BLACK
6
CONTINUOUS
10
1.52083
20
3.49838
11
1.51289
21
3.50179
0
LINE
8
BLACK
6
CONTINUOUS
10
1.51289
20
3.50179
11
1.5057
21
3.50659
0
LINE
8
BLACK
6
CONTINUOUS
10
1.5057
20
3.50659
11
1.49951
21
3.51262
0
LINE
8
BLACK
6
CONTINUOUS
10
1.49951
20
3.51262
11
1.49452
21
3.51969
0
LINE
8
BLACK
6
CONTINUOUS
10
1.49452
20
3.51969
11
1.4909
21
3.52754
0
LINE
8
BLACK
6
CONTINUOUS
10
1.4909
20
3.52754
11
1.48877
21
3.53592
0
LINE
8
BLACK
6
CONTINUOUS
10
1.48877
20
3.53592
11
1.48821
21
3.54454
0
LINE
8
BLACK
6
CONTINUOUS
10
1.48821
20
3.54454
11
1.48922
21
3.55313
0
LINE
8
BLACK
6
CONTINUOUS
10
1.48922
20
3.55313
11
1.49179
21
3.56139
0
LINE
8
BLACK
6
CONTINUOUS
10
1.49179
20
3.56139
11
1.49581
21
3.56904
0
LINE
8
BLACK
6
CONTINUOUS
10
1.49581
20
3.56904
11
1.50116
21
3.57583
0
LINE
8
BLACK
6
CONTINUOUS
10
1.50116
20
3.57583
11
1.50766
21
3.58153
0
LINE
8
BLACK
6
CONTINUOUS
10
1.50766
20
3.58153
11
1.51509
21
3.58595
0
LINE
8
BLACK
6
CONTINUOUS
10
1.51509
20
3.58595
11
1.52321
21
3.58894
0
LINE
8
BLACK
6
CONTINUOUS
10
1.52321
20
3.58894
11
1.53173
21
3.59041
0
LINE
8
BLACK
6
CONTINUOUS
10
1.53173
20
3.59041
11
1.54037
21
3.59029
0
LINE
8
BLACK
6
CONTINUOUS
10
2.11339
20
3.5674
11
2.03465
21
3.5674
0
LINE
8
BLACK
6
CONTINUOUS
10
2.03465
20
3.5674
11
2.03465
21
3.5926
0
LINE
8
BLACK
6
CONTINUOUS
10
2.03465
20
3.5926
11
2.11339
21
3.5926
0
LINE
8
BLACK
6
CONTINUOUS
10
2.11339
20
3.5926
11
2.11339
21
3.5674
0
LINE
8
BLACK
6
CONTINUOUS
10
1.86535
20
3.5674
11
1.78661
21
3.5674
0
LINE
8
BLACK
6
CONTINUOUS
10
1.78661
20
3.5674
11
1.78661
21
3.5926
0
LINE
8
BLACK
6
CONTINUOUS
10
1.78661
20
3.5926
11
1.86535
21
3.5926
0
LINE
8
BLACK
6
CONTINUOUS
10
1.86535
20
3.5926
11
1.86535
21
3.5674
0
LINE
8
BLACK
6
CONTINUOUS
10
2.11339
20
3.6674
11
2.03465
21
3.6674
0
LINE
8
BLACK
6
CONTINUOUS
10
2.03465
20
3.6674
11
2.03465
21
3.6926
0
LINE
8
BLACK
6
CONTINUOUS
10
2.03465
20
3.6926
11
2.11339
21
3.6926
0
LINE
8
BLACK
6
CONTINUOUS
10
2.11339
20
3.6926
11
2.11339
21
3.6674
0
LINE
8
BLACK
6
CONTINUOUS
10
1.86535
20
3.6674
11
1.78661
21
3.6674
0
LINE
8
BLACK
6
CONTINUOUS
10
1.78661
20
3.6674
11
1.78661
21
3.6926
0
LINE
8
BLACK
6
CONTINUOUS
10
1.78661
20
3.6926
11
1.86535
21
3.6926
0
LINE
8
BLACK
6
CONTINUOUS
10
1.86535
20
3.6926
11
1.86535
21
3.6674
  0
ENDSEC
  0
EOF
