  0
SECTION
  2
HEADER
  9
$ANGBASE
  50
0.0
  9
$ANGDIR
  70
1
  9
$MEASUREMENT
  70
0
  0
ENDSEC
  0
SECTION
  2
TABLES
  0
TABLE
  2
LTYPE
  70
4
  0
LTYPE
  5
40F
  2
CONTINUOUS
  70
0
  3
Solid line
  72
65
  73
0
  40
0.0
  0
LTYPE
  5
410
  2
DASHDOT
 70
0
  3
Dash Dot ____ _ ____ _
 72
65
 73
4
 40
2.0
 49
1.25
 49
-0.25
 49
0.25
 49
-0.25
  0
LTYPE
  5
411
  2
DASHED
 70
0
  3
Dashed __ __ __ __ __
 72
65
 73
2
 40
0.75
 49
0.5
 49
-0.25
  0
LTYPE
  5
43B
  2
DOTTED
 70
0
  3
Dotted .  .  .  .
 72
65
 73
2
 40
0.2
 49
0.0
 49
-0.2
  0
ENDTAB
  0
TABLE
  2
STYLE
  70
4
  0
STYLE
  2
KICAD
  70
0
  40
0
  41
1
  42
1
  50
0
  71
0
  3
isocp.shx
  0
STYLE
  2
KICADB
  70
0
  40
0
  41
1
  42
1
  50
0
  71
0
  3
isocp.shx
  0
STYLE
  2
KICADI
  70
0
  40
0
  41
1
  42
1
  50
15
  71
0
  3
isocp.shx
  0
STYLE
  2
KICADBI
  70
0
  40
0
  41
1
  42
1
  50
15
  71
0
  3
isocp.shx
  0
ENDTAB
  0
TABLE
  2
LAYER
  70
1
  0
LAYER
  2
BLACK
  70
0
  62
7
  6
CONTINUOUS
  0
ENDTAB
  0
ENDSEC
  0
SECTION
  2
ENTITIES
0
LINE
8
BLACK
6
CONTINUOUS
10
0.41882
20
0.358193
11
0.418955
21
0.358079
0
LINE
8
BLACK
6
CONTINUOUS
10
0.418955
20
0.358079
11
0.419131
21
0.358059
0
LINE
8
BLACK
6
CONTINUOUS
10
0.419131
20
0.358059
11
0.42288
21
0.356184
0
LINE
8
BLACK
6
CONTINUOUS
10
0.42288
20
0.356184
11
0.423589
21
0.355658
0
LINE
8
BLACK
6
CONTINUOUS
10
0.423589
20
0.355658
11
0.423648
21
0.355631
0
LINE
8
BLACK
6
CONTINUOUS
10
0.423648
20
0.355631
11
0.425522
21
0.353756
0
LINE
8
BLACK
6
CONTINUOUS
10
0.425522
20
0.353756
11
0.426029
21
0.353033
0
LINE
8
BLACK
6
CONTINUOUS
10
0.426029
20
0.353033
11
0.426076
21
0.352989
0
LINE
8
BLACK
6
CONTINUOUS
10
0.426076
20
0.352989
11
0.42795
21
0.34924
0
LINE
8
BLACK
6
CONTINUOUS
10
0.42795
20
0.34924
11
0.428096
21
0.348751
0
LINE
8
BLACK
6
CONTINUOUS
10
0.428096
20
0.348751
11
0.428174
21
0.348635
0
LINE
8
BLACK
6
CONTINUOUS
10
0.428174
20
0.348635
11
0.430049
21
0.341136
0
LINE
8
BLACK
6
CONTINUOUS
10
0.430049
20
0.341136
11
0.43009
21
0.340548
0
LINE
8
BLACK
6
CONTINUOUS
10
0.43009
20
0.340548
11
0.430137
21
0.34042
0
LINE
8
BLACK
6
CONTINUOUS
10
0.430137
20
0.34042
11
0.430137
21
0.331046
0
LINE
8
BLACK
6
CONTINUOUS
10
0.430137
20
0.331046
11
0.430035
21
0.330466
0
LINE
8
BLACK
6
CONTINUOUS
10
0.430035
20
0.330466
11
0.430049
21
0.33033
0
LINE
8
BLACK
6
CONTINUOUS
10
0.430049
20
0.33033
11
0.428174
21
0.322831
0
LINE
8
BLACK
6
CONTINUOUS
10
0.428174
20
0.322831
11
0.427966
21
0.322365
0
LINE
8
BLACK
6
CONTINUOUS
10
0.427966
20
0.322365
11
0.42795
21
0.322227
0
LINE
8
BLACK
6
CONTINUOUS
10
0.42795
20
0.322227
11
0.426076
21
0.318477
0
LINE
8
BLACK
6
CONTINUOUS
10
0.426076
20
0.318477
11
0.42555
21
0.317768
0
LINE
8
BLACK
6
CONTINUOUS
10
0.42555
20
0.317768
11
0.425522
21
0.31771
0
LINE
8
BLACK
6
CONTINUOUS
10
0.425522
20
0.31771
11
0.423648
21
0.315835
0
LINE
8
BLACK
6
CONTINUOUS
10
0.423648
20
0.315835
11
0.422925
21
0.315329
0
LINE
8
BLACK
6
CONTINUOUS
10
0.422925
20
0.315329
11
0.42288
21
0.315282
0
LINE
8
BLACK
6
CONTINUOUS
10
0.42288
20
0.315282
11
0.419131
21
0.313407
0
LINE
8
BLACK
6
CONTINUOUS
10
0.419131
20
0.313407
11
0.418148
21
0.313115
0
LINE
8
BLACK
6
CONTINUOUS
10
0.418148
20
0.313115
11
0.417976
21
0.313156
0
LINE
8
BLACK
6
CONTINUOUS
10
0.417976
20
0.313156
11
0.41781
21
0.313095
0
LINE
8
BLACK
6
CONTINUOUS
10
0.41781
20
0.313095
11
0.414061
21
0.313095
0
LINE
8
BLACK
6
CONTINUOUS
10
0.414061
20
0.313095
11
0.413051
21
0.313273
0
LINE
8
BLACK
6
CONTINUOUS
10
0.413051
20
0.313273
11
0.412916
21
0.313387
0
LINE
8
BLACK
6
CONTINUOUS
10
0.412916
20
0.313387
11
0.41274
21
0.313407
0
LINE
8
BLACK
6
CONTINUOUS
10
0.41274
20
0.313407
11
0.408991
21
0.315282
0
LINE
8
BLACK
6
CONTINUOUS
10
0.408991
20
0.315282
11
0.408282
21
0.315808
0
LINE
8
BLACK
6
CONTINUOUS
10
0.408282
20
0.315808
11
0.408223
21
0.315835
0
LINE
8
BLACK
6
CONTINUOUS
10
0.408223
20
0.315835
11
0.406349
21
0.31771
0
LINE
8
BLACK
6
CONTINUOUS
10
0.406349
20
0.31771
11
0.405842
21
0.318433
0
LINE
8
BLACK
6
CONTINUOUS
10
0.405842
20
0.318433
11
0.405795
21
0.318477
0
LINE
8
BLACK
6
CONTINUOUS
10
0.405795
20
0.318477
11
0.403921
21
0.322227
0
LINE
8
BLACK
6
CONTINUOUS
10
0.403921
20
0.322227
11
0.403775
21
0.322715
0
LINE
8
BLACK
6
CONTINUOUS
10
0.403775
20
0.322715
11
0.403697
21
0.322831
0
LINE
8
BLACK
6
CONTINUOUS
10
0.403697
20
0.322831
11
0.401822
21
0.33033
0
LINE
8
BLACK
6
CONTINUOUS
10
0.401822
20
0.33033
11
0.401781
21
0.330918
0
LINE
8
BLACK
6
CONTINUOUS
10
0.401781
20
0.330918
11
0.401734
21
0.331046
0
LINE
8
BLACK
6
CONTINUOUS
10
0.401734
20
0.331046
11
0.401734
21
0.34042
0
LINE
8
BLACK
6
CONTINUOUS
10
0.401734
20
0.34042
11
0.401836
21
0.341
0
LINE
8
BLACK
6
CONTINUOUS
10
0.401836
20
0.341
11
0.401822
21
0.341136
0
LINE
8
BLACK
6
CONTINUOUS
10
0.401822
20
0.341136
11
0.403697
21
0.348635
0
LINE
8
BLACK
6
CONTINUOUS
10
0.403697
20
0.348635
11
0.403905
21
0.349101
0
LINE
8
BLACK
6
CONTINUOUS
10
0.403905
20
0.349101
11
0.403921
21
0.34924
0
LINE
8
BLACK
6
CONTINUOUS
10
0.403921
20
0.34924
11
0.405795
21
0.352989
0
LINE
8
BLACK
6
CONTINUOUS
10
0.405795
20
0.352989
11
0.406321
21
0.353698
0
LINE
8
BLACK
6
CONTINUOUS
10
0.406321
20
0.353698
11
0.406349
21
0.353756
0
LINE
8
BLACK
6
CONTINUOUS
10
0.406349
20
0.353756
11
0.408223
21
0.355631
0
LINE
8
BLACK
6
CONTINUOUS
10
0.408223
20
0.355631
11
0.408946
21
0.356137
0
LINE
8
BLACK
6
CONTINUOUS
10
0.408946
20
0.356137
11
0.408991
21
0.356184
0
LINE
8
BLACK
6
CONTINUOUS
10
0.408991
20
0.356184
11
0.41274
21
0.358059
0
LINE
8
BLACK
6
CONTINUOUS
10
0.41274
20
0.358059
11
0.413723
21
0.358351
0
LINE
8
BLACK
6
CONTINUOUS
10
0.413723
20
0.358351
11
0.413895
21
0.35831
0
LINE
8
BLACK
6
CONTINUOUS
10
0.413895
20
0.35831
11
0.414061
21
0.358371
0
LINE
8
BLACK
6
CONTINUOUS
10
0.414061
20
0.358371
11
0.41781
21
0.358371
0
LINE
8
BLACK
6
CONTINUOUS
10
0.41781
20
0.358371
11
0.41882
21
0.358193
0
LINE
8
BLACK
6
CONTINUOUS
10
0.414758
20
0.352465
11
0.41206
21
0.351117
0
LINE
8
BLACK
6
CONTINUOUS
10
0.41206
20
0.351117
11
0.410863
21
0.349919
0
LINE
8
BLACK
6
CONTINUOUS
10
0.410863
20
0.349919
11
0.409348
21
0.346888
0
LINE
8
BLACK
6
CONTINUOUS
10
0.409348
20
0.346888
11
0.40764
21
0.340056
0
LINE
8
BLACK
6
CONTINUOUS
10
0.40764
20
0.340056
11
0.40764
21
0.33141
0
LINE
8
BLACK
6
CONTINUOUS
10
0.40764
20
0.33141
11
0.409348
21
0.324578
0
LINE
8
BLACK
6
CONTINUOUS
10
0.409348
20
0.324578
11
0.410863
21
0.321547
0
LINE
8
BLACK
6
CONTINUOUS
10
0.410863
20
0.321547
11
0.41206
21
0.32035
0
LINE
8
BLACK
6
CONTINUOUS
10
0.41206
20
0.32035
11
0.414758
21
0.319001
0
LINE
8
BLACK
6
CONTINUOUS
10
0.414758
20
0.319001
11
0.417113
21
0.319001
0
LINE
8
BLACK
6
CONTINUOUS
10
0.417113
20
0.319001
11
0.419811
21
0.32035
0
LINE
8
BLACK
6
CONTINUOUS
10
0.419811
20
0.32035
11
0.421008
21
0.321547
0
LINE
8
BLACK
6
CONTINUOUS
10
0.421008
20
0.321547
11
0.422523
21
0.324578
0
LINE
8
BLACK
6
CONTINUOUS
10
0.422523
20
0.324578
11
0.424231
21
0.33141
0
LINE
8
BLACK
6
CONTINUOUS
10
0.424231
20
0.33141
11
0.424231
21
0.340056
0
LINE
8
BLACK
6
CONTINUOUS
10
0.424231
20
0.340056
11
0.422523
21
0.346888
0
LINE
8
BLACK
6
CONTINUOUS
10
0.422523
20
0.346888
11
0.421008
21
0.349919
0
LINE
8
BLACK
6
CONTINUOUS
10
0.421008
20
0.349919
11
0.419811
21
0.351117
0
LINE
8
BLACK
6
CONTINUOUS
10
0.419811
20
0.351117
11
0.417113
21
0.352465
0
LINE
8
BLACK
6
CONTINUOUS
10
0.417113
20
0.352465
11
0.414758
21
0.352465
0
LINE
8
BLACK
6
CONTINUOUS
10
0.454091
20
0.358241
11
0.45426
21
0.358252
0
LINE
8
BLACK
6
CONTINUOUS
10
0.45426
20
0.358252
11
0.45495
21
0.357745
0
LINE
8
BLACK
6
CONTINUOUS
10
0.45495
20
0.357745
11
0.455693
21
0.357316
0
LINE
8
BLACK
6
CONTINUOUS
10
0.455693
20
0.357316
11
0.455751
21
0.357157
0
LINE
8
BLACK
6
CONTINUOUS
10
0.455751
20
0.357157
11
0.455888
21
0.357056
0
LINE
8
BLACK
6
CONTINUOUS
10
0.455888
20
0.357056
11
0.459475
21
0.351675
0
LINE
8
BLACK
6
CONTINUOUS
10
0.459475
20
0.351675
11
0.462679
21
0.348471
0
LINE
8
BLACK
6
CONTINUOUS
10
0.462679
20
0.348471
11
0.466
21
0.346811
0
LINE
8
BLACK
6
CONTINUOUS
10
0.466
20
0.346811
11
0.466824
21
0.3462
0
LINE
8
BLACK
6
CONTINUOUS
10
0.466824
20
0.3462
11
0.467627
21
0.344346
0
LINE
8
BLACK
6
CONTINUOUS
10
0.467627
20
0.344346
11
0.467051
21
0.34241
0
LINE
8
BLACK
6
CONTINUOUS
10
0.467051
20
0.34241
11
0.465365
21
0.341298
0
LINE
8
BLACK
6
CONTINUOUS
10
0.465365
20
0.341298
11
0.463359
21
0.341528
0
LINE
8
BLACK
6
CONTINUOUS
10
0.463359
20
0.341528
11
0.459609
21
0.343403
0
LINE
8
BLACK
6
CONTINUOUS
10
0.459609
20
0.343403
11
0.4589
21
0.343929
0
LINE
8
BLACK
6
CONTINUOUS
10
0.4589
20
0.343929
11
0.458842
21
0.343956
0
LINE
8
BLACK
6
CONTINUOUS
10
0.458842
20
0.343956
11
0.456384
21
0.346415
0
LINE
8
BLACK
6
CONTINUOUS
10
0.456384
20
0.346415
11
0.456384
21
0.319001
0
LINE
8
BLACK
6
CONTINUOUS
10
0.456384
20
0.319001
11
0.464679
21
0.319001
0
LINE
8
BLACK
6
CONTINUOUS
10
0.464679
20
0.319001
11
0.465689
21
0.318823
0
LINE
8
BLACK
6
CONTINUOUS
10
0.465689
20
0.318823
11
0.467237
21
0.317524
0
LINE
8
BLACK
6
CONTINUOUS
10
0.467237
20
0.317524
11
0.467587
21
0.315535
0
LINE
8
BLACK
6
CONTINUOUS
10
0.467587
20
0.315535
11
0.466577
21
0.313786
0
LINE
8
BLACK
6
CONTINUOUS
10
0.466577
20
0.313786
11
0.464679
21
0.313095
0
LINE
8
BLACK
6
CONTINUOUS
10
0.464679
20
0.313095
11
0.442182
21
0.313095
0
LINE
8
BLACK
6
CONTINUOUS
10
0.442182
20
0.313095
11
0.441172
21
0.313273
0
LINE
8
BLACK
6
CONTINUOUS
10
0.441172
20
0.313273
11
0.439625
21
0.314572
0
LINE
8
BLACK
6
CONTINUOUS
10
0.439625
20
0.314572
11
0.439274
21
0.316561
0
LINE
8
BLACK
6
CONTINUOUS
10
0.439274
20
0.316561
11
0.440284
21
0.31831
0
LINE
8
BLACK
6
CONTINUOUS
10
0.440284
20
0.31831
11
0.442182
21
0.319001
0
LINE
8
BLACK
6
CONTINUOUS
10
0.442182
20
0.319001
11
0.450478
21
0.319001
0
LINE
8
BLACK
6
CONTINUOUS
10
0.450478
20
0.319001
11
0.450478
21
0.355418
0
LINE
8
BLACK
6
CONTINUOUS
10
0.450478
20
0.355418
11
0.450656
21
0.356428
0
LINE
8
BLACK
6
CONTINUOUS
10
0.450656
20
0.356428
11
0.450765
21
0.356558
0
LINE
8
BLACK
6
CONTINUOUS
10
0.450765
20
0.356558
11
0.450784
21
0.356727
0
LINE
8
BLACK
6
CONTINUOUS
10
0.450784
20
0.356727
11
0.451404
21
0.357319
0
LINE
8
BLACK
6
CONTINUOUS
10
0.451404
20
0.357319
11
0.451954
21
0.357975
0
LINE
8
BLACK
6
CONTINUOUS
10
0.451954
20
0.357975
11
0.452122
21
0.358005
0
LINE
8
BLACK
6
CONTINUOUS
10
0.452122
20
0.358005
11
0.452244
21
0.358122
0
LINE
8
BLACK
6
CONTINUOUS
10
0.452244
20
0.358122
11
0.4531
21
0.358177
0
LINE
8
BLACK
6
CONTINUOUS
10
0.4531
20
0.358177
11
0.453944
21
0.358326
0
LINE
8
BLACK
6
CONTINUOUS
10
0.453944
20
0.358326
11
0.454091
21
0.358241
0
LINE
8
BLACK
6
CONTINUOUS
10
0.390076
20
0.344193
11
0.390767
21
0.342295
0
LINE
8
BLACK
6
CONTINUOUS
10
0.390767
20
0.342295
11
0.390767
21
0.321672
0
LINE
8
BLACK
6
CONTINUOUS
10
0.390767
20
0.321672
11
0.390589
21
0.320662
0
LINE
8
BLACK
6
CONTINUOUS
10
0.390589
20
0.320662
11
0.390475
21
0.320527
0
LINE
8
BLACK
6
CONTINUOUS
10
0.390475
20
0.320527
11
0.390455
21
0.320352
0
LINE
8
BLACK
6
CONTINUOUS
10
0.390455
20
0.320352
11
0.38858
21
0.316602
0
LINE
8
BLACK
6
CONTINUOUS
10
0.38858
20
0.316602
11
0.387969
21
0.315779
0
LINE
8
BLACK
6
CONTINUOUS
10
0.387969
20
0.315779
11
0.387564
21
0.315603
0
LINE
8
BLACK
6
CONTINUOUS
10
0.387564
20
0.315603
11
0.38726
21
0.315282
0
LINE
8
BLACK
6
CONTINUOUS
10
0.38726
20
0.315282
11
0.38351
21
0.313407
0
LINE
8
BLACK
6
CONTINUOUS
10
0.38351
20
0.313407
11
0.382527
21
0.313115
0
LINE
8
BLACK
6
CONTINUOUS
10
0.382527
20
0.313115
11
0.382356
21
0.313156
0
LINE
8
BLACK
6
CONTINUOUS
10
0.382356
20
0.313156
11
0.38219
21
0.313095
0
LINE
8
BLACK
6
CONTINUOUS
10
0.38219
20
0.313095
11
0.376565
21
0.313095
0
LINE
8
BLACK
6
CONTINUOUS
10
0.376565
20
0.313095
11
0.375555
21
0.313273
0
LINE
8
BLACK
6
CONTINUOUS
10
0.375555
20
0.313273
11
0.37542
21
0.313387
0
LINE
8
BLACK
6
CONTINUOUS
10
0.37542
20
0.313387
11
0.375245
21
0.313407
0
LINE
8
BLACK
6
CONTINUOUS
10
0.375245
20
0.313407
11
0.373204
21
0.314428
0
LINE
8
BLACK
6
CONTINUOUS
10
0.373204
20
0.314428
11
0.372417
21
0.313491
0
LINE
8
BLACK
6
CONTINUOUS
10
0.372417
20
0.313491
11
0.370428
21
0.31314
0
LINE
8
BLACK
6
CONTINUOUS
10
0.370428
20
0.31314
11
0.368679
21
0.31415
0
LINE
8
BLACK
6
CONTINUOUS
10
0.368679
20
0.31415
11
0.367988
21
0.316048
0
LINE
8
BLACK
6
CONTINUOUS
10
0.367988
20
0.316048
11
0.367988
21
0.342295
0
LINE
8
BLACK
6
CONTINUOUS
10
0.367988
20
0.342295
11
0.368166
21
0.343305
0
LINE
8
BLACK
6
CONTINUOUS
10
0.368166
20
0.343305
11
0.369465
21
0.344852
0
LINE
8
BLACK
6
CONTINUOUS
10
0.369465
20
0.344852
11
0.371454
21
0.345203
0
LINE
8
BLACK
6
CONTINUOUS
10
0.371454
20
0.345203
11
0.373203
21
0.344193
0
LINE
8
BLACK
6
CONTINUOUS
10
0.373203
20
0.344193
11
0.373894
21
0.342295
0
LINE
8
BLACK
6
CONTINUOUS
10
0.373894
20
0.342295
11
0.373894
21
0.321021
0
LINE
8
BLACK
6
CONTINUOUS
10
0.373894
20
0.321021
11
0.374565
21
0.32035
0
LINE
8
BLACK
6
CONTINUOUS
10
0.374565
20
0.32035
11
0.377262
21
0.319001
0
LINE
8
BLACK
6
CONTINUOUS
10
0.377262
20
0.319001
11
0.381493
21
0.319001
0
LINE
8
BLACK
6
CONTINUOUS
10
0.381493
20
0.319001
11
0.383738
21
0.320124
0
LINE
8
BLACK
6
CONTINUOUS
10
0.383738
20
0.320124
11
0.384861
21
0.322369
0
LINE
8
BLACK
6
CONTINUOUS
10
0.384861
20
0.322369
11
0.384861
21
0.342295
0
LINE
8
BLACK
6
CONTINUOUS
10
0.384861
20
0.342295
11
0.385039
21
0.343305
0
LINE
8
BLACK
6
CONTINUOUS
10
0.385039
20
0.343305
11
0.386338
21
0.344852
0
LINE
8
BLACK
6
CONTINUOUS
10
0.386338
20
0.344852
11
0.388327
21
0.345203
0
LINE
8
BLACK
6
CONTINUOUS
10
0.388327
20
0.345203
11
0.390076
21
0.344193
0
LINE
8
BLACK
6
CONTINUOUS
10
0.352577
20
0.358303
11
0.352706
21
0.358326
0
LINE
8
BLACK
6
CONTINUOUS
10
0.352706
20
0.358326
11
0.35282
21
0.35826
0
LINE
8
BLACK
6
CONTINUOUS
10
0.35282
20
0.35826
11
0.353203
21
0.358193
0
LINE
8
BLACK
6
CONTINUOUS
10
0.353203
20
0.358193
11
0.353791
21
0.3577
0
LINE
8
BLACK
6
CONTINUOUS
10
0.353791
20
0.3577
11
0.354455
21
0.357316
0
LINE
8
BLACK
6
CONTINUOUS
10
0.354455
20
0.357316
11
0.354546
21
0.357066
0
LINE
8
BLACK
6
CONTINUOUS
10
0.354546
20
0.357066
11
0.354751
21
0.356894
0
LINE
8
BLACK
6
CONTINUOUS
10
0.354751
20
0.356894
11
0.354884
21
0.356139
0
LINE
8
BLACK
6
CONTINUOUS
10
0.354884
20
0.356139
11
0.355146
21
0.355418
0
LINE
8
BLACK
6
CONTINUOUS
10
0.355146
20
0.355418
11
0.355146
21
0.316048
0
LINE
8
BLACK
6
CONTINUOUS
10
0.355146
20
0.316048
11
0.354968
21
0.315038
0
LINE
8
BLACK
6
CONTINUOUS
10
0.354968
20
0.315038
11
0.35367
21
0.313491
0
LINE
8
BLACK
6
CONTINUOUS
10
0.35367
20
0.313491
11
0.351681
21
0.31314
0
LINE
8
BLACK
6
CONTINUOUS
10
0.351681
20
0.31314
11
0.349932
21
0.31415
0
LINE
8
BLACK
6
CONTINUOUS
10
0.349932
20
0.31415
11
0.349241
21
0.316048
0
LINE
8
BLACK
6
CONTINUOUS
10
0.349241
20
0.316048
11
0.349241
21
0.333718
0
LINE
8
BLACK
6
CONTINUOUS
10
0.349241
20
0.333718
11
0.33907
21
0.333718
0
LINE
8
BLACK
6
CONTINUOUS
10
0.33907
20
0.333718
11
0.33806
21
0.333896
0
LINE
8
BLACK
6
CONTINUOUS
10
0.33806
20
0.333896
11
0.336513
21
0.335194
0
LINE
8
BLACK
6
CONTINUOUS
10
0.336513
20
0.335194
11
0.336162
21
0.337183
0
LINE
8
BLACK
6
CONTINUOUS
10
0.336162
20
0.337183
11
0.337172
21
0.338932
0
LINE
8
BLACK
6
CONTINUOUS
10
0.337172
20
0.338932
11
0.33907
21
0.339623
0
LINE
8
BLACK
6
CONTINUOUS
10
0.33907
20
0.339623
11
0.349241
21
0.339623
0
LINE
8
BLACK
6
CONTINUOUS
10
0.349241
20
0.339623
11
0.349241
21
0.352465
0
LINE
8
BLACK
6
CONTINUOUS
10
0.349241
20
0.352465
11
0.333446
21
0.352465
0
LINE
8
BLACK
6
CONTINUOUS
10
0.333446
20
0.352465
11
0.332436
21
0.352643
0
LINE
8
BLACK
6
CONTINUOUS
10
0.332436
20
0.352643
11
0.330889
21
0.353942
0
LINE
8
BLACK
6
CONTINUOUS
10
0.330889
20
0.353942
11
0.330538
21
0.355931
0
LINE
8
BLACK
6
CONTINUOUS
10
0.330538
20
0.355931
11
0.331548
21
0.35768
0
LINE
8
BLACK
6
CONTINUOUS
10
0.331548
20
0.35768
11
0.333446
21
0.358371
0
LINE
8
BLACK
6
CONTINUOUS
10
0.333446
20
0.358371
11
0.352193
21
0.358371
0
LINE
8
BLACK
6
CONTINUOUS
10
0.352193
20
0.358371
11
0.352577
21
0.358303
0
LINE
8
BLACK
6
CONTINUOUS
10
0.359238
20
0.374002
11
0.358661
21
0.375394
0
LINE
8
BLACK
6
CONTINUOUS
10
0.358661
20
0.375394
11
0.358661
21
0.424606
0
LINE
8
BLACK
6
CONTINUOUS
10
0.358661
20
0.424606
11
0.359238
21
0.425998
0
LINE
8
BLACK
6
CONTINUOUS
10
0.359238
20
0.425998
11
0.36063
21
0.426575
0
LINE
8
BLACK
6
CONTINUOUS
10
0.36063
20
0.426575
11
0.43937
21
0.426575
0
LINE
8
BLACK
6
CONTINUOUS
10
0.43937
20
0.426575
11
0.440762
21
0.425998
0
LINE
8
BLACK
6
CONTINUOUS
10
0.440762
20
0.425998
11
0.441339
21
0.424606
0
LINE
8
BLACK
6
CONTINUOUS
10
0.441339
20
0.424606
11
0.441339
21
0.375394
0
LINE
8
BLACK
6
CONTINUOUS
10
0.441339
20
0.375394
11
0.440762
21
0.374002
0
LINE
8
BLACK
6
CONTINUOUS
10
0.440762
20
0.374002
11
0.43937
21
0.373425
0
LINE
8
BLACK
6
CONTINUOUS
10
0.43937
20
0.373425
11
0.36063
21
0.373425
0
LINE
8
BLACK
6
CONTINUOUS
10
0.36063
20
0.373425
11
0.359238
21
0.374002
0
LINE
8
BLACK
6
CONTINUOUS
10
0.362598
20
0.422638
11
0.362598
21
0.377362
0
LINE
8
BLACK
6
CONTINUOUS
10
0.362598
20
0.377362
11
0.437402
21
0.377362
0
LINE
8
BLACK
6
CONTINUOUS
10
0.437402
20
0.377362
11
0.437402
21
0.422638
0
LINE
8
BLACK
6
CONTINUOUS
10
0.437402
20
0.422638
11
0.362598
21
0.422638
0
LINE
8
BLACK
6
CONTINUOUS
10
0.38342
20
0.389981
11
0.382958
21
0.391095
0
LINE
8
BLACK
6
CONTINUOUS
10
0.382958
20
0.391095
11
0.38342
21
0.392208
0
LINE
8
BLACK
6
CONTINUOUS
10
0.38342
20
0.392208
11
0.384533
21
0.39267
0
LINE
8
BLACK
6
CONTINUOUS
10
0.384533
20
0.39267
11
0.388583
21
0.39267
0
LINE
8
BLACK
6
CONTINUOUS
10
0.388583
20
0.39267
11
0.388583
21
0.41078
0
LINE
8
BLACK
6
CONTINUOUS
10
0.388583
20
0.41078
11
0.388645
21
0.41093
0
LINE
8
BLACK
6
CONTINUOUS
10
0.388645
20
0.41093
11
0.388613
21
0.411089
0
LINE
8
BLACK
6
CONTINUOUS
10
0.388613
20
0.411089
11
0.388868
21
0.41147
0
LINE
8
BLACK
6
CONTINUOUS
10
0.388868
20
0.41147
11
0.389044
21
0.411893
0
LINE
8
BLACK
6
CONTINUOUS
10
0.389044
20
0.411893
11
0.389194
21
0.411956
0
LINE
8
BLACK
6
CONTINUOUS
10
0.389194
20
0.411956
11
0.389284
21
0.41209
0
LINE
8
BLACK
6
CONTINUOUS
10
0.389284
20
0.41209
11
0.389734
21
0.412179
0
LINE
8
BLACK
6
CONTINUOUS
10
0.389734
20
0.412179
11
0.390157
21
0.412355
0
LINE
8
BLACK
6
CONTINUOUS
10
0.390157
20
0.412355
11
0.390307
21
0.412293
0
LINE
8
BLACK
6
CONTINUOUS
10
0.390307
20
0.412293
11
0.390466
21
0.412324
0
LINE
8
BLACK
6
CONTINUOUS
10
0.390466
20
0.412324
11
0.390847
21
0.412069
0
LINE
8
BLACK
6
CONTINUOUS
10
0.390847
20
0.412069
11
0.391271
21
0.411893
0
LINE
8
BLACK
6
CONTINUOUS
10
0.391271
20
0.411893
11
0.391333
21
0.411744
0
LINE
8
BLACK
6
CONTINUOUS
10
0.391333
20
0.411744
11
0.391468
21
0.411653
0
LINE
8
BLACK
6
CONTINUOUS
10
0.391468
20
0.411653
11
0.393256
21
0.408971
0
LINE
8
BLACK
6
CONTINUOUS
10
0.393256
20
0.408971
11
0.39484
21
0.407387
0
LINE
8
BLACK
6
CONTINUOUS
10
0.39484
20
0.407387
11
0.396486
21
0.406564
0
LINE
8
BLACK
6
CONTINUOUS
10
0.396486
20
0.406564
11
0.397276
21
0.405654
0
LINE
8
BLACK
6
CONTINUOUS
10
0.397276
20
0.405654
11
0.39719
21
0.404451
0
LINE
8
BLACK
6
CONTINUOUS
10
0.39719
20
0.404451
11
0.39628
21
0.403662
0
LINE
8
BLACK
6
CONTINUOUS
10
0.39628
20
0.403662
11
0.395077
21
0.403747
0
LINE
8
BLACK
6
CONTINUOUS
10
0.395077
20
0.403747
11
0.393203
21
0.404684
0
LINE
8
BLACK
6
CONTINUOUS
10
0.393203
20
0.404684
11
0.393033
21
0.40488
0
LINE
8
BLACK
6
CONTINUOUS
10
0.393033
20
0.40488
11
0.392793
21
0.404979
0
LINE
8
BLACK
6
CONTINUOUS
10
0.392793
20
0.404979
11
0.391732
21
0.406041
0
LINE
8
BLACK
6
CONTINUOUS
10
0.391732
20
0.406041
11
0.391732
21
0.39267
0
LINE
8
BLACK
6
CONTINUOUS
10
0.391732
20
0.39267
11
0.395782
21
0.39267
0
LINE
8
BLACK
6
CONTINUOUS
10
0.395782
20
0.39267
11
0.396895
21
0.392208
0
LINE
8
BLACK
6
CONTINUOUS
10
0.396895
20
0.392208
11
0.397357
21
0.391095
0
LINE
8
BLACK
6
CONTINUOUS
10
0.397357
20
0.391095
11
0.396895
21
0.389981
0
LINE
8
BLACK
6
CONTINUOUS
10
0.396895
20
0.389981
11
0.395782
21
0.38952
0
LINE
8
BLACK
6
CONTINUOUS
10
0.395782
20
0.38952
11
0.384533
21
0.38952
0
LINE
8
BLACK
6
CONTINUOUS
10
0.384533
20
0.38952
11
0.38342
21
0.389981
0
LINE
8
BLACK
6
CONTINUOUS
10
0.409145
20
0.412256
11
0.409403
21
0.412274
0
LINE
8
BLACK
6
CONTINUOUS
10
0.409403
20
0.412274
11
0.412215
21
0.411336
0
LINE
8
BLACK
6
CONTINUOUS
10
0.412215
20
0.411336
11
0.412492
21
0.411096
0
LINE
8
BLACK
6
CONTINUOUS
10
0.412492
20
0.411096
11
0.412831
21
0.410956
0
LINE
8
BLACK
6
CONTINUOUS
10
0.412831
20
0.410956
11
0.414706
21
0.409081
0
LINE
8
BLACK
6
CONTINUOUS
10
0.414706
20
0.409081
11
0.414805
21
0.408842
0
LINE
8
BLACK
6
CONTINUOUS
10
0.414805
20
0.408842
11
0.415001
21
0.408672
0
LINE
8
BLACK
6
CONTINUOUS
10
0.415001
20
0.408672
11
0.415938
21
0.406797
0
LINE
8
BLACK
6
CONTINUOUS
10
0.415938
20
0.406797
11
0.415951
21
0.406619
0
LINE
8
BLACK
6
CONTINUOUS
10
0.415951
20
0.406619
11
0.416057
21
0.406475
0
LINE
8
BLACK
6
CONTINUOUS
10
0.416057
20
0.406475
11
0.416995
21
0.402725
0
LINE
8
BLACK
6
CONTINUOUS
10
0.416995
20
0.402725
11
0.416965
21
0.402528
0
LINE
8
BLACK
6
CONTINUOUS
10
0.416965
20
0.402528
11
0.417042
21
0.402343
0
LINE
8
BLACK
6
CONTINUOUS
10
0.417042
20
0.402343
11
0.417042
21
0.399531
0
LINE
8
BLACK
6
CONTINUOUS
10
0.417042
20
0.399531
11
0.416965
21
0.399347
0
LINE
8
BLACK
6
CONTINUOUS
10
0.416965
20
0.399347
11
0.416995
21
0.399149
0
LINE
8
BLACK
6
CONTINUOUS
10
0.416995
20
0.399149
11
0.416057
21
0.3954
0
LINE
8
BLACK
6
CONTINUOUS
10
0.416057
20
0.3954
11
0.415951
21
0.395256
0
LINE
8
BLACK
6
CONTINUOUS
10
0.415951
20
0.395256
11
0.415938
21
0.395078
0
LINE
8
BLACK
6
CONTINUOUS
10
0.415938
20
0.395078
11
0.415001
21
0.393203
0
LINE
8
BLACK
6
CONTINUOUS
10
0.415001
20
0.393203
11
0.414805
21
0.393033
0
LINE
8
BLACK
6
CONTINUOUS
10
0.414805
20
0.393033
11
0.414706
21
0.392793
0
LINE
8
BLACK
6
CONTINUOUS
10
0.414706
20
0.392793
11
0.412831
21
0.390919
0
LINE
8
BLACK
6
CONTINUOUS
10
0.412831
20
0.390919
11
0.412492
21
0.390778
0
LINE
8
BLACK
6
CONTINUOUS
10
0.412492
20
0.390778
11
0.412215
21
0.390538
0
LINE
8
BLACK
6
CONTINUOUS
10
0.412215
20
0.390538
11
0.409403
21
0.389601
0
LINE
8
BLACK
6
CONTINUOUS
10
0.409403
20
0.389601
11
0.409145
21
0.389619
0
LINE
8
BLACK
6
CONTINUOUS
10
0.409145
20
0.389619
11
0.408905
21
0.38952
0
LINE
8
BLACK
6
CONTINUOUS
10
0.408905
20
0.38952
11
0.40703
21
0.38952
0
LINE
8
BLACK
6
CONTINUOUS
10
0.40703
20
0.38952
11
0.406791
21
0.389619
0
LINE
8
BLACK
6
CONTINUOUS
10
0.406791
20
0.389619
11
0.406532
21
0.389601
0
LINE
8
BLACK
6
CONTINUOUS
10
0.406532
20
0.389601
11
0.40372
21
0.390538
0
LINE
8
BLACK
6
CONTINUOUS
10
0.40372
20
0.390538
11
0.403443
21
0.390778
0
LINE
8
BLACK
6
CONTINUOUS
10
0.403443
20
0.390778
11
0.403105
21
0.390919
0
LINE
8
BLACK
6
CONTINUOUS
10
0.403105
20
0.390919
11
0.402167
21
0.391856
0
LINE
8
BLACK
6
CONTINUOUS
10
0.402167
20
0.391856
11
0.401706
21
0.39297
0
LINE
8
BLACK
6
CONTINUOUS
10
0.401706
20
0.39297
11
0.402167
21
0.394083
0
LINE
8
BLACK
6
CONTINUOUS
10
0.402167
20
0.394083
11
0.403281
21
0.394544
0
LINE
8
BLACK
6
CONTINUOUS
10
0.403281
20
0.394544
11
0.404394
21
0.394083
0
LINE
8
BLACK
6
CONTINUOUS
10
0.404394
20
0.394083
11
0.405069
21
0.393409
0
LINE
8
BLACK
6
CONTINUOUS
10
0.405069
20
0.393409
11
0.407286
21
0.39267
0
LINE
8
BLACK
6
CONTINUOUS
10
0.407286
20
0.39267
11
0.40865
21
0.39267
0
LINE
8
BLACK
6
CONTINUOUS
10
0.40865
20
0.39267
11
0.410867
21
0.393409
0
LINE
8
BLACK
6
CONTINUOUS
10
0.410867
20
0.393409
11
0.412298
21
0.39484
0
LINE
8
BLACK
6
CONTINUOUS
10
0.412298
20
0.39484
11
0.413044
21
0.396331
0
LINE
8
BLACK
6
CONTINUOUS
10
0.413044
20
0.396331
11
0.413892
21
0.399725
0
LINE
8
BLACK
6
CONTINUOUS
10
0.413892
20
0.399725
11
0.413892
21
0.40215
0
LINE
8
BLACK
6
CONTINUOUS
10
0.413892
20
0.40215
11
0.413044
21
0.405543
0
LINE
8
BLACK
6
CONTINUOUS
10
0.413044
20
0.405543
11
0.412298
21
0.407035
0
LINE
8
BLACK
6
CONTINUOUS
10
0.412298
20
0.407035
11
0.410867
21
0.408466
0
LINE
8
BLACK
6
CONTINUOUS
10
0.410867
20
0.408466
11
0.40865
21
0.409205
0
LINE
8
BLACK
6
CONTINUOUS
10
0.40865
20
0.409205
11
0.407286
21
0.409205
0
LINE
8
BLACK
6
CONTINUOUS
10
0.407286
20
0.409205
11
0.405069
21
0.408466
0
LINE
8
BLACK
6
CONTINUOUS
10
0.405069
20
0.408466
11
0.404394
21
0.407792
0
LINE
8
BLACK
6
CONTINUOUS
10
0.404394
20
0.407792
11
0.403281
21
0.40733
0
LINE
8
BLACK
6
CONTINUOUS
10
0.403281
20
0.40733
11
0.402167
21
0.407792
0
LINE
8
BLACK
6
CONTINUOUS
10
0.402167
20
0.407792
11
0.401706
21
0.408905
0
LINE
8
BLACK
6
CONTINUOUS
10
0.401706
20
0.408905
11
0.402167
21
0.410019
0
LINE
8
BLACK
6
CONTINUOUS
10
0.402167
20
0.410019
11
0.403105
21
0.410956
0
LINE
8
BLACK
6
CONTINUOUS
10
0.403105
20
0.410956
11
0.403443
21
0.411096
0
LINE
8
BLACK
6
CONTINUOUS
10
0.403443
20
0.411096
11
0.40372
21
0.411336
0
LINE
8
BLACK
6
CONTINUOUS
10
0.40372
20
0.411336
11
0.406532
21
0.412274
0
LINE
8
BLACK
6
CONTINUOUS
10
0.406532
20
0.412274
11
0.406791
21
0.412256
0
LINE
8
BLACK
6
CONTINUOUS
10
0.406791
20
0.412256
11
0.40703
21
0.412355
0
LINE
8
BLACK
6
CONTINUOUS
10
0.40703
20
0.412355
11
0.408905
21
0.412355
0
LINE
8
BLACK
6
CONTINUOUS
10
0.408905
20
0.412355
11
0.409145
21
0.412256
0
LINE
8
BLACK
6
CONTINUOUS
10
0.680402
20
0.528004
11
0.681093
21
0.526106
0
LINE
8
BLACK
6
CONTINUOUS
10
0.681093
20
0.526106
11
0.681093
21
0.524929
0
LINE
8
BLACK
6
CONTINUOUS
10
0.681093
20
0.524929
11
0.682442
21
0.522231
0
LINE
8
BLACK
6
CONTINUOUS
10
0.682442
20
0.522231
11
0.683978
21
0.520695
0
LINE
8
BLACK
6
CONTINUOUS
10
0.683978
20
0.520695
11
0.684566
21
0.519855
0
LINE
8
BLACK
6
CONTINUOUS
10
0.684566
20
0.519855
11
0.684742
21
0.517843
0
LINE
8
BLACK
6
CONTINUOUS
10
0.684742
20
0.517843
11
0.683583
21
0.516188
0
LINE
8
BLACK
6
CONTINUOUS
10
0.683583
20
0.516188
11
0.681632
21
0.515666
0
LINE
8
BLACK
6
CONTINUOUS
10
0.681632
20
0.515666
11
0.679802
21
0.516519
0
LINE
8
BLACK
6
CONTINUOUS
10
0.679802
20
0.516519
11
0.677927
21
0.518394
0
LINE
8
BLACK
6
CONTINUOUS
10
0.677927
20
0.518394
11
0.677421
21
0.519117
0
LINE
8
BLACK
6
CONTINUOUS
10
0.677421
20
0.519117
11
0.677374
21
0.519161
0
LINE
8
BLACK
6
CONTINUOUS
10
0.677374
20
0.519161
11
0.675499
21
0.522911
0
LINE
8
BLACK
6
CONTINUOUS
10
0.675499
20
0.522911
11
0.675207
21
0.523894
0
LINE
8
BLACK
6
CONTINUOUS
10
0.675207
20
0.523894
11
0.675248
21
0.524066
0
LINE
8
BLACK
6
CONTINUOUS
10
0.675248
20
0.524066
11
0.675187
21
0.524231
0
LINE
8
BLACK
6
CONTINUOUS
10
0.675187
20
0.524231
11
0.675187
21
0.526106
0
LINE
8
BLACK
6
CONTINUOUS
10
0.675187
20
0.526106
11
0.675366
21
0.527116
0
LINE
8
BLACK
6
CONTINUOUS
10
0.675366
20
0.527116
11
0.676664
21
0.528663
0
LINE
8
BLACK
6
CONTINUOUS
10
0.676664
20
0.528663
11
0.678653
21
0.529014
0
LINE
8
BLACK
6
CONTINUOUS
10
0.678653
20
0.529014
11
0.680402
21
0.528004
0
LINE
8
BLACK
6
CONTINUOUS
10
0.880769
20
0.566527
11
0.880836
21
0.566546
0
LINE
8
BLACK
6
CONTINUOUS
10
0.880836
20
0.566546
11
0.880947
21
0.566496
0
LINE
8
BLACK
6
CONTINUOUS
10
0.880947
20
0.566496
11
0.881625
21
0.566376
0
LINE
8
BLACK
6
CONTINUOUS
10
0.881625
20
0.566376
11
0.882105
21
0.565973
0
LINE
8
BLACK
6
CONTINUOUS
10
0.882105
20
0.565973
11
0.882677
21
0.565715
0
LINE
8
BLACK
6
CONTINUOUS
10
0.882677
20
0.565715
11
0.882856
21
0.565343
0
LINE
8
BLACK
6
CONTINUOUS
10
0.882856
20
0.565343
11
0.883172
21
0.565078
0
LINE
8
BLACK
6
CONTINUOUS
10
0.883172
20
0.565078
11
0.883281
21
0.56446
0
LINE
8
BLACK
6
CONTINUOUS
10
0.883281
20
0.56446
11
0.883553
21
0.563895
0
LINE
8
BLACK
6
CONTINUOUS
10
0.883553
20
0.563895
11
0.885428
21
0.545148
0
LINE
8
BLACK
6
CONTINUOUS
10
0.885428
20
0.545148
11
0.885351
21
0.544125
0
LINE
8
BLACK
6
CONTINUOUS
10
0.885351
20
0.544125
11
0.88534
21
0.544109
0
LINE
8
BLACK
6
CONTINUOUS
10
0.88534
20
0.544109
11
0.885342
21
0.54409
0
LINE
8
BLACK
6
CONTINUOUS
10
0.885342
20
0.54409
11
0.884773
21
0.543278
0
LINE
8
BLACK
6
CONTINUOUS
10
0.884773
20
0.543278
11
0.884213
21
0.542456
0
LINE
8
BLACK
6
CONTINUOUS
10
0.884213
20
0.542456
11
0.884194
21
0.542451
0
LINE
8
BLACK
6
CONTINUOUS
10
0.884194
20
0.542451
11
0.884183
21
0.542435
0
LINE
8
BLACK
6
CONTINUOUS
10
0.884183
20
0.542435
11
0.883224
21
0.542178
0
LINE
8
BLACK
6
CONTINUOUS
10
0.883224
20
0.542178
11
0.882269
21
0.541909
0
LINE
8
BLACK
6
CONTINUOUS
10
0.882269
20
0.541909
11
0.882251
21
0.541917
0
LINE
8
BLACK
6
CONTINUOUS
10
0.882251
20
0.541917
11
0.882232
21
0.541912
0
LINE
8
BLACK
6
CONTINUOUS
10
0.882232
20
0.541912
11
0.881334
21
0.542331
0
LINE
8
BLACK
6
CONTINUOUS
10
0.881334
20
0.542331
11
0.880428
21
0.54274
0
LINE
8
BLACK
6
CONTINUOUS
10
0.880428
20
0.54274
11
0.880419
21
0.542758
0
LINE
8
BLACK
6
CONTINUOUS
10
0.880419
20
0.542758
11
0.880402
21
0.542766
0
LINE
8
BLACK
6
CONTINUOUS
10
0.880402
20
0.542766
11
0.878866
21
0.544302
0
LINE
8
BLACK
6
CONTINUOUS
10
0.878866
20
0.544302
11
0.876168
21
0.545651
0
LINE
8
BLACK
6
CONTINUOUS
10
0.876168
20
0.545651
11
0.868189
21
0.545651
0
LINE
8
BLACK
6
CONTINUOUS
10
0.868189
20
0.545651
11
0.865491
21
0.544302
0
LINE
8
BLACK
6
CONTINUOUS
10
0.865491
20
0.544302
11
0.864294
21
0.543105
0
LINE
8
BLACK
6
CONTINUOUS
10
0.864294
20
0.543105
11
0.862945
21
0.540407
0
LINE
8
BLACK
6
CONTINUOUS
10
0.862945
20
0.540407
11
0.862945
21
0.532428
0
LINE
8
BLACK
6
CONTINUOUS
10
0.862945
20
0.532428
11
0.864294
21
0.52973
0
LINE
8
BLACK
6
CONTINUOUS
10
0.864294
20
0.52973
11
0.865491
21
0.528533
0
LINE
8
BLACK
6
CONTINUOUS
10
0.865491
20
0.528533
11
0.868189
21
0.527184
0
LINE
8
BLACK
6
CONTINUOUS
10
0.868189
20
0.527184
11
0.876168
21
0.527184
0
LINE
8
BLACK
6
CONTINUOUS
10
0.876168
20
0.527184
11
0.878866
21
0.528533
0
LINE
8
BLACK
6
CONTINUOUS
10
0.878866
20
0.528533
11
0.880402
21
0.530069
0
LINE
8
BLACK
6
CONTINUOUS
10
0.880402
20
0.530069
11
0.881242
21
0.530657
0
LINE
8
BLACK
6
CONTINUOUS
10
0.881242
20
0.530657
11
0.883254
21
0.530833
0
LINE
8
BLACK
6
CONTINUOUS
10
0.883254
20
0.530833
11
0.884908
21
0.529675
0
LINE
8
BLACK
6
CONTINUOUS
10
0.884908
20
0.529675
11
0.885431
21
0.527724
0
LINE
8
BLACK
6
CONTINUOUS
10
0.885431
20
0.527724
11
0.884578
21
0.525893
0
LINE
8
BLACK
6
CONTINUOUS
10
0.884578
20
0.525893
11
0.882703
21
0.524018
0
LINE
8
BLACK
6
CONTINUOUS
10
0.882703
20
0.524018
11
0.88198
21
0.523512
0
LINE
8
BLACK
6
CONTINUOUS
10
0.88198
20
0.523512
11
0.881935
21
0.523465
0
LINE
8
BLACK
6
CONTINUOUS
10
0.881935
20
0.523465
11
0.878186
21
0.52159
0
LINE
8
BLACK
6
CONTINUOUS
10
0.878186
20
0.52159
11
0.877203
21
0.521298
0
LINE
8
BLACK
6
CONTINUOUS
10
0.877203
20
0.521298
11
0.877031
21
0.521339
0
LINE
8
BLACK
6
CONTINUOUS
10
0.877031
20
0.521339
11
0.876865
21
0.521279
0
LINE
8
BLACK
6
CONTINUOUS
10
0.876865
20
0.521279
11
0.867492
21
0.521279
0
LINE
8
BLACK
6
CONTINUOUS
10
0.867492
20
0.521279
11
0.866482
21
0.521457
0
LINE
8
BLACK
6
CONTINUOUS
10
0.866482
20
0.521457
11
0.866346
21
0.52157
0
LINE
8
BLACK
6
CONTINUOUS
10
0.866346
20
0.52157
11
0.866171
21
0.52159
0
LINE
8
BLACK
6
CONTINUOUS
10
0.866171
20
0.52159
11
0.862421
21
0.523465
0
LINE
8
BLACK
6
CONTINUOUS
10
0.862421
20
0.523465
11
0.861712
21
0.523991
0
LINE
8
BLACK
6
CONTINUOUS
10
0.861712
20
0.523991
11
0.861654
21
0.524018
0
LINE
8
BLACK
6
CONTINUOUS
10
0.861654
20
0.524018
11
0.859779
21
0.525893
0
LINE
8
BLACK
6
CONTINUOUS
10
0.859779
20
0.525893
11
0.859273
21
0.526616
0
LINE
8
BLACK
6
CONTINUOUS
10
0.859273
20
0.526616
11
0.859226
21
0.526661
0
LINE
8
BLACK
6
CONTINUOUS
10
0.859226
20
0.526661
11
0.857351
21
0.53041
0
LINE
8
BLACK
6
CONTINUOUS
10
0.857351
20
0.53041
11
0.857059
21
0.531393
0
LINE
8
BLACK
6
CONTINUOUS
10
0.857059
20
0.531393
11
0.8571
21
0.531565
0
LINE
8
BLACK
6
CONTINUOUS
10
0.8571
20
0.531565
11
0.85704
21
0.531731
0
LINE
8
BLACK
6
CONTINUOUS
10
0.85704
20
0.531731
11
0.85704
21
0.541104
0
LINE
8
BLACK
6
CONTINUOUS
10
0.85704
20
0.541104
11
0.857218
21
0.542114
0
LINE
8
BLACK
6
CONTINUOUS
10
0.857218
20
0.542114
11
0.857331
21
0.54225
0
LINE
8
BLACK
6
CONTINUOUS
10
0.857331
20
0.54225
11
0.857351
21
0.542425
0
LINE
8
BLACK
6
CONTINUOUS
10
0.857351
20
0.542425
11
0.859226
21
0.546174
0
LINE
8
BLACK
6
CONTINUOUS
10
0.859226
20
0.546174
11
0.859752
21
0.546883
0
LINE
8
BLACK
6
CONTINUOUS
10
0.859752
20
0.546883
11
0.859779
21
0.546942
0
LINE
8
BLACK
6
CONTINUOUS
10
0.859779
20
0.546942
11
0.861654
21
0.548817
0
LINE
8
BLACK
6
CONTINUOUS
10
0.861654
20
0.548817
11
0.862377
21
0.549323
0
LINE
8
BLACK
6
CONTINUOUS
10
0.862377
20
0.549323
11
0.862421
21
0.54937
0
LINE
8
BLACK
6
CONTINUOUS
10
0.862421
20
0.54937
11
0.866171
21
0.551244
0
LINE
8
BLACK
6
CONTINUOUS
10
0.866171
20
0.551244
11
0.867154
21
0.551537
0
LINE
8
BLACK
6
CONTINUOUS
10
0.867154
20
0.551537
11
0.867326
21
0.551496
0
LINE
8
BLACK
6
CONTINUOUS
10
0.867326
20
0.551496
11
0.867492
21
0.551556
0
LINE
8
BLACK
6
CONTINUOUS
10
0.867492
20
0.551556
11
0.876865
21
0.551556
0
LINE
8
BLACK
6
CONTINUOUS
10
0.876865
20
0.551556
11
0.877875
21
0.551378
0
LINE
8
BLACK
6
CONTINUOUS
10
0.877875
20
0.551378
11
0.878011
21
0.551265
0
LINE
8
BLACK
6
CONTINUOUS
10
0.878011
20
0.551265
11
0.878186
21
0.551244
0
LINE
8
BLACK
6
CONTINUOUS
10
0.878186
20
0.551244
11
0.87892
21
0.550877
0
LINE
8
BLACK
6
CONTINUOUS
10
0.87892
20
0.550877
11
0.877943
21
0.560649
0
LINE
8
BLACK
6
CONTINUOUS
10
0.877943
20
0.560649
11
0.861867
21
0.560649
0
LINE
8
BLACK
6
CONTINUOUS
10
0.861867
20
0.560649
11
0.860857
21
0.560827
0
LINE
8
BLACK
6
CONTINUOUS
10
0.860857
20
0.560827
11
0.85931
21
0.562125
0
LINE
8
BLACK
6
CONTINUOUS
10
0.85931
20
0.562125
11
0.858959
21
0.564114
0
LINE
8
BLACK
6
CONTINUOUS
10
0.858959
20
0.564114
11
0.859969
21
0.565864
0
LINE
8
BLACK
6
CONTINUOUS
10
0.859969
20
0.565864
11
0.861867
21
0.566554
0
LINE
8
BLACK
6
CONTINUOUS
10
0.861867
20
0.566554
11
0.880615
21
0.566554
0
LINE
8
BLACK
6
CONTINUOUS
10
0.880615
20
0.566554
11
0.880769
21
0.566527
0
LINE
8
BLACK
6
CONTINUOUS
10
0.652903
20
0.566376
11
0.653039
21
0.566263
0
LINE
8
BLACK
6
CONTINUOUS
10
0.653039
20
0.566263
11
0.653214
21
0.566243
0
LINE
8
BLACK
6
CONTINUOUS
10
0.653214
20
0.566243
11
0.656964
21
0.564368
0
LINE
8
BLACK
6
CONTINUOUS
10
0.656964
20
0.564368
11
0.657673
21
0.563842
0
LINE
8
BLACK
6
CONTINUOUS
10
0.657673
20
0.563842
11
0.657731
21
0.563815
0
LINE
8
BLACK
6
CONTINUOUS
10
0.657731
20
0.563815
11
0.659606
21
0.56194
0
LINE
8
BLACK
6
CONTINUOUS
10
0.659606
20
0.56194
11
0.659864
21
0.561571
0
LINE
8
BLACK
6
CONTINUOUS
10
0.659864
20
0.561571
11
0.659975
21
0.56149
0
LINE
8
BLACK
6
CONTINUOUS
10
0.659975
20
0.56149
11
0.663724
21
0.555866
0
LINE
8
BLACK
6
CONTINUOUS
10
0.663724
20
0.555866
11
0.664122
21
0.554958
0
LINE
8
BLACK
6
CONTINUOUS
10
0.664122
20
0.554958
11
0.664132
21
0.554944
0
LINE
8
BLACK
6
CONTINUOUS
10
0.664132
20
0.554944
11
0.666007
21
0.547445
0
LINE
8
BLACK
6
CONTINUOUS
10
0.666007
20
0.547445
11
0.666048
21
0.546857
0
LINE
8
BLACK
6
CONTINUOUS
10
0.666048
20
0.546857
11
0.666095
21
0.546729
0
LINE
8
BLACK
6
CONTINUOUS
10
0.666095
20
0.546729
11
0.666095
21
0.531731
0
LINE
8
BLACK
6
CONTINUOUS
10
0.666095
20
0.531731
11
0.665917
21
0.530721
0
LINE
8
BLACK
6
CONTINUOUS
10
0.665917
20
0.530721
11
0.665803
21
0.530585
0
LINE
8
BLACK
6
CONTINUOUS
10
0.665803
20
0.530585
11
0.665783
21
0.53041
0
LINE
8
BLACK
6
CONTINUOUS
10
0.665783
20
0.53041
11
0.663908
21
0.526661
0
LINE
8
BLACK
6
CONTINUOUS
10
0.663908
20
0.526661
11
0.663382
21
0.525951
0
LINE
8
BLACK
6
CONTINUOUS
10
0.663382
20
0.525951
11
0.663355
21
0.525893
0
LINE
8
BLACK
6
CONTINUOUS
10
0.663355
20
0.525893
11
0.66148
21
0.524018
0
LINE
8
BLACK
6
CONTINUOUS
10
0.66148
20
0.524018
11
0.660757
21
0.523512
0
LINE
8
BLACK
6
CONTINUOUS
10
0.660757
20
0.523512
11
0.660713
21
0.523465
0
LINE
8
BLACK
6
CONTINUOUS
10
0.660713
20
0.523465
11
0.656964
21
0.52159
0
LINE
8
BLACK
6
CONTINUOUS
10
0.656964
20
0.52159
11
0.655981
21
0.521298
0
LINE
8
BLACK
6
CONTINUOUS
10
0.655981
20
0.521298
11
0.655809
21
0.521339
0
LINE
8
BLACK
6
CONTINUOUS
10
0.655809
20
0.521339
11
0.655643
21
0.521279
0
LINE
8
BLACK
6
CONTINUOUS
10
0.655643
20
0.521279
11
0.648144
21
0.521279
0
LINE
8
BLACK
6
CONTINUOUS
10
0.648144
20
0.521279
11
0.647134
21
0.521457
0
LINE
8
BLACK
6
CONTINUOUS
10
0.647134
20
0.521457
11
0.646999
21
0.52157
0
LINE
8
BLACK
6
CONTINUOUS
10
0.646999
20
0.52157
11
0.646823
21
0.52159
0
LINE
8
BLACK
6
CONTINUOUS
10
0.646823
20
0.52159
11
0.643074
21
0.523465
0
LINE
8
BLACK
6
CONTINUOUS
10
0.643074
20
0.523465
11
0.642365
21
0.523991
0
LINE
8
BLACK
6
CONTINUOUS
10
0.642365
20
0.523991
11
0.642307
21
0.524018
0
LINE
8
BLACK
6
CONTINUOUS
10
0.642307
20
0.524018
11
0.640432
21
0.525893
0
LINE
8
BLACK
6
CONTINUOUS
10
0.640432
20
0.525893
11
0.639926
21
0.526616
0
LINE
8
BLACK
6
CONTINUOUS
10
0.639926
20
0.526616
11
0.639879
21
0.52666
0
LINE
8
BLACK
6
CONTINUOUS
10
0.639879
20
0.52666
11
0.638004
21
0.53041
0
LINE
8
BLACK
6
CONTINUOUS
10
0.638004
20
0.53041
11
0.637711
21
0.531393
0
LINE
8
BLACK
6
CONTINUOUS
10
0.637711
20
0.531393
11
0.637753
21
0.531565
0
LINE
8
BLACK
6
CONTINUOUS
10
0.637753
20
0.531565
11
0.637692
21
0.531731
0
LINE
8
BLACK
6
CONTINUOUS
10
0.637692
20
0.531731
11
0.637692
21
0.541104
0
LINE
8
BLACK
6
CONTINUOUS
10
0.637692
20
0.541104
11
0.63787
21
0.542114
0
LINE
8
BLACK
6
CONTINUOUS
10
0.63787
20
0.542114
11
0.637984
21
0.54225
0
LINE
8
BLACK
6
CONTINUOUS
10
0.637984
20
0.54225
11
0.638004
21
0.542425
0
LINE
8
BLACK
6
CONTINUOUS
10
0.638004
20
0.542425
11
0.639879
21
0.546174
0
LINE
8
BLACK
6
CONTINUOUS
10
0.639879
20
0.546174
11
0.640405
21
0.546883
0
LINE
8
BLACK
6
CONTINUOUS
10
0.640405
20
0.546883
11
0.640432
21
0.546942
0
LINE
8
BLACK
6
CONTINUOUS
10
0.640432
20
0.546942
11
0.642307
21
0.548817
0
LINE
8
BLACK
6
CONTINUOUS
10
0.642307
20
0.548817
11
0.64303
21
0.549323
0
LINE
8
BLACK
6
CONTINUOUS
10
0.64303
20
0.549323
11
0.643074
21
0.54937
0
LINE
8
BLACK
6
CONTINUOUS
10
0.643074
20
0.54937
11
0.646823
21
0.551244
0
LINE
8
BLACK
6
CONTINUOUS
10
0.646823
20
0.551244
11
0.647806
21
0.551537
0
LINE
8
BLACK
6
CONTINUOUS
10
0.647806
20
0.551537
11
0.647978
21
0.551496
0
LINE
8
BLACK
6
CONTINUOUS
10
0.647978
20
0.551496
11
0.648144
21
0.551556
0
LINE
8
BLACK
6
CONTINUOUS
10
0.648144
20
0.551556
11
0.655643
21
0.551556
0
LINE
8
BLACK
6
CONTINUOUS
10
0.655643
20
0.551556
11
0.656653
21
0.551378
0
LINE
8
BLACK
6
CONTINUOUS
10
0.656653
20
0.551378
11
0.656788
21
0.551265
0
LINE
8
BLACK
6
CONTINUOUS
10
0.656788
20
0.551265
11
0.656964
21
0.551244
0
LINE
8
BLACK
6
CONTINUOUS
10
0.656964
20
0.551244
11
0.659256
21
0.550098
0
LINE
8
BLACK
6
CONTINUOUS
10
0.659256
20
0.550098
11
0.658527
21
0.553015
0
LINE
8
BLACK
6
CONTINUOUS
10
0.658527
20
0.553015
11
0.655223
21
0.557971
0
LINE
8
BLACK
6
CONTINUOUS
10
0.655223
20
0.557971
11
0.653894
21
0.5593
0
LINE
8
BLACK
6
CONTINUOUS
10
0.653894
20
0.5593
11
0.651196
21
0.560649
0
LINE
8
BLACK
6
CONTINUOUS
10
0.651196
20
0.560649
11
0.644394
21
0.560649
0
LINE
8
BLACK
6
CONTINUOUS
10
0.644394
20
0.560649
11
0.643385
21
0.560827
0
LINE
8
BLACK
6
CONTINUOUS
10
0.643385
20
0.560827
11
0.641837
21
0.562125
0
LINE
8
BLACK
6
CONTINUOUS
10
0.641837
20
0.562125
11
0.641487
21
0.564114
0
LINE
8
BLACK
6
CONTINUOUS
10
0.641487
20
0.564114
11
0.642496
21
0.565864
0
LINE
8
BLACK
6
CONTINUOUS
10
0.642496
20
0.565864
11
0.644394
21
0.566554
0
LINE
8
BLACK
6
CONTINUOUS
10
0.644394
20
0.566554
11
0.651894
21
0.566554
0
LINE
8
BLACK
6
CONTINUOUS
10
0.651894
20
0.566554
11
0.652903
21
0.566376
0
LINE
8
BLACK
6
CONTINUOUS
10
0.648841
20
0.545651
11
0.646144
21
0.544302
0
LINE
8
BLACK
6
CONTINUOUS
10
0.646144
20
0.544302
11
0.644946
21
0.543105
0
LINE
8
BLACK
6
CONTINUOUS
10
0.644946
20
0.543105
11
0.643598
21
0.540407
0
LINE
8
BLACK
6
CONTINUOUS
10
0.643598
20
0.540407
11
0.643598
21
0.532428
0
LINE
8
BLACK
6
CONTINUOUS
10
0.643598
20
0.532428
11
0.644946
21
0.52973
0
LINE
8
BLACK
6
CONTINUOUS
10
0.644946
20
0.52973
11
0.646144
21
0.528533
0
LINE
8
BLACK
6
CONTINUOUS
10
0.646144
20
0.528533
11
0.648841
21
0.527184
0
LINE
8
BLACK
6
CONTINUOUS
10
0.648841
20
0.527184
11
0.654946
21
0.527184
0
LINE
8
BLACK
6
CONTINUOUS
10
0.654946
20
0.527184
11
0.657643
21
0.528533
0
LINE
8
BLACK
6
CONTINUOUS
10
0.657643
20
0.528533
11
0.658841
21
0.52973
0
LINE
8
BLACK
6
CONTINUOUS
10
0.658841
20
0.52973
11
0.660189
21
0.532428
0
LINE
8
BLACK
6
CONTINUOUS
10
0.660189
20
0.532428
11
0.660189
21
0.540407
0
LINE
8
BLACK
6
CONTINUOUS
10
0.660189
20
0.540407
11
0.658841
21
0.543105
0
LINE
8
BLACK
6
CONTINUOUS
10
0.658841
20
0.543105
11
0.657643
21
0.544302
0
LINE
8
BLACK
6
CONTINUOUS
10
0.657643
20
0.544302
11
0.654946
21
0.545651
0
LINE
8
BLACK
6
CONTINUOUS
10
0.654946
20
0.545651
11
0.648841
21
0.545651
0
LINE
8
BLACK
6
CONTINUOUS
10
0.956615
20
0.566376
11
0.958163
21
0.565078
0
LINE
8
BLACK
6
CONTINUOUS
10
0.958163
20
0.565078
11
0.958513
21
0.563089
0
LINE
8
BLACK
6
CONTINUOUS
10
0.958513
20
0.563089
11
0.957504
21
0.56134
0
LINE
8
BLACK
6
CONTINUOUS
10
0.957504
20
0.56134
11
0.955606
21
0.560649
0
LINE
8
BLACK
6
CONTINUOUS
10
0.955606
20
0.560649
11
0.934876
21
0.560649
0
LINE
8
BLACK
6
CONTINUOUS
10
0.934876
20
0.560649
11
0.958062
21
0.525869
0
LINE
8
BLACK
6
CONTINUOUS
10
0.958062
20
0.525869
11
0.958116
21
0.525747
0
LINE
8
BLACK
6
CONTINUOUS
10
0.958116
20
0.525747
11
0.958163
21
0.525708
0
LINE
8
BLACK
6
CONTINUOUS
10
0.958163
20
0.525708
11
0.958182
21
0.525596
0
LINE
8
BLACK
6
CONTINUOUS
10
0.958182
20
0.525596
11
0.958474
21
0.52493
0
LINE
8
BLACK
6
CONTINUOUS
10
0.958474
20
0.52493
11
0.958407
21
0.524322
0
LINE
8
BLACK
6
CONTINUOUS
10
0.958407
20
0.524322
11
0.958513
21
0.523719
0
LINE
8
BLACK
6
CONTINUOUS
10
0.958513
20
0.523719
11
0.958299
21
0.523348
0
LINE
8
BLACK
6
CONTINUOUS
10
0.958299
20
0.523348
11
0.958252
21
0.522923
0
LINE
8
BLACK
6
CONTINUOUS
10
0.958252
20
0.522923
11
0.95781
21
0.5225
0
LINE
8
BLACK
6
CONTINUOUS
10
0.95781
20
0.5225
11
0.957504
21
0.52197
0
LINE
8
BLACK
6
CONTINUOUS
10
0.957504
20
0.52197
11
0.957101
21
0.521823
0
LINE
8
BLACK
6
CONTINUOUS
10
0.957101
20
0.521823
11
0.956792
21
0.521528
0
LINE
8
BLACK
6
CONTINUOUS
10
0.956792
20
0.521528
11
0.956181
21
0.521488
0
LINE
8
BLACK
6
CONTINUOUS
10
0.956181
20
0.521488
11
0.955606
21
0.521279
0
LINE
8
BLACK
6
CONTINUOUS
10
0.955606
20
0.521279
11
0.929359
21
0.521279
0
LINE
8
BLACK
6
CONTINUOUS
10
0.929359
20
0.521279
11
0.928349
21
0.521457
0
LINE
8
BLACK
6
CONTINUOUS
10
0.928349
20
0.521457
11
0.926802
21
0.522755
0
LINE
8
BLACK
6
CONTINUOUS
10
0.926802
20
0.522755
11
0.926451
21
0.524744
0
LINE
8
BLACK
6
CONTINUOUS
10
0.926451
20
0.524744
11
0.927461
21
0.526493
0
LINE
8
BLACK
6
CONTINUOUS
10
0.927461
20
0.526493
11
0.929359
21
0.527184
0
LINE
8
BLACK
6
CONTINUOUS
10
0.929359
20
0.527184
11
0.950088
21
0.527184
0
LINE
8
BLACK
6
CONTINUOUS
10
0.950088
20
0.527184
11
0.926902
21
0.561964
0
LINE
8
BLACK
6
CONTINUOUS
10
0.926902
20
0.561964
11
0.926848
21
0.562086
0
LINE
8
BLACK
6
CONTINUOUS
10
0.926848
20
0.562086
11
0.926802
21
0.562125
0
LINE
8
BLACK
6
CONTINUOUS
10
0.926802
20
0.562125
11
0.926782
21
0.562237
0
LINE
8
BLACK
6
CONTINUOUS
10
0.926782
20
0.562237
11
0.92649
21
0.562903
0
LINE
8
BLACK
6
CONTINUOUS
10
0.92649
20
0.562903
11
0.926557
21
0.563511
0
LINE
8
BLACK
6
CONTINUOUS
10
0.926557
20
0.563511
11
0.926451
21
0.564114
0
LINE
8
BLACK
6
CONTINUOUS
10
0.926451
20
0.564114
11
0.926665
21
0.564485
0
LINE
8
BLACK
6
CONTINUOUS
10
0.926665
20
0.564485
11
0.926712
21
0.56491
0
LINE
8
BLACK
6
CONTINUOUS
10
0.926712
20
0.56491
11
0.927155
21
0.565333
0
LINE
8
BLACK
6
CONTINUOUS
10
0.927155
20
0.565333
11
0.927461
21
0.565864
0
LINE
8
BLACK
6
CONTINUOUS
10
0.927461
20
0.565864
11
0.927863
21
0.56601
0
LINE
8
BLACK
6
CONTINUOUS
10
0.927863
20
0.56601
11
0.928172
21
0.566306
0
LINE
8
BLACK
6
CONTINUOUS
10
0.928172
20
0.566306
11
0.928783
21
0.566345
0
LINE
8
BLACK
6
CONTINUOUS
10
0.928783
20
0.566345
11
0.929359
21
0.566554
0
LINE
8
BLACK
6
CONTINUOUS
10
0.929359
20
0.566554
11
0.955606
21
0.566554
0
LINE
8
BLACK
6
CONTINUOUS
10
0.955606
20
0.566554
11
0.956615
21
0.566376
0
LINE
8
BLACK
6
CONTINUOUS
10
0.717664
20
0.566527
11
0.717731
21
0.566546
0
LINE
8
BLACK
6
CONTINUOUS
10
0.717731
20
0.566546
11
0.717843
21
0.566496
0
LINE
8
BLACK
6
CONTINUOUS
10
0.717843
20
0.566496
11
0.71852
21
0.566376
0
LINE
8
BLACK
6
CONTINUOUS
10
0.71852
20
0.566376
11
0.719001
21
0.565973
0
LINE
8
BLACK
6
CONTINUOUS
10
0.719001
20
0.565973
11
0.719572
21
0.565715
0
LINE
8
BLACK
6
CONTINUOUS
10
0.719572
20
0.565715
11
0.719751
21
0.565343
0
LINE
8
BLACK
6
CONTINUOUS
10
0.719751
20
0.565343
11
0.720067
21
0.565078
0
LINE
8
BLACK
6
CONTINUOUS
10
0.720067
20
0.565078
11
0.720176
21
0.56446
0
LINE
8
BLACK
6
CONTINUOUS
10
0.720176
20
0.56446
11
0.720448
21
0.563895
0
LINE
8
BLACK
6
CONTINUOUS
10
0.720448
20
0.563895
11
0.722323
21
0.545148
0
LINE
8
BLACK
6
CONTINUOUS
10
0.722323
20
0.545148
11
0.722246
21
0.544125
0
LINE
8
BLACK
6
CONTINUOUS
10
0.722246
20
0.544125
11
0.722235
21
0.544109
0
LINE
8
BLACK
6
CONTINUOUS
10
0.722235
20
0.544109
11
0.722237
21
0.54409
0
LINE
8
BLACK
6
CONTINUOUS
10
0.722237
20
0.54409
11
0.721669
21
0.543278
0
LINE
8
BLACK
6
CONTINUOUS
10
0.721669
20
0.543278
11
0.721109
21
0.542456
0
LINE
8
BLACK
6
CONTINUOUS
10
0.721109
20
0.542456
11
0.72109
21
0.542451
0
LINE
8
BLACK
6
CONTINUOUS
10
0.72109
20
0.542451
11
0.721079
21
0.542435
0
LINE
8
BLACK
6
CONTINUOUS
10
0.721079
20
0.542435
11
0.72012
21
0.542178
0
LINE
8
BLACK
6
CONTINUOUS
10
0.72012
20
0.542178
11
0.719164
21
0.541909
0
LINE
8
BLACK
6
CONTINUOUS
10
0.719164
20
0.541909
11
0.719146
21
0.541917
0
LINE
8
BLACK
6
CONTINUOUS
10
0.719146
20
0.541917
11
0.719128
21
0.541912
0
LINE
8
BLACK
6
CONTINUOUS
10
0.719128
20
0.541912
11
0.718229
21
0.542331
0
LINE
8
BLACK
6
CONTINUOUS
10
0.718229
20
0.542331
11
0.717323
21
0.54274
0
LINE
8
BLACK
6
CONTINUOUS
10
0.717323
20
0.54274
11
0.717315
21
0.542758
0
LINE
8
BLACK
6
CONTINUOUS
10
0.717315
20
0.542758
11
0.717297
21
0.542766
0
LINE
8
BLACK
6
CONTINUOUS
10
0.717297
20
0.542766
11
0.715761
21
0.544302
0
LINE
8
BLACK
6
CONTINUOUS
10
0.715761
20
0.544302
11
0.713064
21
0.545651
0
LINE
8
BLACK
6
CONTINUOUS
10
0.713064
20
0.545651
11
0.705084
21
0.545651
0
LINE
8
BLACK
6
CONTINUOUS
10
0.705084
20
0.545651
11
0.702386
21
0.544302
0
LINE
8
BLACK
6
CONTINUOUS
10
0.702386
20
0.544302
11
0.701189
21
0.543105
0
LINE
8
BLACK
6
CONTINUOUS
10
0.701189
20
0.543105
11
0.699841
21
0.540407
0
LINE
8
BLACK
6
CONTINUOUS
10
0.699841
20
0.540407
11
0.699841
21
0.532428
0
LINE
8
BLACK
6
CONTINUOUS
10
0.699841
20
0.532428
11
0.701189
21
0.52973
0
LINE
8
BLACK
6
CONTINUOUS
10
0.701189
20
0.52973
11
0.702386
21
0.528533
0
LINE
8
BLACK
6
CONTINUOUS
10
0.702386
20
0.528533
11
0.705084
21
0.527184
0
LINE
8
BLACK
6
CONTINUOUS
10
0.705084
20
0.527184
11
0.713064
21
0.527184
0
LINE
8
BLACK
6
CONTINUOUS
10
0.713064
20
0.527184
11
0.715761
21
0.528533
0
LINE
8
BLACK
6
CONTINUOUS
10
0.715761
20
0.528533
11
0.717297
21
0.530069
0
LINE
8
BLACK
6
CONTINUOUS
10
0.717297
20
0.530069
11
0.718137
21
0.530657
0
LINE
8
BLACK
6
CONTINUOUS
10
0.718137
20
0.530657
11
0.720149
21
0.530833
0
LINE
8
BLACK
6
CONTINUOUS
10
0.720149
20
0.530833
11
0.721804
21
0.529675
0
LINE
8
BLACK
6
CONTINUOUS
10
0.721804
20
0.529675
11
0.722327
21
0.527724
0
LINE
8
BLACK
6
CONTINUOUS
10
0.722327
20
0.527724
11
0.721473
21
0.525893
0
LINE
8
BLACK
6
CONTINUOUS
10
0.721473
20
0.525893
11
0.719598
21
0.524018
0
LINE
8
BLACK
6
CONTINUOUS
10
0.719598
20
0.524018
11
0.718875
21
0.523512
0
LINE
8
BLACK
6
CONTINUOUS
10
0.718875
20
0.523512
11
0.718831
21
0.523465
0
LINE
8
BLACK
6
CONTINUOUS
10
0.718831
20
0.523465
11
0.715081
21
0.52159
0
LINE
8
BLACK
6
CONTINUOUS
10
0.715081
20
0.52159
11
0.714098
21
0.521298
0
LINE
8
BLACK
6
CONTINUOUS
10
0.714098
20
0.521298
11
0.713927
21
0.521339
0
LINE
8
BLACK
6
CONTINUOUS
10
0.713927
20
0.521339
11
0.713761
21
0.521279
0
LINE
8
BLACK
6
CONTINUOUS
10
0.713761
20
0.521279
11
0.704387
21
0.521279
0
LINE
8
BLACK
6
CONTINUOUS
10
0.704387
20
0.521279
11
0.703377
21
0.521457
0
LINE
8
BLACK
6
CONTINUOUS
10
0.703377
20
0.521457
11
0.703242
21
0.52157
0
LINE
8
BLACK
6
CONTINUOUS
10
0.703242
20
0.52157
11
0.703066
21
0.52159
0
LINE
8
BLACK
6
CONTINUOUS
10
0.703066
20
0.52159
11
0.699317
21
0.523465
0
LINE
8
BLACK
6
CONTINUOUS
10
0.699317
20
0.523465
11
0.698608
21
0.523991
0
LINE
8
BLACK
6
CONTINUOUS
10
0.698608
20
0.523991
11
0.698549
21
0.524018
0
LINE
8
BLACK
6
CONTINUOUS
10
0.698549
20
0.524018
11
0.696675
21
0.525893
0
LINE
8
BLACK
6
CONTINUOUS
10
0.696675
20
0.525893
11
0.696168
21
0.526616
0
LINE
8
BLACK
6
CONTINUOUS
10
0.696168
20
0.526616
11
0.696122
21
0.526661
0
LINE
8
BLACK
6
CONTINUOUS
10
0.696122
20
0.526661
11
0.694247
21
0.53041
0
LINE
8
BLACK
6
CONTINUOUS
10
0.694247
20
0.53041
11
0.693954
21
0.531393
0
LINE
8
BLACK
6
CONTINUOUS
10
0.693954
20
0.531393
11
0.693996
21
0.531565
0
LINE
8
BLACK
6
CONTINUOUS
10
0.693996
20
0.531565
11
0.693935
21
0.531731
0
LINE
8
BLACK
6
CONTINUOUS
10
0.693935
20
0.531731
11
0.693935
21
0.541104
0
LINE
8
BLACK
6
CONTINUOUS
10
0.693935
20
0.541104
11
0.694113
21
0.542114
0
LINE
8
BLACK
6
CONTINUOUS
10
0.694113
20
0.542114
11
0.694227
21
0.54225
0
LINE
8
BLACK
6
CONTINUOUS
10
0.694227
20
0.54225
11
0.694247
21
0.542425
0
LINE
8
BLACK
6
CONTINUOUS
10
0.694247
20
0.542425
11
0.696122
21
0.546174
0
LINE
8
BLACK
6
CONTINUOUS
10
0.696122
20
0.546174
11
0.696648
21
0.546883
0
LINE
8
BLACK
6
CONTINUOUS
10
0.696648
20
0.546883
11
0.696675
21
0.546942
0
LINE
8
BLACK
6
CONTINUOUS
10
0.696675
20
0.546942
11
0.698549
21
0.548817
0
LINE
8
BLACK
6
CONTINUOUS
10
0.698549
20
0.548817
11
0.699273
21
0.549323
0
LINE
8
BLACK
6
CONTINUOUS
10
0.699273
20
0.549323
11
0.699317
21
0.54937
0
LINE
8
BLACK
6
CONTINUOUS
10
0.699317
20
0.54937
11
0.703066
21
0.551244
0
LINE
8
BLACK
6
CONTINUOUS
10
0.703066
20
0.551244
11
0.704049
21
0.551537
0
LINE
8
BLACK
6
CONTINUOUS
10
0.704049
20
0.551537
11
0.704221
21
0.551496
0
LINE
8
BLACK
6
CONTINUOUS
10
0.704221
20
0.551496
11
0.704387
21
0.551556
0
LINE
8
BLACK
6
CONTINUOUS
10
0.704387
20
0.551556
11
0.713761
21
0.551556
0
LINE
8
BLACK
6
CONTINUOUS
10
0.713761
20
0.551556
11
0.714771
21
0.551378
0
LINE
8
BLACK
6
CONTINUOUS
10
0.714771
20
0.551378
11
0.714906
21
0.551265
0
LINE
8
BLACK
6
CONTINUOUS
10
0.714906
20
0.551265
11
0.715081
21
0.551244
0
LINE
8
BLACK
6
CONTINUOUS
10
0.715081
20
0.551244
11
0.715815
21
0.550877
0
LINE
8
BLACK
6
CONTINUOUS
10
0.715815
20
0.550877
11
0.714838
21
0.560649
0
LINE
8
BLACK
6
CONTINUOUS
10
0.714838
20
0.560649
11
0.698763
21
0.560649
0
LINE
8
BLACK
6
CONTINUOUS
10
0.698763
20
0.560649
11
0.697753
21
0.560827
0
LINE
8
BLACK
6
CONTINUOUS
10
0.697753
20
0.560827
11
0.696205
21
0.562125
0
LINE
8
BLACK
6
CONTINUOUS
10
0.696205
20
0.562125
11
0.695855
21
0.564114
0
LINE
8
BLACK
6
CONTINUOUS
10
0.695855
20
0.564114
11
0.696865
21
0.565864
0
LINE
8
BLACK
6
CONTINUOUS
10
0.696865
20
0.565864
11
0.698763
21
0.566554
0
LINE
8
BLACK
6
CONTINUOUS
10
0.698763
20
0.566554
11
0.71751
21
0.566554
0
LINE
8
BLACK
6
CONTINUOUS
10
0.71751
20
0.566554
11
0.717664
21
0.566527
0
LINE
8
BLACK
6
CONTINUOUS
10
0.99161
20
0.566487
11
0.991739
21
0.566509
0
LINE
8
BLACK
6
CONTINUOUS
10
0.991739
20
0.566509
11
0.991852
21
0.566444
0
LINE
8
BLACK
6
CONTINUOUS
10
0.991852
20
0.566444
11
0.992236
21
0.566376
0
LINE
8
BLACK
6
CONTINUOUS
10
0.992236
20
0.566376
11
0.992824
21
0.565883
0
LINE
8
BLACK
6
CONTINUOUS
10
0.992824
20
0.565883
11
0.993488
21
0.5655
0
LINE
8
BLACK
6
CONTINUOUS
10
0.993488
20
0.5655
11
0.993579
21
0.565249
0
LINE
8
BLACK
6
CONTINUOUS
10
0.993579
20
0.565249
11
0.993783
21
0.565078
0
LINE
8
BLACK
6
CONTINUOUS
10
0.993783
20
0.565078
11
0.993916
21
0.564322
0
LINE
8
BLACK
6
CONTINUOUS
10
0.993916
20
0.564322
11
0.994179
21
0.563602
0
LINE
8
BLACK
6
CONTINUOUS
10
0.994179
20
0.563602
11
0.994179
21
0.524231
0
LINE
8
BLACK
6
CONTINUOUS
10
0.994179
20
0.524231
11
0.994111
21
0.523848
0
LINE
8
BLACK
6
CONTINUOUS
10
0.994111
20
0.523848
11
0.994134
21
0.523719
0
LINE
8
BLACK
6
CONTINUOUS
10
0.994134
20
0.523719
11
0.994068
21
0.523605
0
LINE
8
BLACK
6
CONTINUOUS
10
0.994068
20
0.523605
11
0.994001
21
0.523222
0
LINE
8
BLACK
6
CONTINUOUS
10
0.994001
20
0.523222
11
0.993508
21
0.522634
0
LINE
8
BLACK
6
CONTINUOUS
10
0.993508
20
0.522634
11
0.993124
21
0.52197
0
LINE
8
BLACK
6
CONTINUOUS
10
0.993124
20
0.52197
11
0.992874
21
0.521878
0
LINE
8
BLACK
6
CONTINUOUS
10
0.992874
20
0.521878
11
0.992702
21
0.521674
0
LINE
8
BLACK
6
CONTINUOUS
10
0.992702
20
0.521674
11
0.991947
21
0.521541
0
LINE
8
BLACK
6
CONTINUOUS
10
0.991947
20
0.521541
11
0.991226
21
0.521279
0
LINE
8
BLACK
6
CONTINUOUS
10
0.991226
20
0.521279
11
0.976228
21
0.521279
0
LINE
8
BLACK
6
CONTINUOUS
10
0.976228
20
0.521279
11
0.975218
21
0.521457
0
LINE
8
BLACK
6
CONTINUOUS
10
0.975218
20
0.521457
11
0.975083
21
0.52157
0
LINE
8
BLACK
6
CONTINUOUS
10
0.975083
20
0.52157
11
0.974907
21
0.52159
0
LINE
8
BLACK
6
CONTINUOUS
10
0.974907
20
0.52159
11
0.971158
21
0.523465
0
LINE
8
BLACK
6
CONTINUOUS
10
0.971158
20
0.523465
11
0.970449
21
0.523991
0
LINE
8
BLACK
6
CONTINUOUS
10
0.970449
20
0.523991
11
0.970391
21
0.524018
0
LINE
8
BLACK
6
CONTINUOUS
10
0.970391
20
0.524018
11
0.968516
21
0.525893
0
LINE
8
BLACK
6
CONTINUOUS
10
0.968516
20
0.525893
11
0.968009
21
0.526616
0
LINE
8
BLACK
6
CONTINUOUS
10
0.968009
20
0.526616
11
0.967963
21
0.526661
0
LINE
8
BLACK
6
CONTINUOUS
10
0.967963
20
0.526661
11
0.966088
21
0.53041
0
LINE
8
BLACK
6
CONTINUOUS
10
0.966088
20
0.53041
11
0.965796
21
0.531393
0
LINE
8
BLACK
6
CONTINUOUS
10
0.965796
20
0.531393
11
0.965837
21
0.531565
0
LINE
8
BLACK
6
CONTINUOUS
10
0.965837
20
0.531565
11
0.965776
21
0.531731
0
LINE
8
BLACK
6
CONTINUOUS
10
0.965776
20
0.531731
11
0.965776
21
0.537355
0
LINE
8
BLACK
6
CONTINUOUS
10
0.965776
20
0.537355
11
0.965954
21
0.538365
0
LINE
8
BLACK
6
CONTINUOUS
10
0.965954
20
0.538365
11
0.966068
21
0.5385
0
LINE
8
BLACK
6
CONTINUOUS
10
0.966068
20
0.5385
11
0.966088
21
0.538675
0
LINE
8
BLACK
6
CONTINUOUS
10
0.966088
20
0.538675
11
0.967963
21
0.542425
0
LINE
8
BLACK
6
CONTINUOUS
10
0.967963
20
0.542425
11
0.968489
21
0.543134
0
LINE
8
BLACK
6
CONTINUOUS
10
0.968489
20
0.543134
11
0.968516
21
0.543192
0
LINE
8
BLACK
6
CONTINUOUS
10
0.968516
20
0.543192
11
0.970391
21
0.545067
0
LINE
8
BLACK
6
CONTINUOUS
10
0.970391
20
0.545067
11
0.971231
21
0.545655
0
LINE
8
BLACK
6
CONTINUOUS
10
0.971231
20
0.545655
11
0.971249
21
0.545657
0
LINE
8
BLACK
6
CONTINUOUS
10
0.971249
20
0.545657
11
0.970391
21
0.546516
0
LINE
8
BLACK
6
CONTINUOUS
10
0.970391
20
0.546516
11
0.969884
21
0.547239
0
LINE
8
BLACK
6
CONTINUOUS
10
0.969884
20
0.547239
11
0.969837
21
0.547283
0
LINE
8
BLACK
6
CONTINUOUS
10
0.969837
20
0.547283
11
0.967963
21
0.551032
0
LINE
8
BLACK
6
CONTINUOUS
10
0.967963
20
0.551032
11
0.96767
21
0.552015
0
LINE
8
BLACK
6
CONTINUOUS
10
0.96767
20
0.552015
11
0.967711
21
0.552187
0
LINE
8
BLACK
6
CONTINUOUS
10
0.967711
20
0.552187
11
0.967651
21
0.552353
0
LINE
8
BLACK
6
CONTINUOUS
10
0.967651
20
0.552353
11
0.967651
21
0.556102
0
LINE
8
BLACK
6
CONTINUOUS
10
0.967651
20
0.556102
11
0.967829
21
0.557112
0
LINE
8
BLACK
6
CONTINUOUS
10
0.967829
20
0.557112
11
0.967942
21
0.557248
0
LINE
8
BLACK
6
CONTINUOUS
10
0.967942
20
0.557248
11
0.967963
21
0.557423
0
LINE
8
BLACK
6
CONTINUOUS
10
0.967963
20
0.557423
11
0.969837
21
0.561173
0
LINE
8
BLACK
6
CONTINUOUS
10
0.969837
20
0.561173
11
0.970363
21
0.561882
0
LINE
8
BLACK
6
CONTINUOUS
10
0.970363
20
0.561882
11
0.970391
21
0.56194
0
LINE
8
BLACK
6
CONTINUOUS
10
0.970391
20
0.56194
11
0.972265
21
0.563815
0
LINE
8
BLACK
6
CONTINUOUS
10
0.972265
20
0.563815
11
0.972988
21
0.564321
0
LINE
8
BLACK
6
CONTINUOUS
10
0.972988
20
0.564321
11
0.973033
21
0.564368
0
LINE
8
BLACK
6
CONTINUOUS
10
0.973033
20
0.564368
11
0.976782
21
0.566243
0
LINE
8
BLACK
6
CONTINUOUS
10
0.976782
20
0.566243
11
0.977765
21
0.566535
0
LINE
8
BLACK
6
CONTINUOUS
10
0.977765
20
0.566535
11
0.977937
21
0.566494
0
LINE
8
BLACK
6
CONTINUOUS
10
0.977937
20
0.566494
11
0.978103
21
0.566554
0
LINE
8
BLACK
6
CONTINUOUS
10
0.978103
20
0.566554
11
0.991226
21
0.566554
0
LINE
8
BLACK
6
CONTINUOUS
10
0.991226
20
0.566554
11
0.99161
21
0.566487
0
LINE
8
BLACK
6
CONTINUOUS
10
0.978582
20
0.541901
11
0.974073
21
0.540398
0
LINE
8
BLACK
6
CONTINUOUS
10
0.974073
20
0.540398
11
0.97303
21
0.539355
0
LINE
8
BLACK
6
CONTINUOUS
10
0.97303
20
0.539355
11
0.971682
21
0.536658
0
LINE
8
BLACK
6
CONTINUOUS
10
0.971682
20
0.536658
11
0.971682
21
0.532428
0
LINE
8
BLACK
6
CONTINUOUS
10
0.971682
20
0.532428
11
0.97303
21
0.52973
0
LINE
8
BLACK
6
CONTINUOUS
10
0.97303
20
0.52973
11
0.974228
21
0.528533
0
LINE
8
BLACK
6
CONTINUOUS
10
0.974228
20
0.528533
11
0.976925
21
0.527184
0
LINE
8
BLACK
6
CONTINUOUS
10
0.976925
20
0.527184
11
0.988273
21
0.527184
0
LINE
8
BLACK
6
CONTINUOUS
10
0.988273
20
0.527184
11
0.988273
21
0.541901
0
LINE
8
BLACK
6
CONTINUOUS
10
0.988273
20
0.541901
11
0.978582
21
0.541901
0
LINE
8
BLACK
6
CONTINUOUS
10
0.9788
20
0.560649
11
0.976102
21
0.5593
0
LINE
8
BLACK
6
CONTINUOUS
10
0.976102
20
0.5593
11
0.974905
21
0.558103
0
LINE
8
BLACK
6
CONTINUOUS
10
0.974905
20
0.558103
11
0.973556
21
0.555405
0
LINE
8
BLACK
6
CONTINUOUS
10
0.973556
20
0.555405
11
0.973556
21
0.55305
0
LINE
8
BLACK
6
CONTINUOUS
10
0.973556
20
0.55305
11
0.974905
21
0.550353
0
LINE
8
BLACK
6
CONTINUOUS
10
0.974905
20
0.550353
11
0.976102
21
0.549155
0
LINE
8
BLACK
6
CONTINUOUS
10
0.976102
20
0.549155
11
0.9788
21
0.547807
0
LINE
8
BLACK
6
CONTINUOUS
10
0.9788
20
0.547807
11
0.988273
21
0.547807
0
LINE
8
BLACK
6
CONTINUOUS
10
0.988273
20
0.547807
11
0.988273
21
0.560649
0
LINE
8
BLACK
6
CONTINUOUS
10
0.988273
20
0.560649
11
0.9788
21
0.560649
0
LINE
8
BLACK
6
CONTINUOUS
10
0.795245
20
0.566401
11
0.795309
21
0.566403
0
LINE
8
BLACK
6
CONTINUOUS
10
0.795309
20
0.566403
11
0.800934
21
0.564528
0
LINE
8
BLACK
6
CONTINUOUS
10
0.800934
20
0.564528
11
0.801836
21
0.56404
0
LINE
8
BLACK
6
CONTINUOUS
10
0.801836
20
0.56404
11
0.801928
21
0.563889
0
LINE
8
BLACK
6
CONTINUOUS
10
0.801928
20
0.563889
11
0.802088
21
0.563815
0
LINE
8
BLACK
6
CONTINUOUS
10
0.802088
20
0.563815
11
0.805837
21
0.560065
0
LINE
8
BLACK
6
CONTINUOUS
10
0.805837
20
0.560065
11
0.806344
21
0.559342
0
LINE
8
BLACK
6
CONTINUOUS
10
0.806344
20
0.559342
11
0.806391
21
0.559298
0
LINE
8
BLACK
6
CONTINUOUS
10
0.806391
20
0.559298
11
0.808265
21
0.555548
0
LINE
8
BLACK
6
CONTINUOUS
10
0.808265
20
0.555548
11
0.808411
21
0.55506
0
LINE
8
BLACK
6
CONTINUOUS
10
0.808411
20
0.55506
11
0.808489
21
0.554944
0
LINE
8
BLACK
6
CONTINUOUS
10
0.808489
20
0.554944
11
0.810364
21
0.547445
0
LINE
8
BLACK
6
CONTINUOUS
10
0.810364
20
0.547445
11
0.810405
21
0.546857
0
LINE
8
BLACK
6
CONTINUOUS
10
0.810405
20
0.546857
11
0.810452
21
0.546729
0
LINE
8
BLACK
6
CONTINUOUS
10
0.810452
20
0.546729
11
0.810452
21
0.541104
0
LINE
8
BLACK
6
CONTINUOUS
10
0.810452
20
0.541104
11
0.810349
21
0.540524
0
LINE
8
BLACK
6
CONTINUOUS
10
0.810349
20
0.540524
11
0.810364
21
0.540388
0
LINE
8
BLACK
6
CONTINUOUS
10
0.810364
20
0.540388
11
0.808489
21
0.532889
0
LINE
8
BLACK
6
CONTINUOUS
10
0.808489
20
0.532889
11
0.808281
21
0.532424
0
LINE
8
BLACK
6
CONTINUOUS
10
0.808281
20
0.532424
11
0.808265
21
0.532285
0
LINE
8
BLACK
6
CONTINUOUS
10
0.808265
20
0.532285
11
0.806391
21
0.528535
0
LINE
8
BLACK
6
CONTINUOUS
10
0.806391
20
0.528535
11
0.805865
21
0.527826
0
LINE
8
BLACK
6
CONTINUOUS
10
0.805865
20
0.527826
11
0.805837
21
0.527768
0
LINE
8
BLACK
6
CONTINUOUS
10
0.805837
20
0.527768
11
0.802088
21
0.524018
0
LINE
8
BLACK
6
CONTINUOUS
10
0.802088
20
0.524018
11
0.801248
21
0.52343
0
LINE
8
BLACK
6
CONTINUOUS
10
0.801248
20
0.52343
11
0.801072
21
0.523415
0
LINE
8
BLACK
6
CONTINUOUS
10
0.801072
20
0.523415
11
0.800934
21
0.523305
0
LINE
8
BLACK
6
CONTINUOUS
10
0.800934
20
0.523305
11
0.795309
21
0.52143
0
LINE
8
BLACK
6
CONTINUOUS
10
0.795309
20
0.52143
11
0.794436
21
0.521301
0
LINE
8
BLACK
6
CONTINUOUS
10
0.794436
20
0.521301
11
0.794376
21
0.521279
0
LINE
8
BLACK
6
CONTINUOUS
10
0.794376
20
0.521279
11
0.790626
21
0.521279
0
LINE
8
BLACK
6
CONTINUOUS
10
0.790626
20
0.521279
11
0.789757
21
0.521432
0
LINE
8
BLACK
6
CONTINUOUS
10
0.789757
20
0.521432
11
0.789692
21
0.52143
0
LINE
8
BLACK
6
CONTINUOUS
10
0.789692
20
0.52143
11
0.784068
21
0.523305
0
LINE
8
BLACK
6
CONTINUOUS
10
0.784068
20
0.523305
11
0.783166
21
0.523793
0
LINE
8
BLACK
6
CONTINUOUS
10
0.783166
20
0.523793
11
0.783074
21
0.523944
0
LINE
8
BLACK
6
CONTINUOUS
10
0.783074
20
0.523944
11
0.782914
21
0.524018
0
LINE
8
BLACK
6
CONTINUOUS
10
0.782914
20
0.524018
11
0.781039
21
0.525893
0
LINE
8
BLACK
6
CONTINUOUS
10
0.781039
20
0.525893
11
0.780451
21
0.526733
0
LINE
8
BLACK
6
CONTINUOUS
10
0.780451
20
0.526733
11
0.780275
21
0.528745
0
LINE
8
BLACK
6
CONTINUOUS
10
0.780275
20
0.528745
11
0.781433
21
0.5304
0
LINE
8
BLACK
6
CONTINUOUS
10
0.781433
20
0.5304
11
0.783384
21
0.530923
0
LINE
8
BLACK
6
CONTINUOUS
10
0.783384
20
0.530923
11
0.785215
21
0.530069
0
LINE
8
BLACK
6
CONTINUOUS
10
0.785215
20
0.530069
11
0.786597
21
0.528687
0
LINE
8
BLACK
6
CONTINUOUS
10
0.786597
20
0.528687
11
0.791105
21
0.527184
0
LINE
8
BLACK
6
CONTINUOUS
10
0.791105
20
0.527184
11
0.793897
21
0.527184
0
LINE
8
BLACK
6
CONTINUOUS
10
0.793897
20
0.527184
11
0.798405
21
0.528687
0
LINE
8
BLACK
6
CONTINUOUS
10
0.798405
20
0.528687
11
0.801323
21
0.531605
0
LINE
8
BLACK
6
CONTINUOUS
10
0.801323
20
0.531605
11
0.802838
21
0.534636
0
LINE
8
BLACK
6
CONTINUOUS
10
0.802838
20
0.534636
11
0.804546
21
0.541468
0
LINE
8
BLACK
6
CONTINUOUS
10
0.804546
20
0.541468
11
0.804546
21
0.546365
0
LINE
8
BLACK
6
CONTINUOUS
10
0.804546
20
0.546365
11
0.802838
21
0.553197
0
LINE
8
BLACK
6
CONTINUOUS
10
0.802838
20
0.553197
11
0.801323
21
0.556228
0
LINE
8
BLACK
6
CONTINUOUS
10
0.801323
20
0.556228
11
0.798405
21
0.559146
0
LINE
8
BLACK
6
CONTINUOUS
10
0.798405
20
0.559146
11
0.793897
21
0.560649
0
LINE
8
BLACK
6
CONTINUOUS
10
0.793897
20
0.560649
11
0.791105
21
0.560649
0
LINE
8
BLACK
6
CONTINUOUS
10
0.791105
20
0.560649
11
0.786597
21
0.559146
0
LINE
8
BLACK
6
CONTINUOUS
10
0.786597
20
0.559146
11
0.785215
21
0.557764
0
LINE
8
BLACK
6
CONTINUOUS
10
0.785215
20
0.557764
11
0.784375
21
0.557176
0
LINE
8
BLACK
6
CONTINUOUS
10
0.784375
20
0.557176
11
0.782363
21
0.557
0
LINE
8
BLACK
6
CONTINUOUS
10
0.782363
20
0.557
11
0.780708
21
0.558158
0
LINE
8
BLACK
6
CONTINUOUS
10
0.780708
20
0.558158
11
0.780186
21
0.560109
0
LINE
8
BLACK
6
CONTINUOUS
10
0.780186
20
0.560109
11
0.781039
21
0.56194
0
LINE
8
BLACK
6
CONTINUOUS
10
0.781039
20
0.56194
11
0.782914
21
0.563815
0
LINE
8
BLACK
6
CONTINUOUS
10
0.782914
20
0.563815
11
0.783754
21
0.564403
0
LINE
8
BLACK
6
CONTINUOUS
10
0.783754
20
0.564403
11
0.78393
21
0.564418
0
LINE
8
BLACK
6
CONTINUOUS
10
0.78393
20
0.564418
11
0.784068
21
0.564528
0
LINE
8
BLACK
6
CONTINUOUS
10
0.784068
20
0.564528
11
0.789692
21
0.566403
0
LINE
8
BLACK
6
CONTINUOUS
10
0.789692
20
0.566403
11
0.790566
21
0.566532
0
LINE
8
BLACK
6
CONTINUOUS
10
0.790566
20
0.566532
11
0.790626
21
0.566554
0
LINE
8
BLACK
6
CONTINUOUS
10
0.790626
20
0.566554
11
0.794376
21
0.566554
0
LINE
8
BLACK
6
CONTINUOUS
10
0.794376
20
0.566554
11
0.795245
21
0.566401
0
LINE
8
BLACK
6
CONTINUOUS
10
0.843273
20
0.566527
11
0.84334
21
0.566546
0
LINE
8
BLACK
6
CONTINUOUS
10
0.84334
20
0.566546
11
0.843452
21
0.566496
0
LINE
8
BLACK
6
CONTINUOUS
10
0.843452
20
0.566496
11
0.84413
21
0.566376
0
LINE
8
BLACK
6
CONTINUOUS
10
0.84413
20
0.566376
11
0.84461
21
0.565973
0
LINE
8
BLACK
6
CONTINUOUS
10
0.84461
20
0.565973
11
0.845181
21
0.565715
0
LINE
8
BLACK
6
CONTINUOUS
10
0.845181
20
0.565715
11
0.845361
21
0.565343
0
LINE
8
BLACK
6
CONTINUOUS
10
0.845361
20
0.565343
11
0.845677
21
0.565078
0
LINE
8
BLACK
6
CONTINUOUS
10
0.845677
20
0.565078
11
0.845786
21
0.56446
0
LINE
8
BLACK
6
CONTINUOUS
10
0.845786
20
0.56446
11
0.846058
21
0.563895
0
LINE
8
BLACK
6
CONTINUOUS
10
0.846058
20
0.563895
11
0.847932
21
0.545148
0
LINE
8
BLACK
6
CONTINUOUS
10
0.847932
20
0.545148
11
0.847856
21
0.544125
0
LINE
8
BLACK
6
CONTINUOUS
10
0.847856
20
0.544125
11
0.847845
21
0.544109
0
LINE
8
BLACK
6
CONTINUOUS
10
0.847845
20
0.544109
11
0.847846
21
0.54409
0
LINE
8
BLACK
6
CONTINUOUS
10
0.847846
20
0.54409
11
0.847278
21
0.543278
0
LINE
8
BLACK
6
CONTINUOUS
10
0.847278
20
0.543278
11
0.846718
21
0.542456
0
LINE
8
BLACK
6
CONTINUOUS
10
0.846718
20
0.542456
11
0.846699
21
0.542451
0
LINE
8
BLACK
6
CONTINUOUS
10
0.846699
20
0.542451
11
0.846688
21
0.542435
0
LINE
8
BLACK
6
CONTINUOUS
10
0.846688
20
0.542435
11
0.845729
21
0.542178
0
LINE
8
BLACK
6
CONTINUOUS
10
0.845729
20
0.542178
11
0.844774
21
0.541909
0
LINE
8
BLACK
6
CONTINUOUS
10
0.844774
20
0.541909
11
0.844756
21
0.541917
0
LINE
8
BLACK
6
CONTINUOUS
10
0.844756
20
0.541917
11
0.844737
21
0.541912
0
LINE
8
BLACK
6
CONTINUOUS
10
0.844737
20
0.541912
11
0.843839
21
0.542331
0
LINE
8
BLACK
6
CONTINUOUS
10
0.843839
20
0.542331
11
0.842933
21
0.54274
0
LINE
8
BLACK
6
CONTINUOUS
10
0.842933
20
0.54274
11
0.842924
21
0.542758
0
LINE
8
BLACK
6
CONTINUOUS
10
0.842924
20
0.542758
11
0.842906
21
0.542766
0
LINE
8
BLACK
6
CONTINUOUS
10
0.842906
20
0.542766
11
0.841371
21
0.544302
0
LINE
8
BLACK
6
CONTINUOUS
10
0.841371
20
0.544302
11
0.838673
21
0.545651
0
LINE
8
BLACK
6
CONTINUOUS
10
0.838673
20
0.545651
11
0.830693
21
0.545651
0
LINE
8
BLACK
6
CONTINUOUS
10
0.830693
20
0.545651
11
0.827996
21
0.544302
0
LINE
8
BLACK
6
CONTINUOUS
10
0.827996
20
0.544302
11
0.826799
21
0.543105
0
LINE
8
BLACK
6
CONTINUOUS
10
0.826799
20
0.543105
11
0.82545
21
0.540407
0
LINE
8
BLACK
6
CONTINUOUS
10
0.82545
20
0.540407
11
0.82545
21
0.532428
0
LINE
8
BLACK
6
CONTINUOUS
10
0.82545
20
0.532428
11
0.826799
21
0.52973
0
LINE
8
BLACK
6
CONTINUOUS
10
0.826799
20
0.52973
11
0.827996
21
0.528533
0
LINE
8
BLACK
6
CONTINUOUS
10
0.827996
20
0.528533
11
0.830693
21
0.527184
0
LINE
8
BLACK
6
CONTINUOUS
10
0.830693
20
0.527184
11
0.838673
21
0.527184
0
LINE
8
BLACK
6
CONTINUOUS
10
0.838673
20
0.527184
11
0.841371
21
0.528533
0
LINE
8
BLACK
6
CONTINUOUS
10
0.841371
20
0.528533
11
0.842906
21
0.530069
0
LINE
8
BLACK
6
CONTINUOUS
10
0.842906
20
0.530069
11
0.843746
21
0.530657
0
LINE
8
BLACK
6
CONTINUOUS
10
0.843746
20
0.530657
11
0.845759
21
0.530833
0
LINE
8
BLACK
6
CONTINUOUS
10
0.845759
20
0.530833
11
0.847413
21
0.529675
0
LINE
8
BLACK
6
CONTINUOUS
10
0.847413
20
0.529675
11
0.847936
21
0.527724
0
LINE
8
BLACK
6
CONTINUOUS
10
0.847936
20
0.527724
11
0.847082
21
0.525893
0
LINE
8
BLACK
6
CONTINUOUS
10
0.847082
20
0.525893
11
0.845208
21
0.524018
0
LINE
8
BLACK
6
CONTINUOUS
10
0.845208
20
0.524018
11
0.844484
21
0.523512
0
LINE
8
BLACK
6
CONTINUOUS
10
0.844484
20
0.523512
11
0.84444
21
0.523465
0
LINE
8
BLACK
6
CONTINUOUS
10
0.84444
20
0.523465
11
0.840691
21
0.52159
0
LINE
8
BLACK
6
CONTINUOUS
10
0.840691
20
0.52159
11
0.839708
21
0.521298
0
LINE
8
BLACK
6
CONTINUOUS
10
0.839708
20
0.521298
11
0.839536
21
0.521339
0
LINE
8
BLACK
6
CONTINUOUS
10
0.839536
20
0.521339
11
0.83937
21
0.521279
0
LINE
8
BLACK
6
CONTINUOUS
10
0.83937
20
0.521279
11
0.829996
21
0.521279
0
LINE
8
BLACK
6
CONTINUOUS
10
0.829996
20
0.521279
11
0.828986
21
0.521457
0
LINE
8
BLACK
6
CONTINUOUS
10
0.828986
20
0.521457
11
0.828851
21
0.52157
0
LINE
8
BLACK
6
CONTINUOUS
10
0.828851
20
0.52157
11
0.828676
21
0.52159
0
LINE
8
BLACK
6
CONTINUOUS
10
0.828676
20
0.52159
11
0.824926
21
0.523465
0
LINE
8
BLACK
6
CONTINUOUS
10
0.824926
20
0.523465
11
0.824217
21
0.523991
0
LINE
8
BLACK
6
CONTINUOUS
10
0.824217
20
0.523991
11
0.824159
21
0.524018
0
LINE
8
BLACK
6
CONTINUOUS
10
0.824159
20
0.524018
11
0.822284
21
0.525893
0
LINE
8
BLACK
6
CONTINUOUS
10
0.822284
20
0.525893
11
0.821778
21
0.526616
0
LINE
8
BLACK
6
CONTINUOUS
10
0.821778
20
0.526616
11
0.821731
21
0.526661
0
LINE
8
BLACK
6
CONTINUOUS
10
0.821731
20
0.526661
11
0.819856
21
0.53041
0
LINE
8
BLACK
6
CONTINUOUS
10
0.819856
20
0.53041
11
0.819564
21
0.531393
0
LINE
8
BLACK
6
CONTINUOUS
10
0.819564
20
0.531393
11
0.819605
21
0.531565
0
LINE
8
BLACK
6
CONTINUOUS
10
0.819605
20
0.531565
11
0.819544
21
0.531731
0
LINE
8
BLACK
6
CONTINUOUS
10
0.819544
20
0.531731
11
0.819544
21
0.541104
0
LINE
8
BLACK
6
CONTINUOUS
10
0.819544
20
0.541104
11
0.819722
21
0.542114
0
LINE
8
BLACK
6
CONTINUOUS
10
0.819722
20
0.542114
11
0.819836
21
0.54225
0
LINE
8
BLACK
6
CONTINUOUS
10
0.819836
20
0.54225
11
0.819856
21
0.542425
0
LINE
8
BLACK
6
CONTINUOUS
10
0.819856
20
0.542425
11
0.821731
21
0.546174
0
LINE
8
BLACK
6
CONTINUOUS
10
0.821731
20
0.546174
11
0.822257
21
0.546883
0
LINE
8
BLACK
6
CONTINUOUS
10
0.822257
20
0.546883
11
0.822284
21
0.546942
0
LINE
8
BLACK
6
CONTINUOUS
10
0.822284
20
0.546942
11
0.824159
21
0.548817
0
LINE
8
BLACK
6
CONTINUOUS
10
0.824159
20
0.548817
11
0.824882
21
0.549323
0
LINE
8
BLACK
6
CONTINUOUS
10
0.824882
20
0.549323
11
0.824926
21
0.54937
0
LINE
8
BLACK
6
CONTINUOUS
10
0.824926
20
0.54937
11
0.828676
21
0.551244
0
LINE
8
BLACK
6
CONTINUOUS
10
0.828676
20
0.551244
11
0.829659
21
0.551537
0
LINE
8
BLACK
6
CONTINUOUS
10
0.829659
20
0.551537
11
0.82983
21
0.551496
0
LINE
8
BLACK
6
CONTINUOUS
10
0.82983
20
0.551496
11
0.829996
21
0.551556
0
LINE
8
BLACK
6
CONTINUOUS
10
0.829996
20
0.551556
11
0.83937
21
0.551556
0
LINE
8
BLACK
6
CONTINUOUS
10
0.83937
20
0.551556
11
0.84038
21
0.551378
0
LINE
8
BLACK
6
CONTINUOUS
10
0.84038
20
0.551378
11
0.840515
21
0.551265
0
LINE
8
BLACK
6
CONTINUOUS
10
0.840515
20
0.551265
11
0.840691
21
0.551244
0
LINE
8
BLACK
6
CONTINUOUS
10
0.840691
20
0.551244
11
0.841425
21
0.550877
0
LINE
8
BLACK
6
CONTINUOUS
10
0.841425
20
0.550877
11
0.840447
21
0.560649
0
LINE
8
BLACK
6
CONTINUOUS
10
0.840447
20
0.560649
11
0.824372
21
0.560649
0
LINE
8
BLACK
6
CONTINUOUS
10
0.824372
20
0.560649
11
0.823362
21
0.560827
0
LINE
8
BLACK
6
CONTINUOUS
10
0.823362
20
0.560827
11
0.821815
21
0.562125
0
LINE
8
BLACK
6
CONTINUOUS
10
0.821815
20
0.562125
11
0.821464
21
0.564114
0
LINE
8
BLACK
6
CONTINUOUS
10
0.821464
20
0.564114
11
0.822474
21
0.565864
0
LINE
8
BLACK
6
CONTINUOUS
10
0.822474
20
0.565864
11
0.824372
21
0.566554
0
LINE
8
BLACK
6
CONTINUOUS
10
0.824372
20
0.566554
11
0.84312
21
0.566554
0
LINE
8
BLACK
6
CONTINUOUS
10
0.84312
20
0.566554
11
0.843273
21
0.566527
0
LINE
8
BLACK
6
CONTINUOUS
10
0.895284
20
0.566117
11
0.896539
21
0.564535
0
LINE
8
BLACK
6
CONTINUOUS
10
0.896539
20
0.564535
11
0.906862
21
0.533569
0
LINE
8
BLACK
6
CONTINUOUS
10
0.906862
20
0.533569
11
0.917184
21
0.564535
0
LINE
8
BLACK
6
CONTINUOUS
10
0.917184
20
0.564535
11
0.917672
21
0.565437
0
LINE
8
BLACK
6
CONTINUOUS
10
0.917672
20
0.565437
11
0.919393
21
0.566494
0
LINE
8
BLACK
6
CONTINUOUS
10
0.919393
20
0.566494
11
0.921391
21
0.566198
0
LINE
8
BLACK
6
CONTINUOUS
10
0.921391
20
0.566198
11
0.922731
21
0.564687
0
LINE
8
BLACK
6
CONTINUOUS
10
0.922731
20
0.564687
11
0.922786
21
0.562668
0
LINE
8
BLACK
6
CONTINUOUS
10
0.922786
20
0.562668
11
0.909663
21
0.523298
0
LINE
8
BLACK
6
CONTINUOUS
10
0.909663
20
0.523298
11
0.909175
21
0.522396
0
LINE
8
BLACK
6
CONTINUOUS
10
0.909175
20
0.522396
11
0.909102
21
0.522351
0
LINE
8
BLACK
6
CONTINUOUS
10
0.909102
20
0.522351
11
0.909071
21
0.522272
0
LINE
8
BLACK
6
CONTINUOUS
10
0.909071
20
0.522272
11
0.908249
21
0.521828
0
LINE
8
BLACK
6
CONTINUOUS
10
0.908249
20
0.521828
11
0.907454
21
0.521339
0
LINE
8
BLACK
6
CONTINUOUS
10
0.907454
20
0.521339
11
0.90737
21
0.521351
0
LINE
8
BLACK
6
CONTINUOUS
10
0.90737
20
0.521351
11
0.907295
21
0.521311
0
LINE
8
BLACK
6
CONTINUOUS
10
0.907295
20
0.521311
11
0.90638
21
0.521498
0
LINE
8
BLACK
6
CONTINUOUS
10
0.90638
20
0.521498
11
0.905456
21
0.521635
0
LINE
8
BLACK
6
CONTINUOUS
10
0.905456
20
0.521635
11
0.905399
21
0.521699
0
LINE
8
BLACK
6
CONTINUOUS
10
0.905399
20
0.521699
11
0.905316
21
0.521716
0
LINE
8
BLACK
6
CONTINUOUS
10
0.905316
20
0.521716
11
0.904736
21
0.522447
0
LINE
8
BLACK
6
CONTINUOUS
10
0.904736
20
0.522447
11
0.904116
21
0.523146
0
LINE
8
BLACK
6
CONTINUOUS
10
0.904116
20
0.523146
11
0.904113
21
0.523231
0
LINE
8
BLACK
6
CONTINUOUS
10
0.904113
20
0.523231
11
0.90406
21
0.523298
0
LINE
8
BLACK
6
CONTINUOUS
10
0.90406
20
0.523298
11
0.890937
21
0.562668
0
LINE
8
BLACK
6
CONTINUOUS
10
0.890937
20
0.562668
11
0.890787
21
0.563682
0
LINE
8
BLACK
6
CONTINUOUS
10
0.890787
20
0.563682
11
0.891529
21
0.565561
0
LINE
8
BLACK
6
CONTINUOUS
10
0.891529
20
0.565561
11
0.893305
21
0.566522
0
LINE
8
BLACK
6
CONTINUOUS
10
0.893305
20
0.566522
11
0.895284
21
0.566117
0
LINE
8
BLACK
6
CONTINUOUS
10
0.604695
20
0.566117
11
0.605951
21
0.564535
0
LINE
8
BLACK
6
CONTINUOUS
10
0.605951
20
0.564535
11
0.616273
21
0.533569
0
LINE
8
BLACK
6
CONTINUOUS
10
0.616273
20
0.533569
11
0.626595
21
0.564535
0
LINE
8
BLACK
6
CONTINUOUS
10
0.626595
20
0.564535
11
0.627083
21
0.565437
0
LINE
8
BLACK
6
CONTINUOUS
10
0.627083
20
0.565437
11
0.628804
21
0.566494
0
LINE
8
BLACK
6
CONTINUOUS
10
0.628804
20
0.566494
11
0.630802
21
0.566198
0
LINE
8
BLACK
6
CONTINUOUS
10
0.630802
20
0.566198
11
0.632142
21
0.564687
0
LINE
8
BLACK
6
CONTINUOUS
10
0.632142
20
0.564687
11
0.632198
21
0.562668
0
LINE
8
BLACK
6
CONTINUOUS
10
0.632198
20
0.562668
11
0.619074
21
0.523298
0
LINE
8
BLACK
6
CONTINUOUS
10
0.619074
20
0.523298
11
0.618586
21
0.522396
0
LINE
8
BLACK
6
CONTINUOUS
10
0.618586
20
0.522396
11
0.618513
21
0.522351
0
LINE
8
BLACK
6
CONTINUOUS
10
0.618513
20
0.522351
11
0.618482
21
0.522272
0
LINE
8
BLACK
6
CONTINUOUS
10
0.618482
20
0.522272
11
0.617661
21
0.521828
0
LINE
8
BLACK
6
CONTINUOUS
10
0.617661
20
0.521828
11
0.616865
21
0.521339
0
LINE
8
BLACK
6
CONTINUOUS
10
0.616865
20
0.521339
11
0.616781
21
0.521351
0
LINE
8
BLACK
6
CONTINUOUS
10
0.616781
20
0.521351
11
0.616706
21
0.521311
0
LINE
8
BLACK
6
CONTINUOUS
10
0.616706
20
0.521311
11
0.615791
21
0.521498
0
LINE
8
BLACK
6
CONTINUOUS
10
0.615791
20
0.521498
11
0.614867
21
0.521635
0
LINE
8
BLACK
6
CONTINUOUS
10
0.614867
20
0.521635
11
0.614811
21
0.521699
0
LINE
8
BLACK
6
CONTINUOUS
10
0.614811
20
0.521699
11
0.614727
21
0.521716
0
LINE
8
BLACK
6
CONTINUOUS
10
0.614727
20
0.521716
11
0.614147
21
0.522447
0
LINE
8
BLACK
6
CONTINUOUS
10
0.614147
20
0.522447
11
0.613527
21
0.523146
0
LINE
8
BLACK
6
CONTINUOUS
10
0.613527
20
0.523146
11
0.613525
21
0.523231
0
LINE
8
BLACK
6
CONTINUOUS
10
0.613525
20
0.523231
11
0.613472
21
0.523298
0
LINE
8
BLACK
6
CONTINUOUS
10
0.613472
20
0.523298
11
0.600348
21
0.562668
0
LINE
8
BLACK
6
CONTINUOUS
10
0.600348
20
0.562668
11
0.600198
21
0.563682
0
LINE
8
BLACK
6
CONTINUOUS
10
0.600198
20
0.563682
11
0.60094
21
0.565561
0
LINE
8
BLACK
6
CONTINUOUS
10
0.60094
20
0.565561
11
0.602716
21
0.566522
0
LINE
8
BLACK
6
CONTINUOUS
10
0.602716
20
0.566522
11
0.604695
21
0.566117
0
LINE
8
BLACK
6
CONTINUOUS
10
0.767264
20
0.542004
11
0.768811
21
0.540706
0
LINE
8
BLACK
6
CONTINUOUS
10
0.768811
20
0.540706
11
0.769162
21
0.538717
0
LINE
8
BLACK
6
CONTINUOUS
10
0.769162
20
0.538717
11
0.768152
21
0.536968
0
LINE
8
BLACK
6
CONTINUOUS
10
0.768152
20
0.536968
11
0.766254
21
0.536277
0
LINE
8
BLACK
6
CONTINUOUS
10
0.766254
20
0.536277
11
0.736258
21
0.536277
0
LINE
8
BLACK
6
CONTINUOUS
10
0.736258
20
0.536277
11
0.735248
21
0.536455
0
LINE
8
BLACK
6
CONTINUOUS
10
0.735248
20
0.536455
11
0.733701
21
0.537753
0
LINE
8
BLACK
6
CONTINUOUS
10
0.733701
20
0.537753
11
0.73335
21
0.539742
0
LINE
8
BLACK
6
CONTINUOUS
10
0.73335
20
0.539742
11
0.73436
21
0.541492
0
LINE
8
BLACK
6
CONTINUOUS
10
0.73436
20
0.541492
11
0.736258
21
0.542182
0
LINE
8
BLACK
6
CONTINUOUS
10
0.736258
20
0.542182
11
0.766254
21
0.542182
0
LINE
8
BLACK
6
CONTINUOUS
10
0.766254
20
0.542182
11
0.767264
21
0.542004
0
LINE
8
BLACK
6
CONTINUOUS
10
0.708057
20
0.583957
11
0.70748
21
0.585349
0
LINE
8
BLACK
6
CONTINUOUS
10
0.70748
20
0.585349
11
0.70748
21
0.703459
0
LINE
8
BLACK
6
CONTINUOUS
10
0.70748
20
0.703459
11
0.708057
21
0.704851
0
LINE
8
BLACK
6
CONTINUOUS
10
0.708057
20
0.704851
11
0.709449
21
0.705428
0
LINE
8
BLACK
6
CONTINUOUS
10
0.709449
20
0.705428
11
0.890551
21
0.705428
0
LINE
8
BLACK
6
CONTINUOUS
10
0.890551
20
0.705428
11
0.891943
21
0.704851
0
LINE
8
BLACK
6
CONTINUOUS
10
0.891943
20
0.704851
11
0.89252
21
0.703459
0
LINE
8
BLACK
6
CONTINUOUS
10
0.89252
20
0.703459
11
0.89252
21
0.585349
0
LINE
8
BLACK
6
CONTINUOUS
10
0.89252
20
0.585349
11
0.891943
21
0.583957
0
LINE
8
BLACK
6
CONTINUOUS
10
0.891943
20
0.583957
11
0.890551
21
0.58338
0
LINE
8
BLACK
6
CONTINUOUS
10
0.890551
20
0.58338
11
0.709449
21
0.58338
0
LINE
8
BLACK
6
CONTINUOUS
10
0.709449
20
0.58338
11
0.708057
21
0.583957
0
LINE
8
BLACK
6
CONTINUOUS
10
0.711417
20
0.701491
11
0.711417
21
0.587317
0
LINE
8
BLACK
6
CONTINUOUS
10
0.711417
20
0.587317
11
0.888583
21
0.587317
0
LINE
8
BLACK
6
CONTINUOUS
10
0.888583
20
0.587317
11
0.888583
21
0.701491
0
LINE
8
BLACK
6
CONTINUOUS
10
0.888583
20
0.701491
11
0.711417
21
0.701491
0
LINE
8
BLACK
6
CONTINUOUS
10
0.82696
20
0.677256
11
0.827537
21
0.675864
0
LINE
8
BLACK
6
CONTINUOUS
10
0.827537
20
0.675864
11
0.827537
21
0.646332
0
LINE
8
BLACK
6
CONTINUOUS
10
0.827537
20
0.646332
11
0.861069
21
0.646332
0
LINE
8
BLACK
6
CONTINUOUS
10
0.861069
20
0.646332
11
0.86246
21
0.645756
0
LINE
8
BLACK
6
CONTINUOUS
10
0.86246
20
0.645756
11
0.863037
21
0.644364
0
LINE
8
BLACK
6
CONTINUOUS
10
0.863037
20
0.644364
11
0.86246
21
0.642972
0
LINE
8
BLACK
6
CONTINUOUS
10
0.86246
20
0.642972
11
0.861069
21
0.642395
0
LINE
8
BLACK
6
CONTINUOUS
10
0.861069
20
0.642395
11
0.827537
21
0.642395
0
LINE
8
BLACK
6
CONTINUOUS
10
0.827537
20
0.642395
11
0.827537
21
0.612864
0
LINE
8
BLACK
6
CONTINUOUS
10
0.827537
20
0.612864
11
0.82696
21
0.611472
0
LINE
8
BLACK
6
CONTINUOUS
10
0.82696
20
0.611472
11
0.825569
21
0.610895
0
LINE
8
BLACK
6
CONTINUOUS
10
0.825569
20
0.610895
11
0.824177
21
0.611472
0
LINE
8
BLACK
6
CONTINUOUS
10
0.824177
20
0.611472
11
0.8236
21
0.612864
0
LINE
8
BLACK
6
CONTINUOUS
10
0.8236
20
0.612864
11
0.8236
21
0.640733
0
LINE
8
BLACK
6
CONTINUOUS
10
0.8236
20
0.640733
11
0.781343
21
0.613214
0
LINE
8
BLACK
6
CONTINUOUS
10
0.781343
20
0.613214
11
0.780789
21
0.613111
0
LINE
8
BLACK
6
CONTINUOUS
10
0.780789
20
0.613111
11
0.780269
21
0.612895
0
LINE
8
BLACK
6
CONTINUOUS
10
0.780269
20
0.612895
11
0.780071
21
0.612977
0
LINE
8
BLACK
6
CONTINUOUS
10
0.780071
20
0.612977
11
0.779862
21
0.612938
0
LINE
8
BLACK
6
CONTINUOUS
10
0.779862
20
0.612938
11
0.779397
21
0.613256
0
LINE
8
BLACK
6
CONTINUOUS
10
0.779397
20
0.613256
11
0.778877
21
0.613472
0
LINE
8
BLACK
6
CONTINUOUS
10
0.778877
20
0.613472
11
0.778795
21
0.613669
0
LINE
8
BLACK
6
CONTINUOUS
10
0.778795
20
0.613669
11
0.778619
21
0.61379
0
LINE
8
BLACK
6
CONTINUOUS
10
0.778619
20
0.61379
11
0.778516
21
0.614343
0
LINE
8
BLACK
6
CONTINUOUS
10
0.778516
20
0.614343
11
0.7783
21
0.614864
0
LINE
8
BLACK
6
CONTINUOUS
10
0.7783
20
0.614864
11
0.7783
21
0.642395
0
LINE
8
BLACK
6
CONTINUOUS
10
0.7783
20
0.642395
11
0.740969
21
0.642395
0
LINE
8
BLACK
6
CONTINUOUS
10
0.740969
20
0.642395
11
0.739577
21
0.642972
0
LINE
8
BLACK
6
CONTINUOUS
10
0.739577
20
0.642972
11
0.739
21
0.644364
0
LINE
8
BLACK
6
CONTINUOUS
10
0.739
20
0.644364
11
0.739577
21
0.645756
0
LINE
8
BLACK
6
CONTINUOUS
10
0.739577
20
0.645756
11
0.740969
21
0.646332
0
LINE
8
BLACK
6
CONTINUOUS
10
0.740969
20
0.646332
11
0.7783
21
0.646332
0
LINE
8
BLACK
6
CONTINUOUS
10
0.7783
20
0.646332
11
0.7783
21
0.675864
0
LINE
8
BLACK
6
CONTINUOUS
10
0.7783
20
0.675864
11
0.778526
21
0.67641
0
LINE
8
BLACK
6
CONTINUOUS
10
0.778526
20
0.67641
11
0.778652
21
0.676988
0
LINE
8
BLACK
6
CONTINUOUS
10
0.778652
20
0.676988
11
0.778806
21
0.677087
0
LINE
8
BLACK
6
CONTINUOUS
10
0.778806
20
0.677087
11
0.778877
21
0.677256
0
LINE
8
BLACK
6
CONTINUOUS
10
0.778877
20
0.677256
11
0.779423
21
0.677482
0
LINE
8
BLACK
6
CONTINUOUS
10
0.779423
20
0.677482
11
0.77992
21
0.677801
0
LINE
8
BLACK
6
CONTINUOUS
10
0.77992
20
0.677801
11
0.780099
21
0.677762
0
LINE
8
BLACK
6
CONTINUOUS
10
0.780099
20
0.677762
11
0.780269
21
0.677832
0
LINE
8
BLACK
6
CONTINUOUS
10
0.780269
20
0.677832
11
0.780815
21
0.677606
0
LINE
8
BLACK
6
CONTINUOUS
10
0.780815
20
0.677606
11
0.781392
21
0.67748
0
LINE
8
BLACK
6
CONTINUOUS
10
0.781392
20
0.67748
11
0.8236
21
0.64813
0
LINE
8
BLACK
6
CONTINUOUS
10
0.8236
20
0.64813
11
0.8236
21
0.675864
0
LINE
8
BLACK
6
CONTINUOUS
10
0.8236
20
0.675864
11
0.824177
21
0.677256
0
LINE
8
BLACK
6
CONTINUOUS
10
0.824177
20
0.677256
11
0.825569
21
0.677832
0
LINE
8
BLACK
6
CONTINUOUS
10
0.825569
20
0.677832
11
0.82696
21
0.677256
0
LINE
8
BLACK
6
CONTINUOUS
10
0.782237
20
0.618495
11
0.822043
21
0.644417
0
LINE
8
BLACK
6
CONTINUOUS
10
0.822043
20
0.644417
11
0.782237
21
0.672097
0
LINE
8
BLACK
6
CONTINUOUS
10
0.782237
20
0.672097
11
0.782237
21
0.618495
0
LINE
8
BLACK
6
CONTINUOUS
10
0.829442
20
0.767274
11
0.829572
21
0.767297
0
LINE
8
BLACK
6
CONTINUOUS
10
0.829572
20
0.767297
11
0.829685
21
0.767231
0
LINE
8
BLACK
6
CONTINUOUS
10
0.829685
20
0.767231
11
0.830069
21
0.767164
0
LINE
8
BLACK
6
CONTINUOUS
10
0.830069
20
0.767164
11
0.830656
21
0.766671
0
LINE
8
BLACK
6
CONTINUOUS
10
0.830656
20
0.766671
11
0.831321
21
0.766287
0
LINE
8
BLACK
6
CONTINUOUS
10
0.831321
20
0.766287
11
0.831412
21
0.766037
0
LINE
8
BLACK
6
CONTINUOUS
10
0.831412
20
0.766037
11
0.831616
21
0.765865
0
LINE
8
BLACK
6
CONTINUOUS
10
0.831616
20
0.765865
11
0.831749
21
0.76511
0
LINE
8
BLACK
6
CONTINUOUS
10
0.831749
20
0.76511
11
0.832012
21
0.764389
0
LINE
8
BLACK
6
CONTINUOUS
10
0.832012
20
0.764389
11
0.832012
21
0.725019
0
LINE
8
BLACK
6
CONTINUOUS
10
0.832012
20
0.725019
11
0.831944
21
0.724635
0
LINE
8
BLACK
6
CONTINUOUS
10
0.831944
20
0.724635
11
0.831967
21
0.724506
0
LINE
8
BLACK
6
CONTINUOUS
10
0.831967
20
0.724506
11
0.831901
21
0.724393
0
LINE
8
BLACK
6
CONTINUOUS
10
0.831901
20
0.724393
11
0.831834
21
0.724009
0
LINE
8
BLACK
6
CONTINUOUS
10
0.831834
20
0.724009
11
0.83134
21
0.723421
0
LINE
8
BLACK
6
CONTINUOUS
10
0.83134
20
0.723421
11
0.830957
21
0.722757
0
LINE
8
BLACK
6
CONTINUOUS
10
0.830957
20
0.722757
11
0.830706
21
0.722666
0
LINE
8
BLACK
6
CONTINUOUS
10
0.830706
20
0.722666
11
0.830535
21
0.722462
0
LINE
8
BLACK
6
CONTINUOUS
10
0.830535
20
0.722462
11
0.82978
21
0.722329
0
LINE
8
BLACK
6
CONTINUOUS
10
0.82978
20
0.722329
11
0.829059
21
0.722066
0
LINE
8
BLACK
6
CONTINUOUS
10
0.829059
20
0.722066
11
0.819685
21
0.722066
0
LINE
8
BLACK
6
CONTINUOUS
10
0.819685
20
0.722066
11
0.818816
21
0.722219
0
LINE
8
BLACK
6
CONTINUOUS
10
0.818816
20
0.722219
11
0.818751
21
0.722218
0
LINE
8
BLACK
6
CONTINUOUS
10
0.818751
20
0.722218
11
0.813127
21
0.724092
0
LINE
8
BLACK
6
CONTINUOUS
10
0.813127
20
0.724092
11
0.812225
21
0.724581
0
LINE
8
BLACK
6
CONTINUOUS
10
0.812225
20
0.724581
11
0.812133
21
0.724731
0
LINE
8
BLACK
6
CONTINUOUS
10
0.812133
20
0.724731
11
0.811973
21
0.724806
0
LINE
8
BLACK
6
CONTINUOUS
10
0.811973
20
0.724806
11
0.808223
21
0.728555
0
LINE
8
BLACK
6
CONTINUOUS
10
0.808223
20
0.728555
11
0.807717
21
0.729278
0
LINE
8
BLACK
6
CONTINUOUS
10
0.807717
20
0.729278
11
0.80767
21
0.729323
0
LINE
8
BLACK
6
CONTINUOUS
10
0.80767
20
0.729323
11
0.805795
21
0.733072
0
LINE
8
BLACK
6
CONTINUOUS
10
0.805795
20
0.733072
11
0.80565
21
0.733561
0
LINE
8
BLACK
6
CONTINUOUS
10
0.80565
20
0.733561
11
0.805572
21
0.733677
0
LINE
8
BLACK
6
CONTINUOUS
10
0.805572
20
0.733677
11
0.803697
21
0.741176
0
LINE
8
BLACK
6
CONTINUOUS
10
0.803697
20
0.741176
11
0.803656
21
0.741764
0
LINE
8
BLACK
6
CONTINUOUS
10
0.803656
20
0.741764
11
0.803609
21
0.741892
0
LINE
8
BLACK
6
CONTINUOUS
10
0.803609
20
0.741892
11
0.803609
21
0.747516
0
LINE
8
BLACK
6
CONTINUOUS
10
0.803609
20
0.747516
11
0.803711
21
0.748096
0
LINE
8
BLACK
6
CONTINUOUS
10
0.803711
20
0.748096
11
0.803697
21
0.748232
0
LINE
8
BLACK
6
CONTINUOUS
10
0.803697
20
0.748232
11
0.805572
21
0.755731
0
LINE
8
BLACK
6
CONTINUOUS
10
0.805572
20
0.755731
11
0.805779
21
0.756197
0
LINE
8
BLACK
6
CONTINUOUS
10
0.805779
20
0.756197
11
0.805795
21
0.756336
0
LINE
8
BLACK
6
CONTINUOUS
10
0.805795
20
0.756336
11
0.80767
21
0.760085
0
LINE
8
BLACK
6
CONTINUOUS
10
0.80767
20
0.760085
11
0.808196
21
0.760794
0
LINE
8
BLACK
6
CONTINUOUS
10
0.808196
20
0.760794
11
0.808223
21
0.760853
0
LINE
8
BLACK
6
CONTINUOUS
10
0.808223
20
0.760853
11
0.811973
21
0.764602
0
LINE
8
BLACK
6
CONTINUOUS
10
0.811973
20
0.764602
11
0.812813
21
0.76519
0
LINE
8
BLACK
6
CONTINUOUS
10
0.812813
20
0.76519
11
0.812989
21
0.765206
0
LINE
8
BLACK
6
CONTINUOUS
10
0.812989
20
0.765206
11
0.813127
21
0.765315
0
LINE
8
BLACK
6
CONTINUOUS
10
0.813127
20
0.765315
11
0.818751
21
0.76719
0
LINE
8
BLACK
6
CONTINUOUS
10
0.818751
20
0.76719
11
0.819624
21
0.76732
0
LINE
8
BLACK
6
CONTINUOUS
10
0.819624
20
0.76732
11
0.819685
21
0.767342
0
LINE
8
BLACK
6
CONTINUOUS
10
0.819685
20
0.767342
11
0.829059
21
0.767342
0
LINE
8
BLACK
6
CONTINUOUS
10
0.829059
20
0.767342
11
0.829442
21
0.767274
0
LINE
8
BLACK
6
CONTINUOUS
10
0.820164
20
0.761436
11
0.815656
21
0.759933
0
LINE
8
BLACK
6
CONTINUOUS
10
0.815656
20
0.759933
11
0.812738
21
0.757016
0
LINE
8
BLACK
6
CONTINUOUS
10
0.812738
20
0.757016
11
0.811222
21
0.753985
0
LINE
8
BLACK
6
CONTINUOUS
10
0.811222
20
0.753985
11
0.809514
21
0.747153
0
LINE
8
BLACK
6
CONTINUOUS
10
0.809514
20
0.747153
11
0.809514
21
0.742255
0
LINE
8
BLACK
6
CONTINUOUS
10
0.809514
20
0.742255
11
0.811222
21
0.735423
0
LINE
8
BLACK
6
CONTINUOUS
10
0.811222
20
0.735423
11
0.812738
21
0.732392
0
LINE
8
BLACK
6
CONTINUOUS
10
0.812738
20
0.732392
11
0.815656
21
0.729474
0
LINE
8
BLACK
6
CONTINUOUS
10
0.815656
20
0.729474
11
0.820164
21
0.727972
0
LINE
8
BLACK
6
CONTINUOUS
10
0.820164
20
0.727972
11
0.826106
21
0.727972
0
LINE
8
BLACK
6
CONTINUOUS
10
0.826106
20
0.727972
11
0.826106
21
0.761436
0
LINE
8
BLACK
6
CONTINUOUS
10
0.826106
20
0.761436
11
0.820164
21
0.761436
0
LINE
8
BLACK
6
CONTINUOUS
10
0.780975
20
0.767212
11
0.781144
21
0.767223
0
LINE
8
BLACK
6
CONTINUOUS
10
0.781144
20
0.767223
11
0.781835
21
0.766716
0
LINE
8
BLACK
6
CONTINUOUS
10
0.781835
20
0.766716
11
0.782577
21
0.766287
0
LINE
8
BLACK
6
CONTINUOUS
10
0.782577
20
0.766287
11
0.782635
21
0.766127
0
LINE
8
BLACK
6
CONTINUOUS
10
0.782635
20
0.766127
11
0.782772
21
0.766027
0
LINE
8
BLACK
6
CONTINUOUS
10
0.782772
20
0.766027
11
0.786359
21
0.760646
0
LINE
8
BLACK
6
CONTINUOUS
10
0.786359
20
0.760646
11
0.789563
21
0.757442
0
LINE
8
BLACK
6
CONTINUOUS
10
0.789563
20
0.757442
11
0.792884
21
0.755781
0
LINE
8
BLACK
6
CONTINUOUS
10
0.792884
20
0.755781
11
0.793708
21
0.75517
0
LINE
8
BLACK
6
CONTINUOUS
10
0.793708
20
0.75517
11
0.794511
21
0.753317
0
LINE
8
BLACK
6
CONTINUOUS
10
0.794511
20
0.753317
11
0.793935
21
0.751381
0
LINE
8
BLACK
6
CONTINUOUS
10
0.793935
20
0.751381
11
0.79225
21
0.750268
0
LINE
8
BLACK
6
CONTINUOUS
10
0.79225
20
0.750268
11
0.790243
21
0.750499
0
LINE
8
BLACK
6
CONTINUOUS
10
0.790243
20
0.750499
11
0.786494
21
0.752374
0
LINE
8
BLACK
6
CONTINUOUS
10
0.786494
20
0.752374
11
0.785784
21
0.7529
0
LINE
8
BLACK
6
CONTINUOUS
10
0.785784
20
0.7529
11
0.785726
21
0.752927
0
LINE
8
BLACK
6
CONTINUOUS
10
0.785726
20
0.752927
11
0.783268
21
0.755386
0
LINE
8
BLACK
6
CONTINUOUS
10
0.783268
20
0.755386
11
0.783268
21
0.727972
0
LINE
8
BLACK
6
CONTINUOUS
10
0.783268
20
0.727972
11
0.791564
21
0.727972
0
LINE
8
BLACK
6
CONTINUOUS
10
0.791564
20
0.727972
11
0.792573
21
0.727794
0
LINE
8
BLACK
6
CONTINUOUS
10
0.792573
20
0.727794
11
0.794121
21
0.726495
0
LINE
8
BLACK
6
CONTINUOUS
10
0.794121
20
0.726495
11
0.794471
21
0.724506
0
LINE
8
BLACK
6
CONTINUOUS
10
0.794471
20
0.724506
11
0.793462
21
0.722757
0
LINE
8
BLACK
6
CONTINUOUS
10
0.793462
20
0.722757
11
0.791564
21
0.722066
0
LINE
8
BLACK
6
CONTINUOUS
10
0.791564
20
0.722066
11
0.769066
21
0.722066
0
LINE
8
BLACK
6
CONTINUOUS
10
0.769066
20
0.722066
11
0.768056
21
0.722244
0
LINE
8
BLACK
6
CONTINUOUS
10
0.768056
20
0.722244
11
0.766509
21
0.723543
0
LINE
8
BLACK
6
CONTINUOUS
10
0.766509
20
0.723543
11
0.766158
21
0.725532
0
LINE
8
BLACK
6
CONTINUOUS
10
0.766158
20
0.725532
11
0.767168
21
0.727281
0
LINE
8
BLACK
6
CONTINUOUS
10
0.767168
20
0.727281
11
0.769066
21
0.727972
0
LINE
8
BLACK
6
CONTINUOUS
10
0.769066
20
0.727972
11
0.777362
21
0.727972
0
LINE
8
BLACK
6
CONTINUOUS
10
0.777362
20
0.727972
11
0.777362
21
0.764389
0
LINE
8
BLACK
6
CONTINUOUS
10
0.777362
20
0.764389
11
0.77754
21
0.765399
0
LINE
8
BLACK
6
CONTINUOUS
10
0.77754
20
0.765399
11
0.777649
21
0.765529
0
LINE
8
BLACK
6
CONTINUOUS
10
0.777649
20
0.765529
11
0.777668
21
0.765698
0
LINE
8
BLACK
6
CONTINUOUS
10
0.777668
20
0.765698
11
0.778288
21
0.76629
0
LINE
8
BLACK
6
CONTINUOUS
10
0.778288
20
0.76629
11
0.778839
21
0.766946
0
LINE
8
BLACK
6
CONTINUOUS
10
0.778839
20
0.766946
11
0.779006
21
0.766976
0
LINE
8
BLACK
6
CONTINUOUS
10
0.779006
20
0.766976
11
0.779129
21
0.767093
0
LINE
8
BLACK
6
CONTINUOUS
10
0.779129
20
0.767093
11
0.779984
21
0.767148
0
LINE
8
BLACK
6
CONTINUOUS
10
0.779984
20
0.767148
11
0.780828
21
0.767297
0
LINE
8
BLACK
6
CONTINUOUS
10
0.780828
20
0.767297
11
0.780975
21
0.767212
0
LINE
8
BLACK
6
CONTINUOUS
10
0.437568
20
0.975909
11
0.437703
21
0.975796
0
LINE
8
BLACK
6
CONTINUOUS
10
0.437703
20
0.975796
11
0.437878
21
0.975776
0
LINE
8
BLACK
6
CONTINUOUS
10
0.437878
20
0.975776
11
0.441628
21
0.973901
0
LINE
8
BLACK
6
CONTINUOUS
10
0.441628
20
0.973901
11
0.442337
21
0.973375
0
LINE
8
BLACK
6
CONTINUOUS
10
0.442337
20
0.973375
11
0.442395
21
0.973348
0
LINE
8
BLACK
6
CONTINUOUS
10
0.442395
20
0.973348
11
0.44427
21
0.971473
0
LINE
8
BLACK
6
CONTINUOUS
10
0.44427
20
0.971473
11
0.444776
21
0.97075
0
LINE
8
BLACK
6
CONTINUOUS
10
0.444776
20
0.97075
11
0.444823
21
0.970706
0
LINE
8
BLACK
6
CONTINUOUS
10
0.444823
20
0.970706
11
0.446698
21
0.966956
0
LINE
8
BLACK
6
CONTINUOUS
10
0.446698
20
0.966956
11
0.446843
21
0.966468
0
LINE
8
BLACK
6
CONTINUOUS
10
0.446843
20
0.966468
11
0.446922
21
0.966352
0
LINE
8
BLACK
6
CONTINUOUS
10
0.446922
20
0.966352
11
0.448796
21
0.958853
0
LINE
8
BLACK
6
CONTINUOUS
10
0.448796
20
0.958853
11
0.448838
21
0.958265
0
LINE
8
BLACK
6
CONTINUOUS
10
0.448838
20
0.958265
11
0.448884
21
0.958136
0
LINE
8
BLACK
6
CONTINUOUS
10
0.448884
20
0.958136
11
0.448884
21
0.948763
0
LINE
8
BLACK
6
CONTINUOUS
10
0.448884
20
0.948763
11
0.448782
21
0.948182
0
LINE
8
BLACK
6
CONTINUOUS
10
0.448782
20
0.948182
11
0.448796
21
0.948047
0
LINE
8
BLACK
6
CONTINUOUS
10
0.448796
20
0.948047
11
0.446922
21
0.940547
0
LINE
8
BLACK
6
CONTINUOUS
10
0.446922
20
0.940547
11
0.446714
21
0.940082
0
LINE
8
BLACK
6
CONTINUOUS
10
0.446714
20
0.940082
11
0.446698
21
0.939943
0
LINE
8
BLACK
6
CONTINUOUS
10
0.446698
20
0.939943
11
0.444823
21
0.936194
0
LINE
8
BLACK
6
CONTINUOUS
10
0.444823
20
0.936194
11
0.444297
21
0.935485
0
LINE
8
BLACK
6
CONTINUOUS
10
0.444297
20
0.935485
11
0.44427
21
0.935426
0
LINE
8
BLACK
6
CONTINUOUS
10
0.44427
20
0.935426
11
0.442395
21
0.933551
0
LINE
8
BLACK
6
CONTINUOUS
10
0.442395
20
0.933551
11
0.441672
21
0.933045
0
LINE
8
BLACK
6
CONTINUOUS
10
0.441672
20
0.933045
11
0.441628
21
0.932998
0
LINE
8
BLACK
6
CONTINUOUS
10
0.441628
20
0.932998
11
0.437878
21
0.931124
0
LINE
8
BLACK
6
CONTINUOUS
10
0.437878
20
0.931124
11
0.436895
21
0.930831
0
LINE
8
BLACK
6
CONTINUOUS
10
0.436895
20
0.930831
11
0.436724
21
0.930872
0
LINE
8
BLACK
6
CONTINUOUS
10
0.436724
20
0.930872
11
0.436558
21
0.930812
0
LINE
8
BLACK
6
CONTINUOUS
10
0.436558
20
0.930812
11
0.432808
21
0.930812
0
LINE
8
BLACK
6
CONTINUOUS
10
0.432808
20
0.930812
11
0.431798
21
0.93099
0
LINE
8
BLACK
6
CONTINUOUS
10
0.431798
20
0.93099
11
0.431663
21
0.931103
0
LINE
8
BLACK
6
CONTINUOUS
10
0.431663
20
0.931103
11
0.431488
21
0.931124
0
LINE
8
BLACK
6
CONTINUOUS
10
0.431488
20
0.931124
11
0.427738
21
0.932998
0
LINE
8
BLACK
6
CONTINUOUS
10
0.427738
20
0.932998
11
0.427029
21
0.933524
0
LINE
8
BLACK
6
CONTINUOUS
10
0.427029
20
0.933524
11
0.426971
21
0.933551
0
LINE
8
BLACK
6
CONTINUOUS
10
0.426971
20
0.933551
11
0.425096
21
0.935426
0
LINE
8
BLACK
6
CONTINUOUS
10
0.425096
20
0.935426
11
0.42459
21
0.936149
0
LINE
8
BLACK
6
CONTINUOUS
10
0.42459
20
0.936149
11
0.424543
21
0.936194
0
LINE
8
BLACK
6
CONTINUOUS
10
0.424543
20
0.936194
11
0.422668
21
0.939943
0
LINE
8
BLACK
6
CONTINUOUS
10
0.422668
20
0.939943
11
0.422523
21
0.940432
0
LINE
8
BLACK
6
CONTINUOUS
10
0.422523
20
0.940432
11
0.422445
21
0.940547
0
LINE
8
BLACK
6
CONTINUOUS
10
0.422445
20
0.940547
11
0.42057
21
0.948047
0
LINE
8
BLACK
6
CONTINUOUS
10
0.42057
20
0.948047
11
0.420529
21
0.948634
0
LINE
8
BLACK
6
CONTINUOUS
10
0.420529
20
0.948634
11
0.420482
21
0.948763
0
LINE
8
BLACK
6
CONTINUOUS
10
0.420482
20
0.948763
11
0.420482
21
0.958136
0
LINE
8
BLACK
6
CONTINUOUS
10
0.420482
20
0.958136
11
0.420584
21
0.958717
0
LINE
8
BLACK
6
CONTINUOUS
10
0.420584
20
0.958717
11
0.42057
21
0.958853
0
LINE
8
BLACK
6
CONTINUOUS
10
0.42057
20
0.958853
11
0.422445
21
0.966352
0
LINE
8
BLACK
6
CONTINUOUS
10
0.422445
20
0.966352
11
0.422652
21
0.966817
0
LINE
8
BLACK
6
CONTINUOUS
10
0.422652
20
0.966817
11
0.422668
21
0.966956
0
LINE
8
BLACK
6
CONTINUOUS
10
0.422668
20
0.966956
11
0.424543
21
0.970706
0
LINE
8
BLACK
6
CONTINUOUS
10
0.424543
20
0.970706
11
0.425069
21
0.971415
0
LINE
8
BLACK
6
CONTINUOUS
10
0.425069
20
0.971415
11
0.425096
21
0.971473
0
LINE
8
BLACK
6
CONTINUOUS
10
0.425096
20
0.971473
11
0.426971
21
0.973348
0
LINE
8
BLACK
6
CONTINUOUS
10
0.426971
20
0.973348
11
0.427694
21
0.973854
0
LINE
8
BLACK
6
CONTINUOUS
10
0.427694
20
0.973854
11
0.427738
21
0.973901
0
LINE
8
BLACK
6
CONTINUOUS
10
0.427738
20
0.973901
11
0.431488
21
0.975776
0
LINE
8
BLACK
6
CONTINUOUS
10
0.431488
20
0.975776
11
0.432471
21
0.976068
0
LINE
8
BLACK
6
CONTINUOUS
10
0.432471
20
0.976068
11
0.432642
21
0.976027
0
LINE
8
BLACK
6
CONTINUOUS
10
0.432642
20
0.976027
11
0.432808
21
0.976087
0
LINE
8
BLACK
6
CONTINUOUS
10
0.432808
20
0.976087
11
0.436558
21
0.976087
0
LINE
8
BLACK
6
CONTINUOUS
10
0.436558
20
0.976087
11
0.437568
21
0.975909
0
LINE
8
BLACK
6
CONTINUOUS
10
0.433505
20
0.970182
11
0.430808
21
0.968833
0
LINE
8
BLACK
6
CONTINUOUS
10
0.430808
20
0.968833
11
0.429611
21
0.967636
0
LINE
8
BLACK
6
CONTINUOUS
10
0.429611
20
0.967636
11
0.428095
21
0.964605
0
LINE
8
BLACK
6
CONTINUOUS
10
0.428095
20
0.964605
11
0.426387
21
0.957773
0
LINE
8
BLACK
6
CONTINUOUS
10
0.426387
20
0.957773
11
0.426387
21
0.949126
0
LINE
8
BLACK
6
CONTINUOUS
10
0.426387
20
0.949126
11
0.428095
21
0.942294
0
LINE
8
BLACK
6
CONTINUOUS
10
0.428095
20
0.942294
11
0.429611
21
0.939263
0
LINE
8
BLACK
6
CONTINUOUS
10
0.429611
20
0.939263
11
0.430808
21
0.938066
0
LINE
8
BLACK
6
CONTINUOUS
10
0.430808
20
0.938066
11
0.433505
21
0.936717
0
LINE
8
BLACK
6
CONTINUOUS
10
0.433505
20
0.936717
11
0.435861
21
0.936717
0
LINE
8
BLACK
6
CONTINUOUS
10
0.435861
20
0.936717
11
0.438558
21
0.938066
0
LINE
8
BLACK
6
CONTINUOUS
10
0.438558
20
0.938066
11
0.439755
21
0.939263
0
LINE
8
BLACK
6
CONTINUOUS
10
0.439755
20
0.939263
11
0.441271
21
0.942294
0
LINE
8
BLACK
6
CONTINUOUS
10
0.441271
20
0.942294
11
0.442979
21
0.949126
0
LINE
8
BLACK
6
CONTINUOUS
10
0.442979
20
0.949126
11
0.442979
21
0.957773
0
LINE
8
BLACK
6
CONTINUOUS
10
0.442979
20
0.957773
11
0.441271
21
0.964605
0
LINE
8
BLACK
6
CONTINUOUS
10
0.441271
20
0.964605
11
0.439755
21
0.967636
0
LINE
8
BLACK
6
CONTINUOUS
10
0.439755
20
0.967636
11
0.438558
21
0.968833
0
LINE
8
BLACK
6
CONTINUOUS
10
0.438558
20
0.968833
11
0.435861
21
0.970182
0
LINE
8
BLACK
6
CONTINUOUS
10
0.435861
20
0.970182
11
0.433505
21
0.970182
0
LINE
8
BLACK
6
CONTINUOUS
10
0.472838
20
0.975958
11
0.473008
21
0.975969
0
LINE
8
BLACK
6
CONTINUOUS
10
0.473008
20
0.975969
11
0.473698
21
0.975461
0
LINE
8
BLACK
6
CONTINUOUS
10
0.473698
20
0.975461
11
0.47444
21
0.975033
0
LINE
8
BLACK
6
CONTINUOUS
10
0.47444
20
0.975033
11
0.474498
21
0.974873
0
LINE
8
BLACK
6
CONTINUOUS
10
0.474498
20
0.974873
11
0.474635
21
0.974773
0
LINE
8
BLACK
6
CONTINUOUS
10
0.474635
20
0.974773
11
0.478223
21
0.969391
0
LINE
8
BLACK
6
CONTINUOUS
10
0.478223
20
0.969391
11
0.481427
21
0.966188
0
LINE
8
BLACK
6
CONTINUOUS
10
0.481427
20
0.966188
11
0.484748
21
0.964527
0
LINE
8
BLACK
6
CONTINUOUS
10
0.484748
20
0.964527
11
0.485571
21
0.963916
0
LINE
8
BLACK
6
CONTINUOUS
10
0.485571
20
0.963916
11
0.486374
21
0.962063
0
LINE
8
BLACK
6
CONTINUOUS
10
0.486374
20
0.962063
11
0.485799
21
0.960127
0
LINE
8
BLACK
6
CONTINUOUS
10
0.485799
20
0.960127
11
0.484113
21
0.959014
0
LINE
8
BLACK
6
CONTINUOUS
10
0.484113
20
0.959014
11
0.482107
21
0.959245
0
LINE
8
BLACK
6
CONTINUOUS
10
0.482107
20
0.959245
11
0.478357
21
0.96112
0
LINE
8
BLACK
6
CONTINUOUS
10
0.478357
20
0.96112
11
0.477648
21
0.961646
0
LINE
8
BLACK
6
CONTINUOUS
10
0.477648
20
0.961646
11
0.47759
21
0.961673
0
LINE
8
BLACK
6
CONTINUOUS
10
0.47759
20
0.961673
11
0.475131
21
0.964131
0
LINE
8
BLACK
6
CONTINUOUS
10
0.475131
20
0.964131
11
0.475131
21
0.936717
0
LINE
8
BLACK
6
CONTINUOUS
10
0.475131
20
0.936717
11
0.483427
21
0.936717
0
LINE
8
BLACK
6
CONTINUOUS
10
0.483427
20
0.936717
11
0.484437
21
0.936539
0
LINE
8
BLACK
6
CONTINUOUS
10
0.484437
20
0.936539
11
0.485984
21
0.935241
0
LINE
8
BLACK
6
CONTINUOUS
10
0.485984
20
0.935241
11
0.486335
21
0.933252
0
LINE
8
BLACK
6
CONTINUOUS
10
0.486335
20
0.933252
11
0.485325
21
0.931503
0
LINE
8
BLACK
6
CONTINUOUS
10
0.485325
20
0.931503
11
0.483427
21
0.930812
0
LINE
8
BLACK
6
CONTINUOUS
10
0.483427
20
0.930812
11
0.46093
21
0.930812
0
LINE
8
BLACK
6
CONTINUOUS
10
0.46093
20
0.930812
11
0.45992
21
0.93099
0
LINE
8
BLACK
6
CONTINUOUS
10
0.45992
20
0.93099
11
0.458373
21
0.932288
0
LINE
8
BLACK
6
CONTINUOUS
10
0.458373
20
0.932288
11
0.458022
21
0.934277
0
LINE
8
BLACK
6
CONTINUOUS
10
0.458022
20
0.934277
11
0.459032
21
0.936026
0
LINE
8
BLACK
6
CONTINUOUS
10
0.459032
20
0.936026
11
0.46093
21
0.936717
0
LINE
8
BLACK
6
CONTINUOUS
10
0.46093
20
0.936717
11
0.469226
21
0.936717
0
LINE
8
BLACK
6
CONTINUOUS
10
0.469226
20
0.936717
11
0.469226
21
0.973135
0
LINE
8
BLACK
6
CONTINUOUS
10
0.469226
20
0.973135
11
0.469404
21
0.974145
0
LINE
8
BLACK
6
CONTINUOUS
10
0.469404
20
0.974145
11
0.469513
21
0.974275
0
LINE
8
BLACK
6
CONTINUOUS
10
0.469513
20
0.974275
11
0.469532
21
0.974443
0
LINE
8
BLACK
6
CONTINUOUS
10
0.469532
20
0.974443
11
0.470151
21
0.975035
0
LINE
8
BLACK
6
CONTINUOUS
10
0.470151
20
0.975035
11
0.470702
21
0.975692
0
LINE
8
BLACK
6
CONTINUOUS
10
0.470702
20
0.975692
11
0.470869
21
0.975721
0
LINE
8
BLACK
6
CONTINUOUS
10
0.470869
20
0.975721
11
0.470992
21
0.975839
0
LINE
8
BLACK
6
CONTINUOUS
10
0.470992
20
0.975839
11
0.471847
21
0.975894
0
LINE
8
BLACK
6
CONTINUOUS
10
0.471847
20
0.975894
11
0.472691
21
0.976043
0
LINE
8
BLACK
6
CONTINUOUS
10
0.472691
20
0.976043
11
0.472838
21
0.975958
0
LINE
8
BLACK
6
CONTINUOUS
10
0.400073
20
0.975909
11
0.400208
21
0.975796
0
LINE
8
BLACK
6
CONTINUOUS
10
0.400208
20
0.975796
11
0.400383
21
0.975776
0
LINE
8
BLACK
6
CONTINUOUS
10
0.400383
20
0.975776
11
0.404133
21
0.973901
0
LINE
8
BLACK
6
CONTINUOUS
10
0.404133
20
0.973901
11
0.404842
21
0.973375
0
LINE
8
BLACK
6
CONTINUOUS
10
0.404842
20
0.973375
11
0.4049
21
0.973348
0
LINE
8
BLACK
6
CONTINUOUS
10
0.4049
20
0.973348
11
0.406775
21
0.971473
0
LINE
8
BLACK
6
CONTINUOUS
10
0.406775
20
0.971473
11
0.407281
21
0.97075
0
LINE
8
BLACK
6
CONTINUOUS
10
0.407281
20
0.97075
11
0.407328
21
0.970706
0
LINE
8
BLACK
6
CONTINUOUS
10
0.407328
20
0.970706
11
0.409203
21
0.966956
0
LINE
8
BLACK
6
CONTINUOUS
10
0.409203
20
0.966956
11
0.409348
21
0.966468
0
LINE
8
BLACK
6
CONTINUOUS
10
0.409348
20
0.966468
11
0.409426
21
0.966352
0
LINE
8
BLACK
6
CONTINUOUS
10
0.409426
20
0.966352
11
0.411301
21
0.958853
0
LINE
8
BLACK
6
CONTINUOUS
10
0.411301
20
0.958853
11
0.411342
21
0.958265
0
LINE
8
BLACK
6
CONTINUOUS
10
0.411342
20
0.958265
11
0.411389
21
0.958136
0
LINE
8
BLACK
6
CONTINUOUS
10
0.411389
20
0.958136
11
0.411389
21
0.948763
0
LINE
8
BLACK
6
CONTINUOUS
10
0.411389
20
0.948763
11
0.411287
21
0.948182
0
LINE
8
BLACK
6
CONTINUOUS
10
0.411287
20
0.948182
11
0.411301
21
0.948047
0
LINE
8
BLACK
6
CONTINUOUS
10
0.411301
20
0.948047
11
0.409426
21
0.940547
0
LINE
8
BLACK
6
CONTINUOUS
10
0.409426
20
0.940547
11
0.409219
21
0.940082
0
LINE
8
BLACK
6
CONTINUOUS
10
0.409219
20
0.940082
11
0.409203
21
0.939943
0
LINE
8
BLACK
6
CONTINUOUS
10
0.409203
20
0.939943
11
0.407328
21
0.936194
0
LINE
8
BLACK
6
CONTINUOUS
10
0.407328
20
0.936194
11
0.406802
21
0.935485
0
LINE
8
BLACK
6
CONTINUOUS
10
0.406802
20
0.935485
11
0.406775
21
0.935426
0
LINE
8
BLACK
6
CONTINUOUS
10
0.406775
20
0.935426
11
0.4049
21
0.933551
0
LINE
8
BLACK
6
CONTINUOUS
10
0.4049
20
0.933551
11
0.404177
21
0.933045
0
LINE
8
BLACK
6
CONTINUOUS
10
0.404177
20
0.933045
11
0.404133
21
0.932998
0
LINE
8
BLACK
6
CONTINUOUS
10
0.404133
20
0.932998
11
0.400383
21
0.931124
0
LINE
8
BLACK
6
CONTINUOUS
10
0.400383
20
0.931124
11
0.3994
21
0.930831
0
LINE
8
BLACK
6
CONTINUOUS
10
0.3994
20
0.930831
11
0.399229
21
0.930872
0
LINE
8
BLACK
6
CONTINUOUS
10
0.399229
20
0.930872
11
0.399063
21
0.930812
0
LINE
8
BLACK
6
CONTINUOUS
10
0.399063
20
0.930812
11
0.395313
21
0.930812
0
LINE
8
BLACK
6
CONTINUOUS
10
0.395313
20
0.930812
11
0.394303
21
0.93099
0
LINE
8
BLACK
6
CONTINUOUS
10
0.394303
20
0.93099
11
0.394168
21
0.931103
0
LINE
8
BLACK
6
CONTINUOUS
10
0.394168
20
0.931103
11
0.393993
21
0.931124
0
LINE
8
BLACK
6
CONTINUOUS
10
0.393993
20
0.931124
11
0.390243
21
0.932998
0
LINE
8
BLACK
6
CONTINUOUS
10
0.390243
20
0.932998
11
0.389534
21
0.933524
0
LINE
8
BLACK
6
CONTINUOUS
10
0.389534
20
0.933524
11
0.389476
21
0.933551
0
LINE
8
BLACK
6
CONTINUOUS
10
0.389476
20
0.933551
11
0.387601
21
0.935426
0
LINE
8
BLACK
6
CONTINUOUS
10
0.387601
20
0.935426
11
0.387095
21
0.936149
0
LINE
8
BLACK
6
CONTINUOUS
10
0.387095
20
0.936149
11
0.387048
21
0.936194
0
LINE
8
BLACK
6
CONTINUOUS
10
0.387048
20
0.936194
11
0.385173
21
0.939943
0
LINE
8
BLACK
6
CONTINUOUS
10
0.385173
20
0.939943
11
0.385028
21
0.940432
0
LINE
8
BLACK
6
CONTINUOUS
10
0.385028
20
0.940432
11
0.384949
21
0.940547
0
LINE
8
BLACK
6
CONTINUOUS
10
0.384949
20
0.940547
11
0.383075
21
0.948047
0
LINE
8
BLACK
6
CONTINUOUS
10
0.383075
20
0.948047
11
0.383033
21
0.948634
0
LINE
8
BLACK
6
CONTINUOUS
10
0.383033
20
0.948634
11
0.382986
21
0.948763
0
LINE
8
BLACK
6
CONTINUOUS
10
0.382986
20
0.948763
11
0.382986
21
0.958136
0
LINE
8
BLACK
6
CONTINUOUS
10
0.382986
20
0.958136
11
0.383089
21
0.958717
0
LINE
8
BLACK
6
CONTINUOUS
10
0.383089
20
0.958717
11
0.383075
21
0.958853
0
LINE
8
BLACK
6
CONTINUOUS
10
0.383075
20
0.958853
11
0.384949
21
0.966352
0
LINE
8
BLACK
6
CONTINUOUS
10
0.384949
20
0.966352
11
0.385157
21
0.966817
0
LINE
8
BLACK
6
CONTINUOUS
10
0.385157
20
0.966817
11
0.385173
21
0.966956
0
LINE
8
BLACK
6
CONTINUOUS
10
0.385173
20
0.966956
11
0.387048
21
0.970706
0
LINE
8
BLACK
6
CONTINUOUS
10
0.387048
20
0.970706
11
0.387574
21
0.971415
0
LINE
8
BLACK
6
CONTINUOUS
10
0.387574
20
0.971415
11
0.387601
21
0.971473
0
LINE
8
BLACK
6
CONTINUOUS
10
0.387601
20
0.971473
11
0.389476
21
0.973348
0
LINE
8
BLACK
6
CONTINUOUS
10
0.389476
20
0.973348
11
0.390199
21
0.973854
0
LINE
8
BLACK
6
CONTINUOUS
10
0.390199
20
0.973854
11
0.390243
21
0.973901
0
LINE
8
BLACK
6
CONTINUOUS
10
0.390243
20
0.973901
11
0.393993
21
0.975776
0
LINE
8
BLACK
6
CONTINUOUS
10
0.393993
20
0.975776
11
0.394975
21
0.976068
0
LINE
8
BLACK
6
CONTINUOUS
10
0.394975
20
0.976068
11
0.395147
21
0.976027
0
LINE
8
BLACK
6
CONTINUOUS
10
0.395147
20
0.976027
11
0.395313
21
0.976087
0
LINE
8
BLACK
6
CONTINUOUS
10
0.395313
20
0.976087
11
0.399063
21
0.976087
0
LINE
8
BLACK
6
CONTINUOUS
10
0.399063
20
0.976087
11
0.400073
21
0.975909
0
LINE
8
BLACK
6
CONTINUOUS
10
0.39601
20
0.970182
11
0.393313
21
0.968833
0
LINE
8
BLACK
6
CONTINUOUS
10
0.393313
20
0.968833
11
0.392116
21
0.967636
0
LINE
8
BLACK
6
CONTINUOUS
10
0.392116
20
0.967636
11
0.3906
21
0.964605
0
LINE
8
BLACK
6
CONTINUOUS
10
0.3906
20
0.964605
11
0.388892
21
0.957773
0
LINE
8
BLACK
6
CONTINUOUS
10
0.388892
20
0.957773
11
0.388892
21
0.949126
0
LINE
8
BLACK
6
CONTINUOUS
10
0.388892
20
0.949126
11
0.3906
21
0.942294
0
LINE
8
BLACK
6
CONTINUOUS
10
0.3906
20
0.942294
11
0.392116
21
0.939263
0
LINE
8
BLACK
6
CONTINUOUS
10
0.392116
20
0.939263
11
0.393313
21
0.938066
0
LINE
8
BLACK
6
CONTINUOUS
10
0.393313
20
0.938066
11
0.39601
21
0.936717
0
LINE
8
BLACK
6
CONTINUOUS
10
0.39601
20
0.936717
11
0.398366
21
0.936717
0
LINE
8
BLACK
6
CONTINUOUS
10
0.398366
20
0.936717
11
0.401063
21
0.938066
0
LINE
8
BLACK
6
CONTINUOUS
10
0.401063
20
0.938066
11
0.40226
21
0.939263
0
LINE
8
BLACK
6
CONTINUOUS
10
0.40226
20
0.939263
11
0.403776
21
0.942294
0
LINE
8
BLACK
6
CONTINUOUS
10
0.403776
20
0.942294
11
0.405484
21
0.949126
0
LINE
8
BLACK
6
CONTINUOUS
10
0.405484
20
0.949126
11
0.405484
21
0.957773
0
LINE
8
BLACK
6
CONTINUOUS
10
0.405484
20
0.957773
11
0.403776
21
0.964605
0
LINE
8
BLACK
6
CONTINUOUS
10
0.403776
20
0.964605
11
0.40226
21
0.967636
0
LINE
8
BLACK
6
CONTINUOUS
10
0.40226
20
0.967636
11
0.401063
21
0.968833
0
LINE
8
BLACK
6
CONTINUOUS
10
0.401063
20
0.968833
11
0.398366
21
0.970182
0
LINE
8
BLACK
6
CONTINUOUS
10
0.398366
20
0.970182
11
0.39601
21
0.970182
0
LINE
8
BLACK
6
CONTINUOUS
10
0.333829
20
0.97602
11
0.333959
21
0.976043
0
LINE
8
BLACK
6
CONTINUOUS
10
0.333959
20
0.976043
11
0.334072
21
0.975977
0
LINE
8
BLACK
6
CONTINUOUS
10
0.334072
20
0.975977
11
0.334456
21
0.975909
0
LINE
8
BLACK
6
CONTINUOUS
10
0.334456
20
0.975909
11
0.335043
21
0.975416
0
LINE
8
BLACK
6
CONTINUOUS
10
0.335043
20
0.975416
11
0.335708
21
0.975033
0
LINE
8
BLACK
6
CONTINUOUS
10
0.335708
20
0.975033
11
0.335799
21
0.974782
0
LINE
8
BLACK
6
CONTINUOUS
10
0.335799
20
0.974782
11
0.336003
21
0.974611
0
LINE
8
BLACK
6
CONTINUOUS
10
0.336003
20
0.974611
11
0.336136
21
0.973855
0
LINE
8
BLACK
6
CONTINUOUS
10
0.336136
20
0.973855
11
0.336399
21
0.973135
0
LINE
8
BLACK
6
CONTINUOUS
10
0.336399
20
0.973135
11
0.336399
21
0.933765
0
LINE
8
BLACK
6
CONTINUOUS
10
0.336399
20
0.933765
11
0.33622
21
0.932755
0
LINE
8
BLACK
6
CONTINUOUS
10
0.33622
20
0.932755
11
0.334922
21
0.931207
0
LINE
8
BLACK
6
CONTINUOUS
10
0.334922
20
0.931207
11
0.332933
21
0.930857
0
LINE
8
BLACK
6
CONTINUOUS
10
0.332933
20
0.930857
11
0.331184
21
0.931867
0
LINE
8
BLACK
6
CONTINUOUS
10
0.331184
20
0.931867
11
0.330493
21
0.933765
0
LINE
8
BLACK
6
CONTINUOUS
10
0.330493
20
0.933765
11
0.330493
21
0.951434
0
LINE
8
BLACK
6
CONTINUOUS
10
0.330493
20
0.951434
11
0.320322
21
0.951434
0
LINE
8
BLACK
6
CONTINUOUS
10
0.320322
20
0.951434
11
0.319313
21
0.951612
0
LINE
8
BLACK
6
CONTINUOUS
10
0.319313
20
0.951612
11
0.317765
21
0.952911
0
LINE
8
BLACK
6
CONTINUOUS
10
0.317765
20
0.952911
11
0.317415
21
0.9549
0
LINE
8
BLACK
6
CONTINUOUS
10
0.317415
20
0.9549
11
0.318424
21
0.956649
0
LINE
8
BLACK
6
CONTINUOUS
10
0.318424
20
0.956649
11
0.320322
21
0.95734
0
LINE
8
BLACK
6
CONTINUOUS
10
0.320322
20
0.95734
11
0.330493
21
0.95734
0
LINE
8
BLACK
6
CONTINUOUS
10
0.330493
20
0.95734
11
0.330493
21
0.970182
0
LINE
8
BLACK
6
CONTINUOUS
10
0.330493
20
0.970182
11
0.314698
21
0.970182
0
LINE
8
BLACK
6
CONTINUOUS
10
0.314698
20
0.970182
11
0.313688
21
0.97036
0
LINE
8
BLACK
6
CONTINUOUS
10
0.313688
20
0.97036
11
0.312141
21
0.971658
0
LINE
8
BLACK
6
CONTINUOUS
10
0.312141
20
0.971658
11
0.31179
21
0.973647
0
LINE
8
BLACK
6
CONTINUOUS
10
0.31179
20
0.973647
11
0.3128
21
0.975397
0
LINE
8
BLACK
6
CONTINUOUS
10
0.3128
20
0.975397
11
0.314698
21
0.976087
0
LINE
8
BLACK
6
CONTINUOUS
10
0.314698
20
0.976087
11
0.333446
21
0.976087
0
LINE
8
BLACK
6
CONTINUOUS
10
0.333446
20
0.976087
11
0.333829
21
0.97602
0
LINE
8
BLACK
6
CONTINUOUS
10
0.364452
20
0.962786
11
0.364587
21
0.962672
0
LINE
8
BLACK
6
CONTINUOUS
10
0.364587
20
0.962672
11
0.364763
21
0.962652
0
LINE
8
BLACK
6
CONTINUOUS
10
0.364763
20
0.962652
11
0.366804
21
0.961632
0
LINE
8
BLACK
6
CONTINUOUS
10
0.366804
20
0.961632
11
0.36759
21
0.962568
0
LINE
8
BLACK
6
CONTINUOUS
10
0.36759
20
0.962568
11
0.369579
21
0.962919
0
LINE
8
BLACK
6
CONTINUOUS
10
0.369579
20
0.962919
11
0.371328
21
0.961909
0
LINE
8
BLACK
6
CONTINUOUS
10
0.371328
20
0.961909
11
0.372019
21
0.960011
0
LINE
8
BLACK
6
CONTINUOUS
10
0.372019
20
0.960011
11
0.372019
21
0.933765
0
LINE
8
BLACK
6
CONTINUOUS
10
0.372019
20
0.933765
11
0.371841
21
0.932755
0
LINE
8
BLACK
6
CONTINUOUS
10
0.371841
20
0.932755
11
0.370543
21
0.931207
0
LINE
8
BLACK
6
CONTINUOUS
10
0.370543
20
0.931207
11
0.368554
21
0.930857
0
LINE
8
BLACK
6
CONTINUOUS
10
0.368554
20
0.930857
11
0.366804
21
0.931867
0
LINE
8
BLACK
6
CONTINUOUS
10
0.366804
20
0.931867
11
0.366114
21
0.933765
0
LINE
8
BLACK
6
CONTINUOUS
10
0.366114
20
0.933765
11
0.366114
21
0.955039
0
LINE
8
BLACK
6
CONTINUOUS
10
0.366114
20
0.955039
11
0.365442
21
0.95571
0
LINE
8
BLACK
6
CONTINUOUS
10
0.365442
20
0.95571
11
0.362745
21
0.957059
0
LINE
8
BLACK
6
CONTINUOUS
10
0.362745
20
0.957059
11
0.358515
21
0.957059
0
LINE
8
BLACK
6
CONTINUOUS
10
0.358515
20
0.957059
11
0.356269
21
0.955936
0
LINE
8
BLACK
6
CONTINUOUS
10
0.356269
20
0.955936
11
0.355146
21
0.95369
0
LINE
8
BLACK
6
CONTINUOUS
10
0.355146
20
0.95369
11
0.355146
21
0.933765
0
LINE
8
BLACK
6
CONTINUOUS
10
0.355146
20
0.933765
11
0.354968
21
0.932755
0
LINE
8
BLACK
6
CONTINUOUS
10
0.354968
20
0.932755
11
0.35367
21
0.931207
0
LINE
8
BLACK
6
CONTINUOUS
10
0.35367
20
0.931207
11
0.351681
21
0.930857
0
LINE
8
BLACK
6
CONTINUOUS
10
0.351681
20
0.930857
11
0.349932
21
0.931867
0
LINE
8
BLACK
6
CONTINUOUS
10
0.349932
20
0.931867
11
0.349241
21
0.933765
0
LINE
8
BLACK
6
CONTINUOUS
10
0.349241
20
0.933765
11
0.349241
21
0.954387
0
LINE
8
BLACK
6
CONTINUOUS
10
0.349241
20
0.954387
11
0.349419
21
0.955397
0
LINE
8
BLACK
6
CONTINUOUS
10
0.349419
20
0.955397
11
0.349532
21
0.955532
0
LINE
8
BLACK
6
CONTINUOUS
10
0.349532
20
0.955532
11
0.349552
21
0.955707
0
LINE
8
BLACK
6
CONTINUOUS
10
0.349552
20
0.955707
11
0.351427
21
0.959457
0
LINE
8
BLACK
6
CONTINUOUS
10
0.351427
20
0.959457
11
0.352038
21
0.960281
0
LINE
8
BLACK
6
CONTINUOUS
10
0.352038
20
0.960281
11
0.352444
21
0.960456
0
LINE
8
BLACK
6
CONTINUOUS
10
0.352444
20
0.960456
11
0.352748
21
0.960778
0
LINE
8
BLACK
6
CONTINUOUS
10
0.352748
20
0.960778
11
0.356497
21
0.962652
0
LINE
8
BLACK
6
CONTINUOUS
10
0.356497
20
0.962652
11
0.35748
21
0.962945
0
LINE
8
BLACK
6
CONTINUOUS
10
0.35748
20
0.962945
11
0.357652
21
0.962904
0
LINE
8
BLACK
6
CONTINUOUS
10
0.357652
20
0.962904
11
0.357818
21
0.962964
0
LINE
8
BLACK
6
CONTINUOUS
10
0.357818
20
0.962964
11
0.363442
21
0.962964
0
LINE
8
BLACK
6
CONTINUOUS
10
0.363442
20
0.962964
11
0.364452
21
0.962786
0
LINE
8
BLACK
6
CONTINUOUS
10
0.359238
20
0.991718
11
0.358661
21
0.99311
0
LINE
8
BLACK
6
CONTINUOUS
10
0.358661
20
0.99311
11
0.358661
21
1.04232
0
LINE
8
BLACK
6
CONTINUOUS
10
0.358661
20
1.04232
11
0.359238
21
1.04371
0
LINE
8
BLACK
6
CONTINUOUS
10
0.359238
20
1.04371
11
0.36063
21
1.04429
0
LINE
8
BLACK
6
CONTINUOUS
10
0.36063
20
1.04429
11
0.43937
21
1.04429
0
LINE
8
BLACK
6
CONTINUOUS
10
0.43937
20
1.04429
11
0.440762
21
1.04371
0
LINE
8
BLACK
6
CONTINUOUS
10
0.440762
20
1.04371
11
0.441339
21
1.04232
0
LINE
8
BLACK
6
CONTINUOUS
10
0.441339
20
1.04232
11
0.441339
21
0.99311
0
LINE
8
BLACK
6
CONTINUOUS
10
0.441339
20
0.99311
11
0.440762
21
0.991718
0
LINE
8
BLACK
6
CONTINUOUS
10
0.440762
20
0.991718
11
0.43937
21
0.991142
0
LINE
8
BLACK
6
CONTINUOUS
10
0.43937
20
0.991142
11
0.36063
21
0.991142
0
LINE
8
BLACK
6
CONTINUOUS
10
0.36063
20
0.991142
11
0.359238
21
0.991718
0
LINE
8
BLACK
6
CONTINUOUS
10
0.362598
20
1.04035
11
0.362598
21
0.995079
0
LINE
8
BLACK
6
CONTINUOUS
10
0.362598
20
0.995079
11
0.437402
21
0.995079
0
LINE
8
BLACK
6
CONTINUOUS
10
0.437402
20
0.995079
11
0.437402
21
1.04035
0
LINE
8
BLACK
6
CONTINUOUS
10
0.437402
20
1.04035
11
0.362598
21
1.04035
0
LINE
8
BLACK
6
CONTINUOUS
10
0.409145
20
1.02997
11
0.409403
21
1.02999
0
LINE
8
BLACK
6
CONTINUOUS
10
0.409403
20
1.02999
11
0.412215
21
1.02905
0
LINE
8
BLACK
6
CONTINUOUS
10
0.412215
20
1.02905
11
0.412492
21
1.02881
0
LINE
8
BLACK
6
CONTINUOUS
10
0.412492
20
1.02881
11
0.412831
21
1.02867
0
LINE
8
BLACK
6
CONTINUOUS
10
0.412831
20
1.02867
11
0.414706
21
1.0268
0
LINE
8
BLACK
6
CONTINUOUS
10
0.414706
20
1.0268
11
0.414805
21
1.02656
0
LINE
8
BLACK
6
CONTINUOUS
10
0.414805
20
1.02656
11
0.415001
21
1.02639
0
LINE
8
BLACK
6
CONTINUOUS
10
0.415001
20
1.02639
11
0.415938
21
1.02451
0
LINE
8
BLACK
6
CONTINUOUS
10
0.415938
20
1.02451
11
0.415951
21
1.02434
0
LINE
8
BLACK
6
CONTINUOUS
10
0.415951
20
1.02434
11
0.416057
21
1.02419
0
LINE
8
BLACK
6
CONTINUOUS
10
0.416057
20
1.02419
11
0.416995
21
1.02044
0
LINE
8
BLACK
6
CONTINUOUS
10
0.416995
20
1.02044
11
0.416965
21
1.02024
0
LINE
8
BLACK
6
CONTINUOUS
10
0.416965
20
1.02024
11
0.417042
21
1.02006
0
LINE
8
BLACK
6
CONTINUOUS
10
0.417042
20
1.02006
11
0.417042
21
1.01725
0
LINE
8
BLACK
6
CONTINUOUS
10
0.417042
20
1.01725
11
0.416965
21
1.01706
0
LINE
8
BLACK
6
CONTINUOUS
10
0.416965
20
1.01706
11
0.416995
21
1.01687
0
LINE
8
BLACK
6
CONTINUOUS
10
0.416995
20
1.01687
11
0.416057
21
1.01312
0
LINE
8
BLACK
6
CONTINUOUS
10
0.416057
20
1.01312
11
0.415951
21
1.01297
0
LINE
8
BLACK
6
CONTINUOUS
10
0.415951
20
1.01297
11
0.415938
21
1.01279
0
LINE
8
BLACK
6
CONTINUOUS
10
0.415938
20
1.01279
11
0.415001
21
1.01092
0
LINE
8
BLACK
6
CONTINUOUS
10
0.415001
20
1.01092
11
0.414805
21
1.01075
0
LINE
8
BLACK
6
CONTINUOUS
10
0.414805
20
1.01075
11
0.414706
21
1.01051
0
LINE
8
BLACK
6
CONTINUOUS
10
0.414706
20
1.01051
11
0.412831
21
1.00864
0
LINE
8
BLACK
6
CONTINUOUS
10
0.412831
20
1.00864
11
0.412492
21
1.00849
0
LINE
8
BLACK
6
CONTINUOUS
10
0.412492
20
1.00849
11
0.412215
21
1.00825
0
LINE
8
BLACK
6
CONTINUOUS
10
0.412215
20
1.00825
11
0.409403
21
1.00732
0
LINE
8
BLACK
6
CONTINUOUS
10
0.409403
20
1.00732
11
0.409145
21
1.00734
0
LINE
8
BLACK
6
CONTINUOUS
10
0.409145
20
1.00734
11
0.408905
21
1.00724
0
LINE
8
BLACK
6
CONTINUOUS
10
0.408905
20
1.00724
11
0.40703
21
1.00724
0
LINE
8
BLACK
6
CONTINUOUS
10
0.40703
20
1.00724
11
0.406791
21
1.00734
0
LINE
8
BLACK
6
CONTINUOUS
10
0.406791
20
1.00734
11
0.406532
21
1.00732
0
LINE
8
BLACK
6
CONTINUOUS
10
0.406532
20
1.00732
11
0.40372
21
1.00825
0
LINE
8
BLACK
6
CONTINUOUS
10
0.40372
20
1.00825
11
0.403443
21
1.00849
0
LINE
8
BLACK
6
CONTINUOUS
10
0.403443
20
1.00849
11
0.403105
21
1.00864
0
LINE
8
BLACK
6
CONTINUOUS
10
0.403105
20
1.00864
11
0.402167
21
1.00957
0
LINE
8
BLACK
6
CONTINUOUS
10
0.402167
20
1.00957
11
0.401706
21
1.01069
0
LINE
8
BLACK
6
CONTINUOUS
10
0.401706
20
1.01069
11
0.402167
21
1.0118
0
LINE
8
BLACK
6
CONTINUOUS
10
0.402167
20
1.0118
11
0.403281
21
1.01226
0
LINE
8
BLACK
6
CONTINUOUS
10
0.403281
20
1.01226
11
0.404394
21
1.0118
0
LINE
8
BLACK
6
CONTINUOUS
10
0.404394
20
1.0118
11
0.405069
21
1.01113
0
LINE
8
BLACK
6
CONTINUOUS
10
0.405069
20
1.01113
11
0.407286
21
1.01039
0
LINE
8
BLACK
6
CONTINUOUS
10
0.407286
20
1.01039
11
0.40865
21
1.01039
0
LINE
8
BLACK
6
CONTINUOUS
10
0.40865
20
1.01039
11
0.410867
21
1.01113
0
LINE
8
BLACK
6
CONTINUOUS
10
0.410867
20
1.01113
11
0.412298
21
1.01256
0
LINE
8
BLACK
6
CONTINUOUS
10
0.412298
20
1.01256
11
0.413044
21
1.01405
0
LINE
8
BLACK
6
CONTINUOUS
10
0.413044
20
1.01405
11
0.413892
21
1.01744
0
LINE
8
BLACK
6
CONTINUOUS
10
0.413892
20
1.01744
11
0.413892
21
1.01987
0
LINE
8
BLACK
6
CONTINUOUS
10
0.413892
20
1.01987
11
0.413044
21
1.02326
0
LINE
8
BLACK
6
CONTINUOUS
10
0.413044
20
1.02326
11
0.412298
21
1.02475
0
LINE
8
BLACK
6
CONTINUOUS
10
0.412298
20
1.02475
11
0.410867
21
1.02618
0
LINE
8
BLACK
6
CONTINUOUS
10
0.410867
20
1.02618
11
0.40865
21
1.02692
0
LINE
8
BLACK
6
CONTINUOUS
10
0.40865
20
1.02692
11
0.407286
21
1.02692
0
LINE
8
BLACK
6
CONTINUOUS
10
0.407286
20
1.02692
11
0.405069
21
1.02618
0
LINE
8
BLACK
6
CONTINUOUS
10
0.405069
20
1.02618
11
0.404394
21
1.02551
0
LINE
8
BLACK
6
CONTINUOUS
10
0.404394
20
1.02551
11
0.403281
21
1.02505
0
LINE
8
BLACK
6
CONTINUOUS
10
0.403281
20
1.02505
11
0.402167
21
1.02551
0
LINE
8
BLACK
6
CONTINUOUS
10
0.402167
20
1.02551
11
0.401706
21
1.02662
0
LINE
8
BLACK
6
CONTINUOUS
10
0.401706
20
1.02662
11
0.402167
21
1.02774
0
LINE
8
BLACK
6
CONTINUOUS
10
0.402167
20
1.02774
11
0.403105
21
1.02867
0
LINE
8
BLACK
6
CONTINUOUS
10
0.403105
20
1.02867
11
0.403443
21
1.02881
0
LINE
8
BLACK
6
CONTINUOUS
10
0.403443
20
1.02881
11
0.40372
21
1.02905
0
LINE
8
BLACK
6
CONTINUOUS
10
0.40372
20
1.02905
11
0.406532
21
1.02999
0
LINE
8
BLACK
6
CONTINUOUS
10
0.406532
20
1.02999
11
0.406791
21
1.02997
0
LINE
8
BLACK
6
CONTINUOUS
10
0.406791
20
1.02997
11
0.40703
21
1.03007
0
LINE
8
BLACK
6
CONTINUOUS
10
0.40703
20
1.03007
11
0.408905
21
1.03007
0
LINE
8
BLACK
6
CONTINUOUS
10
0.408905
20
1.03007
11
0.409145
21
1.02997
0
LINE
8
BLACK
6
CONTINUOUS
10
0.38342
20
1.0077
11
0.382958
21
1.00881
0
LINE
8
BLACK
6
CONTINUOUS
10
0.382958
20
1.00881
11
0.38342
21
1.00992
0
LINE
8
BLACK
6
CONTINUOUS
10
0.38342
20
1.00992
11
0.384533
21
1.01039
0
LINE
8
BLACK
6
CONTINUOUS
10
0.384533
20
1.01039
11
0.392917
21
1.01039
0
LINE
8
BLACK
6
CONTINUOUS
10
0.392917
20
1.01039
11
0.384357
21
1.01895
0
LINE
8
BLACK
6
CONTINUOUS
10
0.384357
20
1.01895
11
0.384217
21
1.01929
0
LINE
8
BLACK
6
CONTINUOUS
10
0.384217
20
1.01929
11
0.383977
21
1.01956
0
LINE
8
BLACK
6
CONTINUOUS
10
0.383977
20
1.01956
11
0.383039
21
1.02237
0
LINE
8
BLACK
6
CONTINUOUS
10
0.383039
20
1.02237
11
0.383058
21
1.02263
0
LINE
8
BLACK
6
CONTINUOUS
10
0.383058
20
1.02263
11
0.382958
21
1.02287
0
LINE
8
BLACK
6
CONTINUOUS
10
0.382958
20
1.02287
11
0.382958
21
1.02475
0
LINE
8
BLACK
6
CONTINUOUS
10
0.382958
20
1.02475
11
0.383099
21
1.02509
0
LINE
8
BLACK
6
CONTINUOUS
10
0.383099
20
1.02509
11
0.383125
21
1.02545
0
LINE
8
BLACK
6
CONTINUOUS
10
0.383125
20
1.02545
11
0.384062
21
1.02733
0
LINE
8
BLACK
6
CONTINUOUS
10
0.384062
20
1.02733
11
0.384258
21
1.0275
0
LINE
8
BLACK
6
CONTINUOUS
10
0.384258
20
1.0275
11
0.384357
21
1.02774
0
LINE
8
BLACK
6
CONTINUOUS
10
0.384357
20
1.02774
11
0.385294
21
1.02867
0
LINE
8
BLACK
6
CONTINUOUS
10
0.385294
20
1.02867
11
0.385534
21
1.02877
0
LINE
8
BLACK
6
CONTINUOUS
10
0.385534
20
1.02877
11
0.385704
21
1.02897
0
LINE
8
BLACK
6
CONTINUOUS
10
0.385704
20
1.02897
11
0.387578
21
1.02991
0
LINE
8
BLACK
6
CONTINUOUS
10
0.387578
20
1.02991
11
0.387944
21
1.02993
0
LINE
8
BLACK
6
CONTINUOUS
10
0.387944
20
1.02993
11
0.388283
21
1.03007
0
LINE
8
BLACK
6
CONTINUOUS
10
0.388283
20
1.03007
11
0.39297
21
1.03007
0
LINE
8
BLACK
6
CONTINUOUS
10
0.39297
20
1.03007
11
0.393308
21
1.02993
0
LINE
8
BLACK
6
CONTINUOUS
10
0.393308
20
1.02993
11
0.393674
21
1.02991
0
LINE
8
BLACK
6
CONTINUOUS
10
0.393674
20
1.02991
11
0.395549
21
1.02897
0
LINE
8
BLACK
6
CONTINUOUS
10
0.395549
20
1.02897
11
0.395718
21
1.02877
0
LINE
8
BLACK
6
CONTINUOUS
10
0.395718
20
1.02877
11
0.395958
21
1.02867
0
LINE
8
BLACK
6
CONTINUOUS
10
0.395958
20
1.02867
11
0.396895
21
1.02774
0
LINE
8
BLACK
6
CONTINUOUS
10
0.396895
20
1.02774
11
0.397357
21
1.02662
0
LINE
8
BLACK
6
CONTINUOUS
10
0.397357
20
1.02662
11
0.396895
21
1.02551
0
LINE
8
BLACK
6
CONTINUOUS
10
0.396895
20
1.02551
11
0.395782
21
1.02505
0
LINE
8
BLACK
6
CONTINUOUS
10
0.395782
20
1.02505
11
0.394668
21
1.02551
0
LINE
8
BLACK
6
CONTINUOUS
10
0.394668
20
1.02551
11
0.393912
21
1.02626
0
LINE
8
BLACK
6
CONTINUOUS
10
0.393912
20
1.02626
11
0.392598
21
1.02692
0
LINE
8
BLACK
6
CONTINUOUS
10
0.392598
20
1.02692
11
0.388654
21
1.02692
0
LINE
8
BLACK
6
CONTINUOUS
10
0.388654
20
1.02692
11
0.387341
21
1.02626
0
LINE
8
BLACK
6
CONTINUOUS
10
0.387341
20
1.02626
11
0.386765
21
1.02569
0
LINE
8
BLACK
6
CONTINUOUS
10
0.386765
20
1.02569
11
0.386108
21
1.02438
0
LINE
8
BLACK
6
CONTINUOUS
10
0.386108
20
1.02438
11
0.386108
21
1.02313
0
LINE
8
BLACK
6
CONTINUOUS
10
0.386108
20
1.02313
11
0.386847
21
1.02091
0
LINE
8
BLACK
6
CONTINUOUS
10
0.386847
20
1.02091
11
0.397833
21
1.00992
0
LINE
8
BLACK
6
CONTINUOUS
10
0.397833
20
1.00992
11
0.398294
21
1.00881
0
LINE
8
BLACK
6
CONTINUOUS
10
0.398294
20
1.00881
11
0.397833
21
1.0077
0
LINE
8
BLACK
6
CONTINUOUS
10
0.397833
20
1.0077
11
0.396719
21
1.00724
0
LINE
8
BLACK
6
CONTINUOUS
10
0.396719
20
1.00724
11
0.384533
21
1.00724
0
LINE
8
BLACK
6
CONTINUOUS
10
0.384533
20
1.00724
11
0.38342
21
1.0077
  0
ENDSEC
  0
EOF
