  0
SECTION
  2
HEADER
  9
$ANGBASE
  50
0.0
  9
$ANGDIR
  70
1
  9
$MEASUREMENT
  70
0
  0
ENDSEC
  0
SECTION
  2
TABLES
  0
TABLE
  2
LTYPE
  70
4
  0
LTYPE
  5
40F
  2
CONTINUOUS
  70
0
  3
Solid line
  72
65
  73
0
  40
0.0
  0
LTYPE
  5
410
  2
DASHDOT
 70
0
  3
Dash Dot ____ _ ____ _
 72
65
 73
4
 40
2.0
 49
1.25
 49
-0.25
 49
0.25
 49
-0.25
  0
LTYPE
  5
411
  2
DASHED
 70
0
  3
Dashed __ __ __ __ __
 72
65
 73
2
 40
0.75
 49
0.5
 49
-0.25
  0
LTYPE
  5
43B
  2
DOTTED
 70
0
  3
Dotted .  .  .  .
 72
65
 73
2
 40
0.2
 49
0.0
 49
-0.2
  0
ENDTAB
  0
TABLE
  2
STYLE
  70
4
  0
STYLE
  2
KICAD
  70
0
  40
0
  41
1
  42
1
  50
0
  71
0
  3
isocp.shx
  0
STYLE
  2
KICADB
  70
0
  40
0
  41
1
  42
1
  50
0
  71
0
  3
isocp.shx
  0
STYLE
  2
KICADI
  70
0
  40
0
  41
1
  42
1
  50
15
  71
0
  3
isocp.shx
  0
STYLE
  2
KICADBI
  70
0
  40
0
  41
1
  42
1
  50
15
  71
0
  3
isocp.shx
  0
ENDTAB
  0
TABLE
  2
LAYER
  70
1
  0
LAYER
  2
BLACK
  70
0
  62
7
  6
CONTINUOUS
  0
ENDTAB
  0
ENDSEC
  0
SECTION
  2
ENTITIES
0
LINE
8
BLACK
6
CONTINUOUS
10
0.42051
20
0.516316
11
0.433874
21
0.513148
0
LINE
8
BLACK
6
CONTINUOUS
10
0.433874
20
0.513148
11
0.446781
21
0.508451
0
LINE
8
BLACK
6
CONTINUOUS
10
0.446781
20
0.508451
11
0.459055
21
0.502286
0
LINE
8
BLACK
6
CONTINUOUS
10
0.459055
20
0.502286
11
0.470531
21
0.494739
0
LINE
8
BLACK
6
CONTINUOUS
10
0.470531
20
0.494739
11
0.481052
21
0.48591
0
LINE
8
BLACK
6
CONTINUOUS
10
0.481052
20
0.48591
11
0.490478
21
0.47592
0
LINE
8
BLACK
6
CONTINUOUS
10
0.490478
20
0.47592
11
0.49868
21
0.464903
0
LINE
8
BLACK
6
CONTINUOUS
10
0.49868
20
0.464903
11
0.505547
21
0.453008
0
LINE
8
BLACK
6
CONTINUOUS
10
0.505547
20
0.453008
11
0.510987
21
0.440396
0
LINE
8
BLACK
6
CONTINUOUS
10
0.510987
20
0.440396
11
0.514927
21
0.427238
0
LINE
8
BLACK
6
CONTINUOUS
10
0.514927
20
0.427238
11
0.517312
21
0.413712
0
LINE
8
BLACK
6
CONTINUOUS
10
0.517312
20
0.413712
11
0.51811
21
0.4
0
LINE
8
BLACK
6
CONTINUOUS
10
0.51811
20
0.4
11
0.517312
21
0.386288
0
LINE
8
BLACK
6
CONTINUOUS
10
0.517312
20
0.386288
11
0.514927
21
0.372762
0
LINE
8
BLACK
6
CONTINUOUS
10
0.514927
20
0.372762
11
0.510987
21
0.359604
0
LINE
8
BLACK
6
CONTINUOUS
10
0.510987
20
0.359604
11
0.505547
21
0.346992
0
LINE
8
BLACK
6
CONTINUOUS
10
0.505547
20
0.346992
11
0.49868
21
0.335097
0
LINE
8
BLACK
6
CONTINUOUS
10
0.49868
20
0.335097
11
0.490478
21
0.32408
0
LINE
8
BLACK
6
CONTINUOUS
10
0.490478
20
0.32408
11
0.481052
21
0.31409
0
LINE
8
BLACK
6
CONTINUOUS
10
0.481052
20
0.31409
11
0.470531
21
0.305261
0
LINE
8
BLACK
6
CONTINUOUS
10
0.470531
20
0.305261
11
0.459055
21
0.297714
0
LINE
8
BLACK
6
CONTINUOUS
10
0.459055
20
0.297714
11
0.446781
21
0.291549
0
LINE
8
BLACK
6
CONTINUOUS
10
0.446781
20
0.291549
11
0.433874
21
0.286852
0
LINE
8
BLACK
6
CONTINUOUS
10
0.433874
20
0.286852
11
0.42051
21
0.283684
0
LINE
8
BLACK
6
CONTINUOUS
10
0.42051
20
0.283684
11
0.406867
21
0.28209
0
LINE
8
BLACK
6
CONTINUOUS
10
0.406867
20
0.28209
11
0.393133
21
0.28209
0
LINE
8
BLACK
6
CONTINUOUS
10
0.393133
20
0.28209
11
0.37949
21
0.283684
0
LINE
8
BLACK
6
CONTINUOUS
10
0.37949
20
0.283684
11
0.366126
21
0.286852
0
LINE
8
BLACK
6
CONTINUOUS
10
0.366126
20
0.286852
11
0.353219
21
0.291549
0
LINE
8
BLACK
6
CONTINUOUS
10
0.353219
20
0.291549
11
0.340945
21
0.297714
0
LINE
8
BLACK
6
CONTINUOUS
10
0.340945
20
0.297714
11
0.329469
21
0.305261
0
LINE
8
BLACK
6
CONTINUOUS
10
0.329469
20
0.305261
11
0.318948
21
0.31409
0
LINE
8
BLACK
6
CONTINUOUS
10
0.318948
20
0.31409
11
0.309522
21
0.32408
0
LINE
8
BLACK
6
CONTINUOUS
10
0.309522
20
0.32408
11
0.30132
21
0.335097
0
LINE
8
BLACK
6
CONTINUOUS
10
0.30132
20
0.335097
11
0.294453
21
0.346992
0
LINE
8
BLACK
6
CONTINUOUS
10
0.294453
20
0.346992
11
0.289013
21
0.359604
0
LINE
8
BLACK
6
CONTINUOUS
10
0.289013
20
0.359604
11
0.285073
21
0.372762
0
LINE
8
BLACK
6
CONTINUOUS
10
0.285073
20
0.372762
11
0.282688
21
0.386288
0
LINE
8
BLACK
6
CONTINUOUS
10
0.282688
20
0.386288
11
0.28189
21
0.4
0
LINE
8
BLACK
6
CONTINUOUS
10
0.28189
20
0.4
11
0.282688
21
0.413712
0
LINE
8
BLACK
6
CONTINUOUS
10
0.282688
20
0.413712
11
0.285073
21
0.427238
0
LINE
8
BLACK
6
CONTINUOUS
10
0.285073
20
0.427238
11
0.289013
21
0.440396
0
LINE
8
BLACK
6
CONTINUOUS
10
0.289013
20
0.440396
11
0.294453
21
0.453008
0
LINE
8
BLACK
6
CONTINUOUS
10
0.294453
20
0.453008
11
0.30132
21
0.464903
0
LINE
8
BLACK
6
CONTINUOUS
10
0.30132
20
0.464903
11
0.309522
21
0.47592
0
LINE
8
BLACK
6
CONTINUOUS
10
0.309522
20
0.47592
11
0.318948
21
0.48591
0
LINE
8
BLACK
6
CONTINUOUS
10
0.318948
20
0.48591
11
0.329469
21
0.494739
0
LINE
8
BLACK
6
CONTINUOUS
10
0.329469
20
0.494739
11
0.340945
21
0.502286
0
LINE
8
BLACK
6
CONTINUOUS
10
0.340945
20
0.502286
11
0.353219
21
0.508451
0
LINE
8
BLACK
6
CONTINUOUS
10
0.353219
20
0.508451
11
0.366126
21
0.513148
0
LINE
8
BLACK
6
CONTINUOUS
10
0.366126
20
0.513148
11
0.37949
21
0.516316
0
LINE
8
BLACK
6
CONTINUOUS
10
0.37949
20
0.516316
11
0.393133
21
0.51791
0
LINE
8
BLACK
6
CONTINUOUS
10
0.393133
20
0.51791
11
0.406867
21
0.51791
0
LINE
8
BLACK
6
CONTINUOUS
10
0.406867
20
0.51791
11
0.42051
21
0.516316
0
LINE
8
BLACK
6
CONTINUOUS
10
2.82051
20
0.516316
11
2.83387
21
0.513148
0
LINE
8
BLACK
6
CONTINUOUS
10
2.83387
20
0.513148
11
2.84678
21
0.508451
0
LINE
8
BLACK
6
CONTINUOUS
10
2.84678
20
0.508451
11
2.85906
21
0.502286
0
LINE
8
BLACK
6
CONTINUOUS
10
2.85906
20
0.502286
11
2.87053
21
0.494739
0
LINE
8
BLACK
6
CONTINUOUS
10
2.87053
20
0.494739
11
2.88105
21
0.48591
0
LINE
8
BLACK
6
CONTINUOUS
10
2.88105
20
0.48591
11
2.89048
21
0.47592
0
LINE
8
BLACK
6
CONTINUOUS
10
2.89048
20
0.47592
11
2.89868
21
0.464903
0
LINE
8
BLACK
6
CONTINUOUS
10
2.89868
20
0.464903
11
2.90555
21
0.453008
0
LINE
8
BLACK
6
CONTINUOUS
10
2.90555
20
0.453008
11
2.91099
21
0.440396
0
LINE
8
BLACK
6
CONTINUOUS
10
2.91099
20
0.440396
11
2.91493
21
0.427238
0
LINE
8
BLACK
6
CONTINUOUS
10
2.91493
20
0.427238
11
2.91731
21
0.413712
0
LINE
8
BLACK
6
CONTINUOUS
10
2.91731
20
0.413712
11
2.91811
21
0.4
0
LINE
8
BLACK
6
CONTINUOUS
10
2.91811
20
0.4
11
2.91731
21
0.386288
0
LINE
8
BLACK
6
CONTINUOUS
10
2.91731
20
0.386288
11
2.91493
21
0.372762
0
LINE
8
BLACK
6
CONTINUOUS
10
2.91493
20
0.372762
11
2.91099
21
0.359604
0
LINE
8
BLACK
6
CONTINUOUS
10
2.91099
20
0.359604
11
2.90555
21
0.346992
0
LINE
8
BLACK
6
CONTINUOUS
10
2.90555
20
0.346992
11
2.89868
21
0.335097
0
LINE
8
BLACK
6
CONTINUOUS
10
2.89868
20
0.335097
11
2.89048
21
0.32408
0
LINE
8
BLACK
6
CONTINUOUS
10
2.89048
20
0.32408
11
2.88105
21
0.31409
0
LINE
8
BLACK
6
CONTINUOUS
10
2.88105
20
0.31409
11
2.87053
21
0.305261
0
LINE
8
BLACK
6
CONTINUOUS
10
2.87053
20
0.305261
11
2.85906
21
0.297714
0
LINE
8
BLACK
6
CONTINUOUS
10
2.85906
20
0.297714
11
2.84678
21
0.291549
0
LINE
8
BLACK
6
CONTINUOUS
10
2.84678
20
0.291549
11
2.83387
21
0.286852
0
LINE
8
BLACK
6
CONTINUOUS
10
2.83387
20
0.286852
11
2.82051
21
0.283684
0
LINE
8
BLACK
6
CONTINUOUS
10
2.82051
20
0.283684
11
2.80687
21
0.28209
0
LINE
8
BLACK
6
CONTINUOUS
10
2.80687
20
0.28209
11
2.79313
21
0.28209
0
LINE
8
BLACK
6
CONTINUOUS
10
2.79313
20
0.28209
11
2.77949
21
0.283684
0
LINE
8
BLACK
6
CONTINUOUS
10
2.77949
20
0.283684
11
2.76613
21
0.286852
0
LINE
8
BLACK
6
CONTINUOUS
10
2.76613
20
0.286852
11
2.75322
21
0.291549
0
LINE
8
BLACK
6
CONTINUOUS
10
2.75322
20
0.291549
11
2.74094
21
0.297714
0
LINE
8
BLACK
6
CONTINUOUS
10
2.74094
20
0.297714
11
2.72947
21
0.305261
0
LINE
8
BLACK
6
CONTINUOUS
10
2.72947
20
0.305261
11
2.71895
21
0.31409
0
LINE
8
BLACK
6
CONTINUOUS
10
2.71895
20
0.31409
11
2.70952
21
0.32408
0
LINE
8
BLACK
6
CONTINUOUS
10
2.70952
20
0.32408
11
2.70132
21
0.335097
0
LINE
8
BLACK
6
CONTINUOUS
10
2.70132
20
0.335097
11
2.69445
21
0.346992
0
LINE
8
BLACK
6
CONTINUOUS
10
2.69445
20
0.346992
11
2.68901
21
0.359604
0
LINE
8
BLACK
6
CONTINUOUS
10
2.68901
20
0.359604
11
2.68507
21
0.372762
0
LINE
8
BLACK
6
CONTINUOUS
10
2.68507
20
0.372762
11
2.68269
21
0.386288
0
LINE
8
BLACK
6
CONTINUOUS
10
2.68269
20
0.386288
11
2.68189
21
0.4
0
LINE
8
BLACK
6
CONTINUOUS
10
2.68189
20
0.4
11
2.68269
21
0.413712
0
LINE
8
BLACK
6
CONTINUOUS
10
2.68269
20
0.413712
11
2.68507
21
0.427238
0
LINE
8
BLACK
6
CONTINUOUS
10
2.68507
20
0.427238
11
2.68901
21
0.440396
0
LINE
8
BLACK
6
CONTINUOUS
10
2.68901
20
0.440396
11
2.69445
21
0.453008
0
LINE
8
BLACK
6
CONTINUOUS
10
2.69445
20
0.453008
11
2.70132
21
0.464903
0
LINE
8
BLACK
6
CONTINUOUS
10
2.70132
20
0.464903
11
2.70952
21
0.47592
0
LINE
8
BLACK
6
CONTINUOUS
10
2.70952
20
0.47592
11
2.71895
21
0.48591
0
LINE
8
BLACK
6
CONTINUOUS
10
2.71895
20
0.48591
11
2.72947
21
0.494739
0
LINE
8
BLACK
6
CONTINUOUS
10
2.72947
20
0.494739
11
2.74094
21
0.502286
0
LINE
8
BLACK
6
CONTINUOUS
10
2.74094
20
0.502286
11
2.75322
21
0.508451
0
LINE
8
BLACK
6
CONTINUOUS
10
2.75322
20
0.508451
11
2.76613
21
0.513148
0
LINE
8
BLACK
6
CONTINUOUS
10
2.76613
20
0.513148
11
2.77949
21
0.516316
0
LINE
8
BLACK
6
CONTINUOUS
10
2.77949
20
0.516316
11
2.79313
21
0.51791
0
LINE
8
BLACK
6
CONTINUOUS
10
2.79313
20
0.51791
11
2.80687
21
0.51791
0
LINE
8
BLACK
6
CONTINUOUS
10
2.80687
20
0.51791
11
2.82051
21
0.516316
0
LINE
8
BLACK
6
CONTINUOUS
10
0.887326
20
0.554444
11
0.896109
21
0.55209
0
LINE
8
BLACK
6
CONTINUOUS
10
0.896109
20
0.55209
11
0.90435
21
0.548247
0
LINE
8
BLACK
6
CONTINUOUS
10
0.90435
20
0.548247
11
0.911799
21
0.543032
0
LINE
8
BLACK
6
CONTINUOUS
10
0.911799
20
0.543032
11
0.918229
21
0.536602
0
LINE
8
BLACK
6
CONTINUOUS
10
0.918229
20
0.536602
11
0.923444
21
0.529154
0
LINE
8
BLACK
6
CONTINUOUS
10
0.923444
20
0.529154
11
0.927287
21
0.520912
0
LINE
8
BLACK
6
CONTINUOUS
10
0.927287
20
0.520912
11
0.929641
21
0.512129
0
LINE
8
BLACK
6
CONTINUOUS
10
0.929641
20
0.512129
11
0.930433
21
0.503071
0
LINE
8
BLACK
6
CONTINUOUS
10
0.930433
20
0.503071
11
0.929641
21
0.494012
0
LINE
8
BLACK
6
CONTINUOUS
10
0.929641
20
0.494012
11
0.927287
21
0.485229
0
LINE
8
BLACK
6
CONTINUOUS
10
0.927287
20
0.485229
11
0.923444
21
0.476988
0
LINE
8
BLACK
6
CONTINUOUS
10
0.923444
20
0.476988
11
0.918229
21
0.46954
0
LINE
8
BLACK
6
CONTINUOUS
10
0.918229
20
0.46954
11
0.911799
21
0.46311
0
LINE
8
BLACK
6
CONTINUOUS
10
0.911799
20
0.46311
11
0.90435
21
0.457894
0
LINE
8
BLACK
6
CONTINUOUS
10
0.90435
20
0.457894
11
0.896109
21
0.454051
0
LINE
8
BLACK
6
CONTINUOUS
10
0.896109
20
0.454051
11
0.887326
21
0.451698
0
LINE
8
BLACK
6
CONTINUOUS
10
0.887326
20
0.451698
11
0.878268
21
0.450906
0
LINE
8
BLACK
6
CONTINUOUS
10
0.878268
20
0.450906
11
0.869209
21
0.451698
0
LINE
8
BLACK
6
CONTINUOUS
10
0.869209
20
0.451698
11
0.860426
21
0.454051
0
LINE
8
BLACK
6
CONTINUOUS
10
0.860426
20
0.454051
11
0.852185
21
0.457894
0
LINE
8
BLACK
6
CONTINUOUS
10
0.852185
20
0.457894
11
0.844736
21
0.46311
0
LINE
8
BLACK
6
CONTINUOUS
10
0.844736
20
0.46311
11
0.838307
21
0.46954
0
LINE
8
BLACK
6
CONTINUOUS
10
0.838307
20
0.46954
11
0.833091
21
0.476988
0
LINE
8
BLACK
6
CONTINUOUS
10
0.833091
20
0.476988
11
0.829248
21
0.485229
0
LINE
8
BLACK
6
CONTINUOUS
10
0.829248
20
0.485229
11
0.826895
21
0.494012
0
LINE
8
BLACK
6
CONTINUOUS
10
0.826895
20
0.494012
11
0.826102
21
0.503071
0
LINE
8
BLACK
6
CONTINUOUS
10
0.826102
20
0.503071
11
0.826895
21
0.512129
0
LINE
8
BLACK
6
CONTINUOUS
10
0.826895
20
0.512129
11
0.829248
21
0.520912
0
LINE
8
BLACK
6
CONTINUOUS
10
0.829248
20
0.520912
11
0.833091
21
0.529154
0
LINE
8
BLACK
6
CONTINUOUS
10
0.833091
20
0.529154
11
0.838307
21
0.536602
0
LINE
8
BLACK
6
CONTINUOUS
10
0.838307
20
0.536602
11
0.844736
21
0.543032
0
LINE
8
BLACK
6
CONTINUOUS
10
0.844736
20
0.543032
11
0.852185
21
0.548247
0
LINE
8
BLACK
6
CONTINUOUS
10
0.852185
20
0.548247
11
0.860426
21
0.55209
0
LINE
8
BLACK
6
CONTINUOUS
10
0.860426
20
0.55209
11
0.869209
21
0.554444
0
LINE
8
BLACK
6
CONTINUOUS
10
0.869209
20
0.554444
11
0.878268
21
0.555236
0
LINE
8
BLACK
6
CONTINUOUS
10
0.878268
20
0.555236
11
0.887326
21
0.554444
0
LINE
8
BLACK
6
CONTINUOUS
10
1.27079
20
0.554444
11
1.27957
21
0.55209
0
LINE
8
BLACK
6
CONTINUOUS
10
1.27957
20
0.55209
11
1.28781
21
0.548247
0
LINE
8
BLACK
6
CONTINUOUS
10
1.28781
20
0.548247
11
1.29526
21
0.543032
0
LINE
8
BLACK
6
CONTINUOUS
10
1.29526
20
0.543032
11
1.30169
21
0.536602
0
LINE
8
BLACK
6
CONTINUOUS
10
1.30169
20
0.536602
11
1.30691
21
0.529154
0
LINE
8
BLACK
6
CONTINUOUS
10
1.30691
20
0.529154
11
1.31075
21
0.520912
0
LINE
8
BLACK
6
CONTINUOUS
10
1.31075
20
0.520912
11
1.31311
21
0.512129
0
LINE
8
BLACK
6
CONTINUOUS
10
1.31311
20
0.512129
11
1.3139
21
0.503071
0
LINE
8
BLACK
6
CONTINUOUS
10
1.3139
20
0.503071
11
1.31311
21
0.494012
0
LINE
8
BLACK
6
CONTINUOUS
10
1.31311
20
0.494012
11
1.31075
21
0.485229
0
LINE
8
BLACK
6
CONTINUOUS
10
1.31075
20
0.485229
11
1.30691
21
0.476988
0
LINE
8
BLACK
6
CONTINUOUS
10
1.30691
20
0.476988
11
1.30169
21
0.46954
0
LINE
8
BLACK
6
CONTINUOUS
10
1.30169
20
0.46954
11
1.29526
21
0.46311
0
LINE
8
BLACK
6
CONTINUOUS
10
1.29526
20
0.46311
11
1.28781
21
0.457894
0
LINE
8
BLACK
6
CONTINUOUS
10
1.28781
20
0.457894
11
1.27957
21
0.454051
0
LINE
8
BLACK
6
CONTINUOUS
10
1.27957
20
0.454051
11
1.27079
21
0.451698
0
LINE
8
BLACK
6
CONTINUOUS
10
1.27079
20
0.451698
11
1.26173
21
0.450906
0
LINE
8
BLACK
6
CONTINUOUS
10
1.26173
20
0.450906
11
1.25267
21
0.451698
0
LINE
8
BLACK
6
CONTINUOUS
10
1.25267
20
0.451698
11
1.24389
21
0.454051
0
LINE
8
BLACK
6
CONTINUOUS
10
1.24389
20
0.454051
11
1.23565
21
0.457894
0
LINE
8
BLACK
6
CONTINUOUS
10
1.23565
20
0.457894
11
1.2282
21
0.46311
0
LINE
8
BLACK
6
CONTINUOUS
10
1.2282
20
0.46311
11
1.22177
21
0.46954
0
LINE
8
BLACK
6
CONTINUOUS
10
1.22177
20
0.46954
11
1.21656
21
0.476988
0
LINE
8
BLACK
6
CONTINUOUS
10
1.21656
20
0.476988
11
1.21271
21
0.485229
0
LINE
8
BLACK
6
CONTINUOUS
10
1.21271
20
0.485229
11
1.21036
21
0.494012
0
LINE
8
BLACK
6
CONTINUOUS
10
1.21036
20
0.494012
11
1.20957
21
0.503071
0
LINE
8
BLACK
6
CONTINUOUS
10
1.20957
20
0.503071
11
1.21036
21
0.512129
0
LINE
8
BLACK
6
CONTINUOUS
10
1.21036
20
0.512129
11
1.21271
21
0.520912
0
LINE
8
BLACK
6
CONTINUOUS
10
1.21271
20
0.520912
11
1.21656
21
0.529154
0
LINE
8
BLACK
6
CONTINUOUS
10
1.21656
20
0.529154
11
1.22177
21
0.536602
0
LINE
8
BLACK
6
CONTINUOUS
10
1.22177
20
0.536602
11
1.2282
21
0.543032
0
LINE
8
BLACK
6
CONTINUOUS
10
1.2282
20
0.543032
11
1.23565
21
0.548247
0
LINE
8
BLACK
6
CONTINUOUS
10
1.23565
20
0.548247
11
1.24389
21
0.55209
0
LINE
8
BLACK
6
CONTINUOUS
10
1.24389
20
0.55209
11
1.25267
21
0.554444
0
LINE
8
BLACK
6
CONTINUOUS
10
1.25267
20
0.554444
11
1.26173
21
0.555236
0
LINE
8
BLACK
6
CONTINUOUS
10
1.26173
20
0.555236
11
1.27079
21
0.554444
0
LINE
8
BLACK
6
CONTINUOUS
10
1.60733
20
0.554444
11
1.61611
21
0.55209
0
LINE
8
BLACK
6
CONTINUOUS
10
1.61611
20
0.55209
11
1.62435
21
0.548247
0
LINE
8
BLACK
6
CONTINUOUS
10
1.62435
20
0.548247
11
1.6318
21
0.543032
0
LINE
8
BLACK
6
CONTINUOUS
10
1.6318
20
0.543032
11
1.63823
21
0.536602
0
LINE
8
BLACK
6
CONTINUOUS
10
1.63823
20
0.536602
11
1.64344
21
0.529154
0
LINE
8
BLACK
6
CONTINUOUS
10
1.64344
20
0.529154
11
1.64729
21
0.520912
0
LINE
8
BLACK
6
CONTINUOUS
10
1.64729
20
0.520912
11
1.64964
21
0.512129
0
LINE
8
BLACK
6
CONTINUOUS
10
1.64964
20
0.512129
11
1.65043
21
0.503071
0
LINE
8
BLACK
6
CONTINUOUS
10
1.65043
20
0.503071
11
1.64964
21
0.494012
0
LINE
8
BLACK
6
CONTINUOUS
10
1.64964
20
0.494012
11
1.64729
21
0.485229
0
LINE
8
BLACK
6
CONTINUOUS
10
1.64729
20
0.485229
11
1.64344
21
0.476988
0
LINE
8
BLACK
6
CONTINUOUS
10
1.64344
20
0.476988
11
1.63823
21
0.46954
0
LINE
8
BLACK
6
CONTINUOUS
10
1.63823
20
0.46954
11
1.6318
21
0.46311
0
LINE
8
BLACK
6
CONTINUOUS
10
1.6318
20
0.46311
11
1.62435
21
0.457894
0
LINE
8
BLACK
6
CONTINUOUS
10
1.62435
20
0.457894
11
1.61611
21
0.454051
0
LINE
8
BLACK
6
CONTINUOUS
10
1.61611
20
0.454051
11
1.60733
21
0.451698
0
LINE
8
BLACK
6
CONTINUOUS
10
1.60733
20
0.451698
11
1.59827
21
0.450906
0
LINE
8
BLACK
6
CONTINUOUS
10
1.59827
20
0.450906
11
1.58921
21
0.451698
0
LINE
8
BLACK
6
CONTINUOUS
10
1.58921
20
0.451698
11
1.58043
21
0.454051
0
LINE
8
BLACK
6
CONTINUOUS
10
1.58043
20
0.454051
11
1.57219
21
0.457894
0
LINE
8
BLACK
6
CONTINUOUS
10
1.57219
20
0.457894
11
1.56474
21
0.46311
0
LINE
8
BLACK
6
CONTINUOUS
10
1.56474
20
0.46311
11
1.55831
21
0.46954
0
LINE
8
BLACK
6
CONTINUOUS
10
1.55831
20
0.46954
11
1.55309
21
0.476988
0
LINE
8
BLACK
6
CONTINUOUS
10
1.55309
20
0.476988
11
1.54925
21
0.485229
0
LINE
8
BLACK
6
CONTINUOUS
10
1.54925
20
0.485229
11
1.54689
21
0.494012
0
LINE
8
BLACK
6
CONTINUOUS
10
1.54689
20
0.494012
11
1.5461
21
0.503071
0
LINE
8
BLACK
6
CONTINUOUS
10
1.5461
20
0.503071
11
1.54689
21
0.512129
0
LINE
8
BLACK
6
CONTINUOUS
10
1.54689
20
0.512129
11
1.54925
21
0.520912
0
LINE
8
BLACK
6
CONTINUOUS
10
1.54925
20
0.520912
11
1.55309
21
0.529154
0
LINE
8
BLACK
6
CONTINUOUS
10
1.55309
20
0.529154
11
1.55831
21
0.536602
0
LINE
8
BLACK
6
CONTINUOUS
10
1.55831
20
0.536602
11
1.56474
21
0.543032
0
LINE
8
BLACK
6
CONTINUOUS
10
1.56474
20
0.543032
11
1.57219
21
0.548247
0
LINE
8
BLACK
6
CONTINUOUS
10
1.57219
20
0.548247
11
1.58043
21
0.55209
0
LINE
8
BLACK
6
CONTINUOUS
10
1.58043
20
0.55209
11
1.58921
21
0.554444
0
LINE
8
BLACK
6
CONTINUOUS
10
1.58921
20
0.554444
11
1.59827
21
0.555236
0
LINE
8
BLACK
6
CONTINUOUS
10
1.59827
20
0.555236
11
1.60733
21
0.554444
0
LINE
8
BLACK
6
CONTINUOUS
10
1.99079
20
0.554444
11
1.99957
21
0.55209
0
LINE
8
BLACK
6
CONTINUOUS
10
1.99957
20
0.55209
11
2.00781
21
0.548247
0
LINE
8
BLACK
6
CONTINUOUS
10
2.00781
20
0.548247
11
2.01526
21
0.543032
0
LINE
8
BLACK
6
CONTINUOUS
10
2.01526
20
0.543032
11
2.02169
21
0.536602
0
LINE
8
BLACK
6
CONTINUOUS
10
2.02169
20
0.536602
11
2.02691
21
0.529154
0
LINE
8
BLACK
6
CONTINUOUS
10
2.02691
20
0.529154
11
2.03075
21
0.520912
0
LINE
8
BLACK
6
CONTINUOUS
10
2.03075
20
0.520912
11
2.03311
21
0.512129
0
LINE
8
BLACK
6
CONTINUOUS
10
2.03311
20
0.512129
11
2.0339
21
0.503071
0
LINE
8
BLACK
6
CONTINUOUS
10
2.0339
20
0.503071
11
2.03311
21
0.494012
0
LINE
8
BLACK
6
CONTINUOUS
10
2.03311
20
0.494012
11
2.03075
21
0.485229
0
LINE
8
BLACK
6
CONTINUOUS
10
2.03075
20
0.485229
11
2.02691
21
0.476988
0
LINE
8
BLACK
6
CONTINUOUS
10
2.02691
20
0.476988
11
2.02169
21
0.46954
0
LINE
8
BLACK
6
CONTINUOUS
10
2.02169
20
0.46954
11
2.01526
21
0.46311
0
LINE
8
BLACK
6
CONTINUOUS
10
2.01526
20
0.46311
11
2.00781
21
0.457894
0
LINE
8
BLACK
6
CONTINUOUS
10
2.00781
20
0.457894
11
1.99957
21
0.454051
0
LINE
8
BLACK
6
CONTINUOUS
10
1.99957
20
0.454051
11
1.99079
21
0.451698
0
LINE
8
BLACK
6
CONTINUOUS
10
1.99079
20
0.451698
11
1.98173
21
0.450906
0
LINE
8
BLACK
6
CONTINUOUS
10
1.98173
20
0.450906
11
1.97267
21
0.451698
0
LINE
8
BLACK
6
CONTINUOUS
10
1.97267
20
0.451698
11
1.96389
21
0.454051
0
LINE
8
BLACK
6
CONTINUOUS
10
1.96389
20
0.454051
11
1.95565
21
0.457894
0
LINE
8
BLACK
6
CONTINUOUS
10
1.95565
20
0.457894
11
1.9482
21
0.46311
0
LINE
8
BLACK
6
CONTINUOUS
10
1.9482
20
0.46311
11
1.94177
21
0.46954
0
LINE
8
BLACK
6
CONTINUOUS
10
1.94177
20
0.46954
11
1.93656
21
0.476988
0
LINE
8
BLACK
6
CONTINUOUS
10
1.93656
20
0.476988
11
1.93271
21
0.485229
0
LINE
8
BLACK
6
CONTINUOUS
10
1.93271
20
0.485229
11
1.93036
21
0.494012
0
LINE
8
BLACK
6
CONTINUOUS
10
1.93036
20
0.494012
11
1.92957
21
0.503071
0
LINE
8
BLACK
6
CONTINUOUS
10
1.92957
20
0.503071
11
1.93036
21
0.512129
0
LINE
8
BLACK
6
CONTINUOUS
10
1.93036
20
0.512129
11
1.93271
21
0.520912
0
LINE
8
BLACK
6
CONTINUOUS
10
1.93271
20
0.520912
11
1.93656
21
0.529154
0
LINE
8
BLACK
6
CONTINUOUS
10
1.93656
20
0.529154
11
1.94177
21
0.536602
0
LINE
8
BLACK
6
CONTINUOUS
10
1.94177
20
0.536602
11
1.9482
21
0.543032
0
LINE
8
BLACK
6
CONTINUOUS
10
1.9482
20
0.543032
11
1.95565
21
0.548247
0
LINE
8
BLACK
6
CONTINUOUS
10
1.95565
20
0.548247
11
1.96389
21
0.55209
0
LINE
8
BLACK
6
CONTINUOUS
10
1.96389
20
0.55209
11
1.97267
21
0.554444
0
LINE
8
BLACK
6
CONTINUOUS
10
1.97267
20
0.554444
11
1.98173
21
0.555236
0
LINE
8
BLACK
6
CONTINUOUS
10
1.98173
20
0.555236
11
1.99079
21
0.554444
0
LINE
8
BLACK
6
CONTINUOUS
10
0.887326
20
0.688302
11
0.896109
21
0.685949
0
LINE
8
BLACK
6
CONTINUOUS
10
0.896109
20
0.685949
11
0.90435
21
0.682106
0
LINE
8
BLACK
6
CONTINUOUS
10
0.90435
20
0.682106
11
0.911799
21
0.67689
0
LINE
8
BLACK
6
CONTINUOUS
10
0.911799
20
0.67689
11
0.918229
21
0.67046
0
LINE
8
BLACK
6
CONTINUOUS
10
0.918229
20
0.67046
11
0.923444
21
0.663012
0
LINE
8
BLACK
6
CONTINUOUS
10
0.923444
20
0.663012
11
0.927287
21
0.654771
0
LINE
8
BLACK
6
CONTINUOUS
10
0.927287
20
0.654771
11
0.929641
21
0.645988
0
LINE
8
BLACK
6
CONTINUOUS
10
0.929641
20
0.645988
11
0.930433
21
0.636929
0
LINE
8
BLACK
6
CONTINUOUS
10
0.930433
20
0.636929
11
0.929641
21
0.627871
0
LINE
8
BLACK
6
CONTINUOUS
10
0.929641
20
0.627871
11
0.927287
21
0.619088
0
LINE
8
BLACK
6
CONTINUOUS
10
0.927287
20
0.619088
11
0.923444
21
0.610846
0
LINE
8
BLACK
6
CONTINUOUS
10
0.923444
20
0.610846
11
0.918229
21
0.603398
0
LINE
8
BLACK
6
CONTINUOUS
10
0.918229
20
0.603398
11
0.911799
21
0.596968
0
LINE
8
BLACK
6
CONTINUOUS
10
0.911799
20
0.596968
11
0.90435
21
0.591753
0
LINE
8
BLACK
6
CONTINUOUS
10
0.90435
20
0.591753
11
0.896109
21
0.58791
0
LINE
8
BLACK
6
CONTINUOUS
10
0.896109
20
0.58791
11
0.887326
21
0.585556
0
LINE
8
BLACK
6
CONTINUOUS
10
0.887326
20
0.585556
11
0.878268
21
0.584764
0
LINE
8
BLACK
6
CONTINUOUS
10
0.878268
20
0.584764
11
0.869209
21
0.585556
0
LINE
8
BLACK
6
CONTINUOUS
10
0.869209
20
0.585556
11
0.860426
21
0.58791
0
LINE
8
BLACK
6
CONTINUOUS
10
0.860426
20
0.58791
11
0.852185
21
0.591753
0
LINE
8
BLACK
6
CONTINUOUS
10
0.852185
20
0.591753
11
0.844736
21
0.596968
0
LINE
8
BLACK
6
CONTINUOUS
10
0.844736
20
0.596968
11
0.838307
21
0.603398
0
LINE
8
BLACK
6
CONTINUOUS
10
0.838307
20
0.603398
11
0.833091
21
0.610846
0
LINE
8
BLACK
6
CONTINUOUS
10
0.833091
20
0.610846
11
0.829248
21
0.619088
0
LINE
8
BLACK
6
CONTINUOUS
10
0.829248
20
0.619088
11
0.826895
21
0.627871
0
LINE
8
BLACK
6
CONTINUOUS
10
0.826895
20
0.627871
11
0.826102
21
0.636929
0
LINE
8
BLACK
6
CONTINUOUS
10
0.826102
20
0.636929
11
0.826895
21
0.645988
0
LINE
8
BLACK
6
CONTINUOUS
10
0.826895
20
0.645988
11
0.829248
21
0.654771
0
LINE
8
BLACK
6
CONTINUOUS
10
0.829248
20
0.654771
11
0.833091
21
0.663012
0
LINE
8
BLACK
6
CONTINUOUS
10
0.833091
20
0.663012
11
0.838307
21
0.67046
0
LINE
8
BLACK
6
CONTINUOUS
10
0.838307
20
0.67046
11
0.844736
21
0.67689
0
LINE
8
BLACK
6
CONTINUOUS
10
0.844736
20
0.67689
11
0.852185
21
0.682106
0
LINE
8
BLACK
6
CONTINUOUS
10
0.852185
20
0.682106
11
0.860426
21
0.685949
0
LINE
8
BLACK
6
CONTINUOUS
10
0.860426
20
0.685949
11
0.869209
21
0.688302
0
LINE
8
BLACK
6
CONTINUOUS
10
0.869209
20
0.688302
11
0.878268
21
0.689094
0
LINE
8
BLACK
6
CONTINUOUS
10
0.878268
20
0.689094
11
0.887326
21
0.688302
0
LINE
8
BLACK
6
CONTINUOUS
10
1.27079
20
0.688302
11
1.27957
21
0.685949
0
LINE
8
BLACK
6
CONTINUOUS
10
1.27957
20
0.685949
11
1.28781
21
0.682106
0
LINE
8
BLACK
6
CONTINUOUS
10
1.28781
20
0.682106
11
1.29526
21
0.67689
0
LINE
8
BLACK
6
CONTINUOUS
10
1.29526
20
0.67689
11
1.30169
21
0.67046
0
LINE
8
BLACK
6
CONTINUOUS
10
1.30169
20
0.67046
11
1.30691
21
0.663012
0
LINE
8
BLACK
6
CONTINUOUS
10
1.30691
20
0.663012
11
1.31075
21
0.654771
0
LINE
8
BLACK
6
CONTINUOUS
10
1.31075
20
0.654771
11
1.31311
21
0.645988
0
LINE
8
BLACK
6
CONTINUOUS
10
1.31311
20
0.645988
11
1.3139
21
0.636929
0
LINE
8
BLACK
6
CONTINUOUS
10
1.3139
20
0.636929
11
1.31311
21
0.627871
0
LINE
8
BLACK
6
CONTINUOUS
10
1.31311
20
0.627871
11
1.31075
21
0.619088
0
LINE
8
BLACK
6
CONTINUOUS
10
1.31075
20
0.619088
11
1.30691
21
0.610846
0
LINE
8
BLACK
6
CONTINUOUS
10
1.30691
20
0.610846
11
1.30169
21
0.603398
0
LINE
8
BLACK
6
CONTINUOUS
10
1.30169
20
0.603398
11
1.29526
21
0.596968
0
LINE
8
BLACK
6
CONTINUOUS
10
1.29526
20
0.596968
11
1.28781
21
0.591753
0
LINE
8
BLACK
6
CONTINUOUS
10
1.28781
20
0.591753
11
1.27957
21
0.58791
0
LINE
8
BLACK
6
CONTINUOUS
10
1.27957
20
0.58791
11
1.27079
21
0.585556
0
LINE
8
BLACK
6
CONTINUOUS
10
1.27079
20
0.585556
11
1.26173
21
0.584764
0
LINE
8
BLACK
6
CONTINUOUS
10
1.26173
20
0.584764
11
1.25267
21
0.585556
0
LINE
8
BLACK
6
CONTINUOUS
10
1.25267
20
0.585556
11
1.24389
21
0.58791
0
LINE
8
BLACK
6
CONTINUOUS
10
1.24389
20
0.58791
11
1.23565
21
0.591753
0
LINE
8
BLACK
6
CONTINUOUS
10
1.23565
20
0.591753
11
1.2282
21
0.596968
0
LINE
8
BLACK
6
CONTINUOUS
10
1.2282
20
0.596968
11
1.22177
21
0.603398
0
LINE
8
BLACK
6
CONTINUOUS
10
1.22177
20
0.603398
11
1.21656
21
0.610846
0
LINE
8
BLACK
6
CONTINUOUS
10
1.21656
20
0.610846
11
1.21271
21
0.619088
0
LINE
8
BLACK
6
CONTINUOUS
10
1.21271
20
0.619088
11
1.21036
21
0.627871
0
LINE
8
BLACK
6
CONTINUOUS
10
1.21036
20
0.627871
11
1.20957
21
0.636929
0
LINE
8
BLACK
6
CONTINUOUS
10
1.20957
20
0.636929
11
1.21036
21
0.645988
0
LINE
8
BLACK
6
CONTINUOUS
10
1.21036
20
0.645988
11
1.21271
21
0.654771
0
LINE
8
BLACK
6
CONTINUOUS
10
1.21271
20
0.654771
11
1.21656
21
0.663012
0
LINE
8
BLACK
6
CONTINUOUS
10
1.21656
20
0.663012
11
1.22177
21
0.67046
0
LINE
8
BLACK
6
CONTINUOUS
10
1.22177
20
0.67046
11
1.2282
21
0.67689
0
LINE
8
BLACK
6
CONTINUOUS
10
1.2282
20
0.67689
11
1.23565
21
0.682106
0
LINE
8
BLACK
6
CONTINUOUS
10
1.23565
20
0.682106
11
1.24389
21
0.685949
0
LINE
8
BLACK
6
CONTINUOUS
10
1.24389
20
0.685949
11
1.25267
21
0.688302
0
LINE
8
BLACK
6
CONTINUOUS
10
1.25267
20
0.688302
11
1.26173
21
0.689094
0
LINE
8
BLACK
6
CONTINUOUS
10
1.26173
20
0.689094
11
1.27079
21
0.688302
0
LINE
8
BLACK
6
CONTINUOUS
10
1.60733
20
0.688302
11
1.61611
21
0.685949
0
LINE
8
BLACK
6
CONTINUOUS
10
1.61611
20
0.685949
11
1.62435
21
0.682106
0
LINE
8
BLACK
6
CONTINUOUS
10
1.62435
20
0.682106
11
1.6318
21
0.67689
0
LINE
8
BLACK
6
CONTINUOUS
10
1.6318
20
0.67689
11
1.63823
21
0.67046
0
LINE
8
BLACK
6
CONTINUOUS
10
1.63823
20
0.67046
11
1.64344
21
0.663012
0
LINE
8
BLACK
6
CONTINUOUS
10
1.64344
20
0.663012
11
1.64729
21
0.654771
0
LINE
8
BLACK
6
CONTINUOUS
10
1.64729
20
0.654771
11
1.64964
21
0.645988
0
LINE
8
BLACK
6
CONTINUOUS
10
1.64964
20
0.645988
11
1.65043
21
0.636929
0
LINE
8
BLACK
6
CONTINUOUS
10
1.65043
20
0.636929
11
1.64964
21
0.627871
0
LINE
8
BLACK
6
CONTINUOUS
10
1.64964
20
0.627871
11
1.64729
21
0.619088
0
LINE
8
BLACK
6
CONTINUOUS
10
1.64729
20
0.619088
11
1.64344
21
0.610846
0
LINE
8
BLACK
6
CONTINUOUS
10
1.64344
20
0.610846
11
1.63823
21
0.603398
0
LINE
8
BLACK
6
CONTINUOUS
10
1.63823
20
0.603398
11
1.6318
21
0.596968
0
LINE
8
BLACK
6
CONTINUOUS
10
1.6318
20
0.596968
11
1.62435
21
0.591753
0
LINE
8
BLACK
6
CONTINUOUS
10
1.62435
20
0.591753
11
1.61611
21
0.58791
0
LINE
8
BLACK
6
CONTINUOUS
10
1.61611
20
0.58791
11
1.60733
21
0.585556
0
LINE
8
BLACK
6
CONTINUOUS
10
1.60733
20
0.585556
11
1.59827
21
0.584764
0
LINE
8
BLACK
6
CONTINUOUS
10
1.59827
20
0.584764
11
1.58921
21
0.585556
0
LINE
8
BLACK
6
CONTINUOUS
10
1.58921
20
0.585556
11
1.58043
21
0.58791
0
LINE
8
BLACK
6
CONTINUOUS
10
1.58043
20
0.58791
11
1.57219
21
0.591753
0
LINE
8
BLACK
6
CONTINUOUS
10
1.57219
20
0.591753
11
1.56474
21
0.596968
0
LINE
8
BLACK
6
CONTINUOUS
10
1.56474
20
0.596968
11
1.55831
21
0.603398
0
LINE
8
BLACK
6
CONTINUOUS
10
1.55831
20
0.603398
11
1.55309
21
0.610846
0
LINE
8
BLACK
6
CONTINUOUS
10
1.55309
20
0.610846
11
1.54925
21
0.619088
0
LINE
8
BLACK
6
CONTINUOUS
10
1.54925
20
0.619088
11
1.54689
21
0.627871
0
LINE
8
BLACK
6
CONTINUOUS
10
1.54689
20
0.627871
11
1.5461
21
0.636929
0
LINE
8
BLACK
6
CONTINUOUS
10
1.5461
20
0.636929
11
1.54689
21
0.645988
0
LINE
8
BLACK
6
CONTINUOUS
10
1.54689
20
0.645988
11
1.54925
21
0.654771
0
LINE
8
BLACK
6
CONTINUOUS
10
1.54925
20
0.654771
11
1.55309
21
0.663012
0
LINE
8
BLACK
6
CONTINUOUS
10
1.55309
20
0.663012
11
1.55831
21
0.67046
0
LINE
8
BLACK
6
CONTINUOUS
10
1.55831
20
0.67046
11
1.56474
21
0.67689
0
LINE
8
BLACK
6
CONTINUOUS
10
1.56474
20
0.67689
11
1.57219
21
0.682106
0
LINE
8
BLACK
6
CONTINUOUS
10
1.57219
20
0.682106
11
1.58043
21
0.685949
0
LINE
8
BLACK
6
CONTINUOUS
10
1.58043
20
0.685949
11
1.58921
21
0.688302
0
LINE
8
BLACK
6
CONTINUOUS
10
1.58921
20
0.688302
11
1.59827
21
0.689094
0
LINE
8
BLACK
6
CONTINUOUS
10
1.59827
20
0.689094
11
1.60733
21
0.688302
0
LINE
8
BLACK
6
CONTINUOUS
10
1.99079
20
0.688302
11
1.99957
21
0.685949
0
LINE
8
BLACK
6
CONTINUOUS
10
1.99957
20
0.685949
11
2.00781
21
0.682106
0
LINE
8
BLACK
6
CONTINUOUS
10
2.00781
20
0.682106
11
2.01526
21
0.67689
0
LINE
8
BLACK
6
CONTINUOUS
10
2.01526
20
0.67689
11
2.02169
21
0.67046
0
LINE
8
BLACK
6
CONTINUOUS
10
2.02169
20
0.67046
11
2.02691
21
0.663012
0
LINE
8
BLACK
6
CONTINUOUS
10
2.02691
20
0.663012
11
2.03075
21
0.654771
0
LINE
8
BLACK
6
CONTINUOUS
10
2.03075
20
0.654771
11
2.03311
21
0.645988
0
LINE
8
BLACK
6
CONTINUOUS
10
2.03311
20
0.645988
11
2.0339
21
0.636929
0
LINE
8
BLACK
6
CONTINUOUS
10
2.0339
20
0.636929
11
2.03311
21
0.627871
0
LINE
8
BLACK
6
CONTINUOUS
10
2.03311
20
0.627871
11
2.03075
21
0.619088
0
LINE
8
BLACK
6
CONTINUOUS
10
2.03075
20
0.619088
11
2.02691
21
0.610846
0
LINE
8
BLACK
6
CONTINUOUS
10
2.02691
20
0.610846
11
2.02169
21
0.603398
0
LINE
8
BLACK
6
CONTINUOUS
10
2.02169
20
0.603398
11
2.01526
21
0.596968
0
LINE
8
BLACK
6
CONTINUOUS
10
2.01526
20
0.596968
11
2.00781
21
0.591753
0
LINE
8
BLACK
6
CONTINUOUS
10
2.00781
20
0.591753
11
1.99957
21
0.58791
0
LINE
8
BLACK
6
CONTINUOUS
10
1.99957
20
0.58791
11
1.99079
21
0.585556
0
LINE
8
BLACK
6
CONTINUOUS
10
1.99079
20
0.585556
11
1.98173
21
0.584764
0
LINE
8
BLACK
6
CONTINUOUS
10
1.98173
20
0.584764
11
1.97267
21
0.585556
0
LINE
8
BLACK
6
CONTINUOUS
10
1.97267
20
0.585556
11
1.96389
21
0.58791
0
LINE
8
BLACK
6
CONTINUOUS
10
1.96389
20
0.58791
11
1.95565
21
0.591753
0
LINE
8
BLACK
6
CONTINUOUS
10
1.95565
20
0.591753
11
1.9482
21
0.596968
0
LINE
8
BLACK
6
CONTINUOUS
10
1.9482
20
0.596968
11
1.94177
21
0.603398
0
LINE
8
BLACK
6
CONTINUOUS
10
1.94177
20
0.603398
11
1.93656
21
0.610846
0
LINE
8
BLACK
6
CONTINUOUS
10
1.93656
20
0.610846
11
1.93271
21
0.619088
0
LINE
8
BLACK
6
CONTINUOUS
10
1.93271
20
0.619088
11
1.93036
21
0.627871
0
LINE
8
BLACK
6
CONTINUOUS
10
1.93036
20
0.627871
11
1.92957
21
0.636929
0
LINE
8
BLACK
6
CONTINUOUS
10
1.92957
20
0.636929
11
1.93036
21
0.645988
0
LINE
8
BLACK
6
CONTINUOUS
10
1.93036
20
0.645988
11
1.93271
21
0.654771
0
LINE
8
BLACK
6
CONTINUOUS
10
1.93271
20
0.654771
11
1.93656
21
0.663012
0
LINE
8
BLACK
6
CONTINUOUS
10
1.93656
20
0.663012
11
1.94177
21
0.67046
0
LINE
8
BLACK
6
CONTINUOUS
10
1.94177
20
0.67046
11
1.9482
21
0.67689
0
LINE
8
BLACK
6
CONTINUOUS
10
1.9482
20
0.67689
11
1.95565
21
0.682106
0
LINE
8
BLACK
6
CONTINUOUS
10
1.95565
20
0.682106
11
1.96389
21
0.685949
0
LINE
8
BLACK
6
CONTINUOUS
10
1.96389
20
0.685949
11
1.97267
21
0.688302
0
LINE
8
BLACK
6
CONTINUOUS
10
1.97267
20
0.688302
11
1.98173
21
0.689094
0
LINE
8
BLACK
6
CONTINUOUS
10
1.98173
20
0.689094
11
1.99079
21
0.688302
0
LINE
8
BLACK
6
CONTINUOUS
10
2.36337
20
0.787944
11
2.36337
21
0.787944
0
LINE
8
BLACK
6
CONTINUOUS
10
2.36337
20
0.787944
11
2.367
21
0.786614
0
LINE
8
BLACK
6
CONTINUOUS
10
2.367
20
0.786614
11
2.37456
21
0.784993
0
LINE
8
BLACK
6
CONTINUOUS
10
2.37456
20
0.784993
11
2.38228
21
0.784446
0
LINE
8
BLACK
6
CONTINUOUS
10
2.38228
20
0.784446
11
2.38999
21
0.784984
0
LINE
8
BLACK
6
CONTINUOUS
10
2.38999
20
0.784984
11
2.39756
21
0.786595
0
LINE
8
BLACK
6
CONTINUOUS
10
2.39756
20
0.786595
11
2.40119
21
0.78792
0
LINE
8
BLACK
6
CONTINUOUS
10
2.40119
20
0.78792
11
2.40119
21
0.78792
0
LINE
8
BLACK
6
CONTINUOUS
10
2.40119
20
0.78792
11
2.40423
21
0.788391
0
LINE
8
BLACK
6
CONTINUOUS
10
2.40423
20
0.788391
11
2.40721
21
0.787664
0
LINE
8
BLACK
6
CONTINUOUS
10
2.40721
20
0.787664
11
2.40969
21
0.78585
0
LINE
8
BLACK
6
CONTINUOUS
10
2.40969
20
0.78585
11
2.41129
21
0.783225
0
LINE
8
BLACK
6
CONTINUOUS
10
2.41129
20
0.783225
11
2.4117
21
0.780551
0
LINE
8
BLACK
6
CONTINUOUS
10
2.4117
20
0.780551
11
2.41184
21
0.780551
0
LINE
8
BLACK
6
CONTINUOUS
10
2.41184
20
0.780551
11
2.41184
21
0.739213
0
LINE
8
BLACK
6
CONTINUOUS
10
2.41184
20
0.739213
11
2.35279
21
0.739213
0
LINE
8
BLACK
6
CONTINUOUS
10
2.35279
20
0.739213
11
2.35279
21
0.780551
0
LINE
8
BLACK
6
CONTINUOUS
10
2.35279
20
0.780551
11
2.35284
21
0.780551
0
LINE
8
BLACK
6
CONTINUOUS
10
2.35284
20
0.780551
11
2.35327
21
0.783262
0
LINE
8
BLACK
6
CONTINUOUS
10
2.35327
20
0.783262
11
2.35487
21
0.785885
0
LINE
8
BLACK
6
CONTINUOUS
10
2.35487
20
0.785885
11
2.35735
21
0.787695
0
LINE
8
BLACK
6
CONTINUOUS
10
2.35735
20
0.787695
11
2.36033
21
0.788419
0
LINE
8
BLACK
6
CONTINUOUS
10
2.36033
20
0.788419
11
2.36337
21
0.787944
0
LINE
8
BLACK
6
CONTINUOUS
10
2.65759
20
0.740433
11
2.50759
21
0.740433
0
LINE
8
BLACK
6
CONTINUOUS
10
2.50759
20
0.740433
11
2.50759
21
0.890433
0
LINE
8
BLACK
6
CONTINUOUS
10
2.50759
20
0.890433
11
2.65759
21
0.890433
0
LINE
8
BLACK
6
CONTINUOUS
10
2.65759
20
0.890433
11
2.65759
21
0.740433
0
LINE
8
BLACK
6
CONTINUOUS
10
2.85444
20
0.740433
11
2.70444
21
0.740433
0
LINE
8
BLACK
6
CONTINUOUS
10
2.70444
20
0.740433
11
2.70444
21
0.890433
0
LINE
8
BLACK
6
CONTINUOUS
10
2.70444
20
0.890433
11
2.85444
21
0.890433
0
LINE
8
BLACK
6
CONTINUOUS
10
2.85444
20
0.890433
11
2.85444
21
0.740433
0
LINE
8
BLACK
6
CONTINUOUS
10
1.82094
20
0.93947
11
1.82366
21
0.939046
0
LINE
8
BLACK
6
CONTINUOUS
10
1.82366
20
0.939046
11
1.82628
21
0.937446
0
LINE
8
BLACK
6
CONTINUOUS
10
1.82628
20
0.937446
11
1.82809
21
0.934964
0
LINE
8
BLACK
6
CONTINUOUS
10
1.82809
20
0.934964
11
1.82881
21
0.931978
0
LINE
8
BLACK
6
CONTINUOUS
10
1.82881
20
0.931978
11
1.82834
21
0.928943
0
LINE
8
BLACK
6
CONTINUOUS
10
1.82834
20
0.928943
11
1.82834
21
0.928943
0
LINE
8
BLACK
6
CONTINUOUS
10
1.82834
20
0.928943
11
1.82701
21
0.925312
0
LINE
8
BLACK
6
CONTINUOUS
10
1.82701
20
0.925312
11
1.82539
21
0.91775
0
LINE
8
BLACK
6
CONTINUOUS
10
1.82539
20
0.91775
11
1.82484
21
0.910035
0
LINE
8
BLACK
6
CONTINUOUS
10
1.82484
20
0.910035
11
1.82538
21
0.90232
0
LINE
8
BLACK
6
CONTINUOUS
10
1.82538
20
0.90232
11
1.82699
21
0.894755
0
LINE
8
BLACK
6
CONTINUOUS
10
1.82699
20
0.894755
11
1.82831
21
0.891123
0
LINE
8
BLACK
6
CONTINUOUS
10
1.82831
20
0.891123
11
1.82831
21
0.891123
0
LINE
8
BLACK
6
CONTINUOUS
10
1.82831
20
0.891123
11
1.82878
21
0.888087
0
LINE
8
BLACK
6
CONTINUOUS
10
1.82878
20
0.888087
11
1.82806
21
0.885102
0
LINE
8
BLACK
6
CONTINUOUS
10
1.82806
20
0.885102
11
1.82624
21
0.882622
0
LINE
8
BLACK
6
CONTINUOUS
10
1.82624
20
0.882622
11
1.82362
21
0.881025
0
LINE
8
BLACK
6
CONTINUOUS
10
1.82362
20
0.881025
11
1.82094
21
0.880611
0
LINE
8
BLACK
6
CONTINUOUS
10
1.82094
20
0.880611
11
1.82094
21
0.880472
0
LINE
8
BLACK
6
CONTINUOUS
10
1.82094
20
0.880472
11
1.77961
21
0.880472
0
LINE
8
BLACK
6
CONTINUOUS
10
1.77961
20
0.880472
11
1.77961
21
0.939528
0
LINE
8
BLACK
6
CONTINUOUS
10
1.77961
20
0.939528
11
1.82094
21
0.939528
0
LINE
8
BLACK
6
CONTINUOUS
10
1.82094
20
0.939528
11
1.82094
21
0.93947
0
LINE
8
BLACK
6
CONTINUOUS
10
1.98039
20
0.880472
11
1.93906
21
0.880472
0
LINE
8
BLACK
6
CONTINUOUS
10
1.93906
20
0.880472
11
1.93906
21
0.88053
0
LINE
8
BLACK
6
CONTINUOUS
10
1.93906
20
0.88053
11
1.93634
21
0.880954
0
LINE
8
BLACK
6
CONTINUOUS
10
1.93634
20
0.880954
11
1.93372
21
0.882554
0
LINE
8
BLACK
6
CONTINUOUS
10
1.93372
20
0.882554
11
1.93191
21
0.885036
0
LINE
8
BLACK
6
CONTINUOUS
10
1.93191
20
0.885036
11
1.93119
21
0.888022
0
LINE
8
BLACK
6
CONTINUOUS
10
1.93119
20
0.888022
11
1.93166
21
0.891057
0
LINE
8
BLACK
6
CONTINUOUS
10
1.93166
20
0.891057
11
1.93166
21
0.891057
0
LINE
8
BLACK
6
CONTINUOUS
10
1.93166
20
0.891057
11
1.93299
21
0.894688
0
LINE
8
BLACK
6
CONTINUOUS
10
1.93299
20
0.894688
11
1.93461
21
0.90225
0
LINE
8
BLACK
6
CONTINUOUS
10
1.93461
20
0.90225
11
1.93516
21
0.909965
0
LINE
8
BLACK
6
CONTINUOUS
10
1.93516
20
0.909965
11
1.93462
21
0.91768
0
LINE
8
BLACK
6
CONTINUOUS
10
1.93462
20
0.91768
11
1.93301
21
0.925245
0
LINE
8
BLACK
6
CONTINUOUS
10
1.93301
20
0.925245
11
1.93169
21
0.928877
0
LINE
8
BLACK
6
CONTINUOUS
10
1.93169
20
0.928877
11
1.93169
21
0.928877
0
LINE
8
BLACK
6
CONTINUOUS
10
1.93169
20
0.928877
11
1.93122
21
0.931913
0
LINE
8
BLACK
6
CONTINUOUS
10
1.93122
20
0.931913
11
1.93194
21
0.934898
0
LINE
8
BLACK
6
CONTINUOUS
10
1.93194
20
0.934898
11
1.93376
21
0.937378
0
LINE
8
BLACK
6
CONTINUOUS
10
1.93376
20
0.937378
11
1.93638
21
0.938975
0
LINE
8
BLACK
6
CONTINUOUS
10
1.93638
20
0.938975
11
1.93906
21
0.939389
0
LINE
8
BLACK
6
CONTINUOUS
10
1.93906
20
0.939389
11
1.93906
21
0.939528
0
LINE
8
BLACK
6
CONTINUOUS
10
1.93906
20
0.939528
11
1.98039
21
0.939528
0
LINE
8
BLACK
6
CONTINUOUS
10
1.98039
20
0.939528
11
1.98039
21
0.880472
0
LINE
8
BLACK
6
CONTINUOUS
10
2.0675
20
0.8825
11
2.0125
21
0.8825
0
LINE
8
BLACK
6
CONTINUOUS
10
2.0125
20
0.8825
11
2.0125
21
0.9175
0
LINE
8
BLACK
6
CONTINUOUS
10
2.0125
20
0.9175
11
2.0675
21
0.9175
0
LINE
8
BLACK
6
CONTINUOUS
10
2.0675
20
0.9175
11
2.0675
21
0.8825
0
LINE
8
BLACK
6
CONTINUOUS
10
2.41184
20
0.898661
11
2.41178
21
0.898661
0
LINE
8
BLACK
6
CONTINUOUS
10
2.41178
20
0.898661
11
2.41136
21
0.895951
0
LINE
8
BLACK
6
CONTINUOUS
10
2.41136
20
0.895951
11
2.40976
21
0.893328
0
LINE
8
BLACK
6
CONTINUOUS
10
2.40976
20
0.893328
11
2.40728
21
0.891517
0
LINE
8
BLACK
6
CONTINUOUS
10
2.40728
20
0.891517
11
2.40429
21
0.890794
0
LINE
8
BLACK
6
CONTINUOUS
10
2.40429
20
0.890794
11
2.40126
21
0.891269
0
LINE
8
BLACK
6
CONTINUOUS
10
2.40126
20
0.891269
11
2.40126
21
0.891269
0
LINE
8
BLACK
6
CONTINUOUS
10
2.40126
20
0.891269
11
2.39762
21
0.892599
0
LINE
8
BLACK
6
CONTINUOUS
10
2.39762
20
0.892599
11
2.39006
21
0.894219
0
LINE
8
BLACK
6
CONTINUOUS
10
2.39006
20
0.894219
11
2.38235
21
0.894766
0
LINE
8
BLACK
6
CONTINUOUS
10
2.38235
20
0.894766
11
2.37463
21
0.894229
0
LINE
8
BLACK
6
CONTINUOUS
10
2.37463
20
0.894229
11
2.36707
21
0.892618
0
LINE
8
BLACK
6
CONTINUOUS
10
2.36707
20
0.892618
11
2.36344
21
0.891293
0
LINE
8
BLACK
6
CONTINUOUS
10
2.36344
20
0.891293
11
2.36344
21
0.891293
0
LINE
8
BLACK
6
CONTINUOUS
10
2.36344
20
0.891293
11
2.3604
21
0.890822
0
LINE
8
BLACK
6
CONTINUOUS
10
2.3604
20
0.890822
11
2.35741
21
0.891549
0
LINE
8
BLACK
6
CONTINUOUS
10
2.35741
20
0.891549
11
2.35493
21
0.893363
0
LINE
8
BLACK
6
CONTINUOUS
10
2.35493
20
0.893363
11
2.35334
21
0.895988
0
LINE
8
BLACK
6
CONTINUOUS
10
2.35334
20
0.895988
11
2.35292
21
0.898661
0
LINE
8
BLACK
6
CONTINUOUS
10
2.35292
20
0.898661
11
2.35279
21
0.898661
0
LINE
8
BLACK
6
CONTINUOUS
10
2.35279
20
0.898661
11
2.35279
21
0.94
0
LINE
8
BLACK
6
CONTINUOUS
10
2.35279
20
0.94
11
2.41184
21
0.94
0
LINE
8
BLACK
6
CONTINUOUS
10
2.41184
20
0.94
11
2.41184
21
0.898661
0
LINE
8
BLACK
6
CONTINUOUS
10
2.65759
20
0.937283
11
2.50759
21
0.937283
0
LINE
8
BLACK
6
CONTINUOUS
10
2.50759
20
0.937283
11
2.50759
21
1.08728
0
LINE
8
BLACK
6
CONTINUOUS
10
2.50759
20
1.08728
11
2.65759
21
1.08728
0
LINE
8
BLACK
6
CONTINUOUS
10
2.65759
20
1.08728
11
2.65759
21
0.937283
0
LINE
8
BLACK
6
CONTINUOUS
10
2.85444
20
0.937283
11
2.70444
21
0.937283
0
LINE
8
BLACK
6
CONTINUOUS
10
2.70444
20
0.937283
11
2.70444
21
1.08728
0
LINE
8
BLACK
6
CONTINUOUS
10
2.70444
20
1.08728
11
2.85444
21
1.08728
0
LINE
8
BLACK
6
CONTINUOUS
10
2.85444
20
1.08728
11
2.85444
21
0.937283
0
LINE
8
BLACK
6
CONTINUOUS
10
2.0675
20
0.9575
11
2.0125
21
0.9575
0
LINE
8
BLACK
6
CONTINUOUS
10
2.0125
20
0.9575
11
2.0125
21
0.9925
0
LINE
8
BLACK
6
CONTINUOUS
10
2.0125
20
0.9925
11
2.0675
21
0.9925
0
LINE
8
BLACK
6
CONTINUOUS
10
2.0675
20
0.9925
11
2.0675
21
0.9575
0
LINE
8
BLACK
6
CONTINUOUS
10
2.40981
20
0.972106
11
2.35481
21
0.972106
0
LINE
8
BLACK
6
CONTINUOUS
10
2.35481
20
0.972106
11
2.35481
21
1.00711
0
LINE
8
BLACK
6
CONTINUOUS
10
2.35481
20
1.00711
11
2.40981
21
1.00711
0
LINE
8
BLACK
6
CONTINUOUS
10
2.40981
20
1.00711
11
2.40981
21
0.972106
0
LINE
8
BLACK
6
CONTINUOUS
10
1.35151
20
1.08152
11
1.35964
21
1.07837
0
LINE
8
BLACK
6
CONTINUOUS
10
1.35964
20
1.07837
11
1.36705
21
1.07378
0
LINE
8
BLACK
6
CONTINUOUS
10
1.36705
20
1.07378
11
1.3735
21
1.06791
0
LINE
8
BLACK
6
CONTINUOUS
10
1.3735
20
1.06791
11
1.37875
21
1.06095
0
LINE
8
BLACK
6
CONTINUOUS
10
1.37875
20
1.06095
11
1.38264
21
1.05315
0
LINE
8
BLACK
6
CONTINUOUS
10
1.38264
20
1.05315
11
1.38502
21
1.04476
0
LINE
8
BLACK
6
CONTINUOUS
10
1.38502
20
1.04476
11
1.38583
21
1.03608
0
LINE
8
BLACK
6
CONTINUOUS
10
1.38583
20
1.03608
11
1.38502
21
1.0274
0
LINE
8
BLACK
6
CONTINUOUS
10
1.38502
20
1.0274
11
1.38264
21
1.01901
0
LINE
8
BLACK
6
CONTINUOUS
10
1.38264
20
1.01901
11
1.37875
21
1.01121
0
LINE
8
BLACK
6
CONTINUOUS
10
1.37875
20
1.01121
11
1.3735
21
1.00425
0
LINE
8
BLACK
6
CONTINUOUS
10
1.3735
20
1.00425
11
1.36705
21
0.998378
0
LINE
8
BLACK
6
CONTINUOUS
10
1.36705
20
0.998378
11
1.35964
21
0.993789
0
LINE
8
BLACK
6
CONTINUOUS
10
1.35964
20
0.993789
11
1.35151
21
0.990639
0
LINE
8
BLACK
6
CONTINUOUS
10
1.35151
20
0.990639
11
1.34294
21
0.989037
0
LINE
8
BLACK
6
CONTINUOUS
10
1.34294
20
0.989037
11
1.33422
21
0.989037
0
LINE
8
BLACK
6
CONTINUOUS
10
1.33422
20
0.989037
11
1.32565
21
0.990639
0
LINE
8
BLACK
6
CONTINUOUS
10
1.32565
20
0.990639
11
1.31752
21
0.993789
0
LINE
8
BLACK
6
CONTINUOUS
10
1.31752
20
0.993789
11
1.31011
21
0.998378
0
LINE
8
BLACK
6
CONTINUOUS
10
1.31011
20
0.998378
11
1.30367
21
1.00425
0
LINE
8
BLACK
6
CONTINUOUS
10
1.30367
20
1.00425
11
1.29841
21
1.01121
0
LINE
8
BLACK
6
CONTINUOUS
10
1.29841
20
1.01121
11
1.29453
21
1.01901
0
LINE
8
BLACK
6
CONTINUOUS
10
1.29453
20
1.01901
11
1.29214
21
1.0274
0
LINE
8
BLACK
6
CONTINUOUS
10
1.29214
20
1.0274
11
1.29134
21
1.03608
0
LINE
8
BLACK
6
CONTINUOUS
10
1.29134
20
1.03608
11
1.29214
21
1.04476
0
LINE
8
BLACK
6
CONTINUOUS
10
1.29214
20
1.04476
11
1.29453
21
1.05315
0
LINE
8
BLACK
6
CONTINUOUS
10
1.29453
20
1.05315
11
1.29841
21
1.06095
0
LINE
8
BLACK
6
CONTINUOUS
10
1.29841
20
1.06095
11
1.30367
21
1.06791
0
LINE
8
BLACK
6
CONTINUOUS
10
1.30367
20
1.06791
11
1.31011
21
1.07378
0
LINE
8
BLACK
6
CONTINUOUS
10
1.31011
20
1.07378
11
1.31752
21
1.07837
0
LINE
8
BLACK
6
CONTINUOUS
10
1.31752
20
1.07837
11
1.32565
21
1.08152
0
LINE
8
BLACK
6
CONTINUOUS
10
1.32565
20
1.08152
11
1.33422
21
1.08312
0
LINE
8
BLACK
6
CONTINUOUS
10
1.33422
20
1.08312
11
1.34294
21
1.08312
0
LINE
8
BLACK
6
CONTINUOUS
10
1.34294
20
1.08312
11
1.35151
21
1.08152
0
LINE
8
BLACK
6
CONTINUOUS
10
1.54836
20
1.08152
11
1.55649
21
1.07837
0
LINE
8
BLACK
6
CONTINUOUS
10
1.55649
20
1.07837
11
1.5639
21
1.07378
0
LINE
8
BLACK
6
CONTINUOUS
10
1.5639
20
1.07378
11
1.57035
21
1.06791
0
LINE
8
BLACK
6
CONTINUOUS
10
1.57035
20
1.06791
11
1.5756
21
1.06095
0
LINE
8
BLACK
6
CONTINUOUS
10
1.5756
20
1.06095
11
1.57949
21
1.05315
0
LINE
8
BLACK
6
CONTINUOUS
10
1.57949
20
1.05315
11
1.58187
21
1.04476
0
LINE
8
BLACK
6
CONTINUOUS
10
1.58187
20
1.04476
11
1.58268
21
1.03608
0
LINE
8
BLACK
6
CONTINUOUS
10
1.58268
20
1.03608
11
1.58187
21
1.0274
0
LINE
8
BLACK
6
CONTINUOUS
10
1.58187
20
1.0274
11
1.57949
21
1.01901
0
LINE
8
BLACK
6
CONTINUOUS
10
1.57949
20
1.01901
11
1.5756
21
1.01121
0
LINE
8
BLACK
6
CONTINUOUS
10
1.5756
20
1.01121
11
1.57035
21
1.00425
0
LINE
8
BLACK
6
CONTINUOUS
10
1.57035
20
1.00425
11
1.5639
21
0.998378
0
LINE
8
BLACK
6
CONTINUOUS
10
1.5639
20
0.998378
11
1.55649
21
0.993789
0
LINE
8
BLACK
6
CONTINUOUS
10
1.55649
20
0.993789
11
1.54836
21
0.990639
0
LINE
8
BLACK
6
CONTINUOUS
10
1.54836
20
0.990639
11
1.53979
21
0.989037
0
LINE
8
BLACK
6
CONTINUOUS
10
1.53979
20
0.989037
11
1.53107
21
0.989037
0
LINE
8
BLACK
6
CONTINUOUS
10
1.53107
20
0.989037
11
1.5225
21
0.990639
0
LINE
8
BLACK
6
CONTINUOUS
10
1.5225
20
0.990639
11
1.51437
21
0.993789
0
LINE
8
BLACK
6
CONTINUOUS
10
1.51437
20
0.993789
11
1.50696
21
0.998378
0
LINE
8
BLACK
6
CONTINUOUS
10
1.50696
20
0.998378
11
1.50052
21
1.00425
0
LINE
8
BLACK
6
CONTINUOUS
10
1.50052
20
1.00425
11
1.49527
21
1.01121
0
LINE
8
BLACK
6
CONTINUOUS
10
1.49527
20
1.01121
11
1.49138
21
1.01901
0
LINE
8
BLACK
6
CONTINUOUS
10
1.49138
20
1.01901
11
1.48899
21
1.0274
0
LINE
8
BLACK
6
CONTINUOUS
10
1.48899
20
1.0274
11
1.48819
21
1.03608
0
LINE
8
BLACK
6
CONTINUOUS
10
1.48819
20
1.03608
11
1.48899
21
1.04476
0
LINE
8
BLACK
6
CONTINUOUS
10
1.48899
20
1.04476
11
1.49138
21
1.05315
0
LINE
8
BLACK
6
CONTINUOUS
10
1.49138
20
1.05315
11
1.49527
21
1.06095
0
LINE
8
BLACK
6
CONTINUOUS
10
1.49527
20
1.06095
11
1.50052
21
1.06791
0
LINE
8
BLACK
6
CONTINUOUS
10
1.50052
20
1.06791
11
1.50696
21
1.07378
0
LINE
8
BLACK
6
CONTINUOUS
10
1.50696
20
1.07378
11
1.51437
21
1.07837
0
LINE
8
BLACK
6
CONTINUOUS
10
1.51437
20
1.07837
11
1.5225
21
1.08152
0
LINE
8
BLACK
6
CONTINUOUS
10
1.5225
20
1.08152
11
1.53107
21
1.08312
0
LINE
8
BLACK
6
CONTINUOUS
10
1.53107
20
1.08312
11
1.53979
21
1.08312
0
LINE
8
BLACK
6
CONTINUOUS
10
1.53979
20
1.08312
11
1.54836
21
1.08152
0
LINE
8
BLACK
6
CONTINUOUS
10
1.86535
20
1.0374
11
1.78661
21
1.0374
0
LINE
8
BLACK
6
CONTINUOUS
10
1.78661
20
1.0374
11
1.78661
21
1.0626
0
LINE
8
BLACK
6
CONTINUOUS
10
1.78661
20
1.0626
11
1.86535
21
1.0626
0
LINE
8
BLACK
6
CONTINUOUS
10
1.86535
20
1.0626
11
1.86535
21
1.0374
0
LINE
8
BLACK
6
CONTINUOUS
10
2.11339
20
1.0374
11
2.03465
21
1.0374
0
LINE
8
BLACK
6
CONTINUOUS
10
2.03465
20
1.0374
11
2.03465
21
1.0626
0
LINE
8
BLACK
6
CONTINUOUS
10
2.03465
20
1.0626
11
2.11339
21
1.0626
0
LINE
8
BLACK
6
CONTINUOUS
10
2.11339
20
1.0626
11
2.11339
21
1.0374
0
LINE
8
BLACK
6
CONTINUOUS
10
2.40981
20
1.04711
11
2.35481
21
1.04711
0
LINE
8
BLACK
6
CONTINUOUS
10
2.35481
20
1.04711
11
2.35481
21
1.08211
0
LINE
8
BLACK
6
CONTINUOUS
10
2.35481
20
1.08211
11
2.40981
21
1.08211
0
LINE
8
BLACK
6
CONTINUOUS
10
2.40981
20
1.08211
11
2.40981
21
1.04711
0
LINE
8
BLACK
6
CONTINUOUS
10
0.50524
20
1.04878
11
0.35524
21
1.04878
0
LINE
8
BLACK
6
CONTINUOUS
10
0.35524
20
1.04878
11
0.35524
21
1.19878
0
LINE
8
BLACK
6
CONTINUOUS
10
0.35524
20
1.19878
11
0.50524
21
1.19878
0
LINE
8
BLACK
6
CONTINUOUS
10
0.50524
20
1.19878
11
0.50524
21
1.04878
0
LINE
8
BLACK
6
CONTINUOUS
10
0.702091
20
1.04878
11
0.552091
21
1.04878
0
LINE
8
BLACK
6
CONTINUOUS
10
0.552091
20
1.04878
11
0.552091
21
1.19878
0
LINE
8
BLACK
6
CONTINUOUS
10
0.552091
20
1.19878
11
0.702091
21
1.19878
0
LINE
8
BLACK
6
CONTINUOUS
10
0.702091
20
1.19878
11
0.702091
21
1.04878
0
LINE
8
BLACK
6
CONTINUOUS
10
2.39596
20
1.17519
11
2.39596
21
1.17519
0
LINE
8
BLACK
6
CONTINUOUS
10
2.39596
20
1.17519
11
2.39959
21
1.17386
0
LINE
8
BLACK
6
CONTINUOUS
10
2.39959
20
1.17386
11
2.40715
21
1.17224
0
LINE
8
BLACK
6
CONTINUOUS
10
2.40715
20
1.17224
11
2.41487
21
1.17169
0
LINE
8
BLACK
6
CONTINUOUS
10
2.41487
20
1.17169
11
2.42258
21
1.17223
0
LINE
8
BLACK
6
CONTINUOUS
10
2.42258
20
1.17223
11
2.43015
21
1.17384
0
LINE
8
BLACK
6
CONTINUOUS
10
2.43015
20
1.17384
11
2.43378
21
1.17516
0
LINE
8
BLACK
6
CONTINUOUS
10
2.43378
20
1.17516
11
2.43378
21
1.17516
0
LINE
8
BLACK
6
CONTINUOUS
10
2.43378
20
1.17516
11
2.43681
21
1.17563
0
LINE
8
BLACK
6
CONTINUOUS
10
2.43681
20
1.17563
11
2.4398
21
1.17491
0
LINE
8
BLACK
6
CONTINUOUS
10
2.4398
20
1.17491
11
2.44228
21
1.17309
0
LINE
8
BLACK
6
CONTINUOUS
10
2.44228
20
1.17309
11
2.44388
21
1.17047
0
LINE
8
BLACK
6
CONTINUOUS
10
2.44388
20
1.17047
11
2.44429
21
1.1678
0
LINE
8
BLACK
6
CONTINUOUS
10
2.44429
20
1.1678
11
2.44443
21
1.1678
0
LINE
8
BLACK
6
CONTINUOUS
10
2.44443
20
1.1678
11
2.44443
21
1.12646
0
LINE
8
BLACK
6
CONTINUOUS
10
2.44443
20
1.12646
11
2.38537
21
1.12646
0
LINE
8
BLACK
6
CONTINUOUS
10
2.38537
20
1.12646
11
2.38537
21
1.1678
0
LINE
8
BLACK
6
CONTINUOUS
10
2.38537
20
1.1678
11
2.38543
21
1.1678
0
LINE
8
BLACK
6
CONTINUOUS
10
2.38543
20
1.1678
11
2.38586
21
1.17051
0
LINE
8
BLACK
6
CONTINUOUS
10
2.38586
20
1.17051
11
2.38746
21
1.17313
0
LINE
8
BLACK
6
CONTINUOUS
10
2.38746
20
1.17313
11
2.38994
21
1.17494
0
LINE
8
BLACK
6
CONTINUOUS
10
2.38994
20
1.17494
11
2.39292
21
1.17566
0
LINE
8
BLACK
6
CONTINUOUS
10
2.39292
20
1.17566
11
2.39596
21
1.17519
0
LINE
8
BLACK
6
CONTINUOUS
10
1.86535
20
1.1374
11
1.78661
21
1.1374
0
LINE
8
BLACK
6
CONTINUOUS
10
1.78661
20
1.1374
11
1.78661
21
1.1626
0
LINE
8
BLACK
6
CONTINUOUS
10
1.78661
20
1.1626
11
1.86535
21
1.1626
0
LINE
8
BLACK
6
CONTINUOUS
10
1.86535
20
1.1626
11
1.86535
21
1.1374
0
LINE
8
BLACK
6
CONTINUOUS
10
2.11339
20
1.1374
11
2.03465
21
1.1374
0
LINE
8
BLACK
6
CONTINUOUS
10
2.03465
20
1.1374
11
2.03465
21
1.1626
0
LINE
8
BLACK
6
CONTINUOUS
10
2.03465
20
1.1626
11
2.11339
21
1.1626
0
LINE
8
BLACK
6
CONTINUOUS
10
2.11339
20
1.1626
11
2.11339
21
1.1374
0
LINE
8
BLACK
6
CONTINUOUS
10
2.66071
20
1.13807
11
2.51071
21
1.13807
0
LINE
8
BLACK
6
CONTINUOUS
10
2.51071
20
1.13807
11
2.51071
21
1.28807
0
LINE
8
BLACK
6
CONTINUOUS
10
2.51071
20
1.28807
11
2.66071
21
1.28807
0
LINE
8
BLACK
6
CONTINUOUS
10
2.66071
20
1.28807
11
2.66071
21
1.13807
0
LINE
8
BLACK
6
CONTINUOUS
10
2.85756
20
1.13807
11
2.70756
21
1.13807
0
LINE
8
BLACK
6
CONTINUOUS
10
2.70756
20
1.13807
11
2.70756
21
1.28807
0
LINE
8
BLACK
6
CONTINUOUS
10
2.70756
20
1.28807
11
2.85756
21
1.28807
0
LINE
8
BLACK
6
CONTINUOUS
10
2.85756
20
1.28807
11
2.85756
21
1.13807
0
LINE
8
BLACK
6
CONTINUOUS
10
0.50524
20
1.24563
11
0.35524
21
1.24563
0
LINE
8
BLACK
6
CONTINUOUS
10
0.35524
20
1.24563
11
0.35524
21
1.39563
0
LINE
8
BLACK
6
CONTINUOUS
10
0.35524
20
1.39563
11
0.50524
21
1.39563
0
LINE
8
BLACK
6
CONTINUOUS
10
0.50524
20
1.39563
11
0.50524
21
1.24563
0
LINE
8
BLACK
6
CONTINUOUS
10
0.702091
20
1.24563
11
0.552091
21
1.24563
0
LINE
8
BLACK
6
CONTINUOUS
10
0.552091
20
1.24563
11
0.552091
21
1.39563
0
LINE
8
BLACK
6
CONTINUOUS
10
0.552091
20
1.39563
11
0.702091
21
1.39563
0
LINE
8
BLACK
6
CONTINUOUS
10
0.702091
20
1.39563
11
0.702091
21
1.24563
0
LINE
8
BLACK
6
CONTINUOUS
10
2.44443
20
1.28591
11
2.44437
21
1.28591
0
LINE
8
BLACK
6
CONTINUOUS
10
2.44437
20
1.28591
11
2.44395
21
1.28319
0
LINE
8
BLACK
6
CONTINUOUS
10
2.44395
20
1.28319
11
2.44235
21
1.28057
0
LINE
8
BLACK
6
CONTINUOUS
10
2.44235
20
1.28057
11
2.43987
21
1.27876
0
LINE
8
BLACK
6
CONTINUOUS
10
2.43987
20
1.27876
11
2.43688
21
1.27804
0
LINE
8
BLACK
6
CONTINUOUS
10
2.43688
20
1.27804
11
2.43384
21
1.27851
0
LINE
8
BLACK
6
CONTINUOUS
10
2.43384
20
1.27851
11
2.43384
21
1.27851
0
LINE
8
BLACK
6
CONTINUOUS
10
2.43384
20
1.27851
11
2.43021
21
1.27984
0
LINE
8
BLACK
6
CONTINUOUS
10
2.43021
20
1.27984
11
2.42265
21
1.28146
0
LINE
8
BLACK
6
CONTINUOUS
10
2.42265
20
1.28146
11
2.41494
21
1.28201
0
LINE
8
BLACK
6
CONTINUOUS
10
2.41494
20
1.28201
11
2.40722
21
1.28147
0
LINE
8
BLACK
6
CONTINUOUS
10
2.40722
20
1.28147
11
2.39966
21
1.27986
0
LINE
8
BLACK
6
CONTINUOUS
10
2.39966
20
1.27986
11
2.39602
21
1.27854
0
LINE
8
BLACK
6
CONTINUOUS
10
2.39602
20
1.27854
11
2.39602
21
1.27854
0
LINE
8
BLACK
6
CONTINUOUS
10
2.39602
20
1.27854
11
2.39299
21
1.27807
0
LINE
8
BLACK
6
CONTINUOUS
10
2.39299
20
1.27807
11
2.39
21
1.27879
0
LINE
8
BLACK
6
CONTINUOUS
10
2.39
20
1.27879
11
2.38752
21
1.28061
0
LINE
8
BLACK
6
CONTINUOUS
10
2.38752
20
1.28061
11
2.38593
21
1.28323
0
LINE
8
BLACK
6
CONTINUOUS
10
2.38593
20
1.28323
11
2.38551
21
1.28591
0
LINE
8
BLACK
6
CONTINUOUS
10
2.38551
20
1.28591
11
2.38537
21
1.28591
0
LINE
8
BLACK
6
CONTINUOUS
10
2.38537
20
1.28591
11
2.38537
21
1.32724
0
LINE
8
BLACK
6
CONTINUOUS
10
2.38537
20
1.32724
11
2.44443
21
1.32724
0
LINE
8
BLACK
6
CONTINUOUS
10
2.44443
20
1.32724
11
2.44443
21
1.28591
0
LINE
8
BLACK
6
CONTINUOUS
10
1.82094
20
1.35947
11
1.82366
21
1.35905
0
LINE
8
BLACK
6
CONTINUOUS
10
1.82366
20
1.35905
11
1.82628
21
1.35745
0
LINE
8
BLACK
6
CONTINUOUS
10
1.82628
20
1.35745
11
1.82809
21
1.35496
0
LINE
8
BLACK
6
CONTINUOUS
10
1.82809
20
1.35496
11
1.82881
21
1.35198
0
LINE
8
BLACK
6
CONTINUOUS
10
1.82881
20
1.35198
11
1.82834
21
1.34894
0
LINE
8
BLACK
6
CONTINUOUS
10
1.82834
20
1.34894
11
1.82834
21
1.34894
0
LINE
8
BLACK
6
CONTINUOUS
10
1.82834
20
1.34894
11
1.82701
21
1.34531
0
LINE
8
BLACK
6
CONTINUOUS
10
1.82701
20
1.34531
11
1.82539
21
1.33775
0
LINE
8
BLACK
6
CONTINUOUS
10
1.82539
20
1.33775
11
1.82484
21
1.33003
0
LINE
8
BLACK
6
CONTINUOUS
10
1.82484
20
1.33003
11
1.82538
21
1.32232
0
LINE
8
BLACK
6
CONTINUOUS
10
1.82538
20
1.32232
11
1.82699
21
1.31476
0
LINE
8
BLACK
6
CONTINUOUS
10
1.82699
20
1.31476
11
1.82831
21
1.31112
0
LINE
8
BLACK
6
CONTINUOUS
10
1.82831
20
1.31112
11
1.82831
21
1.31112
0
LINE
8
BLACK
6
CONTINUOUS
10
1.82831
20
1.31112
11
1.82878
21
1.30809
0
LINE
8
BLACK
6
CONTINUOUS
10
1.82878
20
1.30809
11
1.82806
21
1.3051
0
LINE
8
BLACK
6
CONTINUOUS
10
1.82806
20
1.3051
11
1.82624
21
1.30262
0
LINE
8
BLACK
6
CONTINUOUS
10
1.82624
20
1.30262
11
1.82362
21
1.30103
0
LINE
8
BLACK
6
CONTINUOUS
10
1.82362
20
1.30103
11
1.82094
21
1.30061
0
LINE
8
BLACK
6
CONTINUOUS
10
1.82094
20
1.30061
11
1.82094
21
1.30047
0
LINE
8
BLACK
6
CONTINUOUS
10
1.82094
20
1.30047
11
1.77961
21
1.30047
0
LINE
8
BLACK
6
CONTINUOUS
10
1.77961
20
1.30047
11
1.77961
21
1.35953
0
LINE
8
BLACK
6
CONTINUOUS
10
1.77961
20
1.35953
11
1.82094
21
1.35953
0
LINE
8
BLACK
6
CONTINUOUS
10
1.82094
20
1.35953
11
1.82094
21
1.35947
0
LINE
8
BLACK
6
CONTINUOUS
10
1.98039
20
1.30047
11
1.93906
21
1.30047
0
LINE
8
BLACK
6
CONTINUOUS
10
1.93906
20
1.30047
11
1.93906
21
1.30053
0
LINE
8
BLACK
6
CONTINUOUS
10
1.93906
20
1.30053
11
1.93634
21
1.30095
0
LINE
8
BLACK
6
CONTINUOUS
10
1.93634
20
1.30095
11
1.93372
21
1.30255
0
LINE
8
BLACK
6
CONTINUOUS
10
1.93372
20
1.30255
11
1.93191
21
1.30504
0
LINE
8
BLACK
6
CONTINUOUS
10
1.93191
20
1.30504
11
1.93119
21
1.30802
0
LINE
8
BLACK
6
CONTINUOUS
10
1.93119
20
1.30802
11
1.93166
21
1.31106
0
LINE
8
BLACK
6
CONTINUOUS
10
1.93166
20
1.31106
11
1.93166
21
1.31106
0
LINE
8
BLACK
6
CONTINUOUS
10
1.93166
20
1.31106
11
1.93299
21
1.31469
0
LINE
8
BLACK
6
CONTINUOUS
10
1.93299
20
1.31469
11
1.93461
21
1.32225
0
LINE
8
BLACK
6
CONTINUOUS
10
1.93461
20
1.32225
11
1.93516
21
1.32997
0
LINE
8
BLACK
6
CONTINUOUS
10
1.93516
20
1.32997
11
1.93462
21
1.33768
0
LINE
8
BLACK
6
CONTINUOUS
10
1.93462
20
1.33768
11
1.93301
21
1.34524
0
LINE
8
BLACK
6
CONTINUOUS
10
1.93301
20
1.34524
11
1.93169
21
1.34888
0
LINE
8
BLACK
6
CONTINUOUS
10
1.93169
20
1.34888
11
1.93169
21
1.34888
0
LINE
8
BLACK
6
CONTINUOUS
10
1.93169
20
1.34888
11
1.93122
21
1.35191
0
LINE
8
BLACK
6
CONTINUOUS
10
1.93122
20
1.35191
11
1.93194
21
1.3549
0
LINE
8
BLACK
6
CONTINUOUS
10
1.93194
20
1.3549
11
1.93376
21
1.35738
0
LINE
8
BLACK
6
CONTINUOUS
10
1.93376
20
1.35738
11
1.93638
21
1.35897
0
LINE
8
BLACK
6
CONTINUOUS
10
1.93638
20
1.35897
11
1.93906
21
1.35939
0
LINE
8
BLACK
6
CONTINUOUS
10
1.93906
20
1.35939
11
1.93906
21
1.35953
0
LINE
8
BLACK
6
CONTINUOUS
10
1.93906
20
1.35953
11
1.98039
21
1.35953
0
LINE
8
BLACK
6
CONTINUOUS
10
1.98039
20
1.35953
11
1.98039
21
1.30047
0
LINE
8
BLACK
6
CONTINUOUS
10
2.0675
20
1.30292
11
2.0125
21
1.30292
0
LINE
8
BLACK
6
CONTINUOUS
10
2.0125
20
1.30292
11
2.0125
21
1.33792
0
LINE
8
BLACK
6
CONTINUOUS
10
2.0125
20
1.33792
11
2.0675
21
1.33792
0
LINE
8
BLACK
6
CONTINUOUS
10
2.0675
20
1.33792
11
2.0675
21
1.30292
0
LINE
8
BLACK
6
CONTINUOUS
10
2.66071
20
1.33492
11
2.51071
21
1.33492
0
LINE
8
BLACK
6
CONTINUOUS
10
2.51071
20
1.33492
11
2.51071
21
1.48492
0
LINE
8
BLACK
6
CONTINUOUS
10
2.51071
20
1.48492
11
2.66071
21
1.48492
0
LINE
8
BLACK
6
CONTINUOUS
10
2.66071
20
1.48492
11
2.66071
21
1.33492
0
LINE
8
BLACK
6
CONTINUOUS
10
2.85756
20
1.33492
11
2.70756
21
1.33492
0
LINE
8
BLACK
6
CONTINUOUS
10
2.70756
20
1.33492
11
2.70756
21
1.48492
0
LINE
8
BLACK
6
CONTINUOUS
10
2.70756
20
1.48492
11
2.85756
21
1.48492
0
LINE
8
BLACK
6
CONTINUOUS
10
2.85756
20
1.48492
11
2.85756
21
1.33492
0
LINE
8
BLACK
6
CONTINUOUS
10
2.4424
20
1.37185
11
2.3874
21
1.37185
0
LINE
8
BLACK
6
CONTINUOUS
10
2.3874
20
1.37185
11
2.3874
21
1.40685
0
LINE
8
BLACK
6
CONTINUOUS
10
2.3874
20
1.40685
11
2.4424
21
1.40685
0
LINE
8
BLACK
6
CONTINUOUS
10
2.4424
20
1.40685
11
2.4424
21
1.37185
0
LINE
8
BLACK
6
CONTINUOUS
10
2.0675
20
1.37792
11
2.0125
21
1.37792
0
LINE
8
BLACK
6
CONTINUOUS
10
2.0125
20
1.37792
11
2.0125
21
1.41292
0
LINE
8
BLACK
6
CONTINUOUS
10
2.0125
20
1.41292
11
2.0675
21
1.41292
0
LINE
8
BLACK
6
CONTINUOUS
10
2.0675
20
1.41292
11
2.0675
21
1.37792
0
LINE
8
BLACK
6
CONTINUOUS
10
1.35151
20
1.49939
11
1.35964
21
1.49624
0
LINE
8
BLACK
6
CONTINUOUS
10
1.35964
20
1.49624
11
1.36705
21
1.49165
0
LINE
8
BLACK
6
CONTINUOUS
10
1.36705
20
1.49165
11
1.3735
21
1.48578
0
LINE
8
BLACK
6
CONTINUOUS
10
1.3735
20
1.48578
11
1.37875
21
1.47882
0
LINE
8
BLACK
6
CONTINUOUS
10
1.37875
20
1.47882
11
1.38264
21
1.47102
0
LINE
8
BLACK
6
CONTINUOUS
10
1.38264
20
1.47102
11
1.38502
21
1.46263
0
LINE
8
BLACK
6
CONTINUOUS
10
1.38502
20
1.46263
11
1.38583
21
1.45395
0
LINE
8
BLACK
6
CONTINUOUS
10
1.38583
20
1.45395
11
1.38502
21
1.44527
0
LINE
8
BLACK
6
CONTINUOUS
10
1.38502
20
1.44527
11
1.38264
21
1.43688
0
LINE
8
BLACK
6
CONTINUOUS
10
1.38264
20
1.43688
11
1.37875
21
1.42908
0
LINE
8
BLACK
6
CONTINUOUS
10
1.37875
20
1.42908
11
1.3735
21
1.42212
0
LINE
8
BLACK
6
CONTINUOUS
10
1.3735
20
1.42212
11
1.36705
21
1.41625
0
LINE
8
BLACK
6
CONTINUOUS
10
1.36705
20
1.41625
11
1.35964
21
1.41166
0
LINE
8
BLACK
6
CONTINUOUS
10
1.35964
20
1.41166
11
1.35151
21
1.40851
0
LINE
8
BLACK
6
CONTINUOUS
10
1.35151
20
1.40851
11
1.34294
21
1.40691
0
LINE
8
BLACK
6
CONTINUOUS
10
1.34294
20
1.40691
11
1.33422
21
1.40691
0
LINE
8
BLACK
6
CONTINUOUS
10
1.33422
20
1.40691
11
1.32565
21
1.40851
0
LINE
8
BLACK
6
CONTINUOUS
10
1.32565
20
1.40851
11
1.31752
21
1.41166
0
LINE
8
BLACK
6
CONTINUOUS
10
1.31752
20
1.41166
11
1.31011
21
1.41625
0
LINE
8
BLACK
6
CONTINUOUS
10
1.31011
20
1.41625
11
1.30367
21
1.42212
0
LINE
8
BLACK
6
CONTINUOUS
10
1.30367
20
1.42212
11
1.29841
21
1.42908
0
LINE
8
BLACK
6
CONTINUOUS
10
1.29841
20
1.42908
11
1.29453
21
1.43688
0
LINE
8
BLACK
6
CONTINUOUS
10
1.29453
20
1.43688
11
1.29214
21
1.44527
0
LINE
8
BLACK
6
CONTINUOUS
10
1.29214
20
1.44527
11
1.29134
21
1.45395
0
LINE
8
BLACK
6
CONTINUOUS
10
1.29134
20
1.45395
11
1.29214
21
1.46263
0
LINE
8
BLACK
6
CONTINUOUS
10
1.29214
20
1.46263
11
1.29453
21
1.47102
0
LINE
8
BLACK
6
CONTINUOUS
10
1.29453
20
1.47102
11
1.29841
21
1.47882
0
LINE
8
BLACK
6
CONTINUOUS
10
1.29841
20
1.47882
11
1.30367
21
1.48578
0
LINE
8
BLACK
6
CONTINUOUS
10
1.30367
20
1.48578
11
1.31011
21
1.49165
0
LINE
8
BLACK
6
CONTINUOUS
10
1.31011
20
1.49165
11
1.31752
21
1.49624
0
LINE
8
BLACK
6
CONTINUOUS
10
1.31752
20
1.49624
11
1.32565
21
1.49939
0
LINE
8
BLACK
6
CONTINUOUS
10
1.32565
20
1.49939
11
1.33422
21
1.50099
0
LINE
8
BLACK
6
CONTINUOUS
10
1.33422
20
1.50099
11
1.34294
21
1.50099
0
LINE
8
BLACK
6
CONTINUOUS
10
1.34294
20
1.50099
11
1.35151
21
1.49939
0
LINE
8
BLACK
6
CONTINUOUS
10
1.54836
20
1.49939
11
1.55649
21
1.49624
0
LINE
8
BLACK
6
CONTINUOUS
10
1.55649
20
1.49624
11
1.5639
21
1.49165
0
LINE
8
BLACK
6
CONTINUOUS
10
1.5639
20
1.49165
11
1.57035
21
1.48578
0
LINE
8
BLACK
6
CONTINUOUS
10
1.57035
20
1.48578
11
1.5756
21
1.47882
0
LINE
8
BLACK
6
CONTINUOUS
10
1.5756
20
1.47882
11
1.57949
21
1.47102
0
LINE
8
BLACK
6
CONTINUOUS
10
1.57949
20
1.47102
11
1.58187
21
1.46263
0
LINE
8
BLACK
6
CONTINUOUS
10
1.58187
20
1.46263
11
1.58268
21
1.45395
0
LINE
8
BLACK
6
CONTINUOUS
10
1.58268
20
1.45395
11
1.58187
21
1.44527
0
LINE
8
BLACK
6
CONTINUOUS
10
1.58187
20
1.44527
11
1.57949
21
1.43688
0
LINE
8
BLACK
6
CONTINUOUS
10
1.57949
20
1.43688
11
1.5756
21
1.42908
0
LINE
8
BLACK
6
CONTINUOUS
10
1.5756
20
1.42908
11
1.57035
21
1.42212
0
LINE
8
BLACK
6
CONTINUOUS
10
1.57035
20
1.42212
11
1.5639
21
1.41625
0
LINE
8
BLACK
6
CONTINUOUS
10
1.5639
20
1.41625
11
1.55649
21
1.41166
0
LINE
8
BLACK
6
CONTINUOUS
10
1.55649
20
1.41166
11
1.54836
21
1.40851
0
LINE
8
BLACK
6
CONTINUOUS
10
1.54836
20
1.40851
11
1.53979
21
1.40691
0
LINE
8
BLACK
6
CONTINUOUS
10
1.53979
20
1.40691
11
1.53107
21
1.40691
0
LINE
8
BLACK
6
CONTINUOUS
10
1.53107
20
1.40691
11
1.5225
21
1.40851
0
LINE
8
BLACK
6
CONTINUOUS
10
1.5225
20
1.40851
11
1.51437
21
1.41166
0
LINE
8
BLACK
6
CONTINUOUS
10
1.51437
20
1.41166
11
1.50696
21
1.41625
0
LINE
8
BLACK
6
CONTINUOUS
10
1.50696
20
1.41625
11
1.50052
21
1.42212
0
LINE
8
BLACK
6
CONTINUOUS
10
1.50052
20
1.42212
11
1.49527
21
1.42908
0
LINE
8
BLACK
6
CONTINUOUS
10
1.49527
20
1.42908
11
1.49138
21
1.43688
0
LINE
8
BLACK
6
CONTINUOUS
10
1.49138
20
1.43688
11
1.48899
21
1.44527
0
LINE
8
BLACK
6
CONTINUOUS
10
1.48899
20
1.44527
11
1.48819
21
1.45395
0
LINE
8
BLACK
6
CONTINUOUS
10
1.48819
20
1.45395
11
1.48899
21
1.46263
0
LINE
8
BLACK
6
CONTINUOUS
10
1.48899
20
1.46263
11
1.49138
21
1.47102
0
LINE
8
BLACK
6
CONTINUOUS
10
1.49138
20
1.47102
11
1.49527
21
1.47882
0
LINE
8
BLACK
6
CONTINUOUS
10
1.49527
20
1.47882
11
1.50052
21
1.48578
0
LINE
8
BLACK
6
CONTINUOUS
10
1.50052
20
1.48578
11
1.50696
21
1.49165
0
LINE
8
BLACK
6
CONTINUOUS
10
1.50696
20
1.49165
11
1.51437
21
1.49624
0
LINE
8
BLACK
6
CONTINUOUS
10
1.51437
20
1.49624
11
1.5225
21
1.49939
0
LINE
8
BLACK
6
CONTINUOUS
10
1.5225
20
1.49939
11
1.53107
21
1.50099
0
LINE
8
BLACK
6
CONTINUOUS
10
1.53107
20
1.50099
11
1.53979
21
1.50099
0
LINE
8
BLACK
6
CONTINUOUS
10
1.53979
20
1.50099
11
1.54836
21
1.49939
0
LINE
8
BLACK
6
CONTINUOUS
10
0.50524
20
1.44248
11
0.35524
21
1.44248
0
LINE
8
BLACK
6
CONTINUOUS
10
0.35524
20
1.44248
11
0.35524
21
1.59248
0
LINE
8
BLACK
6
CONTINUOUS
10
0.35524
20
1.59248
11
0.50524
21
1.59248
0
LINE
8
BLACK
6
CONTINUOUS
10
0.50524
20
1.59248
11
0.50524
21
1.44248
0
LINE
8
BLACK
6
CONTINUOUS
10
0.702091
20
1.44248
11
0.552091
21
1.44248
0
LINE
8
BLACK
6
CONTINUOUS
10
0.552091
20
1.44248
11
0.552091
21
1.59248
0
LINE
8
BLACK
6
CONTINUOUS
10
0.552091
20
1.59248
11
0.702091
21
1.59248
0
LINE
8
BLACK
6
CONTINUOUS
10
0.702091
20
1.59248
11
0.702091
21
1.44248
0
LINE
8
BLACK
6
CONTINUOUS
10
2.4424
20
1.44685
11
2.3874
21
1.44685
0
LINE
8
BLACK
6
CONTINUOUS
10
2.3874
20
1.44685
11
2.3874
21
1.48185
0
LINE
8
BLACK
6
CONTINUOUS
10
2.3874
20
1.48185
11
2.4424
21
1.48185
0
LINE
8
BLACK
6
CONTINUOUS
10
2.4424
20
1.48185
11
2.4424
21
1.44685
0
LINE
8
BLACK
6
CONTINUOUS
10
1.86535
20
1.45907
11
1.78661
21
1.45907
0
LINE
8
BLACK
6
CONTINUOUS
10
1.78661
20
1.45907
11
1.78661
21
1.48427
0
LINE
8
BLACK
6
CONTINUOUS
10
1.78661
20
1.48427
11
1.86535
21
1.48427
0
LINE
8
BLACK
6
CONTINUOUS
10
1.86535
20
1.48427
11
1.86535
21
1.45907
0
LINE
8
BLACK
6
CONTINUOUS
10
2.11339
20
1.45907
11
2.03465
21
1.45907
0
LINE
8
BLACK
6
CONTINUOUS
10
2.03465
20
1.45907
11
2.03465
21
1.48427
0
LINE
8
BLACK
6
CONTINUOUS
10
2.03465
20
1.48427
11
2.11339
21
1.48427
0
LINE
8
BLACK
6
CONTINUOUS
10
2.11339
20
1.48427
11
2.11339
21
1.45907
0
LINE
8
BLACK
6
CONTINUOUS
10
1.86535
20
1.55907
11
1.78661
21
1.55907
0
LINE
8
BLACK
6
CONTINUOUS
10
1.78661
20
1.55907
11
1.78661
21
1.58427
0
LINE
8
BLACK
6
CONTINUOUS
10
1.78661
20
1.58427
11
1.86535
21
1.58427
0
LINE
8
BLACK
6
CONTINUOUS
10
1.86535
20
1.58427
11
1.86535
21
1.55907
0
LINE
8
BLACK
6
CONTINUOUS
10
2.11339
20
1.55907
11
2.03465
21
1.55907
0
LINE
8
BLACK
6
CONTINUOUS
10
2.03465
20
1.55907
11
2.03465
21
1.58427
0
LINE
8
BLACK
6
CONTINUOUS
10
2.03465
20
1.58427
11
2.11339
21
1.58427
0
LINE
8
BLACK
6
CONTINUOUS
10
2.11339
20
1.58427
11
2.11339
21
1.55907
0
LINE
8
BLACK
6
CONTINUOUS
10
0.50524
20
1.63933
11
0.35524
21
1.63933
0
LINE
8
BLACK
6
CONTINUOUS
10
0.35524
20
1.63933
11
0.35524
21
1.78933
0
LINE
8
BLACK
6
CONTINUOUS
10
0.35524
20
1.78933
11
0.50524
21
1.78933
0
LINE
8
BLACK
6
CONTINUOUS
10
0.50524
20
1.78933
11
0.50524
21
1.63933
0
LINE
8
BLACK
6
CONTINUOUS
10
0.702091
20
1.63933
11
0.552091
21
1.63933
0
LINE
8
BLACK
6
CONTINUOUS
10
0.552091
20
1.63933
11
0.552091
21
1.78933
0
LINE
8
BLACK
6
CONTINUOUS
10
0.552091
20
1.78933
11
0.702091
21
1.78933
0
LINE
8
BLACK
6
CONTINUOUS
10
0.702091
20
1.78933
11
0.702091
21
1.63933
0
LINE
8
BLACK
6
CONTINUOUS
10
2.58661
20
1.65748
11
2.45276
21
1.65748
0
LINE
8
BLACK
6
CONTINUOUS
10
2.45276
20
1.65748
11
2.45276
21
1.73228
0
LINE
8
BLACK
6
CONTINUOUS
10
2.45276
20
1.73228
11
2.58661
21
1.73228
0
LINE
8
BLACK
6
CONTINUOUS
10
2.58661
20
1.73228
11
2.58661
21
1.65748
0
LINE
8
BLACK
6
CONTINUOUS
10
2.8622
20
1.65748
11
2.72835
21
1.65748
0
LINE
8
BLACK
6
CONTINUOUS
10
2.72835
20
1.65748
11
2.72835
21
1.73228
0
LINE
8
BLACK
6
CONTINUOUS
10
2.72835
20
1.73228
11
2.8622
21
1.73228
0
LINE
8
BLACK
6
CONTINUOUS
10
2.8622
20
1.73228
11
2.8622
21
1.65748
0
LINE
8
BLACK
6
CONTINUOUS
10
1.82094
20
1.77947
11
1.82366
21
1.77905
0
LINE
8
BLACK
6
CONTINUOUS
10
1.82366
20
1.77905
11
1.82628
21
1.77745
0
LINE
8
BLACK
6
CONTINUOUS
10
1.82628
20
1.77745
11
1.82809
21
1.77496
0
LINE
8
BLACK
6
CONTINUOUS
10
1.82809
20
1.77496
11
1.82881
21
1.77198
0
LINE
8
BLACK
6
CONTINUOUS
10
1.82881
20
1.77198
11
1.82834
21
1.76894
0
LINE
8
BLACK
6
CONTINUOUS
10
1.82834
20
1.76894
11
1.82834
21
1.76894
0
LINE
8
BLACK
6
CONTINUOUS
10
1.82834
20
1.76894
11
1.82701
21
1.76531
0
LINE
8
BLACK
6
CONTINUOUS
10
1.82701
20
1.76531
11
1.82539
21
1.75775
0
LINE
8
BLACK
6
CONTINUOUS
10
1.82539
20
1.75775
11
1.82484
21
1.75003
0
LINE
8
BLACK
6
CONTINUOUS
10
1.82484
20
1.75003
11
1.82538
21
1.74232
0
LINE
8
BLACK
6
CONTINUOUS
10
1.82538
20
1.74232
11
1.82699
21
1.73476
0
LINE
8
BLACK
6
CONTINUOUS
10
1.82699
20
1.73476
11
1.82831
21
1.73112
0
LINE
8
BLACK
6
CONTINUOUS
10
1.82831
20
1.73112
11
1.82831
21
1.73112
0
LINE
8
BLACK
6
CONTINUOUS
10
1.82831
20
1.73112
11
1.82878
21
1.72809
0
LINE
8
BLACK
6
CONTINUOUS
10
1.82878
20
1.72809
11
1.82806
21
1.7251
0
LINE
8
BLACK
6
CONTINUOUS
10
1.82806
20
1.7251
11
1.82624
21
1.72262
0
LINE
8
BLACK
6
CONTINUOUS
10
1.82624
20
1.72262
11
1.82362
21
1.72103
0
LINE
8
BLACK
6
CONTINUOUS
10
1.82362
20
1.72103
11
1.82094
21
1.72061
0
LINE
8
BLACK
6
CONTINUOUS
10
1.82094
20
1.72061
11
1.82094
21
1.72047
0
LINE
8
BLACK
6
CONTINUOUS
10
1.82094
20
1.72047
11
1.77961
21
1.72047
0
LINE
8
BLACK
6
CONTINUOUS
10
1.77961
20
1.72047
11
1.77961
21
1.77953
0
LINE
8
BLACK
6
CONTINUOUS
10
1.77961
20
1.77953
11
1.82094
21
1.77953
0
LINE
8
BLACK
6
CONTINUOUS
10
1.82094
20
1.77953
11
1.82094
21
1.77947
0
LINE
8
BLACK
6
CONTINUOUS
10
1.98039
20
1.72047
11
1.93906
21
1.72047
0
LINE
8
BLACK
6
CONTINUOUS
10
1.93906
20
1.72047
11
1.93906
21
1.72053
0
LINE
8
BLACK
6
CONTINUOUS
10
1.93906
20
1.72053
11
1.93634
21
1.72095
0
LINE
8
BLACK
6
CONTINUOUS
10
1.93634
20
1.72095
11
1.93372
21
1.72255
0
LINE
8
BLACK
6
CONTINUOUS
10
1.93372
20
1.72255
11
1.93191
21
1.72504
0
LINE
8
BLACK
6
CONTINUOUS
10
1.93191
20
1.72504
11
1.93119
21
1.72802
0
LINE
8
BLACK
6
CONTINUOUS
10
1.93119
20
1.72802
11
1.93166
21
1.73106
0
LINE
8
BLACK
6
CONTINUOUS
10
1.93166
20
1.73106
11
1.93166
21
1.73106
0
LINE
8
BLACK
6
CONTINUOUS
10
1.93166
20
1.73106
11
1.93299
21
1.73469
0
LINE
8
BLACK
6
CONTINUOUS
10
1.93299
20
1.73469
11
1.93461
21
1.74225
0
LINE
8
BLACK
6
CONTINUOUS
10
1.93461
20
1.74225
11
1.93516
21
1.74997
0
LINE
8
BLACK
6
CONTINUOUS
10
1.93516
20
1.74997
11
1.93462
21
1.75768
0
LINE
8
BLACK
6
CONTINUOUS
10
1.93462
20
1.75768
11
1.93301
21
1.76524
0
LINE
8
BLACK
6
CONTINUOUS
10
1.93301
20
1.76524
11
1.93169
21
1.76888
0
LINE
8
BLACK
6
CONTINUOUS
10
1.93169
20
1.76888
11
1.93169
21
1.76888
0
LINE
8
BLACK
6
CONTINUOUS
10
1.93169
20
1.76888
11
1.93122
21
1.77191
0
LINE
8
BLACK
6
CONTINUOUS
10
1.93122
20
1.77191
11
1.93194
21
1.7749
0
LINE
8
BLACK
6
CONTINUOUS
10
1.93194
20
1.7749
11
1.93376
21
1.77738
0
LINE
8
BLACK
6
CONTINUOUS
10
1.93376
20
1.77738
11
1.93638
21
1.77897
0
LINE
8
BLACK
6
CONTINUOUS
10
1.93638
20
1.77897
11
1.93906
21
1.77939
0
LINE
8
BLACK
6
CONTINUOUS
10
1.93906
20
1.77939
11
1.93906
21
1.77953
0
LINE
8
BLACK
6
CONTINUOUS
10
1.93906
20
1.77953
11
1.98039
21
1.77953
0
LINE
8
BLACK
6
CONTINUOUS
10
1.98039
20
1.77953
11
1.98039
21
1.72047
0
LINE
8
BLACK
6
CONTINUOUS
10
2.0675
20
1.72333
11
2.0125
21
1.72333
0
LINE
8
BLACK
6
CONTINUOUS
10
2.0125
20
1.72333
11
2.0125
21
1.75833
0
LINE
8
BLACK
6
CONTINUOUS
10
2.0125
20
1.75833
11
2.0675
21
1.75833
0
LINE
8
BLACK
6
CONTINUOUS
10
2.0675
20
1.75833
11
2.0675
21
1.72333
0
LINE
8
BLACK
6
CONTINUOUS
10
2.0675
20
1.79833
11
2.0125
21
1.79833
0
LINE
8
BLACK
6
CONTINUOUS
10
2.0125
20
1.79833
11
2.0125
21
1.83333
0
LINE
8
BLACK
6
CONTINUOUS
10
2.0125
20
1.83333
11
2.0675
21
1.83333
0
LINE
8
BLACK
6
CONTINUOUS
10
2.0675
20
1.83333
11
2.0675
21
1.79833
0
LINE
8
BLACK
6
CONTINUOUS
10
2.58661
20
1.81102
11
2.45276
21
1.81102
0
LINE
8
BLACK
6
CONTINUOUS
10
2.45276
20
1.81102
11
2.45276
21
1.88583
0
LINE
8
BLACK
6
CONTINUOUS
10
2.45276
20
1.88583
11
2.58661
21
1.88583
0
LINE
8
BLACK
6
CONTINUOUS
10
2.58661
20
1.88583
11
2.58661
21
1.81102
0
LINE
8
BLACK
6
CONTINUOUS
10
2.8622
20
1.81102
11
2.72835
21
1.81102
0
LINE
8
BLACK
6
CONTINUOUS
10
2.72835
20
1.81102
11
2.72835
21
1.88583
0
LINE
8
BLACK
6
CONTINUOUS
10
2.72835
20
1.88583
11
2.8622
21
1.88583
0
LINE
8
BLACK
6
CONTINUOUS
10
2.8622
20
1.88583
11
2.8622
21
1.81102
0
LINE
8
BLACK
6
CONTINUOUS
10
1.35151
20
1.91726
11
1.35964
21
1.91411
0
LINE
8
BLACK
6
CONTINUOUS
10
1.35964
20
1.91411
11
1.36705
21
1.90952
0
LINE
8
BLACK
6
CONTINUOUS
10
1.36705
20
1.90952
11
1.3735
21
1.90365
0
LINE
8
BLACK
6
CONTINUOUS
10
1.3735
20
1.90365
11
1.37875
21
1.89669
0
LINE
8
BLACK
6
CONTINUOUS
10
1.37875
20
1.89669
11
1.38264
21
1.88889
0
LINE
8
BLACK
6
CONTINUOUS
10
1.38264
20
1.88889
11
1.38502
21
1.8805
0
LINE
8
BLACK
6
CONTINUOUS
10
1.38502
20
1.8805
11
1.38583
21
1.87182
0
LINE
8
BLACK
6
CONTINUOUS
10
1.38583
20
1.87182
11
1.38502
21
1.86314
0
LINE
8
BLACK
6
CONTINUOUS
10
1.38502
20
1.86314
11
1.38264
21
1.85476
0
LINE
8
BLACK
6
CONTINUOUS
10
1.38264
20
1.85476
11
1.37875
21
1.84695
0
LINE
8
BLACK
6
CONTINUOUS
10
1.37875
20
1.84695
11
1.3735
21
1.83999
0
LINE
8
BLACK
6
CONTINUOUS
10
1.3735
20
1.83999
11
1.36705
21
1.83412
0
LINE
8
BLACK
6
CONTINUOUS
10
1.36705
20
1.83412
11
1.35964
21
1.82953
0
LINE
8
BLACK
6
CONTINUOUS
10
1.35964
20
1.82953
11
1.35151
21
1.82638
0
LINE
8
BLACK
6
CONTINUOUS
10
1.35151
20
1.82638
11
1.34294
21
1.82478
0
LINE
8
BLACK
6
CONTINUOUS
10
1.34294
20
1.82478
11
1.33422
21
1.82478
0
LINE
8
BLACK
6
CONTINUOUS
10
1.33422
20
1.82478
11
1.32565
21
1.82638
0
LINE
8
BLACK
6
CONTINUOUS
10
1.32565
20
1.82638
11
1.31752
21
1.82953
0
LINE
8
BLACK
6
CONTINUOUS
10
1.31752
20
1.82953
11
1.31011
21
1.83412
0
LINE
8
BLACK
6
CONTINUOUS
10
1.31011
20
1.83412
11
1.30367
21
1.83999
0
LINE
8
BLACK
6
CONTINUOUS
10
1.30367
20
1.83999
11
1.29841
21
1.84695
0
LINE
8
BLACK
6
CONTINUOUS
10
1.29841
20
1.84695
11
1.29453
21
1.85476
0
LINE
8
BLACK
6
CONTINUOUS
10
1.29453
20
1.85476
11
1.29214
21
1.86314
0
LINE
8
BLACK
6
CONTINUOUS
10
1.29214
20
1.86314
11
1.29134
21
1.87182
0
LINE
8
BLACK
6
CONTINUOUS
10
1.29134
20
1.87182
11
1.29214
21
1.8805
0
LINE
8
BLACK
6
CONTINUOUS
10
1.29214
20
1.8805
11
1.29453
21
1.88889
0
LINE
8
BLACK
6
CONTINUOUS
10
1.29453
20
1.88889
11
1.29841
21
1.89669
0
LINE
8
BLACK
6
CONTINUOUS
10
1.29841
20
1.89669
11
1.30367
21
1.90365
0
LINE
8
BLACK
6
CONTINUOUS
10
1.30367
20
1.90365
11
1.31011
21
1.90952
0
LINE
8
BLACK
6
CONTINUOUS
10
1.31011
20
1.90952
11
1.31752
21
1.91411
0
LINE
8
BLACK
6
CONTINUOUS
10
1.31752
20
1.91411
11
1.32565
21
1.91726
0
LINE
8
BLACK
6
CONTINUOUS
10
1.32565
20
1.91726
11
1.33422
21
1.91886
0
LINE
8
BLACK
6
CONTINUOUS
10
1.33422
20
1.91886
11
1.34294
21
1.91886
0
LINE
8
BLACK
6
CONTINUOUS
10
1.34294
20
1.91886
11
1.35151
21
1.91726
0
LINE
8
BLACK
6
CONTINUOUS
10
1.54836
20
1.91726
11
1.55649
21
1.91411
0
LINE
8
BLACK
6
CONTINUOUS
10
1.55649
20
1.91411
11
1.5639
21
1.90952
0
LINE
8
BLACK
6
CONTINUOUS
10
1.5639
20
1.90952
11
1.57035
21
1.90365
0
LINE
8
BLACK
6
CONTINUOUS
10
1.57035
20
1.90365
11
1.5756
21
1.89669
0
LINE
8
BLACK
6
CONTINUOUS
10
1.5756
20
1.89669
11
1.57949
21
1.88889
0
LINE
8
BLACK
6
CONTINUOUS
10
1.57949
20
1.88889
11
1.58187
21
1.8805
0
LINE
8
BLACK
6
CONTINUOUS
10
1.58187
20
1.8805
11
1.58268
21
1.87182
0
LINE
8
BLACK
6
CONTINUOUS
10
1.58268
20
1.87182
11
1.58187
21
1.86314
0
LINE
8
BLACK
6
CONTINUOUS
10
1.58187
20
1.86314
11
1.57949
21
1.85476
0
LINE
8
BLACK
6
CONTINUOUS
10
1.57949
20
1.85476
11
1.5756
21
1.84695
0
LINE
8
BLACK
6
CONTINUOUS
10
1.5756
20
1.84695
11
1.57035
21
1.83999
0
LINE
8
BLACK
6
CONTINUOUS
10
1.57035
20
1.83999
11
1.5639
21
1.83412
0
LINE
8
BLACK
6
CONTINUOUS
10
1.5639
20
1.83412
11
1.55649
21
1.82953
0
LINE
8
BLACK
6
CONTINUOUS
10
1.55649
20
1.82953
11
1.54836
21
1.82638
0
LINE
8
BLACK
6
CONTINUOUS
10
1.54836
20
1.82638
11
1.53979
21
1.82478
0
LINE
8
BLACK
6
CONTINUOUS
10
1.53979
20
1.82478
11
1.53107
21
1.82478
0
LINE
8
BLACK
6
CONTINUOUS
10
1.53107
20
1.82478
11
1.5225
21
1.82638
0
LINE
8
BLACK
6
CONTINUOUS
10
1.5225
20
1.82638
11
1.51437
21
1.82953
0
LINE
8
BLACK
6
CONTINUOUS
10
1.51437
20
1.82953
11
1.50696
21
1.83412
0
LINE
8
BLACK
6
CONTINUOUS
10
1.50696
20
1.83412
11
1.50052
21
1.83999
0
LINE
8
BLACK
6
CONTINUOUS
10
1.50052
20
1.83999
11
1.49527
21
1.84695
0
LINE
8
BLACK
6
CONTINUOUS
10
1.49527
20
1.84695
11
1.49138
21
1.85476
0
LINE
8
BLACK
6
CONTINUOUS
10
1.49138
20
1.85476
11
1.48899
21
1.86314
0
LINE
8
BLACK
6
CONTINUOUS
10
1.48899
20
1.86314
11
1.48819
21
1.87182
0
LINE
8
BLACK
6
CONTINUOUS
10
1.48819
20
1.87182
11
1.48899
21
1.8805
0
LINE
8
BLACK
6
CONTINUOUS
10
1.48899
20
1.8805
11
1.49138
21
1.88889
0
LINE
8
BLACK
6
CONTINUOUS
10
1.49138
20
1.88889
11
1.49527
21
1.89669
0
LINE
8
BLACK
6
CONTINUOUS
10
1.49527
20
1.89669
11
1.50052
21
1.90365
0
LINE
8
BLACK
6
CONTINUOUS
10
1.50052
20
1.90365
11
1.50696
21
1.90952
0
LINE
8
BLACK
6
CONTINUOUS
10
1.50696
20
1.90952
11
1.51437
21
1.91411
0
LINE
8
BLACK
6
CONTINUOUS
10
1.51437
20
1.91411
11
1.5225
21
1.91726
0
LINE
8
BLACK
6
CONTINUOUS
10
1.5225
20
1.91726
11
1.53107
21
1.91886
0
LINE
8
BLACK
6
CONTINUOUS
10
1.53107
20
1.91886
11
1.53979
21
1.91886
0
LINE
8
BLACK
6
CONTINUOUS
10
1.53979
20
1.91886
11
1.54836
21
1.91726
0
LINE
8
BLACK
6
CONTINUOUS
10
0.50524
20
1.83618
11
0.35524
21
1.83618
0
LINE
8
BLACK
6
CONTINUOUS
10
0.35524
20
1.83618
11
0.35524
21
1.98618
0
LINE
8
BLACK
6
CONTINUOUS
10
0.35524
20
1.98618
11
0.50524
21
1.98618
0
LINE
8
BLACK
6
CONTINUOUS
10
0.50524
20
1.98618
11
0.50524
21
1.83618
0
LINE
8
BLACK
6
CONTINUOUS
10
0.702091
20
1.83618
11
0.552091
21
1.83618
0
LINE
8
BLACK
6
CONTINUOUS
10
0.552091
20
1.83618
11
0.552091
21
1.98618
0
LINE
8
BLACK
6
CONTINUOUS
10
0.552091
20
1.98618
11
0.702091
21
1.98618
0
LINE
8
BLACK
6
CONTINUOUS
10
0.702091
20
1.98618
11
0.702091
21
1.83618
0
LINE
8
BLACK
6
CONTINUOUS
10
1.86535
20
1.88073
11
1.78661
21
1.88073
0
LINE
8
BLACK
6
CONTINUOUS
10
1.78661
20
1.88073
11
1.78661
21
1.90593
0
LINE
8
BLACK
6
CONTINUOUS
10
1.78661
20
1.90593
11
1.86535
21
1.90593
0
LINE
8
BLACK
6
CONTINUOUS
10
1.86535
20
1.90593
11
1.86535
21
1.88073
0
LINE
8
BLACK
6
CONTINUOUS
10
2.11339
20
1.88073
11
2.03465
21
1.88073
0
LINE
8
BLACK
6
CONTINUOUS
10
2.03465
20
1.88073
11
2.03465
21
1.90593
0
LINE
8
BLACK
6
CONTINUOUS
10
2.03465
20
1.90593
11
2.11339
21
1.90593
0
LINE
8
BLACK
6
CONTINUOUS
10
2.11339
20
1.90593
11
2.11339
21
1.88073
0
LINE
8
BLACK
6
CONTINUOUS
10
1.86535
20
1.98073
11
1.78661
21
1.98073
0
LINE
8
BLACK
6
CONTINUOUS
10
1.78661
20
1.98073
11
1.78661
21
2.00593
0
LINE
8
BLACK
6
CONTINUOUS
10
1.78661
20
2.00593
11
1.86535
21
2.00593
0
LINE
8
BLACK
6
CONTINUOUS
10
1.86535
20
2.00593
11
1.86535
21
1.98073
0
LINE
8
BLACK
6
CONTINUOUS
10
2.11339
20
1.98073
11
2.03465
21
1.98073
0
LINE
8
BLACK
6
CONTINUOUS
10
2.03465
20
1.98073
11
2.03465
21
2.00593
0
LINE
8
BLACK
6
CONTINUOUS
10
2.03465
20
2.00593
11
2.11339
21
2.00593
0
LINE
8
BLACK
6
CONTINUOUS
10
2.11339
20
2.00593
11
2.11339
21
1.98073
0
LINE
8
BLACK
6
CONTINUOUS
10
2.49969
20
1.98535
11
2.43969
21
1.98535
0
LINE
8
BLACK
6
CONTINUOUS
10
2.43969
20
1.98535
11
2.43969
21
2.04535
0
LINE
8
BLACK
6
CONTINUOUS
10
2.43969
20
2.04535
11
2.49969
21
2.04535
0
LINE
8
BLACK
6
CONTINUOUS
10
2.49969
20
2.04535
11
2.49969
21
1.98535
0
LINE
8
BLACK
6
CONTINUOUS
10
2.59969
20
1.98535
11
2.53969
21
1.98535
0
LINE
8
BLACK
6
CONTINUOUS
10
2.53969
20
1.98535
11
2.53969
21
2.04535
0
LINE
8
BLACK
6
CONTINUOUS
10
2.53969
20
2.04535
11
2.59969
21
2.04535
0
LINE
8
BLACK
6
CONTINUOUS
10
2.59969
20
2.04535
11
2.59969
21
1.98535
0
LINE
8
BLACK
6
CONTINUOUS
10
2.73591
20
1.98535
11
2.67591
21
1.98535
0
LINE
8
BLACK
6
CONTINUOUS
10
2.67591
20
1.98535
11
2.67591
21
2.04535
0
LINE
8
BLACK
6
CONTINUOUS
10
2.67591
20
2.04535
11
2.73591
21
2.04535
0
LINE
8
BLACK
6
CONTINUOUS
10
2.73591
20
2.04535
11
2.73591
21
1.98535
0
LINE
8
BLACK
6
CONTINUOUS
10
2.83591
20
1.98535
11
2.77591
21
1.98535
0
LINE
8
BLACK
6
CONTINUOUS
10
2.77591
20
1.98535
11
2.77591
21
2.04535
0
LINE
8
BLACK
6
CONTINUOUS
10
2.77591
20
2.04535
11
2.83591
21
2.04535
0
LINE
8
BLACK
6
CONTINUOUS
10
2.83591
20
2.04535
11
2.83591
21
1.98535
0
LINE
8
BLACK
6
CONTINUOUS
10
0.50524
20
2.03303
11
0.35524
21
2.03303
0
LINE
8
BLACK
6
CONTINUOUS
10
0.35524
20
2.03303
11
0.35524
21
2.18303
0
LINE
8
BLACK
6
CONTINUOUS
10
0.35524
20
2.18303
11
0.50524
21
2.18303
0
LINE
8
BLACK
6
CONTINUOUS
10
0.50524
20
2.18303
11
0.50524
21
2.03303
0
LINE
8
BLACK
6
CONTINUOUS
10
0.702091
20
2.03303
11
0.552091
21
2.03303
0
LINE
8
BLACK
6
CONTINUOUS
10
0.552091
20
2.03303
11
0.552091
21
2.18303
0
LINE
8
BLACK
6
CONTINUOUS
10
0.552091
20
2.18303
11
0.702091
21
2.18303
0
LINE
8
BLACK
6
CONTINUOUS
10
0.702091
20
2.18303
11
0.702091
21
2.03303
0
LINE
8
BLACK
6
CONTINUOUS
10
2.49969
20
2.08535
11
2.43969
21
2.08535
0
LINE
8
BLACK
6
CONTINUOUS
10
2.43969
20
2.08535
11
2.43969
21
2.14535
0
LINE
8
BLACK
6
CONTINUOUS
10
2.43969
20
2.14535
11
2.49969
21
2.14535
0
LINE
8
BLACK
6
CONTINUOUS
10
2.49969
20
2.14535
11
2.49969
21
2.08535
0
LINE
8
BLACK
6
CONTINUOUS
10
2.59969
20
2.08535
11
2.53969
21
2.08535
0
LINE
8
BLACK
6
CONTINUOUS
10
2.53969
20
2.08535
11
2.53969
21
2.14535
0
LINE
8
BLACK
6
CONTINUOUS
10
2.53969
20
2.14535
11
2.59969
21
2.14535
0
LINE
8
BLACK
6
CONTINUOUS
10
2.59969
20
2.14535
11
2.59969
21
2.08535
0
LINE
8
BLACK
6
CONTINUOUS
10
2.73591
20
2.08535
11
2.67591
21
2.08535
0
LINE
8
BLACK
6
CONTINUOUS
10
2.67591
20
2.08535
11
2.67591
21
2.14535
0
LINE
8
BLACK
6
CONTINUOUS
10
2.67591
20
2.14535
11
2.73591
21
2.14535
0
LINE
8
BLACK
6
CONTINUOUS
10
2.73591
20
2.14535
11
2.73591
21
2.08535
0
LINE
8
BLACK
6
CONTINUOUS
10
2.83591
20
2.08535
11
2.77591
21
2.08535
0
LINE
8
BLACK
6
CONTINUOUS
10
2.77591
20
2.08535
11
2.77591
21
2.14535
0
LINE
8
BLACK
6
CONTINUOUS
10
2.77591
20
2.14535
11
2.83591
21
2.14535
0
LINE
8
BLACK
6
CONTINUOUS
10
2.83591
20
2.14535
11
2.83591
21
2.08535
0
LINE
8
BLACK
6
CONTINUOUS
10
1.82094
20
2.19947
11
1.82366
21
2.19905
0
LINE
8
BLACK
6
CONTINUOUS
10
1.82366
20
2.19905
11
1.82628
21
2.19745
0
LINE
8
BLACK
6
CONTINUOUS
10
1.82628
20
2.19745
11
1.82809
21
2.19496
0
LINE
8
BLACK
6
CONTINUOUS
10
1.82809
20
2.19496
11
1.82881
21
2.19198
0
LINE
8
BLACK
6
CONTINUOUS
10
1.82881
20
2.19198
11
1.82834
21
2.18894
0
LINE
8
BLACK
6
CONTINUOUS
10
1.82834
20
2.18894
11
1.82834
21
2.18894
0
LINE
8
BLACK
6
CONTINUOUS
10
1.82834
20
2.18894
11
1.82701
21
2.18531
0
LINE
8
BLACK
6
CONTINUOUS
10
1.82701
20
2.18531
11
1.82539
21
2.17775
0
LINE
8
BLACK
6
CONTINUOUS
10
1.82539
20
2.17775
11
1.82484
21
2.17003
0
LINE
8
BLACK
6
CONTINUOUS
10
1.82484
20
2.17003
11
1.82538
21
2.16232
0
LINE
8
BLACK
6
CONTINUOUS
10
1.82538
20
2.16232
11
1.82699
21
2.15476
0
LINE
8
BLACK
6
CONTINUOUS
10
1.82699
20
2.15476
11
1.82831
21
2.15112
0
LINE
8
BLACK
6
CONTINUOUS
10
1.82831
20
2.15112
11
1.82831
21
2.15112
0
LINE
8
BLACK
6
CONTINUOUS
10
1.82831
20
2.15112
11
1.82878
21
2.14809
0
LINE
8
BLACK
6
CONTINUOUS
10
1.82878
20
2.14809
11
1.82806
21
2.1451
0
LINE
8
BLACK
6
CONTINUOUS
10
1.82806
20
2.1451
11
1.82624
21
2.14262
0
LINE
8
BLACK
6
CONTINUOUS
10
1.82624
20
2.14262
11
1.82362
21
2.14103
0
LINE
8
BLACK
6
CONTINUOUS
10
1.82362
20
2.14103
11
1.82094
21
2.14061
0
LINE
8
BLACK
6
CONTINUOUS
10
1.82094
20
2.14061
11
1.82094
21
2.14047
0
LINE
8
BLACK
6
CONTINUOUS
10
1.82094
20
2.14047
11
1.77961
21
2.14047
0
LINE
8
BLACK
6
CONTINUOUS
10
1.77961
20
2.14047
11
1.77961
21
2.19953
0
LINE
8
BLACK
6
CONTINUOUS
10
1.77961
20
2.19953
11
1.82094
21
2.19953
0
LINE
8
BLACK
6
CONTINUOUS
10
1.82094
20
2.19953
11
1.82094
21
2.19947
0
LINE
8
BLACK
6
CONTINUOUS
10
1.98039
20
2.14047
11
1.93906
21
2.14047
0
LINE
8
BLACK
6
CONTINUOUS
10
1.93906
20
2.14047
11
1.93906
21
2.14053
0
LINE
8
BLACK
6
CONTINUOUS
10
1.93906
20
2.14053
11
1.93634
21
2.14095
0
LINE
8
BLACK
6
CONTINUOUS
10
1.93634
20
2.14095
11
1.93372
21
2.14255
0
LINE
8
BLACK
6
CONTINUOUS
10
1.93372
20
2.14255
11
1.93191
21
2.14504
0
LINE
8
BLACK
6
CONTINUOUS
10
1.93191
20
2.14504
11
1.93119
21
2.14802
0
LINE
8
BLACK
6
CONTINUOUS
10
1.93119
20
2.14802
11
1.93166
21
2.15106
0
LINE
8
BLACK
6
CONTINUOUS
10
1.93166
20
2.15106
11
1.93166
21
2.15106
0
LINE
8
BLACK
6
CONTINUOUS
10
1.93166
20
2.15106
11
1.93299
21
2.15469
0
LINE
8
BLACK
6
CONTINUOUS
10
1.93299
20
2.15469
11
1.93461
21
2.16225
0
LINE
8
BLACK
6
CONTINUOUS
10
1.93461
20
2.16225
11
1.93516
21
2.16997
0
LINE
8
BLACK
6
CONTINUOUS
10
1.93516
20
2.16997
11
1.93462
21
2.17768
0
LINE
8
BLACK
6
CONTINUOUS
10
1.93462
20
2.17768
11
1.93301
21
2.18524
0
LINE
8
BLACK
6
CONTINUOUS
10
1.93301
20
2.18524
11
1.93169
21
2.18888
0
LINE
8
BLACK
6
CONTINUOUS
10
1.93169
20
2.18888
11
1.93169
21
2.18888
0
LINE
8
BLACK
6
CONTINUOUS
10
1.93169
20
2.18888
11
1.93122
21
2.19191
0
LINE
8
BLACK
6
CONTINUOUS
10
1.93122
20
2.19191
11
1.93194
21
2.1949
0
LINE
8
BLACK
6
CONTINUOUS
10
1.93194
20
2.1949
11
1.93376
21
2.19738
0
LINE
8
BLACK
6
CONTINUOUS
10
1.93376
20
2.19738
11
1.93638
21
2.19897
0
LINE
8
BLACK
6
CONTINUOUS
10
1.93638
20
2.19897
11
1.93906
21
2.19939
0
LINE
8
BLACK
6
CONTINUOUS
10
1.93906
20
2.19939
11
1.93906
21
2.19953
0
LINE
8
BLACK
6
CONTINUOUS
10
1.93906
20
2.19953
11
1.98039
21
2.19953
0
LINE
8
BLACK
6
CONTINUOUS
10
1.98039
20
2.19953
11
1.98039
21
2.14047
0
LINE
8
BLACK
6
CONTINUOUS
10
2.0675
20
2.14375
11
2.0125
21
2.14375
0
LINE
8
BLACK
6
CONTINUOUS
10
2.0125
20
2.14375
11
2.0125
21
2.17875
0
LINE
8
BLACK
6
CONTINUOUS
10
2.0125
20
2.17875
11
2.0675
21
2.17875
0
LINE
8
BLACK
6
CONTINUOUS
10
2.0675
20
2.17875
11
2.0675
21
2.14375
0
LINE
8
BLACK
6
CONTINUOUS
10
2.49969
20
2.18535
11
2.43969
21
2.18535
0
LINE
8
BLACK
6
CONTINUOUS
10
2.43969
20
2.18535
11
2.43969
21
2.24535
0
LINE
8
BLACK
6
CONTINUOUS
10
2.43969
20
2.24535
11
2.49969
21
2.24535
0
LINE
8
BLACK
6
CONTINUOUS
10
2.49969
20
2.24535
11
2.49969
21
2.18535
0
LINE
8
BLACK
6
CONTINUOUS
10
2.59969
20
2.18535
11
2.53969
21
2.18535
0
LINE
8
BLACK
6
CONTINUOUS
10
2.53969
20
2.18535
11
2.53969
21
2.24535
0
LINE
8
BLACK
6
CONTINUOUS
10
2.53969
20
2.24535
11
2.59969
21
2.24535
0
LINE
8
BLACK
6
CONTINUOUS
10
2.59969
20
2.24535
11
2.59969
21
2.18535
0
LINE
8
BLACK
6
CONTINUOUS
10
2.73591
20
2.18535
11
2.67591
21
2.18535
0
LINE
8
BLACK
6
CONTINUOUS
10
2.67591
20
2.18535
11
2.67591
21
2.24535
0
LINE
8
BLACK
6
CONTINUOUS
10
2.67591
20
2.24535
11
2.73591
21
2.24535
0
LINE
8
BLACK
6
CONTINUOUS
10
2.73591
20
2.24535
11
2.73591
21
2.18535
0
LINE
8
BLACK
6
CONTINUOUS
10
2.83591
20
2.18535
11
2.77591
21
2.18535
0
LINE
8
BLACK
6
CONTINUOUS
10
2.77591
20
2.18535
11
2.77591
21
2.24535
0
LINE
8
BLACK
6
CONTINUOUS
10
2.77591
20
2.24535
11
2.83591
21
2.24535
0
LINE
8
BLACK
6
CONTINUOUS
10
2.83591
20
2.24535
11
2.83591
21
2.18535
0
LINE
8
BLACK
6
CONTINUOUS
10
2.0675
20
2.21875
11
2.0125
21
2.21875
0
LINE
8
BLACK
6
CONTINUOUS
10
2.0125
20
2.21875
11
2.0125
21
2.25375
0
LINE
8
BLACK
6
CONTINUOUS
10
2.0125
20
2.25375
11
2.0675
21
2.25375
0
LINE
8
BLACK
6
CONTINUOUS
10
2.0675
20
2.25375
11
2.0675
21
2.21875
0
LINE
8
BLACK
6
CONTINUOUS
10
0.50524
20
2.22988
11
0.35524
21
2.22988
0
LINE
8
BLACK
6
CONTINUOUS
10
0.35524
20
2.22988
11
0.35524
21
2.37988
0
LINE
8
BLACK
6
CONTINUOUS
10
0.35524
20
2.37988
11
0.50524
21
2.37988
0
LINE
8
BLACK
6
CONTINUOUS
10
0.50524
20
2.37988
11
0.50524
21
2.22988
0
LINE
8
BLACK
6
CONTINUOUS
10
0.702091
20
2.22988
11
0.552091
21
2.22988
0
LINE
8
BLACK
6
CONTINUOUS
10
0.552091
20
2.22988
11
0.552091
21
2.37988
0
LINE
8
BLACK
6
CONTINUOUS
10
0.552091
20
2.37988
11
0.702091
21
2.37988
0
LINE
8
BLACK
6
CONTINUOUS
10
0.702091
20
2.37988
11
0.702091
21
2.22988
0
LINE
8
BLACK
6
CONTINUOUS
10
1.35151
20
2.33513
11
1.35964
21
2.33198
0
LINE
8
BLACK
6
CONTINUOUS
10
1.35964
20
2.33198
11
1.36705
21
2.3274
0
LINE
8
BLACK
6
CONTINUOUS
10
1.36705
20
2.3274
11
1.3735
21
2.32152
0
LINE
8
BLACK
6
CONTINUOUS
10
1.3735
20
2.32152
11
1.37875
21
2.31456
0
LINE
8
BLACK
6
CONTINUOUS
10
1.37875
20
2.31456
11
1.38264
21
2.30676
0
LINE
8
BLACK
6
CONTINUOUS
10
1.38264
20
2.30676
11
1.38502
21
2.29837
0
LINE
8
BLACK
6
CONTINUOUS
10
1.38502
20
2.29837
11
1.38583
21
2.28969
0
LINE
8
BLACK
6
CONTINUOUS
10
1.38583
20
2.28969
11
1.38502
21
2.28101
0
LINE
8
BLACK
6
CONTINUOUS
10
1.38502
20
2.28101
11
1.38264
21
2.27263
0
LINE
8
BLACK
6
CONTINUOUS
10
1.38264
20
2.27263
11
1.37875
21
2.26482
0
LINE
8
BLACK
6
CONTINUOUS
10
1.37875
20
2.26482
11
1.3735
21
2.25787
0
LINE
8
BLACK
6
CONTINUOUS
10
1.3735
20
2.25787
11
1.36705
21
2.25199
0
LINE
8
BLACK
6
CONTINUOUS
10
1.36705
20
2.25199
11
1.35964
21
2.2474
0
LINE
8
BLACK
6
CONTINUOUS
10
1.35964
20
2.2474
11
1.35151
21
2.24425
0
LINE
8
BLACK
6
CONTINUOUS
10
1.35151
20
2.24425
11
1.34294
21
2.24265
0
LINE
8
BLACK
6
CONTINUOUS
10
1.34294
20
2.24265
11
1.33422
21
2.24265
0
LINE
8
BLACK
6
CONTINUOUS
10
1.33422
20
2.24265
11
1.32565
21
2.24425
0
LINE
8
BLACK
6
CONTINUOUS
10
1.32565
20
2.24425
11
1.31752
21
2.2474
0
LINE
8
BLACK
6
CONTINUOUS
10
1.31752
20
2.2474
11
1.31011
21
2.25199
0
LINE
8
BLACK
6
CONTINUOUS
10
1.31011
20
2.25199
11
1.30367
21
2.25787
0
LINE
8
BLACK
6
CONTINUOUS
10
1.30367
20
2.25787
11
1.29841
21
2.26482
0
LINE
8
BLACK
6
CONTINUOUS
10
1.29841
20
2.26482
11
1.29453
21
2.27263
0
LINE
8
BLACK
6
CONTINUOUS
10
1.29453
20
2.27263
11
1.29214
21
2.28101
0
LINE
8
BLACK
6
CONTINUOUS
10
1.29214
20
2.28101
11
1.29134
21
2.28969
0
LINE
8
BLACK
6
CONTINUOUS
10
1.29134
20
2.28969
11
1.29214
21
2.29837
0
LINE
8
BLACK
6
CONTINUOUS
10
1.29214
20
2.29837
11
1.29453
21
2.30676
0
LINE
8
BLACK
6
CONTINUOUS
10
1.29453
20
2.30676
11
1.29841
21
2.31456
0
LINE
8
BLACK
6
CONTINUOUS
10
1.29841
20
2.31456
11
1.30367
21
2.32152
0
LINE
8
BLACK
6
CONTINUOUS
10
1.30367
20
2.32152
11
1.31011
21
2.3274
0
LINE
8
BLACK
6
CONTINUOUS
10
1.31011
20
2.3274
11
1.31752
21
2.33198
0
LINE
8
BLACK
6
CONTINUOUS
10
1.31752
20
2.33198
11
1.32565
21
2.33513
0
LINE
8
BLACK
6
CONTINUOUS
10
1.32565
20
2.33513
11
1.33422
21
2.33674
0
LINE
8
BLACK
6
CONTINUOUS
10
1.33422
20
2.33674
11
1.34294
21
2.33674
0
LINE
8
BLACK
6
CONTINUOUS
10
1.34294
20
2.33674
11
1.35151
21
2.33513
0
LINE
8
BLACK
6
CONTINUOUS
10
1.54836
20
2.33513
11
1.55649
21
2.33198
0
LINE
8
BLACK
6
CONTINUOUS
10
1.55649
20
2.33198
11
1.5639
21
2.3274
0
LINE
8
BLACK
6
CONTINUOUS
10
1.5639
20
2.3274
11
1.57035
21
2.32152
0
LINE
8
BLACK
6
CONTINUOUS
10
1.57035
20
2.32152
11
1.5756
21
2.31456
0
LINE
8
BLACK
6
CONTINUOUS
10
1.5756
20
2.31456
11
1.57949
21
2.30676
0
LINE
8
BLACK
6
CONTINUOUS
10
1.57949
20
2.30676
11
1.58187
21
2.29837
0
LINE
8
BLACK
6
CONTINUOUS
10
1.58187
20
2.29837
11
1.58268
21
2.28969
0
LINE
8
BLACK
6
CONTINUOUS
10
1.58268
20
2.28969
11
1.58187
21
2.28101
0
LINE
8
BLACK
6
CONTINUOUS
10
1.58187
20
2.28101
11
1.57949
21
2.27263
0
LINE
8
BLACK
6
CONTINUOUS
10
1.57949
20
2.27263
11
1.5756
21
2.26482
0
LINE
8
BLACK
6
CONTINUOUS
10
1.5756
20
2.26482
11
1.57035
21
2.25787
0
LINE
8
BLACK
6
CONTINUOUS
10
1.57035
20
2.25787
11
1.5639
21
2.25199
0
LINE
8
BLACK
6
CONTINUOUS
10
1.5639
20
2.25199
11
1.55649
21
2.2474
0
LINE
8
BLACK
6
CONTINUOUS
10
1.55649
20
2.2474
11
1.54836
21
2.24425
0
LINE
8
BLACK
6
CONTINUOUS
10
1.54836
20
2.24425
11
1.53979
21
2.24265
0
LINE
8
BLACK
6
CONTINUOUS
10
1.53979
20
2.24265
11
1.53107
21
2.24265
0
LINE
8
BLACK
6
CONTINUOUS
10
1.53107
20
2.24265
11
1.5225
21
2.24425
0
LINE
8
BLACK
6
CONTINUOUS
10
1.5225
20
2.24425
11
1.51437
21
2.2474
0
LINE
8
BLACK
6
CONTINUOUS
10
1.51437
20
2.2474
11
1.50696
21
2.25199
0
LINE
8
BLACK
6
CONTINUOUS
10
1.50696
20
2.25199
11
1.50052
21
2.25787
0
LINE
8
BLACK
6
CONTINUOUS
10
1.50052
20
2.25787
11
1.49527
21
2.26482
0
LINE
8
BLACK
6
CONTINUOUS
10
1.49527
20
2.26482
11
1.49138
21
2.27263
0
LINE
8
BLACK
6
CONTINUOUS
10
1.49138
20
2.27263
11
1.48899
21
2.28101
0
LINE
8
BLACK
6
CONTINUOUS
10
1.48899
20
2.28101
11
1.48819
21
2.28969
0
LINE
8
BLACK
6
CONTINUOUS
10
1.48819
20
2.28969
11
1.48899
21
2.29837
0
LINE
8
BLACK
6
CONTINUOUS
10
1.48899
20
2.29837
11
1.49138
21
2.30676
0
LINE
8
BLACK
6
CONTINUOUS
10
1.49138
20
2.30676
11
1.49527
21
2.31456
0
LINE
8
BLACK
6
CONTINUOUS
10
1.49527
20
2.31456
11
1.50052
21
2.32152
0
LINE
8
BLACK
6
CONTINUOUS
10
1.50052
20
2.32152
11
1.50696
21
2.3274
0
LINE
8
BLACK
6
CONTINUOUS
10
1.50696
20
2.3274
11
1.51437
21
2.33198
0
LINE
8
BLACK
6
CONTINUOUS
10
1.51437
20
2.33198
11
1.5225
21
2.33513
0
LINE
8
BLACK
6
CONTINUOUS
10
1.5225
20
2.33513
11
1.53107
21
2.33674
0
LINE
8
BLACK
6
CONTINUOUS
10
1.53107
20
2.33674
11
1.53979
21
2.33674
0
LINE
8
BLACK
6
CONTINUOUS
10
1.53979
20
2.33674
11
1.54836
21
2.33513
0
LINE
8
BLACK
6
CONTINUOUS
10
2.49969
20
2.28535
11
2.43969
21
2.28535
0
LINE
8
BLACK
6
CONTINUOUS
10
2.43969
20
2.28535
11
2.43969
21
2.34535
0
LINE
8
BLACK
6
CONTINUOUS
10
2.43969
20
2.34535
11
2.49969
21
2.34535
0
LINE
8
BLACK
6
CONTINUOUS
10
2.49969
20
2.34535
11
2.49969
21
2.28535
0
LINE
8
BLACK
6
CONTINUOUS
10
2.59969
20
2.28535
11
2.53969
21
2.28535
0
LINE
8
BLACK
6
CONTINUOUS
10
2.53969
20
2.28535
11
2.53969
21
2.34535
0
LINE
8
BLACK
6
CONTINUOUS
10
2.53969
20
2.34535
11
2.59969
21
2.34535
0
LINE
8
BLACK
6
CONTINUOUS
10
2.59969
20
2.34535
11
2.59969
21
2.28535
0
LINE
8
BLACK
6
CONTINUOUS
10
2.73591
20
2.28535
11
2.67591
21
2.28535
0
LINE
8
BLACK
6
CONTINUOUS
10
2.67591
20
2.28535
11
2.67591
21
2.34535
0
LINE
8
BLACK
6
CONTINUOUS
10
2.67591
20
2.34535
11
2.73591
21
2.34535
0
LINE
8
BLACK
6
CONTINUOUS
10
2.73591
20
2.34535
11
2.73591
21
2.28535
0
LINE
8
BLACK
6
CONTINUOUS
10
2.83591
20
2.28535
11
2.77591
21
2.28535
0
LINE
8
BLACK
6
CONTINUOUS
10
2.77591
20
2.28535
11
2.77591
21
2.34535
0
LINE
8
BLACK
6
CONTINUOUS
10
2.77591
20
2.34535
11
2.83591
21
2.34535
0
LINE
8
BLACK
6
CONTINUOUS
10
2.83591
20
2.34535
11
2.83591
21
2.28535
0
LINE
8
BLACK
6
CONTINUOUS
10
1.86535
20
2.3024
11
1.78661
21
2.3024
0
LINE
8
BLACK
6
CONTINUOUS
10
1.78661
20
2.3024
11
1.78661
21
2.3276
0
LINE
8
BLACK
6
CONTINUOUS
10
1.78661
20
2.3276
11
1.86535
21
2.3276
0
LINE
8
BLACK
6
CONTINUOUS
10
1.86535
20
2.3276
11
1.86535
21
2.3024
0
LINE
8
BLACK
6
CONTINUOUS
10
2.11339
20
2.3024
11
2.03465
21
2.3024
0
LINE
8
BLACK
6
CONTINUOUS
10
2.03465
20
2.3024
11
2.03465
21
2.3276
0
LINE
8
BLACK
6
CONTINUOUS
10
2.03465
20
2.3276
11
2.11339
21
2.3276
0
LINE
8
BLACK
6
CONTINUOUS
10
2.11339
20
2.3276
11
2.11339
21
2.3024
0
LINE
8
BLACK
6
CONTINUOUS
10
1.86535
20
2.4024
11
1.78661
21
2.4024
0
LINE
8
BLACK
6
CONTINUOUS
10
1.78661
20
2.4024
11
1.78661
21
2.4276
0
LINE
8
BLACK
6
CONTINUOUS
10
1.78661
20
2.4276
11
1.86535
21
2.4276
0
LINE
8
BLACK
6
CONTINUOUS
10
1.86535
20
2.4276
11
1.86535
21
2.4024
0
LINE
8
BLACK
6
CONTINUOUS
10
2.11339
20
2.4024
11
2.03465
21
2.4024
0
LINE
8
BLACK
6
CONTINUOUS
10
2.03465
20
2.4024
11
2.03465
21
2.4276
0
LINE
8
BLACK
6
CONTINUOUS
10
2.03465
20
2.4276
11
2.11339
21
2.4276
0
LINE
8
BLACK
6
CONTINUOUS
10
2.11339
20
2.4276
11
2.11339
21
2.4024
0
LINE
8
BLACK
6
CONTINUOUS
10
0.50524
20
2.42673
11
0.35524
21
2.42673
0
LINE
8
BLACK
6
CONTINUOUS
10
0.35524
20
2.42673
11
0.35524
21
2.57673
0
LINE
8
BLACK
6
CONTINUOUS
10
0.35524
20
2.57673
11
0.50524
21
2.57673
0
LINE
8
BLACK
6
CONTINUOUS
10
0.50524
20
2.57673
11
0.50524
21
2.42673
0
LINE
8
BLACK
6
CONTINUOUS
10
0.702091
20
2.42673
11
0.552091
21
2.42673
0
LINE
8
BLACK
6
CONTINUOUS
10
0.552091
20
2.42673
11
0.552091
21
2.57673
0
LINE
8
BLACK
6
CONTINUOUS
10
0.552091
20
2.57673
11
0.702091
21
2.57673
0
LINE
8
BLACK
6
CONTINUOUS
10
0.702091
20
2.57673
11
0.702091
21
2.42673
0
LINE
8
BLACK
6
CONTINUOUS
10
2.5975
20
2.465
11
2.5425
21
2.465
0
LINE
8
BLACK
6
CONTINUOUS
10
2.5425
20
2.465
11
2.5425
21
2.5
0
LINE
8
BLACK
6
CONTINUOUS
10
2.5425
20
2.5
11
2.5975
21
2.5
0
LINE
8
BLACK
6
CONTINUOUS
10
2.5975
20
2.5
11
2.5975
21
2.465
0
LINE
8
BLACK
6
CONTINUOUS
10
2.68247
20
2.50413
11
2.68566
21
2.502
0
LINE
8
BLACK
6
CONTINUOUS
10
2.68566
20
2.502
11
2.68779
21
2.49881
0
LINE
8
BLACK
6
CONTINUOUS
10
2.68779
20
2.49881
11
2.68854
21
2.49504
0
LINE
8
BLACK
6
CONTINUOUS
10
2.68854
20
2.49504
11
2.68854
21
2.47535
0
LINE
8
BLACK
6
CONTINUOUS
10
2.68854
20
2.47535
11
2.68779
21
2.47159
0
LINE
8
BLACK
6
CONTINUOUS
10
2.68779
20
2.47159
11
2.68566
21
2.46839
0
LINE
8
BLACK
6
CONTINUOUS
10
2.68566
20
2.46839
11
2.68247
21
2.46626
0
LINE
8
BLACK
6
CONTINUOUS
10
2.68247
20
2.46626
11
2.6787
21
2.46551
0
LINE
8
BLACK
6
CONTINUOUS
10
2.6787
20
2.46551
11
2.6413
21
2.46551
0
LINE
8
BLACK
6
CONTINUOUS
10
2.6413
20
2.46551
11
2.63753
21
2.46626
0
LINE
8
BLACK
6
CONTINUOUS
10
2.63753
20
2.46626
11
2.63434
21
2.46839
0
LINE
8
BLACK
6
CONTINUOUS
10
2.63434
20
2.46839
11
2.63221
21
2.47159
0
LINE
8
BLACK
6
CONTINUOUS
10
2.63221
20
2.47159
11
2.63146
21
2.47535
0
LINE
8
BLACK
6
CONTINUOUS
10
2.63146
20
2.47535
11
2.63146
21
2.49504
0
LINE
8
BLACK
6
CONTINUOUS
10
2.63146
20
2.49504
11
2.63221
21
2.49881
0
LINE
8
BLACK
6
CONTINUOUS
10
2.63221
20
2.49881
11
2.63434
21
2.502
0
LINE
8
BLACK
6
CONTINUOUS
10
2.63434
20
2.502
11
2.63753
21
2.50413
0
LINE
8
BLACK
6
CONTINUOUS
10
2.63753
20
2.50413
11
2.6413
21
2.50488
0
LINE
8
BLACK
6
CONTINUOUS
10
2.6413
20
2.50488
11
2.6787
21
2.50488
0
LINE
8
BLACK
6
CONTINUOUS
10
2.6787
20
2.50488
11
2.68247
21
2.50413
0
LINE
8
BLACK
6
CONTINUOUS
10
2.5975
20
2.54
11
2.5425
21
2.54
0
LINE
8
BLACK
6
CONTINUOUS
10
2.5425
20
2.54
11
2.5425
21
2.575
0
LINE
8
BLACK
6
CONTINUOUS
10
2.5425
20
2.575
11
2.5975
21
2.575
0
LINE
8
BLACK
6
CONTINUOUS
10
2.5975
20
2.575
11
2.5975
21
2.54
0
LINE
8
BLACK
6
CONTINUOUS
10
2.68247
20
2.57894
11
2.68566
21
2.5768
0
LINE
8
BLACK
6
CONTINUOUS
10
2.68566
20
2.5768
11
2.68779
21
2.57361
0
LINE
8
BLACK
6
CONTINUOUS
10
2.68779
20
2.57361
11
2.68854
21
2.56984
0
LINE
8
BLACK
6
CONTINUOUS
10
2.68854
20
2.56984
11
2.68854
21
2.55016
0
LINE
8
BLACK
6
CONTINUOUS
10
2.68854
20
2.55016
11
2.68779
21
2.54639
0
LINE
8
BLACK
6
CONTINUOUS
10
2.68779
20
2.54639
11
2.68566
21
2.5432
0
LINE
8
BLACK
6
CONTINUOUS
10
2.68566
20
2.5432
11
2.68247
21
2.54106
0
LINE
8
BLACK
6
CONTINUOUS
10
2.68247
20
2.54106
11
2.6787
21
2.54031
0
LINE
8
BLACK
6
CONTINUOUS
10
2.6787
20
2.54031
11
2.6413
21
2.54031
0
LINE
8
BLACK
6
CONTINUOUS
10
2.6413
20
2.54031
11
2.63753
21
2.54106
0
LINE
8
BLACK
6
CONTINUOUS
10
2.63753
20
2.54106
11
2.63434
21
2.5432
0
LINE
8
BLACK
6
CONTINUOUS
10
2.63434
20
2.5432
11
2.63221
21
2.54639
0
LINE
8
BLACK
6
CONTINUOUS
10
2.63221
20
2.54639
11
2.63146
21
2.55016
0
LINE
8
BLACK
6
CONTINUOUS
10
2.63146
20
2.55016
11
2.63146
21
2.56984
0
LINE
8
BLACK
6
CONTINUOUS
10
2.63146
20
2.56984
11
2.63221
21
2.57361
0
LINE
8
BLACK
6
CONTINUOUS
10
2.63221
20
2.57361
11
2.63434
21
2.5768
0
LINE
8
BLACK
6
CONTINUOUS
10
2.63434
20
2.5768
11
2.63753
21
2.57894
0
LINE
8
BLACK
6
CONTINUOUS
10
2.63753
20
2.57894
11
2.6413
21
2.57969
0
LINE
8
BLACK
6
CONTINUOUS
10
2.6413
20
2.57969
11
2.6787
21
2.57969
0
LINE
8
BLACK
6
CONTINUOUS
10
2.6787
20
2.57969
11
2.68247
21
2.57894
0
LINE
8
BLACK
6
CONTINUOUS
10
1.82094
20
2.61947
11
1.82366
21
2.61905
0
LINE
8
BLACK
6
CONTINUOUS
10
1.82366
20
2.61905
11
1.82628
21
2.61745
0
LINE
8
BLACK
6
CONTINUOUS
10
1.82628
20
2.61745
11
1.82809
21
2.61496
0
LINE
8
BLACK
6
CONTINUOUS
10
1.82809
20
2.61496
11
1.82881
21
2.61198
0
LINE
8
BLACK
6
CONTINUOUS
10
1.82881
20
2.61198
11
1.82834
21
2.60894
0
LINE
8
BLACK
6
CONTINUOUS
10
1.82834
20
2.60894
11
1.82834
21
2.60894
0
LINE
8
BLACK
6
CONTINUOUS
10
1.82834
20
2.60894
11
1.82701
21
2.60531
0
LINE
8
BLACK
6
CONTINUOUS
10
1.82701
20
2.60531
11
1.82539
21
2.59775
0
LINE
8
BLACK
6
CONTINUOUS
10
1.82539
20
2.59775
11
1.82484
21
2.59003
0
LINE
8
BLACK
6
CONTINUOUS
10
1.82484
20
2.59003
11
1.82538
21
2.58232
0
LINE
8
BLACK
6
CONTINUOUS
10
1.82538
20
2.58232
11
1.82699
21
2.57476
0
LINE
8
BLACK
6
CONTINUOUS
10
1.82699
20
2.57476
11
1.82831
21
2.57112
0
LINE
8
BLACK
6
CONTINUOUS
10
1.82831
20
2.57112
11
1.82831
21
2.57112
0
LINE
8
BLACK
6
CONTINUOUS
10
1.82831
20
2.57112
11
1.82878
21
2.56809
0
LINE
8
BLACK
6
CONTINUOUS
10
1.82878
20
2.56809
11
1.82806
21
2.5651
0
LINE
8
BLACK
6
CONTINUOUS
10
1.82806
20
2.5651
11
1.82624
21
2.56262
0
LINE
8
BLACK
6
CONTINUOUS
10
1.82624
20
2.56262
11
1.82362
21
2.56103
0
LINE
8
BLACK
6
CONTINUOUS
10
1.82362
20
2.56103
11
1.82094
21
2.56061
0
LINE
8
BLACK
6
CONTINUOUS
10
1.82094
20
2.56061
11
1.82094
21
2.56047
0
LINE
8
BLACK
6
CONTINUOUS
10
1.82094
20
2.56047
11
1.77961
21
2.56047
0
LINE
8
BLACK
6
CONTINUOUS
10
1.77961
20
2.56047
11
1.77961
21
2.61953
0
LINE
8
BLACK
6
CONTINUOUS
10
1.77961
20
2.61953
11
1.82094
21
2.61953
0
LINE
8
BLACK
6
CONTINUOUS
10
1.82094
20
2.61953
11
1.82094
21
2.61947
0
LINE
8
BLACK
6
CONTINUOUS
10
1.98039
20
2.56047
11
1.93906
21
2.56047
0
LINE
8
BLACK
6
CONTINUOUS
10
1.93906
20
2.56047
11
1.93906
21
2.56053
0
LINE
8
BLACK
6
CONTINUOUS
10
1.93906
20
2.56053
11
1.93634
21
2.56095
0
LINE
8
BLACK
6
CONTINUOUS
10
1.93634
20
2.56095
11
1.93372
21
2.56255
0
LINE
8
BLACK
6
CONTINUOUS
10
1.93372
20
2.56255
11
1.93191
21
2.56504
0
LINE
8
BLACK
6
CONTINUOUS
10
1.93191
20
2.56504
11
1.93119
21
2.56802
0
LINE
8
BLACK
6
CONTINUOUS
10
1.93119
20
2.56802
11
1.93166
21
2.57106
0
LINE
8
BLACK
6
CONTINUOUS
10
1.93166
20
2.57106
11
1.93166
21
2.57106
0
LINE
8
BLACK
6
CONTINUOUS
10
1.93166
20
2.57106
11
1.93299
21
2.57469
0
LINE
8
BLACK
6
CONTINUOUS
10
1.93299
20
2.57469
11
1.93461
21
2.58225
0
LINE
8
BLACK
6
CONTINUOUS
10
1.93461
20
2.58225
11
1.93516
21
2.58997
0
LINE
8
BLACK
6
CONTINUOUS
10
1.93516
20
2.58997
11
1.93462
21
2.59768
0
LINE
8
BLACK
6
CONTINUOUS
10
1.93462
20
2.59768
11
1.93301
21
2.60524
0
LINE
8
BLACK
6
CONTINUOUS
10
1.93301
20
2.60524
11
1.93169
21
2.60888
0
LINE
8
BLACK
6
CONTINUOUS
10
1.93169
20
2.60888
11
1.93169
21
2.60888
0
LINE
8
BLACK
6
CONTINUOUS
10
1.93169
20
2.60888
11
1.93122
21
2.61191
0
LINE
8
BLACK
6
CONTINUOUS
10
1.93122
20
2.61191
11
1.93194
21
2.6149
0
LINE
8
BLACK
6
CONTINUOUS
10
1.93194
20
2.6149
11
1.93376
21
2.61738
0
LINE
8
BLACK
6
CONTINUOUS
10
1.93376
20
2.61738
11
1.93638
21
2.61897
0
LINE
8
BLACK
6
CONTINUOUS
10
1.93638
20
2.61897
11
1.93906
21
2.61939
0
LINE
8
BLACK
6
CONTINUOUS
10
1.93906
20
2.61939
11
1.93906
21
2.61953
0
LINE
8
BLACK
6
CONTINUOUS
10
1.93906
20
2.61953
11
1.98039
21
2.61953
0
LINE
8
BLACK
6
CONTINUOUS
10
1.98039
20
2.61953
11
1.98039
21
2.56047
0
LINE
8
BLACK
6
CONTINUOUS
10
2.0675
20
2.56417
11
2.0125
21
2.56417
0
LINE
8
BLACK
6
CONTINUOUS
10
2.0125
20
2.56417
11
2.0125
21
2.59917
0
LINE
8
BLACK
6
CONTINUOUS
10
2.0125
20
2.59917
11
2.0675
21
2.59917
0
LINE
8
BLACK
6
CONTINUOUS
10
2.0675
20
2.59917
11
2.0675
21
2.56417
0
LINE
8
BLACK
6
CONTINUOUS
10
2.87543
20
2.58205
11
2.80457
21
2.58205
0
LINE
8
BLACK
6
CONTINUOUS
10
2.80457
20
2.58205
11
2.80457
21
2.68047
0
LINE
8
BLACK
6
CONTINUOUS
10
2.80457
20
2.68047
11
2.87543
21
2.68047
0
LINE
8
BLACK
6
CONTINUOUS
10
2.87543
20
2.68047
11
2.87543
21
2.58205
0
LINE
8
BLACK
6
CONTINUOUS
10
0.50524
20
2.62358
11
0.35524
21
2.62358
0
LINE
8
BLACK
6
CONTINUOUS
10
0.35524
20
2.62358
11
0.35524
21
2.77358
0
LINE
8
BLACK
6
CONTINUOUS
10
0.35524
20
2.77358
11
0.50524
21
2.77358
0
LINE
8
BLACK
6
CONTINUOUS
10
0.50524
20
2.77358
11
0.50524
21
2.62358
0
LINE
8
BLACK
6
CONTINUOUS
10
0.702091
20
2.62358
11
0.552091
21
2.62358
0
LINE
8
BLACK
6
CONTINUOUS
10
0.552091
20
2.62358
11
0.552091
21
2.77358
0
LINE
8
BLACK
6
CONTINUOUS
10
0.552091
20
2.77358
11
0.702091
21
2.77358
0
LINE
8
BLACK
6
CONTINUOUS
10
0.702091
20
2.77358
11
0.702091
21
2.62358
0
LINE
8
BLACK
6
CONTINUOUS
10
2.0675
20
2.63917
11
2.0125
21
2.63917
0
LINE
8
BLACK
6
CONTINUOUS
10
2.0125
20
2.63917
11
2.0125
21
2.67417
0
LINE
8
BLACK
6
CONTINUOUS
10
2.0125
20
2.67417
11
2.0675
21
2.67417
0
LINE
8
BLACK
6
CONTINUOUS
10
2.0675
20
2.67417
11
2.0675
21
2.63917
0
LINE
8
BLACK
6
CONTINUOUS
10
1.35151
20
2.75301
11
1.35964
21
2.74986
0
LINE
8
BLACK
6
CONTINUOUS
10
1.35964
20
2.74986
11
1.36705
21
2.74527
0
LINE
8
BLACK
6
CONTINUOUS
10
1.36705
20
2.74527
11
1.3735
21
2.73939
0
LINE
8
BLACK
6
CONTINUOUS
10
1.3735
20
2.73939
11
1.37875
21
2.73244
0
LINE
8
BLACK
6
CONTINUOUS
10
1.37875
20
2.73244
11
1.38264
21
2.72463
0
LINE
8
BLACK
6
CONTINUOUS
10
1.38264
20
2.72463
11
1.38502
21
2.71625
0
LINE
8
BLACK
6
CONTINUOUS
10
1.38502
20
2.71625
11
1.38583
21
2.70756
0
LINE
8
BLACK
6
CONTINUOUS
10
1.38583
20
2.70756
11
1.38502
21
2.69888
0
LINE
8
BLACK
6
CONTINUOUS
10
1.38502
20
2.69888
11
1.38264
21
2.6905
0
LINE
8
BLACK
6
CONTINUOUS
10
1.38264
20
2.6905
11
1.37875
21
2.68269
0
LINE
8
BLACK
6
CONTINUOUS
10
1.37875
20
2.68269
11
1.3735
21
2.67574
0
LINE
8
BLACK
6
CONTINUOUS
10
1.3735
20
2.67574
11
1.36705
21
2.66986
0
LINE
8
BLACK
6
CONTINUOUS
10
1.36705
20
2.66986
11
1.35964
21
2.66527
0
LINE
8
BLACK
6
CONTINUOUS
10
1.35964
20
2.66527
11
1.35151
21
2.66212
0
LINE
8
BLACK
6
CONTINUOUS
10
1.35151
20
2.66212
11
1.34294
21
2.66052
0
LINE
8
BLACK
6
CONTINUOUS
10
1.34294
20
2.66052
11
1.33422
21
2.66052
0
LINE
8
BLACK
6
CONTINUOUS
10
1.33422
20
2.66052
11
1.32565
21
2.66212
0
LINE
8
BLACK
6
CONTINUOUS
10
1.32565
20
2.66212
11
1.31752
21
2.66527
0
LINE
8
BLACK
6
CONTINUOUS
10
1.31752
20
2.66527
11
1.31011
21
2.66986
0
LINE
8
BLACK
6
CONTINUOUS
10
1.31011
20
2.66986
11
1.30367
21
2.67574
0
LINE
8
BLACK
6
CONTINUOUS
10
1.30367
20
2.67574
11
1.29841
21
2.68269
0
LINE
8
BLACK
6
CONTINUOUS
10
1.29841
20
2.68269
11
1.29453
21
2.6905
0
LINE
8
BLACK
6
CONTINUOUS
10
1.29453
20
2.6905
11
1.29214
21
2.69888
0
LINE
8
BLACK
6
CONTINUOUS
10
1.29214
20
2.69888
11
1.29134
21
2.70756
0
LINE
8
BLACK
6
CONTINUOUS
10
1.29134
20
2.70756
11
1.29214
21
2.71625
0
LINE
8
BLACK
6
CONTINUOUS
10
1.29214
20
2.71625
11
1.29453
21
2.72463
0
LINE
8
BLACK
6
CONTINUOUS
10
1.29453
20
2.72463
11
1.29841
21
2.73244
0
LINE
8
BLACK
6
CONTINUOUS
10
1.29841
20
2.73244
11
1.30367
21
2.73939
0
LINE
8
BLACK
6
CONTINUOUS
10
1.30367
20
2.73939
11
1.31011
21
2.74527
0
LINE
8
BLACK
6
CONTINUOUS
10
1.31011
20
2.74527
11
1.31752
21
2.74986
0
LINE
8
BLACK
6
CONTINUOUS
10
1.31752
20
2.74986
11
1.32565
21
2.75301
0
LINE
8
BLACK
6
CONTINUOUS
10
1.32565
20
2.75301
11
1.33422
21
2.75461
0
LINE
8
BLACK
6
CONTINUOUS
10
1.33422
20
2.75461
11
1.34294
21
2.75461
0
LINE
8
BLACK
6
CONTINUOUS
10
1.34294
20
2.75461
11
1.35151
21
2.75301
0
LINE
8
BLACK
6
CONTINUOUS
10
1.54836
20
2.75301
11
1.55649
21
2.74986
0
LINE
8
BLACK
6
CONTINUOUS
10
1.55649
20
2.74986
11
1.5639
21
2.74527
0
LINE
8
BLACK
6
CONTINUOUS
10
1.5639
20
2.74527
11
1.57035
21
2.73939
0
LINE
8
BLACK
6
CONTINUOUS
10
1.57035
20
2.73939
11
1.5756
21
2.73244
0
LINE
8
BLACK
6
CONTINUOUS
10
1.5756
20
2.73244
11
1.57949
21
2.72463
0
LINE
8
BLACK
6
CONTINUOUS
10
1.57949
20
2.72463
11
1.58187
21
2.71625
0
LINE
8
BLACK
6
CONTINUOUS
10
1.58187
20
2.71625
11
1.58268
21
2.70756
0
LINE
8
BLACK
6
CONTINUOUS
10
1.58268
20
2.70756
11
1.58187
21
2.69888
0
LINE
8
BLACK
6
CONTINUOUS
10
1.58187
20
2.69888
11
1.57949
21
2.6905
0
LINE
8
BLACK
6
CONTINUOUS
10
1.57949
20
2.6905
11
1.5756
21
2.68269
0
LINE
8
BLACK
6
CONTINUOUS
10
1.5756
20
2.68269
11
1.57035
21
2.67574
0
LINE
8
BLACK
6
CONTINUOUS
10
1.57035
20
2.67574
11
1.5639
21
2.66986
0
LINE
8
BLACK
6
CONTINUOUS
10
1.5639
20
2.66986
11
1.55649
21
2.66527
0
LINE
8
BLACK
6
CONTINUOUS
10
1.55649
20
2.66527
11
1.54836
21
2.66212
0
LINE
8
BLACK
6
CONTINUOUS
10
1.54836
20
2.66212
11
1.53979
21
2.66052
0
LINE
8
BLACK
6
CONTINUOUS
10
1.53979
20
2.66052
11
1.53107
21
2.66052
0
LINE
8
BLACK
6
CONTINUOUS
10
1.53107
20
2.66052
11
1.5225
21
2.66212
0
LINE
8
BLACK
6
CONTINUOUS
10
1.5225
20
2.66212
11
1.51437
21
2.66527
0
LINE
8
BLACK
6
CONTINUOUS
10
1.51437
20
2.66527
11
1.50696
21
2.66986
0
LINE
8
BLACK
6
CONTINUOUS
10
1.50696
20
2.66986
11
1.50052
21
2.67574
0
LINE
8
BLACK
6
CONTINUOUS
10
1.50052
20
2.67574
11
1.49527
21
2.68269
0
LINE
8
BLACK
6
CONTINUOUS
10
1.49527
20
2.68269
11
1.49138
21
2.6905
0
LINE
8
BLACK
6
CONTINUOUS
10
1.49138
20
2.6905
11
1.48899
21
2.69888
0
LINE
8
BLACK
6
CONTINUOUS
10
1.48899
20
2.69888
11
1.48819
21
2.70756
0
LINE
8
BLACK
6
CONTINUOUS
10
1.48819
20
2.70756
11
1.48899
21
2.71625
0
LINE
8
BLACK
6
CONTINUOUS
10
1.48899
20
2.71625
11
1.49138
21
2.72463
0
LINE
8
BLACK
6
CONTINUOUS
10
1.49138
20
2.72463
11
1.49527
21
2.73244
0
LINE
8
BLACK
6
CONTINUOUS
10
1.49527
20
2.73244
11
1.50052
21
2.73939
0
LINE
8
BLACK
6
CONTINUOUS
10
1.50052
20
2.73939
11
1.50696
21
2.74527
0
LINE
8
BLACK
6
CONTINUOUS
10
1.50696
20
2.74527
11
1.51437
21
2.74986
0
LINE
8
BLACK
6
CONTINUOUS
10
1.51437
20
2.74986
11
1.5225
21
2.75301
0
LINE
8
BLACK
6
CONTINUOUS
10
1.5225
20
2.75301
11
1.53107
21
2.75461
0
LINE
8
BLACK
6
CONTINUOUS
10
1.53107
20
2.75461
11
1.53979
21
2.75461
0
LINE
8
BLACK
6
CONTINUOUS
10
1.53979
20
2.75461
11
1.54836
21
2.75301
0
LINE
8
BLACK
6
CONTINUOUS
10
2.44
20
2.68
11
2.38
21
2.68
0
LINE
8
BLACK
6
CONTINUOUS
10
2.38
20
2.68
11
2.38
21
2.74
0
LINE
8
BLACK
6
CONTINUOUS
10
2.38
20
2.74
11
2.44
21
2.74
0
LINE
8
BLACK
6
CONTINUOUS
10
2.44
20
2.74
11
2.44
21
2.68
0
LINE
8
BLACK
6
CONTINUOUS
10
2.54
20
2.68
11
2.48
21
2.68
0
LINE
8
BLACK
6
CONTINUOUS
10
2.48
20
2.68
11
2.48
21
2.74
0
LINE
8
BLACK
6
CONTINUOUS
10
2.48
20
2.74
11
2.54
21
2.74
0
LINE
8
BLACK
6
CONTINUOUS
10
2.54
20
2.74
11
2.54
21
2.68
0
LINE
8
BLACK
6
CONTINUOUS
10
2.64
20
2.6825
11
2.605
21
2.6825
0
LINE
8
BLACK
6
CONTINUOUS
10
2.605
20
2.6825
11
2.605
21
2.7375
0
LINE
8
BLACK
6
CONTINUOUS
10
2.605
20
2.7375
11
2.64
21
2.7375
0
LINE
8
BLACK
6
CONTINUOUS
10
2.64
20
2.7375
11
2.64
21
2.6825
0
LINE
8
BLACK
6
CONTINUOUS
10
2.715
20
2.6825
11
2.68
21
2.6825
0
LINE
8
BLACK
6
CONTINUOUS
10
2.68
20
2.6825
11
2.68
21
2.7375
0
LINE
8
BLACK
6
CONTINUOUS
10
2.68
20
2.7375
11
2.715
21
2.7375
0
LINE
8
BLACK
6
CONTINUOUS
10
2.715
20
2.7375
11
2.715
21
2.6825
0
LINE
8
BLACK
6
CONTINUOUS
10
1.86535
20
2.72407
11
1.78661
21
2.72407
0
LINE
8
BLACK
6
CONTINUOUS
10
1.78661
20
2.72407
11
1.78661
21
2.74927
0
LINE
8
BLACK
6
CONTINUOUS
10
1.78661
20
2.74927
11
1.86535
21
2.74927
0
LINE
8
BLACK
6
CONTINUOUS
10
1.86535
20
2.74927
11
1.86535
21
2.72407
0
LINE
8
BLACK
6
CONTINUOUS
10
2.11339
20
2.72407
11
2.03465
21
2.72407
0
LINE
8
BLACK
6
CONTINUOUS
10
2.03465
20
2.72407
11
2.03465
21
2.74927
0
LINE
8
BLACK
6
CONTINUOUS
10
2.03465
20
2.74927
11
2.11339
21
2.74927
0
LINE
8
BLACK
6
CONTINUOUS
10
2.11339
20
2.74927
11
2.11339
21
2.72407
0
LINE
8
BLACK
6
CONTINUOUS
10
2.87543
20
2.73953
11
2.80457
21
2.73953
0
LINE
8
BLACK
6
CONTINUOUS
10
2.80457
20
2.73953
11
2.80457
21
2.83795
0
LINE
8
BLACK
6
CONTINUOUS
10
2.80457
20
2.83795
11
2.87543
21
2.83795
0
LINE
8
BLACK
6
CONTINUOUS
10
2.87543
20
2.83795
11
2.87543
21
2.73953
0
LINE
8
BLACK
6
CONTINUOUS
10
2.44
20
2.78
11
2.38
21
2.78
0
LINE
8
BLACK
6
CONTINUOUS
10
2.38
20
2.78
11
2.38
21
2.84
0
LINE
8
BLACK
6
CONTINUOUS
10
2.38
20
2.84
11
2.44
21
2.84
0
LINE
8
BLACK
6
CONTINUOUS
10
2.44
20
2.84
11
2.44
21
2.78
0
LINE
8
BLACK
6
CONTINUOUS
10
2.54
20
2.78
11
2.48
21
2.78
0
LINE
8
BLACK
6
CONTINUOUS
10
2.48
20
2.78
11
2.48
21
2.84
0
LINE
8
BLACK
6
CONTINUOUS
10
2.48
20
2.84
11
2.54
21
2.84
0
LINE
8
BLACK
6
CONTINUOUS
10
2.54
20
2.84
11
2.54
21
2.78
0
LINE
8
BLACK
6
CONTINUOUS
10
2.64
20
2.7825
11
2.605
21
2.7825
0
LINE
8
BLACK
6
CONTINUOUS
10
2.605
20
2.7825
11
2.605
21
2.8375
0
LINE
8
BLACK
6
CONTINUOUS
10
2.605
20
2.8375
11
2.64
21
2.8375
0
LINE
8
BLACK
6
CONTINUOUS
10
2.64
20
2.8375
11
2.64
21
2.7825
0
LINE
8
BLACK
6
CONTINUOUS
10
2.715
20
2.7825
11
2.68
21
2.7825
0
LINE
8
BLACK
6
CONTINUOUS
10
2.68
20
2.7825
11
2.68
21
2.8375
0
LINE
8
BLACK
6
CONTINUOUS
10
2.68
20
2.8375
11
2.715
21
2.8375
0
LINE
8
BLACK
6
CONTINUOUS
10
2.715
20
2.8375
11
2.715
21
2.7825
0
LINE
8
BLACK
6
CONTINUOUS
10
0.50524
20
2.82043
11
0.35524
21
2.82043
0
LINE
8
BLACK
6
CONTINUOUS
10
0.35524
20
2.82043
11
0.35524
21
2.97043
0
LINE
8
BLACK
6
CONTINUOUS
10
0.35524
20
2.97043
11
0.50524
21
2.97043
0
LINE
8
BLACK
6
CONTINUOUS
10
0.50524
20
2.97043
11
0.50524
21
2.82043
0
LINE
8
BLACK
6
CONTINUOUS
10
0.702091
20
2.82043
11
0.552091
21
2.82043
0
LINE
8
BLACK
6
CONTINUOUS
10
0.552091
20
2.82043
11
0.552091
21
2.97043
0
LINE
8
BLACK
6
CONTINUOUS
10
0.552091
20
2.97043
11
0.702091
21
2.97043
0
LINE
8
BLACK
6
CONTINUOUS
10
0.702091
20
2.97043
11
0.702091
21
2.82043
0
LINE
8
BLACK
6
CONTINUOUS
10
1.86535
20
2.82407
11
1.78661
21
2.82407
0
LINE
8
BLACK
6
CONTINUOUS
10
1.78661
20
2.82407
11
1.78661
21
2.84927
0
LINE
8
BLACK
6
CONTINUOUS
10
1.78661
20
2.84927
11
1.86535
21
2.84927
0
LINE
8
BLACK
6
CONTINUOUS
10
1.86535
20
2.84927
11
1.86535
21
2.82407
0
LINE
8
BLACK
6
CONTINUOUS
10
2.11339
20
2.82407
11
2.03465
21
2.82407
0
LINE
8
BLACK
6
CONTINUOUS
10
2.03465
20
2.82407
11
2.03465
21
2.84927
0
LINE
8
BLACK
6
CONTINUOUS
10
2.03465
20
2.84927
11
2.11339
21
2.84927
0
LINE
8
BLACK
6
CONTINUOUS
10
2.11339
20
2.84927
11
2.11339
21
2.82407
0
LINE
8
BLACK
6
CONTINUOUS
10
2.44
20
2.88
11
2.38
21
2.88
0
LINE
8
BLACK
6
CONTINUOUS
10
2.38
20
2.88
11
2.38
21
2.94
0
LINE
8
BLACK
6
CONTINUOUS
10
2.38
20
2.94
11
2.44
21
2.94
0
LINE
8
BLACK
6
CONTINUOUS
10
2.44
20
2.94
11
2.44
21
2.88
0
LINE
8
BLACK
6
CONTINUOUS
10
2.54
20
2.88
11
2.48
21
2.88
0
LINE
8
BLACK
6
CONTINUOUS
10
2.48
20
2.88
11
2.48
21
2.94
0
LINE
8
BLACK
6
CONTINUOUS
10
2.48
20
2.94
11
2.54
21
2.94
0
LINE
8
BLACK
6
CONTINUOUS
10
2.54
20
2.94
11
2.54
21
2.88
0
LINE
8
BLACK
6
CONTINUOUS
10
2.64
20
2.8825
11
2.605
21
2.8825
0
LINE
8
BLACK
6
CONTINUOUS
10
2.605
20
2.8825
11
2.605
21
2.9375
0
LINE
8
BLACK
6
CONTINUOUS
10
2.605
20
2.9375
11
2.64
21
2.9375
0
LINE
8
BLACK
6
CONTINUOUS
10
2.64
20
2.9375
11
2.64
21
2.8825
0
LINE
8
BLACK
6
CONTINUOUS
10
2.715
20
2.8825
11
2.68
21
2.8825
0
LINE
8
BLACK
6
CONTINUOUS
10
2.68
20
2.8825
11
2.68
21
2.9375
0
LINE
8
BLACK
6
CONTINUOUS
10
2.68
20
2.9375
11
2.715
21
2.9375
0
LINE
8
BLACK
6
CONTINUOUS
10
2.715
20
2.9375
11
2.715
21
2.8825
0
LINE
8
BLACK
6
CONTINUOUS
10
2.84
20
2.91
11
2.78
21
2.91
0
LINE
8
BLACK
6
CONTINUOUS
10
2.78
20
2.91
11
2.78
21
2.97
0
LINE
8
BLACK
6
CONTINUOUS
10
2.78
20
2.97
11
2.84
21
2.97
0
LINE
8
BLACK
6
CONTINUOUS
10
2.84
20
2.97
11
2.84
21
2.91
0
LINE
8
BLACK
6
CONTINUOUS
10
2.94
20
2.91
11
2.88
21
2.91
0
LINE
8
BLACK
6
CONTINUOUS
10
2.88
20
2.91
11
2.88
21
2.97
0
LINE
8
BLACK
6
CONTINUOUS
10
2.88
20
2.97
11
2.94
21
2.97
0
LINE
8
BLACK
6
CONTINUOUS
10
2.94
20
2.97
11
2.94
21
2.91
0
LINE
8
BLACK
6
CONTINUOUS
10
2.44
20
2.98
11
2.38
21
2.98
0
LINE
8
BLACK
6
CONTINUOUS
10
2.38
20
2.98
11
2.38
21
3.04
0
LINE
8
BLACK
6
CONTINUOUS
10
2.38
20
3.04
11
2.44
21
3.04
0
LINE
8
BLACK
6
CONTINUOUS
10
2.44
20
3.04
11
2.44
21
2.98
0
LINE
8
BLACK
6
CONTINUOUS
10
2.54
20
2.98
11
2.48
21
2.98
0
LINE
8
BLACK
6
CONTINUOUS
10
2.48
20
2.98
11
2.48
21
3.04
0
LINE
8
BLACK
6
CONTINUOUS
10
2.48
20
3.04
11
2.54
21
3.04
0
LINE
8
BLACK
6
CONTINUOUS
10
2.54
20
3.04
11
2.54
21
2.98
0
LINE
8
BLACK
6
CONTINUOUS
10
1.82094
20
3.03947
11
1.82366
21
3.03905
0
LINE
8
BLACK
6
CONTINUOUS
10
1.82366
20
3.03905
11
1.82628
21
3.03745
0
LINE
8
BLACK
6
CONTINUOUS
10
1.82628
20
3.03745
11
1.82809
21
3.03496
0
LINE
8
BLACK
6
CONTINUOUS
10
1.82809
20
3.03496
11
1.82881
21
3.03198
0
LINE
8
BLACK
6
CONTINUOUS
10
1.82881
20
3.03198
11
1.82834
21
3.02894
0
LINE
8
BLACK
6
CONTINUOUS
10
1.82834
20
3.02894
11
1.82834
21
3.02894
0
LINE
8
BLACK
6
CONTINUOUS
10
1.82834
20
3.02894
11
1.82701
21
3.02531
0
LINE
8
BLACK
6
CONTINUOUS
10
1.82701
20
3.02531
11
1.82539
21
3.01775
0
LINE
8
BLACK
6
CONTINUOUS
10
1.82539
20
3.01775
11
1.82484
21
3.01003
0
LINE
8
BLACK
6
CONTINUOUS
10
1.82484
20
3.01003
11
1.82538
21
3.00232
0
LINE
8
BLACK
6
CONTINUOUS
10
1.82538
20
3.00232
11
1.82699
21
2.99476
0
LINE
8
BLACK
6
CONTINUOUS
10
1.82699
20
2.99476
11
1.82831
21
2.99112
0
LINE
8
BLACK
6
CONTINUOUS
10
1.82831
20
2.99112
11
1.82831
21
2.99112
0
LINE
8
BLACK
6
CONTINUOUS
10
1.82831
20
2.99112
11
1.82878
21
2.98809
0
LINE
8
BLACK
6
CONTINUOUS
10
1.82878
20
2.98809
11
1.82806
21
2.9851
0
LINE
8
BLACK
6
CONTINUOUS
10
1.82806
20
2.9851
11
1.82624
21
2.98262
0
LINE
8
BLACK
6
CONTINUOUS
10
1.82624
20
2.98262
11
1.82362
21
2.98103
0
LINE
8
BLACK
6
CONTINUOUS
10
1.82362
20
2.98103
11
1.82094
21
2.98061
0
LINE
8
BLACK
6
CONTINUOUS
10
1.82094
20
2.98061
11
1.82094
21
2.98047
0
LINE
8
BLACK
6
CONTINUOUS
10
1.82094
20
2.98047
11
1.77961
21
2.98047
0
LINE
8
BLACK
6
CONTINUOUS
10
1.77961
20
2.98047
11
1.77961
21
3.03953
0
LINE
8
BLACK
6
CONTINUOUS
10
1.77961
20
3.03953
11
1.82094
21
3.03953
0
LINE
8
BLACK
6
CONTINUOUS
10
1.82094
20
3.03953
11
1.82094
21
3.03947
0
LINE
8
BLACK
6
CONTINUOUS
10
1.98039
20
2.98047
11
1.93906
21
2.98047
0
LINE
8
BLACK
6
CONTINUOUS
10
1.93906
20
2.98047
11
1.93906
21
2.98053
0
LINE
8
BLACK
6
CONTINUOUS
10
1.93906
20
2.98053
11
1.93634
21
2.98095
0
LINE
8
BLACK
6
CONTINUOUS
10
1.93634
20
2.98095
11
1.93372
21
2.98255
0
LINE
8
BLACK
6
CONTINUOUS
10
1.93372
20
2.98255
11
1.93191
21
2.98504
0
LINE
8
BLACK
6
CONTINUOUS
10
1.93191
20
2.98504
11
1.93119
21
2.98802
0
LINE
8
BLACK
6
CONTINUOUS
10
1.93119
20
2.98802
11
1.93166
21
2.99106
0
LINE
8
BLACK
6
CONTINUOUS
10
1.93166
20
2.99106
11
1.93166
21
2.99106
0
LINE
8
BLACK
6
CONTINUOUS
10
1.93166
20
2.99106
11
1.93299
21
2.99469
0
LINE
8
BLACK
6
CONTINUOUS
10
1.93299
20
2.99469
11
1.93461
21
3.00225
0
LINE
8
BLACK
6
CONTINUOUS
10
1.93461
20
3.00225
11
1.93516
21
3.00997
0
LINE
8
BLACK
6
CONTINUOUS
10
1.93516
20
3.00997
11
1.93462
21
3.01768
0
LINE
8
BLACK
6
CONTINUOUS
10
1.93462
20
3.01768
11
1.93301
21
3.02524
0
LINE
8
BLACK
6
CONTINUOUS
10
1.93301
20
3.02524
11
1.93169
21
3.02888
0
LINE
8
BLACK
6
CONTINUOUS
10
1.93169
20
3.02888
11
1.93169
21
3.02888
0
LINE
8
BLACK
6
CONTINUOUS
10
1.93169
20
3.02888
11
1.93122
21
3.03191
0
LINE
8
BLACK
6
CONTINUOUS
10
1.93122
20
3.03191
11
1.93194
21
3.0349
0
LINE
8
BLACK
6
CONTINUOUS
10
1.93194
20
3.0349
11
1.93376
21
3.03738
0
LINE
8
BLACK
6
CONTINUOUS
10
1.93376
20
3.03738
11
1.93638
21
3.03897
0
LINE
8
BLACK
6
CONTINUOUS
10
1.93638
20
3.03897
11
1.93906
21
3.03939
0
LINE
8
BLACK
6
CONTINUOUS
10
1.93906
20
3.03939
11
1.93906
21
3.03953
0
LINE
8
BLACK
6
CONTINUOUS
10
1.93906
20
3.03953
11
1.98039
21
3.03953
0
LINE
8
BLACK
6
CONTINUOUS
10
1.98039
20
3.03953
11
1.98039
21
2.98047
0
LINE
8
BLACK
6
CONTINUOUS
10
2.64
20
2.9825
11
2.605
21
2.9825
0
LINE
8
BLACK
6
CONTINUOUS
10
2.605
20
2.9825
11
2.605
21
3.0375
0
LINE
8
BLACK
6
CONTINUOUS
10
2.605
20
3.0375
11
2.64
21
3.0375
0
LINE
8
BLACK
6
CONTINUOUS
10
2.64
20
3.0375
11
2.64
21
2.9825
0
LINE
8
BLACK
6
CONTINUOUS
10
2.715
20
2.9825
11
2.68
21
2.9825
0
LINE
8
BLACK
6
CONTINUOUS
10
2.68
20
2.9825
11
2.68
21
3.0375
0
LINE
8
BLACK
6
CONTINUOUS
10
2.68
20
3.0375
11
2.715
21
3.0375
0
LINE
8
BLACK
6
CONTINUOUS
10
2.715
20
3.0375
11
2.715
21
2.9825
0
LINE
8
BLACK
6
CONTINUOUS
10
2.0675
20
2.98458
11
2.0125
21
2.98458
0
LINE
8
BLACK
6
CONTINUOUS
10
2.0125
20
2.98458
11
2.0125
21
3.01958
0
LINE
8
BLACK
6
CONTINUOUS
10
2.0125
20
3.01958
11
2.0675
21
3.01958
0
LINE
8
BLACK
6
CONTINUOUS
10
2.0675
20
3.01958
11
2.0675
21
2.98458
0
LINE
8
BLACK
6
CONTINUOUS
10
2.84
20
3.01
11
2.78
21
3.01
0
LINE
8
BLACK
6
CONTINUOUS
10
2.78
20
3.01
11
2.78
21
3.07
0
LINE
8
BLACK
6
CONTINUOUS
10
2.78
20
3.07
11
2.84
21
3.07
0
LINE
8
BLACK
6
CONTINUOUS
10
2.84
20
3.07
11
2.84
21
3.01
0
LINE
8
BLACK
6
CONTINUOUS
10
2.94
20
3.01
11
2.88
21
3.01
0
LINE
8
BLACK
6
CONTINUOUS
10
2.88
20
3.01
11
2.88
21
3.07
0
LINE
8
BLACK
6
CONTINUOUS
10
2.88
20
3.07
11
2.94
21
3.07
0
LINE
8
BLACK
6
CONTINUOUS
10
2.94
20
3.07
11
2.94
21
3.01
0
LINE
8
BLACK
6
CONTINUOUS
10
0.50524
20
3.01728
11
0.35524
21
3.01728
0
LINE
8
BLACK
6
CONTINUOUS
10
0.35524
20
3.01728
11
0.35524
21
3.16728
0
LINE
8
BLACK
6
CONTINUOUS
10
0.35524
20
3.16728
11
0.50524
21
3.16728
0
LINE
8
BLACK
6
CONTINUOUS
10
0.50524
20
3.16728
11
0.50524
21
3.01728
0
LINE
8
BLACK
6
CONTINUOUS
10
0.702091
20
3.01728
11
0.552091
21
3.01728
0
LINE
8
BLACK
6
CONTINUOUS
10
0.552091
20
3.01728
11
0.552091
21
3.16728
0
LINE
8
BLACK
6
CONTINUOUS
10
0.552091
20
3.16728
11
0.702091
21
3.16728
0
LINE
8
BLACK
6
CONTINUOUS
10
0.702091
20
3.16728
11
0.702091
21
3.01728
0
LINE
8
BLACK
6
CONTINUOUS
10
2.0675
20
3.05958
11
2.0125
21
3.05958
0
LINE
8
BLACK
6
CONTINUOUS
10
2.0125
20
3.05958
11
2.0125
21
3.09458
0
LINE
8
BLACK
6
CONTINUOUS
10
2.0125
20
3.09458
11
2.0675
21
3.09458
0
LINE
8
BLACK
6
CONTINUOUS
10
2.0675
20
3.09458
11
2.0675
21
3.05958
0
LINE
8
BLACK
6
CONTINUOUS
10
1.35151
20
3.17088
11
1.35964
21
3.16773
0
LINE
8
BLACK
6
CONTINUOUS
10
1.35964
20
3.16773
11
1.36705
21
3.16314
0
LINE
8
BLACK
6
CONTINUOUS
10
1.36705
20
3.16314
11
1.3735
21
3.15726
0
LINE
8
BLACK
6
CONTINUOUS
10
1.3735
20
3.15726
11
1.37875
21
3.15031
0
LINE
8
BLACK
6
CONTINUOUS
10
1.37875
20
3.15031
11
1.38264
21
3.1425
0
LINE
8
BLACK
6
CONTINUOUS
10
1.38264
20
3.1425
11
1.38502
21
3.13412
0
LINE
8
BLACK
6
CONTINUOUS
10
1.38502
20
3.13412
11
1.38583
21
3.12544
0
LINE
8
BLACK
6
CONTINUOUS
10
1.38583
20
3.12544
11
1.38502
21
3.11675
0
LINE
8
BLACK
6
CONTINUOUS
10
1.38502
20
3.11675
11
1.38264
21
3.10837
0
LINE
8
BLACK
6
CONTINUOUS
10
1.38264
20
3.10837
11
1.37875
21
3.10057
0
LINE
8
BLACK
6
CONTINUOUS
10
1.37875
20
3.10057
11
1.3735
21
3.09361
0
LINE
8
BLACK
6
CONTINUOUS
10
1.3735
20
3.09361
11
1.36705
21
3.08773
0
LINE
8
BLACK
6
CONTINUOUS
10
1.36705
20
3.08773
11
1.35964
21
3.08314
0
LINE
8
BLACK
6
CONTINUOUS
10
1.35964
20
3.08314
11
1.35151
21
3.08
0
LINE
8
BLACK
6
CONTINUOUS
10
1.35151
20
3.08
11
1.34294
21
3.07839
0
LINE
8
BLACK
6
CONTINUOUS
10
1.34294
20
3.07839
11
1.33422
21
3.07839
0
LINE
8
BLACK
6
CONTINUOUS
10
1.33422
20
3.07839
11
1.32565
21
3.08
0
LINE
8
BLACK
6
CONTINUOUS
10
1.32565
20
3.08
11
1.31752
21
3.08314
0
LINE
8
BLACK
6
CONTINUOUS
10
1.31752
20
3.08314
11
1.31011
21
3.08773
0
LINE
8
BLACK
6
CONTINUOUS
10
1.31011
20
3.08773
11
1.30367
21
3.09361
0
LINE
8
BLACK
6
CONTINUOUS
10
1.30367
20
3.09361
11
1.29841
21
3.10057
0
LINE
8
BLACK
6
CONTINUOUS
10
1.29841
20
3.10057
11
1.29453
21
3.10837
0
LINE
8
BLACK
6
CONTINUOUS
10
1.29453
20
3.10837
11
1.29214
21
3.11675
0
LINE
8
BLACK
6
CONTINUOUS
10
1.29214
20
3.11675
11
1.29134
21
3.12544
0
LINE
8
BLACK
6
CONTINUOUS
10
1.29134
20
3.12544
11
1.29214
21
3.13412
0
LINE
8
BLACK
6
CONTINUOUS
10
1.29214
20
3.13412
11
1.29453
21
3.1425
0
LINE
8
BLACK
6
CONTINUOUS
10
1.29453
20
3.1425
11
1.29841
21
3.15031
0
LINE
8
BLACK
6
CONTINUOUS
10
1.29841
20
3.15031
11
1.30367
21
3.15726
0
LINE
8
BLACK
6
CONTINUOUS
10
1.30367
20
3.15726
11
1.31011
21
3.16314
0
LINE
8
BLACK
6
CONTINUOUS
10
1.31011
20
3.16314
11
1.31752
21
3.16773
0
LINE
8
BLACK
6
CONTINUOUS
10
1.31752
20
3.16773
11
1.32565
21
3.17088
0
LINE
8
BLACK
6
CONTINUOUS
10
1.32565
20
3.17088
11
1.33422
21
3.17248
0
LINE
8
BLACK
6
CONTINUOUS
10
1.33422
20
3.17248
11
1.34294
21
3.17248
0
LINE
8
BLACK
6
CONTINUOUS
10
1.34294
20
3.17248
11
1.35151
21
3.17088
0
LINE
8
BLACK
6
CONTINUOUS
10
1.54836
20
3.17088
11
1.55649
21
3.16773
0
LINE
8
BLACK
6
CONTINUOUS
10
1.55649
20
3.16773
11
1.5639
21
3.16314
0
LINE
8
BLACK
6
CONTINUOUS
10
1.5639
20
3.16314
11
1.57035
21
3.15726
0
LINE
8
BLACK
6
CONTINUOUS
10
1.57035
20
3.15726
11
1.5756
21
3.15031
0
LINE
8
BLACK
6
CONTINUOUS
10
1.5756
20
3.15031
11
1.57949
21
3.1425
0
LINE
8
BLACK
6
CONTINUOUS
10
1.57949
20
3.1425
11
1.58187
21
3.13412
0
LINE
8
BLACK
6
CONTINUOUS
10
1.58187
20
3.13412
11
1.58268
21
3.12544
0
LINE
8
BLACK
6
CONTINUOUS
10
1.58268
20
3.12544
11
1.58187
21
3.11675
0
LINE
8
BLACK
6
CONTINUOUS
10
1.58187
20
3.11675
11
1.57949
21
3.10837
0
LINE
8
BLACK
6
CONTINUOUS
10
1.57949
20
3.10837
11
1.5756
21
3.10057
0
LINE
8
BLACK
6
CONTINUOUS
10
1.5756
20
3.10057
11
1.57035
21
3.09361
0
LINE
8
BLACK
6
CONTINUOUS
10
1.57035
20
3.09361
11
1.5639
21
3.08773
0
LINE
8
BLACK
6
CONTINUOUS
10
1.5639
20
3.08773
11
1.55649
21
3.08314
0
LINE
8
BLACK
6
CONTINUOUS
10
1.55649
20
3.08314
11
1.54836
21
3.08
0
LINE
8
BLACK
6
CONTINUOUS
10
1.54836
20
3.08
11
1.53979
21
3.07839
0
LINE
8
BLACK
6
CONTINUOUS
10
1.53979
20
3.07839
11
1.53107
21
3.07839
0
LINE
8
BLACK
6
CONTINUOUS
10
1.53107
20
3.07839
11
1.5225
21
3.08
0
LINE
8
BLACK
6
CONTINUOUS
10
1.5225
20
3.08
11
1.51437
21
3.08314
0
LINE
8
BLACK
6
CONTINUOUS
10
1.51437
20
3.08314
11
1.50696
21
3.08773
0
LINE
8
BLACK
6
CONTINUOUS
10
1.50696
20
3.08773
11
1.50052
21
3.09361
0
LINE
8
BLACK
6
CONTINUOUS
10
1.50052
20
3.09361
11
1.49527
21
3.10057
0
LINE
8
BLACK
6
CONTINUOUS
10
1.49527
20
3.10057
11
1.49138
21
3.10837
0
LINE
8
BLACK
6
CONTINUOUS
10
1.49138
20
3.10837
11
1.48899
21
3.11675
0
LINE
8
BLACK
6
CONTINUOUS
10
1.48899
20
3.11675
11
1.48819
21
3.12544
0
LINE
8
BLACK
6
CONTINUOUS
10
1.48819
20
3.12544
11
1.48899
21
3.13412
0
LINE
8
BLACK
6
CONTINUOUS
10
1.48899
20
3.13412
11
1.49138
21
3.1425
0
LINE
8
BLACK
6
CONTINUOUS
10
1.49138
20
3.1425
11
1.49527
21
3.15031
0
LINE
8
BLACK
6
CONTINUOUS
10
1.49527
20
3.15031
11
1.50052
21
3.15726
0
LINE
8
BLACK
6
CONTINUOUS
10
1.50052
20
3.15726
11
1.50696
21
3.16314
0
LINE
8
BLACK
6
CONTINUOUS
10
1.50696
20
3.16314
11
1.51437
21
3.16773
0
LINE
8
BLACK
6
CONTINUOUS
10
1.51437
20
3.16773
11
1.5225
21
3.17088
0
LINE
8
BLACK
6
CONTINUOUS
10
1.5225
20
3.17088
11
1.53107
21
3.17248
0
LINE
8
BLACK
6
CONTINUOUS
10
1.53107
20
3.17248
11
1.53979
21
3.17248
0
LINE
8
BLACK
6
CONTINUOUS
10
1.53979
20
3.17248
11
1.54836
21
3.17088
0
LINE
8
BLACK
6
CONTINUOUS
10
2.44
20
3.08
11
2.38
21
3.08
0
LINE
8
BLACK
6
CONTINUOUS
10
2.38
20
3.08
11
2.38
21
3.14
0
LINE
8
BLACK
6
CONTINUOUS
10
2.38
20
3.14
11
2.44
21
3.14
0
LINE
8
BLACK
6
CONTINUOUS
10
2.44
20
3.14
11
2.44
21
3.08
0
LINE
8
BLACK
6
CONTINUOUS
10
2.54
20
3.08
11
2.48
21
3.08
0
LINE
8
BLACK
6
CONTINUOUS
10
2.48
20
3.08
11
2.48
21
3.14
0
LINE
8
BLACK
6
CONTINUOUS
10
2.48
20
3.14
11
2.54
21
3.14
0
LINE
8
BLACK
6
CONTINUOUS
10
2.54
20
3.14
11
2.54
21
3.08
0
LINE
8
BLACK
6
CONTINUOUS
10
2.64
20
3.0825
11
2.605
21
3.0825
0
LINE
8
BLACK
6
CONTINUOUS
10
2.605
20
3.0825
11
2.605
21
3.1375
0
LINE
8
BLACK
6
CONTINUOUS
10
2.605
20
3.1375
11
2.64
21
3.1375
0
LINE
8
BLACK
6
CONTINUOUS
10
2.64
20
3.1375
11
2.64
21
3.0825
0
LINE
8
BLACK
6
CONTINUOUS
10
2.715
20
3.0825
11
2.68
21
3.0825
0
LINE
8
BLACK
6
CONTINUOUS
10
2.68
20
3.0825
11
2.68
21
3.1375
0
LINE
8
BLACK
6
CONTINUOUS
10
2.68
20
3.1375
11
2.715
21
3.1375
0
LINE
8
BLACK
6
CONTINUOUS
10
2.715
20
3.1375
11
2.715
21
3.0825
0
LINE
8
BLACK
6
CONTINUOUS
10
2.84
20
3.11
11
2.78
21
3.11
0
LINE
8
BLACK
6
CONTINUOUS
10
2.78
20
3.11
11
2.78
21
3.17
0
LINE
8
BLACK
6
CONTINUOUS
10
2.78
20
3.17
11
2.84
21
3.17
0
LINE
8
BLACK
6
CONTINUOUS
10
2.84
20
3.17
11
2.84
21
3.11
0
LINE
8
BLACK
6
CONTINUOUS
10
2.94
20
3.11
11
2.88
21
3.11
0
LINE
8
BLACK
6
CONTINUOUS
10
2.88
20
3.11
11
2.88
21
3.17
0
LINE
8
BLACK
6
CONTINUOUS
10
2.88
20
3.17
11
2.94
21
3.17
0
LINE
8
BLACK
6
CONTINUOUS
10
2.94
20
3.17
11
2.94
21
3.11
0
LINE
8
BLACK
6
CONTINUOUS
10
1.86535
20
3.14573
11
1.78661
21
3.14573
0
LINE
8
BLACK
6
CONTINUOUS
10
1.78661
20
3.14573
11
1.78661
21
3.17093
0
LINE
8
BLACK
6
CONTINUOUS
10
1.78661
20
3.17093
11
1.86535
21
3.17093
0
LINE
8
BLACK
6
CONTINUOUS
10
1.86535
20
3.17093
11
1.86535
21
3.14573
0
LINE
8
BLACK
6
CONTINUOUS
10
2.11339
20
3.14573
11
2.03465
21
3.14573
0
LINE
8
BLACK
6
CONTINUOUS
10
2.03465
20
3.14573
11
2.03465
21
3.17093
0
LINE
8
BLACK
6
CONTINUOUS
10
2.03465
20
3.17093
11
2.11339
21
3.17093
0
LINE
8
BLACK
6
CONTINUOUS
10
2.11339
20
3.17093
11
2.11339
21
3.14573
0
LINE
8
BLACK
6
CONTINUOUS
10
2.44
20
3.18
11
2.38
21
3.18
0
LINE
8
BLACK
6
CONTINUOUS
10
2.38
20
3.18
11
2.38
21
3.24
0
LINE
8
BLACK
6
CONTINUOUS
10
2.38
20
3.24
11
2.44
21
3.24
0
LINE
8
BLACK
6
CONTINUOUS
10
2.44
20
3.24
11
2.44
21
3.18
0
LINE
8
BLACK
6
CONTINUOUS
10
2.54
20
3.18
11
2.48
21
3.18
0
LINE
8
BLACK
6
CONTINUOUS
10
2.48
20
3.18
11
2.48
21
3.24
0
LINE
8
BLACK
6
CONTINUOUS
10
2.48
20
3.24
11
2.54
21
3.24
0
LINE
8
BLACK
6
CONTINUOUS
10
2.54
20
3.24
11
2.54
21
3.18
0
LINE
8
BLACK
6
CONTINUOUS
10
2.64
20
3.1825
11
2.605
21
3.1825
0
LINE
8
BLACK
6
CONTINUOUS
10
2.605
20
3.1825
11
2.605
21
3.2375
0
LINE
8
BLACK
6
CONTINUOUS
10
2.605
20
3.2375
11
2.64
21
3.2375
0
LINE
8
BLACK
6
CONTINUOUS
10
2.64
20
3.2375
11
2.64
21
3.1825
0
LINE
8
BLACK
6
CONTINUOUS
10
2.715
20
3.1825
11
2.68
21
3.1825
0
LINE
8
BLACK
6
CONTINUOUS
10
2.68
20
3.1825
11
2.68
21
3.2375
0
LINE
8
BLACK
6
CONTINUOUS
10
2.68
20
3.2375
11
2.715
21
3.2375
0
LINE
8
BLACK
6
CONTINUOUS
10
2.715
20
3.2375
11
2.715
21
3.1825
0
LINE
8
BLACK
6
CONTINUOUS
10
0.50524
20
3.21413
11
0.35524
21
3.21413
0
LINE
8
BLACK
6
CONTINUOUS
10
0.35524
20
3.21413
11
0.35524
21
3.36413
0
LINE
8
BLACK
6
CONTINUOUS
10
0.35524
20
3.36413
11
0.50524
21
3.36413
0
LINE
8
BLACK
6
CONTINUOUS
10
0.50524
20
3.36413
11
0.50524
21
3.21413
0
LINE
8
BLACK
6
CONTINUOUS
10
0.702091
20
3.21413
11
0.552091
21
3.21413
0
LINE
8
BLACK
6
CONTINUOUS
10
0.552091
20
3.21413
11
0.552091
21
3.36413
0
LINE
8
BLACK
6
CONTINUOUS
10
0.552091
20
3.36413
11
0.702091
21
3.36413
0
LINE
8
BLACK
6
CONTINUOUS
10
0.702091
20
3.36413
11
0.702091
21
3.21413
0
LINE
8
BLACK
6
CONTINUOUS
10
1.86535
20
3.24573
11
1.78661
21
3.24573
0
LINE
8
BLACK
6
CONTINUOUS
10
1.78661
20
3.24573
11
1.78661
21
3.27093
0
LINE
8
BLACK
6
CONTINUOUS
10
1.78661
20
3.27093
11
1.86535
21
3.27093
0
LINE
8
BLACK
6
CONTINUOUS
10
1.86535
20
3.27093
11
1.86535
21
3.24573
0
LINE
8
BLACK
6
CONTINUOUS
10
2.11339
20
3.24573
11
2.03465
21
3.24573
0
LINE
8
BLACK
6
CONTINUOUS
10
2.03465
20
3.24573
11
2.03465
21
3.27093
0
LINE
8
BLACK
6
CONTINUOUS
10
2.03465
20
3.27093
11
2.11339
21
3.27093
0
LINE
8
BLACK
6
CONTINUOUS
10
2.11339
20
3.27093
11
2.11339
21
3.24573
0
LINE
8
BLACK
6
CONTINUOUS
10
2.44
20
3.28
11
2.38
21
3.28
0
LINE
8
BLACK
6
CONTINUOUS
10
2.38
20
3.28
11
2.38
21
3.34
0
LINE
8
BLACK
6
CONTINUOUS
10
2.38
20
3.34
11
2.44
21
3.34
0
LINE
8
BLACK
6
CONTINUOUS
10
2.44
20
3.34
11
2.44
21
3.28
0
LINE
8
BLACK
6
CONTINUOUS
10
2.54
20
3.28
11
2.48
21
3.28
0
LINE
8
BLACK
6
CONTINUOUS
10
2.48
20
3.28
11
2.48
21
3.34
0
LINE
8
BLACK
6
CONTINUOUS
10
2.48
20
3.34
11
2.54
21
3.34
0
LINE
8
BLACK
6
CONTINUOUS
10
2.54
20
3.34
11
2.54
21
3.28
0
LINE
8
BLACK
6
CONTINUOUS
10
2.64
20
3.2825
11
2.605
21
3.2825
0
LINE
8
BLACK
6
CONTINUOUS
10
2.605
20
3.2825
11
2.605
21
3.3375
0
LINE
8
BLACK
6
CONTINUOUS
10
2.605
20
3.3375
11
2.64
21
3.3375
0
LINE
8
BLACK
6
CONTINUOUS
10
2.64
20
3.3375
11
2.64
21
3.2825
0
LINE
8
BLACK
6
CONTINUOUS
10
2.715
20
3.2825
11
2.68
21
3.2825
0
LINE
8
BLACK
6
CONTINUOUS
10
2.68
20
3.2825
11
2.68
21
3.3375
0
LINE
8
BLACK
6
CONTINUOUS
10
2.68
20
3.3375
11
2.715
21
3.3375
0
LINE
8
BLACK
6
CONTINUOUS
10
2.715
20
3.3375
11
2.715
21
3.2825
0
LINE
8
BLACK
6
CONTINUOUS
10
1.82094
20
3.45947
11
1.82366
21
3.45905
0
LINE
8
BLACK
6
CONTINUOUS
10
1.82366
20
3.45905
11
1.82628
21
3.45745
0
LINE
8
BLACK
6
CONTINUOUS
10
1.82628
20
3.45745
11
1.82809
21
3.45496
0
LINE
8
BLACK
6
CONTINUOUS
10
1.82809
20
3.45496
11
1.82881
21
3.45198
0
LINE
8
BLACK
6
CONTINUOUS
10
1.82881
20
3.45198
11
1.82834
21
3.44894
0
LINE
8
BLACK
6
CONTINUOUS
10
1.82834
20
3.44894
11
1.82834
21
3.44894
0
LINE
8
BLACK
6
CONTINUOUS
10
1.82834
20
3.44894
11
1.82701
21
3.44531
0
LINE
8
BLACK
6
CONTINUOUS
10
1.82701
20
3.44531
11
1.82539
21
3.43775
0
LINE
8
BLACK
6
CONTINUOUS
10
1.82539
20
3.43775
11
1.82484
21
3.43003
0
LINE
8
BLACK
6
CONTINUOUS
10
1.82484
20
3.43003
11
1.82538
21
3.42232
0
LINE
8
BLACK
6
CONTINUOUS
10
1.82538
20
3.42232
11
1.82699
21
3.41476
0
LINE
8
BLACK
6
CONTINUOUS
10
1.82699
20
3.41476
11
1.82831
21
3.41112
0
LINE
8
BLACK
6
CONTINUOUS
10
1.82831
20
3.41112
11
1.82831
21
3.41112
0
LINE
8
BLACK
6
CONTINUOUS
10
1.82831
20
3.41112
11
1.82878
21
3.40809
0
LINE
8
BLACK
6
CONTINUOUS
10
1.82878
20
3.40809
11
1.82806
21
3.4051
0
LINE
8
BLACK
6
CONTINUOUS
10
1.82806
20
3.4051
11
1.82624
21
3.40262
0
LINE
8
BLACK
6
CONTINUOUS
10
1.82624
20
3.40262
11
1.82362
21
3.40103
0
LINE
8
BLACK
6
CONTINUOUS
10
1.82362
20
3.40103
11
1.82094
21
3.40061
0
LINE
8
BLACK
6
CONTINUOUS
10
1.82094
20
3.40061
11
1.82094
21
3.40047
0
LINE
8
BLACK
6
CONTINUOUS
10
1.82094
20
3.40047
11
1.77961
21
3.40047
0
LINE
8
BLACK
6
CONTINUOUS
10
1.77961
20
3.40047
11
1.77961
21
3.45953
0
LINE
8
BLACK
6
CONTINUOUS
10
1.77961
20
3.45953
11
1.82094
21
3.45953
0
LINE
8
BLACK
6
CONTINUOUS
10
1.82094
20
3.45953
11
1.82094
21
3.45947
0
LINE
8
BLACK
6
CONTINUOUS
10
1.98039
20
3.40047
11
1.93906
21
3.40047
0
LINE
8
BLACK
6
CONTINUOUS
10
1.93906
20
3.40047
11
1.93906
21
3.40053
0
LINE
8
BLACK
6
CONTINUOUS
10
1.93906
20
3.40053
11
1.93634
21
3.40095
0
LINE
8
BLACK
6
CONTINUOUS
10
1.93634
20
3.40095
11
1.93372
21
3.40255
0
LINE
8
BLACK
6
CONTINUOUS
10
1.93372
20
3.40255
11
1.93191
21
3.40504
0
LINE
8
BLACK
6
CONTINUOUS
10
1.93191
20
3.40504
11
1.93119
21
3.40802
0
LINE
8
BLACK
6
CONTINUOUS
10
1.93119
20
3.40802
11
1.93166
21
3.41106
0
LINE
8
BLACK
6
CONTINUOUS
10
1.93166
20
3.41106
11
1.93166
21
3.41106
0
LINE
8
BLACK
6
CONTINUOUS
10
1.93166
20
3.41106
11
1.93299
21
3.41469
0
LINE
8
BLACK
6
CONTINUOUS
10
1.93299
20
3.41469
11
1.93461
21
3.42225
0
LINE
8
BLACK
6
CONTINUOUS
10
1.93461
20
3.42225
11
1.93516
21
3.42997
0
LINE
8
BLACK
6
CONTINUOUS
10
1.93516
20
3.42997
11
1.93462
21
3.43768
0
LINE
8
BLACK
6
CONTINUOUS
10
1.93462
20
3.43768
11
1.93301
21
3.44524
0
LINE
8
BLACK
6
CONTINUOUS
10
1.93301
20
3.44524
11
1.93169
21
3.44888
0
LINE
8
BLACK
6
CONTINUOUS
10
1.93169
20
3.44888
11
1.93169
21
3.44888
0
LINE
8
BLACK
6
CONTINUOUS
10
1.93169
20
3.44888
11
1.93122
21
3.45191
0
LINE
8
BLACK
6
CONTINUOUS
10
1.93122
20
3.45191
11
1.93194
21
3.4549
0
LINE
8
BLACK
6
CONTINUOUS
10
1.93194
20
3.4549
11
1.93376
21
3.45738
0
LINE
8
BLACK
6
CONTINUOUS
10
1.93376
20
3.45738
11
1.93638
21
3.45897
0
LINE
8
BLACK
6
CONTINUOUS
10
1.93638
20
3.45897
11
1.93906
21
3.45939
0
LINE
8
BLACK
6
CONTINUOUS
10
1.93906
20
3.45939
11
1.93906
21
3.45953
0
LINE
8
BLACK
6
CONTINUOUS
10
1.93906
20
3.45953
11
1.98039
21
3.45953
0
LINE
8
BLACK
6
CONTINUOUS
10
1.98039
20
3.45953
11
1.98039
21
3.40047
0
LINE
8
BLACK
6
CONTINUOUS
10
2.0675
20
3.405
11
2.0125
21
3.405
0
LINE
8
BLACK
6
CONTINUOUS
10
2.0125
20
3.405
11
2.0125
21
3.44
0
LINE
8
BLACK
6
CONTINUOUS
10
2.0125
20
3.44
11
2.0675
21
3.44
0
LINE
8
BLACK
6
CONTINUOUS
10
2.0675
20
3.44
11
2.0675
21
3.405
0
LINE
8
BLACK
6
CONTINUOUS
10
2.0675
20
3.48
11
2.0125
21
3.48
0
LINE
8
BLACK
6
CONTINUOUS
10
2.0125
20
3.48
11
2.0125
21
3.515
0
LINE
8
BLACK
6
CONTINUOUS
10
2.0125
20
3.515
11
2.0675
21
3.515
0
LINE
8
BLACK
6
CONTINUOUS
10
2.0675
20
3.515
11
2.0675
21
3.48
0
LINE
8
BLACK
6
CONTINUOUS
10
0.42051
20
3.71632
11
0.433874
21
3.71315
0
LINE
8
BLACK
6
CONTINUOUS
10
0.433874
20
3.71315
11
0.446781
21
3.70845
0
LINE
8
BLACK
6
CONTINUOUS
10
0.446781
20
3.70845
11
0.459055
21
3.70229
0
LINE
8
BLACK
6
CONTINUOUS
10
0.459055
20
3.70229
11
0.470531
21
3.69474
0
LINE
8
BLACK
6
CONTINUOUS
10
0.470531
20
3.69474
11
0.481052
21
3.68591
0
LINE
8
BLACK
6
CONTINUOUS
10
0.481052
20
3.68591
11
0.490478
21
3.67592
0
LINE
8
BLACK
6
CONTINUOUS
10
0.490478
20
3.67592
11
0.49868
21
3.6649
0
LINE
8
BLACK
6
CONTINUOUS
10
0.49868
20
3.6649
11
0.505547
21
3.65301
0
LINE
8
BLACK
6
CONTINUOUS
10
0.505547
20
3.65301
11
0.510987
21
3.6404
0
LINE
8
BLACK
6
CONTINUOUS
10
0.510987
20
3.6404
11
0.514927
21
3.62724
0
LINE
8
BLACK
6
CONTINUOUS
10
0.514927
20
3.62724
11
0.517312
21
3.61371
0
LINE
8
BLACK
6
CONTINUOUS
10
0.517312
20
3.61371
11
0.51811
21
3.6
0
LINE
8
BLACK
6
CONTINUOUS
10
0.51811
20
3.6
11
0.517312
21
3.58629
0
LINE
8
BLACK
6
CONTINUOUS
10
0.517312
20
3.58629
11
0.514927
21
3.57276
0
LINE
8
BLACK
6
CONTINUOUS
10
0.514927
20
3.57276
11
0.510987
21
3.5596
0
LINE
8
BLACK
6
CONTINUOUS
10
0.510987
20
3.5596
11
0.505547
21
3.54699
0
LINE
8
BLACK
6
CONTINUOUS
10
0.505547
20
3.54699
11
0.49868
21
3.5351
0
LINE
8
BLACK
6
CONTINUOUS
10
0.49868
20
3.5351
11
0.490478
21
3.52408
0
LINE
8
BLACK
6
CONTINUOUS
10
0.490478
20
3.52408
11
0.481052
21
3.51409
0
LINE
8
BLACK
6
CONTINUOUS
10
0.481052
20
3.51409
11
0.470531
21
3.50526
0
LINE
8
BLACK
6
CONTINUOUS
10
0.470531
20
3.50526
11
0.459055
21
3.49771
0
LINE
8
BLACK
6
CONTINUOUS
10
0.459055
20
3.49771
11
0.446781
21
3.49155
0
LINE
8
BLACK
6
CONTINUOUS
10
0.446781
20
3.49155
11
0.433874
21
3.48685
0
LINE
8
BLACK
6
CONTINUOUS
10
0.433874
20
3.48685
11
0.42051
21
3.48368
0
LINE
8
BLACK
6
CONTINUOUS
10
0.42051
20
3.48368
11
0.406867
21
3.48209
0
LINE
8
BLACK
6
CONTINUOUS
10
0.406867
20
3.48209
11
0.393133
21
3.48209
0
LINE
8
BLACK
6
CONTINUOUS
10
0.393133
20
3.48209
11
0.37949
21
3.48368
0
LINE
8
BLACK
6
CONTINUOUS
10
0.37949
20
3.48368
11
0.366126
21
3.48685
0
LINE
8
BLACK
6
CONTINUOUS
10
0.366126
20
3.48685
11
0.353219
21
3.49155
0
LINE
8
BLACK
6
CONTINUOUS
10
0.353219
20
3.49155
11
0.340945
21
3.49771
0
LINE
8
BLACK
6
CONTINUOUS
10
0.340945
20
3.49771
11
0.329469
21
3.50526
0
LINE
8
BLACK
6
CONTINUOUS
10
0.329469
20
3.50526
11
0.318948
21
3.51409
0
LINE
8
BLACK
6
CONTINUOUS
10
0.318948
20
3.51409
11
0.309522
21
3.52408
0
LINE
8
BLACK
6
CONTINUOUS
10
0.309522
20
3.52408
11
0.30132
21
3.5351
0
LINE
8
BLACK
6
CONTINUOUS
10
0.30132
20
3.5351
11
0.294453
21
3.54699
0
LINE
8
BLACK
6
CONTINUOUS
10
0.294453
20
3.54699
11
0.289013
21
3.5596
0
LINE
8
BLACK
6
CONTINUOUS
10
0.289013
20
3.5596
11
0.285073
21
3.57276
0
LINE
8
BLACK
6
CONTINUOUS
10
0.285073
20
3.57276
11
0.282688
21
3.58629
0
LINE
8
BLACK
6
CONTINUOUS
10
0.282688
20
3.58629
11
0.28189
21
3.6
0
LINE
8
BLACK
6
CONTINUOUS
10
0.28189
20
3.6
11
0.282688
21
3.61371
0
LINE
8
BLACK
6
CONTINUOUS
10
0.282688
20
3.61371
11
0.285073
21
3.62724
0
LINE
8
BLACK
6
CONTINUOUS
10
0.285073
20
3.62724
11
0.289013
21
3.6404
0
LINE
8
BLACK
6
CONTINUOUS
10
0.289013
20
3.6404
11
0.294453
21
3.65301
0
LINE
8
BLACK
6
CONTINUOUS
10
0.294453
20
3.65301
11
0.30132
21
3.6649
0
LINE
8
BLACK
6
CONTINUOUS
10
0.30132
20
3.6649
11
0.309522
21
3.67592
0
LINE
8
BLACK
6
CONTINUOUS
10
0.309522
20
3.67592
11
0.318948
21
3.68591
0
LINE
8
BLACK
6
CONTINUOUS
10
0.318948
20
3.68591
11
0.329469
21
3.69474
0
LINE
8
BLACK
6
CONTINUOUS
10
0.329469
20
3.69474
11
0.340945
21
3.70229
0
LINE
8
BLACK
6
CONTINUOUS
10
0.340945
20
3.70229
11
0.353219
21
3.70845
0
LINE
8
BLACK
6
CONTINUOUS
10
0.353219
20
3.70845
11
0.366126
21
3.71315
0
LINE
8
BLACK
6
CONTINUOUS
10
0.366126
20
3.71315
11
0.37949
21
3.71632
0
LINE
8
BLACK
6
CONTINUOUS
10
0.37949
20
3.71632
11
0.393133
21
3.71791
0
LINE
8
BLACK
6
CONTINUOUS
10
0.393133
20
3.71791
11
0.406867
21
3.71791
0
LINE
8
BLACK
6
CONTINUOUS
10
0.406867
20
3.71791
11
0.42051
21
3.71632
0
LINE
8
BLACK
6
CONTINUOUS
10
2.82051
20
3.71632
11
2.83387
21
3.71315
0
LINE
8
BLACK
6
CONTINUOUS
10
2.83387
20
3.71315
11
2.84678
21
3.70845
0
LINE
8
BLACK
6
CONTINUOUS
10
2.84678
20
3.70845
11
2.85906
21
3.70229
0
LINE
8
BLACK
6
CONTINUOUS
10
2.85906
20
3.70229
11
2.87053
21
3.69474
0
LINE
8
BLACK
6
CONTINUOUS
10
2.87053
20
3.69474
11
2.88105
21
3.68591
0
LINE
8
BLACK
6
CONTINUOUS
10
2.88105
20
3.68591
11
2.89048
21
3.67592
0
LINE
8
BLACK
6
CONTINUOUS
10
2.89048
20
3.67592
11
2.89868
21
3.6649
0
LINE
8
BLACK
6
CONTINUOUS
10
2.89868
20
3.6649
11
2.90555
21
3.65301
0
LINE
8
BLACK
6
CONTINUOUS
10
2.90555
20
3.65301
11
2.91099
21
3.6404
0
LINE
8
BLACK
6
CONTINUOUS
10
2.91099
20
3.6404
11
2.91493
21
3.62724
0
LINE
8
BLACK
6
CONTINUOUS
10
2.91493
20
3.62724
11
2.91731
21
3.61371
0
LINE
8
BLACK
6
CONTINUOUS
10
2.91731
20
3.61371
11
2.91811
21
3.6
0
LINE
8
BLACK
6
CONTINUOUS
10
2.91811
20
3.6
11
2.91731
21
3.58629
0
LINE
8
BLACK
6
CONTINUOUS
10
2.91731
20
3.58629
11
2.91493
21
3.57276
0
LINE
8
BLACK
6
CONTINUOUS
10
2.91493
20
3.57276
11
2.91099
21
3.5596
0
LINE
8
BLACK
6
CONTINUOUS
10
2.91099
20
3.5596
11
2.90555
21
3.54699
0
LINE
8
BLACK
6
CONTINUOUS
10
2.90555
20
3.54699
11
2.89868
21
3.5351
0
LINE
8
BLACK
6
CONTINUOUS
10
2.89868
20
3.5351
11
2.89048
21
3.52408
0
LINE
8
BLACK
6
CONTINUOUS
10
2.89048
20
3.52408
11
2.88105
21
3.51409
0
LINE
8
BLACK
6
CONTINUOUS
10
2.88105
20
3.51409
11
2.87053
21
3.50526
0
LINE
8
BLACK
6
CONTINUOUS
10
2.87053
20
3.50526
11
2.85906
21
3.49771
0
LINE
8
BLACK
6
CONTINUOUS
10
2.85906
20
3.49771
11
2.84678
21
3.49155
0
LINE
8
BLACK
6
CONTINUOUS
10
2.84678
20
3.49155
11
2.83387
21
3.48685
0
LINE
8
BLACK
6
CONTINUOUS
10
2.83387
20
3.48685
11
2.82051
21
3.48368
0
LINE
8
BLACK
6
CONTINUOUS
10
2.82051
20
3.48368
11
2.80687
21
3.48209
0
LINE
8
BLACK
6
CONTINUOUS
10
2.80687
20
3.48209
11
2.79313
21
3.48209
0
LINE
8
BLACK
6
CONTINUOUS
10
2.79313
20
3.48209
11
2.77949
21
3.48368
0
LINE
8
BLACK
6
CONTINUOUS
10
2.77949
20
3.48368
11
2.76613
21
3.48685
0
LINE
8
BLACK
6
CONTINUOUS
10
2.76613
20
3.48685
11
2.75322
21
3.49155
0
LINE
8
BLACK
6
CONTINUOUS
10
2.75322
20
3.49155
11
2.74094
21
3.49771
0
LINE
8
BLACK
6
CONTINUOUS
10
2.74094
20
3.49771
11
2.72947
21
3.50526
0
LINE
8
BLACK
6
CONTINUOUS
10
2.72947
20
3.50526
11
2.71895
21
3.51409
0
LINE
8
BLACK
6
CONTINUOUS
10
2.71895
20
3.51409
11
2.70952
21
3.52408
0
LINE
8
BLACK
6
CONTINUOUS
10
2.70952
20
3.52408
11
2.70132
21
3.5351
0
LINE
8
BLACK
6
CONTINUOUS
10
2.70132
20
3.5351
11
2.69445
21
3.54699
0
LINE
8
BLACK
6
CONTINUOUS
10
2.69445
20
3.54699
11
2.68901
21
3.5596
0
LINE
8
BLACK
6
CONTINUOUS
10
2.68901
20
3.5596
11
2.68507
21
3.57276
0
LINE
8
BLACK
6
CONTINUOUS
10
2.68507
20
3.57276
11
2.68269
21
3.58629
0
LINE
8
BLACK
6
CONTINUOUS
10
2.68269
20
3.58629
11
2.68189
21
3.6
0
LINE
8
BLACK
6
CONTINUOUS
10
2.68189
20
3.6
11
2.68269
21
3.61371
0
LINE
8
BLACK
6
CONTINUOUS
10
2.68269
20
3.61371
11
2.68507
21
3.62724
0
LINE
8
BLACK
6
CONTINUOUS
10
2.68507
20
3.62724
11
2.68901
21
3.6404
0
LINE
8
BLACK
6
CONTINUOUS
10
2.68901
20
3.6404
11
2.69445
21
3.65301
0
LINE
8
BLACK
6
CONTINUOUS
10
2.69445
20
3.65301
11
2.70132
21
3.6649
0
LINE
8
BLACK
6
CONTINUOUS
10
2.70132
20
3.6649
11
2.70952
21
3.67592
0
LINE
8
BLACK
6
CONTINUOUS
10
2.70952
20
3.67592
11
2.71895
21
3.68591
0
LINE
8
BLACK
6
CONTINUOUS
10
2.71895
20
3.68591
11
2.72947
21
3.69474
0
LINE
8
BLACK
6
CONTINUOUS
10
2.72947
20
3.69474
11
2.74094
21
3.70229
0
LINE
8
BLACK
6
CONTINUOUS
10
2.74094
20
3.70229
11
2.75322
21
3.70845
0
LINE
8
BLACK
6
CONTINUOUS
10
2.75322
20
3.70845
11
2.76613
21
3.71315
0
LINE
8
BLACK
6
CONTINUOUS
10
2.76613
20
3.71315
11
2.77949
21
3.71632
0
LINE
8
BLACK
6
CONTINUOUS
10
2.77949
20
3.71632
11
2.79313
21
3.71791
0
LINE
8
BLACK
6
CONTINUOUS
10
2.79313
20
3.71791
11
2.80687
21
3.71791
0
LINE
8
BLACK
6
CONTINUOUS
10
2.80687
20
3.71791
11
2.82051
21
3.71632
0
LINE
8
BLACK
6
CONTINUOUS
10
1.35151
20
3.58875
11
1.35964
21
3.5856
0
LINE
8
BLACK
6
CONTINUOUS
10
1.35964
20
3.5856
11
1.36705
21
3.58101
0
LINE
8
BLACK
6
CONTINUOUS
10
1.36705
20
3.58101
11
1.3735
21
3.57514
0
LINE
8
BLACK
6
CONTINUOUS
10
1.3735
20
3.57514
11
1.37875
21
3.56818
0
LINE
8
BLACK
6
CONTINUOUS
10
1.37875
20
3.56818
11
1.38264
21
3.56037
0
LINE
8
BLACK
6
CONTINUOUS
10
1.38264
20
3.56037
11
1.38502
21
3.55199
0
LINE
8
BLACK
6
CONTINUOUS
10
1.38502
20
3.55199
11
1.38583
21
3.54331
0
LINE
8
BLACK
6
CONTINUOUS
10
1.38583
20
3.54331
11
1.38502
21
3.53463
0
LINE
8
BLACK
6
CONTINUOUS
10
1.38502
20
3.53463
11
1.38264
21
3.52624
0
LINE
8
BLACK
6
CONTINUOUS
10
1.38264
20
3.52624
11
1.37875
21
3.51844
0
LINE
8
BLACK
6
CONTINUOUS
10
1.37875
20
3.51844
11
1.3735
21
3.51148
0
LINE
8
BLACK
6
CONTINUOUS
10
1.3735
20
3.51148
11
1.36705
21
3.50561
0
LINE
8
BLACK
6
CONTINUOUS
10
1.36705
20
3.50561
11
1.35964
21
3.50102
0
LINE
8
BLACK
6
CONTINUOUS
10
1.35964
20
3.50102
11
1.35151
21
3.49787
0
LINE
8
BLACK
6
CONTINUOUS
10
1.35151
20
3.49787
11
1.34294
21
3.49626
0
LINE
8
BLACK
6
CONTINUOUS
10
1.34294
20
3.49626
11
1.33422
21
3.49626
0
LINE
8
BLACK
6
CONTINUOUS
10
1.33422
20
3.49626
11
1.32565
21
3.49787
0
LINE
8
BLACK
6
CONTINUOUS
10
1.32565
20
3.49787
11
1.31752
21
3.50102
0
LINE
8
BLACK
6
CONTINUOUS
10
1.31752
20
3.50102
11
1.31011
21
3.50561
0
LINE
8
BLACK
6
CONTINUOUS
10
1.31011
20
3.50561
11
1.30367
21
3.51148
0
LINE
8
BLACK
6
CONTINUOUS
10
1.30367
20
3.51148
11
1.29841
21
3.51844
0
LINE
8
BLACK
6
CONTINUOUS
10
1.29841
20
3.51844
11
1.29453
21
3.52624
0
LINE
8
BLACK
6
CONTINUOUS
10
1.29453
20
3.52624
11
1.29214
21
3.53463
0
LINE
8
BLACK
6
CONTINUOUS
10
1.29214
20
3.53463
11
1.29134
21
3.54331
0
LINE
8
BLACK
6
CONTINUOUS
10
1.29134
20
3.54331
11
1.29214
21
3.55199
0
LINE
8
BLACK
6
CONTINUOUS
10
1.29214
20
3.55199
11
1.29453
21
3.56037
0
LINE
8
BLACK
6
CONTINUOUS
10
1.29453
20
3.56037
11
1.29841
21
3.56818
0
LINE
8
BLACK
6
CONTINUOUS
10
1.29841
20
3.56818
11
1.30367
21
3.57514
0
LINE
8
BLACK
6
CONTINUOUS
10
1.30367
20
3.57514
11
1.31011
21
3.58101
0
LINE
8
BLACK
6
CONTINUOUS
10
1.31011
20
3.58101
11
1.31752
21
3.5856
0
LINE
8
BLACK
6
CONTINUOUS
10
1.31752
20
3.5856
11
1.32565
21
3.58875
0
LINE
8
BLACK
6
CONTINUOUS
10
1.32565
20
3.58875
11
1.33422
21
3.59035
0
LINE
8
BLACK
6
CONTINUOUS
10
1.33422
20
3.59035
11
1.34294
21
3.59035
0
LINE
8
BLACK
6
CONTINUOUS
10
1.34294
20
3.59035
11
1.35151
21
3.58875
0
LINE
8
BLACK
6
CONTINUOUS
10
1.54836
20
3.58875
11
1.55649
21
3.5856
0
LINE
8
BLACK
6
CONTINUOUS
10
1.55649
20
3.5856
11
1.5639
21
3.58101
0
LINE
8
BLACK
6
CONTINUOUS
10
1.5639
20
3.58101
11
1.57035
21
3.57514
0
LINE
8
BLACK
6
CONTINUOUS
10
1.57035
20
3.57514
11
1.5756
21
3.56818
0
LINE
8
BLACK
6
CONTINUOUS
10
1.5756
20
3.56818
11
1.57949
21
3.56037
0
LINE
8
BLACK
6
CONTINUOUS
10
1.57949
20
3.56037
11
1.58187
21
3.55199
0
LINE
8
BLACK
6
CONTINUOUS
10
1.58187
20
3.55199
11
1.58268
21
3.54331
0
LINE
8
BLACK
6
CONTINUOUS
10
1.58268
20
3.54331
11
1.58187
21
3.53463
0
LINE
8
BLACK
6
CONTINUOUS
10
1.58187
20
3.53463
11
1.57949
21
3.52624
0
LINE
8
BLACK
6
CONTINUOUS
10
1.57949
20
3.52624
11
1.5756
21
3.51844
0
LINE
8
BLACK
6
CONTINUOUS
10
1.5756
20
3.51844
11
1.57035
21
3.51148
0
LINE
8
BLACK
6
CONTINUOUS
10
1.57035
20
3.51148
11
1.5639
21
3.50561
0
LINE
8
BLACK
6
CONTINUOUS
10
1.5639
20
3.50561
11
1.55649
21
3.50102
0
LINE
8
BLACK
6
CONTINUOUS
10
1.55649
20
3.50102
11
1.54836
21
3.49787
0
LINE
8
BLACK
6
CONTINUOUS
10
1.54836
20
3.49787
11
1.53979
21
3.49626
0
LINE
8
BLACK
6
CONTINUOUS
10
1.53979
20
3.49626
11
1.53107
21
3.49626
0
LINE
8
BLACK
6
CONTINUOUS
10
1.53107
20
3.49626
11
1.5225
21
3.49787
0
LINE
8
BLACK
6
CONTINUOUS
10
1.5225
20
3.49787
11
1.51437
21
3.50102
0
LINE
8
BLACK
6
CONTINUOUS
10
1.51437
20
3.50102
11
1.50696
21
3.50561
0
LINE
8
BLACK
6
CONTINUOUS
10
1.50696
20
3.50561
11
1.50052
21
3.51148
0
LINE
8
BLACK
6
CONTINUOUS
10
1.50052
20
3.51148
11
1.49527
21
3.51844
0
LINE
8
BLACK
6
CONTINUOUS
10
1.49527
20
3.51844
11
1.49138
21
3.52624
0
LINE
8
BLACK
6
CONTINUOUS
10
1.49138
20
3.52624
11
1.48899
21
3.53463
0
LINE
8
BLACK
6
CONTINUOUS
10
1.48899
20
3.53463
11
1.48819
21
3.54331
0
LINE
8
BLACK
6
CONTINUOUS
10
1.48819
20
3.54331
11
1.48899
21
3.55199
0
LINE
8
BLACK
6
CONTINUOUS
10
1.48899
20
3.55199
11
1.49138
21
3.56037
0
LINE
8
BLACK
6
CONTINUOUS
10
1.49138
20
3.56037
11
1.49527
21
3.56818
0
LINE
8
BLACK
6
CONTINUOUS
10
1.49527
20
3.56818
11
1.50052
21
3.57514
0
LINE
8
BLACK
6
CONTINUOUS
10
1.50052
20
3.57514
11
1.50696
21
3.58101
0
LINE
8
BLACK
6
CONTINUOUS
10
1.50696
20
3.58101
11
1.51437
21
3.5856
0
LINE
8
BLACK
6
CONTINUOUS
10
1.51437
20
3.5856
11
1.5225
21
3.58875
0
LINE
8
BLACK
6
CONTINUOUS
10
1.5225
20
3.58875
11
1.53107
21
3.59035
0
LINE
8
BLACK
6
CONTINUOUS
10
1.53107
20
3.59035
11
1.53979
21
3.59035
0
LINE
8
BLACK
6
CONTINUOUS
10
1.53979
20
3.59035
11
1.54836
21
3.58875
0
LINE
8
BLACK
6
CONTINUOUS
10
1.86535
20
3.5674
11
1.78661
21
3.5674
0
LINE
8
BLACK
6
CONTINUOUS
10
1.78661
20
3.5674
11
1.78661
21
3.5926
0
LINE
8
BLACK
6
CONTINUOUS
10
1.78661
20
3.5926
11
1.86535
21
3.5926
0
LINE
8
BLACK
6
CONTINUOUS
10
1.86535
20
3.5926
11
1.86535
21
3.5674
0
LINE
8
BLACK
6
CONTINUOUS
10
2.11339
20
3.5674
11
2.03465
21
3.5674
0
LINE
8
BLACK
6
CONTINUOUS
10
2.03465
20
3.5674
11
2.03465
21
3.5926
0
LINE
8
BLACK
6
CONTINUOUS
10
2.03465
20
3.5926
11
2.11339
21
3.5926
0
LINE
8
BLACK
6
CONTINUOUS
10
2.11339
20
3.5926
11
2.11339
21
3.5674
0
LINE
8
BLACK
6
CONTINUOUS
10
1.86535
20
3.6674
11
1.78661
21
3.6674
0
LINE
8
BLACK
6
CONTINUOUS
10
1.78661
20
3.6674
11
1.78661
21
3.6926
0
LINE
8
BLACK
6
CONTINUOUS
10
1.78661
20
3.6926
11
1.86535
21
3.6926
0
LINE
8
BLACK
6
CONTINUOUS
10
1.86535
20
3.6926
11
1.86535
21
3.6674
0
LINE
8
BLACK
6
CONTINUOUS
10
2.11339
20
3.6674
11
2.03465
21
3.6674
0
LINE
8
BLACK
6
CONTINUOUS
10
2.03465
20
3.6674
11
2.03465
21
3.6926
0
LINE
8
BLACK
6
CONTINUOUS
10
2.03465
20
3.6926
11
2.11339
21
3.6926
0
LINE
8
BLACK
6
CONTINUOUS
10
2.11339
20
3.6926
11
2.11339
21
3.6674
0
CIRCLE
8
BLACK
10
0.627091
20
2.89543
40
0.00688976
0
CIRCLE
8
BLACK
10
0.43024
20
2.89543
40
0.00688976
0
CIRCLE
8
BLACK
10
2.8
20
3.6
40
0.00688976
0
CIRCLE
8
BLACK
10
0.43024
20
2.69858
40
0.00688976
0
CIRCLE
8
BLACK
10
0.627091
20
2.69858
40
0.00688976
0
CIRCLE
8
BLACK
10
2.8
20
0.4
40
0.00688976
0
CIRCLE
8
BLACK
10
2.58259
20
0.815433
40
0.00688976
0
CIRCLE
8
BLACK
10
2.77944
20
0.815433
40
0.00688976
0
CIRCLE
8
BLACK
10
1.33858
20
1.87182
40
0.00688976
0
CIRCLE
8
BLACK
10
1.53543
20
1.87182
40
0.00688976
0
CIRCLE
8
BLACK
10
0.627091
20
3.28913
40
0.00688976
0
CIRCLE
8
BLACK
10
0.43024
20
3.28913
40
0.00688976
0
CIRCLE
8
BLACK
10
2.77944
20
1.01228
40
0.00688976
0
CIRCLE
8
BLACK
10
2.58259
20
1.01228
40
0.00688976
0
CIRCLE
8
BLACK
10
0.43024
20
2.10803
40
0.00688976
0
CIRCLE
8
BLACK
10
0.627091
20
2.10803
40
0.00688976
0
CIRCLE
8
BLACK
10
0.878268
20
0.636929
40
0.00688976
0
CIRCLE
8
BLACK
10
0.878268
20
0.503071
40
0.00688976
0
CIRCLE
8
BLACK
10
1.26173
20
0.636929
40
0.00688976
0
CIRCLE
8
BLACK
10
1.26173
20
0.503071
40
0.00688976
0
CIRCLE
8
BLACK
10
0.43024
20
1.12378
40
0.00688976
0
CIRCLE
8
BLACK
10
0.627091
20
1.12378
40
0.00688976
0
CIRCLE
8
BLACK
10
1.33858
20
3.12544
40
0.00688976
0
CIRCLE
8
BLACK
10
1.53543
20
3.12544
40
0.00688976
0
CIRCLE
8
BLACK
10
2.78256
20
1.21307
40
0.00688976
0
CIRCLE
8
BLACK
10
2.58571
20
1.21307
40
0.00688976
0
CIRCLE
8
BLACK
10
2.41
20
3.31
40
0.00688976
0
CIRCLE
8
BLACK
10
2.51
20
3.31
40
0.00688976
0
CIRCLE
8
BLACK
10
2.41
20
3.21
40
0.00688976
0
CIRCLE
8
BLACK
10
2.51
20
3.21
40
0.00688976
0
CIRCLE
8
BLACK
10
2.41
20
3.11
40
0.00688976
0
CIRCLE
8
BLACK
10
2.51
20
3.11
40
0.00688976
0
CIRCLE
8
BLACK
10
2.41
20
3.01
40
0.00688976
0
CIRCLE
8
BLACK
10
2.51
20
3.01
40
0.00688976
0
CIRCLE
8
BLACK
10
2.41
20
2.91
40
0.00688976
0
CIRCLE
8
BLACK
10
2.51
20
2.91
40
0.00688976
0
CIRCLE
8
BLACK
10
2.41
20
2.81
40
0.00688976
0
CIRCLE
8
BLACK
10
2.51
20
2.81
40
0.00688976
0
CIRCLE
8
BLACK
10
2.41
20
2.71
40
0.00688976
0
CIRCLE
8
BLACK
10
2.51
20
2.71
40
0.00688976
0
CIRCLE
8
BLACK
10
0.627091
20
2.50173
40
0.00688976
0
CIRCLE
8
BLACK
10
0.43024
20
2.50173
40
0.00688976
0
CIRCLE
8
BLACK
10
0.43024
20
1.71433
40
0.00688976
0
CIRCLE
8
BLACK
10
0.627091
20
1.71433
40
0.00688976
0
CIRCLE
8
BLACK
10
0.4
20
0.4
40
0.00688976
0
CIRCLE
8
BLACK
10
1.33858
20
1.45395
40
0.00688976
0
CIRCLE
8
BLACK
10
1.53543
20
1.45395
40
0.00688976
0
CIRCLE
8
BLACK
10
2.58571
20
1.40992
40
0.00688976
0
CIRCLE
8
BLACK
10
2.78256
20
1.40992
40
0.00688976
0
CIRCLE
8
BLACK
10
1.33858
20
3.54331
40
0.00688976
0
CIRCLE
8
BLACK
10
1.53543
20
3.54331
40
0.00688976
0
CIRCLE
8
BLACK
10
0.43024
20
1.51748
40
0.00688976
0
CIRCLE
8
BLACK
10
0.627091
20
1.51748
40
0.00688976
0
CIRCLE
8
BLACK
10
0.4
20
3.6
40
0.00688976
0
CIRCLE
8
BLACK
10
0.43024
20
3.09228
40
0.00688976
0
CIRCLE
8
BLACK
10
0.627091
20
3.09228
40
0.00688976
0
CIRCLE
8
BLACK
10
1.98173
20
0.503071
40
0.00688976
0
CIRCLE
8
BLACK
10
1.98173
20
0.636929
40
0.00688976
0
CIRCLE
8
BLACK
10
1.59827
20
0.503071
40
0.00688976
0
CIRCLE
8
BLACK
10
1.59827
20
0.636929
40
0.00688976
0
CIRCLE
8
BLACK
10
1.33858
20
2.70756
40
0.00688976
0
CIRCLE
8
BLACK
10
1.53543
20
2.70756
40
0.00688976
0
CIRCLE
8
BLACK
10
2.70591
20
2.31535
40
0.00688976
0
CIRCLE
8
BLACK
10
2.80591
20
2.31535
40
0.00688976
0
CIRCLE
8
BLACK
10
2.70591
20
2.21535
40
0.00688976
0
CIRCLE
8
BLACK
10
2.80591
20
2.21535
40
0.00688976
0
CIRCLE
8
BLACK
10
2.70591
20
2.11535
40
0.00688976
0
CIRCLE
8
BLACK
10
2.80591
20
2.11535
40
0.00688976
0
CIRCLE
8
BLACK
10
2.70591
20
2.01535
40
0.00688976
0
CIRCLE
8
BLACK
10
2.80591
20
2.01535
40
0.00688976
0
CIRCLE
8
BLACK
10
1.33858
20
1.03608
40
0.00688976
0
CIRCLE
8
BLACK
10
1.53543
20
1.03608
40
0.00688976
0
CIRCLE
8
BLACK
10
0.43024
20
2.30488
40
0.00688976
0
CIRCLE
8
BLACK
10
0.627091
20
2.30488
40
0.00688976
0
CIRCLE
8
BLACK
10
2.46969
20
2.31535
40
0.00688976
0
CIRCLE
8
BLACK
10
2.56969
20
2.31535
40
0.00688976
0
CIRCLE
8
BLACK
10
2.46969
20
2.21535
40
0.00688976
0
CIRCLE
8
BLACK
10
2.56969
20
2.21535
40
0.00688976
0
CIRCLE
8
BLACK
10
2.46969
20
2.11535
40
0.00688976
0
CIRCLE
8
BLACK
10
2.56969
20
2.11535
40
0.00688976
0
CIRCLE
8
BLACK
10
2.46969
20
2.01535
40
0.00688976
0
CIRCLE
8
BLACK
10
2.56969
20
2.01535
40
0.00688976
0
CIRCLE
8
BLACK
10
0.627091
20
1.32063
40
0.00688976
0
CIRCLE
8
BLACK
10
0.43024
20
1.32063
40
0.00688976
0
CIRCLE
8
BLACK
10
1.33858
20
2.28969
40
0.00688976
0
CIRCLE
8
BLACK
10
1.53543
20
2.28969
40
0.00688976
0
CIRCLE
8
BLACK
10
0.43024
20
1.91118
40
0.00688976
0
CIRCLE
8
BLACK
10
0.627091
20
1.91118
40
0.00688976
0
CIRCLE
8
BLACK
10
2.91
20
2.94
40
0.00688976
0
CIRCLE
8
BLACK
10
2.81
20
2.94
40
0.00688976
0
CIRCLE
8
BLACK
10
2.91
20
3.04
40
0.00688976
0
CIRCLE
8
BLACK
10
2.81
20
3.04
40
0.00688976
0
CIRCLE
8
BLACK
10
2.91
20
3.14
40
0.00688976
0
CIRCLE
8
BLACK
10
2.81
20
3.14
40
0.00688976
0
CIRCLE
8
BLACK
10
1.88
20
2.17
40
0.00688976
0
CIRCLE
8
BLACK
10
2.4149
20
1.22685
40
0.00688976
0
CIRCLE
8
BLACK
10
2.38231
20
0.839606
40
0.00688976
0
CIRCLE
8
BLACK
10
1.88
20
3.01
40
0.00688976
0
CIRCLE
8
BLACK
10
1.88
20
0.91
40
0.00688976
0
CIRCLE
8
BLACK
10
1.88
20
1.33
40
0.00688976
0
CIRCLE
8
BLACK
10
1.88
20
2.59
40
0.00688976
0
CIRCLE
8
BLACK
10
1.88
20
1.75
40
0.00688976
0
CIRCLE
8
BLACK
10
1.88
20
3.43
40
0.00688976
  0
ENDSEC
  0
EOF
