  0
SECTION
  2
HEADER
  9
$ANGBASE
  50
0.0
  9
$ANGDIR
  70
1
  9
$MEASUREMENT
  70
0
  0
ENDSEC
  0
SECTION
  2
TABLES
  0
TABLE
  2
LTYPE
  70
4
  0
LTYPE
  5
40F
  2
CONTINUOUS
  70
0
  3
Solid line
  72
65
  73
0
  40
0.0
  0
LTYPE
  5
410
  2
DASHDOT
 70
0
  3
Dash Dot ____ _ ____ _
 72
65
 73
4
 40
2.0
 49
1.25
 49
-0.25
 49
0.25
 49
-0.25
  0
LTYPE
  5
411
  2
DASHED
 70
0
  3
Dashed __ __ __ __ __
 72
65
 73
2
 40
0.75
 49
0.5
 49
-0.25
  0
LTYPE
  5
43B
  2
DOTTED
 70
0
  3
Dotted .  .  .  .
 72
65
 73
2
 40
0.2
 49
0.0
 49
-0.2
  0
ENDTAB
  0
TABLE
  2
STYLE
  70
4
  0
STYLE
  2
KICAD
  70
0
  40
0
  41
1
  42
1
  50
0
  71
0
  3
isocp.shx
  0
STYLE
  2
KICADB
  70
0
  40
0
  41
1
  42
1
  50
0
  71
0
  3
isocp.shx
  0
STYLE
  2
KICADI
  70
0
  40
0
  41
1
  42
1
  50
15
  71
0
  3
isocp.shx
  0
STYLE
  2
KICADBI
  70
0
  40
0
  41
1
  42
1
  50
15
  71
0
  3
isocp.shx
  0
ENDTAB
  0
TABLE
  2
LAYER
  70
1
  0
LAYER
  2
BLACK
  70
0
  62
7
  6
CONTINUOUS
  0
ENDTAB
  0
ENDSEC
  0
SECTION
  2
ENTITIES
0
LINE
8
BLACK
6
CONTINUOUS
10
4.07815
20
-0.36122
11
3.92815
21
-0.36122
0
LINE
8
BLACK
6
CONTINUOUS
10
3.92815
20
-0.36122
11
3.92815
21
-0.21122
0
LINE
8
BLACK
6
CONTINUOUS
10
3.92815
20
-0.21122
11
4.07815
21
-0.21122
0
LINE
8
BLACK
6
CONTINUOUS
10
4.07815
20
-0.21122
11
4.07815
21
-0.36122
0
LINE
8
BLACK
6
CONTINUOUS
10
4.275
20
-0.36122
11
4.125
21
-0.36122
0
LINE
8
BLACK
6
CONTINUOUS
10
4.125
20
-0.36122
11
4.125
21
-0.21122
0
LINE
8
BLACK
6
CONTINUOUS
10
4.125
20
-0.21122
11
4.275
21
-0.21122
0
LINE
8
BLACK
6
CONTINUOUS
10
4.275
20
-0.21122
11
4.275
21
-0.36122
0
LINE
8
BLACK
6
CONTINUOUS
10
4.275
20
-0.16122
11
4.125
21
-0.16122
0
LINE
8
BLACK
6
CONTINUOUS
10
4.125
20
-0.16122
11
4.125
21
-0.0112205
0
LINE
8
BLACK
6
CONTINUOUS
10
4.125
20
-0.0112205
11
4.275
21
-0.0112205
0
LINE
8
BLACK
6
CONTINUOUS
10
4.275
20
-0.0112205
11
4.275
21
-0.16122
0
LINE
8
BLACK
6
CONTINUOUS
10
4.07815
20
-0.16122
11
3.92815
21
-0.16122
0
LINE
8
BLACK
6
CONTINUOUS
10
3.92815
20
-0.16122
11
3.92815
21
-0.0112205
0
LINE
8
BLACK
6
CONTINUOUS
10
3.92815
20
-0.0112205
11
4.07815
21
-0.0112205
0
LINE
8
BLACK
6
CONTINUOUS
10
4.07815
20
-0.0112205
11
4.07815
21
-0.16122
0
LINE
8
BLACK
6
CONTINUOUS
10
0.0086502
20
0.117793
11
0.0221317
21
0.116018
0
LINE
8
BLACK
6
CONTINUOUS
10
0.0221317
20
0.116018
11
0.0353198
21
0.112706
0
LINE
8
BLACK
6
CONTINUOUS
10
0.0353198
20
0.112706
11
0.0480398
21
0.107899
0
LINE
8
BLACK
6
CONTINUOUS
10
0.0480398
20
0.107899
11
0.060123
21
0.101662
0
LINE
8
BLACK
6
CONTINUOUS
10
0.060123
20
0.101662
11
0.0714093
21
0.0940783
0
LINE
8
BLACK
6
CONTINUOUS
10
0.0714093
20
0.0940783
11
0.0817492
21
0.0852473
0
LINE
8
BLACK
6
CONTINUOUS
10
0.0817492
20
0.0852473
11
0.0910055
21
0.0752863
0
LINE
8
BLACK
6
CONTINUOUS
10
0.0910055
20
0.0752863
11
0.0990556
21
0.0643274
0
LINE
8
BLACK
6
CONTINUOUS
10
0.0990556
20
0.0643274
11
0.105793
21
0.052516
0
LINE
8
BLACK
6
CONTINUOUS
10
0.105793
20
0.052516
11
0.111128
21
0.0400084
0
LINE
8
BLACK
6
CONTINUOUS
10
0.111128
20
0.0400084
11
0.11499
21
0.0269706
0
LINE
8
BLACK
6
CONTINUOUS
10
0.11499
20
0.0269706
11
0.117327
21
0.0135752
0
LINE
8
BLACK
6
CONTINUOUS
10
0.117327
20
0.0135752
11
0.11811
21
0
0
LINE
8
BLACK
6
CONTINUOUS
10
0.11811
20
0
11
0.117877
21
-0.00741622
0
LINE
8
BLACK
6
CONTINUOUS
10
0.117877
20
-0.00741622
11
0.116244
21
-0.0209155
0
LINE
8
BLACK
6
CONTINUOUS
10
0.116244
20
-0.0209155
11
0.113069
21
-0.0341376
0
LINE
8
BLACK
6
CONTINUOUS
10
0.113069
20
-0.0341376
11
0.108396
21
-0.0469072
0
LINE
8
BLACK
6
CONTINUOUS
10
0.108396
20
-0.0469072
11
0.102286
21
-0.0590551
0
LINE
8
BLACK
6
CONTINUOUS
10
0.102286
20
-0.0590551
11
0.0948209
21
-0.0704203
0
LINE
8
BLACK
6
CONTINUOUS
10
0.0948209
20
-0.0704203
11
0.0860987
21
-0.080852
0
LINE
8
BLACK
6
CONTINUOUS
10
0.0860987
20
-0.080852
11
0.0762352
21
-0.0902121
0
LINE
8
BLACK
6
CONTINUOUS
10
0.0762352
20
-0.0902121
11
0.0653612
21
-0.0983765
0
LINE
8
BLACK
6
CONTINUOUS
10
0.0653612
20
-0.0983765
11
0.0536209
21
-0.105237
0
LINE
8
BLACK
6
CONTINUOUS
10
0.0536209
20
-0.105237
11
0.0411699
21
-0.110703
0
LINE
8
BLACK
6
CONTINUOUS
10
0.0411699
20
-0.110703
11
0.0281732
21
-0.114701
0
LINE
8
BLACK
6
CONTINUOUS
10
0.0281732
20
-0.114701
11
0.0148031
21
-0.117179
0
LINE
8
BLACK
6
CONTINUOUS
10
0.0148031
20
-0.117179
11
0.00123681
21
-0.118104
0
LINE
8
BLACK
6
CONTINUOUS
10
0.00123681
20
-0.118104
11
-0.0123459
21
-0.117463
0
LINE
8
BLACK
6
CONTINUOUS
10
-0.0123459
20
-0.117463
11
-0.025765
21
-0.115266
0
LINE
8
BLACK
6
CONTINUOUS
10
-0.025765
20
-0.115266
11
-0.0388425
21
-0.111541
0
LINE
8
BLACK
6
CONTINUOUS
10
-0.0388425
20
-0.111541
11
-0.0514052
21
-0.106337
0
LINE
8
BLACK
6
CONTINUOUS
10
-0.0514052
20
-0.106337
11
-0.0632866
21
-0.0997238
0
LINE
8
BLACK
6
CONTINUOUS
10
-0.0632866
20
-0.0997238
11
-0.0743292
21
-0.0917889
0
LINE
8
BLACK
6
CONTINUOUS
10
-0.0743292
20
-0.0917889
11
-0.0843865
21
-0.0826374
0
LINE
8
BLACK
6
CONTINUOUS
10
-0.0843865
20
-0.0826374
11
-0.0933254
21
-0.0723906
0
LINE
8
BLACK
6
CONTINUOUS
10
-0.0933254
20
-0.0723906
11
-0.101027
21
-0.0611843
0
LINE
8
BLACK
6
CONTINUOUS
10
-0.101027
20
-0.0611843
11
-0.10739
21
-0.049167
0
LINE
8
BLACK
6
CONTINUOUS
10
-0.10739
20
-0.049167
11
-0.11233
21
-0.0364981
0
LINE
8
BLACK
6
CONTINUOUS
10
-0.11233
20
-0.0364981
11
-0.11578
21
-0.0233454
0
LINE
8
BLACK
6
CONTINUOUS
10
-0.11578
20
-0.0233454
11
-0.117696
21
-0.00988323
0
LINE
8
BLACK
6
CONTINUOUS
10
-0.117696
20
-0.00988323
11
-0.118052
21
0.00370992
0
LINE
8
BLACK
6
CONTINUOUS
10
-0.118052
20
0.00370992
11
-0.116843
21
0.0172539
0
LINE
8
BLACK
6
CONTINUOUS
10
-0.116843
20
0.0172539
11
-0.114086
21
0.0305692
0
LINE
8
BLACK
6
CONTINUOUS
10
-0.114086
20
0.0305692
11
-0.109816
21
0.0434793
0
LINE
8
BLACK
6
CONTINUOUS
10
-0.109816
20
0.0434793
11
-0.104091
21
0.0558131
0
LINE
8
BLACK
6
CONTINUOUS
10
-0.104091
20
0.0558131
11
-0.0969861
21
0.0674071
0
LINE
8
BLACK
6
CONTINUOUS
10
-0.0969861
20
0.0674071
11
-0.0885958
21
0.0781077
0
LINE
8
BLACK
6
CONTINUOUS
10
-0.0885958
20
0.0781077
11
-0.0790312
21
0.087773
0
LINE
8
BLACK
6
CONTINUOUS
10
-0.0790312
20
0.087773
11
-0.0684191
21
0.0962749
0
LINE
8
BLACK
6
CONTINUOUS
10
-0.0684191
20
0.0962749
11
-0.0569
21
0.103501
0
LINE
8
BLACK
6
CONTINUOUS
10
-0.0569
20
0.103501
11
-0.0446269
21
0.109355
0
LINE
8
BLACK
6
CONTINUOUS
10
-0.0446269
20
0.109355
11
-0.0317622
21
0.113759
0
LINE
8
BLACK
6
CONTINUOUS
10
-0.0317622
20
0.113759
11
-0.0184765
21
0.116656
0
LINE
8
BLACK
6
CONTINUOUS
10
-0.0184765
20
0.116656
11
-0.00494594
21
0.118007
0
LINE
8
BLACK
6
CONTINUOUS
10
-0.00494594
20
0.118007
11
0.0086502
21
0.117793
0
LINE
8
BLACK
6
CONTINUOUS
10
1.20865
20
0.117793
11
1.22213
21
0.116018
0
LINE
8
BLACK
6
CONTINUOUS
10
1.22213
20
0.116018
11
1.23532
21
0.112706
0
LINE
8
BLACK
6
CONTINUOUS
10
1.23532
20
0.112706
11
1.24804
21
0.107899
0
LINE
8
BLACK
6
CONTINUOUS
10
1.24804
20
0.107899
11
1.26012
21
0.101662
0
LINE
8
BLACK
6
CONTINUOUS
10
1.26012
20
0.101662
11
1.27141
21
0.0940783
0
LINE
8
BLACK
6
CONTINUOUS
10
1.27141
20
0.0940783
11
1.28175
21
0.0852473
0
LINE
8
BLACK
6
CONTINUOUS
10
1.28175
20
0.0852473
11
1.29101
21
0.0752863
0
LINE
8
BLACK
6
CONTINUOUS
10
1.29101
20
0.0752863
11
1.29906
21
0.0643274
0
LINE
8
BLACK
6
CONTINUOUS
10
1.29906
20
0.0643274
11
1.30579
21
0.052516
0
LINE
8
BLACK
6
CONTINUOUS
10
1.30579
20
0.052516
11
1.31113
21
0.0400084
0
LINE
8
BLACK
6
CONTINUOUS
10
1.31113
20
0.0400084
11
1.31499
21
0.0269706
0
LINE
8
BLACK
6
CONTINUOUS
10
1.31499
20
0.0269706
11
1.31733
21
0.0135752
0
LINE
8
BLACK
6
CONTINUOUS
10
1.31733
20
0.0135752
11
1.31811
21
0
0
LINE
8
BLACK
6
CONTINUOUS
10
1.31811
20
0
11
1.31788
21
-0.00741622
0
LINE
8
BLACK
6
CONTINUOUS
10
1.31788
20
-0.00741622
11
1.31624
21
-0.0209155
0
LINE
8
BLACK
6
CONTINUOUS
10
1.31624
20
-0.0209155
11
1.31307
21
-0.0341376
0
LINE
8
BLACK
6
CONTINUOUS
10
1.31307
20
-0.0341376
11
1.3084
21
-0.0469072
0
LINE
8
BLACK
6
CONTINUOUS
10
1.3084
20
-0.0469072
11
1.30229
21
-0.0590551
0
LINE
8
BLACK
6
CONTINUOUS
10
1.30229
20
-0.0590551
11
1.29482
21
-0.0704203
0
LINE
8
BLACK
6
CONTINUOUS
10
1.29482
20
-0.0704203
11
1.2861
21
-0.080852
0
LINE
8
BLACK
6
CONTINUOUS
10
1.2861
20
-0.080852
11
1.27624
21
-0.0902121
0
LINE
8
BLACK
6
CONTINUOUS
10
1.27624
20
-0.0902121
11
1.26536
21
-0.0983765
0
LINE
8
BLACK
6
CONTINUOUS
10
1.26536
20
-0.0983765
11
1.25362
21
-0.105237
0
LINE
8
BLACK
6
CONTINUOUS
10
1.25362
20
-0.105237
11
1.24117
21
-0.110703
0
LINE
8
BLACK
6
CONTINUOUS
10
1.24117
20
-0.110703
11
1.22817
21
-0.114701
0
LINE
8
BLACK
6
CONTINUOUS
10
1.22817
20
-0.114701
11
1.2148
21
-0.117179
0
LINE
8
BLACK
6
CONTINUOUS
10
1.2148
20
-0.117179
11
1.20124
21
-0.118104
0
LINE
8
BLACK
6
CONTINUOUS
10
1.20124
20
-0.118104
11
1.18765
21
-0.117463
0
LINE
8
BLACK
6
CONTINUOUS
10
1.18765
20
-0.117463
11
1.17424
21
-0.115266
0
LINE
8
BLACK
6
CONTINUOUS
10
1.17424
20
-0.115266
11
1.16116
21
-0.111541
0
LINE
8
BLACK
6
CONTINUOUS
10
1.16116
20
-0.111541
11
1.14859
21
-0.106337
0
LINE
8
BLACK
6
CONTINUOUS
10
1.14859
20
-0.106337
11
1.13671
21
-0.0997238
0
LINE
8
BLACK
6
CONTINUOUS
10
1.13671
20
-0.0997238
11
1.12567
21
-0.0917889
0
LINE
8
BLACK
6
CONTINUOUS
10
1.12567
20
-0.0917889
11
1.11561
21
-0.0826374
0
LINE
8
BLACK
6
CONTINUOUS
10
1.11561
20
-0.0826374
11
1.10667
21
-0.0723906
0
LINE
8
BLACK
6
CONTINUOUS
10
1.10667
20
-0.0723906
11
1.09897
21
-0.0611843
0
LINE
8
BLACK
6
CONTINUOUS
10
1.09897
20
-0.0611843
11
1.09261
21
-0.049167
0
LINE
8
BLACK
6
CONTINUOUS
10
1.09261
20
-0.049167
11
1.08767
21
-0.0364981
0
LINE
8
BLACK
6
CONTINUOUS
10
1.08767
20
-0.0364981
11
1.08422
21
-0.0233454
0
LINE
8
BLACK
6
CONTINUOUS
10
1.08422
20
-0.0233454
11
1.0823
21
-0.00988323
0
LINE
8
BLACK
6
CONTINUOUS
10
1.0823
20
-0.00988323
11
1.08195
21
0.00370992
0
LINE
8
BLACK
6
CONTINUOUS
10
1.08195
20
0.00370992
11
1.08316
21
0.0172539
0
LINE
8
BLACK
6
CONTINUOUS
10
1.08316
20
0.0172539
11
1.08591
21
0.0305692
0
LINE
8
BLACK
6
CONTINUOUS
10
1.08591
20
0.0305692
11
1.09018
21
0.0434793
0
LINE
8
BLACK
6
CONTINUOUS
10
1.09018
20
0.0434793
11
1.09591
21
0.0558131
0
LINE
8
BLACK
6
CONTINUOUS
10
1.09591
20
0.0558131
11
1.10301
21
0.0674071
0
LINE
8
BLACK
6
CONTINUOUS
10
1.10301
20
0.0674071
11
1.1114
21
0.0781077
0
LINE
8
BLACK
6
CONTINUOUS
10
1.1114
20
0.0781077
11
1.12097
21
0.087773
0
LINE
8
BLACK
6
CONTINUOUS
10
1.12097
20
0.087773
11
1.13158
21
0.0962749
0
LINE
8
BLACK
6
CONTINUOUS
10
1.13158
20
0.0962749
11
1.1431
21
0.103501
0
LINE
8
BLACK
6
CONTINUOUS
10
1.1431
20
0.103501
11
1.15537
21
0.109355
0
LINE
8
BLACK
6
CONTINUOUS
10
1.15537
20
0.109355
11
1.16824
21
0.113759
0
LINE
8
BLACK
6
CONTINUOUS
10
1.16824
20
0.113759
11
1.18152
21
0.116656
0
LINE
8
BLACK
6
CONTINUOUS
10
1.18152
20
0.116656
11
1.19505
21
0.118007
0
LINE
8
BLACK
6
CONTINUOUS
10
1.19505
20
0.118007
11
1.20865
21
0.117793
0
LINE
8
BLACK
6
CONTINUOUS
10
5.93
20
0.17
11
5.87
21
0.17
0
LINE
8
BLACK
6
CONTINUOUS
10
5.87
20
0.17
11
5.87
21
0.23
0
LINE
8
BLACK
6
CONTINUOUS
10
5.87
20
0.23
11
5.93
21
0.23
0
LINE
8
BLACK
6
CONTINUOUS
10
5.93
20
0.23
11
5.93
21
0.17
0
LINE
8
BLACK
6
CONTINUOUS
10
6.03
20
0.17
11
5.97
21
0.17
0
LINE
8
BLACK
6
CONTINUOUS
10
5.97
20
0.17
11
5.97
21
0.23
0
LINE
8
BLACK
6
CONTINUOUS
10
5.97
20
0.23
11
6.03
21
0.23
0
LINE
8
BLACK
6
CONTINUOUS
10
6.03
20
0.23
11
6.03
21
0.17
0
LINE
8
BLACK
6
CONTINUOUS
10
5.93
20
0.27
11
5.87
21
0.27
0
LINE
8
BLACK
6
CONTINUOUS
10
5.87
20
0.27
11
5.87
21
0.33
0
LINE
8
BLACK
6
CONTINUOUS
10
5.87
20
0.33
11
5.93
21
0.33
0
LINE
8
BLACK
6
CONTINUOUS
10
5.93
20
0.33
11
5.93
21
0.27
0
LINE
8
BLACK
6
CONTINUOUS
10
6.03
20
0.27
11
5.97
21
0.27
0
LINE
8
BLACK
6
CONTINUOUS
10
5.97
20
0.27
11
5.97
21
0.33
0
LINE
8
BLACK
6
CONTINUOUS
10
5.97
20
0.33
11
6.03
21
0.33
0
LINE
8
BLACK
6
CONTINUOUS
10
6.03
20
0.33
11
6.03
21
0.27
0
LINE
8
BLACK
6
CONTINUOUS
10
5.93
20
0.37
11
5.87
21
0.37
0
LINE
8
BLACK
6
CONTINUOUS
10
5.87
20
0.37
11
5.87
21
0.43
0
LINE
8
BLACK
6
CONTINUOUS
10
5.87
20
0.43
11
5.93
21
0.43
0
LINE
8
BLACK
6
CONTINUOUS
10
5.93
20
0.43
11
5.93
21
0.37
0
LINE
8
BLACK
6
CONTINUOUS
10
6.03
20
0.37
11
5.97
21
0.37
0
LINE
8
BLACK
6
CONTINUOUS
10
5.97
20
0.37
11
5.97
21
0.43
0
LINE
8
BLACK
6
CONTINUOUS
10
5.97
20
0.43
11
6.03
21
0.43
0
LINE
8
BLACK
6
CONTINUOUS
10
6.03
20
0.43
11
6.03
21
0.37
0
LINE
8
BLACK
6
CONTINUOUS
10
1.28
20
0.47
11
1.22
21
0.47
0
LINE
8
BLACK
6
CONTINUOUS
10
1.22
20
0.47
11
1.22
21
0.53
0
LINE
8
BLACK
6
CONTINUOUS
10
1.22
20
0.53
11
1.28
21
0.53
0
LINE
8
BLACK
6
CONTINUOUS
10
1.28
20
0.53
11
1.28
21
0.47
0
LINE
8
BLACK
6
CONTINUOUS
10
1.18
20
0.47
11
1.12
21
0.47
0
LINE
8
BLACK
6
CONTINUOUS
10
1.12
20
0.47
11
1.12
21
0.53
0
LINE
8
BLACK
6
CONTINUOUS
10
1.12
20
0.53
11
1.18
21
0.53
0
LINE
8
BLACK
6
CONTINUOUS
10
1.18
20
0.53
11
1.18
21
0.47
0
LINE
8
BLACK
6
CONTINUOUS
10
5.93
20
0.47
11
5.87
21
0.47
0
LINE
8
BLACK
6
CONTINUOUS
10
5.87
20
0.47
11
5.87
21
0.53
0
LINE
8
BLACK
6
CONTINUOUS
10
5.87
20
0.53
11
5.93
21
0.53
0
LINE
8
BLACK
6
CONTINUOUS
10
5.93
20
0.53
11
5.93
21
0.47
0
LINE
8
BLACK
6
CONTINUOUS
10
6.03
20
0.47
11
5.97
21
0.47
0
LINE
8
BLACK
6
CONTINUOUS
10
5.97
20
0.47
11
5.97
21
0.53
0
LINE
8
BLACK
6
CONTINUOUS
10
5.97
20
0.53
11
6.03
21
0.53
0
LINE
8
BLACK
6
CONTINUOUS
10
6.03
20
0.53
11
6.03
21
0.47
0
LINE
8
BLACK
6
CONTINUOUS
10
1.28
20
0.57
11
1.22
21
0.57
0
LINE
8
BLACK
6
CONTINUOUS
10
1.22
20
0.57
11
1.22
21
0.63
0
LINE
8
BLACK
6
CONTINUOUS
10
1.22
20
0.63
11
1.28
21
0.63
0
LINE
8
BLACK
6
CONTINUOUS
10
1.28
20
0.63
11
1.28
21
0.57
0
LINE
8
BLACK
6
CONTINUOUS
10
1.18
20
0.57
11
1.12
21
0.57
0
LINE
8
BLACK
6
CONTINUOUS
10
1.12
20
0.57
11
1.12
21
0.63
0
LINE
8
BLACK
6
CONTINUOUS
10
1.12
20
0.63
11
1.18
21
0.63
0
LINE
8
BLACK
6
CONTINUOUS
10
1.18
20
0.63
11
1.18
21
0.57
0
LINE
8
BLACK
6
CONTINUOUS
10
4.20874
20
0.691515
11
4.21612
21
0.689231
0
LINE
8
BLACK
6
CONTINUOUS
10
4.21612
20
0.689231
11
4.22291
21
0.685558
0
LINE
8
BLACK
6
CONTINUOUS
10
4.22291
20
0.685558
11
4.22886
21
0.680636
0
LINE
8
BLACK
6
CONTINUOUS
10
4.22886
20
0.680636
11
4.23374
21
0.674652
0
LINE
8
BLACK
6
CONTINUOUS
10
4.23374
20
0.674652
11
4.23737
21
0.667834
0
LINE
8
BLACK
6
CONTINUOUS
10
4.23737
20
0.667834
11
4.2396
21
0.660441
0
LINE
8
BLACK
6
CONTINUOUS
10
4.2396
20
0.660441
11
4.24035
21
0.652756
0
LINE
8
BLACK
6
CONTINUOUS
10
4.24035
20
0.652756
11
4.24034
21
0.651651
0
LINE
8
BLACK
6
CONTINUOUS
10
4.24034
20
0.651651
11
4.23937
21
0.64399
0
LINE
8
BLACK
6
CONTINUOUS
10
4.23937
20
0.64399
11
4.23693
21
0.636663
0
LINE
8
BLACK
6
CONTINUOUS
10
4.23693
20
0.636663
11
4.23312
21
0.629948
0
LINE
8
BLACK
6
CONTINUOUS
10
4.23312
20
0.629948
11
4.22807
21
0.624103
0
LINE
8
BLACK
6
CONTINUOUS
10
4.22807
20
0.624103
11
4.22199
21
0.619348
0
LINE
8
BLACK
6
CONTINUOUS
10
4.22199
20
0.619348
11
4.2151
21
0.615867
0
LINE
8
BLACK
6
CONTINUOUS
10
4.2151
20
0.615867
11
4.20766
21
0.61379
0
LINE
8
BLACK
6
CONTINUOUS
10
4.20766
20
0.61379
11
4.19996
21
0.613198
0
LINE
8
BLACK
6
CONTINUOUS
10
4.19996
20
0.613198
11
4.19229
21
0.614112
0
LINE
8
BLACK
6
CONTINUOUS
10
4.19229
20
0.614112
11
4.18495
21
0.616498
0
LINE
8
BLACK
6
CONTINUOUS
10
4.18495
20
0.616498
11
4.17821
21
0.620266
0
LINE
8
BLACK
6
CONTINUOUS
10
4.17821
20
0.620266
11
4.17233
21
0.62527
0
LINE
8
BLACK
6
CONTINUOUS
10
4.17233
20
0.62527
11
4.16753
21
0.631322
0
LINE
8
BLACK
6
CONTINUOUS
10
4.16753
20
0.631322
11
4.164
21
0.63819
0
LINE
8
BLACK
6
CONTINUOUS
10
4.164
20
0.63819
11
4.16187
21
0.645613
0
LINE
8
BLACK
6
CONTINUOUS
10
4.16187
20
0.645613
11
4.16122
21
0.653308
0
LINE
8
BLACK
6
CONTINUOUS
10
4.16122
20
0.653308
11
4.16209
21
0.660982
0
LINE
8
BLACK
6
CONTINUOUS
10
4.16209
20
0.660982
11
4.16442
21
0.668343
0
LINE
8
BLACK
6
CONTINUOUS
10
4.16442
20
0.668343
11
4.16814
21
0.67511
0
LINE
8
BLACK
6
CONTINUOUS
10
4.16814
20
0.67511
11
4.1731
21
0.681025
0
LINE
8
BLACK
6
CONTINUOUS
10
4.1731
20
0.681025
11
4.17912
21
0.685864
0
LINE
8
BLACK
6
CONTINUOUS
10
4.17912
20
0.685864
11
4.18597
21
0.689442
0
LINE
8
BLACK
6
CONTINUOUS
10
4.18597
20
0.689442
11
4.19337
21
0.691622
0
LINE
8
BLACK
6
CONTINUOUS
10
4.19337
20
0.691622
11
4.20106
21
0.692322
0
LINE
8
BLACK
6
CONTINUOUS
10
4.20106
20
0.692322
11
4.20874
21
0.691515
0
LINE
8
BLACK
6
CONTINUOUS
10
4.00796
20
0.738759
11
4.01533
21
0.736475
0
LINE
8
BLACK
6
CONTINUOUS
10
4.01533
20
0.736475
11
4.02213
21
0.732802
0
LINE
8
BLACK
6
CONTINUOUS
10
4.02213
20
0.732802
11
4.02808
21
0.72788
0
LINE
8
BLACK
6
CONTINUOUS
10
4.02808
20
0.72788
11
4.03296
21
0.721896
0
LINE
8
BLACK
6
CONTINUOUS
10
4.03296
20
0.721896
11
4.03658
21
0.715078
0
LINE
8
BLACK
6
CONTINUOUS
10
4.03658
20
0.715078
11
4.03881
21
0.707685
0
LINE
8
BLACK
6
CONTINUOUS
10
4.03881
20
0.707685
11
4.03957
21
0.7
0
LINE
8
BLACK
6
CONTINUOUS
10
4.03957
20
0.7
11
4.03955
21
0.698895
0
LINE
8
BLACK
6
CONTINUOUS
10
4.03955
20
0.698895
11
4.03858
21
0.691234
0
LINE
8
BLACK
6
CONTINUOUS
10
4.03858
20
0.691234
11
4.03615
21
0.683907
0
LINE
8
BLACK
6
CONTINUOUS
10
4.03615
20
0.683907
11
4.03233
21
0.677192
0
LINE
8
BLACK
6
CONTINUOUS
10
4.03233
20
0.677192
11
4.02729
21
0.671347
0
LINE
8
BLACK
6
CONTINUOUS
10
4.02729
20
0.671347
11
4.0212
21
0.666593
0
LINE
8
BLACK
6
CONTINUOUS
10
4.0212
20
0.666593
11
4.01431
21
0.663111
0
LINE
8
BLACK
6
CONTINUOUS
10
4.01431
20
0.663111
11
4.00687
21
0.661034
0
LINE
8
BLACK
6
CONTINUOUS
10
4.00687
20
0.661034
11
3.99917
21
0.660442
0
LINE
8
BLACK
6
CONTINUOUS
10
3.99917
20
0.660442
11
3.9915
21
0.661356
0
LINE
8
BLACK
6
CONTINUOUS
10
3.9915
20
0.661356
11
3.98416
21
0.663742
0
LINE
8
BLACK
6
CONTINUOUS
10
3.98416
20
0.663742
11
3.97742
21
0.66751
0
LINE
8
BLACK
6
CONTINUOUS
10
3.97742
20
0.66751
11
3.97154
21
0.672514
0
LINE
8
BLACK
6
CONTINUOUS
10
3.97154
20
0.672514
11
3.96674
21
0.678566
0
LINE
8
BLACK
6
CONTINUOUS
10
3.96674
20
0.678566
11
3.96321
21
0.685434
0
LINE
8
BLACK
6
CONTINUOUS
10
3.96321
20
0.685434
11
3.96108
21
0.692857
0
LINE
8
BLACK
6
CONTINUOUS
10
3.96108
20
0.692857
11
3.96044
21
0.700552
0
LINE
8
BLACK
6
CONTINUOUS
10
3.96044
20
0.700552
11
3.9613
21
0.708226
0
LINE
8
BLACK
6
CONTINUOUS
10
3.9613
20
0.708226
11
3.96363
21
0.715587
0
LINE
8
BLACK
6
CONTINUOUS
10
3.96363
20
0.715587
11
3.96735
21
0.722354
0
LINE
8
BLACK
6
CONTINUOUS
10
3.96735
20
0.722354
11
3.97232
21
0.728269
0
LINE
8
BLACK
6
CONTINUOUS
10
3.97232
20
0.728269
11
3.97833
21
0.733108
0
LINE
8
BLACK
6
CONTINUOUS
10
3.97833
20
0.733108
11
3.98518
21
0.736686
0
LINE
8
BLACK
6
CONTINUOUS
10
3.98518
20
0.736686
11
3.99259
21
0.738866
0
LINE
8
BLACK
6
CONTINUOUS
10
3.99259
20
0.738866
11
4.00028
21
0.739566
0
LINE
8
BLACK
6
CONTINUOUS
10
4.00028
20
0.739566
11
4.00796
21
0.738759
0
LINE
8
BLACK
6
CONTINUOUS
10
1.28
20
0.67
11
1.22
21
0.67
0
LINE
8
BLACK
6
CONTINUOUS
10
1.22
20
0.67
11
1.22
21
0.73
0
LINE
8
BLACK
6
CONTINUOUS
10
1.22
20
0.73
11
1.28
21
0.73
0
LINE
8
BLACK
6
CONTINUOUS
10
1.28
20
0.73
11
1.28
21
0.67
0
LINE
8
BLACK
6
CONTINUOUS
10
1.18
20
0.67
11
1.12
21
0.67
0
LINE
8
BLACK
6
CONTINUOUS
10
1.12
20
0.67
11
1.12
21
0.73
0
LINE
8
BLACK
6
CONTINUOUS
10
1.12
20
0.73
11
1.18
21
0.73
0
LINE
8
BLACK
6
CONTINUOUS
10
1.18
20
0.73
11
1.18
21
0.67
0
LINE
8
BLACK
6
CONTINUOUS
10
3.66426
20
1.07813
11
3.67163
21
1.07585
0
LINE
8
BLACK
6
CONTINUOUS
10
3.67163
20
1.07585
11
3.67842
21
1.07217
0
LINE
8
BLACK
6
CONTINUOUS
10
3.67842
20
1.07217
11
3.68437
21
1.06725
0
LINE
8
BLACK
6
CONTINUOUS
10
3.68437
20
1.06725
11
3.68926
21
1.06127
0
LINE
8
BLACK
6
CONTINUOUS
10
3.68926
20
1.06127
11
3.69288
21
1.05445
0
LINE
8
BLACK
6
CONTINUOUS
10
3.69288
20
1.05445
11
3.69511
21
1.04706
0
LINE
8
BLACK
6
CONTINUOUS
10
3.69511
20
1.04706
11
3.69587
21
1.03937
0
LINE
8
BLACK
6
CONTINUOUS
10
3.69587
20
1.03937
11
3.69585
21
1.03827
0
LINE
8
BLACK
6
CONTINUOUS
10
3.69585
20
1.03827
11
3.69488
21
1.0306
0
LINE
8
BLACK
6
CONTINUOUS
10
3.69488
20
1.0306
11
3.69245
21
1.02328
0
LINE
8
BLACK
6
CONTINUOUS
10
3.69245
20
1.02328
11
3.68863
21
1.01656
0
LINE
8
BLACK
6
CONTINUOUS
10
3.68863
20
1.01656
11
3.68359
21
1.01072
0
LINE
8
BLACK
6
CONTINUOUS
10
3.68359
20
1.01072
11
3.6775
21
1.00596
0
LINE
8
BLACK
6
CONTINUOUS
10
3.6775
20
1.00596
11
3.67061
21
1.00248
0
LINE
8
BLACK
6
CONTINUOUS
10
3.67061
20
1.00248
11
3.66317
21
1.0004
0
LINE
8
BLACK
6
CONTINUOUS
10
3.66317
20
1.0004
11
3.65547
21
0.999812
0
LINE
8
BLACK
6
CONTINUOUS
10
3.65547
20
0.999812
11
3.6478
21
1.00073
0
LINE
8
BLACK
6
CONTINUOUS
10
3.6478
20
1.00073
11
3.64046
21
1.00311
0
LINE
8
BLACK
6
CONTINUOUS
10
3.64046
20
1.00311
11
3.63372
21
1.00688
0
LINE
8
BLACK
6
CONTINUOUS
10
3.63372
20
1.00688
11
3.62784
21
1.01188
0
LINE
8
BLACK
6
CONTINUOUS
10
3.62784
20
1.01188
11
3.62304
21
1.01794
0
LINE
8
BLACK
6
CONTINUOUS
10
3.62304
20
1.01794
11
3.61951
21
1.0248
0
LINE
8
BLACK
6
CONTINUOUS
10
3.61951
20
1.0248
11
3.61738
21
1.03223
0
LINE
8
BLACK
6
CONTINUOUS
10
3.61738
20
1.03223
11
3.61674
21
1.03992
0
LINE
8
BLACK
6
CONTINUOUS
10
3.61674
20
1.03992
11
3.6176
21
1.0476
0
LINE
8
BLACK
6
CONTINUOUS
10
3.6176
20
1.0476
11
3.61993
21
1.05496
0
LINE
8
BLACK
6
CONTINUOUS
10
3.61993
20
1.05496
11
3.62365
21
1.06172
0
LINE
8
BLACK
6
CONTINUOUS
10
3.62365
20
1.06172
11
3.62862
21
1.06764
0
LINE
8
BLACK
6
CONTINUOUS
10
3.62862
20
1.06764
11
3.63463
21
1.07248
0
LINE
8
BLACK
6
CONTINUOUS
10
3.63463
20
1.07248
11
3.64148
21
1.07606
0
LINE
8
BLACK
6
CONTINUOUS
10
3.64148
20
1.07606
11
3.64889
21
1.07824
0
LINE
8
BLACK
6
CONTINUOUS
10
3.64889
20
1.07824
11
3.65658
21
1.07894
0
LINE
8
BLACK
6
CONTINUOUS
10
3.65658
20
1.07894
11
3.66426
21
1.07813
0
LINE
8
BLACK
6
CONTINUOUS
10
3.46347
20
1.12537
11
3.47084
21
1.12309
0
LINE
8
BLACK
6
CONTINUOUS
10
3.47084
20
1.12309
11
3.47764
21
1.11942
0
LINE
8
BLACK
6
CONTINUOUS
10
3.47764
20
1.11942
11
3.48359
21
1.11449
0
LINE
8
BLACK
6
CONTINUOUS
10
3.48359
20
1.11449
11
3.48847
21
1.10851
0
LINE
8
BLACK
6
CONTINUOUS
10
3.48847
20
1.10851
11
3.49209
21
1.10169
0
LINE
8
BLACK
6
CONTINUOUS
10
3.49209
20
1.10169
11
3.49433
21
1.0943
0
LINE
8
BLACK
6
CONTINUOUS
10
3.49433
20
1.0943
11
3.49508
21
1.08661
0
LINE
8
BLACK
6
CONTINUOUS
10
3.49508
20
1.08661
11
3.49506
21
1.08551
0
LINE
8
BLACK
6
CONTINUOUS
10
3.49506
20
1.08551
11
3.4941
21
1.07785
0
LINE
8
BLACK
6
CONTINUOUS
10
3.4941
20
1.07785
11
3.49166
21
1.07052
0
LINE
8
BLACK
6
CONTINUOUS
10
3.49166
20
1.07052
11
3.48784
21
1.06381
0
LINE
8
BLACK
6
CONTINUOUS
10
3.48784
20
1.06381
11
3.4828
21
1.05796
0
LINE
8
BLACK
6
CONTINUOUS
10
3.4828
20
1.05796
11
3.47671
21
1.05321
0
LINE
8
BLACK
6
CONTINUOUS
10
3.47671
20
1.05321
11
3.46982
21
1.04973
0
LINE
8
BLACK
6
CONTINUOUS
10
3.46982
20
1.04973
11
3.46238
21
1.04765
0
LINE
8
BLACK
6
CONTINUOUS
10
3.46238
20
1.04765
11
3.45468
21
1.04706
0
LINE
8
BLACK
6
CONTINUOUS
10
3.45468
20
1.04706
11
3.44702
21
1.04797
0
LINE
8
BLACK
6
CONTINUOUS
10
3.44702
20
1.04797
11
3.43967
21
1.05036
0
LINE
8
BLACK
6
CONTINUOUS
10
3.43967
20
1.05036
11
3.43293
21
1.05412
0
LINE
8
BLACK
6
CONTINUOUS
10
3.43293
20
1.05412
11
3.42705
21
1.05913
0
LINE
8
BLACK
6
CONTINUOUS
10
3.42705
20
1.05913
11
3.42225
21
1.06518
0
LINE
8
BLACK
6
CONTINUOUS
10
3.42225
20
1.06518
11
3.41872
21
1.07205
0
LINE
8
BLACK
6
CONTINUOUS
10
3.41872
20
1.07205
11
3.41659
21
1.07947
0
LINE
8
BLACK
6
CONTINUOUS
10
3.41659
20
1.07947
11
3.41595
21
1.08717
0
LINE
8
BLACK
6
CONTINUOUS
10
3.41595
20
1.08717
11
3.41681
21
1.09484
0
LINE
8
BLACK
6
CONTINUOUS
10
3.41681
20
1.09484
11
3.41914
21
1.1022
0
LINE
8
BLACK
6
CONTINUOUS
10
3.41914
20
1.1022
11
3.42286
21
1.10897
0
LINE
8
BLACK
6
CONTINUOUS
10
3.42286
20
1.10897
11
3.42783
21
1.11488
0
LINE
8
BLACK
6
CONTINUOUS
10
3.42783
20
1.11488
11
3.43385
21
1.11972
0
LINE
8
BLACK
6
CONTINUOUS
10
3.43385
20
1.11972
11
3.44069
21
1.1233
0
LINE
8
BLACK
6
CONTINUOUS
10
3.44069
20
1.1233
11
3.4481
21
1.12548
0
LINE
8
BLACK
6
CONTINUOUS
10
3.4481
20
1.12548
11
3.45579
21
1.12618
0
LINE
8
BLACK
6
CONTINUOUS
10
3.45579
20
1.12618
11
3.46347
21
1.12537
0
LINE
8
BLACK
6
CONTINUOUS
10
1.20865
20
1.31779
11
1.22213
21
1.31602
0
LINE
8
BLACK
6
CONTINUOUS
10
1.22213
20
1.31602
11
1.23532
21
1.31271
0
LINE
8
BLACK
6
CONTINUOUS
10
1.23532
20
1.31271
11
1.24804
21
1.3079
0
LINE
8
BLACK
6
CONTINUOUS
10
1.24804
20
1.3079
11
1.26012
21
1.30166
0
LINE
8
BLACK
6
CONTINUOUS
10
1.26012
20
1.30166
11
1.27141
21
1.29408
0
LINE
8
BLACK
6
CONTINUOUS
10
1.27141
20
1.29408
11
1.28175
21
1.28525
0
LINE
8
BLACK
6
CONTINUOUS
10
1.28175
20
1.28525
11
1.29101
21
1.27529
0
LINE
8
BLACK
6
CONTINUOUS
10
1.29101
20
1.27529
11
1.29906
21
1.26433
0
LINE
8
BLACK
6
CONTINUOUS
10
1.29906
20
1.26433
11
1.30579
21
1.25252
0
LINE
8
BLACK
6
CONTINUOUS
10
1.30579
20
1.25252
11
1.31113
21
1.24001
0
LINE
8
BLACK
6
CONTINUOUS
10
1.31113
20
1.24001
11
1.31499
21
1.22697
0
LINE
8
BLACK
6
CONTINUOUS
10
1.31499
20
1.22697
11
1.31733
21
1.21358
0
LINE
8
BLACK
6
CONTINUOUS
10
1.31733
20
1.21358
11
1.31811
21
1.2
0
LINE
8
BLACK
6
CONTINUOUS
10
1.31811
20
1.2
11
1.31788
21
1.19258
0
LINE
8
BLACK
6
CONTINUOUS
10
1.31788
20
1.19258
11
1.31624
21
1.17908
0
LINE
8
BLACK
6
CONTINUOUS
10
1.31624
20
1.17908
11
1.31307
21
1.16586
0
LINE
8
BLACK
6
CONTINUOUS
10
1.31307
20
1.16586
11
1.3084
21
1.15309
0
LINE
8
BLACK
6
CONTINUOUS
10
1.3084
20
1.15309
11
1.30229
21
1.14094
0
LINE
8
BLACK
6
CONTINUOUS
10
1.30229
20
1.14094
11
1.29482
21
1.12958
0
LINE
8
BLACK
6
CONTINUOUS
10
1.29482
20
1.12958
11
1.2861
21
1.11915
0
LINE
8
BLACK
6
CONTINUOUS
10
1.2861
20
1.11915
11
1.27624
21
1.10979
0
LINE
8
BLACK
6
CONTINUOUS
10
1.27624
20
1.10979
11
1.26536
21
1.10162
0
LINE
8
BLACK
6
CONTINUOUS
10
1.26536
20
1.10162
11
1.25362
21
1.09476
0
LINE
8
BLACK
6
CONTINUOUS
10
1.25362
20
1.09476
11
1.24117
21
1.0893
0
LINE
8
BLACK
6
CONTINUOUS
10
1.24117
20
1.0893
11
1.22817
21
1.0853
0
LINE
8
BLACK
6
CONTINUOUS
10
1.22817
20
1.0853
11
1.2148
21
1.08282
0
LINE
8
BLACK
6
CONTINUOUS
10
1.2148
20
1.08282
11
1.20124
21
1.0819
0
LINE
8
BLACK
6
CONTINUOUS
10
1.20124
20
1.0819
11
1.18765
21
1.08254
0
LINE
8
BLACK
6
CONTINUOUS
10
1.18765
20
1.08254
11
1.17424
21
1.08473
0
LINE
8
BLACK
6
CONTINUOUS
10
1.17424
20
1.08473
11
1.16116
21
1.08846
0
LINE
8
BLACK
6
CONTINUOUS
10
1.16116
20
1.08846
11
1.14859
21
1.09366
0
LINE
8
BLACK
6
CONTINUOUS
10
1.14859
20
1.09366
11
1.13671
21
1.10028
0
LINE
8
BLACK
6
CONTINUOUS
10
1.13671
20
1.10028
11
1.12567
21
1.10821
0
LINE
8
BLACK
6
CONTINUOUS
10
1.12567
20
1.10821
11
1.11561
21
1.11736
0
LINE
8
BLACK
6
CONTINUOUS
10
1.11561
20
1.11736
11
1.10667
21
1.12761
0
LINE
8
BLACK
6
CONTINUOUS
10
1.10667
20
1.12761
11
1.09897
21
1.13882
0
LINE
8
BLACK
6
CONTINUOUS
10
1.09897
20
1.13882
11
1.09261
21
1.15083
0
LINE
8
BLACK
6
CONTINUOUS
10
1.09261
20
1.15083
11
1.08767
21
1.1635
0
LINE
8
BLACK
6
CONTINUOUS
10
1.08767
20
1.1635
11
1.08422
21
1.17665
0
LINE
8
BLACK
6
CONTINUOUS
10
1.08422
20
1.17665
11
1.0823
21
1.19012
0
LINE
8
BLACK
6
CONTINUOUS
10
1.0823
20
1.19012
11
1.08195
21
1.20371
0
LINE
8
BLACK
6
CONTINUOUS
10
1.08195
20
1.20371
11
1.08316
21
1.21725
0
LINE
8
BLACK
6
CONTINUOUS
10
1.08316
20
1.21725
11
1.08591
21
1.23057
0
LINE
8
BLACK
6
CONTINUOUS
10
1.08591
20
1.23057
11
1.09018
21
1.24348
0
LINE
8
BLACK
6
CONTINUOUS
10
1.09018
20
1.24348
11
1.09591
21
1.25581
0
LINE
8
BLACK
6
CONTINUOUS
10
1.09591
20
1.25581
11
1.10301
21
1.26741
0
LINE
8
BLACK
6
CONTINUOUS
10
1.10301
20
1.26741
11
1.1114
21
1.27811
0
LINE
8
BLACK
6
CONTINUOUS
10
1.1114
20
1.27811
11
1.12097
21
1.28777
0
LINE
8
BLACK
6
CONTINUOUS
10
1.12097
20
1.28777
11
1.13158
21
1.29627
0
LINE
8
BLACK
6
CONTINUOUS
10
1.13158
20
1.29627
11
1.1431
21
1.3035
0
LINE
8
BLACK
6
CONTINUOUS
10
1.1431
20
1.3035
11
1.15537
21
1.30935
0
LINE
8
BLACK
6
CONTINUOUS
10
1.15537
20
1.30935
11
1.16824
21
1.31376
0
LINE
8
BLACK
6
CONTINUOUS
10
1.16824
20
1.31376
11
1.18152
21
1.31666
0
LINE
8
BLACK
6
CONTINUOUS
10
1.18152
20
1.31666
11
1.19505
21
1.31801
0
LINE
8
BLACK
6
CONTINUOUS
10
1.19505
20
1.31801
11
1.20865
21
1.31779
0
LINE
8
BLACK
6
CONTINUOUS
10
0.0086502
20
1.31779
11
0.0221317
21
1.31602
0
LINE
8
BLACK
6
CONTINUOUS
10
0.0221317
20
1.31602
11
0.0353198
21
1.31271
0
LINE
8
BLACK
6
CONTINUOUS
10
0.0353198
20
1.31271
11
0.0480398
21
1.3079
0
LINE
8
BLACK
6
CONTINUOUS
10
0.0480398
20
1.3079
11
0.060123
21
1.30166
0
LINE
8
BLACK
6
CONTINUOUS
10
0.060123
20
1.30166
11
0.0714093
21
1.29408
0
LINE
8
BLACK
6
CONTINUOUS
10
0.0714093
20
1.29408
11
0.0817492
21
1.28525
0
LINE
8
BLACK
6
CONTINUOUS
10
0.0817492
20
1.28525
11
0.0910055
21
1.27529
0
LINE
8
BLACK
6
CONTINUOUS
10
0.0910055
20
1.27529
11
0.0990556
21
1.26433
0
LINE
8
BLACK
6
CONTINUOUS
10
0.0990556
20
1.26433
11
0.105793
21
1.25252
0
LINE
8
BLACK
6
CONTINUOUS
10
0.105793
20
1.25252
11
0.111128
21
1.24001
0
LINE
8
BLACK
6
CONTINUOUS
10
0.111128
20
1.24001
11
0.11499
21
1.22697
0
LINE
8
BLACK
6
CONTINUOUS
10
0.11499
20
1.22697
11
0.117327
21
1.21358
0
LINE
8
BLACK
6
CONTINUOUS
10
0.117327
20
1.21358
11
0.11811
21
1.2
0
LINE
8
BLACK
6
CONTINUOUS
10
0.11811
20
1.2
11
0.117877
21
1.19258
0
LINE
8
BLACK
6
CONTINUOUS
10
0.117877
20
1.19258
11
0.116244
21
1.17908
0
LINE
8
BLACK
6
CONTINUOUS
10
0.116244
20
1.17908
11
0.113069
21
1.16586
0
LINE
8
BLACK
6
CONTINUOUS
10
0.113069
20
1.16586
11
0.108396
21
1.15309
0
LINE
8
BLACK
6
CONTINUOUS
10
0.108396
20
1.15309
11
0.102286
21
1.14094
0
LINE
8
BLACK
6
CONTINUOUS
10
0.102286
20
1.14094
11
0.0948209
21
1.12958
0
LINE
8
BLACK
6
CONTINUOUS
10
0.0948209
20
1.12958
11
0.0860987
21
1.11915
0
LINE
8
BLACK
6
CONTINUOUS
10
0.0860987
20
1.11915
11
0.0762352
21
1.10979
0
LINE
8
BLACK
6
CONTINUOUS
10
0.0762352
20
1.10979
11
0.0653612
21
1.10162
0
LINE
8
BLACK
6
CONTINUOUS
10
0.0653612
20
1.10162
11
0.0536209
21
1.09476
0
LINE
8
BLACK
6
CONTINUOUS
10
0.0536209
20
1.09476
11
0.0411699
21
1.0893
0
LINE
8
BLACK
6
CONTINUOUS
10
0.0411699
20
1.0893
11
0.0281732
21
1.0853
0
LINE
8
BLACK
6
CONTINUOUS
10
0.0281732
20
1.0853
11
0.0148031
21
1.08282
0
LINE
8
BLACK
6
CONTINUOUS
10
0.0148031
20
1.08282
11
0.00123681
21
1.0819
0
LINE
8
BLACK
6
CONTINUOUS
10
0.00123681
20
1.0819
11
-0.0123459
21
1.08254
0
LINE
8
BLACK
6
CONTINUOUS
10
-0.0123459
20
1.08254
11
-0.025765
21
1.08473
0
LINE
8
BLACK
6
CONTINUOUS
10
-0.025765
20
1.08473
11
-0.0388425
21
1.08846
0
LINE
8
BLACK
6
CONTINUOUS
10
-0.0388425
20
1.08846
11
-0.0514052
21
1.09366
0
LINE
8
BLACK
6
CONTINUOUS
10
-0.0514052
20
1.09366
11
-0.0632866
21
1.10028
0
LINE
8
BLACK
6
CONTINUOUS
10
-0.0632866
20
1.10028
11
-0.0743292
21
1.10821
0
LINE
8
BLACK
6
CONTINUOUS
10
-0.0743292
20
1.10821
11
-0.0843865
21
1.11736
0
LINE
8
BLACK
6
CONTINUOUS
10
-0.0843865
20
1.11736
11
-0.0933254
21
1.12761
0
LINE
8
BLACK
6
CONTINUOUS
10
-0.0933254
20
1.12761
11
-0.101027
21
1.13882
0
LINE
8
BLACK
6
CONTINUOUS
10
-0.101027
20
1.13882
11
-0.10739
21
1.15083
0
LINE
8
BLACK
6
CONTINUOUS
10
-0.10739
20
1.15083
11
-0.11233
21
1.1635
0
LINE
8
BLACK
6
CONTINUOUS
10
-0.11233
20
1.1635
11
-0.11578
21
1.17665
0
LINE
8
BLACK
6
CONTINUOUS
10
-0.11578
20
1.17665
11
-0.117696
21
1.19012
0
LINE
8
BLACK
6
CONTINUOUS
10
-0.117696
20
1.19012
11
-0.118052
21
1.20371
0
LINE
8
BLACK
6
CONTINUOUS
10
-0.118052
20
1.20371
11
-0.116843
21
1.21725
0
LINE
8
BLACK
6
CONTINUOUS
10
-0.116843
20
1.21725
11
-0.114086
21
1.23057
0
LINE
8
BLACK
6
CONTINUOUS
10
-0.114086
20
1.23057
11
-0.109816
21
1.24348
0
LINE
8
BLACK
6
CONTINUOUS
10
-0.109816
20
1.24348
11
-0.104091
21
1.25581
0
LINE
8
BLACK
6
CONTINUOUS
10
-0.104091
20
1.25581
11
-0.0969861
21
1.26741
0
LINE
8
BLACK
6
CONTINUOUS
10
-0.0969861
20
1.26741
11
-0.0885958
21
1.27811
0
LINE
8
BLACK
6
CONTINUOUS
10
-0.0885958
20
1.27811
11
-0.0790312
21
1.28777
0
LINE
8
BLACK
6
CONTINUOUS
10
-0.0790312
20
1.28777
11
-0.0684191
21
1.29627
0
LINE
8
BLACK
6
CONTINUOUS
10
-0.0684191
20
1.29627
11
-0.0569
21
1.3035
0
LINE
8
BLACK
6
CONTINUOUS
10
-0.0569
20
1.3035
11
-0.0446269
21
1.30935
0
LINE
8
BLACK
6
CONTINUOUS
10
-0.0446269
20
1.30935
11
-0.0317622
21
1.31376
0
LINE
8
BLACK
6
CONTINUOUS
10
-0.0317622
20
1.31376
11
-0.0184765
21
1.31666
0
LINE
8
BLACK
6
CONTINUOUS
10
-0.0184765
20
1.31666
11
-0.00494594
21
1.31801
0
LINE
8
BLACK
6
CONTINUOUS
10
-0.00494594
20
1.31801
11
0.0086502
21
1.31779
0
LINE
8
BLACK
6
CONTINUOUS
10
5.38
20
1.22
11
5.32
21
1.22
0
LINE
8
BLACK
6
CONTINUOUS
10
5.32
20
1.22
11
5.32
21
1.28
0
LINE
8
BLACK
6
CONTINUOUS
10
5.32
20
1.28
11
5.38
21
1.28
0
LINE
8
BLACK
6
CONTINUOUS
10
5.38
20
1.28
11
5.38
21
1.22
0
LINE
8
BLACK
6
CONTINUOUS
10
5.48
20
1.22
11
5.42
21
1.22
0
LINE
8
BLACK
6
CONTINUOUS
10
5.42
20
1.22
11
5.42
21
1.28
0
LINE
8
BLACK
6
CONTINUOUS
10
5.42
20
1.28
11
5.48
21
1.28
0
LINE
8
BLACK
6
CONTINUOUS
10
5.48
20
1.28
11
5.48
21
1.22
0
LINE
8
BLACK
6
CONTINUOUS
10
5.48
20
1.32
11
5.42
21
1.32
0
LINE
8
BLACK
6
CONTINUOUS
10
5.42
20
1.32
11
5.42
21
1.38
0
LINE
8
BLACK
6
CONTINUOUS
10
5.42
20
1.38
11
5.48
21
1.38
0
LINE
8
BLACK
6
CONTINUOUS
10
5.48
20
1.38
11
5.48
21
1.32
0
LINE
8
BLACK
6
CONTINUOUS
10
5.38
20
1.32
11
5.32
21
1.32
0
LINE
8
BLACK
6
CONTINUOUS
10
5.32
20
1.32
11
5.32
21
1.38
0
LINE
8
BLACK
6
CONTINUOUS
10
5.32
20
1.38
11
5.38
21
1.38
0
LINE
8
BLACK
6
CONTINUOUS
10
5.38
20
1.38
11
5.38
21
1.32
0
LINE
8
BLACK
6
CONTINUOUS
10
5.48
20
1.42
11
5.42
21
1.42
0
LINE
8
BLACK
6
CONTINUOUS
10
5.42
20
1.42
11
5.42
21
1.48
0
LINE
8
BLACK
6
CONTINUOUS
10
5.42
20
1.48
11
5.48
21
1.48
0
LINE
8
BLACK
6
CONTINUOUS
10
5.48
20
1.48
11
5.48
21
1.42
0
LINE
8
BLACK
6
CONTINUOUS
10
5.38
20
1.42
11
5.32
21
1.42
0
LINE
8
BLACK
6
CONTINUOUS
10
5.32
20
1.42
11
5.32
21
1.48
0
LINE
8
BLACK
6
CONTINUOUS
10
5.32
20
1.48
11
5.38
21
1.48
0
LINE
8
BLACK
6
CONTINUOUS
10
5.38
20
1.48
11
5.38
21
1.42
0
LINE
8
BLACK
6
CONTINUOUS
10
5.48
20
1.52
11
5.42
21
1.52
0
LINE
8
BLACK
6
CONTINUOUS
10
5.42
20
1.52
11
5.42
21
1.58
0
LINE
8
BLACK
6
CONTINUOUS
10
5.42
20
1.58
11
5.48
21
1.58
0
LINE
8
BLACK
6
CONTINUOUS
10
5.48
20
1.58
11
5.48
21
1.52
0
LINE
8
BLACK
6
CONTINUOUS
10
5.38
20
1.52
11
5.32
21
1.52
0
LINE
8
BLACK
6
CONTINUOUS
10
5.32
20
1.52
11
5.32
21
1.58
0
LINE
8
BLACK
6
CONTINUOUS
10
5.32
20
1.58
11
5.38
21
1.58
0
LINE
8
BLACK
6
CONTINUOUS
10
5.38
20
1.58
11
5.38
21
1.52
0
LINE
8
BLACK
6
CONTINUOUS
10
5.18
20
2.02
11
5.12
21
2.02
0
LINE
8
BLACK
6
CONTINUOUS
10
5.12
20
2.02
11
5.12
21
2.08
0
LINE
8
BLACK
6
CONTINUOUS
10
5.12
20
2.08
11
5.18
21
2.08
0
LINE
8
BLACK
6
CONTINUOUS
10
5.18
20
2.08
11
5.18
21
2.02
0
LINE
8
BLACK
6
CONTINUOUS
10
5.28
20
2.02
11
5.22
21
2.02
0
LINE
8
BLACK
6
CONTINUOUS
10
5.22
20
2.02
11
5.22
21
2.08
0
LINE
8
BLACK
6
CONTINUOUS
10
5.22
20
2.08
11
5.28
21
2.08
0
LINE
8
BLACK
6
CONTINUOUS
10
5.28
20
2.08
11
5.28
21
2.02
0
LINE
8
BLACK
6
CONTINUOUS
10
5.28
20
2.12
11
5.22
21
2.12
0
LINE
8
BLACK
6
CONTINUOUS
10
5.22
20
2.12
11
5.22
21
2.18
0
LINE
8
BLACK
6
CONTINUOUS
10
5.22
20
2.18
11
5.28
21
2.18
0
LINE
8
BLACK
6
CONTINUOUS
10
5.28
20
2.18
11
5.28
21
2.12
0
LINE
8
BLACK
6
CONTINUOUS
10
5.18
20
2.12
11
5.12
21
2.12
0
LINE
8
BLACK
6
CONTINUOUS
10
5.12
20
2.12
11
5.12
21
2.18
0
LINE
8
BLACK
6
CONTINUOUS
10
5.12
20
2.18
11
5.18
21
2.18
0
LINE
8
BLACK
6
CONTINUOUS
10
5.18
20
2.18
11
5.18
21
2.12
0
LINE
8
BLACK
6
CONTINUOUS
10
4.775
20
2.13878
11
4.625
21
2.13878
0
LINE
8
BLACK
6
CONTINUOUS
10
4.625
20
2.13878
11
4.625
21
2.28878
0
LINE
8
BLACK
6
CONTINUOUS
10
4.625
20
2.28878
11
4.775
21
2.28878
0
LINE
8
BLACK
6
CONTINUOUS
10
4.775
20
2.28878
11
4.775
21
2.13878
0
LINE
8
BLACK
6
CONTINUOUS
10
4.57815
20
2.13878
11
4.42815
21
2.13878
0
LINE
8
BLACK
6
CONTINUOUS
10
4.42815
20
2.13878
11
4.42815
21
2.28878
0
LINE
8
BLACK
6
CONTINUOUS
10
4.42815
20
2.28878
11
4.57815
21
2.28878
0
LINE
8
BLACK
6
CONTINUOUS
10
4.57815
20
2.28878
11
4.57815
21
2.13878
0
LINE
8
BLACK
6
CONTINUOUS
10
5.18
20
2.22
11
5.12
21
2.22
0
LINE
8
BLACK
6
CONTINUOUS
10
5.12
20
2.22
11
5.12
21
2.28
0
LINE
8
BLACK
6
CONTINUOUS
10
5.12
20
2.28
11
5.18
21
2.28
0
LINE
8
BLACK
6
CONTINUOUS
10
5.18
20
2.28
11
5.18
21
2.22
0
LINE
8
BLACK
6
CONTINUOUS
10
5.28
20
2.22
11
5.22
21
2.22
0
LINE
8
BLACK
6
CONTINUOUS
10
5.22
20
2.22
11
5.22
21
2.28
0
LINE
8
BLACK
6
CONTINUOUS
10
5.22
20
2.28
11
5.28
21
2.28
0
LINE
8
BLACK
6
CONTINUOUS
10
5.28
20
2.28
11
5.28
21
2.22
0
LINE
8
BLACK
6
CONTINUOUS
10
5.18
20
2.32
11
5.12
21
2.32
0
LINE
8
BLACK
6
CONTINUOUS
10
5.12
20
2.32
11
5.12
21
2.38
0
LINE
8
BLACK
6
CONTINUOUS
10
5.12
20
2.38
11
5.18
21
2.38
0
LINE
8
BLACK
6
CONTINUOUS
10
5.18
20
2.38
11
5.18
21
2.32
0
LINE
8
BLACK
6
CONTINUOUS
10
5.28
20
2.32
11
5.22
21
2.32
0
LINE
8
BLACK
6
CONTINUOUS
10
5.22
20
2.32
11
5.22
21
2.38
0
LINE
8
BLACK
6
CONTINUOUS
10
5.22
20
2.38
11
5.28
21
2.38
0
LINE
8
BLACK
6
CONTINUOUS
10
5.28
20
2.38
11
5.28
21
2.32
0
LINE
8
BLACK
6
CONTINUOUS
10
4.07815
20
2.63878
11
3.92815
21
2.63878
0
LINE
8
BLACK
6
CONTINUOUS
10
3.92815
20
2.63878
11
3.92815
21
2.78878
0
LINE
8
BLACK
6
CONTINUOUS
10
3.92815
20
2.78878
11
4.07815
21
2.78878
0
LINE
8
BLACK
6
CONTINUOUS
10
4.07815
20
2.78878
11
4.07815
21
2.63878
0
LINE
8
BLACK
6
CONTINUOUS
10
4.275
20
2.63878
11
4.125
21
2.63878
0
LINE
8
BLACK
6
CONTINUOUS
10
4.125
20
2.63878
11
4.125
21
2.78878
0
LINE
8
BLACK
6
CONTINUOUS
10
4.125
20
2.78878
11
4.275
21
2.78878
0
LINE
8
BLACK
6
CONTINUOUS
10
4.275
20
2.78878
11
4.275
21
2.63878
  0
ENDSEC
  0
EOF
