  0
SECTION
  2
HEADER
  9
$ANGBASE
  50
0.0
  9
$ANGDIR
  70
1
  9
$MEASUREMENT
  70
0
  0
ENDSEC
  0
SECTION
  2
TABLES
  0
TABLE
  2
LTYPE
  70
4
  0
LTYPE
  5
40F
  2
CONTINUOUS
  70
0
  3
Solid line
  72
65
  73
0
  40
0.0
  0
LTYPE
  5
410
  2
DASHDOT
 70
0
  3
Dash Dot ____ _ ____ _
 72
65
 73
4
 40
2.0
 49
1.25
 49
-0.25
 49
0.25
 49
-0.25
  0
LTYPE
  5
411
  2
DASHED
 70
0
  3
Dashed __ __ __ __ __
 72
65
 73
2
 40
0.75
 49
0.5
 49
-0.25
  0
LTYPE
  5
43B
  2
DOTTED
 70
0
  3
Dotted .  .  .  .
 72
65
 73
2
 40
0.2
 49
0.0
 49
-0.2
  0
ENDTAB
  0
TABLE
  2
STYLE
  70
4
  0
STYLE
  2
KICAD
  70
0
  40
0
  41
1
  42
1
  50
0
  71
0
  3
isocp.shx
  0
STYLE
  2
KICADB
  70
0
  40
0
  41
1
  42
1
  50
0
  71
0
  3
isocp.shx
  0
STYLE
  2
KICADI
  70
0
  40
0
  41
1
  42
1
  50
15
  71
0
  3
isocp.shx
  0
STYLE
  2
KICADBI
  70
0
  40
0
  41
1
  42
1
  50
15
  71
0
  3
isocp.shx
  0
ENDTAB
  0
TABLE
  2
LAYER
  70
1
  0
LAYER
  2
BLACK
  70
0
  62
7
  6
CONTINUOUS
  0
ENDTAB
  0
ENDSEC
  0
SECTION
  2
ENTITIES
0
LINE
8
BLACK
6
CONTINUOUS
10
1.84209
20
-1.35579
11
1.76728
21
-1.35579
0
LINE
8
BLACK
6
CONTINUOUS
10
1.76728
20
-1.35579
11
1.76728
21
-1.22193
0
LINE
8
BLACK
6
CONTINUOUS
10
1.76728
20
-1.22193
11
1.84209
21
-1.22193
0
LINE
8
BLACK
6
CONTINUOUS
10
1.84209
20
-1.22193
11
1.84209
21
-1.35579
0
LINE
8
BLACK
6
CONTINUOUS
10
1.99563
20
-1.35579
11
1.92083
21
-1.35579
0
LINE
8
BLACK
6
CONTINUOUS
10
1.92083
20
-1.35579
11
1.92083
21
-1.22193
0
LINE
8
BLACK
6
CONTINUOUS
10
1.92083
20
-1.22193
11
1.99563
21
-1.22193
0
LINE
8
BLACK
6
CONTINUOUS
10
1.99563
20
-1.22193
11
1.99563
21
-1.35579
0
LINE
8
BLACK
6
CONTINUOUS
10
1.48063
20
-1.35079
11
1.40583
21
-1.35079
0
LINE
8
BLACK
6
CONTINUOUS
10
1.40583
20
-1.35079
11
1.40583
21
-1.21693
0
LINE
8
BLACK
6
CONTINUOUS
10
1.40583
20
-1.21693
11
1.48063
21
-1.21693
0
LINE
8
BLACK
6
CONTINUOUS
10
1.48063
20
-1.21693
11
1.48063
21
-1.35079
0
LINE
8
BLACK
6
CONTINUOUS
10
1.32709
20
-1.35079
11
1.25228
21
-1.35079
0
LINE
8
BLACK
6
CONTINUOUS
10
1.25228
20
-1.35079
11
1.25228
21
-1.21693
0
LINE
8
BLACK
6
CONTINUOUS
10
1.25228
20
-1.21693
11
1.32709
21
-1.21693
0
LINE
8
BLACK
6
CONTINUOUS
10
1.32709
20
-1.21693
11
1.32709
21
-1.35079
0
LINE
8
BLACK
6
CONTINUOUS
10
1.08396
20
-1.34386
11
1.02896
21
-1.34386
0
LINE
8
BLACK
6
CONTINUOUS
10
1.02896
20
-1.34386
11
1.02896
21
-1.30886
0
LINE
8
BLACK
6
CONTINUOUS
10
1.02896
20
-1.30886
11
1.08396
21
-1.30886
0
LINE
8
BLACK
6
CONTINUOUS
10
1.08396
20
-1.30886
11
1.08396
21
-1.34386
0
LINE
8
BLACK
6
CONTINUOUS
10
1.08396
20
-1.26886
11
1.02896
21
-1.26886
0
LINE
8
BLACK
6
CONTINUOUS
10
1.02896
20
-1.26886
11
1.02896
21
-1.23386
0
LINE
8
BLACK
6
CONTINUOUS
10
1.02896
20
-1.23386
11
1.08396
21
-1.23386
0
LINE
8
BLACK
6
CONTINUOUS
10
1.08396
20
-1.23386
11
1.08396
21
-1.26886
0
LINE
8
BLACK
6
CONTINUOUS
10
1.03753
20
-1.17053
11
1.03791
21
-1.17077
0
LINE
8
BLACK
6
CONTINUOUS
10
1.03791
20
-1.17077
11
1.0449
21
-1.17279
0
LINE
8
BLACK
6
CONTINUOUS
10
1.0449
20
-1.17279
11
1.05255
21
-1.17388
0
LINE
8
BLACK
6
CONTINUOUS
10
1.05255
20
-1.17388
11
1.06029
21
-1.17389
0
LINE
8
BLACK
6
CONTINUOUS
10
1.06029
20
-1.17389
11
1.06795
21
-1.17281
0
LINE
8
BLACK
6
CONTINUOUS
10
1.06795
20
-1.17281
11
1.07495
21
-1.17079
0
LINE
8
BLACK
6
CONTINUOUS
10
1.07495
20
-1.17079
11
1.07535
21
-1.17054
0
LINE
8
BLACK
6
CONTINUOUS
10
1.07535
20
-1.17054
11
1.07882
21
-1.17011
0
LINE
8
BLACK
6
CONTINUOUS
10
1.07882
20
-1.17011
11
1.08214
21
-1.17122
0
LINE
8
BLACK
6
CONTINUOUS
10
1.08214
20
-1.17122
11
1.08465
21
-1.17367
0
LINE
8
BLACK
6
CONTINUOUS
10
1.08465
20
-1.17367
11
1.08585
21
-1.17696
0
LINE
8
BLACK
6
CONTINUOUS
10
1.08585
20
-1.17696
11
1.08575
21
-1.17791
0
LINE
8
BLACK
6
CONTINUOUS
10
1.08575
20
-1.17791
11
1.08598
21
-1.17791
0
LINE
8
BLACK
6
CONTINUOUS
10
1.08598
20
-1.17791
11
1.08598
21
-1.21925
0
LINE
8
BLACK
6
CONTINUOUS
10
1.08598
20
-1.21925
11
1.02693
21
-1.21925
0
LINE
8
BLACK
6
CONTINUOUS
10
1.02693
20
-1.21925
11
1.02693
21
-1.17791
0
LINE
8
BLACK
6
CONTINUOUS
10
1.02693
20
-1.17791
11
1.02709
21
-1.17791
0
LINE
8
BLACK
6
CONTINUOUS
10
1.02709
20
-1.17791
11
1.027
21
-1.17689
0
LINE
8
BLACK
6
CONTINUOUS
10
1.027
20
-1.17689
11
1.02821
21
-1.17361
0
LINE
8
BLACK
6
CONTINUOUS
10
1.02821
20
-1.17361
11
1.03073
21
-1.17118
0
LINE
8
BLACK
6
CONTINUOUS
10
1.03073
20
-1.17118
11
1.03405
21
-1.17008
0
LINE
8
BLACK
6
CONTINUOUS
10
1.03405
20
-1.17008
11
1.03753
21
-1.17053
0
LINE
8
BLACK
6
CONTINUOUS
10
1.08598
20
-1.0598
11
1.08582
21
-1.0598
0
LINE
8
BLACK
6
CONTINUOUS
10
1.08582
20
-1.0598
11
1.08592
21
-1.06082
0
LINE
8
BLACK
6
CONTINUOUS
10
1.08592
20
-1.06082
11
1.0847
21
-1.06411
0
LINE
8
BLACK
6
CONTINUOUS
10
1.0847
20
-1.06411
11
1.08218
21
-1.06654
0
LINE
8
BLACK
6
CONTINUOUS
10
1.08218
20
-1.06654
11
1.07886
21
-1.06764
0
LINE
8
BLACK
6
CONTINUOUS
10
1.07886
20
-1.06764
11
1.07539
21
-1.06719
0
LINE
8
BLACK
6
CONTINUOUS
10
1.07539
20
-1.06719
11
1.075
21
-1.06694
0
LINE
8
BLACK
6
CONTINUOUS
10
1.075
20
-1.06694
11
1.06802
21
-1.06492
0
LINE
8
BLACK
6
CONTINUOUS
10
1.06802
20
-1.06492
11
1.06036
21
-1.06384
0
LINE
8
BLACK
6
CONTINUOUS
10
1.06036
20
-1.06384
11
1.05262
21
-1.06383
0
LINE
8
BLACK
6
CONTINUOUS
10
1.05262
20
-1.06383
11
1.04497
21
-1.06491
0
LINE
8
BLACK
6
CONTINUOUS
10
1.04497
20
-1.06491
11
1.03796
21
-1.06692
0
LINE
8
BLACK
6
CONTINUOUS
10
1.03796
20
-1.06692
11
1.03757
21
-1.06718
0
LINE
8
BLACK
6
CONTINUOUS
10
1.03757
20
-1.06718
11
1.03409
21
-1.06761
0
LINE
8
BLACK
6
CONTINUOUS
10
1.03409
20
-1.06761
11
1.03077
21
-1.06649
0
LINE
8
BLACK
6
CONTINUOUS
10
1.03077
20
-1.06649
11
1.02826
21
-1.06405
0
LINE
8
BLACK
6
CONTINUOUS
10
1.02826
20
-1.06405
11
1.02707
21
-1.06076
0
LINE
8
BLACK
6
CONTINUOUS
10
1.02707
20
-1.06076
11
1.02716
21
-1.0598
0
LINE
8
BLACK
6
CONTINUOUS
10
1.02716
20
-1.0598
11
1.02693
21
-1.0598
0
LINE
8
BLACK
6
CONTINUOUS
10
1.02693
20
-1.0598
11
1.02693
21
-1.01846
0
LINE
8
BLACK
6
CONTINUOUS
10
1.02693
20
-1.01846
11
1.08598
21
-1.01846
0
LINE
8
BLACK
6
CONTINUOUS
10
1.08598
20
-1.01846
11
1.08598
21
-1.0598
0
LINE
8
BLACK
6
CONTINUOUS
10
1.85709
20
-0.870787
11
1.78228
21
-0.870787
0
LINE
8
BLACK
6
CONTINUOUS
10
1.78228
20
-0.870787
11
1.78228
21
-0.736929
0
LINE
8
BLACK
6
CONTINUOUS
10
1.78228
20
-0.736929
11
1.85709
21
-0.736929
0
LINE
8
BLACK
6
CONTINUOUS
10
1.85709
20
-0.736929
11
1.85709
21
-0.870787
0
LINE
8
BLACK
6
CONTINUOUS
10
2.01063
20
-0.870787
11
1.93583
21
-0.870787
0
LINE
8
BLACK
6
CONTINUOUS
10
1.93583
20
-0.870787
11
1.93583
21
-0.736929
0
LINE
8
BLACK
6
CONTINUOUS
10
1.93583
20
-0.736929
11
2.01063
21
-0.736929
0
LINE
8
BLACK
6
CONTINUOUS
10
2.01063
20
-0.736929
11
2.01063
21
-0.870787
0
LINE
8
BLACK
6
CONTINUOUS
10
1.7397
20
-0.631457
11
1.66096
21
-0.631457
0
LINE
8
BLACK
6
CONTINUOUS
10
1.66096
20
-0.631457
11
1.66096
21
-0.60626
0
LINE
8
BLACK
6
CONTINUOUS
10
1.66096
20
-0.60626
11
1.7397
21
-0.60626
0
LINE
8
BLACK
6
CONTINUOUS
10
1.7397
20
-0.60626
11
1.7397
21
-0.631457
0
LINE
8
BLACK
6
CONTINUOUS
10
1.49166
20
-0.631457
11
1.41292
21
-0.631457
0
LINE
8
BLACK
6
CONTINUOUS
10
1.41292
20
-0.631457
11
1.41292
21
-0.60626
0
LINE
8
BLACK
6
CONTINUOUS
10
1.41292
20
-0.60626
11
1.49166
21
-0.60626
0
LINE
8
BLACK
6
CONTINUOUS
10
1.49166
20
-0.60626
11
1.49166
21
-0.631457
0
LINE
8
BLACK
6
CONTINUOUS
10
1.37494
20
-0.626358
11
1.31994
21
-0.626358
0
LINE
8
BLACK
6
CONTINUOUS
10
1.31994
20
-0.626358
11
1.31994
21
-0.591358
0
LINE
8
BLACK
6
CONTINUOUS
10
1.31994
20
-0.591358
11
1.37494
21
-0.591358
0
LINE
8
BLACK
6
CONTINUOUS
10
1.37494
20
-0.591358
11
1.37494
21
-0.626358
0
LINE
8
BLACK
6
CONTINUOUS
10
1.85381
20
-0.623858
11
1.79881
21
-0.623858
0
LINE
8
BLACK
6
CONTINUOUS
10
1.79881
20
-0.623858
11
1.79881
21
-0.588858
0
LINE
8
BLACK
6
CONTINUOUS
10
1.79881
20
-0.588858
11
1.85381
21
-0.588858
0
LINE
8
BLACK
6
CONTINUOUS
10
1.85381
20
-0.588858
11
1.85381
21
-0.623858
0
LINE
8
BLACK
6
CONTINUOUS
10
1.37494
20
-0.551358
11
1.31994
21
-0.551358
0
LINE
8
BLACK
6
CONTINUOUS
10
1.31994
20
-0.551358
11
1.31994
21
-0.516358
0
LINE
8
BLACK
6
CONTINUOUS
10
1.31994
20
-0.516358
11
1.37494
21
-0.516358
0
LINE
8
BLACK
6
CONTINUOUS
10
1.37494
20
-0.516358
11
1.37494
21
-0.551358
0
LINE
8
BLACK
6
CONTINUOUS
10
1.85381
20
-0.548858
11
1.79881
21
-0.548858
0
LINE
8
BLACK
6
CONTINUOUS
10
1.79881
20
-0.548858
11
1.79881
21
-0.513858
0
LINE
8
BLACK
6
CONTINUOUS
10
1.79881
20
-0.513858
11
1.85381
21
-0.513858
0
LINE
8
BLACK
6
CONTINUOUS
10
1.85381
20
-0.513858
11
1.85381
21
-0.548858
0
LINE
8
BLACK
6
CONTINUOUS
10
1.7397
20
-0.531457
11
1.66096
21
-0.531457
0
LINE
8
BLACK
6
CONTINUOUS
10
1.66096
20
-0.531457
11
1.66096
21
-0.50626
0
LINE
8
BLACK
6
CONTINUOUS
10
1.66096
20
-0.50626
11
1.7397
21
-0.50626
0
LINE
8
BLACK
6
CONTINUOUS
10
1.7397
20
-0.50626
11
1.7397
21
-0.531457
0
LINE
8
BLACK
6
CONTINUOUS
10
1.49166
20
-0.531457
11
1.41292
21
-0.531457
0
LINE
8
BLACK
6
CONTINUOUS
10
1.41292
20
-0.531457
11
1.41292
21
-0.50626
0
LINE
8
BLACK
6
CONTINUOUS
10
1.41292
20
-0.50626
11
1.49166
21
-0.50626
0
LINE
8
BLACK
6
CONTINUOUS
10
1.49166
20
-0.50626
11
1.49166
21
-0.531457
0
LINE
8
BLACK
6
CONTINUOUS
10
1.49681
20
-0.208957
11
1.41807
21
-0.208957
0
LINE
8
BLACK
6
CONTINUOUS
10
1.41807
20
-0.208957
11
1.41807
21
-0.18376
0
LINE
8
BLACK
6
CONTINUOUS
10
1.41807
20
-0.18376
11
1.49681
21
-0.18376
0
LINE
8
BLACK
6
CONTINUOUS
10
1.49681
20
-0.18376
11
1.49681
21
-0.208957
0
LINE
8
BLACK
6
CONTINUOUS
10
1.74484
20
-0.208957
11
1.6661
21
-0.208957
0
LINE
8
BLACK
6
CONTINUOUS
10
1.6661
20
-0.208957
11
1.6661
21
-0.18376
0
LINE
8
BLACK
6
CONTINUOUS
10
1.6661
20
-0.18376
11
1.74484
21
-0.18376
0
LINE
8
BLACK
6
CONTINUOUS
10
1.74484
20
-0.18376
11
1.74484
21
-0.208957
0
LINE
8
BLACK
6
CONTINUOUS
10
1.38009
20
-0.208858
11
1.32509
21
-0.208858
0
LINE
8
BLACK
6
CONTINUOUS
10
1.32509
20
-0.208858
11
1.32509
21
-0.173858
0
LINE
8
BLACK
6
CONTINUOUS
10
1.32509
20
-0.173858
11
1.38009
21
-0.173858
0
LINE
8
BLACK
6
CONTINUOUS
10
1.38009
20
-0.173858
11
1.38009
21
-0.208858
0
LINE
8
BLACK
6
CONTINUOUS
10
1.85896
20
-0.201358
11
1.80396
21
-0.201358
0
LINE
8
BLACK
6
CONTINUOUS
10
1.80396
20
-0.201358
11
1.80396
21
-0.166358
0
LINE
8
BLACK
6
CONTINUOUS
10
1.80396
20
-0.166358
11
1.85896
21
-0.166358
0
LINE
8
BLACK
6
CONTINUOUS
10
1.85896
20
-0.166358
11
1.85896
21
-0.201358
0
LINE
8
BLACK
6
CONTINUOUS
10
1.38009
20
-0.133858
11
1.32509
21
-0.133858
0
LINE
8
BLACK
6
CONTINUOUS
10
1.32509
20
-0.133858
11
1.32509
21
-0.0988583
0
LINE
8
BLACK
6
CONTINUOUS
10
1.32509
20
-0.0988583
11
1.38009
21
-0.0988583
0
LINE
8
BLACK
6
CONTINUOUS
10
1.38009
20
-0.0988583
11
1.38009
21
-0.133858
0
LINE
8
BLACK
6
CONTINUOUS
10
1.85896
20
-0.126358
11
1.80396
21
-0.126358
0
LINE
8
BLACK
6
CONTINUOUS
10
1.80396
20
-0.126358
11
1.80396
21
-0.0913583
0
LINE
8
BLACK
6
CONTINUOUS
10
1.80396
20
-0.0913583
11
1.85896
21
-0.0913583
0
LINE
8
BLACK
6
CONTINUOUS
10
1.85896
20
-0.0913583
11
1.85896
21
-0.126358
0
LINE
8
BLACK
6
CONTINUOUS
10
1.49681
20
-0.108957
11
1.41807
21
-0.108957
0
LINE
8
BLACK
6
CONTINUOUS
10
1.41807
20
-0.108957
11
1.41807
21
-0.0837598
0
LINE
8
BLACK
6
CONTINUOUS
10
1.41807
20
-0.0837598
11
1.49681
21
-0.0837598
0
LINE
8
BLACK
6
CONTINUOUS
10
1.49681
20
-0.0837598
11
1.49681
21
-0.108957
0
LINE
8
BLACK
6
CONTINUOUS
10
1.74484
20
-0.108957
11
1.6661
21
-0.108957
0
LINE
8
BLACK
6
CONTINUOUS
10
1.6661
20
-0.108957
11
1.6661
21
-0.0837598
0
LINE
8
BLACK
6
CONTINUOUS
10
1.6661
20
-0.0837598
11
1.74484
21
-0.0837598
0
LINE
8
BLACK
6
CONTINUOUS
10
1.74484
20
-0.0837598
11
1.74484
21
-0.108957
0
LINE
8
BLACK
6
CONTINUOUS
10
0.79685
20
0.156614
11
0.755512
21
0.156614
0
LINE
8
BLACK
6
CONTINUOUS
10
0.755512
20
0.156614
11
0.755512
21
0.156777
0
LINE
8
BLACK
6
CONTINUOUS
10
0.755512
20
0.156777
11
0.754493
21
0.15668
0
LINE
8
BLACK
6
CONTINUOUS
10
0.754493
20
0.15668
11
0.751208
21
0.157895
0
LINE
8
BLACK
6
CONTINUOUS
10
0.751208
20
0.157895
11
0.748774
21
0.160414
0
LINE
8
BLACK
6
CONTINUOUS
10
0.748774
20
0.160414
11
0.747674
21
0.163738
0
LINE
8
BLACK
6
CONTINUOUS
10
0.747674
20
0.163738
11
0.748124
21
0.167212
0
LINE
8
BLACK
6
CONTINUOUS
10
0.748124
20
0.167212
11
0.748373
21
0.167594
0
LINE
8
BLACK
6
CONTINUOUS
10
0.748373
20
0.167594
11
0.750392
21
0.174583
0
LINE
8
BLACK
6
CONTINUOUS
10
0.750392
20
0.174583
11
0.751479
21
0.18224
0
LINE
8
BLACK
6
CONTINUOUS
10
0.751479
20
0.18224
11
0.751484
21
0.189974
0
LINE
8
BLACK
6
CONTINUOUS
10
0.751484
20
0.189974
11
0.750407
21
0.197632
0
LINE
8
BLACK
6
CONTINUOUS
10
0.750407
20
0.197632
11
0.748392
21
0.204639
0
LINE
8
BLACK
6
CONTINUOUS
10
0.748392
20
0.204639
11
0.748138
21
0.205032
0
LINE
8
BLACK
6
CONTINUOUS
10
0.748138
20
0.205032
11
0.747705
21
0.208507
0
LINE
8
BLACK
6
CONTINUOUS
10
0.747705
20
0.208507
11
0.748821
21
0.211827
0
LINE
8
BLACK
6
CONTINUOUS
10
0.748821
20
0.211827
11
0.751266
21
0.214334
0
LINE
8
BLACK
6
CONTINUOUS
10
0.751266
20
0.214334
11
0.754557
21
0.215533
0
LINE
8
BLACK
6
CONTINUOUS
10
0.754557
20
0.215533
11
0.755512
21
0.215438
0
LINE
8
BLACK
6
CONTINUOUS
10
0.755512
20
0.215438
11
0.755512
21
0.215669
0
LINE
8
BLACK
6
CONTINUOUS
10
0.755512
20
0.215669
11
0.79685
21
0.215669
0
LINE
8
BLACK
6
CONTINUOUS
10
0.79685
20
0.215669
11
0.79685
21
0.156614
0
LINE
8
BLACK
6
CONTINUOUS
10
0.637402
20
0.215506
11
0.638421
21
0.215603
0
LINE
8
BLACK
6
CONTINUOUS
10
0.638421
20
0.215603
11
0.641706
21
0.214389
0
LINE
8
BLACK
6
CONTINUOUS
10
0.641706
20
0.214389
11
0.644139
21
0.21187
0
LINE
8
BLACK
6
CONTINUOUS
10
0.644139
20
0.21187
11
0.64524
21
0.208545
0
LINE
8
BLACK
6
CONTINUOUS
10
0.64524
20
0.208545
11
0.64479
21
0.205072
0
LINE
8
BLACK
6
CONTINUOUS
10
0.64479
20
0.205072
11
0.644541
21
0.20469
0
LINE
8
BLACK
6
CONTINUOUS
10
0.644541
20
0.20469
11
0.642521
21
0.197701
0
LINE
8
BLACK
6
CONTINUOUS
10
0.642521
20
0.197701
11
0.641435
21
0.190044
0
LINE
8
BLACK
6
CONTINUOUS
10
0.641435
20
0.190044
11
0.64143
21
0.18231
0
LINE
8
BLACK
6
CONTINUOUS
10
0.64143
20
0.18231
11
0.642507
21
0.174651
0
LINE
8
BLACK
6
CONTINUOUS
10
0.642507
20
0.174651
11
0.644522
21
0.167645
0
LINE
8
BLACK
6
CONTINUOUS
10
0.644522
20
0.167645
11
0.644775
21
0.167251
0
LINE
8
BLACK
6
CONTINUOUS
10
0.644775
20
0.167251
11
0.645209
21
0.163776
0
LINE
8
BLACK
6
CONTINUOUS
10
0.645209
20
0.163776
11
0.644092
21
0.160456
0
LINE
8
BLACK
6
CONTINUOUS
10
0.644092
20
0.160456
11
0.641647
21
0.157949
0
LINE
8
BLACK
6
CONTINUOUS
10
0.641647
20
0.157949
11
0.638356
21
0.15675
0
LINE
8
BLACK
6
CONTINUOUS
10
0.638356
20
0.15675
11
0.637402
21
0.156846
0
LINE
8
BLACK
6
CONTINUOUS
10
0.637402
20
0.156846
11
0.637402
21
0.156614
0
LINE
8
BLACK
6
CONTINUOUS
10
0.637402
20
0.156614
11
0.596063
21
0.156614
0
LINE
8
BLACK
6
CONTINUOUS
10
0.596063
20
0.156614
11
0.596063
21
0.215669
0
LINE
8
BLACK
6
CONTINUOUS
10
0.596063
20
0.215669
11
0.637402
21
0.215669
0
LINE
8
BLACK
6
CONTINUOUS
10
0.637402
20
0.215669
11
0.637402
21
0.215506
0
LINE
8
BLACK
6
CONTINUOUS
10
1.3578
20
0.186043
11
1.27906
21
0.186043
0
LINE
8
BLACK
6
CONTINUOUS
10
1.27906
20
0.186043
11
1.27906
21
0.21124
0
LINE
8
BLACK
6
CONTINUOUS
10
1.27906
20
0.21124
11
1.3578
21
0.21124
0
LINE
8
BLACK
6
CONTINUOUS
10
1.3578
20
0.21124
11
1.3578
21
0.186043
0
LINE
8
BLACK
6
CONTINUOUS
10
1.60583
20
0.186043
11
1.52709
21
0.186043
0
LINE
8
BLACK
6
CONTINUOUS
10
1.52709
20
0.186043
11
1.52709
21
0.21124
0
LINE
8
BLACK
6
CONTINUOUS
10
1.52709
20
0.21124
11
1.60583
21
0.21124
0
LINE
8
BLACK
6
CONTINUOUS
10
1.60583
20
0.21124
11
1.60583
21
0.186043
0
LINE
8
BLACK
6
CONTINUOUS
10
1.72396
20
0.193642
11
1.66896
21
0.193642
0
LINE
8
BLACK
6
CONTINUOUS
10
1.66896
20
0.193642
11
1.66896
21
0.228642
0
LINE
8
BLACK
6
CONTINUOUS
10
1.66896
20
0.228642
11
1.72396
21
0.228642
0
LINE
8
BLACK
6
CONTINUOUS
10
1.72396
20
0.228642
11
1.72396
21
0.193642
0
LINE
8
BLACK
6
CONTINUOUS
10
1.24009
20
0.213642
11
1.18509
21
0.213642
0
LINE
8
BLACK
6
CONTINUOUS
10
1.18509
20
0.213642
11
1.18509
21
0.248642
0
LINE
8
BLACK
6
CONTINUOUS
10
1.18509
20
0.248642
11
1.24009
21
0.248642
0
LINE
8
BLACK
6
CONTINUOUS
10
1.24009
20
0.248642
11
1.24009
21
0.213642
0
LINE
8
BLACK
6
CONTINUOUS
10
1.72396
20
0.268642
11
1.66896
21
0.268642
0
LINE
8
BLACK
6
CONTINUOUS
10
1.66896
20
0.268642
11
1.66896
21
0.303642
0
LINE
8
BLACK
6
CONTINUOUS
10
1.66896
20
0.303642
11
1.72396
21
0.303642
0
LINE
8
BLACK
6
CONTINUOUS
10
1.72396
20
0.303642
11
1.72396
21
0.268642
0
LINE
8
BLACK
6
CONTINUOUS
10
1.60583
20
0.286043
11
1.52709
21
0.286043
0
LINE
8
BLACK
6
CONTINUOUS
10
1.52709
20
0.286043
11
1.52709
21
0.31124
0
LINE
8
BLACK
6
CONTINUOUS
10
1.52709
20
0.31124
11
1.60583
21
0.31124
0
LINE
8
BLACK
6
CONTINUOUS
10
1.60583
20
0.31124
11
1.60583
21
0.286043
0
LINE
8
BLACK
6
CONTINUOUS
10
1.3578
20
0.286043
11
1.27906
21
0.286043
0
LINE
8
BLACK
6
CONTINUOUS
10
1.27906
20
0.286043
11
1.27906
21
0.31124
0
LINE
8
BLACK
6
CONTINUOUS
10
1.27906
20
0.31124
11
1.3578
21
0.31124
0
LINE
8
BLACK
6
CONTINUOUS
10
1.3578
20
0.31124
11
1.3578
21
0.286043
0
LINE
8
BLACK
6
CONTINUOUS
10
1.24009
20
0.288642
11
1.18509
21
0.288642
0
LINE
8
BLACK
6
CONTINUOUS
10
1.18509
20
0.288642
11
1.18509
21
0.323642
0
LINE
8
BLACK
6
CONTINUOUS
10
1.18509
20
0.323642
11
1.24009
21
0.323642
0
LINE
8
BLACK
6
CONTINUOUS
10
1.24009
20
0.323642
11
1.24009
21
0.288642
0
LINE
8
BLACK
6
CONTINUOUS
10
0.642402
20
0.415506
11
0.643421
21
0.415603
0
LINE
8
BLACK
6
CONTINUOUS
10
0.643421
20
0.415603
11
0.646706
21
0.414389
0
LINE
8
BLACK
6
CONTINUOUS
10
0.646706
20
0.414389
11
0.649139
21
0.41187
0
LINE
8
BLACK
6
CONTINUOUS
10
0.649139
20
0.41187
11
0.65024
21
0.408545
0
LINE
8
BLACK
6
CONTINUOUS
10
0.65024
20
0.408545
11
0.64979
21
0.405072
0
LINE
8
BLACK
6
CONTINUOUS
10
0.64979
20
0.405072
11
0.649541
21
0.40469
0
LINE
8
BLACK
6
CONTINUOUS
10
0.649541
20
0.40469
11
0.647521
21
0.397701
0
LINE
8
BLACK
6
CONTINUOUS
10
0.647521
20
0.397701
11
0.646435
21
0.390044
0
LINE
8
BLACK
6
CONTINUOUS
10
0.646435
20
0.390044
11
0.64643
21
0.38231
0
LINE
8
BLACK
6
CONTINUOUS
10
0.64643
20
0.38231
11
0.647507
21
0.374651
0
LINE
8
BLACK
6
CONTINUOUS
10
0.647507
20
0.374651
11
0.649522
21
0.367645
0
LINE
8
BLACK
6
CONTINUOUS
10
0.649522
20
0.367645
11
0.649775
21
0.367251
0
LINE
8
BLACK
6
CONTINUOUS
10
0.649775
20
0.367251
11
0.650209
21
0.363776
0
LINE
8
BLACK
6
CONTINUOUS
10
0.650209
20
0.363776
11
0.649092
21
0.360456
0
LINE
8
BLACK
6
CONTINUOUS
10
0.649092
20
0.360456
11
0.646647
21
0.357949
0
LINE
8
BLACK
6
CONTINUOUS
10
0.646647
20
0.357949
11
0.643356
21
0.35675
0
LINE
8
BLACK
6
CONTINUOUS
10
0.643356
20
0.35675
11
0.642402
21
0.356846
0
LINE
8
BLACK
6
CONTINUOUS
10
0.642402
20
0.356846
11
0.642402
21
0.356614
0
LINE
8
BLACK
6
CONTINUOUS
10
0.642402
20
0.356614
11
0.601063
21
0.356614
0
LINE
8
BLACK
6
CONTINUOUS
10
0.601063
20
0.356614
11
0.601063
21
0.415669
0
LINE
8
BLACK
6
CONTINUOUS
10
0.601063
20
0.415669
11
0.642402
21
0.415669
0
LINE
8
BLACK
6
CONTINUOUS
10
0.642402
20
0.415669
11
0.642402
21
0.415506
0
LINE
8
BLACK
6
CONTINUOUS
10
0.80185
20
0.356614
11
0.760512
21
0.356614
0
LINE
8
BLACK
6
CONTINUOUS
10
0.760512
20
0.356614
11
0.760512
21
0.356777
0
LINE
8
BLACK
6
CONTINUOUS
10
0.760512
20
0.356777
11
0.759493
21
0.35668
0
LINE
8
BLACK
6
CONTINUOUS
10
0.759493
20
0.35668
11
0.756208
21
0.357895
0
LINE
8
BLACK
6
CONTINUOUS
10
0.756208
20
0.357895
11
0.753774
21
0.360414
0
LINE
8
BLACK
6
CONTINUOUS
10
0.753774
20
0.360414
11
0.752674
21
0.363738
0
LINE
8
BLACK
6
CONTINUOUS
10
0.752674
20
0.363738
11
0.753124
21
0.367212
0
LINE
8
BLACK
6
CONTINUOUS
10
0.753124
20
0.367212
11
0.753373
21
0.367594
0
LINE
8
BLACK
6
CONTINUOUS
10
0.753373
20
0.367594
11
0.755392
21
0.374583
0
LINE
8
BLACK
6
CONTINUOUS
10
0.755392
20
0.374583
11
0.756479
21
0.38224
0
LINE
8
BLACK
6
CONTINUOUS
10
0.756479
20
0.38224
11
0.756484
21
0.389974
0
LINE
8
BLACK
6
CONTINUOUS
10
0.756484
20
0.389974
11
0.755407
21
0.397632
0
LINE
8
BLACK
6
CONTINUOUS
10
0.755407
20
0.397632
11
0.753392
21
0.404639
0
LINE
8
BLACK
6
CONTINUOUS
10
0.753392
20
0.404639
11
0.753138
21
0.405032
0
LINE
8
BLACK
6
CONTINUOUS
10
0.753138
20
0.405032
11
0.752705
21
0.408507
0
LINE
8
BLACK
6
CONTINUOUS
10
0.752705
20
0.408507
11
0.753821
21
0.411827
0
LINE
8
BLACK
6
CONTINUOUS
10
0.753821
20
0.411827
11
0.756266
21
0.414334
0
LINE
8
BLACK
6
CONTINUOUS
10
0.756266
20
0.414334
11
0.759557
21
0.415533
0
LINE
8
BLACK
6
CONTINUOUS
10
0.759557
20
0.415533
11
0.760512
21
0.415438
0
LINE
8
BLACK
6
CONTINUOUS
10
0.760512
20
0.415438
11
0.760512
21
0.415669
0
LINE
8
BLACK
6
CONTINUOUS
10
0.760512
20
0.415669
11
0.80185
21
0.415669
0
LINE
8
BLACK
6
CONTINUOUS
10
0.80185
20
0.415669
11
0.80185
21
0.356614
0
LINE
8
BLACK
6
CONTINUOUS
10
0.80185
20
0.561614
11
0.760512
21
0.561614
0
LINE
8
BLACK
6
CONTINUOUS
10
0.760512
20
0.561614
11
0.760512
21
0.561777
0
LINE
8
BLACK
6
CONTINUOUS
10
0.760512
20
0.561777
11
0.759493
21
0.56168
0
LINE
8
BLACK
6
CONTINUOUS
10
0.759493
20
0.56168
11
0.756208
21
0.562895
0
LINE
8
BLACK
6
CONTINUOUS
10
0.756208
20
0.562895
11
0.753774
21
0.565414
0
LINE
8
BLACK
6
CONTINUOUS
10
0.753774
20
0.565414
11
0.752674
21
0.568738
0
LINE
8
BLACK
6
CONTINUOUS
10
0.752674
20
0.568738
11
0.753124
21
0.572212
0
LINE
8
BLACK
6
CONTINUOUS
10
0.753124
20
0.572212
11
0.753373
21
0.572594
0
LINE
8
BLACK
6
CONTINUOUS
10
0.753373
20
0.572594
11
0.755392
21
0.579583
0
LINE
8
BLACK
6
CONTINUOUS
10
0.755392
20
0.579583
11
0.756479
21
0.58724
0
LINE
8
BLACK
6
CONTINUOUS
10
0.756479
20
0.58724
11
0.756484
21
0.594974
0
LINE
8
BLACK
6
CONTINUOUS
10
0.756484
20
0.594974
11
0.755407
21
0.602632
0
LINE
8
BLACK
6
CONTINUOUS
10
0.755407
20
0.602632
11
0.753392
21
0.609639
0
LINE
8
BLACK
6
CONTINUOUS
10
0.753392
20
0.609639
11
0.753138
21
0.610032
0
LINE
8
BLACK
6
CONTINUOUS
10
0.753138
20
0.610032
11
0.752705
21
0.613507
0
LINE
8
BLACK
6
CONTINUOUS
10
0.752705
20
0.613507
11
0.753821
21
0.616827
0
LINE
8
BLACK
6
CONTINUOUS
10
0.753821
20
0.616827
11
0.756266
21
0.619334
0
LINE
8
BLACK
6
CONTINUOUS
10
0.756266
20
0.619334
11
0.759557
21
0.620533
0
LINE
8
BLACK
6
CONTINUOUS
10
0.759557
20
0.620533
11
0.760512
21
0.620438
0
LINE
8
BLACK
6
CONTINUOUS
10
0.760512
20
0.620438
11
0.760512
21
0.620669
0
LINE
8
BLACK
6
CONTINUOUS
10
0.760512
20
0.620669
11
0.80185
21
0.620669
0
LINE
8
BLACK
6
CONTINUOUS
10
0.80185
20
0.620669
11
0.80185
21
0.561614
0
LINE
8
BLACK
6
CONTINUOUS
10
0.642402
20
0.620506
11
0.643421
21
0.620603
0
LINE
8
BLACK
6
CONTINUOUS
10
0.643421
20
0.620603
11
0.646706
21
0.619389
0
LINE
8
BLACK
6
CONTINUOUS
10
0.646706
20
0.619389
11
0.649139
21
0.61687
0
LINE
8
BLACK
6
CONTINUOUS
10
0.649139
20
0.61687
11
0.65024
21
0.613545
0
LINE
8
BLACK
6
CONTINUOUS
10
0.65024
20
0.613545
11
0.64979
21
0.610072
0
LINE
8
BLACK
6
CONTINUOUS
10
0.64979
20
0.610072
11
0.649541
21
0.60969
0
LINE
8
BLACK
6
CONTINUOUS
10
0.649541
20
0.60969
11
0.647521
21
0.602701
0
LINE
8
BLACK
6
CONTINUOUS
10
0.647521
20
0.602701
11
0.646435
21
0.595044
0
LINE
8
BLACK
6
CONTINUOUS
10
0.646435
20
0.595044
11
0.64643
21
0.58731
0
LINE
8
BLACK
6
CONTINUOUS
10
0.64643
20
0.58731
11
0.647507
21
0.579651
0
LINE
8
BLACK
6
CONTINUOUS
10
0.647507
20
0.579651
11
0.649522
21
0.572645
0
LINE
8
BLACK
6
CONTINUOUS
10
0.649522
20
0.572645
11
0.649775
21
0.572251
0
LINE
8
BLACK
6
CONTINUOUS
10
0.649775
20
0.572251
11
0.650209
21
0.568776
0
LINE
8
BLACK
6
CONTINUOUS
10
0.650209
20
0.568776
11
0.649092
21
0.565456
0
LINE
8
BLACK
6
CONTINUOUS
10
0.649092
20
0.565456
11
0.646647
21
0.562949
0
LINE
8
BLACK
6
CONTINUOUS
10
0.646647
20
0.562949
11
0.643356
21
0.56175
0
LINE
8
BLACK
6
CONTINUOUS
10
0.643356
20
0.56175
11
0.642402
21
0.561846
0
LINE
8
BLACK
6
CONTINUOUS
10
0.642402
20
0.561846
11
0.642402
21
0.561614
0
LINE
8
BLACK
6
CONTINUOUS
10
0.642402
20
0.561614
11
0.601063
21
0.561614
0
LINE
8
BLACK
6
CONTINUOUS
10
0.601063
20
0.561614
11
0.601063
21
0.620669
0
LINE
8
BLACK
6
CONTINUOUS
10
0.601063
20
0.620669
11
0.642402
21
0.620669
0
LINE
8
BLACK
6
CONTINUOUS
10
0.642402
20
0.620669
11
0.642402
21
0.620506
0
LINE
8
BLACK
6
CONTINUOUS
10
1.2728
20
0.611043
11
1.19406
21
0.611043
0
LINE
8
BLACK
6
CONTINUOUS
10
1.19406
20
0.611043
11
1.19406
21
0.63624
0
LINE
8
BLACK
6
CONTINUOUS
10
1.19406
20
0.63624
11
1.2728
21
0.63624
0
LINE
8
BLACK
6
CONTINUOUS
10
1.2728
20
0.63624
11
1.2728
21
0.611043
0
LINE
8
BLACK
6
CONTINUOUS
10
1.52083
20
0.611043
11
1.44209
21
0.611043
0
LINE
8
BLACK
6
CONTINUOUS
10
1.44209
20
0.611043
11
1.44209
21
0.63624
0
LINE
8
BLACK
6
CONTINUOUS
10
1.44209
20
0.63624
11
1.52083
21
0.63624
0
LINE
8
BLACK
6
CONTINUOUS
10
1.52083
20
0.63624
11
1.52083
21
0.611043
0
LINE
8
BLACK
6
CONTINUOUS
10
1.15607
20
0.613642
11
1.10107
21
0.613642
0
LINE
8
BLACK
6
CONTINUOUS
10
1.10107
20
0.613642
11
1.10107
21
0.648642
0
LINE
8
BLACK
6
CONTINUOUS
10
1.10107
20
0.648642
11
1.15607
21
0.648642
0
LINE
8
BLACK
6
CONTINUOUS
10
1.15607
20
0.648642
11
1.15607
21
0.613642
0
LINE
8
BLACK
6
CONTINUOUS
10
1.63994
20
0.623642
11
1.58494
21
0.623642
0
LINE
8
BLACK
6
CONTINUOUS
10
1.58494
20
0.623642
11
1.58494
21
0.658642
0
LINE
8
BLACK
6
CONTINUOUS
10
1.58494
20
0.658642
11
1.63994
21
0.658642
0
LINE
8
BLACK
6
CONTINUOUS
10
1.63994
20
0.658642
11
1.63994
21
0.623642
0
LINE
8
BLACK
6
CONTINUOUS
10
1.15607
20
0.688642
11
1.10107
21
0.688642
0
LINE
8
BLACK
6
CONTINUOUS
10
1.10107
20
0.688642
11
1.10107
21
0.723642
0
LINE
8
BLACK
6
CONTINUOUS
10
1.10107
20
0.723642
11
1.15607
21
0.723642
0
LINE
8
BLACK
6
CONTINUOUS
10
1.15607
20
0.723642
11
1.15607
21
0.688642
0
LINE
8
BLACK
6
CONTINUOUS
10
1.63994
20
0.698642
11
1.58494
21
0.698642
0
LINE
8
BLACK
6
CONTINUOUS
10
1.58494
20
0.698642
11
1.58494
21
0.733642
0
LINE
8
BLACK
6
CONTINUOUS
10
1.58494
20
0.733642
11
1.63994
21
0.733642
0
LINE
8
BLACK
6
CONTINUOUS
10
1.63994
20
0.733642
11
1.63994
21
0.698642
0
LINE
8
BLACK
6
CONTINUOUS
10
1.2728
20
0.711043
11
1.19406
21
0.711043
0
LINE
8
BLACK
6
CONTINUOUS
10
1.19406
20
0.711043
11
1.19406
21
0.73624
0
LINE
8
BLACK
6
CONTINUOUS
10
1.19406
20
0.73624
11
1.2728
21
0.73624
0
LINE
8
BLACK
6
CONTINUOUS
10
1.2728
20
0.73624
11
1.2728
21
0.711043
0
LINE
8
BLACK
6
CONTINUOUS
10
1.52083
20
0.711043
11
1.44209
21
0.711043
0
LINE
8
BLACK
6
CONTINUOUS
10
1.44209
20
0.711043
11
1.44209
21
0.73624
0
LINE
8
BLACK
6
CONTINUOUS
10
1.44209
20
0.73624
11
1.52083
21
0.73624
0
LINE
8
BLACK
6
CONTINUOUS
10
1.52083
20
0.73624
11
1.52083
21
0.711043
0
LINE
8
BLACK
6
CONTINUOUS
10
2.21568
20
0.799475
11
2.21606
21
0.799226
0
LINE
8
BLACK
6
CONTINUOUS
10
2.21606
20
0.799226
11
2.22305
21
0.797206
0
LINE
8
BLACK
6
CONTINUOUS
10
2.22305
20
0.797206
11
2.2307
21
0.79612
0
LINE
8
BLACK
6
CONTINUOUS
10
2.2307
20
0.79612
11
2.23844
21
0.796115
0
LINE
8
BLACK
6
CONTINUOUS
10
2.23844
20
0.796115
11
2.2461
21
0.797192
0
LINE
8
BLACK
6
CONTINUOUS
10
2.2461
20
0.797192
11
2.2531
21
0.799207
0
LINE
8
BLACK
6
CONTINUOUS
10
2.2531
20
0.799207
11
2.2535
21
0.79946
0
LINE
8
BLACK
6
CONTINUOUS
10
2.2535
20
0.79946
11
2.25697
21
0.799894
0
LINE
8
BLACK
6
CONTINUOUS
10
2.25697
20
0.799894
11
2.26029
21
0.798777
0
LINE
8
BLACK
6
CONTINUOUS
10
2.26029
20
0.798777
11
2.2628
21
0.796332
0
LINE
8
BLACK
6
CONTINUOUS
10
2.2628
20
0.796332
11
2.264
21
0.793041
0
LINE
8
BLACK
6
CONTINUOUS
10
2.264
20
0.793041
11
2.2639
21
0.792087
0
LINE
8
BLACK
6
CONTINUOUS
10
2.2639
20
0.792087
11
2.26413
21
0.792087
0
LINE
8
BLACK
6
CONTINUOUS
10
2.26413
20
0.792087
11
2.26413
21
0.750748
0
LINE
8
BLACK
6
CONTINUOUS
10
2.26413
20
0.750748
11
2.20508
21
0.750748
0
LINE
8
BLACK
6
CONTINUOUS
10
2.20508
20
0.750748
11
2.20508
21
0.792087
0
LINE
8
BLACK
6
CONTINUOUS
10
2.20508
20
0.792087
11
2.20524
21
0.792087
0
LINE
8
BLACK
6
CONTINUOUS
10
2.20524
20
0.792087
11
2.20514
21
0.793106
0
LINE
8
BLACK
6
CONTINUOUS
10
2.20514
20
0.793106
11
2.20636
21
0.796391
0
LINE
8
BLACK
6
CONTINUOUS
10
2.20636
20
0.796391
11
2.20888
21
0.798824
0
LINE
8
BLACK
6
CONTINUOUS
10
2.20888
20
0.798824
11
2.2122
21
0.799925
0
LINE
8
BLACK
6
CONTINUOUS
10
2.2122
20
0.799925
11
2.21568
21
0.799475
0
LINE
8
BLACK
6
CONTINUOUS
10
0.80185
20
0.766614
11
0.760512
21
0.766614
0
LINE
8
BLACK
6
CONTINUOUS
10
0.760512
20
0.766614
11
0.760512
21
0.766777
0
LINE
8
BLACK
6
CONTINUOUS
10
0.760512
20
0.766777
11
0.759493
21
0.76668
0
LINE
8
BLACK
6
CONTINUOUS
10
0.759493
20
0.76668
11
0.756208
21
0.767895
0
LINE
8
BLACK
6
CONTINUOUS
10
0.756208
20
0.767895
11
0.753774
21
0.770414
0
LINE
8
BLACK
6
CONTINUOUS
10
0.753774
20
0.770414
11
0.752674
21
0.773738
0
LINE
8
BLACK
6
CONTINUOUS
10
0.752674
20
0.773738
11
0.753124
21
0.777212
0
LINE
8
BLACK
6
CONTINUOUS
10
0.753124
20
0.777212
11
0.753373
21
0.777594
0
LINE
8
BLACK
6
CONTINUOUS
10
0.753373
20
0.777594
11
0.755392
21
0.784583
0
LINE
8
BLACK
6
CONTINUOUS
10
0.755392
20
0.784583
11
0.756479
21
0.79224
0
LINE
8
BLACK
6
CONTINUOUS
10
0.756479
20
0.79224
11
0.756484
21
0.799974
0
LINE
8
BLACK
6
CONTINUOUS
10
0.756484
20
0.799974
11
0.755407
21
0.807632
0
LINE
8
BLACK
6
CONTINUOUS
10
0.755407
20
0.807632
11
0.753392
21
0.814639
0
LINE
8
BLACK
6
CONTINUOUS
10
0.753392
20
0.814639
11
0.753138
21
0.815032
0
LINE
8
BLACK
6
CONTINUOUS
10
0.753138
20
0.815032
11
0.752705
21
0.818507
0
LINE
8
BLACK
6
CONTINUOUS
10
0.752705
20
0.818507
11
0.753821
21
0.821827
0
LINE
8
BLACK
6
CONTINUOUS
10
0.753821
20
0.821827
11
0.756266
21
0.824334
0
LINE
8
BLACK
6
CONTINUOUS
10
0.756266
20
0.824334
11
0.759557
21
0.825533
0
LINE
8
BLACK
6
CONTINUOUS
10
0.759557
20
0.825533
11
0.760512
21
0.825438
0
LINE
8
BLACK
6
CONTINUOUS
10
0.760512
20
0.825438
11
0.760512
21
0.825669
0
LINE
8
BLACK
6
CONTINUOUS
10
0.760512
20
0.825669
11
0.80185
21
0.825669
0
LINE
8
BLACK
6
CONTINUOUS
10
0.80185
20
0.825669
11
0.80185
21
0.766614
0
LINE
8
BLACK
6
CONTINUOUS
10
0.642402
20
0.825506
11
0.643421
21
0.825603
0
LINE
8
BLACK
6
CONTINUOUS
10
0.643421
20
0.825603
11
0.646706
21
0.824389
0
LINE
8
BLACK
6
CONTINUOUS
10
0.646706
20
0.824389
11
0.649139
21
0.82187
0
LINE
8
BLACK
6
CONTINUOUS
10
0.649139
20
0.82187
11
0.65024
21
0.818545
0
LINE
8
BLACK
6
CONTINUOUS
10
0.65024
20
0.818545
11
0.64979
21
0.815072
0
LINE
8
BLACK
6
CONTINUOUS
10
0.64979
20
0.815072
11
0.649541
21
0.81469
0
LINE
8
BLACK
6
CONTINUOUS
10
0.649541
20
0.81469
11
0.647521
21
0.807701
0
LINE
8
BLACK
6
CONTINUOUS
10
0.647521
20
0.807701
11
0.646435
21
0.800044
0
LINE
8
BLACK
6
CONTINUOUS
10
0.646435
20
0.800044
11
0.64643
21
0.79231
0
LINE
8
BLACK
6
CONTINUOUS
10
0.64643
20
0.79231
11
0.647507
21
0.784651
0
LINE
8
BLACK
6
CONTINUOUS
10
0.647507
20
0.784651
11
0.649522
21
0.777645
0
LINE
8
BLACK
6
CONTINUOUS
10
0.649522
20
0.777645
11
0.649775
21
0.777251
0
LINE
8
BLACK
6
CONTINUOUS
10
0.649775
20
0.777251
11
0.650209
21
0.773776
0
LINE
8
BLACK
6
CONTINUOUS
10
0.650209
20
0.773776
11
0.649092
21
0.770456
0
LINE
8
BLACK
6
CONTINUOUS
10
0.649092
20
0.770456
11
0.646647
21
0.767949
0
LINE
8
BLACK
6
CONTINUOUS
10
0.646647
20
0.767949
11
0.643356
21
0.76675
0
LINE
8
BLACK
6
CONTINUOUS
10
0.643356
20
0.76675
11
0.642402
21
0.766846
0
LINE
8
BLACK
6
CONTINUOUS
10
0.642402
20
0.766846
11
0.642402
21
0.766614
0
LINE
8
BLACK
6
CONTINUOUS
10
0.642402
20
0.766614
11
0.601063
21
0.766614
0
LINE
8
BLACK
6
CONTINUOUS
10
0.601063
20
0.766614
11
0.601063
21
0.825669
0
LINE
8
BLACK
6
CONTINUOUS
10
0.601063
20
0.825669
11
0.642402
21
0.825669
0
LINE
8
BLACK
6
CONTINUOUS
10
0.642402
20
0.825669
11
0.642402
21
0.825506
0
LINE
8
BLACK
6
CONTINUOUS
10
2.26413
20
0.910197
11
2.26397
21
0.910197
0
LINE
8
BLACK
6
CONTINUOUS
10
2.26397
20
0.910197
11
2.26407
21
0.909178
0
LINE
8
BLACK
6
CONTINUOUS
10
2.26407
20
0.909178
11
2.26285
21
0.905893
0
LINE
8
BLACK
6
CONTINUOUS
10
2.26285
20
0.905893
11
2.26033
21
0.903459
0
LINE
8
BLACK
6
CONTINUOUS
10
2.26033
20
0.903459
11
2.25701
21
0.902359
0
LINE
8
BLACK
6
CONTINUOUS
10
2.25701
20
0.902359
11
2.25354
21
0.902809
0
LINE
8
BLACK
6
CONTINUOUS
10
2.25354
20
0.902809
11
2.25315
21
0.903058
0
LINE
8
BLACK
6
CONTINUOUS
10
2.25315
20
0.903058
11
2.24617
21
0.905077
0
LINE
8
BLACK
6
CONTINUOUS
10
2.24617
20
0.905077
11
2.23851
21
0.906164
0
LINE
8
BLACK
6
CONTINUOUS
10
2.23851
20
0.906164
11
2.23077
21
0.906169
0
LINE
8
BLACK
6
CONTINUOUS
10
2.23077
20
0.906169
11
2.22312
21
0.905092
0
LINE
8
BLACK
6
CONTINUOUS
10
2.22312
20
0.905092
11
2.21611
21
0.903077
0
LINE
8
BLACK
6
CONTINUOUS
10
2.21611
20
0.903077
11
2.21572
21
0.902823
0
LINE
8
BLACK
6
CONTINUOUS
10
2.21572
20
0.902823
11
2.21224
21
0.90239
0
LINE
8
BLACK
6
CONTINUOUS
10
2.21224
20
0.90239
11
2.20892
21
0.903506
0
LINE
8
BLACK
6
CONTINUOUS
10
2.20892
20
0.903506
11
2.20641
21
0.905951
0
LINE
8
BLACK
6
CONTINUOUS
10
2.20641
20
0.905951
11
2.20522
21
0.909242
0
LINE
8
BLACK
6
CONTINUOUS
10
2.20522
20
0.909242
11
2.20531
21
0.910197
0
LINE
8
BLACK
6
CONTINUOUS
10
2.20531
20
0.910197
11
2.20508
21
0.910197
0
LINE
8
BLACK
6
CONTINUOUS
10
2.20508
20
0.910197
11
2.20508
21
0.951535
0
LINE
8
BLACK
6
CONTINUOUS
10
2.20508
20
0.951535
11
2.26413
21
0.951535
0
LINE
8
BLACK
6
CONTINUOUS
10
2.26413
20
0.951535
11
2.26413
21
0.910197
0
LINE
8
BLACK
6
CONTINUOUS
10
0.642402
20
1.01551
11
0.643421
21
1.0156
0
LINE
8
BLACK
6
CONTINUOUS
10
0.643421
20
1.0156
11
0.646706
21
1.01439
0
LINE
8
BLACK
6
CONTINUOUS
10
0.646706
20
1.01439
11
0.649139
21
1.01187
0
LINE
8
BLACK
6
CONTINUOUS
10
0.649139
20
1.01187
11
0.65024
21
1.00855
0
LINE
8
BLACK
6
CONTINUOUS
10
0.65024
20
1.00855
11
0.64979
21
1.00507
0
LINE
8
BLACK
6
CONTINUOUS
10
0.64979
20
1.00507
11
0.649541
21
1.00469
0
LINE
8
BLACK
6
CONTINUOUS
10
0.649541
20
1.00469
11
0.647521
21
0.997701
0
LINE
8
BLACK
6
CONTINUOUS
10
0.647521
20
0.997701
11
0.646435
21
0.990044
0
LINE
8
BLACK
6
CONTINUOUS
10
0.646435
20
0.990044
11
0.64643
21
0.98231
0
LINE
8
BLACK
6
CONTINUOUS
10
0.64643
20
0.98231
11
0.647507
21
0.974651
0
LINE
8
BLACK
6
CONTINUOUS
10
0.647507
20
0.974651
11
0.649522
21
0.967645
0
LINE
8
BLACK
6
CONTINUOUS
10
0.649522
20
0.967645
11
0.649775
21
0.967251
0
LINE
8
BLACK
6
CONTINUOUS
10
0.649775
20
0.967251
11
0.650209
21
0.963776
0
LINE
8
BLACK
6
CONTINUOUS
10
0.650209
20
0.963776
11
0.649092
21
0.960456
0
LINE
8
BLACK
6
CONTINUOUS
10
0.649092
20
0.960456
11
0.646647
21
0.957949
0
LINE
8
BLACK
6
CONTINUOUS
10
0.646647
20
0.957949
11
0.643356
21
0.95675
0
LINE
8
BLACK
6
CONTINUOUS
10
0.643356
20
0.95675
11
0.642402
21
0.956846
0
LINE
8
BLACK
6
CONTINUOUS
10
0.642402
20
0.956846
11
0.642402
21
0.956614
0
LINE
8
BLACK
6
CONTINUOUS
10
0.642402
20
0.956614
11
0.601063
21
0.956614
0
LINE
8
BLACK
6
CONTINUOUS
10
0.601063
20
0.956614
11
0.601063
21
1.01567
0
LINE
8
BLACK
6
CONTINUOUS
10
0.601063
20
1.01567
11
0.642402
21
1.01567
0
LINE
8
BLACK
6
CONTINUOUS
10
0.642402
20
1.01567
11
0.642402
21
1.01551
0
LINE
8
BLACK
6
CONTINUOUS
10
0.80185
20
0.956614
11
0.760512
21
0.956614
0
LINE
8
BLACK
6
CONTINUOUS
10
0.760512
20
0.956614
11
0.760512
21
0.956777
0
LINE
8
BLACK
6
CONTINUOUS
10
0.760512
20
0.956777
11
0.759493
21
0.95668
0
LINE
8
BLACK
6
CONTINUOUS
10
0.759493
20
0.95668
11
0.756208
21
0.957895
0
LINE
8
BLACK
6
CONTINUOUS
10
0.756208
20
0.957895
11
0.753774
21
0.960414
0
LINE
8
BLACK
6
CONTINUOUS
10
0.753774
20
0.960414
11
0.752674
21
0.963738
0
LINE
8
BLACK
6
CONTINUOUS
10
0.752674
20
0.963738
11
0.753124
21
0.967212
0
LINE
8
BLACK
6
CONTINUOUS
10
0.753124
20
0.967212
11
0.753373
21
0.967594
0
LINE
8
BLACK
6
CONTINUOUS
10
0.753373
20
0.967594
11
0.755392
21
0.974583
0
LINE
8
BLACK
6
CONTINUOUS
10
0.755392
20
0.974583
11
0.756479
21
0.98224
0
LINE
8
BLACK
6
CONTINUOUS
10
0.756479
20
0.98224
11
0.756484
21
0.989974
0
LINE
8
BLACK
6
CONTINUOUS
10
0.756484
20
0.989974
11
0.755407
21
0.997632
0
LINE
8
BLACK
6
CONTINUOUS
10
0.755407
20
0.997632
11
0.753392
21
1.00464
0
LINE
8
BLACK
6
CONTINUOUS
10
0.753392
20
1.00464
11
0.753138
21
1.00503
0
LINE
8
BLACK
6
CONTINUOUS
10
0.753138
20
1.00503
11
0.752705
21
1.00851
0
LINE
8
BLACK
6
CONTINUOUS
10
0.752705
20
1.00851
11
0.753821
21
1.01183
0
LINE
8
BLACK
6
CONTINUOUS
10
0.753821
20
1.01183
11
0.756266
21
1.01433
0
LINE
8
BLACK
6
CONTINUOUS
10
0.756266
20
1.01433
11
0.759557
21
1.01553
0
LINE
8
BLACK
6
CONTINUOUS
10
0.759557
20
1.01553
11
0.760512
21
1.01544
0
LINE
8
BLACK
6
CONTINUOUS
10
0.760512
20
1.01544
11
0.760512
21
1.01567
0
LINE
8
BLACK
6
CONTINUOUS
10
0.760512
20
1.01567
11
0.80185
21
1.01567
0
LINE
8
BLACK
6
CONTINUOUS
10
0.80185
20
1.01567
11
0.80185
21
0.956614
0
LINE
8
BLACK
6
CONTINUOUS
10
2.26211
20
0.996142
11
2.20711
21
0.996142
0
LINE
8
BLACK
6
CONTINUOUS
10
2.20711
20
0.996142
11
2.20711
21
1.03114
0
LINE
8
BLACK
6
CONTINUOUS
10
2.20711
20
1.03114
11
2.26211
21
1.03114
0
LINE
8
BLACK
6
CONTINUOUS
10
2.26211
20
1.03114
11
2.26211
21
0.996142
0
LINE
8
BLACK
6
CONTINUOUS
10
1.15009
20
1.01114
11
1.09509
21
1.01114
0
LINE
8
BLACK
6
CONTINUOUS
10
1.09509
20
1.01114
11
1.09509
21
1.04614
0
LINE
8
BLACK
6
CONTINUOUS
10
1.09509
20
1.04614
11
1.15009
21
1.04614
0
LINE
8
BLACK
6
CONTINUOUS
10
1.15009
20
1.04614
11
1.15009
21
1.01114
0
LINE
8
BLACK
6
CONTINUOUS
10
1.51484
20
1.01854
11
1.4361
21
1.01854
0
LINE
8
BLACK
6
CONTINUOUS
10
1.4361
20
1.01854
11
1.4361
21
1.04374
0
LINE
8
BLACK
6
CONTINUOUS
10
1.4361
20
1.04374
11
1.51484
21
1.04374
0
LINE
8
BLACK
6
CONTINUOUS
10
1.51484
20
1.04374
11
1.51484
21
1.01854
0
LINE
8
BLACK
6
CONTINUOUS
10
1.26681
20
1.01854
11
1.18807
21
1.01854
0
LINE
8
BLACK
6
CONTINUOUS
10
1.18807
20
1.01854
11
1.18807
21
1.04374
0
LINE
8
BLACK
6
CONTINUOUS
10
1.18807
20
1.04374
11
1.26681
21
1.04374
0
LINE
8
BLACK
6
CONTINUOUS
10
1.26681
20
1.04374
11
1.26681
21
1.01854
0
LINE
8
BLACK
6
CONTINUOUS
10
1.63396
20
1.02114
11
1.57896
21
1.02114
0
LINE
8
BLACK
6
CONTINUOUS
10
1.57896
20
1.02114
11
1.57896
21
1.05614
0
LINE
8
BLACK
6
CONTINUOUS
10
1.57896
20
1.05614
11
1.63396
21
1.05614
0
LINE
8
BLACK
6
CONTINUOUS
10
1.63396
20
1.05614
11
1.63396
21
1.02114
0
LINE
8
BLACK
6
CONTINUOUS
10
2.26211
20
1.07114
11
2.20711
21
1.07114
0
LINE
8
BLACK
6
CONTINUOUS
10
2.20711
20
1.07114
11
2.20711
21
1.10614
0
LINE
8
BLACK
6
CONTINUOUS
10
2.20711
20
1.10614
11
2.26211
21
1.10614
0
LINE
8
BLACK
6
CONTINUOUS
10
2.26211
20
1.10614
11
2.26211
21
1.07114
0
LINE
8
BLACK
6
CONTINUOUS
10
1.15009
20
1.08614
11
1.09509
21
1.08614
0
LINE
8
BLACK
6
CONTINUOUS
10
1.09509
20
1.08614
11
1.09509
21
1.12114
0
LINE
8
BLACK
6
CONTINUOUS
10
1.09509
20
1.12114
11
1.15009
21
1.12114
0
LINE
8
BLACK
6
CONTINUOUS
10
1.15009
20
1.12114
11
1.15009
21
1.08614
0
LINE
8
BLACK
6
CONTINUOUS
10
1.63396
20
1.09614
11
1.57896
21
1.09614
0
LINE
8
BLACK
6
CONTINUOUS
10
1.57896
20
1.09614
11
1.57896
21
1.13114
0
LINE
8
BLACK
6
CONTINUOUS
10
1.57896
20
1.13114
11
1.63396
21
1.13114
0
LINE
8
BLACK
6
CONTINUOUS
10
1.63396
20
1.13114
11
1.63396
21
1.09614
0
LINE
8
BLACK
6
CONTINUOUS
10
1.26681
20
1.11854
11
1.18807
21
1.11854
0
LINE
8
BLACK
6
CONTINUOUS
10
1.18807
20
1.11854
11
1.18807
21
1.14374
0
LINE
8
BLACK
6
CONTINUOUS
10
1.18807
20
1.14374
11
1.26681
21
1.14374
0
LINE
8
BLACK
6
CONTINUOUS
10
1.26681
20
1.14374
11
1.26681
21
1.11854
0
LINE
8
BLACK
6
CONTINUOUS
10
1.51484
20
1.11854
11
1.4361
21
1.11854
0
LINE
8
BLACK
6
CONTINUOUS
10
1.4361
20
1.11854
11
1.4361
21
1.14374
0
LINE
8
BLACK
6
CONTINUOUS
10
1.4361
20
1.14374
11
1.51484
21
1.14374
0
LINE
8
BLACK
6
CONTINUOUS
10
1.51484
20
1.14374
11
1.51484
21
1.11854
0
LINE
8
BLACK
6
CONTINUOUS
10
1.43166
20
1.33854
11
1.35292
21
1.33854
0
LINE
8
BLACK
6
CONTINUOUS
10
1.35292
20
1.33854
11
1.35292
21
1.36374
0
LINE
8
BLACK
6
CONTINUOUS
10
1.35292
20
1.36374
11
1.43166
21
1.36374
0
LINE
8
BLACK
6
CONTINUOUS
10
1.43166
20
1.36374
11
1.43166
21
1.33854
0
LINE
8
BLACK
6
CONTINUOUS
10
1.6797
20
1.33854
11
1.60096
21
1.33854
0
LINE
8
BLACK
6
CONTINUOUS
10
1.60096
20
1.33854
11
1.60096
21
1.36374
0
LINE
8
BLACK
6
CONTINUOUS
10
1.60096
20
1.36374
11
1.6797
21
1.36374
0
LINE
8
BLACK
6
CONTINUOUS
10
1.6797
20
1.36374
11
1.6797
21
1.33854
0
LINE
8
BLACK
6
CONTINUOUS
10
1.31396
20
1.34364
11
1.25896
21
1.34364
0
LINE
8
BLACK
6
CONTINUOUS
10
1.25896
20
1.34364
11
1.25896
21
1.37864
0
LINE
8
BLACK
6
CONTINUOUS
10
1.25896
20
1.37864
11
1.31396
21
1.37864
0
LINE
8
BLACK
6
CONTINUOUS
10
1.31396
20
1.37864
11
1.31396
21
1.34364
0
LINE
8
BLACK
6
CONTINUOUS
10
1.79283
20
1.34614
11
1.73783
21
1.34614
0
LINE
8
BLACK
6
CONTINUOUS
10
1.73783
20
1.34614
11
1.73783
21
1.38114
0
LINE
8
BLACK
6
CONTINUOUS
10
1.73783
20
1.38114
11
1.79283
21
1.38114
0
LINE
8
BLACK
6
CONTINUOUS
10
1.79283
20
1.38114
11
1.79283
21
1.34614
0
LINE
8
BLACK
6
CONTINUOUS
10
0.642402
20
1.41551
11
0.643421
21
1.4156
0
LINE
8
BLACK
6
CONTINUOUS
10
0.643421
20
1.4156
11
0.646706
21
1.41439
0
LINE
8
BLACK
6
CONTINUOUS
10
0.646706
20
1.41439
11
0.649139
21
1.41187
0
LINE
8
BLACK
6
CONTINUOUS
10
0.649139
20
1.41187
11
0.65024
21
1.40854
0
LINE
8
BLACK
6
CONTINUOUS
10
0.65024
20
1.40854
11
0.64979
21
1.40507
0
LINE
8
BLACK
6
CONTINUOUS
10
0.64979
20
1.40507
11
0.649541
21
1.40469
0
LINE
8
BLACK
6
CONTINUOUS
10
0.649541
20
1.40469
11
0.647521
21
1.3977
0
LINE
8
BLACK
6
CONTINUOUS
10
0.647521
20
1.3977
11
0.646435
21
1.39004
0
LINE
8
BLACK
6
CONTINUOUS
10
0.646435
20
1.39004
11
0.64643
21
1.38231
0
LINE
8
BLACK
6
CONTINUOUS
10
0.64643
20
1.38231
11
0.647507
21
1.37465
0
LINE
8
BLACK
6
CONTINUOUS
10
0.647507
20
1.37465
11
0.649522
21
1.36764
0
LINE
8
BLACK
6
CONTINUOUS
10
0.649522
20
1.36764
11
0.649775
21
1.36725
0
LINE
8
BLACK
6
CONTINUOUS
10
0.649775
20
1.36725
11
0.650209
21
1.36378
0
LINE
8
BLACK
6
CONTINUOUS
10
0.650209
20
1.36378
11
0.649092
21
1.36046
0
LINE
8
BLACK
6
CONTINUOUS
10
0.649092
20
1.36046
11
0.646647
21
1.35795
0
LINE
8
BLACK
6
CONTINUOUS
10
0.646647
20
1.35795
11
0.643356
21
1.35675
0
LINE
8
BLACK
6
CONTINUOUS
10
0.643356
20
1.35675
11
0.642402
21
1.35685
0
LINE
8
BLACK
6
CONTINUOUS
10
0.642402
20
1.35685
11
0.642402
21
1.35661
0
LINE
8
BLACK
6
CONTINUOUS
10
0.642402
20
1.35661
11
0.601063
21
1.35661
0
LINE
8
BLACK
6
CONTINUOUS
10
0.601063
20
1.35661
11
0.601063
21
1.41567
0
LINE
8
BLACK
6
CONTINUOUS
10
0.601063
20
1.41567
11
0.642402
21
1.41567
0
LINE
8
BLACK
6
CONTINUOUS
10
0.642402
20
1.41567
11
0.642402
21
1.41551
0
LINE
8
BLACK
6
CONTINUOUS
10
0.80185
20
1.35661
11
0.760512
21
1.35661
0
LINE
8
BLACK
6
CONTINUOUS
10
0.760512
20
1.35661
11
0.760512
21
1.35678
0
LINE
8
BLACK
6
CONTINUOUS
10
0.760512
20
1.35678
11
0.759493
21
1.35668
0
LINE
8
BLACK
6
CONTINUOUS
10
0.759493
20
1.35668
11
0.756208
21
1.35789
0
LINE
8
BLACK
6
CONTINUOUS
10
0.756208
20
1.35789
11
0.753774
21
1.36041
0
LINE
8
BLACK
6
CONTINUOUS
10
0.753774
20
1.36041
11
0.752674
21
1.36374
0
LINE
8
BLACK
6
CONTINUOUS
10
0.752674
20
1.36374
11
0.753124
21
1.36721
0
LINE
8
BLACK
6
CONTINUOUS
10
0.753124
20
1.36721
11
0.753373
21
1.36759
0
LINE
8
BLACK
6
CONTINUOUS
10
0.753373
20
1.36759
11
0.755392
21
1.37458
0
LINE
8
BLACK
6
CONTINUOUS
10
0.755392
20
1.37458
11
0.756479
21
1.38224
0
LINE
8
BLACK
6
CONTINUOUS
10
0.756479
20
1.38224
11
0.756484
21
1.38997
0
LINE
8
BLACK
6
CONTINUOUS
10
0.756484
20
1.38997
11
0.755407
21
1.39763
0
LINE
8
BLACK
6
CONTINUOUS
10
0.755407
20
1.39763
11
0.753392
21
1.40464
0
LINE
8
BLACK
6
CONTINUOUS
10
0.753392
20
1.40464
11
0.753138
21
1.40503
0
LINE
8
BLACK
6
CONTINUOUS
10
0.753138
20
1.40503
11
0.752705
21
1.40851
0
LINE
8
BLACK
6
CONTINUOUS
10
0.752705
20
1.40851
11
0.753821
21
1.41183
0
LINE
8
BLACK
6
CONTINUOUS
10
0.753821
20
1.41183
11
0.756266
21
1.41433
0
LINE
8
BLACK
6
CONTINUOUS
10
0.756266
20
1.41433
11
0.759557
21
1.41553
0
LINE
8
BLACK
6
CONTINUOUS
10
0.759557
20
1.41553
11
0.760512
21
1.41544
0
LINE
8
BLACK
6
CONTINUOUS
10
0.760512
20
1.41544
11
0.760512
21
1.41567
0
LINE
8
BLACK
6
CONTINUOUS
10
0.760512
20
1.41567
11
0.80185
21
1.41567
0
LINE
8
BLACK
6
CONTINUOUS
10
0.80185
20
1.41567
11
0.80185
21
1.35661
0
LINE
8
BLACK
6
CONTINUOUS
10
1.31396
20
1.41864
11
1.25896
21
1.41864
0
LINE
8
BLACK
6
CONTINUOUS
10
1.25896
20
1.41864
11
1.25896
21
1.45364
0
LINE
8
BLACK
6
CONTINUOUS
10
1.25896
20
1.45364
11
1.31396
21
1.45364
0
LINE
8
BLACK
6
CONTINUOUS
10
1.31396
20
1.45364
11
1.31396
21
1.41864
0
LINE
8
BLACK
6
CONTINUOUS
10
1.79283
20
1.42114
11
1.73783
21
1.42114
0
LINE
8
BLACK
6
CONTINUOUS
10
1.73783
20
1.42114
11
1.73783
21
1.45614
0
LINE
8
BLACK
6
CONTINUOUS
10
1.73783
20
1.45614
11
1.79283
21
1.45614
0
LINE
8
BLACK
6
CONTINUOUS
10
1.79283
20
1.45614
11
1.79283
21
1.42114
0
LINE
8
BLACK
6
CONTINUOUS
10
1.6797
20
1.43854
11
1.60096
21
1.43854
0
LINE
8
BLACK
6
CONTINUOUS
10
1.60096
20
1.43854
11
1.60096
21
1.46374
0
LINE
8
BLACK
6
CONTINUOUS
10
1.60096
20
1.46374
11
1.6797
21
1.46374
0
LINE
8
BLACK
6
CONTINUOUS
10
1.6797
20
1.46374
11
1.6797
21
1.43854
0
LINE
8
BLACK
6
CONTINUOUS
10
1.43166
20
1.43854
11
1.35292
21
1.43854
0
LINE
8
BLACK
6
CONTINUOUS
10
1.35292
20
1.43854
11
1.35292
21
1.46374
0
LINE
8
BLACK
6
CONTINUOUS
10
1.35292
20
1.46374
11
1.43166
21
1.46374
0
LINE
8
BLACK
6
CONTINUOUS
10
1.43166
20
1.46374
11
1.43166
21
1.43854
0
LINE
8
BLACK
6
CONTINUOUS
10
1.31396
20
1.52364
11
1.25896
21
1.52364
0
LINE
8
BLACK
6
CONTINUOUS
10
1.25896
20
1.52364
11
1.25896
21
1.55864
0
LINE
8
BLACK
6
CONTINUOUS
10
1.25896
20
1.55864
11
1.31396
21
1.55864
0
LINE
8
BLACK
6
CONTINUOUS
10
1.31396
20
1.55864
11
1.31396
21
1.52364
0
LINE
8
BLACK
6
CONTINUOUS
10
1.11646
20
1.53364
11
1.08146
21
1.53364
0
LINE
8
BLACK
6
CONTINUOUS
10
1.08146
20
1.53364
11
1.08146
21
1.58864
0
LINE
8
BLACK
6
CONTINUOUS
10
1.08146
20
1.58864
11
1.11646
21
1.58864
0
LINE
8
BLACK
6
CONTINUOUS
10
1.11646
20
1.58864
11
1.11646
21
1.53364
0
LINE
8
BLACK
6
CONTINUOUS
10
1.19146
20
1.53364
11
1.15646
21
1.53364
0
LINE
8
BLACK
6
CONTINUOUS
10
1.15646
20
1.53364
11
1.15646
21
1.58864
0
LINE
8
BLACK
6
CONTINUOUS
10
1.15646
20
1.58864
11
1.19146
21
1.58864
0
LINE
8
BLACK
6
CONTINUOUS
10
1.19146
20
1.58864
11
1.19146
21
1.53364
0
LINE
8
BLACK
6
CONTINUOUS
10
0.642402
20
1.61551
11
0.643421
21
1.6156
0
LINE
8
BLACK
6
CONTINUOUS
10
0.643421
20
1.6156
11
0.646706
21
1.61439
0
LINE
8
BLACK
6
CONTINUOUS
10
0.646706
20
1.61439
11
0.649139
21
1.61187
0
LINE
8
BLACK
6
CONTINUOUS
10
0.649139
20
1.61187
11
0.65024
21
1.60854
0
LINE
8
BLACK
6
CONTINUOUS
10
0.65024
20
1.60854
11
0.64979
21
1.60507
0
LINE
8
BLACK
6
CONTINUOUS
10
0.64979
20
1.60507
11
0.649541
21
1.60469
0
LINE
8
BLACK
6
CONTINUOUS
10
0.649541
20
1.60469
11
0.647521
21
1.5977
0
LINE
8
BLACK
6
CONTINUOUS
10
0.647521
20
1.5977
11
0.646435
21
1.59004
0
LINE
8
BLACK
6
CONTINUOUS
10
0.646435
20
1.59004
11
0.64643
21
1.58231
0
LINE
8
BLACK
6
CONTINUOUS
10
0.64643
20
1.58231
11
0.647507
21
1.57465
0
LINE
8
BLACK
6
CONTINUOUS
10
0.647507
20
1.57465
11
0.649522
21
1.56764
0
LINE
8
BLACK
6
CONTINUOUS
10
0.649522
20
1.56764
11
0.649775
21
1.56725
0
LINE
8
BLACK
6
CONTINUOUS
10
0.649775
20
1.56725
11
0.650209
21
1.56378
0
LINE
8
BLACK
6
CONTINUOUS
10
0.650209
20
1.56378
11
0.649092
21
1.56046
0
LINE
8
BLACK
6
CONTINUOUS
10
0.649092
20
1.56046
11
0.646647
21
1.55795
0
LINE
8
BLACK
6
CONTINUOUS
10
0.646647
20
1.55795
11
0.643356
21
1.55675
0
LINE
8
BLACK
6
CONTINUOUS
10
0.643356
20
1.55675
11
0.642402
21
1.55685
0
LINE
8
BLACK
6
CONTINUOUS
10
0.642402
20
1.55685
11
0.642402
21
1.55661
0
LINE
8
BLACK
6
CONTINUOUS
10
0.642402
20
1.55661
11
0.601063
21
1.55661
0
LINE
8
BLACK
6
CONTINUOUS
10
0.601063
20
1.55661
11
0.601063
21
1.61567
0
LINE
8
BLACK
6
CONTINUOUS
10
0.601063
20
1.61567
11
0.642402
21
1.61567
0
LINE
8
BLACK
6
CONTINUOUS
10
0.642402
20
1.61567
11
0.642402
21
1.61551
0
LINE
8
BLACK
6
CONTINUOUS
10
0.80185
20
1.55661
11
0.760512
21
1.55661
0
LINE
8
BLACK
6
CONTINUOUS
10
0.760512
20
1.55661
11
0.760512
21
1.55678
0
LINE
8
BLACK
6
CONTINUOUS
10
0.760512
20
1.55678
11
0.759493
21
1.55668
0
LINE
8
BLACK
6
CONTINUOUS
10
0.759493
20
1.55668
11
0.756208
21
1.55789
0
LINE
8
BLACK
6
CONTINUOUS
10
0.756208
20
1.55789
11
0.753774
21
1.56041
0
LINE
8
BLACK
6
CONTINUOUS
10
0.753774
20
1.56041
11
0.752674
21
1.56374
0
LINE
8
BLACK
6
CONTINUOUS
10
0.752674
20
1.56374
11
0.753124
21
1.56721
0
LINE
8
BLACK
6
CONTINUOUS
10
0.753124
20
1.56721
11
0.753373
21
1.56759
0
LINE
8
BLACK
6
CONTINUOUS
10
0.753373
20
1.56759
11
0.755392
21
1.57458
0
LINE
8
BLACK
6
CONTINUOUS
10
0.755392
20
1.57458
11
0.756479
21
1.58224
0
LINE
8
BLACK
6
CONTINUOUS
10
0.756479
20
1.58224
11
0.756484
21
1.58997
0
LINE
8
BLACK
6
CONTINUOUS
10
0.756484
20
1.58997
11
0.755407
21
1.59763
0
LINE
8
BLACK
6
CONTINUOUS
10
0.755407
20
1.59763
11
0.753392
21
1.60464
0
LINE
8
BLACK
6
CONTINUOUS
10
0.753392
20
1.60464
11
0.753138
21
1.60503
0
LINE
8
BLACK
6
CONTINUOUS
10
0.753138
20
1.60503
11
0.752705
21
1.60851
0
LINE
8
BLACK
6
CONTINUOUS
10
0.752705
20
1.60851
11
0.753821
21
1.61183
0
LINE
8
BLACK
6
CONTINUOUS
10
0.753821
20
1.61183
11
0.756266
21
1.61433
0
LINE
8
BLACK
6
CONTINUOUS
10
0.756266
20
1.61433
11
0.759557
21
1.61553
0
LINE
8
BLACK
6
CONTINUOUS
10
0.759557
20
1.61553
11
0.760512
21
1.61544
0
LINE
8
BLACK
6
CONTINUOUS
10
0.760512
20
1.61544
11
0.760512
21
1.61567
0
LINE
8
BLACK
6
CONTINUOUS
10
0.760512
20
1.61567
11
0.80185
21
1.61567
0
LINE
8
BLACK
6
CONTINUOUS
10
0.80185
20
1.61567
11
0.80185
21
1.55661
0
LINE
8
BLACK
6
CONTINUOUS
10
1.31396
20
1.59864
11
1.25896
21
1.59864
0
LINE
8
BLACK
6
CONTINUOUS
10
1.25896
20
1.59864
11
1.25896
21
1.63364
0
LINE
8
BLACK
6
CONTINUOUS
10
1.25896
20
1.63364
11
1.31396
21
1.63364
0
LINE
8
BLACK
6
CONTINUOUS
10
1.31396
20
1.63364
11
1.31396
21
1.59864
0
LINE
8
BLACK
6
CONTINUOUS
10
1.66883
20
1.65229
11
1.59009
21
1.65229
0
LINE
8
BLACK
6
CONTINUOUS
10
1.59009
20
1.65229
11
1.59009
21
1.67749
0
LINE
8
BLACK
6
CONTINUOUS
10
1.59009
20
1.67749
11
1.66883
21
1.67749
0
LINE
8
BLACK
6
CONTINUOUS
10
1.66883
20
1.67749
11
1.66883
21
1.65229
0
LINE
8
BLACK
6
CONTINUOUS
10
1.4208
20
1.65229
11
1.34206
21
1.65229
0
LINE
8
BLACK
6
CONTINUOUS
10
1.34206
20
1.65229
11
1.34206
21
1.67749
0
LINE
8
BLACK
6
CONTINUOUS
10
1.34206
20
1.67749
11
1.4208
21
1.67749
0
LINE
8
BLACK
6
CONTINUOUS
10
1.4208
20
1.67749
11
1.4208
21
1.65229
0
LINE
8
BLACK
6
CONTINUOUS
10
1.78295
20
1.65989
11
1.72795
21
1.65989
0
LINE
8
BLACK
6
CONTINUOUS
10
1.72795
20
1.65989
11
1.72795
21
1.69489
0
LINE
8
BLACK
6
CONTINUOUS
10
1.72795
20
1.69489
11
1.78295
21
1.69489
0
LINE
8
BLACK
6
CONTINUOUS
10
1.78295
20
1.69489
11
1.78295
21
1.65989
0
LINE
8
BLACK
6
CONTINUOUS
10
1.18443
20
1.73571
11
1.18763
21
1.73357
0
LINE
8
BLACK
6
CONTINUOUS
10
1.18763
20
1.73357
11
1.18976
21
1.73038
0
LINE
8
BLACK
6
CONTINUOUS
10
1.18976
20
1.73038
11
1.19051
21
1.72661
0
LINE
8
BLACK
6
CONTINUOUS
10
1.19051
20
1.72661
11
1.19051
21
1.68921
0
LINE
8
BLACK
6
CONTINUOUS
10
1.19051
20
1.68921
11
1.18976
21
1.68545
0
LINE
8
BLACK
6
CONTINUOUS
10
1.18976
20
1.68545
11
1.18763
21
1.68225
0
LINE
8
BLACK
6
CONTINUOUS
10
1.18763
20
1.68225
11
1.18443
21
1.68012
0
LINE
8
BLACK
6
CONTINUOUS
10
1.18443
20
1.68012
11
1.18067
21
1.67937
0
LINE
8
BLACK
6
CONTINUOUS
10
1.18067
20
1.67937
11
1.16098
21
1.67937
0
LINE
8
BLACK
6
CONTINUOUS
10
1.16098
20
1.67937
11
1.15721
21
1.68012
0
LINE
8
BLACK
6
CONTINUOUS
10
1.15721
20
1.68012
11
1.15402
21
1.68225
0
LINE
8
BLACK
6
CONTINUOUS
10
1.15402
20
1.68225
11
1.15189
21
1.68545
0
LINE
8
BLACK
6
CONTINUOUS
10
1.15189
20
1.68545
11
1.15114
21
1.68921
0
LINE
8
BLACK
6
CONTINUOUS
10
1.15114
20
1.68921
11
1.15114
21
1.72661
0
LINE
8
BLACK
6
CONTINUOUS
10
1.15114
20
1.72661
11
1.15189
21
1.73038
0
LINE
8
BLACK
6
CONTINUOUS
10
1.15189
20
1.73038
11
1.15402
21
1.73357
0
LINE
8
BLACK
6
CONTINUOUS
10
1.15402
20
1.73357
11
1.15721
21
1.73571
0
LINE
8
BLACK
6
CONTINUOUS
10
1.15721
20
1.73571
11
1.16098
21
1.73646
0
LINE
8
BLACK
6
CONTINUOUS
10
1.16098
20
1.73646
11
1.18067
21
1.73646
0
LINE
8
BLACK
6
CONTINUOUS
10
1.18067
20
1.73646
11
1.18443
21
1.73571
0
LINE
8
BLACK
6
CONTINUOUS
10
1.10963
20
1.73571
11
1.11282
21
1.73357
0
LINE
8
BLACK
6
CONTINUOUS
10
1.11282
20
1.73357
11
1.11496
21
1.73038
0
LINE
8
BLACK
6
CONTINUOUS
10
1.11496
20
1.73038
11
1.1157
21
1.72661
0
LINE
8
BLACK
6
CONTINUOUS
10
1.1157
20
1.72661
11
1.1157
21
1.68921
0
LINE
8
BLACK
6
CONTINUOUS
10
1.1157
20
1.68921
11
1.11496
21
1.68545
0
LINE
8
BLACK
6
CONTINUOUS
10
1.11496
20
1.68545
11
1.11282
21
1.68225
0
LINE
8
BLACK
6
CONTINUOUS
10
1.11282
20
1.68225
11
1.10963
21
1.68012
0
LINE
8
BLACK
6
CONTINUOUS
10
1.10963
20
1.68012
11
1.10586
21
1.67937
0
LINE
8
BLACK
6
CONTINUOUS
10
1.10586
20
1.67937
11
1.08618
21
1.67937
0
LINE
8
BLACK
6
CONTINUOUS
10
1.08618
20
1.67937
11
1.08241
21
1.68012
0
LINE
8
BLACK
6
CONTINUOUS
10
1.08241
20
1.68012
11
1.07922
21
1.68225
0
LINE
8
BLACK
6
CONTINUOUS
10
1.07922
20
1.68225
11
1.07708
21
1.68545
0
LINE
8
BLACK
6
CONTINUOUS
10
1.07708
20
1.68545
11
1.07633
21
1.68921
0
LINE
8
BLACK
6
CONTINUOUS
10
1.07633
20
1.68921
11
1.07633
21
1.72661
0
LINE
8
BLACK
6
CONTINUOUS
10
1.07633
20
1.72661
11
1.07708
21
1.73038
0
LINE
8
BLACK
6
CONTINUOUS
10
1.07708
20
1.73038
11
1.07922
21
1.73357
0
LINE
8
BLACK
6
CONTINUOUS
10
1.07922
20
1.73357
11
1.08241
21
1.73571
0
LINE
8
BLACK
6
CONTINUOUS
10
1.08241
20
1.73571
11
1.08618
21
1.73646
0
LINE
8
BLACK
6
CONTINUOUS
10
1.08618
20
1.73646
11
1.10586
21
1.73646
0
LINE
8
BLACK
6
CONTINUOUS
10
1.10586
20
1.73646
11
1.10963
21
1.73571
0
LINE
8
BLACK
6
CONTINUOUS
10
1.78295
20
1.73489
11
1.72795
21
1.73489
0
LINE
8
BLACK
6
CONTINUOUS
10
1.72795
20
1.73489
11
1.72795
21
1.76989
0
LINE
8
BLACK
6
CONTINUOUS
10
1.72795
20
1.76989
11
1.78295
21
1.76989
0
LINE
8
BLACK
6
CONTINUOUS
10
1.78295
20
1.76989
11
1.78295
21
1.73489
0
LINE
8
BLACK
6
CONTINUOUS
10
1.66883
20
1.75229
11
1.59009
21
1.75229
0
LINE
8
BLACK
6
CONTINUOUS
10
1.59009
20
1.75229
11
1.59009
21
1.77749
0
LINE
8
BLACK
6
CONTINUOUS
10
1.59009
20
1.77749
11
1.66883
21
1.77749
0
LINE
8
BLACK
6
CONTINUOUS
10
1.66883
20
1.77749
11
1.66883
21
1.75229
0
LINE
8
BLACK
6
CONTINUOUS
10
1.4208
20
1.75229
11
1.34206
21
1.75229
0
LINE
8
BLACK
6
CONTINUOUS
10
1.34206
20
1.75229
11
1.34206
21
1.77749
0
LINE
8
BLACK
6
CONTINUOUS
10
1.34206
20
1.77749
11
1.4208
21
1.77749
0
LINE
8
BLACK
6
CONTINUOUS
10
1.4208
20
1.77749
11
1.4208
21
1.75229
0
LINE
8
BLACK
6
CONTINUOUS
10
1.08567
20
1.82071
11
0.987244
21
1.82071
0
LINE
8
BLACK
6
CONTINUOUS
10
0.987244
20
1.82071
11
0.987244
21
1.89157
0
LINE
8
BLACK
6
CONTINUOUS
10
0.987244
20
1.89157
11
1.08567
21
1.89157
0
LINE
8
BLACK
6
CONTINUOUS
10
1.08567
20
1.89157
11
1.08567
21
1.82071
0
LINE
8
BLACK
6
CONTINUOUS
10
1.24315
20
1.82071
11
1.14472
21
1.82071
0
LINE
8
BLACK
6
CONTINUOUS
10
1.14472
20
1.82071
11
1.14472
21
1.89157
0
LINE
8
BLACK
6
CONTINUOUS
10
1.14472
20
1.89157
11
1.24315
21
1.89157
0
LINE
8
BLACK
6
CONTINUOUS
10
1.24315
20
1.89157
11
1.24315
21
1.82071
  0
ENDSEC
  0
EOF
