  0
SECTION
  2
HEADER
  9
$ANGBASE
  50
0.0
  9
$ANGDIR
  70
1
  9
$MEASUREMENT
  70
0
  0
ENDSEC
  0
SECTION
  2
TABLES
  0
TABLE
  2
LTYPE
  70
4
  0
LTYPE
  5
40F
  2
CONTINUOUS
  70
0
  3
Solid line
  72
65
  73
0
  40
0.0
  0
LTYPE
  5
410
  2
DASHDOT
 70
0
  3
Dash Dot ____ _ ____ _
 72
65
 73
4
 40
2.0
 49
1.25
 49
-0.25
 49
0.25
 49
-0.25
  0
LTYPE
  5
411
  2
DASHED
 70
0
  3
Dashed __ __ __ __ __
 72
65
 73
2
 40
0.75
 49
0.5
 49
-0.25
  0
LTYPE
  5
43B
  2
DOTTED
 70
0
  3
Dotted .  .  .  .
 72
65
 73
2
 40
0.2
 49
0.0
 49
-0.2
  0
ENDTAB
  0
TABLE
  2
STYLE
  70
4
  0
STYLE
  2
KICAD
  70
0
  40
0
  41
1
  42
1
  50
0
  71
0
  3
isocp.shx
  0
STYLE
  2
KICADB
  70
0
  40
0
  41
1
  42
1
  50
0
  71
0
  3
isocp.shx
  0
STYLE
  2
KICADI
  70
0
  40
0
  41
1
  42
1
  50
15
  71
0
  3
isocp.shx
  0
STYLE
  2
KICADBI
  70
0
  40
0
  41
1
  42
1
  50
15
  71
0
  3
isocp.shx
  0
ENDTAB
  0
TABLE
  2
LAYER
  70
1
  0
LAYER
  2
BLACK
  70
0
  62
7
  6
CONTINUOUS
  0
ENDTAB
  0
ENDSEC
  0
SECTION
  2
ENTITIES
0
LINE
8
BLACK
6
CONTINUOUS
10
2.37247
20
-0.970834
11
2.37177
21
-0.971122
0
LINE
8
BLACK
6
CONTINUOUS
10
2.37177
20
-0.971122
11
1.0572
21
-0.971122
0
LINE
8
BLACK
6
CONTINUOUS
10
1.0572
20
-0.971122
11
1.05651
21
-0.970834
0
LINE
8
BLACK
6
CONTINUOUS
10
1.05651
20
-0.970834
11
1.05622
21
-0.970138
0
LINE
8
BLACK
6
CONTINUOUS
10
1.05622
20
-0.970138
11
1.05622
21
-0.170138
0
LINE
8
BLACK
6
CONTINUOUS
10
1.05622
20
-0.170138
11
1.05651
21
-0.169442
0
LINE
8
BLACK
6
CONTINUOUS
10
1.05651
20
-0.169442
11
1.0572
21
-0.169154
0
LINE
8
BLACK
6
CONTINUOUS
10
1.0572
20
-0.169154
11
2.37177
21
-0.169154
0
LINE
8
BLACK
6
CONTINUOUS
10
2.37177
20
-0.169154
11
2.37247
21
-0.169442
0
LINE
8
BLACK
6
CONTINUOUS
10
2.37247
20
-0.169442
11
2.37276
21
-0.170138
0
LINE
8
BLACK
6
CONTINUOUS
10
2.37276
20
-0.170138
11
2.37276
21
-0.970138
0
LINE
8
BLACK
6
CONTINUOUS
10
2.37276
20
-0.970138
11
2.37247
21
-0.970834
0
LINE
8
BLACK
6
CONTINUOUS
10
1.05819
20
-0.571122
11
1.05819
21
-0.969154
0
LINE
8
BLACK
6
CONTINUOUS
10
1.05819
20
-0.969154
11
2.37079
21
-0.969154
0
LINE
8
BLACK
6
CONTINUOUS
10
2.37079
20
-0.969154
11
2.37079
21
-0.571122
0
LINE
8
BLACK
6
CONTINUOUS
10
2.37079
20
-0.571122
11
1.05819
21
-0.571122
0
LINE
8
BLACK
6
CONTINUOUS
10
1.05819
20
-0.171122
11
1.05819
21
-0.569154
0
LINE
8
BLACK
6
CONTINUOUS
10
1.05819
20
-0.569154
11
2.37079
21
-0.569154
0
LINE
8
BLACK
6
CONTINUOUS
10
2.37079
20
-0.569154
11
2.37079
21
-0.171122
0
LINE
8
BLACK
6
CONTINUOUS
10
2.37079
20
-0.171122
11
1.05819
21
-0.171122
0
LINE
8
BLACK
6
CONTINUOUS
10
2.42694
20
-0.828964
11
2.42665
21
-0.828268
0
LINE
8
BLACK
6
CONTINUOUS
10
2.42665
20
-0.828268
11
2.42665
21
0.600866
0
LINE
8
BLACK
6
CONTINUOUS
10
2.42665
20
0.600866
11
2.42694
21
0.601562
0
LINE
8
BLACK
6
CONTINUOUS
10
2.42694
20
0.601562
11
2.42764
21
0.60185
0
LINE
8
BLACK
6
CONTINUOUS
10
2.42764
20
0.60185
11
2.68354
21
0.60185
0
LINE
8
BLACK
6
CONTINUOUS
10
2.68354
20
0.60185
11
2.68424
21
0.601562
0
LINE
8
BLACK
6
CONTINUOUS
10
2.68424
20
0.601562
11
2.68453
21
0.600866
0
LINE
8
BLACK
6
CONTINUOUS
10
2.68453
20
0.600866
11
2.68453
21
-0.828268
0
LINE
8
BLACK
6
CONTINUOUS
10
2.68453
20
-0.828268
11
2.68424
21
-0.828964
0
LINE
8
BLACK
6
CONTINUOUS
10
2.68424
20
-0.828964
11
2.68354
21
-0.829252
0
LINE
8
BLACK
6
CONTINUOUS
10
2.68354
20
-0.829252
11
2.42764
21
-0.829252
0
LINE
8
BLACK
6
CONTINUOUS
10
2.42764
20
-0.829252
11
2.42694
21
-0.828964
0
LINE
8
BLACK
6
CONTINUOUS
10
2.42862
20
0.599882
11
2.42862
21
-0.827283
0
LINE
8
BLACK
6
CONTINUOUS
10
2.42862
20
-0.827283
11
2.68256
21
-0.827283
0
LINE
8
BLACK
6
CONTINUOUS
10
2.68256
20
-0.827283
11
2.68256
21
0.599882
0
LINE
8
BLACK
6
CONTINUOUS
10
2.68256
20
0.599882
11
2.42862
21
0.599882
0
LINE
8
BLACK
6
CONTINUOUS
10
1.05446
20
-0.142054
11
1.05417
21
-0.141358
0
LINE
8
BLACK
6
CONTINUOUS
10
1.05417
20
-0.141358
11
1.05417
21
0.258642
0
LINE
8
BLACK
6
CONTINUOUS
10
1.05417
20
0.258642
11
1.05446
21
0.259338
0
LINE
8
BLACK
6
CONTINUOUS
10
1.05446
20
0.259338
11
1.05516
21
0.259626
0
LINE
8
BLACK
6
CONTINUOUS
10
1.05516
20
0.259626
11
2.36972
21
0.259626
0
LINE
8
BLACK
6
CONTINUOUS
10
2.36972
20
0.259626
11
2.37042
21
0.259338
0
LINE
8
BLACK
6
CONTINUOUS
10
2.37042
20
0.259338
11
2.37071
21
0.258642
0
LINE
8
BLACK
6
CONTINUOUS
10
2.37071
20
0.258642
11
2.37071
21
-0.141358
0
LINE
8
BLACK
6
CONTINUOUS
10
2.37071
20
-0.141358
11
2.37042
21
-0.142054
0
LINE
8
BLACK
6
CONTINUOUS
10
2.37042
20
-0.142054
11
2.36972
21
-0.142343
0
LINE
8
BLACK
6
CONTINUOUS
10
2.36972
20
-0.142343
11
1.05516
21
-0.142343
0
LINE
8
BLACK
6
CONTINUOUS
10
1.05516
20
-0.142343
11
1.05446
21
-0.142054
0
LINE
8
BLACK
6
CONTINUOUS
10
1.05614
20
0.257657
11
1.05614
21
-0.140374
0
LINE
8
BLACK
6
CONTINUOUS
10
1.05614
20
-0.140374
11
2.36874
21
-0.140374
0
LINE
8
BLACK
6
CONTINUOUS
10
2.36874
20
-0.140374
11
2.36874
21
0.257657
0
LINE
8
BLACK
6
CONTINUOUS
10
2.36874
20
0.257657
11
1.05614
21
0.257657
0
LINE
8
BLACK
6
CONTINUOUS
10
2.24071
20
0.663642
11
2.24071
21
0.263642
0
LINE
8
BLACK
6
CONTINUOUS
10
2.24071
20
0.263642
11
2.24042
21
0.262946
0
LINE
8
BLACK
6
CONTINUOUS
10
2.24042
20
0.262946
11
2.23972
21
0.262657
0
LINE
8
BLACK
6
CONTINUOUS
10
2.23972
20
0.262657
11
0.925157
21
0.262657
0
LINE
8
BLACK
6
CONTINUOUS
10
0.925157
20
0.262657
11
0.924461
21
0.262946
0
LINE
8
BLACK
6
CONTINUOUS
10
0.924461
20
0.262946
11
0.924173
21
0.263642
0
LINE
8
BLACK
6
CONTINUOUS
10
0.924173
20
0.263642
11
0.924173
21
0.663642
0
LINE
8
BLACK
6
CONTINUOUS
10
0.924173
20
0.663642
11
0.924283
21
0.663907
0
LINE
8
BLACK
6
CONTINUOUS
10
0.924283
20
0.663907
11
0.821407
21
0.663907
0
LINE
8
BLACK
6
CONTINUOUS
10
0.821407
20
0.663907
11
0.820711
21
0.664196
0
LINE
8
BLACK
6
CONTINUOUS
10
0.820711
20
0.664196
11
0.820423
21
0.664892
0
LINE
8
BLACK
6
CONTINUOUS
10
0.820423
20
0.664892
11
0.820423
21
1.06489
0
LINE
8
BLACK
6
CONTINUOUS
10
0.820423
20
1.06489
11
0.820711
21
1.06559
0
LINE
8
BLACK
6
CONTINUOUS
10
0.820711
20
1.06559
11
0.821407
21
1.06588
0
LINE
8
BLACK
6
CONTINUOUS
10
0.821407
20
1.06588
11
2.13597
21
1.06588
0
LINE
8
BLACK
6
CONTINUOUS
10
2.13597
20
1.06588
11
2.13667
21
1.06559
0
LINE
8
BLACK
6
CONTINUOUS
10
2.13667
20
1.06559
11
2.13696
21
1.06489
0
LINE
8
BLACK
6
CONTINUOUS
10
2.13696
20
1.06489
11
2.13696
21
0.664892
0
LINE
8
BLACK
6
CONTINUOUS
10
2.13696
20
0.664892
11
2.13685
21
0.664626
0
LINE
8
BLACK
6
CONTINUOUS
10
2.13685
20
0.664626
11
2.23972
21
0.664626
0
LINE
8
BLACK
6
CONTINUOUS
10
2.23972
20
0.664626
11
2.24042
21
0.664338
0
LINE
8
BLACK
6
CONTINUOUS
10
2.24042
20
0.664338
11
2.24071
21
0.663642
0
LINE
8
BLACK
6
CONTINUOUS
10
0.926142
20
0.662657
11
0.926142
21
0.264626
0
LINE
8
BLACK
6
CONTINUOUS
10
0.926142
20
0.264626
11
2.23874
21
0.264626
0
LINE
8
BLACK
6
CONTINUOUS
10
2.23874
20
0.264626
11
2.23874
21
0.662657
0
LINE
8
BLACK
6
CONTINUOUS
10
2.23874
20
0.662657
11
0.926142
21
0.662657
0
LINE
8
BLACK
6
CONTINUOUS
10
0.822392
20
1.06391
11
0.822392
21
0.665876
0
LINE
8
BLACK
6
CONTINUOUS
10
0.822392
20
0.665876
11
2.13499
21
0.665876
0
LINE
8
BLACK
6
CONTINUOUS
10
2.13499
20
0.665876
11
2.13499
21
1.06391
0
LINE
8
BLACK
6
CONTINUOUS
10
2.13499
20
1.06391
11
0.822392
21
1.06391
0
LINE
8
BLACK
6
CONTINUOUS
10
0.818477
20
1.12545
11
0.818189
21
1.12614
0
LINE
8
BLACK
6
CONTINUOUS
10
0.818189
20
1.12614
11
0.818189
21
1.52614
0
LINE
8
BLACK
6
CONTINUOUS
10
0.818189
20
1.52614
11
0.818477
21
1.52684
0
LINE
8
BLACK
6
CONTINUOUS
10
0.818477
20
1.52684
11
0.819173
21
1.52713
0
LINE
8
BLACK
6
CONTINUOUS
10
0.819173
20
1.52713
11
2.13374
21
1.52713
0
LINE
8
BLACK
6
CONTINUOUS
10
2.13374
20
1.52713
11
2.13444
21
1.52684
0
LINE
8
BLACK
6
CONTINUOUS
10
2.13444
20
1.52684
11
2.13472
21
1.52614
0
LINE
8
BLACK
6
CONTINUOUS
10
2.13472
20
1.52614
11
2.13472
21
1.12614
0
LINE
8
BLACK
6
CONTINUOUS
10
2.13472
20
1.12614
11
2.13444
21
1.12545
0
LINE
8
BLACK
6
CONTINUOUS
10
2.13444
20
1.12545
11
2.13374
21
1.12516
0
LINE
8
BLACK
6
CONTINUOUS
10
2.13374
20
1.12516
11
0.819173
21
1.12516
0
LINE
8
BLACK
6
CONTINUOUS
10
0.819173
20
1.12516
11
0.818477
21
1.12545
0
LINE
8
BLACK
6
CONTINUOUS
10
0.820157
20
1.52516
11
0.820157
21
1.12713
0
LINE
8
BLACK
6
CONTINUOUS
10
0.820157
20
1.12713
11
2.13276
21
1.12713
0
LINE
8
BLACK
6
CONTINUOUS
10
2.13276
20
1.12713
11
2.13276
21
1.52516
0
LINE
8
BLACK
6
CONTINUOUS
10
2.13276
20
1.52516
11
0.820157
21
1.52516
0
LINE
8
BLACK
6
CONTINUOUS
10
0.818674
20
1.53545
11
0.818386
21
1.53614
0
LINE
8
BLACK
6
CONTINUOUS
10
0.818386
20
1.53614
11
0.818386
21
1.93614
0
LINE
8
BLACK
6
CONTINUOUS
10
0.818386
20
1.93614
11
0.818674
21
1.93684
0
LINE
8
BLACK
6
CONTINUOUS
10
0.818674
20
1.93684
11
0.81937
21
1.93713
0
LINE
8
BLACK
6
CONTINUOUS
10
0.81937
20
1.93713
11
2.13394
21
1.93713
0
LINE
8
BLACK
6
CONTINUOUS
10
2.13394
20
1.93713
11
2.13463
21
1.93684
0
LINE
8
BLACK
6
CONTINUOUS
10
2.13463
20
1.93684
11
2.13492
21
1.93614
0
LINE
8
BLACK
6
CONTINUOUS
10
2.13492
20
1.93614
11
2.13492
21
1.53614
0
LINE
8
BLACK
6
CONTINUOUS
10
2.13492
20
1.53614
11
2.13463
21
1.53545
0
LINE
8
BLACK
6
CONTINUOUS
10
2.13463
20
1.53545
11
2.13394
21
1.53516
0
LINE
8
BLACK
6
CONTINUOUS
10
2.13394
20
1.53516
11
0.81937
21
1.53516
0
LINE
8
BLACK
6
CONTINUOUS
10
0.81937
20
1.53516
11
0.818674
21
1.53545
0
LINE
8
BLACK
6
CONTINUOUS
10
0.820354
20
1.93516
11
0.820354
21
1.53713
0
LINE
8
BLACK
6
CONTINUOUS
10
0.820354
20
1.53713
11
2.13295
21
1.53713
0
LINE
8
BLACK
6
CONTINUOUS
10
2.13295
20
1.53713
11
2.13295
21
1.93516
0
LINE
8
BLACK
6
CONTINUOUS
10
2.13295
20
1.93516
11
0.820354
21
1.93516
  0
ENDSEC
  0
EOF
