  0
SECTION
  2
HEADER
  9
$ANGBASE
  50
0.0
  9
$ANGDIR
  70
1
  9
$MEASUREMENT
  70
0
  0
ENDSEC
  0
SECTION
  2
TABLES
  0
TABLE
  2
LTYPE
  70
4
  0
LTYPE
  5
40F
  2
CONTINUOUS
  70
0
  3
Solid line
  72
65
  73
0
  40
0.0
  0
LTYPE
  5
410
  2
DASHDOT
 70
0
  3
Dash Dot ____ _ ____ _
 72
65
 73
4
 40
2.0
 49
1.25
 49
-0.25
 49
0.25
 49
-0.25
  0
LTYPE
  5
411
  2
DASHED
 70
0
  3
Dashed __ __ __ __ __
 72
65
 73
2
 40
0.75
 49
0.5
 49
-0.25
  0
LTYPE
  5
43B
  2
DOTTED
 70
0
  3
Dotted .  .  .  .
 72
65
 73
2
 40
0.2
 49
0.0
 49
-0.2
  0
ENDTAB
  0
TABLE
  2
STYLE
  70
4
  0
STYLE
  2
KICAD
  70
0
  40
0
  41
1
  42
1
  50
0
  71
0
  3
isocp.shx
  0
STYLE
  2
KICADB
  70
0
  40
0
  41
1
  42
1
  50
0
  71
0
  3
isocp.shx
  0
STYLE
  2
KICADI
  70
0
  40
0
  41
1
  42
1
  50
15
  71
0
  3
isocp.shx
  0
STYLE
  2
KICADBI
  70
0
  40
0
  41
1
  42
1
  50
15
  71
0
  3
isocp.shx
  0
ENDTAB
  0
TABLE
  2
LAYER
  70
1
  0
LAYER
  2
BLACK
  70
0
  62
7
  6
CONTINUOUS
  0
ENDTAB
  0
ENDSEC
  0
SECTION
  2
ENTITIES
0
LINE
8
BLACK
6
CONTINUOUS
10
2.07101
20
0.880275
11
2.07256
21
0.878976
0
LINE
8
BLACK
6
CONTINUOUS
10
2.07256
20
0.878976
11
2.07291
21
0.876987
0
LINE
8
BLACK
6
CONTINUOUS
10
2.07291
20
0.876987
11
2.0719
21
0.875238
0
LINE
8
BLACK
6
CONTINUOUS
10
2.0719
20
0.875238
11
2.07
21
0.874547
0
LINE
8
BLACK
6
CONTINUOUS
10
2.07
20
0.874547
11
2.01
21
0.874547
0
LINE
8
BLACK
6
CONTINUOUS
10
2.01
20
0.874547
11
2.00899
21
0.874725
0
LINE
8
BLACK
6
CONTINUOUS
10
2.00899
20
0.874725
11
2.00744
21
0.876024
0
LINE
8
BLACK
6
CONTINUOUS
10
2.00744
20
0.876024
11
2.00709
21
0.878013
0
LINE
8
BLACK
6
CONTINUOUS
10
2.00709
20
0.878013
11
2.0081
21
0.879762
0
LINE
8
BLACK
6
CONTINUOUS
10
2.0081
20
0.879762
11
2.01
21
0.880453
0
LINE
8
BLACK
6
CONTINUOUS
10
2.01
20
0.880453
11
2.07
21
0.880453
0
LINE
8
BLACK
6
CONTINUOUS
10
2.07
20
0.880453
11
2.07101
21
0.880275
0
LINE
8
BLACK
6
CONTINUOUS
10
2.07167
20
0.95417
11
2.07236
21
0.9525
0
LINE
8
BLACK
6
CONTINUOUS
10
2.07236
20
0.9525
11
2.07236
21
0.9225
0
LINE
8
BLACK
6
CONTINUOUS
10
2.07236
20
0.9225
11
2.07167
21
0.92083
0
LINE
8
BLACK
6
CONTINUOUS
10
2.07167
20
0.92083
11
2.07
21
0.920138
0
LINE
8
BLACK
6
CONTINUOUS
10
2.07
20
0.920138
11
2.06833
21
0.92083
0
LINE
8
BLACK
6
CONTINUOUS
10
2.06833
20
0.92083
11
2.06764
21
0.9225
0
LINE
8
BLACK
6
CONTINUOUS
10
2.06764
20
0.9225
11
2.06764
21
0.9525
0
LINE
8
BLACK
6
CONTINUOUS
10
2.06764
20
0.9525
11
2.06833
21
0.95417
0
LINE
8
BLACK
6
CONTINUOUS
10
2.06833
20
0.95417
11
2.07
21
0.954862
0
LINE
8
BLACK
6
CONTINUOUS
10
2.07
20
0.954862
11
2.07167
21
0.95417
0
LINE
8
BLACK
6
CONTINUOUS
10
2.01167
20
0.95417
11
2.01236
21
0.9525
0
LINE
8
BLACK
6
CONTINUOUS
10
2.01236
20
0.9525
11
2.01236
21
0.9225
0
LINE
8
BLACK
6
CONTINUOUS
10
2.01236
20
0.9225
11
2.01167
21
0.92083
0
LINE
8
BLACK
6
CONTINUOUS
10
2.01167
20
0.92083
11
2.01
21
0.920138
0
LINE
8
BLACK
6
CONTINUOUS
10
2.01
20
0.920138
11
2.00833
21
0.92083
0
LINE
8
BLACK
6
CONTINUOUS
10
2.00833
20
0.92083
11
2.00764
21
0.9225
0
LINE
8
BLACK
6
CONTINUOUS
10
2.00764
20
0.9225
11
2.00764
21
0.9525
0
LINE
8
BLACK
6
CONTINUOUS
10
2.00764
20
0.9525
11
2.00833
21
0.95417
0
LINE
8
BLACK
6
CONTINUOUS
10
2.00833
20
0.95417
11
2.01
21
0.954862
0
LINE
8
BLACK
6
CONTINUOUS
10
2.01
20
0.954862
11
2.01167
21
0.95417
0
LINE
8
BLACK
6
CONTINUOUS
10
2.41332
20
0.969881
11
2.41487
21
0.968583
0
LINE
8
BLACK
6
CONTINUOUS
10
2.41487
20
0.968583
11
2.41522
21
0.966594
0
LINE
8
BLACK
6
CONTINUOUS
10
2.41522
20
0.966594
11
2.41421
21
0.964844
0
LINE
8
BLACK
6
CONTINUOUS
10
2.41421
20
0.964844
11
2.41231
21
0.964154
0
LINE
8
BLACK
6
CONTINUOUS
10
2.41231
20
0.964154
11
2.35231
21
0.964154
0
LINE
8
BLACK
6
CONTINUOUS
10
2.35231
20
0.964154
11
2.3513
21
0.964332
0
LINE
8
BLACK
6
CONTINUOUS
10
2.3513
20
0.964332
11
2.34976
21
0.96563
0
LINE
8
BLACK
6
CONTINUOUS
10
2.34976
20
0.96563
11
2.34941
21
0.967619
0
LINE
8
BLACK
6
CONTINUOUS
10
2.34941
20
0.967619
11
2.35041
21
0.969368
0
LINE
8
BLACK
6
CONTINUOUS
10
2.35041
20
0.969368
11
2.35231
21
0.970059
0
LINE
8
BLACK
6
CONTINUOUS
10
2.35231
20
0.970059
11
2.41231
21
0.970059
0
LINE
8
BLACK
6
CONTINUOUS
10
2.41231
20
0.970059
11
2.41332
21
0.969881
0
LINE
8
BLACK
6
CONTINUOUS
10
1.98226
20
1.01716
11
1.98295
21
1.01526
0
LINE
8
BLACK
6
CONTINUOUS
10
1.98295
20
1.01526
11
1.98295
21
0.98339
0
LINE
8
BLACK
6
CONTINUOUS
10
1.98295
20
0.98339
11
1.98277
21
0.98238
0
LINE
8
BLACK
6
CONTINUOUS
10
1.98277
20
0.98238
11
1.98266
21
0.982244
0
LINE
8
BLACK
6
CONTINUOUS
10
1.98266
20
0.982244
11
1.98264
21
0.982069
0
LINE
8
BLACK
6
CONTINUOUS
10
1.98264
20
0.982069
11
1.98076
21
0.97832
0
LINE
8
BLACK
6
CONTINUOUS
10
1.98076
20
0.97832
11
1.98024
21
0.977611
0
LINE
8
BLACK
6
CONTINUOUS
10
1.98024
20
0.977611
11
1.98021
21
0.977552
0
LINE
8
BLACK
6
CONTINUOUS
10
1.98021
20
0.977552
11
1.97833
21
0.975677
0
LINE
8
BLACK
6
CONTINUOUS
10
1.97833
20
0.975677
11
1.97761
21
0.975171
0
LINE
8
BLACK
6
CONTINUOUS
10
1.97761
20
0.975171
11
1.97757
21
0.975124
0
LINE
8
BLACK
6
CONTINUOUS
10
1.97757
20
0.975124
11
1.97382
21
0.97325
0
LINE
8
BLACK
6
CONTINUOUS
10
1.97382
20
0.97325
11
1.97283
21
0.972957
0
LINE
8
BLACK
6
CONTINUOUS
10
1.97283
20
0.972957
11
1.97266
21
0.972998
0
LINE
8
BLACK
6
CONTINUOUS
10
1.97266
20
0.972998
11
1.9725
21
0.972938
0
LINE
8
BLACK
6
CONTINUOUS
10
1.9725
20
0.972938
11
1.965
21
0.972938
0
LINE
8
BLACK
6
CONTINUOUS
10
1.965
20
0.972938
11
1.96399
21
0.973116
0
LINE
8
BLACK
6
CONTINUOUS
10
1.96399
20
0.973116
11
1.96385
21
0.973229
0
LINE
8
BLACK
6
CONTINUOUS
10
1.96385
20
0.973229
11
1.96368
21
0.97325
0
LINE
8
BLACK
6
CONTINUOUS
10
1.96368
20
0.97325
11
1.95993
21
0.975124
0
LINE
8
BLACK
6
CONTINUOUS
10
1.95993
20
0.975124
11
1.95922
21
0.97565
0
LINE
8
BLACK
6
CONTINUOUS
10
1.95922
20
0.97565
11
1.95916
21
0.975677
0
LINE
8
BLACK
6
CONTINUOUS
10
1.95916
20
0.975677
11
1.95729
21
0.977552
0
LINE
8
BLACK
6
CONTINUOUS
10
1.95729
20
0.977552
11
1.95678
21
0.978275
0
LINE
8
BLACK
6
CONTINUOUS
10
1.95678
20
0.978275
11
1.95673
21
0.97832
0
LINE
8
BLACK
6
CONTINUOUS
10
1.95673
20
0.97832
11
1.95486
21
0.982069
0
LINE
8
BLACK
6
CONTINUOUS
10
1.95486
20
0.982069
11
1.95457
21
0.983052
0
LINE
8
BLACK
6
CONTINUOUS
10
1.95457
20
0.983052
11
1.95461
21
0.983224
0
LINE
8
BLACK
6
CONTINUOUS
10
1.95461
20
0.983224
11
1.95455
21
0.98339
0
LINE
8
BLACK
6
CONTINUOUS
10
1.95455
20
0.98339
11
1.95455
21
1.01526
0
LINE
8
BLACK
6
CONTINUOUS
10
1.95455
20
1.01526
11
1.95472
21
1.01627
0
LINE
8
BLACK
6
CONTINUOUS
10
1.95472
20
1.01627
11
1.95602
21
1.01782
0
LINE
8
BLACK
6
CONTINUOUS
10
1.95602
20
1.01782
11
1.95801
21
1.01817
0
LINE
8
BLACK
6
CONTINUOUS
10
1.95801
20
1.01817
11
1.95976
21
1.01716
0
LINE
8
BLACK
6
CONTINUOUS
10
1.95976
20
1.01716
11
1.96045
21
1.01526
0
LINE
8
BLACK
6
CONTINUOUS
10
1.96045
20
1.01526
11
1.96045
21
0.984087
0
LINE
8
BLACK
6
CONTINUOUS
10
1.96045
20
0.984087
11
1.9618
21
0.981389
0
LINE
8
BLACK
6
CONTINUOUS
10
1.9618
20
0.981389
11
1.963
21
0.980192
0
LINE
8
BLACK
6
CONTINUOUS
10
1.963
20
0.980192
11
1.9657
21
0.978843
0
LINE
8
BLACK
6
CONTINUOUS
10
1.9657
20
0.978843
11
1.9718
21
0.978843
0
LINE
8
BLACK
6
CONTINUOUS
10
1.9718
20
0.978843
11
1.9745
21
0.980192
0
LINE
8
BLACK
6
CONTINUOUS
10
1.9745
20
0.980192
11
1.97569
21
0.981389
0
LINE
8
BLACK
6
CONTINUOUS
10
1.97569
20
0.981389
11
1.97704
21
0.984087
0
LINE
8
BLACK
6
CONTINUOUS
10
1.97704
20
0.984087
11
1.97704
21
1.01526
0
LINE
8
BLACK
6
CONTINUOUS
10
1.97704
20
1.01526
11
1.97722
21
1.01627
0
LINE
8
BLACK
6
CONTINUOUS
10
1.97722
20
1.01627
11
1.97852
21
1.01782
0
LINE
8
BLACK
6
CONTINUOUS
10
1.97852
20
1.01782
11
1.98051
21
1.01817
0
LINE
8
BLACK
6
CONTINUOUS
10
1.98051
20
1.01817
11
1.98226
21
1.01716
0
LINE
8
BLACK
6
CONTINUOUS
10
1.94351
20
1.01804
11
1.94506
21
1.01674
0
LINE
8
BLACK
6
CONTINUOUS
10
1.94506
20
1.01674
11
1.94541
21
1.01475
0
LINE
8
BLACK
6
CONTINUOUS
10
1.94541
20
1.01475
11
1.9444
21
1.013
0
LINE
8
BLACK
6
CONTINUOUS
10
1.9444
20
1.013
11
1.9425
21
1.01231
0
LINE
8
BLACK
6
CONTINUOUS
10
1.9425
20
1.01231
11
1.92073
21
1.01231
0
LINE
8
BLACK
6
CONTINUOUS
10
1.92073
20
1.01231
11
1.93584
21
0.977054
0
LINE
8
BLACK
6
CONTINUOUS
10
1.93584
20
0.977054
11
1.93608
21
0.976055
0
LINE
8
BLACK
6
CONTINUOUS
10
1.93608
20
0.976055
11
1.93549
21
0.974122
0
LINE
8
BLACK
6
CONTINUOUS
10
1.93549
20
0.974122
11
1.9338
21
0.973016
0
LINE
8
BLACK
6
CONTINUOUS
10
1.9338
20
0.973016
11
1.9318
21
0.973255
0
LINE
8
BLACK
6
CONTINUOUS
10
1.9318
20
0.973255
11
1.93041
21
0.974727
0
LINE
8
BLACK
6
CONTINUOUS
10
1.93041
20
0.974727
11
1.91354
21
1.0141
0
LINE
8
BLACK
6
CONTINUOUS
10
1.91354
20
1.0141
11
1.91331
21
1.0151
0
LINE
8
BLACK
6
CONTINUOUS
10
1.91331
20
1.0151
11
1.91341
21
1.01543
0
LINE
8
BLACK
6
CONTINUOUS
10
1.91341
20
1.01543
11
1.91335
21
1.01577
0
LINE
8
BLACK
6
CONTINUOUS
10
1.91335
20
1.01577
11
1.91369
21
1.01637
0
LINE
8
BLACK
6
CONTINUOUS
10
1.91369
20
1.01637
11
1.91389
21
1.01703
0
LINE
8
BLACK
6
CONTINUOUS
10
1.91389
20
1.01703
11
1.91418
21
1.01722
0
LINE
8
BLACK
6
CONTINUOUS
10
1.91418
20
1.01722
11
1.91436
21
1.01752
0
LINE
8
BLACK
6
CONTINUOUS
10
1.91436
20
1.01752
11
1.915
21
1.01776
0
LINE
8
BLACK
6
CONTINUOUS
10
1.915
20
1.01776
11
1.91558
21
1.01814
0
LINE
8
BLACK
6
CONTINUOUS
10
1.91558
20
1.01814
11
1.91593
21
1.01809
0
LINE
8
BLACK
6
CONTINUOUS
10
1.91593
20
1.01809
11
1.91625
21
1.01821
0
LINE
8
BLACK
6
CONTINUOUS
10
1.91625
20
1.01821
11
1.9425
21
1.01821
0
LINE
8
BLACK
6
CONTINUOUS
10
1.9425
20
1.01821
11
1.94351
21
1.01804
0
LINE
8
BLACK
6
CONTINUOUS
10
2.07101
20
1.00027
11
2.07256
21
0.998976
0
LINE
8
BLACK
6
CONTINUOUS
10
2.07256
20
0.998976
11
2.07291
21
0.996987
0
LINE
8
BLACK
6
CONTINUOUS
10
2.07291
20
0.996987
11
2.0719
21
0.995238
0
LINE
8
BLACK
6
CONTINUOUS
10
2.0719
20
0.995238
11
2.07
21
0.994547
0
LINE
8
BLACK
6
CONTINUOUS
10
2.07
20
0.994547
11
2.01
21
0.994547
0
LINE
8
BLACK
6
CONTINUOUS
10
2.01
20
0.994547
11
2.00899
21
0.994725
0
LINE
8
BLACK
6
CONTINUOUS
10
2.00899
20
0.994725
11
2.00744
21
0.996024
0
LINE
8
BLACK
6
CONTINUOUS
10
2.00744
20
0.996024
11
2.00709
21
0.998013
0
LINE
8
BLACK
6
CONTINUOUS
10
2.00709
20
0.998013
11
2.0081
21
0.999762
0
LINE
8
BLACK
6
CONTINUOUS
10
2.0081
20
0.999762
11
2.01
21
1.00045
0
LINE
8
BLACK
6
CONTINUOUS
10
2.01
20
1.00045
11
2.07
21
1.00045
0
LINE
8
BLACK
6
CONTINUOUS
10
2.07
20
1.00045
11
2.07101
21
1.00027
0
LINE
8
BLACK
6
CONTINUOUS
10
2.41398
20
1.04378
11
2.41468
21
1.04211
0
LINE
8
BLACK
6
CONTINUOUS
10
2.41468
20
1.04211
11
2.41468
21
1.01211
0
LINE
8
BLACK
6
CONTINUOUS
10
2.41468
20
1.01211
11
2.41398
21
1.01044
0
LINE
8
BLACK
6
CONTINUOUS
10
2.41398
20
1.01044
11
2.41231
21
1.00974
0
LINE
8
BLACK
6
CONTINUOUS
10
2.41231
20
1.00974
11
2.41064
21
1.01044
0
LINE
8
BLACK
6
CONTINUOUS
10
2.41064
20
1.01044
11
2.40995
21
1.01211
0
LINE
8
BLACK
6
CONTINUOUS
10
2.40995
20
1.01211
11
2.40995
21
1.04211
0
LINE
8
BLACK
6
CONTINUOUS
10
2.40995
20
1.04211
11
2.41064
21
1.04378
0
LINE
8
BLACK
6
CONTINUOUS
10
2.41064
20
1.04378
11
2.41231
21
1.04447
0
LINE
8
BLACK
6
CONTINUOUS
10
2.41231
20
1.04447
11
2.41398
21
1.04378
0
LINE
8
BLACK
6
CONTINUOUS
10
2.35398
20
1.04378
11
2.35468
21
1.04211
0
LINE
8
BLACK
6
CONTINUOUS
10
2.35468
20
1.04211
11
2.35468
21
1.01211
0
LINE
8
BLACK
6
CONTINUOUS
10
2.35468
20
1.01211
11
2.35398
21
1.01044
0
LINE
8
BLACK
6
CONTINUOUS
10
2.35398
20
1.01044
11
2.35231
21
1.00974
0
LINE
8
BLACK
6
CONTINUOUS
10
2.35231
20
1.00974
11
2.35064
21
1.01044
0
LINE
8
BLACK
6
CONTINUOUS
10
2.35064
20
1.01044
11
2.34995
21
1.01211
0
LINE
8
BLACK
6
CONTINUOUS
10
2.34995
20
1.01211
11
2.34995
21
1.04211
0
LINE
8
BLACK
6
CONTINUOUS
10
2.34995
20
1.04211
11
2.35064
21
1.04378
0
LINE
8
BLACK
6
CONTINUOUS
10
2.35064
20
1.04378
11
2.35231
21
1.04447
0
LINE
8
BLACK
6
CONTINUOUS
10
2.35231
20
1.04447
11
2.35398
21
1.04378
0
LINE
8
BLACK
6
CONTINUOUS
10
1.85384
20
1.01959
11
1.85315
21
1.02126
0
LINE
8
BLACK
6
CONTINUOUS
10
1.85315
20
1.02126
11
1.85315
21
1.0248
0
LINE
8
BLACK
6
CONTINUOUS
10
1.85315
20
1.0248
11
1.78858
21
1.0248
0
LINE
8
BLACK
6
CONTINUOUS
10
1.78858
20
1.0248
11
1.78691
21
1.0255
0
LINE
8
BLACK
6
CONTINUOUS
10
1.78691
20
1.0255
11
1.78622
21
1.02717
0
LINE
8
BLACK
6
CONTINUOUS
10
1.78622
20
1.02717
11
1.78691
21
1.02884
0
LINE
8
BLACK
6
CONTINUOUS
10
1.78691
20
1.02884
11
1.78858
21
1.02953
0
LINE
8
BLACK
6
CONTINUOUS
10
1.78858
20
1.02953
11
1.85551
21
1.02953
0
LINE
8
BLACK
6
CONTINUOUS
10
1.85551
20
1.02953
11
1.85718
21
1.02884
0
LINE
8
BLACK
6
CONTINUOUS
10
1.85718
20
1.02884
11
1.85787
21
1.02717
0
LINE
8
BLACK
6
CONTINUOUS
10
1.85787
20
1.02717
11
1.85787
21
1.02362
0
LINE
8
BLACK
6
CONTINUOUS
10
1.85787
20
1.02362
11
2.04213
21
1.02362
0
LINE
8
BLACK
6
CONTINUOUS
10
2.04213
20
1.02362
11
2.04213
21
1.02717
0
LINE
8
BLACK
6
CONTINUOUS
10
2.04213
20
1.02717
11
2.04282
21
1.02884
0
LINE
8
BLACK
6
CONTINUOUS
10
2.04282
20
1.02884
11
2.04449
21
1.02953
0
LINE
8
BLACK
6
CONTINUOUS
10
2.04449
20
1.02953
11
2.04616
21
1.02884
0
LINE
8
BLACK
6
CONTINUOUS
10
2.04616
20
1.02884
11
2.04685
21
1.02717
0
LINE
8
BLACK
6
CONTINUOUS
10
2.04685
20
1.02717
11
2.04685
21
1.02126
0
LINE
8
BLACK
6
CONTINUOUS
10
2.04685
20
1.02126
11
2.04616
21
1.01959
0
LINE
8
BLACK
6
CONTINUOUS
10
2.04616
20
1.01959
11
2.04449
21
1.0189
0
LINE
8
BLACK
6
CONTINUOUS
10
2.04449
20
1.0189
11
1.85551
21
1.0189
0
LINE
8
BLACK
6
CONTINUOUS
10
1.85551
20
1.0189
11
1.85384
21
1.01959
0
LINE
8
BLACK
6
CONTINUOUS
10
2.41332
20
1.08988
11
2.41487
21
1.08858
0
LINE
8
BLACK
6
CONTINUOUS
10
2.41487
20
1.08858
11
2.41522
21
1.08659
0
LINE
8
BLACK
6
CONTINUOUS
10
2.41522
20
1.08659
11
2.41421
21
1.08484
0
LINE
8
BLACK
6
CONTINUOUS
10
2.41421
20
1.08484
11
2.41231
21
1.08415
0
LINE
8
BLACK
6
CONTINUOUS
10
2.41231
20
1.08415
11
2.35231
21
1.08415
0
LINE
8
BLACK
6
CONTINUOUS
10
2.35231
20
1.08415
11
2.3513
21
1.08433
0
LINE
8
BLACK
6
CONTINUOUS
10
2.3513
20
1.08433
11
2.34976
21
1.08563
0
LINE
8
BLACK
6
CONTINUOUS
10
2.34976
20
1.08563
11
2.34941
21
1.08762
0
LINE
8
BLACK
6
CONTINUOUS
10
2.34941
20
1.08762
11
2.35041
21
1.08937
0
LINE
8
BLACK
6
CONTINUOUS
10
2.35041
20
1.08937
11
2.35231
21
1.09006
0
LINE
8
BLACK
6
CONTINUOUS
10
2.35231
20
1.09006
11
2.41231
21
1.09006
0
LINE
8
BLACK
6
CONTINUOUS
10
2.41231
20
1.09006
11
2.41332
21
1.08988
0
LINE
8
BLACK
6
CONTINUOUS
10
2.04616
20
1.18041
11
2.04685
21
1.17874
0
LINE
8
BLACK
6
CONTINUOUS
10
2.04685
20
1.17874
11
2.04685
21
1.17283
0
LINE
8
BLACK
6
CONTINUOUS
10
2.04685
20
1.17283
11
2.04616
21
1.17116
0
LINE
8
BLACK
6
CONTINUOUS
10
2.04616
20
1.17116
11
2.04449
21
1.17047
0
LINE
8
BLACK
6
CONTINUOUS
10
2.04449
20
1.17047
11
2.04282
21
1.17116
0
LINE
8
BLACK
6
CONTINUOUS
10
2.04282
20
1.17116
11
2.04213
21
1.17283
0
LINE
8
BLACK
6
CONTINUOUS
10
2.04213
20
1.17283
11
2.04213
21
1.17638
0
LINE
8
BLACK
6
CONTINUOUS
10
2.04213
20
1.17638
11
1.85787
21
1.17638
0
LINE
8
BLACK
6
CONTINUOUS
10
1.85787
20
1.17638
11
1.85787
21
1.17283
0
LINE
8
BLACK
6
CONTINUOUS
10
1.85787
20
1.17283
11
1.85718
21
1.17116
0
LINE
8
BLACK
6
CONTINUOUS
10
1.85718
20
1.17116
11
1.85551
21
1.17047
0
LINE
8
BLACK
6
CONTINUOUS
10
1.85551
20
1.17047
11
1.85384
21
1.17116
0
LINE
8
BLACK
6
CONTINUOUS
10
1.85384
20
1.17116
11
1.85315
21
1.17283
0
LINE
8
BLACK
6
CONTINUOUS
10
1.85315
20
1.17283
11
1.85315
21
1.17874
0
LINE
8
BLACK
6
CONTINUOUS
10
1.85315
20
1.17874
11
1.85384
21
1.18041
0
LINE
8
BLACK
6
CONTINUOUS
10
1.85384
20
1.18041
11
1.85551
21
1.1811
0
LINE
8
BLACK
6
CONTINUOUS
10
1.85551
20
1.1811
11
2.04449
21
1.1811
0
LINE
8
BLACK
6
CONTINUOUS
10
2.04449
20
1.1811
11
2.04616
21
1.18041
0
LINE
8
BLACK
6
CONTINUOUS
10
2.07101
20
1.30069
11
2.07256
21
1.29939
0
LINE
8
BLACK
6
CONTINUOUS
10
2.07256
20
1.29939
11
2.07291
21
1.2974
0
LINE
8
BLACK
6
CONTINUOUS
10
2.07291
20
1.2974
11
2.0719
21
1.29565
0
LINE
8
BLACK
6
CONTINUOUS
10
2.0719
20
1.29565
11
2.07
21
1.29496
0
LINE
8
BLACK
6
CONTINUOUS
10
2.07
20
1.29496
11
2.01
21
1.29496
0
LINE
8
BLACK
6
CONTINUOUS
10
2.01
20
1.29496
11
2.00899
21
1.29514
0
LINE
8
BLACK
6
CONTINUOUS
10
2.00899
20
1.29514
11
2.00744
21
1.29644
0
LINE
8
BLACK
6
CONTINUOUS
10
2.00744
20
1.29644
11
2.00709
21
1.29843
0
LINE
8
BLACK
6
CONTINUOUS
10
2.00709
20
1.29843
11
2.0081
21
1.30018
0
LINE
8
BLACK
6
CONTINUOUS
10
2.0081
20
1.30018
11
2.01
21
1.30087
0
LINE
8
BLACK
6
CONTINUOUS
10
2.01
20
1.30087
11
2.07
21
1.30087
0
LINE
8
BLACK
6
CONTINUOUS
10
2.07
20
1.30087
11
2.07101
21
1.30069
0
LINE
8
BLACK
6
CONTINUOUS
10
2.01167
20
1.37459
11
2.01236
21
1.37292
0
LINE
8
BLACK
6
CONTINUOUS
10
2.01236
20
1.37292
11
2.01236
21
1.34292
0
LINE
8
BLACK
6
CONTINUOUS
10
2.01236
20
1.34292
11
2.01167
21
1.34125
0
LINE
8
BLACK
6
CONTINUOUS
10
2.01167
20
1.34125
11
2.01
21
1.34055
0
LINE
8
BLACK
6
CONTINUOUS
10
2.01
20
1.34055
11
2.00833
21
1.34125
0
LINE
8
BLACK
6
CONTINUOUS
10
2.00833
20
1.34125
11
2.00764
21
1.34292
0
LINE
8
BLACK
6
CONTINUOUS
10
2.00764
20
1.34292
11
2.00764
21
1.37292
0
LINE
8
BLACK
6
CONTINUOUS
10
2.00764
20
1.37292
11
2.00833
21
1.37459
0
LINE
8
BLACK
6
CONTINUOUS
10
2.00833
20
1.37459
11
2.01
21
1.37528
0
LINE
8
BLACK
6
CONTINUOUS
10
2.01
20
1.37528
11
2.01167
21
1.37459
0
LINE
8
BLACK
6
CONTINUOUS
10
2.07167
20
1.37459
11
2.07236
21
1.37292
0
LINE
8
BLACK
6
CONTINUOUS
10
2.07236
20
1.37292
11
2.07236
21
1.34292
0
LINE
8
BLACK
6
CONTINUOUS
10
2.07236
20
1.34292
11
2.07167
21
1.34125
0
LINE
8
BLACK
6
CONTINUOUS
10
2.07167
20
1.34125
11
2.07
21
1.34055
0
LINE
8
BLACK
6
CONTINUOUS
10
2.07
20
1.34055
11
2.06833
21
1.34125
0
LINE
8
BLACK
6
CONTINUOUS
10
2.06833
20
1.34125
11
2.06764
21
1.34292
0
LINE
8
BLACK
6
CONTINUOUS
10
2.06764
20
1.34292
11
2.06764
21
1.37292
0
LINE
8
BLACK
6
CONTINUOUS
10
2.06764
20
1.37292
11
2.06833
21
1.37459
0
LINE
8
BLACK
6
CONTINUOUS
10
2.06833
20
1.37459
11
2.07
21
1.37528
0
LINE
8
BLACK
6
CONTINUOUS
10
2.07
20
1.37528
11
2.07167
21
1.37459
0
LINE
8
BLACK
6
CONTINUOUS
10
2.44591
20
1.36963
11
2.44746
21
1.36833
0
LINE
8
BLACK
6
CONTINUOUS
10
2.44746
20
1.36833
11
2.44781
21
1.36634
0
LINE
8
BLACK
6
CONTINUOUS
10
2.44781
20
1.36634
11
2.4468
21
1.36459
0
LINE
8
BLACK
6
CONTINUOUS
10
2.4468
20
1.36459
11
2.4449
21
1.3639
0
LINE
8
BLACK
6
CONTINUOUS
10
2.4449
20
1.3639
11
2.3849
21
1.3639
0
LINE
8
BLACK
6
CONTINUOUS
10
2.3849
20
1.3639
11
2.38389
21
1.36408
0
LINE
8
BLACK
6
CONTINUOUS
10
2.38389
20
1.36408
11
2.38234
21
1.36537
0
LINE
8
BLACK
6
CONTINUOUS
10
2.38234
20
1.36537
11
2.38199
21
1.36736
0
LINE
8
BLACK
6
CONTINUOUS
10
2.38199
20
1.36736
11
2.383
21
1.36911
0
LINE
8
BLACK
6
CONTINUOUS
10
2.383
20
1.36911
11
2.3849
21
1.3698
0
LINE
8
BLACK
6
CONTINUOUS
10
2.3849
20
1.3698
11
2.4449
21
1.3698
0
LINE
8
BLACK
6
CONTINUOUS
10
2.4449
20
1.3698
11
2.44591
21
1.36963
0
LINE
8
BLACK
6
CONTINUOUS
10
1.93039
20
1.4397
11
1.93052
21
1.43959
0
LINE
8
BLACK
6
CONTINUOUS
10
1.93052
20
1.43959
11
1.9307
21
1.43957
0
LINE
8
BLACK
6
CONTINUOUS
10
1.9307
20
1.43957
11
1.93445
21
1.43769
0
LINE
8
BLACK
6
CONTINUOUS
10
1.93445
20
1.43769
11
1.93516
21
1.43717
0
LINE
8
BLACK
6
CONTINUOUS
10
1.93516
20
1.43717
11
1.93521
21
1.43714
0
LINE
8
BLACK
6
CONTINUOUS
10
1.93521
20
1.43714
11
1.93709
21
1.43527
0
LINE
8
BLACK
6
CONTINUOUS
10
1.93709
20
1.43527
11
1.93735
21
1.4349
0
LINE
8
BLACK
6
CONTINUOUS
10
1.93735
20
1.4349
11
1.93746
21
1.43482
0
LINE
8
BLACK
6
CONTINUOUS
10
1.93746
20
1.43482
11
1.94121
21
1.42919
0
LINE
8
BLACK
6
CONTINUOUS
10
1.94121
20
1.42919
11
1.94161
21
1.42828
0
LINE
8
BLACK
6
CONTINUOUS
10
1.94161
20
1.42828
11
1.94162
21
1.42827
0
LINE
8
BLACK
6
CONTINUOUS
10
1.94162
20
1.42827
11
1.94349
21
1.42077
0
LINE
8
BLACK
6
CONTINUOUS
10
1.94349
20
1.42077
11
1.94353
21
1.42018
0
LINE
8
BLACK
6
CONTINUOUS
10
1.94353
20
1.42018
11
1.94358
21
1.42005
0
LINE
8
BLACK
6
CONTINUOUS
10
1.94358
20
1.42005
11
1.94358
21
1.40506
0
LINE
8
BLACK
6
CONTINUOUS
10
1.94358
20
1.40506
11
1.9434
21
1.40405
0
LINE
8
BLACK
6
CONTINUOUS
10
1.9434
20
1.40405
11
1.94329
21
1.40391
0
LINE
8
BLACK
6
CONTINUOUS
10
1.94329
20
1.40391
11
1.94327
21
1.40374
0
LINE
8
BLACK
6
CONTINUOUS
10
1.94327
20
1.40374
11
1.94139
21
1.39999
0
LINE
8
BLACK
6
CONTINUOUS
10
1.94139
20
1.39999
11
1.94087
21
1.39928
0
LINE
8
BLACK
6
CONTINUOUS
10
1.94087
20
1.39928
11
1.94084
21
1.39922
0
LINE
8
BLACK
6
CONTINUOUS
10
1.94084
20
1.39922
11
1.93896
21
1.39734
0
LINE
8
BLACK
6
CONTINUOUS
10
1.93896
20
1.39734
11
1.93824
21
1.39684
0
LINE
8
BLACK
6
CONTINUOUS
10
1.93824
20
1.39684
11
1.9382
21
1.39679
0
LINE
8
BLACK
6
CONTINUOUS
10
1.9382
20
1.39679
11
1.93445
21
1.39492
0
LINE
8
BLACK
6
CONTINUOUS
10
1.93445
20
1.39492
11
1.93346
21
1.39462
0
LINE
8
BLACK
6
CONTINUOUS
10
1.93346
20
1.39462
11
1.93329
21
1.39466
0
LINE
8
BLACK
6
CONTINUOUS
10
1.93329
20
1.39466
11
1.93313
21
1.3946
0
LINE
8
BLACK
6
CONTINUOUS
10
1.93313
20
1.3946
11
1.92563
21
1.3946
0
LINE
8
BLACK
6
CONTINUOUS
10
1.92563
20
1.3946
11
1.92462
21
1.39478
0
LINE
8
BLACK
6
CONTINUOUS
10
1.92462
20
1.39478
11
1.92448
21
1.3949
0
LINE
8
BLACK
6
CONTINUOUS
10
1.92448
20
1.3949
11
1.92431
21
1.39492
0
LINE
8
BLACK
6
CONTINUOUS
10
1.92431
20
1.39492
11
1.92056
21
1.39679
0
LINE
8
BLACK
6
CONTINUOUS
10
1.92056
20
1.39679
11
1.91985
21
1.39732
0
LINE
8
BLACK
6
CONTINUOUS
10
1.91985
20
1.39732
11
1.91979
21
1.39734
0
LINE
8
BLACK
6
CONTINUOUS
10
1.91979
20
1.39734
11
1.91792
21
1.39922
0
LINE
8
BLACK
6
CONTINUOUS
10
1.91792
20
1.39922
11
1.91741
21
1.39994
0
LINE
8
BLACK
6
CONTINUOUS
10
1.91741
20
1.39994
11
1.91736
21
1.39999
0
LINE
8
BLACK
6
CONTINUOUS
10
1.91736
20
1.39999
11
1.91549
21
1.40374
0
LINE
8
BLACK
6
CONTINUOUS
10
1.91549
20
1.40374
11
1.9152
21
1.40472
0
LINE
8
BLACK
6
CONTINUOUS
10
1.9152
20
1.40472
11
1.91524
21
1.40489
0
LINE
8
BLACK
6
CONTINUOUS
10
1.91524
20
1.40489
11
1.91518
21
1.40506
0
LINE
8
BLACK
6
CONTINUOUS
10
1.91518
20
1.40506
11
1.91518
21
1.41443
0
LINE
8
BLACK
6
CONTINUOUS
10
1.91518
20
1.41443
11
1.91535
21
1.41544
0
LINE
8
BLACK
6
CONTINUOUS
10
1.91535
20
1.41544
11
1.91547
21
1.41558
0
LINE
8
BLACK
6
CONTINUOUS
10
1.91547
20
1.41558
11
1.91549
21
1.41575
0
LINE
8
BLACK
6
CONTINUOUS
10
1.91549
20
1.41575
11
1.91736
21
1.4195
0
LINE
8
BLACK
6
CONTINUOUS
10
1.91736
20
1.4195
11
1.91789
21
1.42021
0
LINE
8
BLACK
6
CONTINUOUS
10
1.91789
20
1.42021
11
1.91792
21
1.42027
0
LINE
8
BLACK
6
CONTINUOUS
10
1.91792
20
1.42027
11
1.91979
21
1.42214
0
LINE
8
BLACK
6
CONTINUOUS
10
1.91979
20
1.42214
11
1.92051
21
1.42265
0
LINE
8
BLACK
6
CONTINUOUS
10
1.92051
20
1.42265
11
1.92056
21
1.4227
0
LINE
8
BLACK
6
CONTINUOUS
10
1.92056
20
1.4227
11
1.92431
21
1.42457
0
LINE
8
BLACK
6
CONTINUOUS
10
1.92431
20
1.42457
11
1.92529
21
1.42486
0
LINE
8
BLACK
6
CONTINUOUS
10
1.92529
20
1.42486
11
1.92546
21
1.42482
0
LINE
8
BLACK
6
CONTINUOUS
10
1.92546
20
1.42482
11
1.92563
21
1.42488
0
LINE
8
BLACK
6
CONTINUOUS
10
1.92563
20
1.42488
11
1.93313
21
1.42488
0
LINE
8
BLACK
6
CONTINUOUS
10
1.93313
20
1.42488
11
1.93414
21
1.4247
0
LINE
8
BLACK
6
CONTINUOUS
10
1.93414
20
1.4247
11
1.93427
21
1.42459
0
LINE
8
BLACK
6
CONTINUOUS
10
1.93427
20
1.42459
11
1.93445
21
1.42457
0
LINE
8
BLACK
6
CONTINUOUS
10
1.93445
20
1.42457
11
1.93674
21
1.42342
0
LINE
8
BLACK
6
CONTINUOUS
10
1.93674
20
1.42342
11
1.93601
21
1.42634
0
LINE
8
BLACK
6
CONTINUOUS
10
1.93601
20
1.42634
11
1.93271
21
1.4313
0
LINE
8
BLACK
6
CONTINUOUS
10
1.93271
20
1.4313
11
1.93138
21
1.43263
0
LINE
8
BLACK
6
CONTINUOUS
10
1.93138
20
1.43263
11
1.92868
21
1.43397
0
LINE
8
BLACK
6
CONTINUOUS
10
1.92868
20
1.43397
11
1.92188
21
1.43397
0
LINE
8
BLACK
6
CONTINUOUS
10
1.92188
20
1.43397
11
1.92087
21
1.43415
0
LINE
8
BLACK
6
CONTINUOUS
10
1.92087
20
1.43415
11
1.91932
21
1.43545
0
LINE
8
BLACK
6
CONTINUOUS
10
1.91932
20
1.43545
11
1.91897
21
1.43744
0
LINE
8
BLACK
6
CONTINUOUS
10
1.91897
20
1.43744
11
1.91998
21
1.43919
0
LINE
8
BLACK
6
CONTINUOUS
10
1.91998
20
1.43919
11
1.92188
21
1.43988
0
LINE
8
BLACK
6
CONTINUOUS
10
1.92188
20
1.43988
11
1.92938
21
1.43988
0
LINE
8
BLACK
6
CONTINUOUS
10
1.92938
20
1.43988
11
1.93039
21
1.4397
0
LINE
8
BLACK
6
CONTINUOUS
10
1.92633
20
1.41898
11
1.92363
21
1.41763
0
LINE
8
BLACK
6
CONTINUOUS
10
1.92363
20
1.41763
11
1.92243
21
1.41643
0
LINE
8
BLACK
6
CONTINUOUS
10
1.92243
20
1.41643
11
1.92108
21
1.41373
0
LINE
8
BLACK
6
CONTINUOUS
10
1.92108
20
1.41373
11
1.92108
21
1.40575
0
LINE
8
BLACK
6
CONTINUOUS
10
1.92108
20
1.40575
11
1.92243
21
1.40306
0
LINE
8
BLACK
6
CONTINUOUS
10
1.92243
20
1.40306
11
1.92363
21
1.40186
0
LINE
8
BLACK
6
CONTINUOUS
10
1.92363
20
1.40186
11
1.92633
21
1.40051
0
LINE
8
BLACK
6
CONTINUOUS
10
1.92633
20
1.40051
11
1.93243
21
1.40051
0
LINE
8
BLACK
6
CONTINUOUS
10
1.93243
20
1.40051
11
1.93513
21
1.40186
0
LINE
8
BLACK
6
CONTINUOUS
10
1.93513
20
1.40186
11
1.93632
21
1.40306
0
LINE
8
BLACK
6
CONTINUOUS
10
1.93632
20
1.40306
11
1.93767
21
1.40575
0
LINE
8
BLACK
6
CONTINUOUS
10
1.93767
20
1.40575
11
1.93767
21
1.41373
0
LINE
8
BLACK
6
CONTINUOUS
10
1.93767
20
1.41373
11
1.93632
21
1.41643
0
LINE
8
BLACK
6
CONTINUOUS
10
1.93632
20
1.41643
11
1.93513
21
1.41763
0
LINE
8
BLACK
6
CONTINUOUS
10
1.93513
20
1.41763
11
1.93243
21
1.41898
0
LINE
8
BLACK
6
CONTINUOUS
10
1.93243
20
1.41898
11
1.92633
21
1.41898
0
LINE
8
BLACK
6
CONTINUOUS
10
1.98226
20
1.43883
11
1.98295
21
1.43693
0
LINE
8
BLACK
6
CONTINUOUS
10
1.98295
20
1.43693
11
1.98295
21
1.40506
0
LINE
8
BLACK
6
CONTINUOUS
10
1.98295
20
1.40506
11
1.98277
21
1.40405
0
LINE
8
BLACK
6
CONTINUOUS
10
1.98277
20
1.40405
11
1.98266
21
1.40391
0
LINE
8
BLACK
6
CONTINUOUS
10
1.98266
20
1.40391
11
1.98264
21
1.40374
0
LINE
8
BLACK
6
CONTINUOUS
10
1.98264
20
1.40374
11
1.98076
21
1.39999
0
LINE
8
BLACK
6
CONTINUOUS
10
1.98076
20
1.39999
11
1.98024
21
1.39928
0
LINE
8
BLACK
6
CONTINUOUS
10
1.98024
20
1.39928
11
1.98021
21
1.39922
0
LINE
8
BLACK
6
CONTINUOUS
10
1.98021
20
1.39922
11
1.97833
21
1.39734
0
LINE
8
BLACK
6
CONTINUOUS
10
1.97833
20
1.39734
11
1.97761
21
1.39684
0
LINE
8
BLACK
6
CONTINUOUS
10
1.97761
20
1.39684
11
1.97757
21
1.39679
0
LINE
8
BLACK
6
CONTINUOUS
10
1.97757
20
1.39679
11
1.97382
21
1.39492
0
LINE
8
BLACK
6
CONTINUOUS
10
1.97382
20
1.39492
11
1.97283
21
1.39462
0
LINE
8
BLACK
6
CONTINUOUS
10
1.97283
20
1.39462
11
1.97266
21
1.39466
0
LINE
8
BLACK
6
CONTINUOUS
10
1.97266
20
1.39466
11
1.9725
21
1.3946
0
LINE
8
BLACK
6
CONTINUOUS
10
1.9725
20
1.3946
11
1.965
21
1.3946
0
LINE
8
BLACK
6
CONTINUOUS
10
1.965
20
1.3946
11
1.96399
21
1.39478
0
LINE
8
BLACK
6
CONTINUOUS
10
1.96399
20
1.39478
11
1.96385
21
1.3949
0
LINE
8
BLACK
6
CONTINUOUS
10
1.96385
20
1.3949
11
1.96368
21
1.39492
0
LINE
8
BLACK
6
CONTINUOUS
10
1.96368
20
1.39492
11
1.95993
21
1.39679
0
LINE
8
BLACK
6
CONTINUOUS
10
1.95993
20
1.39679
11
1.95922
21
1.39732
0
LINE
8
BLACK
6
CONTINUOUS
10
1.95922
20
1.39732
11
1.95916
21
1.39734
0
LINE
8
BLACK
6
CONTINUOUS
10
1.95916
20
1.39734
11
1.95729
21
1.39922
0
LINE
8
BLACK
6
CONTINUOUS
10
1.95729
20
1.39922
11
1.95678
21
1.39994
0
LINE
8
BLACK
6
CONTINUOUS
10
1.95678
20
1.39994
11
1.95673
21
1.39999
0
LINE
8
BLACK
6
CONTINUOUS
10
1.95673
20
1.39999
11
1.95486
21
1.40374
0
LINE
8
BLACK
6
CONTINUOUS
10
1.95486
20
1.40374
11
1.95457
21
1.40472
0
LINE
8
BLACK
6
CONTINUOUS
10
1.95457
20
1.40472
11
1.95461
21
1.40489
0
LINE
8
BLACK
6
CONTINUOUS
10
1.95461
20
1.40489
11
1.95455
21
1.40506
0
LINE
8
BLACK
6
CONTINUOUS
10
1.95455
20
1.40506
11
1.95455
21
1.43693
0
LINE
8
BLACK
6
CONTINUOUS
10
1.95455
20
1.43693
11
1.95472
21
1.43794
0
LINE
8
BLACK
6
CONTINUOUS
10
1.95472
20
1.43794
11
1.95602
21
1.43948
0
LINE
8
BLACK
6
CONTINUOUS
10
1.95602
20
1.43948
11
1.95801
21
1.43984
0
LINE
8
BLACK
6
CONTINUOUS
10
1.95801
20
1.43984
11
1.95976
21
1.43883
0
LINE
8
BLACK
6
CONTINUOUS
10
1.95976
20
1.43883
11
1.96045
21
1.43693
0
LINE
8
BLACK
6
CONTINUOUS
10
1.96045
20
1.43693
11
1.96045
21
1.40575
0
LINE
8
BLACK
6
CONTINUOUS
10
1.96045
20
1.40575
11
1.9618
21
1.40306
0
LINE
8
BLACK
6
CONTINUOUS
10
1.9618
20
1.40306
11
1.963
21
1.40186
0
LINE
8
BLACK
6
CONTINUOUS
10
1.963
20
1.40186
11
1.9657
21
1.40051
0
LINE
8
BLACK
6
CONTINUOUS
10
1.9657
20
1.40051
11
1.9718
21
1.40051
0
LINE
8
BLACK
6
CONTINUOUS
10
1.9718
20
1.40051
11
1.9745
21
1.40186
0
LINE
8
BLACK
6
CONTINUOUS
10
1.9745
20
1.40186
11
1.97569
21
1.40306
0
LINE
8
BLACK
6
CONTINUOUS
10
1.97569
20
1.40306
11
1.97704
21
1.40575
0
LINE
8
BLACK
6
CONTINUOUS
10
1.97704
20
1.40575
11
1.97704
21
1.43693
0
LINE
8
BLACK
6
CONTINUOUS
10
1.97704
20
1.43693
11
1.97722
21
1.43794
0
LINE
8
BLACK
6
CONTINUOUS
10
1.97722
20
1.43794
11
1.97852
21
1.43948
0
LINE
8
BLACK
6
CONTINUOUS
10
1.97852
20
1.43948
11
1.98051
21
1.43984
0
LINE
8
BLACK
6
CONTINUOUS
10
1.98051
20
1.43984
11
1.98226
21
1.43883
0
LINE
8
BLACK
6
CONTINUOUS
10
2.38657
20
1.44352
11
2.38726
21
1.44185
0
LINE
8
BLACK
6
CONTINUOUS
10
2.38726
20
1.44185
11
2.38726
21
1.41185
0
LINE
8
BLACK
6
CONTINUOUS
10
2.38726
20
1.41185
11
2.38657
21
1.41018
0
LINE
8
BLACK
6
CONTINUOUS
10
2.38657
20
1.41018
11
2.3849
21
1.40949
0
LINE
8
BLACK
6
CONTINUOUS
10
2.3849
20
1.40949
11
2.38323
21
1.41018
0
LINE
8
BLACK
6
CONTINUOUS
10
2.38323
20
1.41018
11
2.38254
21
1.41185
0
LINE
8
BLACK
6
CONTINUOUS
10
2.38254
20
1.41185
11
2.38254
21
1.44185
0
LINE
8
BLACK
6
CONTINUOUS
10
2.38254
20
1.44185
11
2.38323
21
1.44352
0
LINE
8
BLACK
6
CONTINUOUS
10
2.38323
20
1.44352
11
2.3849
21
1.44421
0
LINE
8
BLACK
6
CONTINUOUS
10
2.3849
20
1.44421
11
2.38657
21
1.44352
0
LINE
8
BLACK
6
CONTINUOUS
10
2.44657
20
1.44352
11
2.44726
21
1.44185
0
LINE
8
BLACK
6
CONTINUOUS
10
2.44726
20
1.44185
11
2.44726
21
1.41185
0
LINE
8
BLACK
6
CONTINUOUS
10
2.44726
20
1.41185
11
2.44657
21
1.41018
0
LINE
8
BLACK
6
CONTINUOUS
10
2.44657
20
1.41018
11
2.4449
21
1.40949
0
LINE
8
BLACK
6
CONTINUOUS
10
2.4449
20
1.40949
11
2.44323
21
1.41018
0
LINE
8
BLACK
6
CONTINUOUS
10
2.44323
20
1.41018
11
2.44254
21
1.41185
0
LINE
8
BLACK
6
CONTINUOUS
10
2.44254
20
1.41185
11
2.44254
21
1.44185
0
LINE
8
BLACK
6
CONTINUOUS
10
2.44254
20
1.44185
11
2.44323
21
1.44352
0
LINE
8
BLACK
6
CONTINUOUS
10
2.44323
20
1.44352
11
2.4449
21
1.44421
0
LINE
8
BLACK
6
CONTINUOUS
10
2.4449
20
1.44421
11
2.44657
21
1.44352
0
LINE
8
BLACK
6
CONTINUOUS
10
2.07101
20
1.42069
11
2.07256
21
1.41939
0
LINE
8
BLACK
6
CONTINUOUS
10
2.07256
20
1.41939
11
2.07291
21
1.4174
0
LINE
8
BLACK
6
CONTINUOUS
10
2.07291
20
1.4174
11
2.0719
21
1.41565
0
LINE
8
BLACK
6
CONTINUOUS
10
2.0719
20
1.41565
11
2.07
21
1.41496
0
LINE
8
BLACK
6
CONTINUOUS
10
2.07
20
1.41496
11
2.01
21
1.41496
0
LINE
8
BLACK
6
CONTINUOUS
10
2.01
20
1.41496
11
2.00899
21
1.41514
0
LINE
8
BLACK
6
CONTINUOUS
10
2.00899
20
1.41514
11
2.00744
21
1.41644
0
LINE
8
BLACK
6
CONTINUOUS
10
2.00744
20
1.41644
11
2.00709
21
1.41843
0
LINE
8
BLACK
6
CONTINUOUS
10
2.00709
20
1.41843
11
2.0081
21
1.42018
0
LINE
8
BLACK
6
CONTINUOUS
10
2.0081
20
1.42018
11
2.01
21
1.42087
0
LINE
8
BLACK
6
CONTINUOUS
10
2.01
20
1.42087
11
2.07
21
1.42087
0
LINE
8
BLACK
6
CONTINUOUS
10
2.07
20
1.42087
11
2.07101
21
1.42069
0
LINE
8
BLACK
6
CONTINUOUS
10
1.85384
20
1.44126
11
1.85315
21
1.44293
0
LINE
8
BLACK
6
CONTINUOUS
10
1.85315
20
1.44293
11
1.85315
21
1.44647
0
LINE
8
BLACK
6
CONTINUOUS
10
1.85315
20
1.44647
11
1.78858
21
1.44647
0
LINE
8
BLACK
6
CONTINUOUS
10
1.78858
20
1.44647
11
1.78691
21
1.44716
0
LINE
8
BLACK
6
CONTINUOUS
10
1.78691
20
1.44716
11
1.78622
21
1.44883
0
LINE
8
BLACK
6
CONTINUOUS
10
1.78622
20
1.44883
11
1.78691
21
1.4505
0
LINE
8
BLACK
6
CONTINUOUS
10
1.78691
20
1.4505
11
1.78858
21
1.45119
0
LINE
8
BLACK
6
CONTINUOUS
10
1.78858
20
1.45119
11
1.85551
21
1.45119
0
LINE
8
BLACK
6
CONTINUOUS
10
1.85551
20
1.45119
11
1.85718
21
1.4505
0
LINE
8
BLACK
6
CONTINUOUS
10
1.85718
20
1.4505
11
1.85787
21
1.44883
0
LINE
8
BLACK
6
CONTINUOUS
10
1.85787
20
1.44883
11
1.85787
21
1.44529
0
LINE
8
BLACK
6
CONTINUOUS
10
1.85787
20
1.44529
11
2.04213
21
1.44529
0
LINE
8
BLACK
6
CONTINUOUS
10
2.04213
20
1.44529
11
2.04213
21
1.44883
0
LINE
8
BLACK
6
CONTINUOUS
10
2.04213
20
1.44883
11
2.04282
21
1.4505
0
LINE
8
BLACK
6
CONTINUOUS
10
2.04282
20
1.4505
11
2.04449
21
1.45119
0
LINE
8
BLACK
6
CONTINUOUS
10
2.04449
20
1.45119
11
2.04616
21
1.4505
0
LINE
8
BLACK
6
CONTINUOUS
10
2.04616
20
1.4505
11
2.04685
21
1.44883
0
LINE
8
BLACK
6
CONTINUOUS
10
2.04685
20
1.44883
11
2.04685
21
1.44293
0
LINE
8
BLACK
6
CONTINUOUS
10
2.04685
20
1.44293
11
2.04616
21
1.44126
0
LINE
8
BLACK
6
CONTINUOUS
10
2.04616
20
1.44126
11
2.04449
21
1.44056
0
LINE
8
BLACK
6
CONTINUOUS
10
2.04449
20
1.44056
11
1.85551
21
1.44056
0
LINE
8
BLACK
6
CONTINUOUS
10
1.85551
20
1.44056
11
1.85384
21
1.44126
0
LINE
8
BLACK
6
CONTINUOUS
10
2.44591
20
1.48963
11
2.44746
21
1.48833
0
LINE
8
BLACK
6
CONTINUOUS
10
2.44746
20
1.48833
11
2.44781
21
1.48634
0
LINE
8
BLACK
6
CONTINUOUS
10
2.44781
20
1.48634
11
2.4468
21
1.48459
0
LINE
8
BLACK
6
CONTINUOUS
10
2.4468
20
1.48459
11
2.4449
21
1.4839
0
LINE
8
BLACK
6
CONTINUOUS
10
2.4449
20
1.4839
11
2.3849
21
1.4839
0
LINE
8
BLACK
6
CONTINUOUS
10
2.3849
20
1.4839
11
2.38389
21
1.48408
0
LINE
8
BLACK
6
CONTINUOUS
10
2.38389
20
1.48408
11
2.38234
21
1.48537
0
LINE
8
BLACK
6
CONTINUOUS
10
2.38234
20
1.48537
11
2.38199
21
1.48736
0
LINE
8
BLACK
6
CONTINUOUS
10
2.38199
20
1.48736
11
2.383
21
1.48911
0
LINE
8
BLACK
6
CONTINUOUS
10
2.383
20
1.48911
11
2.3849
21
1.4898
0
LINE
8
BLACK
6
CONTINUOUS
10
2.3849
20
1.4898
11
2.4449
21
1.4898
0
LINE
8
BLACK
6
CONTINUOUS
10
2.4449
20
1.4898
11
2.44591
21
1.48963
0
LINE
8
BLACK
6
CONTINUOUS
10
2.04616
20
1.60208
11
2.04685
21
1.60041
0
LINE
8
BLACK
6
CONTINUOUS
10
2.04685
20
1.60041
11
2.04685
21
1.5945
0
LINE
8
BLACK
6
CONTINUOUS
10
2.04685
20
1.5945
11
2.04616
21
1.59283
0
LINE
8
BLACK
6
CONTINUOUS
10
2.04616
20
1.59283
11
2.04449
21
1.59214
0
LINE
8
BLACK
6
CONTINUOUS
10
2.04449
20
1.59214
11
2.04282
21
1.59283
0
LINE
8
BLACK
6
CONTINUOUS
10
2.04282
20
1.59283
11
2.04213
21
1.5945
0
LINE
8
BLACK
6
CONTINUOUS
10
2.04213
20
1.5945
11
2.04213
21
1.59804
0
LINE
8
BLACK
6
CONTINUOUS
10
2.04213
20
1.59804
11
1.85787
21
1.59804
0
LINE
8
BLACK
6
CONTINUOUS
10
1.85787
20
1.59804
11
1.85787
21
1.5945
0
LINE
8
BLACK
6
CONTINUOUS
10
1.85787
20
1.5945
11
1.85718
21
1.59283
0
LINE
8
BLACK
6
CONTINUOUS
10
1.85718
20
1.59283
11
1.85551
21
1.59214
0
LINE
8
BLACK
6
CONTINUOUS
10
1.85551
20
1.59214
11
1.85384
21
1.59283
0
LINE
8
BLACK
6
CONTINUOUS
10
1.85384
20
1.59283
11
1.85315
21
1.5945
0
LINE
8
BLACK
6
CONTINUOUS
10
1.85315
20
1.5945
11
1.85315
21
1.60041
0
LINE
8
BLACK
6
CONTINUOUS
10
1.85315
20
1.60041
11
1.85384
21
1.60208
0
LINE
8
BLACK
6
CONTINUOUS
10
1.85384
20
1.60208
11
1.85551
21
1.60277
0
LINE
8
BLACK
6
CONTINUOUS
10
1.85551
20
1.60277
11
2.04449
21
1.60277
0
LINE
8
BLACK
6
CONTINUOUS
10
2.04449
20
1.60277
11
2.04616
21
1.60208
0
LINE
8
BLACK
6
CONTINUOUS
10
2.07101
20
1.72111
11
2.07256
21
1.71981
0
LINE
8
BLACK
6
CONTINUOUS
10
2.07256
20
1.71981
11
2.07291
21
1.71782
0
LINE
8
BLACK
6
CONTINUOUS
10
2.07291
20
1.71782
11
2.0719
21
1.71607
0
LINE
8
BLACK
6
CONTINUOUS
10
2.0719
20
1.71607
11
2.07
21
1.71538
0
LINE
8
BLACK
6
CONTINUOUS
10
2.07
20
1.71538
11
2.01
21
1.71538
0
LINE
8
BLACK
6
CONTINUOUS
10
2.01
20
1.71538
11
2.00899
21
1.71556
0
LINE
8
BLACK
6
CONTINUOUS
10
2.00899
20
1.71556
11
2.00744
21
1.71686
0
LINE
8
BLACK
6
CONTINUOUS
10
2.00744
20
1.71686
11
2.00709
21
1.71885
0
LINE
8
BLACK
6
CONTINUOUS
10
2.00709
20
1.71885
11
2.0081
21
1.7206
0
LINE
8
BLACK
6
CONTINUOUS
10
2.0081
20
1.7206
11
2.01
21
1.72129
0
LINE
8
BLACK
6
CONTINUOUS
10
2.01
20
1.72129
11
2.07
21
1.72129
0
LINE
8
BLACK
6
CONTINUOUS
10
2.07
20
1.72129
11
2.07101
21
1.72111
0
LINE
8
BLACK
6
CONTINUOUS
10
2.68542
20
1.76828
11
2.68761
21
1.76608
0
LINE
8
BLACK
6
CONTINUOUS
10
2.68761
20
1.76608
11
2.68842
21
1.76308
0
LINE
8
BLACK
6
CONTINUOUS
10
2.68842
20
1.76308
11
2.68842
21
1.7288
0
LINE
8
BLACK
6
CONTINUOUS
10
2.68842
20
1.7288
11
2.68761
21
1.7258
0
LINE
8
BLACK
6
CONTINUOUS
10
2.68761
20
1.7258
11
2.68542
21
1.7236
0
LINE
8
BLACK
6
CONTINUOUS
10
2.68542
20
1.7236
11
2.68242
21
1.7228
0
LINE
8
BLACK
6
CONTINUOUS
10
2.68242
20
1.7228
11
2.67942
21
1.7236
0
LINE
8
BLACK
6
CONTINUOUS
10
2.67942
20
1.7236
11
2.67722
21
1.7258
0
LINE
8
BLACK
6
CONTINUOUS
10
2.67722
20
1.7258
11
2.67642
21
1.7288
0
LINE
8
BLACK
6
CONTINUOUS
10
2.67642
20
1.7288
11
2.67642
21
1.73994
0
LINE
8
BLACK
6
CONTINUOUS
10
2.67642
20
1.73994
11
2.62242
21
1.73994
0
LINE
8
BLACK
6
CONTINUOUS
10
2.62242
20
1.73994
11
2.6211
21
1.74029
0
LINE
8
BLACK
6
CONTINUOUS
10
2.6211
20
1.74029
11
2.61976
21
1.74056
0
LINE
8
BLACK
6
CONTINUOUS
10
2.61976
20
1.74056
11
2.61961
21
1.74069
0
LINE
8
BLACK
6
CONTINUOUS
10
2.61961
20
1.74069
11
2.61942
21
1.74074
0
LINE
8
BLACK
6
CONTINUOUS
10
2.61942
20
1.74074
11
2.61845
21
1.74171
0
LINE
8
BLACK
6
CONTINUOUS
10
2.61845
20
1.74171
11
2.61743
21
1.74261
0
LINE
8
BLACK
6
CONTINUOUS
10
2.61743
20
1.74261
11
2.61736
21
1.7428
0
LINE
8
BLACK
6
CONTINUOUS
10
2.61736
20
1.7428
11
2.61722
21
1.74294
0
LINE
8
BLACK
6
CONTINUOUS
10
2.61722
20
1.74294
11
2.61687
21
1.74426
0
LINE
8
BLACK
6
CONTINUOUS
10
2.61687
20
1.74426
11
2.61643
21
1.74555
0
LINE
8
BLACK
6
CONTINUOUS
10
2.61643
20
1.74555
11
2.61647
21
1.74575
0
LINE
8
BLACK
6
CONTINUOUS
10
2.61647
20
1.74575
11
2.61642
21
1.74594
0
LINE
8
BLACK
6
CONTINUOUS
10
2.61642
20
1.74594
11
2.61677
21
1.74726
0
LINE
8
BLACK
6
CONTINUOUS
10
2.61677
20
1.74726
11
2.61704
21
1.7486
0
LINE
8
BLACK
6
CONTINUOUS
10
2.61704
20
1.7486
11
2.61717
21
1.74875
0
LINE
8
BLACK
6
CONTINUOUS
10
2.61717
20
1.74875
11
2.61722
21
1.74894
0
LINE
8
BLACK
6
CONTINUOUS
10
2.61722
20
1.74894
11
2.61819
21
1.74991
0
LINE
8
BLACK
6
CONTINUOUS
10
2.61819
20
1.74991
11
2.61909
21
1.75093
0
LINE
8
BLACK
6
CONTINUOUS
10
2.61909
20
1.75093
11
2.62717
21
1.75632
0
LINE
8
BLACK
6
CONTINUOUS
10
2.62717
20
1.75632
11
2.63177
21
1.76092
0
LINE
8
BLACK
6
CONTINUOUS
10
2.63177
20
1.76092
11
2.63419
21
1.76577
0
LINE
8
BLACK
6
CONTINUOUS
10
2.63419
20
1.76577
11
2.63626
21
1.76809
0
LINE
8
BLACK
6
CONTINUOUS
10
2.63626
20
1.76809
11
2.6392
21
1.76907
0
LINE
8
BLACK
6
CONTINUOUS
10
2.6392
20
1.76907
11
2.64224
21
1.76845
0
LINE
8
BLACK
6
CONTINUOUS
10
2.64224
20
1.76845
11
2.64457
21
1.76639
0
LINE
8
BLACK
6
CONTINUOUS
10
2.64457
20
1.76639
11
2.64555
21
1.76344
0
LINE
8
BLACK
6
CONTINUOUS
10
2.64555
20
1.76344
11
2.64493
21
1.7604
0
LINE
8
BLACK
6
CONTINUOUS
10
2.64493
20
1.7604
11
2.64207
21
1.75468
0
LINE
8
BLACK
6
CONTINUOUS
10
2.64207
20
1.75468
11
2.64143
21
1.75396
0
LINE
8
BLACK
6
CONTINUOUS
10
2.64143
20
1.75396
11
2.64095
21
1.75313
0
LINE
8
BLACK
6
CONTINUOUS
10
2.64095
20
1.75313
11
2.63976
21
1.75194
0
LINE
8
BLACK
6
CONTINUOUS
10
2.63976
20
1.75194
11
2.67642
21
1.75194
0
LINE
8
BLACK
6
CONTINUOUS
10
2.67642
20
1.75194
11
2.67642
21
1.76308
0
LINE
8
BLACK
6
CONTINUOUS
10
2.67642
20
1.76308
11
2.67722
21
1.76608
0
LINE
8
BLACK
6
CONTINUOUS
10
2.67722
20
1.76608
11
2.67942
21
1.76828
0
LINE
8
BLACK
6
CONTINUOUS
10
2.67942
20
1.76828
11
2.68242
21
1.76908
0
LINE
8
BLACK
6
CONTINUOUS
10
2.68242
20
1.76908
11
2.68542
21
1.76828
0
LINE
8
BLACK
6
CONTINUOUS
10
2.35983
20
1.77114
11
2.36202
21
1.76894
0
LINE
8
BLACK
6
CONTINUOUS
10
2.36202
20
1.76894
11
2.36283
21
1.76594
0
LINE
8
BLACK
6
CONTINUOUS
10
2.36283
20
1.76594
11
2.36283
21
1.74202
0
LINE
8
BLACK
6
CONTINUOUS
10
2.36283
20
1.74202
11
2.37573
21
1.75331
0
LINE
8
BLACK
6
CONTINUOUS
10
2.37573
20
1.75331
11
2.37627
21
1.75357
0
LINE
8
BLACK
6
CONTINUOUS
10
2.37627
20
1.75357
11
2.37669
21
1.75399
0
LINE
8
BLACK
6
CONTINUOUS
10
2.37669
20
1.75399
11
2.37764
21
1.75425
0
LINE
8
BLACK
6
CONTINUOUS
10
2.37764
20
1.75425
11
2.37852
21
1.75468
0
LINE
8
BLACK
6
CONTINUOUS
10
2.37852
20
1.75468
11
2.37911
21
1.75464
0
LINE
8
BLACK
6
CONTINUOUS
10
2.37911
20
1.75464
11
2.37969
21
1.7548
0
LINE
8
BLACK
6
CONTINUOUS
10
2.37969
20
1.7548
11
2.38064
21
1.75454
0
LINE
8
BLACK
6
CONTINUOUS
10
2.38064
20
1.75454
11
2.38162
21
1.75448
0
LINE
8
BLACK
6
CONTINUOUS
10
2.38162
20
1.75448
11
2.38211
21
1.75415
0
LINE
8
BLACK
6
CONTINUOUS
10
2.38211
20
1.75415
11
2.38269
21
1.75399
0
LINE
8
BLACK
6
CONTINUOUS
10
2.38269
20
1.75399
11
2.38338
21
1.7533
0
LINE
8
BLACK
6
CONTINUOUS
10
2.38338
20
1.7533
11
2.3842
21
1.75275
0
LINE
8
BLACK
6
CONTINUOUS
10
2.3842
20
1.75275
11
2.38446
21
1.75222
0
LINE
8
BLACK
6
CONTINUOUS
10
2.38446
20
1.75222
11
2.38488
21
1.7518
0
LINE
8
BLACK
6
CONTINUOUS
10
2.38488
20
1.7518
11
2.38514
21
1.75084
0
LINE
8
BLACK
6
CONTINUOUS
10
2.38514
20
1.75084
11
2.38557
21
1.74996
0
LINE
8
BLACK
6
CONTINUOUS
10
2.38557
20
1.74996
11
2.38553
21
1.74937
0
LINE
8
BLACK
6
CONTINUOUS
10
2.38553
20
1.74937
11
2.38569
21
1.7488
0
LINE
8
BLACK
6
CONTINUOUS
10
2.38569
20
1.7488
11
2.38569
21
1.74164
0
LINE
8
BLACK
6
CONTINUOUS
10
2.38569
20
1.74164
11
2.38747
21
1.73806
0
LINE
8
BLACK
6
CONTINUOUS
10
2.38747
20
1.73806
11
2.38895
21
1.73658
0
LINE
8
BLACK
6
CONTINUOUS
10
2.38895
20
1.73658
11
2.39253
21
1.7348
0
LINE
8
BLACK
6
CONTINUOUS
10
2.39253
20
1.7348
11
2.40398
21
1.7348
0
LINE
8
BLACK
6
CONTINUOUS
10
2.40398
20
1.7348
11
2.40756
21
1.73658
0
LINE
8
BLACK
6
CONTINUOUS
10
2.40756
20
1.73658
11
2.40904
21
1.73806
0
LINE
8
BLACK
6
CONTINUOUS
10
2.40904
20
1.73806
11
2.41083
21
1.74164
0
LINE
8
BLACK
6
CONTINUOUS
10
2.41083
20
1.74164
11
2.41083
21
1.75595
0
LINE
8
BLACK
6
CONTINUOUS
10
2.41083
20
1.75595
11
2.40904
21
1.75953
0
LINE
8
BLACK
6
CONTINUOUS
10
2.40904
20
1.75953
11
2.40687
21
1.7617
0
LINE
8
BLACK
6
CONTINUOUS
10
2.40687
20
1.7617
11
2.40532
21
1.76439
0
LINE
8
BLACK
6
CONTINUOUS
10
2.40532
20
1.76439
11
2.40532
21
1.76749
0
LINE
8
BLACK
6
CONTINUOUS
10
2.40532
20
1.76749
11
2.40687
21
1.77018
0
LINE
8
BLACK
6
CONTINUOUS
10
2.40687
20
1.77018
11
2.40956
21
1.77173
0
LINE
8
BLACK
6
CONTINUOUS
10
2.40956
20
1.77173
11
2.41267
21
1.77173
0
LINE
8
BLACK
6
CONTINUOUS
10
2.41267
20
1.77173
11
2.41536
21
1.77018
0
LINE
8
BLACK
6
CONTINUOUS
10
2.41536
20
1.77018
11
2.41821
21
1.76732
0
LINE
8
BLACK
6
CONTINUOUS
10
2.41821
20
1.76732
11
2.4187
21
1.76649
0
LINE
8
BLACK
6
CONTINUOUS
10
2.4187
20
1.76649
11
2.41934
21
1.76577
0
LINE
8
BLACK
6
CONTINUOUS
10
2.41934
20
1.76577
11
2.42219
21
1.76005
0
LINE
8
BLACK
6
CONTINUOUS
10
2.42219
20
1.76005
11
2.42247
21
1.7587
0
LINE
8
BLACK
6
CONTINUOUS
10
2.42247
20
1.7587
11
2.42283
21
1.75737
0
LINE
8
BLACK
6
CONTINUOUS
10
2.42283
20
1.75737
11
2.42283
21
1.74022
0
LINE
8
BLACK
6
CONTINUOUS
10
2.42283
20
1.74022
11
2.42247
21
1.73889
0
LINE
8
BLACK
6
CONTINUOUS
10
2.42247
20
1.73889
11
2.42219
21
1.73754
0
LINE
8
BLACK
6
CONTINUOUS
10
2.42219
20
1.73754
11
2.41934
21
1.73183
0
LINE
8
BLACK
6
CONTINUOUS
10
2.41934
20
1.73183
11
2.4187
21
1.7311
0
LINE
8
BLACK
6
CONTINUOUS
10
2.4187
20
1.7311
11
2.41821
21
1.73027
0
LINE
8
BLACK
6
CONTINUOUS
10
2.41821
20
1.73027
11
2.41536
21
1.72741
0
LINE
8
BLACK
6
CONTINUOUS
10
2.41536
20
1.72741
11
2.41452
21
1.72693
0
LINE
8
BLACK
6
CONTINUOUS
10
2.41452
20
1.72693
11
2.4138
21
1.72629
0
LINE
8
BLACK
6
CONTINUOUS
10
2.4138
20
1.72629
11
2.40808
21
1.72343
0
LINE
8
BLACK
6
CONTINUOUS
10
2.40808
20
1.72343
11
2.40673
21
1.72315
0
LINE
8
BLACK
6
CONTINUOUS
10
2.40673
20
1.72315
11
2.4054
21
1.7228
0
LINE
8
BLACK
6
CONTINUOUS
10
2.4054
20
1.7228
11
2.39111
21
1.7228
0
LINE
8
BLACK
6
CONTINUOUS
10
2.39111
20
1.7228
11
2.38978
21
1.72315
0
LINE
8
BLACK
6
CONTINUOUS
10
2.38978
20
1.72315
11
2.38843
21
1.72343
0
LINE
8
BLACK
6
CONTINUOUS
10
2.38843
20
1.72343
11
2.38272
21
1.72629
0
LINE
8
BLACK
6
CONTINUOUS
10
2.38272
20
1.72629
11
2.38199
21
1.72693
0
LINE
8
BLACK
6
CONTINUOUS
10
2.38199
20
1.72693
11
2.38116
21
1.72741
0
LINE
8
BLACK
6
CONTINUOUS
10
2.38116
20
1.72741
11
2.3783
21
1.73027
0
LINE
8
BLACK
6
CONTINUOUS
10
2.3783
20
1.73027
11
2.37782
21
1.7311
0
LINE
8
BLACK
6
CONTINUOUS
10
2.37782
20
1.7311
11
2.37718
21
1.73183
0
LINE
8
BLACK
6
CONTINUOUS
10
2.37718
20
1.73183
11
2.37481
21
1.73656
0
LINE
8
BLACK
6
CONTINUOUS
10
2.37481
20
1.73656
11
2.36078
21
1.72428
0
LINE
8
BLACK
6
CONTINUOUS
10
2.36078
20
1.72428
11
2.36025
21
1.72402
0
LINE
8
BLACK
6
CONTINUOUS
10
2.36025
20
1.72402
11
2.35983
21
1.7236
0
LINE
8
BLACK
6
CONTINUOUS
10
2.35983
20
1.7236
11
2.35888
21
1.72335
0
LINE
8
BLACK
6
CONTINUOUS
10
2.35888
20
1.72335
11
2.35799
21
1.72291
0
LINE
8
BLACK
6
CONTINUOUS
10
2.35799
20
1.72291
11
2.3574
21
1.72295
0
LINE
8
BLACK
6
CONTINUOUS
10
2.3574
20
1.72295
11
2.35683
21
1.7228
0
LINE
8
BLACK
6
CONTINUOUS
10
2.35683
20
1.7228
11
2.35588
21
1.72305
0
LINE
8
BLACK
6
CONTINUOUS
10
2.35588
20
1.72305
11
2.35489
21
1.72312
0
LINE
8
BLACK
6
CONTINUOUS
10
2.35489
20
1.72312
11
2.3544
21
1.72345
0
LINE
8
BLACK
6
CONTINUOUS
10
2.3544
20
1.72345
11
2.35383
21
1.7236
0
LINE
8
BLACK
6
CONTINUOUS
10
2.35383
20
1.7236
11
2.35313
21
1.7243
0
LINE
8
BLACK
6
CONTINUOUS
10
2.35313
20
1.7243
11
2.35231
21
1.72485
0
LINE
8
BLACK
6
CONTINUOUS
10
2.35231
20
1.72485
11
2.35205
21
1.72538
0
LINE
8
BLACK
6
CONTINUOUS
10
2.35205
20
1.72538
11
2.35163
21
1.7258
0
LINE
8
BLACK
6
CONTINUOUS
10
2.35163
20
1.7258
11
2.35138
21
1.72675
0
LINE
8
BLACK
6
CONTINUOUS
10
2.35138
20
1.72675
11
2.35094
21
1.72763
0
LINE
8
BLACK
6
CONTINUOUS
10
2.35094
20
1.72763
11
2.35098
21
1.72822
0
LINE
8
BLACK
6
CONTINUOUS
10
2.35098
20
1.72822
11
2.35083
21
1.7288
0
LINE
8
BLACK
6
CONTINUOUS
10
2.35083
20
1.7288
11
2.35083
21
1.76594
0
LINE
8
BLACK
6
CONTINUOUS
10
2.35083
20
1.76594
11
2.35163
21
1.76894
0
LINE
8
BLACK
6
CONTINUOUS
10
2.35163
20
1.76894
11
2.35383
21
1.77114
0
LINE
8
BLACK
6
CONTINUOUS
10
2.35383
20
1.77114
11
2.35683
21
1.77194
0
LINE
8
BLACK
6
CONTINUOUS
10
2.35683
20
1.77194
11
2.35983
21
1.77114
0
LINE
8
BLACK
6
CONTINUOUS
10
2.72754
20
1.81855
11
2.72823
21
1.81665
0
LINE
8
BLACK
6
CONTINUOUS
10
2.72823
20
1.81665
11
2.72823
21
1.72665
0
LINE
8
BLACK
6
CONTINUOUS
10
2.72823
20
1.72665
11
2.72805
21
1.72564
0
LINE
8
BLACK
6
CONTINUOUS
10
2.72805
20
1.72564
11
2.72675
21
1.7241
0
LINE
8
BLACK
6
CONTINUOUS
10
2.72675
20
1.7241
11
2.72476
21
1.72375
0
LINE
8
BLACK
6
CONTINUOUS
10
2.72476
20
1.72375
11
2.72301
21
1.72476
0
LINE
8
BLACK
6
CONTINUOUS
10
2.72301
20
1.72476
11
2.72232
21
1.72665
0
LINE
8
BLACK
6
CONTINUOUS
10
2.72232
20
1.72665
11
2.72232
21
1.81665
0
LINE
8
BLACK
6
CONTINUOUS
10
2.72232
20
1.81665
11
2.7225
21
1.81766
0
LINE
8
BLACK
6
CONTINUOUS
10
2.7225
20
1.81766
11
2.7238
21
1.81921
0
LINE
8
BLACK
6
CONTINUOUS
10
2.7238
20
1.81921
11
2.72579
21
1.81956
0
LINE
8
BLACK
6
CONTINUOUS
10
2.72579
20
1.81956
11
2.72754
21
1.81855
0
LINE
8
BLACK
6
CONTINUOUS
10
2.86754
20
1.81855
11
2.86823
21
1.81665
0
LINE
8
BLACK
6
CONTINUOUS
10
2.86823
20
1.81665
11
2.86823
21
1.72665
0
LINE
8
BLACK
6
CONTINUOUS
10
2.86823
20
1.72665
11
2.86805
21
1.72564
0
LINE
8
BLACK
6
CONTINUOUS
10
2.86805
20
1.72564
11
2.86675
21
1.7241
0
LINE
8
BLACK
6
CONTINUOUS
10
2.86675
20
1.7241
11
2.86476
21
1.72375
0
LINE
8
BLACK
6
CONTINUOUS
10
2.86476
20
1.72375
11
2.86301
21
1.72476
0
LINE
8
BLACK
6
CONTINUOUS
10
2.86301
20
1.72476
11
2.86232
21
1.72665
0
LINE
8
BLACK
6
CONTINUOUS
10
2.86232
20
1.72665
11
2.86232
21
1.81665
0
LINE
8
BLACK
6
CONTINUOUS
10
2.86232
20
1.81665
11
2.8625
21
1.81766
0
LINE
8
BLACK
6
CONTINUOUS
10
2.8625
20
1.81766
11
2.8638
21
1.81921
0
LINE
8
BLACK
6
CONTINUOUS
10
2.8638
20
1.81921
11
2.86579
21
1.81956
0
LINE
8
BLACK
6
CONTINUOUS
10
2.86579
20
1.81956
11
2.86754
21
1.81855
0
LINE
8
BLACK
6
CONTINUOUS
10
2.59195
20
1.81855
11
2.59264
21
1.81665
0
LINE
8
BLACK
6
CONTINUOUS
10
2.59264
20
1.81665
11
2.59264
21
1.72665
0
LINE
8
BLACK
6
CONTINUOUS
10
2.59264
20
1.72665
11
2.59246
21
1.72564
0
LINE
8
BLACK
6
CONTINUOUS
10
2.59246
20
1.72564
11
2.59116
21
1.7241
0
LINE
8
BLACK
6
CONTINUOUS
10
2.59116
20
1.7241
11
2.58917
21
1.72375
0
LINE
8
BLACK
6
CONTINUOUS
10
2.58917
20
1.72375
11
2.58742
21
1.72476
0
LINE
8
BLACK
6
CONTINUOUS
10
2.58742
20
1.72476
11
2.58673
21
1.72665
0
LINE
8
BLACK
6
CONTINUOUS
10
2.58673
20
1.72665
11
2.58673
21
1.81665
0
LINE
8
BLACK
6
CONTINUOUS
10
2.58673
20
1.81665
11
2.58691
21
1.81766
0
LINE
8
BLACK
6
CONTINUOUS
10
2.58691
20
1.81766
11
2.58821
21
1.81921
0
LINE
8
BLACK
6
CONTINUOUS
10
2.58821
20
1.81921
11
2.5902
21
1.81956
0
LINE
8
BLACK
6
CONTINUOUS
10
2.5902
20
1.81956
11
2.59195
21
1.81855
0
LINE
8
BLACK
6
CONTINUOUS
10
2.45195
20
1.81855
11
2.45264
21
1.81665
0
LINE
8
BLACK
6
CONTINUOUS
10
2.45264
20
1.81665
11
2.45264
21
1.72665
0
LINE
8
BLACK
6
CONTINUOUS
10
2.45264
20
1.72665
11
2.45246
21
1.72564
0
LINE
8
BLACK
6
CONTINUOUS
10
2.45246
20
1.72564
11
2.45116
21
1.7241
0
LINE
8
BLACK
6
CONTINUOUS
10
2.45116
20
1.7241
11
2.44917
21
1.72375
0
LINE
8
BLACK
6
CONTINUOUS
10
2.44917
20
1.72375
11
2.44742
21
1.72476
0
LINE
8
BLACK
6
CONTINUOUS
10
2.44742
20
1.72476
11
2.44673
21
1.72665
0
LINE
8
BLACK
6
CONTINUOUS
10
2.44673
20
1.72665
11
2.44673
21
1.81665
0
LINE
8
BLACK
6
CONTINUOUS
10
2.44673
20
1.81665
11
2.44691
21
1.81766
0
LINE
8
BLACK
6
CONTINUOUS
10
2.44691
20
1.81766
11
2.44821
21
1.81921
0
LINE
8
BLACK
6
CONTINUOUS
10
2.44821
20
1.81921
11
2.4502
21
1.81956
0
LINE
8
BLACK
6
CONTINUOUS
10
2.4502
20
1.81956
11
2.45195
21
1.81855
0
LINE
8
BLACK
6
CONTINUOUS
10
2.07167
20
1.795
11
2.07236
21
1.79333
0
LINE
8
BLACK
6
CONTINUOUS
10
2.07236
20
1.79333
11
2.07236
21
1.76333
0
LINE
8
BLACK
6
CONTINUOUS
10
2.07236
20
1.76333
11
2.07167
21
1.76166
0
LINE
8
BLACK
6
CONTINUOUS
10
2.07167
20
1.76166
11
2.07
21
1.76097
0
LINE
8
BLACK
6
CONTINUOUS
10
2.07
20
1.76097
11
2.06833
21
1.76166
0
LINE
8
BLACK
6
CONTINUOUS
10
2.06833
20
1.76166
11
2.06764
21
1.76333
0
LINE
8
BLACK
6
CONTINUOUS
10
2.06764
20
1.76333
11
2.06764
21
1.79333
0
LINE
8
BLACK
6
CONTINUOUS
10
2.06764
20
1.79333
11
2.06833
21
1.795
0
LINE
8
BLACK
6
CONTINUOUS
10
2.06833
20
1.795
11
2.07
21
1.7957
0
LINE
8
BLACK
6
CONTINUOUS
10
2.07
20
1.7957
11
2.07167
21
1.795
0
LINE
8
BLACK
6
CONTINUOUS
10
2.01167
20
1.795
11
2.01236
21
1.79333
0
LINE
8
BLACK
6
CONTINUOUS
10
2.01236
20
1.79333
11
2.01236
21
1.76333
0
LINE
8
BLACK
6
CONTINUOUS
10
2.01236
20
1.76333
11
2.01167
21
1.76166
0
LINE
8
BLACK
6
CONTINUOUS
10
2.01167
20
1.76166
11
2.01
21
1.76097
0
LINE
8
BLACK
6
CONTINUOUS
10
2.01
20
1.76097
11
2.00833
21
1.76166
0
LINE
8
BLACK
6
CONTINUOUS
10
2.00833
20
1.76166
11
2.00764
21
1.76333
0
LINE
8
BLACK
6
CONTINUOUS
10
2.00764
20
1.76333
11
2.00764
21
1.79333
0
LINE
8
BLACK
6
CONTINUOUS
10
2.00764
20
1.79333
11
2.00833
21
1.795
0
LINE
8
BLACK
6
CONTINUOUS
10
2.00833
20
1.795
11
2.01
21
1.7957
0
LINE
8
BLACK
6
CONTINUOUS
10
2.01
20
1.7957
11
2.01167
21
1.795
0
LINE
8
BLACK
6
CONTINUOUS
10
2.68542
20
1.81685
11
2.68761
21
1.81465
0
LINE
8
BLACK
6
CONTINUOUS
10
2.68761
20
1.81465
11
2.68842
21
1.81165
0
LINE
8
BLACK
6
CONTINUOUS
10
2.68842
20
1.81165
11
2.68761
21
1.80865
0
LINE
8
BLACK
6
CONTINUOUS
10
2.68761
20
1.80865
11
2.68542
21
1.80646
0
LINE
8
BLACK
6
CONTINUOUS
10
2.68542
20
1.80646
11
2.68242
21
1.80565
0
LINE
8
BLACK
6
CONTINUOUS
10
2.68242
20
1.80565
11
2.65699
21
1.80565
0
LINE
8
BLACK
6
CONTINUOUS
10
2.65699
20
1.80565
11
2.65699
21
1.79165
0
LINE
8
BLACK
6
CONTINUOUS
10
2.65699
20
1.79165
11
2.65619
21
1.78865
0
LINE
8
BLACK
6
CONTINUOUS
10
2.65619
20
1.78865
11
2.65399
21
1.78646
0
LINE
8
BLACK
6
CONTINUOUS
10
2.65399
20
1.78646
11
2.65099
21
1.78565
0
LINE
8
BLACK
6
CONTINUOUS
10
2.65099
20
1.78565
11
2.64799
21
1.78646
0
LINE
8
BLACK
6
CONTINUOUS
10
2.64799
20
1.78646
11
2.64579
21
1.78865
0
LINE
8
BLACK
6
CONTINUOUS
10
2.64579
20
1.78865
11
2.64499
21
1.79165
0
LINE
8
BLACK
6
CONTINUOUS
10
2.64499
20
1.79165
11
2.64499
21
1.80565
0
LINE
8
BLACK
6
CONTINUOUS
10
2.64499
20
1.80565
11
2.62842
21
1.80565
0
LINE
8
BLACK
6
CONTINUOUS
10
2.62842
20
1.80565
11
2.62842
21
1.78308
0
LINE
8
BLACK
6
CONTINUOUS
10
2.62842
20
1.78308
11
2.62761
21
1.78008
0
LINE
8
BLACK
6
CONTINUOUS
10
2.62761
20
1.78008
11
2.62542
21
1.77789
0
LINE
8
BLACK
6
CONTINUOUS
10
2.62542
20
1.77789
11
2.62242
21
1.77708
0
LINE
8
BLACK
6
CONTINUOUS
10
2.62242
20
1.77708
11
2.61942
21
1.77789
0
LINE
8
BLACK
6
CONTINUOUS
10
2.61942
20
1.77789
11
2.61722
21
1.78008
0
LINE
8
BLACK
6
CONTINUOUS
10
2.61722
20
1.78008
11
2.61642
21
1.78308
0
LINE
8
BLACK
6
CONTINUOUS
10
2.61642
20
1.78308
11
2.61642
21
1.81165
0
LINE
8
BLACK
6
CONTINUOUS
10
2.61642
20
1.81165
11
2.61722
21
1.81465
0
LINE
8
BLACK
6
CONTINUOUS
10
2.61722
20
1.81465
11
2.61942
21
1.81685
0
LINE
8
BLACK
6
CONTINUOUS
10
2.61942
20
1.81685
11
2.62242
21
1.81765
0
LINE
8
BLACK
6
CONTINUOUS
10
2.62242
20
1.81765
11
2.68242
21
1.81765
0
LINE
8
BLACK
6
CONTINUOUS
10
2.68242
20
1.81765
11
2.68542
21
1.81685
0
LINE
8
BLACK
6
CONTINUOUS
10
2.41983
20
1.81685
11
2.42202
21
1.81465
0
LINE
8
BLACK
6
CONTINUOUS
10
2.42202
20
1.81465
11
2.42283
21
1.81165
0
LINE
8
BLACK
6
CONTINUOUS
10
2.42283
20
1.81165
11
2.42202
21
1.80865
0
LINE
8
BLACK
6
CONTINUOUS
10
2.42202
20
1.80865
11
2.41983
21
1.80646
0
LINE
8
BLACK
6
CONTINUOUS
10
2.41983
20
1.80646
11
2.41683
21
1.80565
0
LINE
8
BLACK
6
CONTINUOUS
10
2.41683
20
1.80565
11
2.3914
21
1.80565
0
LINE
8
BLACK
6
CONTINUOUS
10
2.3914
20
1.80565
11
2.3914
21
1.79165
0
LINE
8
BLACK
6
CONTINUOUS
10
2.3914
20
1.79165
11
2.3906
21
1.78865
0
LINE
8
BLACK
6
CONTINUOUS
10
2.3906
20
1.78865
11
2.3884
21
1.78646
0
LINE
8
BLACK
6
CONTINUOUS
10
2.3884
20
1.78646
11
2.3854
21
1.78565
0
LINE
8
BLACK
6
CONTINUOUS
10
2.3854
20
1.78565
11
2.3824
21
1.78646
0
LINE
8
BLACK
6
CONTINUOUS
10
2.3824
20
1.78646
11
2.3802
21
1.78865
0
LINE
8
BLACK
6
CONTINUOUS
10
2.3802
20
1.78865
11
2.3794
21
1.79165
0
LINE
8
BLACK
6
CONTINUOUS
10
2.3794
20
1.79165
11
2.3794
21
1.80565
0
LINE
8
BLACK
6
CONTINUOUS
10
2.3794
20
1.80565
11
2.36283
21
1.80565
0
LINE
8
BLACK
6
CONTINUOUS
10
2.36283
20
1.80565
11
2.36283
21
1.78308
0
LINE
8
BLACK
6
CONTINUOUS
10
2.36283
20
1.78308
11
2.36202
21
1.78008
0
LINE
8
BLACK
6
CONTINUOUS
10
2.36202
20
1.78008
11
2.35983
21
1.77789
0
LINE
8
BLACK
6
CONTINUOUS
10
2.35983
20
1.77789
11
2.35683
21
1.77708
0
LINE
8
BLACK
6
CONTINUOUS
10
2.35683
20
1.77708
11
2.35383
21
1.77789
0
LINE
8
BLACK
6
CONTINUOUS
10
2.35383
20
1.77789
11
2.35163
21
1.78008
0
LINE
8
BLACK
6
CONTINUOUS
10
2.35163
20
1.78008
11
2.35083
21
1.78308
0
LINE
8
BLACK
6
CONTINUOUS
10
2.35083
20
1.78308
11
2.35083
21
1.81165
0
LINE
8
BLACK
6
CONTINUOUS
10
2.35083
20
1.81165
11
2.35163
21
1.81465
0
LINE
8
BLACK
6
CONTINUOUS
10
2.35163
20
1.81465
11
2.35383
21
1.81685
0
LINE
8
BLACK
6
CONTINUOUS
10
2.35383
20
1.81685
11
2.35683
21
1.81765
0
LINE
8
BLACK
6
CONTINUOUS
10
2.35683
20
1.81765
11
2.41683
21
1.81765
0
LINE
8
BLACK
6
CONTINUOUS
10
2.41683
20
1.81765
11
2.41983
21
1.81685
0
LINE
8
BLACK
6
CONTINUOUS
10
1.93891
20
1.86152
11
1.93897
21
1.86154
0
LINE
8
BLACK
6
CONTINUOUS
10
1.93897
20
1.86154
11
1.93908
21
1.86149
0
LINE
8
BLACK
6
CONTINUOUS
10
1.93908
20
1.86149
11
1.93976
21
1.86137
0
LINE
8
BLACK
6
CONTINUOUS
10
1.93976
20
1.86137
11
1.94024
21
1.86097
0
LINE
8
BLACK
6
CONTINUOUS
10
1.94024
20
1.86097
11
1.94081
21
1.86071
0
LINE
8
BLACK
6
CONTINUOUS
10
1.94081
20
1.86071
11
1.94099
21
1.86034
0
LINE
8
BLACK
6
CONTINUOUS
10
1.94099
20
1.86034
11
1.94131
21
1.86007
0
LINE
8
BLACK
6
CONTINUOUS
10
1.94131
20
1.86007
11
1.94142
21
1.85945
0
LINE
8
BLACK
6
CONTINUOUS
10
1.94142
20
1.85945
11
1.94169
21
1.85889
0
LINE
8
BLACK
6
CONTINUOUS
10
1.94169
20
1.85889
11
1.94356
21
1.84014
0
LINE
8
BLACK
6
CONTINUOUS
10
1.94356
20
1.84014
11
1.94349
21
1.83912
0
LINE
8
BLACK
6
CONTINUOUS
10
1.94349
20
1.83912
11
1.94348
21
1.8391
0
LINE
8
BLACK
6
CONTINUOUS
10
1.94348
20
1.8391
11
1.94348
21
1.83908
0
LINE
8
BLACK
6
CONTINUOUS
10
1.94348
20
1.83908
11
1.94291
21
1.83827
0
LINE
8
BLACK
6
CONTINUOUS
10
1.94291
20
1.83827
11
1.94235
21
1.83745
0
LINE
8
BLACK
6
CONTINUOUS
10
1.94235
20
1.83745
11
1.94233
21
1.83744
0
LINE
8
BLACK
6
CONTINUOUS
10
1.94233
20
1.83744
11
1.94232
21
1.83743
0
LINE
8
BLACK
6
CONTINUOUS
10
1.94232
20
1.83743
11
1.94136
21
1.83717
0
LINE
8
BLACK
6
CONTINUOUS
10
1.94136
20
1.83717
11
1.94041
21
1.8369
0
LINE
8
BLACK
6
CONTINUOUS
10
1.94041
20
1.8369
11
1.94039
21
1.83691
0
LINE
8
BLACK
6
CONTINUOUS
10
1.94039
20
1.83691
11
1.94037
21
1.8369
0
LINE
8
BLACK
6
CONTINUOUS
10
1.94037
20
1.8369
11
1.93947
21
1.83732
0
LINE
8
BLACK
6
CONTINUOUS
10
1.93947
20
1.83732
11
1.93856
21
1.83773
0
LINE
8
BLACK
6
CONTINUOUS
10
1.93856
20
1.83773
11
1.93856
21
1.83775
0
LINE
8
BLACK
6
CONTINUOUS
10
1.93856
20
1.83775
11
1.93854
21
1.83776
0
LINE
8
BLACK
6
CONTINUOUS
10
1.93854
20
1.83776
11
1.937
21
1.83929
0
LINE
8
BLACK
6
CONTINUOUS
10
1.937
20
1.83929
11
1.9343
21
1.84064
0
LINE
8
BLACK
6
CONTINUOUS
10
1.9343
20
1.84064
11
1.92633
21
1.84064
0
LINE
8
BLACK
6
CONTINUOUS
10
1.92633
20
1.84064
11
1.92363
21
1.83929
0
LINE
8
BLACK
6
CONTINUOUS
10
1.92363
20
1.83929
11
1.92243
21
1.8381
0
LINE
8
BLACK
6
CONTINUOUS
10
1.92243
20
1.8381
11
1.92108
21
1.8354
0
LINE
8
BLACK
6
CONTINUOUS
10
1.92108
20
1.8354
11
1.92108
21
1.82742
0
LINE
8
BLACK
6
CONTINUOUS
10
1.92108
20
1.82742
11
1.92243
21
1.82472
0
LINE
8
BLACK
6
CONTINUOUS
10
1.92243
20
1.82472
11
1.92363
21
1.82353
0
LINE
8
BLACK
6
CONTINUOUS
10
1.92363
20
1.82353
11
1.92633
21
1.82218
0
LINE
8
BLACK
6
CONTINUOUS
10
1.92633
20
1.82218
11
1.9343
21
1.82218
0
LINE
8
BLACK
6
CONTINUOUS
10
1.9343
20
1.82218
11
1.937
21
1.82353
0
LINE
8
BLACK
6
CONTINUOUS
10
1.937
20
1.82353
11
1.93854
21
1.82506
0
LINE
8
BLACK
6
CONTINUOUS
10
1.93854
20
1.82506
11
1.93938
21
1.82565
0
LINE
8
BLACK
6
CONTINUOUS
10
1.93938
20
1.82565
11
1.94139
21
1.82583
0
LINE
8
BLACK
6
CONTINUOUS
10
1.94139
20
1.82583
11
1.94304
21
1.82467
0
LINE
8
BLACK
6
CONTINUOUS
10
1.94304
20
1.82467
11
1.94357
21
1.82272
0
LINE
8
BLACK
6
CONTINUOUS
10
1.94357
20
1.82272
11
1.94271
21
1.82089
0
LINE
8
BLACK
6
CONTINUOUS
10
1.94271
20
1.82089
11
1.94084
21
1.81901
0
LINE
8
BLACK
6
CONTINUOUS
10
1.94084
20
1.81901
11
1.94012
21
1.8185
0
LINE
8
BLACK
6
CONTINUOUS
10
1.94012
20
1.8185
11
1.94007
21
1.81846
0
LINE
8
BLACK
6
CONTINUOUS
10
1.94007
20
1.81846
11
1.93632
21
1.81658
0
LINE
8
BLACK
6
CONTINUOUS
10
1.93632
20
1.81658
11
1.93534
21
1.81629
0
LINE
8
BLACK
6
CONTINUOUS
10
1.93534
20
1.81629
11
1.93517
21
1.81633
0
LINE
8
BLACK
6
CONTINUOUS
10
1.93517
20
1.81633
11
1.935
21
1.81627
0
LINE
8
BLACK
6
CONTINUOUS
10
1.935
20
1.81627
11
1.92563
21
1.81627
0
LINE
8
BLACK
6
CONTINUOUS
10
1.92563
20
1.81627
11
1.92462
21
1.81645
0
LINE
8
BLACK
6
CONTINUOUS
10
1.92462
20
1.81645
11
1.92448
21
1.81656
0
LINE
8
BLACK
6
CONTINUOUS
10
1.92448
20
1.81656
11
1.92431
21
1.81658
0
LINE
8
BLACK
6
CONTINUOUS
10
1.92431
20
1.81658
11
1.92056
21
1.81846
0
LINE
8
BLACK
6
CONTINUOUS
10
1.92056
20
1.81846
11
1.91985
21
1.81898
0
LINE
8
BLACK
6
CONTINUOUS
10
1.91985
20
1.81898
11
1.91979
21
1.81901
0
LINE
8
BLACK
6
CONTINUOUS
10
1.91979
20
1.81901
11
1.91792
21
1.82089
0
LINE
8
BLACK
6
CONTINUOUS
10
1.91792
20
1.82089
11
1.91741
21
1.82161
0
LINE
8
BLACK
6
CONTINUOUS
10
1.91741
20
1.82161
11
1.91736
21
1.82165
0
LINE
8
BLACK
6
CONTINUOUS
10
1.91736
20
1.82165
11
1.91549
21
1.8254
0
LINE
8
BLACK
6
CONTINUOUS
10
1.91549
20
1.8254
11
1.9152
21
1.82639
0
LINE
8
BLACK
6
CONTINUOUS
10
1.9152
20
1.82639
11
1.91524
21
1.82656
0
LINE
8
BLACK
6
CONTINUOUS
10
1.91524
20
1.82656
11
1.91518
21
1.82672
0
LINE
8
BLACK
6
CONTINUOUS
10
1.91518
20
1.82672
11
1.91518
21
1.8361
0
LINE
8
BLACK
6
CONTINUOUS
10
1.91518
20
1.8361
11
1.91535
21
1.83711
0
LINE
8
BLACK
6
CONTINUOUS
10
1.91535
20
1.83711
11
1.91547
21
1.83724
0
LINE
8
BLACK
6
CONTINUOUS
10
1.91547
20
1.83724
11
1.91549
21
1.83742
0
LINE
8
BLACK
6
CONTINUOUS
10
1.91549
20
1.83742
11
1.91736
21
1.84117
0
LINE
8
BLACK
6
CONTINUOUS
10
1.91736
20
1.84117
11
1.91789
21
1.84188
0
LINE
8
BLACK
6
CONTINUOUS
10
1.91789
20
1.84188
11
1.91792
21
1.84193
0
LINE
8
BLACK
6
CONTINUOUS
10
1.91792
20
1.84193
11
1.91979
21
1.84381
0
LINE
8
BLACK
6
CONTINUOUS
10
1.91979
20
1.84381
11
1.92051
21
1.84432
0
LINE
8
BLACK
6
CONTINUOUS
10
1.92051
20
1.84432
11
1.92056
21
1.84436
0
LINE
8
BLACK
6
CONTINUOUS
10
1.92056
20
1.84436
11
1.92431
21
1.84624
0
LINE
8
BLACK
6
CONTINUOUS
10
1.92431
20
1.84624
11
1.92529
21
1.84653
0
LINE
8
BLACK
6
CONTINUOUS
10
1.92529
20
1.84653
11
1.92546
21
1.84649
0
LINE
8
BLACK
6
CONTINUOUS
10
1.92546
20
1.84649
11
1.92563
21
1.84655
0
LINE
8
BLACK
6
CONTINUOUS
10
1.92563
20
1.84655
11
1.935
21
1.84655
0
LINE
8
BLACK
6
CONTINUOUS
10
1.935
20
1.84655
11
1.93601
21
1.84637
0
LINE
8
BLACK
6
CONTINUOUS
10
1.93601
20
1.84637
11
1.93615
21
1.84626
0
LINE
8
BLACK
6
CONTINUOUS
10
1.93615
20
1.84626
11
1.93632
21
1.84624
0
LINE
8
BLACK
6
CONTINUOUS
10
1.93632
20
1.84624
11
1.93706
21
1.84587
0
LINE
8
BLACK
6
CONTINUOUS
10
1.93706
20
1.84587
11
1.93608
21
1.85564
0
LINE
8
BLACK
6
CONTINUOUS
10
1.93608
20
1.85564
11
1.92
21
1.85564
0
LINE
8
BLACK
6
CONTINUOUS
10
1.92
20
1.85564
11
1.91899
21
1.85582
0
LINE
8
BLACK
6
CONTINUOUS
10
1.91899
20
1.85582
11
1.91745
21
1.85712
0
LINE
8
BLACK
6
CONTINUOUS
10
1.91745
20
1.85712
11
1.9171
21
1.85911
0
LINE
8
BLACK
6
CONTINUOUS
10
1.9171
20
1.85911
11
1.91811
21
1.86086
0
LINE
8
BLACK
6
CONTINUOUS
10
1.91811
20
1.86086
11
1.92
21
1.86155
0
LINE
8
BLACK
6
CONTINUOUS
10
1.92
20
1.86155
11
1.93875
21
1.86155
0
LINE
8
BLACK
6
CONTINUOUS
10
1.93875
20
1.86155
11
1.93891
21
1.86152
0
LINE
8
BLACK
6
CONTINUOUS
10
1.98226
20
1.86049
11
1.98295
21
1.85859
0
LINE
8
BLACK
6
CONTINUOUS
10
1.98295
20
1.85859
11
1.98295
21
1.82672
0
LINE
8
BLACK
6
CONTINUOUS
10
1.98295
20
1.82672
11
1.98277
21
1.82571
0
LINE
8
BLACK
6
CONTINUOUS
10
1.98277
20
1.82571
11
1.98266
21
1.82558
0
LINE
8
BLACK
6
CONTINUOUS
10
1.98266
20
1.82558
11
1.98264
21
1.8254
0
LINE
8
BLACK
6
CONTINUOUS
10
1.98264
20
1.8254
11
1.98076
21
1.82165
0
LINE
8
BLACK
6
CONTINUOUS
10
1.98076
20
1.82165
11
1.98024
21
1.82094
0
LINE
8
BLACK
6
CONTINUOUS
10
1.98024
20
1.82094
11
1.98021
21
1.82089
0
LINE
8
BLACK
6
CONTINUOUS
10
1.98021
20
1.82089
11
1.97833
21
1.81901
0
LINE
8
BLACK
6
CONTINUOUS
10
1.97833
20
1.81901
11
1.97761
21
1.8185
0
LINE
8
BLACK
6
CONTINUOUS
10
1.97761
20
1.8185
11
1.97757
21
1.81846
0
LINE
8
BLACK
6
CONTINUOUS
10
1.97757
20
1.81846
11
1.97382
21
1.81658
0
LINE
8
BLACK
6
CONTINUOUS
10
1.97382
20
1.81658
11
1.97283
21
1.81629
0
LINE
8
BLACK
6
CONTINUOUS
10
1.97283
20
1.81629
11
1.97266
21
1.81633
0
LINE
8
BLACK
6
CONTINUOUS
10
1.97266
20
1.81633
11
1.9725
21
1.81627
0
LINE
8
BLACK
6
CONTINUOUS
10
1.9725
20
1.81627
11
1.965
21
1.81627
0
LINE
8
BLACK
6
CONTINUOUS
10
1.965
20
1.81627
11
1.96399
21
1.81645
0
LINE
8
BLACK
6
CONTINUOUS
10
1.96399
20
1.81645
11
1.96385
21
1.81656
0
LINE
8
BLACK
6
CONTINUOUS
10
1.96385
20
1.81656
11
1.96368
21
1.81658
0
LINE
8
BLACK
6
CONTINUOUS
10
1.96368
20
1.81658
11
1.95993
21
1.81846
0
LINE
8
BLACK
6
CONTINUOUS
10
1.95993
20
1.81846
11
1.95922
21
1.81898
0
LINE
8
BLACK
6
CONTINUOUS
10
1.95922
20
1.81898
11
1.95916
21
1.81901
0
LINE
8
BLACK
6
CONTINUOUS
10
1.95916
20
1.81901
11
1.95729
21
1.82089
0
LINE
8
BLACK
6
CONTINUOUS
10
1.95729
20
1.82089
11
1.95678
21
1.82161
0
LINE
8
BLACK
6
CONTINUOUS
10
1.95678
20
1.82161
11
1.95673
21
1.82165
0
LINE
8
BLACK
6
CONTINUOUS
10
1.95673
20
1.82165
11
1.95486
21
1.8254
0
LINE
8
BLACK
6
CONTINUOUS
10
1.95486
20
1.8254
11
1.95457
21
1.82639
0
LINE
8
BLACK
6
CONTINUOUS
10
1.95457
20
1.82639
11
1.95461
21
1.82656
0
LINE
8
BLACK
6
CONTINUOUS
10
1.95461
20
1.82656
11
1.95455
21
1.82672
0
LINE
8
BLACK
6
CONTINUOUS
10
1.95455
20
1.82672
11
1.95455
21
1.85859
0
LINE
8
BLACK
6
CONTINUOUS
10
1.95455
20
1.85859
11
1.95472
21
1.8596
0
LINE
8
BLACK
6
CONTINUOUS
10
1.95472
20
1.8596
11
1.95602
21
1.86115
0
LINE
8
BLACK
6
CONTINUOUS
10
1.95602
20
1.86115
11
1.95801
21
1.8615
0
LINE
8
BLACK
6
CONTINUOUS
10
1.95801
20
1.8615
11
1.95976
21
1.86049
0
LINE
8
BLACK
6
CONTINUOUS
10
1.95976
20
1.86049
11
1.96045
21
1.85859
0
LINE
8
BLACK
6
CONTINUOUS
10
1.96045
20
1.85859
11
1.96045
21
1.82742
0
LINE
8
BLACK
6
CONTINUOUS
10
1.96045
20
1.82742
11
1.9618
21
1.82472
0
LINE
8
BLACK
6
CONTINUOUS
10
1.9618
20
1.82472
11
1.963
21
1.82353
0
LINE
8
BLACK
6
CONTINUOUS
10
1.963
20
1.82353
11
1.9657
21
1.82218
0
LINE
8
BLACK
6
CONTINUOUS
10
1.9657
20
1.82218
11
1.9718
21
1.82218
0
LINE
8
BLACK
6
CONTINUOUS
10
1.9718
20
1.82218
11
1.9745
21
1.82353
0
LINE
8
BLACK
6
CONTINUOUS
10
1.9745
20
1.82353
11
1.97569
21
1.82472
0
LINE
8
BLACK
6
CONTINUOUS
10
1.97569
20
1.82472
11
1.97704
21
1.82742
0
LINE
8
BLACK
6
CONTINUOUS
10
1.97704
20
1.82742
11
1.97704
21
1.85859
0
LINE
8
BLACK
6
CONTINUOUS
10
1.97704
20
1.85859
11
1.97722
21
1.8596
0
LINE
8
BLACK
6
CONTINUOUS
10
1.97722
20
1.8596
11
1.97852
21
1.86115
0
LINE
8
BLACK
6
CONTINUOUS
10
1.97852
20
1.86115
11
1.98051
21
1.8615
0
LINE
8
BLACK
6
CONTINUOUS
10
1.98051
20
1.8615
11
1.98226
21
1.86049
0
LINE
8
BLACK
6
CONTINUOUS
10
2.07101
20
1.84111
11
2.07256
21
1.83981
0
LINE
8
BLACK
6
CONTINUOUS
10
2.07256
20
1.83981
11
2.07291
21
1.83782
0
LINE
8
BLACK
6
CONTINUOUS
10
2.07291
20
1.83782
11
2.0719
21
1.83607
0
LINE
8
BLACK
6
CONTINUOUS
10
2.0719
20
1.83607
11
2.07
21
1.83538
0
LINE
8
BLACK
6
CONTINUOUS
10
2.07
20
1.83538
11
2.01
21
1.83538
0
LINE
8
BLACK
6
CONTINUOUS
10
2.01
20
1.83538
11
2.00899
21
1.83556
0
LINE
8
BLACK
6
CONTINUOUS
10
2.00899
20
1.83556
11
2.00744
21
1.83686
0
LINE
8
BLACK
6
CONTINUOUS
10
2.00744
20
1.83686
11
2.00709
21
1.83885
0
LINE
8
BLACK
6
CONTINUOUS
10
2.00709
20
1.83885
11
2.0081
21
1.8406
0
LINE
8
BLACK
6
CONTINUOUS
10
2.0081
20
1.8406
11
2.01
21
1.84129
0
LINE
8
BLACK
6
CONTINUOUS
10
2.01
20
1.84129
11
2.07
21
1.84129
0
LINE
8
BLACK
6
CONTINUOUS
10
2.07
20
1.84129
11
2.07101
21
1.84111
0
LINE
8
BLACK
6
CONTINUOUS
10
1.85384
20
1.86292
11
1.85315
21
1.86459
0
LINE
8
BLACK
6
CONTINUOUS
10
1.85315
20
1.86459
11
1.85315
21
1.86814
0
LINE
8
BLACK
6
CONTINUOUS
10
1.85315
20
1.86814
11
1.78858
21
1.86814
0
LINE
8
BLACK
6
CONTINUOUS
10
1.78858
20
1.86814
11
1.78691
21
1.86883
0
LINE
8
BLACK
6
CONTINUOUS
10
1.78691
20
1.86883
11
1.78622
21
1.8705
0
LINE
8
BLACK
6
CONTINUOUS
10
1.78622
20
1.8705
11
1.78691
21
1.87217
0
LINE
8
BLACK
6
CONTINUOUS
10
1.78691
20
1.87217
11
1.78858
21
1.87286
0
LINE
8
BLACK
6
CONTINUOUS
10
1.78858
20
1.87286
11
1.85551
21
1.87286
0
LINE
8
BLACK
6
CONTINUOUS
10
1.85551
20
1.87286
11
1.85718
21
1.87217
0
LINE
8
BLACK
6
CONTINUOUS
10
1.85718
20
1.87217
11
1.85787
21
1.8705
0
LINE
8
BLACK
6
CONTINUOUS
10
1.85787
20
1.8705
11
1.85787
21
1.86696
0
LINE
8
BLACK
6
CONTINUOUS
10
1.85787
20
1.86696
11
2.04213
21
1.86696
0
LINE
8
BLACK
6
CONTINUOUS
10
2.04213
20
1.86696
11
2.04213
21
1.8705
0
LINE
8
BLACK
6
CONTINUOUS
10
2.04213
20
1.8705
11
2.04282
21
1.87217
0
LINE
8
BLACK
6
CONTINUOUS
10
2.04282
20
1.87217
11
2.04449
21
1.87286
0
LINE
8
BLACK
6
CONTINUOUS
10
2.04449
20
1.87286
11
2.04616
21
1.87217
0
LINE
8
BLACK
6
CONTINUOUS
10
2.04616
20
1.87217
11
2.04685
21
1.8705
0
LINE
8
BLACK
6
CONTINUOUS
10
2.04685
20
1.8705
11
2.04685
21
1.86459
0
LINE
8
BLACK
6
CONTINUOUS
10
2.04685
20
1.86459
11
2.04616
21
1.86292
0
LINE
8
BLACK
6
CONTINUOUS
10
2.04616
20
1.86292
11
2.04449
21
1.86223
0
LINE
8
BLACK
6
CONTINUOUS
10
2.04449
20
1.86223
11
1.85551
21
1.86223
0
LINE
8
BLACK
6
CONTINUOUS
10
1.85551
20
1.86223
11
1.85384
21
1.86292
0
LINE
8
BLACK
6
CONTINUOUS
10
2.04616
20
2.02374
11
2.04685
21
2.02207
0
LINE
8
BLACK
6
CONTINUOUS
10
2.04685
20
2.02207
11
2.04685
21
2.01617
0
LINE
8
BLACK
6
CONTINUOUS
10
2.04685
20
2.01617
11
2.04616
21
2.0145
0
LINE
8
BLACK
6
CONTINUOUS
10
2.04616
20
2.0145
11
2.04449
21
2.01381
0
LINE
8
BLACK
6
CONTINUOUS
10
2.04449
20
2.01381
11
2.04282
21
2.0145
0
LINE
8
BLACK
6
CONTINUOUS
10
2.04282
20
2.0145
11
2.04213
21
2.01617
0
LINE
8
BLACK
6
CONTINUOUS
10
2.04213
20
2.01617
11
2.04213
21
2.01971
0
LINE
8
BLACK
6
CONTINUOUS
10
2.04213
20
2.01971
11
1.85787
21
2.01971
0
LINE
8
BLACK
6
CONTINUOUS
10
1.85787
20
2.01971
11
1.85787
21
2.01617
0
LINE
8
BLACK
6
CONTINUOUS
10
1.85787
20
2.01617
11
1.85718
21
2.0145
0
LINE
8
BLACK
6
CONTINUOUS
10
1.85718
20
2.0145
11
1.85551
21
2.01381
0
LINE
8
BLACK
6
CONTINUOUS
10
1.85551
20
2.01381
11
1.85384
21
2.0145
0
LINE
8
BLACK
6
CONTINUOUS
10
1.85384
20
2.0145
11
1.85315
21
2.01617
0
LINE
8
BLACK
6
CONTINUOUS
10
1.85315
20
2.01617
11
1.85315
21
2.02207
0
LINE
8
BLACK
6
CONTINUOUS
10
1.85315
20
2.02207
11
1.85384
21
2.02374
0
LINE
8
BLACK
6
CONTINUOUS
10
1.85384
20
2.02374
11
1.85551
21
2.02444
0
LINE
8
BLACK
6
CONTINUOUS
10
1.85551
20
2.02444
11
2.04449
21
2.02444
0
LINE
8
BLACK
6
CONTINUOUS
10
2.04449
20
2.02444
11
2.04616
21
2.02374
0
LINE
8
BLACK
6
CONTINUOUS
10
2.07101
20
2.14152
11
2.07256
21
2.14023
0
LINE
8
BLACK
6
CONTINUOUS
10
2.07256
20
2.14023
11
2.07291
21
2.13824
0
LINE
8
BLACK
6
CONTINUOUS
10
2.07291
20
2.13824
11
2.0719
21
2.13649
0
LINE
8
BLACK
6
CONTINUOUS
10
2.0719
20
2.13649
11
2.07
21
2.1358
0
LINE
8
BLACK
6
CONTINUOUS
10
2.07
20
2.1358
11
2.01
21
2.1358
0
LINE
8
BLACK
6
CONTINUOUS
10
2.01
20
2.1358
11
2.00899
21
2.13598
0
LINE
8
BLACK
6
CONTINUOUS
10
2.00899
20
2.13598
11
2.00744
21
2.13727
0
LINE
8
BLACK
6
CONTINUOUS
10
2.00744
20
2.13727
11
2.00709
21
2.13926
0
LINE
8
BLACK
6
CONTINUOUS
10
2.00709
20
2.13926
11
2.0081
21
2.14101
0
LINE
8
BLACK
6
CONTINUOUS
10
2.0081
20
2.14101
11
2.01
21
2.1417
0
LINE
8
BLACK
6
CONTINUOUS
10
2.01
20
2.1417
11
2.07
21
2.1417
0
LINE
8
BLACK
6
CONTINUOUS
10
2.07
20
2.1417
11
2.07101
21
2.14152
0
LINE
8
BLACK
6
CONTINUOUS
10
2.07167
20
2.21542
11
2.07236
21
2.21375
0
LINE
8
BLACK
6
CONTINUOUS
10
2.07236
20
2.21375
11
2.07236
21
2.18375
0
LINE
8
BLACK
6
CONTINUOUS
10
2.07236
20
2.18375
11
2.07167
21
2.18208
0
LINE
8
BLACK
6
CONTINUOUS
10
2.07167
20
2.18208
11
2.07
21
2.18139
0
LINE
8
BLACK
6
CONTINUOUS
10
2.07
20
2.18139
11
2.06833
21
2.18208
0
LINE
8
BLACK
6
CONTINUOUS
10
2.06833
20
2.18208
11
2.06764
21
2.18375
0
LINE
8
BLACK
6
CONTINUOUS
10
2.06764
20
2.18375
11
2.06764
21
2.21375
0
LINE
8
BLACK
6
CONTINUOUS
10
2.06764
20
2.21375
11
2.06833
21
2.21542
0
LINE
8
BLACK
6
CONTINUOUS
10
2.06833
20
2.21542
11
2.07
21
2.21611
0
LINE
8
BLACK
6
CONTINUOUS
10
2.07
20
2.21611
11
2.07167
21
2.21542
0
LINE
8
BLACK
6
CONTINUOUS
10
2.01167
20
2.21542
11
2.01236
21
2.21375
0
LINE
8
BLACK
6
CONTINUOUS
10
2.01236
20
2.21375
11
2.01236
21
2.18375
0
LINE
8
BLACK
6
CONTINUOUS
10
2.01236
20
2.18375
11
2.01167
21
2.18208
0
LINE
8
BLACK
6
CONTINUOUS
10
2.01167
20
2.18208
11
2.01
21
2.18139
0
LINE
8
BLACK
6
CONTINUOUS
10
2.01
20
2.18139
11
2.00833
21
2.18208
0
LINE
8
BLACK
6
CONTINUOUS
10
2.00833
20
2.18208
11
2.00764
21
2.18375
0
LINE
8
BLACK
6
CONTINUOUS
10
2.00764
20
2.18375
11
2.00764
21
2.21375
0
LINE
8
BLACK
6
CONTINUOUS
10
2.00764
20
2.21375
11
2.00833
21
2.21542
0
LINE
8
BLACK
6
CONTINUOUS
10
2.00833
20
2.21542
11
2.01
21
2.21611
0
LINE
8
BLACK
6
CONTINUOUS
10
2.01
20
2.21611
11
2.01167
21
2.21542
0
LINE
8
BLACK
6
CONTINUOUS
10
2.07101
20
2.26152
11
2.07256
21
2.26023
0
LINE
8
BLACK
6
CONTINUOUS
10
2.07256
20
2.26023
11
2.07291
21
2.25824
0
LINE
8
BLACK
6
CONTINUOUS
10
2.07291
20
2.25824
11
2.0719
21
2.25649
0
LINE
8
BLACK
6
CONTINUOUS
10
2.0719
20
2.25649
11
2.07
21
2.2558
0
LINE
8
BLACK
6
CONTINUOUS
10
2.07
20
2.2558
11
2.01
21
2.2558
0
LINE
8
BLACK
6
CONTINUOUS
10
2.01
20
2.2558
11
2.00899
21
2.25598
0
LINE
8
BLACK
6
CONTINUOUS
10
2.00899
20
2.25598
11
2.00744
21
2.25727
0
LINE
8
BLACK
6
CONTINUOUS
10
2.00744
20
2.25727
11
2.00709
21
2.25926
0
LINE
8
BLACK
6
CONTINUOUS
10
2.00709
20
2.25926
11
2.0081
21
2.26101
0
LINE
8
BLACK
6
CONTINUOUS
10
2.0081
20
2.26101
11
2.01
21
2.2617
0
LINE
8
BLACK
6
CONTINUOUS
10
2.01
20
2.2617
11
2.07
21
2.2617
0
LINE
8
BLACK
6
CONTINUOUS
10
2.07
20
2.2617
11
2.07101
21
2.26152
0
LINE
8
BLACK
6
CONTINUOUS
10
1.85384
20
2.28459
11
1.85315
21
2.28626
0
LINE
8
BLACK
6
CONTINUOUS
10
1.85315
20
2.28626
11
1.85315
21
2.2898
0
LINE
8
BLACK
6
CONTINUOUS
10
1.85315
20
2.2898
11
1.78858
21
2.2898
0
LINE
8
BLACK
6
CONTINUOUS
10
1.78858
20
2.2898
11
1.78691
21
2.2905
0
LINE
8
BLACK
6
CONTINUOUS
10
1.78691
20
2.2905
11
1.78622
21
2.29217
0
LINE
8
BLACK
6
CONTINUOUS
10
1.78622
20
2.29217
11
1.78691
21
2.29384
0
LINE
8
BLACK
6
CONTINUOUS
10
1.78691
20
2.29384
11
1.78858
21
2.29453
0
LINE
8
BLACK
6
CONTINUOUS
10
1.78858
20
2.29453
11
1.85551
21
2.29453
0
LINE
8
BLACK
6
CONTINUOUS
10
1.85551
20
2.29453
11
1.85718
21
2.29384
0
LINE
8
BLACK
6
CONTINUOUS
10
1.85718
20
2.29384
11
1.85787
21
2.29217
0
LINE
8
BLACK
6
CONTINUOUS
10
1.85787
20
2.29217
11
1.85787
21
2.28862
0
LINE
8
BLACK
6
CONTINUOUS
10
1.85787
20
2.28862
11
2.04213
21
2.28862
0
LINE
8
BLACK
6
CONTINUOUS
10
2.04213
20
2.28862
11
2.04213
21
2.29217
0
LINE
8
BLACK
6
CONTINUOUS
10
2.04213
20
2.29217
11
2.04282
21
2.29384
0
LINE
8
BLACK
6
CONTINUOUS
10
2.04282
20
2.29384
11
2.04449
21
2.29453
0
LINE
8
BLACK
6
CONTINUOUS
10
2.04449
20
2.29453
11
2.04616
21
2.29384
0
LINE
8
BLACK
6
CONTINUOUS
10
2.04616
20
2.29384
11
2.04685
21
2.29217
0
LINE
8
BLACK
6
CONTINUOUS
10
2.04685
20
2.29217
11
2.04685
21
2.28626
0
LINE
8
BLACK
6
CONTINUOUS
10
2.04685
20
2.28626
11
2.04616
21
2.28459
0
LINE
8
BLACK
6
CONTINUOUS
10
2.04616
20
2.28459
11
2.04449
21
2.2839
0
LINE
8
BLACK
6
CONTINUOUS
10
2.04449
20
2.2839
11
1.85551
21
2.2839
0
LINE
8
BLACK
6
CONTINUOUS
10
1.85551
20
2.2839
11
1.85384
21
2.28459
0
LINE
8
BLACK
6
CONTINUOUS
10
2.20226
20
2.37846
11
2.20295
21
2.37656
0
LINE
8
BLACK
6
CONTINUOUS
10
2.20295
20
2.37656
11
2.20295
21
2.34469
0
LINE
8
BLACK
6
CONTINUOUS
10
2.20295
20
2.34469
11
2.20277
21
2.34368
0
LINE
8
BLACK
6
CONTINUOUS
10
2.20277
20
2.34368
11
2.20266
21
2.34354
0
LINE
8
BLACK
6
CONTINUOUS
10
2.20266
20
2.34354
11
2.20264
21
2.34337
0
LINE
8
BLACK
6
CONTINUOUS
10
2.20264
20
2.34337
11
2.20076
21
2.33962
0
LINE
8
BLACK
6
CONTINUOUS
10
2.20076
20
2.33962
11
2.20024
21
2.33891
0
LINE
8
BLACK
6
CONTINUOUS
10
2.20024
20
2.33891
11
2.20021
21
2.33885
0
LINE
8
BLACK
6
CONTINUOUS
10
2.20021
20
2.33885
11
2.19833
21
2.33698
0
LINE
8
BLACK
6
CONTINUOUS
10
2.19833
20
2.33698
11
2.19761
21
2.33647
0
LINE
8
BLACK
6
CONTINUOUS
10
2.19761
20
2.33647
11
2.19757
21
2.33642
0
LINE
8
BLACK
6
CONTINUOUS
10
2.19757
20
2.33642
11
2.19382
21
2.33455
0
LINE
8
BLACK
6
CONTINUOUS
10
2.19382
20
2.33455
11
2.19283
21
2.33426
0
LINE
8
BLACK
6
CONTINUOUS
10
2.19283
20
2.33426
11
2.19266
21
2.3343
0
LINE
8
BLACK
6
CONTINUOUS
10
2.19266
20
2.3343
11
2.1925
21
2.33424
0
LINE
8
BLACK
6
CONTINUOUS
10
2.1925
20
2.33424
11
2.185
21
2.33424
0
LINE
8
BLACK
6
CONTINUOUS
10
2.185
20
2.33424
11
2.18399
21
2.33442
0
LINE
8
BLACK
6
CONTINUOUS
10
2.18399
20
2.33442
11
2.18385
21
2.33453
0
LINE
8
BLACK
6
CONTINUOUS
10
2.18385
20
2.33453
11
2.18368
21
2.33455
0
LINE
8
BLACK
6
CONTINUOUS
10
2.18368
20
2.33455
11
2.17993
21
2.33642
0
LINE
8
BLACK
6
CONTINUOUS
10
2.17993
20
2.33642
11
2.17922
21
2.33695
0
LINE
8
BLACK
6
CONTINUOUS
10
2.17922
20
2.33695
11
2.17916
21
2.33698
0
LINE
8
BLACK
6
CONTINUOUS
10
2.17916
20
2.33698
11
2.17729
21
2.33885
0
LINE
8
BLACK
6
CONTINUOUS
10
2.17729
20
2.33885
11
2.17678
21
2.33957
0
LINE
8
BLACK
6
CONTINUOUS
10
2.17678
20
2.33957
11
2.17673
21
2.33962
0
LINE
8
BLACK
6
CONTINUOUS
10
2.17673
20
2.33962
11
2.17486
21
2.34337
0
LINE
8
BLACK
6
CONTINUOUS
10
2.17486
20
2.34337
11
2.17457
21
2.34435
0
LINE
8
BLACK
6
CONTINUOUS
10
2.17457
20
2.34435
11
2.17461
21
2.34452
0
LINE
8
BLACK
6
CONTINUOUS
10
2.17461
20
2.34452
11
2.17455
21
2.34469
0
LINE
8
BLACK
6
CONTINUOUS
10
2.17455
20
2.34469
11
2.17455
21
2.37656
0
LINE
8
BLACK
6
CONTINUOUS
10
2.17455
20
2.37656
11
2.17472
21
2.37757
0
LINE
8
BLACK
6
CONTINUOUS
10
2.17472
20
2.37757
11
2.17602
21
2.37912
0
LINE
8
BLACK
6
CONTINUOUS
10
2.17602
20
2.37912
11
2.17801
21
2.37947
0
LINE
8
BLACK
6
CONTINUOUS
10
2.17801
20
2.37947
11
2.17976
21
2.37846
0
LINE
8
BLACK
6
CONTINUOUS
10
2.17976
20
2.37846
11
2.18045
21
2.37656
0
LINE
8
BLACK
6
CONTINUOUS
10
2.18045
20
2.37656
11
2.18045
21
2.34539
0
LINE
8
BLACK
6
CONTINUOUS
10
2.18045
20
2.34539
11
2.1818
21
2.34269
0
LINE
8
BLACK
6
CONTINUOUS
10
2.1818
20
2.34269
11
2.183
21
2.34149
0
LINE
8
BLACK
6
CONTINUOUS
10
2.183
20
2.34149
11
2.1857
21
2.34014
0
LINE
8
BLACK
6
CONTINUOUS
10
2.1857
20
2.34014
11
2.1918
21
2.34014
0
LINE
8
BLACK
6
CONTINUOUS
10
2.1918
20
2.34014
11
2.1945
21
2.34149
0
LINE
8
BLACK
6
CONTINUOUS
10
2.1945
20
2.34149
11
2.19569
21
2.34269
0
LINE
8
BLACK
6
CONTINUOUS
10
2.19569
20
2.34269
11
2.19704
21
2.34539
0
LINE
8
BLACK
6
CONTINUOUS
10
2.19704
20
2.34539
11
2.19704
21
2.37656
0
LINE
8
BLACK
6
CONTINUOUS
10
2.19704
20
2.37656
11
2.19722
21
2.37757
0
LINE
8
BLACK
6
CONTINUOUS
10
2.19722
20
2.37757
11
2.19852
21
2.37912
0
LINE
8
BLACK
6
CONTINUOUS
10
2.19852
20
2.37912
11
2.20051
21
2.37947
0
LINE
8
BLACK
6
CONTINUOUS
10
2.20051
20
2.37947
11
2.20226
21
2.37846
0
LINE
8
BLACK
6
CONTINUOUS
10
2.1528
20
2.38095
11
2.15405
21
2.37937
0
LINE
8
BLACK
6
CONTINUOUS
10
2.15405
20
2.37937
11
2.16343
21
2.35125
0
LINE
8
BLACK
6
CONTINUOUS
10
2.16343
20
2.35125
11
2.16358
21
2.35023
0
LINE
8
BLACK
6
CONTINUOUS
10
2.16358
20
2.35023
11
2.16349
21
2.35002
0
LINE
8
BLACK
6
CONTINUOUS
10
2.16349
20
2.35002
11
2.16353
21
2.3498
0
LINE
8
BLACK
6
CONTINUOUS
10
2.16353
20
2.3498
11
2.16313
21
2.3491
0
LINE
8
BLACK
6
CONTINUOUS
10
2.16313
20
2.3491
11
2.16284
21
2.34835
0
LINE
8
BLACK
6
CONTINUOUS
10
2.16284
20
2.34835
11
2.16264
21
2.34825
0
LINE
8
BLACK
6
CONTINUOUS
10
2.16264
20
2.34825
11
2.16252
21
2.34805
0
LINE
8
BLACK
6
CONTINUOUS
10
2.16252
20
2.34805
11
2.16177
21
2.34778
0
LINE
8
BLACK
6
CONTINUOUS
10
2.16177
20
2.34778
11
2.16106
21
2.34739
0
LINE
8
BLACK
6
CONTINUOUS
10
2.16106
20
2.34739
11
2.16084
21
2.34744
0
LINE
8
BLACK
6
CONTINUOUS
10
2.16084
20
2.34744
11
2.16063
21
2.34736
0
LINE
8
BLACK
6
CONTINUOUS
10
2.16063
20
2.34736
11
2.14483
21
2.34736
0
LINE
8
BLACK
6
CONTINUOUS
10
2.14483
20
2.34736
11
2.14483
21
2.33719
0
LINE
8
BLACK
6
CONTINUOUS
10
2.14483
20
2.33719
11
2.14465
21
2.33618
0
LINE
8
BLACK
6
CONTINUOUS
10
2.14465
20
2.33618
11
2.14335
21
2.33463
0
LINE
8
BLACK
6
CONTINUOUS
10
2.14335
20
2.33463
11
2.14137
21
2.33428
0
LINE
8
BLACK
6
CONTINUOUS
10
2.14137
20
2.33428
11
2.13962
21
2.33529
0
LINE
8
BLACK
6
CONTINUOUS
10
2.13962
20
2.33529
11
2.13893
21
2.33719
0
LINE
8
BLACK
6
CONTINUOUS
10
2.13893
20
2.33719
11
2.13893
21
2.34736
0
LINE
8
BLACK
6
CONTINUOUS
10
2.13893
20
2.34736
11
2.13625
21
2.34736
0
LINE
8
BLACK
6
CONTINUOUS
10
2.13625
20
2.34736
11
2.13524
21
2.34754
0
LINE
8
BLACK
6
CONTINUOUS
10
2.13524
20
2.34754
11
2.1337
21
2.34884
0
LINE
8
BLACK
6
CONTINUOUS
10
2.1337
20
2.34884
11
2.13335
21
2.35083
0
LINE
8
BLACK
6
CONTINUOUS
10
2.13335
20
2.35083
11
2.13436
21
2.35258
0
LINE
8
BLACK
6
CONTINUOUS
10
2.13436
20
2.35258
11
2.13625
21
2.35327
0
LINE
8
BLACK
6
CONTINUOUS
10
2.13625
20
2.35327
11
2.13893
21
2.35327
0
LINE
8
BLACK
6
CONTINUOUS
10
2.13893
20
2.35327
11
2.13893
21
2.36344
0
LINE
8
BLACK
6
CONTINUOUS
10
2.13893
20
2.36344
11
2.1391
21
2.36445
0
LINE
8
BLACK
6
CONTINUOUS
10
2.1391
20
2.36445
11
2.1404
21
2.36599
0
LINE
8
BLACK
6
CONTINUOUS
10
2.1404
20
2.36599
11
2.14239
21
2.36634
0
LINE
8
BLACK
6
CONTINUOUS
10
2.14239
20
2.36634
11
2.14414
21
2.36533
0
LINE
8
BLACK
6
CONTINUOUS
10
2.14414
20
2.36533
11
2.14483
21
2.36344
0
LINE
8
BLACK
6
CONTINUOUS
10
2.14483
20
2.36344
11
2.14483
21
2.35327
0
LINE
8
BLACK
6
CONTINUOUS
10
2.14483
20
2.35327
11
2.15653
21
2.35327
0
LINE
8
BLACK
6
CONTINUOUS
10
2.15653
20
2.35327
11
2.14845
21
2.3775
0
LINE
8
BLACK
6
CONTINUOUS
10
2.14845
20
2.3775
11
2.1483
21
2.37852
0
LINE
8
BLACK
6
CONTINUOUS
10
2.1483
20
2.37852
11
2.14904
21
2.38039
0
LINE
8
BLACK
6
CONTINUOUS
10
2.14904
20
2.38039
11
2.15082
21
2.38136
0
LINE
8
BLACK
6
CONTINUOUS
10
2.15082
20
2.38136
11
2.1528
21
2.38095
0
LINE
8
BLACK
6
CONTINUOUS
10
2.04616
20
2.44541
11
2.04685
21
2.44374
0
LINE
8
BLACK
6
CONTINUOUS
10
2.04685
20
2.44374
11
2.04685
21
2.43783
0
LINE
8
BLACK
6
CONTINUOUS
10
2.04685
20
2.43783
11
2.04616
21
2.43616
0
LINE
8
BLACK
6
CONTINUOUS
10
2.04616
20
2.43616
11
2.04449
21
2.43547
0
LINE
8
BLACK
6
CONTINUOUS
10
2.04449
20
2.43547
11
2.04282
21
2.43616
0
LINE
8
BLACK
6
CONTINUOUS
10
2.04282
20
2.43616
11
2.04213
21
2.43783
0
LINE
8
BLACK
6
CONTINUOUS
10
2.04213
20
2.43783
11
2.04213
21
2.44138
0
LINE
8
BLACK
6
CONTINUOUS
10
2.04213
20
2.44138
11
1.85787
21
2.44138
0
LINE
8
BLACK
6
CONTINUOUS
10
1.85787
20
2.44138
11
1.85787
21
2.43783
0
LINE
8
BLACK
6
CONTINUOUS
10
1.85787
20
2.43783
11
1.85718
21
2.43616
0
LINE
8
BLACK
6
CONTINUOUS
10
1.85718
20
2.43616
11
1.85551
21
2.43547
0
LINE
8
BLACK
6
CONTINUOUS
10
1.85551
20
2.43547
11
1.85384
21
2.43616
0
LINE
8
BLACK
6
CONTINUOUS
10
1.85384
20
2.43616
11
1.85315
21
2.43783
0
LINE
8
BLACK
6
CONTINUOUS
10
1.85315
20
2.43783
11
1.85315
21
2.44374
0
LINE
8
BLACK
6
CONTINUOUS
10
1.85315
20
2.44374
11
1.85384
21
2.44541
0
LINE
8
BLACK
6
CONTINUOUS
10
1.85384
20
2.44541
11
1.85551
21
2.4461
0
LINE
8
BLACK
6
CONTINUOUS
10
1.85551
20
2.4461
11
2.04449
21
2.4461
0
LINE
8
BLACK
6
CONTINUOUS
10
2.04449
20
2.4461
11
2.04616
21
2.44541
0
LINE
8
BLACK
6
CONTINUOUS
10
2.60101
20
2.46277
11
2.60256
21
2.46148
0
LINE
8
BLACK
6
CONTINUOUS
10
2.60256
20
2.46148
11
2.60291
21
2.45949
0
LINE
8
BLACK
6
CONTINUOUS
10
2.60291
20
2.45949
11
2.6019
21
2.45774
0
LINE
8
BLACK
6
CONTINUOUS
10
2.6019
20
2.45774
11
2.6
21
2.45705
0
LINE
8
BLACK
6
CONTINUOUS
10
2.6
20
2.45705
11
2.54
21
2.45705
0
LINE
8
BLACK
6
CONTINUOUS
10
2.54
20
2.45705
11
2.53899
21
2.45723
0
LINE
8
BLACK
6
CONTINUOUS
10
2.53899
20
2.45723
11
2.53744
21
2.45852
0
LINE
8
BLACK
6
CONTINUOUS
10
2.53744
20
2.45852
11
2.53709
21
2.46051
0
LINE
8
BLACK
6
CONTINUOUS
10
2.53709
20
2.46051
11
2.5381
21
2.46226
0
LINE
8
BLACK
6
CONTINUOUS
10
2.5381
20
2.46226
11
2.54
21
2.46295
0
LINE
8
BLACK
6
CONTINUOUS
10
2.54
20
2.46295
11
2.6
21
2.46295
0
LINE
8
BLACK
6
CONTINUOUS
10
2.6
20
2.46295
11
2.60101
21
2.46277
0
LINE
8
BLACK
6
CONTINUOUS
10
2.54167
20
2.53667
11
2.54236
21
2.535
0
LINE
8
BLACK
6
CONTINUOUS
10
2.54236
20
2.535
11
2.54236
21
2.505
0
LINE
8
BLACK
6
CONTINUOUS
10
2.54236
20
2.505
11
2.54167
21
2.50333
0
LINE
8
BLACK
6
CONTINUOUS
10
2.54167
20
2.50333
11
2.54
21
2.50264
0
LINE
8
BLACK
6
CONTINUOUS
10
2.54
20
2.50264
11
2.53833
21
2.50333
0
LINE
8
BLACK
6
CONTINUOUS
10
2.53833
20
2.50333
11
2.53764
21
2.505
0
LINE
8
BLACK
6
CONTINUOUS
10
2.53764
20
2.505
11
2.53764
21
2.535
0
LINE
8
BLACK
6
CONTINUOUS
10
2.53764
20
2.535
11
2.53833
21
2.53667
0
LINE
8
BLACK
6
CONTINUOUS
10
2.53833
20
2.53667
11
2.54
21
2.53736
0
LINE
8
BLACK
6
CONTINUOUS
10
2.54
20
2.53736
11
2.54167
21
2.53667
0
LINE
8
BLACK
6
CONTINUOUS
10
2.60167
20
2.53667
11
2.60236
21
2.535
0
LINE
8
BLACK
6
CONTINUOUS
10
2.60236
20
2.535
11
2.60236
21
2.505
0
LINE
8
BLACK
6
CONTINUOUS
10
2.60236
20
2.505
11
2.60167
21
2.50333
0
LINE
8
BLACK
6
CONTINUOUS
10
2.60167
20
2.50333
11
2.6
21
2.50264
0
LINE
8
BLACK
6
CONTINUOUS
10
2.6
20
2.50264
11
2.59833
21
2.50333
0
LINE
8
BLACK
6
CONTINUOUS
10
2.59833
20
2.50333
11
2.59764
21
2.505
0
LINE
8
BLACK
6
CONTINUOUS
10
2.59764
20
2.505
11
2.59764
21
2.535
0
LINE
8
BLACK
6
CONTINUOUS
10
2.59764
20
2.535
11
2.59833
21
2.53667
0
LINE
8
BLACK
6
CONTINUOUS
10
2.59833
20
2.53667
11
2.6
21
2.53736
0
LINE
8
BLACK
6
CONTINUOUS
10
2.6
20
2.53736
11
2.60167
21
2.53667
0
LINE
8
BLACK
6
CONTINUOUS
10
2.69061
20
2.53455
11
2.6913
21
2.53288
0
LINE
8
BLACK
6
CONTINUOUS
10
2.6913
20
2.53288
11
2.6913
21
2.51231
0
LINE
8
BLACK
6
CONTINUOUS
10
2.6913
20
2.51231
11
2.69061
21
2.51064
0
LINE
8
BLACK
6
CONTINUOUS
10
2.69061
20
2.51064
11
2.68894
21
2.50995
0
LINE
8
BLACK
6
CONTINUOUS
10
2.68894
20
2.50995
11
2.68727
21
2.51064
0
LINE
8
BLACK
6
CONTINUOUS
10
2.68727
20
2.51064
11
2.68657
21
2.51231
0
LINE
8
BLACK
6
CONTINUOUS
10
2.68657
20
2.51231
11
2.68657
21
2.53288
0
LINE
8
BLACK
6
CONTINUOUS
10
2.68657
20
2.53288
11
2.68727
21
2.53455
0
LINE
8
BLACK
6
CONTINUOUS
10
2.68727
20
2.53455
11
2.68894
21
2.53525
0
LINE
8
BLACK
6
CONTINUOUS
10
2.68894
20
2.53525
11
2.69061
21
2.53455
0
LINE
8
BLACK
6
CONTINUOUS
10
2.63273
20
2.53455
11
2.63343
21
2.53288
0
LINE
8
BLACK
6
CONTINUOUS
10
2.63343
20
2.53288
11
2.63343
21
2.51231
0
LINE
8
BLACK
6
CONTINUOUS
10
2.63343
20
2.51231
11
2.63273
21
2.51064
0
LINE
8
BLACK
6
CONTINUOUS
10
2.63273
20
2.51064
11
2.63106
21
2.50995
0
LINE
8
BLACK
6
CONTINUOUS
10
2.63106
20
2.50995
11
2.62939
21
2.51064
0
LINE
8
BLACK
6
CONTINUOUS
10
2.62939
20
2.51064
11
2.6287
21
2.51231
0
LINE
8
BLACK
6
CONTINUOUS
10
2.6287
20
2.51231
11
2.6287
21
2.53288
0
LINE
8
BLACK
6
CONTINUOUS
10
2.6287
20
2.53288
11
2.62939
21
2.53455
0
LINE
8
BLACK
6
CONTINUOUS
10
2.62939
20
2.53455
11
2.63106
21
2.53525
0
LINE
8
BLACK
6
CONTINUOUS
10
2.63106
20
2.53525
11
2.63273
21
2.53455
0
LINE
8
BLACK
6
CONTINUOUS
10
2.07101
20
2.56194
11
2.07256
21
2.56064
0
LINE
8
BLACK
6
CONTINUOUS
10
2.07256
20
2.56064
11
2.07291
21
2.55865
0
LINE
8
BLACK
6
CONTINUOUS
10
2.07291
20
2.55865
11
2.0719
21
2.5569
0
LINE
8
BLACK
6
CONTINUOUS
10
2.0719
20
2.5569
11
2.07
21
2.55621
0
LINE
8
BLACK
6
CONTINUOUS
10
2.07
20
2.55621
11
2.01
21
2.55621
0
LINE
8
BLACK
6
CONTINUOUS
10
2.01
20
2.55621
11
2.00899
21
2.55639
0
LINE
8
BLACK
6
CONTINUOUS
10
2.00899
20
2.55639
11
2.00744
21
2.55769
0
LINE
8
BLACK
6
CONTINUOUS
10
2.00744
20
2.55769
11
2.00709
21
2.55968
0
LINE
8
BLACK
6
CONTINUOUS
10
2.00709
20
2.55968
11
2.0081
21
2.56143
0
LINE
8
BLACK
6
CONTINUOUS
10
2.0081
20
2.56143
11
2.01
21
2.56212
0
LINE
8
BLACK
6
CONTINUOUS
10
2.01
20
2.56212
11
2.07
21
2.56212
0
LINE
8
BLACK
6
CONTINUOUS
10
2.07
20
2.56212
11
2.07101
21
2.56194
0
LINE
8
BLACK
6
CONTINUOUS
10
2.77337
20
2.57447
11
2.77268
21
2.57614
0
LINE
8
BLACK
6
CONTINUOUS
10
2.77268
20
2.57614
11
2.77268
21
2.78874
0
LINE
8
BLACK
6
CONTINUOUS
10
2.77268
20
2.78874
11
2.77337
21
2.79041
0
LINE
8
BLACK
6
CONTINUOUS
10
2.77337
20
2.79041
11
2.77504
21
2.7911
0
LINE
8
BLACK
6
CONTINUOUS
10
2.77504
20
2.7911
11
2.77671
21
2.79041
0
LINE
8
BLACK
6
CONTINUOUS
10
2.77671
20
2.79041
11
2.7774
21
2.78874
0
LINE
8
BLACK
6
CONTINUOUS
10
2.7774
20
2.78874
11
2.7774
21
2.5785
0
LINE
8
BLACK
6
CONTINUOUS
10
2.7774
20
2.5785
11
2.9026
21
2.5785
0
LINE
8
BLACK
6
CONTINUOUS
10
2.9026
20
2.5785
11
2.9026
21
2.78874
0
LINE
8
BLACK
6
CONTINUOUS
10
2.9026
20
2.78874
11
2.90329
21
2.79041
0
LINE
8
BLACK
6
CONTINUOUS
10
2.90329
20
2.79041
11
2.90496
21
2.7911
0
LINE
8
BLACK
6
CONTINUOUS
10
2.90496
20
2.7911
11
2.90663
21
2.79041
0
LINE
8
BLACK
6
CONTINUOUS
10
2.90663
20
2.79041
11
2.90732
21
2.78874
0
LINE
8
BLACK
6
CONTINUOUS
10
2.90732
20
2.78874
11
2.90732
21
2.57614
0
LINE
8
BLACK
6
CONTINUOUS
10
2.90732
20
2.57614
11
2.90663
21
2.57447
0
LINE
8
BLACK
6
CONTINUOUS
10
2.90663
20
2.57447
11
2.90496
21
2.57378
0
LINE
8
BLACK
6
CONTINUOUS
10
2.90496
20
2.57378
11
2.77504
21
2.57378
0
LINE
8
BLACK
6
CONTINUOUS
10
2.77504
20
2.57378
11
2.77337
21
2.57447
0
LINE
8
BLACK
6
CONTINUOUS
10
2.60101
20
2.58277
11
2.60256
21
2.58148
0
LINE
8
BLACK
6
CONTINUOUS
10
2.60256
20
2.58148
11
2.60291
21
2.57949
0
LINE
8
BLACK
6
CONTINUOUS
10
2.60291
20
2.57949
11
2.6019
21
2.57774
0
LINE
8
BLACK
6
CONTINUOUS
10
2.6019
20
2.57774
11
2.6
21
2.57705
0
LINE
8
BLACK
6
CONTINUOUS
10
2.6
20
2.57705
11
2.54
21
2.57705
0
LINE
8
BLACK
6
CONTINUOUS
10
2.54
20
2.57705
11
2.53899
21
2.57723
0
LINE
8
BLACK
6
CONTINUOUS
10
2.53899
20
2.57723
11
2.53744
21
2.57852
0
LINE
8
BLACK
6
CONTINUOUS
10
2.53744
20
2.57852
11
2.53709
21
2.58051
0
LINE
8
BLACK
6
CONTINUOUS
10
2.53709
20
2.58051
11
2.5381
21
2.58226
0
LINE
8
BLACK
6
CONTINUOUS
10
2.5381
20
2.58226
11
2.54
21
2.58295
0
LINE
8
BLACK
6
CONTINUOUS
10
2.54
20
2.58295
11
2.6
21
2.58295
0
LINE
8
BLACK
6
CONTINUOUS
10
2.6
20
2.58295
11
2.60101
21
2.58277
0
LINE
8
BLACK
6
CONTINUOUS
10
2.01167
20
2.63584
11
2.01236
21
2.63417
0
LINE
8
BLACK
6
CONTINUOUS
10
2.01236
20
2.63417
11
2.01236
21
2.60417
0
LINE
8
BLACK
6
CONTINUOUS
10
2.01236
20
2.60417
11
2.01167
21
2.6025
0
LINE
8
BLACK
6
CONTINUOUS
10
2.01167
20
2.6025
11
2.01
21
2.6018
0
LINE
8
BLACK
6
CONTINUOUS
10
2.01
20
2.6018
11
2.00833
21
2.6025
0
LINE
8
BLACK
6
CONTINUOUS
10
2.00833
20
2.6025
11
2.00764
21
2.60417
0
LINE
8
BLACK
6
CONTINUOUS
10
2.00764
20
2.60417
11
2.00764
21
2.63417
0
LINE
8
BLACK
6
CONTINUOUS
10
2.00764
20
2.63417
11
2.00833
21
2.63584
0
LINE
8
BLACK
6
CONTINUOUS
10
2.00833
20
2.63584
11
2.01
21
2.63653
0
LINE
8
BLACK
6
CONTINUOUS
10
2.01
20
2.63653
11
2.01167
21
2.63584
0
LINE
8
BLACK
6
CONTINUOUS
10
2.07167
20
2.63584
11
2.07236
21
2.63417
0
LINE
8
BLACK
6
CONTINUOUS
10
2.07236
20
2.63417
11
2.07236
21
2.60417
0
LINE
8
BLACK
6
CONTINUOUS
10
2.07236
20
2.60417
11
2.07167
21
2.6025
0
LINE
8
BLACK
6
CONTINUOUS
10
2.07167
20
2.6025
11
2.07
21
2.6018
0
LINE
8
BLACK
6
CONTINUOUS
10
2.07
20
2.6018
11
2.06833
21
2.6025
0
LINE
8
BLACK
6
CONTINUOUS
10
2.06833
20
2.6025
11
2.06764
21
2.60417
0
LINE
8
BLACK
6
CONTINUOUS
10
2.06764
20
2.60417
11
2.06764
21
2.63417
0
LINE
8
BLACK
6
CONTINUOUS
10
2.06764
20
2.63417
11
2.06833
21
2.63584
0
LINE
8
BLACK
6
CONTINUOUS
10
2.06833
20
2.63584
11
2.07
21
2.63653
0
LINE
8
BLACK
6
CONTINUOUS
10
2.07
20
2.63653
11
2.07167
21
2.63584
0
LINE
8
BLACK
6
CONTINUOUS
10
2.67667
20
2.64084
11
2.6768
21
2.64085
0
LINE
8
BLACK
6
CONTINUOUS
10
2.6768
20
2.64085
11
2.67753
21
2.64034
0
LINE
8
BLACK
6
CONTINUOUS
10
2.67753
20
2.64034
11
2.6783
21
2.6399
0
LINE
8
BLACK
6
CONTINUOUS
10
2.6783
20
2.6399
11
2.67835
21
2.63977
0
LINE
8
BLACK
6
CONTINUOUS
10
2.67835
20
2.63977
11
2.67846
21
2.63969
0
LINE
8
BLACK
6
CONTINUOUS
10
2.67846
20
2.63969
11
2.67869
21
2.63884
0
LINE
8
BLACK
6
CONTINUOUS
10
2.67869
20
2.63884
11
2.67899
21
2.638
0
LINE
8
BLACK
6
CONTINUOUS
10
2.67899
20
2.638
11
2.67899
21
2.61363
0
LINE
8
BLACK
6
CONTINUOUS
10
2.67899
20
2.61363
11
2.67881
21
2.61262
0
LINE
8
BLACK
6
CONTINUOUS
10
2.67881
20
2.61262
11
2.67751
21
2.61107
0
LINE
8
BLACK
6
CONTINUOUS
10
2.67751
20
2.61107
11
2.67553
21
2.61072
0
LINE
8
BLACK
6
CONTINUOUS
10
2.67553
20
2.61072
11
2.67378
21
2.61173
0
LINE
8
BLACK
6
CONTINUOUS
10
2.67378
20
2.61173
11
2.67309
21
2.61363
0
LINE
8
BLACK
6
CONTINUOUS
10
2.67309
20
2.61363
11
2.67309
21
2.63087
0
LINE
8
BLACK
6
CONTINUOUS
10
2.67309
20
2.63087
11
2.65563
21
2.61342
0
LINE
8
BLACK
6
CONTINUOUS
10
2.65563
20
2.61342
11
2.65479
21
2.61283
0
LINE
8
BLACK
6
CONTINUOUS
10
2.65479
20
2.61283
11
2.65461
21
2.61281
0
LINE
8
BLACK
6
CONTINUOUS
10
2.65461
20
2.61281
11
2.65447
21
2.6127
0
LINE
8
BLACK
6
CONTINUOUS
10
2.65447
20
2.6127
11
2.64885
21
2.61083
0
LINE
8
BLACK
6
CONTINUOUS
10
2.64885
20
2.61083
11
2.64798
21
2.6107
0
LINE
8
BLACK
6
CONTINUOUS
10
2.64798
20
2.6107
11
2.64792
21
2.61068
0
LINE
8
BLACK
6
CONTINUOUS
10
2.64792
20
2.61068
11
2.64417
21
2.61068
0
LINE
8
BLACK
6
CONTINUOUS
10
2.64417
20
2.61068
11
2.64316
21
2.61085
0
LINE
8
BLACK
6
CONTINUOUS
10
2.64316
20
2.61085
11
2.64302
21
2.61097
0
LINE
8
BLACK
6
CONTINUOUS
10
2.64302
20
2.61097
11
2.64285
21
2.61099
0
LINE
8
BLACK
6
CONTINUOUS
10
2.64285
20
2.61099
11
2.6391
21
2.61286
0
LINE
8
BLACK
6
CONTINUOUS
10
2.6391
20
2.61286
11
2.63839
21
2.61339
0
LINE
8
BLACK
6
CONTINUOUS
10
2.63839
20
2.61339
11
2.63833
21
2.61342
0
LINE
8
BLACK
6
CONTINUOUS
10
2.63833
20
2.61342
11
2.63645
21
2.61529
0
LINE
8
BLACK
6
CONTINUOUS
10
2.63645
20
2.61529
11
2.63595
21
2.61601
0
LINE
8
BLACK
6
CONTINUOUS
10
2.63595
20
2.61601
11
2.6359
21
2.61606
0
LINE
8
BLACK
6
CONTINUOUS
10
2.6359
20
2.61606
11
2.63403
21
2.61981
0
LINE
8
BLACK
6
CONTINUOUS
10
2.63403
20
2.61981
11
2.63373
21
2.62079
0
LINE
8
BLACK
6
CONTINUOUS
10
2.63373
20
2.62079
11
2.63378
21
2.62096
0
LINE
8
BLACK
6
CONTINUOUS
10
2.63378
20
2.62096
11
2.63371
21
2.62113
0
LINE
8
BLACK
6
CONTINUOUS
10
2.63371
20
2.62113
11
2.63371
21
2.6305
0
LINE
8
BLACK
6
CONTINUOUS
10
2.63371
20
2.6305
11
2.63389
21
2.63151
0
LINE
8
BLACK
6
CONTINUOUS
10
2.63389
20
2.63151
11
2.63401
21
2.63165
0
LINE
8
BLACK
6
CONTINUOUS
10
2.63401
20
2.63165
11
2.63403
21
2.63182
0
LINE
8
BLACK
6
CONTINUOUS
10
2.63403
20
2.63182
11
2.6359
21
2.63557
0
LINE
8
BLACK
6
CONTINUOUS
10
2.6359
20
2.63557
11
2.63643
21
2.63628
0
LINE
8
BLACK
6
CONTINUOUS
10
2.63643
20
2.63628
11
2.63645
21
2.63634
0
LINE
8
BLACK
6
CONTINUOUS
10
2.63645
20
2.63634
11
2.63833
21
2.63821
0
LINE
8
BLACK
6
CONTINUOUS
10
2.63833
20
2.63821
11
2.63917
21
2.6388
0
LINE
8
BLACK
6
CONTINUOUS
10
2.63917
20
2.6388
11
2.64118
21
2.63898
0
LINE
8
BLACK
6
CONTINUOUS
10
2.64118
20
2.63898
11
2.64284
21
2.63782
0
LINE
8
BLACK
6
CONTINUOUS
10
2.64284
20
2.63782
11
2.64336
21
2.63587
0
LINE
8
BLACK
6
CONTINUOUS
10
2.64336
20
2.63587
11
2.64251
21
2.63404
0
LINE
8
BLACK
6
CONTINUOUS
10
2.64251
20
2.63404
11
2.64097
21
2.6325
0
LINE
8
BLACK
6
CONTINUOUS
10
2.64097
20
2.6325
11
2.63962
21
2.62981
0
LINE
8
BLACK
6
CONTINUOUS
10
2.63962
20
2.62981
11
2.63962
21
2.62183
0
LINE
8
BLACK
6
CONTINUOUS
10
2.63962
20
2.62183
11
2.64097
21
2.61913
0
LINE
8
BLACK
6
CONTINUOUS
10
2.64097
20
2.61913
11
2.64217
21
2.61793
0
LINE
8
BLACK
6
CONTINUOUS
10
2.64217
20
2.61793
11
2.64486
21
2.61658
0
LINE
8
BLACK
6
CONTINUOUS
10
2.64486
20
2.61658
11
2.64744
21
2.61658
0
LINE
8
BLACK
6
CONTINUOUS
10
2.64744
20
2.61658
11
2.65195
21
2.61808
0
LINE
8
BLACK
6
CONTINUOUS
10
2.65195
20
2.61808
11
2.67395
21
2.64009
0
LINE
8
BLACK
6
CONTINUOUS
10
2.67395
20
2.64009
11
2.67448
21
2.64046
0
LINE
8
BLACK
6
CONTINUOUS
10
2.67448
20
2.64046
11
2.67456
21
2.64056
0
LINE
8
BLACK
6
CONTINUOUS
10
2.67456
20
2.64056
11
2.67464
21
2.64057
0
LINE
8
BLACK
6
CONTINUOUS
10
2.67464
20
2.64057
11
2.67479
21
2.64068
0
LINE
8
BLACK
6
CONTINUOUS
10
2.67479
20
2.64068
11
2.67568
21
2.64075
0
LINE
8
BLACK
6
CONTINUOUS
10
2.67568
20
2.64075
11
2.67655
21
2.64091
0
LINE
8
BLACK
6
CONTINUOUS
10
2.67655
20
2.64091
11
2.67667
21
2.64084
0
LINE
8
BLACK
6
CONTINUOUS
10
2.67667
20
2.68167
11
2.67736
21
2.68
0
LINE
8
BLACK
6
CONTINUOUS
10
2.67736
20
2.68
11
2.67667
21
2.67833
0
LINE
8
BLACK
6
CONTINUOUS
10
2.67667
20
2.67833
11
2.675
21
2.67764
0
LINE
8
BLACK
6
CONTINUOUS
10
2.675
20
2.67764
11
2.66277
21
2.67764
0
LINE
8
BLACK
6
CONTINUOUS
10
2.66277
20
2.67764
11
2.66738
21
2.67649
0
LINE
8
BLACK
6
CONTINUOUS
10
2.66738
20
2.67649
11
2.66785
21
2.67628
0
LINE
8
BLACK
6
CONTINUOUS
10
2.66785
20
2.67628
11
2.66798
21
2.67626
0
LINE
8
BLACK
6
CONTINUOUS
10
2.66798
20
2.67626
11
2.67173
21
2.67439
0
LINE
8
BLACK
6
CONTINUOUS
10
2.67173
20
2.67439
11
2.67244
21
2.67386
0
LINE
8
BLACK
6
CONTINUOUS
10
2.67244
20
2.67386
11
2.6725
21
2.67384
0
LINE
8
BLACK
6
CONTINUOUS
10
2.6725
20
2.67384
11
2.67625
21
2.67009
0
LINE
8
BLACK
6
CONTINUOUS
10
2.67625
20
2.67009
11
2.67684
21
2.66925
0
LINE
8
BLACK
6
CONTINUOUS
10
2.67684
20
2.66925
11
2.67685
21
2.66907
0
LINE
8
BLACK
6
CONTINUOUS
10
2.67685
20
2.66907
11
2.67696
21
2.66893
0
LINE
8
BLACK
6
CONTINUOUS
10
2.67696
20
2.66893
11
2.67884
21
2.66331
0
LINE
8
BLACK
6
CONTINUOUS
10
2.67884
20
2.66331
11
2.67897
21
2.66243
0
LINE
8
BLACK
6
CONTINUOUS
10
2.67897
20
2.66243
11
2.67899
21
2.66237
0
LINE
8
BLACK
6
CONTINUOUS
10
2.67899
20
2.66237
11
2.67899
21
2.65862
0
LINE
8
BLACK
6
CONTINUOUS
10
2.67899
20
2.65862
11
2.67884
21
2.65775
0
LINE
8
BLACK
6
CONTINUOUS
10
2.67884
20
2.65775
11
2.67884
21
2.65769
0
LINE
8
BLACK
6
CONTINUOUS
10
2.67884
20
2.65769
11
2.67696
21
2.65207
0
LINE
8
BLACK
6
CONTINUOUS
10
2.67696
20
2.65207
11
2.67648
21
2.65116
0
LINE
8
BLACK
6
CONTINUOUS
10
2.67648
20
2.65116
11
2.67633
21
2.65107
0
LINE
8
BLACK
6
CONTINUOUS
10
2.67633
20
2.65107
11
2.67625
21
2.65091
0
LINE
8
BLACK
6
CONTINUOUS
10
2.67625
20
2.65091
11
2.67438
21
2.64904
0
LINE
8
BLACK
6
CONTINUOUS
10
2.67438
20
2.64904
11
2.67354
21
2.64845
0
LINE
8
BLACK
6
CONTINUOUS
10
2.67354
20
2.64845
11
2.67152
21
2.64827
0
LINE
8
BLACK
6
CONTINUOUS
10
2.67152
20
2.64827
11
2.66987
21
2.64943
0
LINE
8
BLACK
6
CONTINUOUS
10
2.66987
20
2.64943
11
2.66935
21
2.65138
0
LINE
8
BLACK
6
CONTINUOUS
10
2.66935
20
2.65138
11
2.6702
21
2.65321
0
LINE
8
BLACK
6
CONTINUOUS
10
2.6702
20
2.65321
11
2.67158
21
2.65459
0
LINE
8
BLACK
6
CONTINUOUS
10
2.67158
20
2.65459
11
2.67309
21
2.6591
0
LINE
8
BLACK
6
CONTINUOUS
10
2.67309
20
2.6591
11
2.67309
21
2.66189
0
LINE
8
BLACK
6
CONTINUOUS
10
2.67309
20
2.66189
11
2.67158
21
2.6664
0
LINE
8
BLACK
6
CONTINUOUS
10
2.67158
20
2.6664
11
2.66866
21
2.66932
0
LINE
8
BLACK
6
CONTINUOUS
10
2.66866
20
2.66932
11
2.66563
21
2.67084
0
LINE
8
BLACK
6
CONTINUOUS
10
2.66563
20
2.67084
11
2.6588
21
2.67254
0
LINE
8
BLACK
6
CONTINUOUS
10
2.6588
20
2.67254
11
2.6539
21
2.67254
0
LINE
8
BLACK
6
CONTINUOUS
10
2.6539
20
2.67254
11
2.64707
21
2.67084
0
LINE
8
BLACK
6
CONTINUOUS
10
2.64707
20
2.67084
11
2.64404
21
2.66932
0
LINE
8
BLACK
6
CONTINUOUS
10
2.64404
20
2.66932
11
2.64112
21
2.6664
0
LINE
8
BLACK
6
CONTINUOUS
10
2.64112
20
2.6664
11
2.63962
21
2.66189
0
LINE
8
BLACK
6
CONTINUOUS
10
2.63962
20
2.66189
11
2.63962
21
2.6591
0
LINE
8
BLACK
6
CONTINUOUS
10
2.63962
20
2.6591
11
2.64112
21
2.65459
0
LINE
8
BLACK
6
CONTINUOUS
10
2.64112
20
2.65459
11
2.64251
21
2.65321
0
LINE
8
BLACK
6
CONTINUOUS
10
2.64251
20
2.65321
11
2.64309
21
2.65237
0
LINE
8
BLACK
6
CONTINUOUS
10
2.64309
20
2.65237
11
2.64327
21
2.65036
0
LINE
8
BLACK
6
CONTINUOUS
10
2.64327
20
2.65036
11
2.64211
21
2.64871
0
LINE
8
BLACK
6
CONTINUOUS
10
2.64211
20
2.64871
11
2.64016
21
2.64818
0
LINE
8
BLACK
6
CONTINUOUS
10
2.64016
20
2.64818
11
2.63833
21
2.64904
0
LINE
8
BLACK
6
CONTINUOUS
10
2.63833
20
2.64904
11
2.63645
21
2.65091
0
LINE
8
BLACK
6
CONTINUOUS
10
2.63645
20
2.65091
11
2.63587
21
2.65175
0
LINE
8
BLACK
6
CONTINUOUS
10
2.63587
20
2.65175
11
2.63585
21
2.65193
0
LINE
8
BLACK
6
CONTINUOUS
10
2.63585
20
2.65193
11
2.63574
21
2.65207
0
LINE
8
BLACK
6
CONTINUOUS
10
2.63574
20
2.65207
11
2.63387
21
2.65769
0
LINE
8
BLACK
6
CONTINUOUS
10
2.63387
20
2.65769
11
2.63374
21
2.65856
0
LINE
8
BLACK
6
CONTINUOUS
10
2.63374
20
2.65856
11
2.63371
21
2.65862
0
LINE
8
BLACK
6
CONTINUOUS
10
2.63371
20
2.65862
11
2.63371
21
2.66237
0
LINE
8
BLACK
6
CONTINUOUS
10
2.63371
20
2.66237
11
2.63387
21
2.66324
0
LINE
8
BLACK
6
CONTINUOUS
10
2.63387
20
2.66324
11
2.63387
21
2.66331
0
LINE
8
BLACK
6
CONTINUOUS
10
2.63387
20
2.66331
11
2.63574
21
2.66893
0
LINE
8
BLACK
6
CONTINUOUS
10
2.63574
20
2.66893
11
2.63623
21
2.66983
0
LINE
8
BLACK
6
CONTINUOUS
10
2.63623
20
2.66983
11
2.63638
21
2.66993
0
LINE
8
BLACK
6
CONTINUOUS
10
2.63638
20
2.66993
11
2.63645
21
2.67009
0
LINE
8
BLACK
6
CONTINUOUS
10
2.63645
20
2.67009
11
2.6402
21
2.67384
0
LINE
8
BLACK
6
CONTINUOUS
10
2.6402
20
2.67384
11
2.64093
21
2.67434
0
LINE
8
BLACK
6
CONTINUOUS
10
2.64093
20
2.67434
11
2.64097
21
2.67439
0
LINE
8
BLACK
6
CONTINUOUS
10
2.64097
20
2.67439
11
2.64472
21
2.67626
0
LINE
8
BLACK
6
CONTINUOUS
10
2.64472
20
2.67626
11
2.64521
21
2.67641
0
LINE
8
BLACK
6
CONTINUOUS
10
2.64521
20
2.67641
11
2.64533
21
2.67649
0
LINE
8
BLACK
6
CONTINUOUS
10
2.64533
20
2.67649
11
2.64993
21
2.67764
0
LINE
8
BLACK
6
CONTINUOUS
10
2.64993
20
2.67764
11
2.645
21
2.67764
0
LINE
8
BLACK
6
CONTINUOUS
10
2.645
20
2.67764
11
2.64333
21
2.67833
0
LINE
8
BLACK
6
CONTINUOUS
10
2.64333
20
2.67833
11
2.64264
21
2.68
0
LINE
8
BLACK
6
CONTINUOUS
10
2.64264
20
2.68
11
2.64333
21
2.68167
0
LINE
8
BLACK
6
CONTINUOUS
10
2.64333
20
2.68167
11
2.645
21
2.68236
0
LINE
8
BLACK
6
CONTINUOUS
10
2.645
20
2.68236
11
2.675
21
2.68236
0
LINE
8
BLACK
6
CONTINUOUS
10
2.675
20
2.68236
11
2.67667
21
2.68167
0
LINE
8
BLACK
6
CONTINUOUS
10
2.22327
20
2.71637
11
2.22396
21
2.71448
0
LINE
8
BLACK
6
CONTINUOUS
10
2.22396
20
2.71448
11
2.22396
21
2.68261
0
LINE
8
BLACK
6
CONTINUOUS
10
2.22396
20
2.68261
11
2.22378
21
2.6816
0
LINE
8
BLACK
6
CONTINUOUS
10
2.22378
20
2.6816
11
2.22367
21
2.68146
0
LINE
8
BLACK
6
CONTINUOUS
10
2.22367
20
2.68146
11
2.22365
21
2.68128
0
LINE
8
BLACK
6
CONTINUOUS
10
2.22365
20
2.68128
11
2.22177
21
2.67754
0
LINE
8
BLACK
6
CONTINUOUS
10
2.22177
20
2.67754
11
2.22125
21
2.67683
0
LINE
8
BLACK
6
CONTINUOUS
10
2.22125
20
2.67683
11
2.22122
21
2.67677
0
LINE
8
BLACK
6
CONTINUOUS
10
2.22122
20
2.67677
11
2.21935
21
2.67489
0
LINE
8
BLACK
6
CONTINUOUS
10
2.21935
20
2.67489
11
2.21862
21
2.67439
0
LINE
8
BLACK
6
CONTINUOUS
10
2.21862
20
2.67439
11
2.21858
21
2.67434
0
LINE
8
BLACK
6
CONTINUOUS
10
2.21858
20
2.67434
11
2.21483
21
2.67247
0
LINE
8
BLACK
6
CONTINUOUS
10
2.21483
20
2.67247
11
2.21385
21
2.67217
0
LINE
8
BLACK
6
CONTINUOUS
10
2.21385
20
2.67217
11
2.21367
21
2.67221
0
LINE
8
BLACK
6
CONTINUOUS
10
2.21367
20
2.67221
11
2.21351
21
2.67215
0
LINE
8
BLACK
6
CONTINUOUS
10
2.21351
20
2.67215
11
2.20601
21
2.67215
0
LINE
8
BLACK
6
CONTINUOUS
10
2.20601
20
2.67215
11
2.205
21
2.67233
0
LINE
8
BLACK
6
CONTINUOUS
10
2.205
20
2.67233
11
2.20486
21
2.67245
0
LINE
8
BLACK
6
CONTINUOUS
10
2.20486
20
2.67245
11
2.20469
21
2.67247
0
LINE
8
BLACK
6
CONTINUOUS
10
2.20469
20
2.67247
11
2.20094
21
2.67434
0
LINE
8
BLACK
6
CONTINUOUS
10
2.20094
20
2.67434
11
2.20023
21
2.67487
0
LINE
8
BLACK
6
CONTINUOUS
10
2.20023
20
2.67487
11
2.20017
21
2.67489
0
LINE
8
BLACK
6
CONTINUOUS
10
2.20017
20
2.67489
11
2.1983
21
2.67677
0
LINE
8
BLACK
6
CONTINUOUS
10
2.1983
20
2.67677
11
2.19779
21
2.67749
0
LINE
8
BLACK
6
CONTINUOUS
10
2.19779
20
2.67749
11
2.19774
21
2.67754
0
LINE
8
BLACK
6
CONTINUOUS
10
2.19774
20
2.67754
11
2.19587
21
2.68128
0
LINE
8
BLACK
6
CONTINUOUS
10
2.19587
20
2.68128
11
2.19558
21
2.68227
0
LINE
8
BLACK
6
CONTINUOUS
10
2.19558
20
2.68227
11
2.19562
21
2.68244
0
LINE
8
BLACK
6
CONTINUOUS
10
2.19562
20
2.68244
11
2.19556
21
2.68261
0
LINE
8
BLACK
6
CONTINUOUS
10
2.19556
20
2.68261
11
2.19556
21
2.71448
0
LINE
8
BLACK
6
CONTINUOUS
10
2.19556
20
2.71448
11
2.19574
21
2.71549
0
LINE
8
BLACK
6
CONTINUOUS
10
2.19574
20
2.71549
11
2.19703
21
2.71703
0
LINE
8
BLACK
6
CONTINUOUS
10
2.19703
20
2.71703
11
2.19902
21
2.71738
0
LINE
8
BLACK
6
CONTINUOUS
10
2.19902
20
2.71738
11
2.20077
21
2.71637
0
LINE
8
BLACK
6
CONTINUOUS
10
2.20077
20
2.71637
11
2.20146
21
2.71448
0
LINE
8
BLACK
6
CONTINUOUS
10
2.20146
20
2.71448
11
2.20146
21
2.6833
0
LINE
8
BLACK
6
CONTINUOUS
10
2.20146
20
2.6833
11
2.20281
21
2.68061
0
LINE
8
BLACK
6
CONTINUOUS
10
2.20281
20
2.68061
11
2.20401
21
2.67941
0
LINE
8
BLACK
6
CONTINUOUS
10
2.20401
20
2.67941
11
2.20671
21
2.67806
0
LINE
8
BLACK
6
CONTINUOUS
10
2.20671
20
2.67806
11
2.21281
21
2.67806
0
LINE
8
BLACK
6
CONTINUOUS
10
2.21281
20
2.67806
11
2.21551
21
2.67941
0
LINE
8
BLACK
6
CONTINUOUS
10
2.21551
20
2.67941
11
2.21671
21
2.68061
0
LINE
8
BLACK
6
CONTINUOUS
10
2.21671
20
2.68061
11
2.21806
21
2.6833
0
LINE
8
BLACK
6
CONTINUOUS
10
2.21806
20
2.6833
11
2.21806
21
2.71448
0
LINE
8
BLACK
6
CONTINUOUS
10
2.21806
20
2.71448
11
2.21823
21
2.71549
0
LINE
8
BLACK
6
CONTINUOUS
10
2.21823
20
2.71549
11
2.21953
21
2.71703
0
LINE
8
BLACK
6
CONTINUOUS
10
2.21953
20
2.71703
11
2.22152
21
2.71738
0
LINE
8
BLACK
6
CONTINUOUS
10
2.22152
20
2.71738
11
2.22327
21
2.71637
0
LINE
8
BLACK
6
CONTINUOUS
10
2.18452
20
2.71725
11
2.18607
21
2.71595
0
LINE
8
BLACK
6
CONTINUOUS
10
2.18607
20
2.71595
11
2.18642
21
2.71396
0
LINE
8
BLACK
6
CONTINUOUS
10
2.18642
20
2.71396
11
2.18541
21
2.71221
0
LINE
8
BLACK
6
CONTINUOUS
10
2.18541
20
2.71221
11
2.18351
21
2.71152
0
LINE
8
BLACK
6
CONTINUOUS
10
2.18351
20
2.71152
11
2.16565
21
2.71152
0
LINE
8
BLACK
6
CONTINUOUS
10
2.16565
20
2.71152
11
2.17449
21
2.70142
0
LINE
8
BLACK
6
CONTINUOUS
10
2.17449
20
2.70142
11
2.17472
21
2.70104
0
LINE
8
BLACK
6
CONTINUOUS
10
2.17472
20
2.70104
11
2.17482
21
2.70095
0
LINE
8
BLACK
6
CONTINUOUS
10
2.17482
20
2.70095
11
2.17484
21
2.70083
0
LINE
8
BLACK
6
CONTINUOUS
10
2.17484
20
2.70083
11
2.17502
21
2.70055
0
LINE
8
BLACK
6
CONTINUOUS
10
2.17502
20
2.70055
11
2.17503
21
2.69975
0
LINE
8
BLACK
6
CONTINUOUS
10
2.17503
20
2.69975
11
2.17517
21
2.69897
0
LINE
8
BLACK
6
CONTINUOUS
10
2.17517
20
2.69897
11
2.17505
21
2.69876
0
LINE
8
BLACK
6
CONTINUOUS
10
2.17505
20
2.69876
11
2.17506
21
2.69853
0
LINE
8
BLACK
6
CONTINUOUS
10
2.17506
20
2.69853
11
2.17456
21
2.69791
0
LINE
8
BLACK
6
CONTINUOUS
10
2.17456
20
2.69791
11
2.17416
21
2.69722
0
LINE
8
BLACK
6
CONTINUOUS
10
2.17416
20
2.69722
11
2.17394
21
2.69714
0
LINE
8
BLACK
6
CONTINUOUS
10
2.17394
20
2.69714
11
2.17379
21
2.69695
0
LINE
8
BLACK
6
CONTINUOUS
10
2.17379
20
2.69695
11
2.17301
21
2.6968
0
LINE
8
BLACK
6
CONTINUOUS
10
2.17301
20
2.6968
11
2.17226
21
2.69653
0
LINE
8
BLACK
6
CONTINUOUS
10
2.17226
20
2.69653
11
2.16734
21
2.69653
0
LINE
8
BLACK
6
CONTINUOUS
10
2.16734
20
2.69653
11
2.16464
21
2.69518
0
LINE
8
BLACK
6
CONTINUOUS
10
2.16464
20
2.69518
11
2.16344
21
2.69398
0
LINE
8
BLACK
6
CONTINUOUS
10
2.16344
20
2.69398
11
2.16209
21
2.69128
0
LINE
8
BLACK
6
CONTINUOUS
10
2.16209
20
2.69128
11
2.16209
21
2.6833
0
LINE
8
BLACK
6
CONTINUOUS
10
2.16209
20
2.6833
11
2.16344
21
2.68061
0
LINE
8
BLACK
6
CONTINUOUS
10
2.16344
20
2.68061
11
2.16464
21
2.67941
0
LINE
8
BLACK
6
CONTINUOUS
10
2.16464
20
2.67941
11
2.16734
21
2.67806
0
LINE
8
BLACK
6
CONTINUOUS
10
2.16734
20
2.67806
11
2.17719
21
2.67806
0
LINE
8
BLACK
6
CONTINUOUS
10
2.17719
20
2.67806
11
2.17989
21
2.67941
0
LINE
8
BLACK
6
CONTINUOUS
10
2.17989
20
2.67941
11
2.18142
21
2.68094
0
LINE
8
BLACK
6
CONTINUOUS
10
2.18142
20
2.68094
11
2.18226
21
2.68153
0
LINE
8
BLACK
6
CONTINUOUS
10
2.18226
20
2.68153
11
2.18428
21
2.68171
0
LINE
8
BLACK
6
CONTINUOUS
10
2.18428
20
2.68171
11
2.18593
21
2.68055
0
LINE
8
BLACK
6
CONTINUOUS
10
2.18593
20
2.68055
11
2.18645
21
2.6786
0
LINE
8
BLACK
6
CONTINUOUS
10
2.18645
20
2.6786
11
2.1856
21
2.67677
0
LINE
8
BLACK
6
CONTINUOUS
10
2.1856
20
2.67677
11
2.18373
21
2.67489
0
LINE
8
BLACK
6
CONTINUOUS
10
2.18373
20
2.67489
11
2.183
21
2.67439
0
LINE
8
BLACK
6
CONTINUOUS
10
2.183
20
2.67439
11
2.18296
21
2.67434
0
LINE
8
BLACK
6
CONTINUOUS
10
2.18296
20
2.67434
11
2.17921
21
2.67247
0
LINE
8
BLACK
6
CONTINUOUS
10
2.17921
20
2.67247
11
2.17823
21
2.67217
0
LINE
8
BLACK
6
CONTINUOUS
10
2.17823
20
2.67217
11
2.17805
21
2.67221
0
LINE
8
BLACK
6
CONTINUOUS
10
2.17805
20
2.67221
11
2.17789
21
2.67215
0
LINE
8
BLACK
6
CONTINUOUS
10
2.17789
20
2.67215
11
2.16664
21
2.67215
0
LINE
8
BLACK
6
CONTINUOUS
10
2.16664
20
2.67215
11
2.16563
21
2.67233
0
LINE
8
BLACK
6
CONTINUOUS
10
2.16563
20
2.67233
11
2.16549
21
2.67245
0
LINE
8
BLACK
6
CONTINUOUS
10
2.16549
20
2.67245
11
2.16532
21
2.67247
0
LINE
8
BLACK
6
CONTINUOUS
10
2.16532
20
2.67247
11
2.16157
21
2.67434
0
LINE
8
BLACK
6
CONTINUOUS
10
2.16157
20
2.67434
11
2.16086
21
2.67487
0
LINE
8
BLACK
6
CONTINUOUS
10
2.16086
20
2.67487
11
2.1608
21
2.67489
0
LINE
8
BLACK
6
CONTINUOUS
10
2.1608
20
2.67489
11
2.15893
21
2.67677
0
LINE
8
BLACK
6
CONTINUOUS
10
2.15893
20
2.67677
11
2.15842
21
2.67749
0
LINE
8
BLACK
6
CONTINUOUS
10
2.15842
20
2.67749
11
2.15837
21
2.67754
0
LINE
8
BLACK
6
CONTINUOUS
10
2.15837
20
2.67754
11
2.1565
21
2.68128
0
LINE
8
BLACK
6
CONTINUOUS
10
2.1565
20
2.68128
11
2.15621
21
2.68227
0
LINE
8
BLACK
6
CONTINUOUS
10
2.15621
20
2.68227
11
2.15625
21
2.68244
0
LINE
8
BLACK
6
CONTINUOUS
10
2.15625
20
2.68244
11
2.15619
21
2.68261
0
LINE
8
BLACK
6
CONTINUOUS
10
2.15619
20
2.68261
11
2.15619
21
2.69198
0
LINE
8
BLACK
6
CONTINUOUS
10
2.15619
20
2.69198
11
2.15637
21
2.69299
0
LINE
8
BLACK
6
CONTINUOUS
10
2.15637
20
2.69299
11
2.15648
21
2.69312
0
LINE
8
BLACK
6
CONTINUOUS
10
2.15648
20
2.69312
11
2.1565
21
2.6933
0
LINE
8
BLACK
6
CONTINUOUS
10
2.1565
20
2.6933
11
2.15837
21
2.69705
0
LINE
8
BLACK
6
CONTINUOUS
10
2.15837
20
2.69705
11
2.1589
21
2.69776
0
LINE
8
BLACK
6
CONTINUOUS
10
2.1589
20
2.69776
11
2.15893
21
2.69782
0
LINE
8
BLACK
6
CONTINUOUS
10
2.15893
20
2.69782
11
2.1608
21
2.69969
0
LINE
8
BLACK
6
CONTINUOUS
10
2.1608
20
2.69969
11
2.16153
21
2.7002
0
LINE
8
BLACK
6
CONTINUOUS
10
2.16153
20
2.7002
11
2.16157
21
2.70024
0
LINE
8
BLACK
6
CONTINUOUS
10
2.16157
20
2.70024
11
2.16532
21
2.70212
0
LINE
8
BLACK
6
CONTINUOUS
10
2.16532
20
2.70212
11
2.16588
21
2.70229
0
LINE
8
BLACK
6
CONTINUOUS
10
2.16588
20
2.70229
11
2.15692
21
2.71253
0
LINE
8
BLACK
6
CONTINUOUS
10
2.15692
20
2.71253
11
2.15669
21
2.71291
0
LINE
8
BLACK
6
CONTINUOUS
10
2.15669
20
2.71291
11
2.15658
21
2.713
0
LINE
8
BLACK
6
CONTINUOUS
10
2.15658
20
2.713
11
2.15656
21
2.71312
0
LINE
8
BLACK
6
CONTINUOUS
10
2.15656
20
2.71312
11
2.15639
21
2.71341
0
LINE
8
BLACK
6
CONTINUOUS
10
2.15639
20
2.71341
11
2.15637
21
2.71421
0
LINE
8
BLACK
6
CONTINUOUS
10
2.15637
20
2.71421
11
2.15623
21
2.71499
0
LINE
8
BLACK
6
CONTINUOUS
10
2.15623
20
2.71499
11
2.15635
21
2.71519
0
LINE
8
BLACK
6
CONTINUOUS
10
2.15635
20
2.71519
11
2.15635
21
2.71543
0
LINE
8
BLACK
6
CONTINUOUS
10
2.15635
20
2.71543
11
2.15684
21
2.71605
0
LINE
8
BLACK
6
CONTINUOUS
10
2.15684
20
2.71605
11
2.15724
21
2.71674
0
LINE
8
BLACK
6
CONTINUOUS
10
2.15724
20
2.71674
11
2.15746
21
2.71682
0
LINE
8
BLACK
6
CONTINUOUS
10
2.15746
20
2.71682
11
2.15761
21
2.717
0
LINE
8
BLACK
6
CONTINUOUS
10
2.15761
20
2.717
11
2.15839
21
2.71716
0
LINE
8
BLACK
6
CONTINUOUS
10
2.15839
20
2.71716
11
2.15914
21
2.71743
0
LINE
8
BLACK
6
CONTINUOUS
10
2.15914
20
2.71743
11
2.18351
21
2.71743
0
LINE
8
BLACK
6
CONTINUOUS
10
2.18351
20
2.71743
11
2.18452
21
2.71725
0
LINE
8
BLACK
6
CONTINUOUS
10
2.92987
20
2.70394
11
2.93099
21
2.70225
0
LINE
8
BLACK
6
CONTINUOUS
10
2.93099
20
2.70225
11
2.93075
21
2.70024
0
LINE
8
BLACK
6
CONTINUOUS
10
2.93075
20
2.70024
11
2.92888
21
2.69649
0
LINE
8
BLACK
6
CONTINUOUS
10
2.92888
20
2.69649
11
2.92835
21
2.69578
0
LINE
8
BLACK
6
CONTINUOUS
10
2.92835
20
2.69578
11
2.92833
21
2.69573
0
LINE
8
BLACK
6
CONTINUOUS
10
2.92833
20
2.69573
11
2.92587
21
2.69327
0
LINE
8
BLACK
6
CONTINUOUS
10
2.92587
20
2.69327
11
2.95328
21
2.69327
0
LINE
8
BLACK
6
CONTINUOUS
10
2.95328
20
2.69327
11
2.95328
21
2.70156
0
LINE
8
BLACK
6
CONTINUOUS
10
2.95328
20
2.70156
11
2.95346
21
2.70257
0
LINE
8
BLACK
6
CONTINUOUS
10
2.95346
20
2.70257
11
2.95476
21
2.70412
0
LINE
8
BLACK
6
CONTINUOUS
10
2.95476
20
2.70412
11
2.95675
21
2.70447
0
LINE
8
BLACK
6
CONTINUOUS
10
2.95675
20
2.70447
11
2.9585
21
2.70346
0
LINE
8
BLACK
6
CONTINUOUS
10
2.9585
20
2.70346
11
2.95919
21
2.70156
0
LINE
8
BLACK
6
CONTINUOUS
10
2.95919
20
2.70156
11
2.95919
21
2.67907
0
LINE
8
BLACK
6
CONTINUOUS
10
2.95919
20
2.67907
11
2.95901
21
2.67806
0
LINE
8
BLACK
6
CONTINUOUS
10
2.95901
20
2.67806
11
2.95771
21
2.67651
0
LINE
8
BLACK
6
CONTINUOUS
10
2.95771
20
2.67651
11
2.95572
21
2.67616
0
LINE
8
BLACK
6
CONTINUOUS
10
2.95572
20
2.67616
11
2.95397
21
2.67717
0
LINE
8
BLACK
6
CONTINUOUS
10
2.95397
20
2.67717
11
2.95328
21
2.67907
0
LINE
8
BLACK
6
CONTINUOUS
10
2.95328
20
2.67907
11
2.95328
21
2.68736
0
LINE
8
BLACK
6
CONTINUOUS
10
2.95328
20
2.68736
11
2.91687
21
2.68736
0
LINE
8
BLACK
6
CONTINUOUS
10
2.91687
20
2.68736
11
2.91586
21
2.68754
0
LINE
8
BLACK
6
CONTINUOUS
10
2.91586
20
2.68754
11
2.91573
21
2.68765
0
LINE
8
BLACK
6
CONTINUOUS
10
2.91573
20
2.68765
11
2.91556
21
2.68767
0
LINE
8
BLACK
6
CONTINUOUS
10
2.91556
20
2.68767
11
2.91496
21
2.68829
0
LINE
8
BLACK
6
CONTINUOUS
10
2.91496
20
2.68829
11
2.91431
21
2.68884
0
LINE
8
BLACK
6
CONTINUOUS
10
2.91431
20
2.68884
11
2.91428
21
2.68901
0
LINE
8
BLACK
6
CONTINUOUS
10
2.91428
20
2.68901
11
2.91416
21
2.68913
0
LINE
8
BLACK
6
CONTINUOUS
10
2.91416
20
2.68913
11
2.91411
21
2.68998
0
LINE
8
BLACK
6
CONTINUOUS
10
2.91411
20
2.68998
11
2.91396
21
2.69083
0
LINE
8
BLACK
6
CONTINUOUS
10
2.91396
20
2.69083
11
2.91404
21
2.69097
0
LINE
8
BLACK
6
CONTINUOUS
10
2.91404
20
2.69097
11
2.91403
21
2.69114
0
LINE
8
BLACK
6
CONTINUOUS
10
2.91403
20
2.69114
11
2.91454
21
2.69183
0
LINE
8
BLACK
6
CONTINUOUS
10
2.91454
20
2.69183
11
2.91497
21
2.69258
0
LINE
8
BLACK
6
CONTINUOUS
10
2.91497
20
2.69258
11
2.91513
21
2.69263
0
LINE
8
BLACK
6
CONTINUOUS
10
2.91513
20
2.69263
11
2.91523
21
2.69277
0
LINE
8
BLACK
6
CONTINUOUS
10
2.91523
20
2.69277
11
2.92061
21
2.69636
0
LINE
8
BLACK
6
CONTINUOUS
10
2.92061
20
2.69636
11
2.92381
21
2.69956
0
LINE
8
BLACK
6
CONTINUOUS
10
2.92381
20
2.69956
11
2.92547
21
2.70288
0
LINE
8
BLACK
6
CONTINUOUS
10
2.92547
20
2.70288
11
2.92608
21
2.70371
0
LINE
8
BLACK
6
CONTINUOUS
10
2.92608
20
2.70371
11
2.92794
21
2.70451
0
LINE
8
BLACK
6
CONTINUOUS
10
2.92794
20
2.70451
11
2.92987
21
2.70394
0
LINE
8
BLACK
6
CONTINUOUS
10
2.07101
20
2.68194
11
2.07256
21
2.68064
0
LINE
8
BLACK
6
CONTINUOUS
10
2.07256
20
2.68064
11
2.07291
21
2.67865
0
LINE
8
BLACK
6
CONTINUOUS
10
2.07291
20
2.67865
11
2.0719
21
2.6769
0
LINE
8
BLACK
6
CONTINUOUS
10
2.0719
20
2.6769
11
2.07
21
2.67621
0
LINE
8
BLACK
6
CONTINUOUS
10
2.07
20
2.67621
11
2.01
21
2.67621
0
LINE
8
BLACK
6
CONTINUOUS
10
2.01
20
2.67621
11
2.00899
21
2.67639
0
LINE
8
BLACK
6
CONTINUOUS
10
2.00899
20
2.67639
11
2.00744
21
2.67769
0
LINE
8
BLACK
6
CONTINUOUS
10
2.00744
20
2.67769
11
2.00709
21
2.67968
0
LINE
8
BLACK
6
CONTINUOUS
10
2.00709
20
2.67968
11
2.0081
21
2.68143
0
LINE
8
BLACK
6
CONTINUOUS
10
2.0081
20
2.68143
11
2.01
21
2.68212
0
LINE
8
BLACK
6
CONTINUOUS
10
2.01
20
2.68212
11
2.07
21
2.68212
0
LINE
8
BLACK
6
CONTINUOUS
10
2.07
20
2.68212
11
2.07101
21
2.68194
0
LINE
8
BLACK
6
CONTINUOUS
10
2.72226
20
2.7419
11
2.72295
21
2.74
0
LINE
8
BLACK
6
CONTINUOUS
10
2.72295
20
2.74
11
2.72295
21
2.68
0
LINE
8
BLACK
6
CONTINUOUS
10
2.72295
20
2.68
11
2.72277
21
2.67899
0
LINE
8
BLACK
6
CONTINUOUS
10
2.72277
20
2.67899
11
2.72148
21
2.67744
0
LINE
8
BLACK
6
CONTINUOUS
10
2.72148
20
2.67744
11
2.71949
21
2.67709
0
LINE
8
BLACK
6
CONTINUOUS
10
2.71949
20
2.67709
11
2.71774
21
2.6781
0
LINE
8
BLACK
6
CONTINUOUS
10
2.71774
20
2.6781
11
2.71705
21
2.68
0
LINE
8
BLACK
6
CONTINUOUS
10
2.71705
20
2.68
11
2.71705
21
2.74
0
LINE
8
BLACK
6
CONTINUOUS
10
2.71705
20
2.74
11
2.71723
21
2.74101
0
LINE
8
BLACK
6
CONTINUOUS
10
2.71723
20
2.74101
11
2.71852
21
2.74256
0
LINE
8
BLACK
6
CONTINUOUS
10
2.71852
20
2.74256
11
2.72051
21
2.74291
0
LINE
8
BLACK
6
CONTINUOUS
10
2.72051
20
2.74291
11
2.72226
21
2.7419
0
LINE
8
BLACK
6
CONTINUOUS
10
2.60226
20
2.7419
11
2.60295
21
2.74
0
LINE
8
BLACK
6
CONTINUOUS
10
2.60295
20
2.74
11
2.60295
21
2.68
0
LINE
8
BLACK
6
CONTINUOUS
10
2.60295
20
2.68
11
2.60277
21
2.67899
0
LINE
8
BLACK
6
CONTINUOUS
10
2.60277
20
2.67899
11
2.60148
21
2.67744
0
LINE
8
BLACK
6
CONTINUOUS
10
2.60148
20
2.67744
11
2.59949
21
2.67709
0
LINE
8
BLACK
6
CONTINUOUS
10
2.59949
20
2.67709
11
2.59774
21
2.6781
0
LINE
8
BLACK
6
CONTINUOUS
10
2.59774
20
2.6781
11
2.59705
21
2.68
0
LINE
8
BLACK
6
CONTINUOUS
10
2.59705
20
2.68
11
2.59705
21
2.74
0
LINE
8
BLACK
6
CONTINUOUS
10
2.59705
20
2.74
11
2.59723
21
2.74101
0
LINE
8
BLACK
6
CONTINUOUS
10
2.59723
20
2.74101
11
2.59852
21
2.74256
0
LINE
8
BLACK
6
CONTINUOUS
10
2.59852
20
2.74256
11
2.60051
21
2.74291
0
LINE
8
BLACK
6
CONTINUOUS
10
2.60051
20
2.74291
11
2.60226
21
2.7419
0
LINE
8
BLACK
6
CONTINUOUS
10
1.85384
20
2.70626
11
1.85315
21
2.70793
0
LINE
8
BLACK
6
CONTINUOUS
10
1.85315
20
2.70793
11
1.85315
21
2.71147
0
LINE
8
BLACK
6
CONTINUOUS
10
1.85315
20
2.71147
11
1.78858
21
2.71147
0
LINE
8
BLACK
6
CONTINUOUS
10
1.78858
20
2.71147
11
1.78691
21
2.71216
0
LINE
8
BLACK
6
CONTINUOUS
10
1.78691
20
2.71216
11
1.78622
21
2.71383
0
LINE
8
BLACK
6
CONTINUOUS
10
1.78622
20
2.71383
11
1.78691
21
2.7155
0
LINE
8
BLACK
6
CONTINUOUS
10
1.78691
20
2.7155
11
1.78858
21
2.71619
0
LINE
8
BLACK
6
CONTINUOUS
10
1.78858
20
2.71619
11
1.85551
21
2.71619
0
LINE
8
BLACK
6
CONTINUOUS
10
1.85551
20
2.71619
11
1.85718
21
2.7155
0
LINE
8
BLACK
6
CONTINUOUS
10
1.85718
20
2.7155
11
1.85787
21
2.71383
0
LINE
8
BLACK
6
CONTINUOUS
10
1.85787
20
2.71383
11
1.85787
21
2.71029
0
LINE
8
BLACK
6
CONTINUOUS
10
1.85787
20
2.71029
11
2.04213
21
2.71029
0
LINE
8
BLACK
6
CONTINUOUS
10
2.04213
20
2.71029
11
2.04213
21
2.71383
0
LINE
8
BLACK
6
CONTINUOUS
10
2.04213
20
2.71383
11
2.04282
21
2.7155
0
LINE
8
BLACK
6
CONTINUOUS
10
2.04282
20
2.7155
11
2.04449
21
2.71619
0
LINE
8
BLACK
6
CONTINUOUS
10
2.04449
20
2.71619
11
2.04616
21
2.7155
0
LINE
8
BLACK
6
CONTINUOUS
10
2.04616
20
2.7155
11
2.04685
21
2.71383
0
LINE
8
BLACK
6
CONTINUOUS
10
2.04685
20
2.71383
11
2.04685
21
2.70793
0
LINE
8
BLACK
6
CONTINUOUS
10
2.04685
20
2.70793
11
2.04616
21
2.70626
0
LINE
8
BLACK
6
CONTINUOUS
10
2.04616
20
2.70626
11
2.04449
21
2.70556
0
LINE
8
BLACK
6
CONTINUOUS
10
2.04449
20
2.70556
11
1.85551
21
2.70556
0
LINE
8
BLACK
6
CONTINUOUS
10
1.85551
20
2.70556
11
1.85384
21
2.70626
0
LINE
8
BLACK
6
CONTINUOUS
10
2.95662
20
2.74194
11
2.95675
21
2.74197
0
LINE
8
BLACK
6
CONTINUOUS
10
2.95675
20
2.74197
11
2.95686
21
2.7419
0
LINE
8
BLACK
6
CONTINUOUS
10
2.95686
20
2.7419
11
2.95725
21
2.74183
0
LINE
8
BLACK
6
CONTINUOUS
10
2.95725
20
2.74183
11
2.95783
21
2.74134
0
LINE
8
BLACK
6
CONTINUOUS
10
2.95783
20
2.74134
11
2.9585
21
2.74096
0
LINE
8
BLACK
6
CONTINUOUS
10
2.9585
20
2.74096
11
2.95859
21
2.74071
0
LINE
8
BLACK
6
CONTINUOUS
10
2.95859
20
2.74071
11
2.95879
21
2.74054
0
LINE
8
BLACK
6
CONTINUOUS
10
2.95879
20
2.74054
11
2.95893
21
2.73978
0
LINE
8
BLACK
6
CONTINUOUS
10
2.95893
20
2.73978
11
2.95919
21
2.73906
0
LINE
8
BLACK
6
CONTINUOUS
10
2.95919
20
2.73906
11
2.95919
21
2.72969
0
LINE
8
BLACK
6
CONTINUOUS
10
2.95919
20
2.72969
11
2.95903
21
2.72882
0
LINE
8
BLACK
6
CONTINUOUS
10
2.95903
20
2.72882
11
2.95904
21
2.72875
0
LINE
8
BLACK
6
CONTINUOUS
10
2.95904
20
2.72875
11
2.95716
21
2.72313
0
LINE
8
BLACK
6
CONTINUOUS
10
2.95716
20
2.72313
11
2.95667
21
2.72223
0
LINE
8
BLACK
6
CONTINUOUS
10
2.95667
20
2.72223
11
2.95652
21
2.72213
0
LINE
8
BLACK
6
CONTINUOUS
10
2.95652
20
2.72213
11
2.95645
21
2.72197
0
LINE
8
BLACK
6
CONTINUOUS
10
2.95645
20
2.72197
11
2.9527
21
2.71822
0
LINE
8
BLACK
6
CONTINUOUS
10
2.9527
20
2.71822
11
2.95198
21
2.71772
0
LINE
8
BLACK
6
CONTINUOUS
10
2.95198
20
2.71772
11
2.95193
21
2.71767
0
LINE
8
BLACK
6
CONTINUOUS
10
2.95193
20
2.71767
11
2.94818
21
2.7158
0
LINE
8
BLACK
6
CONTINUOUS
10
2.94818
20
2.7158
11
2.94769
21
2.71565
0
LINE
8
BLACK
6
CONTINUOUS
10
2.94769
20
2.71565
11
2.94758
21
2.71557
0
LINE
8
BLACK
6
CONTINUOUS
10
2.94758
20
2.71557
11
2.94008
21
2.7137
0
LINE
8
BLACK
6
CONTINUOUS
10
2.94008
20
2.7137
11
2.93949
21
2.71366
0
LINE
8
BLACK
6
CONTINUOUS
10
2.93949
20
2.71366
11
2.93936
21
2.71361
0
LINE
8
BLACK
6
CONTINUOUS
10
2.93936
20
2.71361
11
2.93374
21
2.71361
0
LINE
8
BLACK
6
CONTINUOUS
10
2.93374
20
2.71361
11
2.93316
21
2.71371
0
LINE
8
BLACK
6
CONTINUOUS
10
2.93316
20
2.71371
11
2.93302
21
2.7137
0
LINE
8
BLACK
6
CONTINUOUS
10
2.93302
20
2.7137
11
2.92552
21
2.71557
0
LINE
8
BLACK
6
CONTINUOUS
10
2.92552
20
2.71557
11
2.92506
21
2.71578
0
LINE
8
BLACK
6
CONTINUOUS
10
2.92506
20
2.71578
11
2.92492
21
2.7158
0
LINE
8
BLACK
6
CONTINUOUS
10
2.92492
20
2.7158
11
2.92117
21
2.71767
0
LINE
8
BLACK
6
CONTINUOUS
10
2.92117
20
2.71767
11
2.92046
21
2.7182
0
LINE
8
BLACK
6
CONTINUOUS
10
2.92046
20
2.7182
11
2.9204
21
2.71822
0
LINE
8
BLACK
6
CONTINUOUS
10
2.9204
20
2.71822
11
2.91665
21
2.72197
0
LINE
8
BLACK
6
CONTINUOUS
10
2.91665
20
2.72197
11
2.91606
21
2.72281
0
LINE
8
BLACK
6
CONTINUOUS
10
2.91606
20
2.72281
11
2.91605
21
2.72299
0
LINE
8
BLACK
6
CONTINUOUS
10
2.91605
20
2.72299
11
2.91594
21
2.72313
0
LINE
8
BLACK
6
CONTINUOUS
10
2.91594
20
2.72313
11
2.91406
21
2.72875
0
LINE
8
BLACK
6
CONTINUOUS
10
2.91406
20
2.72875
11
2.91393
21
2.72962
0
LINE
8
BLACK
6
CONTINUOUS
10
2.91393
20
2.72962
11
2.91391
21
2.72969
0
LINE
8
BLACK
6
CONTINUOUS
10
2.91391
20
2.72969
11
2.91391
21
2.73906
0
LINE
8
BLACK
6
CONTINUOUS
10
2.91391
20
2.73906
11
2.91398
21
2.73944
0
LINE
8
BLACK
6
CONTINUOUS
10
2.91398
20
2.73944
11
2.91396
21
2.73957
0
LINE
8
BLACK
6
CONTINUOUS
10
2.91396
20
2.73957
11
2.91402
21
2.73969
0
LINE
8
BLACK
6
CONTINUOUS
10
2.91402
20
2.73969
11
2.91409
21
2.74007
0
LINE
8
BLACK
6
CONTINUOUS
10
2.91409
20
2.74007
11
2.91458
21
2.74066
0
LINE
8
BLACK
6
CONTINUOUS
10
2.91458
20
2.74066
11
2.91497
21
2.74132
0
LINE
8
BLACK
6
CONTINUOUS
10
2.91497
20
2.74132
11
2.91522
21
2.74141
0
LINE
8
BLACK
6
CONTINUOUS
10
2.91522
20
2.74141
11
2.91539
21
2.74162
0
LINE
8
BLACK
6
CONTINUOUS
10
2.91539
20
2.74162
11
2.91614
21
2.74175
0
LINE
8
BLACK
6
CONTINUOUS
10
2.91614
20
2.74175
11
2.91687
21
2.74201
0
LINE
8
BLACK
6
CONTINUOUS
10
2.91687
20
2.74201
11
2.95624
21
2.74201
0
LINE
8
BLACK
6
CONTINUOUS
10
2.95624
20
2.74201
11
2.95662
21
2.74194
0
LINE
8
BLACK
6
CONTINUOUS
10
2.91982
20
2.73611
11
2.91982
21
2.73016
0
LINE
8
BLACK
6
CONTINUOUS
10
2.91982
20
2.73016
11
2.92132
21
2.72566
0
LINE
8
BLACK
6
CONTINUOUS
10
2.92132
20
2.72566
11
2.92424
21
2.72274
0
LINE
8
BLACK
6
CONTINUOUS
10
2.92424
20
2.72274
11
2.92727
21
2.72122
0
LINE
8
BLACK
6
CONTINUOUS
10
2.92727
20
2.72122
11
2.9341
21
2.71951
0
LINE
8
BLACK
6
CONTINUOUS
10
2.9341
20
2.71951
11
2.939
21
2.71951
0
LINE
8
BLACK
6
CONTINUOUS
10
2.939
20
2.71951
11
2.94583
21
2.72122
0
LINE
8
BLACK
6
CONTINUOUS
10
2.94583
20
2.72122
11
2.94886
21
2.72274
0
LINE
8
BLACK
6
CONTINUOUS
10
2.94886
20
2.72274
11
2.95178
21
2.72566
0
LINE
8
BLACK
6
CONTINUOUS
10
2.95178
20
2.72566
11
2.95328
21
2.73016
0
LINE
8
BLACK
6
CONTINUOUS
10
2.95328
20
2.73016
11
2.95328
21
2.73611
0
LINE
8
BLACK
6
CONTINUOUS
10
2.95328
20
2.73611
11
2.91982
21
2.73611
0
LINE
8
BLACK
6
CONTINUOUS
10
2.67667
20
2.74167
11
2.67736
21
2.74
0
LINE
8
BLACK
6
CONTINUOUS
10
2.67736
20
2.74
11
2.67667
21
2.73833
0
LINE
8
BLACK
6
CONTINUOUS
10
2.67667
20
2.73833
11
2.675
21
2.73764
0
LINE
8
BLACK
6
CONTINUOUS
10
2.675
20
2.73764
11
2.645
21
2.73764
0
LINE
8
BLACK
6
CONTINUOUS
10
2.645
20
2.73764
11
2.64333
21
2.73833
0
LINE
8
BLACK
6
CONTINUOUS
10
2.64333
20
2.73833
11
2.64264
21
2.74
0
LINE
8
BLACK
6
CONTINUOUS
10
2.64264
20
2.74
11
2.64333
21
2.74167
0
LINE
8
BLACK
6
CONTINUOUS
10
2.64333
20
2.74167
11
2.645
21
2.74236
0
LINE
8
BLACK
6
CONTINUOUS
10
2.645
20
2.74236
11
2.675
21
2.74236
0
LINE
8
BLACK
6
CONTINUOUS
10
2.675
20
2.74236
11
2.67667
21
2.74167
0
LINE
8
BLACK
6
CONTINUOUS
10
2.60226
20
2.8419
11
2.60295
21
2.84
0
LINE
8
BLACK
6
CONTINUOUS
10
2.60295
20
2.84
11
2.60295
21
2.78
0
LINE
8
BLACK
6
CONTINUOUS
10
2.60295
20
2.78
11
2.60277
21
2.77899
0
LINE
8
BLACK
6
CONTINUOUS
10
2.60277
20
2.77899
11
2.60148
21
2.77744
0
LINE
8
BLACK
6
CONTINUOUS
10
2.60148
20
2.77744
11
2.59949
21
2.77709
0
LINE
8
BLACK
6
CONTINUOUS
10
2.59949
20
2.77709
11
2.59774
21
2.7781
0
LINE
8
BLACK
6
CONTINUOUS
10
2.59774
20
2.7781
11
2.59705
21
2.78
0
LINE
8
BLACK
6
CONTINUOUS
10
2.59705
20
2.78
11
2.59705
21
2.84
0
LINE
8
BLACK
6
CONTINUOUS
10
2.59705
20
2.84
11
2.59723
21
2.84101
0
LINE
8
BLACK
6
CONTINUOUS
10
2.59723
20
2.84101
11
2.59852
21
2.84256
0
LINE
8
BLACK
6
CONTINUOUS
10
2.59852
20
2.84256
11
2.60051
21
2.84291
0
LINE
8
BLACK
6
CONTINUOUS
10
2.60051
20
2.84291
11
2.60226
21
2.8419
0
LINE
8
BLACK
6
CONTINUOUS
10
2.72226
20
2.8419
11
2.72295
21
2.84
0
LINE
8
BLACK
6
CONTINUOUS
10
2.72295
20
2.84
11
2.72295
21
2.78
0
LINE
8
BLACK
6
CONTINUOUS
10
2.72295
20
2.78
11
2.72277
21
2.77899
0
LINE
8
BLACK
6
CONTINUOUS
10
2.72277
20
2.77899
11
2.72148
21
2.77744
0
LINE
8
BLACK
6
CONTINUOUS
10
2.72148
20
2.77744
11
2.71949
21
2.77709
0
LINE
8
BLACK
6
CONTINUOUS
10
2.71949
20
2.77709
11
2.71774
21
2.7781
0
LINE
8
BLACK
6
CONTINUOUS
10
2.71774
20
2.7781
11
2.71705
21
2.78
0
LINE
8
BLACK
6
CONTINUOUS
10
2.71705
20
2.78
11
2.71705
21
2.84
0
LINE
8
BLACK
6
CONTINUOUS
10
2.71705
20
2.84
11
2.71723
21
2.84101
0
LINE
8
BLACK
6
CONTINUOUS
10
2.71723
20
2.84101
11
2.71852
21
2.84256
0
LINE
8
BLACK
6
CONTINUOUS
10
2.71852
20
2.84256
11
2.72051
21
2.84291
0
LINE
8
BLACK
6
CONTINUOUS
10
2.72051
20
2.84291
11
2.72226
21
2.8419
0
LINE
8
BLACK
6
CONTINUOUS
10
2.67667
20
2.78167
11
2.67736
21
2.78
0
LINE
8
BLACK
6
CONTINUOUS
10
2.67736
20
2.78
11
2.67667
21
2.77833
0
LINE
8
BLACK
6
CONTINUOUS
10
2.67667
20
2.77833
11
2.675
21
2.77764
0
LINE
8
BLACK
6
CONTINUOUS
10
2.675
20
2.77764
11
2.645
21
2.77764
0
LINE
8
BLACK
6
CONTINUOUS
10
2.645
20
2.77764
11
2.64333
21
2.77833
0
LINE
8
BLACK
6
CONTINUOUS
10
2.64333
20
2.77833
11
2.64264
21
2.78
0
LINE
8
BLACK
6
CONTINUOUS
10
2.64264
20
2.78
11
2.64333
21
2.78167
0
LINE
8
BLACK
6
CONTINUOUS
10
2.64333
20
2.78167
11
2.645
21
2.78236
0
LINE
8
BLACK
6
CONTINUOUS
10
2.645
20
2.78236
11
2.675
21
2.78236
0
LINE
8
BLACK
6
CONTINUOUS
10
2.675
20
2.78236
11
2.67667
21
2.78167
0
LINE
8
BLACK
6
CONTINUOUS
10
2.67667
20
2.84167
11
2.67736
21
2.84
0
LINE
8
BLACK
6
CONTINUOUS
10
2.67736
20
2.84
11
2.67667
21
2.83833
0
LINE
8
BLACK
6
CONTINUOUS
10
2.67667
20
2.83833
11
2.675
21
2.83764
0
LINE
8
BLACK
6
CONTINUOUS
10
2.675
20
2.83764
11
2.645
21
2.83764
0
LINE
8
BLACK
6
CONTINUOUS
10
2.645
20
2.83764
11
2.64333
21
2.83833
0
LINE
8
BLACK
6
CONTINUOUS
10
2.64333
20
2.83833
11
2.64264
21
2.84
0
LINE
8
BLACK
6
CONTINUOUS
10
2.64264
20
2.84
11
2.64333
21
2.84167
0
LINE
8
BLACK
6
CONTINUOUS
10
2.64333
20
2.84167
11
2.645
21
2.84236
0
LINE
8
BLACK
6
CONTINUOUS
10
2.645
20
2.84236
11
2.675
21
2.84236
0
LINE
8
BLACK
6
CONTINUOUS
10
2.675
20
2.84236
11
2.67667
21
2.84167
0
LINE
8
BLACK
6
CONTINUOUS
10
2.04616
20
2.86708
11
2.04685
21
2.86541
0
LINE
8
BLACK
6
CONTINUOUS
10
2.04685
20
2.86541
11
2.04685
21
2.8595
0
LINE
8
BLACK
6
CONTINUOUS
10
2.04685
20
2.8595
11
2.04616
21
2.85783
0
LINE
8
BLACK
6
CONTINUOUS
10
2.04616
20
2.85783
11
2.04449
21
2.85714
0
LINE
8
BLACK
6
CONTINUOUS
10
2.04449
20
2.85714
11
2.04282
21
2.85783
0
LINE
8
BLACK
6
CONTINUOUS
10
2.04282
20
2.85783
11
2.04213
21
2.8595
0
LINE
8
BLACK
6
CONTINUOUS
10
2.04213
20
2.8595
11
2.04213
21
2.86304
0
LINE
8
BLACK
6
CONTINUOUS
10
2.04213
20
2.86304
11
1.85787
21
2.86304
0
LINE
8
BLACK
6
CONTINUOUS
10
1.85787
20
2.86304
11
1.85787
21
2.8595
0
LINE
8
BLACK
6
CONTINUOUS
10
1.85787
20
2.8595
11
1.85718
21
2.85783
0
LINE
8
BLACK
6
CONTINUOUS
10
1.85718
20
2.85783
11
1.85551
21
2.85714
0
LINE
8
BLACK
6
CONTINUOUS
10
1.85551
20
2.85714
11
1.85384
21
2.85783
0
LINE
8
BLACK
6
CONTINUOUS
10
1.85384
20
2.85783
11
1.85315
21
2.8595
0
LINE
8
BLACK
6
CONTINUOUS
10
1.85315
20
2.8595
11
1.85315
21
2.86541
0
LINE
8
BLACK
6
CONTINUOUS
10
1.85315
20
2.86541
11
1.85384
21
2.86708
0
LINE
8
BLACK
6
CONTINUOUS
10
1.85384
20
2.86708
11
1.85551
21
2.86777
0
LINE
8
BLACK
6
CONTINUOUS
10
1.85551
20
2.86777
11
2.04449
21
2.86777
0
LINE
8
BLACK
6
CONTINUOUS
10
2.04449
20
2.86777
11
2.04616
21
2.86708
0
LINE
8
BLACK
6
CONTINUOUS
10
2.72226
20
2.9419
11
2.72295
21
2.94
0
LINE
8
BLACK
6
CONTINUOUS
10
2.72295
20
2.94
11
2.72295
21
2.88
0
LINE
8
BLACK
6
CONTINUOUS
10
2.72295
20
2.88
11
2.72277
21
2.87899
0
LINE
8
BLACK
6
CONTINUOUS
10
2.72277
20
2.87899
11
2.72148
21
2.87744
0
LINE
8
BLACK
6
CONTINUOUS
10
2.72148
20
2.87744
11
2.71949
21
2.87709
0
LINE
8
BLACK
6
CONTINUOUS
10
2.71949
20
2.87709
11
2.71774
21
2.8781
0
LINE
8
BLACK
6
CONTINUOUS
10
2.71774
20
2.8781
11
2.71705
21
2.88
0
LINE
8
BLACK
6
CONTINUOUS
10
2.71705
20
2.88
11
2.71705
21
2.94
0
LINE
8
BLACK
6
CONTINUOUS
10
2.71705
20
2.94
11
2.71723
21
2.94101
0
LINE
8
BLACK
6
CONTINUOUS
10
2.71723
20
2.94101
11
2.71852
21
2.94256
0
LINE
8
BLACK
6
CONTINUOUS
10
2.71852
20
2.94256
11
2.72051
21
2.94291
0
LINE
8
BLACK
6
CONTINUOUS
10
2.72051
20
2.94291
11
2.72226
21
2.9419
0
LINE
8
BLACK
6
CONTINUOUS
10
2.60226
20
2.9419
11
2.60295
21
2.94
0
LINE
8
BLACK
6
CONTINUOUS
10
2.60295
20
2.94
11
2.60295
21
2.88
0
LINE
8
BLACK
6
CONTINUOUS
10
2.60295
20
2.88
11
2.60277
21
2.87899
0
LINE
8
BLACK
6
CONTINUOUS
10
2.60277
20
2.87899
11
2.60148
21
2.87744
0
LINE
8
BLACK
6
CONTINUOUS
10
2.60148
20
2.87744
11
2.59949
21
2.87709
0
LINE
8
BLACK
6
CONTINUOUS
10
2.59949
20
2.87709
11
2.59774
21
2.8781
0
LINE
8
BLACK
6
CONTINUOUS
10
2.59774
20
2.8781
11
2.59705
21
2.88
0
LINE
8
BLACK
6
CONTINUOUS
10
2.59705
20
2.88
11
2.59705
21
2.94
0
LINE
8
BLACK
6
CONTINUOUS
10
2.59705
20
2.94
11
2.59723
21
2.94101
0
LINE
8
BLACK
6
CONTINUOUS
10
2.59723
20
2.94101
11
2.59852
21
2.94256
0
LINE
8
BLACK
6
CONTINUOUS
10
2.59852
20
2.94256
11
2.60051
21
2.94291
0
LINE
8
BLACK
6
CONTINUOUS
10
2.60051
20
2.94291
11
2.60226
21
2.9419
0
LINE
8
BLACK
6
CONTINUOUS
10
2.67667
20
2.88167
11
2.67736
21
2.88
0
LINE
8
BLACK
6
CONTINUOUS
10
2.67736
20
2.88
11
2.67667
21
2.87833
0
LINE
8
BLACK
6
CONTINUOUS
10
2.67667
20
2.87833
11
2.675
21
2.87764
0
LINE
8
BLACK
6
CONTINUOUS
10
2.675
20
2.87764
11
2.645
21
2.87764
0
LINE
8
BLACK
6
CONTINUOUS
10
2.645
20
2.87764
11
2.64333
21
2.87833
0
LINE
8
BLACK
6
CONTINUOUS
10
2.64333
20
2.87833
11
2.64264
21
2.88
0
LINE
8
BLACK
6
CONTINUOUS
10
2.64264
20
2.88
11
2.64333
21
2.88167
0
LINE
8
BLACK
6
CONTINUOUS
10
2.64333
20
2.88167
11
2.645
21
2.88236
0
LINE
8
BLACK
6
CONTINUOUS
10
2.645
20
2.88236
11
2.675
21
2.88236
0
LINE
8
BLACK
6
CONTINUOUS
10
2.675
20
2.88236
11
2.67667
21
2.88167
0
LINE
8
BLACK
6
CONTINUOUS
10
2.67667
20
2.94167
11
2.67736
21
2.94
0
LINE
8
BLACK
6
CONTINUOUS
10
2.67736
20
2.94
11
2.67667
21
2.93833
0
LINE
8
BLACK
6
CONTINUOUS
10
2.67667
20
2.93833
11
2.675
21
2.93764
0
LINE
8
BLACK
6
CONTINUOUS
10
2.675
20
2.93764
11
2.645
21
2.93764
0
LINE
8
BLACK
6
CONTINUOUS
10
2.645
20
2.93764
11
2.64333
21
2.93833
0
LINE
8
BLACK
6
CONTINUOUS
10
2.64333
20
2.93833
11
2.64264
21
2.94
0
LINE
8
BLACK
6
CONTINUOUS
10
2.64264
20
2.94
11
2.64333
21
2.94167
0
LINE
8
BLACK
6
CONTINUOUS
10
2.64333
20
2.94167
11
2.645
21
2.94236
0
LINE
8
BLACK
6
CONTINUOUS
10
2.645
20
2.94236
11
2.675
21
2.94236
0
LINE
8
BLACK
6
CONTINUOUS
10
2.675
20
2.94236
11
2.67667
21
2.94167
0
LINE
8
BLACK
6
CONTINUOUS
10
2.07101
20
2.98236
11
2.07256
21
2.98106
0
LINE
8
BLACK
6
CONTINUOUS
10
2.07256
20
2.98106
11
2.07291
21
2.97907
0
LINE
8
BLACK
6
CONTINUOUS
10
2.07291
20
2.97907
11
2.0719
21
2.97732
0
LINE
8
BLACK
6
CONTINUOUS
10
2.0719
20
2.97732
11
2.07
21
2.97663
0
LINE
8
BLACK
6
CONTINUOUS
10
2.07
20
2.97663
11
2.01
21
2.97663
0
LINE
8
BLACK
6
CONTINUOUS
10
2.01
20
2.97663
11
2.00899
21
2.97681
0
LINE
8
BLACK
6
CONTINUOUS
10
2.00899
20
2.97681
11
2.00744
21
2.97811
0
LINE
8
BLACK
6
CONTINUOUS
10
2.00744
20
2.97811
11
2.00709
21
2.9801
0
LINE
8
BLACK
6
CONTINUOUS
10
2.00709
20
2.9801
11
2.0081
21
2.98185
0
LINE
8
BLACK
6
CONTINUOUS
10
2.0081
20
2.98185
11
2.01
21
2.98254
0
LINE
8
BLACK
6
CONTINUOUS
10
2.01
20
2.98254
11
2.07
21
2.98254
0
LINE
8
BLACK
6
CONTINUOUS
10
2.07
20
2.98254
11
2.07101
21
2.98236
0
LINE
8
BLACK
6
CONTINUOUS
10
2.72226
20
3.0419
11
2.72295
21
3.04
0
LINE
8
BLACK
6
CONTINUOUS
10
2.72295
20
3.04
11
2.72295
21
2.98
0
LINE
8
BLACK
6
CONTINUOUS
10
2.72295
20
2.98
11
2.72277
21
2.97899
0
LINE
8
BLACK
6
CONTINUOUS
10
2.72277
20
2.97899
11
2.72148
21
2.97744
0
LINE
8
BLACK
6
CONTINUOUS
10
2.72148
20
2.97744
11
2.71949
21
2.97709
0
LINE
8
BLACK
6
CONTINUOUS
10
2.71949
20
2.97709
11
2.71774
21
2.9781
0
LINE
8
BLACK
6
CONTINUOUS
10
2.71774
20
2.9781
11
2.71705
21
2.98
0
LINE
8
BLACK
6
CONTINUOUS
10
2.71705
20
2.98
11
2.71705
21
3.04
0
LINE
8
BLACK
6
CONTINUOUS
10
2.71705
20
3.04
11
2.71723
21
3.04101
0
LINE
8
BLACK
6
CONTINUOUS
10
2.71723
20
3.04101
11
2.71852
21
3.04256
0
LINE
8
BLACK
6
CONTINUOUS
10
2.71852
20
3.04256
11
2.72051
21
3.04291
0
LINE
8
BLACK
6
CONTINUOUS
10
2.72051
20
3.04291
11
2.72226
21
3.0419
0
LINE
8
BLACK
6
CONTINUOUS
10
2.60226
20
3.0419
11
2.60295
21
3.04
0
LINE
8
BLACK
6
CONTINUOUS
10
2.60295
20
3.04
11
2.60295
21
2.98
0
LINE
8
BLACK
6
CONTINUOUS
10
2.60295
20
2.98
11
2.60277
21
2.97899
0
LINE
8
BLACK
6
CONTINUOUS
10
2.60277
20
2.97899
11
2.60148
21
2.97744
0
LINE
8
BLACK
6
CONTINUOUS
10
2.60148
20
2.97744
11
2.59949
21
2.97709
0
LINE
8
BLACK
6
CONTINUOUS
10
2.59949
20
2.97709
11
2.59774
21
2.9781
0
LINE
8
BLACK
6
CONTINUOUS
10
2.59774
20
2.9781
11
2.59705
21
2.98
0
LINE
8
BLACK
6
CONTINUOUS
10
2.59705
20
2.98
11
2.59705
21
3.04
0
LINE
8
BLACK
6
CONTINUOUS
10
2.59705
20
3.04
11
2.59723
21
3.04101
0
LINE
8
BLACK
6
CONTINUOUS
10
2.59723
20
3.04101
11
2.59852
21
3.04256
0
LINE
8
BLACK
6
CONTINUOUS
10
2.59852
20
3.04256
11
2.60051
21
3.04291
0
LINE
8
BLACK
6
CONTINUOUS
10
2.60051
20
3.04291
11
2.60226
21
3.0419
0
LINE
8
BLACK
6
CONTINUOUS
10
2.67667
20
2.98167
11
2.67736
21
2.98
0
LINE
8
BLACK
6
CONTINUOUS
10
2.67736
20
2.98
11
2.67667
21
2.97833
0
LINE
8
BLACK
6
CONTINUOUS
10
2.67667
20
2.97833
11
2.675
21
2.97764
0
LINE
8
BLACK
6
CONTINUOUS
10
2.675
20
2.97764
11
2.645
21
2.97764
0
LINE
8
BLACK
6
CONTINUOUS
10
2.645
20
2.97764
11
2.64333
21
2.97833
0
LINE
8
BLACK
6
CONTINUOUS
10
2.64333
20
2.97833
11
2.64264
21
2.98
0
LINE
8
BLACK
6
CONTINUOUS
10
2.64264
20
2.98
11
2.64333
21
2.98167
0
LINE
8
BLACK
6
CONTINUOUS
10
2.64333
20
2.98167
11
2.645
21
2.98236
0
LINE
8
BLACK
6
CONTINUOUS
10
2.645
20
2.98236
11
2.675
21
2.98236
0
LINE
8
BLACK
6
CONTINUOUS
10
2.675
20
2.98236
11
2.67667
21
2.98167
0
LINE
8
BLACK
6
CONTINUOUS
10
2.07167
20
3.05625
11
2.07236
21
3.05458
0
LINE
8
BLACK
6
CONTINUOUS
10
2.07236
20
3.05458
11
2.07236
21
3.02458
0
LINE
8
BLACK
6
CONTINUOUS
10
2.07236
20
3.02458
11
2.07167
21
3.02291
0
LINE
8
BLACK
6
CONTINUOUS
10
2.07167
20
3.02291
11
2.07
21
3.02222
0
LINE
8
BLACK
6
CONTINUOUS
10
2.07
20
3.02222
11
2.06833
21
3.02291
0
LINE
8
BLACK
6
CONTINUOUS
10
2.06833
20
3.02291
11
2.06764
21
3.02458
0
LINE
8
BLACK
6
CONTINUOUS
10
2.06764
20
3.02458
11
2.06764
21
3.05458
0
LINE
8
BLACK
6
CONTINUOUS
10
2.06764
20
3.05458
11
2.06833
21
3.05625
0
LINE
8
BLACK
6
CONTINUOUS
10
2.06833
20
3.05625
11
2.07
21
3.05695
0
LINE
8
BLACK
6
CONTINUOUS
10
2.07
20
3.05695
11
2.07167
21
3.05625
0
LINE
8
BLACK
6
CONTINUOUS
10
2.01167
20
3.05625
11
2.01236
21
3.05458
0
LINE
8
BLACK
6
CONTINUOUS
10
2.01236
20
3.05458
11
2.01236
21
3.02458
0
LINE
8
BLACK
6
CONTINUOUS
10
2.01236
20
3.02458
11
2.01167
21
3.02291
0
LINE
8
BLACK
6
CONTINUOUS
10
2.01167
20
3.02291
11
2.01
21
3.02222
0
LINE
8
BLACK
6
CONTINUOUS
10
2.01
20
3.02222
11
2.00833
21
3.02291
0
LINE
8
BLACK
6
CONTINUOUS
10
2.00833
20
3.02291
11
2.00764
21
3.02458
0
LINE
8
BLACK
6
CONTINUOUS
10
2.00764
20
3.02458
11
2.00764
21
3.05458
0
LINE
8
BLACK
6
CONTINUOUS
10
2.00764
20
3.05458
11
2.00833
21
3.05625
0
LINE
8
BLACK
6
CONTINUOUS
10
2.00833
20
3.05625
11
2.01
21
3.05695
0
LINE
8
BLACK
6
CONTINUOUS
10
2.01
20
3.05695
11
2.01167
21
3.05625
0
LINE
8
BLACK
6
CONTINUOUS
10
2.67667
20
3.04167
11
2.67736
21
3.04
0
LINE
8
BLACK
6
CONTINUOUS
10
2.67736
20
3.04
11
2.67667
21
3.03833
0
LINE
8
BLACK
6
CONTINUOUS
10
2.67667
20
3.03833
11
2.675
21
3.03764
0
LINE
8
BLACK
6
CONTINUOUS
10
2.675
20
3.03764
11
2.645
21
3.03764
0
LINE
8
BLACK
6
CONTINUOUS
10
2.645
20
3.03764
11
2.64333
21
3.03833
0
LINE
8
BLACK
6
CONTINUOUS
10
2.64333
20
3.03833
11
2.64264
21
3.04
0
LINE
8
BLACK
6
CONTINUOUS
10
2.64264
20
3.04
11
2.64333
21
3.04167
0
LINE
8
BLACK
6
CONTINUOUS
10
2.64333
20
3.04167
11
2.645
21
3.04236
0
LINE
8
BLACK
6
CONTINUOUS
10
2.645
20
3.04236
11
2.675
21
3.04236
0
LINE
8
BLACK
6
CONTINUOUS
10
2.675
20
3.04236
11
2.67667
21
3.04167
0
LINE
8
BLACK
6
CONTINUOUS
10
2.60226
20
3.1419
11
2.60295
21
3.14
0
LINE
8
BLACK
6
CONTINUOUS
10
2.60295
20
3.14
11
2.60295
21
3.08
0
LINE
8
BLACK
6
CONTINUOUS
10
2.60295
20
3.08
11
2.60277
21
3.07899
0
LINE
8
BLACK
6
CONTINUOUS
10
2.60277
20
3.07899
11
2.60148
21
3.07744
0
LINE
8
BLACK
6
CONTINUOUS
10
2.60148
20
3.07744
11
2.59949
21
3.07709
0
LINE
8
BLACK
6
CONTINUOUS
10
2.59949
20
3.07709
11
2.59774
21
3.0781
0
LINE
8
BLACK
6
CONTINUOUS
10
2.59774
20
3.0781
11
2.59705
21
3.08
0
LINE
8
BLACK
6
CONTINUOUS
10
2.59705
20
3.08
11
2.59705
21
3.14
0
LINE
8
BLACK
6
CONTINUOUS
10
2.59705
20
3.14
11
2.59723
21
3.14101
0
LINE
8
BLACK
6
CONTINUOUS
10
2.59723
20
3.14101
11
2.59852
21
3.14256
0
LINE
8
BLACK
6
CONTINUOUS
10
2.59852
20
3.14256
11
2.60051
21
3.14291
0
LINE
8
BLACK
6
CONTINUOUS
10
2.60051
20
3.14291
11
2.60226
21
3.1419
0
LINE
8
BLACK
6
CONTINUOUS
10
2.72226
20
3.1419
11
2.72295
21
3.14
0
LINE
8
BLACK
6
CONTINUOUS
10
2.72295
20
3.14
11
2.72295
21
3.08
0
LINE
8
BLACK
6
CONTINUOUS
10
2.72295
20
3.08
11
2.72277
21
3.07899
0
LINE
8
BLACK
6
CONTINUOUS
10
2.72277
20
3.07899
11
2.72148
21
3.07744
0
LINE
8
BLACK
6
CONTINUOUS
10
2.72148
20
3.07744
11
2.71949
21
3.07709
0
LINE
8
BLACK
6
CONTINUOUS
10
2.71949
20
3.07709
11
2.71774
21
3.0781
0
LINE
8
BLACK
6
CONTINUOUS
10
2.71774
20
3.0781
11
2.71705
21
3.08
0
LINE
8
BLACK
6
CONTINUOUS
10
2.71705
20
3.08
11
2.71705
21
3.14
0
LINE
8
BLACK
6
CONTINUOUS
10
2.71705
20
3.14
11
2.71723
21
3.14101
0
LINE
8
BLACK
6
CONTINUOUS
10
2.71723
20
3.14101
11
2.71852
21
3.14256
0
LINE
8
BLACK
6
CONTINUOUS
10
2.71852
20
3.14256
11
2.72051
21
3.14291
0
LINE
8
BLACK
6
CONTINUOUS
10
2.72051
20
3.14291
11
2.72226
21
3.1419
0
LINE
8
BLACK
6
CONTINUOUS
10
2.67667
20
3.08167
11
2.67736
21
3.08
0
LINE
8
BLACK
6
CONTINUOUS
10
2.67736
20
3.08
11
2.67667
21
3.07833
0
LINE
8
BLACK
6
CONTINUOUS
10
2.67667
20
3.07833
11
2.675
21
3.07764
0
LINE
8
BLACK
6
CONTINUOUS
10
2.675
20
3.07764
11
2.645
21
3.07764
0
LINE
8
BLACK
6
CONTINUOUS
10
2.645
20
3.07764
11
2.64333
21
3.07833
0
LINE
8
BLACK
6
CONTINUOUS
10
2.64333
20
3.07833
11
2.64264
21
3.08
0
LINE
8
BLACK
6
CONTINUOUS
10
2.64264
20
3.08
11
2.64333
21
3.08167
0
LINE
8
BLACK
6
CONTINUOUS
10
2.64333
20
3.08167
11
2.645
21
3.08236
0
LINE
8
BLACK
6
CONTINUOUS
10
2.645
20
3.08236
11
2.675
21
3.08236
0
LINE
8
BLACK
6
CONTINUOUS
10
2.675
20
3.08236
11
2.67667
21
3.08167
0
LINE
8
BLACK
6
CONTINUOUS
10
1.93601
20
3.12637
11
1.93615
21
3.12626
0
LINE
8
BLACK
6
CONTINUOUS
10
1.93615
20
3.12626
11
1.93632
21
3.12623
0
LINE
8
BLACK
6
CONTINUOUS
10
1.93632
20
3.12623
11
1.94007
21
3.12436
0
LINE
8
BLACK
6
CONTINUOUS
10
1.94007
20
3.12436
11
1.94078
21
3.12383
0
LINE
8
BLACK
6
CONTINUOUS
10
1.94078
20
3.12383
11
1.94084
21
3.12381
0
LINE
8
BLACK
6
CONTINUOUS
10
1.94084
20
3.12381
11
1.94271
21
3.12193
0
LINE
8
BLACK
6
CONTINUOUS
10
1.94271
20
3.12193
11
1.9433
21
3.12109
0
LINE
8
BLACK
6
CONTINUOUS
10
1.9433
20
3.12109
11
1.94348
21
3.11908
0
LINE
8
BLACK
6
CONTINUOUS
10
1.94348
20
3.11908
11
1.94232
21
3.11743
0
LINE
8
BLACK
6
CONTINUOUS
10
1.94232
20
3.11743
11
1.94037
21
3.1169
0
LINE
8
BLACK
6
CONTINUOUS
10
1.94037
20
3.1169
11
1.93854
21
3.11776
0
LINE
8
BLACK
6
CONTINUOUS
10
1.93854
20
3.11776
11
1.937
21
3.11929
0
LINE
8
BLACK
6
CONTINUOUS
10
1.937
20
3.11929
11
1.9343
21
3.12064
0
LINE
8
BLACK
6
CONTINUOUS
10
1.9343
20
3.12064
11
1.92633
21
3.12064
0
LINE
8
BLACK
6
CONTINUOUS
10
1.92633
20
3.12064
11
1.92363
21
3.11929
0
LINE
8
BLACK
6
CONTINUOUS
10
1.92363
20
3.11929
11
1.92243
21
3.1181
0
LINE
8
BLACK
6
CONTINUOUS
10
1.92243
20
3.1181
11
1.92108
21
3.1154
0
LINE
8
BLACK
6
CONTINUOUS
10
1.92108
20
3.1154
11
1.92108
21
3.11282
0
LINE
8
BLACK
6
CONTINUOUS
10
1.92108
20
3.11282
11
1.92258
21
3.10832
0
LINE
8
BLACK
6
CONTINUOUS
10
1.92258
20
3.10832
11
1.94459
21
3.08631
0
LINE
8
BLACK
6
CONTINUOUS
10
1.94459
20
3.08631
11
1.94496
21
3.08578
0
LINE
8
BLACK
6
CONTINUOUS
10
1.94496
20
3.08578
11
1.94506
21
3.0857
0
LINE
8
BLACK
6
CONTINUOUS
10
1.94506
20
3.0857
11
1.94507
21
3.08562
0
LINE
8
BLACK
6
CONTINUOUS
10
1.94507
20
3.08562
11
1.94518
21
3.08547
0
LINE
8
BLACK
6
CONTINUOUS
10
1.94518
20
3.08547
11
1.94525
21
3.08459
0
LINE
8
BLACK
6
CONTINUOUS
10
1.94525
20
3.08459
11
1.94541
21
3.08371
0
LINE
8
BLACK
6
CONTINUOUS
10
1.94541
20
3.08371
11
1.94534
21
3.08359
0
LINE
8
BLACK
6
CONTINUOUS
10
1.94534
20
3.08359
11
1.94535
21
3.08346
0
LINE
8
BLACK
6
CONTINUOUS
10
1.94535
20
3.08346
11
1.94484
21
3.08273
0
LINE
8
BLACK
6
CONTINUOUS
10
1.94484
20
3.08273
11
1.9444
21
3.08196
0
LINE
8
BLACK
6
CONTINUOUS
10
1.9444
20
3.08196
11
1.94427
21
3.08192
0
LINE
8
BLACK
6
CONTINUOUS
10
1.94427
20
3.08192
11
1.94419
21
3.08181
0
LINE
8
BLACK
6
CONTINUOUS
10
1.94419
20
3.08181
11
1.94334
21
3.08158
0
LINE
8
BLACK
6
CONTINUOUS
10
1.94334
20
3.08158
11
1.9425
21
3.08127
0
LINE
8
BLACK
6
CONTINUOUS
10
1.9425
20
3.08127
11
1.91813
21
3.08127
0
LINE
8
BLACK
6
CONTINUOUS
10
1.91813
20
3.08127
11
1.91712
21
3.08145
0
LINE
8
BLACK
6
CONTINUOUS
10
1.91712
20
3.08145
11
1.91557
21
3.08275
0
LINE
8
BLACK
6
CONTINUOUS
10
1.91557
20
3.08275
11
1.91522
21
3.08474
0
LINE
8
BLACK
6
CONTINUOUS
10
1.91522
20
3.08474
11
1.91623
21
3.08649
0
LINE
8
BLACK
6
CONTINUOUS
10
1.91623
20
3.08649
11
1.91813
21
3.08718
0
LINE
8
BLACK
6
CONTINUOUS
10
1.91813
20
3.08718
11
1.93537
21
3.08718
0
LINE
8
BLACK
6
CONTINUOUS
10
1.93537
20
3.08718
11
1.91792
21
3.10463
0
LINE
8
BLACK
6
CONTINUOUS
10
1.91792
20
3.10463
11
1.91733
21
3.10547
0
LINE
8
BLACK
6
CONTINUOUS
10
1.91733
20
3.10547
11
1.91731
21
3.10565
0
LINE
8
BLACK
6
CONTINUOUS
10
1.91731
20
3.10565
11
1.9172
21
3.10579
0
LINE
8
BLACK
6
CONTINUOUS
10
1.9172
20
3.10579
11
1.91533
21
3.11141
0
LINE
8
BLACK
6
CONTINUOUS
10
1.91533
20
3.11141
11
1.9152
21
3.11228
0
LINE
8
BLACK
6
CONTINUOUS
10
1.9152
20
3.11228
11
1.91518
21
3.11235
0
LINE
8
BLACK
6
CONTINUOUS
10
1.91518
20
3.11235
11
1.91518
21
3.11609
0
LINE
8
BLACK
6
CONTINUOUS
10
1.91518
20
3.11609
11
1.91535
21
3.1171
0
LINE
8
BLACK
6
CONTINUOUS
10
1.91535
20
3.1171
11
1.91547
21
3.11724
0
LINE
8
BLACK
6
CONTINUOUS
10
1.91547
20
3.11724
11
1.91549
21
3.11742
0
LINE
8
BLACK
6
CONTINUOUS
10
1.91549
20
3.11742
11
1.91736
21
3.12116
0
LINE
8
BLACK
6
CONTINUOUS
10
1.91736
20
3.12116
11
1.91789
21
3.12187
0
LINE
8
BLACK
6
CONTINUOUS
10
1.91789
20
3.12187
11
1.91792
21
3.12193
0
LINE
8
BLACK
6
CONTINUOUS
10
1.91792
20
3.12193
11
1.91979
21
3.12381
0
LINE
8
BLACK
6
CONTINUOUS
10
1.91979
20
3.12381
11
1.92051
21
3.12431
0
LINE
8
BLACK
6
CONTINUOUS
10
1.92051
20
3.12431
11
1.92056
21
3.12436
0
LINE
8
BLACK
6
CONTINUOUS
10
1.92056
20
3.12436
11
1.92431
21
3.12623
0
LINE
8
BLACK
6
CONTINUOUS
10
1.92431
20
3.12623
11
1.92529
21
3.12653
0
LINE
8
BLACK
6
CONTINUOUS
10
1.92529
20
3.12653
11
1.92546
21
3.12649
0
LINE
8
BLACK
6
CONTINUOUS
10
1.92546
20
3.12649
11
1.92563
21
3.12655
0
LINE
8
BLACK
6
CONTINUOUS
10
1.92563
20
3.12655
11
1.935
21
3.12655
0
LINE
8
BLACK
6
CONTINUOUS
10
1.935
20
3.12655
11
1.93601
21
3.12637
0
LINE
8
BLACK
6
CONTINUOUS
10
1.98226
20
3.12549
11
1.98295
21
3.12359
0
LINE
8
BLACK
6
CONTINUOUS
10
1.98295
20
3.12359
11
1.98295
21
3.09172
0
LINE
8
BLACK
6
CONTINUOUS
10
1.98295
20
3.09172
11
1.98277
21
3.09071
0
LINE
8
BLACK
6
CONTINUOUS
10
1.98277
20
3.09071
11
1.98266
21
3.09058
0
LINE
8
BLACK
6
CONTINUOUS
10
1.98266
20
3.09058
11
1.98264
21
3.0904
0
LINE
8
BLACK
6
CONTINUOUS
10
1.98264
20
3.0904
11
1.98076
21
3.08665
0
LINE
8
BLACK
6
CONTINUOUS
10
1.98076
20
3.08665
11
1.98024
21
3.08594
0
LINE
8
BLACK
6
CONTINUOUS
10
1.98024
20
3.08594
11
1.98021
21
3.08589
0
LINE
8
BLACK
6
CONTINUOUS
10
1.98021
20
3.08589
11
1.97833
21
3.08401
0
LINE
8
BLACK
6
CONTINUOUS
10
1.97833
20
3.08401
11
1.97761
21
3.0835
0
LINE
8
BLACK
6
CONTINUOUS
10
1.97761
20
3.0835
11
1.97757
21
3.08346
0
LINE
8
BLACK
6
CONTINUOUS
10
1.97757
20
3.08346
11
1.97382
21
3.08158
0
LINE
8
BLACK
6
CONTINUOUS
10
1.97382
20
3.08158
11
1.97283
21
3.08129
0
LINE
8
BLACK
6
CONTINUOUS
10
1.97283
20
3.08129
11
1.97266
21
3.08133
0
LINE
8
BLACK
6
CONTINUOUS
10
1.97266
20
3.08133
11
1.9725
21
3.08127
0
LINE
8
BLACK
6
CONTINUOUS
10
1.9725
20
3.08127
11
1.965
21
3.08127
0
LINE
8
BLACK
6
CONTINUOUS
10
1.965
20
3.08127
11
1.96399
21
3.08145
0
LINE
8
BLACK
6
CONTINUOUS
10
1.96399
20
3.08145
11
1.96385
21
3.08156
0
LINE
8
BLACK
6
CONTINUOUS
10
1.96385
20
3.08156
11
1.96368
21
3.08158
0
LINE
8
BLACK
6
CONTINUOUS
10
1.96368
20
3.08158
11
1.95993
21
3.08346
0
LINE
8
BLACK
6
CONTINUOUS
10
1.95993
20
3.08346
11
1.95922
21
3.08398
0
LINE
8
BLACK
6
CONTINUOUS
10
1.95922
20
3.08398
11
1.95916
21
3.08401
0
LINE
8
BLACK
6
CONTINUOUS
10
1.95916
20
3.08401
11
1.95729
21
3.08589
0
LINE
8
BLACK
6
CONTINUOUS
10
1.95729
20
3.08589
11
1.95678
21
3.08661
0
LINE
8
BLACK
6
CONTINUOUS
10
1.95678
20
3.08661
11
1.95673
21
3.08665
0
LINE
8
BLACK
6
CONTINUOUS
10
1.95673
20
3.08665
11
1.95486
21
3.0904
0
LINE
8
BLACK
6
CONTINUOUS
10
1.95486
20
3.0904
11
1.95457
21
3.09139
0
LINE
8
BLACK
6
CONTINUOUS
10
1.95457
20
3.09139
11
1.95461
21
3.09156
0
LINE
8
BLACK
6
CONTINUOUS
10
1.95461
20
3.09156
11
1.95455
21
3.09172
0
LINE
8
BLACK
6
CONTINUOUS
10
1.95455
20
3.09172
11
1.95455
21
3.12359
0
LINE
8
BLACK
6
CONTINUOUS
10
1.95455
20
3.12359
11
1.95472
21
3.1246
0
LINE
8
BLACK
6
CONTINUOUS
10
1.95472
20
3.1246
11
1.95602
21
3.12615
0
LINE
8
BLACK
6
CONTINUOUS
10
1.95602
20
3.12615
11
1.95801
21
3.1265
0
LINE
8
BLACK
6
CONTINUOUS
10
1.95801
20
3.1265
11
1.95976
21
3.12549
0
LINE
8
BLACK
6
CONTINUOUS
10
1.95976
20
3.12549
11
1.96045
21
3.12359
0
LINE
8
BLACK
6
CONTINUOUS
10
1.96045
20
3.12359
11
1.96045
21
3.09242
0
LINE
8
BLACK
6
CONTINUOUS
10
1.96045
20
3.09242
11
1.9618
21
3.08972
0
LINE
8
BLACK
6
CONTINUOUS
10
1.9618
20
3.08972
11
1.963
21
3.08853
0
LINE
8
BLACK
6
CONTINUOUS
10
1.963
20
3.08853
11
1.9657
21
3.08718
0
LINE
8
BLACK
6
CONTINUOUS
10
1.9657
20
3.08718
11
1.9718
21
3.08718
0
LINE
8
BLACK
6
CONTINUOUS
10
1.9718
20
3.08718
11
1.9745
21
3.08853
0
LINE
8
BLACK
6
CONTINUOUS
10
1.9745
20
3.08853
11
1.97569
21
3.08972
0
LINE
8
BLACK
6
CONTINUOUS
10
1.97569
20
3.08972
11
1.97704
21
3.09242
0
LINE
8
BLACK
6
CONTINUOUS
10
1.97704
20
3.09242
11
1.97704
21
3.12359
0
LINE
8
BLACK
6
CONTINUOUS
10
1.97704
20
3.12359
11
1.97722
21
3.1246
0
LINE
8
BLACK
6
CONTINUOUS
10
1.97722
20
3.1246
11
1.97852
21
3.12615
0
LINE
8
BLACK
6
CONTINUOUS
10
1.97852
20
3.12615
11
1.98051
21
3.1265
0
LINE
8
BLACK
6
CONTINUOUS
10
1.98051
20
3.1265
11
1.98226
21
3.12549
0
LINE
8
BLACK
6
CONTINUOUS
10
2.07101
20
3.10236
11
2.07256
21
3.10106
0
LINE
8
BLACK
6
CONTINUOUS
10
2.07256
20
3.10106
11
2.07291
21
3.09907
0
LINE
8
BLACK
6
CONTINUOUS
10
2.07291
20
3.09907
11
2.0719
21
3.09732
0
LINE
8
BLACK
6
CONTINUOUS
10
2.0719
20
3.09732
11
2.07
21
3.09663
0
LINE
8
BLACK
6
CONTINUOUS
10
2.07
20
3.09663
11
2.01
21
3.09663
0
LINE
8
BLACK
6
CONTINUOUS
10
2.01
20
3.09663
11
2.00899
21
3.09681
0
LINE
8
BLACK
6
CONTINUOUS
10
2.00899
20
3.09681
11
2.00744
21
3.09811
0
LINE
8
BLACK
6
CONTINUOUS
10
2.00744
20
3.09811
11
2.00709
21
3.1001
0
LINE
8
BLACK
6
CONTINUOUS
10
2.00709
20
3.1001
11
2.0081
21
3.10185
0
LINE
8
BLACK
6
CONTINUOUS
10
2.0081
20
3.10185
11
2.01
21
3.10254
0
LINE
8
BLACK
6
CONTINUOUS
10
2.01
20
3.10254
11
2.07
21
3.10254
0
LINE
8
BLACK
6
CONTINUOUS
10
2.07
20
3.10254
11
2.07101
21
3.10236
0
LINE
8
BLACK
6
CONTINUOUS
10
1.85384
20
3.12792
11
1.85315
21
3.12959
0
LINE
8
BLACK
6
CONTINUOUS
10
1.85315
20
3.12959
11
1.85315
21
3.13314
0
LINE
8
BLACK
6
CONTINUOUS
10
1.85315
20
3.13314
11
1.78858
21
3.13314
0
LINE
8
BLACK
6
CONTINUOUS
10
1.78858
20
3.13314
11
1.78691
21
3.13383
0
LINE
8
BLACK
6
CONTINUOUS
10
1.78691
20
3.13383
11
1.78622
21
3.1355
0
LINE
8
BLACK
6
CONTINUOUS
10
1.78622
20
3.1355
11
1.78691
21
3.13717
0
LINE
8
BLACK
6
CONTINUOUS
10
1.78691
20
3.13717
11
1.78858
21
3.13786
0
LINE
8
BLACK
6
CONTINUOUS
10
1.78858
20
3.13786
11
1.85551
21
3.13786
0
LINE
8
BLACK
6
CONTINUOUS
10
1.85551
20
3.13786
11
1.85718
21
3.13717
0
LINE
8
BLACK
6
CONTINUOUS
10
1.85718
20
3.13717
11
1.85787
21
3.1355
0
LINE
8
BLACK
6
CONTINUOUS
10
1.85787
20
3.1355
11
1.85787
21
3.13196
0
LINE
8
BLACK
6
CONTINUOUS
10
1.85787
20
3.13196
11
2.04213
21
3.13196
0
LINE
8
BLACK
6
CONTINUOUS
10
2.04213
20
3.13196
11
2.04213
21
3.1355
0
LINE
8
BLACK
6
CONTINUOUS
10
2.04213
20
3.1355
11
2.04282
21
3.13717
0
LINE
8
BLACK
6
CONTINUOUS
10
2.04282
20
3.13717
11
2.04449
21
3.13786
0
LINE
8
BLACK
6
CONTINUOUS
10
2.04449
20
3.13786
11
2.04616
21
3.13717
0
LINE
8
BLACK
6
CONTINUOUS
10
2.04616
20
3.13717
11
2.04685
21
3.1355
0
LINE
8
BLACK
6
CONTINUOUS
10
2.04685
20
3.1355
11
2.04685
21
3.12959
0
LINE
8
BLACK
6
CONTINUOUS
10
2.04685
20
3.12959
11
2.04616
21
3.12792
0
LINE
8
BLACK
6
CONTINUOUS
10
2.04616
20
3.12792
11
2.04449
21
3.12723
0
LINE
8
BLACK
6
CONTINUOUS
10
2.04449
20
3.12723
11
1.85551
21
3.12723
0
LINE
8
BLACK
6
CONTINUOUS
10
1.85551
20
3.12723
11
1.85384
21
3.12792
0
LINE
8
BLACK
6
CONTINUOUS
10
2.67667
20
3.14167
11
2.67736
21
3.14
0
LINE
8
BLACK
6
CONTINUOUS
10
2.67736
20
3.14
11
2.67667
21
3.13833
0
LINE
8
BLACK
6
CONTINUOUS
10
2.67667
20
3.13833
11
2.675
21
3.13764
0
LINE
8
BLACK
6
CONTINUOUS
10
2.675
20
3.13764
11
2.645
21
3.13764
0
LINE
8
BLACK
6
CONTINUOUS
10
2.645
20
3.13764
11
2.64333
21
3.13833
0
LINE
8
BLACK
6
CONTINUOUS
10
2.64333
20
3.13833
11
2.64264
21
3.14
0
LINE
8
BLACK
6
CONTINUOUS
10
2.64264
20
3.14
11
2.64333
21
3.14167
0
LINE
8
BLACK
6
CONTINUOUS
10
2.64333
20
3.14167
11
2.645
21
3.14236
0
LINE
8
BLACK
6
CONTINUOUS
10
2.645
20
3.14236
11
2.675
21
3.14236
0
LINE
8
BLACK
6
CONTINUOUS
10
2.675
20
3.14236
11
2.67667
21
3.14167
0
LINE
8
BLACK
6
CONTINUOUS
10
2.72226
20
3.2419
11
2.72295
21
3.24
0
LINE
8
BLACK
6
CONTINUOUS
10
2.72295
20
3.24
11
2.72295
21
3.18
0
LINE
8
BLACK
6
CONTINUOUS
10
2.72295
20
3.18
11
2.72277
21
3.17899
0
LINE
8
BLACK
6
CONTINUOUS
10
2.72277
20
3.17899
11
2.72148
21
3.17744
0
LINE
8
BLACK
6
CONTINUOUS
10
2.72148
20
3.17744
11
2.71949
21
3.17709
0
LINE
8
BLACK
6
CONTINUOUS
10
2.71949
20
3.17709
11
2.71774
21
3.1781
0
LINE
8
BLACK
6
CONTINUOUS
10
2.71774
20
3.1781
11
2.71705
21
3.18
0
LINE
8
BLACK
6
CONTINUOUS
10
2.71705
20
3.18
11
2.71705
21
3.24
0
LINE
8
BLACK
6
CONTINUOUS
10
2.71705
20
3.24
11
2.71723
21
3.24101
0
LINE
8
BLACK
6
CONTINUOUS
10
2.71723
20
3.24101
11
2.71852
21
3.24256
0
LINE
8
BLACK
6
CONTINUOUS
10
2.71852
20
3.24256
11
2.72051
21
3.24291
0
LINE
8
BLACK
6
CONTINUOUS
10
2.72051
20
3.24291
11
2.72226
21
3.2419
0
LINE
8
BLACK
6
CONTINUOUS
10
2.60226
20
3.2419
11
2.60295
21
3.24
0
LINE
8
BLACK
6
CONTINUOUS
10
2.60295
20
3.24
11
2.60295
21
3.18
0
LINE
8
BLACK
6
CONTINUOUS
10
2.60295
20
3.18
11
2.60277
21
3.17899
0
LINE
8
BLACK
6
CONTINUOUS
10
2.60277
20
3.17899
11
2.60148
21
3.17744
0
LINE
8
BLACK
6
CONTINUOUS
10
2.60148
20
3.17744
11
2.59949
21
3.17709
0
LINE
8
BLACK
6
CONTINUOUS
10
2.59949
20
3.17709
11
2.59774
21
3.1781
0
LINE
8
BLACK
6
CONTINUOUS
10
2.59774
20
3.1781
11
2.59705
21
3.18
0
LINE
8
BLACK
6
CONTINUOUS
10
2.59705
20
3.18
11
2.59705
21
3.24
0
LINE
8
BLACK
6
CONTINUOUS
10
2.59705
20
3.24
11
2.59723
21
3.24101
0
LINE
8
BLACK
6
CONTINUOUS
10
2.59723
20
3.24101
11
2.59852
21
3.24256
0
LINE
8
BLACK
6
CONTINUOUS
10
2.59852
20
3.24256
11
2.60051
21
3.24291
0
LINE
8
BLACK
6
CONTINUOUS
10
2.60051
20
3.24291
11
2.60226
21
3.2419
0
LINE
8
BLACK
6
CONTINUOUS
10
2.67667
20
3.18167
11
2.67736
21
3.18
0
LINE
8
BLACK
6
CONTINUOUS
10
2.67736
20
3.18
11
2.67667
21
3.17833
0
LINE
8
BLACK
6
CONTINUOUS
10
2.67667
20
3.17833
11
2.675
21
3.17764
0
LINE
8
BLACK
6
CONTINUOUS
10
2.675
20
3.17764
11
2.645
21
3.17764
0
LINE
8
BLACK
6
CONTINUOUS
10
2.645
20
3.17764
11
2.64333
21
3.17833
0
LINE
8
BLACK
6
CONTINUOUS
10
2.64333
20
3.17833
11
2.64264
21
3.18
0
LINE
8
BLACK
6
CONTINUOUS
10
2.64264
20
3.18
11
2.64333
21
3.18167
0
LINE
8
BLACK
6
CONTINUOUS
10
2.64333
20
3.18167
11
2.645
21
3.18236
0
LINE
8
BLACK
6
CONTINUOUS
10
2.645
20
3.18236
11
2.675
21
3.18236
0
LINE
8
BLACK
6
CONTINUOUS
10
2.675
20
3.18236
11
2.67667
21
3.18167
0
LINE
8
BLACK
6
CONTINUOUS
10
2.67667
20
3.24167
11
2.67736
21
3.24
0
LINE
8
BLACK
6
CONTINUOUS
10
2.67736
20
3.24
11
2.67667
21
3.23833
0
LINE
8
BLACK
6
CONTINUOUS
10
2.67667
20
3.23833
11
2.675
21
3.23764
0
LINE
8
BLACK
6
CONTINUOUS
10
2.675
20
3.23764
11
2.645
21
3.23764
0
LINE
8
BLACK
6
CONTINUOUS
10
2.645
20
3.23764
11
2.64333
21
3.23833
0
LINE
8
BLACK
6
CONTINUOUS
10
2.64333
20
3.23833
11
2.64264
21
3.24
0
LINE
8
BLACK
6
CONTINUOUS
10
2.64264
20
3.24
11
2.64333
21
3.24167
0
LINE
8
BLACK
6
CONTINUOUS
10
2.64333
20
3.24167
11
2.645
21
3.24236
0
LINE
8
BLACK
6
CONTINUOUS
10
2.645
20
3.24236
11
2.675
21
3.24236
0
LINE
8
BLACK
6
CONTINUOUS
10
2.675
20
3.24236
11
2.67667
21
3.24167
0
LINE
8
BLACK
6
CONTINUOUS
10
2.60226
20
3.3419
11
2.60295
21
3.34
0
LINE
8
BLACK
6
CONTINUOUS
10
2.60295
20
3.34
11
2.60295
21
3.28
0
LINE
8
BLACK
6
CONTINUOUS
10
2.60295
20
3.28
11
2.60277
21
3.27899
0
LINE
8
BLACK
6
CONTINUOUS
10
2.60277
20
3.27899
11
2.60148
21
3.27744
0
LINE
8
BLACK
6
CONTINUOUS
10
2.60148
20
3.27744
11
2.59949
21
3.27709
0
LINE
8
BLACK
6
CONTINUOUS
10
2.59949
20
3.27709
11
2.59774
21
3.2781
0
LINE
8
BLACK
6
CONTINUOUS
10
2.59774
20
3.2781
11
2.59705
21
3.28
0
LINE
8
BLACK
6
CONTINUOUS
10
2.59705
20
3.28
11
2.59705
21
3.34
0
LINE
8
BLACK
6
CONTINUOUS
10
2.59705
20
3.34
11
2.59723
21
3.34101
0
LINE
8
BLACK
6
CONTINUOUS
10
2.59723
20
3.34101
11
2.59852
21
3.34256
0
LINE
8
BLACK
6
CONTINUOUS
10
2.59852
20
3.34256
11
2.60051
21
3.34291
0
LINE
8
BLACK
6
CONTINUOUS
10
2.60051
20
3.34291
11
2.60226
21
3.3419
0
LINE
8
BLACK
6
CONTINUOUS
10
2.72226
20
3.3419
11
2.72295
21
3.34
0
LINE
8
BLACK
6
CONTINUOUS
10
2.72295
20
3.34
11
2.72295
21
3.28
0
LINE
8
BLACK
6
CONTINUOUS
10
2.72295
20
3.28
11
2.72277
21
3.27899
0
LINE
8
BLACK
6
CONTINUOUS
10
2.72277
20
3.27899
11
2.72148
21
3.27744
0
LINE
8
BLACK
6
CONTINUOUS
10
2.72148
20
3.27744
11
2.71949
21
3.27709
0
LINE
8
BLACK
6
CONTINUOUS
10
2.71949
20
3.27709
11
2.71774
21
3.2781
0
LINE
8
BLACK
6
CONTINUOUS
10
2.71774
20
3.2781
11
2.71705
21
3.28
0
LINE
8
BLACK
6
CONTINUOUS
10
2.71705
20
3.28
11
2.71705
21
3.34
0
LINE
8
BLACK
6
CONTINUOUS
10
2.71705
20
3.34
11
2.71723
21
3.34101
0
LINE
8
BLACK
6
CONTINUOUS
10
2.71723
20
3.34101
11
2.71852
21
3.34256
0
LINE
8
BLACK
6
CONTINUOUS
10
2.71852
20
3.34256
11
2.72051
21
3.34291
0
LINE
8
BLACK
6
CONTINUOUS
10
2.72051
20
3.34291
11
2.72226
21
3.3419
0
LINE
8
BLACK
6
CONTINUOUS
10
2.67667
20
3.28167
11
2.67736
21
3.28
0
LINE
8
BLACK
6
CONTINUOUS
10
2.67736
20
3.28
11
2.67667
21
3.27833
0
LINE
8
BLACK
6
CONTINUOUS
10
2.67667
20
3.27833
11
2.675
21
3.27764
0
LINE
8
BLACK
6
CONTINUOUS
10
2.675
20
3.27764
11
2.645
21
3.27764
0
LINE
8
BLACK
6
CONTINUOUS
10
2.645
20
3.27764
11
2.64333
21
3.27833
0
LINE
8
BLACK
6
CONTINUOUS
10
2.64333
20
3.27833
11
2.64264
21
3.28
0
LINE
8
BLACK
6
CONTINUOUS
10
2.64264
20
3.28
11
2.64333
21
3.28167
0
LINE
8
BLACK
6
CONTINUOUS
10
2.64333
20
3.28167
11
2.645
21
3.28236
0
LINE
8
BLACK
6
CONTINUOUS
10
2.645
20
3.28236
11
2.675
21
3.28236
0
LINE
8
BLACK
6
CONTINUOUS
10
2.675
20
3.28236
11
2.67667
21
3.28167
0
LINE
8
BLACK
6
CONTINUOUS
10
2.04616
20
3.28874
11
2.04685
21
3.28707
0
LINE
8
BLACK
6
CONTINUOUS
10
2.04685
20
3.28707
11
2.04685
21
3.28117
0
LINE
8
BLACK
6
CONTINUOUS
10
2.04685
20
3.28117
11
2.04616
21
3.2795
0
LINE
8
BLACK
6
CONTINUOUS
10
2.04616
20
3.2795
11
2.04449
21
3.27881
0
LINE
8
BLACK
6
CONTINUOUS
10
2.04449
20
3.27881
11
2.04282
21
3.2795
0
LINE
8
BLACK
6
CONTINUOUS
10
2.04282
20
3.2795
11
2.04213
21
3.28117
0
LINE
8
BLACK
6
CONTINUOUS
10
2.04213
20
3.28117
11
2.04213
21
3.28471
0
LINE
8
BLACK
6
CONTINUOUS
10
2.04213
20
3.28471
11
1.85787
21
3.28471
0
LINE
8
BLACK
6
CONTINUOUS
10
1.85787
20
3.28471
11
1.85787
21
3.28117
0
LINE
8
BLACK
6
CONTINUOUS
10
1.85787
20
3.28117
11
1.85718
21
3.2795
0
LINE
8
BLACK
6
CONTINUOUS
10
1.85718
20
3.2795
11
1.85551
21
3.27881
0
LINE
8
BLACK
6
CONTINUOUS
10
1.85551
20
3.27881
11
1.85384
21
3.2795
0
LINE
8
BLACK
6
CONTINUOUS
10
1.85384
20
3.2795
11
1.85315
21
3.28117
0
LINE
8
BLACK
6
CONTINUOUS
10
1.85315
20
3.28117
11
1.85315
21
3.28707
0
LINE
8
BLACK
6
CONTINUOUS
10
1.85315
20
3.28707
11
1.85384
21
3.28874
0
LINE
8
BLACK
6
CONTINUOUS
10
1.85384
20
3.28874
11
1.85551
21
3.28944
0
LINE
8
BLACK
6
CONTINUOUS
10
1.85551
20
3.28944
11
2.04449
21
3.28944
0
LINE
8
BLACK
6
CONTINUOUS
10
2.04449
20
3.28944
11
2.04616
21
3.28874
0
LINE
8
BLACK
6
CONTINUOUS
10
2.67667
20
3.34167
11
2.67736
21
3.34
0
LINE
8
BLACK
6
CONTINUOUS
10
2.67736
20
3.34
11
2.67667
21
3.33833
0
LINE
8
BLACK
6
CONTINUOUS
10
2.67667
20
3.33833
11
2.675
21
3.33764
0
LINE
8
BLACK
6
CONTINUOUS
10
2.675
20
3.33764
11
2.645
21
3.33764
0
LINE
8
BLACK
6
CONTINUOUS
10
2.645
20
3.33764
11
2.64333
21
3.33833
0
LINE
8
BLACK
6
CONTINUOUS
10
2.64333
20
3.33833
11
2.64264
21
3.34
0
LINE
8
BLACK
6
CONTINUOUS
10
2.64264
20
3.34
11
2.64333
21
3.34167
0
LINE
8
BLACK
6
CONTINUOUS
10
2.64333
20
3.34167
11
2.645
21
3.34236
0
LINE
8
BLACK
6
CONTINUOUS
10
2.645
20
3.34236
11
2.675
21
3.34236
0
LINE
8
BLACK
6
CONTINUOUS
10
2.675
20
3.34236
11
2.67667
21
3.34167
0
LINE
8
BLACK
6
CONTINUOUS
10
2.07101
20
3.40277
11
2.07256
21
3.40148
0
LINE
8
BLACK
6
CONTINUOUS
10
2.07256
20
3.40148
11
2.07291
21
3.39949
0
LINE
8
BLACK
6
CONTINUOUS
10
2.07291
20
3.39949
11
2.0719
21
3.39774
0
LINE
8
BLACK
6
CONTINUOUS
10
2.0719
20
3.39774
11
2.07
21
3.39705
0
LINE
8
BLACK
6
CONTINUOUS
10
2.07
20
3.39705
11
2.01
21
3.39705
0
LINE
8
BLACK
6
CONTINUOUS
10
2.01
20
3.39705
11
2.00899
21
3.39723
0
LINE
8
BLACK
6
CONTINUOUS
10
2.00899
20
3.39723
11
2.00744
21
3.39852
0
LINE
8
BLACK
6
CONTINUOUS
10
2.00744
20
3.39852
11
2.00709
21
3.40051
0
LINE
8
BLACK
6
CONTINUOUS
10
2.00709
20
3.40051
11
2.0081
21
3.40226
0
LINE
8
BLACK
6
CONTINUOUS
10
2.0081
20
3.40226
11
2.01
21
3.40295
0
LINE
8
BLACK
6
CONTINUOUS
10
2.01
20
3.40295
11
2.07
21
3.40295
0
LINE
8
BLACK
6
CONTINUOUS
10
2.07
20
3.40295
11
2.07101
21
3.40277
0
LINE
8
BLACK
6
CONTINUOUS
10
2.07167
20
3.47667
11
2.07236
21
3.475
0
LINE
8
BLACK
6
CONTINUOUS
10
2.07236
20
3.475
11
2.07236
21
3.445
0
LINE
8
BLACK
6
CONTINUOUS
10
2.07236
20
3.445
11
2.07167
21
3.44333
0
LINE
8
BLACK
6
CONTINUOUS
10
2.07167
20
3.44333
11
2.07
21
3.44264
0
LINE
8
BLACK
6
CONTINUOUS
10
2.07
20
3.44264
11
2.06833
21
3.44333
0
LINE
8
BLACK
6
CONTINUOUS
10
2.06833
20
3.44333
11
2.06764
21
3.445
0
LINE
8
BLACK
6
CONTINUOUS
10
2.06764
20
3.445
11
2.06764
21
3.475
0
LINE
8
BLACK
6
CONTINUOUS
10
2.06764
20
3.475
11
2.06833
21
3.47667
0
LINE
8
BLACK
6
CONTINUOUS
10
2.06833
20
3.47667
11
2.07
21
3.47736
0
LINE
8
BLACK
6
CONTINUOUS
10
2.07
20
3.47736
11
2.07167
21
3.47667
0
LINE
8
BLACK
6
CONTINUOUS
10
2.01167
20
3.47667
11
2.01236
21
3.475
0
LINE
8
BLACK
6
CONTINUOUS
10
2.01236
20
3.475
11
2.01236
21
3.445
0
LINE
8
BLACK
6
CONTINUOUS
10
2.01236
20
3.445
11
2.01167
21
3.44333
0
LINE
8
BLACK
6
CONTINUOUS
10
2.01167
20
3.44333
11
2.01
21
3.44264
0
LINE
8
BLACK
6
CONTINUOUS
10
2.01
20
3.44264
11
2.00833
21
3.44333
0
LINE
8
BLACK
6
CONTINUOUS
10
2.00833
20
3.44333
11
2.00764
21
3.445
0
LINE
8
BLACK
6
CONTINUOUS
10
2.00764
20
3.445
11
2.00764
21
3.475
0
LINE
8
BLACK
6
CONTINUOUS
10
2.00764
20
3.475
11
2.00833
21
3.47667
0
LINE
8
BLACK
6
CONTINUOUS
10
2.00833
20
3.47667
11
2.01
21
3.47736
0
LINE
8
BLACK
6
CONTINUOUS
10
2.01
20
3.47736
11
2.01167
21
3.47667
0
LINE
8
BLACK
6
CONTINUOUS
10
1.93004
20
3.54808
11
1.93021
21
3.54809
0
LINE
8
BLACK
6
CONTINUOUS
10
1.93021
20
3.54809
11
1.9309
21
3.54759
0
LINE
8
BLACK
6
CONTINUOUS
10
1.9309
20
3.54759
11
1.93164
21
3.54716
0
LINE
8
BLACK
6
CONTINUOUS
10
1.93164
20
3.54716
11
1.9317
21
3.547
0
LINE
8
BLACK
6
CONTINUOUS
10
1.9317
20
3.547
11
1.93183
21
3.5469
0
LINE
8
BLACK
6
CONTINUOUS
10
1.93183
20
3.5469
11
1.93542
21
3.54152
0
LINE
8
BLACK
6
CONTINUOUS
10
1.93542
20
3.54152
11
1.93863
21
3.53831
0
LINE
8
BLACK
6
CONTINUOUS
10
1.93863
20
3.53831
11
1.94195
21
3.53665
0
LINE
8
BLACK
6
CONTINUOUS
10
1.94195
20
3.53665
11
1.94277
21
3.53604
0
LINE
8
BLACK
6
CONTINUOUS
10
1.94277
20
3.53604
11
1.94357
21
3.53419
0
LINE
8
BLACK
6
CONTINUOUS
10
1.94357
20
3.53419
11
1.943
21
3.53225
0
LINE
8
BLACK
6
CONTINUOUS
10
1.943
20
3.53225
11
1.94131
21
3.53114
0
LINE
8
BLACK
6
CONTINUOUS
10
1.94131
20
3.53114
11
1.93931
21
3.53137
0
LINE
8
BLACK
6
CONTINUOUS
10
1.93931
20
3.53137
11
1.93556
21
3.53325
0
LINE
8
BLACK
6
CONTINUOUS
10
1.93556
20
3.53325
11
1.93485
21
3.53377
0
LINE
8
BLACK
6
CONTINUOUS
10
1.93485
20
3.53377
11
1.93479
21
3.5338
0
LINE
8
BLACK
6
CONTINUOUS
10
1.93479
20
3.5338
11
1.93233
21
3.53626
0
LINE
8
BLACK
6
CONTINUOUS
10
1.93233
20
3.53626
11
1.93233
21
3.50884
0
LINE
8
BLACK
6
CONTINUOUS
10
1.93233
20
3.50884
11
1.94063
21
3.50884
0
LINE
8
BLACK
6
CONTINUOUS
10
1.94063
20
3.50884
11
1.94164
21
3.50867
0
LINE
8
BLACK
6
CONTINUOUS
10
1.94164
20
3.50867
11
1.94318
21
3.50737
0
LINE
8
BLACK
6
CONTINUOUS
10
1.94318
20
3.50737
11
1.94353
21
3.50538
0
LINE
8
BLACK
6
CONTINUOUS
10
1.94353
20
3.50538
11
1.94252
21
3.50363
0
LINE
8
BLACK
6
CONTINUOUS
10
1.94252
20
3.50363
11
1.94063
21
3.50294
0
LINE
8
BLACK
6
CONTINUOUS
10
1.94063
20
3.50294
11
1.91813
21
3.50294
0
LINE
8
BLACK
6
CONTINUOUS
10
1.91813
20
3.50294
11
1.91712
21
3.50312
0
LINE
8
BLACK
6
CONTINUOUS
10
1.91712
20
3.50312
11
1.91557
21
3.50441
0
LINE
8
BLACK
6
CONTINUOUS
10
1.91557
20
3.50441
11
1.91522
21
3.5064
0
LINE
8
BLACK
6
CONTINUOUS
10
1.91522
20
3.5064
11
1.91623
21
3.50815
0
LINE
8
BLACK
6
CONTINUOUS
10
1.91623
20
3.50815
11
1.91813
21
3.50884
0
LINE
8
BLACK
6
CONTINUOUS
10
1.91813
20
3.50884
11
1.92642
21
3.50884
0
LINE
8
BLACK
6
CONTINUOUS
10
1.92642
20
3.50884
11
1.92642
21
3.54526
0
LINE
8
BLACK
6
CONTINUOUS
10
1.92642
20
3.54526
11
1.9266
21
3.54627
0
LINE
8
BLACK
6
CONTINUOUS
10
1.9266
20
3.54627
11
1.92671
21
3.5464
0
LINE
8
BLACK
6
CONTINUOUS
10
1.92671
20
3.5464
11
1.92673
21
3.54657
0
LINE
8
BLACK
6
CONTINUOUS
10
1.92673
20
3.54657
11
1.92735
21
3.54716
0
LINE
8
BLACK
6
CONTINUOUS
10
1.92735
20
3.54716
11
1.9279
21
3.54782
0
LINE
8
BLACK
6
CONTINUOUS
10
1.9279
20
3.54782
11
1.92807
21
3.54785
0
LINE
8
BLACK
6
CONTINUOUS
10
1.92807
20
3.54785
11
1.92819
21
3.54796
0
LINE
8
BLACK
6
CONTINUOUS
10
1.92819
20
3.54796
11
1.92905
21
3.54802
0
LINE
8
BLACK
6
CONTINUOUS
10
1.92905
20
3.54802
11
1.92989
21
3.54817
0
LINE
8
BLACK
6
CONTINUOUS
10
1.92989
20
3.54817
11
1.93004
21
3.54808
0
LINE
8
BLACK
6
CONTINUOUS
10
1.98226
20
3.54716
11
1.98295
21
3.54526
0
LINE
8
BLACK
6
CONTINUOUS
10
1.98295
20
3.54526
11
1.98295
21
3.51339
0
LINE
8
BLACK
6
CONTINUOUS
10
1.98295
20
3.51339
11
1.98277
21
3.51238
0
LINE
8
BLACK
6
CONTINUOUS
10
1.98277
20
3.51238
11
1.98266
21
3.51224
0
LINE
8
BLACK
6
CONTINUOUS
10
1.98266
20
3.51224
11
1.98264
21
3.51207
0
LINE
8
BLACK
6
CONTINUOUS
10
1.98264
20
3.51207
11
1.98076
21
3.50832
0
LINE
8
BLACK
6
CONTINUOUS
10
1.98076
20
3.50832
11
1.98024
21
3.50761
0
LINE
8
BLACK
6
CONTINUOUS
10
1.98024
20
3.50761
11
1.98021
21
3.50755
0
LINE
8
BLACK
6
CONTINUOUS
10
1.98021
20
3.50755
11
1.97833
21
3.50568
0
LINE
8
BLACK
6
CONTINUOUS
10
1.97833
20
3.50568
11
1.97761
21
3.50517
0
LINE
8
BLACK
6
CONTINUOUS
10
1.97761
20
3.50517
11
1.97757
21
3.50512
0
LINE
8
BLACK
6
CONTINUOUS
10
1.97757
20
3.50512
11
1.97382
21
3.50325
0
LINE
8
BLACK
6
CONTINUOUS
10
1.97382
20
3.50325
11
1.97283
21
3.50296
0
LINE
8
BLACK
6
CONTINUOUS
10
1.97283
20
3.50296
11
1.97266
21
3.503
0
LINE
8
BLACK
6
CONTINUOUS
10
1.97266
20
3.503
11
1.9725
21
3.50294
0
LINE
8
BLACK
6
CONTINUOUS
10
1.9725
20
3.50294
11
1.965
21
3.50294
0
LINE
8
BLACK
6
CONTINUOUS
10
1.965
20
3.50294
11
1.96399
21
3.50312
0
LINE
8
BLACK
6
CONTINUOUS
10
1.96399
20
3.50312
11
1.96385
21
3.50323
0
LINE
8
BLACK
6
CONTINUOUS
10
1.96385
20
3.50323
11
1.96368
21
3.50325
0
LINE
8
BLACK
6
CONTINUOUS
10
1.96368
20
3.50325
11
1.95993
21
3.50512
0
LINE
8
BLACK
6
CONTINUOUS
10
1.95993
20
3.50512
11
1.95922
21
3.50565
0
LINE
8
BLACK
6
CONTINUOUS
10
1.95922
20
3.50565
11
1.95916
21
3.50568
0
LINE
8
BLACK
6
CONTINUOUS
10
1.95916
20
3.50568
11
1.95729
21
3.50755
0
LINE
8
BLACK
6
CONTINUOUS
10
1.95729
20
3.50755
11
1.95678
21
3.50828
0
LINE
8
BLACK
6
CONTINUOUS
10
1.95678
20
3.50828
11
1.95673
21
3.50832
0
LINE
8
BLACK
6
CONTINUOUS
10
1.95673
20
3.50832
11
1.95486
21
3.51207
0
LINE
8
BLACK
6
CONTINUOUS
10
1.95486
20
3.51207
11
1.95457
21
3.51305
0
LINE
8
BLACK
6
CONTINUOUS
10
1.95457
20
3.51305
11
1.95461
21
3.51322
0
LINE
8
BLACK
6
CONTINUOUS
10
1.95461
20
3.51322
11
1.95455
21
3.51339
0
LINE
8
BLACK
6
CONTINUOUS
10
1.95455
20
3.51339
11
1.95455
21
3.54526
0
LINE
8
BLACK
6
CONTINUOUS
10
1.95455
20
3.54526
11
1.95472
21
3.54627
0
LINE
8
BLACK
6
CONTINUOUS
10
1.95472
20
3.54627
11
1.95602
21
3.54782
0
LINE
8
BLACK
6
CONTINUOUS
10
1.95602
20
3.54782
11
1.95801
21
3.54817
0
LINE
8
BLACK
6
CONTINUOUS
10
1.95801
20
3.54817
11
1.95976
21
3.54716
0
LINE
8
BLACK
6
CONTINUOUS
10
1.95976
20
3.54716
11
1.96045
21
3.54526
0
LINE
8
BLACK
6
CONTINUOUS
10
1.96045
20
3.54526
11
1.96045
21
3.51409
0
LINE
8
BLACK
6
CONTINUOUS
10
1.96045
20
3.51409
11
1.9618
21
3.51139
0
LINE
8
BLACK
6
CONTINUOUS
10
1.9618
20
3.51139
11
1.963
21
3.51019
0
LINE
8
BLACK
6
CONTINUOUS
10
1.963
20
3.51019
11
1.9657
21
3.50884
0
LINE
8
BLACK
6
CONTINUOUS
10
1.9657
20
3.50884
11
1.9718
21
3.50884
0
LINE
8
BLACK
6
CONTINUOUS
10
1.9718
20
3.50884
11
1.9745
21
3.51019
0
LINE
8
BLACK
6
CONTINUOUS
10
1.9745
20
3.51019
11
1.97569
21
3.51139
0
LINE
8
BLACK
6
CONTINUOUS
10
1.97569
20
3.51139
11
1.97704
21
3.51409
0
LINE
8
BLACK
6
CONTINUOUS
10
1.97704
20
3.51409
11
1.97704
21
3.54526
0
LINE
8
BLACK
6
CONTINUOUS
10
1.97704
20
3.54526
11
1.97722
21
3.54627
0
LINE
8
BLACK
6
CONTINUOUS
10
1.97722
20
3.54627
11
1.97852
21
3.54782
0
LINE
8
BLACK
6
CONTINUOUS
10
1.97852
20
3.54782
11
1.98051
21
3.54817
0
LINE
8
BLACK
6
CONTINUOUS
10
1.98051
20
3.54817
11
1.98226
21
3.54716
0
LINE
8
BLACK
6
CONTINUOUS
10
2.07101
20
3.52277
11
2.07256
21
3.52148
0
LINE
8
BLACK
6
CONTINUOUS
10
2.07256
20
3.52148
11
2.07291
21
3.51949
0
LINE
8
BLACK
6
CONTINUOUS
10
2.07291
20
3.51949
11
2.0719
21
3.51774
0
LINE
8
BLACK
6
CONTINUOUS
10
2.0719
20
3.51774
11
2.07
21
3.51705
0
LINE
8
BLACK
6
CONTINUOUS
10
2.07
20
3.51705
11
2.01
21
3.51705
0
LINE
8
BLACK
6
CONTINUOUS
10
2.01
20
3.51705
11
2.00899
21
3.51723
0
LINE
8
BLACK
6
CONTINUOUS
10
2.00899
20
3.51723
11
2.00744
21
3.51852
0
LINE
8
BLACK
6
CONTINUOUS
10
2.00744
20
3.51852
11
2.00709
21
3.52051
0
LINE
8
BLACK
6
CONTINUOUS
10
2.00709
20
3.52051
11
2.0081
21
3.52226
0
LINE
8
BLACK
6
CONTINUOUS
10
2.0081
20
3.52226
11
2.01
21
3.52295
0
LINE
8
BLACK
6
CONTINUOUS
10
2.01
20
3.52295
11
2.07
21
3.52295
0
LINE
8
BLACK
6
CONTINUOUS
10
2.07
20
3.52295
11
2.07101
21
3.52277
0
LINE
8
BLACK
6
CONTINUOUS
10
1.85384
20
3.54959
11
1.85315
21
3.55126
0
LINE
8
BLACK
6
CONTINUOUS
10
1.85315
20
3.55126
11
1.85315
21
3.5548
0
LINE
8
BLACK
6
CONTINUOUS
10
1.85315
20
3.5548
11
1.78858
21
3.5548
0
LINE
8
BLACK
6
CONTINUOUS
10
1.78858
20
3.5548
11
1.78691
21
3.5555
0
LINE
8
BLACK
6
CONTINUOUS
10
1.78691
20
3.5555
11
1.78622
21
3.55717
0
LINE
8
BLACK
6
CONTINUOUS
10
1.78622
20
3.55717
11
1.78691
21
3.55884
0
LINE
8
BLACK
6
CONTINUOUS
10
1.78691
20
3.55884
11
1.78858
21
3.55953
0
LINE
8
BLACK
6
CONTINUOUS
10
1.78858
20
3.55953
11
1.85551
21
3.55953
0
LINE
8
BLACK
6
CONTINUOUS
10
1.85551
20
3.55953
11
1.85718
21
3.55884
0
LINE
8
BLACK
6
CONTINUOUS
10
1.85718
20
3.55884
11
1.85787
21
3.55717
0
LINE
8
BLACK
6
CONTINUOUS
10
1.85787
20
3.55717
11
1.85787
21
3.55362
0
LINE
8
BLACK
6
CONTINUOUS
10
1.85787
20
3.55362
11
2.04213
21
3.55362
0
LINE
8
BLACK
6
CONTINUOUS
10
2.04213
20
3.55362
11
2.04213
21
3.55717
0
LINE
8
BLACK
6
CONTINUOUS
10
2.04213
20
3.55717
11
2.04282
21
3.55884
0
LINE
8
BLACK
6
CONTINUOUS
10
2.04282
20
3.55884
11
2.04449
21
3.55953
0
LINE
8
BLACK
6
CONTINUOUS
10
2.04449
20
3.55953
11
2.04616
21
3.55884
0
LINE
8
BLACK
6
CONTINUOUS
10
2.04616
20
3.55884
11
2.04685
21
3.55717
0
LINE
8
BLACK
6
CONTINUOUS
10
2.04685
20
3.55717
11
2.04685
21
3.55126
0
LINE
8
BLACK
6
CONTINUOUS
10
2.04685
20
3.55126
11
2.04616
21
3.54959
0
LINE
8
BLACK
6
CONTINUOUS
10
2.04616
20
3.54959
11
2.04449
21
3.5489
0
LINE
8
BLACK
6
CONTINUOUS
10
2.04449
20
3.5489
11
1.85551
21
3.5489
0
LINE
8
BLACK
6
CONTINUOUS
10
1.85551
20
3.5489
11
1.85384
21
3.54959
0
LINE
8
BLACK
6
CONTINUOUS
10
2.04616
20
3.71041
11
2.04685
21
3.70874
0
LINE
8
BLACK
6
CONTINUOUS
10
2.04685
20
3.70874
11
2.04685
21
3.70283
0
LINE
8
BLACK
6
CONTINUOUS
10
2.04685
20
3.70283
11
2.04616
21
3.70116
0
LINE
8
BLACK
6
CONTINUOUS
10
2.04616
20
3.70116
11
2.04449
21
3.70047
0
LINE
8
BLACK
6
CONTINUOUS
10
2.04449
20
3.70047
11
2.04282
21
3.70116
0
LINE
8
BLACK
6
CONTINUOUS
10
2.04282
20
3.70116
11
2.04213
21
3.70283
0
LINE
8
BLACK
6
CONTINUOUS
10
2.04213
20
3.70283
11
2.04213
21
3.70638
0
LINE
8
BLACK
6
CONTINUOUS
10
2.04213
20
3.70638
11
1.85787
21
3.70638
0
LINE
8
BLACK
6
CONTINUOUS
10
1.85787
20
3.70638
11
1.85787
21
3.70283
0
LINE
8
BLACK
6
CONTINUOUS
10
1.85787
20
3.70283
11
1.85718
21
3.70116
0
LINE
8
BLACK
6
CONTINUOUS
10
1.85718
20
3.70116
11
1.85551
21
3.70047
0
LINE
8
BLACK
6
CONTINUOUS
10
1.85551
20
3.70047
11
1.85384
21
3.70116
0
LINE
8
BLACK
6
CONTINUOUS
10
1.85384
20
3.70116
11
1.85315
21
3.70283
0
LINE
8
BLACK
6
CONTINUOUS
10
1.85315
20
3.70283
11
1.85315
21
3.70874
0
LINE
8
BLACK
6
CONTINUOUS
10
1.85315
20
3.70874
11
1.85384
21
3.71041
0
LINE
8
BLACK
6
CONTINUOUS
10
1.85384
20
3.71041
11
1.85551
21
3.7111
0
LINE
8
BLACK
6
CONTINUOUS
10
1.85551
20
3.7111
11
2.04449
21
3.7111
0
LINE
8
BLACK
6
CONTINUOUS
10
2.04449
20
3.7111
11
2.04616
21
3.71041
  0
ENDSEC
  0
EOF
