  0
SECTION
  2
HEADER
  9
$ANGBASE
  50
0.0
  9
$ANGDIR
  70
1
  9
$MEASUREMENT
  70
0
  0
ENDSEC
  0
SECTION
  2
TABLES
  0
TABLE
  2
LTYPE
  70
4
  0
LTYPE
  5
40F
  2
CONTINUOUS
  70
0
  3
Solid line
  72
65
  73
0
  40
0.0
  0
LTYPE
  5
410
  2
DASHDOT
 70
0
  3
Dash Dot ____ _ ____ _
 72
65
 73
4
 40
2.0
 49
1.25
 49
-0.25
 49
0.25
 49
-0.25
  0
LTYPE
  5
411
  2
DASHED
 70
0
  3
Dashed __ __ __ __ __
 72
65
 73
2
 40
0.75
 49
0.5
 49
-0.25
  0
LTYPE
  5
43B
  2
DOTTED
 70
0
  3
Dotted .  .  .  .
 72
65
 73
2
 40
0.2
 49
0.0
 49
-0.2
  0
ENDTAB
  0
TABLE
  2
STYLE
  70
4
  0
STYLE
  2
KICAD
  70
0
  40
0
  41
1
  42
1
  50
0
  71
0
  3
isocp.shx
  0
STYLE
  2
KICADB
  70
0
  40
0
  41
1
  42
1
  50
0
  71
0
  3
isocp.shx
  0
STYLE
  2
KICADI
  70
0
  40
0
  41
1
  42
1
  50
15
  71
0
  3
isocp.shx
  0
STYLE
  2
KICADBI
  70
0
  40
0
  41
1
  42
1
  50
15
  71
0
  3
isocp.shx
  0
ENDTAB
  0
TABLE
  2
LAYER
  70
1
  0
LAYER
  2
BLACK
  70
0
  62
7
  6
CONTINUOUS
  0
ENDTAB
  0
ENDSEC
  0
SECTION
  2
ENTITIES
0
LINE
8
BLACK
6
CONTINUOUS
10
3.80593
20
-0.401312
11
3.80579
21
-0.401337
0
LINE
8
BLACK
6
CONTINUOUS
10
3.80579
20
-0.401337
11
3.80566
21
-0.401266
0
LINE
8
BLACK
6
CONTINUOUS
10
3.80566
20
-0.401266
11
3.80529
21
-0.4012
0
LINE
8
BLACK
6
CONTINUOUS
10
3.80529
20
-0.4012
11
3.80472
21
-0.400719
0
LINE
8
BLACK
6
CONTINUOUS
10
3.80472
20
-0.400719
11
3.80404
21
-0.400327
0
LINE
8
BLACK
6
CONTINUOUS
10
3.80404
20
-0.400327
11
3.80394
21
-0.400071
0
LINE
8
BLACK
6
CONTINUOUS
10
3.80394
20
-0.400071
11
3.80374
21
-0.399902
0
LINE
8
BLACK
6
CONTINUOUS
10
3.80374
20
-0.399902
11
3.80361
21
-0.399154
0
LINE
8
BLACK
6
CONTINUOUS
10
3.80361
20
-0.399154
11
3.80335
21
-0.398429
0
LINE
8
BLACK
6
CONTINUOUS
10
3.80335
20
-0.398429
11
3.80335
21
-0.201571
0
LINE
8
BLACK
6
CONTINUOUS
10
3.80335
20
-0.201571
11
3.80341
21
-0.201189
0
LINE
8
BLACK
6
CONTINUOUS
10
3.80341
20
-0.201189
11
3.80339
21
-0.201062
0
LINE
8
BLACK
6
CONTINUOUS
10
3.80339
20
-0.201062
11
3.80346
21
-0.20095
0
LINE
8
BLACK
6
CONTINUOUS
10
3.80346
20
-0.20095
11
3.80352
21
-0.200561
0
LINE
8
BLACK
6
CONTINUOUS
10
3.80352
20
-0.200561
11
3.80394
21
-0.200067
0
LINE
8
BLACK
6
CONTINUOUS
10
3.80394
20
-0.200067
11
3.80374
21
-0.199902
0
LINE
8
BLACK
6
CONTINUOUS
10
3.80374
20
-0.199902
11
3.80361
21
-0.199154
0
LINE
8
BLACK
6
CONTINUOUS
10
3.80361
20
-0.199154
11
3.80335
21
-0.198429
0
LINE
8
BLACK
6
CONTINUOUS
10
3.80335
20
-0.198429
11
3.80335
21
-0.00157087
0
LINE
8
BLACK
6
CONTINUOUS
10
3.80335
20
-0.00157087
11
3.80341
21
-0.00118929
0
LINE
8
BLACK
6
CONTINUOUS
10
3.80341
20
-0.00118929
11
3.80339
21
-0.00106205
0
LINE
8
BLACK
6
CONTINUOUS
10
3.80339
20
-0.00106205
11
3.80346
21
-0.000950157
0
LINE
8
BLACK
6
CONTINUOUS
10
3.80346
20
-0.000950157
11
3.80352
21
-0.000560945
0
LINE
8
BLACK
6
CONTINUOUS
10
3.80352
20
-0.000560945
11
3.80402
21
3.54331e-05
0
LINE
8
BLACK
6
CONTINUOUS
10
3.80402
20
3.54331e-05
11
3.8044
21
0.000687126
0
LINE
8
BLACK
6
CONTINUOUS
10
3.8044
20
0.000687126
11
3.80465
21
0.000776496
0
LINE
8
BLACK
6
CONTINUOUS
10
3.80465
20
0.000776496
11
3.80482
21
0.000986299
0
LINE
8
BLACK
6
CONTINUOUS
10
3.80482
20
0.000986299
11
3.8056
21
0.00112323
0
LINE
8
BLACK
6
CONTINUOUS
10
3.8056
20
0.00112323
11
3.8063
21
0.00137795
0
LINE
8
BLACK
6
CONTINUOUS
10
3.8063
20
0.00137795
11
4.39685
21
0.00137795
0
LINE
8
BLACK
6
CONTINUOUS
10
4.39685
20
0.00137795
11
4.39723
21
0.00131031
0
LINE
8
BLACK
6
CONTINUOUS
10
4.39723
20
0.00131031
11
4.39736
21
0.00133311
0
LINE
8
BLACK
6
CONTINUOUS
10
4.39736
20
0.00133311
11
4.39748
21
0.00126752
0
LINE
8
BLACK
6
CONTINUOUS
10
4.39748
20
0.00126752
11
4.39786
21
0.00119988
0
LINE
8
BLACK
6
CONTINUOUS
10
4.39786
20
0.00119988
11
4.39845
21
0.000706732
0
LINE
8
BLACK
6
CONTINUOUS
10
4.39845
20
0.000706732
11
4.39911
21
0.000323189
0
LINE
8
BLACK
6
CONTINUOUS
10
4.39911
20
0.000323189
11
4.3992
21
7.28346e-05
0
LINE
8
BLACK
6
CONTINUOUS
10
4.3992
20
7.28346e-05
11
4.39941
21
-9.84252e-05
0
LINE
8
BLACK
6
CONTINUOUS
10
4.39941
20
-9.84252e-05
11
4.39954
21
-0.000853976
0
LINE
8
BLACK
6
CONTINUOUS
10
4.39954
20
-0.000853976
11
4.3998
21
-0.0015748
0
LINE
8
BLACK
6
CONTINUOUS
10
4.3998
20
-0.0015748
11
4.3998
21
-0.0183071
0
LINE
8
BLACK
6
CONTINUOUS
10
4.3998
20
-0.0183071
11
4.49531
21
-0.0183071
0
LINE
8
BLACK
6
CONTINUOUS
10
4.49531
20
-0.0183071
11
4.49568
21
-0.0183716
0
LINE
8
BLACK
6
CONTINUOUS
10
4.49568
20
-0.0183716
11
4.49579
21
-0.0183519
0
LINE
8
BLACK
6
CONTINUOUS
10
4.49579
20
-0.0183519
11
4.49589
21
-0.0184085
0
LINE
8
BLACK
6
CONTINUOUS
10
4.49589
20
-0.0184085
11
4.49632
21
-0.0184852
0
LINE
8
BLACK
6
CONTINUOUS
10
4.49632
20
-0.0184852
11
4.49699
21
-0.0190439
0
LINE
8
BLACK
6
CONTINUOUS
10
4.49699
20
-0.0190439
11
4.49754
21
-0.0193619
0
LINE
8
BLACK
6
CONTINUOUS
10
4.49754
20
-0.0193619
11
4.49762
21
-0.0195694
0
LINE
8
BLACK
6
CONTINUOUS
10
4.49762
20
-0.0195694
11
4.49787
21
-0.0197835
0
LINE
8
BLACK
6
CONTINUOUS
10
4.49787
20
-0.0197835
11
4.49804
21
-0.0207279
0
LINE
8
BLACK
6
CONTINUOUS
10
4.49804
20
-0.0207279
11
4.49823
21
-0.0212598
0
LINE
8
BLACK
6
CONTINUOUS
10
4.49823
20
-0.0212598
11
4.49823
21
-0.17874
0
LINE
8
BLACK
6
CONTINUOUS
10
4.49823
20
-0.17874
11
4.49816
21
-0.179124
0
LINE
8
BLACK
6
CONTINUOUS
10
4.49816
20
-0.179124
11
4.49819
21
-0.179253
0
LINE
8
BLACK
6
CONTINUOUS
10
4.49819
20
-0.179253
11
4.49812
21
-0.179367
0
LINE
8
BLACK
6
CONTINUOUS
10
4.49812
20
-0.179367
11
4.49805
21
-0.17975
0
LINE
8
BLACK
6
CONTINUOUS
10
4.49805
20
-0.17975
11
4.49756
21
-0.180338
0
LINE
8
BLACK
6
CONTINUOUS
10
4.49756
20
-0.180338
11
4.49718
21
-0.181002
0
LINE
8
BLACK
6
CONTINUOUS
10
4.49718
20
-0.181002
11
4.49693
21
-0.181093
0
LINE
8
BLACK
6
CONTINUOUS
10
4.49693
20
-0.181093
11
4.49676
21
-0.181297
0
LINE
8
BLACK
6
CONTINUOUS
10
4.49676
20
-0.181297
11
4.496
21
-0.181431
0
LINE
8
BLACK
6
CONTINUOUS
10
4.496
20
-0.181431
11
4.49528
21
-0.181693
0
LINE
8
BLACK
6
CONTINUOUS
10
4.49528
20
-0.181693
11
4.3998
21
-0.181693
0
LINE
8
BLACK
6
CONTINUOUS
10
4.3998
20
-0.181693
11
4.3998
21
-0.198425
0
LINE
8
BLACK
6
CONTINUOUS
10
4.3998
20
-0.198425
11
4.39974
21
-0.198809
0
LINE
8
BLACK
6
CONTINUOUS
10
4.39974
20
-0.198809
11
4.39976
21
-0.198938
0
LINE
8
BLACK
6
CONTINUOUS
10
4.39976
20
-0.198938
11
4.39969
21
-0.199052
0
LINE
8
BLACK
6
CONTINUOUS
10
4.39969
20
-0.199052
11
4.39963
21
-0.199435
0
LINE
8
BLACK
6
CONTINUOUS
10
4.39963
20
-0.199435
11
4.39921
21
-0.199931
0
LINE
8
BLACK
6
CONTINUOUS
10
4.39921
20
-0.199931
11
4.39941
21
-0.200098
0
LINE
8
BLACK
6
CONTINUOUS
10
4.39941
20
-0.200098
11
4.39954
21
-0.200854
0
LINE
8
BLACK
6
CONTINUOUS
10
4.39954
20
-0.200854
11
4.3998
21
-0.201575
0
LINE
8
BLACK
6
CONTINUOUS
10
4.3998
20
-0.201575
11
4.3998
21
-0.218307
0
LINE
8
BLACK
6
CONTINUOUS
10
4.3998
20
-0.218307
11
4.49531
21
-0.218307
0
LINE
8
BLACK
6
CONTINUOUS
10
4.49531
20
-0.218307
11
4.49568
21
-0.218372
0
LINE
8
BLACK
6
CONTINUOUS
10
4.49568
20
-0.218372
11
4.49579
21
-0.218352
0
LINE
8
BLACK
6
CONTINUOUS
10
4.49579
20
-0.218352
11
4.49589
21
-0.218409
0
LINE
8
BLACK
6
CONTINUOUS
10
4.49589
20
-0.218409
11
4.49632
21
-0.218485
0
LINE
8
BLACK
6
CONTINUOUS
10
4.49632
20
-0.218485
11
4.49699
21
-0.219044
0
LINE
8
BLACK
6
CONTINUOUS
10
4.49699
20
-0.219044
11
4.49754
21
-0.219362
0
LINE
8
BLACK
6
CONTINUOUS
10
4.49754
20
-0.219362
11
4.49762
21
-0.219569
0
LINE
8
BLACK
6
CONTINUOUS
10
4.49762
20
-0.219569
11
4.49787
21
-0.219783
0
LINE
8
BLACK
6
CONTINUOUS
10
4.49787
20
-0.219783
11
4.49804
21
-0.220728
0
LINE
8
BLACK
6
CONTINUOUS
10
4.49804
20
-0.220728
11
4.49823
21
-0.22126
0
LINE
8
BLACK
6
CONTINUOUS
10
4.49823
20
-0.22126
11
4.49823
21
-0.37874
0
LINE
8
BLACK
6
CONTINUOUS
10
4.49823
20
-0.37874
11
4.49816
21
-0.379124
0
LINE
8
BLACK
6
CONTINUOUS
10
4.49816
20
-0.379124
11
4.49819
21
-0.379253
0
LINE
8
BLACK
6
CONTINUOUS
10
4.49819
20
-0.379253
11
4.49812
21
-0.379367
0
LINE
8
BLACK
6
CONTINUOUS
10
4.49812
20
-0.379367
11
4.49805
21
-0.37975
0
LINE
8
BLACK
6
CONTINUOUS
10
4.49805
20
-0.37975
11
4.49756
21
-0.380338
0
LINE
8
BLACK
6
CONTINUOUS
10
4.49756
20
-0.380338
11
4.49718
21
-0.381002
0
LINE
8
BLACK
6
CONTINUOUS
10
4.49718
20
-0.381002
11
4.49693
21
-0.381093
0
LINE
8
BLACK
6
CONTINUOUS
10
4.49693
20
-0.381093
11
4.49676
21
-0.381297
0
LINE
8
BLACK
6
CONTINUOUS
10
4.49676
20
-0.381297
11
4.496
21
-0.381431
0
LINE
8
BLACK
6
CONTINUOUS
10
4.496
20
-0.381431
11
4.49528
21
-0.381693
0
LINE
8
BLACK
6
CONTINUOUS
10
4.49528
20
-0.381693
11
4.3998
21
-0.381693
0
LINE
8
BLACK
6
CONTINUOUS
10
4.3998
20
-0.381693
11
4.3998
21
-0.398425
0
LINE
8
BLACK
6
CONTINUOUS
10
4.3998
20
-0.398425
11
4.39974
21
-0.398809
0
LINE
8
BLACK
6
CONTINUOUS
10
4.39974
20
-0.398809
11
4.39976
21
-0.398938
0
LINE
8
BLACK
6
CONTINUOUS
10
4.39976
20
-0.398938
11
4.39969
21
-0.399052
0
LINE
8
BLACK
6
CONTINUOUS
10
4.39969
20
-0.399052
11
4.39963
21
-0.399435
0
LINE
8
BLACK
6
CONTINUOUS
10
4.39963
20
-0.399435
11
4.39913
21
-0.400023
0
LINE
8
BLACK
6
CONTINUOUS
10
4.39913
20
-0.400023
11
4.39875
21
-0.400687
0
LINE
8
BLACK
6
CONTINUOUS
10
4.39875
20
-0.400687
11
4.3985
21
-0.400778
0
LINE
8
BLACK
6
CONTINUOUS
10
4.3985
20
-0.400778
11
4.39833
21
-0.400982
0
LINE
8
BLACK
6
CONTINUOUS
10
4.39833
20
-0.400982
11
4.39757
21
-0.401116
0
LINE
8
BLACK
6
CONTINUOUS
10
4.39757
20
-0.401116
11
4.39685
21
-0.401378
0
LINE
8
BLACK
6
CONTINUOUS
10
4.39685
20
-0.401378
11
3.8063
21
-0.401378
0
LINE
8
BLACK
6
CONTINUOUS
10
3.8063
20
-0.401378
11
3.80593
21
-0.401312
0
LINE
8
BLACK
6
CONTINUOUS
10
4.16358
20
-0.204528
11
4.16358
21
-0.395472
0
LINE
8
BLACK
6
CONTINUOUS
10
4.16358
20
-0.395472
11
4.3939
21
-0.395472
0
LINE
8
BLACK
6
CONTINUOUS
10
4.3939
20
-0.395472
11
4.3939
21
-0.381693
0
LINE
8
BLACK
6
CONTINUOUS
10
4.3939
20
-0.381693
11
4.35748
21
-0.381693
0
LINE
8
BLACK
6
CONTINUOUS
10
4.35748
20
-0.381693
11
4.3571
21
-0.381625
0
LINE
8
BLACK
6
CONTINUOUS
10
4.3571
20
-0.381625
11
4.35697
21
-0.381648
0
LINE
8
BLACK
6
CONTINUOUS
10
4.35697
20
-0.381648
11
4.35685
21
-0.381582
0
LINE
8
BLACK
6
CONTINUOUS
10
4.35685
20
-0.381582
11
4.35647
21
-0.381515
0
LINE
8
BLACK
6
CONTINUOUS
10
4.35647
20
-0.381515
11
4.35588
21
-0.381022
0
LINE
8
BLACK
6
CONTINUOUS
10
4.35588
20
-0.381022
11
4.35522
21
-0.380638
0
LINE
8
BLACK
6
CONTINUOUS
10
4.35522
20
-0.380638
11
4.35513
21
-0.380388
0
LINE
8
BLACK
6
CONTINUOUS
10
4.35513
20
-0.380388
11
4.35492
21
-0.380217
0
LINE
8
BLACK
6
CONTINUOUS
10
4.35492
20
-0.380217
11
4.35479
21
-0.379461
0
LINE
8
BLACK
6
CONTINUOUS
10
4.35479
20
-0.379461
11
4.35453
21
-0.37874
0
LINE
8
BLACK
6
CONTINUOUS
10
4.35453
20
-0.37874
11
4.35453
21
-0.362008
0
LINE
8
BLACK
6
CONTINUOUS
10
4.35453
20
-0.362008
11
4.23937
21
-0.362008
0
LINE
8
BLACK
6
CONTINUOUS
10
4.23937
20
-0.362008
11
4.239
21
-0.361942
0
LINE
8
BLACK
6
CONTINUOUS
10
4.239
20
-0.361942
11
4.23886
21
-0.361967
0
LINE
8
BLACK
6
CONTINUOUS
10
4.23886
20
-0.361967
11
4.23873
21
-0.361896
0
LINE
8
BLACK
6
CONTINUOUS
10
4.23873
20
-0.361896
11
4.23836
21
-0.36183
0
LINE
8
BLACK
6
CONTINUOUS
10
4.23836
20
-0.36183
11
4.23779
21
-0.361349
0
LINE
8
BLACK
6
CONTINUOUS
10
4.23779
20
-0.361349
11
4.23711
21
-0.360957
0
LINE
8
BLACK
6
CONTINUOUS
10
4.23711
20
-0.360957
11
4.23701
21
-0.360701
0
LINE
8
BLACK
6
CONTINUOUS
10
4.23701
20
-0.360701
11
4.23681
21
-0.360531
0
LINE
8
BLACK
6
CONTINUOUS
10
4.23681
20
-0.360531
11
4.23668
21
-0.359784
0
LINE
8
BLACK
6
CONTINUOUS
10
4.23668
20
-0.359784
11
4.23642
21
-0.359059
0
LINE
8
BLACK
6
CONTINUOUS
10
4.23642
20
-0.359059
11
4.23642
21
-0.240941
0
LINE
8
BLACK
6
CONTINUOUS
10
4.23642
20
-0.240941
11
4.23648
21
-0.240559
0
LINE
8
BLACK
6
CONTINUOUS
10
4.23648
20
-0.240559
11
4.23646
21
-0.240432
0
LINE
8
BLACK
6
CONTINUOUS
10
4.23646
20
-0.240432
11
4.23653
21
-0.24032
0
LINE
8
BLACK
6
CONTINUOUS
10
4.23653
20
-0.24032
11
4.2366
21
-0.239931
0
LINE
8
BLACK
6
CONTINUOUS
10
4.2366
20
-0.239931
11
4.2371
21
-0.239335
0
LINE
8
BLACK
6
CONTINUOUS
10
4.2371
20
-0.239335
11
4.23747
21
-0.238683
0
LINE
8
BLACK
6
CONTINUOUS
10
4.23747
20
-0.238683
11
4.23772
21
-0.238594
0
LINE
8
BLACK
6
CONTINUOUS
10
4.23772
20
-0.238594
11
4.23789
21
-0.238384
0
LINE
8
BLACK
6
CONTINUOUS
10
4.23789
20
-0.238384
11
4.23867
21
-0.238247
0
LINE
8
BLACK
6
CONTINUOUS
10
4.23867
20
-0.238247
11
4.23937
21
-0.237992
0
LINE
8
BLACK
6
CONTINUOUS
10
4.23937
20
-0.237992
11
4.35453
21
-0.237992
0
LINE
8
BLACK
6
CONTINUOUS
10
4.35453
20
-0.237992
11
4.35453
21
-0.22126
0
LINE
8
BLACK
6
CONTINUOUS
10
4.35453
20
-0.22126
11
4.3546
21
-0.220876
0
LINE
8
BLACK
6
CONTINUOUS
10
4.3546
20
-0.220876
11
4.35457
21
-0.220747
0
LINE
8
BLACK
6
CONTINUOUS
10
4.35457
20
-0.220747
11
4.35464
21
-0.220633
0
LINE
8
BLACK
6
CONTINUOUS
10
4.35464
20
-0.220633
11
4.35471
21
-0.22025
0
LINE
8
BLACK
6
CONTINUOUS
10
4.35471
20
-0.22025
11
4.3552
21
-0.219662
0
LINE
8
BLACK
6
CONTINUOUS
10
4.3552
20
-0.219662
11
4.35558
21
-0.218998
0
LINE
8
BLACK
6
CONTINUOUS
10
4.35558
20
-0.218998
11
4.35583
21
-0.218907
0
LINE
8
BLACK
6
CONTINUOUS
10
4.35583
20
-0.218907
11
4.356
21
-0.218703
0
LINE
8
BLACK
6
CONTINUOUS
10
4.356
20
-0.218703
11
4.35676
21
-0.218569
0
LINE
8
BLACK
6
CONTINUOUS
10
4.35676
20
-0.218569
11
4.35748
21
-0.218307
0
LINE
8
BLACK
6
CONTINUOUS
10
4.35748
20
-0.218307
11
4.3939
21
-0.218307
0
LINE
8
BLACK
6
CONTINUOUS
10
4.3939
20
-0.218307
11
4.3939
21
-0.204528
0
LINE
8
BLACK
6
CONTINUOUS
10
4.3939
20
-0.204528
11
4.16358
21
-0.204528
0
LINE
8
BLACK
6
CONTINUOUS
10
3.80925
20
-0.204528
11
3.80925
21
-0.395472
0
LINE
8
BLACK
6
CONTINUOUS
10
3.80925
20
-0.395472
11
4.15768
21
-0.395472
0
LINE
8
BLACK
6
CONTINUOUS
10
4.15768
20
-0.395472
11
4.15768
21
-0.342323
0
LINE
8
BLACK
6
CONTINUOUS
10
4.15768
20
-0.342323
11
4.14389
21
-0.342323
0
LINE
8
BLACK
6
CONTINUOUS
10
4.14389
20
-0.342323
11
4.14389
21
-0.37874
0
LINE
8
BLACK
6
CONTINUOUS
10
4.14389
20
-0.37874
11
4.14383
21
-0.379124
0
LINE
8
BLACK
6
CONTINUOUS
10
4.14383
20
-0.379124
11
4.14385
21
-0.379253
0
LINE
8
BLACK
6
CONTINUOUS
10
4.14385
20
-0.379253
11
4.14378
21
-0.379367
0
LINE
8
BLACK
6
CONTINUOUS
10
4.14378
20
-0.379367
11
4.14372
21
-0.37975
0
LINE
8
BLACK
6
CONTINUOUS
10
4.14372
20
-0.37975
11
4.14322
21
-0.380338
0
LINE
8
BLACK
6
CONTINUOUS
10
4.14322
20
-0.380338
11
4.14284
21
-0.381002
0
LINE
8
BLACK
6
CONTINUOUS
10
4.14284
20
-0.381002
11
4.14259
21
-0.381093
0
LINE
8
BLACK
6
CONTINUOUS
10
4.14259
20
-0.381093
11
4.14242
21
-0.381297
0
LINE
8
BLACK
6
CONTINUOUS
10
4.14242
20
-0.381297
11
4.14166
21
-0.381431
0
LINE
8
BLACK
6
CONTINUOUS
10
4.14166
20
-0.381431
11
4.14094
21
-0.381693
0
LINE
8
BLACK
6
CONTINUOUS
10
4.14094
20
-0.381693
11
3.82598
21
-0.381693
0
LINE
8
BLACK
6
CONTINUOUS
10
3.82598
20
-0.381693
11
3.8256
21
-0.381625
0
LINE
8
BLACK
6
CONTINUOUS
10
3.8256
20
-0.381625
11
3.82547
21
-0.381648
0
LINE
8
BLACK
6
CONTINUOUS
10
3.82547
20
-0.381648
11
3.82535
21
-0.381582
0
LINE
8
BLACK
6
CONTINUOUS
10
3.82535
20
-0.381582
11
3.82497
21
-0.381515
0
LINE
8
BLACK
6
CONTINUOUS
10
3.82497
20
-0.381515
11
3.82438
21
-0.381022
0
LINE
8
BLACK
6
CONTINUOUS
10
3.82438
20
-0.381022
11
3.82372
21
-0.380638
0
LINE
8
BLACK
6
CONTINUOUS
10
3.82372
20
-0.380638
11
3.82363
21
-0.380388
0
LINE
8
BLACK
6
CONTINUOUS
10
3.82363
20
-0.380388
11
3.82342
21
-0.380217
0
LINE
8
BLACK
6
CONTINUOUS
10
3.82342
20
-0.380217
11
3.82329
21
-0.379461
0
LINE
8
BLACK
6
CONTINUOUS
10
3.82329
20
-0.379461
11
3.82303
21
-0.37874
0
LINE
8
BLACK
6
CONTINUOUS
10
3.82303
20
-0.37874
11
3.82303
21
-0.22126
0
LINE
8
BLACK
6
CONTINUOUS
10
3.82303
20
-0.22126
11
3.8231
21
-0.220876
0
LINE
8
BLACK
6
CONTINUOUS
10
3.8231
20
-0.220876
11
3.82307
21
-0.220747
0
LINE
8
BLACK
6
CONTINUOUS
10
3.82307
20
-0.220747
11
3.82314
21
-0.220633
0
LINE
8
BLACK
6
CONTINUOUS
10
3.82314
20
-0.220633
11
3.82321
21
-0.22025
0
LINE
8
BLACK
6
CONTINUOUS
10
3.82321
20
-0.22025
11
3.8237
21
-0.219662
0
LINE
8
BLACK
6
CONTINUOUS
10
3.8237
20
-0.219662
11
3.82408
21
-0.218998
0
LINE
8
BLACK
6
CONTINUOUS
10
3.82408
20
-0.218998
11
3.82433
21
-0.218907
0
LINE
8
BLACK
6
CONTINUOUS
10
3.82433
20
-0.218907
11
3.8245
21
-0.218703
0
LINE
8
BLACK
6
CONTINUOUS
10
3.8245
20
-0.218703
11
3.82526
21
-0.218569
0
LINE
8
BLACK
6
CONTINUOUS
10
3.82526
20
-0.218569
11
3.82598
21
-0.218307
0
LINE
8
BLACK
6
CONTINUOUS
10
3.82598
20
-0.218307
11
4.14094
21
-0.218307
0
LINE
8
BLACK
6
CONTINUOUS
10
4.14094
20
-0.218307
11
4.14132
21
-0.218375
0
LINE
8
BLACK
6
CONTINUOUS
10
4.14132
20
-0.218375
11
4.14145
21
-0.218352
0
LINE
8
BLACK
6
CONTINUOUS
10
4.14145
20
-0.218352
11
4.14157
21
-0.218418
0
LINE
8
BLACK
6
CONTINUOUS
10
4.14157
20
-0.218418
11
4.14195
21
-0.218485
0
LINE
8
BLACK
6
CONTINUOUS
10
4.14195
20
-0.218485
11
4.14254
21
-0.218978
0
LINE
8
BLACK
6
CONTINUOUS
10
4.14254
20
-0.218978
11
4.1432
21
-0.219362
0
LINE
8
BLACK
6
CONTINUOUS
10
4.1432
20
-0.219362
11
4.14329
21
-0.219612
0
LINE
8
BLACK
6
CONTINUOUS
10
4.14329
20
-0.219612
11
4.1435
21
-0.219783
0
LINE
8
BLACK
6
CONTINUOUS
10
4.1435
20
-0.219783
11
4.14363
21
-0.220539
0
LINE
8
BLACK
6
CONTINUOUS
10
4.14363
20
-0.220539
11
4.14389
21
-0.22126
0
LINE
8
BLACK
6
CONTINUOUS
10
4.14389
20
-0.22126
11
4.14389
21
-0.257677
0
LINE
8
BLACK
6
CONTINUOUS
10
4.14389
20
-0.257677
11
4.15768
21
-0.257677
0
LINE
8
BLACK
6
CONTINUOUS
10
4.15768
20
-0.257677
11
4.15768
21
-0.204528
0
LINE
8
BLACK
6
CONTINUOUS
10
4.15768
20
-0.204528
11
3.80925
21
-0.204528
0
LINE
8
BLACK
6
CONTINUOUS
10
4.36043
20
-0.224213
11
4.36043
21
-0.375787
0
LINE
8
BLACK
6
CONTINUOUS
10
4.36043
20
-0.375787
11
4.49233
21
-0.375787
0
LINE
8
BLACK
6
CONTINUOUS
10
4.49233
20
-0.375787
11
4.49233
21
-0.224213
0
LINE
8
BLACK
6
CONTINUOUS
10
4.49233
20
-0.224213
11
4.36043
21
-0.224213
0
LINE
8
BLACK
6
CONTINUOUS
10
3.82893
20
-0.224213
11
3.82893
21
-0.375787
0
LINE
8
BLACK
6
CONTINUOUS
10
3.82893
20
-0.375787
11
4.13799
21
-0.375787
0
LINE
8
BLACK
6
CONTINUOUS
10
4.13799
20
-0.375787
11
4.13799
21
-0.224213
0
LINE
8
BLACK
6
CONTINUOUS
10
4.13799
20
-0.224213
11
3.82893
21
-0.224213
0
LINE
8
BLACK
6
CONTINUOUS
10
4.24232
20
-0.243898
11
4.24232
21
-0.356102
0
LINE
8
BLACK
6
CONTINUOUS
10
4.24232
20
-0.356102
11
4.35453
21
-0.356102
0
LINE
8
BLACK
6
CONTINUOUS
10
4.35453
20
-0.356102
11
4.35453
21
-0.243898
0
LINE
8
BLACK
6
CONTINUOUS
10
4.35453
20
-0.243898
11
4.24232
21
-0.243898
0
LINE
8
BLACK
6
CONTINUOUS
10
4.14389
20
-0.263583
11
4.14389
21
-0.336417
0
LINE
8
BLACK
6
CONTINUOUS
10
4.14389
20
-0.336417
11
4.15768
21
-0.336417
0
LINE
8
BLACK
6
CONTINUOUS
10
4.15768
20
-0.336417
11
4.15768
21
-0.263583
0
LINE
8
BLACK
6
CONTINUOUS
10
4.15768
20
-0.263583
11
4.14389
21
-0.263583
0
LINE
8
BLACK
6
CONTINUOUS
10
4.16358
20
-0.00452756
11
4.16358
21
-0.195472
0
LINE
8
BLACK
6
CONTINUOUS
10
4.16358
20
-0.195472
11
4.3939
21
-0.195472
0
LINE
8
BLACK
6
CONTINUOUS
10
4.3939
20
-0.195472
11
4.3939
21
-0.181693
0
LINE
8
BLACK
6
CONTINUOUS
10
4.3939
20
-0.181693
11
4.35748
21
-0.181693
0
LINE
8
BLACK
6
CONTINUOUS
10
4.35748
20
-0.181693
11
4.3571
21
-0.181625
0
LINE
8
BLACK
6
CONTINUOUS
10
4.3571
20
-0.181625
11
4.35697
21
-0.181648
0
LINE
8
BLACK
6
CONTINUOUS
10
4.35697
20
-0.181648
11
4.35685
21
-0.181582
0
LINE
8
BLACK
6
CONTINUOUS
10
4.35685
20
-0.181582
11
4.35647
21
-0.181515
0
LINE
8
BLACK
6
CONTINUOUS
10
4.35647
20
-0.181515
11
4.35588
21
-0.181022
0
LINE
8
BLACK
6
CONTINUOUS
10
4.35588
20
-0.181022
11
4.35522
21
-0.180638
0
LINE
8
BLACK
6
CONTINUOUS
10
4.35522
20
-0.180638
11
4.35513
21
-0.180388
0
LINE
8
BLACK
6
CONTINUOUS
10
4.35513
20
-0.180388
11
4.35492
21
-0.180217
0
LINE
8
BLACK
6
CONTINUOUS
10
4.35492
20
-0.180217
11
4.35479
21
-0.179461
0
LINE
8
BLACK
6
CONTINUOUS
10
4.35479
20
-0.179461
11
4.35453
21
-0.17874
0
LINE
8
BLACK
6
CONTINUOUS
10
4.35453
20
-0.17874
11
4.35453
21
-0.162008
0
LINE
8
BLACK
6
CONTINUOUS
10
4.35453
20
-0.162008
11
4.23937
21
-0.162008
0
LINE
8
BLACK
6
CONTINUOUS
10
4.23937
20
-0.162008
11
4.239
21
-0.161942
0
LINE
8
BLACK
6
CONTINUOUS
10
4.239
20
-0.161942
11
4.23886
21
-0.161967
0
LINE
8
BLACK
6
CONTINUOUS
10
4.23886
20
-0.161967
11
4.23873
21
-0.161896
0
LINE
8
BLACK
6
CONTINUOUS
10
4.23873
20
-0.161896
11
4.23836
21
-0.16183
0
LINE
8
BLACK
6
CONTINUOUS
10
4.23836
20
-0.16183
11
4.23779
21
-0.161349
0
LINE
8
BLACK
6
CONTINUOUS
10
4.23779
20
-0.161349
11
4.23711
21
-0.160957
0
LINE
8
BLACK
6
CONTINUOUS
10
4.23711
20
-0.160957
11
4.23701
21
-0.160701
0
LINE
8
BLACK
6
CONTINUOUS
10
4.23701
20
-0.160701
11
4.23681
21
-0.160531
0
LINE
8
BLACK
6
CONTINUOUS
10
4.23681
20
-0.160531
11
4.23668
21
-0.159784
0
LINE
8
BLACK
6
CONTINUOUS
10
4.23668
20
-0.159784
11
4.23642
21
-0.159059
0
LINE
8
BLACK
6
CONTINUOUS
10
4.23642
20
-0.159059
11
4.23642
21
-0.0409409
0
LINE
8
BLACK
6
CONTINUOUS
10
4.23642
20
-0.0409409
11
4.23648
21
-0.0405594
0
LINE
8
BLACK
6
CONTINUOUS
10
4.23648
20
-0.0405594
11
4.23646
21
-0.0404321
0
LINE
8
BLACK
6
CONTINUOUS
10
4.23646
20
-0.0404321
11
4.23653
21
-0.0403202
0
LINE
8
BLACK
6
CONTINUOUS
10
4.23653
20
-0.0403202
11
4.2366
21
-0.039931
0
LINE
8
BLACK
6
CONTINUOUS
10
4.2366
20
-0.039931
11
4.2371
21
-0.0393346
0
LINE
8
BLACK
6
CONTINUOUS
10
4.2371
20
-0.0393346
11
4.23747
21
-0.038683
0
LINE
8
BLACK
6
CONTINUOUS
10
4.23747
20
-0.038683
11
4.23772
21
-0.0385936
0
LINE
8
BLACK
6
CONTINUOUS
10
4.23772
20
-0.0385936
11
4.23789
21
-0.0383838
0
LINE
8
BLACK
6
CONTINUOUS
10
4.23789
20
-0.0383838
11
4.23867
21
-0.0382469
0
LINE
8
BLACK
6
CONTINUOUS
10
4.23867
20
-0.0382469
11
4.23937
21
-0.0379921
0
LINE
8
BLACK
6
CONTINUOUS
10
4.23937
20
-0.0379921
11
4.35453
21
-0.0379921
0
LINE
8
BLACK
6
CONTINUOUS
10
4.35453
20
-0.0379921
11
4.35453
21
-0.0212598
0
LINE
8
BLACK
6
CONTINUOUS
10
4.35453
20
-0.0212598
11
4.3546
21
-0.0208763
0
LINE
8
BLACK
6
CONTINUOUS
10
4.3546
20
-0.0208763
11
4.35457
21
-0.0207471
0
LINE
8
BLACK
6
CONTINUOUS
10
4.35457
20
-0.0207471
11
4.35464
21
-0.0206335
0
LINE
8
BLACK
6
CONTINUOUS
10
4.35464
20
-0.0206335
11
4.35471
21
-0.0202499
0
LINE
8
BLACK
6
CONTINUOUS
10
4.35471
20
-0.0202499
11
4.3552
21
-0.0196622
0
LINE
8
BLACK
6
CONTINUOUS
10
4.3552
20
-0.0196622
11
4.35558
21
-0.0189979
0
LINE
8
BLACK
6
CONTINUOUS
10
4.35558
20
-0.0189979
11
4.35583
21
-0.0189068
0
LINE
8
BLACK
6
CONTINUOUS
10
4.35583
20
-0.0189068
11
4.356
21
-0.0187027
0
LINE
8
BLACK
6
CONTINUOUS
10
4.356
20
-0.0187027
11
4.35676
21
-0.0185694
0
LINE
8
BLACK
6
CONTINUOUS
10
4.35676
20
-0.0185694
11
4.35748
21
-0.0183071
0
LINE
8
BLACK
6
CONTINUOUS
10
4.35748
20
-0.0183071
11
4.3939
21
-0.0183071
0
LINE
8
BLACK
6
CONTINUOUS
10
4.3939
20
-0.0183071
11
4.3939
21
-0.00452756
0
LINE
8
BLACK
6
CONTINUOUS
10
4.3939
20
-0.00452756
11
4.16358
21
-0.00452756
0
LINE
8
BLACK
6
CONTINUOUS
10
3.80925
20
-0.00452756
11
3.80925
21
-0.195472
0
LINE
8
BLACK
6
CONTINUOUS
10
3.80925
20
-0.195472
11
4.15768
21
-0.195472
0
LINE
8
BLACK
6
CONTINUOUS
10
4.15768
20
-0.195472
11
4.15768
21
-0.142323
0
LINE
8
BLACK
6
CONTINUOUS
10
4.15768
20
-0.142323
11
4.14389
21
-0.142323
0
LINE
8
BLACK
6
CONTINUOUS
10
4.14389
20
-0.142323
11
4.14389
21
-0.17874
0
LINE
8
BLACK
6
CONTINUOUS
10
4.14389
20
-0.17874
11
4.14383
21
-0.179124
0
LINE
8
BLACK
6
CONTINUOUS
10
4.14383
20
-0.179124
11
4.14385
21
-0.179253
0
LINE
8
BLACK
6
CONTINUOUS
10
4.14385
20
-0.179253
11
4.14378
21
-0.179367
0
LINE
8
BLACK
6
CONTINUOUS
10
4.14378
20
-0.179367
11
4.14372
21
-0.17975
0
LINE
8
BLACK
6
CONTINUOUS
10
4.14372
20
-0.17975
11
4.14322
21
-0.180338
0
LINE
8
BLACK
6
CONTINUOUS
10
4.14322
20
-0.180338
11
4.14284
21
-0.181002
0
LINE
8
BLACK
6
CONTINUOUS
10
4.14284
20
-0.181002
11
4.14259
21
-0.181093
0
LINE
8
BLACK
6
CONTINUOUS
10
4.14259
20
-0.181093
11
4.14242
21
-0.181297
0
LINE
8
BLACK
6
CONTINUOUS
10
4.14242
20
-0.181297
11
4.14166
21
-0.181431
0
LINE
8
BLACK
6
CONTINUOUS
10
4.14166
20
-0.181431
11
4.14094
21
-0.181693
0
LINE
8
BLACK
6
CONTINUOUS
10
4.14094
20
-0.181693
11
3.82598
21
-0.181693
0
LINE
8
BLACK
6
CONTINUOUS
10
3.82598
20
-0.181693
11
3.8256
21
-0.181625
0
LINE
8
BLACK
6
CONTINUOUS
10
3.8256
20
-0.181625
11
3.82547
21
-0.181648
0
LINE
8
BLACK
6
CONTINUOUS
10
3.82547
20
-0.181648
11
3.82535
21
-0.181582
0
LINE
8
BLACK
6
CONTINUOUS
10
3.82535
20
-0.181582
11
3.82497
21
-0.181515
0
LINE
8
BLACK
6
CONTINUOUS
10
3.82497
20
-0.181515
11
3.82438
21
-0.181022
0
LINE
8
BLACK
6
CONTINUOUS
10
3.82438
20
-0.181022
11
3.82372
21
-0.180638
0
LINE
8
BLACK
6
CONTINUOUS
10
3.82372
20
-0.180638
11
3.82363
21
-0.180388
0
LINE
8
BLACK
6
CONTINUOUS
10
3.82363
20
-0.180388
11
3.82342
21
-0.180217
0
LINE
8
BLACK
6
CONTINUOUS
10
3.82342
20
-0.180217
11
3.82329
21
-0.179461
0
LINE
8
BLACK
6
CONTINUOUS
10
3.82329
20
-0.179461
11
3.82303
21
-0.17874
0
LINE
8
BLACK
6
CONTINUOUS
10
3.82303
20
-0.17874
11
3.82303
21
-0.0212598
0
LINE
8
BLACK
6
CONTINUOUS
10
3.82303
20
-0.0212598
11
3.8231
21
-0.0208763
0
LINE
8
BLACK
6
CONTINUOUS
10
3.8231
20
-0.0208763
11
3.82307
21
-0.0207471
0
LINE
8
BLACK
6
CONTINUOUS
10
3.82307
20
-0.0207471
11
3.82314
21
-0.0206335
0
LINE
8
BLACK
6
CONTINUOUS
10
3.82314
20
-0.0206335
11
3.82321
21
-0.0202499
0
LINE
8
BLACK
6
CONTINUOUS
10
3.82321
20
-0.0202499
11
3.8237
21
-0.0196622
0
LINE
8
BLACK
6
CONTINUOUS
10
3.8237
20
-0.0196622
11
3.82408
21
-0.0189979
0
LINE
8
BLACK
6
CONTINUOUS
10
3.82408
20
-0.0189979
11
3.82433
21
-0.0189068
0
LINE
8
BLACK
6
CONTINUOUS
10
3.82433
20
-0.0189068
11
3.8245
21
-0.0187027
0
LINE
8
BLACK
6
CONTINUOUS
10
3.8245
20
-0.0187027
11
3.82526
21
-0.0185694
0
LINE
8
BLACK
6
CONTINUOUS
10
3.82526
20
-0.0185694
11
3.82598
21
-0.0183071
0
LINE
8
BLACK
6
CONTINUOUS
10
3.82598
20
-0.0183071
11
4.14094
21
-0.0183071
0
LINE
8
BLACK
6
CONTINUOUS
10
4.14094
20
-0.0183071
11
4.14132
21
-0.0183747
0
LINE
8
BLACK
6
CONTINUOUS
10
4.14132
20
-0.0183747
11
4.14145
21
-0.0183519
0
LINE
8
BLACK
6
CONTINUOUS
10
4.14145
20
-0.0183519
11
4.14157
21
-0.0184175
0
LINE
8
BLACK
6
CONTINUOUS
10
4.14157
20
-0.0184175
11
4.14195
21
-0.0184852
0
LINE
8
BLACK
6
CONTINUOUS
10
4.14195
20
-0.0184852
11
4.14254
21
-0.0189783
0
LINE
8
BLACK
6
CONTINUOUS
10
4.14254
20
-0.0189783
11
4.1432
21
-0.0193619
0
LINE
8
BLACK
6
CONTINUOUS
10
4.1432
20
-0.0193619
11
4.14329
21
-0.0196122
0
LINE
8
BLACK
6
CONTINUOUS
10
4.14329
20
-0.0196122
11
4.1435
21
-0.0197835
0
LINE
8
BLACK
6
CONTINUOUS
10
4.1435
20
-0.0197835
11
4.14363
21
-0.020539
0
LINE
8
BLACK
6
CONTINUOUS
10
4.14363
20
-0.020539
11
4.14389
21
-0.0212598
0
LINE
8
BLACK
6
CONTINUOUS
10
4.14389
20
-0.0212598
11
4.14389
21
-0.0576772
0
LINE
8
BLACK
6
CONTINUOUS
10
4.14389
20
-0.0576772
11
4.15768
21
-0.0576772
0
LINE
8
BLACK
6
CONTINUOUS
10
4.15768
20
-0.0576772
11
4.15768
21
-0.00452756
0
LINE
8
BLACK
6
CONTINUOUS
10
4.15768
20
-0.00452756
11
3.80925
21
-0.00452756
0
LINE
8
BLACK
6
CONTINUOUS
10
4.36043
20
-0.0242126
11
4.36043
21
-0.175787
0
LINE
8
BLACK
6
CONTINUOUS
10
4.36043
20
-0.175787
11
4.49233
21
-0.175787
0
LINE
8
BLACK
6
CONTINUOUS
10
4.49233
20
-0.175787
11
4.49233
21
-0.0242126
0
LINE
8
BLACK
6
CONTINUOUS
10
4.49233
20
-0.0242126
11
4.36043
21
-0.0242126
0
LINE
8
BLACK
6
CONTINUOUS
10
3.82893
20
-0.0242126
11
3.82893
21
-0.0775885
0
LINE
8
BLACK
6
CONTINUOUS
10
3.82893
20
-0.0775885
11
3.8303
21
-0.0755108
0
LINE
8
BLACK
6
CONTINUOUS
10
3.8303
20
-0.0755108
11
3.83308
21
-0.0741218
0
LINE
8
BLACK
6
CONTINUOUS
10
3.83308
20
-0.0741218
11
3.83618
21
-0.0743079
0
LINE
8
BLACK
6
CONTINUOUS
10
3.83618
20
-0.0743079
11
3.87114
21
-0.0859611
0
LINE
8
BLACK
6
CONTINUOUS
10
3.87114
20
-0.0859611
11
3.87114
21
-0.0717143
0
LINE
8
BLACK
6
CONTINUOUS
10
3.87114
20
-0.0717143
11
3.85714
21
-0.0717143
0
LINE
8
BLACK
6
CONTINUOUS
10
3.85714
20
-0.0717143
11
3.85414
21
-0.0709104
0
LINE
8
BLACK
6
CONTINUOUS
10
3.85414
20
-0.0709104
11
3.85195
21
-0.0687143
0
LINE
8
BLACK
6
CONTINUOUS
10
3.85195
20
-0.0687143
11
3.85114
21
-0.0657143
0
LINE
8
BLACK
6
CONTINUOUS
10
3.85114
20
-0.0657143
11
3.85195
21
-0.0627143
0
LINE
8
BLACK
6
CONTINUOUS
10
3.85195
20
-0.0627143
11
3.85414
21
-0.0605181
0
LINE
8
BLACK
6
CONTINUOUS
10
3.85414
20
-0.0605181
11
3.85714
21
-0.0597143
0
LINE
8
BLACK
6
CONTINUOUS
10
3.85714
20
-0.0597143
11
3.87114
21
-0.0597143
0
LINE
8
BLACK
6
CONTINUOUS
10
3.87114
20
-0.0597143
11
3.87114
21
-0.0571428
0
LINE
8
BLACK
6
CONTINUOUS
10
3.87114
20
-0.0571428
11
3.87195
21
-0.0541428
0
LINE
8
BLACK
6
CONTINUOUS
10
3.87195
20
-0.0541428
11
3.87414
21
-0.0519467
0
LINE
8
BLACK
6
CONTINUOUS
10
3.87414
20
-0.0519467
11
3.87714
21
-0.0511428
0
LINE
8
BLACK
6
CONTINUOUS
10
3.87714
20
-0.0511428
11
3.88014
21
-0.0519467
0
LINE
8
BLACK
6
CONTINUOUS
10
3.88014
20
-0.0519467
11
3.88234
21
-0.0541428
0
LINE
8
BLACK
6
CONTINUOUS
10
3.88234
20
-0.0541428
11
3.88314
21
-0.0571428
0
LINE
8
BLACK
6
CONTINUOUS
10
3.88314
20
-0.0571428
11
3.88314
21
-0.0597143
0
LINE
8
BLACK
6
CONTINUOUS
10
3.88314
20
-0.0597143
11
3.89714
21
-0.0597143
0
LINE
8
BLACK
6
CONTINUOUS
10
3.89714
20
-0.0597143
11
3.90014
21
-0.0605181
0
LINE
8
BLACK
6
CONTINUOUS
10
3.90014
20
-0.0605181
11
3.90234
21
-0.0627143
0
LINE
8
BLACK
6
CONTINUOUS
10
3.90234
20
-0.0627143
11
3.90314
21
-0.0657143
0
LINE
8
BLACK
6
CONTINUOUS
10
3.90314
20
-0.0657143
11
3.90234
21
-0.0687143
0
LINE
8
BLACK
6
CONTINUOUS
10
3.90234
20
-0.0687143
11
3.90014
21
-0.0709104
0
LINE
8
BLACK
6
CONTINUOUS
10
3.90014
20
-0.0709104
11
3.89714
21
-0.0717143
0
LINE
8
BLACK
6
CONTINUOUS
10
3.89714
20
-0.0717143
11
3.88314
21
-0.0717143
0
LINE
8
BLACK
6
CONTINUOUS
10
3.88314
20
-0.0717143
11
3.88314
21
-0.0942857
0
LINE
8
BLACK
6
CONTINUOUS
10
3.88314
20
-0.0942857
11
3.88289
21
-0.0952187
0
LINE
8
BLACK
6
CONTINUOUS
10
3.88289
20
-0.0952187
11
3.88283
21
-0.0961831
0
LINE
8
BLACK
6
CONTINUOUS
10
3.88283
20
-0.0961831
11
3.8825
21
-0.0966942
0
LINE
8
BLACK
6
CONTINUOUS
10
3.8825
20
-0.0966942
11
3.88234
21
-0.0972857
0
LINE
8
BLACK
6
CONTINUOUS
10
3.88234
20
-0.0972857
11
3.88166
21
-0.0979687
0
LINE
8
BLACK
6
CONTINUOUS
10
3.88166
20
-0.0979687
11
3.88112
21
-0.0987749
0
LINE
8
BLACK
6
CONTINUOUS
10
3.88112
20
-0.0987749
11
3.88058
21
-0.0990488
0
LINE
8
BLACK
6
CONTINUOUS
10
3.88058
20
-0.0990488
11
3.88014
21
-0.0994819
0
LINE
8
BLACK
6
CONTINUOUS
10
3.88014
20
-0.0994819
11
3.87921
21
-0.0997319
0
LINE
8
BLACK
6
CONTINUOUS
10
3.87921
20
-0.0997319
11
3.87835
21
-0.100164
0
LINE
8
BLACK
6
CONTINUOUS
10
3.87835
20
-0.100164
11
3.87773
21
-0.100127
0
LINE
8
BLACK
6
CONTINUOUS
10
3.87773
20
-0.100127
11
3.87714
21
-0.100286
0
LINE
8
BLACK
6
CONTINUOUS
10
3.87714
20
-0.100286
11
3.87621
21
-0.100036
0
LINE
8
BLACK
6
CONTINUOUS
10
3.87621
20
-0.100036
11
3.87525
21
-0.0999778
0
LINE
8
BLACK
6
CONTINUOUS
10
3.87525
20
-0.0999778
11
3.83239
21
-0.0856921
0
LINE
8
BLACK
6
CONTINUOUS
10
3.83239
20
-0.0856921
11
3.8298
21
-0.0839808
0
LINE
8
BLACK
6
CONTINUOUS
10
3.8298
20
-0.0839808
11
3.82893
21
-0.082254
0
LINE
8
BLACK
6
CONTINUOUS
10
3.82893
20
-0.082254
11
3.82893
21
-0.175787
0
LINE
8
BLACK
6
CONTINUOUS
10
3.82893
20
-0.175787
11
4.13799
21
-0.175787
0
LINE
8
BLACK
6
CONTINUOUS
10
4.13799
20
-0.175787
11
4.13799
21
-0.0242126
0
LINE
8
BLACK
6
CONTINUOUS
10
4.13799
20
-0.0242126
11
3.82893
21
-0.0242126
0
LINE
8
BLACK
6
CONTINUOUS
10
4.24232
20
-0.0438976
11
4.24232
21
-0.156102
0
LINE
8
BLACK
6
CONTINUOUS
10
4.24232
20
-0.156102
11
4.35453
21
-0.156102
0
LINE
8
BLACK
6
CONTINUOUS
10
4.35453
20
-0.156102
11
4.35453
21
-0.0438976
0
LINE
8
BLACK
6
CONTINUOUS
10
4.35453
20
-0.0438976
11
4.24232
21
-0.0438976
0
LINE
8
BLACK
6
CONTINUOUS
10
4.14389
20
-0.0635827
11
4.14389
21
-0.136417
0
LINE
8
BLACK
6
CONTINUOUS
10
4.14389
20
-0.136417
11
4.15768
21
-0.136417
0
LINE
8
BLACK
6
CONTINUOUS
10
4.15768
20
-0.136417
11
4.15768
21
-0.0635827
0
LINE
8
BLACK
6
CONTINUOUS
10
4.15768
20
-0.0635827
11
4.14389
21
-0.0635827
0
LINE
8
BLACK
6
CONTINUOUS
10
4.47586
20
-0.23804
11
4.4761
21
-0.237998
0
LINE
8
BLACK
6
CONTINUOUS
10
4.4761
20
-0.237998
11
4.47632
21
-0.23812
0
LINE
8
BLACK
6
CONTINUOUS
10
4.47632
20
-0.23812
11
4.4766
21
-0.23817
0
LINE
8
BLACK
6
CONTINUOUS
10
4.4766
20
-0.23817
11
4.47704
21
-0.238537
0
LINE
8
BLACK
6
CONTINUOUS
10
4.47704
20
-0.238537
11
4.47785
21
-0.239008
0
LINE
8
BLACK
6
CONTINUOUS
10
4.47785
20
-0.239008
11
4.47796
21
-0.239315
0
LINE
8
BLACK
6
CONTINUOUS
10
4.47796
20
-0.239315
11
4.47815
21
-0.239469
0
LINE
8
BLACK
6
CONTINUOUS
10
4.47815
20
-0.239469
11
4.47827
21
-0.240148
0
LINE
8
BLACK
6
CONTINUOUS
10
4.47827
20
-0.240148
11
4.47854
21
-0.240906
0
LINE
8
BLACK
6
CONTINUOUS
10
4.47854
20
-0.240906
11
4.47854
21
-0.359094
0
LINE
8
BLACK
6
CONTINUOUS
10
4.47854
20
-0.359094
11
4.47848
21
-0.359458
0
LINE
8
BLACK
6
CONTINUOUS
10
4.47848
20
-0.359458
11
4.4785
21
-0.359568
0
LINE
8
BLACK
6
CONTINUOUS
10
4.4785
20
-0.359568
11
4.47844
21
-0.359664
0
LINE
8
BLACK
6
CONTINUOUS
10
4.47844
20
-0.359664
11
4.47837
21
-0.360104
0
LINE
8
BLACK
6
CONTINUOUS
10
4.47837
20
-0.360104
11
4.4778
21
-0.360779
0
LINE
8
BLACK
6
CONTINUOUS
10
4.4778
20
-0.360779
11
4.47749
21
-0.361317
0
LINE
8
BLACK
6
CONTINUOUS
10
4.47749
20
-0.361317
11
4.47729
21
-0.361391
0
LINE
8
BLACK
6
CONTINUOUS
10
4.47729
20
-0.361391
11
4.47707
21
-0.361652
0
LINE
8
BLACK
6
CONTINUOUS
10
4.47707
20
-0.361652
11
4.4761
21
-0.361822
0
LINE
8
BLACK
6
CONTINUOUS
10
4.4761
20
-0.361822
11
4.47559
21
-0.362008
0
LINE
8
BLACK
6
CONTINUOUS
10
4.47559
20
-0.362008
11
4.37717
21
-0.362008
0
LINE
8
BLACK
6
CONTINUOUS
10
4.37717
20
-0.362008
11
4.3769
21
-0.36196
0
LINE
8
BLACK
6
CONTINUOUS
10
4.3769
20
-0.36196
11
4.37666
21
-0.362002
0
LINE
8
BLACK
6
CONTINUOUS
10
4.37666
20
-0.362002
11
4.37644
21
-0.36188
0
LINE
8
BLACK
6
CONTINUOUS
10
4.37644
20
-0.36188
11
4.37616
21
-0.36183
0
LINE
8
BLACK
6
CONTINUOUS
10
4.37616
20
-0.36183
11
4.37572
21
-0.361463
0
LINE
8
BLACK
6
CONTINUOUS
10
4.37572
20
-0.361463
11
4.37491
21
-0.360992
0
LINE
8
BLACK
6
CONTINUOUS
10
4.37491
20
-0.360992
11
4.3748
21
-0.360685
0
LINE
8
BLACK
6
CONTINUOUS
10
4.3748
20
-0.360685
11
4.37461
21
-0.360531
0
LINE
8
BLACK
6
CONTINUOUS
10
4.37461
20
-0.360531
11
4.37449
21
-0.359852
0
LINE
8
BLACK
6
CONTINUOUS
10
4.37449
20
-0.359852
11
4.37422
21
-0.359094
0
LINE
8
BLACK
6
CONTINUOUS
10
4.37422
20
-0.359094
11
4.37422
21
-0.240906
0
LINE
8
BLACK
6
CONTINUOUS
10
4.37422
20
-0.240906
11
4.37428
21
-0.240542
0
LINE
8
BLACK
6
CONTINUOUS
10
4.37428
20
-0.240542
11
4.37426
21
-0.240432
0
LINE
8
BLACK
6
CONTINUOUS
10
4.37426
20
-0.240432
11
4.37432
21
-0.240336
0
LINE
8
BLACK
6
CONTINUOUS
10
4.37432
20
-0.240336
11
4.37439
21
-0.239896
0
LINE
8
BLACK
6
CONTINUOUS
10
4.37439
20
-0.239896
11
4.37496
21
-0.239221
0
LINE
8
BLACK
6
CONTINUOUS
10
4.37496
20
-0.239221
11
4.37527
21
-0.238683
0
LINE
8
BLACK
6
CONTINUOUS
10
4.37527
20
-0.238683
11
4.37547
21
-0.238609
0
LINE
8
BLACK
6
CONTINUOUS
10
4.37547
20
-0.238609
11
4.37569
21
-0.238348
0
LINE
8
BLACK
6
CONTINUOUS
10
4.37569
20
-0.238348
11
4.37666
21
-0.238178
0
LINE
8
BLACK
6
CONTINUOUS
10
4.37666
20
-0.238178
11
4.37717
21
-0.237992
0
LINE
8
BLACK
6
CONTINUOUS
10
4.37717
20
-0.237992
11
4.47559
21
-0.237992
0
LINE
8
BLACK
6
CONTINUOUS
10
4.47559
20
-0.237992
11
4.47586
21
-0.23804
0
LINE
8
BLACK
6
CONTINUOUS
10
4.38012
20
-0.243898
11
4.38012
21
-0.356102
0
LINE
8
BLACK
6
CONTINUOUS
10
4.38012
20
-0.356102
11
4.47264
21
-0.356102
0
LINE
8
BLACK
6
CONTINUOUS
10
4.47264
20
-0.356102
11
4.47264
21
-0.243898
0
LINE
8
BLACK
6
CONTINUOUS
10
4.47264
20
-0.243898
11
4.38012
21
-0.243898
0
LINE
8
BLACK
6
CONTINUOUS
10
3.88093
20
-0.31425
11
3.8819
21
-0.314308
0
LINE
8
BLACK
6
CONTINUOUS
10
3.8819
20
-0.314308
11
3.89047
21
-0.317165
0
LINE
8
BLACK
6
CONTINUOUS
10
3.89047
20
-0.317165
11
3.89162
21
-0.317925
0
LINE
8
BLACK
6
CONTINUOUS
10
3.89162
20
-0.317925
11
3.89281
21
-0.318614
0
LINE
8
BLACK
6
CONTINUOUS
10
3.89281
20
-0.318614
11
3.89853
21
-0.324329
0
LINE
8
BLACK
6
CONTINUOUS
10
3.89853
20
-0.324329
11
3.89922
21
-0.325523
0
LINE
8
BLACK
6
CONTINUOUS
10
3.89922
20
-0.325523
11
3.89998
21
-0.326674
0
LINE
8
BLACK
6
CONTINUOUS
10
3.89998
20
-0.326674
11
3.90283
21
-0.335245
0
LINE
8
BLACK
6
CONTINUOUS
10
3.90283
20
-0.335245
11
3.90289
21
-0.33621
0
LINE
8
BLACK
6
CONTINUOUS
10
3.90289
20
-0.33621
11
3.90314
21
-0.337143
0
LINE
8
BLACK
6
CONTINUOUS
10
3.90314
20
-0.337143
11
3.90314
21
-0.342857
0
LINE
8
BLACK
6
CONTINUOUS
10
3.90314
20
-0.342857
11
3.90234
21
-0.345857
0
LINE
8
BLACK
6
CONTINUOUS
10
3.90234
20
-0.345857
11
3.90014
21
-0.348053
0
LINE
8
BLACK
6
CONTINUOUS
10
3.90014
20
-0.348053
11
3.89714
21
-0.348857
0
LINE
8
BLACK
6
CONTINUOUS
10
3.89714
20
-0.348857
11
3.89414
21
-0.348053
0
LINE
8
BLACK
6
CONTINUOUS
10
3.89414
20
-0.348053
11
3.89195
21
-0.345857
0
LINE
8
BLACK
6
CONTINUOUS
10
3.89195
20
-0.345857
11
3.89114
21
-0.342857
0
LINE
8
BLACK
6
CONTINUOUS
10
3.89114
20
-0.342857
11
3.89114
21
-0.338116
0
LINE
8
BLACK
6
CONTINUOUS
10
3.89114
20
-0.338116
11
3.88904
21
-0.331813
0
LINE
8
BLACK
6
CONTINUOUS
10
3.88904
20
-0.331813
11
3.88533
21
-0.328101
0
LINE
8
BLACK
6
CONTINUOUS
10
3.88533
20
-0.328101
11
3.87903
21
-0.326
0
LINE
8
BLACK
6
CONTINUOUS
10
3.87903
20
-0.326
11
3.83714
21
-0.326
0
LINE
8
BLACK
6
CONTINUOUS
10
3.83714
20
-0.326
11
3.83414
21
-0.325196
0
LINE
8
BLACK
6
CONTINUOUS
10
3.83414
20
-0.325196
11
3.83195
21
-0.323
0
LINE
8
BLACK
6
CONTINUOUS
10
3.83195
20
-0.323
11
3.83114
21
-0.32
0
LINE
8
BLACK
6
CONTINUOUS
10
3.83114
20
-0.32
11
3.83195
21
-0.317
0
LINE
8
BLACK
6
CONTINUOUS
10
3.83195
20
-0.317
11
3.83414
21
-0.314804
0
LINE
8
BLACK
6
CONTINUOUS
10
3.83414
20
-0.314804
11
3.83714
21
-0.314
0
LINE
8
BLACK
6
CONTINUOUS
10
3.83714
20
-0.314
11
3.88
21
-0.314
0
LINE
8
BLACK
6
CONTINUOUS
10
3.88
20
-0.314
11
3.88093
21
-0.31425
0
LINE
8
BLACK
6
CONTINUOUS
10
3.83831
20
-0.251456
11
3.83951
21
-0.251628
0
LINE
8
BLACK
6
CONTINUOUS
10
3.83951
20
-0.251628
11
3.89951
21
-0.277342
0
LINE
8
BLACK
6
CONTINUOUS
10
3.89951
20
-0.277342
11
3.90195
21
-0.279263
0
LINE
8
BLACK
6
CONTINUOUS
10
3.90195
20
-0.279263
11
3.9031
21
-0.282147
0
LINE
8
BLACK
6
CONTINUOUS
10
3.9031
20
-0.282147
11
3.90266
21
-0.285221
0
LINE
8
BLACK
6
CONTINUOUS
10
3.90266
20
-0.285221
11
3.90074
21
-0.287661
0
LINE
8
BLACK
6
CONTINUOUS
10
3.90074
20
-0.287661
11
3.89785
21
-0.288815
0
LINE
8
BLACK
6
CONTINUOUS
10
3.89785
20
-0.288815
11
3.89478
21
-0.288372
0
LINE
8
BLACK
6
CONTINUOUS
10
3.89478
20
-0.288372
11
3.84314
21
-0.266242
0
LINE
8
BLACK
6
CONTINUOUS
10
3.84314
20
-0.266242
11
3.84314
21
-0.297143
0
LINE
8
BLACK
6
CONTINUOUS
10
3.84314
20
-0.297143
11
3.84234
21
-0.300143
0
LINE
8
BLACK
6
CONTINUOUS
10
3.84234
20
-0.300143
11
3.84014
21
-0.302339
0
LINE
8
BLACK
6
CONTINUOUS
10
3.84014
20
-0.302339
11
3.83714
21
-0.303143
0
LINE
8
BLACK
6
CONTINUOUS
10
3.83714
20
-0.303143
11
3.83414
21
-0.302339
0
LINE
8
BLACK
6
CONTINUOUS
10
3.83414
20
-0.302339
11
3.83195
21
-0.300143
0
LINE
8
BLACK
6
CONTINUOUS
10
3.83195
20
-0.300143
11
3.83114
21
-0.297143
0
LINE
8
BLACK
6
CONTINUOUS
10
3.83114
20
-0.297143
11
3.83114
21
-0.257143
0
LINE
8
BLACK
6
CONTINUOUS
10
3.83114
20
-0.257143
11
3.83146
21
-0.255976
0
LINE
8
BLACK
6
CONTINUOUS
10
3.83146
20
-0.255976
11
3.83163
21
-0.254779
0
LINE
8
BLACK
6
CONTINUOUS
10
3.83163
20
-0.254779
11
3.83185
21
-0.254494
0
LINE
8
BLACK
6
CONTINUOUS
10
3.83185
20
-0.254494
11
3.83195
21
-0.254143
0
LINE
8
BLACK
6
CONTINUOUS
10
3.83195
20
-0.254143
11
3.8328
21
-0.253288
0
LINE
8
BLACK
6
CONTINUOUS
10
3.8328
20
-0.253288
11
3.83355
21
-0.252339
0
LINE
8
BLACK
6
CONTINUOUS
10
3.83355
20
-0.252339
11
3.83389
21
-0.252204
0
LINE
8
BLACK
6
CONTINUOUS
10
3.83389
20
-0.252204
11
3.83414
21
-0.251947
0
LINE
8
BLACK
6
CONTINUOUS
10
3.83414
20
-0.251947
11
3.83531
21
-0.251634
0
LINE
8
BLACK
6
CONTINUOUS
10
3.83531
20
-0.251634
11
3.83643
21
-0.251185
0
LINE
8
BLACK
6
CONTINUOUS
10
3.83643
20
-0.251185
11
3.83679
21
-0.251237
0
LINE
8
BLACK
6
CONTINUOUS
10
3.83679
20
-0.251237
11
3.83714
21
-0.251143
0
LINE
8
BLACK
6
CONTINUOUS
10
3.83714
20
-0.251143
11
3.83831
21
-0.251456
0
LINE
8
BLACK
6
CONTINUOUS
10
4.47586
20
-0.0380401
11
4.4761
21
-0.0379976
0
LINE
8
BLACK
6
CONTINUOUS
10
4.4761
20
-0.0379976
11
4.47632
21
-0.0381199
0
LINE
8
BLACK
6
CONTINUOUS
10
4.47632
20
-0.0381199
11
4.4766
21
-0.0381702
0
LINE
8
BLACK
6
CONTINUOUS
10
4.4766
20
-0.0381702
11
4.47704
21
-0.0385371
0
LINE
8
BLACK
6
CONTINUOUS
10
4.47704
20
-0.0385371
11
4.47785
21
-0.0390075
0
LINE
8
BLACK
6
CONTINUOUS
10
4.47785
20
-0.0390075
11
4.47796
21
-0.0393145
0
LINE
8
BLACK
6
CONTINUOUS
10
4.47796
20
-0.0393145
11
4.47815
21
-0.0394685
0
LINE
8
BLACK
6
CONTINUOUS
10
4.47815
20
-0.0394685
11
4.47827
21
-0.0401477
0
LINE
8
BLACK
6
CONTINUOUS
10
4.47827
20
-0.0401477
11
4.47854
21
-0.0409055
0
LINE
8
BLACK
6
CONTINUOUS
10
4.47854
20
-0.0409055
11
4.47854
21
-0.159094
0
LINE
8
BLACK
6
CONTINUOUS
10
4.47854
20
-0.159094
11
4.47848
21
-0.159458
0
LINE
8
BLACK
6
CONTINUOUS
10
4.47848
20
-0.159458
11
4.4785
21
-0.159568
0
LINE
8
BLACK
6
CONTINUOUS
10
4.4785
20
-0.159568
11
4.47844
21
-0.159664
0
LINE
8
BLACK
6
CONTINUOUS
10
4.47844
20
-0.159664
11
4.47837
21
-0.160104
0
LINE
8
BLACK
6
CONTINUOUS
10
4.47837
20
-0.160104
11
4.4778
21
-0.160779
0
LINE
8
BLACK
6
CONTINUOUS
10
4.4778
20
-0.160779
11
4.47749
21
-0.161317
0
LINE
8
BLACK
6
CONTINUOUS
10
4.47749
20
-0.161317
11
4.47729
21
-0.161391
0
LINE
8
BLACK
6
CONTINUOUS
10
4.47729
20
-0.161391
11
4.47707
21
-0.161652
0
LINE
8
BLACK
6
CONTINUOUS
10
4.47707
20
-0.161652
11
4.4761
21
-0.161822
0
LINE
8
BLACK
6
CONTINUOUS
10
4.4761
20
-0.161822
11
4.47559
21
-0.162008
0
LINE
8
BLACK
6
CONTINUOUS
10
4.47559
20
-0.162008
11
4.37717
21
-0.162008
0
LINE
8
BLACK
6
CONTINUOUS
10
4.37717
20
-0.162008
11
4.3769
21
-0.16196
0
LINE
8
BLACK
6
CONTINUOUS
10
4.3769
20
-0.16196
11
4.37666
21
-0.162002
0
LINE
8
BLACK
6
CONTINUOUS
10
4.37666
20
-0.162002
11
4.37644
21
-0.16188
0
LINE
8
BLACK
6
CONTINUOUS
10
4.37644
20
-0.16188
11
4.37616
21
-0.16183
0
LINE
8
BLACK
6
CONTINUOUS
10
4.37616
20
-0.16183
11
4.37572
21
-0.161463
0
LINE
8
BLACK
6
CONTINUOUS
10
4.37572
20
-0.161463
11
4.37491
21
-0.160992
0
LINE
8
BLACK
6
CONTINUOUS
10
4.37491
20
-0.160992
11
4.3748
21
-0.160685
0
LINE
8
BLACK
6
CONTINUOUS
10
4.3748
20
-0.160685
11
4.37461
21
-0.160531
0
LINE
8
BLACK
6
CONTINUOUS
10
4.37461
20
-0.160531
11
4.37449
21
-0.159852
0
LINE
8
BLACK
6
CONTINUOUS
10
4.37449
20
-0.159852
11
4.37422
21
-0.159094
0
LINE
8
BLACK
6
CONTINUOUS
10
4.37422
20
-0.159094
11
4.37422
21
-0.0409055
0
LINE
8
BLACK
6
CONTINUOUS
10
4.37422
20
-0.0409055
11
4.37428
21
-0.0405417
0
LINE
8
BLACK
6
CONTINUOUS
10
4.37428
20
-0.0405417
11
4.37426
21
-0.0404321
0
LINE
8
BLACK
6
CONTINUOUS
10
4.37426
20
-0.0404321
11
4.37432
21
-0.0403358
0
LINE
8
BLACK
6
CONTINUOUS
10
4.37432
20
-0.0403358
11
4.37439
21
-0.0398956
0
LINE
8
BLACK
6
CONTINUOUS
10
4.37439
20
-0.0398956
11
4.37496
21
-0.0392211
0
LINE
8
BLACK
6
CONTINUOUS
10
4.37496
20
-0.0392211
11
4.37527
21
-0.038683
0
LINE
8
BLACK
6
CONTINUOUS
10
4.37527
20
-0.038683
11
4.37547
21
-0.0386091
0
LINE
8
BLACK
6
CONTINUOUS
10
4.37547
20
-0.0386091
11
4.37569
21
-0.0383483
0
LINE
8
BLACK
6
CONTINUOUS
10
4.37569
20
-0.0383483
11
4.37666
21
-0.0381781
0
LINE
8
BLACK
6
CONTINUOUS
10
4.37666
20
-0.0381781
11
4.37717
21
-0.0379921
0
LINE
8
BLACK
6
CONTINUOUS
10
4.37717
20
-0.0379921
11
4.47559
21
-0.0379921
0
LINE
8
BLACK
6
CONTINUOUS
10
4.47559
20
-0.0379921
11
4.47586
21
-0.0380401
0
LINE
8
BLACK
6
CONTINUOUS
10
4.38012
20
-0.0438976
11
4.38012
21
-0.156102
0
LINE
8
BLACK
6
CONTINUOUS
10
4.38012
20
-0.156102
11
4.47264
21
-0.156102
0
LINE
8
BLACK
6
CONTINUOUS
10
4.47264
20
-0.156102
11
4.47264
21
-0.0438976
0
LINE
8
BLACK
6
CONTINUOUS
10
4.47264
20
-0.0438976
11
4.38012
21
-0.0438976
0
LINE
8
BLACK
6
CONTINUOUS
10
3.88093
20
-0.11425
11
3.8819
21
-0.114308
0
LINE
8
BLACK
6
CONTINUOUS
10
3.8819
20
-0.114308
11
3.89047
21
-0.117165
0
LINE
8
BLACK
6
CONTINUOUS
10
3.89047
20
-0.117165
11
3.89162
21
-0.117925
0
LINE
8
BLACK
6
CONTINUOUS
10
3.89162
20
-0.117925
11
3.89281
21
-0.118614
0
LINE
8
BLACK
6
CONTINUOUS
10
3.89281
20
-0.118614
11
3.89853
21
-0.124329
0
LINE
8
BLACK
6
CONTINUOUS
10
3.89853
20
-0.124329
11
3.89922
21
-0.125523
0
LINE
8
BLACK
6
CONTINUOUS
10
3.89922
20
-0.125523
11
3.89998
21
-0.126674
0
LINE
8
BLACK
6
CONTINUOUS
10
3.89998
20
-0.126674
11
3.90283
21
-0.135245
0
LINE
8
BLACK
6
CONTINUOUS
10
3.90283
20
-0.135245
11
3.90289
21
-0.13621
0
LINE
8
BLACK
6
CONTINUOUS
10
3.90289
20
-0.13621
11
3.90314
21
-0.137143
0
LINE
8
BLACK
6
CONTINUOUS
10
3.90314
20
-0.137143
11
3.90314
21
-0.142857
0
LINE
8
BLACK
6
CONTINUOUS
10
3.90314
20
-0.142857
11
3.90234
21
-0.145857
0
LINE
8
BLACK
6
CONTINUOUS
10
3.90234
20
-0.145857
11
3.90014
21
-0.148053
0
LINE
8
BLACK
6
CONTINUOUS
10
3.90014
20
-0.148053
11
3.89714
21
-0.148857
0
LINE
8
BLACK
6
CONTINUOUS
10
3.89714
20
-0.148857
11
3.89414
21
-0.148053
0
LINE
8
BLACK
6
CONTINUOUS
10
3.89414
20
-0.148053
11
3.89195
21
-0.145857
0
LINE
8
BLACK
6
CONTINUOUS
10
3.89195
20
-0.145857
11
3.89114
21
-0.142857
0
LINE
8
BLACK
6
CONTINUOUS
10
3.89114
20
-0.142857
11
3.89114
21
-0.138116
0
LINE
8
BLACK
6
CONTINUOUS
10
3.89114
20
-0.138116
11
3.88904
21
-0.131813
0
LINE
8
BLACK
6
CONTINUOUS
10
3.88904
20
-0.131813
11
3.88533
21
-0.128101
0
LINE
8
BLACK
6
CONTINUOUS
10
3.88533
20
-0.128101
11
3.87903
21
-0.126
0
LINE
8
BLACK
6
CONTINUOUS
10
3.87903
20
-0.126
11
3.83714
21
-0.126
0
LINE
8
BLACK
6
CONTINUOUS
10
3.83714
20
-0.126
11
3.83414
21
-0.125196
0
LINE
8
BLACK
6
CONTINUOUS
10
3.83414
20
-0.125196
11
3.83195
21
-0.123
0
LINE
8
BLACK
6
CONTINUOUS
10
3.83195
20
-0.123
11
3.83114
21
-0.12
0
LINE
8
BLACK
6
CONTINUOUS
10
3.83114
20
-0.12
11
3.83195
21
-0.117
0
LINE
8
BLACK
6
CONTINUOUS
10
3.83195
20
-0.117
11
3.83414
21
-0.114804
0
LINE
8
BLACK
6
CONTINUOUS
10
3.83414
20
-0.114804
11
3.83714
21
-0.114
0
LINE
8
BLACK
6
CONTINUOUS
10
3.83714
20
-0.114
11
3.88
21
-0.114
0
LINE
8
BLACK
6
CONTINUOUS
10
3.88
20
-0.114
11
3.88093
21
-0.11425
0
LINE
8
BLACK
6
CONTINUOUS
10
1.30038
20
0.752885
11
1.30051
21
0.752908
0
LINE
8
BLACK
6
CONTINUOUS
10
1.30051
20
0.752908
11
1.30063
21
0.752842
0
LINE
8
BLACK
6
CONTINUOUS
10
1.30063
20
0.752842
11
1.30101
21
0.752775
0
LINE
8
BLACK
6
CONTINUOUS
10
1.30101
20
0.752775
11
1.3016
21
0.752282
0
LINE
8
BLACK
6
CONTINUOUS
10
1.3016
20
0.752282
11
1.30226
21
0.751898
0
LINE
8
BLACK
6
CONTINUOUS
10
1.30226
20
0.751898
11
1.30235
21
0.751648
0
LINE
8
BLACK
6
CONTINUOUS
10
1.30235
20
0.751648
11
1.30256
21
0.751476
0
LINE
8
BLACK
6
CONTINUOUS
10
1.30256
20
0.751476
11
1.30269
21
0.750721
0
LINE
8
BLACK
6
CONTINUOUS
10
1.30269
20
0.750721
11
1.30295
21
0.75
0
LINE
8
BLACK
6
CONTINUOUS
10
1.30295
20
0.75
11
1.30295
21
0.45
0
LINE
8
BLACK
6
CONTINUOUS
10
1.30295
20
0.45
11
1.30289
21
0.449616
0
LINE
8
BLACK
6
CONTINUOUS
10
1.30289
20
0.449616
11
1.30291
21
0.449487
0
LINE
8
BLACK
6
CONTINUOUS
10
1.30291
20
0.449487
11
1.30284
21
0.449374
0
LINE
8
BLACK
6
CONTINUOUS
10
1.30284
20
0.449374
11
1.30277
21
0.44899
0
LINE
8
BLACK
6
CONTINUOUS
10
1.30277
20
0.44899
11
1.30228
21
0.448402
0
LINE
8
BLACK
6
CONTINUOUS
10
1.30228
20
0.448402
11
1.3019
21
0.447738
0
LINE
8
BLACK
6
CONTINUOUS
10
1.3019
20
0.447738
11
1.30165
21
0.447647
0
LINE
8
BLACK
6
CONTINUOUS
10
1.30165
20
0.447647
11
1.30148
21
0.447443
0
LINE
8
BLACK
6
CONTINUOUS
10
1.30148
20
0.447443
11
1.30072
21
0.44731
0
LINE
8
BLACK
6
CONTINUOUS
10
1.30072
20
0.44731
11
1.3
21
0.447047
0
LINE
8
BLACK
6
CONTINUOUS
10
1.3
20
0.447047
11
1.1
21
0.447047
0
LINE
8
BLACK
6
CONTINUOUS
10
1.1
20
0.447047
11
1.09962
21
0.447115
0
LINE
8
BLACK
6
CONTINUOUS
10
1.09962
20
0.447115
11
1.09949
21
0.447092
0
LINE
8
BLACK
6
CONTINUOUS
10
1.09949
20
0.447092
11
1.09937
21
0.447158
0
LINE
8
BLACK
6
CONTINUOUS
10
1.09937
20
0.447158
11
1.09899
21
0.447225
0
LINE
8
BLACK
6
CONTINUOUS
10
1.09899
20
0.447225
11
1.0984
21
0.447718
0
LINE
8
BLACK
6
CONTINUOUS
10
1.0984
20
0.447718
11
1.09774
21
0.448102
0
LINE
8
BLACK
6
CONTINUOUS
10
1.09774
20
0.448102
11
1.09765
21
0.448352
0
LINE
8
BLACK
6
CONTINUOUS
10
1.09765
20
0.448352
11
1.09744
21
0.448524
0
LINE
8
BLACK
6
CONTINUOUS
10
1.09744
20
0.448524
11
1.09731
21
0.449279
0
LINE
8
BLACK
6
CONTINUOUS
10
1.09731
20
0.449279
11
1.09705
21
0.45
0
LINE
8
BLACK
6
CONTINUOUS
10
1.09705
20
0.45
11
1.09705
21
0.75
0
LINE
8
BLACK
6
CONTINUOUS
10
1.09705
20
0.75
11
1.09711
21
0.750384
0
LINE
8
BLACK
6
CONTINUOUS
10
1.09711
20
0.750384
11
1.09709
21
0.750513
0
LINE
8
BLACK
6
CONTINUOUS
10
1.09709
20
0.750513
11
1.09716
21
0.750626
0
LINE
8
BLACK
6
CONTINUOUS
10
1.09716
20
0.750626
11
1.09723
21
0.75101
0
LINE
8
BLACK
6
CONTINUOUS
10
1.09723
20
0.75101
11
1.09772
21
0.751598
0
LINE
8
BLACK
6
CONTINUOUS
10
1.09772
20
0.751598
11
1.0981
21
0.752262
0
LINE
8
BLACK
6
CONTINUOUS
10
1.0981
20
0.752262
11
1.09835
21
0.752353
0
LINE
8
BLACK
6
CONTINUOUS
10
1.09835
20
0.752353
11
1.09852
21
0.752557
0
LINE
8
BLACK
6
CONTINUOUS
10
1.09852
20
0.752557
11
1.09928
21
0.75269
0
LINE
8
BLACK
6
CONTINUOUS
10
1.09928
20
0.75269
11
1.1
21
0.752953
0
LINE
8
BLACK
6
CONTINUOUS
10
1.1
20
0.752953
11
1.3
21
0.752953
0
LINE
8
BLACK
6
CONTINUOUS
10
1.3
20
0.752953
11
1.30038
21
0.752885
0
LINE
8
BLACK
6
CONTINUOUS
10
1.10295
20
0.747047
11
1.10295
21
0.452953
0
LINE
8
BLACK
6
CONTINUOUS
10
1.10295
20
0.452953
11
1.29705
21
0.452953
0
LINE
8
BLACK
6
CONTINUOUS
10
1.29705
20
0.452953
11
1.29705
21
0.747047
0
LINE
8
BLACK
6
CONTINUOUS
10
1.29705
20
0.747047
11
1.10295
21
0.747047
0
LINE
8
BLACK
6
CONTINUOUS
10
4.07845
20
0.588937
11
4.07974
21
0.587382
0
LINE
8
BLACK
6
CONTINUOUS
10
4.07974
20
0.587382
11
4.08633
21
0.568922
0
LINE
8
BLACK
6
CONTINUOUS
10
4.08633
20
0.568922
11
4.09293
21
0.587382
0
LINE
8
BLACK
6
CONTINUOUS
10
4.09293
20
0.587382
11
4.09343
21
0.588274
0
LINE
8
BLACK
6
CONTINUOUS
10
4.09343
20
0.588274
11
4.09518
21
0.589294
0
LINE
8
BLACK
6
CONTINUOUS
10
4.09518
20
0.589294
11
4.09717
21
0.588955
0
LINE
8
BLACK
6
CONTINUOUS
10
4.09717
20
0.588955
11
4.09848
21
0.587416
0
LINE
8
BLACK
6
CONTINUOUS
10
4.09848
20
0.587416
11
4.09849
21
0.585396
0
LINE
8
BLACK
6
CONTINUOUS
10
4.09849
20
0.585396
11
4.08911
21
0.559149
0
LINE
8
BLACK
6
CONTINUOUS
10
4.08911
20
0.559149
11
4.08908
21
0.559083
0
LINE
8
BLACK
6
CONTINUOUS
10
4.08908
20
0.559083
11
4.08907
21
0.559046
0
LINE
8
BLACK
6
CONTINUOUS
10
4.08907
20
0.559046
11
4.08533
21
0.549672
0
LINE
8
BLACK
6
CONTINUOUS
10
4.08533
20
0.549672
11
4.08478
21
0.5488
0
LINE
8
BLACK
6
CONTINUOUS
10
4.08478
20
0.5488
11
4.08471
21
0.548759
0
LINE
8
BLACK
6
CONTINUOUS
10
4.08471
20
0.548759
11
4.08467
21
0.548681
0
LINE
8
BLACK
6
CONTINUOUS
10
4.08467
20
0.548681
11
4.0828
21
0.546806
0
LINE
8
BLACK
6
CONTINUOUS
10
4.0828
20
0.546806
11
4.08207
21
0.5463
0
LINE
8
BLACK
6
CONTINUOUS
10
4.08207
20
0.5463
11
4.08203
21
0.546253
0
LINE
8
BLACK
6
CONTINUOUS
10
4.08203
20
0.546253
11
4.07828
21
0.544378
0
LINE
8
BLACK
6
CONTINUOUS
10
4.07828
20
0.544378
11
4.0773
21
0.544086
0
LINE
8
BLACK
6
CONTINUOUS
10
4.0773
20
0.544086
11
4.07533
21
0.544555
0
LINE
8
BLACK
6
CONTINUOUS
10
4.07533
20
0.544555
11
4.07413
21
0.546177
0
LINE
8
BLACK
6
CONTINUOUS
10
4.07413
20
0.546177
11
4.07425
21
0.548193
0
LINE
8
BLACK
6
CONTINUOUS
10
4.07425
20
0.548193
11
4.07564
21
0.54966
0
LINE
8
BLACK
6
CONTINUOUS
10
4.07564
20
0.54966
11
4.07896
21
0.551321
0
LINE
8
BLACK
6
CONTINUOUS
10
4.07896
20
0.551321
11
4.08007
21
0.552428
0
LINE
8
BLACK
6
CONTINUOUS
10
4.08007
20
0.552428
11
4.08318
21
0.560202
0
LINE
8
BLACK
6
CONTINUOUS
10
4.08318
20
0.560202
11
4.07418
21
0.585396
0
LINE
8
BLACK
6
CONTINUOUS
10
4.07418
20
0.585396
11
4.07401
21
0.586407
0
LINE
8
BLACK
6
CONTINUOUS
10
4.07401
20
0.586407
11
4.07471
21
0.588301
0
LINE
8
BLACK
6
CONTINUOUS
10
4.07471
20
0.588301
11
4.07646
21
0.5893
0
LINE
8
BLACK
6
CONTINUOUS
10
4.07646
20
0.5893
11
4.07845
21
0.588937
0
LINE
8
BLACK
6
CONTINUOUS
10
4.21295
20
0.589164
11
4.21309
21
0.58905
0
LINE
8
BLACK
6
CONTINUOUS
10
4.21309
20
0.58905
11
4.21326
21
0.58903
0
LINE
8
BLACK
6
CONTINUOUS
10
4.21326
20
0.58903
11
4.21701
21
0.587155
0
LINE
8
BLACK
6
CONTINUOUS
10
4.21701
20
0.587155
11
4.21784
21
0.586545
0
LINE
8
BLACK
6
CONTINUOUS
10
4.21784
20
0.586545
11
4.21801
21
0.586139
0
LINE
8
BLACK
6
CONTINUOUS
10
4.21801
20
0.586139
11
4.21833
21
0.585835
0
LINE
8
BLACK
6
CONTINUOUS
10
4.21833
20
0.585835
11
4.22021
21
0.582085
0
LINE
8
BLACK
6
CONTINUOUS
10
4.22021
20
0.582085
11
4.2205
21
0.581103
0
LINE
8
BLACK
6
CONTINUOUS
10
4.2205
20
0.581103
11
4.22046
21
0.580931
0
LINE
8
BLACK
6
CONTINUOUS
10
4.22046
20
0.580931
11
4.22052
21
0.580765
0
LINE
8
BLACK
6
CONTINUOUS
10
4.22052
20
0.580765
11
4.22052
21
0.577015
0
LINE
8
BLACK
6
CONTINUOUS
10
4.22052
20
0.577015
11
4.22034
21
0.576005
0
LINE
8
BLACK
6
CONTINUOUS
10
4.22034
20
0.576005
11
4.22003
21
0.575632
0
LINE
8
BLACK
6
CONTINUOUS
10
4.22003
20
0.575632
11
4.21987
21
0.57517
0
LINE
8
BLACK
6
CONTINUOUS
10
4.21987
20
0.57517
11
4.2194
21
0.574882
0
LINE
8
BLACK
6
CONTINUOUS
10
4.2194
20
0.574882
11
4.21904
21
0.574458
0
LINE
8
BLACK
6
CONTINUOUS
10
4.21904
20
0.574458
11
4.21856
21
0.574374
0
LINE
8
BLACK
6
CONTINUOUS
10
4.21856
20
0.574374
11
4.21815
21
0.57412
0
LINE
8
BLACK
6
CONTINUOUS
10
4.21815
20
0.57412
11
4.20177
21
0.570845
0
LINE
8
BLACK
6
CONTINUOUS
10
4.20177
20
0.570845
11
4.20177
21
0.566464
0
LINE
8
BLACK
6
CONTINUOUS
10
4.20177
20
0.566464
11
4.20289
21
0.564218
0
LINE
8
BLACK
6
CONTINUOUS
10
4.20289
20
0.564218
11
4.20514
21
0.563095
0
LINE
8
BLACK
6
CONTINUOUS
10
4.20514
20
0.563095
11
4.21125
21
0.563095
0
LINE
8
BLACK
6
CONTINUOUS
10
4.21125
20
0.563095
11
4.21437
21
0.564658
0
LINE
8
BLACK
6
CONTINUOUS
10
4.21437
20
0.564658
11
4.21535
21
0.564951
0
LINE
8
BLACK
6
CONTINUOUS
10
4.21535
20
0.564951
11
4.21732
21
0.564481
0
LINE
8
BLACK
6
CONTINUOUS
10
4.21732
20
0.564481
11
4.21852
21
0.562859
0
LINE
8
BLACK
6
CONTINUOUS
10
4.21852
20
0.562859
11
4.2184
21
0.560843
0
LINE
8
BLACK
6
CONTINUOUS
10
4.2184
20
0.560843
11
4.21701
21
0.559376
0
LINE
8
BLACK
6
CONTINUOUS
10
4.21701
20
0.559376
11
4.21326
21
0.557501
0
LINE
8
BLACK
6
CONTINUOUS
10
4.21326
20
0.557501
11
4.21228
21
0.557209
0
LINE
8
BLACK
6
CONTINUOUS
10
4.21228
20
0.557209
11
4.21211
21
0.55725
0
LINE
8
BLACK
6
CONTINUOUS
10
4.21211
20
0.55725
11
4.21194
21
0.55719
0
LINE
8
BLACK
6
CONTINUOUS
10
4.21194
20
0.55719
11
4.20444
21
0.55719
0
LINE
8
BLACK
6
CONTINUOUS
10
4.20444
20
0.55719
11
4.20343
21
0.557368
0
LINE
8
BLACK
6
CONTINUOUS
10
4.20343
20
0.557368
11
4.2033
21
0.557481
0
LINE
8
BLACK
6
CONTINUOUS
10
4.2033
20
0.557481
11
4.20312
21
0.557501
0
LINE
8
BLACK
6
CONTINUOUS
10
4.20312
20
0.557501
11
4.19937
21
0.559376
0
LINE
8
BLACK
6
CONTINUOUS
10
4.19937
20
0.559376
11
4.19855
21
0.559987
0
LINE
8
BLACK
6
CONTINUOUS
10
4.19855
20
0.559987
11
4.19837
21
0.560393
0
LINE
8
BLACK
6
CONTINUOUS
10
4.19837
20
0.560393
11
4.19805
21
0.560697
0
LINE
8
BLACK
6
CONTINUOUS
10
4.19805
20
0.560697
11
4.19618
21
0.564446
0
LINE
8
BLACK
6
CONTINUOUS
10
4.19618
20
0.564446
11
4.19589
21
0.565429
0
LINE
8
BLACK
6
CONTINUOUS
10
4.19589
20
0.565429
11
4.19593
21
0.565601
0
LINE
8
BLACK
6
CONTINUOUS
10
4.19593
20
0.565601
11
4.19587
21
0.565767
0
LINE
8
BLACK
6
CONTINUOUS
10
4.19587
20
0.565767
11
4.19587
21
0.580765
0
LINE
8
BLACK
6
CONTINUOUS
10
4.19587
20
0.580765
11
4.19604
21
0.581775
0
LINE
8
BLACK
6
CONTINUOUS
10
4.19604
20
0.581775
11
4.19616
21
0.58191
0
LINE
8
BLACK
6
CONTINUOUS
10
4.19616
20
0.58191
11
4.19618
21
0.582085
0
LINE
8
BLACK
6
CONTINUOUS
10
4.19618
20
0.582085
11
4.19805
21
0.585835
0
LINE
8
BLACK
6
CONTINUOUS
10
4.19805
20
0.585835
11
4.19866
21
0.586659
0
LINE
8
BLACK
6
CONTINUOUS
10
4.19866
20
0.586659
11
4.19907
21
0.586834
0
LINE
8
BLACK
6
CONTINUOUS
10
4.19907
20
0.586834
11
4.19937
21
0.587155
0
LINE
8
BLACK
6
CONTINUOUS
10
4.19937
20
0.587155
11
4.20312
21
0.58903
0
LINE
8
BLACK
6
CONTINUOUS
10
4.20312
20
0.58903
11
4.20411
21
0.589323
0
LINE
8
BLACK
6
CONTINUOUS
10
4.20411
20
0.589323
11
4.20428
21
0.589282
0
LINE
8
BLACK
6
CONTINUOUS
10
4.20428
20
0.589282
11
4.20444
21
0.589342
0
LINE
8
BLACK
6
CONTINUOUS
10
4.20444
20
0.589342
11
4.21194
21
0.589342
0
LINE
8
BLACK
6
CONTINUOUS
10
4.21194
20
0.589342
11
4.21295
21
0.589164
0
LINE
8
BLACK
6
CONTINUOUS
10
4.20514
20
0.583436
11
4.20289
21
0.582314
0
LINE
8
BLACK
6
CONTINUOUS
10
4.20289
20
0.582314
11
4.20177
21
0.580068
0
LINE
8
BLACK
6
CONTINUOUS
10
4.20177
20
0.580068
11
4.20177
21
0.576868
0
LINE
8
BLACK
6
CONTINUOUS
10
4.20177
20
0.576868
11
4.21461
21
0.579436
0
LINE
8
BLACK
6
CONTINUOUS
10
4.21461
20
0.579436
11
4.21461
21
0.580068
0
LINE
8
BLACK
6
CONTINUOUS
10
4.21461
20
0.580068
11
4.21349
21
0.582314
0
LINE
8
BLACK
6
CONTINUOUS
10
4.21349
20
0.582314
11
4.21125
21
0.583436
0
LINE
8
BLACK
6
CONTINUOUS
10
4.21125
20
0.583436
11
4.20514
21
0.583436
0
LINE
8
BLACK
6
CONTINUOUS
10
4.03672
20
0.589164
11
4.03686
21
0.58905
0
LINE
8
BLACK
6
CONTINUOUS
10
4.03686
20
0.58905
11
4.03703
21
0.58903
0
LINE
8
BLACK
6
CONTINUOUS
10
4.03703
20
0.58903
11
4.04078
21
0.587155
0
LINE
8
BLACK
6
CONTINUOUS
10
4.04078
20
0.587155
11
4.04149
21
0.58663
0
LINE
8
BLACK
6
CONTINUOUS
10
4.04149
20
0.58663
11
4.04155
21
0.586602
0
LINE
8
BLACK
6
CONTINUOUS
10
4.04155
20
0.586602
11
4.04343
21
0.584728
0
LINE
8
BLACK
6
CONTINUOUS
10
4.04343
20
0.584728
11
4.04393
21
0.584004
0
LINE
8
BLACK
6
CONTINUOUS
10
4.04393
20
0.584004
11
4.04398
21
0.58396
0
LINE
8
BLACK
6
CONTINUOUS
10
4.04398
20
0.58396
11
4.04585
21
0.580211
0
LINE
8
BLACK
6
CONTINUOUS
10
4.04585
20
0.580211
11
4.04615
21
0.579228
0
LINE
8
BLACK
6
CONTINUOUS
10
4.04615
20
0.579228
11
4.04611
21
0.579056
0
LINE
8
BLACK
6
CONTINUOUS
10
4.04611
20
0.579056
11
4.04617
21
0.57889
0
LINE
8
BLACK
6
CONTINUOUS
10
4.04617
20
0.57889
11
4.04617
21
0.567642
0
LINE
8
BLACK
6
CONTINUOUS
10
4.04617
20
0.567642
11
4.04599
21
0.566632
0
LINE
8
BLACK
6
CONTINUOUS
10
4.04599
20
0.566632
11
4.04587
21
0.566496
0
LINE
8
BLACK
6
CONTINUOUS
10
4.04587
20
0.566496
11
4.04585
21
0.566321
0
LINE
8
BLACK
6
CONTINUOUS
10
4.04585
20
0.566321
11
4.04398
21
0.562572
0
LINE
8
BLACK
6
CONTINUOUS
10
4.04398
20
0.562572
11
4.04345
21
0.561862
0
LINE
8
BLACK
6
CONTINUOUS
10
4.04345
20
0.561862
11
4.04343
21
0.561804
0
LINE
8
BLACK
6
CONTINUOUS
10
4.04343
20
0.561804
11
4.04155
21
0.559929
0
LINE
8
BLACK
6
CONTINUOUS
10
4.04155
20
0.559929
11
4.04083
21
0.559423
0
LINE
8
BLACK
6
CONTINUOUS
10
4.04083
20
0.559423
11
4.04078
21
0.559376
0
LINE
8
BLACK
6
CONTINUOUS
10
4.04078
20
0.559376
11
4.03703
21
0.557501
0
LINE
8
BLACK
6
CONTINUOUS
10
4.03703
20
0.557501
11
4.03605
21
0.557209
0
LINE
8
BLACK
6
CONTINUOUS
10
4.03605
20
0.557209
11
4.03588
21
0.55725
0
LINE
8
BLACK
6
CONTINUOUS
10
4.03588
20
0.55725
11
4.03571
21
0.55719
0
LINE
8
BLACK
6
CONTINUOUS
10
4.03571
20
0.55719
11
4.03009
21
0.55719
0
LINE
8
BLACK
6
CONTINUOUS
10
4.03009
20
0.55719
11
4.02908
21
0.557368
0
LINE
8
BLACK
6
CONTINUOUS
10
4.02908
20
0.557368
11
4.02894
21
0.557481
0
LINE
8
BLACK
6
CONTINUOUS
10
4.02894
20
0.557481
11
4.02877
21
0.557501
0
LINE
8
BLACK
6
CONTINUOUS
10
4.02877
20
0.557501
11
4.02502
21
0.559376
0
LINE
8
BLACK
6
CONTINUOUS
10
4.02502
20
0.559376
11
4.02431
21
0.559902
0
LINE
8
BLACK
6
CONTINUOUS
10
4.02431
20
0.559902
11
4.02425
21
0.559929
0
LINE
8
BLACK
6
CONTINUOUS
10
4.02425
20
0.559929
11
4.02238
21
0.561804
0
LINE
8
BLACK
6
CONTINUOUS
10
4.02238
20
0.561804
11
4.02187
21
0.562527
0
LINE
8
BLACK
6
CONTINUOUS
10
4.02187
20
0.562527
11
4.02182
21
0.562572
0
LINE
8
BLACK
6
CONTINUOUS
10
4.02182
20
0.562572
11
4.01995
21
0.566321
0
LINE
8
BLACK
6
CONTINUOUS
10
4.01995
20
0.566321
11
4.01966
21
0.567304
0
LINE
8
BLACK
6
CONTINUOUS
10
4.01966
20
0.567304
11
4.0197
21
0.567476
0
LINE
8
BLACK
6
CONTINUOUS
10
4.0197
20
0.567476
11
4.01964
21
0.567642
0
LINE
8
BLACK
6
CONTINUOUS
10
4.01964
20
0.567642
11
4.01964
21
0.57889
0
LINE
8
BLACK
6
CONTINUOUS
10
4.01964
20
0.57889
11
4.01982
21
0.5799
0
LINE
8
BLACK
6
CONTINUOUS
10
4.01982
20
0.5799
11
4.01993
21
0.580035
0
LINE
8
BLACK
6
CONTINUOUS
10
4.01993
20
0.580035
11
4.01995
21
0.580211
0
LINE
8
BLACK
6
CONTINUOUS
10
4.01995
20
0.580211
11
4.02182
21
0.58396
0
LINE
8
BLACK
6
CONTINUOUS
10
4.02182
20
0.58396
11
4.02235
21
0.584669
0
LINE
8
BLACK
6
CONTINUOUS
10
4.02235
20
0.584669
11
4.02238
21
0.584728
0
LINE
8
BLACK
6
CONTINUOUS
10
4.02238
20
0.584728
11
4.02425
21
0.586602
0
LINE
8
BLACK
6
CONTINUOUS
10
4.02425
20
0.586602
11
4.02498
21
0.587109
0
LINE
8
BLACK
6
CONTINUOUS
10
4.02498
20
0.587109
11
4.02502
21
0.587155
0
LINE
8
BLACK
6
CONTINUOUS
10
4.02502
20
0.587155
11
4.02877
21
0.58903
0
LINE
8
BLACK
6
CONTINUOUS
10
4.02877
20
0.58903
11
4.02975
21
0.589323
0
LINE
8
BLACK
6
CONTINUOUS
10
4.02975
20
0.589323
11
4.02992
21
0.589282
0
LINE
8
BLACK
6
CONTINUOUS
10
4.02992
20
0.589282
11
4.03009
21
0.589342
0
LINE
8
BLACK
6
CONTINUOUS
10
4.03009
20
0.589342
11
4.03571
21
0.589342
0
LINE
8
BLACK
6
CONTINUOUS
10
4.03571
20
0.589342
11
4.03672
21
0.589164
0
LINE
8
BLACK
6
CONTINUOUS
10
4.03079
20
0.583436
11
4.02809
21
0.582088
0
LINE
8
BLACK
6
CONTINUOUS
10
4.02809
20
0.582088
11
4.02689
21
0.580891
0
LINE
8
BLACK
6
CONTINUOUS
10
4.02689
20
0.580891
11
4.02554
21
0.578193
0
LINE
8
BLACK
6
CONTINUOUS
10
4.02554
20
0.578193
11
4.02554
21
0.568339
0
LINE
8
BLACK
6
CONTINUOUS
10
4.02554
20
0.568339
11
4.02689
21
0.565641
0
LINE
8
BLACK
6
CONTINUOUS
10
4.02689
20
0.565641
11
4.02809
21
0.564444
0
LINE
8
BLACK
6
CONTINUOUS
10
4.02809
20
0.564444
11
4.03079
21
0.563095
0
LINE
8
BLACK
6
CONTINUOUS
10
4.03079
20
0.563095
11
4.03502
21
0.563095
0
LINE
8
BLACK
6
CONTINUOUS
10
4.03502
20
0.563095
11
4.03771
21
0.564444
0
LINE
8
BLACK
6
CONTINUOUS
10
4.03771
20
0.564444
11
4.03891
21
0.565641
0
LINE
8
BLACK
6
CONTINUOUS
10
4.03891
20
0.565641
11
4.04026
21
0.568339
0
LINE
8
BLACK
6
CONTINUOUS
10
4.04026
20
0.568339
11
4.04026
21
0.578193
0
LINE
8
BLACK
6
CONTINUOUS
10
4.04026
20
0.578193
11
4.03891
21
0.580891
0
LINE
8
BLACK
6
CONTINUOUS
10
4.03891
20
0.580891
11
4.03771
21
0.582088
0
LINE
8
BLACK
6
CONTINUOUS
10
4.03771
20
0.582088
11
4.03502
21
0.583436
0
LINE
8
BLACK
6
CONTINUOUS
10
4.03502
20
0.583436
11
4.03079
21
0.583436
0
LINE
8
BLACK
6
CONTINUOUS
10
4.17921
20
0.589164
11
4.17934
21
0.58905
0
LINE
8
BLACK
6
CONTINUOUS
10
4.17934
20
0.58905
11
4.17952
21
0.58903
0
LINE
8
BLACK
6
CONTINUOUS
10
4.17952
20
0.58903
11
4.18327
21
0.587155
0
LINE
8
BLACK
6
CONTINUOUS
10
4.18327
20
0.587155
11
4.18409
21
0.586545
0
LINE
8
BLACK
6
CONTINUOUS
10
4.18409
20
0.586545
11
4.18489
21
0.584691
0
LINE
8
BLACK
6
CONTINUOUS
10
4.18489
20
0.584691
11
4.18432
21
0.582755
0
LINE
8
BLACK
6
CONTINUOUS
10
4.18432
20
0.582755
11
4.18263
21
0.581643
0
LINE
8
BLACK
6
CONTINUOUS
10
4.18263
20
0.581643
11
4.18063
21
0.581873
0
LINE
8
BLACK
6
CONTINUOUS
10
4.18063
20
0.581873
11
4.1775
21
0.583436
0
LINE
8
BLACK
6
CONTINUOUS
10
4.1775
20
0.583436
11
4.17327
21
0.583436
0
LINE
8
BLACK
6
CONTINUOUS
10
4.17327
20
0.583436
11
4.17102
21
0.582314
0
LINE
8
BLACK
6
CONTINUOUS
10
4.17102
20
0.582314
11
4.1699
21
0.580068
0
LINE
8
BLACK
6
CONTINUOUS
10
4.1699
20
0.580068
11
4.1699
21
0.579587
0
LINE
8
BLACK
6
CONTINUOUS
10
4.1699
20
0.579587
11
4.17102
21
0.577341
0
LINE
8
BLACK
6
CONTINUOUS
10
4.17102
20
0.577341
11
4.17327
21
0.576219
0
LINE
8
BLACK
6
CONTINUOUS
10
4.17327
20
0.576219
11
4.1782
21
0.576219
0
LINE
8
BLACK
6
CONTINUOUS
10
4.1782
20
0.576219
11
4.17921
21
0.576041
0
LINE
8
BLACK
6
CONTINUOUS
10
4.17921
20
0.576041
11
4.17934
21
0.575927
0
LINE
8
BLACK
6
CONTINUOUS
10
4.17934
20
0.575927
11
4.17952
21
0.575907
0
LINE
8
BLACK
6
CONTINUOUS
10
4.17952
20
0.575907
11
4.18327
21
0.574032
0
LINE
8
BLACK
6
CONTINUOUS
10
4.18327
20
0.574032
11
4.18409
21
0.573421
0
LINE
8
BLACK
6
CONTINUOUS
10
4.18409
20
0.573421
11
4.18427
21
0.573016
0
LINE
8
BLACK
6
CONTINUOUS
10
4.18427
20
0.573016
11
4.18459
21
0.572712
0
LINE
8
BLACK
6
CONTINUOUS
10
4.18459
20
0.572712
11
4.18646
21
0.568962
0
LINE
8
BLACK
6
CONTINUOUS
10
4.18646
20
0.568962
11
4.18675
21
0.567979
0
LINE
8
BLACK
6
CONTINUOUS
10
4.18675
20
0.567979
11
4.18671
21
0.567807
0
LINE
8
BLACK
6
CONTINUOUS
10
4.18671
20
0.567807
11
4.18677
21
0.567642
0
LINE
8
BLACK
6
CONTINUOUS
10
4.18677
20
0.567642
11
4.18677
21
0.565767
0
LINE
8
BLACK
6
CONTINUOUS
10
4.18677
20
0.565767
11
4.1866
21
0.564757
0
LINE
8
BLACK
6
CONTINUOUS
10
4.1866
20
0.564757
11
4.18648
21
0.564622
0
LINE
8
BLACK
6
CONTINUOUS
10
4.18648
20
0.564622
11
4.18646
21
0.564446
0
LINE
8
BLACK
6
CONTINUOUS
10
4.18646
20
0.564446
11
4.18459
21
0.560697
0
LINE
8
BLACK
6
CONTINUOUS
10
4.18459
20
0.560697
11
4.18398
21
0.559873
0
LINE
8
BLACK
6
CONTINUOUS
10
4.18398
20
0.559873
11
4.18357
21
0.559697
0
LINE
8
BLACK
6
CONTINUOUS
10
4.18357
20
0.559697
11
4.18327
21
0.559376
0
LINE
8
BLACK
6
CONTINUOUS
10
4.18327
20
0.559376
11
4.17952
21
0.557501
0
LINE
8
BLACK
6
CONTINUOUS
10
4.17952
20
0.557501
11
4.17853
21
0.557209
0
LINE
8
BLACK
6
CONTINUOUS
10
4.17853
20
0.557209
11
4.17836
21
0.55725
0
LINE
8
BLACK
6
CONTINUOUS
10
4.17836
20
0.55725
11
4.1782
21
0.55719
0
LINE
8
BLACK
6
CONTINUOUS
10
4.1782
20
0.55719
11
4.1707
21
0.55719
0
LINE
8
BLACK
6
CONTINUOUS
10
4.1707
20
0.55719
11
4.16969
21
0.557368
0
LINE
8
BLACK
6
CONTINUOUS
10
4.16969
20
0.557368
11
4.16955
21
0.557481
0
LINE
8
BLACK
6
CONTINUOUS
10
4.16955
20
0.557481
11
4.16938
21
0.557501
0
LINE
8
BLACK
6
CONTINUOUS
10
4.16938
20
0.557501
11
4.16563
21
0.559376
0
LINE
8
BLACK
6
CONTINUOUS
10
4.16563
20
0.559376
11
4.1648
21
0.559987
0
LINE
8
BLACK
6
CONTINUOUS
10
4.1648
20
0.559987
11
4.164
21
0.56184
0
LINE
8
BLACK
6
CONTINUOUS
10
4.164
20
0.56184
11
4.16458
21
0.563776
0
LINE
8
BLACK
6
CONTINUOUS
10
4.16458
20
0.563776
11
4.16626
21
0.564889
0
LINE
8
BLACK
6
CONTINUOUS
10
4.16626
20
0.564889
11
4.16827
21
0.564658
0
LINE
8
BLACK
6
CONTINUOUS
10
4.16827
20
0.564658
11
4.17139
21
0.563095
0
LINE
8
BLACK
6
CONTINUOUS
10
4.17139
20
0.563095
11
4.1775
21
0.563095
0
LINE
8
BLACK
6
CONTINUOUS
10
4.1775
20
0.563095
11
4.17975
21
0.564218
0
LINE
8
BLACK
6
CONTINUOUS
10
4.17975
20
0.564218
11
4.18087
21
0.566464
0
LINE
8
BLACK
6
CONTINUOUS
10
4.18087
20
0.566464
11
4.18087
21
0.566945
0
LINE
8
BLACK
6
CONTINUOUS
10
4.18087
20
0.566945
11
4.17975
21
0.56919
0
LINE
8
BLACK
6
CONTINUOUS
10
4.17975
20
0.56919
11
4.1775
21
0.570313
0
LINE
8
BLACK
6
CONTINUOUS
10
4.1775
20
0.570313
11
4.17257
21
0.570313
0
LINE
8
BLACK
6
CONTINUOUS
10
4.17257
20
0.570313
11
4.17156
21
0.570491
0
LINE
8
BLACK
6
CONTINUOUS
10
4.17156
20
0.570491
11
4.17143
21
0.570605
0
LINE
8
BLACK
6
CONTINUOUS
10
4.17143
20
0.570605
11
4.17125
21
0.570625
0
LINE
8
BLACK
6
CONTINUOUS
10
4.17125
20
0.570625
11
4.1675
21
0.5725
0
LINE
8
BLACK
6
CONTINUOUS
10
4.1675
20
0.5725
11
4.16668
21
0.573111
0
LINE
8
BLACK
6
CONTINUOUS
10
4.16668
20
0.573111
11
4.1665
21
0.573516
0
LINE
8
BLACK
6
CONTINUOUS
10
4.1665
20
0.573516
11
4.16618
21
0.57382
0
LINE
8
BLACK
6
CONTINUOUS
10
4.16618
20
0.57382
11
4.16431
21
0.57757
0
LINE
8
BLACK
6
CONTINUOUS
10
4.16431
20
0.57757
11
4.16401
21
0.578553
0
LINE
8
BLACK
6
CONTINUOUS
10
4.16401
20
0.578553
11
4.16406
21
0.578724
0
LINE
8
BLACK
6
CONTINUOUS
10
4.16406
20
0.578724
11
4.164
21
0.57889
0
LINE
8
BLACK
6
CONTINUOUS
10
4.164
20
0.57889
11
4.164
21
0.580765
0
LINE
8
BLACK
6
CONTINUOUS
10
4.164
20
0.580765
11
4.16417
21
0.581775
0
LINE
8
BLACK
6
CONTINUOUS
10
4.16417
20
0.581775
11
4.16429
21
0.58191
0
LINE
8
BLACK
6
CONTINUOUS
10
4.16429
20
0.58191
11
4.16431
21
0.582085
0
LINE
8
BLACK
6
CONTINUOUS
10
4.16431
20
0.582085
11
4.16618
21
0.585835
0
LINE
8
BLACK
6
CONTINUOUS
10
4.16618
20
0.585835
11
4.16679
21
0.586659
0
LINE
8
BLACK
6
CONTINUOUS
10
4.16679
20
0.586659
11
4.1672
21
0.586834
0
LINE
8
BLACK
6
CONTINUOUS
10
4.1672
20
0.586834
11
4.1675
21
0.587155
0
LINE
8
BLACK
6
CONTINUOUS
10
4.1675
20
0.587155
11
4.17125
21
0.58903
0
LINE
8
BLACK
6
CONTINUOUS
10
4.17125
20
0.58903
11
4.17223
21
0.589323
0
LINE
8
BLACK
6
CONTINUOUS
10
4.17223
20
0.589323
11
4.17241
21
0.589282
0
LINE
8
BLACK
6
CONTINUOUS
10
4.17241
20
0.589282
11
4.17257
21
0.589342
0
LINE
8
BLACK
6
CONTINUOUS
10
4.17257
20
0.589342
11
4.1782
21
0.589342
0
LINE
8
BLACK
6
CONTINUOUS
10
4.1782
20
0.589342
11
4.17921
21
0.589164
0
LINE
8
BLACK
6
CONTINUOUS
10
4.15234
20
0.588287
11
4.15303
21
0.586389
0
LINE
8
BLACK
6
CONTINUOUS
10
4.15303
20
0.586389
11
4.15303
21
0.560143
0
LINE
8
BLACK
6
CONTINUOUS
10
4.15303
20
0.560143
11
4.15285
21
0.559133
0
LINE
8
BLACK
6
CONTINUOUS
10
4.15285
20
0.559133
11
4.15155
21
0.557585
0
LINE
8
BLACK
6
CONTINUOUS
10
4.15155
20
0.557585
11
4.14956
21
0.557235
0
LINE
8
BLACK
6
CONTINUOUS
10
4.14956
20
0.557235
11
4.14781
21
0.558245
0
LINE
8
BLACK
6
CONTINUOUS
10
4.14781
20
0.558245
11
4.14773
21
0.55848
0
LINE
8
BLACK
6
CONTINUOUS
10
4.14773
20
0.55848
11
4.14577
21
0.557501
0
LINE
8
BLACK
6
CONTINUOUS
10
4.14577
20
0.557501
11
4.14479
21
0.557209
0
LINE
8
BLACK
6
CONTINUOUS
10
4.14479
20
0.557209
11
4.14462
21
0.55725
0
LINE
8
BLACK
6
CONTINUOUS
10
4.14462
20
0.55725
11
4.14445
21
0.55719
0
LINE
8
BLACK
6
CONTINUOUS
10
4.14445
20
0.55719
11
4.13883
21
0.55719
0
LINE
8
BLACK
6
CONTINUOUS
10
4.13883
20
0.55719
11
4.13782
21
0.557368
0
LINE
8
BLACK
6
CONTINUOUS
10
4.13782
20
0.557368
11
4.13768
21
0.557481
0
LINE
8
BLACK
6
CONTINUOUS
10
4.13768
20
0.557481
11
4.13751
21
0.557501
0
LINE
8
BLACK
6
CONTINUOUS
10
4.13751
20
0.557501
11
4.13376
21
0.559376
0
LINE
8
BLACK
6
CONTINUOUS
10
4.13376
20
0.559376
11
4.13293
21
0.559987
0
LINE
8
BLACK
6
CONTINUOUS
10
4.13293
20
0.559987
11
4.13276
21
0.560393
0
LINE
8
BLACK
6
CONTINUOUS
10
4.13276
20
0.560393
11
4.13244
21
0.560697
0
LINE
8
BLACK
6
CONTINUOUS
10
4.13244
20
0.560697
11
4.13056
21
0.564446
0
LINE
8
BLACK
6
CONTINUOUS
10
4.13056
20
0.564446
11
4.13027
21
0.565429
0
LINE
8
BLACK
6
CONTINUOUS
10
4.13027
20
0.565429
11
4.13031
21
0.565601
0
LINE
8
BLACK
6
CONTINUOUS
10
4.13031
20
0.565601
11
4.13025
21
0.565767
0
LINE
8
BLACK
6
CONTINUOUS
10
4.13025
20
0.565767
11
4.13025
21
0.586389
0
LINE
8
BLACK
6
CONTINUOUS
10
4.13025
20
0.586389
11
4.13043
21
0.587399
0
LINE
8
BLACK
6
CONTINUOUS
10
4.13043
20
0.587399
11
4.13173
21
0.588946
0
LINE
8
BLACK
6
CONTINUOUS
10
4.13173
20
0.588946
11
4.13371
21
0.589297
0
LINE
8
BLACK
6
CONTINUOUS
10
4.13371
20
0.589297
11
4.13546
21
0.588287
0
LINE
8
BLACK
6
CONTINUOUS
10
4.13546
20
0.588287
11
4.13615
21
0.586389
0
LINE
8
BLACK
6
CONTINUOUS
10
4.13615
20
0.586389
11
4.13615
21
0.566464
0
LINE
8
BLACK
6
CONTINUOUS
10
4.13615
20
0.566464
11
4.13728
21
0.564218
0
LINE
8
BLACK
6
CONTINUOUS
10
4.13728
20
0.564218
11
4.13952
21
0.563095
0
LINE
8
BLACK
6
CONTINUOUS
10
4.13952
20
0.563095
11
4.14375
21
0.563095
0
LINE
8
BLACK
6
CONTINUOUS
10
4.14375
20
0.563095
11
4.14645
21
0.564444
0
LINE
8
BLACK
6
CONTINUOUS
10
4.14645
20
0.564444
11
4.14712
21
0.565115
0
LINE
8
BLACK
6
CONTINUOUS
10
4.14712
20
0.565115
11
4.14712
21
0.586389
0
LINE
8
BLACK
6
CONTINUOUS
10
4.14712
20
0.586389
11
4.1473
21
0.587399
0
LINE
8
BLACK
6
CONTINUOUS
10
4.1473
20
0.587399
11
4.1486
21
0.588946
0
LINE
8
BLACK
6
CONTINUOUS
10
4.1486
20
0.588946
11
4.15059
21
0.589297
0
LINE
8
BLACK
6
CONTINUOUS
10
4.15059
20
0.589297
11
4.15234
21
0.588287
0
LINE
8
BLACK
6
CONTINUOUS
10
4.0011
20
0.602287
11
4.00124
21
0.602174
0
LINE
8
BLACK
6
CONTINUOUS
10
4.00124
20
0.602174
11
4.00141
21
0.602154
0
LINE
8
BLACK
6
CONTINUOUS
10
4.00141
20
0.602154
11
4.00516
21
0.600279
0
LINE
8
BLACK
6
CONTINUOUS
10
4.00516
20
0.600279
11
4.00587
21
0.599753
0
LINE
8
BLACK
6
CONTINUOUS
10
4.00587
20
0.599753
11
4.00593
21
0.599726
0
LINE
8
BLACK
6
CONTINUOUS
10
4.00593
20
0.599726
11
4.00781
21
0.597851
0
LINE
8
BLACK
6
CONTINUOUS
10
4.00781
20
0.597851
11
4.00831
21
0.597128
0
LINE
8
BLACK
6
CONTINUOUS
10
4.00831
20
0.597128
11
4.00836
21
0.597084
0
LINE
8
BLACK
6
CONTINUOUS
10
4.00836
20
0.597084
11
4.01023
21
0.593334
0
LINE
8
BLACK
6
CONTINUOUS
10
4.01023
20
0.593334
11
4.01053
21
0.592351
0
LINE
8
BLACK
6
CONTINUOUS
10
4.01053
20
0.592351
11
4.01049
21
0.592179
0
LINE
8
BLACK
6
CONTINUOUS
10
4.01049
20
0.592179
11
4.01055
21
0.592014
0
LINE
8
BLACK
6
CONTINUOUS
10
4.01055
20
0.592014
11
4.01055
21
0.586389
0
LINE
8
BLACK
6
CONTINUOUS
10
4.01055
20
0.586389
11
4.01037
21
0.585379
0
LINE
8
BLACK
6
CONTINUOUS
10
4.01037
20
0.585379
11
4.01025
21
0.585244
0
LINE
8
BLACK
6
CONTINUOUS
10
4.01025
20
0.585244
11
4.01023
21
0.585069
0
LINE
8
BLACK
6
CONTINUOUS
10
4.01023
20
0.585069
11
4.00836
21
0.581319
0
LINE
8
BLACK
6
CONTINUOUS
10
4.00836
20
0.581319
11
4.00783
21
0.58061
0
LINE
8
BLACK
6
CONTINUOUS
10
4.00783
20
0.58061
11
4.00781
21
0.580552
0
LINE
8
BLACK
6
CONTINUOUS
10
4.00781
20
0.580552
11
4.00593
21
0.578677
0
LINE
8
BLACK
6
CONTINUOUS
10
4.00593
20
0.578677
11
4.00521
21
0.578171
0
LINE
8
BLACK
6
CONTINUOUS
10
4.00521
20
0.578171
11
4.00516
21
0.578124
0
LINE
8
BLACK
6
CONTINUOUS
10
4.00516
20
0.578124
11
4.00141
21
0.576249
0
LINE
8
BLACK
6
CONTINUOUS
10
4.00141
20
0.576249
11
4.00043
21
0.575957
0
LINE
8
BLACK
6
CONTINUOUS
10
4.00043
20
0.575957
11
4.00026
21
0.575998
0
LINE
8
BLACK
6
CONTINUOUS
10
4.00026
20
0.575998
11
4.00009
21
0.575937
0
LINE
8
BLACK
6
CONTINUOUS
10
4.00009
20
0.575937
11
3.98805
21
0.575937
0
LINE
8
BLACK
6
CONTINUOUS
10
3.98805
20
0.575937
11
3.98805
21
0.560143
0
LINE
8
BLACK
6
CONTINUOUS
10
3.98805
20
0.560143
11
3.98787
21
0.559133
0
LINE
8
BLACK
6
CONTINUOUS
10
3.98787
20
0.559133
11
3.98657
21
0.557585
0
LINE
8
BLACK
6
CONTINUOUS
10
3.98657
20
0.557585
11
3.98458
21
0.557235
0
LINE
8
BLACK
6
CONTINUOUS
10
3.98458
20
0.557235
11
3.98283
21
0.558245
0
LINE
8
BLACK
6
CONTINUOUS
10
3.98283
20
0.558245
11
3.98214
21
0.560143
0
LINE
8
BLACK
6
CONTINUOUS
10
3.98214
20
0.560143
11
3.98214
21
0.599513
0
LINE
8
BLACK
6
CONTINUOUS
10
3.98214
20
0.599513
11
3.98221
21
0.599896
0
LINE
8
BLACK
6
CONTINUOUS
10
3.98221
20
0.599896
11
3.98219
21
0.600025
0
LINE
8
BLACK
6
CONTINUOUS
10
3.98219
20
0.600025
11
3.98225
21
0.600139
0
LINE
8
BLACK
6
CONTINUOUS
10
3.98225
20
0.600139
11
3.98232
21
0.600523
0
LINE
8
BLACK
6
CONTINUOUS
10
3.98232
20
0.600523
11
3.98281
21
0.60111
0
LINE
8
BLACK
6
CONTINUOUS
10
3.98281
20
0.60111
11
3.9832
21
0.601775
0
LINE
8
BLACK
6
CONTINUOUS
10
3.9832
20
0.601775
11
3.98345
21
0.601866
0
LINE
8
BLACK
6
CONTINUOUS
10
3.98345
20
0.601866
11
3.98362
21
0.60207
0
LINE
8
BLACK
6
CONTINUOUS
10
3.98362
20
0.60207
11
3.98437
21
0.602203
0
LINE
8
BLACK
6
CONTINUOUS
10
3.98437
20
0.602203
11
3.9851
21
0.602465
0
LINE
8
BLACK
6
CONTINUOUS
10
3.9851
20
0.602465
11
4.00009
21
0.602465
0
LINE
8
BLACK
6
CONTINUOUS
10
4.00009
20
0.602465
11
4.0011
21
0.602287
0
LINE
8
BLACK
6
CONTINUOUS
10
3.98805
20
0.59656
11
3.98805
21
0.581843
0
LINE
8
BLACK
6
CONTINUOUS
10
3.98805
20
0.581843
11
3.9994
21
0.581843
0
LINE
8
BLACK
6
CONTINUOUS
10
3.9994
20
0.581843
11
4.00209
21
0.583192
0
LINE
8
BLACK
6
CONTINUOUS
10
4.00209
20
0.583192
11
4.00329
21
0.584389
0
LINE
8
BLACK
6
CONTINUOUS
10
4.00329
20
0.584389
11
4.00464
21
0.587086
0
LINE
8
BLACK
6
CONTINUOUS
10
4.00464
20
0.587086
11
4.00464
21
0.591316
0
LINE
8
BLACK
6
CONTINUOUS
10
4.00464
20
0.591316
11
4.00329
21
0.594014
0
LINE
8
BLACK
6
CONTINUOUS
10
4.00329
20
0.594014
11
4.00209
21
0.595211
0
LINE
8
BLACK
6
CONTINUOUS
10
4.00209
20
0.595211
11
3.9994
21
0.59656
0
LINE
8
BLACK
6
CONTINUOUS
10
3.9994
20
0.59656
11
3.98805
21
0.59656
0
LINE
8
BLACK
6
CONTINUOUS
10
4.12109
20
0.602287
11
4.12264
21
0.600989
0
LINE
8
BLACK
6
CONTINUOUS
10
4.12264
20
0.600989
11
4.12299
21
0.599
0
LINE
8
BLACK
6
CONTINUOUS
10
4.12299
20
0.599
11
4.12198
21
0.597251
0
LINE
8
BLACK
6
CONTINUOUS
10
4.12198
20
0.597251
11
4.12008
21
0.59656
0
LINE
8
BLACK
6
CONTINUOUS
10
4.12008
20
0.59656
11
4.11703
21
0.59656
0
LINE
8
BLACK
6
CONTINUOUS
10
4.11703
20
0.59656
11
4.11478
21
0.595437
0
LINE
8
BLACK
6
CONTINUOUS
10
4.11478
20
0.595437
11
4.11366
21
0.593191
0
LINE
8
BLACK
6
CONTINUOUS
10
4.11366
20
0.593191
11
4.11366
21
0.589342
0
LINE
8
BLACK
6
CONTINUOUS
10
4.11366
20
0.589342
11
4.12008
21
0.589342
0
LINE
8
BLACK
6
CONTINUOUS
10
4.12008
20
0.589342
11
4.12109
21
0.589164
0
LINE
8
BLACK
6
CONTINUOUS
10
4.12109
20
0.589164
11
4.12264
21
0.587866
0
LINE
8
BLACK
6
CONTINUOUS
10
4.12264
20
0.587866
11
4.12299
21
0.585876
0
LINE
8
BLACK
6
CONTINUOUS
10
4.12299
20
0.585876
11
4.12198
21
0.584127
0
LINE
8
BLACK
6
CONTINUOUS
10
4.12198
20
0.584127
11
4.12008
21
0.583436
0
LINE
8
BLACK
6
CONTINUOUS
10
4.12008
20
0.583436
11
4.11366
21
0.583436
0
LINE
8
BLACK
6
CONTINUOUS
10
4.11366
20
0.583436
11
4.11366
21
0.560143
0
LINE
8
BLACK
6
CONTINUOUS
10
4.11366
20
0.560143
11
4.11348
21
0.559133
0
LINE
8
BLACK
6
CONTINUOUS
10
4.11348
20
0.559133
11
4.11218
21
0.557585
0
LINE
8
BLACK
6
CONTINUOUS
10
4.11218
20
0.557585
11
4.11019
21
0.557235
0
LINE
8
BLACK
6
CONTINUOUS
10
4.11019
20
0.557235
11
4.10844
21
0.558245
0
LINE
8
BLACK
6
CONTINUOUS
10
4.10844
20
0.558245
11
4.10775
21
0.560143
0
LINE
8
BLACK
6
CONTINUOUS
10
4.10775
20
0.560143
11
4.10775
21
0.583436
0
LINE
8
BLACK
6
CONTINUOUS
10
4.10775
20
0.583436
11
4.10508
21
0.583436
0
LINE
8
BLACK
6
CONTINUOUS
10
4.10508
20
0.583436
11
4.10407
21
0.583615
0
LINE
8
BLACK
6
CONTINUOUS
10
4.10407
20
0.583615
11
4.10252
21
0.584913
0
LINE
8
BLACK
6
CONTINUOUS
10
4.10252
20
0.584913
11
4.10217
21
0.586902
0
LINE
8
BLACK
6
CONTINUOUS
10
4.10217
20
0.586902
11
4.10318
21
0.588651
0
LINE
8
BLACK
6
CONTINUOUS
10
4.10318
20
0.588651
11
4.10508
21
0.589342
0
LINE
8
BLACK
6
CONTINUOUS
10
4.10508
20
0.589342
11
4.10775
21
0.589342
0
LINE
8
BLACK
6
CONTINUOUS
10
4.10775
20
0.589342
11
4.10775
21
0.593888
0
LINE
8
BLACK
6
CONTINUOUS
10
4.10775
20
0.593888
11
4.10793
21
0.594898
0
LINE
8
BLACK
6
CONTINUOUS
10
4.10793
20
0.594898
11
4.10804
21
0.595033
0
LINE
8
BLACK
6
CONTINUOUS
10
4.10804
20
0.595033
11
4.10806
21
0.595209
0
LINE
8
BLACK
6
CONTINUOUS
10
4.10806
20
0.595209
11
4.10994
21
0.598958
0
LINE
8
BLACK
6
CONTINUOUS
10
4.10994
20
0.598958
11
4.11055
21
0.599782
0
LINE
8
BLACK
6
CONTINUOUS
10
4.11055
20
0.599782
11
4.11096
21
0.599958
0
LINE
8
BLACK
6
CONTINUOUS
10
4.11096
20
0.599958
11
4.11126
21
0.600279
0
LINE
8
BLACK
6
CONTINUOUS
10
4.11126
20
0.600279
11
4.11501
21
0.602154
0
LINE
8
BLACK
6
CONTINUOUS
10
4.11501
20
0.602154
11
4.11599
21
0.602446
0
LINE
8
BLACK
6
CONTINUOUS
10
4.11599
20
0.602446
11
4.11616
21
0.602405
0
LINE
8
BLACK
6
CONTINUOUS
10
4.11616
20
0.602405
11
4.11633
21
0.602465
0
LINE
8
BLACK
6
CONTINUOUS
10
4.11633
20
0.602465
11
4.12008
21
0.602465
0
LINE
8
BLACK
6
CONTINUOUS
10
4.12008
20
0.602465
11
4.12109
21
0.602287
0
LINE
8
BLACK
6
CONTINUOUS
10
4.06235
20
0.601411
11
4.06304
21
0.599513
0
LINE
8
BLACK
6
CONTINUOUS
10
4.06304
20
0.599513
11
4.06304
21
0.566464
0
LINE
8
BLACK
6
CONTINUOUS
10
4.06304
20
0.566464
11
4.06416
21
0.564218
0
LINE
8
BLACK
6
CONTINUOUS
10
4.06416
20
0.564218
11
4.06703
21
0.562784
0
LINE
8
BLACK
6
CONTINUOUS
10
4.06703
20
0.562784
11
4.06785
21
0.562173
0
LINE
8
BLACK
6
CONTINUOUS
10
4.06785
20
0.562173
11
4.06866
21
0.560319
0
LINE
8
BLACK
6
CONTINUOUS
10
4.06866
20
0.560319
11
4.06808
21
0.558383
0
LINE
8
BLACK
6
CONTINUOUS
10
4.06808
20
0.558383
11
4.0664
21
0.557271
0
LINE
8
BLACK
6
CONTINUOUS
10
4.0664
20
0.557271
11
4.06439
21
0.557501
0
LINE
8
BLACK
6
CONTINUOUS
10
4.06439
20
0.557501
11
4.06064
21
0.559376
0
LINE
8
BLACK
6
CONTINUOUS
10
4.06064
20
0.559376
11
4.05982
21
0.559987
0
LINE
8
BLACK
6
CONTINUOUS
10
4.05982
20
0.559987
11
4.05964
21
0.560393
0
LINE
8
BLACK
6
CONTINUOUS
10
4.05964
20
0.560393
11
4.05932
21
0.560697
0
LINE
8
BLACK
6
CONTINUOUS
10
4.05932
20
0.560697
11
4.05745
21
0.564446
0
LINE
8
BLACK
6
CONTINUOUS
10
4.05745
20
0.564446
11
4.05715
21
0.565429
0
LINE
8
BLACK
6
CONTINUOUS
10
4.05715
20
0.565429
11
4.05719
21
0.565601
0
LINE
8
BLACK
6
CONTINUOUS
10
4.05719
20
0.565601
11
4.05713
21
0.565767
0
LINE
8
BLACK
6
CONTINUOUS
10
4.05713
20
0.565767
11
4.05713
21
0.599513
0
LINE
8
BLACK
6
CONTINUOUS
10
4.05713
20
0.599513
11
4.05731
21
0.600523
0
LINE
8
BLACK
6
CONTINUOUS
10
4.05731
20
0.600523
11
4.05861
21
0.60207
0
LINE
8
BLACK
6
CONTINUOUS
10
4.05861
20
0.60207
11
4.0606
21
0.602421
0
LINE
8
BLACK
6
CONTINUOUS
10
4.0606
20
0.602421
11
4.06235
21
0.601411
0
LINE
8
BLACK
6
CONTINUOUS
10
3.90412
20
0.615931
11
3.90354
21
0.617323
0
LINE
8
BLACK
6
CONTINUOUS
10
3.90354
20
0.617323
11
3.90354
21
0.735433
0
LINE
8
BLACK
6
CONTINUOUS
10
3.90354
20
0.735433
11
3.90412
21
0.736825
0
LINE
8
BLACK
6
CONTINUOUS
10
3.90412
20
0.736825
11
3.90551
21
0.737402
0
LINE
8
BLACK
6
CONTINUOUS
10
3.90551
20
0.737402
11
4.29528
21
0.737402
0
LINE
8
BLACK
6
CONTINUOUS
10
4.29528
20
0.737402
11
4.29667
21
0.736825
0
LINE
8
BLACK
6
CONTINUOUS
10
4.29667
20
0.736825
11
4.29724
21
0.735433
0
LINE
8
BLACK
6
CONTINUOUS
10
4.29724
20
0.735433
11
4.29724
21
0.617323
0
LINE
8
BLACK
6
CONTINUOUS
10
4.29724
20
0.617323
11
4.29667
21
0.615931
0
LINE
8
BLACK
6
CONTINUOUS
10
4.29667
20
0.615931
11
4.29528
21
0.615354
0
LINE
8
BLACK
6
CONTINUOUS
10
4.29528
20
0.615354
11
3.90551
21
0.615354
0
LINE
8
BLACK
6
CONTINUOUS
10
3.90551
20
0.615354
11
3.90412
21
0.615931
0
LINE
8
BLACK
6
CONTINUOUS
10
3.90748
20
0.733465
11
3.90748
21
0.619291
0
LINE
8
BLACK
6
CONTINUOUS
10
3.90748
20
0.619291
11
4.29331
21
0.619291
0
LINE
8
BLACK
6
CONTINUOUS
10
4.29331
20
0.619291
11
4.29331
21
0.733465
0
LINE
8
BLACK
6
CONTINUOUS
10
4.29331
20
0.733465
11
3.90748
21
0.733465
0
LINE
8
BLACK
6
CONTINUOUS
10
4.12203
20
0.700712
11
4.12216
21
0.700599
0
LINE
8
BLACK
6
CONTINUOUS
10
4.12216
20
0.700599
11
4.12234
21
0.700579
0
LINE
8
BLACK
6
CONTINUOUS
10
4.12234
20
0.700579
11
4.12609
21
0.698704
0
LINE
8
BLACK
6
CONTINUOUS
10
4.12609
20
0.698704
11
4.1268
21
0.698178
0
LINE
8
BLACK
6
CONTINUOUS
10
4.1268
20
0.698178
11
4.12685
21
0.698151
0
LINE
8
BLACK
6
CONTINUOUS
10
4.12685
20
0.698151
11
4.12873
21
0.696276
0
LINE
8
BLACK
6
CONTINUOUS
10
4.12873
20
0.696276
11
4.12923
21
0.695553
0
LINE
8
BLACK
6
CONTINUOUS
10
4.12923
20
0.695553
11
4.12928
21
0.695509
0
LINE
8
BLACK
6
CONTINUOUS
10
4.12928
20
0.695509
11
4.13116
21
0.691759
0
LINE
8
BLACK
6
CONTINUOUS
10
4.13116
20
0.691759
11
4.13145
21
0.690776
0
LINE
8
BLACK
6
CONTINUOUS
10
4.13145
20
0.690776
11
4.13141
21
0.690605
0
LINE
8
BLACK
6
CONTINUOUS
10
4.13141
20
0.690605
11
4.13147
21
0.690439
0
LINE
8
BLACK
6
CONTINUOUS
10
4.13147
20
0.690439
11
4.13147
21
0.686689
0
LINE
8
BLACK
6
CONTINUOUS
10
4.13147
20
0.686689
11
4.13131
21
0.68582
0
LINE
8
BLACK
6
CONTINUOUS
10
4.13131
20
0.68582
11
4.13132
21
0.685755
0
LINE
8
BLACK
6
CONTINUOUS
10
4.13132
20
0.685755
11
4.12944
21
0.680131
0
LINE
8
BLACK
6
CONTINUOUS
10
4.12944
20
0.680131
11
4.12895
21
0.679229
0
LINE
8
BLACK
6
CONTINUOUS
10
4.12895
20
0.679229
11
4.1288
21
0.679137
0
LINE
8
BLACK
6
CONTINUOUS
10
4.1288
20
0.679137
11
4.12873
21
0.678977
0
LINE
8
BLACK
6
CONTINUOUS
10
4.12873
20
0.678977
11
4.11127
21
0.66152
0
LINE
8
BLACK
6
CONTINUOUS
10
4.11127
20
0.66152
11
4.12852
21
0.66152
0
LINE
8
BLACK
6
CONTINUOUS
10
4.12852
20
0.66152
11
4.12953
21
0.661342
0
LINE
8
BLACK
6
CONTINUOUS
10
4.12953
20
0.661342
11
4.13107
21
0.660044
0
LINE
8
BLACK
6
CONTINUOUS
10
4.13107
20
0.660044
11
4.13142
21
0.658055
0
LINE
8
BLACK
6
CONTINUOUS
10
4.13142
20
0.658055
11
4.13041
21
0.656306
0
LINE
8
BLACK
6
CONTINUOUS
10
4.13041
20
0.656306
11
4.12852
21
0.655615
0
LINE
8
BLACK
6
CONTINUOUS
10
4.12852
20
0.655615
11
4.10414
21
0.655615
0
LINE
8
BLACK
6
CONTINUOUS
10
4.10414
20
0.655615
11
4.10351
21
0.655727
0
LINE
8
BLACK
6
CONTINUOUS
10
4.10351
20
0.655727
11
4.10338
21
0.655716
0
LINE
8
BLACK
6
CONTINUOUS
10
4.10338
20
0.655716
11
4.10331
21
0.655761
0
LINE
8
BLACK
6
CONTINUOUS
10
4.10331
20
0.655761
11
4.10313
21
0.655793
0
LINE
8
BLACK
6
CONTINUOUS
10
4.10313
20
0.655793
11
4.10245
21
0.656364
0
LINE
8
BLACK
6
CONTINUOUS
10
4.10245
20
0.656364
11
4.10172
21
0.656874
0
LINE
8
BLACK
6
CONTINUOUS
10
4.10172
20
0.656874
11
4.10169
21
0.657005
0
LINE
8
BLACK
6
CONTINUOUS
10
4.10169
20
0.657005
11
4.10159
21
0.657091
0
LINE
8
BLACK
6
CONTINUOUS
10
4.10159
20
0.657091
11
4.10143
21
0.657967
0
LINE
8
BLACK
6
CONTINUOUS
10
4.10143
20
0.657967
11
4.1012
21
0.658825
0
LINE
8
BLACK
6
CONTINUOUS
10
4.1012
20
0.658825
11
4.10126
21
0.658947
0
LINE
8
BLACK
6
CONTINUOUS
10
4.10126
20
0.658947
11
4.10124
21
0.65908
0
LINE
8
BLACK
6
CONTINUOUS
10
4.10124
20
0.65908
11
4.10168
21
0.65985
0
LINE
8
BLACK
6
CONTINUOUS
10
4.10168
20
0.65985
11
4.10206
21
0.660656
0
LINE
8
BLACK
6
CONTINUOUS
10
4.10206
20
0.660656
11
4.12406
21
0.68266
0
LINE
8
BLACK
6
CONTINUOUS
10
4.12406
20
0.68266
11
4.12556
21
0.687168
0
LINE
8
BLACK
6
CONTINUOUS
10
4.12556
20
0.687168
11
4.12556
21
0.689742
0
LINE
8
BLACK
6
CONTINUOUS
10
4.12556
20
0.689742
11
4.12421
21
0.692439
0
LINE
8
BLACK
6
CONTINUOUS
10
4.12421
20
0.692439
11
4.12302
21
0.693636
0
LINE
8
BLACK
6
CONTINUOUS
10
4.12302
20
0.693636
11
4.12032
21
0.694985
0
LINE
8
BLACK
6
CONTINUOUS
10
4.12032
20
0.694985
11
4.11234
21
0.694985
0
LINE
8
BLACK
6
CONTINUOUS
10
4.11234
20
0.694985
11
4.10964
21
0.693636
0
LINE
8
BLACK
6
CONTINUOUS
10
4.10964
20
0.693636
11
4.10811
21
0.6921
0
LINE
8
BLACK
6
CONTINUOUS
10
4.10811
20
0.6921
11
4.10727
21
0.691512
0
LINE
8
BLACK
6
CONTINUOUS
10
4.10727
20
0.691512
11
4.10525
21
0.691336
0
LINE
8
BLACK
6
CONTINUOUS
10
4.10525
20
0.691336
11
4.1036
21
0.692495
0
LINE
8
BLACK
6
CONTINUOUS
10
4.1036
20
0.692495
11
4.10308
21
0.694446
0
LINE
8
BLACK
6
CONTINUOUS
10
4.10308
20
0.694446
11
4.10393
21
0.696276
0
LINE
8
BLACK
6
CONTINUOUS
10
4.10393
20
0.696276
11
4.1058
21
0.698151
0
LINE
8
BLACK
6
CONTINUOUS
10
4.1058
20
0.698151
11
4.10653
21
0.698657
0
LINE
8
BLACK
6
CONTINUOUS
10
4.10653
20
0.698657
11
4.10657
21
0.698704
0
LINE
8
BLACK
6
CONTINUOUS
10
4.10657
20
0.698704
11
4.11032
21
0.700579
0
LINE
8
BLACK
6
CONTINUOUS
10
4.11032
20
0.700579
11
4.1113
21
0.700871
0
LINE
8
BLACK
6
CONTINUOUS
10
4.1113
20
0.700871
11
4.11148
21
0.70083
0
LINE
8
BLACK
6
CONTINUOUS
10
4.11148
20
0.70083
11
4.11164
21
0.700891
0
LINE
8
BLACK
6
CONTINUOUS
10
4.11164
20
0.700891
11
4.12102
21
0.700891
0
LINE
8
BLACK
6
CONTINUOUS
10
4.12102
20
0.700891
11
4.12203
21
0.700712
0
LINE
8
BLACK
6
CONTINUOUS
10
4.0939
20
0.700712
11
4.09545
21
0.699414
0
LINE
8
BLACK
6
CONTINUOUS
10
4.09545
20
0.699414
11
4.0958
21
0.697425
0
LINE
8
BLACK
6
CONTINUOUS
10
4.0958
20
0.697425
11
4.09479
21
0.695676
0
LINE
8
BLACK
6
CONTINUOUS
10
4.09479
20
0.695676
11
4.09289
21
0.694985
0
LINE
8
BLACK
6
CONTINUOUS
10
4.09289
20
0.694985
11
4.0771
21
0.694985
0
LINE
8
BLACK
6
CONTINUOUS
10
4.0771
20
0.694985
11
4.0771
21
0.682143
0
LINE
8
BLACK
6
CONTINUOUS
10
4.0771
20
0.682143
11
4.08727
21
0.682143
0
LINE
8
BLACK
6
CONTINUOUS
10
4.08727
20
0.682143
11
4.08828
21
0.681965
0
LINE
8
BLACK
6
CONTINUOUS
10
4.08828
20
0.681965
11
4.08983
21
0.680666
0
LINE
8
BLACK
6
CONTINUOUS
10
4.08983
20
0.680666
11
4.09018
21
0.678677
0
LINE
8
BLACK
6
CONTINUOUS
10
4.09018
20
0.678677
11
4.08917
21
0.676928
0
LINE
8
BLACK
6
CONTINUOUS
10
4.08917
20
0.676928
11
4.08727
21
0.676237
0
LINE
8
BLACK
6
CONTINUOUS
10
4.08727
20
0.676237
11
4.0771
21
0.676237
0
LINE
8
BLACK
6
CONTINUOUS
10
4.0771
20
0.676237
11
4.0771
21
0.658568
0
LINE
8
BLACK
6
CONTINUOUS
10
4.0771
20
0.658568
11
4.07692
21
0.657558
0
LINE
8
BLACK
6
CONTINUOUS
10
4.07692
20
0.657558
11
4.07562
21
0.656011
0
LINE
8
BLACK
6
CONTINUOUS
10
4.07562
20
0.656011
11
4.07363
21
0.65566
0
LINE
8
BLACK
6
CONTINUOUS
10
4.07363
20
0.65566
11
4.07189
21
0.65667
0
LINE
8
BLACK
6
CONTINUOUS
10
4.07189
20
0.65667
11
4.07119
21
0.658568
0
LINE
8
BLACK
6
CONTINUOUS
10
4.07119
20
0.658568
11
4.07119
21
0.697938
0
LINE
8
BLACK
6
CONTINUOUS
10
4.07119
20
0.697938
11
4.07126
21
0.698321
0
LINE
8
BLACK
6
CONTINUOUS
10
4.07126
20
0.698321
11
4.07124
21
0.698451
0
LINE
8
BLACK
6
CONTINUOUS
10
4.07124
20
0.698451
11
4.0713
21
0.698564
0
LINE
8
BLACK
6
CONTINUOUS
10
4.0713
20
0.698564
11
4.07137
21
0.698948
0
LINE
8
BLACK
6
CONTINUOUS
10
4.07137
20
0.698948
11
4.07187
21
0.699535
0
LINE
8
BLACK
6
CONTINUOUS
10
4.07187
20
0.699535
11
4.07225
21
0.7002
0
LINE
8
BLACK
6
CONTINUOUS
10
4.07225
20
0.7002
11
4.0725
21
0.700291
0
LINE
8
BLACK
6
CONTINUOUS
10
4.0725
20
0.700291
11
4.07267
21
0.700495
0
LINE
8
BLACK
6
CONTINUOUS
10
4.07267
20
0.700495
11
4.07343
21
0.700628
0
LINE
8
BLACK
6
CONTINUOUS
10
4.07343
20
0.700628
11
4.07415
21
0.700891
0
LINE
8
BLACK
6
CONTINUOUS
10
4.07415
20
0.700891
11
4.09289
21
0.700891
0
LINE
8
BLACK
6
CONTINUOUS
10
4.09289
20
0.700891
11
4.0939
21
0.700712
0
LINE
8
BLACK
6
CONTINUOUS
10
3.61128
20
0.975778
11
3.61142
21
0.975665
0
LINE
8
BLACK
6
CONTINUOUS
10
3.61142
20
0.975665
11
3.61159
21
0.975644
0
LINE
8
BLACK
6
CONTINUOUS
10
3.61159
20
0.975644
11
3.61534
21
0.97377
0
LINE
8
BLACK
6
CONTINUOUS
10
3.61534
20
0.97377
11
3.61617
21
0.973159
0
LINE
8
BLACK
6
CONTINUOUS
10
3.61617
20
0.973159
11
3.61634
21
0.972753
0
LINE
8
BLACK
6
CONTINUOUS
10
3.61634
20
0.972753
11
3.61666
21
0.972449
0
LINE
8
BLACK
6
CONTINUOUS
10
3.61666
20
0.972449
11
3.61854
21
0.9687
0
LINE
8
BLACK
6
CONTINUOUS
10
3.61854
20
0.9687
11
3.61883
21
0.967717
0
LINE
8
BLACK
6
CONTINUOUS
10
3.61883
20
0.967717
11
3.61879
21
0.967545
0
LINE
8
BLACK
6
CONTINUOUS
10
3.61879
20
0.967545
11
3.61885
21
0.967379
0
LINE
8
BLACK
6
CONTINUOUS
10
3.61885
20
0.967379
11
3.61885
21
0.96363
0
LINE
8
BLACK
6
CONTINUOUS
10
3.61885
20
0.96363
11
3.61867
21
0.96262
0
LINE
8
BLACK
6
CONTINUOUS
10
3.61867
20
0.96262
11
3.61836
21
0.962246
0
LINE
8
BLACK
6
CONTINUOUS
10
3.61836
20
0.962246
11
3.6182
21
0.961784
0
LINE
8
BLACK
6
CONTINUOUS
10
3.6182
20
0.961784
11
3.61773
21
0.961496
0
LINE
8
BLACK
6
CONTINUOUS
10
3.61773
20
0.961496
11
3.61737
21
0.961072
0
LINE
8
BLACK
6
CONTINUOUS
10
3.61737
20
0.961072
11
3.61689
21
0.960988
0
LINE
8
BLACK
6
CONTINUOUS
10
3.61689
20
0.960988
11
3.61648
21
0.960734
0
LINE
8
BLACK
6
CONTINUOUS
10
3.61648
20
0.960734
11
3.6001
21
0.957459
0
LINE
8
BLACK
6
CONTINUOUS
10
3.6001
20
0.957459
11
3.6001
21
0.953078
0
LINE
8
BLACK
6
CONTINUOUS
10
3.6001
20
0.953078
11
3.60123
21
0.950832
0
LINE
8
BLACK
6
CONTINUOUS
10
3.60123
20
0.950832
11
3.60347
21
0.949709
0
LINE
8
BLACK
6
CONTINUOUS
10
3.60347
20
0.949709
11
3.60958
21
0.949709
0
LINE
8
BLACK
6
CONTINUOUS
10
3.60958
20
0.949709
11
3.6127
21
0.951272
0
LINE
8
BLACK
6
CONTINUOUS
10
3.6127
20
0.951272
11
3.61369
21
0.951565
0
LINE
8
BLACK
6
CONTINUOUS
10
3.61369
20
0.951565
11
3.61565
21
0.951096
0
LINE
8
BLACK
6
CONTINUOUS
10
3.61565
20
0.951096
11
3.61685
21
0.949473
0
LINE
8
BLACK
6
CONTINUOUS
10
3.61685
20
0.949473
11
3.61673
21
0.947457
0
LINE
8
BLACK
6
CONTINUOUS
10
3.61673
20
0.947457
11
3.61534
21
0.94599
0
LINE
8
BLACK
6
CONTINUOUS
10
3.61534
20
0.94599
11
3.61159
21
0.944116
0
LINE
8
BLACK
6
CONTINUOUS
10
3.61159
20
0.944116
11
3.61061
21
0.943823
0
LINE
8
BLACK
6
CONTINUOUS
10
3.61061
20
0.943823
11
3.61044
21
0.943864
0
LINE
8
BLACK
6
CONTINUOUS
10
3.61044
20
0.943864
11
3.61027
21
0.943804
0
LINE
8
BLACK
6
CONTINUOUS
10
3.61027
20
0.943804
11
3.60277
21
0.943804
0
LINE
8
BLACK
6
CONTINUOUS
10
3.60277
20
0.943804
11
3.60176
21
0.943982
0
LINE
8
BLACK
6
CONTINUOUS
10
3.60176
20
0.943982
11
3.60163
21
0.944095
0
LINE
8
BLACK
6
CONTINUOUS
10
3.60163
20
0.944095
11
3.60145
21
0.944116
0
LINE
8
BLACK
6
CONTINUOUS
10
3.60145
20
0.944116
11
3.5977
21
0.94599
0
LINE
8
BLACK
6
CONTINUOUS
10
3.5977
20
0.94599
11
3.59688
21
0.946601
0
LINE
8
BLACK
6
CONTINUOUS
10
3.59688
20
0.946601
11
3.59671
21
0.947007
0
LINE
8
BLACK
6
CONTINUOUS
10
3.59671
20
0.947007
11
3.59638
21
0.947311
0
LINE
8
BLACK
6
CONTINUOUS
10
3.59638
20
0.947311
11
3.59451
21
0.95106
0
LINE
8
BLACK
6
CONTINUOUS
10
3.59451
20
0.95106
11
3.59422
21
0.952043
0
LINE
8
BLACK
6
CONTINUOUS
10
3.59422
20
0.952043
11
3.59426
21
0.952215
0
LINE
8
BLACK
6
CONTINUOUS
10
3.59426
20
0.952215
11
3.5942
21
0.952381
0
LINE
8
BLACK
6
CONTINUOUS
10
3.5942
20
0.952381
11
3.5942
21
0.967379
0
LINE
8
BLACK
6
CONTINUOUS
10
3.5942
20
0.967379
11
3.59438
21
0.968389
0
LINE
8
BLACK
6
CONTINUOUS
10
3.59438
20
0.968389
11
3.59449
21
0.968524
0
LINE
8
BLACK
6
CONTINUOUS
10
3.59449
20
0.968524
11
3.59451
21
0.9687
0
LINE
8
BLACK
6
CONTINUOUS
10
3.59451
20
0.9687
11
3.59638
21
0.972449
0
LINE
8
BLACK
6
CONTINUOUS
10
3.59638
20
0.972449
11
3.59699
21
0.973273
0
LINE
8
BLACK
6
CONTINUOUS
10
3.59699
20
0.973273
11
3.5974
21
0.973449
0
LINE
8
BLACK
6
CONTINUOUS
10
3.5974
20
0.973449
11
3.5977
21
0.97377
0
LINE
8
BLACK
6
CONTINUOUS
10
3.5977
20
0.97377
11
3.60145
21
0.975644
0
LINE
8
BLACK
6
CONTINUOUS
10
3.60145
20
0.975644
11
3.60244
21
0.975937
0
LINE
8
BLACK
6
CONTINUOUS
10
3.60244
20
0.975937
11
3.60261
21
0.975896
0
LINE
8
BLACK
6
CONTINUOUS
10
3.60261
20
0.975896
11
3.60277
21
0.975956
0
LINE
8
BLACK
6
CONTINUOUS
10
3.60277
20
0.975956
11
3.61027
21
0.975956
0
LINE
8
BLACK
6
CONTINUOUS
10
3.61027
20
0.975956
11
3.61128
21
0.975778
0
LINE
8
BLACK
6
CONTINUOUS
10
3.60347
20
0.970051
11
3.60123
21
0.968928
0
LINE
8
BLACK
6
CONTINUOUS
10
3.60123
20
0.968928
11
3.6001
21
0.966682
0
LINE
8
BLACK
6
CONTINUOUS
10
3.6001
20
0.966682
11
3.6001
21
0.963482
0
LINE
8
BLACK
6
CONTINUOUS
10
3.6001
20
0.963482
11
3.61295
21
0.96605
0
LINE
8
BLACK
6
CONTINUOUS
10
3.61295
20
0.96605
11
3.61295
21
0.966682
0
LINE
8
BLACK
6
CONTINUOUS
10
3.61295
20
0.966682
11
3.61182
21
0.968928
0
LINE
8
BLACK
6
CONTINUOUS
10
3.61182
20
0.968928
11
3.60958
21
0.970051
0
LINE
8
BLACK
6
CONTINUOUS
10
3.60958
20
0.970051
11
3.60347
21
0.970051
0
LINE
8
BLACK
6
CONTINUOUS
10
3.55067
20
0.974901
11
3.55136
21
0.973003
0
LINE
8
BLACK
6
CONTINUOUS
10
3.55136
20
0.973003
11
3.55136
21
0.946757
0
LINE
8
BLACK
6
CONTINUOUS
10
3.55136
20
0.946757
11
3.55118
21
0.945747
0
LINE
8
BLACK
6
CONTINUOUS
10
3.55118
20
0.945747
11
3.54988
21
0.9442
0
LINE
8
BLACK
6
CONTINUOUS
10
3.54988
20
0.9442
11
3.54789
21
0.943849
0
LINE
8
BLACK
6
CONTINUOUS
10
3.54789
20
0.943849
11
3.54614
21
0.944859
0
LINE
8
BLACK
6
CONTINUOUS
10
3.54614
20
0.944859
11
3.54606
21
0.945094
0
LINE
8
BLACK
6
CONTINUOUS
10
3.54606
20
0.945094
11
3.5441
21
0.944116
0
LINE
8
BLACK
6
CONTINUOUS
10
3.5441
20
0.944116
11
3.54312
21
0.943823
0
LINE
8
BLACK
6
CONTINUOUS
10
3.54312
20
0.943823
11
3.54295
21
0.943864
0
LINE
8
BLACK
6
CONTINUOUS
10
3.54295
20
0.943864
11
3.54278
21
0.943804
0
LINE
8
BLACK
6
CONTINUOUS
10
3.54278
20
0.943804
11
3.53716
21
0.943804
0
LINE
8
BLACK
6
CONTINUOUS
10
3.53716
20
0.943804
11
3.53615
21
0.943982
0
LINE
8
BLACK
6
CONTINUOUS
10
3.53615
20
0.943982
11
3.53601
21
0.944095
0
LINE
8
BLACK
6
CONTINUOUS
10
3.53601
20
0.944095
11
3.53584
21
0.944116
0
LINE
8
BLACK
6
CONTINUOUS
10
3.53584
20
0.944116
11
3.53209
21
0.94599
0
LINE
8
BLACK
6
CONTINUOUS
10
3.53209
20
0.94599
11
3.53126
21
0.946601
0
LINE
8
BLACK
6
CONTINUOUS
10
3.53126
20
0.946601
11
3.53109
21
0.947007
0
LINE
8
BLACK
6
CONTINUOUS
10
3.53109
20
0.947007
11
3.53077
21
0.947311
0
LINE
8
BLACK
6
CONTINUOUS
10
3.53077
20
0.947311
11
3.52889
21
0.95106
0
LINE
8
BLACK
6
CONTINUOUS
10
3.52889
20
0.95106
11
3.5286
21
0.952043
0
LINE
8
BLACK
6
CONTINUOUS
10
3.5286
20
0.952043
11
3.52864
21
0.952215
0
LINE
8
BLACK
6
CONTINUOUS
10
3.52864
20
0.952215
11
3.52858
21
0.952381
0
LINE
8
BLACK
6
CONTINUOUS
10
3.52858
20
0.952381
11
3.52858
21
0.973003
0
LINE
8
BLACK
6
CONTINUOUS
10
3.52858
20
0.973003
11
3.52876
21
0.974013
0
LINE
8
BLACK
6
CONTINUOUS
10
3.52876
20
0.974013
11
3.53006
21
0.975561
0
LINE
8
BLACK
6
CONTINUOUS
10
3.53006
20
0.975561
11
3.53205
21
0.975911
0
LINE
8
BLACK
6
CONTINUOUS
10
3.53205
20
0.975911
11
3.5338
21
0.974901
0
LINE
8
BLACK
6
CONTINUOUS
10
3.5338
20
0.974901
11
3.53449
21
0.973003
0
LINE
8
BLACK
6
CONTINUOUS
10
3.53449
20
0.973003
11
3.53449
21
0.953078
0
LINE
8
BLACK
6
CONTINUOUS
10
3.53449
20
0.953078
11
3.53561
21
0.950832
0
LINE
8
BLACK
6
CONTINUOUS
10
3.53561
20
0.950832
11
3.53785
21
0.949709
0
LINE
8
BLACK
6
CONTINUOUS
10
3.53785
20
0.949709
11
3.54209
21
0.949709
0
LINE
8
BLACK
6
CONTINUOUS
10
3.54209
20
0.949709
11
3.54478
21
0.951058
0
LINE
8
BLACK
6
CONTINUOUS
10
3.54478
20
0.951058
11
3.54545
21
0.951729
0
LINE
8
BLACK
6
CONTINUOUS
10
3.54545
20
0.951729
11
3.54545
21
0.973003
0
LINE
8
BLACK
6
CONTINUOUS
10
3.54545
20
0.973003
11
3.54563
21
0.974013
0
LINE
8
BLACK
6
CONTINUOUS
10
3.54563
20
0.974013
11
3.54693
21
0.975561
0
LINE
8
BLACK
6
CONTINUOUS
10
3.54693
20
0.975561
11
3.54892
21
0.975911
0
LINE
8
BLACK
6
CONTINUOUS
10
3.54892
20
0.975911
11
3.55067
21
0.974901
0
LINE
8
BLACK
6
CONTINUOUS
10
3.57754
20
0.975778
11
3.57767
21
0.975665
0
LINE
8
BLACK
6
CONTINUOUS
10
3.57767
20
0.975665
11
3.57785
21
0.975644
0
LINE
8
BLACK
6
CONTINUOUS
10
3.57785
20
0.975644
11
3.5816
21
0.97377
0
LINE
8
BLACK
6
CONTINUOUS
10
3.5816
20
0.97377
11
3.58242
21
0.973159
0
LINE
8
BLACK
6
CONTINUOUS
10
3.58242
20
0.973159
11
3.58322
21
0.971306
0
LINE
8
BLACK
6
CONTINUOUS
10
3.58322
20
0.971306
11
3.58265
21
0.96937
0
LINE
8
BLACK
6
CONTINUOUS
10
3.58265
20
0.96937
11
3.58096
21
0.968257
0
LINE
8
BLACK
6
CONTINUOUS
10
3.58096
20
0.968257
11
3.57896
21
0.968488
0
LINE
8
BLACK
6
CONTINUOUS
10
3.57896
20
0.968488
11
3.57583
21
0.970051
0
LINE
8
BLACK
6
CONTINUOUS
10
3.57583
20
0.970051
11
3.5716
21
0.970051
0
LINE
8
BLACK
6
CONTINUOUS
10
3.5716
20
0.970051
11
3.56935
21
0.968928
0
LINE
8
BLACK
6
CONTINUOUS
10
3.56935
20
0.968928
11
3.56823
21
0.966682
0
LINE
8
BLACK
6
CONTINUOUS
10
3.56823
20
0.966682
11
3.56823
21
0.966201
0
LINE
8
BLACK
6
CONTINUOUS
10
3.56823
20
0.966201
11
3.56935
21
0.963956
0
LINE
8
BLACK
6
CONTINUOUS
10
3.56935
20
0.963956
11
3.5716
21
0.962833
0
LINE
8
BLACK
6
CONTINUOUS
10
3.5716
20
0.962833
11
3.57653
21
0.962833
0
LINE
8
BLACK
6
CONTINUOUS
10
3.57653
20
0.962833
11
3.57754
21
0.962655
0
LINE
8
BLACK
6
CONTINUOUS
10
3.57754
20
0.962655
11
3.57767
21
0.962541
0
LINE
8
BLACK
6
CONTINUOUS
10
3.57767
20
0.962541
11
3.57785
21
0.962521
0
LINE
8
BLACK
6
CONTINUOUS
10
3.57785
20
0.962521
11
3.5816
21
0.960646
0
LINE
8
BLACK
6
CONTINUOUS
10
3.5816
20
0.960646
11
3.58242
21
0.960035
0
LINE
8
BLACK
6
CONTINUOUS
10
3.58242
20
0.960035
11
3.5826
21
0.95963
0
LINE
8
BLACK
6
CONTINUOUS
10
3.5826
20
0.95963
11
3.58292
21
0.959326
0
LINE
8
BLACK
6
CONTINUOUS
10
3.58292
20
0.959326
11
3.58479
21
0.955576
0
LINE
8
BLACK
6
CONTINUOUS
10
3.58479
20
0.955576
11
3.58509
21
0.954593
0
LINE
8
BLACK
6
CONTINUOUS
10
3.58509
20
0.954593
11
3.58504
21
0.954422
0
LINE
8
BLACK
6
CONTINUOUS
10
3.58504
20
0.954422
11
3.5851
21
0.954256
0
LINE
8
BLACK
6
CONTINUOUS
10
3.5851
20
0.954256
11
3.5851
21
0.952381
0
LINE
8
BLACK
6
CONTINUOUS
10
3.5851
20
0.952381
11
3.58493
21
0.951371
0
LINE
8
BLACK
6
CONTINUOUS
10
3.58493
20
0.951371
11
3.58481
21
0.951236
0
LINE
8
BLACK
6
CONTINUOUS
10
3.58481
20
0.951236
11
3.58479
21
0.95106
0
LINE
8
BLACK
6
CONTINUOUS
10
3.58479
20
0.95106
11
3.58292
21
0.947311
0
LINE
8
BLACK
6
CONTINUOUS
10
3.58292
20
0.947311
11
3.58231
21
0.946487
0
LINE
8
BLACK
6
CONTINUOUS
10
3.58231
20
0.946487
11
3.5819
21
0.946311
0
LINE
8
BLACK
6
CONTINUOUS
10
3.5819
20
0.946311
11
3.5816
21
0.94599
0
LINE
8
BLACK
6
CONTINUOUS
10
3.5816
20
0.94599
11
3.57785
21
0.944116
0
LINE
8
BLACK
6
CONTINUOUS
10
3.57785
20
0.944116
11
3.57687
21
0.943823
0
LINE
8
BLACK
6
CONTINUOUS
10
3.57687
20
0.943823
11
3.57669
21
0.943864
0
LINE
8
BLACK
6
CONTINUOUS
10
3.57669
20
0.943864
11
3.57653
21
0.943804
0
LINE
8
BLACK
6
CONTINUOUS
10
3.57653
20
0.943804
11
3.56903
21
0.943804
0
LINE
8
BLACK
6
CONTINUOUS
10
3.56903
20
0.943804
11
3.56802
21
0.943982
0
LINE
8
BLACK
6
CONTINUOUS
10
3.56802
20
0.943982
11
3.56788
21
0.944095
0
LINE
8
BLACK
6
CONTINUOUS
10
3.56788
20
0.944095
11
3.56771
21
0.944116
0
LINE
8
BLACK
6
CONTINUOUS
10
3.56771
20
0.944116
11
3.56396
21
0.94599
0
LINE
8
BLACK
6
CONTINUOUS
10
3.56396
20
0.94599
11
3.56314
21
0.946601
0
LINE
8
BLACK
6
CONTINUOUS
10
3.56314
20
0.946601
11
3.56233
21
0.948455
0
LINE
8
BLACK
6
CONTINUOUS
10
3.56233
20
0.948455
11
3.56291
21
0.950391
0
LINE
8
BLACK
6
CONTINUOUS
10
3.56291
20
0.950391
11
3.56459
21
0.951503
0
LINE
8
BLACK
6
CONTINUOUS
10
3.56459
20
0.951503
11
3.5666
21
0.951272
0
LINE
8
BLACK
6
CONTINUOUS
10
3.5666
20
0.951272
11
3.56973
21
0.949709
0
LINE
8
BLACK
6
CONTINUOUS
10
3.56973
20
0.949709
11
3.57583
21
0.949709
0
LINE
8
BLACK
6
CONTINUOUS
10
3.57583
20
0.949709
11
3.57808
21
0.950832
0
LINE
8
BLACK
6
CONTINUOUS
10
3.57808
20
0.950832
11
3.5792
21
0.953078
0
LINE
8
BLACK
6
CONTINUOUS
10
3.5792
20
0.953078
11
3.5792
21
0.953559
0
LINE
8
BLACK
6
CONTINUOUS
10
3.5792
20
0.953559
11
3.57808
21
0.955804
0
LINE
8
BLACK
6
CONTINUOUS
10
3.57808
20
0.955804
11
3.57583
21
0.956927
0
LINE
8
BLACK
6
CONTINUOUS
10
3.57583
20
0.956927
11
3.5709
21
0.956927
0
LINE
8
BLACK
6
CONTINUOUS
10
3.5709
20
0.956927
11
3.56989
21
0.957105
0
LINE
8
BLACK
6
CONTINUOUS
10
3.56989
20
0.957105
11
3.56976
21
0.957219
0
LINE
8
BLACK
6
CONTINUOUS
10
3.56976
20
0.957219
11
3.56958
21
0.957239
0
LINE
8
BLACK
6
CONTINUOUS
10
3.56958
20
0.957239
11
3.56583
21
0.959114
0
LINE
8
BLACK
6
CONTINUOUS
10
3.56583
20
0.959114
11
3.56501
21
0.959725
0
LINE
8
BLACK
6
CONTINUOUS
10
3.56501
20
0.959725
11
3.56483
21
0.96013
0
LINE
8
BLACK
6
CONTINUOUS
10
3.56483
20
0.96013
11
3.56451
21
0.960434
0
LINE
8
BLACK
6
CONTINUOUS
10
3.56451
20
0.960434
11
3.56264
21
0.964184
0
LINE
8
BLACK
6
CONTINUOUS
10
3.56264
20
0.964184
11
3.56235
21
0.965167
0
LINE
8
BLACK
6
CONTINUOUS
10
3.56235
20
0.965167
11
3.56239
21
0.965338
0
LINE
8
BLACK
6
CONTINUOUS
10
3.56239
20
0.965338
11
3.56233
21
0.965504
0
LINE
8
BLACK
6
CONTINUOUS
10
3.56233
20
0.965504
11
3.56233
21
0.967379
0
LINE
8
BLACK
6
CONTINUOUS
10
3.56233
20
0.967379
11
3.5625
21
0.968389
0
LINE
8
BLACK
6
CONTINUOUS
10
3.5625
20
0.968389
11
3.56262
21
0.968524
0
LINE
8
BLACK
6
CONTINUOUS
10
3.56262
20
0.968524
11
3.56264
21
0.9687
0
LINE
8
BLACK
6
CONTINUOUS
10
3.56264
20
0.9687
11
3.56451
21
0.972449
0
LINE
8
BLACK
6
CONTINUOUS
10
3.56451
20
0.972449
11
3.56512
21
0.973273
0
LINE
8
BLACK
6
CONTINUOUS
10
3.56512
20
0.973273
11
3.56553
21
0.973449
0
LINE
8
BLACK
6
CONTINUOUS
10
3.56553
20
0.973449
11
3.56583
21
0.97377
0
LINE
8
BLACK
6
CONTINUOUS
10
3.56583
20
0.97377
11
3.56958
21
0.975644
0
LINE
8
BLACK
6
CONTINUOUS
10
3.56958
20
0.975644
11
3.57057
21
0.975937
0
LINE
8
BLACK
6
CONTINUOUS
10
3.57057
20
0.975937
11
3.57074
21
0.975896
0
LINE
8
BLACK
6
CONTINUOUS
10
3.57074
20
0.975896
11
3.5709
21
0.975956
0
LINE
8
BLACK
6
CONTINUOUS
10
3.5709
20
0.975956
11
3.57653
21
0.975956
0
LINE
8
BLACK
6
CONTINUOUS
10
3.57653
20
0.975956
11
3.57754
21
0.975778
0
LINE
8
BLACK
6
CONTINUOUS
10
3.51755
20
0.988901
11
3.51909
21
0.987603
0
LINE
8
BLACK
6
CONTINUOUS
10
3.51909
20
0.987603
11
3.51944
21
0.985614
0
LINE
8
BLACK
6
CONTINUOUS
10
3.51944
20
0.985614
11
3.51843
21
0.983865
0
LINE
8
BLACK
6
CONTINUOUS
10
3.51843
20
0.983865
11
3.51654
21
0.983174
0
LINE
8
BLACK
6
CONTINUOUS
10
3.51654
20
0.983174
11
3.50074
21
0.983174
0
LINE
8
BLACK
6
CONTINUOUS
10
3.50074
20
0.983174
11
3.50074
21
0.970332
0
LINE
8
BLACK
6
CONTINUOUS
10
3.50074
20
0.970332
11
3.51091
21
0.970332
0
LINE
8
BLACK
6
CONTINUOUS
10
3.51091
20
0.970332
11
3.51192
21
0.970154
0
LINE
8
BLACK
6
CONTINUOUS
10
3.51192
20
0.970154
11
3.51347
21
0.968855
0
LINE
8
BLACK
6
CONTINUOUS
10
3.51347
20
0.968855
11
3.51382
21
0.966866
0
LINE
8
BLACK
6
CONTINUOUS
10
3.51382
20
0.966866
11
3.51281
21
0.965117
0
LINE
8
BLACK
6
CONTINUOUS
10
3.51281
20
0.965117
11
3.51091
21
0.964426
0
LINE
8
BLACK
6
CONTINUOUS
10
3.51091
20
0.964426
11
3.50074
21
0.964426
0
LINE
8
BLACK
6
CONTINUOUS
10
3.50074
20
0.964426
11
3.50074
21
0.946757
0
LINE
8
BLACK
6
CONTINUOUS
10
3.50074
20
0.946757
11
3.50056
21
0.945747
0
LINE
8
BLACK
6
CONTINUOUS
10
3.50056
20
0.945747
11
3.49926
21
0.9442
0
LINE
8
BLACK
6
CONTINUOUS
10
3.49926
20
0.9442
11
3.49728
21
0.943849
0
LINE
8
BLACK
6
CONTINUOUS
10
3.49728
20
0.943849
11
3.49553
21
0.944859
0
LINE
8
BLACK
6
CONTINUOUS
10
3.49553
20
0.944859
11
3.49484
21
0.946757
0
LINE
8
BLACK
6
CONTINUOUS
10
3.49484
20
0.946757
11
3.49484
21
0.986127
0
LINE
8
BLACK
6
CONTINUOUS
10
3.49484
20
0.986127
11
3.4949
21
0.98651
0
LINE
8
BLACK
6
CONTINUOUS
10
3.4949
20
0.98651
11
3.49488
21
0.98664
0
LINE
8
BLACK
6
CONTINUOUS
10
3.49488
20
0.98664
11
3.49495
21
0.986753
0
LINE
8
BLACK
6
CONTINUOUS
10
3.49495
20
0.986753
11
3.49501
21
0.987137
0
LINE
8
BLACK
6
CONTINUOUS
10
3.49501
20
0.987137
11
3.49551
21
0.987724
0
LINE
8
BLACK
6
CONTINUOUS
10
3.49551
20
0.987724
11
3.49589
21
0.988389
0
LINE
8
BLACK
6
CONTINUOUS
10
3.49589
20
0.988389
11
3.49614
21
0.98848
0
LINE
8
BLACK
6
CONTINUOUS
10
3.49614
20
0.98848
11
3.49631
21
0.988684
0
LINE
8
BLACK
6
CONTINUOUS
10
3.49631
20
0.988684
11
3.49707
21
0.988817
0
LINE
8
BLACK
6
CONTINUOUS
10
3.49707
20
0.988817
11
3.49779
21
0.98908
0
LINE
8
BLACK
6
CONTINUOUS
10
3.49779
20
0.98908
11
3.51654
21
0.98908
0
LINE
8
BLACK
6
CONTINUOUS
10
3.51654
20
0.98908
11
3.51755
21
0.988901
0
LINE
8
BLACK
6
CONTINUOUS
10
3.35963
20
1.00255
11
3.35906
21
1.00394
0
LINE
8
BLACK
6
CONTINUOUS
10
3.35906
20
1.00394
11
3.35906
21
1.12205
0
LINE
8
BLACK
6
CONTINUOUS
10
3.35906
20
1.12205
11
3.35963
21
1.12344
0
LINE
8
BLACK
6
CONTINUOUS
10
3.35963
20
1.12344
11
3.36102
21
1.12402
0
LINE
8
BLACK
6
CONTINUOUS
10
3.36102
20
1.12402
11
3.75079
21
1.12402
0
LINE
8
BLACK
6
CONTINUOUS
10
3.75079
20
1.12402
11
3.75218
21
1.12344
0
LINE
8
BLACK
6
CONTINUOUS
10
3.75218
20
1.12344
11
3.75276
21
1.12205
0
LINE
8
BLACK
6
CONTINUOUS
10
3.75276
20
1.12205
11
3.75276
21
1.00394
0
LINE
8
BLACK
6
CONTINUOUS
10
3.75276
20
1.00394
11
3.75218
21
1.00255
0
LINE
8
BLACK
6
CONTINUOUS
10
3.75218
20
1.00255
11
3.75079
21
1.00197
0
LINE
8
BLACK
6
CONTINUOUS
10
3.75079
20
1.00197
11
3.36102
21
1.00197
0
LINE
8
BLACK
6
CONTINUOUS
10
3.36102
20
1.00197
11
3.35963
21
1.00255
0
LINE
8
BLACK
6
CONTINUOUS
10
3.36299
20
1.12008
11
3.36299
21
1.00591
0
LINE
8
BLACK
6
CONTINUOUS
10
3.36299
20
1.00591
11
3.74882
21
1.00591
0
LINE
8
BLACK
6
CONTINUOUS
10
3.74882
20
1.00591
11
3.74882
21
1.12008
0
LINE
8
BLACK
6
CONTINUOUS
10
3.74882
20
1.12008
11
3.36299
21
1.12008
0
LINE
8
BLACK
6
CONTINUOUS
10
3.57312
20
1.08743
11
3.57329
21
1.08746
0
LINE
8
BLACK
6
CONTINUOUS
10
3.57329
20
1.08746
11
3.57403
21
1.08703
0
LINE
8
BLACK
6
CONTINUOUS
10
3.57403
20
1.08703
11
3.57482
21
1.08669
0
LINE
8
BLACK
6
CONTINUOUS
10
3.57482
20
1.08669
11
3.57489
21
1.08653
0
LINE
8
BLACK
6
CONTINUOUS
10
3.57489
20
1.08653
11
3.57504
21
1.08645
0
LINE
8
BLACK
6
CONTINUOUS
10
3.57504
20
1.08645
11
3.57533
21
1.08564
0
LINE
8
BLACK
6
CONTINUOUS
10
3.57533
20
1.08564
11
3.57571
21
1.08488
0
LINE
8
BLACK
6
CONTINUOUS
10
3.57571
20
1.08488
11
3.57567
21
1.08471
0
LINE
8
BLACK
6
CONTINUOUS
10
3.57567
20
1.08471
11
3.57573
21
1.08455
0
LINE
8
BLACK
6
CONTINUOUS
10
3.57573
20
1.08455
11
3.57573
21
1.04813
0
LINE
8
BLACK
6
CONTINUOUS
10
3.57573
20
1.04813
11
3.58403
21
1.04813
0
LINE
8
BLACK
6
CONTINUOUS
10
3.58403
20
1.04813
11
3.58504
21
1.04796
0
LINE
8
BLACK
6
CONTINUOUS
10
3.58504
20
1.04796
11
3.58658
21
1.04666
0
LINE
8
BLACK
6
CONTINUOUS
10
3.58658
20
1.04666
11
3.58693
21
1.04467
0
LINE
8
BLACK
6
CONTINUOUS
10
3.58693
20
1.04467
11
3.58592
21
1.04292
0
LINE
8
BLACK
6
CONTINUOUS
10
3.58592
20
1.04292
11
3.58403
21
1.04223
0
LINE
8
BLACK
6
CONTINUOUS
10
3.58403
20
1.04223
11
3.56153
21
1.04223
0
LINE
8
BLACK
6
CONTINUOUS
10
3.56153
20
1.04223
11
3.56052
21
1.04241
0
LINE
8
BLACK
6
CONTINUOUS
10
3.56052
20
1.04241
11
3.55897
21
1.04371
0
LINE
8
BLACK
6
CONTINUOUS
10
3.55897
20
1.04371
11
3.55862
21
1.04569
0
LINE
8
BLACK
6
CONTINUOUS
10
3.55862
20
1.04569
11
3.55963
21
1.04744
0
LINE
8
BLACK
6
CONTINUOUS
10
3.55963
20
1.04744
11
3.56153
21
1.04813
0
LINE
8
BLACK
6
CONTINUOUS
10
3.56153
20
1.04813
11
3.56983
21
1.04813
0
LINE
8
BLACK
6
CONTINUOUS
10
3.56983
20
1.04813
11
3.56983
21
1.07555
0
LINE
8
BLACK
6
CONTINUOUS
10
3.56983
20
1.07555
11
3.56737
21
1.07309
0
LINE
8
BLACK
6
CONTINUOUS
10
3.56737
20
1.07309
11
3.56664
21
1.07258
0
LINE
8
BLACK
6
CONTINUOUS
10
3.56664
20
1.07258
11
3.5666
21
1.07254
0
LINE
8
BLACK
6
CONTINUOUS
10
3.5666
20
1.07254
11
3.56285
21
1.07066
0
LINE
8
BLACK
6
CONTINUOUS
10
3.56285
20
1.07066
11
3.56187
21
1.07037
0
LINE
8
BLACK
6
CONTINUOUS
10
3.56187
20
1.07037
11
3.5599
21
1.07084
0
LINE
8
BLACK
6
CONTINUOUS
10
3.5599
20
1.07084
11
3.5587
21
1.07246
0
LINE
8
BLACK
6
CONTINUOUS
10
3.5587
20
1.07246
11
3.55882
21
1.07448
0
LINE
8
BLACK
6
CONTINUOUS
10
3.55882
20
1.07448
11
3.56021
21
1.07594
0
LINE
8
BLACK
6
CONTINUOUS
10
3.56021
20
1.07594
11
3.56353
21
1.0776
0
LINE
8
BLACK
6
CONTINUOUS
10
3.56353
20
1.0776
11
3.56673
21
1.08081
0
LINE
8
BLACK
6
CONTINUOUS
10
3.56673
20
1.08081
11
3.57032
21
1.08619
0
LINE
8
BLACK
6
CONTINUOUS
10
3.57032
20
1.08619
11
3.57103
21
1.08693
0
LINE
8
BLACK
6
CONTINUOUS
10
3.57103
20
1.08693
11
3.57119
21
1.08698
0
LINE
8
BLACK
6
CONTINUOUS
10
3.57119
20
1.08698
11
3.5713
21
1.08711
0
LINE
8
BLACK
6
CONTINUOUS
10
3.5713
20
1.08711
11
3.57215
21
1.08726
0
LINE
8
BLACK
6
CONTINUOUS
10
3.57215
20
1.08726
11
3.57297
21
1.0875
0
LINE
8
BLACK
6
CONTINUOUS
10
3.57297
20
1.0875
11
3.57312
21
1.08743
0
LINE
8
BLACK
6
CONTINUOUS
10
3.54942
20
1.08733
11
3.55096
21
1.08603
0
LINE
8
BLACK
6
CONTINUOUS
10
3.55096
20
1.08603
11
3.55131
21
1.08404
0
LINE
8
BLACK
6
CONTINUOUS
10
3.55131
20
1.08404
11
3.5503
21
1.08229
0
LINE
8
BLACK
6
CONTINUOUS
10
3.5503
20
1.08229
11
3.54841
21
1.0816
0
LINE
8
BLACK
6
CONTINUOUS
10
3.54841
20
1.0816
11
3.53261
21
1.0816
0
LINE
8
BLACK
6
CONTINUOUS
10
3.53261
20
1.0816
11
3.53261
21
1.06876
0
LINE
8
BLACK
6
CONTINUOUS
10
3.53261
20
1.06876
11
3.54278
21
1.06876
0
LINE
8
BLACK
6
CONTINUOUS
10
3.54278
20
1.06876
11
3.54379
21
1.06858
0
LINE
8
BLACK
6
CONTINUOUS
10
3.54379
20
1.06858
11
3.54534
21
1.06728
0
LINE
8
BLACK
6
CONTINUOUS
10
3.54534
20
1.06728
11
3.54569
21
1.06529
0
LINE
8
BLACK
6
CONTINUOUS
10
3.54569
20
1.06529
11
3.54468
21
1.06354
0
LINE
8
BLACK
6
CONTINUOUS
10
3.54468
20
1.06354
11
3.54278
21
1.06285
0
LINE
8
BLACK
6
CONTINUOUS
10
3.54278
20
1.06285
11
3.53261
21
1.06285
0
LINE
8
BLACK
6
CONTINUOUS
10
3.53261
20
1.06285
11
3.53261
21
1.04518
0
LINE
8
BLACK
6
CONTINUOUS
10
3.53261
20
1.04518
11
3.53243
21
1.04417
0
LINE
8
BLACK
6
CONTINUOUS
10
3.53243
20
1.04417
11
3.53114
21
1.04262
0
LINE
8
BLACK
6
CONTINUOUS
10
3.53114
20
1.04262
11
3.52915
21
1.04227
0
LINE
8
BLACK
6
CONTINUOUS
10
3.52915
20
1.04227
11
3.5274
21
1.04328
0
LINE
8
BLACK
6
CONTINUOUS
10
3.5274
20
1.04328
11
3.52671
21
1.04518
0
LINE
8
BLACK
6
CONTINUOUS
10
3.52671
20
1.04518
11
3.52671
21
1.08455
0
LINE
8
BLACK
6
CONTINUOUS
10
3.52671
20
1.08455
11
3.52677
21
1.08494
0
LINE
8
BLACK
6
CONTINUOUS
10
3.52677
20
1.08494
11
3.52675
21
1.08506
0
LINE
8
BLACK
6
CONTINUOUS
10
3.52675
20
1.08506
11
3.52682
21
1.08518
0
LINE
8
BLACK
6
CONTINUOUS
10
3.52682
20
1.08518
11
3.52688
21
1.08556
0
LINE
8
BLACK
6
CONTINUOUS
10
3.52688
20
1.08556
11
3.52738
21
1.08615
0
LINE
8
BLACK
6
CONTINUOUS
10
3.52738
20
1.08615
11
3.52776
21
1.08681
0
LINE
8
BLACK
6
CONTINUOUS
10
3.52776
20
1.08681
11
3.52801
21
1.08691
0
LINE
8
BLACK
6
CONTINUOUS
10
3.52801
20
1.08691
11
3.52818
21
1.08711
0
LINE
8
BLACK
6
CONTINUOUS
10
3.52818
20
1.08711
11
3.52894
21
1.08724
0
LINE
8
BLACK
6
CONTINUOUS
10
3.52894
20
1.08724
11
3.52966
21
1.0875
0
LINE
8
BLACK
6
CONTINUOUS
10
3.52966
20
1.0875
11
3.54841
21
1.0875
0
LINE
8
BLACK
6
CONTINUOUS
10
3.54841
20
1.0875
11
3.54942
21
1.08733
0
LINE
8
BLACK
6
CONTINUOUS
10
4.30593
20
2.09869
11
4.30579
21
2.09866
0
LINE
8
BLACK
6
CONTINUOUS
10
4.30579
20
2.09866
11
4.30566
21
2.09873
0
LINE
8
BLACK
6
CONTINUOUS
10
4.30566
20
2.09873
11
4.30529
21
2.0988
0
LINE
8
BLACK
6
CONTINUOUS
10
4.30529
20
2.0988
11
4.30472
21
2.09928
0
LINE
8
BLACK
6
CONTINUOUS
10
4.30472
20
2.09928
11
4.30404
21
2.09967
0
LINE
8
BLACK
6
CONTINUOUS
10
4.30404
20
2.09967
11
4.30394
21
2.09993
0
LINE
8
BLACK
6
CONTINUOUS
10
4.30394
20
2.09993
11
4.30374
21
2.1001
0
LINE
8
BLACK
6
CONTINUOUS
10
4.30374
20
2.1001
11
4.30361
21
2.10085
0
LINE
8
BLACK
6
CONTINUOUS
10
4.30361
20
2.10085
11
4.30335
21
2.10157
0
LINE
8
BLACK
6
CONTINUOUS
10
4.30335
20
2.10157
11
4.30335
21
2.29843
0
LINE
8
BLACK
6
CONTINUOUS
10
4.30335
20
2.29843
11
4.30341
21
2.29881
0
LINE
8
BLACK
6
CONTINUOUS
10
4.30341
20
2.29881
11
4.30339
21
2.29894
0
LINE
8
BLACK
6
CONTINUOUS
10
4.30339
20
2.29894
11
4.30346
21
2.29905
0
LINE
8
BLACK
6
CONTINUOUS
10
4.30346
20
2.29905
11
4.30352
21
2.29944
0
LINE
8
BLACK
6
CONTINUOUS
10
4.30352
20
2.29944
11
4.30402
21
2.30004
0
LINE
8
BLACK
6
CONTINUOUS
10
4.30402
20
2.30004
11
4.3044
21
2.30069
0
LINE
8
BLACK
6
CONTINUOUS
10
4.3044
20
2.30069
11
4.30465
21
2.30078
0
LINE
8
BLACK
6
CONTINUOUS
10
4.30465
20
2.30078
11
4.30482
21
2.30099
0
LINE
8
BLACK
6
CONTINUOUS
10
4.30482
20
2.30099
11
4.3056
21
2.30112
0
LINE
8
BLACK
6
CONTINUOUS
10
4.3056
20
2.30112
11
4.3063
21
2.30138
0
LINE
8
BLACK
6
CONTINUOUS
10
4.3063
20
2.30138
11
4.89685
21
2.30138
0
LINE
8
BLACK
6
CONTINUOUS
10
4.89685
20
2.30138
11
4.89723
21
2.30131
0
LINE
8
BLACK
6
CONTINUOUS
10
4.89723
20
2.30131
11
4.89736
21
2.30133
0
LINE
8
BLACK
6
CONTINUOUS
10
4.89736
20
2.30133
11
4.89748
21
2.30127
0
LINE
8
BLACK
6
CONTINUOUS
10
4.89748
20
2.30127
11
4.89786
21
2.3012
0
LINE
8
BLACK
6
CONTINUOUS
10
4.89786
20
2.3012
11
4.89845
21
2.30071
0
LINE
8
BLACK
6
CONTINUOUS
10
4.89845
20
2.30071
11
4.89911
21
2.30032
0
LINE
8
BLACK
6
CONTINUOUS
10
4.89911
20
2.30032
11
4.8992
21
2.30007
0
LINE
8
BLACK
6
CONTINUOUS
10
4.8992
20
2.30007
11
4.89941
21
2.2999
0
LINE
8
BLACK
6
CONTINUOUS
10
4.89941
20
2.2999
11
4.89954
21
2.29915
0
LINE
8
BLACK
6
CONTINUOUS
10
4.89954
20
2.29915
11
4.8998
21
2.29843
0
LINE
8
BLACK
6
CONTINUOUS
10
4.8998
20
2.29843
11
4.8998
21
2.28169
0
LINE
8
BLACK
6
CONTINUOUS
10
4.8998
20
2.28169
11
4.99531
21
2.28169
0
LINE
8
BLACK
6
CONTINUOUS
10
4.99531
20
2.28169
11
4.99568
21
2.28163
0
LINE
8
BLACK
6
CONTINUOUS
10
4.99568
20
2.28163
11
4.99579
21
2.28165
0
LINE
8
BLACK
6
CONTINUOUS
10
4.99579
20
2.28165
11
4.99589
21
2.28159
0
LINE
8
BLACK
6
CONTINUOUS
10
4.99589
20
2.28159
11
4.99632
21
2.28151
0
LINE
8
BLACK
6
CONTINUOUS
10
4.99632
20
2.28151
11
4.99699
21
2.28096
0
LINE
8
BLACK
6
CONTINUOUS
10
4.99699
20
2.28096
11
4.99754
21
2.28064
0
LINE
8
BLACK
6
CONTINUOUS
10
4.99754
20
2.28064
11
4.99762
21
2.28043
0
LINE
8
BLACK
6
CONTINUOUS
10
4.99762
20
2.28043
11
4.99787
21
2.28022
0
LINE
8
BLACK
6
CONTINUOUS
10
4.99787
20
2.28022
11
4.99804
21
2.27927
0
LINE
8
BLACK
6
CONTINUOUS
10
4.99804
20
2.27927
11
4.99823
21
2.27874
0
LINE
8
BLACK
6
CONTINUOUS
10
4.99823
20
2.27874
11
4.99823
21
2.12126
0
LINE
8
BLACK
6
CONTINUOUS
10
4.99823
20
2.12126
11
4.99816
21
2.12088
0
LINE
8
BLACK
6
CONTINUOUS
10
4.99816
20
2.12088
11
4.99819
21
2.12075
0
LINE
8
BLACK
6
CONTINUOUS
10
4.99819
20
2.12075
11
4.99812
21
2.12063
0
LINE
8
BLACK
6
CONTINUOUS
10
4.99812
20
2.12063
11
4.99805
21
2.12025
0
LINE
8
BLACK
6
CONTINUOUS
10
4.99805
20
2.12025
11
4.99756
21
2.11966
0
LINE
8
BLACK
6
CONTINUOUS
10
4.99756
20
2.11966
11
4.99718
21
2.119
0
LINE
8
BLACK
6
CONTINUOUS
10
4.99718
20
2.119
11
4.99693
21
2.11891
0
LINE
8
BLACK
6
CONTINUOUS
10
4.99693
20
2.11891
11
4.99676
21
2.1187
0
LINE
8
BLACK
6
CONTINUOUS
10
4.99676
20
2.1187
11
4.996
21
2.11857
0
LINE
8
BLACK
6
CONTINUOUS
10
4.996
20
2.11857
11
4.99528
21
2.11831
0
LINE
8
BLACK
6
CONTINUOUS
10
4.99528
20
2.11831
11
4.8998
21
2.11831
0
LINE
8
BLACK
6
CONTINUOUS
10
4.8998
20
2.11831
11
4.8998
21
2.10157
0
LINE
8
BLACK
6
CONTINUOUS
10
4.8998
20
2.10157
11
4.89974
21
2.10119
0
LINE
8
BLACK
6
CONTINUOUS
10
4.89974
20
2.10119
11
4.89976
21
2.10106
0
LINE
8
BLACK
6
CONTINUOUS
10
4.89976
20
2.10106
11
4.89969
21
2.10095
0
LINE
8
BLACK
6
CONTINUOUS
10
4.89969
20
2.10095
11
4.89963
21
2.10056
0
LINE
8
BLACK
6
CONTINUOUS
10
4.89963
20
2.10056
11
4.89913
21
2.09998
0
LINE
8
BLACK
6
CONTINUOUS
10
4.89913
20
2.09998
11
4.89875
21
2.09931
0
LINE
8
BLACK
6
CONTINUOUS
10
4.89875
20
2.09931
11
4.8985
21
2.09922
0
LINE
8
BLACK
6
CONTINUOUS
10
4.8985
20
2.09922
11
4.89833
21
2.09902
0
LINE
8
BLACK
6
CONTINUOUS
10
4.89833
20
2.09902
11
4.89757
21
2.09888
0
LINE
8
BLACK
6
CONTINUOUS
10
4.89757
20
2.09888
11
4.89685
21
2.09862
0
LINE
8
BLACK
6
CONTINUOUS
10
4.89685
20
2.09862
11
4.3063
21
2.09862
0
LINE
8
BLACK
6
CONTINUOUS
10
4.3063
20
2.09862
11
4.30593
21
2.09869
0
LINE
8
BLACK
6
CONTINUOUS
10
4.66358
20
2.29547
11
4.66358
21
2.10453
0
LINE
8
BLACK
6
CONTINUOUS
10
4.66358
20
2.10453
11
4.8939
21
2.10453
0
LINE
8
BLACK
6
CONTINUOUS
10
4.8939
20
2.10453
11
4.8939
21
2.11831
0
LINE
8
BLACK
6
CONTINUOUS
10
4.8939
20
2.11831
11
4.85748
21
2.11831
0
LINE
8
BLACK
6
CONTINUOUS
10
4.85748
20
2.11831
11
4.8571
21
2.11837
0
LINE
8
BLACK
6
CONTINUOUS
10
4.8571
20
2.11837
11
4.85697
21
2.11835
0
LINE
8
BLACK
6
CONTINUOUS
10
4.85697
20
2.11835
11
4.85685
21
2.11842
0
LINE
8
BLACK
6
CONTINUOUS
10
4.85685
20
2.11842
11
4.85647
21
2.11849
0
LINE
8
BLACK
6
CONTINUOUS
10
4.85647
20
2.11849
11
4.85588
21
2.11898
0
LINE
8
BLACK
6
CONTINUOUS
10
4.85588
20
2.11898
11
4.85522
21
2.11936
0
LINE
8
BLACK
6
CONTINUOUS
10
4.85522
20
2.11936
11
4.85513
21
2.11961
0
LINE
8
BLACK
6
CONTINUOUS
10
4.85513
20
2.11961
11
4.85492
21
2.11978
0
LINE
8
BLACK
6
CONTINUOUS
10
4.85492
20
2.11978
11
4.85479
21
2.12054
0
LINE
8
BLACK
6
CONTINUOUS
10
4.85479
20
2.12054
11
4.85453
21
2.12126
0
LINE
8
BLACK
6
CONTINUOUS
10
4.85453
20
2.12126
11
4.85453
21
2.13799
0
LINE
8
BLACK
6
CONTINUOUS
10
4.85453
20
2.13799
11
4.73937
21
2.13799
0
LINE
8
BLACK
6
CONTINUOUS
10
4.73937
20
2.13799
11
4.739
21
2.13806
0
LINE
8
BLACK
6
CONTINUOUS
10
4.739
20
2.13806
11
4.73886
21
2.13803
0
LINE
8
BLACK
6
CONTINUOUS
10
4.73886
20
2.13803
11
4.73873
21
2.1381
0
LINE
8
BLACK
6
CONTINUOUS
10
4.73873
20
2.1381
11
4.73836
21
2.13817
0
LINE
8
BLACK
6
CONTINUOUS
10
4.73836
20
2.13817
11
4.73779
21
2.13865
0
LINE
8
BLACK
6
CONTINUOUS
10
4.73779
20
2.13865
11
4.73711
21
2.13904
0
LINE
8
BLACK
6
CONTINUOUS
10
4.73711
20
2.13904
11
4.73701
21
2.1393
0
LINE
8
BLACK
6
CONTINUOUS
10
4.73701
20
2.1393
11
4.73681
21
2.13947
0
LINE
8
BLACK
6
CONTINUOUS
10
4.73681
20
2.13947
11
4.73668
21
2.14022
0
LINE
8
BLACK
6
CONTINUOUS
10
4.73668
20
2.14022
11
4.73642
21
2.14094
0
LINE
8
BLACK
6
CONTINUOUS
10
4.73642
20
2.14094
11
4.73642
21
2.25906
0
LINE
8
BLACK
6
CONTINUOUS
10
4.73642
20
2.25906
11
4.73648
21
2.25944
0
LINE
8
BLACK
6
CONTINUOUS
10
4.73648
20
2.25944
11
4.73646
21
2.25957
0
LINE
8
BLACK
6
CONTINUOUS
10
4.73646
20
2.25957
11
4.73653
21
2.25968
0
LINE
8
BLACK
6
CONTINUOUS
10
4.73653
20
2.25968
11
4.7366
21
2.26007
0
LINE
8
BLACK
6
CONTINUOUS
10
4.7366
20
2.26007
11
4.7371
21
2.26067
0
LINE
8
BLACK
6
CONTINUOUS
10
4.7371
20
2.26067
11
4.73747
21
2.26132
0
LINE
8
BLACK
6
CONTINUOUS
10
4.73747
20
2.26132
11
4.73772
21
2.26141
0
LINE
8
BLACK
6
CONTINUOUS
10
4.73772
20
2.26141
11
4.73789
21
2.26162
0
LINE
8
BLACK
6
CONTINUOUS
10
4.73789
20
2.26162
11
4.73867
21
2.26175
0
LINE
8
BLACK
6
CONTINUOUS
10
4.73867
20
2.26175
11
4.73937
21
2.26201
0
LINE
8
BLACK
6
CONTINUOUS
10
4.73937
20
2.26201
11
4.85453
21
2.26201
0
LINE
8
BLACK
6
CONTINUOUS
10
4.85453
20
2.26201
11
4.85453
21
2.27874
0
LINE
8
BLACK
6
CONTINUOUS
10
4.85453
20
2.27874
11
4.8546
21
2.27912
0
LINE
8
BLACK
6
CONTINUOUS
10
4.8546
20
2.27912
11
4.85457
21
2.27925
0
LINE
8
BLACK
6
CONTINUOUS
10
4.85457
20
2.27925
11
4.85464
21
2.27937
0
LINE
8
BLACK
6
CONTINUOUS
10
4.85464
20
2.27937
11
4.85471
21
2.27975
0
LINE
8
BLACK
6
CONTINUOUS
10
4.85471
20
2.27975
11
4.8552
21
2.28034
0
LINE
8
BLACK
6
CONTINUOUS
10
4.8552
20
2.28034
11
4.85558
21
2.281
0
LINE
8
BLACK
6
CONTINUOUS
10
4.85558
20
2.281
11
4.85583
21
2.28109
0
LINE
8
BLACK
6
CONTINUOUS
10
4.85583
20
2.28109
11
4.856
21
2.2813
0
LINE
8
BLACK
6
CONTINUOUS
10
4.856
20
2.2813
11
4.85676
21
2.28143
0
LINE
8
BLACK
6
CONTINUOUS
10
4.85676
20
2.28143
11
4.85748
21
2.28169
0
LINE
8
BLACK
6
CONTINUOUS
10
4.85748
20
2.28169
11
4.8939
21
2.28169
0
LINE
8
BLACK
6
CONTINUOUS
10
4.8939
20
2.28169
11
4.8939
21
2.29547
0
LINE
8
BLACK
6
CONTINUOUS
10
4.8939
20
2.29547
11
4.66358
21
2.29547
0
LINE
8
BLACK
6
CONTINUOUS
10
4.30925
20
2.29547
11
4.30925
21
2.10453
0
LINE
8
BLACK
6
CONTINUOUS
10
4.30925
20
2.10453
11
4.65768
21
2.10453
0
LINE
8
BLACK
6
CONTINUOUS
10
4.65768
20
2.10453
11
4.65768
21
2.15768
0
LINE
8
BLACK
6
CONTINUOUS
10
4.65768
20
2.15768
11
4.64389
21
2.15768
0
LINE
8
BLACK
6
CONTINUOUS
10
4.64389
20
2.15768
11
4.64389
21
2.12126
0
LINE
8
BLACK
6
CONTINUOUS
10
4.64389
20
2.12126
11
4.64383
21
2.12088
0
LINE
8
BLACK
6
CONTINUOUS
10
4.64383
20
2.12088
11
4.64385
21
2.12075
0
LINE
8
BLACK
6
CONTINUOUS
10
4.64385
20
2.12075
11
4.64378
21
2.12063
0
LINE
8
BLACK
6
CONTINUOUS
10
4.64378
20
2.12063
11
4.64372
21
2.12025
0
LINE
8
BLACK
6
CONTINUOUS
10
4.64372
20
2.12025
11
4.64322
21
2.11966
0
LINE
8
BLACK
6
CONTINUOUS
10
4.64322
20
2.11966
11
4.64284
21
2.119
0
LINE
8
BLACK
6
CONTINUOUS
10
4.64284
20
2.119
11
4.64259
21
2.11891
0
LINE
8
BLACK
6
CONTINUOUS
10
4.64259
20
2.11891
11
4.64242
21
2.1187
0
LINE
8
BLACK
6
CONTINUOUS
10
4.64242
20
2.1187
11
4.64166
21
2.11857
0
LINE
8
BLACK
6
CONTINUOUS
10
4.64166
20
2.11857
11
4.64094
21
2.11831
0
LINE
8
BLACK
6
CONTINUOUS
10
4.64094
20
2.11831
11
4.32598
21
2.11831
0
LINE
8
BLACK
6
CONTINUOUS
10
4.32598
20
2.11831
11
4.3256
21
2.11837
0
LINE
8
BLACK
6
CONTINUOUS
10
4.3256
20
2.11837
11
4.32547
21
2.11835
0
LINE
8
BLACK
6
CONTINUOUS
10
4.32547
20
2.11835
11
4.32535
21
2.11842
0
LINE
8
BLACK
6
CONTINUOUS
10
4.32535
20
2.11842
11
4.32497
21
2.11849
0
LINE
8
BLACK
6
CONTINUOUS
10
4.32497
20
2.11849
11
4.32438
21
2.11898
0
LINE
8
BLACK
6
CONTINUOUS
10
4.32438
20
2.11898
11
4.32372
21
2.11936
0
LINE
8
BLACK
6
CONTINUOUS
10
4.32372
20
2.11936
11
4.32363
21
2.11961
0
LINE
8
BLACK
6
CONTINUOUS
10
4.32363
20
2.11961
11
4.32342
21
2.11978
0
LINE
8
BLACK
6
CONTINUOUS
10
4.32342
20
2.11978
11
4.32329
21
2.12054
0
LINE
8
BLACK
6
CONTINUOUS
10
4.32329
20
2.12054
11
4.32303
21
2.12126
0
LINE
8
BLACK
6
CONTINUOUS
10
4.32303
20
2.12126
11
4.32303
21
2.27874
0
LINE
8
BLACK
6
CONTINUOUS
10
4.32303
20
2.27874
11
4.3231
21
2.27912
0
LINE
8
BLACK
6
CONTINUOUS
10
4.3231
20
2.27912
11
4.32307
21
2.27925
0
LINE
8
BLACK
6
CONTINUOUS
10
4.32307
20
2.27925
11
4.32314
21
2.27937
0
LINE
8
BLACK
6
CONTINUOUS
10
4.32314
20
2.27937
11
4.32321
21
2.27975
0
LINE
8
BLACK
6
CONTINUOUS
10
4.32321
20
2.27975
11
4.3237
21
2.28034
0
LINE
8
BLACK
6
CONTINUOUS
10
4.3237
20
2.28034
11
4.32408
21
2.281
0
LINE
8
BLACK
6
CONTINUOUS
10
4.32408
20
2.281
11
4.32433
21
2.28109
0
LINE
8
BLACK
6
CONTINUOUS
10
4.32433
20
2.28109
11
4.3245
21
2.2813
0
LINE
8
BLACK
6
CONTINUOUS
10
4.3245
20
2.2813
11
4.32526
21
2.28143
0
LINE
8
BLACK
6
CONTINUOUS
10
4.32526
20
2.28143
11
4.32598
21
2.28169
0
LINE
8
BLACK
6
CONTINUOUS
10
4.32598
20
2.28169
11
4.64094
21
2.28169
0
LINE
8
BLACK
6
CONTINUOUS
10
4.64094
20
2.28169
11
4.64132
21
2.28163
0
LINE
8
BLACK
6
CONTINUOUS
10
4.64132
20
2.28163
11
4.64145
21
2.28165
0
LINE
8
BLACK
6
CONTINUOUS
10
4.64145
20
2.28165
11
4.64157
21
2.28158
0
LINE
8
BLACK
6
CONTINUOUS
10
4.64157
20
2.28158
11
4.64195
21
2.28151
0
LINE
8
BLACK
6
CONTINUOUS
10
4.64195
20
2.28151
11
4.64254
21
2.28102
0
LINE
8
BLACK
6
CONTINUOUS
10
4.64254
20
2.28102
11
4.6432
21
2.28064
0
LINE
8
BLACK
6
CONTINUOUS
10
4.6432
20
2.28064
11
4.64329
21
2.28039
0
LINE
8
BLACK
6
CONTINUOUS
10
4.64329
20
2.28039
11
4.6435
21
2.28022
0
LINE
8
BLACK
6
CONTINUOUS
10
4.6435
20
2.28022
11
4.64363
21
2.27946
0
LINE
8
BLACK
6
CONTINUOUS
10
4.64363
20
2.27946
11
4.64389
21
2.27874
0
LINE
8
BLACK
6
CONTINUOUS
10
4.64389
20
2.27874
11
4.64389
21
2.24232
0
LINE
8
BLACK
6
CONTINUOUS
10
4.64389
20
2.24232
11
4.65768
21
2.24232
0
LINE
8
BLACK
6
CONTINUOUS
10
4.65768
20
2.24232
11
4.65768
21
2.29547
0
LINE
8
BLACK
6
CONTINUOUS
10
4.65768
20
2.29547
11
4.30925
21
2.29547
0
LINE
8
BLACK
6
CONTINUOUS
10
4.86043
20
2.27579
11
4.86043
21
2.12421
0
LINE
8
BLACK
6
CONTINUOUS
10
4.86043
20
2.12421
11
4.99233
21
2.12421
0
LINE
8
BLACK
6
CONTINUOUS
10
4.99233
20
2.12421
11
4.99233
21
2.27579
0
LINE
8
BLACK
6
CONTINUOUS
10
4.99233
20
2.27579
11
4.86043
21
2.27579
0
LINE
8
BLACK
6
CONTINUOUS
10
4.32893
20
2.27579
11
4.32893
21
2.12421
0
LINE
8
BLACK
6
CONTINUOUS
10
4.32893
20
2.12421
11
4.63799
21
2.12421
0
LINE
8
BLACK
6
CONTINUOUS
10
4.63799
20
2.12421
11
4.63799
21
2.27579
0
LINE
8
BLACK
6
CONTINUOUS
10
4.63799
20
2.27579
11
4.32893
21
2.27579
0
LINE
8
BLACK
6
CONTINUOUS
10
4.74232
20
2.2561
11
4.74232
21
2.1439
0
LINE
8
BLACK
6
CONTINUOUS
10
4.74232
20
2.1439
11
4.85453
21
2.1439
0
LINE
8
BLACK
6
CONTINUOUS
10
4.85453
20
2.1439
11
4.85453
21
2.2561
0
LINE
8
BLACK
6
CONTINUOUS
10
4.85453
20
2.2561
11
4.74232
21
2.2561
0
LINE
8
BLACK
6
CONTINUOUS
10
4.64389
20
2.23642
11
4.64389
21
2.16358
0
LINE
8
BLACK
6
CONTINUOUS
10
4.64389
20
2.16358
11
4.65768
21
2.16358
0
LINE
8
BLACK
6
CONTINUOUS
10
4.65768
20
2.16358
11
4.65768
21
2.23642
0
LINE
8
BLACK
6
CONTINUOUS
10
4.65768
20
2.23642
11
4.64389
21
2.23642
0
LINE
8
BLACK
6
CONTINUOUS
10
4.97586
20
2.26196
11
4.9761
21
2.262
0
LINE
8
BLACK
6
CONTINUOUS
10
4.9761
20
2.262
11
4.97632
21
2.26188
0
LINE
8
BLACK
6
CONTINUOUS
10
4.97632
20
2.26188
11
4.9766
21
2.26183
0
LINE
8
BLACK
6
CONTINUOUS
10
4.9766
20
2.26183
11
4.97704
21
2.26146
0
LINE
8
BLACK
6
CONTINUOUS
10
4.97704
20
2.26146
11
4.97785
21
2.26099
0
LINE
8
BLACK
6
CONTINUOUS
10
4.97785
20
2.26099
11
4.97796
21
2.26069
0
LINE
8
BLACK
6
CONTINUOUS
10
4.97796
20
2.26069
11
4.97815
21
2.26053
0
LINE
8
BLACK
6
CONTINUOUS
10
4.97815
20
2.26053
11
4.97827
21
2.25985
0
LINE
8
BLACK
6
CONTINUOUS
10
4.97827
20
2.25985
11
4.97854
21
2.25909
0
LINE
8
BLACK
6
CONTINUOUS
10
4.97854
20
2.25909
11
4.97854
21
2.14091
0
LINE
8
BLACK
6
CONTINUOUS
10
4.97854
20
2.14091
11
4.97848
21
2.14054
0
LINE
8
BLACK
6
CONTINUOUS
10
4.97848
20
2.14054
11
4.9785
21
2.14043
0
LINE
8
BLACK
6
CONTINUOUS
10
4.9785
20
2.14043
11
4.97844
21
2.14034
0
LINE
8
BLACK
6
CONTINUOUS
10
4.97844
20
2.14034
11
4.97837
21
2.1399
0
LINE
8
BLACK
6
CONTINUOUS
10
4.97837
20
2.1399
11
4.9778
21
2.13922
0
LINE
8
BLACK
6
CONTINUOUS
10
4.9778
20
2.13922
11
4.97749
21
2.13868
0
LINE
8
BLACK
6
CONTINUOUS
10
4.97749
20
2.13868
11
4.97729
21
2.13861
0
LINE
8
BLACK
6
CONTINUOUS
10
4.97729
20
2.13861
11
4.97707
21
2.13835
0
LINE
8
BLACK
6
CONTINUOUS
10
4.97707
20
2.13835
11
4.9761
21
2.13818
0
LINE
8
BLACK
6
CONTINUOUS
10
4.9761
20
2.13818
11
4.97559
21
2.13799
0
LINE
8
BLACK
6
CONTINUOUS
10
4.97559
20
2.13799
11
4.87717
21
2.13799
0
LINE
8
BLACK
6
CONTINUOUS
10
4.87717
20
2.13799
11
4.8769
21
2.13804
0
LINE
8
BLACK
6
CONTINUOUS
10
4.8769
20
2.13804
11
4.87666
21
2.138
0
LINE
8
BLACK
6
CONTINUOUS
10
4.87666
20
2.138
11
4.87644
21
2.13812
0
LINE
8
BLACK
6
CONTINUOUS
10
4.87644
20
2.13812
11
4.87616
21
2.13817
0
LINE
8
BLACK
6
CONTINUOUS
10
4.87616
20
2.13817
11
4.87572
21
2.13854
0
LINE
8
BLACK
6
CONTINUOUS
10
4.87572
20
2.13854
11
4.87491
21
2.13901
0
LINE
8
BLACK
6
CONTINUOUS
10
4.87491
20
2.13901
11
4.8748
21
2.13931
0
LINE
8
BLACK
6
CONTINUOUS
10
4.8748
20
2.13931
11
4.87461
21
2.13947
0
LINE
8
BLACK
6
CONTINUOUS
10
4.87461
20
2.13947
11
4.87449
21
2.14015
0
LINE
8
BLACK
6
CONTINUOUS
10
4.87449
20
2.14015
11
4.87422
21
2.14091
0
LINE
8
BLACK
6
CONTINUOUS
10
4.87422
20
2.14091
11
4.87422
21
2.25909
0
LINE
8
BLACK
6
CONTINUOUS
10
4.87422
20
2.25909
11
4.87428
21
2.25946
0
LINE
8
BLACK
6
CONTINUOUS
10
4.87428
20
2.25946
11
4.87426
21
2.25957
0
LINE
8
BLACK
6
CONTINUOUS
10
4.87426
20
2.25957
11
4.87432
21
2.25966
0
LINE
8
BLACK
6
CONTINUOUS
10
4.87432
20
2.25966
11
4.87439
21
2.2601
0
LINE
8
BLACK
6
CONTINUOUS
10
4.87439
20
2.2601
11
4.87496
21
2.26078
0
LINE
8
BLACK
6
CONTINUOUS
10
4.87496
20
2.26078
11
4.87527
21
2.26132
0
LINE
8
BLACK
6
CONTINUOUS
10
4.87527
20
2.26132
11
4.87547
21
2.26139
0
LINE
8
BLACK
6
CONTINUOUS
10
4.87547
20
2.26139
11
4.87569
21
2.26165
0
LINE
8
BLACK
6
CONTINUOUS
10
4.87569
20
2.26165
11
4.87666
21
2.26182
0
LINE
8
BLACK
6
CONTINUOUS
10
4.87666
20
2.26182
11
4.87717
21
2.26201
0
LINE
8
BLACK
6
CONTINUOUS
10
4.87717
20
2.26201
11
4.97559
21
2.26201
0
LINE
8
BLACK
6
CONTINUOUS
10
4.97559
20
2.26201
11
4.97586
21
2.26196
0
LINE
8
BLACK
6
CONTINUOUS
10
4.88012
20
2.2561
11
4.88012
21
2.1439
0
LINE
8
BLACK
6
CONTINUOUS
10
4.88012
20
2.1439
11
4.97264
21
2.1439
0
LINE
8
BLACK
6
CONTINUOUS
10
4.97264
20
2.1439
11
4.97264
21
2.2561
0
LINE
8
BLACK
6
CONTINUOUS
10
4.97264
20
2.2561
11
4.88012
21
2.2561
0
LINE
8
BLACK
6
CONTINUOUS
10
4.38093
20
2.18575
11
4.3819
21
2.18569
0
LINE
8
BLACK
6
CONTINUOUS
10
4.3819
20
2.18569
11
4.39047
21
2.18283
0
LINE
8
BLACK
6
CONTINUOUS
10
4.39047
20
2.18283
11
4.39162
21
2.18208
0
LINE
8
BLACK
6
CONTINUOUS
10
4.39162
20
2.18208
11
4.39281
21
2.18139
0
LINE
8
BLACK
6
CONTINUOUS
10
4.39281
20
2.18139
11
4.39853
21
2.17567
0
LINE
8
BLACK
6
CONTINUOUS
10
4.39853
20
2.17567
11
4.39922
21
2.17448
0
LINE
8
BLACK
6
CONTINUOUS
10
4.39922
20
2.17448
11
4.39998
21
2.17333
0
LINE
8
BLACK
6
CONTINUOUS
10
4.39998
20
2.17333
11
4.40283
21
2.16475
0
LINE
8
BLACK
6
CONTINUOUS
10
4.40283
20
2.16475
11
4.40289
21
2.16379
0
LINE
8
BLACK
6
CONTINUOUS
10
4.40289
20
2.16379
11
4.40314
21
2.16286
0
LINE
8
BLACK
6
CONTINUOUS
10
4.40314
20
2.16286
11
4.40314
21
2.15714
0
LINE
8
BLACK
6
CONTINUOUS
10
4.40314
20
2.15714
11
4.40234
21
2.15414
0
LINE
8
BLACK
6
CONTINUOUS
10
4.40234
20
2.15414
11
4.40014
21
2.15195
0
LINE
8
BLACK
6
CONTINUOUS
10
4.40014
20
2.15195
11
4.39714
21
2.15114
0
LINE
8
BLACK
6
CONTINUOUS
10
4.39714
20
2.15114
11
4.39414
21
2.15195
0
LINE
8
BLACK
6
CONTINUOUS
10
4.39414
20
2.15195
11
4.39195
21
2.15414
0
LINE
8
BLACK
6
CONTINUOUS
10
4.39195
20
2.15414
11
4.39114
21
2.15714
0
LINE
8
BLACK
6
CONTINUOUS
10
4.39114
20
2.15714
11
4.39114
21
2.16188
0
LINE
8
BLACK
6
CONTINUOUS
10
4.39114
20
2.16188
11
4.38904
21
2.16819
0
LINE
8
BLACK
6
CONTINUOUS
10
4.38904
20
2.16819
11
4.38533
21
2.1719
0
LINE
8
BLACK
6
CONTINUOUS
10
4.38533
20
2.1719
11
4.37903
21
2.174
0
LINE
8
BLACK
6
CONTINUOUS
10
4.37903
20
2.174
11
4.33714
21
2.174
0
LINE
8
BLACK
6
CONTINUOUS
10
4.33714
20
2.174
11
4.33414
21
2.1748
0
LINE
8
BLACK
6
CONTINUOUS
10
4.33414
20
2.1748
11
4.33195
21
2.177
0
LINE
8
BLACK
6
CONTINUOUS
10
4.33195
20
2.177
11
4.33114
21
2.18
0
LINE
8
BLACK
6
CONTINUOUS
10
4.33114
20
2.18
11
4.33195
21
2.183
0
LINE
8
BLACK
6
CONTINUOUS
10
4.33195
20
2.183
11
4.33414
21
2.1852
0
LINE
8
BLACK
6
CONTINUOUS
10
4.33414
20
2.1852
11
4.33714
21
2.186
0
LINE
8
BLACK
6
CONTINUOUS
10
4.33714
20
2.186
11
4.38
21
2.186
0
LINE
8
BLACK
6
CONTINUOUS
10
4.38
20
2.186
11
4.38093
21
2.18575
0
LINE
8
BLACK
6
CONTINUOUS
10
4.38705
20
2.24564
11
4.3884
21
2.24537
0
LINE
8
BLACK
6
CONTINUOUS
10
4.3884
20
2.24537
11
4.39411
21
2.24251
0
LINE
8
BLACK
6
CONTINUOUS
10
4.39411
20
2.24251
11
4.39483
21
2.24187
0
LINE
8
BLACK
6
CONTINUOUS
10
4.39483
20
2.24187
11
4.39567
21
2.24139
0
LINE
8
BLACK
6
CONTINUOUS
10
4.39567
20
2.24139
11
4.39853
21
2.23853
0
LINE
8
BLACK
6
CONTINUOUS
10
4.39853
20
2.23853
11
4.39901
21
2.23769
0
LINE
8
BLACK
6
CONTINUOUS
10
4.39901
20
2.23769
11
4.39965
21
2.23697
0
LINE
8
BLACK
6
CONTINUOUS
10
4.39965
20
2.23697
11
4.40251
21
2.23125
0
LINE
8
BLACK
6
CONTINUOUS
10
4.40251
20
2.23125
11
4.40279
21
2.2299
0
LINE
8
BLACK
6
CONTINUOUS
10
4.40279
20
2.2299
11
4.40314
21
2.22857
0
LINE
8
BLACK
6
CONTINUOUS
10
4.40314
20
2.22857
11
4.40314
21
2.21429
0
LINE
8
BLACK
6
CONTINUOUS
10
4.40314
20
2.21429
11
4.40279
21
2.21295
0
LINE
8
BLACK
6
CONTINUOUS
10
4.40279
20
2.21295
11
4.40251
21
2.2116
0
LINE
8
BLACK
6
CONTINUOUS
10
4.40251
20
2.2116
11
4.39965
21
2.20589
0
LINE
8
BLACK
6
CONTINUOUS
10
4.39965
20
2.20589
11
4.39901
21
2.20517
0
LINE
8
BLACK
6
CONTINUOUS
10
4.39901
20
2.20517
11
4.39853
21
2.20433
0
LINE
8
BLACK
6
CONTINUOUS
10
4.39853
20
2.20433
11
4.39567
21
2.20147
0
LINE
8
BLACK
6
CONTINUOUS
10
4.39567
20
2.20147
11
4.39298
21
2.19992
0
LINE
8
BLACK
6
CONTINUOUS
10
4.39298
20
2.19992
11
4.38988
21
2.19992
0
LINE
8
BLACK
6
CONTINUOUS
10
4.38988
20
2.19992
11
4.38719
21
2.20147
0
LINE
8
BLACK
6
CONTINUOUS
10
4.38719
20
2.20147
11
4.38563
21
2.20416
0
LINE
8
BLACK
6
CONTINUOUS
10
4.38563
20
2.20416
11
4.38563
21
2.20727
0
LINE
8
BLACK
6
CONTINUOUS
10
4.38563
20
2.20727
11
4.38719
21
2.20996
0
LINE
8
BLACK
6
CONTINUOUS
10
4.38719
20
2.20996
11
4.38935
21
2.21213
0
LINE
8
BLACK
6
CONTINUOUS
10
4.38935
20
2.21213
11
4.39114
21
2.2157
0
LINE
8
BLACK
6
CONTINUOUS
10
4.39114
20
2.2157
11
4.39114
21
2.22716
0
LINE
8
BLACK
6
CONTINUOUS
10
4.39114
20
2.22716
11
4.38935
21
2.23073
0
LINE
8
BLACK
6
CONTINUOUS
10
4.38935
20
2.23073
11
4.38787
21
2.23221
0
LINE
8
BLACK
6
CONTINUOUS
10
4.38787
20
2.23221
11
4.3843
21
2.234
0
LINE
8
BLACK
6
CONTINUOUS
10
4.3843
20
2.234
11
4.37284
21
2.234
0
LINE
8
BLACK
6
CONTINUOUS
10
4.37284
20
2.234
11
4.36927
21
2.23221
0
LINE
8
BLACK
6
CONTINUOUS
10
4.36927
20
2.23221
11
4.36779
21
2.23073
0
LINE
8
BLACK
6
CONTINUOUS
10
4.36779
20
2.23073
11
4.366
21
2.22716
0
LINE
8
BLACK
6
CONTINUOUS
10
4.366
20
2.22716
11
4.366
21
2.2157
0
LINE
8
BLACK
6
CONTINUOUS
10
4.366
20
2.2157
11
4.36779
21
2.21213
0
LINE
8
BLACK
6
CONTINUOUS
10
4.36779
20
2.21213
11
4.36996
21
2.20996
0
LINE
8
BLACK
6
CONTINUOUS
10
4.36996
20
2.20996
11
4.3705
21
2.20902
0
LINE
8
BLACK
6
CONTINUOUS
10
4.3705
20
2.20902
11
4.37118
21
2.20818
0
LINE
8
BLACK
6
CONTINUOUS
10
4.37118
20
2.20818
11
4.37126
21
2.20769
0
LINE
8
BLACK
6
CONTINUOUS
10
4.37126
20
2.20769
11
4.37151
21
2.20727
0
LINE
8
BLACK
6
CONTINUOUS
10
4.37151
20
2.20727
11
4.37151
21
2.20619
0
LINE
8
BLACK
6
CONTINUOUS
10
4.37151
20
2.20619
11
4.37168
21
2.20512
0
LINE
8
BLACK
6
CONTINUOUS
10
4.37168
20
2.20512
11
4.37151
21
2.20466
0
LINE
8
BLACK
6
CONTINUOUS
10
4.37151
20
2.20466
11
4.37151
21
2.20416
0
LINE
8
BLACK
6
CONTINUOUS
10
4.37151
20
2.20416
11
4.37097
21
2.20322
0
LINE
8
BLACK
6
CONTINUOUS
10
4.37097
20
2.20322
11
4.37059
21
2.20221
0
LINE
8
BLACK
6
CONTINUOUS
10
4.37059
20
2.20221
11
4.3702
21
2.2019
0
LINE
8
BLACK
6
CONTINUOUS
10
4.3702
20
2.2019
11
4.36996
21
2.20147
0
LINE
8
BLACK
6
CONTINUOUS
10
4.36996
20
2.20147
11
4.36902
21
2.20093
0
LINE
8
BLACK
6
CONTINUOUS
10
4.36902
20
2.20093
11
4.36818
21
2.20025
0
LINE
8
BLACK
6
CONTINUOUS
10
4.36818
20
2.20025
11
4.36769
21
2.20017
0
LINE
8
BLACK
6
CONTINUOUS
10
4.36769
20
2.20017
11
4.36727
21
2.19992
0
LINE
8
BLACK
6
CONTINUOUS
10
4.36727
20
2.19992
11
4.36619
21
2.19992
0
LINE
8
BLACK
6
CONTINUOUS
10
4.36619
20
2.19992
11
4.36512
21
2.19974
0
LINE
8
BLACK
6
CONTINUOUS
10
4.36512
20
2.19974
11
4.33655
21
2.2026
0
LINE
8
BLACK
6
CONTINUOUS
10
4.33655
20
2.2026
11
4.33536
21
2.20305
0
LINE
8
BLACK
6
CONTINUOUS
10
4.33536
20
2.20305
11
4.33414
21
2.20338
0
LINE
8
BLACK
6
CONTINUOUS
10
4.33414
20
2.20338
11
4.33393
21
2.20359
0
LINE
8
BLACK
6
CONTINUOUS
10
4.33393
20
2.20359
11
4.33364
21
2.2037
0
LINE
8
BLACK
6
CONTINUOUS
10
4.33364
20
2.2037
11
4.33284
21
2.20468
0
LINE
8
BLACK
6
CONTINUOUS
10
4.33284
20
2.20468
11
4.33195
21
2.20557
0
LINE
8
BLACK
6
CONTINUOUS
10
4.33195
20
2.20557
11
4.33187
21
2.20587
0
LINE
8
BLACK
6
CONTINUOUS
10
4.33187
20
2.20587
11
4.33167
21
2.2061
0
LINE
8
BLACK
6
CONTINUOUS
10
4.33167
20
2.2061
11
4.33147
21
2.20735
0
LINE
8
BLACK
6
CONTINUOUS
10
4.33147
20
2.20735
11
4.33114
21
2.20857
0
LINE
8
BLACK
6
CONTINUOUS
10
4.33114
20
2.20857
11
4.33114
21
2.23714
0
LINE
8
BLACK
6
CONTINUOUS
10
4.33114
20
2.23714
11
4.33195
21
2.24014
0
LINE
8
BLACK
6
CONTINUOUS
10
4.33195
20
2.24014
11
4.33414
21
2.24234
0
LINE
8
BLACK
6
CONTINUOUS
10
4.33414
20
2.24234
11
4.33714
21
2.24314
0
LINE
8
BLACK
6
CONTINUOUS
10
4.33714
20
2.24314
11
4.34014
21
2.24234
0
LINE
8
BLACK
6
CONTINUOUS
10
4.34014
20
2.24234
11
4.34234
21
2.24014
0
LINE
8
BLACK
6
CONTINUOUS
10
4.34234
20
2.24014
11
4.34314
21
2.23714
0
LINE
8
BLACK
6
CONTINUOUS
10
4.34314
20
2.23714
11
4.34314
21
2.214
0
LINE
8
BLACK
6
CONTINUOUS
10
4.34314
20
2.214
11
4.35437
21
2.21288
0
LINE
8
BLACK
6
CONTINUOUS
10
4.35437
20
2.21288
11
4.35436
21
2.21295
0
LINE
8
BLACK
6
CONTINUOUS
10
4.35436
20
2.21295
11
4.354
21
2.21429
0
LINE
8
BLACK
6
CONTINUOUS
10
4.354
20
2.21429
11
4.354
21
2.22857
0
LINE
8
BLACK
6
CONTINUOUS
10
4.354
20
2.22857
11
4.35436
21
2.2299
0
LINE
8
BLACK
6
CONTINUOUS
10
4.35436
20
2.2299
11
4.35463
21
2.23125
0
LINE
8
BLACK
6
CONTINUOUS
10
4.35463
20
2.23125
11
4.35749
21
2.23697
0
LINE
8
BLACK
6
CONTINUOUS
10
4.35749
20
2.23697
11
4.35813
21
2.23769
0
LINE
8
BLACK
6
CONTINUOUS
10
4.35813
20
2.23769
11
4.35861
21
2.23853
0
LINE
8
BLACK
6
CONTINUOUS
10
4.35861
20
2.23853
11
4.36147
21
2.24139
0
LINE
8
BLACK
6
CONTINUOUS
10
4.36147
20
2.24139
11
4.36231
21
2.24187
0
LINE
8
BLACK
6
CONTINUOUS
10
4.36231
20
2.24187
11
4.36303
21
2.24251
0
LINE
8
BLACK
6
CONTINUOUS
10
4.36303
20
2.24251
11
4.36875
21
2.24537
0
LINE
8
BLACK
6
CONTINUOUS
10
4.36875
20
2.24537
11
4.3701
21
2.24564
0
LINE
8
BLACK
6
CONTINUOUS
10
4.3701
20
2.24564
11
4.37143
21
2.246
0
LINE
8
BLACK
6
CONTINUOUS
10
4.37143
20
2.246
11
4.38571
21
2.246
0
LINE
8
BLACK
6
CONTINUOUS
10
4.38571
20
2.246
11
4.38705
21
2.24564
0
LINE
8
BLACK
6
CONTINUOUS
10
3.80593
20
2.59869
11
3.80579
21
2.59866
0
LINE
8
BLACK
6
CONTINUOUS
10
3.80579
20
2.59866
11
3.80566
21
2.59873
0
LINE
8
BLACK
6
CONTINUOUS
10
3.80566
20
2.59873
11
3.80529
21
2.5988
0
LINE
8
BLACK
6
CONTINUOUS
10
3.80529
20
2.5988
11
3.80472
21
2.59928
0
LINE
8
BLACK
6
CONTINUOUS
10
3.80472
20
2.59928
11
3.80404
21
2.59967
0
LINE
8
BLACK
6
CONTINUOUS
10
3.80404
20
2.59967
11
3.80394
21
2.59993
0
LINE
8
BLACK
6
CONTINUOUS
10
3.80394
20
2.59993
11
3.80374
21
2.6001
0
LINE
8
BLACK
6
CONTINUOUS
10
3.80374
20
2.6001
11
3.80361
21
2.60085
0
LINE
8
BLACK
6
CONTINUOUS
10
3.80361
20
2.60085
11
3.80335
21
2.60157
0
LINE
8
BLACK
6
CONTINUOUS
10
3.80335
20
2.60157
11
3.80335
21
2.79843
0
LINE
8
BLACK
6
CONTINUOUS
10
3.80335
20
2.79843
11
3.80341
21
2.79881
0
LINE
8
BLACK
6
CONTINUOUS
10
3.80341
20
2.79881
11
3.80339
21
2.79894
0
LINE
8
BLACK
6
CONTINUOUS
10
3.80339
20
2.79894
11
3.80346
21
2.79905
0
LINE
8
BLACK
6
CONTINUOUS
10
3.80346
20
2.79905
11
3.80352
21
2.79944
0
LINE
8
BLACK
6
CONTINUOUS
10
3.80352
20
2.79944
11
3.80402
21
2.80004
0
LINE
8
BLACK
6
CONTINUOUS
10
3.80402
20
2.80004
11
3.8044
21
2.80069
0
LINE
8
BLACK
6
CONTINUOUS
10
3.8044
20
2.80069
11
3.80465
21
2.80078
0
LINE
8
BLACK
6
CONTINUOUS
10
3.80465
20
2.80078
11
3.80482
21
2.80099
0
LINE
8
BLACK
6
CONTINUOUS
10
3.80482
20
2.80099
11
3.8056
21
2.80112
0
LINE
8
BLACK
6
CONTINUOUS
10
3.8056
20
2.80112
11
3.8063
21
2.80138
0
LINE
8
BLACK
6
CONTINUOUS
10
3.8063
20
2.80138
11
4.39685
21
2.80138
0
LINE
8
BLACK
6
CONTINUOUS
10
4.39685
20
2.80138
11
4.39723
21
2.80131
0
LINE
8
BLACK
6
CONTINUOUS
10
4.39723
20
2.80131
11
4.39736
21
2.80133
0
LINE
8
BLACK
6
CONTINUOUS
10
4.39736
20
2.80133
11
4.39748
21
2.80127
0
LINE
8
BLACK
6
CONTINUOUS
10
4.39748
20
2.80127
11
4.39786
21
2.8012
0
LINE
8
BLACK
6
CONTINUOUS
10
4.39786
20
2.8012
11
4.39845
21
2.80071
0
LINE
8
BLACK
6
CONTINUOUS
10
4.39845
20
2.80071
11
4.39911
21
2.80032
0
LINE
8
BLACK
6
CONTINUOUS
10
4.39911
20
2.80032
11
4.3992
21
2.80007
0
LINE
8
BLACK
6
CONTINUOUS
10
4.3992
20
2.80007
11
4.39941
21
2.7999
0
LINE
8
BLACK
6
CONTINUOUS
10
4.39941
20
2.7999
11
4.39954
21
2.79915
0
LINE
8
BLACK
6
CONTINUOUS
10
4.39954
20
2.79915
11
4.3998
21
2.79843
0
LINE
8
BLACK
6
CONTINUOUS
10
4.3998
20
2.79843
11
4.3998
21
2.78169
0
LINE
8
BLACK
6
CONTINUOUS
10
4.3998
20
2.78169
11
4.49531
21
2.78169
0
LINE
8
BLACK
6
CONTINUOUS
10
4.49531
20
2.78169
11
4.49568
21
2.78163
0
LINE
8
BLACK
6
CONTINUOUS
10
4.49568
20
2.78163
11
4.49579
21
2.78165
0
LINE
8
BLACK
6
CONTINUOUS
10
4.49579
20
2.78165
11
4.49589
21
2.78159
0
LINE
8
BLACK
6
CONTINUOUS
10
4.49589
20
2.78159
11
4.49632
21
2.78151
0
LINE
8
BLACK
6
CONTINUOUS
10
4.49632
20
2.78151
11
4.49699
21
2.78096
0
LINE
8
BLACK
6
CONTINUOUS
10
4.49699
20
2.78096
11
4.49754
21
2.78064
0
LINE
8
BLACK
6
CONTINUOUS
10
4.49754
20
2.78064
11
4.49762
21
2.78043
0
LINE
8
BLACK
6
CONTINUOUS
10
4.49762
20
2.78043
11
4.49787
21
2.78022
0
LINE
8
BLACK
6
CONTINUOUS
10
4.49787
20
2.78022
11
4.49804
21
2.77927
0
LINE
8
BLACK
6
CONTINUOUS
10
4.49804
20
2.77927
11
4.49823
21
2.77874
0
LINE
8
BLACK
6
CONTINUOUS
10
4.49823
20
2.77874
11
4.49823
21
2.62126
0
LINE
8
BLACK
6
CONTINUOUS
10
4.49823
20
2.62126
11
4.49816
21
2.62088
0
LINE
8
BLACK
6
CONTINUOUS
10
4.49816
20
2.62088
11
4.49819
21
2.62075
0
LINE
8
BLACK
6
CONTINUOUS
10
4.49819
20
2.62075
11
4.49812
21
2.62063
0
LINE
8
BLACK
6
CONTINUOUS
10
4.49812
20
2.62063
11
4.49805
21
2.62025
0
LINE
8
BLACK
6
CONTINUOUS
10
4.49805
20
2.62025
11
4.49756
21
2.61966
0
LINE
8
BLACK
6
CONTINUOUS
10
4.49756
20
2.61966
11
4.49718
21
2.619
0
LINE
8
BLACK
6
CONTINUOUS
10
4.49718
20
2.619
11
4.49693
21
2.61891
0
LINE
8
BLACK
6
CONTINUOUS
10
4.49693
20
2.61891
11
4.49676
21
2.6187
0
LINE
8
BLACK
6
CONTINUOUS
10
4.49676
20
2.6187
11
4.496
21
2.61857
0
LINE
8
BLACK
6
CONTINUOUS
10
4.496
20
2.61857
11
4.49528
21
2.61831
0
LINE
8
BLACK
6
CONTINUOUS
10
4.49528
20
2.61831
11
4.3998
21
2.61831
0
LINE
8
BLACK
6
CONTINUOUS
10
4.3998
20
2.61831
11
4.3998
21
2.60157
0
LINE
8
BLACK
6
CONTINUOUS
10
4.3998
20
2.60157
11
4.39974
21
2.60119
0
LINE
8
BLACK
6
CONTINUOUS
10
4.39974
20
2.60119
11
4.39976
21
2.60106
0
LINE
8
BLACK
6
CONTINUOUS
10
4.39976
20
2.60106
11
4.39969
21
2.60095
0
LINE
8
BLACK
6
CONTINUOUS
10
4.39969
20
2.60095
11
4.39963
21
2.60056
0
LINE
8
BLACK
6
CONTINUOUS
10
4.39963
20
2.60056
11
4.39913
21
2.59998
0
LINE
8
BLACK
6
CONTINUOUS
10
4.39913
20
2.59998
11
4.39875
21
2.59931
0
LINE
8
BLACK
6
CONTINUOUS
10
4.39875
20
2.59931
11
4.3985
21
2.59922
0
LINE
8
BLACK
6
CONTINUOUS
10
4.3985
20
2.59922
11
4.39833
21
2.59902
0
LINE
8
BLACK
6
CONTINUOUS
10
4.39833
20
2.59902
11
4.39757
21
2.59888
0
LINE
8
BLACK
6
CONTINUOUS
10
4.39757
20
2.59888
11
4.39685
21
2.59862
0
LINE
8
BLACK
6
CONTINUOUS
10
4.39685
20
2.59862
11
3.8063
21
2.59862
0
LINE
8
BLACK
6
CONTINUOUS
10
3.8063
20
2.59862
11
3.80593
21
2.59869
0
LINE
8
BLACK
6
CONTINUOUS
10
4.16358
20
2.79547
11
4.16358
21
2.60453
0
LINE
8
BLACK
6
CONTINUOUS
10
4.16358
20
2.60453
11
4.3939
21
2.60453
0
LINE
8
BLACK
6
CONTINUOUS
10
4.3939
20
2.60453
11
4.3939
21
2.61831
0
LINE
8
BLACK
6
CONTINUOUS
10
4.3939
20
2.61831
11
4.35748
21
2.61831
0
LINE
8
BLACK
6
CONTINUOUS
10
4.35748
20
2.61831
11
4.3571
21
2.61837
0
LINE
8
BLACK
6
CONTINUOUS
10
4.3571
20
2.61837
11
4.35697
21
2.61835
0
LINE
8
BLACK
6
CONTINUOUS
10
4.35697
20
2.61835
11
4.35685
21
2.61842
0
LINE
8
BLACK
6
CONTINUOUS
10
4.35685
20
2.61842
11
4.35647
21
2.61849
0
LINE
8
BLACK
6
CONTINUOUS
10
4.35647
20
2.61849
11
4.35588
21
2.61898
0
LINE
8
BLACK
6
CONTINUOUS
10
4.35588
20
2.61898
11
4.35522
21
2.61936
0
LINE
8
BLACK
6
CONTINUOUS
10
4.35522
20
2.61936
11
4.35513
21
2.61961
0
LINE
8
BLACK
6
CONTINUOUS
10
4.35513
20
2.61961
11
4.35492
21
2.61978
0
LINE
8
BLACK
6
CONTINUOUS
10
4.35492
20
2.61978
11
4.35479
21
2.62054
0
LINE
8
BLACK
6
CONTINUOUS
10
4.35479
20
2.62054
11
4.35453
21
2.62126
0
LINE
8
BLACK
6
CONTINUOUS
10
4.35453
20
2.62126
11
4.35453
21
2.63799
0
LINE
8
BLACK
6
CONTINUOUS
10
4.35453
20
2.63799
11
4.23937
21
2.63799
0
LINE
8
BLACK
6
CONTINUOUS
10
4.23937
20
2.63799
11
4.239
21
2.63806
0
LINE
8
BLACK
6
CONTINUOUS
10
4.239
20
2.63806
11
4.23886
21
2.63803
0
LINE
8
BLACK
6
CONTINUOUS
10
4.23886
20
2.63803
11
4.23873
21
2.6381
0
LINE
8
BLACK
6
CONTINUOUS
10
4.23873
20
2.6381
11
4.23836
21
2.63817
0
LINE
8
BLACK
6
CONTINUOUS
10
4.23836
20
2.63817
11
4.23779
21
2.63865
0
LINE
8
BLACK
6
CONTINUOUS
10
4.23779
20
2.63865
11
4.23711
21
2.63904
0
LINE
8
BLACK
6
CONTINUOUS
10
4.23711
20
2.63904
11
4.23701
21
2.6393
0
LINE
8
BLACK
6
CONTINUOUS
10
4.23701
20
2.6393
11
4.23681
21
2.63947
0
LINE
8
BLACK
6
CONTINUOUS
10
4.23681
20
2.63947
11
4.23668
21
2.64022
0
LINE
8
BLACK
6
CONTINUOUS
10
4.23668
20
2.64022
11
4.23642
21
2.64094
0
LINE
8
BLACK
6
CONTINUOUS
10
4.23642
20
2.64094
11
4.23642
21
2.75906
0
LINE
8
BLACK
6
CONTINUOUS
10
4.23642
20
2.75906
11
4.23648
21
2.75944
0
LINE
8
BLACK
6
CONTINUOUS
10
4.23648
20
2.75944
11
4.23646
21
2.75957
0
LINE
8
BLACK
6
CONTINUOUS
10
4.23646
20
2.75957
11
4.23653
21
2.75968
0
LINE
8
BLACK
6
CONTINUOUS
10
4.23653
20
2.75968
11
4.2366
21
2.76007
0
LINE
8
BLACK
6
CONTINUOUS
10
4.2366
20
2.76007
11
4.2371
21
2.76067
0
LINE
8
BLACK
6
CONTINUOUS
10
4.2371
20
2.76067
11
4.23747
21
2.76132
0
LINE
8
BLACK
6
CONTINUOUS
10
4.23747
20
2.76132
11
4.23772
21
2.76141
0
LINE
8
BLACK
6
CONTINUOUS
10
4.23772
20
2.76141
11
4.23789
21
2.76162
0
LINE
8
BLACK
6
CONTINUOUS
10
4.23789
20
2.76162
11
4.23867
21
2.76175
0
LINE
8
BLACK
6
CONTINUOUS
10
4.23867
20
2.76175
11
4.23937
21
2.76201
0
LINE
8
BLACK
6
CONTINUOUS
10
4.23937
20
2.76201
11
4.35453
21
2.76201
0
LINE
8
BLACK
6
CONTINUOUS
10
4.35453
20
2.76201
11
4.35453
21
2.77874
0
LINE
8
BLACK
6
CONTINUOUS
10
4.35453
20
2.77874
11
4.3546
21
2.77912
0
LINE
8
BLACK
6
CONTINUOUS
10
4.3546
20
2.77912
11
4.35457
21
2.77925
0
LINE
8
BLACK
6
CONTINUOUS
10
4.35457
20
2.77925
11
4.35464
21
2.77937
0
LINE
8
BLACK
6
CONTINUOUS
10
4.35464
20
2.77937
11
4.35471
21
2.77975
0
LINE
8
BLACK
6
CONTINUOUS
10
4.35471
20
2.77975
11
4.3552
21
2.78034
0
LINE
8
BLACK
6
CONTINUOUS
10
4.3552
20
2.78034
11
4.35558
21
2.781
0
LINE
8
BLACK
6
CONTINUOUS
10
4.35558
20
2.781
11
4.35583
21
2.78109
0
LINE
8
BLACK
6
CONTINUOUS
10
4.35583
20
2.78109
11
4.356
21
2.7813
0
LINE
8
BLACK
6
CONTINUOUS
10
4.356
20
2.7813
11
4.35676
21
2.78143
0
LINE
8
BLACK
6
CONTINUOUS
10
4.35676
20
2.78143
11
4.35748
21
2.78169
0
LINE
8
BLACK
6
CONTINUOUS
10
4.35748
20
2.78169
11
4.3939
21
2.78169
0
LINE
8
BLACK
6
CONTINUOUS
10
4.3939
20
2.78169
11
4.3939
21
2.79547
0
LINE
8
BLACK
6
CONTINUOUS
10
4.3939
20
2.79547
11
4.16358
21
2.79547
0
LINE
8
BLACK
6
CONTINUOUS
10
3.80925
20
2.79547
11
3.80925
21
2.60453
0
LINE
8
BLACK
6
CONTINUOUS
10
3.80925
20
2.60453
11
4.15768
21
2.60453
0
LINE
8
BLACK
6
CONTINUOUS
10
4.15768
20
2.60453
11
4.15768
21
2.65768
0
LINE
8
BLACK
6
CONTINUOUS
10
4.15768
20
2.65768
11
4.14389
21
2.65768
0
LINE
8
BLACK
6
CONTINUOUS
10
4.14389
20
2.65768
11
4.14389
21
2.62126
0
LINE
8
BLACK
6
CONTINUOUS
10
4.14389
20
2.62126
11
4.14383
21
2.62088
0
LINE
8
BLACK
6
CONTINUOUS
10
4.14383
20
2.62088
11
4.14385
21
2.62075
0
LINE
8
BLACK
6
CONTINUOUS
10
4.14385
20
2.62075
11
4.14378
21
2.62063
0
LINE
8
BLACK
6
CONTINUOUS
10
4.14378
20
2.62063
11
4.14372
21
2.62025
0
LINE
8
BLACK
6
CONTINUOUS
10
4.14372
20
2.62025
11
4.14322
21
2.61966
0
LINE
8
BLACK
6
CONTINUOUS
10
4.14322
20
2.61966
11
4.14284
21
2.619
0
LINE
8
BLACK
6
CONTINUOUS
10
4.14284
20
2.619
11
4.14259
21
2.61891
0
LINE
8
BLACK
6
CONTINUOUS
10
4.14259
20
2.61891
11
4.14242
21
2.6187
0
LINE
8
BLACK
6
CONTINUOUS
10
4.14242
20
2.6187
11
4.14166
21
2.61857
0
LINE
8
BLACK
6
CONTINUOUS
10
4.14166
20
2.61857
11
4.14094
21
2.61831
0
LINE
8
BLACK
6
CONTINUOUS
10
4.14094
20
2.61831
11
3.82598
21
2.61831
0
LINE
8
BLACK
6
CONTINUOUS
10
3.82598
20
2.61831
11
3.8256
21
2.61837
0
LINE
8
BLACK
6
CONTINUOUS
10
3.8256
20
2.61837
11
3.82547
21
2.61835
0
LINE
8
BLACK
6
CONTINUOUS
10
3.82547
20
2.61835
11
3.82535
21
2.61842
0
LINE
8
BLACK
6
CONTINUOUS
10
3.82535
20
2.61842
11
3.82497
21
2.61849
0
LINE
8
BLACK
6
CONTINUOUS
10
3.82497
20
2.61849
11
3.82438
21
2.61898
0
LINE
8
BLACK
6
CONTINUOUS
10
3.82438
20
2.61898
11
3.82372
21
2.61936
0
LINE
8
BLACK
6
CONTINUOUS
10
3.82372
20
2.61936
11
3.82363
21
2.61961
0
LINE
8
BLACK
6
CONTINUOUS
10
3.82363
20
2.61961
11
3.82342
21
2.61978
0
LINE
8
BLACK
6
CONTINUOUS
10
3.82342
20
2.61978
11
3.82329
21
2.62054
0
LINE
8
BLACK
6
CONTINUOUS
10
3.82329
20
2.62054
11
3.82303
21
2.62126
0
LINE
8
BLACK
6
CONTINUOUS
10
3.82303
20
2.62126
11
3.82303
21
2.77874
0
LINE
8
BLACK
6
CONTINUOUS
10
3.82303
20
2.77874
11
3.8231
21
2.77912
0
LINE
8
BLACK
6
CONTINUOUS
10
3.8231
20
2.77912
11
3.82307
21
2.77925
0
LINE
8
BLACK
6
CONTINUOUS
10
3.82307
20
2.77925
11
3.82314
21
2.77937
0
LINE
8
BLACK
6
CONTINUOUS
10
3.82314
20
2.77937
11
3.82321
21
2.77975
0
LINE
8
BLACK
6
CONTINUOUS
10
3.82321
20
2.77975
11
3.8237
21
2.78034
0
LINE
8
BLACK
6
CONTINUOUS
10
3.8237
20
2.78034
11
3.82408
21
2.781
0
LINE
8
BLACK
6
CONTINUOUS
10
3.82408
20
2.781
11
3.82433
21
2.78109
0
LINE
8
BLACK
6
CONTINUOUS
10
3.82433
20
2.78109
11
3.8245
21
2.7813
0
LINE
8
BLACK
6
CONTINUOUS
10
3.8245
20
2.7813
11
3.82526
21
2.78143
0
LINE
8
BLACK
6
CONTINUOUS
10
3.82526
20
2.78143
11
3.82598
21
2.78169
0
LINE
8
BLACK
6
CONTINUOUS
10
3.82598
20
2.78169
11
4.14094
21
2.78169
0
LINE
8
BLACK
6
CONTINUOUS
10
4.14094
20
2.78169
11
4.14132
21
2.78163
0
LINE
8
BLACK
6
CONTINUOUS
10
4.14132
20
2.78163
11
4.14145
21
2.78165
0
LINE
8
BLACK
6
CONTINUOUS
10
4.14145
20
2.78165
11
4.14157
21
2.78158
0
LINE
8
BLACK
6
CONTINUOUS
10
4.14157
20
2.78158
11
4.14195
21
2.78151
0
LINE
8
BLACK
6
CONTINUOUS
10
4.14195
20
2.78151
11
4.14254
21
2.78102
0
LINE
8
BLACK
6
CONTINUOUS
10
4.14254
20
2.78102
11
4.1432
21
2.78064
0
LINE
8
BLACK
6
CONTINUOUS
10
4.1432
20
2.78064
11
4.14329
21
2.78039
0
LINE
8
BLACK
6
CONTINUOUS
10
4.14329
20
2.78039
11
4.1435
21
2.78022
0
LINE
8
BLACK
6
CONTINUOUS
10
4.1435
20
2.78022
11
4.14363
21
2.77946
0
LINE
8
BLACK
6
CONTINUOUS
10
4.14363
20
2.77946
11
4.14389
21
2.77874
0
LINE
8
BLACK
6
CONTINUOUS
10
4.14389
20
2.77874
11
4.14389
21
2.74232
0
LINE
8
BLACK
6
CONTINUOUS
10
4.14389
20
2.74232
11
4.15768
21
2.74232
0
LINE
8
BLACK
6
CONTINUOUS
10
4.15768
20
2.74232
11
4.15768
21
2.79547
0
LINE
8
BLACK
6
CONTINUOUS
10
4.15768
20
2.79547
11
3.80925
21
2.79547
0
LINE
8
BLACK
6
CONTINUOUS
10
4.36043
20
2.77579
11
4.36043
21
2.62421
0
LINE
8
BLACK
6
CONTINUOUS
10
4.36043
20
2.62421
11
4.49233
21
2.62421
0
LINE
8
BLACK
6
CONTINUOUS
10
4.49233
20
2.62421
11
4.49233
21
2.77579
0
LINE
8
BLACK
6
CONTINUOUS
10
4.49233
20
2.77579
11
4.36043
21
2.77579
0
LINE
8
BLACK
6
CONTINUOUS
10
3.82893
20
2.77579
11
3.82893
21
2.62421
0
LINE
8
BLACK
6
CONTINUOUS
10
3.82893
20
2.62421
11
4.13799
21
2.62421
0
LINE
8
BLACK
6
CONTINUOUS
10
4.13799
20
2.62421
11
4.13799
21
2.77579
0
LINE
8
BLACK
6
CONTINUOUS
10
4.13799
20
2.77579
11
3.82893
21
2.77579
0
LINE
8
BLACK
6
CONTINUOUS
10
4.24232
20
2.7561
11
4.24232
21
2.6439
0
LINE
8
BLACK
6
CONTINUOUS
10
4.24232
20
2.6439
11
4.35453
21
2.6439
0
LINE
8
BLACK
6
CONTINUOUS
10
4.35453
20
2.6439
11
4.35453
21
2.7561
0
LINE
8
BLACK
6
CONTINUOUS
10
4.35453
20
2.7561
11
4.24232
21
2.7561
0
LINE
8
BLACK
6
CONTINUOUS
10
4.14389
20
2.73642
11
4.14389
21
2.66358
0
LINE
8
BLACK
6
CONTINUOUS
10
4.14389
20
2.66358
11
4.15768
21
2.66358
0
LINE
8
BLACK
6
CONTINUOUS
10
4.15768
20
2.66358
11
4.15768
21
2.73642
0
LINE
8
BLACK
6
CONTINUOUS
10
4.15768
20
2.73642
11
4.14389
21
2.73642
0
LINE
8
BLACK
6
CONTINUOUS
10
4.47586
20
2.76196
11
4.4761
21
2.762
0
LINE
8
BLACK
6
CONTINUOUS
10
4.4761
20
2.762
11
4.47632
21
2.76188
0
LINE
8
BLACK
6
CONTINUOUS
10
4.47632
20
2.76188
11
4.4766
21
2.76183
0
LINE
8
BLACK
6
CONTINUOUS
10
4.4766
20
2.76183
11
4.47704
21
2.76146
0
LINE
8
BLACK
6
CONTINUOUS
10
4.47704
20
2.76146
11
4.47785
21
2.76099
0
LINE
8
BLACK
6
CONTINUOUS
10
4.47785
20
2.76099
11
4.47796
21
2.76069
0
LINE
8
BLACK
6
CONTINUOUS
10
4.47796
20
2.76069
11
4.47815
21
2.76053
0
LINE
8
BLACK
6
CONTINUOUS
10
4.47815
20
2.76053
11
4.47827
21
2.75985
0
LINE
8
BLACK
6
CONTINUOUS
10
4.47827
20
2.75985
11
4.47854
21
2.75909
0
LINE
8
BLACK
6
CONTINUOUS
10
4.47854
20
2.75909
11
4.47854
21
2.64091
0
LINE
8
BLACK
6
CONTINUOUS
10
4.47854
20
2.64091
11
4.47848
21
2.64054
0
LINE
8
BLACK
6
CONTINUOUS
10
4.47848
20
2.64054
11
4.4785
21
2.64043
0
LINE
8
BLACK
6
CONTINUOUS
10
4.4785
20
2.64043
11
4.47844
21
2.64034
0
LINE
8
BLACK
6
CONTINUOUS
10
4.47844
20
2.64034
11
4.47837
21
2.6399
0
LINE
8
BLACK
6
CONTINUOUS
10
4.47837
20
2.6399
11
4.4778
21
2.63922
0
LINE
8
BLACK
6
CONTINUOUS
10
4.4778
20
2.63922
11
4.47749
21
2.63868
0
LINE
8
BLACK
6
CONTINUOUS
10
4.47749
20
2.63868
11
4.47729
21
2.63861
0
LINE
8
BLACK
6
CONTINUOUS
10
4.47729
20
2.63861
11
4.47707
21
2.63835
0
LINE
8
BLACK
6
CONTINUOUS
10
4.47707
20
2.63835
11
4.4761
21
2.63818
0
LINE
8
BLACK
6
CONTINUOUS
10
4.4761
20
2.63818
11
4.47559
21
2.63799
0
LINE
8
BLACK
6
CONTINUOUS
10
4.47559
20
2.63799
11
4.37717
21
2.63799
0
LINE
8
BLACK
6
CONTINUOUS
10
4.37717
20
2.63799
11
4.3769
21
2.63804
0
LINE
8
BLACK
6
CONTINUOUS
10
4.3769
20
2.63804
11
4.37666
21
2.638
0
LINE
8
BLACK
6
CONTINUOUS
10
4.37666
20
2.638
11
4.37644
21
2.63812
0
LINE
8
BLACK
6
CONTINUOUS
10
4.37644
20
2.63812
11
4.37616
21
2.63817
0
LINE
8
BLACK
6
CONTINUOUS
10
4.37616
20
2.63817
11
4.37572
21
2.63854
0
LINE
8
BLACK
6
CONTINUOUS
10
4.37572
20
2.63854
11
4.37491
21
2.63901
0
LINE
8
BLACK
6
CONTINUOUS
10
4.37491
20
2.63901
11
4.3748
21
2.63931
0
LINE
8
BLACK
6
CONTINUOUS
10
4.3748
20
2.63931
11
4.37461
21
2.63947
0
LINE
8
BLACK
6
CONTINUOUS
10
4.37461
20
2.63947
11
4.37449
21
2.64015
0
LINE
8
BLACK
6
CONTINUOUS
10
4.37449
20
2.64015
11
4.37422
21
2.64091
0
LINE
8
BLACK
6
CONTINUOUS
10
4.37422
20
2.64091
11
4.37422
21
2.75909
0
LINE
8
BLACK
6
CONTINUOUS
10
4.37422
20
2.75909
11
4.37428
21
2.75946
0
LINE
8
BLACK
6
CONTINUOUS
10
4.37428
20
2.75946
11
4.37426
21
2.75957
0
LINE
8
BLACK
6
CONTINUOUS
10
4.37426
20
2.75957
11
4.37432
21
2.75966
0
LINE
8
BLACK
6
CONTINUOUS
10
4.37432
20
2.75966
11
4.37439
21
2.7601
0
LINE
8
BLACK
6
CONTINUOUS
10
4.37439
20
2.7601
11
4.37496
21
2.76078
0
LINE
8
BLACK
6
CONTINUOUS
10
4.37496
20
2.76078
11
4.37527
21
2.76132
0
LINE
8
BLACK
6
CONTINUOUS
10
4.37527
20
2.76132
11
4.37547
21
2.76139
0
LINE
8
BLACK
6
CONTINUOUS
10
4.37547
20
2.76139
11
4.37569
21
2.76165
0
LINE
8
BLACK
6
CONTINUOUS
10
4.37569
20
2.76165
11
4.37666
21
2.76182
0
LINE
8
BLACK
6
CONTINUOUS
10
4.37666
20
2.76182
11
4.37717
21
2.76201
0
LINE
8
BLACK
6
CONTINUOUS
10
4.37717
20
2.76201
11
4.47559
21
2.76201
0
LINE
8
BLACK
6
CONTINUOUS
10
4.47559
20
2.76201
11
4.47586
21
2.76196
0
LINE
8
BLACK
6
CONTINUOUS
10
4.38012
20
2.7561
11
4.38012
21
2.6439
0
LINE
8
BLACK
6
CONTINUOUS
10
4.38012
20
2.6439
11
4.47264
21
2.6439
0
LINE
8
BLACK
6
CONTINUOUS
10
4.47264
20
2.6439
11
4.47264
21
2.7561
0
LINE
8
BLACK
6
CONTINUOUS
10
4.47264
20
2.7561
11
4.38012
21
2.7561
0
LINE
8
BLACK
6
CONTINUOUS
10
3.88093
20
2.68575
11
3.8819
21
2.68569
0
LINE
8
BLACK
6
CONTINUOUS
10
3.8819
20
2.68569
11
3.89047
21
2.68283
0
LINE
8
BLACK
6
CONTINUOUS
10
3.89047
20
2.68283
11
3.89162
21
2.68208
0
LINE
8
BLACK
6
CONTINUOUS
10
3.89162
20
2.68208
11
3.89281
21
2.68139
0
LINE
8
BLACK
6
CONTINUOUS
10
3.89281
20
2.68139
11
3.89853
21
2.67567
0
LINE
8
BLACK
6
CONTINUOUS
10
3.89853
20
2.67567
11
3.89922
21
2.67448
0
LINE
8
BLACK
6
CONTINUOUS
10
3.89922
20
2.67448
11
3.89998
21
2.67333
0
LINE
8
BLACK
6
CONTINUOUS
10
3.89998
20
2.67333
11
3.90283
21
2.66475
0
LINE
8
BLACK
6
CONTINUOUS
10
3.90283
20
2.66475
11
3.90289
21
2.66379
0
LINE
8
BLACK
6
CONTINUOUS
10
3.90289
20
2.66379
11
3.90314
21
2.66286
0
LINE
8
BLACK
6
CONTINUOUS
10
3.90314
20
2.66286
11
3.90314
21
2.65714
0
LINE
8
BLACK
6
CONTINUOUS
10
3.90314
20
2.65714
11
3.90234
21
2.65414
0
LINE
8
BLACK
6
CONTINUOUS
10
3.90234
20
2.65414
11
3.90014
21
2.65195
0
LINE
8
BLACK
6
CONTINUOUS
10
3.90014
20
2.65195
11
3.89714
21
2.65114
0
LINE
8
BLACK
6
CONTINUOUS
10
3.89714
20
2.65114
11
3.89414
21
2.65195
0
LINE
8
BLACK
6
CONTINUOUS
10
3.89414
20
2.65195
11
3.89195
21
2.65414
0
LINE
8
BLACK
6
CONTINUOUS
10
3.89195
20
2.65414
11
3.89114
21
2.65714
0
LINE
8
BLACK
6
CONTINUOUS
10
3.89114
20
2.65714
11
3.89114
21
2.66188
0
LINE
8
BLACK
6
CONTINUOUS
10
3.89114
20
2.66188
11
3.88904
21
2.66819
0
LINE
8
BLACK
6
CONTINUOUS
10
3.88904
20
2.66819
11
3.88533
21
2.6719
0
LINE
8
BLACK
6
CONTINUOUS
10
3.88533
20
2.6719
11
3.87903
21
2.674
0
LINE
8
BLACK
6
CONTINUOUS
10
3.87903
20
2.674
11
3.83714
21
2.674
0
LINE
8
BLACK
6
CONTINUOUS
10
3.83714
20
2.674
11
3.83414
21
2.6748
0
LINE
8
BLACK
6
CONTINUOUS
10
3.83414
20
2.6748
11
3.83195
21
2.677
0
LINE
8
BLACK
6
CONTINUOUS
10
3.83195
20
2.677
11
3.83114
21
2.68
0
LINE
8
BLACK
6
CONTINUOUS
10
3.83114
20
2.68
11
3.83195
21
2.683
0
LINE
8
BLACK
6
CONTINUOUS
10
3.83195
20
2.683
11
3.83414
21
2.6852
0
LINE
8
BLACK
6
CONTINUOUS
10
3.83414
20
2.6852
11
3.83714
21
2.686
0
LINE
8
BLACK
6
CONTINUOUS
10
3.83714
20
2.686
11
3.88
21
2.686
0
LINE
8
BLACK
6
CONTINUOUS
10
3.88
20
2.686
11
3.88093
21
2.68575
0
LINE
8
BLACK
6
CONTINUOUS
10
3.88705
20
2.74564
11
3.8884
21
2.74537
0
LINE
8
BLACK
6
CONTINUOUS
10
3.8884
20
2.74537
11
3.89411
21
2.74251
0
LINE
8
BLACK
6
CONTINUOUS
10
3.89411
20
2.74251
11
3.89483
21
2.74187
0
LINE
8
BLACK
6
CONTINUOUS
10
3.89483
20
2.74187
11
3.89567
21
2.74139
0
LINE
8
BLACK
6
CONTINUOUS
10
3.89567
20
2.74139
11
3.89853
21
2.73853
0
LINE
8
BLACK
6
CONTINUOUS
10
3.89853
20
2.73853
11
3.89901
21
2.73769
0
LINE
8
BLACK
6
CONTINUOUS
10
3.89901
20
2.73769
11
3.89965
21
2.73697
0
LINE
8
BLACK
6
CONTINUOUS
10
3.89965
20
2.73697
11
3.90251
21
2.73125
0
LINE
8
BLACK
6
CONTINUOUS
10
3.90251
20
2.73125
11
3.90279
21
2.7299
0
LINE
8
BLACK
6
CONTINUOUS
10
3.90279
20
2.7299
11
3.90314
21
2.72857
0
LINE
8
BLACK
6
CONTINUOUS
10
3.90314
20
2.72857
11
3.90314
21
2.71714
0
LINE
8
BLACK
6
CONTINUOUS
10
3.90314
20
2.71714
11
3.90279
21
2.71581
0
LINE
8
BLACK
6
CONTINUOUS
10
3.90279
20
2.71581
11
3.90251
21
2.71446
0
LINE
8
BLACK
6
CONTINUOUS
10
3.90251
20
2.71446
11
3.89965
21
2.70875
0
LINE
8
BLACK
6
CONTINUOUS
10
3.89965
20
2.70875
11
3.89901
21
2.70802
0
LINE
8
BLACK
6
CONTINUOUS
10
3.89901
20
2.70802
11
3.89853
21
2.70719
0
LINE
8
BLACK
6
CONTINUOUS
10
3.89853
20
2.70719
11
3.89567
21
2.70433
0
LINE
8
BLACK
6
CONTINUOUS
10
3.89567
20
2.70433
11
3.89483
21
2.70385
0
LINE
8
BLACK
6
CONTINUOUS
10
3.89483
20
2.70385
11
3.89411
21
2.7032
0
LINE
8
BLACK
6
CONTINUOUS
10
3.89411
20
2.7032
11
3.8884
21
2.70035
0
LINE
8
BLACK
6
CONTINUOUS
10
3.8884
20
2.70035
11
3.88705
21
2.70007
0
LINE
8
BLACK
6
CONTINUOUS
10
3.88705
20
2.70007
11
3.88571
21
2.69971
0
LINE
8
BLACK
6
CONTINUOUS
10
3.88571
20
2.69971
11
3.86286
21
2.69971
0
LINE
8
BLACK
6
CONTINUOUS
10
3.86286
20
2.69971
11
3.86214
21
2.69991
0
LINE
8
BLACK
6
CONTINUOUS
10
3.86214
20
2.69991
11
3.8614
21
2.69989
0
LINE
8
BLACK
6
CONTINUOUS
10
3.8614
20
2.69989
11
3.84997
21
2.70275
0
LINE
8
BLACK
6
CONTINUOUS
10
3.84997
20
2.70275
11
3.84907
21
2.70325
0
LINE
8
BLACK
6
CONTINUOUS
10
3.84907
20
2.70325
11
3.8481
21
2.70358
0
LINE
8
BLACK
6
CONTINUOUS
10
3.8481
20
2.70358
11
3.83953
21
2.70929
0
LINE
8
BLACK
6
CONTINUOUS
10
3.83953
20
2.70929
11
3.83913
21
2.70974
0
LINE
8
BLACK
6
CONTINUOUS
10
3.83913
20
2.70974
11
3.83861
21
2.71004
0
LINE
8
BLACK
6
CONTINUOUS
10
3.83861
20
2.71004
11
3.83576
21
2.7129
0
LINE
8
BLACK
6
CONTINUOUS
10
3.83576
20
2.7129
11
3.83527
21
2.71374
0
LINE
8
BLACK
6
CONTINUOUS
10
3.83527
20
2.71374
11
3.83463
21
2.71446
0
LINE
8
BLACK
6
CONTINUOUS
10
3.83463
20
2.71446
11
3.83178
21
2.72017
0
LINE
8
BLACK
6
CONTINUOUS
10
3.83178
20
2.72017
11
3.8315
21
2.72153
0
LINE
8
BLACK
6
CONTINUOUS
10
3.8315
20
2.72153
11
3.83114
21
2.72286
0
LINE
8
BLACK
6
CONTINUOUS
10
3.83114
20
2.72286
11
3.83114
21
2.73429
0
LINE
8
BLACK
6
CONTINUOUS
10
3.83114
20
2.73429
11
3.83195
21
2.73729
0
LINE
8
BLACK
6
CONTINUOUS
10
3.83195
20
2.73729
11
3.83414
21
2.73948
0
LINE
8
BLACK
6
CONTINUOUS
10
3.83414
20
2.73948
11
3.83714
21
2.74029
0
LINE
8
BLACK
6
CONTINUOUS
10
3.83714
20
2.74029
11
3.84014
21
2.73948
0
LINE
8
BLACK
6
CONTINUOUS
10
3.84014
20
2.73948
11
3.84234
21
2.73729
0
LINE
8
BLACK
6
CONTINUOUS
10
3.84234
20
2.73729
11
3.84314
21
2.73429
0
LINE
8
BLACK
6
CONTINUOUS
10
3.84314
20
2.73429
11
3.84314
21
2.72427
0
LINE
8
BLACK
6
CONTINUOUS
10
3.84314
20
2.72427
11
3.84493
21
2.7207
0
LINE
8
BLACK
6
CONTINUOUS
10
3.84493
20
2.7207
11
3.84668
21
2.71895
0
LINE
8
BLACK
6
CONTINUOUS
10
3.84668
20
2.71895
11
3.85389
21
2.71414
0
LINE
8
BLACK
6
CONTINUOUS
10
3.85389
20
2.71414
11
3.85492
21
2.71388
0
LINE
8
BLACK
6
CONTINUOUS
10
3.85492
20
2.71388
11
3.85463
21
2.71446
0
LINE
8
BLACK
6
CONTINUOUS
10
3.85463
20
2.71446
11
3.85436
21
2.71581
0
LINE
8
BLACK
6
CONTINUOUS
10
3.85436
20
2.71581
11
3.854
21
2.71714
0
LINE
8
BLACK
6
CONTINUOUS
10
3.854
20
2.71714
11
3.854
21
2.72857
0
LINE
8
BLACK
6
CONTINUOUS
10
3.854
20
2.72857
11
3.85436
21
2.7299
0
LINE
8
BLACK
6
CONTINUOUS
10
3.85436
20
2.7299
11
3.85463
21
2.73125
0
LINE
8
BLACK
6
CONTINUOUS
10
3.85463
20
2.73125
11
3.85749
21
2.73697
0
LINE
8
BLACK
6
CONTINUOUS
10
3.85749
20
2.73697
11
3.85813
21
2.73769
0
LINE
8
BLACK
6
CONTINUOUS
10
3.85813
20
2.73769
11
3.85861
21
2.73853
0
LINE
8
BLACK
6
CONTINUOUS
10
3.85861
20
2.73853
11
3.86147
21
2.74139
0
LINE
8
BLACK
6
CONTINUOUS
10
3.86147
20
2.74139
11
3.86231
21
2.74187
0
LINE
8
BLACK
6
CONTINUOUS
10
3.86231
20
2.74187
11
3.86303
21
2.74251
0
LINE
8
BLACK
6
CONTINUOUS
10
3.86303
20
2.74251
11
3.86875
21
2.74537
0
LINE
8
BLACK
6
CONTINUOUS
10
3.86875
20
2.74537
11
3.8701
21
2.74564
0
LINE
8
BLACK
6
CONTINUOUS
10
3.8701
20
2.74564
11
3.87143
21
2.746
0
LINE
8
BLACK
6
CONTINUOUS
10
3.87143
20
2.746
11
3.88571
21
2.746
0
LINE
8
BLACK
6
CONTINUOUS
10
3.88571
20
2.746
11
3.88705
21
2.74564
0
LINE
8
BLACK
6
CONTINUOUS
10
3.87284
20
2.734
11
3.86927
21
2.73221
0
LINE
8
BLACK
6
CONTINUOUS
10
3.86927
20
2.73221
11
3.86779
21
2.73073
0
LINE
8
BLACK
6
CONTINUOUS
10
3.86779
20
2.73073
11
3.866
21
2.72716
0
LINE
8
BLACK
6
CONTINUOUS
10
3.866
20
2.72716
11
3.866
21
2.71856
0
LINE
8
BLACK
6
CONTINUOUS
10
3.866
20
2.71856
11
3.86779
21
2.71498
0
LINE
8
BLACK
6
CONTINUOUS
10
3.86779
20
2.71498
11
3.86927
21
2.7135
0
LINE
8
BLACK
6
CONTINUOUS
10
3.86927
20
2.7135
11
3.87284
21
2.71171
0
LINE
8
BLACK
6
CONTINUOUS
10
3.87284
20
2.71171
11
3.8843
21
2.71171
0
LINE
8
BLACK
6
CONTINUOUS
10
3.8843
20
2.71171
11
3.88787
21
2.7135
0
LINE
8
BLACK
6
CONTINUOUS
10
3.88787
20
2.7135
11
3.88935
21
2.71498
0
LINE
8
BLACK
6
CONTINUOUS
10
3.88935
20
2.71498
11
3.89114
21
2.71856
0
LINE
8
BLACK
6
CONTINUOUS
10
3.89114
20
2.71856
11
3.89114
21
2.72716
0
LINE
8
BLACK
6
CONTINUOUS
10
3.89114
20
2.72716
11
3.88935
21
2.73073
0
LINE
8
BLACK
6
CONTINUOUS
10
3.88935
20
2.73073
11
3.88787
21
2.73221
0
LINE
8
BLACK
6
CONTINUOUS
10
3.88787
20
2.73221
11
3.8843
21
2.734
0
LINE
8
BLACK
6
CONTINUOUS
10
3.8843
20
2.734
11
3.87284
21
2.734
0
LINE
8
BLACK
6
CONTINUOUS
10
1.07792
20
0.0295339
11
1.08197
21
0.0429577
0
LINE
8
BLACK
6
CONTINUOUS
10
1.08197
20
0.0429577
11
1.0875
21
0.0558462
0
LINE
8
BLACK
6
CONTINUOUS
10
1.0875
20
0.0558462
11
1.09442
21
0.0680385
0
LINE
8
BLACK
6
CONTINUOUS
10
1.09442
20
0.0680385
11
1.10267
21
0.0793829
0
LINE
8
BLACK
6
CONTINUOUS
10
1.10267
20
0.0793829
11
1.11212
21
0.0897378
0
LINE
8
BLACK
6
CONTINUOUS
10
1.11212
20
0.0897378
11
1.12267
21
0.0989741
0
LINE
8
BLACK
6
CONTINUOUS
10
1.12267
20
0.0989741
11
1.13419
21
0.106977
0
LINE
8
BLACK
6
CONTINUOUS
10
1.13419
20
0.106977
11
1.14652
21
0.113646
0
LINE
8
BLACK
6
CONTINUOUS
10
1.14652
20
0.113646
11
1.15952
21
0.118899
0
LINE
8
BLACK
6
CONTINUOUS
10
1.15952
20
0.118899
11
1.17303
21
0.12267
0
LINE
8
BLACK
6
CONTINUOUS
10
1.17303
20
0.12267
11
1.18687
21
0.124912
0
LINE
8
BLACK
6
CONTINUOUS
10
1.18687
20
0.124912
11
1.20088
21
0.125597
0
LINE
8
BLACK
6
CONTINUOUS
10
1.20088
20
0.125597
11
1.21487
21
0.124716
0
LINE
8
BLACK
6
CONTINUOUS
10
1.21487
20
0.124716
11
1.22868
21
0.122281
0
LINE
8
BLACK
6
CONTINUOUS
10
1.22868
20
0.122281
11
1.24213
21
0.118322
0
LINE
8
BLACK
6
CONTINUOUS
10
1.24213
20
0.118322
11
1.25506
21
0.112889
0
LINE
8
BLACK
6
CONTINUOUS
10
1.25506
20
0.112889
11
1.2673
21
0.106048
0
LINE
8
BLACK
6
CONTINUOUS
10
1.2673
20
0.106048
11
1.2787
21
0.0978848
0
LINE
8
BLACK
6
CONTINUOUS
10
1.2787
20
0.0978848
11
1.28912
21
0.088502
0
LINE
8
BLACK
6
CONTINUOUS
10
1.28912
20
0.088502
11
1.29843
21
0.0780161
0
LINE
8
BLACK
6
CONTINUOUS
10
1.29843
20
0.0780161
11
1.30651
21
0.0665579
0
LINE
8
BLACK
6
CONTINUOUS
10
1.30651
20
0.0665579
11
1.31327
21
0.05427
0
LINE
8
BLACK
6
CONTINUOUS
10
1.31327
20
0.05427
11
1.31861
21
0.0413057
0
LINE
8
BLACK
6
CONTINUOUS
10
1.31861
20
0.0413057
11
1.32248
21
0.0278265
0
LINE
8
BLACK
6
CONTINUOUS
10
1.32248
20
0.0278265
11
1.32482
21
0.0140005
0
LINE
8
BLACK
6
CONTINUOUS
10
1.32482
20
0.0140005
11
1.3256
21
0
0
LINE
8
BLACK
6
CONTINUOUS
10
1.3256
20
0
11
1.32555
21
-0.00350697
0
LINE
8
BLACK
6
CONTINUOUS
10
1.32555
20
-0.00350697
11
1.32438
21
-0.0174802
0
LINE
8
BLACK
6
CONTINUOUS
10
1.32438
20
-0.0174802
11
1.32165
21
-0.0312354
0
LINE
8
BLACK
6
CONTINUOUS
10
1.32165
20
-0.0312354
11
1.31741
21
-0.0446014
0
LINE
8
BLACK
6
CONTINUOUS
10
1.31741
20
-0.0446014
11
1.31171
21
-0.0574115
0
LINE
8
BLACK
6
CONTINUOUS
10
1.31171
20
-0.0574115
11
1.30461
21
-0.069506
0
LINE
8
BLACK
6
CONTINUOUS
10
1.30461
20
-0.069506
11
1.29622
21
-0.0807341
0
LINE
8
BLACK
6
CONTINUOUS
10
1.29622
20
-0.0807341
11
1.28662
21
-0.090956
0
LINE
8
BLACK
6
CONTINUOUS
10
1.28662
20
-0.090956
11
1.27594
21
-0.100044
0
LINE
8
BLACK
6
CONTINUOUS
10
1.27594
20
-0.100044
11
1.26431
21
-0.107885
0
LINE
8
BLACK
6
CONTINUOUS
10
1.26431
20
-0.107885
11
1.25189
21
-0.114382
0
LINE
8
BLACK
6
CONTINUOUS
10
1.25189
20
-0.114382
11
1.23881
21
-0.119453
0
LINE
8
BLACK
6
CONTINUOUS
10
1.23881
20
-0.119453
11
1.22526
21
-0.123035
0
LINE
8
BLACK
6
CONTINUOUS
10
1.22526
20
-0.123035
11
1.21138
21
-0.125083
0
LINE
8
BLACK
6
CONTINUOUS
10
1.21138
20
-0.125083
11
1.19737
21
-0.125572
0
LINE
8
BLACK
6
CONTINUOUS
10
1.19737
20
-0.125572
11
1.18339
21
-0.124497
0
LINE
8
BLACK
6
CONTINUOUS
10
1.18339
20
-0.124497
11
1.16961
21
-0.121869
0
LINE
8
BLACK
6
CONTINUOUS
10
1.16961
20
-0.121869
11
1.15622
21
-0.117723
0
LINE
8
BLACK
6
CONTINUOUS
10
1.15622
20
-0.117723
11
1.14337
21
-0.112109
0
LINE
8
BLACK
6
CONTINUOUS
10
1.14337
20
-0.112109
11
1.13123
21
-0.105098
0
LINE
8
BLACK
6
CONTINUOUS
10
1.13123
20
-0.105098
11
1.11994
21
-0.0967765
0
LINE
8
BLACK
6
CONTINUOUS
10
1.11994
20
-0.0967765
11
1.10965
21
-0.0872491
0
LINE
8
BLACK
6
CONTINUOUS
10
1.10965
20
-0.0872491
11
1.10049
21
-0.0766343
0
LINE
8
BLACK
6
CONTINUOUS
10
1.10049
20
-0.0766343
11
1.09257
21
-0.0650642
0
LINE
8
BLACK
6
CONTINUOUS
10
1.09257
20
-0.0650642
11
1.08598
21
-0.0526832
0
LINE
8
BLACK
6
CONTINUOUS
10
1.08598
20
-0.0526832
11
1.08082
21
-0.0396455
0
LINE
8
BLACK
6
CONTINUOUS
10
1.08082
20
-0.0396455
11
1.07714
21
-0.0261137
0
LINE
8
BLACK
6
CONTINUOUS
10
1.07714
20
-0.0261137
11
1.075
21
-0.0122564
0
LINE
8
BLACK
6
CONTINUOUS
10
1.075
20
-0.0122564
11
1.07441
21
0.00175366
0
LINE
8
BLACK
6
CONTINUOUS
10
1.07441
20
0.00175366
11
1.07453
21
0.00347992
0
LINE
8
BLACK
6
CONTINUOUS
10
1.07453
20
0.00347992
11
1.07539
21
0.0157419
0
LINE
8
BLACK
6
CONTINUOUS
10
1.07539
20
0.0157419
11
1.07792
21
0.0295339
0
LINE
8
BLACK
6
CONTINUOUS
10
1.0914
20
-0.021898
11
1.09463
21
-0.0342352
0
LINE
8
BLACK
6
CONTINUOUS
10
1.09463
20
-0.0342352
11
1.09927
21
-0.0461187
0
LINE
8
BLACK
6
CONTINUOUS
10
1.09927
20
-0.0461187
11
1.10524
21
-0.0573909
0
LINE
8
BLACK
6
CONTINUOUS
10
1.10524
20
-0.0573909
11
1.11246
21
-0.0679024
0
LINE
8
BLACK
6
CONTINUOUS
10
1.11246
20
-0.0679024
11
1.12085
21
-0.0775139
0
LINE
8
BLACK
6
CONTINUOUS
10
1.12085
20
-0.0775139
11
1.13028
21
-0.086098
0
LINE
8
BLACK
6
CONTINUOUS
10
1.13028
20
-0.086098
11
1.14064
21
-0.0935409
0
LINE
8
BLACK
6
CONTINUOUS
10
1.14064
20
-0.0935409
11
1.15178
21
-0.099744
0
LINE
8
BLACK
6
CONTINUOUS
10
1.15178
20
-0.099744
11
1.16357
21
-0.104625
0
LINE
8
BLACK
6
CONTINUOUS
10
1.16357
20
-0.104625
11
1.17583
21
-0.108119
0
LINE
8
BLACK
6
CONTINUOUS
10
1.17583
20
-0.108119
11
1.18842
21
-0.110181
0
LINE
8
BLACK
6
CONTINUOUS
10
1.18842
20
-0.110181
11
1.20116
21
-0.110781
0
LINE
8
BLACK
6
CONTINUOUS
10
1.20116
20
-0.110781
11
1.21389
21
-0.109914
0
LINE
8
BLACK
6
CONTINUOUS
10
1.21389
20
-0.109914
11
1.22643
21
-0.107589
0
LINE
8
BLACK
6
CONTINUOUS
10
1.22643
20
-0.107589
11
1.23862
21
-0.103839
0
LINE
8
BLACK
6
CONTINUOUS
10
1.23862
20
-0.103839
11
1.2503
21
-0.0987123
0
LINE
8
BLACK
6
CONTINUOUS
10
1.2503
20
-0.0987123
11
1.26131
21
-0.0922772
0
LINE
8
BLACK
6
CONTINUOUS
10
1.26131
20
-0.0922772
11
1.27151
21
-0.084619
0
LINE
8
BLACK
6
CONTINUOUS
10
1.27151
20
-0.084619
11
1.28076
21
-0.0758392
0
LINE
8
BLACK
6
CONTINUOUS
10
1.28076
20
-0.0758392
11
1.28894
21
-0.0660542
0
LINE
8
BLACK
6
CONTINUOUS
10
1.28894
20
-0.0660542
11
1.29594
21
-0.0553937
0
LINE
8
BLACK
6
CONTINUOUS
10
1.29594
20
-0.0553937
11
1.30168
21
-0.043999
0
LINE
8
BLACK
6
CONTINUOUS
10
1.30168
20
-0.043999
11
1.30606
21
-0.0320211
0
LINE
8
BLACK
6
CONTINUOUS
10
1.30606
20
-0.0320211
11
1.30904
21
-0.0196188
0
LINE
8
BLACK
6
CONTINUOUS
10
1.30904
20
-0.0196188
11
1.31057
21
-0.00695642
0
LINE
8
BLACK
6
CONTINUOUS
10
1.31057
20
-0.00695642
11
1.31079
21
0
0
LINE
8
BLACK
6
CONTINUOUS
10
1.31079
20
0
11
1.31005
21
0.0127336
0
LINE
8
BLACK
6
CONTINUOUS
10
1.31005
20
0.0127336
11
1.30786
21
0.0252984
0
LINE
8
BLACK
6
CONTINUOUS
10
1.30786
20
0.0252984
11
1.30424
21
0.0375279
0
LINE
8
BLACK
6
CONTINUOUS
10
1.30424
20
0.0375279
11
1.29923
21
0.04926
0
LINE
8
BLACK
6
CONTINUOUS
10
1.29923
20
0.04926
11
1.29291
21
0.0603392
0
LINE
8
BLACK
6
CONTINUOUS
10
1.29291
20
0.0603392
11
1.28536
21
0.0706186
0
LINE
8
BLACK
6
CONTINUOUS
10
1.28536
20
0.0706186
11
1.27668
21
0.079962
0
LINE
8
BLACK
6
CONTINUOUS
10
1.27668
20
0.079962
11
1.26698
21
0.0882455
0
LINE
8
BLACK
6
CONTINUOUS
10
1.26698
20
0.0882455
11
1.2564
21
0.0953594
0
LINE
8
BLACK
6
CONTINUOUS
10
1.2564
20
0.0953594
11
1.24506
21
0.101209
0
LINE
8
BLACK
6
CONTINUOUS
10
1.24506
20
0.101209
11
1.23313
21
0.105718
0
LINE
8
BLACK
6
CONTINUOUS
10
1.23313
20
0.105718
11
1.22076
21
0.108825
0
LINE
8
BLACK
6
CONTINUOUS
10
1.22076
20
0.108825
11
1.20811
21
0.11049
0
LINE
8
BLACK
6
CONTINUOUS
10
1.20811
20
0.11049
11
1.19536
21
0.11069
0
LINE
8
BLACK
6
CONTINUOUS
10
1.19536
20
0.11069
11
1.18267
21
0.109423
0
LINE
8
BLACK
6
CONTINUOUS
10
1.18267
20
0.109423
11
1.17021
21
0.106706
0
LINE
8
BLACK
6
CONTINUOUS
10
1.17021
20
0.106706
11
1.15814
21
0.102575
0
LINE
8
BLACK
6
CONTINUOUS
10
1.15814
20
0.102575
11
1.14663
21
0.0970838
0
LINE
8
BLACK
6
CONTINUOUS
10
1.14663
20
0.0970838
11
1.13582
21
0.0903059
0
LINE
8
BLACK
6
CONTINUOUS
10
1.13582
20
0.0903059
11
1.12587
21
0.0823311
0
LINE
8
BLACK
6
CONTINUOUS
10
1.12587
20
0.0823311
11
1.1169
21
0.073265
0
LINE
8
BLACK
6
CONTINUOUS
10
1.1169
20
0.073265
11
1.10903
21
0.0632279
0
LINE
8
BLACK
6
CONTINUOUS
10
1.10903
20
0.0632279
11
1.10236
21
0.0523527
0
LINE
8
BLACK
6
CONTINUOUS
10
1.10236
20
0.0523527
11
1.09699
21
0.0407836
0
LINE
8
BLACK
6
CONTINUOUS
10
1.09699
20
0.0407836
11
1.09299
21
0.0286739
0
LINE
8
BLACK
6
CONTINUOUS
10
1.09299
20
0.0286739
11
1.0904
21
0.0161842
0
LINE
8
BLACK
6
CONTINUOUS
10
1.0904
20
0.0161842
11
1.08927
21
0.00347992
0
LINE
8
BLACK
6
CONTINUOUS
10
1.08927
20
0.00347992
11
1.0896
21
-0.00927047
0
LINE
8
BLACK
6
CONTINUOUS
10
1.0896
20
-0.00927047
11
1.0914
21
-0.021898
0
LINE
8
BLACK
6
CONTINUOUS
10
-0.122078
20
0.0295339
11
-0.118025
21
0.0429577
0
LINE
8
BLACK
6
CONTINUOUS
10
-0.118025
20
0.0429577
11
-0.112501
21
0.0558462
0
LINE
8
BLACK
6
CONTINUOUS
10
-0.112501
20
0.0558462
11
-0.105575
21
0.0680385
0
LINE
8
BLACK
6
CONTINUOUS
10
-0.105575
20
0.0680385
11
-0.097333
21
0.0793829
0
LINE
8
BLACK
6
CONTINUOUS
10
-0.097333
20
0.0793829
11
-0.0878777
21
0.0897378
0
LINE
8
BLACK
6
CONTINUOUS
10
-0.0878777
20
0.0897378
11
-0.0773271
21
0.0989741
0
LINE
8
BLACK
6
CONTINUOUS
10
-0.0773271
20
0.0989741
11
-0.0658126
21
0.106977
0
LINE
8
BLACK
6
CONTINUOUS
10
-0.0658126
20
0.106977
11
-0.0534779
21
0.113646
0
LINE
8
BLACK
6
CONTINUOUS
10
-0.0534779
20
0.113646
11
-0.0404766
21
0.118899
0
LINE
8
BLACK
6
CONTINUOUS
10
-0.0404766
20
0.118899
11
-0.0269707
21
0.12267
0
LINE
8
BLACK
6
CONTINUOUS
10
-0.0269707
20
0.12267
11
-0.0131288
21
0.124912
0
LINE
8
BLACK
6
CONTINUOUS
10
-0.0131288
20
0.124912
11
0.00087685
21
0.125597
0
LINE
8
BLACK
6
CONTINUOUS
10
0.00087685
20
0.125597
11
0.0148715
21
0.124716
0
LINE
8
BLACK
6
CONTINUOUS
10
0.0148715
20
0.124716
11
0.0286809
21
0.122281
0
LINE
8
BLACK
6
CONTINUOUS
10
0.0286809
20
0.122281
11
0.0421327
21
0.118322
0
LINE
8
BLACK
6
CONTINUOUS
10
0.0421327
20
0.118322
11
0.0550594
21
0.112889
0
LINE
8
BLACK
6
CONTINUOUS
10
0.0550594
20
0.112889
11
0.0672998
21
0.106048
0
LINE
8
BLACK
6
CONTINUOUS
10
0.0672998
20
0.106048
11
0.0787015
21
0.0978848
0
LINE
8
BLACK
6
CONTINUOUS
10
0.0787015
20
0.0978848
11
0.0891221
21
0.088502
0
LINE
8
BLACK
6
CONTINUOUS
10
0.0891221
20
0.088502
11
0.0984319
21
0.0780161
0
LINE
8
BLACK
6
CONTINUOUS
10
0.0984319
20
0.0780161
11
0.106515
21
0.0665579
0
LINE
8
BLACK
6
CONTINUOUS
10
0.106515
20
0.0665579
11
0.11327
21
0.05427
0
LINE
8
BLACK
6
CONTINUOUS
10
0.11327
20
0.05427
11
0.118614
21
0.0413057
0
LINE
8
BLACK
6
CONTINUOUS
10
0.118614
20
0.0413057
11
0.122479
21
0.0278265
0
LINE
8
BLACK
6
CONTINUOUS
10
0.122479
20
0.0278265
11
0.124817
21
0.0140005
0
LINE
8
BLACK
6
CONTINUOUS
10
0.124817
20
0.0140005
11
0.1256
21
0
0
LINE
8
BLACK
6
CONTINUOUS
10
0.1256
20
0
11
0.125551
21
-0.00350697
0
LINE
8
BLACK
6
CONTINUOUS
10
0.125551
20
-0.00350697
11
0.124378
21
-0.0174802
0
LINE
8
BLACK
6
CONTINUOUS
10
0.124378
20
-0.0174802
11
0.121654
21
-0.0312354
0
LINE
8
BLACK
6
CONTINUOUS
10
0.121654
20
-0.0312354
11
0.117414
21
-0.0446014
0
LINE
8
BLACK
6
CONTINUOUS
10
0.117414
20
-0.0446014
11
0.111711
21
-0.0574115
0
LINE
8
BLACK
6
CONTINUOUS
10
0.111711
20
-0.0574115
11
0.104615
21
-0.069506
0
LINE
8
BLACK
6
CONTINUOUS
10
0.104615
20
-0.069506
11
0.0962152
21
-0.0807341
0
LINE
8
BLACK
6
CONTINUOUS
10
0.0962152
20
-0.0807341
11
0.0866162
21
-0.090956
0
LINE
8
BLACK
6
CONTINUOUS
10
0.0866162
20
-0.090956
11
0.0759376
21
-0.100044
0
LINE
8
BLACK
6
CONTINUOUS
10
0.0759376
20
-0.100044
11
0.0643126
21
-0.107885
0
LINE
8
BLACK
6
CONTINUOUS
10
0.0643126
20
-0.107885
11
0.0518859
21
-0.114382
0
LINE
8
BLACK
6
CONTINUOUS
10
0.0518859
20
-0.114382
11
0.0388125
21
-0.119453
0
LINE
8
BLACK
6
CONTINUOUS
10
0.0388125
20
-0.119453
11
0.0252554
21
-0.123035
0
LINE
8
BLACK
6
CONTINUOUS
10
0.0252554
20
-0.123035
11
0.0113835
21
-0.125083
0
LINE
8
BLACK
6
CONTINUOUS
10
0.0113835
20
-0.125083
11
-0.00263035
21
-0.125572
0
LINE
8
BLACK
6
CONTINUOUS
10
-0.00263035
20
-0.125572
11
-0.0166114
21
-0.124497
0
LINE
8
BLACK
6
CONTINUOUS
10
-0.0166114
20
-0.124497
11
-0.0303854
21
-0.121869
0
LINE
8
BLACK
6
CONTINUOUS
10
-0.0303854
20
-0.121869
11
-0.0437806
21
-0.117723
0
LINE
8
BLACK
6
CONTINUOUS
10
-0.0437806
20
-0.117723
11
-0.0566302
21
-0.112109
0
LINE
8
BLACK
6
CONTINUOUS
10
-0.0566302
20
-0.112109
11
-0.0687739
21
-0.105098
0
LINE
8
BLACK
6
CONTINUOUS
10
-0.0687739
20
-0.105098
11
-0.0800605
21
-0.0967765
0
LINE
8
BLACK
6
CONTINUOUS
10
-0.0800605
20
-0.0967765
11
-0.0903491
21
-0.0872491
0
LINE
8
BLACK
6
CONTINUOUS
10
-0.0903491
20
-0.0872491
11
-0.0995116
21
-0.0766343
0
LINE
8
BLACK
6
CONTINUOUS
10
-0.0995116
20
-0.0766343
11
-0.107434
21
-0.0650642
0
LINE
8
BLACK
6
CONTINUOUS
10
-0.107434
20
-0.0650642
11
-0.114017
21
-0.0526832
0
LINE
8
BLACK
6
CONTINUOUS
10
-0.114017
20
-0.0526832
11
-0.119179
21
-0.0396455
0
LINE
8
BLACK
6
CONTINUOUS
10
-0.119179
20
-0.0396455
11
-0.122855
21
-0.0261137
0
LINE
8
BLACK
6
CONTINUOUS
10
-0.122855
20
-0.0261137
11
-0.125001
21
-0.0122564
0
LINE
8
BLACK
6
CONTINUOUS
10
-0.125001
20
-0.0122564
11
-0.125588
21
0.00175366
0
LINE
8
BLACK
6
CONTINUOUS
10
-0.125588
20
0.00175366
11
-0.125467
21
0.00347992
0
LINE
8
BLACK
6
CONTINUOUS
10
-0.125467
20
0.00347992
11
-0.12461
21
0.0157419
0
LINE
8
BLACK
6
CONTINUOUS
10
-0.12461
20
0.0157419
11
-0.122078
21
0.0295339
0
LINE
8
BLACK
6
CONTINUOUS
10
-0.108602
20
-0.021898
11
-0.105365
21
-0.0342352
0
LINE
8
BLACK
6
CONTINUOUS
10
-0.105365
20
-0.0342352
11
-0.100732
21
-0.0461187
0
LINE
8
BLACK
6
CONTINUOUS
10
-0.100732
20
-0.0461187
11
-0.0947636
21
-0.0573909
0
LINE
8
BLACK
6
CONTINUOUS
10
-0.0947636
20
-0.0573909
11
-0.0875393
21
-0.0679024
0
LINE
8
BLACK
6
CONTINUOUS
10
-0.0875393
20
-0.0679024
11
-0.0791546
21
-0.0775139
0
LINE
8
BLACK
6
CONTINUOUS
10
-0.0791546
20
-0.0775139
11
-0.0697208
21
-0.086098
0
LINE
8
BLACK
6
CONTINUOUS
10
-0.0697208
20
-0.086098
11
-0.0593629
21
-0.0935409
0
LINE
8
BLACK
6
CONTINUOUS
10
-0.0593629
20
-0.0935409
11
-0.0482181
21
-0.099744
0
LINE
8
BLACK
6
CONTINUOUS
10
-0.0482181
20
-0.099744
11
-0.0364343
21
-0.104625
0
LINE
8
BLACK
6
CONTINUOUS
10
-0.0364343
20
-0.104625
11
-0.0241675
21
-0.108119
0
LINE
8
BLACK
6
CONTINUOUS
10
-0.0241675
20
-0.108119
11
-0.0115804
21
-0.110181
0
LINE
8
BLACK
6
CONTINUOUS
10
-0.0115804
20
-0.110181
11
0.00116016
21
-0.110781
0
LINE
8
BLACK
6
CONTINUOUS
10
0.00116016
20
-0.110781
11
0.0138854
21
-0.109914
0
LINE
8
BLACK
6
CONTINUOUS
10
0.0138854
20
-0.109914
11
0.0264265
21
-0.107589
0
LINE
8
BLACK
6
CONTINUOUS
10
0.0264265
20
-0.107589
11
0.0386174
21
-0.103839
0
LINE
8
BLACK
6
CONTINUOUS
10
0.0386174
20
-0.103839
11
0.0502965
21
-0.0987123
0
LINE
8
BLACK
6
CONTINUOUS
10
0.0502965
20
-0.0987123
11
0.0613088
21
-0.0922772
0
LINE
8
BLACK
6
CONTINUOUS
10
0.0613088
20
-0.0922772
11
0.0715086
21
-0.084619
0
LINE
8
BLACK
6
CONTINUOUS
10
0.0715086
20
-0.084619
11
0.0807606
21
-0.0758392
0
LINE
8
BLACK
6
CONTINUOUS
10
0.0807606
20
-0.0758392
11
0.0889421
21
-0.0660542
0
LINE
8
BLACK
6
CONTINUOUS
10
0.0889421
20
-0.0660542
11
0.0959447
21
-0.0553937
0
LINE
8
BLACK
6
CONTINUOUS
10
0.0959447
20
-0.0553937
11
0.101676
21
-0.043999
0
LINE
8
BLACK
6
CONTINUOUS
10
0.101676
20
-0.043999
11
0.106059
21
-0.0320211
0
LINE
8
BLACK
6
CONTINUOUS
10
0.106059
20
-0.0320211
11
0.109036
21
-0.0196188
0
LINE
8
BLACK
6
CONTINUOUS
10
0.109036
20
-0.0196188
11
0.110569
21
-0.00695642
0
LINE
8
BLACK
6
CONTINUOUS
10
0.110569
20
-0.00695642
11
0.110787
21
0
0
LINE
8
BLACK
6
CONTINUOUS
10
0.110787
20
0
11
0.110053
21
0.0127336
0
LINE
8
BLACK
6
CONTINUOUS
10
0.110053
20
0.0127336
11
0.10786
21
0.0252984
0
LINE
8
BLACK
6
CONTINUOUS
10
0.10786
20
0.0252984
11
0.104238
21
0.0375279
0
LINE
8
BLACK
6
CONTINUOUS
10
0.104238
20
0.0375279
11
0.0992336
21
0.04926
0
LINE
8
BLACK
6
CONTINUOUS
10
0.0992336
20
0.04926
11
0.0929142
21
0.0603392
0
LINE
8
BLACK
6
CONTINUOUS
10
0.0929142
20
0.0603392
11
0.0853632
21
0.0706186
0
LINE
8
BLACK
6
CONTINUOUS
10
0.0853632
20
0.0706186
11
0.0766808
21
0.079962
0
LINE
8
BLACK
6
CONTINUOUS
10
0.0766808
20
0.079962
11
0.066982
21
0.0882455
0
LINE
8
BLACK
6
CONTINUOUS
10
0.066982
20
0.0882455
11
0.0563954
21
0.0953594
0
LINE
8
BLACK
6
CONTINUOUS
10
0.0563954
20
0.0953594
11
0.0450613
21
0.101209
0
LINE
8
BLACK
6
CONTINUOUS
10
0.0450613
20
0.101209
11
0.03313
21
0.105718
0
LINE
8
BLACK
6
CONTINUOUS
10
0.03313
20
0.105718
11
0.0207595
21
0.108825
0
LINE
8
BLACK
6
CONTINUOUS
10
0.0207595
20
0.108825
11
0.00811386
21
0.11049
0
LINE
8
BLACK
6
CONTINUOUS
10
0.00811386
20
0.11049
11
-0.00463929
21
0.11069
0
LINE
8
BLACK
6
CONTINUOUS
10
-0.00463929
20
0.11069
11
-0.017331
21
0.109423
0
LINE
8
BLACK
6
CONTINUOUS
10
-0.017331
20
0.109423
11
-0.029793
21
0.106706
0
LINE
8
BLACK
6
CONTINUOUS
10
-0.029793
20
0.106706
11
-0.04186
21
0.102575
0
LINE
8
BLACK
6
CONTINUOUS
10
-0.04186
20
0.102575
11
-0.0533722
21
0.0970838
0
LINE
8
BLACK
6
CONTINUOUS
10
-0.0533722
20
0.0970838
11
-0.0641771
21
0.0903059
0
LINE
8
BLACK
6
CONTINUOUS
10
-0.0641771
20
0.0903059
11
-0.0741313
21
0.0823311
0
LINE
8
BLACK
6
CONTINUOUS
10
-0.0741313
20
0.0823311
11
-0.0831029
21
0.073265
0
LINE
8
BLACK
6
CONTINUOUS
10
-0.0831029
20
0.073265
11
-0.090973
21
0.0632279
0
LINE
8
BLACK
6
CONTINUOUS
10
-0.090973
20
0.0632279
11
-0.0976374
21
0.0523527
0
LINE
8
BLACK
6
CONTINUOUS
10
-0.0976374
20
0.0523527
11
-0.103008
21
0.0407836
0
LINE
8
BLACK
6
CONTINUOUS
10
-0.103008
20
0.0407836
11
-0.107012
21
0.0286739
0
LINE
8
BLACK
6
CONTINUOUS
10
-0.107012
20
0.0286739
11
-0.109599
21
0.0161842
0
LINE
8
BLACK
6
CONTINUOUS
10
-0.109599
20
0.0161842
11
-0.110733
21
0.00347992
0
LINE
8
BLACK
6
CONTINUOUS
10
-0.110733
20
0.00347992
11
-0.110399
21
-0.00927047
0
LINE
8
BLACK
6
CONTINUOUS
10
-0.110399
20
-0.00927047
11
-0.108602
21
-0.021898
0
LINE
8
BLACK
6
CONTINUOUS
10
-0.122078
20
1.22953
11
-0.118025
21
1.24296
0
LINE
8
BLACK
6
CONTINUOUS
10
-0.118025
20
1.24296
11
-0.112501
21
1.25585
0
LINE
8
BLACK
6
CONTINUOUS
10
-0.112501
20
1.25585
11
-0.105575
21
1.26804
0
LINE
8
BLACK
6
CONTINUOUS
10
-0.105575
20
1.26804
11
-0.097333
21
1.27938
0
LINE
8
BLACK
6
CONTINUOUS
10
-0.097333
20
1.27938
11
-0.0878777
21
1.28974
0
LINE
8
BLACK
6
CONTINUOUS
10
-0.0878777
20
1.28974
11
-0.0773271
21
1.29897
0
LINE
8
BLACK
6
CONTINUOUS
10
-0.0773271
20
1.29897
11
-0.0658126
21
1.30698
0
LINE
8
BLACK
6
CONTINUOUS
10
-0.0658126
20
1.30698
11
-0.0534779
21
1.31365
0
LINE
8
BLACK
6
CONTINUOUS
10
-0.0534779
20
1.31365
11
-0.0404766
21
1.3189
0
LINE
8
BLACK
6
CONTINUOUS
10
-0.0404766
20
1.3189
11
-0.0269707
21
1.32267
0
LINE
8
BLACK
6
CONTINUOUS
10
-0.0269707
20
1.32267
11
-0.0131288
21
1.32491
0
LINE
8
BLACK
6
CONTINUOUS
10
-0.0131288
20
1.32491
11
0.00087685
21
1.3256
0
LINE
8
BLACK
6
CONTINUOUS
10
0.00087685
20
1.3256
11
0.0148715
21
1.32472
0
LINE
8
BLACK
6
CONTINUOUS
10
0.0148715
20
1.32472
11
0.0286809
21
1.32228
0
LINE
8
BLACK
6
CONTINUOUS
10
0.0286809
20
1.32228
11
0.0421327
21
1.31832
0
LINE
8
BLACK
6
CONTINUOUS
10
0.0421327
20
1.31832
11
0.0550594
21
1.31289
0
LINE
8
BLACK
6
CONTINUOUS
10
0.0550594
20
1.31289
11
0.0672998
21
1.30605
0
LINE
8
BLACK
6
CONTINUOUS
10
0.0672998
20
1.30605
11
0.0787015
21
1.29788
0
LINE
8
BLACK
6
CONTINUOUS
10
0.0787015
20
1.29788
11
0.0891221
21
1.2885
0
LINE
8
BLACK
6
CONTINUOUS
10
0.0891221
20
1.2885
11
0.0984319
21
1.27802
0
LINE
8
BLACK
6
CONTINUOUS
10
0.0984319
20
1.27802
11
0.106515
21
1.26656
0
LINE
8
BLACK
6
CONTINUOUS
10
0.106515
20
1.26656
11
0.11327
21
1.25427
0
LINE
8
BLACK
6
CONTINUOUS
10
0.11327
20
1.25427
11
0.118614
21
1.24131
0
LINE
8
BLACK
6
CONTINUOUS
10
0.118614
20
1.24131
11
0.122479
21
1.22783
0
LINE
8
BLACK
6
CONTINUOUS
10
0.122479
20
1.22783
11
0.124817
21
1.214
0
LINE
8
BLACK
6
CONTINUOUS
10
0.124817
20
1.214
11
0.1256
21
1.2
0
LINE
8
BLACK
6
CONTINUOUS
10
0.1256
20
1.2
11
0.125551
21
1.19649
0
LINE
8
BLACK
6
CONTINUOUS
10
0.125551
20
1.19649
11
0.124378
21
1.18252
0
LINE
8
BLACK
6
CONTINUOUS
10
0.124378
20
1.18252
11
0.121654
21
1.16876
0
LINE
8
BLACK
6
CONTINUOUS
10
0.121654
20
1.16876
11
0.117414
21
1.1554
0
LINE
8
BLACK
6
CONTINUOUS
10
0.117414
20
1.1554
11
0.111711
21
1.14259
0
LINE
8
BLACK
6
CONTINUOUS
10
0.111711
20
1.14259
11
0.104615
21
1.13049
0
LINE
8
BLACK
6
CONTINUOUS
10
0.104615
20
1.13049
11
0.0962152
21
1.11927
0
LINE
8
BLACK
6
CONTINUOUS
10
0.0962152
20
1.11927
11
0.0866162
21
1.10904
0
LINE
8
BLACK
6
CONTINUOUS
10
0.0866162
20
1.10904
11
0.0759376
21
1.09996
0
LINE
8
BLACK
6
CONTINUOUS
10
0.0759376
20
1.09996
11
0.0643126
21
1.09211
0
LINE
8
BLACK
6
CONTINUOUS
10
0.0643126
20
1.09211
11
0.0518859
21
1.08562
0
LINE
8
BLACK
6
CONTINUOUS
10
0.0518859
20
1.08562
11
0.0388125
21
1.08055
0
LINE
8
BLACK
6
CONTINUOUS
10
0.0388125
20
1.08055
11
0.0252554
21
1.07697
0
LINE
8
BLACK
6
CONTINUOUS
10
0.0252554
20
1.07697
11
0.0113835
21
1.07492
0
LINE
8
BLACK
6
CONTINUOUS
10
0.0113835
20
1.07492
11
-0.00263035
21
1.07443
0
LINE
8
BLACK
6
CONTINUOUS
10
-0.00263035
20
1.07443
11
-0.0166114
21
1.0755
0
LINE
8
BLACK
6
CONTINUOUS
10
-0.0166114
20
1.0755
11
-0.0303854
21
1.07813
0
LINE
8
BLACK
6
CONTINUOUS
10
-0.0303854
20
1.07813
11
-0.0437806
21
1.08228
0
LINE
8
BLACK
6
CONTINUOUS
10
-0.0437806
20
1.08228
11
-0.0566302
21
1.08789
0
LINE
8
BLACK
6
CONTINUOUS
10
-0.0566302
20
1.08789
11
-0.0687739
21
1.0949
0
LINE
8
BLACK
6
CONTINUOUS
10
-0.0687739
20
1.0949
11
-0.0800605
21
1.10322
0
LINE
8
BLACK
6
CONTINUOUS
10
-0.0800605
20
1.10322
11
-0.0903491
21
1.11275
0
LINE
8
BLACK
6
CONTINUOUS
10
-0.0903491
20
1.11275
11
-0.0995116
21
1.12337
0
LINE
8
BLACK
6
CONTINUOUS
10
-0.0995116
20
1.12337
11
-0.107434
21
1.13494
0
LINE
8
BLACK
6
CONTINUOUS
10
-0.107434
20
1.13494
11
-0.114017
21
1.14732
0
LINE
8
BLACK
6
CONTINUOUS
10
-0.114017
20
1.14732
11
-0.119179
21
1.16035
0
LINE
8
BLACK
6
CONTINUOUS
10
-0.119179
20
1.16035
11
-0.122855
21
1.17389
0
LINE
8
BLACK
6
CONTINUOUS
10
-0.122855
20
1.17389
11
-0.125001
21
1.18774
0
LINE
8
BLACK
6
CONTINUOUS
10
-0.125001
20
1.18774
11
-0.125588
21
1.20175
0
LINE
8
BLACK
6
CONTINUOUS
10
-0.125588
20
1.20175
11
-0.125467
21
1.20348
0
LINE
8
BLACK
6
CONTINUOUS
10
-0.125467
20
1.20348
11
-0.12461
21
1.21574
0
LINE
8
BLACK
6
CONTINUOUS
10
-0.12461
20
1.21574
11
-0.122078
21
1.22953
0
LINE
8
BLACK
6
CONTINUOUS
10
-0.108602
20
1.1781
11
-0.105365
21
1.16576
0
LINE
8
BLACK
6
CONTINUOUS
10
-0.105365
20
1.16576
11
-0.100732
21
1.15388
0
LINE
8
BLACK
6
CONTINUOUS
10
-0.100732
20
1.15388
11
-0.0947636
21
1.14261
0
LINE
8
BLACK
6
CONTINUOUS
10
-0.0947636
20
1.14261
11
-0.0875393
21
1.1321
0
LINE
8
BLACK
6
CONTINUOUS
10
-0.0875393
20
1.1321
11
-0.0791546
21
1.12249
0
LINE
8
BLACK
6
CONTINUOUS
10
-0.0791546
20
1.12249
11
-0.0697208
21
1.1139
0
LINE
8
BLACK
6
CONTINUOUS
10
-0.0697208
20
1.1139
11
-0.0593629
21
1.10646
0
LINE
8
BLACK
6
CONTINUOUS
10
-0.0593629
20
1.10646
11
-0.0482181
21
1.10026
0
LINE
8
BLACK
6
CONTINUOUS
10
-0.0482181
20
1.10026
11
-0.0364343
21
1.09537
0
LINE
8
BLACK
6
CONTINUOUS
10
-0.0364343
20
1.09537
11
-0.0241675
21
1.09188
0
LINE
8
BLACK
6
CONTINUOUS
10
-0.0241675
20
1.09188
11
-0.0115804
21
1.08982
0
LINE
8
BLACK
6
CONTINUOUS
10
-0.0115804
20
1.08982
11
0.00116016
21
1.08922
0
LINE
8
BLACK
6
CONTINUOUS
10
0.00116016
20
1.08922
11
0.0138854
21
1.09009
0
LINE
8
BLACK
6
CONTINUOUS
10
0.0138854
20
1.09009
11
0.0264265
21
1.09241
0
LINE
8
BLACK
6
CONTINUOUS
10
0.0264265
20
1.09241
11
0.0386174
21
1.09616
0
LINE
8
BLACK
6
CONTINUOUS
10
0.0386174
20
1.09616
11
0.0502965
21
1.10129
0
LINE
8
BLACK
6
CONTINUOUS
10
0.0502965
20
1.10129
11
0.0613088
21
1.10772
0
LINE
8
BLACK
6
CONTINUOUS
10
0.0613088
20
1.10772
11
0.0715086
21
1.11538
0
LINE
8
BLACK
6
CONTINUOUS
10
0.0715086
20
1.11538
11
0.0807606
21
1.12416
0
LINE
8
BLACK
6
CONTINUOUS
10
0.0807606
20
1.12416
11
0.0889421
21
1.13395
0
LINE
8
BLACK
6
CONTINUOUS
10
0.0889421
20
1.13395
11
0.0959447
21
1.14461
0
LINE
8
BLACK
6
CONTINUOUS
10
0.0959447
20
1.14461
11
0.101676
21
1.156
0
LINE
8
BLACK
6
CONTINUOUS
10
0.101676
20
1.156
11
0.106059
21
1.16798
0
LINE
8
BLACK
6
CONTINUOUS
10
0.106059
20
1.16798
11
0.109036
21
1.18038
0
LINE
8
BLACK
6
CONTINUOUS
10
0.109036
20
1.18038
11
0.110569
21
1.19304
0
LINE
8
BLACK
6
CONTINUOUS
10
0.110569
20
1.19304
11
0.110787
21
1.2
0
LINE
8
BLACK
6
CONTINUOUS
10
0.110787
20
1.2
11
0.110053
21
1.21273
0
LINE
8
BLACK
6
CONTINUOUS
10
0.110053
20
1.21273
11
0.10786
21
1.2253
0
LINE
8
BLACK
6
CONTINUOUS
10
0.10786
20
1.2253
11
0.104238
21
1.23753
0
LINE
8
BLACK
6
CONTINUOUS
10
0.104238
20
1.23753
11
0.0992336
21
1.24926
0
LINE
8
BLACK
6
CONTINUOUS
10
0.0992336
20
1.24926
11
0.0929142
21
1.26034
0
LINE
8
BLACK
6
CONTINUOUS
10
0.0929142
20
1.26034
11
0.0853632
21
1.27062
0
LINE
8
BLACK
6
CONTINUOUS
10
0.0853632
20
1.27062
11
0.0766808
21
1.27996
0
LINE
8
BLACK
6
CONTINUOUS
10
0.0766808
20
1.27996
11
0.066982
21
1.28825
0
LINE
8
BLACK
6
CONTINUOUS
10
0.066982
20
1.28825
11
0.0563954
21
1.29536
0
LINE
8
BLACK
6
CONTINUOUS
10
0.0563954
20
1.29536
11
0.0450613
21
1.30121
0
LINE
8
BLACK
6
CONTINUOUS
10
0.0450613
20
1.30121
11
0.03313
21
1.30572
0
LINE
8
BLACK
6
CONTINUOUS
10
0.03313
20
1.30572
11
0.0207595
21
1.30883
0
LINE
8
BLACK
6
CONTINUOUS
10
0.0207595
20
1.30883
11
0.00811386
21
1.31049
0
LINE
8
BLACK
6
CONTINUOUS
10
0.00811386
20
1.31049
11
-0.00463929
21
1.31069
0
LINE
8
BLACK
6
CONTINUOUS
10
-0.00463929
20
1.31069
11
-0.017331
21
1.30942
0
LINE
8
BLACK
6
CONTINUOUS
10
-0.017331
20
1.30942
11
-0.029793
21
1.30671
0
LINE
8
BLACK
6
CONTINUOUS
10
-0.029793
20
1.30671
11
-0.04186
21
1.30257
0
LINE
8
BLACK
6
CONTINUOUS
10
-0.04186
20
1.30257
11
-0.0533722
21
1.29708
0
LINE
8
BLACK
6
CONTINUOUS
10
-0.0533722
20
1.29708
11
-0.0641771
21
1.29031
0
LINE
8
BLACK
6
CONTINUOUS
10
-0.0641771
20
1.29031
11
-0.0741313
21
1.28233
0
LINE
8
BLACK
6
CONTINUOUS
10
-0.0741313
20
1.28233
11
-0.0831029
21
1.27327
0
LINE
8
BLACK
6
CONTINUOUS
10
-0.0831029
20
1.27327
11
-0.090973
21
1.26323
0
LINE
8
BLACK
6
CONTINUOUS
10
-0.090973
20
1.26323
11
-0.0976374
21
1.25235
0
LINE
8
BLACK
6
CONTINUOUS
10
-0.0976374
20
1.25235
11
-0.103008
21
1.24078
0
LINE
8
BLACK
6
CONTINUOUS
10
-0.103008
20
1.24078
11
-0.107012
21
1.22867
0
LINE
8
BLACK
6
CONTINUOUS
10
-0.107012
20
1.22867
11
-0.109599
21
1.21618
0
LINE
8
BLACK
6
CONTINUOUS
10
-0.109599
20
1.21618
11
-0.110733
21
1.20348
0
LINE
8
BLACK
6
CONTINUOUS
10
-0.110733
20
1.20348
11
-0.110399
21
1.19073
0
LINE
8
BLACK
6
CONTINUOUS
10
-0.110399
20
1.19073
11
-0.108602
21
1.1781
0
LINE
8
BLACK
6
CONTINUOUS
10
1.07792
20
1.22953
11
1.08197
21
1.24296
0
LINE
8
BLACK
6
CONTINUOUS
10
1.08197
20
1.24296
11
1.0875
21
1.25585
0
LINE
8
BLACK
6
CONTINUOUS
10
1.0875
20
1.25585
11
1.09442
21
1.26804
0
LINE
8
BLACK
6
CONTINUOUS
10
1.09442
20
1.26804
11
1.10267
21
1.27938
0
LINE
8
BLACK
6
CONTINUOUS
10
1.10267
20
1.27938
11
1.11212
21
1.28974
0
LINE
8
BLACK
6
CONTINUOUS
10
1.11212
20
1.28974
11
1.12267
21
1.29897
0
LINE
8
BLACK
6
CONTINUOUS
10
1.12267
20
1.29897
11
1.13419
21
1.30698
0
LINE
8
BLACK
6
CONTINUOUS
10
1.13419
20
1.30698
11
1.14652
21
1.31365
0
LINE
8
BLACK
6
CONTINUOUS
10
1.14652
20
1.31365
11
1.15952
21
1.3189
0
LINE
8
BLACK
6
CONTINUOUS
10
1.15952
20
1.3189
11
1.17303
21
1.32267
0
LINE
8
BLACK
6
CONTINUOUS
10
1.17303
20
1.32267
11
1.18687
21
1.32491
0
LINE
8
BLACK
6
CONTINUOUS
10
1.18687
20
1.32491
11
1.20088
21
1.3256
0
LINE
8
BLACK
6
CONTINUOUS
10
1.20088
20
1.3256
11
1.21487
21
1.32472
0
LINE
8
BLACK
6
CONTINUOUS
10
1.21487
20
1.32472
11
1.22868
21
1.32228
0
LINE
8
BLACK
6
CONTINUOUS
10
1.22868
20
1.32228
11
1.24213
21
1.31832
0
LINE
8
BLACK
6
CONTINUOUS
10
1.24213
20
1.31832
11
1.25506
21
1.31289
0
LINE
8
BLACK
6
CONTINUOUS
10
1.25506
20
1.31289
11
1.2673
21
1.30605
0
LINE
8
BLACK
6
CONTINUOUS
10
1.2673
20
1.30605
11
1.2787
21
1.29788
0
LINE
8
BLACK
6
CONTINUOUS
10
1.2787
20
1.29788
11
1.28912
21
1.2885
0
LINE
8
BLACK
6
CONTINUOUS
10
1.28912
20
1.2885
11
1.29843
21
1.27802
0
LINE
8
BLACK
6
CONTINUOUS
10
1.29843
20
1.27802
11
1.30651
21
1.26656
0
LINE
8
BLACK
6
CONTINUOUS
10
1.30651
20
1.26656
11
1.31327
21
1.25427
0
LINE
8
BLACK
6
CONTINUOUS
10
1.31327
20
1.25427
11
1.31861
21
1.24131
0
LINE
8
BLACK
6
CONTINUOUS
10
1.31861
20
1.24131
11
1.32248
21
1.22783
0
LINE
8
BLACK
6
CONTINUOUS
10
1.32248
20
1.22783
11
1.32482
21
1.214
0
LINE
8
BLACK
6
CONTINUOUS
10
1.32482
20
1.214
11
1.3256
21
1.2
0
LINE
8
BLACK
6
CONTINUOUS
10
1.3256
20
1.2
11
1.32555
21
1.19649
0
LINE
8
BLACK
6
CONTINUOUS
10
1.32555
20
1.19649
11
1.32438
21
1.18252
0
LINE
8
BLACK
6
CONTINUOUS
10
1.32438
20
1.18252
11
1.32165
21
1.16876
0
LINE
8
BLACK
6
CONTINUOUS
10
1.32165
20
1.16876
11
1.31741
21
1.1554
0
LINE
8
BLACK
6
CONTINUOUS
10
1.31741
20
1.1554
11
1.31171
21
1.14259
0
LINE
8
BLACK
6
CONTINUOUS
10
1.31171
20
1.14259
11
1.30461
21
1.13049
0
LINE
8
BLACK
6
CONTINUOUS
10
1.30461
20
1.13049
11
1.29622
21
1.11927
0
LINE
8
BLACK
6
CONTINUOUS
10
1.29622
20
1.11927
11
1.28662
21
1.10904
0
LINE
8
BLACK
6
CONTINUOUS
10
1.28662
20
1.10904
11
1.27594
21
1.09996
0
LINE
8
BLACK
6
CONTINUOUS
10
1.27594
20
1.09996
11
1.26431
21
1.09211
0
LINE
8
BLACK
6
CONTINUOUS
10
1.26431
20
1.09211
11
1.25189
21
1.08562
0
LINE
8
BLACK
6
CONTINUOUS
10
1.25189
20
1.08562
11
1.23881
21
1.08055
0
LINE
8
BLACK
6
CONTINUOUS
10
1.23881
20
1.08055
11
1.22526
21
1.07697
0
LINE
8
BLACK
6
CONTINUOUS
10
1.22526
20
1.07697
11
1.21138
21
1.07492
0
LINE
8
BLACK
6
CONTINUOUS
10
1.21138
20
1.07492
11
1.19737
21
1.07443
0
LINE
8
BLACK
6
CONTINUOUS
10
1.19737
20
1.07443
11
1.18339
21
1.0755
0
LINE
8
BLACK
6
CONTINUOUS
10
1.18339
20
1.0755
11
1.16961
21
1.07813
0
LINE
8
BLACK
6
CONTINUOUS
10
1.16961
20
1.07813
11
1.15622
21
1.08228
0
LINE
8
BLACK
6
CONTINUOUS
10
1.15622
20
1.08228
11
1.14337
21
1.08789
0
LINE
8
BLACK
6
CONTINUOUS
10
1.14337
20
1.08789
11
1.13123
21
1.0949
0
LINE
8
BLACK
6
CONTINUOUS
10
1.13123
20
1.0949
11
1.11994
21
1.10322
0
LINE
8
BLACK
6
CONTINUOUS
10
1.11994
20
1.10322
11
1.10965
21
1.11275
0
LINE
8
BLACK
6
CONTINUOUS
10
1.10965
20
1.11275
11
1.10049
21
1.12337
0
LINE
8
BLACK
6
CONTINUOUS
10
1.10049
20
1.12337
11
1.09257
21
1.13494
0
LINE
8
BLACK
6
CONTINUOUS
10
1.09257
20
1.13494
11
1.08598
21
1.14732
0
LINE
8
BLACK
6
CONTINUOUS
10
1.08598
20
1.14732
11
1.08082
21
1.16035
0
LINE
8
BLACK
6
CONTINUOUS
10
1.08082
20
1.16035
11
1.07714
21
1.17389
0
LINE
8
BLACK
6
CONTINUOUS
10
1.07714
20
1.17389
11
1.075
21
1.18774
0
LINE
8
BLACK
6
CONTINUOUS
10
1.075
20
1.18774
11
1.07441
21
1.20175
0
LINE
8
BLACK
6
CONTINUOUS
10
1.07441
20
1.20175
11
1.07453
21
1.20348
0
LINE
8
BLACK
6
CONTINUOUS
10
1.07453
20
1.20348
11
1.07539
21
1.21574
0
LINE
8
BLACK
6
CONTINUOUS
10
1.07539
20
1.21574
11
1.07792
21
1.22953
0
LINE
8
BLACK
6
CONTINUOUS
10
1.0914
20
1.1781
11
1.09463
21
1.16576
0
LINE
8
BLACK
6
CONTINUOUS
10
1.09463
20
1.16576
11
1.09927
21
1.15388
0
LINE
8
BLACK
6
CONTINUOUS
10
1.09927
20
1.15388
11
1.10524
21
1.14261
0
LINE
8
BLACK
6
CONTINUOUS
10
1.10524
20
1.14261
11
1.11246
21
1.1321
0
LINE
8
BLACK
6
CONTINUOUS
10
1.11246
20
1.1321
11
1.12085
21
1.12249
0
LINE
8
BLACK
6
CONTINUOUS
10
1.12085
20
1.12249
11
1.13028
21
1.1139
0
LINE
8
BLACK
6
CONTINUOUS
10
1.13028
20
1.1139
11
1.14064
21
1.10646
0
LINE
8
BLACK
6
CONTINUOUS
10
1.14064
20
1.10646
11
1.15178
21
1.10026
0
LINE
8
BLACK
6
CONTINUOUS
10
1.15178
20
1.10026
11
1.16357
21
1.09537
0
LINE
8
BLACK
6
CONTINUOUS
10
1.16357
20
1.09537
11
1.17583
21
1.09188
0
LINE
8
BLACK
6
CONTINUOUS
10
1.17583
20
1.09188
11
1.18842
21
1.08982
0
LINE
8
BLACK
6
CONTINUOUS
10
1.18842
20
1.08982
11
1.20116
21
1.08922
0
LINE
8
BLACK
6
CONTINUOUS
10
1.20116
20
1.08922
11
1.21389
21
1.09009
0
LINE
8
BLACK
6
CONTINUOUS
10
1.21389
20
1.09009
11
1.22643
21
1.09241
0
LINE
8
BLACK
6
CONTINUOUS
10
1.22643
20
1.09241
11
1.23862
21
1.09616
0
LINE
8
BLACK
6
CONTINUOUS
10
1.23862
20
1.09616
11
1.2503
21
1.10129
0
LINE
8
BLACK
6
CONTINUOUS
10
1.2503
20
1.10129
11
1.26131
21
1.10772
0
LINE
8
BLACK
6
CONTINUOUS
10
1.26131
20
1.10772
11
1.27151
21
1.11538
0
LINE
8
BLACK
6
CONTINUOUS
10
1.27151
20
1.11538
11
1.28076
21
1.12416
0
LINE
8
BLACK
6
CONTINUOUS
10
1.28076
20
1.12416
11
1.28894
21
1.13395
0
LINE
8
BLACK
6
CONTINUOUS
10
1.28894
20
1.13395
11
1.29594
21
1.14461
0
LINE
8
BLACK
6
CONTINUOUS
10
1.29594
20
1.14461
11
1.30168
21
1.156
0
LINE
8
BLACK
6
CONTINUOUS
10
1.30168
20
1.156
11
1.30606
21
1.16798
0
LINE
8
BLACK
6
CONTINUOUS
10
1.30606
20
1.16798
11
1.30904
21
1.18038
0
LINE
8
BLACK
6
CONTINUOUS
10
1.30904
20
1.18038
11
1.31057
21
1.19304
0
LINE
8
BLACK
6
CONTINUOUS
10
1.31057
20
1.19304
11
1.31079
21
1.2
0
LINE
8
BLACK
6
CONTINUOUS
10
1.31079
20
1.2
11
1.31005
21
1.21273
0
LINE
8
BLACK
6
CONTINUOUS
10
1.31005
20
1.21273
11
1.30786
21
1.2253
0
LINE
8
BLACK
6
CONTINUOUS
10
1.30786
20
1.2253
11
1.30424
21
1.23753
0
LINE
8
BLACK
6
CONTINUOUS
10
1.30424
20
1.23753
11
1.29923
21
1.24926
0
LINE
8
BLACK
6
CONTINUOUS
10
1.29923
20
1.24926
11
1.29291
21
1.26034
0
LINE
8
BLACK
6
CONTINUOUS
10
1.29291
20
1.26034
11
1.28536
21
1.27062
0
LINE
8
BLACK
6
CONTINUOUS
10
1.28536
20
1.27062
11
1.27668
21
1.27996
0
LINE
8
BLACK
6
CONTINUOUS
10
1.27668
20
1.27996
11
1.26698
21
1.28825
0
LINE
8
BLACK
6
CONTINUOUS
10
1.26698
20
1.28825
11
1.2564
21
1.29536
0
LINE
8
BLACK
6
CONTINUOUS
10
1.2564
20
1.29536
11
1.24506
21
1.30121
0
LINE
8
BLACK
6
CONTINUOUS
10
1.24506
20
1.30121
11
1.23313
21
1.30572
0
LINE
8
BLACK
6
CONTINUOUS
10
1.23313
20
1.30572
11
1.22076
21
1.30883
0
LINE
8
BLACK
6
CONTINUOUS
10
1.22076
20
1.30883
11
1.20811
21
1.31049
0
LINE
8
BLACK
6
CONTINUOUS
10
1.20811
20
1.31049
11
1.19536
21
1.31069
0
LINE
8
BLACK
6
CONTINUOUS
10
1.19536
20
1.31069
11
1.18267
21
1.30942
0
LINE
8
BLACK
6
CONTINUOUS
10
1.18267
20
1.30942
11
1.17021
21
1.30671
0
LINE
8
BLACK
6
CONTINUOUS
10
1.17021
20
1.30671
11
1.15814
21
1.30257
0
LINE
8
BLACK
6
CONTINUOUS
10
1.15814
20
1.30257
11
1.14663
21
1.29708
0
LINE
8
BLACK
6
CONTINUOUS
10
1.14663
20
1.29708
11
1.13582
21
1.29031
0
LINE
8
BLACK
6
CONTINUOUS
10
1.13582
20
1.29031
11
1.12587
21
1.28233
0
LINE
8
BLACK
6
CONTINUOUS
10
1.12587
20
1.28233
11
1.1169
21
1.27327
0
LINE
8
BLACK
6
CONTINUOUS
10
1.1169
20
1.27327
11
1.10903
21
1.26323
0
LINE
8
BLACK
6
CONTINUOUS
10
1.10903
20
1.26323
11
1.10236
21
1.25235
0
LINE
8
BLACK
6
CONTINUOUS
10
1.10236
20
1.25235
11
1.09699
21
1.24078
0
LINE
8
BLACK
6
CONTINUOUS
10
1.09699
20
1.24078
11
1.09299
21
1.22867
0
LINE
8
BLACK
6
CONTINUOUS
10
1.09299
20
1.22867
11
1.0904
21
1.21618
0
LINE
8
BLACK
6
CONTINUOUS
10
1.0904
20
1.21618
11
1.08927
21
1.20348
0
LINE
8
BLACK
6
CONTINUOUS
10
1.08927
20
1.20348
11
1.0896
21
1.19073
0
LINE
8
BLACK
6
CONTINUOUS
10
1.0896
20
1.19073
11
1.0914
21
1.1781
  0
ENDSEC
  0
EOF
