  0
SECTION
  2
HEADER
  9
$ANGBASE
  50
0.0
  9
$ANGDIR
  70
1
  9
$MEASUREMENT
  70
0
  0
ENDSEC
  0
SECTION
  2
TABLES
  0
TABLE
  2
LTYPE
  70
4
  0
LTYPE
  5
40F
  2
CONTINUOUS
  70
0
  3
Solid line
  72
65
  73
0
  40
0.0
  0
LTYPE
  5
410
  2
DASHDOT
 70
0
  3
Dash Dot ____ _ ____ _
 72
65
 73
4
 40
2.0
 49
1.25
 49
-0.25
 49
0.25
 49
-0.25
  0
LTYPE
  5
411
  2
DASHED
 70
0
  3
Dashed __ __ __ __ __
 72
65
 73
2
 40
0.75
 49
0.5
 49
-0.25
  0
LTYPE
  5
43B
  2
DOTTED
 70
0
  3
Dotted .  .  .  .
 72
65
 73
2
 40
0.2
 49
0.0
 49
-0.2
  0
ENDTAB
  0
TABLE
  2
STYLE
  70
4
  0
STYLE
  2
KICAD
  70
0
  40
0
  41
1
  42
1
  50
0
  71
0
  3
isocp.shx
  0
STYLE
  2
KICADB
  70
0
  40
0
  41
1
  42
1
  50
0
  71
0
  3
isocp.shx
  0
STYLE
  2
KICADI
  70
0
  40
0
  41
1
  42
1
  50
15
  71
0
  3
isocp.shx
  0
STYLE
  2
KICADBI
  70
0
  40
0
  41
1
  42
1
  50
15
  71
0
  3
isocp.shx
  0
ENDTAB
  0
TABLE
  2
LAYER
  70
1
  0
LAYER
  2
BLACK
  70
0
  62
7
  6
CONTINUOUS
  0
ENDTAB
  0
ENDSEC
  0
SECTION
  2
ENTITIES
0
LINE
8
BLACK
6
CONTINUOUS
10
1.40239
20
-0.650263
11
1.4021
21
-0.649567
0
LINE
8
BLACK
6
CONTINUOUS
10
1.4021
20
-0.649567
11
1.4021
21
-0.48815
0
LINE
8
BLACK
6
CONTINUOUS
10
1.4021
20
-0.48815
11
1.40239
21
-0.487454
0
LINE
8
BLACK
6
CONTINUOUS
10
1.40239
20
-0.487454
11
1.40308
21
-0.487165
0
LINE
8
BLACK
6
CONTINUOUS
10
1.40308
20
-0.487165
11
1.74954
21
-0.487165
0
LINE
8
BLACK
6
CONTINUOUS
10
1.74954
20
-0.487165
11
1.75023
21
-0.487454
0
LINE
8
BLACK
6
CONTINUOUS
10
1.75023
20
-0.487454
11
1.75052
21
-0.48815
0
LINE
8
BLACK
6
CONTINUOUS
10
1.75052
20
-0.48815
11
1.75052
21
-0.649567
0
LINE
8
BLACK
6
CONTINUOUS
10
1.75052
20
-0.649567
11
1.75023
21
-0.650263
0
LINE
8
BLACK
6
CONTINUOUS
10
1.75023
20
-0.650263
11
1.74954
21
-0.650551
0
LINE
8
BLACK
6
CONTINUOUS
10
1.74954
20
-0.650551
11
1.40308
21
-0.650551
0
LINE
8
BLACK
6
CONTINUOUS
10
1.40308
20
-0.650551
11
1.40239
21
-0.650263
0
LINE
8
BLACK
6
CONTINUOUS
10
1.40407
20
-0.489134
11
1.40407
21
-0.648583
0
LINE
8
BLACK
6
CONTINUOUS
10
1.40407
20
-0.648583
11
1.74855
21
-0.648583
0
LINE
8
BLACK
6
CONTINUOUS
10
1.74855
20
-0.648583
11
1.74855
21
-0.489134
0
LINE
8
BLACK
6
CONTINUOUS
10
1.74855
20
-0.489134
11
1.40407
21
-0.489134
0
LINE
8
BLACK
6
CONTINUOUS
10
1.40753
20
-0.227763
11
1.40724
21
-0.227067
0
LINE
8
BLACK
6
CONTINUOUS
10
1.40724
20
-0.227067
11
1.40724
21
-0.0656496
0
LINE
8
BLACK
6
CONTINUOUS
10
1.40724
20
-0.0656496
11
1.40753
21
-0.0649536
0
LINE
8
BLACK
6
CONTINUOUS
10
1.40753
20
-0.0649536
11
1.40823
21
-0.0646654
0
LINE
8
BLACK
6
CONTINUOUS
10
1.40823
20
-0.0646654
11
1.75469
21
-0.0646654
0
LINE
8
BLACK
6
CONTINUOUS
10
1.75469
20
-0.0646654
11
1.75538
21
-0.0649536
0
LINE
8
BLACK
6
CONTINUOUS
10
1.75538
20
-0.0649536
11
1.75567
21
-0.0656496
0
LINE
8
BLACK
6
CONTINUOUS
10
1.75567
20
-0.0656496
11
1.75567
21
-0.227067
0
LINE
8
BLACK
6
CONTINUOUS
10
1.75567
20
-0.227067
11
1.75538
21
-0.227763
0
LINE
8
BLACK
6
CONTINUOUS
10
1.75538
20
-0.227763
11
1.75469
21
-0.228051
0
LINE
8
BLACK
6
CONTINUOUS
10
1.75469
20
-0.228051
11
1.40823
21
-0.228051
0
LINE
8
BLACK
6
CONTINUOUS
10
1.40823
20
-0.228051
11
1.40753
21
-0.227763
0
LINE
8
BLACK
6
CONTINUOUS
10
1.40921
20
-0.0666339
11
1.40921
21
-0.226083
0
LINE
8
BLACK
6
CONTINUOUS
10
1.40921
20
-0.226083
11
1.7537
21
-0.226083
0
LINE
8
BLACK
6
CONTINUOUS
10
1.7537
20
-0.226083
11
1.7537
21
-0.0666339
0
LINE
8
BLACK
6
CONTINUOUS
10
1.7537
20
-0.0666339
11
1.40921
21
-0.0666339
0
LINE
8
BLACK
6
CONTINUOUS
10
1.26852
20
0.167237
11
1.26823
21
0.167933
0
LINE
8
BLACK
6
CONTINUOUS
10
1.26823
20
0.167933
11
1.26823
21
0.32935
0
LINE
8
BLACK
6
CONTINUOUS
10
1.26823
20
0.32935
11
1.26852
21
0.330046
0
LINE
8
BLACK
6
CONTINUOUS
10
1.26852
20
0.330046
11
1.26921
21
0.330335
0
LINE
8
BLACK
6
CONTINUOUS
10
1.26921
20
0.330335
11
1.61567
21
0.330335
0
LINE
8
BLACK
6
CONTINUOUS
10
1.61567
20
0.330335
11
1.61637
21
0.330046
0
LINE
8
BLACK
6
CONTINUOUS
10
1.61637
20
0.330046
11
1.61665
21
0.32935
0
LINE
8
BLACK
6
CONTINUOUS
10
1.61665
20
0.32935
11
1.61665
21
0.167933
0
LINE
8
BLACK
6
CONTINUOUS
10
1.61665
20
0.167933
11
1.61637
21
0.167237
0
LINE
8
BLACK
6
CONTINUOUS
10
1.61637
20
0.167237
11
1.61567
21
0.166949
0
LINE
8
BLACK
6
CONTINUOUS
10
1.61567
20
0.166949
11
1.26921
21
0.166949
0
LINE
8
BLACK
6
CONTINUOUS
10
1.26921
20
0.166949
11
1.26852
21
0.167237
0
LINE
8
BLACK
6
CONTINUOUS
10
1.2702
20
0.328366
11
1.2702
21
0.168917
0
LINE
8
BLACK
6
CONTINUOUS
10
1.2702
20
0.168917
11
1.61469
21
0.168917
0
LINE
8
BLACK
6
CONTINUOUS
10
1.61469
20
0.168917
11
1.61469
21
0.328366
0
LINE
8
BLACK
6
CONTINUOUS
10
1.61469
20
0.328366
11
1.2702
21
0.328366
0
LINE
8
BLACK
6
CONTINUOUS
10
1.18352
20
0.592237
11
1.18323
21
0.592933
0
LINE
8
BLACK
6
CONTINUOUS
10
1.18323
20
0.592933
11
1.18323
21
0.75435
0
LINE
8
BLACK
6
CONTINUOUS
10
1.18323
20
0.75435
11
1.18352
21
0.755046
0
LINE
8
BLACK
6
CONTINUOUS
10
1.18352
20
0.755046
11
1.18421
21
0.755335
0
LINE
8
BLACK
6
CONTINUOUS
10
1.18421
20
0.755335
11
1.53067
21
0.755335
0
LINE
8
BLACK
6
CONTINUOUS
10
1.53067
20
0.755335
11
1.53137
21
0.755046
0
LINE
8
BLACK
6
CONTINUOUS
10
1.53137
20
0.755046
11
1.53165
21
0.75435
0
LINE
8
BLACK
6
CONTINUOUS
10
1.53165
20
0.75435
11
1.53165
21
0.592933
0
LINE
8
BLACK
6
CONTINUOUS
10
1.53165
20
0.592933
11
1.53137
21
0.592237
0
LINE
8
BLACK
6
CONTINUOUS
10
1.53137
20
0.592237
11
1.53067
21
0.591949
0
LINE
8
BLACK
6
CONTINUOUS
10
1.53067
20
0.591949
11
1.18421
21
0.591949
0
LINE
8
BLACK
6
CONTINUOUS
10
1.18421
20
0.591949
11
1.18352
21
0.592237
0
LINE
8
BLACK
6
CONTINUOUS
10
1.1852
20
0.753366
11
1.1852
21
0.593917
0
LINE
8
BLACK
6
CONTINUOUS
10
1.1852
20
0.593917
11
1.52969
21
0.593917
0
LINE
8
BLACK
6
CONTINUOUS
10
1.52969
20
0.593917
11
1.52969
21
0.753366
0
LINE
8
BLACK
6
CONTINUOUS
10
1.52969
20
0.753366
11
1.1852
21
0.753366
0
LINE
8
BLACK
6
CONTINUOUS
10
1.17753
20
0.999737
11
1.17724
21
1.00043
0
LINE
8
BLACK
6
CONTINUOUS
10
1.17724
20
1.00043
11
1.17724
21
1.16185
0
LINE
8
BLACK
6
CONTINUOUS
10
1.17724
20
1.16185
11
1.17753
21
1.16255
0
LINE
8
BLACK
6
CONTINUOUS
10
1.17753
20
1.16255
11
1.17823
21
1.16283
0
LINE
8
BLACK
6
CONTINUOUS
10
1.17823
20
1.16283
11
1.52469
21
1.16283
0
LINE
8
BLACK
6
CONTINUOUS
10
1.52469
20
1.16283
11
1.52538
21
1.16255
0
LINE
8
BLACK
6
CONTINUOUS
10
1.52538
20
1.16255
11
1.52567
21
1.16185
0
LINE
8
BLACK
6
CONTINUOUS
10
1.52567
20
1.16185
11
1.52567
21
1.00043
0
LINE
8
BLACK
6
CONTINUOUS
10
1.52567
20
1.00043
11
1.52538
21
0.999737
0
LINE
8
BLACK
6
CONTINUOUS
10
1.52538
20
0.999737
11
1.52469
21
0.999449
0
LINE
8
BLACK
6
CONTINUOUS
10
1.52469
20
0.999449
11
1.17823
21
0.999449
0
LINE
8
BLACK
6
CONTINUOUS
10
1.17823
20
0.999449
11
1.17753
21
0.999737
0
LINE
8
BLACK
6
CONTINUOUS
10
1.17921
20
1.16087
11
1.17921
21
1.00142
0
LINE
8
BLACK
6
CONTINUOUS
10
1.17921
20
1.00142
11
1.5237
21
1.00142
0
LINE
8
BLACK
6
CONTINUOUS
10
1.5237
20
1.00142
11
1.5237
21
1.16087
0
LINE
8
BLACK
6
CONTINUOUS
10
1.5237
20
1.16087
11
1.17921
21
1.16087
0
LINE
8
BLACK
6
CONTINUOUS
10
1.34239
20
1.31974
11
1.3421
21
1.32043
0
LINE
8
BLACK
6
CONTINUOUS
10
1.3421
20
1.32043
11
1.3421
21
1.48185
0
LINE
8
BLACK
6
CONTINUOUS
10
1.3421
20
1.48185
11
1.34239
21
1.48255
0
LINE
8
BLACK
6
CONTINUOUS
10
1.34239
20
1.48255
11
1.34308
21
1.48283
0
LINE
8
BLACK
6
CONTINUOUS
10
1.34308
20
1.48283
11
1.68954
21
1.48283
0
LINE
8
BLACK
6
CONTINUOUS
10
1.68954
20
1.48283
11
1.69023
21
1.48255
0
LINE
8
BLACK
6
CONTINUOUS
10
1.69023
20
1.48255
11
1.69052
21
1.48185
0
LINE
8
BLACK
6
CONTINUOUS
10
1.69052
20
1.48185
11
1.69052
21
1.32043
0
LINE
8
BLACK
6
CONTINUOUS
10
1.69052
20
1.32043
11
1.69023
21
1.31974
0
LINE
8
BLACK
6
CONTINUOUS
10
1.69023
20
1.31974
11
1.68954
21
1.31945
0
LINE
8
BLACK
6
CONTINUOUS
10
1.68954
20
1.31945
11
1.34308
21
1.31945
0
LINE
8
BLACK
6
CONTINUOUS
10
1.34308
20
1.31945
11
1.34239
21
1.31974
0
LINE
8
BLACK
6
CONTINUOUS
10
1.34407
20
1.48087
11
1.34407
21
1.32142
0
LINE
8
BLACK
6
CONTINUOUS
10
1.34407
20
1.32142
11
1.68855
21
1.32142
0
LINE
8
BLACK
6
CONTINUOUS
10
1.68855
20
1.32142
11
1.68855
21
1.48087
0
LINE
8
BLACK
6
CONTINUOUS
10
1.68855
20
1.48087
11
1.34407
21
1.48087
0
LINE
8
BLACK
6
CONTINUOUS
10
1.33152
20
1.63349
11
1.33123
21
1.63418
0
LINE
8
BLACK
6
CONTINUOUS
10
1.33123
20
1.63418
11
1.33123
21
1.7956
0
LINE
8
BLACK
6
CONTINUOUS
10
1.33123
20
1.7956
11
1.33152
21
1.7963
0
LINE
8
BLACK
6
CONTINUOUS
10
1.33152
20
1.7963
11
1.33222
21
1.79658
0
LINE
8
BLACK
6
CONTINUOUS
10
1.33222
20
1.79658
11
1.67867
21
1.79658
0
LINE
8
BLACK
6
CONTINUOUS
10
1.67867
20
1.79658
11
1.67937
21
1.7963
0
LINE
8
BLACK
6
CONTINUOUS
10
1.67937
20
1.7963
11
1.67966
21
1.7956
0
LINE
8
BLACK
6
CONTINUOUS
10
1.67966
20
1.7956
11
1.67966
21
1.63418
0
LINE
8
BLACK
6
CONTINUOUS
10
1.67966
20
1.63418
11
1.67937
21
1.63349
0
LINE
8
BLACK
6
CONTINUOUS
10
1.67937
20
1.63349
11
1.67867
21
1.6332
0
LINE
8
BLACK
6
CONTINUOUS
10
1.67867
20
1.6332
11
1.33222
21
1.6332
0
LINE
8
BLACK
6
CONTINUOUS
10
1.33222
20
1.6332
11
1.33152
21
1.63349
0
LINE
8
BLACK
6
CONTINUOUS
10
1.3332
20
1.79462
11
1.3332
21
1.63517
0
LINE
8
BLACK
6
CONTINUOUS
10
1.3332
20
1.63517
11
1.67769
21
1.63517
0
LINE
8
BLACK
6
CONTINUOUS
10
1.67769
20
1.63517
11
1.67769
21
1.79462
0
LINE
8
BLACK
6
CONTINUOUS
10
1.67769
20
1.79462
11
1.3332
21
1.79462
0
LINE
8
BLACK
6
CONTINUOUS
10
1.0658
20
1.66864
11
1.06551
21
1.66933
0
LINE
8
BLACK
6
CONTINUOUS
10
1.06551
20
1.66933
11
1.06551
21
1.7465
0
LINE
8
BLACK
6
CONTINUOUS
10
1.06551
20
1.7465
11
1.0658
21
1.74719
0
LINE
8
BLACK
6
CONTINUOUS
10
1.0658
20
1.74719
11
1.06649
21
1.74748
0
LINE
8
BLACK
6
CONTINUOUS
10
1.06649
20
1.74748
11
1.20035
21
1.74748
0
LINE
8
BLACK
6
CONTINUOUS
10
1.20035
20
1.74748
11
1.20105
21
1.74719
0
LINE
8
BLACK
6
CONTINUOUS
10
1.20105
20
1.74719
11
1.20133
21
1.7465
0
LINE
8
BLACK
6
CONTINUOUS
10
1.20133
20
1.7465
11
1.20133
21
1.66933
0
LINE
8
BLACK
6
CONTINUOUS
10
1.20133
20
1.66933
11
1.20105
21
1.66864
0
LINE
8
BLACK
6
CONTINUOUS
10
1.20105
20
1.66864
11
1.20035
21
1.66835
0
LINE
8
BLACK
6
CONTINUOUS
10
1.20035
20
1.66835
11
1.06649
21
1.66835
0
LINE
8
BLACK
6
CONTINUOUS
10
1.06649
20
1.66835
11
1.0658
21
1.66864
0
LINE
8
BLACK
6
CONTINUOUS
10
1.06748
20
1.74551
11
1.06748
21
1.67032
0
LINE
8
BLACK
6
CONTINUOUS
10
1.06748
20
1.67032
11
1.19937
21
1.67032
0
LINE
8
BLACK
6
CONTINUOUS
10
1.19937
20
1.67032
11
1.19937
21
1.74551
0
LINE
8
BLACK
6
CONTINUOUS
10
1.19937
20
1.74551
11
1.06748
21
1.74551
0
LINE
8
BLACK
6
CONTINUOUS
10
0.976706
20
1.78655
11
0.976417
21
1.78724
0
LINE
8
BLACK
6
CONTINUOUS
10
0.976417
20
1.78724
11
0.976417
21
1.92504
0
LINE
8
BLACK
6
CONTINUOUS
10
0.976417
20
1.92504
11
0.976706
21
1.92574
0
LINE
8
BLACK
6
CONTINUOUS
10
0.976706
20
1.92574
11
0.977402
21
1.92602
0
LINE
8
BLACK
6
CONTINUOUS
10
0.977402
20
1.92602
11
1.25299
21
1.92602
0
LINE
8
BLACK
6
CONTINUOUS
10
1.25299
20
1.92602
11
1.25369
21
1.92574
0
LINE
8
BLACK
6
CONTINUOUS
10
1.25369
20
1.92574
11
1.25398
21
1.92504
0
LINE
8
BLACK
6
CONTINUOUS
10
1.25398
20
1.92504
11
1.25398
21
1.78724
0
LINE
8
BLACK
6
CONTINUOUS
10
1.25398
20
1.78724
11
1.25369
21
1.78655
0
LINE
8
BLACK
6
CONTINUOUS
10
1.25369
20
1.78655
11
1.25299
21
1.78626
0
LINE
8
BLACK
6
CONTINUOUS
10
1.25299
20
1.78626
11
0.977402
21
1.78626
0
LINE
8
BLACK
6
CONTINUOUS
10
0.977402
20
1.78626
11
0.976706
21
1.78655
0
LINE
8
BLACK
6
CONTINUOUS
10
0.978386
20
1.92406
11
0.978386
21
1.78823
0
LINE
8
BLACK
6
CONTINUOUS
10
0.978386
20
1.78823
11
1.25201
21
1.78823
0
LINE
8
BLACK
6
CONTINUOUS
10
1.25201
20
1.78823
11
1.25201
21
1.92406
0
LINE
8
BLACK
6
CONTINUOUS
10
1.25201
20
1.92406
11
0.978386
21
1.92406
  0
ENDSEC
  0
EOF
