  0
SECTION
  2
HEADER
  9
$ANGBASE
  50
0.0
  9
$ANGDIR
  70
1
  9
$MEASUREMENT
  70
0
  0
ENDSEC
  0
SECTION
  2
TABLES
  0
TABLE
  2
LTYPE
  70
4
  0
LTYPE
  5
40F
  2
CONTINUOUS
  70
0
  3
Solid line
  72
65
  73
0
  40
0.0
  0
LTYPE
  5
410
  2
DASHDOT
 70
0
  3
Dash Dot ____ _ ____ _
 72
65
 73
4
 40
2.0
 49
1.25
 49
-0.25
 49
0.25
 49
-0.25
  0
LTYPE
  5
411
  2
DASHED
 70
0
  3
Dashed __ __ __ __ __
 72
65
 73
2
 40
0.75
 49
0.5
 49
-0.25
  0
LTYPE
  5
43B
  2
DOTTED
 70
0
  3
Dotted .  .  .  .
 72
65
 73
2
 40
0.2
 49
0.0
 49
-0.2
  0
ENDTAB
  0
TABLE
  2
STYLE
  70
4
  0
STYLE
  2
KICAD
  70
0
  40
0
  41
1
  42
1
  50
0
  71
0
  3
isocp.shx
  0
STYLE
  2
KICADB
  70
0
  40
0
  41
1
  42
1
  50
0
  71
0
  3
isocp.shx
  0
STYLE
  2
KICADI
  70
0
  40
0
  41
1
  42
1
  50
15
  71
0
  3
isocp.shx
  0
STYLE
  2
KICADBI
  70
0
  40
0
  41
1
  42
1
  50
15
  71
0
  3
isocp.shx
  0
ENDTAB
  0
TABLE
  2
LAYER
  70
1
  0
LAYER
  2
BLACK
  70
0
  62
7
  6
CONTINUOUS
  0
ENDTAB
  0
ENDSEC
  0
SECTION
  2
ENTITIES
0
LINE
8
BLACK
6
CONTINUOUS
10
0.4197842125984252
20
0.5164414566929134
11
0.432697125984252
21
0.5134941732283465
0
LINE
8
BLACK
6
CONTINUOUS
10
0.432697125984252
20
0.5134941732283465
11
0.4451988188976378
21
0.5091196456692914
0
LINE
8
BLACK
6
CONTINUOUS
10
0.4451988188976378
20
0.5091196456692914
11
0.4571321653543307
21
0.5033728346456693
0
LINE
8
BLACK
6
CONTINUOUS
10
0.4571321653543307
20
0.5033728346456693
11
0.4683470078740157
21
0.4963261023622047
0
LINE
8
BLACK
6
CONTINUOUS
10
0.4683470078740157
20
0.4963261023622047
11
0.4787023622047244
21
0.4880679527559055
0
LINE
8
BLACK
6
CONTINUOUS
10
0.4787023622047244
20
0.4880679527559055
11
0.4880679527559055
21
0.4787023622047244
0
LINE
8
BLACK
6
CONTINUOUS
10
0.4880679527559055
20
0.4787023622047244
11
0.4963261023622047
21
0.4683470078740157
0
LINE
8
BLACK
6
CONTINUOUS
10
0.4963261023622047
20
0.4683470078740157
11
0.5033728346456693
21
0.4571321653543307
0
LINE
8
BLACK
6
CONTINUOUS
10
0.5033728346456693
20
0.4571321653543307
11
0.5091196456692914
21
0.4451988188976378
0
LINE
8
BLACK
6
CONTINUOUS
10
0.5091196456692914
20
0.4451988188976378
11
0.5134941732283465
21
0.432697125984252
0
LINE
8
BLACK
6
CONTINUOUS
10
0.5134941732283465
20
0.432697125984252
11
0.5164414566929134
21
0.4197842125984252
0
LINE
8
BLACK
6
CONTINUOUS
10
0.5164414566929134
20
0.4197842125984252
11
0.5179244094488189
21
0.4066224803149606
0
LINE
8
BLACK
6
CONTINUOUS
10
0.5179244094488189
20
0.4066224803149606
11
0.5179244094488189
21
0.3933775196850394
0
LINE
8
BLACK
6
CONTINUOUS
10
0.5179244094488189
20
0.3933775196850394
11
0.5164414566929134
21
0.3802157874015748
0
LINE
8
BLACK
6
CONTINUOUS
10
0.5164414566929134
20
0.3802157874015748
11
0.5134941732283465
21
0.367302874015748
0
LINE
8
BLACK
6
CONTINUOUS
10
0.5134941732283465
20
0.367302874015748
11
0.5091196456692914
21
0.3548011811023622
0
LINE
8
BLACK
6
CONTINUOUS
10
0.5091196456692914
20
0.3548011811023622
11
0.5033728346456693
21
0.3428678346456693
0
LINE
8
BLACK
6
CONTINUOUS
10
0.5033728346456693
20
0.3428678346456693
11
0.4963261023622047
21
0.3316529921259843
0
LINE
8
BLACK
6
CONTINUOUS
10
0.4963261023622047
20
0.3316529921259843
11
0.4880679527559055
21
0.3212976377952756
0
LINE
8
BLACK
6
CONTINUOUS
10
0.4880679527559055
20
0.3212976377952756
11
0.4787023622047244
21
0.3119320472440945
0
LINE
8
BLACK
6
CONTINUOUS
10
0.4787023622047244
20
0.3119320472440945
11
0.4683470078740157
21
0.3036738976377953
0
LINE
8
BLACK
6
CONTINUOUS
10
0.4683470078740157
20
0.3036738976377953
11
0.4571321653543307
21
0.2966271653543307
0
LINE
8
BLACK
6
CONTINUOUS
10
0.4571321653543307
20
0.2966271653543307
11
0.4451988188976378
21
0.2908803543307086
0
LINE
8
BLACK
6
CONTINUOUS
10
0.4451988188976378
20
0.2908803543307086
11
0.432697125984252
21
0.2865058267716535
0
LINE
8
BLACK
6
CONTINUOUS
10
0.432697125984252
20
0.2865058267716535
11
0.4197842125984252
21
0.2835585433070866
0
LINE
8
BLACK
6
CONTINUOUS
10
0.4197842125984252
20
0.2835585433070866
11
0.4066224803149606
21
0.2820755905511811
0
LINE
8
BLACK
6
CONTINUOUS
10
0.4066224803149606
20
0.2820755905511811
11
0.3933775196850394
21
0.2820755905511811
0
LINE
8
BLACK
6
CONTINUOUS
10
0.3933775196850394
20
0.2820755905511811
11
0.3802157874015748
21
0.2835585433070866
0
LINE
8
BLACK
6
CONTINUOUS
10
0.3802157874015748
20
0.2835585433070866
11
0.367302874015748
21
0.2865058267716535
0
LINE
8
BLACK
6
CONTINUOUS
10
0.367302874015748
20
0.2865058267716535
11
0.3548011811023622
21
0.2908803543307086
0
LINE
8
BLACK
6
CONTINUOUS
10
0.3548011811023622
20
0.2908803543307086
11
0.3428678346456693
21
0.2966271653543307
0
LINE
8
BLACK
6
CONTINUOUS
10
0.3428678346456693
20
0.2966271653543307
11
0.3316529921259843
21
0.3036738976377953
0
LINE
8
BLACK
6
CONTINUOUS
10
0.3316529921259843
20
0.3036738976377953
11
0.3212976377952756
21
0.3119320472440945
0
LINE
8
BLACK
6
CONTINUOUS
10
0.3212976377952756
20
0.3119320472440945
11
0.3119320472440945
21
0.3212976377952756
0
LINE
8
BLACK
6
CONTINUOUS
10
0.3119320472440945
20
0.3212976377952756
11
0.3036738976377953
21
0.3316529921259843
0
LINE
8
BLACK
6
CONTINUOUS
10
0.3036738976377953
20
0.3316529921259843
11
0.2966271653543307
21
0.3428678346456693
0
LINE
8
BLACK
6
CONTINUOUS
10
0.2966271653543307
20
0.3428678346456693
11
0.2908803543307086
21
0.3548011811023622
0
LINE
8
BLACK
6
CONTINUOUS
10
0.2908803543307086
20
0.3548011811023622
11
0.2865058267716535
21
0.367302874015748
0
LINE
8
BLACK
6
CONTINUOUS
10
0.2865058267716535
20
0.367302874015748
11
0.2835585433070866
21
0.3802157874015748
0
LINE
8
BLACK
6
CONTINUOUS
10
0.2835585433070866
20
0.3802157874015748
11
0.2820755905511811
21
0.3933775196850394
0
LINE
8
BLACK
6
CONTINUOUS
10
0.2820755905511811
20
0.3933775196850394
11
0.2820755905511811
21
0.4066224803149606
0
LINE
8
BLACK
6
CONTINUOUS
10
0.2820755905511811
20
0.4066224803149606
11
0.2835585433070866
21
0.4197842125984252
0
LINE
8
BLACK
6
CONTINUOUS
10
0.2835585433070866
20
0.4197842125984252
11
0.2865058267716535
21
0.432697125984252
0
LINE
8
BLACK
6
CONTINUOUS
10
0.2865058267716535
20
0.432697125984252
11
0.2908803543307086
21
0.4451988188976378
0
LINE
8
BLACK
6
CONTINUOUS
10
0.2908803543307086
20
0.4451988188976378
11
0.2966271653543307
21
0.4571321653543307
0
LINE
8
BLACK
6
CONTINUOUS
10
0.2966271653543307
20
0.4571321653543307
11
0.3036738976377953
21
0.4683470078740157
0
LINE
8
BLACK
6
CONTINUOUS
10
0.3036738976377953
20
0.4683470078740157
11
0.3119320472440945
21
0.4787023622047244
0
LINE
8
BLACK
6
CONTINUOUS
10
0.3119320472440945
20
0.4787023622047244
11
0.3212976377952756
21
0.4880679527559055
0
LINE
8
BLACK
6
CONTINUOUS
10
0.3212976377952756
20
0.4880679527559055
11
0.3316529921259843
21
0.4963261023622047
0
LINE
8
BLACK
6
CONTINUOUS
10
0.3316529921259843
20
0.4963261023622047
11
0.3428678346456693
21
0.5033728346456693
0
LINE
8
BLACK
6
CONTINUOUS
10
0.3428678346456693
20
0.5033728346456693
11
0.3548011811023622
21
0.5091196456692914
0
LINE
8
BLACK
6
CONTINUOUS
10
0.3548011811023622
20
0.5091196456692914
11
0.367302874015748
21
0.5134941732283465
0
LINE
8
BLACK
6
CONTINUOUS
10
0.367302874015748
20
0.5134941732283465
11
0.3802157874015748
21
0.5164414566929134
0
LINE
8
BLACK
6
CONTINUOUS
10
0.3802157874015748
20
0.5164414566929134
11
0.3933775196850394
21
0.5179244094488189
0
LINE
8
BLACK
6
CONTINUOUS
10
0.3933775196850394
20
0.5179244094488189
11
0.4066224803149606
21
0.5179244094488189
0
LINE
8
BLACK
6
CONTINUOUS
10
0.4066224803149606
20
0.5179244094488189
11
0.4197842125984252
21
0.5164414566929134
0
LINE
8
BLACK
6
CONTINUOUS
10
2.8197842125984249
20
0.5164414566929134
11
2.8326971259842519
21
0.5134941732283465
0
LINE
8
BLACK
6
CONTINUOUS
10
2.8326971259842519
20
0.5134941732283465
11
2.8451988188976376
21
0.5091196456692914
0
LINE
8
BLACK
6
CONTINUOUS
10
2.8451988188976376
20
0.5091196456692914
11
2.8571321653543307
21
0.5033728346456693
0
LINE
8
BLACK
6
CONTINUOUS
10
2.8571321653543307
20
0.5033728346456693
11
2.8683470078740156
21
0.4963261023622047
0
LINE
8
BLACK
6
CONTINUOUS
10
2.8683470078740156
20
0.4963261023622047
11
2.8787023622047245
21
0.4880679527559055
0
LINE
8
BLACK
6
CONTINUOUS
10
2.8787023622047245
20
0.4880679527559055
11
2.8880679527559057
21
0.4787023622047244
0
LINE
8
BLACK
6
CONTINUOUS
10
2.8880679527559057
20
0.4787023622047244
11
2.8963261023622047
21
0.4683470078740157
0
LINE
8
BLACK
6
CONTINUOUS
10
2.8963261023622047
20
0.4683470078740157
11
2.9033728346456691
21
0.4571321653543307
0
LINE
8
BLACK
6
CONTINUOUS
10
2.9033728346456691
20
0.4571321653543307
11
2.9091196456692914
21
0.4451988188976378
0
LINE
8
BLACK
6
CONTINUOUS
10
2.9091196456692914
20
0.4451988188976378
11
2.9134941732283464
21
0.432697125984252
0
LINE
8
BLACK
6
CONTINUOUS
10
2.9134941732283464
20
0.432697125984252
11
2.9164414566929131
21
0.4197842125984252
0
LINE
8
BLACK
6
CONTINUOUS
10
2.9164414566929131
20
0.4197842125984252
11
2.917924409448819
21
0.4066224803149606
0
LINE
8
BLACK
6
CONTINUOUS
10
2.917924409448819
20
0.4066224803149606
11
2.917924409448819
21
0.3933775196850394
0
LINE
8
BLACK
6
CONTINUOUS
10
2.917924409448819
20
0.3933775196850394
11
2.9164414566929131
21
0.3802157874015748
0
LINE
8
BLACK
6
CONTINUOUS
10
2.9164414566929131
20
0.3802157874015748
11
2.9134941732283464
21
0.367302874015748
0
LINE
8
BLACK
6
CONTINUOUS
10
2.9134941732283464
20
0.367302874015748
11
2.9091196456692914
21
0.3548011811023622
0
LINE
8
BLACK
6
CONTINUOUS
10
2.9091196456692914
20
0.3548011811023622
11
2.9033728346456691
21
0.3428678346456693
0
LINE
8
BLACK
6
CONTINUOUS
10
2.9033728346456691
20
0.3428678346456693
11
2.8963261023622047
21
0.3316529921259843
0
LINE
8
BLACK
6
CONTINUOUS
10
2.8963261023622047
20
0.3316529921259843
11
2.8880679527559057
21
0.3212976377952756
0
LINE
8
BLACK
6
CONTINUOUS
10
2.8880679527559057
20
0.3212976377952756
11
2.8787023622047245
21
0.3119320472440945
0
LINE
8
BLACK
6
CONTINUOUS
10
2.8787023622047245
20
0.3119320472440945
11
2.8683470078740156
21
0.3036738976377953
0
LINE
8
BLACK
6
CONTINUOUS
10
2.8683470078740156
20
0.3036738976377953
11
2.8571321653543307
21
0.2966271653543307
0
LINE
8
BLACK
6
CONTINUOUS
10
2.8571321653543307
20
0.2966271653543307
11
2.8451988188976376
21
0.2908803543307086
0
LINE
8
BLACK
6
CONTINUOUS
10
2.8451988188976376
20
0.2908803543307086
11
2.8326971259842519
21
0.2865058267716535
0
LINE
8
BLACK
6
CONTINUOUS
10
2.8326971259842519
20
0.2865058267716535
11
2.8197842125984249
21
0.2835585433070866
0
LINE
8
BLACK
6
CONTINUOUS
10
2.8197842125984249
20
0.2835585433070866
11
2.8066224803149606
21
0.2820755905511811
0
LINE
8
BLACK
6
CONTINUOUS
10
2.8066224803149606
20
0.2820755905511811
11
2.7933775196850394
21
0.2820755905511811
0
LINE
8
BLACK
6
CONTINUOUS
10
2.7933775196850394
20
0.2820755905511811
11
2.7802157874015747
21
0.2835585433070866
0
LINE
8
BLACK
6
CONTINUOUS
10
2.7802157874015747
20
0.2835585433070866
11
2.7673028740157481
21
0.2865058267716535
0
LINE
8
BLACK
6
CONTINUOUS
10
2.7673028740157481
20
0.2865058267716535
11
2.7548011811023621
21
0.2908803543307086
0
LINE
8
BLACK
6
CONTINUOUS
10
2.7548011811023621
20
0.2908803543307086
11
2.7428678346456694
21
0.2966271653543307
0
LINE
8
BLACK
6
CONTINUOUS
10
2.7428678346456694
20
0.2966271653543307
11
2.731652992125984
21
0.3036738976377953
0
LINE
8
BLACK
6
CONTINUOUS
10
2.731652992125984
20
0.3036738976377953
11
2.7212976377952756
21
0.3119320472440945
0
LINE
8
BLACK
6
CONTINUOUS
10
2.7212976377952756
20
0.3119320472440945
11
2.7119320472440944
21
0.3212976377952756
0
LINE
8
BLACK
6
CONTINUOUS
10
2.7119320472440944
20
0.3212976377952756
11
2.7036738976377954
21
0.3316529921259843
0
LINE
8
BLACK
6
CONTINUOUS
10
2.7036738976377954
20
0.3316529921259843
11
2.6966271653543306
21
0.3428678346456693
0
LINE
8
BLACK
6
CONTINUOUS
10
2.6966271653543306
20
0.3428678346456693
11
2.6908803543307087
21
0.3548011811023622
0
LINE
8
BLACK
6
CONTINUOUS
10
2.6908803543307087
20
0.3548011811023622
11
2.6865058267716533
21
0.367302874015748
0
LINE
8
BLACK
6
CONTINUOUS
10
2.6865058267716533
20
0.367302874015748
11
2.6835585433070865
21
0.3802157874015748
0
LINE
8
BLACK
6
CONTINUOUS
10
2.6835585433070865
20
0.3802157874015748
11
2.6820755905511811
21
0.3933775196850394
0
LINE
8
BLACK
6
CONTINUOUS
10
2.6820755905511811
20
0.3933775196850394
11
2.6820755905511811
21
0.4066224803149606
0
LINE
8
BLACK
6
CONTINUOUS
10
2.6820755905511811
20
0.4066224803149606
11
2.6835585433070865
21
0.4197842125984252
0
LINE
8
BLACK
6
CONTINUOUS
10
2.6835585433070865
20
0.4197842125984252
11
2.6865058267716533
21
0.432697125984252
0
LINE
8
BLACK
6
CONTINUOUS
10
2.6865058267716533
20
0.432697125984252
11
2.6908803543307087
21
0.4451988188976378
0
LINE
8
BLACK
6
CONTINUOUS
10
2.6908803543307087
20
0.4451988188976378
11
2.6966271653543306
21
0.4571321653543307
0
LINE
8
BLACK
6
CONTINUOUS
10
2.6966271653543306
20
0.4571321653543307
11
2.7036738976377954
21
0.4683470078740157
0
LINE
8
BLACK
6
CONTINUOUS
10
2.7036738976377954
20
0.4683470078740157
11
2.7119320472440944
21
0.4787023622047244
0
LINE
8
BLACK
6
CONTINUOUS
10
2.7119320472440944
20
0.4787023622047244
11
2.7212976377952756
21
0.4880679527559055
0
LINE
8
BLACK
6
CONTINUOUS
10
2.7212976377952756
20
0.4880679527559055
11
2.731652992125984
21
0.4963261023622047
0
LINE
8
BLACK
6
CONTINUOUS
10
2.731652992125984
20
0.4963261023622047
11
2.7428678346456694
21
0.5033728346456693
0
LINE
8
BLACK
6
CONTINUOUS
10
2.7428678346456694
20
0.5033728346456693
11
2.7548011811023621
21
0.5091196456692914
0
LINE
8
BLACK
6
CONTINUOUS
10
2.7548011811023621
20
0.5091196456692914
11
2.7673028740157481
21
0.5134941732283465
0
LINE
8
BLACK
6
CONTINUOUS
10
2.7673028740157481
20
0.5134941732283465
11
2.7802157874015747
21
0.5164414566929134
0
LINE
8
BLACK
6
CONTINUOUS
10
2.7802157874015747
20
0.5164414566929134
11
2.7933775196850394
21
0.5179244094488189
0
LINE
8
BLACK
6
CONTINUOUS
10
2.7933775196850394
20
0.5179244094488189
11
2.8066224803149606
21
0.5179244094488189
0
LINE
8
BLACK
6
CONTINUOUS
10
2.8066224803149606
20
0.5179244094488189
11
2.8197842125984249
21
0.5164414566929134
0
LINE
8
BLACK
6
CONTINUOUS
10
0.8904454724409449
20
0.5537948818897638
11
0.8982305511811023
21
0.5512653543307087
0
LINE
8
BLACK
6
CONTINUOUS
10
0.8982305511811023
20
0.5512653543307087
11
0.9055240551181102
21
0.5475491338582678
0
LINE
8
BLACK
6
CONTINUOUS
10
0.9055240551181102
20
0.5475491338582678
11
0.9121464173228346
21
0.542737716535433
0
LINE
8
BLACK
6
CONTINUOUS
10
0.9121464173228346
20
0.542737716535433
11
0.9179345669291339
21
0.5369495669291339
0
LINE
8
BLACK
6
CONTINUOUS
10
0.9179345669291339
20
0.5369495669291339
11
0.9227459842519685
21
0.5303272047244094
0
LINE
8
BLACK
6
CONTINUOUS
10
0.9227459842519685
20
0.5303272047244094
11
0.9264622047244094
21
0.5230337007874015
0
LINE
8
BLACK
6
CONTINUOUS
10
0.9264622047244094
20
0.5230337007874015
11
0.9289917322834645
21
0.5152486220472441
0
LINE
8
BLACK
6
CONTINUOUS
10
0.9289917322834645
20
0.5152486220472441
11
0.9302722440944882
21
0.5071637007874016
0
LINE
8
BLACK
6
CONTINUOUS
10
0.9302722440944882
20
0.5071637007874016
11
0.9302722440944882
21
0.498978031496063
0
LINE
8
BLACK
6
CONTINUOUS
10
0.9302722440944882
20
0.498978031496063
11
0.9289917322834645
21
0.4908931102362205
0
LINE
8
BLACK
6
CONTINUOUS
10
0.9289917322834645
20
0.4908931102362205
11
0.9264622047244094
21
0.483108031496063
0
LINE
8
BLACK
6
CONTINUOUS
10
0.9264622047244094
20
0.483108031496063
11
0.9227459842519685
21
0.4758145275590551
0
LINE
8
BLACK
6
CONTINUOUS
10
0.9227459842519685
20
0.4758145275590551
11
0.9179345669291339
21
0.4691921653543307
0
LINE
8
BLACK
6
CONTINUOUS
10
0.9179345669291339
20
0.4691921653543307
11
0.9121464173228346
21
0.4634040157480315
0
LINE
8
BLACK
6
CONTINUOUS
10
0.9121464173228346
20
0.4634040157480315
11
0.9055240551181102
21
0.4585925984251968
0
LINE
8
BLACK
6
CONTINUOUS
10
0.9055240551181102
20
0.4585925984251968
11
0.8982305511811023
21
0.4548763779527559
0
LINE
8
BLACK
6
CONTINUOUS
10
0.8982305511811023
20
0.4548763779527559
11
0.8904454724409449
21
0.4523468503937008
0
LINE
8
BLACK
6
CONTINUOUS
10
0.8904454724409449
20
0.4523468503937008
11
0.8823605511811023
21
0.4510663385826771
0
LINE
8
BLACK
6
CONTINUOUS
10
0.8823605511811023
20
0.4510663385826771
11
0.8741748818897638
21
0.4510663385826771
0
LINE
8
BLACK
6
CONTINUOUS
10
0.8741748818897638
20
0.4510663385826771
11
0.8660899606299213
21
0.4523468503937008
0
LINE
8
BLACK
6
CONTINUOUS
10
0.8660899606299213
20
0.4523468503937008
11
0.8583048818897637
21
0.4548763779527559
0
LINE
8
BLACK
6
CONTINUOUS
10
0.8583048818897637
20
0.4548763779527559
11
0.8510113779527558
21
0.4585925984251968
0
LINE
8
BLACK
6
CONTINUOUS
10
0.8510113779527558
20
0.4585925984251968
11
0.8443890157480315
21
0.4634040157480315
0
LINE
8
BLACK
6
CONTINUOUS
10
0.8443890157480315
20
0.4634040157480315
11
0.8386008661417322
21
0.4691921653543307
0
LINE
8
BLACK
6
CONTINUOUS
10
0.8386008661417322
20
0.4691921653543307
11
0.8337894488188976
21
0.4758145275590551
0
LINE
8
BLACK
6
CONTINUOUS
10
0.8337894488188976
20
0.4758145275590551
11
0.8300732283464567
21
0.483108031496063
0
LINE
8
BLACK
6
CONTINUOUS
10
0.8300732283464567
20
0.483108031496063
11
0.8275437007874016
21
0.4908931102362205
0
LINE
8
BLACK
6
CONTINUOUS
10
0.8275437007874016
20
0.4908931102362205
11
0.826263188976378
21
0.498978031496063
0
LINE
8
BLACK
6
CONTINUOUS
10
0.826263188976378
20
0.498978031496063
11
0.826263188976378
21
0.5071637007874016
0
LINE
8
BLACK
6
CONTINUOUS
10
0.826263188976378
20
0.5071637007874016
11
0.8275437007874016
21
0.5152486220472441
0
LINE
8
BLACK
6
CONTINUOUS
10
0.8275437007874016
20
0.5152486220472441
11
0.8300732283464567
21
0.5230337007874015
0
LINE
8
BLACK
6
CONTINUOUS
10
0.8300732283464567
20
0.5230337007874015
11
0.8337894488188976
21
0.5303272047244094
0
LINE
8
BLACK
6
CONTINUOUS
10
0.8337894488188976
20
0.5303272047244094
11
0.8386008661417322
21
0.5369495669291339
0
LINE
8
BLACK
6
CONTINUOUS
10
0.8386008661417322
20
0.5369495669291339
11
0.8443890157480315
21
0.542737716535433
0
LINE
8
BLACK
6
CONTINUOUS
10
0.8443890157480315
20
0.542737716535433
11
0.8510113779527558
21
0.5475491338582678
0
LINE
8
BLACK
6
CONTINUOUS
10
0.8510113779527558
20
0.5475491338582678
11
0.8583048818897637
21
0.5512653543307087
0
LINE
8
BLACK
6
CONTINUOUS
10
0.8583048818897637
20
0.5512653543307087
11
0.8660899606299213
21
0.5537948818897638
0
LINE
8
BLACK
6
CONTINUOUS
10
0.8660899606299213
20
0.5537948818897638
11
0.8741748818897638
21
0.5550753937007874
0
LINE
8
BLACK
6
CONTINUOUS
10
0.8741748818897638
20
0.5550753937007874
11
0.8823605511811023
21
0.5550753937007874
0
LINE
8
BLACK
6
CONTINUOUS
10
0.8823605511811023
20
0.5550753937007874
11
0.8904454724409449
21
0.5537948818897638
0
LINE
8
BLACK
6
CONTINUOUS
10
1.2739100393700786
20
0.5537948818897638
11
1.2816951181102363
21
0.5512653543307087
0
LINE
8
BLACK
6
CONTINUOUS
10
1.2816951181102363
20
0.5512653543307087
11
1.288988622047244
21
0.5475491338582678
0
LINE
8
BLACK
6
CONTINUOUS
10
1.288988622047244
20
0.5475491338582678
11
1.2956109842519685
21
0.542737716535433
0
LINE
8
BLACK
6
CONTINUOUS
10
1.2956109842519685
20
0.542737716535433
11
1.3013991338582678
21
0.5369495669291339
0
LINE
8
BLACK
6
CONTINUOUS
10
1.3013991338582678
20
0.5369495669291339
11
1.3062105511811024
21
0.5303272047244094
0
LINE
8
BLACK
6
CONTINUOUS
10
1.3062105511811024
20
0.5303272047244094
11
1.3099267716535432
21
0.5230337007874015
0
LINE
8
BLACK
6
CONTINUOUS
10
1.3099267716535432
20
0.5230337007874015
11
1.3124562992125983
21
0.5152486220472441
0
LINE
8
BLACK
6
CONTINUOUS
10
1.3124562992125983
20
0.5152486220472441
11
1.3137368110236221
21
0.5071637007874016
0
LINE
8
BLACK
6
CONTINUOUS
10
1.3137368110236221
20
0.5071637007874016
11
1.3137368110236221
21
0.498978031496063
0
LINE
8
BLACK
6
CONTINUOUS
10
1.3137368110236221
20
0.498978031496063
11
1.3124562992125983
21
0.4908931102362205
0
LINE
8
BLACK
6
CONTINUOUS
10
1.3124562992125983
20
0.4908931102362205
11
1.3099267716535432
21
0.483108031496063
0
LINE
8
BLACK
6
CONTINUOUS
10
1.3099267716535432
20
0.483108031496063
11
1.3062105511811024
21
0.4758145275590551
0
LINE
8
BLACK
6
CONTINUOUS
10
1.3062105511811024
20
0.4758145275590551
11
1.3013991338582678
21
0.4691921653543307
0
LINE
8
BLACK
6
CONTINUOUS
10
1.3013991338582678
20
0.4691921653543307
11
1.2956109842519685
21
0.4634040157480315
0
LINE
8
BLACK
6
CONTINUOUS
10
1.2956109842519685
20
0.4634040157480315
11
1.288988622047244
21
0.4585925984251968
0
LINE
8
BLACK
6
CONTINUOUS
10
1.288988622047244
20
0.4585925984251968
11
1.2816951181102363
21
0.4548763779527559
0
LINE
8
BLACK
6
CONTINUOUS
10
1.2816951181102363
20
0.4548763779527559
11
1.2739100393700786
21
0.4523468503937008
0
LINE
8
BLACK
6
CONTINUOUS
10
1.2739100393700786
20
0.4523468503937008
11
1.2658251181102362
21
0.4510663385826771
0
LINE
8
BLACK
6
CONTINUOUS
10
1.2658251181102362
20
0.4510663385826771
11
1.2576394488188976
21
0.4510663385826771
0
LINE
8
BLACK
6
CONTINUOUS
10
1.2576394488188976
20
0.4510663385826771
11
1.2495545275590552
21
0.4523468503937008
0
LINE
8
BLACK
6
CONTINUOUS
10
1.2495545275590552
20
0.4523468503937008
11
1.2417694488188975
21
0.4548763779527559
0
LINE
8
BLACK
6
CONTINUOUS
10
1.2417694488188975
20
0.4548763779527559
11
1.2344759448818898
21
0.4585925984251968
0
LINE
8
BLACK
6
CONTINUOUS
10
1.2344759448818898
20
0.4585925984251968
11
1.2278535826771653
21
0.4634040157480315
0
LINE
8
BLACK
6
CONTINUOUS
10
1.2278535826771653
20
0.4634040157480315
11
1.222065433070866
21
0.4691921653543307
0
LINE
8
BLACK
6
CONTINUOUS
10
1.222065433070866
20
0.4691921653543307
11
1.2172540157480314
21
0.4758145275590551
0
LINE
8
BLACK
6
CONTINUOUS
10
1.2172540157480314
20
0.4758145275590551
11
1.2135377952755906
21
0.483108031496063
0
LINE
8
BLACK
6
CONTINUOUS
10
1.2135377952755906
20
0.483108031496063
11
1.2110082677165355
21
0.4908931102362205
0
LINE
8
BLACK
6
CONTINUOUS
10
1.2110082677165355
20
0.4908931102362205
11
1.2097277559055117
21
0.498978031496063
0
LINE
8
BLACK
6
CONTINUOUS
10
1.2097277559055117
20
0.498978031496063
11
1.2097277559055117
21
0.5071637007874016
0
LINE
8
BLACK
6
CONTINUOUS
10
1.2097277559055117
20
0.5071637007874016
11
1.2110082677165355
21
0.5152486220472441
0
LINE
8
BLACK
6
CONTINUOUS
10
1.2110082677165355
20
0.5152486220472441
11
1.2135377952755906
21
0.5230337007874015
0
LINE
8
BLACK
6
CONTINUOUS
10
1.2135377952755906
20
0.5230337007874015
11
1.2172540157480314
21
0.5303272047244094
0
LINE
8
BLACK
6
CONTINUOUS
10
1.2172540157480314
20
0.5303272047244094
11
1.222065433070866
21
0.5369495669291339
0
LINE
8
BLACK
6
CONTINUOUS
10
1.222065433070866
20
0.5369495669291339
11
1.2278535826771653
21
0.542737716535433
0
LINE
8
BLACK
6
CONTINUOUS
10
1.2278535826771653
20
0.542737716535433
11
1.2344759448818898
21
0.5475491338582678
0
LINE
8
BLACK
6
CONTINUOUS
10
1.2344759448818898
20
0.5475491338582678
11
1.2417694488188975
21
0.5512653543307087
0
LINE
8
BLACK
6
CONTINUOUS
10
1.2417694488188975
20
0.5512653543307087
11
1.2495545275590552
21
0.5537948818897638
0
LINE
8
BLACK
6
CONTINUOUS
10
1.2495545275590552
20
0.5537948818897638
11
1.2576394488188976
21
0.5550753937007874
0
LINE
8
BLACK
6
CONTINUOUS
10
1.2576394488188976
20
0.5550753937007874
11
1.2658251181102362
21
0.5550753937007874
0
LINE
8
BLACK
6
CONTINUOUS
10
1.2658251181102362
20
0.5550753937007874
11
1.2739100393700786
21
0.5537948818897638
0
LINE
8
BLACK
6
CONTINUOUS
10
1.6104454724409449
20
0.5537948818897638
11
1.6182305511811024
21
0.5512653543307087
0
LINE
8
BLACK
6
CONTINUOUS
10
1.6182305511811024
20
0.5512653543307087
11
1.6255240551181103
21
0.5475491338582678
0
LINE
8
BLACK
6
CONTINUOUS
10
1.6255240551181103
20
0.5475491338582678
11
1.6321464173228346
21
0.542737716535433
0
LINE
8
BLACK
6
CONTINUOUS
10
1.6321464173228346
20
0.542737716535433
11
1.6379345669291339
21
0.5369495669291339
0
LINE
8
BLACK
6
CONTINUOUS
10
1.6379345669291339
20
0.5369495669291339
11
1.6427459842519685
21
0.5303272047244094
0
LINE
8
BLACK
6
CONTINUOUS
10
1.6427459842519685
20
0.5303272047244094
11
1.6464622047244095
21
0.5230337007874015
0
LINE
8
BLACK
6
CONTINUOUS
10
1.6464622047244095
20
0.5230337007874015
11
1.6489917322834646
21
0.5152486220472441
0
LINE
8
BLACK
6
CONTINUOUS
10
1.6489917322834646
20
0.5152486220472441
11
1.6502722440944881
21
0.5071637007874016
0
LINE
8
BLACK
6
CONTINUOUS
10
1.6502722440944881
20
0.5071637007874016
11
1.6502722440944881
21
0.498978031496063
0
LINE
8
BLACK
6
CONTINUOUS
10
1.6502722440944881
20
0.498978031496063
11
1.6489917322834646
21
0.4908931102362205
0
LINE
8
BLACK
6
CONTINUOUS
10
1.6489917322834646
20
0.4908931102362205
11
1.6464622047244095
21
0.483108031496063
0
LINE
8
BLACK
6
CONTINUOUS
10
1.6464622047244095
20
0.483108031496063
11
1.6427459842519685
21
0.4758145275590551
0
LINE
8
BLACK
6
CONTINUOUS
10
1.6427459842519685
20
0.4758145275590551
11
1.6379345669291339
21
0.4691921653543307
0
LINE
8
BLACK
6
CONTINUOUS
10
1.6379345669291339
20
0.4691921653543307
11
1.6321464173228346
21
0.4634040157480315
0
LINE
8
BLACK
6
CONTINUOUS
10
1.6321464173228346
20
0.4634040157480315
11
1.6255240551181103
21
0.4585925984251968
0
LINE
8
BLACK
6
CONTINUOUS
10
1.6255240551181103
20
0.4585925984251968
11
1.6182305511811024
21
0.4548763779527559
0
LINE
8
BLACK
6
CONTINUOUS
10
1.6182305511811024
20
0.4548763779527559
11
1.6104454724409449
21
0.4523468503937008
0
LINE
8
BLACK
6
CONTINUOUS
10
1.6104454724409449
20
0.4523468503937008
11
1.6023605511811023
21
0.4510663385826771
0
LINE
8
BLACK
6
CONTINUOUS
10
1.6023605511811023
20
0.4510663385826771
11
1.5941748818897636
21
0.4510663385826771
0
LINE
8
BLACK
6
CONTINUOUS
10
1.5941748818897636
20
0.4510663385826771
11
1.5860899606299212
21
0.4523468503937008
0
LINE
8
BLACK
6
CONTINUOUS
10
1.5860899606299212
20
0.4523468503937008
11
1.5783048818897638
21
0.4548763779527559
0
LINE
8
BLACK
6
CONTINUOUS
10
1.5783048818897638
20
0.4548763779527559
11
1.5710113779527559
21
0.4585925984251968
0
LINE
8
BLACK
6
CONTINUOUS
10
1.5710113779527559
20
0.4585925984251968
11
1.5643890157480314
21
0.4634040157480315
0
LINE
8
BLACK
6
CONTINUOUS
10
1.5643890157480314
20
0.4634040157480315
11
1.5586008661417323
21
0.4691921653543307
0
LINE
8
BLACK
6
CONTINUOUS
10
1.5586008661417323
20
0.4691921653543307
11
1.5537894488188977
21
0.4758145275590551
0
LINE
8
BLACK
6
CONTINUOUS
10
1.5537894488188977
20
0.4758145275590551
11
1.5500732283464567
21
0.483108031496063
0
LINE
8
BLACK
6
CONTINUOUS
10
1.5500732283464567
20
0.483108031496063
11
1.5475437007874016
21
0.4908931102362205
0
LINE
8
BLACK
6
CONTINUOUS
10
1.5475437007874016
20
0.4908931102362205
11
1.5462631889763778
21
0.498978031496063
0
LINE
8
BLACK
6
CONTINUOUS
10
1.5462631889763778
20
0.498978031496063
11
1.5462631889763778
21
0.5071637007874016
0
LINE
8
BLACK
6
CONTINUOUS
10
1.5462631889763778
20
0.5071637007874016
11
1.5475437007874016
21
0.5152486220472441
0
LINE
8
BLACK
6
CONTINUOUS
10
1.5475437007874016
20
0.5152486220472441
11
1.5500732283464567
21
0.5230337007874015
0
LINE
8
BLACK
6
CONTINUOUS
10
1.5500732283464567
20
0.5230337007874015
11
1.5537894488188977
21
0.5303272047244094
0
LINE
8
BLACK
6
CONTINUOUS
10
1.5537894488188977
20
0.5303272047244094
11
1.5586008661417323
21
0.5369495669291339
0
LINE
8
BLACK
6
CONTINUOUS
10
1.5586008661417323
20
0.5369495669291339
11
1.5643890157480314
21
0.542737716535433
0
LINE
8
BLACK
6
CONTINUOUS
10
1.5643890157480314
20
0.542737716535433
11
1.5710113779527559
21
0.5475491338582678
0
LINE
8
BLACK
6
CONTINUOUS
10
1.5710113779527559
20
0.5475491338582678
11
1.5783048818897638
21
0.5512653543307087
0
LINE
8
BLACK
6
CONTINUOUS
10
1.5783048818897638
20
0.5512653543307087
11
1.5860899606299212
21
0.5537948818897638
0
LINE
8
BLACK
6
CONTINUOUS
10
1.5860899606299212
20
0.5537948818897638
11
1.5941748818897636
21
0.5550753937007874
0
LINE
8
BLACK
6
CONTINUOUS
10
1.5941748818897636
20
0.5550753937007874
11
1.6023605511811023
21
0.5550753937007874
0
LINE
8
BLACK
6
CONTINUOUS
10
1.6023605511811023
20
0.5550753937007874
11
1.6104454724409449
21
0.5537948818897638
0
LINE
8
BLACK
6
CONTINUOUS
10
1.9939100393700786
20
0.5537948818897638
11
2.001695118110236
21
0.5512653543307087
0
LINE
8
BLACK
6
CONTINUOUS
10
2.001695118110236
20
0.5512653543307087
11
2.0089886220472439
21
0.5475491338582678
0
LINE
8
BLACK
6
CONTINUOUS
10
2.0089886220472439
20
0.5475491338582678
11
2.0156109842519685
21
0.542737716535433
0
LINE
8
BLACK
6
CONTINUOUS
10
2.0156109842519685
20
0.542737716535433
11
2.0213991338582677
21
0.5369495669291339
0
LINE
8
BLACK
6
CONTINUOUS
10
2.0213991338582677
20
0.5369495669291339
11
2.0262105511811024
21
0.5303272047244094
0
LINE
8
BLACK
6
CONTINUOUS
10
2.0262105511811024
20
0.5303272047244094
11
2.0299267716535434
21
0.5230337007874015
0
LINE
8
BLACK
6
CONTINUOUS
10
2.0299267716535434
20
0.5230337007874015
11
2.0324562992125985
21
0.5152486220472441
0
LINE
8
BLACK
6
CONTINUOUS
10
2.0324562992125985
20
0.5152486220472441
11
2.0337368110236218
21
0.5071637007874016
0
LINE
8
BLACK
6
CONTINUOUS
10
2.0337368110236218
20
0.5071637007874016
11
2.0337368110236218
21
0.498978031496063
0
LINE
8
BLACK
6
CONTINUOUS
10
2.0337368110236218
20
0.498978031496063
11
2.0324562992125985
21
0.4908931102362205
0
LINE
8
BLACK
6
CONTINUOUS
10
2.0324562992125985
20
0.4908931102362205
11
2.0299267716535434
21
0.483108031496063
0
LINE
8
BLACK
6
CONTINUOUS
10
2.0299267716535434
20
0.483108031496063
11
2.0262105511811024
21
0.4758145275590551
0
LINE
8
BLACK
6
CONTINUOUS
10
2.0262105511811024
20
0.4758145275590551
11
2.0213991338582677
21
0.4691921653543307
0
LINE
8
BLACK
6
CONTINUOUS
10
2.0213991338582677
20
0.4691921653543307
11
2.0156109842519685
21
0.4634040157480315
0
LINE
8
BLACK
6
CONTINUOUS
10
2.0156109842519685
20
0.4634040157480315
11
2.0089886220472439
21
0.4585925984251968
0
LINE
8
BLACK
6
CONTINUOUS
10
2.0089886220472439
20
0.4585925984251968
11
2.001695118110236
21
0.4548763779527559
0
LINE
8
BLACK
6
CONTINUOUS
10
2.001695118110236
20
0.4548763779527559
11
1.9939100393700786
21
0.4523468503937008
0
LINE
8
BLACK
6
CONTINUOUS
10
1.9939100393700786
20
0.4523468503937008
11
1.9858251181102362
21
0.4510663385826771
0
LINE
8
BLACK
6
CONTINUOUS
10
1.9858251181102362
20
0.4510663385826771
11
1.9776394488188975
21
0.4510663385826771
0
LINE
8
BLACK
6
CONTINUOUS
10
1.9776394488188975
20
0.4510663385826771
11
1.9695545275590551
21
0.4523468503937008
0
LINE
8
BLACK
6
CONTINUOUS
10
1.9695545275590551
20
0.4523468503937008
11
1.9617694488188977
21
0.4548763779527559
0
LINE
8
BLACK
6
CONTINUOUS
10
1.9617694488188977
20
0.4548763779527559
11
1.9544759448818898
21
0.4585925984251968
0
LINE
8
BLACK
6
CONTINUOUS
10
1.9544759448818898
20
0.4585925984251968
11
1.9478535826771652
21
0.4634040157480315
0
LINE
8
BLACK
6
CONTINUOUS
10
1.9478535826771652
20
0.4634040157480315
11
1.942065433070866
21
0.4691921653543307
0
LINE
8
BLACK
6
CONTINUOUS
10
1.942065433070866
20
0.4691921653543307
11
1.9372540157480314
21
0.4758145275590551
0
LINE
8
BLACK
6
CONTINUOUS
10
1.9372540157480314
20
0.4758145275590551
11
1.9335377952755906
21
0.483108031496063
0
LINE
8
BLACK
6
CONTINUOUS
10
1.9335377952755906
20
0.483108031496063
11
1.9310082677165354
21
0.4908931102362205
0
LINE
8
BLACK
6
CONTINUOUS
10
1.9310082677165354
20
0.4908931102362205
11
1.9297277559055117
21
0.498978031496063
0
LINE
8
BLACK
6
CONTINUOUS
10
1.9297277559055117
20
0.498978031496063
11
1.9297277559055117
21
0.5071637007874016
0
LINE
8
BLACK
6
CONTINUOUS
10
1.9297277559055117
20
0.5071637007874016
11
1.9310082677165354
21
0.5152486220472441
0
LINE
8
BLACK
6
CONTINUOUS
10
1.9310082677165354
20
0.5152486220472441
11
1.9335377952755906
21
0.5230337007874015
0
LINE
8
BLACK
6
CONTINUOUS
10
1.9335377952755906
20
0.5230337007874015
11
1.9372540157480314
21
0.5303272047244094
0
LINE
8
BLACK
6
CONTINUOUS
10
1.9372540157480314
20
0.5303272047244094
11
1.942065433070866
21
0.5369495669291339
0
LINE
8
BLACK
6
CONTINUOUS
10
1.942065433070866
20
0.5369495669291339
11
1.9478535826771652
21
0.542737716535433
0
LINE
8
BLACK
6
CONTINUOUS
10
1.9478535826771652
20
0.542737716535433
11
1.9544759448818898
21
0.5475491338582678
0
LINE
8
BLACK
6
CONTINUOUS
10
1.9544759448818898
20
0.5475491338582678
11
1.9617694488188977
21
0.5512653543307087
0
LINE
8
BLACK
6
CONTINUOUS
10
1.9617694488188977
20
0.5512653543307087
11
1.9695545275590551
21
0.5537948818897638
0
LINE
8
BLACK
6
CONTINUOUS
10
1.9695545275590551
20
0.5537948818897638
11
1.9776394488188975
21
0.5550753937007874
0
LINE
8
BLACK
6
CONTINUOUS
10
1.9776394488188975
20
0.5550753937007874
11
1.9858251181102362
21
0.5550753937007874
0
LINE
8
BLACK
6
CONTINUOUS
10
1.9858251181102362
20
0.5550753937007874
11
1.9939100393700786
21
0.5537948818897638
0
LINE
8
BLACK
6
CONTINUOUS
10
0.8904454724409449
20
0.6876531496062992
11
0.8982305511811023
21
0.6851236220472441
0
LINE
8
BLACK
6
CONTINUOUS
10
0.8982305511811023
20
0.6851236220472441
11
0.9055240551181102
21
0.6814074015748032
0
LINE
8
BLACK
6
CONTINUOUS
10
0.9055240551181102
20
0.6814074015748032
11
0.9121464173228346
21
0.6765959842519685
0
LINE
8
BLACK
6
CONTINUOUS
10
0.9121464173228346
20
0.6765959842519685
11
0.9179345669291339
21
0.6708078346456693
0
LINE
8
BLACK
6
CONTINUOUS
10
0.9179345669291339
20
0.6708078346456693
11
0.9227459842519685
21
0.6641854724409448
0
LINE
8
BLACK
6
CONTINUOUS
10
0.9227459842519685
20
0.6641854724409448
11
0.9264622047244094
21
0.6568919685039369
0
LINE
8
BLACK
6
CONTINUOUS
10
0.9264622047244094
20
0.6568919685039369
11
0.9289917322834645
21
0.6491068897637795
0
LINE
8
BLACK
6
CONTINUOUS
10
0.9289917322834645
20
0.6491068897637795
11
0.9302722440944882
21
0.641021968503937
0
LINE
8
BLACK
6
CONTINUOUS
10
0.9302722440944882
20
0.641021968503937
11
0.9302722440944882
21
0.6328362992125984
0
LINE
8
BLACK
6
CONTINUOUS
10
0.9302722440944882
20
0.6328362992125984
11
0.9289917322834645
21
0.6247513779527559
0
LINE
8
BLACK
6
CONTINUOUS
10
0.9289917322834645
20
0.6247513779527559
11
0.9264622047244094
21
0.6169662992125984
0
LINE
8
BLACK
6
CONTINUOUS
10
0.9264622047244094
20
0.6169662992125984
11
0.9227459842519685
21
0.6096727952755905
0
LINE
8
BLACK
6
CONTINUOUS
10
0.9227459842519685
20
0.6096727952755905
11
0.9179345669291339
21
0.6030504330708661
0
LINE
8
BLACK
6
CONTINUOUS
10
0.9179345669291339
20
0.6030504330708661
11
0.9121464173228346
21
0.5972622834645669
0
LINE
8
BLACK
6
CONTINUOUS
10
0.9121464173228346
20
0.5972622834645669
11
0.9055240551181102
21
0.5924508661417323
0
LINE
8
BLACK
6
CONTINUOUS
10
0.9055240551181102
20
0.5924508661417323
11
0.8982305511811023
21
0.5887346456692913
0
LINE
8
BLACK
6
CONTINUOUS
10
0.8982305511811023
20
0.5887346456692913
11
0.8904454724409449
21
0.5862051181102362
0
LINE
8
BLACK
6
CONTINUOUS
10
0.8904454724409449
20
0.5862051181102362
11
0.8823605511811023
21
0.5849246062992126
0
LINE
8
BLACK
6
CONTINUOUS
10
0.8823605511811023
20
0.5849246062992126
11
0.8741748818897638
21
0.5849246062992126
0
LINE
8
BLACK
6
CONTINUOUS
10
0.8741748818897638
20
0.5849246062992126
11
0.8660899606299213
21
0.5862051181102362
0
LINE
8
BLACK
6
CONTINUOUS
10
0.8660899606299213
20
0.5862051181102362
11
0.8583048818897637
21
0.5887346456692913
0
LINE
8
BLACK
6
CONTINUOUS
10
0.8583048818897637
20
0.5887346456692913
11
0.8510113779527558
21
0.5924508661417323
0
LINE
8
BLACK
6
CONTINUOUS
10
0.8510113779527558
20
0.5924508661417323
11
0.8443890157480315
21
0.5972622834645669
0
LINE
8
BLACK
6
CONTINUOUS
10
0.8443890157480315
20
0.5972622834645669
11
0.8386008661417322
21
0.6030504330708661
0
LINE
8
BLACK
6
CONTINUOUS
10
0.8386008661417322
20
0.6030504330708661
11
0.8337894488188976
21
0.6096727952755905
0
LINE
8
BLACK
6
CONTINUOUS
10
0.8337894488188976
20
0.6096727952755905
11
0.8300732283464567
21
0.6169662992125984
0
LINE
8
BLACK
6
CONTINUOUS
10
0.8300732283464567
20
0.6169662992125984
11
0.8275437007874016
21
0.6247513779527559
0
LINE
8
BLACK
6
CONTINUOUS
10
0.8275437007874016
20
0.6247513779527559
11
0.826263188976378
21
0.6328362992125984
0
LINE
8
BLACK
6
CONTINUOUS
10
0.826263188976378
20
0.6328362992125984
11
0.826263188976378
21
0.641021968503937
0
LINE
8
BLACK
6
CONTINUOUS
10
0.826263188976378
20
0.641021968503937
11
0.8275437007874016
21
0.6491068897637795
0
LINE
8
BLACK
6
CONTINUOUS
10
0.8275437007874016
20
0.6491068897637795
11
0.8300732283464567
21
0.6568919685039369
0
LINE
8
BLACK
6
CONTINUOUS
10
0.8300732283464567
20
0.6568919685039369
11
0.8337894488188976
21
0.6641854724409448
0
LINE
8
BLACK
6
CONTINUOUS
10
0.8337894488188976
20
0.6641854724409448
11
0.8386008661417322
21
0.6708078346456693
0
LINE
8
BLACK
6
CONTINUOUS
10
0.8386008661417322
20
0.6708078346456693
11
0.8443890157480315
21
0.6765959842519685
0
LINE
8
BLACK
6
CONTINUOUS
10
0.8443890157480315
20
0.6765959842519685
11
0.8510113779527558
21
0.6814074015748032
0
LINE
8
BLACK
6
CONTINUOUS
10
0.8510113779527558
20
0.6814074015748032
11
0.8583048818897637
21
0.6851236220472441
0
LINE
8
BLACK
6
CONTINUOUS
10
0.8583048818897637
20
0.6851236220472441
11
0.8660899606299213
21
0.6876531496062992
0
LINE
8
BLACK
6
CONTINUOUS
10
0.8660899606299213
20
0.6876531496062992
11
0.8741748818897638
21
0.6889336614173228
0
LINE
8
BLACK
6
CONTINUOUS
10
0.8741748818897638
20
0.6889336614173228
11
0.8823605511811023
21
0.6889336614173228
0
LINE
8
BLACK
6
CONTINUOUS
10
0.8823605511811023
20
0.6889336614173228
11
0.8904454724409449
21
0.6876531496062992
0
LINE
8
BLACK
6
CONTINUOUS
10
1.2739100393700786
20
0.6876531496062992
11
1.2816951181102363
21
0.6851236220472441
0
LINE
8
BLACK
6
CONTINUOUS
10
1.2816951181102363
20
0.6851236220472441
11
1.288988622047244
21
0.6814074015748032
0
LINE
8
BLACK
6
CONTINUOUS
10
1.288988622047244
20
0.6814074015748032
11
1.2956109842519685
21
0.6765959842519685
0
LINE
8
BLACK
6
CONTINUOUS
10
1.2956109842519685
20
0.6765959842519685
11
1.3013991338582678
21
0.6708078346456693
0
LINE
8
BLACK
6
CONTINUOUS
10
1.3013991338582678
20
0.6708078346456693
11
1.3062105511811024
21
0.6641854724409448
0
LINE
8
BLACK
6
CONTINUOUS
10
1.3062105511811024
20
0.6641854724409448
11
1.3099267716535432
21
0.6568919685039369
0
LINE
8
BLACK
6
CONTINUOUS
10
1.3099267716535432
20
0.6568919685039369
11
1.3124562992125983
21
0.6491068897637795
0
LINE
8
BLACK
6
CONTINUOUS
10
1.3124562992125983
20
0.6491068897637795
11
1.3137368110236221
21
0.641021968503937
0
LINE
8
BLACK
6
CONTINUOUS
10
1.3137368110236221
20
0.641021968503937
11
1.3137368110236221
21
0.6328362992125984
0
LINE
8
BLACK
6
CONTINUOUS
10
1.3137368110236221
20
0.6328362992125984
11
1.3124562992125983
21
0.6247513779527559
0
LINE
8
BLACK
6
CONTINUOUS
10
1.3124562992125983
20
0.6247513779527559
11
1.3099267716535432
21
0.6169662992125984
0
LINE
8
BLACK
6
CONTINUOUS
10
1.3099267716535432
20
0.6169662992125984
11
1.3062105511811024
21
0.6096727952755905
0
LINE
8
BLACK
6
CONTINUOUS
10
1.3062105511811024
20
0.6096727952755905
11
1.3013991338582678
21
0.6030504330708661
0
LINE
8
BLACK
6
CONTINUOUS
10
1.3013991338582678
20
0.6030504330708661
11
1.2956109842519685
21
0.5972622834645669
0
LINE
8
BLACK
6
CONTINUOUS
10
1.2956109842519685
20
0.5972622834645669
11
1.288988622047244
21
0.5924508661417323
0
LINE
8
BLACK
6
CONTINUOUS
10
1.288988622047244
20
0.5924508661417323
11
1.2816951181102363
21
0.5887346456692913
0
LINE
8
BLACK
6
CONTINUOUS
10
1.2816951181102363
20
0.5887346456692913
11
1.2739100393700786
21
0.5862051181102362
0
LINE
8
BLACK
6
CONTINUOUS
10
1.2739100393700786
20
0.5862051181102362
11
1.2658251181102362
21
0.5849246062992126
0
LINE
8
BLACK
6
CONTINUOUS
10
1.2658251181102362
20
0.5849246062992126
11
1.2576394488188976
21
0.5849246062992126
0
LINE
8
BLACK
6
CONTINUOUS
10
1.2576394488188976
20
0.5849246062992126
11
1.2495545275590552
21
0.5862051181102362
0
LINE
8
BLACK
6
CONTINUOUS
10
1.2495545275590552
20
0.5862051181102362
11
1.2417694488188975
21
0.5887346456692913
0
LINE
8
BLACK
6
CONTINUOUS
10
1.2417694488188975
20
0.5887346456692913
11
1.2344759448818898
21
0.5924508661417323
0
LINE
8
BLACK
6
CONTINUOUS
10
1.2344759448818898
20
0.5924508661417323
11
1.2278535826771653
21
0.5972622834645669
0
LINE
8
BLACK
6
CONTINUOUS
10
1.2278535826771653
20
0.5972622834645669
11
1.222065433070866
21
0.6030504330708661
0
LINE
8
BLACK
6
CONTINUOUS
10
1.222065433070866
20
0.6030504330708661
11
1.2172540157480314
21
0.6096727952755905
0
LINE
8
BLACK
6
CONTINUOUS
10
1.2172540157480314
20
0.6096727952755905
11
1.2135377952755906
21
0.6169662992125984
0
LINE
8
BLACK
6
CONTINUOUS
10
1.2135377952755906
20
0.6169662992125984
11
1.2110082677165355
21
0.6247513779527559
0
LINE
8
BLACK
6
CONTINUOUS
10
1.2110082677165355
20
0.6247513779527559
11
1.2097277559055117
21
0.6328362992125984
0
LINE
8
BLACK
6
CONTINUOUS
10
1.2097277559055117
20
0.6328362992125984
11
1.2097277559055117
21
0.641021968503937
0
LINE
8
BLACK
6
CONTINUOUS
10
1.2097277559055117
20
0.641021968503937
11
1.2110082677165355
21
0.6491068897637795
0
LINE
8
BLACK
6
CONTINUOUS
10
1.2110082677165355
20
0.6491068897637795
11
1.2135377952755906
21
0.6568919685039369
0
LINE
8
BLACK
6
CONTINUOUS
10
1.2135377952755906
20
0.6568919685039369
11
1.2172540157480314
21
0.6641854724409448
0
LINE
8
BLACK
6
CONTINUOUS
10
1.2172540157480314
20
0.6641854724409448
11
1.222065433070866
21
0.6708078346456693
0
LINE
8
BLACK
6
CONTINUOUS
10
1.222065433070866
20
0.6708078346456693
11
1.2278535826771653
21
0.6765959842519685
0
LINE
8
BLACK
6
CONTINUOUS
10
1.2278535826771653
20
0.6765959842519685
11
1.2344759448818898
21
0.6814074015748032
0
LINE
8
BLACK
6
CONTINUOUS
10
1.2344759448818898
20
0.6814074015748032
11
1.2417694488188975
21
0.6851236220472441
0
LINE
8
BLACK
6
CONTINUOUS
10
1.2417694488188975
20
0.6851236220472441
11
1.2495545275590552
21
0.6876531496062992
0
LINE
8
BLACK
6
CONTINUOUS
10
1.2495545275590552
20
0.6876531496062992
11
1.2576394488188976
21
0.6889336614173228
0
LINE
8
BLACK
6
CONTINUOUS
10
1.2576394488188976
20
0.6889336614173228
11
1.2658251181102362
21
0.6889336614173228
0
LINE
8
BLACK
6
CONTINUOUS
10
1.2658251181102362
20
0.6889336614173228
11
1.2739100393700786
21
0.6876531496062992
0
LINE
8
BLACK
6
CONTINUOUS
10
1.6104454724409449
20
0.6876531496062992
11
1.6182305511811024
21
0.6851236220472441
0
LINE
8
BLACK
6
CONTINUOUS
10
1.6182305511811024
20
0.6851236220472441
11
1.6255240551181103
21
0.6814074015748032
0
LINE
8
BLACK
6
CONTINUOUS
10
1.6255240551181103
20
0.6814074015748032
11
1.6321464173228346
21
0.6765959842519685
0
LINE
8
BLACK
6
CONTINUOUS
10
1.6321464173228346
20
0.6765959842519685
11
1.6379345669291339
21
0.6708078346456693
0
LINE
8
BLACK
6
CONTINUOUS
10
1.6379345669291339
20
0.6708078346456693
11
1.6427459842519685
21
0.6641854724409448
0
LINE
8
BLACK
6
CONTINUOUS
10
1.6427459842519685
20
0.6641854724409448
11
1.6464622047244095
21
0.6568919685039369
0
LINE
8
BLACK
6
CONTINUOUS
10
1.6464622047244095
20
0.6568919685039369
11
1.6489917322834646
21
0.6491068897637795
0
LINE
8
BLACK
6
CONTINUOUS
10
1.6489917322834646
20
0.6491068897637795
11
1.6502722440944881
21
0.641021968503937
0
LINE
8
BLACK
6
CONTINUOUS
10
1.6502722440944881
20
0.641021968503937
11
1.6502722440944881
21
0.6328362992125984
0
LINE
8
BLACK
6
CONTINUOUS
10
1.6502722440944881
20
0.6328362992125984
11
1.6489917322834646
21
0.6247513779527559
0
LINE
8
BLACK
6
CONTINUOUS
10
1.6489917322834646
20
0.6247513779527559
11
1.6464622047244095
21
0.6169662992125984
0
LINE
8
BLACK
6
CONTINUOUS
10
1.6464622047244095
20
0.6169662992125984
11
1.6427459842519685
21
0.6096727952755905
0
LINE
8
BLACK
6
CONTINUOUS
10
1.6427459842519685
20
0.6096727952755905
11
1.6379345669291339
21
0.6030504330708661
0
LINE
8
BLACK
6
CONTINUOUS
10
1.6379345669291339
20
0.6030504330708661
11
1.6321464173228346
21
0.5972622834645669
0
LINE
8
BLACK
6
CONTINUOUS
10
1.6321464173228346
20
0.5972622834645669
11
1.6255240551181103
21
0.5924508661417323
0
LINE
8
BLACK
6
CONTINUOUS
10
1.6255240551181103
20
0.5924508661417323
11
1.6182305511811024
21
0.5887346456692913
0
LINE
8
BLACK
6
CONTINUOUS
10
1.6182305511811024
20
0.5887346456692913
11
1.6104454724409449
21
0.5862051181102362
0
LINE
8
BLACK
6
CONTINUOUS
10
1.6104454724409449
20
0.5862051181102362
11
1.6023605511811023
21
0.5849246062992126
0
LINE
8
BLACK
6
CONTINUOUS
10
1.6023605511811023
20
0.5849246062992126
11
1.5941748818897636
21
0.5849246062992126
0
LINE
8
BLACK
6
CONTINUOUS
10
1.5941748818897636
20
0.5849246062992126
11
1.5860899606299212
21
0.5862051181102362
0
LINE
8
BLACK
6
CONTINUOUS
10
1.5860899606299212
20
0.5862051181102362
11
1.5783048818897638
21
0.5887346456692913
0
LINE
8
BLACK
6
CONTINUOUS
10
1.5783048818897638
20
0.5887346456692913
11
1.5710113779527559
21
0.5924508661417323
0
LINE
8
BLACK
6
CONTINUOUS
10
1.5710113779527559
20
0.5924508661417323
11
1.5643890157480314
21
0.5972622834645669
0
LINE
8
BLACK
6
CONTINUOUS
10
1.5643890157480314
20
0.5972622834645669
11
1.5586008661417323
21
0.6030504330708661
0
LINE
8
BLACK
6
CONTINUOUS
10
1.5586008661417323
20
0.6030504330708661
11
1.5537894488188977
21
0.6096727952755905
0
LINE
8
BLACK
6
CONTINUOUS
10
1.5537894488188977
20
0.6096727952755905
11
1.5500732283464567
21
0.6169662992125984
0
LINE
8
BLACK
6
CONTINUOUS
10
1.5500732283464567
20
0.6169662992125984
11
1.5475437007874016
21
0.6247513779527559
0
LINE
8
BLACK
6
CONTINUOUS
10
1.5475437007874016
20
0.6247513779527559
11
1.5462631889763778
21
0.6328362992125984
0
LINE
8
BLACK
6
CONTINUOUS
10
1.5462631889763778
20
0.6328362992125984
11
1.5462631889763778
21
0.641021968503937
0
LINE
8
BLACK
6
CONTINUOUS
10
1.5462631889763778
20
0.641021968503937
11
1.5475437007874016
21
0.6491068897637795
0
LINE
8
BLACK
6
CONTINUOUS
10
1.5475437007874016
20
0.6491068897637795
11
1.5500732283464567
21
0.6568919685039369
0
LINE
8
BLACK
6
CONTINUOUS
10
1.5500732283464567
20
0.6568919685039369
11
1.5537894488188977
21
0.6641854724409448
0
LINE
8
BLACK
6
CONTINUOUS
10
1.5537894488188977
20
0.6641854724409448
11
1.5586008661417323
21
0.6708078346456693
0
LINE
8
BLACK
6
CONTINUOUS
10
1.5586008661417323
20
0.6708078346456693
11
1.5643890157480314
21
0.6765959842519685
0
LINE
8
BLACK
6
CONTINUOUS
10
1.5643890157480314
20
0.6765959842519685
11
1.5710113779527559
21
0.6814074015748032
0
LINE
8
BLACK
6
CONTINUOUS
10
1.5710113779527559
20
0.6814074015748032
11
1.5783048818897638
21
0.6851236220472441
0
LINE
8
BLACK
6
CONTINUOUS
10
1.5783048818897638
20
0.6851236220472441
11
1.5860899606299212
21
0.6876531496062992
0
LINE
8
BLACK
6
CONTINUOUS
10
1.5860899606299212
20
0.6876531496062992
11
1.5941748818897636
21
0.6889336614173228
0
LINE
8
BLACK
6
CONTINUOUS
10
1.5941748818897636
20
0.6889336614173228
11
1.6023605511811023
21
0.6889336614173228
0
LINE
8
BLACK
6
CONTINUOUS
10
1.6023605511811023
20
0.6889336614173228
11
1.6104454724409449
21
0.6876531496062992
0
LINE
8
BLACK
6
CONTINUOUS
10
1.9939100393700786
20
0.6876531496062992
11
2.001695118110236
21
0.6851236220472441
0
LINE
8
BLACK
6
CONTINUOUS
10
2.001695118110236
20
0.6851236220472441
11
2.0089886220472439
21
0.6814074015748032
0
LINE
8
BLACK
6
CONTINUOUS
10
2.0089886220472439
20
0.6814074015748032
11
2.0156109842519685
21
0.6765959842519685
0
LINE
8
BLACK
6
CONTINUOUS
10
2.0156109842519685
20
0.6765959842519685
11
2.0213991338582677
21
0.6708078346456693
0
LINE
8
BLACK
6
CONTINUOUS
10
2.0213991338582677
20
0.6708078346456693
11
2.0262105511811024
21
0.6641854724409448
0
LINE
8
BLACK
6
CONTINUOUS
10
2.0262105511811024
20
0.6641854724409448
11
2.0299267716535434
21
0.6568919685039369
0
LINE
8
BLACK
6
CONTINUOUS
10
2.0299267716535434
20
0.6568919685039369
11
2.0324562992125985
21
0.6491068897637795
0
LINE
8
BLACK
6
CONTINUOUS
10
2.0324562992125985
20
0.6491068897637795
11
2.0337368110236218
21
0.641021968503937
0
LINE
8
BLACK
6
CONTINUOUS
10
2.0337368110236218
20
0.641021968503937
11
2.0337368110236218
21
0.6328362992125984
0
LINE
8
BLACK
6
CONTINUOUS
10
2.0337368110236218
20
0.6328362992125984
11
2.0324562992125985
21
0.6247513779527559
0
LINE
8
BLACK
6
CONTINUOUS
10
2.0324562992125985
20
0.6247513779527559
11
2.0299267716535434
21
0.6169662992125984
0
LINE
8
BLACK
6
CONTINUOUS
10
2.0299267716535434
20
0.6169662992125984
11
2.0262105511811024
21
0.6096727952755905
0
LINE
8
BLACK
6
CONTINUOUS
10
2.0262105511811024
20
0.6096727952755905
11
2.0213991338582677
21
0.6030504330708661
0
LINE
8
BLACK
6
CONTINUOUS
10
2.0213991338582677
20
0.6030504330708661
11
2.0156109842519685
21
0.5972622834645669
0
LINE
8
BLACK
6
CONTINUOUS
10
2.0156109842519685
20
0.5972622834645669
11
2.0089886220472439
21
0.5924508661417323
0
LINE
8
BLACK
6
CONTINUOUS
10
2.0089886220472439
20
0.5924508661417323
11
2.001695118110236
21
0.5887346456692913
0
LINE
8
BLACK
6
CONTINUOUS
10
2.001695118110236
20
0.5887346456692913
11
1.9939100393700786
21
0.5862051181102362
0
LINE
8
BLACK
6
CONTINUOUS
10
1.9939100393700786
20
0.5862051181102362
11
1.9858251181102362
21
0.5849246062992126
0
LINE
8
BLACK
6
CONTINUOUS
10
1.9858251181102362
20
0.5849246062992126
11
1.9776394488188975
21
0.5849246062992126
0
LINE
8
BLACK
6
CONTINUOUS
10
1.9776394488188975
20
0.5849246062992126
11
1.9695545275590551
21
0.5862051181102362
0
LINE
8
BLACK
6
CONTINUOUS
10
1.9695545275590551
20
0.5862051181102362
11
1.9617694488188977
21
0.5887346456692913
0
LINE
8
BLACK
6
CONTINUOUS
10
1.9617694488188977
20
0.5887346456692913
11
1.9544759448818898
21
0.5924508661417323
0
LINE
8
BLACK
6
CONTINUOUS
10
1.9544759448818898
20
0.5924508661417323
11
1.9478535826771652
21
0.5972622834645669
0
LINE
8
BLACK
6
CONTINUOUS
10
1.9478535826771652
20
0.5972622834645669
11
1.942065433070866
21
0.6030504330708661
0
LINE
8
BLACK
6
CONTINUOUS
10
1.942065433070866
20
0.6030504330708661
11
1.9372540157480314
21
0.6096727952755905
0
LINE
8
BLACK
6
CONTINUOUS
10
1.9372540157480314
20
0.6096727952755905
11
1.9335377952755906
21
0.6169662992125984
0
LINE
8
BLACK
6
CONTINUOUS
10
1.9335377952755906
20
0.6169662992125984
11
1.9310082677165354
21
0.6247513779527559
0
LINE
8
BLACK
6
CONTINUOUS
10
1.9310082677165354
20
0.6247513779527559
11
1.9297277559055117
21
0.6328362992125984
0
LINE
8
BLACK
6
CONTINUOUS
10
1.9297277559055117
20
0.6328362992125984
11
1.9297277559055117
21
0.641021968503937
0
LINE
8
BLACK
6
CONTINUOUS
10
1.9297277559055117
20
0.641021968503937
11
1.9310082677165354
21
0.6491068897637795
0
LINE
8
BLACK
6
CONTINUOUS
10
1.9310082677165354
20
0.6491068897637795
11
1.9335377952755906
21
0.6568919685039369
0
LINE
8
BLACK
6
CONTINUOUS
10
1.9335377952755906
20
0.6568919685039369
11
1.9372540157480314
21
0.6641854724409448
0
LINE
8
BLACK
6
CONTINUOUS
10
1.9372540157480314
20
0.6641854724409448
11
1.942065433070866
21
0.6708078346456693
0
LINE
8
BLACK
6
CONTINUOUS
10
1.942065433070866
20
0.6708078346456693
11
1.9478535826771652
21
0.6765959842519685
0
LINE
8
BLACK
6
CONTINUOUS
10
1.9478535826771652
20
0.6765959842519685
11
1.9544759448818898
21
0.6814074015748032
0
LINE
8
BLACK
6
CONTINUOUS
10
1.9544759448818898
20
0.6814074015748032
11
1.9617694488188977
21
0.6851236220472441
0
LINE
8
BLACK
6
CONTINUOUS
10
1.9617694488188977
20
0.6851236220472441
11
1.9695545275590551
21
0.6876531496062992
0
LINE
8
BLACK
6
CONTINUOUS
10
1.9695545275590551
20
0.6876531496062992
11
1.9776394488188975
21
0.6889336614173228
0
LINE
8
BLACK
6
CONTINUOUS
10
1.9776394488188975
20
0.6889336614173228
11
1.9858251181102362
21
0.6889336614173228
0
LINE
8
BLACK
6
CONTINUOUS
10
1.9858251181102362
20
0.6889336614173228
11
1.9939100393700786
21
0.6876531496062992
0
LINE
8
BLACK
6
CONTINUOUS
10
2.6575885826771652
20
0.7404330708661417
11
2.5075885826771653
21
0.7404330708661417
0
LINE
8
BLACK
6
CONTINUOUS
10
2.5075885826771653
20
0.7404330708661417
11
2.5075885826771653
21
0.8904330708661418
0
LINE
8
BLACK
6
CONTINUOUS
10
2.5075885826771653
20
0.8904330708661418
11
2.6575885826771652
21
0.8904330708661418
0
LINE
8
BLACK
6
CONTINUOUS
10
2.6575885826771652
20
0.8904330708661418
11
2.6575885826771652
21
0.7404330708661417
0
LINE
8
BLACK
6
CONTINUOUS
10
2.8544389763779527
20
0.7404330708661417
11
2.7044389763779528
21
0.7404330708661417
0
LINE
8
BLACK
6
CONTINUOUS
10
2.7044389763779528
20
0.7404330708661417
11
2.7044389763779528
21
0.8904330708661418
0
LINE
8
BLACK
6
CONTINUOUS
10
2.7044389763779528
20
0.8904330708661418
11
2.8544389763779527
21
0.8904330708661418
0
LINE
8
BLACK
6
CONTINUOUS
10
2.8544389763779527
20
0.8904330708661418
11
2.8544389763779527
21
0.7404330708661417
0
LINE
8
BLACK
6
CONTINUOUS
10
2.6575885826771652
20
0.9372834645669291
11
2.5075885826771653
21
0.9372834645669291
0
LINE
8
BLACK
6
CONTINUOUS
10
2.5075885826771653
20
0.9372834645669291
11
2.5075885826771653
21
1.0872834645669291
0
LINE
8
BLACK
6
CONTINUOUS
10
2.5075885826771653
20
1.0872834645669291
11
2.6575885826771652
21
1.0872834645669291
0
LINE
8
BLACK
6
CONTINUOUS
10
2.6575885826771652
20
1.0872834645669291
11
2.6575885826771652
21
0.9372834645669291
0
LINE
8
BLACK
6
CONTINUOUS
10
2.8544389763779527
20
0.9372834645669291
11
2.7044389763779528
21
0.9372834645669291
0
LINE
8
BLACK
6
CONTINUOUS
10
2.7044389763779528
20
0.9372834645669291
11
2.7044389763779528
21
1.0872834645669291
0
LINE
8
BLACK
6
CONTINUOUS
10
2.7044389763779528
20
1.0872834645669291
11
2.8544389763779527
21
1.0872834645669291
0
LINE
8
BLACK
6
CONTINUOUS
10
2.8544389763779527
20
1.0872834645669291
11
2.8544389763779527
21
0.9372834645669291
0
LINE
8
BLACK
6
CONTINUOUS
10
1.3496115748031496
20
1.0820187401574803
11
1.3566622047244095
21
1.0797278346456693
0
LINE
8
BLACK
6
CONTINUOUS
10
1.3566622047244095
20
1.0797278346456693
11
1.3632676377952755
21
1.0763622047244095
0
LINE
8
BLACK
6
CONTINUOUS
10
1.3632676377952755
20
1.0763622047244095
11
1.3692652755905512
21
1.0720046850393701
0
LINE
8
BLACK
6
CONTINUOUS
10
1.3692652755905512
20
1.0720046850393701
11
1.3745073622047244
21
1.0667625984251967
0
LINE
8
BLACK
6
CONTINUOUS
10
1.3745073622047244
20
1.0667625984251967
11
1.3788648818897637
21
1.0607649606299212
0
LINE
8
BLACK
6
CONTINUOUS
10
1.3788648818897637
20
1.0607649606299212
11
1.3822305118110236
21
1.0541595275590552
0
LINE
8
BLACK
6
CONTINUOUS
10
1.3822305118110236
20
1.0541595275590552
11
1.3845214173228346
21
1.0471088976377954
0
LINE
8
BLACK
6
CONTINUOUS
10
1.3845214173228346
20
1.0471088976377954
11
1.3856811417322834
21
1.0397867322834646
0
LINE
8
BLACK
6
CONTINUOUS
10
1.3856811417322834
20
1.0397867322834646
11
1.3856811417322834
21
1.0323732677165354
0
LINE
8
BLACK
6
CONTINUOUS
10
1.3856811417322834
20
1.0323732677165354
11
1.3845214173228346
21
1.0250511023622046
0
LINE
8
BLACK
6
CONTINUOUS
10
1.3845214173228346
20
1.0250511023622046
11
1.3822305118110236
21
1.0180004724409448
0
LINE
8
BLACK
6
CONTINUOUS
10
1.3822305118110236
20
1.0180004724409448
11
1.3788648818897637
21
1.0113950393700788
0
LINE
8
BLACK
6
CONTINUOUS
10
1.3788648818897637
20
1.0113950393700788
11
1.3745073622047244
21
1.0053974015748031
0
LINE
8
BLACK
6
CONTINUOUS
10
1.3745073622047244
20
1.0053974015748031
11
1.3692652755905512
21
1.0001553149606299
0
LINE
8
BLACK
6
CONTINUOUS
10
1.3692652755905512
20
1.0001553149606299
11
1.3632676377952755
21
0.9957977952755905
0
LINE
8
BLACK
6
CONTINUOUS
10
1.3632676377952755
20
0.9957977952755905
11
1.3566622047244095
21
0.9924321653543307
0
LINE
8
BLACK
6
CONTINUOUS
10
1.3566622047244095
20
0.9924321653543307
11
1.3496115748031496
21
0.9901412598425197
0
LINE
8
BLACK
6
CONTINUOUS
10
1.3496115748031496
20
0.9901412598425197
11
1.3422894094488189
21
0.9889815354330709
0
LINE
8
BLACK
6
CONTINUOUS
10
1.3422894094488189
20
0.9889815354330709
11
1.3348759448818897
21
0.9889815354330709
0
LINE
8
BLACK
6
CONTINUOUS
10
1.3348759448818897
20
0.9889815354330709
11
1.3275537795275589
21
0.9901412598425197
0
LINE
8
BLACK
6
CONTINUOUS
10
1.3275537795275589
20
0.9901412598425197
11
1.3205031496062991
21
0.9924321653543307
0
LINE
8
BLACK
6
CONTINUOUS
10
1.3205031496062991
20
0.9924321653543307
11
1.3138977165354331
21
0.9957977952755905
0
LINE
8
BLACK
6
CONTINUOUS
10
1.3138977165354331
20
0.9957977952755905
11
1.3079000787401573
21
1.0001553149606299
0
LINE
8
BLACK
6
CONTINUOUS
10
1.3079000787401573
20
1.0001553149606299
11
1.3026579921259842
21
1.0053974015748031
0
LINE
8
BLACK
6
CONTINUOUS
10
1.3026579921259842
20
1.0053974015748031
11
1.2983004724409448
21
1.0113950393700788
0
LINE
8
BLACK
6
CONTINUOUS
10
1.2983004724409448
20
1.0113950393700788
11
1.2949348425196849
21
1.0180004724409448
0
LINE
8
BLACK
6
CONTINUOUS
10
1.2949348425196849
20
1.0180004724409448
11
1.2926439370078739
21
1.0250511023622046
0
LINE
8
BLACK
6
CONTINUOUS
10
1.2926439370078739
20
1.0250511023622046
11
1.2914842125984252
21
1.0323732677165354
0
LINE
8
BLACK
6
CONTINUOUS
10
1.2914842125984252
20
1.0323732677165354
11
1.2914842125984252
21
1.0397867322834646
0
LINE
8
BLACK
6
CONTINUOUS
10
1.2914842125984252
20
1.0397867322834646
11
1.2926439370078739
21
1.0471088976377954
0
LINE
8
BLACK
6
CONTINUOUS
10
1.2926439370078739
20
1.0471088976377954
11
1.2949348425196849
21
1.0541595275590552
0
LINE
8
BLACK
6
CONTINUOUS
10
1.2949348425196849
20
1.0541595275590552
11
1.2983004724409448
21
1.0607649606299212
0
LINE
8
BLACK
6
CONTINUOUS
10
1.2983004724409448
20
1.0607649606299212
11
1.3026579921259842
21
1.0667625984251967
0
LINE
8
BLACK
6
CONTINUOUS
10
1.3026579921259842
20
1.0667625984251967
11
1.3079000787401573
21
1.0720046850393701
0
LINE
8
BLACK
6
CONTINUOUS
10
1.3079000787401573
20
1.0720046850393701
11
1.3138977165354331
21
1.0763622047244095
0
LINE
8
BLACK
6
CONTINUOUS
10
1.3138977165354331
20
1.0763622047244095
11
1.3205031496062991
21
1.0797278346456693
0
LINE
8
BLACK
6
CONTINUOUS
10
1.3205031496062991
20
1.0797278346456693
11
1.3275537795275589
21
1.0820187401574803
0
LINE
8
BLACK
6
CONTINUOUS
10
1.3275537795275589
20
1.0820187401574803
11
1.3348759448818897
21
1.0831784645669291
0
LINE
8
BLACK
6
CONTINUOUS
10
1.3348759448818897
20
1.0831784645669291
11
1.3422894094488189
21
1.0831784645669291
0
LINE
8
BLACK
6
CONTINUOUS
10
1.3422894094488189
20
1.0831784645669291
11
1.3496115748031496
21
1.0820187401574803
0
LINE
8
BLACK
6
CONTINUOUS
10
1.5464619685039369
20
1.0820187401574803
11
1.5535125984251967
21
1.0797278346456693
0
LINE
8
BLACK
6
CONTINUOUS
10
1.5535125984251967
20
1.0797278346456693
11
1.560118031496063
21
1.0763622047244095
0
LINE
8
BLACK
6
CONTINUOUS
10
1.560118031496063
20
1.0763622047244095
11
1.5661156692913385
21
1.0720046850393701
0
LINE
8
BLACK
6
CONTINUOUS
10
1.5661156692913385
20
1.0720046850393701
11
1.5713577559055119
21
1.0667625984251967
0
LINE
8
BLACK
6
CONTINUOUS
10
1.5713577559055119
20
1.0667625984251967
11
1.5757152755905512
21
1.0607649606299212
0
LINE
8
BLACK
6
CONTINUOUS
10
1.5757152755905512
20
1.0607649606299212
11
1.5790809055118109
21
1.0541595275590552
0
LINE
8
BLACK
6
CONTINUOUS
10
1.5790809055118109
20
1.0541595275590552
11
1.5813718110236221
21
1.0471088976377954
0
LINE
8
BLACK
6
CONTINUOUS
10
1.5813718110236221
20
1.0471088976377954
11
1.5825315354330709
21
1.0397867322834646
0
LINE
8
BLACK
6
CONTINUOUS
10
1.5825315354330709
20
1.0397867322834646
11
1.5825315354330709
21
1.0323732677165354
0
LINE
8
BLACK
6
CONTINUOUS
10
1.5825315354330709
20
1.0323732677165354
11
1.5813718110236221
21
1.0250511023622046
0
LINE
8
BLACK
6
CONTINUOUS
10
1.5813718110236221
20
1.0250511023622046
11
1.5790809055118109
21
1.0180004724409448
0
LINE
8
BLACK
6
CONTINUOUS
10
1.5790809055118109
20
1.0180004724409448
11
1.5757152755905512
21
1.0113950393700788
0
LINE
8
BLACK
6
CONTINUOUS
10
1.5757152755905512
20
1.0113950393700788
11
1.5713577559055119
21
1.0053974015748031
0
LINE
8
BLACK
6
CONTINUOUS
10
1.5713577559055119
20
1.0053974015748031
11
1.5661156692913385
21
1.0001553149606299
0
LINE
8
BLACK
6
CONTINUOUS
10
1.5661156692913385
20
1.0001553149606299
11
1.560118031496063
21
0.9957977952755905
0
LINE
8
BLACK
6
CONTINUOUS
10
1.560118031496063
20
0.9957977952755905
11
1.5535125984251967
21
0.9924321653543307
0
LINE
8
BLACK
6
CONTINUOUS
10
1.5535125984251967
20
0.9924321653543307
11
1.5464619685039369
21
0.9901412598425197
0
LINE
8
BLACK
6
CONTINUOUS
10
1.5464619685039369
20
0.9901412598425197
11
1.5391398031496062
21
0.9889815354330709
0
LINE
8
BLACK
6
CONTINUOUS
10
1.5391398031496062
20
0.9889815354330709
11
1.5317263385826771
21
0.9889815354330709
0
LINE
8
BLACK
6
CONTINUOUS
10
1.5317263385826771
20
0.9889815354330709
11
1.5244041732283464
21
0.9901412598425197
0
LINE
8
BLACK
6
CONTINUOUS
10
1.5244041732283464
20
0.9901412598425197
11
1.5173535433070866
21
0.9924321653543307
0
LINE
8
BLACK
6
CONTINUOUS
10
1.5173535433070866
20
0.9924321653543307
11
1.5107481102362204
21
0.9957977952755905
0
LINE
8
BLACK
6
CONTINUOUS
10
1.5107481102362204
20
0.9957977952755905
11
1.5047504724409448
21
1.0001553149606299
0
LINE
8
BLACK
6
CONTINUOUS
10
1.5047504724409448
20
1.0001553149606299
11
1.4995083858267717
21
1.0053974015748031
0
LINE
8
BLACK
6
CONTINUOUS
10
1.4995083858267717
20
1.0053974015748031
11
1.4951508661417323
21
1.0113950393700788
0
LINE
8
BLACK
6
CONTINUOUS
10
1.4951508661417323
20
1.0113950393700788
11
1.4917852362204724
21
1.0180004724409448
0
LINE
8
BLACK
6
CONTINUOUS
10
1.4917852362204724
20
1.0180004724409448
11
1.4894943307086614
21
1.0250511023622046
0
LINE
8
BLACK
6
CONTINUOUS
10
1.4894943307086614
20
1.0250511023622046
11
1.4883346062992127
21
1.0323732677165354
0
LINE
8
BLACK
6
CONTINUOUS
10
1.4883346062992127
20
1.0323732677165354
11
1.4883346062992127
21
1.0397867322834646
0
LINE
8
BLACK
6
CONTINUOUS
10
1.4883346062992127
20
1.0397867322834646
11
1.4894943307086614
21
1.0471088976377954
0
LINE
8
BLACK
6
CONTINUOUS
10
1.4894943307086614
20
1.0471088976377954
11
1.4917852362204724
21
1.0541595275590552
0
LINE
8
BLACK
6
CONTINUOUS
10
1.4917852362204724
20
1.0541595275590552
11
1.4951508661417323
21
1.0607649606299212
0
LINE
8
BLACK
6
CONTINUOUS
10
1.4951508661417323
20
1.0607649606299212
11
1.4995083858267717
21
1.0667625984251967
0
LINE
8
BLACK
6
CONTINUOUS
10
1.4995083858267717
20
1.0667625984251967
11
1.5047504724409448
21
1.0720046850393701
0
LINE
8
BLACK
6
CONTINUOUS
10
1.5047504724409448
20
1.0720046850393701
11
1.5107481102362204
21
1.0763622047244095
0
LINE
8
BLACK
6
CONTINUOUS
10
1.5107481102362204
20
1.0763622047244095
11
1.5173535433070866
21
1.0797278346456693
0
LINE
8
BLACK
6
CONTINUOUS
10
1.5173535433070866
20
1.0797278346456693
11
1.5244041732283464
21
1.0820187401574803
0
LINE
8
BLACK
6
CONTINUOUS
10
1.5244041732283464
20
1.0820187401574803
11
1.5317263385826771
21
1.0831784645669291
0
LINE
8
BLACK
6
CONTINUOUS
10
1.5317263385826771
20
1.0831784645669291
11
1.5391398031496062
21
1.0831784645669291
0
LINE
8
BLACK
6
CONTINUOUS
10
1.5391398031496062
20
1.0831784645669291
11
1.5464619685039369
21
1.0820187401574803
0
LINE
8
BLACK
6
CONTINUOUS
10
0.5052401574803149
20
1.048779527559055
11
0.355240157480315
21
1.048779527559055
0
LINE
8
BLACK
6
CONTINUOUS
10
0.355240157480315
20
1.048779527559055
11
0.355240157480315
21
1.1987795275590551
0
LINE
8
BLACK
6
CONTINUOUS
10
0.355240157480315
20
1.1987795275590551
11
0.5052401574803149
21
1.1987795275590551
0
LINE
8
BLACK
6
CONTINUOUS
10
0.5052401574803149
20
1.1987795275590551
11
0.5052401574803149
21
1.048779527559055
0
LINE
8
BLACK
6
CONTINUOUS
10
0.7020905511811023
20
1.048779527559055
11
0.5520905511811024
21
1.048779527559055
0
LINE
8
BLACK
6
CONTINUOUS
10
0.5520905511811024
20
1.048779527559055
11
0.5520905511811024
21
1.1987795275590551
0
LINE
8
BLACK
6
CONTINUOUS
10
0.5520905511811024
20
1.1987795275590551
11
0.7020905511811023
21
1.1987795275590551
0
LINE
8
BLACK
6
CONTINUOUS
10
0.7020905511811023
20
1.1987795275590551
11
0.7020905511811023
21
1.048779527559055
0
LINE
8
BLACK
6
CONTINUOUS
10
2.6607086614173228
20
1.1380708661417323
11
2.5107086614173229
21
1.1380708661417323
0
LINE
8
BLACK
6
CONTINUOUS
10
2.5107086614173229
20
1.1380708661417323
11
2.5107086614173229
21
1.2880708661417322
0
LINE
8
BLACK
6
CONTINUOUS
10
2.5107086614173229
20
1.2880708661417322
11
2.6607086614173228
21
1.2880708661417322
0
LINE
8
BLACK
6
CONTINUOUS
10
2.6607086614173228
20
1.2880708661417322
11
2.6607086614173228
21
1.1380708661417323
0
LINE
8
BLACK
6
CONTINUOUS
10
2.8575590551181103
20
1.1380708661417323
11
2.7075590551181103
21
1.1380708661417323
0
LINE
8
BLACK
6
CONTINUOUS
10
2.7075590551181103
20
1.1380708661417323
11
2.7075590551181103
21
1.2880708661417322
0
LINE
8
BLACK
6
CONTINUOUS
10
2.7075590551181103
20
1.2880708661417322
11
2.8575590551181103
21
1.2880708661417322
0
LINE
8
BLACK
6
CONTINUOUS
10
2.8575590551181103
20
1.2880708661417322
11
2.8575590551181103
21
1.1380708661417323
0
LINE
8
BLACK
6
CONTINUOUS
10
0.5052401574803149
20
1.2456299212598425
11
0.355240157480315
21
1.2456299212598425
0
LINE
8
BLACK
6
CONTINUOUS
10
0.355240157480315
20
1.2456299212598425
11
0.355240157480315
21
1.3956299212598424
0
LINE
8
BLACK
6
CONTINUOUS
10
0.355240157480315
20
1.3956299212598424
11
0.5052401574803149
21
1.3956299212598424
0
LINE
8
BLACK
6
CONTINUOUS
10
0.5052401574803149
20
1.3956299212598424
11
0.5052401574803149
21
1.2456299212598425
0
LINE
8
BLACK
6
CONTINUOUS
10
0.7020905511811023
20
1.2456299212598425
11
0.5520905511811024
21
1.2456299212598425
0
LINE
8
BLACK
6
CONTINUOUS
10
0.5520905511811024
20
1.2456299212598425
11
0.5520905511811024
21
1.3956299212598424
0
LINE
8
BLACK
6
CONTINUOUS
10
0.5520905511811024
20
1.3956299212598424
11
0.7020905511811023
21
1.3956299212598424
0
LINE
8
BLACK
6
CONTINUOUS
10
0.7020905511811023
20
1.3956299212598424
11
0.7020905511811023
21
1.2456299212598425
0
LINE
8
BLACK
6
CONTINUOUS
10
2.6607086614173228
20
1.3349212598425197
11
2.5107086614173229
21
1.3349212598425197
0
LINE
8
BLACK
6
CONTINUOUS
10
2.5107086614173229
20
1.3349212598425197
11
2.5107086614173229
21
1.4849212598425197
0
LINE
8
BLACK
6
CONTINUOUS
10
2.5107086614173229
20
1.4849212598425197
11
2.6607086614173228
21
1.4849212598425197
0
LINE
8
BLACK
6
CONTINUOUS
10
2.6607086614173228
20
1.4849212598425197
11
2.6607086614173228
21
1.3349212598425197
0
LINE
8
BLACK
6
CONTINUOUS
10
2.8575590551181103
20
1.3349212598425197
11
2.7075590551181103
21
1.3349212598425197
0
LINE
8
BLACK
6
CONTINUOUS
10
2.7075590551181103
20
1.3349212598425197
11
2.7075590551181103
21
1.4849212598425197
0
LINE
8
BLACK
6
CONTINUOUS
10
2.7075590551181103
20
1.4849212598425197
11
2.8575590551181103
21
1.4849212598425197
0
LINE
8
BLACK
6
CONTINUOUS
10
2.8575590551181103
20
1.4849212598425197
11
2.8575590551181103
21
1.3349212598425197
0
LINE
8
BLACK
6
CONTINUOUS
10
1.3496115748031496
20
1.4998899212598424
11
1.3566622047244095
21
1.4975990157480314
0
LINE
8
BLACK
6
CONTINUOUS
10
1.3566622047244095
20
1.4975990157480314
11
1.3632676377952755
21
1.4942333858267716
0
LINE
8
BLACK
6
CONTINUOUS
10
1.3632676377952755
20
1.4942333858267716
11
1.3692652755905512
21
1.4898758661417322
0
LINE
8
BLACK
6
CONTINUOUS
10
1.3692652755905512
20
1.4898758661417322
11
1.3745073622047244
21
1.484633779527559
0
LINE
8
BLACK
6
CONTINUOUS
10
1.3745073622047244
20
1.484633779527559
11
1.3788648818897637
21
1.4786361417322835
0
LINE
8
BLACK
6
CONTINUOUS
10
1.3788648818897637
20
1.4786361417322835
11
1.3822305118110236
21
1.4720307086614173
0
LINE
8
BLACK
6
CONTINUOUS
10
1.3822305118110236
20
1.4720307086614173
11
1.3845214173228346
21
1.4649800787401575
0
LINE
8
BLACK
6
CONTINUOUS
10
1.3845214173228346
20
1.4649800787401575
11
1.3856811417322834
21
1.4576579133858267
0
LINE
8
BLACK
6
CONTINUOUS
10
1.3856811417322834
20
1.4576579133858267
11
1.3856811417322834
21
1.4502444488188977
0
LINE
8
BLACK
6
CONTINUOUS
10
1.3856811417322834
20
1.4502444488188977
11
1.3845214173228346
21
1.442922283464567
0
LINE
8
BLACK
6
CONTINUOUS
10
1.3845214173228346
20
1.442922283464567
11
1.3822305118110236
21
1.4358716535433071
0
LINE
8
BLACK
6
CONTINUOUS
10
1.3822305118110236
20
1.4358716535433071
11
1.3788648818897637
21
1.4292662204724409
0
LINE
8
BLACK
6
CONTINUOUS
10
1.3788648818897637
20
1.4292662204724409
11
1.3745073622047244
21
1.4232685826771654
0
LINE
8
BLACK
6
CONTINUOUS
10
1.3745073622047244
20
1.4232685826771654
11
1.3692652755905512
21
1.418026496062992
0
LINE
8
BLACK
6
CONTINUOUS
10
1.3692652755905512
20
1.418026496062992
11
1.3632676377952755
21
1.4136689763779526
0
LINE
8
BLACK
6
CONTINUOUS
10
1.3632676377952755
20
1.4136689763779526
11
1.3566622047244095
21
1.410303346456693
0
LINE
8
BLACK
6
CONTINUOUS
10
1.3566622047244095
20
1.410303346456693
11
1.3496115748031496
21
1.4080124409448818
0
LINE
8
BLACK
6
CONTINUOUS
10
1.3496115748031496
20
1.4080124409448818
11
1.3422894094488189
21
1.406852716535433
0
LINE
8
BLACK
6
CONTINUOUS
10
1.3422894094488189
20
1.406852716535433
11
1.3348759448818897
21
1.406852716535433
0
LINE
8
BLACK
6
CONTINUOUS
10
1.3348759448818897
20
1.406852716535433
11
1.3275537795275589
21
1.4080124409448818
0
LINE
8
BLACK
6
CONTINUOUS
10
1.3275537795275589
20
1.4080124409448818
11
1.3205031496062991
21
1.410303346456693
0
LINE
8
BLACK
6
CONTINUOUS
10
1.3205031496062991
20
1.410303346456693
11
1.3138977165354331
21
1.4136689763779526
0
LINE
8
BLACK
6
CONTINUOUS
10
1.3138977165354331
20
1.4136689763779526
11
1.3079000787401573
21
1.418026496062992
0
LINE
8
BLACK
6
CONTINUOUS
10
1.3079000787401573
20
1.418026496062992
11
1.3026579921259842
21
1.4232685826771654
0
LINE
8
BLACK
6
CONTINUOUS
10
1.3026579921259842
20
1.4232685826771654
11
1.2983004724409448
21
1.4292662204724409
0
LINE
8
BLACK
6
CONTINUOUS
10
1.2983004724409448
20
1.4292662204724409
11
1.2949348425196849
21
1.4358716535433071
0
LINE
8
BLACK
6
CONTINUOUS
10
1.2949348425196849
20
1.4358716535433071
11
1.2926439370078739
21
1.442922283464567
0
LINE
8
BLACK
6
CONTINUOUS
10
1.2926439370078739
20
1.442922283464567
11
1.2914842125984252
21
1.4502444488188977
0
LINE
8
BLACK
6
CONTINUOUS
10
1.2914842125984252
20
1.4502444488188977
11
1.2914842125984252
21
1.4576579133858267
0
LINE
8
BLACK
6
CONTINUOUS
10
1.2914842125984252
20
1.4576579133858267
11
1.2926439370078739
21
1.4649800787401575
0
LINE
8
BLACK
6
CONTINUOUS
10
1.2926439370078739
20
1.4649800787401575
11
1.2949348425196849
21
1.4720307086614173
0
LINE
8
BLACK
6
CONTINUOUS
10
1.2949348425196849
20
1.4720307086614173
11
1.2983004724409448
21
1.4786361417322835
0
LINE
8
BLACK
6
CONTINUOUS
10
1.2983004724409448
20
1.4786361417322835
11
1.3026579921259842
21
1.484633779527559
0
LINE
8
BLACK
6
CONTINUOUS
10
1.3026579921259842
20
1.484633779527559
11
1.3079000787401573
21
1.4898758661417322
0
LINE
8
BLACK
6
CONTINUOUS
10
1.3079000787401573
20
1.4898758661417322
11
1.3138977165354331
21
1.4942333858267716
0
LINE
8
BLACK
6
CONTINUOUS
10
1.3138977165354331
20
1.4942333858267716
11
1.3205031496062991
21
1.4975990157480314
0
LINE
8
BLACK
6
CONTINUOUS
10
1.3205031496062991
20
1.4975990157480314
11
1.3275537795275589
21
1.4998899212598424
0
LINE
8
BLACK
6
CONTINUOUS
10
1.3275537795275589
20
1.4998899212598424
11
1.3348759448818897
21
1.5010496456692912
0
LINE
8
BLACK
6
CONTINUOUS
10
1.3348759448818897
20
1.5010496456692912
11
1.3422894094488189
21
1.5010496456692912
0
LINE
8
BLACK
6
CONTINUOUS
10
1.3422894094488189
20
1.5010496456692912
11
1.3496115748031496
21
1.4998899212598424
0
LINE
8
BLACK
6
CONTINUOUS
10
1.5464619685039369
20
1.4998899212598424
11
1.5535125984251967
21
1.4975990157480314
0
LINE
8
BLACK
6
CONTINUOUS
10
1.5535125984251967
20
1.4975990157480314
11
1.560118031496063
21
1.4942333858267716
0
LINE
8
BLACK
6
CONTINUOUS
10
1.560118031496063
20
1.4942333858267716
11
1.5661156692913385
21
1.4898758661417322
0
LINE
8
BLACK
6
CONTINUOUS
10
1.5661156692913385
20
1.4898758661417322
11
1.5713577559055119
21
1.484633779527559
0
LINE
8
BLACK
6
CONTINUOUS
10
1.5713577559055119
20
1.484633779527559
11
1.5757152755905512
21
1.4786361417322835
0
LINE
8
BLACK
6
CONTINUOUS
10
1.5757152755905512
20
1.4786361417322835
11
1.5790809055118109
21
1.4720307086614173
0
LINE
8
BLACK
6
CONTINUOUS
10
1.5790809055118109
20
1.4720307086614173
11
1.5813718110236221
21
1.4649800787401575
0
LINE
8
BLACK
6
CONTINUOUS
10
1.5813718110236221
20
1.4649800787401575
11
1.5825315354330709
21
1.4576579133858267
0
LINE
8
BLACK
6
CONTINUOUS
10
1.5825315354330709
20
1.4576579133858267
11
1.5825315354330709
21
1.4502444488188977
0
LINE
8
BLACK
6
CONTINUOUS
10
1.5825315354330709
20
1.4502444488188977
11
1.5813718110236221
21
1.442922283464567
0
LINE
8
BLACK
6
CONTINUOUS
10
1.5813718110236221
20
1.442922283464567
11
1.5790809055118109
21
1.4358716535433071
0
LINE
8
BLACK
6
CONTINUOUS
10
1.5790809055118109
20
1.4358716535433071
11
1.5757152755905512
21
1.4292662204724409
0
LINE
8
BLACK
6
CONTINUOUS
10
1.5757152755905512
20
1.4292662204724409
11
1.5713577559055119
21
1.4232685826771654
0
LINE
8
BLACK
6
CONTINUOUS
10
1.5713577559055119
20
1.4232685826771654
11
1.5661156692913385
21
1.418026496062992
0
LINE
8
BLACK
6
CONTINUOUS
10
1.5661156692913385
20
1.418026496062992
11
1.560118031496063
21
1.4136689763779526
0
LINE
8
BLACK
6
CONTINUOUS
10
1.560118031496063
20
1.4136689763779526
11
1.5535125984251967
21
1.410303346456693
0
LINE
8
BLACK
6
CONTINUOUS
10
1.5535125984251967
20
1.410303346456693
11
1.5464619685039369
21
1.4080124409448818
0
LINE
8
BLACK
6
CONTINUOUS
10
1.5464619685039369
20
1.4080124409448818
11
1.5391398031496062
21
1.406852716535433
0
LINE
8
BLACK
6
CONTINUOUS
10
1.5391398031496062
20
1.406852716535433
11
1.5317263385826771
21
1.406852716535433
0
LINE
8
BLACK
6
CONTINUOUS
10
1.5317263385826771
20
1.406852716535433
11
1.5244041732283464
21
1.4080124409448818
0
LINE
8
BLACK
6
CONTINUOUS
10
1.5244041732283464
20
1.4080124409448818
11
1.5173535433070866
21
1.410303346456693
0
LINE
8
BLACK
6
CONTINUOUS
10
1.5173535433070866
20
1.410303346456693
11
1.5107481102362204
21
1.4136689763779526
0
LINE
8
BLACK
6
CONTINUOUS
10
1.5107481102362204
20
1.4136689763779526
11
1.5047504724409448
21
1.418026496062992
0
LINE
8
BLACK
6
CONTINUOUS
10
1.5047504724409448
20
1.418026496062992
11
1.4995083858267717
21
1.4232685826771654
0
LINE
8
BLACK
6
CONTINUOUS
10
1.4995083858267717
20
1.4232685826771654
11
1.4951508661417323
21
1.4292662204724409
0
LINE
8
BLACK
6
CONTINUOUS
10
1.4951508661417323
20
1.4292662204724409
11
1.4917852362204724
21
1.4358716535433071
0
LINE
8
BLACK
6
CONTINUOUS
10
1.4917852362204724
20
1.4358716535433071
11
1.4894943307086614
21
1.442922283464567
0
LINE
8
BLACK
6
CONTINUOUS
10
1.4894943307086614
20
1.442922283464567
11
1.4883346062992127
21
1.4502444488188977
0
LINE
8
BLACK
6
CONTINUOUS
10
1.4883346062992127
20
1.4502444488188977
11
1.4883346062992127
21
1.4576579133858267
0
LINE
8
BLACK
6
CONTINUOUS
10
1.4883346062992127
20
1.4576579133858267
11
1.4894943307086614
21
1.4649800787401575
0
LINE
8
BLACK
6
CONTINUOUS
10
1.4894943307086614
20
1.4649800787401575
11
1.4917852362204724
21
1.4720307086614173
0
LINE
8
BLACK
6
CONTINUOUS
10
1.4917852362204724
20
1.4720307086614173
11
1.4951508661417323
21
1.4786361417322835
0
LINE
8
BLACK
6
CONTINUOUS
10
1.4951508661417323
20
1.4786361417322835
11
1.4995083858267717
21
1.484633779527559
0
LINE
8
BLACK
6
CONTINUOUS
10
1.4995083858267717
20
1.484633779527559
11
1.5047504724409448
21
1.4898758661417322
0
LINE
8
BLACK
6
CONTINUOUS
10
1.5047504724409448
20
1.4898758661417322
11
1.5107481102362204
21
1.4942333858267716
0
LINE
8
BLACK
6
CONTINUOUS
10
1.5107481102362204
20
1.4942333858267716
11
1.5173535433070866
21
1.4975990157480314
0
LINE
8
BLACK
6
CONTINUOUS
10
1.5173535433070866
20
1.4975990157480314
11
1.5244041732283464
21
1.4998899212598424
0
LINE
8
BLACK
6
CONTINUOUS
10
1.5244041732283464
20
1.4998899212598424
11
1.5317263385826771
21
1.5010496456692912
0
LINE
8
BLACK
6
CONTINUOUS
10
1.5317263385826771
20
1.5010496456692912
11
1.5391398031496062
21
1.5010496456692912
0
LINE
8
BLACK
6
CONTINUOUS
10
1.5391398031496062
20
1.5010496456692912
11
1.5464619685039369
21
1.4998899212598424
0
LINE
8
BLACK
6
CONTINUOUS
10
0.5052401574803149
20
1.4424803149606298
11
0.355240157480315
21
1.4424803149606298
0
LINE
8
BLACK
6
CONTINUOUS
10
0.355240157480315
20
1.4424803149606298
11
0.355240157480315
21
1.5924803149606299
0
LINE
8
BLACK
6
CONTINUOUS
10
0.355240157480315
20
1.5924803149606299
11
0.5052401574803149
21
1.5924803149606299
0
LINE
8
BLACK
6
CONTINUOUS
10
0.5052401574803149
20
1.5924803149606299
11
0.5052401574803149
21
1.4424803149606298
0
LINE
8
BLACK
6
CONTINUOUS
10
0.7020905511811023
20
1.4424803149606298
11
0.5520905511811024
21
1.4424803149606298
0
LINE
8
BLACK
6
CONTINUOUS
10
0.5520905511811024
20
1.4424803149606298
11
0.5520905511811024
21
1.5924803149606299
0
LINE
8
BLACK
6
CONTINUOUS
10
0.5520905511811024
20
1.5924803149606299
11
0.7020905511811023
21
1.5924803149606299
0
LINE
8
BLACK
6
CONTINUOUS
10
0.7020905511811023
20
1.5924803149606299
11
0.7020905511811023
21
1.4424803149606298
0
LINE
8
BLACK
6
CONTINUOUS
10
0.5052401574803149
20
1.6393307086614173
11
0.355240157480315
21
1.6393307086614173
0
LINE
8
BLACK
6
CONTINUOUS
10
0.355240157480315
20
1.6393307086614173
11
0.355240157480315
21
1.7893307086614172
0
LINE
8
BLACK
6
CONTINUOUS
10
0.355240157480315
20
1.7893307086614172
11
0.5052401574803149
21
1.7893307086614172
0
LINE
8
BLACK
6
CONTINUOUS
10
0.5052401574803149
20
1.7893307086614172
11
0.5052401574803149
21
1.6393307086614173
0
LINE
8
BLACK
6
CONTINUOUS
10
0.7020905511811023
20
1.6393307086614173
11
0.5520905511811024
21
1.6393307086614173
0
LINE
8
BLACK
6
CONTINUOUS
10
0.5520905511811024
20
1.6393307086614173
11
0.5520905511811024
21
1.7893307086614172
0
LINE
8
BLACK
6
CONTINUOUS
10
0.5520905511811024
20
1.7893307086614172
11
0.7020905511811023
21
1.7893307086614172
0
LINE
8
BLACK
6
CONTINUOUS
10
0.7020905511811023
20
1.7893307086614172
11
0.7020905511811023
21
1.6393307086614173
0
LINE
8
BLACK
6
CONTINUOUS
10
1.3496115748031496
20
1.9177611023622048
11
1.3566622047244095
21
1.9154701968503935
0
LINE
8
BLACK
6
CONTINUOUS
10
1.3566622047244095
20
1.9154701968503935
11
1.3632676377952755
21
1.9121045669291339
0
LINE
8
BLACK
6
CONTINUOUS
10
1.3632676377952755
20
1.9121045669291339
11
1.3692652755905512
21
1.9077470472440945
0
LINE
8
BLACK
6
CONTINUOUS
10
1.3692652755905512
20
1.9077470472440945
11
1.3745073622047244
21
1.9025049606299211
0
LINE
8
BLACK
6
CONTINUOUS
10
1.3745073622047244
20
1.9025049606299211
11
1.3788648818897637
21
1.8965073228346456
0
LINE
8
BLACK
6
CONTINUOUS
10
1.3788648818897637
20
1.8965073228346456
11
1.3822305118110236
21
1.8899018897637794
0
LINE
8
BLACK
6
CONTINUOUS
10
1.3822305118110236
20
1.8899018897637794
11
1.3845214173228346
21
1.8828512598425196
0
LINE
8
BLACK
6
CONTINUOUS
10
1.3845214173228346
20
1.8828512598425196
11
1.3856811417322834
21
1.8755290944881888
0
LINE
8
BLACK
6
CONTINUOUS
10
1.3856811417322834
20
1.8755290944881888
11
1.3856811417322834
21
1.8681156299212598
0
LINE
8
BLACK
6
CONTINUOUS
10
1.3856811417322834
20
1.8681156299212598
11
1.3845214173228346
21
1.8607934645669291
0
LINE
8
BLACK
6
CONTINUOUS
10
1.3845214173228346
20
1.8607934645669291
11
1.3822305118110236
21
1.8537428346456692
0
LINE
8
BLACK
6
CONTINUOUS
10
1.3822305118110236
20
1.8537428346456692
11
1.3788648818897637
21
1.8471374015748032
0
LINE
8
BLACK
6
CONTINUOUS
10
1.3788648818897637
20
1.8471374015748032
11
1.3745073622047244
21
1.8411397637795275
0
LINE
8
BLACK
6
CONTINUOUS
10
1.3745073622047244
20
1.8411397637795275
11
1.3692652755905512
21
1.8358976771653543
0
LINE
8
BLACK
6
CONTINUOUS
10
1.3692652755905512
20
1.8358976771653543
11
1.3632676377952755
21
1.831540157480315
0
LINE
8
BLACK
6
CONTINUOUS
10
1.3632676377952755
20
1.831540157480315
11
1.3566622047244095
21
1.8281745275590551
0
LINE
8
BLACK
6
CONTINUOUS
10
1.3566622047244095
20
1.8281745275590551
11
1.3496115748031496
21
1.8258836220472441
0
LINE
8
BLACK
6
CONTINUOUS
10
1.3496115748031496
20
1.8258836220472441
11
1.3422894094488189
21
1.8247238976377953
0
LINE
8
BLACK
6
CONTINUOUS
10
1.3422894094488189
20
1.8247238976377953
11
1.3348759448818897
21
1.8247238976377953
0
LINE
8
BLACK
6
CONTINUOUS
10
1.3348759448818897
20
1.8247238976377953
11
1.3275537795275589
21
1.8258836220472441
0
LINE
8
BLACK
6
CONTINUOUS
10
1.3275537795275589
20
1.8258836220472441
11
1.3205031496062991
21
1.8281745275590551
0
LINE
8
BLACK
6
CONTINUOUS
10
1.3205031496062991
20
1.8281745275590551
11
1.3138977165354331
21
1.831540157480315
0
LINE
8
BLACK
6
CONTINUOUS
10
1.3138977165354331
20
1.831540157480315
11
1.3079000787401573
21
1.8358976771653543
0
LINE
8
BLACK
6
CONTINUOUS
10
1.3079000787401573
20
1.8358976771653543
11
1.3026579921259842
21
1.8411397637795275
0
LINE
8
BLACK
6
CONTINUOUS
10
1.3026579921259842
20
1.8411397637795275
11
1.2983004724409448
21
1.8471374015748032
0
LINE
8
BLACK
6
CONTINUOUS
10
1.2983004724409448
20
1.8471374015748032
11
1.2949348425196849
21
1.8537428346456692
0
LINE
8
BLACK
6
CONTINUOUS
10
1.2949348425196849
20
1.8537428346456692
11
1.2926439370078739
21
1.8607934645669291
0
LINE
8
BLACK
6
CONTINUOUS
10
1.2926439370078739
20
1.8607934645669291
11
1.2914842125984252
21
1.8681156299212598
0
LINE
8
BLACK
6
CONTINUOUS
10
1.2914842125984252
20
1.8681156299212598
11
1.2914842125984252
21
1.8755290944881888
0
LINE
8
BLACK
6
CONTINUOUS
10
1.2914842125984252
20
1.8755290944881888
11
1.2926439370078739
21
1.8828512598425196
0
LINE
8
BLACK
6
CONTINUOUS
10
1.2926439370078739
20
1.8828512598425196
11
1.2949348425196849
21
1.8899018897637794
0
LINE
8
BLACK
6
CONTINUOUS
10
1.2949348425196849
20
1.8899018897637794
11
1.2983004724409448
21
1.8965073228346456
0
LINE
8
BLACK
6
CONTINUOUS
10
1.2983004724409448
20
1.8965073228346456
11
1.3026579921259842
21
1.9025049606299211
0
LINE
8
BLACK
6
CONTINUOUS
10
1.3026579921259842
20
1.9025049606299211
11
1.3079000787401573
21
1.9077470472440945
0
LINE
8
BLACK
6
CONTINUOUS
10
1.3079000787401573
20
1.9077470472440945
11
1.3138977165354331
21
1.9121045669291339
0
LINE
8
BLACK
6
CONTINUOUS
10
1.3138977165354331
20
1.9121045669291339
11
1.3205031496062991
21
1.9154701968503935
0
LINE
8
BLACK
6
CONTINUOUS
10
1.3205031496062991
20
1.9154701968503935
11
1.3275537795275589
21
1.9177611023622048
0
LINE
8
BLACK
6
CONTINUOUS
10
1.3275537795275589
20
1.9177611023622048
11
1.3348759448818897
21
1.9189208267716535
0
LINE
8
BLACK
6
CONTINUOUS
10
1.3348759448818897
20
1.9189208267716535
11
1.3422894094488189
21
1.9189208267716535
0
LINE
8
BLACK
6
CONTINUOUS
10
1.3422894094488189
20
1.9189208267716535
11
1.3496115748031496
21
1.9177611023622048
0
LINE
8
BLACK
6
CONTINUOUS
10
1.5464619685039369
20
1.9177611023622048
11
1.5535125984251967
21
1.9154701968503935
0
LINE
8
BLACK
6
CONTINUOUS
10
1.5535125984251967
20
1.9154701968503935
11
1.560118031496063
21
1.9121045669291339
0
LINE
8
BLACK
6
CONTINUOUS
10
1.560118031496063
20
1.9121045669291339
11
1.5661156692913385
21
1.9077470472440945
0
LINE
8
BLACK
6
CONTINUOUS
10
1.5661156692913385
20
1.9077470472440945
11
1.5713577559055119
21
1.9025049606299211
0
LINE
8
BLACK
6
CONTINUOUS
10
1.5713577559055119
20
1.9025049606299211
11
1.5757152755905512
21
1.8965073228346456
0
LINE
8
BLACK
6
CONTINUOUS
10
1.5757152755905512
20
1.8965073228346456
11
1.5790809055118109
21
1.8899018897637794
0
LINE
8
BLACK
6
CONTINUOUS
10
1.5790809055118109
20
1.8899018897637794
11
1.5813718110236221
21
1.8828512598425196
0
LINE
8
BLACK
6
CONTINUOUS
10
1.5813718110236221
20
1.8828512598425196
11
1.5825315354330709
21
1.8755290944881888
0
LINE
8
BLACK
6
CONTINUOUS
10
1.5825315354330709
20
1.8755290944881888
11
1.5825315354330709
21
1.8681156299212598
0
LINE
8
BLACK
6
CONTINUOUS
10
1.5825315354330709
20
1.8681156299212598
11
1.5813718110236221
21
1.8607934645669291
0
LINE
8
BLACK
6
CONTINUOUS
10
1.5813718110236221
20
1.8607934645669291
11
1.5790809055118109
21
1.8537428346456692
0
LINE
8
BLACK
6
CONTINUOUS
10
1.5790809055118109
20
1.8537428346456692
11
1.5757152755905512
21
1.8471374015748032
0
LINE
8
BLACK
6
CONTINUOUS
10
1.5757152755905512
20
1.8471374015748032
11
1.5713577559055119
21
1.8411397637795275
0
LINE
8
BLACK
6
CONTINUOUS
10
1.5713577559055119
20
1.8411397637795275
11
1.5661156692913385
21
1.8358976771653543
0
LINE
8
BLACK
6
CONTINUOUS
10
1.5661156692913385
20
1.8358976771653543
11
1.560118031496063
21
1.831540157480315
0
LINE
8
BLACK
6
CONTINUOUS
10
1.560118031496063
20
1.831540157480315
11
1.5535125984251967
21
1.8281745275590551
0
LINE
8
BLACK
6
CONTINUOUS
10
1.5535125984251967
20
1.8281745275590551
11
1.5464619685039369
21
1.8258836220472441
0
LINE
8
BLACK
6
CONTINUOUS
10
1.5464619685039369
20
1.8258836220472441
11
1.5391398031496062
21
1.8247238976377953
0
LINE
8
BLACK
6
CONTINUOUS
10
1.5391398031496062
20
1.8247238976377953
11
1.5317263385826771
21
1.8247238976377953
0
LINE
8
BLACK
6
CONTINUOUS
10
1.5317263385826771
20
1.8247238976377953
11
1.5244041732283464
21
1.8258836220472441
0
LINE
8
BLACK
6
CONTINUOUS
10
1.5244041732283464
20
1.8258836220472441
11
1.5173535433070866
21
1.8281745275590551
0
LINE
8
BLACK
6
CONTINUOUS
10
1.5173535433070866
20
1.8281745275590551
11
1.5107481102362204
21
1.831540157480315
0
LINE
8
BLACK
6
CONTINUOUS
10
1.5107481102362204
20
1.831540157480315
11
1.5047504724409448
21
1.8358976771653543
0
LINE
8
BLACK
6
CONTINUOUS
10
1.5047504724409448
20
1.8358976771653543
11
1.4995083858267717
21
1.8411397637795275
0
LINE
8
BLACK
6
CONTINUOUS
10
1.4995083858267717
20
1.8411397637795275
11
1.4951508661417323
21
1.8471374015748032
0
LINE
8
BLACK
6
CONTINUOUS
10
1.4951508661417323
20
1.8471374015748032
11
1.4917852362204724
21
1.8537428346456692
0
LINE
8
BLACK
6
CONTINUOUS
10
1.4917852362204724
20
1.8537428346456692
11
1.4894943307086614
21
1.8607934645669291
0
LINE
8
BLACK
6
CONTINUOUS
10
1.4894943307086614
20
1.8607934645669291
11
1.4883346062992127
21
1.8681156299212598
0
LINE
8
BLACK
6
CONTINUOUS
10
1.4883346062992127
20
1.8681156299212598
11
1.4883346062992127
21
1.8755290944881888
0
LINE
8
BLACK
6
CONTINUOUS
10
1.4883346062992127
20
1.8755290944881888
11
1.4894943307086614
21
1.8828512598425196
0
LINE
8
BLACK
6
CONTINUOUS
10
1.4894943307086614
20
1.8828512598425196
11
1.4917852362204724
21
1.8899018897637794
0
LINE
8
BLACK
6
CONTINUOUS
10
1.4917852362204724
20
1.8899018897637794
11
1.4951508661417323
21
1.8965073228346456
0
LINE
8
BLACK
6
CONTINUOUS
10
1.4951508661417323
20
1.8965073228346456
11
1.4995083858267717
21
1.9025049606299211
0
LINE
8
BLACK
6
CONTINUOUS
10
1.4995083858267717
20
1.9025049606299211
11
1.5047504724409448
21
1.9077470472440945
0
LINE
8
BLACK
6
CONTINUOUS
10
1.5047504724409448
20
1.9077470472440945
11
1.5107481102362204
21
1.9121045669291339
0
LINE
8
BLACK
6
CONTINUOUS
10
1.5107481102362204
20
1.9121045669291339
11
1.5173535433070866
21
1.9154701968503935
0
LINE
8
BLACK
6
CONTINUOUS
10
1.5173535433070866
20
1.9154701968503935
11
1.5244041732283464
21
1.9177611023622048
0
LINE
8
BLACK
6
CONTINUOUS
10
1.5244041732283464
20
1.9177611023622048
11
1.5317263385826771
21
1.9189208267716535
0
LINE
8
BLACK
6
CONTINUOUS
10
1.5317263385826771
20
1.9189208267716535
11
1.5391398031496062
21
1.9189208267716535
0
LINE
8
BLACK
6
CONTINUOUS
10
1.5391398031496062
20
1.9189208267716535
11
1.5464619685039369
21
1.9177611023622048
0
LINE
8
BLACK
6
CONTINUOUS
10
0.5052401574803149
20
1.8361811023622048
11
0.355240157480315
21
1.8361811023622048
0
LINE
8
BLACK
6
CONTINUOUS
10
0.355240157480315
20
1.8361811023622048
11
0.355240157480315
21
1.9861811023622047
0
LINE
8
BLACK
6
CONTINUOUS
10
0.355240157480315
20
1.9861811023622047
11
0.5052401574803149
21
1.9861811023622047
0
LINE
8
BLACK
6
CONTINUOUS
10
0.5052401574803149
20
1.9861811023622047
11
0.5052401574803149
21
1.8361811023622048
0
LINE
8
BLACK
6
CONTINUOUS
10
0.7020905511811023
20
1.8361811023622048
11
0.5520905511811024
21
1.8361811023622048
0
LINE
8
BLACK
6
CONTINUOUS
10
0.5520905511811024
20
1.8361811023622048
11
0.5520905511811024
21
1.9861811023622047
0
LINE
8
BLACK
6
CONTINUOUS
10
0.5520905511811024
20
1.9861811023622047
11
0.7020905511811023
21
1.9861811023622047
0
LINE
8
BLACK
6
CONTINUOUS
10
0.7020905511811023
20
1.9861811023622047
11
0.7020905511811023
21
1.8361811023622048
0
LINE
8
BLACK
6
CONTINUOUS
10
2.4996850393700787
20
1.9853543307086614
11
2.4396850393700786
21
1.9853543307086614
0
LINE
8
BLACK
6
CONTINUOUS
10
2.4396850393700786
20
1.9853543307086614
11
2.4396850393700786
21
2.0453543307086615
0
LINE
8
BLACK
6
CONTINUOUS
10
2.4396850393700786
20
2.0453543307086615
11
2.4996850393700787
21
2.0453543307086615
0
LINE
8
BLACK
6
CONTINUOUS
10
2.4996850393700787
20
2.0453543307086615
11
2.4996850393700787
21
1.9853543307086614
0
LINE
8
BLACK
6
CONTINUOUS
10
2.5996850393700788
20
1.9853543307086614
11
2.5396850393700787
21
1.9853543307086614
0
LINE
8
BLACK
6
CONTINUOUS
10
2.5396850393700787
20
1.9853543307086614
11
2.5396850393700787
21
2.0453543307086615
0
LINE
8
BLACK
6
CONTINUOUS
10
2.5396850393700787
20
2.0453543307086615
11
2.5996850393700788
21
2.0453543307086615
0
LINE
8
BLACK
6
CONTINUOUS
10
2.5996850393700788
20
2.0453543307086615
11
2.5996850393700788
21
1.9853543307086614
0
LINE
8
BLACK
6
CONTINUOUS
10
2.7359055118110236
20
1.9853543307086614
11
2.6759055118110235
21
1.9853543307086614
0
LINE
8
BLACK
6
CONTINUOUS
10
2.6759055118110235
20
1.9853543307086614
11
2.6759055118110235
21
2.0453543307086615
0
LINE
8
BLACK
6
CONTINUOUS
10
2.6759055118110235
20
2.0453543307086615
11
2.7359055118110236
21
2.0453543307086615
0
LINE
8
BLACK
6
CONTINUOUS
10
2.7359055118110236
20
2.0453543307086615
11
2.7359055118110236
21
1.9853543307086614
0
LINE
8
BLACK
6
CONTINUOUS
10
2.8359055118110237
20
1.9853543307086614
11
2.7759055118110236
21
1.9853543307086614
0
LINE
8
BLACK
6
CONTINUOUS
10
2.7759055118110236
20
1.9853543307086614
11
2.7759055118110236
21
2.0453543307086615
0
LINE
8
BLACK
6
CONTINUOUS
10
2.7759055118110236
20
2.0453543307086615
11
2.8359055118110237
21
2.0453543307086615
0
LINE
8
BLACK
6
CONTINUOUS
10
2.8359055118110237
20
2.0453543307086615
11
2.8359055118110237
21
1.9853543307086614
0
LINE
8
BLACK
6
CONTINUOUS
10
0.5052401574803149
20
2.0330314960629923
11
0.355240157480315
21
2.0330314960629923
0
LINE
8
BLACK
6
CONTINUOUS
10
0.355240157480315
20
2.0330314960629923
11
0.355240157480315
21
2.1830314960629922
0
LINE
8
BLACK
6
CONTINUOUS
10
0.355240157480315
20
2.1830314960629922
11
0.5052401574803149
21
2.1830314960629922
0
LINE
8
BLACK
6
CONTINUOUS
10
0.5052401574803149
20
2.1830314960629922
11
0.5052401574803149
21
2.0330314960629923
0
LINE
8
BLACK
6
CONTINUOUS
10
0.7020905511811023
20
2.0330314960629923
11
0.5520905511811024
21
2.0330314960629923
0
LINE
8
BLACK
6
CONTINUOUS
10
0.5520905511811024
20
2.0330314960629923
11
0.5520905511811024
21
2.1830314960629922
0
LINE
8
BLACK
6
CONTINUOUS
10
0.5520905511811024
20
2.1830314960629922
11
0.7020905511811023
21
2.1830314960629922
0
LINE
8
BLACK
6
CONTINUOUS
10
0.7020905511811023
20
2.1830314960629922
11
0.7020905511811023
21
2.0330314960629923
0
LINE
8
BLACK
6
CONTINUOUS
10
2.4996850393700787
20
2.0853543307086615
11
2.4396850393700786
21
2.0853543307086615
0
LINE
8
BLACK
6
CONTINUOUS
10
2.4396850393700786
20
2.0853543307086615
11
2.4396850393700786
21
2.1453543307086615
0
LINE
8
BLACK
6
CONTINUOUS
10
2.4396850393700786
20
2.1453543307086615
11
2.4996850393700787
21
2.1453543307086615
0
LINE
8
BLACK
6
CONTINUOUS
10
2.4996850393700787
20
2.1453543307086615
11
2.4996850393700787
21
2.0853543307086615
0
LINE
8
BLACK
6
CONTINUOUS
10
2.5996850393700788
20
2.0853543307086615
11
2.5396850393700787
21
2.0853543307086615
0
LINE
8
BLACK
6
CONTINUOUS
10
2.5396850393700787
20
2.0853543307086615
11
2.5396850393700787
21
2.1453543307086615
0
LINE
8
BLACK
6
CONTINUOUS
10
2.5396850393700787
20
2.1453543307086615
11
2.5996850393700788
21
2.1453543307086615
0
LINE
8
BLACK
6
CONTINUOUS
10
2.5996850393700788
20
2.1453543307086615
11
2.5996850393700788
21
2.0853543307086615
0
LINE
8
BLACK
6
CONTINUOUS
10
2.7359055118110236
20
2.0853543307086615
11
2.6759055118110235
21
2.0853543307086615
0
LINE
8
BLACK
6
CONTINUOUS
10
2.6759055118110235
20
2.0853543307086615
11
2.6759055118110235
21
2.1453543307086615
0
LINE
8
BLACK
6
CONTINUOUS
10
2.6759055118110235
20
2.1453543307086615
11
2.7359055118110236
21
2.1453543307086615
0
LINE
8
BLACK
6
CONTINUOUS
10
2.7359055118110236
20
2.1453543307086615
11
2.7359055118110236
21
2.0853543307086615
0
LINE
8
BLACK
6
CONTINUOUS
10
2.8359055118110237
20
2.0853543307086615
11
2.7759055118110236
21
2.0853543307086615
0
LINE
8
BLACK
6
CONTINUOUS
10
2.7759055118110236
20
2.0853543307086615
11
2.7759055118110236
21
2.1453543307086615
0
LINE
8
BLACK
6
CONTINUOUS
10
2.7759055118110236
20
2.1453543307086615
11
2.8359055118110237
21
2.1453543307086615
0
LINE
8
BLACK
6
CONTINUOUS
10
2.8359055118110237
20
2.1453543307086615
11
2.8359055118110237
21
2.0853543307086615
0
LINE
8
BLACK
6
CONTINUOUS
10
2.4996850393700787
20
2.1853543307086616
11
2.4396850393700786
21
2.1853543307086616
0
LINE
8
BLACK
6
CONTINUOUS
10
2.4396850393700786
20
2.1853543307086616
11
2.4396850393700786
21
2.2453543307086612
0
LINE
8
BLACK
6
CONTINUOUS
10
2.4396850393700786
20
2.2453543307086612
11
2.4996850393700787
21
2.2453543307086612
0
LINE
8
BLACK
6
CONTINUOUS
10
2.4996850393700787
20
2.2453543307086612
11
2.4996850393700787
21
2.1853543307086616
0
LINE
8
BLACK
6
CONTINUOUS
10
2.5996850393700788
20
2.1853543307086616
11
2.5396850393700787
21
2.1853543307086616
0
LINE
8
BLACK
6
CONTINUOUS
10
2.5396850393700787
20
2.1853543307086616
11
2.5396850393700787
21
2.2453543307086612
0
LINE
8
BLACK
6
CONTINUOUS
10
2.5396850393700787
20
2.2453543307086612
11
2.5996850393700788
21
2.2453543307086612
0
LINE
8
BLACK
6
CONTINUOUS
10
2.5996850393700788
20
2.2453543307086612
11
2.5996850393700788
21
2.1853543307086616
0
LINE
8
BLACK
6
CONTINUOUS
10
2.7359055118110236
20
2.1853543307086616
11
2.6759055118110235
21
2.1853543307086616
0
LINE
8
BLACK
6
CONTINUOUS
10
2.6759055118110235
20
2.1853543307086616
11
2.6759055118110235
21
2.2453543307086612
0
LINE
8
BLACK
6
CONTINUOUS
10
2.6759055118110235
20
2.2453543307086612
11
2.7359055118110236
21
2.2453543307086612
0
LINE
8
BLACK
6
CONTINUOUS
10
2.7359055118110236
20
2.2453543307086612
11
2.7359055118110236
21
2.1853543307086616
0
LINE
8
BLACK
6
CONTINUOUS
10
2.8359055118110237
20
2.1853543307086616
11
2.7759055118110236
21
2.1853543307086616
0
LINE
8
BLACK
6
CONTINUOUS
10
2.7759055118110236
20
2.1853543307086616
11
2.7759055118110236
21
2.2453543307086612
0
LINE
8
BLACK
6
CONTINUOUS
10
2.7759055118110236
20
2.2453543307086612
11
2.8359055118110237
21
2.2453543307086612
0
LINE
8
BLACK
6
CONTINUOUS
10
2.8359055118110237
20
2.2453543307086612
11
2.8359055118110237
21
2.1853543307086616
0
LINE
8
BLACK
6
CONTINUOUS
10
0.5052401574803149
20
2.2298818897637793
11
0.355240157480315
21
2.2298818897637793
0
LINE
8
BLACK
6
CONTINUOUS
10
0.355240157480315
20
2.2298818897637793
11
0.355240157480315
21
2.3798818897637797
0
LINE
8
BLACK
6
CONTINUOUS
10
0.355240157480315
20
2.3798818897637797
11
0.5052401574803149
21
2.3798818897637797
0
LINE
8
BLACK
6
CONTINUOUS
10
0.5052401574803149
20
2.3798818897637797
11
0.5052401574803149
21
2.2298818897637793
0
LINE
8
BLACK
6
CONTINUOUS
10
0.7020905511811023
20
2.2298818897637793
11
0.5520905511811024
21
2.2298818897637793
0
LINE
8
BLACK
6
CONTINUOUS
10
0.5520905511811024
20
2.2298818897637793
11
0.5520905511811024
21
2.3798818897637797
0
LINE
8
BLACK
6
CONTINUOUS
10
0.5520905511811024
20
2.3798818897637797
11
0.7020905511811023
21
2.3798818897637797
0
LINE
8
BLACK
6
CONTINUOUS
10
0.7020905511811023
20
2.3798818897637797
11
0.7020905511811023
21
2.2298818897637793
0
LINE
8
BLACK
6
CONTINUOUS
10
1.3496115748031496
20
2.3356322834645669
11
1.3566622047244095
21
2.3333413779527556
0
LINE
8
BLACK
6
CONTINUOUS
10
1.3566622047244095
20
2.3333413779527556
11
1.3632676377952755
21
2.329975748031496
0
LINE
8
BLACK
6
CONTINUOUS
10
1.3632676377952755
20
2.329975748031496
11
1.3692652755905512
21
2.3256182283464568
0
LINE
8
BLACK
6
CONTINUOUS
10
1.3692652755905512
20
2.3256182283464568
11
1.3745073622047244
21
2.3203761417322832
0
LINE
8
BLACK
6
CONTINUOUS
10
1.3745073622047244
20
2.3203761417322832
11
1.3788648818897637
21
2.3143785039370077
0
LINE
8
BLACK
6
CONTINUOUS
10
1.3788648818897637
20
2.3143785039370077
11
1.3822305118110236
21
2.3077730708661415
0
LINE
8
BLACK
6
CONTINUOUS
10
1.3822305118110236
20
2.3077730708661415
11
1.3845214173228346
21
2.3007224409448819
0
LINE
8
BLACK
6
CONTINUOUS
10
1.3845214173228346
20
2.3007224409448819
11
1.3856811417322834
21
2.2934002755905509
0
LINE
8
BLACK
6
CONTINUOUS
10
1.3856811417322834
20
2.2934002755905509
11
1.3856811417322834
21
2.2859868110236219
0
LINE
8
BLACK
6
CONTINUOUS
10
1.3856811417322834
20
2.2859868110236219
11
1.3845214173228346
21
2.2786646456692914
0
LINE
8
BLACK
6
CONTINUOUS
10
1.3845214173228346
20
2.2786646456692914
11
1.3822305118110236
21
2.2716140157480313
0
LINE
8
BLACK
6
CONTINUOUS
10
1.3822305118110236
20
2.2716140157480313
11
1.3788648818897637
21
2.2650085826771651
0
LINE
8
BLACK
6
CONTINUOUS
10
1.3788648818897637
20
2.2650085826771651
11
1.3745073622047244
21
2.2590109448818896
0
LINE
8
BLACK
6
CONTINUOUS
10
1.3745073622047244
20
2.2590109448818896
11
1.3692652755905512
21
2.2537688582677164
0
LINE
8
BLACK
6
CONTINUOUS
10
1.3692652755905512
20
2.2537688582677164
11
1.3632676377952755
21
2.2494113385826773
0
LINE
8
BLACK
6
CONTINUOUS
10
1.3632676377952755
20
2.2494113385826773
11
1.3566622047244095
21
2.2460457086614172
0
LINE
8
BLACK
6
CONTINUOUS
10
1.3566622047244095
20
2.2460457086614172
11
1.3496115748031496
21
2.2437548031496064
0
LINE
8
BLACK
6
CONTINUOUS
10
1.3496115748031496
20
2.2437548031496064
11
1.3422894094488189
21
2.2425950787401576
0
LINE
8
BLACK
6
CONTINUOUS
10
1.3422894094488189
20
2.2425950787401576
11
1.3348759448818897
21
2.2425950787401576
0
LINE
8
BLACK
6
CONTINUOUS
10
1.3348759448818897
20
2.2425950787401576
11
1.3275537795275589
21
2.2437548031496064
0
LINE
8
BLACK
6
CONTINUOUS
10
1.3275537795275589
20
2.2437548031496064
11
1.3205031496062991
21
2.2460457086614172
0
LINE
8
BLACK
6
CONTINUOUS
10
1.3205031496062991
20
2.2460457086614172
11
1.3138977165354331
21
2.2494113385826773
0
LINE
8
BLACK
6
CONTINUOUS
10
1.3138977165354331
20
2.2494113385826773
11
1.3079000787401573
21
2.2537688582677164
0
LINE
8
BLACK
6
CONTINUOUS
10
1.3079000787401573
20
2.2537688582677164
11
1.3026579921259842
21
2.2590109448818896
0
LINE
8
BLACK
6
CONTINUOUS
10
1.3026579921259842
20
2.2590109448818896
11
1.2983004724409448
21
2.2650085826771651
0
LINE
8
BLACK
6
CONTINUOUS
10
1.2983004724409448
20
2.2650085826771651
11
1.2949348425196849
21
2.2716140157480313
0
LINE
8
BLACK
6
CONTINUOUS
10
1.2949348425196849
20
2.2716140157480313
11
1.2926439370078739
21
2.2786646456692914
0
LINE
8
BLACK
6
CONTINUOUS
10
1.2926439370078739
20
2.2786646456692914
11
1.2914842125984252
21
2.2859868110236219
0
LINE
8
BLACK
6
CONTINUOUS
10
1.2914842125984252
20
2.2859868110236219
11
1.2914842125984252
21
2.2934002755905509
0
LINE
8
BLACK
6
CONTINUOUS
10
1.2914842125984252
20
2.2934002755905509
11
1.2926439370078739
21
2.3007224409448819
0
LINE
8
BLACK
6
CONTINUOUS
10
1.2926439370078739
20
2.3007224409448819
11
1.2949348425196849
21
2.3077730708661415
0
LINE
8
BLACK
6
CONTINUOUS
10
1.2949348425196849
20
2.3077730708661415
11
1.2983004724409448
21
2.3143785039370077
0
LINE
8
BLACK
6
CONTINUOUS
10
1.2983004724409448
20
2.3143785039370077
11
1.3026579921259842
21
2.3203761417322832
0
LINE
8
BLACK
6
CONTINUOUS
10
1.3026579921259842
20
2.3203761417322832
11
1.3079000787401573
21
2.3256182283464568
0
LINE
8
BLACK
6
CONTINUOUS
10
1.3079000787401573
20
2.3256182283464568
11
1.3138977165354331
21
2.329975748031496
0
LINE
8
BLACK
6
CONTINUOUS
10
1.3138977165354331
20
2.329975748031496
11
1.3205031496062991
21
2.3333413779527556
0
LINE
8
BLACK
6
CONTINUOUS
10
1.3205031496062991
20
2.3333413779527556
11
1.3275537795275589
21
2.3356322834645669
0
LINE
8
BLACK
6
CONTINUOUS
10
1.3275537795275589
20
2.3356322834645669
11
1.3348759448818897
21
2.3367920078740156
0
LINE
8
BLACK
6
CONTINUOUS
10
1.3348759448818897
20
2.3367920078740156
11
1.3422894094488189
21
2.3367920078740156
0
LINE
8
BLACK
6
CONTINUOUS
10
1.3422894094488189
20
2.3367920078740156
11
1.3496115748031496
21
2.3356322834645669
0
LINE
8
BLACK
6
CONTINUOUS
10
1.5464619685039369
20
2.3356322834645669
11
1.5535125984251967
21
2.3333413779527556
0
LINE
8
BLACK
6
CONTINUOUS
10
1.5535125984251967
20
2.3333413779527556
11
1.560118031496063
21
2.329975748031496
0
LINE
8
BLACK
6
CONTINUOUS
10
1.560118031496063
20
2.329975748031496
11
1.5661156692913385
21
2.3256182283464568
0
LINE
8
BLACK
6
CONTINUOUS
10
1.5661156692913385
20
2.3256182283464568
11
1.5713577559055119
21
2.3203761417322832
0
LINE
8
BLACK
6
CONTINUOUS
10
1.5713577559055119
20
2.3203761417322832
11
1.5757152755905512
21
2.3143785039370077
0
LINE
8
BLACK
6
CONTINUOUS
10
1.5757152755905512
20
2.3143785039370077
11
1.5790809055118109
21
2.3077730708661415
0
LINE
8
BLACK
6
CONTINUOUS
10
1.5790809055118109
20
2.3077730708661415
11
1.5813718110236221
21
2.3007224409448819
0
LINE
8
BLACK
6
CONTINUOUS
10
1.5813718110236221
20
2.3007224409448819
11
1.5825315354330709
21
2.2934002755905509
0
LINE
8
BLACK
6
CONTINUOUS
10
1.5825315354330709
20
2.2934002755905509
11
1.5825315354330709
21
2.2859868110236219
0
LINE
8
BLACK
6
CONTINUOUS
10
1.5825315354330709
20
2.2859868110236219
11
1.5813718110236221
21
2.2786646456692914
0
LINE
8
BLACK
6
CONTINUOUS
10
1.5813718110236221
20
2.2786646456692914
11
1.5790809055118109
21
2.2716140157480313
0
LINE
8
BLACK
6
CONTINUOUS
10
1.5790809055118109
20
2.2716140157480313
11
1.5757152755905512
21
2.2650085826771651
0
LINE
8
BLACK
6
CONTINUOUS
10
1.5757152755905512
20
2.2650085826771651
11
1.5713577559055119
21
2.2590109448818896
0
LINE
8
BLACK
6
CONTINUOUS
10
1.5713577559055119
20
2.2590109448818896
11
1.5661156692913385
21
2.2537688582677164
0
LINE
8
BLACK
6
CONTINUOUS
10
1.5661156692913385
20
2.2537688582677164
11
1.560118031496063
21
2.2494113385826773
0
LINE
8
BLACK
6
CONTINUOUS
10
1.560118031496063
20
2.2494113385826773
11
1.5535125984251967
21
2.2460457086614172
0
LINE
8
BLACK
6
CONTINUOUS
10
1.5535125984251967
20
2.2460457086614172
11
1.5464619685039369
21
2.2437548031496064
0
LINE
8
BLACK
6
CONTINUOUS
10
1.5464619685039369
20
2.2437548031496064
11
1.5391398031496062
21
2.2425950787401576
0
LINE
8
BLACK
6
CONTINUOUS
10
1.5391398031496062
20
2.2425950787401576
11
1.5317263385826771
21
2.2425950787401576
0
LINE
8
BLACK
6
CONTINUOUS
10
1.5317263385826771
20
2.2425950787401576
11
1.5244041732283464
21
2.2437548031496064
0
LINE
8
BLACK
6
CONTINUOUS
10
1.5244041732283464
20
2.2437548031496064
11
1.5173535433070866
21
2.2460457086614172
0
LINE
8
BLACK
6
CONTINUOUS
10
1.5173535433070866
20
2.2460457086614172
11
1.5107481102362204
21
2.2494113385826773
0
LINE
8
BLACK
6
CONTINUOUS
10
1.5107481102362204
20
2.2494113385826773
11
1.5047504724409448
21
2.2537688582677164
0
LINE
8
BLACK
6
CONTINUOUS
10
1.5047504724409448
20
2.2537688582677164
11
1.4995083858267717
21
2.2590109448818896
0
LINE
8
BLACK
6
CONTINUOUS
10
1.4995083858267717
20
2.2590109448818896
11
1.4951508661417323
21
2.2650085826771651
0
LINE
8
BLACK
6
CONTINUOUS
10
1.4951508661417323
20
2.2650085826771651
11
1.4917852362204724
21
2.2716140157480313
0
LINE
8
BLACK
6
CONTINUOUS
10
1.4917852362204724
20
2.2716140157480313
11
1.4894943307086614
21
2.2786646456692914
0
LINE
8
BLACK
6
CONTINUOUS
10
1.4894943307086614
20
2.2786646456692914
11
1.4883346062992127
21
2.2859868110236219
0
LINE
8
BLACK
6
CONTINUOUS
10
1.4883346062992127
20
2.2859868110236219
11
1.4883346062992127
21
2.2934002755905509
0
LINE
8
BLACK
6
CONTINUOUS
10
1.4883346062992127
20
2.2934002755905509
11
1.4894943307086614
21
2.3007224409448819
0
LINE
8
BLACK
6
CONTINUOUS
10
1.4894943307086614
20
2.3007224409448819
11
1.4917852362204724
21
2.3077730708661415
0
LINE
8
BLACK
6
CONTINUOUS
10
1.4917852362204724
20
2.3077730708661415
11
1.4951508661417323
21
2.3143785039370077
0
LINE
8
BLACK
6
CONTINUOUS
10
1.4951508661417323
20
2.3143785039370077
11
1.4995083858267717
21
2.3203761417322832
0
LINE
8
BLACK
6
CONTINUOUS
10
1.4995083858267717
20
2.3203761417322832
11
1.5047504724409448
21
2.3256182283464568
0
LINE
8
BLACK
6
CONTINUOUS
10
1.5047504724409448
20
2.3256182283464568
11
1.5107481102362204
21
2.329975748031496
0
LINE
8
BLACK
6
CONTINUOUS
10
1.5107481102362204
20
2.329975748031496
11
1.5173535433070866
21
2.3333413779527556
0
LINE
8
BLACK
6
CONTINUOUS
10
1.5173535433070866
20
2.3333413779527556
11
1.5244041732283464
21
2.3356322834645669
0
LINE
8
BLACK
6
CONTINUOUS
10
1.5244041732283464
20
2.3356322834645669
11
1.5317263385826771
21
2.3367920078740156
0
LINE
8
BLACK
6
CONTINUOUS
10
1.5317263385826771
20
2.3367920078740156
11
1.5391398031496062
21
2.3367920078740156
0
LINE
8
BLACK
6
CONTINUOUS
10
1.5391398031496062
20
2.3367920078740156
11
1.5464619685039369
21
2.3356322834645669
0
LINE
8
BLACK
6
CONTINUOUS
10
2.4996850393700787
20
2.2853543307086612
11
2.4396850393700786
21
2.2853543307086612
0
LINE
8
BLACK
6
CONTINUOUS
10
2.4396850393700786
20
2.2853543307086612
11
2.4396850393700786
21
2.3453543307086613
0
LINE
8
BLACK
6
CONTINUOUS
10
2.4396850393700786
20
2.3453543307086613
11
2.4996850393700787
21
2.3453543307086613
0
LINE
8
BLACK
6
CONTINUOUS
10
2.4996850393700787
20
2.3453543307086613
11
2.4996850393700787
21
2.2853543307086612
0
LINE
8
BLACK
6
CONTINUOUS
10
2.5996850393700788
20
2.2853543307086612
11
2.5396850393700787
21
2.2853543307086612
0
LINE
8
BLACK
6
CONTINUOUS
10
2.5396850393700787
20
2.2853543307086612
11
2.5396850393700787
21
2.3453543307086613
0
LINE
8
BLACK
6
CONTINUOUS
10
2.5396850393700787
20
2.3453543307086613
11
2.5996850393700788
21
2.3453543307086613
0
LINE
8
BLACK
6
CONTINUOUS
10
2.5996850393700788
20
2.3453543307086613
11
2.5996850393700788
21
2.2853543307086612
0
LINE
8
BLACK
6
CONTINUOUS
10
2.7359055118110236
20
2.2853543307086612
11
2.6759055118110235
21
2.2853543307086612
0
LINE
8
BLACK
6
CONTINUOUS
10
2.6759055118110235
20
2.2853543307086612
11
2.6759055118110235
21
2.3453543307086613
0
LINE
8
BLACK
6
CONTINUOUS
10
2.6759055118110235
20
2.3453543307086613
11
2.7359055118110236
21
2.3453543307086613
0
LINE
8
BLACK
6
CONTINUOUS
10
2.7359055118110236
20
2.3453543307086613
11
2.7359055118110236
21
2.2853543307086612
0
LINE
8
BLACK
6
CONTINUOUS
10
2.8359055118110237
20
2.2853543307086612
11
2.7759055118110236
21
2.2853543307086612
0
LINE
8
BLACK
6
CONTINUOUS
10
2.7759055118110236
20
2.2853543307086612
11
2.7759055118110236
21
2.3453543307086613
0
LINE
8
BLACK
6
CONTINUOUS
10
2.7759055118110236
20
2.3453543307086613
11
2.8359055118110237
21
2.3453543307086613
0
LINE
8
BLACK
6
CONTINUOUS
10
2.8359055118110237
20
2.3453543307086613
11
2.8359055118110237
21
2.2853543307086612
0
LINE
8
BLACK
6
CONTINUOUS
10
0.5052401574803149
20
2.4267322834645668
11
0.355240157480315
21
2.4267322834645668
0
LINE
8
BLACK
6
CONTINUOUS
10
0.355240157480315
20
2.4267322834645668
11
0.355240157480315
21
2.5767322834645667
0
LINE
8
BLACK
6
CONTINUOUS
10
0.355240157480315
20
2.5767322834645667
11
0.5052401574803149
21
2.5767322834645667
0
LINE
8
BLACK
6
CONTINUOUS
10
0.5052401574803149
20
2.5767322834645667
11
0.5052401574803149
21
2.4267322834645668
0
LINE
8
BLACK
6
CONTINUOUS
10
0.7020905511811023
20
2.4267322834645668
11
0.5520905511811024
21
2.4267322834645668
0
LINE
8
BLACK
6
CONTINUOUS
10
0.5520905511811024
20
2.4267322834645668
11
0.5520905511811024
21
2.5767322834645667
0
LINE
8
BLACK
6
CONTINUOUS
10
0.5520905511811024
20
2.5767322834645667
11
0.7020905511811023
21
2.5767322834645667
0
LINE
8
BLACK
6
CONTINUOUS
10
0.7020905511811023
20
2.5767322834645667
11
0.7020905511811023
21
2.4267322834645668
0
LINE
8
BLACK
6
CONTINUOUS
10
0.5052401574803149
20
2.6235826771653543
11
0.355240157480315
21
2.6235826771653543
0
LINE
8
BLACK
6
CONTINUOUS
10
0.355240157480315
20
2.6235826771653543
11
0.355240157480315
21
2.7735826771653542
0
LINE
8
BLACK
6
CONTINUOUS
10
0.355240157480315
20
2.7735826771653542
11
0.5052401574803149
21
2.7735826771653542
0
LINE
8
BLACK
6
CONTINUOUS
10
0.5052401574803149
20
2.7735826771653542
11
0.5052401574803149
21
2.6235826771653543
0
LINE
8
BLACK
6
CONTINUOUS
10
0.7020905511811023
20
2.6235826771653543
11
0.5520905511811024
21
2.6235826771653543
0
LINE
8
BLACK
6
CONTINUOUS
10
0.5520905511811024
20
2.6235826771653543
11
0.5520905511811024
21
2.7735826771653542
0
LINE
8
BLACK
6
CONTINUOUS
10
0.5520905511811024
20
2.7735826771653542
11
0.7020905511811023
21
2.7735826771653542
0
LINE
8
BLACK
6
CONTINUOUS
10
0.7020905511811023
20
2.7735826771653542
11
0.7020905511811023
21
2.6235826771653543
0
LINE
8
BLACK
6
CONTINUOUS
10
1.3496115748031496
20
2.7535034645669292
11
1.3566622047244095
21
2.751212559055118
0
LINE
8
BLACK
6
CONTINUOUS
10
1.3566622047244095
20
2.751212559055118
11
1.3632676377952755
21
2.7478469291338583
0
LINE
8
BLACK
6
CONTINUOUS
10
1.3632676377952755
20
2.7478469291338583
11
1.3692652755905512
21
2.7434894094488187
0
LINE
8
BLACK
6
CONTINUOUS
10
1.3692652755905512
20
2.7434894094488187
11
1.3745073622047244
21
2.7382473228346456
0
LINE
8
BLACK
6
CONTINUOUS
10
1.3745073622047244
20
2.7382473228346456
11
1.3788648818897637
21
2.73224968503937
0
LINE
8
BLACK
6
CONTINUOUS
10
1.3788648818897637
20
2.73224968503937
11
1.3822305118110236
21
2.7256442519685038
0
LINE
8
BLACK
6
CONTINUOUS
10
1.3822305118110236
20
2.7256442519685038
11
1.3845214173228346
21
2.7185936220472442
0
LINE
8
BLACK
6
CONTINUOUS
10
1.3845214173228346
20
2.7185936220472442
11
1.3856811417322834
21
2.7112714566929133
0
LINE
8
BLACK
6
CONTINUOUS
10
1.3856811417322834
20
2.7112714566929133
11
1.3856811417322834
21
2.7038579921259842
0
LINE
8
BLACK
6
CONTINUOUS
10
1.3856811417322834
20
2.7038579921259842
11
1.3845214173228346
21
2.6965358267716533
0
LINE
8
BLACK
6
CONTINUOUS
10
1.3845214173228346
20
2.6965358267716533
11
1.3822305118110236
21
2.6894851968503937
0
LINE
8
BLACK
6
CONTINUOUS
10
1.3822305118110236
20
2.6894851968503937
11
1.3788648818897637
21
2.6828797637795274
0
LINE
8
BLACK
6
CONTINUOUS
10
1.3788648818897637
20
2.6828797637795274
11
1.3745073622047244
21
2.6768821259842519
0
LINE
8
BLACK
6
CONTINUOUS
10
1.3745073622047244
20
2.6768821259842519
11
1.3692652755905512
21
2.6716400393700788
0
LINE
8
BLACK
6
CONTINUOUS
10
1.3692652755905512
20
2.6716400393700788
11
1.3632676377952755
21
2.6672825196850392
0
LINE
8
BLACK
6
CONTINUOUS
10
1.3632676377952755
20
2.6672825196850392
11
1.3566622047244095
21
2.6639168897637795
0
LINE
8
BLACK
6
CONTINUOUS
10
1.3566622047244095
20
2.6639168897637795
11
1.3496115748031496
21
2.6616259842519683
0
LINE
8
BLACK
6
CONTINUOUS
10
1.3496115748031496
20
2.6616259842519683
11
1.3422894094488189
21
2.6604662598425195
0
LINE
8
BLACK
6
CONTINUOUS
10
1.3422894094488189
20
2.6604662598425195
11
1.3348759448818897
21
2.6604662598425195
0
LINE
8
BLACK
6
CONTINUOUS
10
1.3348759448818897
20
2.6604662598425195
11
1.3275537795275589
21
2.6616259842519683
0
LINE
8
BLACK
6
CONTINUOUS
10
1.3275537795275589
20
2.6616259842519683
11
1.3205031496062991
21
2.6639168897637795
0
LINE
8
BLACK
6
CONTINUOUS
10
1.3205031496062991
20
2.6639168897637795
11
1.3138977165354331
21
2.6672825196850392
0
LINE
8
BLACK
6
CONTINUOUS
10
1.3138977165354331
20
2.6672825196850392
11
1.3079000787401573
21
2.6716400393700788
0
LINE
8
BLACK
6
CONTINUOUS
10
1.3079000787401573
20
2.6716400393700788
11
1.3026579921259842
21
2.6768821259842519
0
LINE
8
BLACK
6
CONTINUOUS
10
1.3026579921259842
20
2.6768821259842519
11
1.2983004724409448
21
2.6828797637795274
0
LINE
8
BLACK
6
CONTINUOUS
10
1.2983004724409448
20
2.6828797637795274
11
1.2949348425196849
21
2.6894851968503937
0
LINE
8
BLACK
6
CONTINUOUS
10
1.2949348425196849
20
2.6894851968503937
11
1.2926439370078739
21
2.6965358267716533
0
LINE
8
BLACK
6
CONTINUOUS
10
1.2926439370078739
20
2.6965358267716533
11
1.2914842125984252
21
2.7038579921259842
0
LINE
8
BLACK
6
CONTINUOUS
10
1.2914842125984252
20
2.7038579921259842
11
1.2914842125984252
21
2.7112714566929133
0
LINE
8
BLACK
6
CONTINUOUS
10
1.2914842125984252
20
2.7112714566929133
11
1.2926439370078739
21
2.7185936220472442
0
LINE
8
BLACK
6
CONTINUOUS
10
1.2926439370078739
20
2.7185936220472442
11
1.2949348425196849
21
2.7256442519685038
0
LINE
8
BLACK
6
CONTINUOUS
10
1.2949348425196849
20
2.7256442519685038
11
1.2983004724409448
21
2.73224968503937
0
LINE
8
BLACK
6
CONTINUOUS
10
1.2983004724409448
20
2.73224968503937
11
1.3026579921259842
21
2.7382473228346456
0
LINE
8
BLACK
6
CONTINUOUS
10
1.3026579921259842
20
2.7382473228346456
11
1.3079000787401573
21
2.7434894094488187
0
LINE
8
BLACK
6
CONTINUOUS
10
1.3079000787401573
20
2.7434894094488187
11
1.3138977165354331
21
2.7478469291338583
0
LINE
8
BLACK
6
CONTINUOUS
10
1.3138977165354331
20
2.7478469291338583
11
1.3205031496062991
21
2.751212559055118
0
LINE
8
BLACK
6
CONTINUOUS
10
1.3205031496062991
20
2.751212559055118
11
1.3275537795275589
21
2.7535034645669292
0
LINE
8
BLACK
6
CONTINUOUS
10
1.3275537795275589
20
2.7535034645669292
11
1.3348759448818897
21
2.754663188976378
0
LINE
8
BLACK
6
CONTINUOUS
10
1.3348759448818897
20
2.754663188976378
11
1.3422894094488189
21
2.754663188976378
0
LINE
8
BLACK
6
CONTINUOUS
10
1.3422894094488189
20
2.754663188976378
11
1.3496115748031496
21
2.7535034645669292
0
LINE
8
BLACK
6
CONTINUOUS
10
1.5464619685039369
20
2.7535034645669292
11
1.5535125984251967
21
2.751212559055118
0
LINE
8
BLACK
6
CONTINUOUS
10
1.5535125984251967
20
2.751212559055118
11
1.560118031496063
21
2.7478469291338583
0
LINE
8
BLACK
6
CONTINUOUS
10
1.560118031496063
20
2.7478469291338583
11
1.5661156692913385
21
2.7434894094488187
0
LINE
8
BLACK
6
CONTINUOUS
10
1.5661156692913385
20
2.7434894094488187
11
1.5713577559055119
21
2.7382473228346456
0
LINE
8
BLACK
6
CONTINUOUS
10
1.5713577559055119
20
2.7382473228346456
11
1.5757152755905512
21
2.73224968503937
0
LINE
8
BLACK
6
CONTINUOUS
10
1.5757152755905512
20
2.73224968503937
11
1.5790809055118109
21
2.7256442519685038
0
LINE
8
BLACK
6
CONTINUOUS
10
1.5790809055118109
20
2.7256442519685038
11
1.5813718110236221
21
2.7185936220472442
0
LINE
8
BLACK
6
CONTINUOUS
10
1.5813718110236221
20
2.7185936220472442
11
1.5825315354330709
21
2.7112714566929133
0
LINE
8
BLACK
6
CONTINUOUS
10
1.5825315354330709
20
2.7112714566929133
11
1.5825315354330709
21
2.7038579921259842
0
LINE
8
BLACK
6
CONTINUOUS
10
1.5825315354330709
20
2.7038579921259842
11
1.5813718110236221
21
2.6965358267716533
0
LINE
8
BLACK
6
CONTINUOUS
10
1.5813718110236221
20
2.6965358267716533
11
1.5790809055118109
21
2.6894851968503937
0
LINE
8
BLACK
6
CONTINUOUS
10
1.5790809055118109
20
2.6894851968503937
11
1.5757152755905512
21
2.6828797637795274
0
LINE
8
BLACK
6
CONTINUOUS
10
1.5757152755905512
20
2.6828797637795274
11
1.5713577559055119
21
2.6768821259842519
0
LINE
8
BLACK
6
CONTINUOUS
10
1.5713577559055119
20
2.6768821259842519
11
1.5661156692913385
21
2.6716400393700788
0
LINE
8
BLACK
6
CONTINUOUS
10
1.5661156692913385
20
2.6716400393700788
11
1.560118031496063
21
2.6672825196850392
0
LINE
8
BLACK
6
CONTINUOUS
10
1.560118031496063
20
2.6672825196850392
11
1.5535125984251967
21
2.6639168897637795
0
LINE
8
BLACK
6
CONTINUOUS
10
1.5535125984251967
20
2.6639168897637795
11
1.5464619685039369
21
2.6616259842519683
0
LINE
8
BLACK
6
CONTINUOUS
10
1.5464619685039369
20
2.6616259842519683
11
1.5391398031496062
21
2.6604662598425195
0
LINE
8
BLACK
6
CONTINUOUS
10
1.5391398031496062
20
2.6604662598425195
11
1.5317263385826771
21
2.6604662598425195
0
LINE
8
BLACK
6
CONTINUOUS
10
1.5317263385826771
20
2.6604662598425195
11
1.5244041732283464
21
2.6616259842519683
0
LINE
8
BLACK
6
CONTINUOUS
10
1.5244041732283464
20
2.6616259842519683
11
1.5173535433070866
21
2.6639168897637795
0
LINE
8
BLACK
6
CONTINUOUS
10
1.5173535433070866
20
2.6639168897637795
11
1.5107481102362204
21
2.6672825196850392
0
LINE
8
BLACK
6
CONTINUOUS
10
1.5107481102362204
20
2.6672825196850392
11
1.5047504724409448
21
2.6716400393700788
0
LINE
8
BLACK
6
CONTINUOUS
10
1.5047504724409448
20
2.6716400393700788
11
1.4995083858267717
21
2.6768821259842519
0
LINE
8
BLACK
6
CONTINUOUS
10
1.4995083858267717
20
2.6768821259842519
11
1.4951508661417323
21
2.6828797637795274
0
LINE
8
BLACK
6
CONTINUOUS
10
1.4951508661417323
20
2.6828797637795274
11
1.4917852362204724
21
2.6894851968503937
0
LINE
8
BLACK
6
CONTINUOUS
10
1.4917852362204724
20
2.6894851968503937
11
1.4894943307086614
21
2.6965358267716533
0
LINE
8
BLACK
6
CONTINUOUS
10
1.4894943307086614
20
2.6965358267716533
11
1.4883346062992127
21
2.7038579921259842
0
LINE
8
BLACK
6
CONTINUOUS
10
1.4883346062992127
20
2.7038579921259842
11
1.4883346062992127
21
2.7112714566929133
0
LINE
8
BLACK
6
CONTINUOUS
10
1.4883346062992127
20
2.7112714566929133
11
1.4894943307086614
21
2.7185936220472442
0
LINE
8
BLACK
6
CONTINUOUS
10
1.4894943307086614
20
2.7185936220472442
11
1.4917852362204724
21
2.7256442519685038
0
LINE
8
BLACK
6
CONTINUOUS
10
1.4917852362204724
20
2.7256442519685038
11
1.4951508661417323
21
2.73224968503937
0
LINE
8
BLACK
6
CONTINUOUS
10
1.4951508661417323
20
2.73224968503937
11
1.4995083858267717
21
2.7382473228346456
0
LINE
8
BLACK
6
CONTINUOUS
10
1.4995083858267717
20
2.7382473228346456
11
1.5047504724409448
21
2.7434894094488187
0
LINE
8
BLACK
6
CONTINUOUS
10
1.5047504724409448
20
2.7434894094488187
11
1.5107481102362204
21
2.7478469291338583
0
LINE
8
BLACK
6
CONTINUOUS
10
1.5107481102362204
20
2.7478469291338583
11
1.5173535433070866
21
2.751212559055118
0
LINE
8
BLACK
6
CONTINUOUS
10
1.5173535433070866
20
2.751212559055118
11
1.5244041732283464
21
2.7535034645669292
0
LINE
8
BLACK
6
CONTINUOUS
10
1.5244041732283464
20
2.7535034645669292
11
1.5317263385826771
21
2.754663188976378
0
LINE
8
BLACK
6
CONTINUOUS
10
1.5317263385826771
20
2.754663188976378
11
1.5391398031496062
21
2.754663188976378
0
LINE
8
BLACK
6
CONTINUOUS
10
1.5391398031496062
20
2.754663188976378
11
1.5464619685039369
21
2.7535034645669292
0
LINE
8
BLACK
6
CONTINUOUS
10
2.4399999999999999
20
2.6800000000000002
11
2.3799999999999999
21
2.6800000000000002
0
LINE
8
BLACK
6
CONTINUOUS
10
2.3799999999999999
20
2.6800000000000002
11
2.3799999999999999
21
2.7399999999999998
0
LINE
8
BLACK
6
CONTINUOUS
10
2.3799999999999999
20
2.7399999999999998
11
2.4399999999999999
21
2.7399999999999998
0
LINE
8
BLACK
6
CONTINUOUS
10
2.4399999999999999
20
2.7399999999999998
11
2.4399999999999999
21
2.6800000000000002
0
LINE
8
BLACK
6
CONTINUOUS
10
2.54
20
2.6800000000000002
11
2.48
21
2.6800000000000002
0
LINE
8
BLACK
6
CONTINUOUS
10
2.48
20
2.6800000000000002
11
2.48
21
2.7399999999999998
0
LINE
8
BLACK
6
CONTINUOUS
10
2.48
20
2.7399999999999998
11
2.54
21
2.7399999999999998
0
LINE
8
BLACK
6
CONTINUOUS
10
2.54
20
2.7399999999999998
11
2.54
21
2.6800000000000002
0
LINE
8
BLACK
6
CONTINUOUS
10
2.4399999999999999
20
2.7799999999999998
11
2.3799999999999999
21
2.7799999999999998
0
LINE
8
BLACK
6
CONTINUOUS
10
2.3799999999999999
20
2.7799999999999998
11
2.3799999999999999
21
2.8399999999999999
0
LINE
8
BLACK
6
CONTINUOUS
10
2.3799999999999999
20
2.8399999999999999
11
2.4399999999999999
21
2.8399999999999999
0
LINE
8
BLACK
6
CONTINUOUS
10
2.4399999999999999
20
2.8399999999999999
11
2.4399999999999999
21
2.7799999999999998
0
LINE
8
BLACK
6
CONTINUOUS
10
2.54
20
2.7799999999999998
11
2.48
21
2.7799999999999998
0
LINE
8
BLACK
6
CONTINUOUS
10
2.48
20
2.7799999999999998
11
2.48
21
2.8399999999999999
0
LINE
8
BLACK
6
CONTINUOUS
10
2.48
20
2.8399999999999999
11
2.54
21
2.8399999999999999
0
LINE
8
BLACK
6
CONTINUOUS
10
2.54
20
2.8399999999999999
11
2.54
21
2.7799999999999998
0
LINE
8
BLACK
6
CONTINUOUS
10
0.5052401574803149
20
2.8204330708661418
11
0.355240157480315
21
2.8204330708661418
0
LINE
8
BLACK
6
CONTINUOUS
10
0.355240157480315
20
2.8204330708661418
11
0.355240157480315
21
2.9704330708661417
0
LINE
8
BLACK
6
CONTINUOUS
10
0.355240157480315
20
2.9704330708661417
11
0.5052401574803149
21
2.9704330708661417
0
LINE
8
BLACK
6
CONTINUOUS
10
0.5052401574803149
20
2.9704330708661417
11
0.5052401574803149
21
2.8204330708661418
0
LINE
8
BLACK
6
CONTINUOUS
10
0.7020905511811023
20
2.8204330708661418
11
0.5520905511811024
21
2.8204330708661418
0
LINE
8
BLACK
6
CONTINUOUS
10
0.5520905511811024
20
2.8204330708661418
11
0.5520905511811024
21
2.9704330708661417
0
LINE
8
BLACK
6
CONTINUOUS
10
0.5520905511811024
20
2.9704330708661417
11
0.7020905511811023
21
2.9704330708661417
0
LINE
8
BLACK
6
CONTINUOUS
10
0.7020905511811023
20
2.9704330708661417
11
0.7020905511811023
21
2.8204330708661418
0
LINE
8
BLACK
6
CONTINUOUS
10
2.4399999999999999
20
2.8799999999999999
11
2.3799999999999999
21
2.8799999999999999
0
LINE
8
BLACK
6
CONTINUOUS
10
2.3799999999999999
20
2.8799999999999999
11
2.3799999999999999
21
2.9399999999999999
0
LINE
8
BLACK
6
CONTINUOUS
10
2.3799999999999999
20
2.9399999999999999
11
2.4399999999999999
21
2.9399999999999999
0
LINE
8
BLACK
6
CONTINUOUS
10
2.4399999999999999
20
2.9399999999999999
11
2.4399999999999999
21
2.8799999999999999
0
LINE
8
BLACK
6
CONTINUOUS
10
2.54
20
2.8799999999999999
11
2.48
21
2.8799999999999999
0
LINE
8
BLACK
6
CONTINUOUS
10
2.48
20
2.8799999999999999
11
2.48
21
2.9399999999999999
0
LINE
8
BLACK
6
CONTINUOUS
10
2.48
20
2.9399999999999999
11
2.54
21
2.9399999999999999
0
LINE
8
BLACK
6
CONTINUOUS
10
2.54
20
2.9399999999999999
11
2.54
21
2.8799999999999999
0
LINE
8
BLACK
6
CONTINUOUS
10
2.8399999999999999
20
2.9100000000000001
11
2.7799999999999998
21
2.9100000000000001
0
LINE
8
BLACK
6
CONTINUOUS
10
2.7799999999999998
20
2.9100000000000001
11
2.7799999999999998
21
2.9699999999999998
0
LINE
8
BLACK
6
CONTINUOUS
10
2.7799999999999998
20
2.9699999999999998
11
2.8399999999999999
21
2.9699999999999998
0
LINE
8
BLACK
6
CONTINUOUS
10
2.8399999999999999
20
2.9699999999999998
11
2.8399999999999999
21
2.9100000000000001
0
LINE
8
BLACK
6
CONTINUOUS
10
2.9399999999999999
20
2.9100000000000001
11
2.8799999999999999
21
2.9100000000000001
0
LINE
8
BLACK
6
CONTINUOUS
10
2.8799999999999999
20
2.9100000000000001
11
2.8799999999999999
21
2.9699999999999998
0
LINE
8
BLACK
6
CONTINUOUS
10
2.8799999999999999
20
2.9699999999999998
11
2.9399999999999999
21
2.9699999999999998
0
LINE
8
BLACK
6
CONTINUOUS
10
2.9399999999999999
20
2.9699999999999998
11
2.9399999999999999
21
2.9100000000000001
0
LINE
8
BLACK
6
CONTINUOUS
10
2.4399999999999999
20
2.98
11
2.3799999999999999
21
2.98
0
LINE
8
BLACK
6
CONTINUOUS
10
2.3799999999999999
20
2.98
11
2.3799999999999999
21
3.04
0
LINE
8
BLACK
6
CONTINUOUS
10
2.3799999999999999
20
3.04
11
2.4399999999999999
21
3.04
0
LINE
8
BLACK
6
CONTINUOUS
10
2.4399999999999999
20
3.04
11
2.4399999999999999
21
2.98
0
LINE
8
BLACK
6
CONTINUOUS
10
2.54
20
2.98
11
2.48
21
2.98
0
LINE
8
BLACK
6
CONTINUOUS
10
2.48
20
2.98
11
2.48
21
3.04
0
LINE
8
BLACK
6
CONTINUOUS
10
2.48
20
3.04
11
2.54
21
3.04
0
LINE
8
BLACK
6
CONTINUOUS
10
2.54
20
3.04
11
2.54
21
2.98
0
LINE
8
BLACK
6
CONTINUOUS
10
2.8399999999999999
20
3.0099999999999998
11
2.7799999999999998
21
3.0099999999999998
0
LINE
8
BLACK
6
CONTINUOUS
10
2.7799999999999998
20
3.0099999999999998
11
2.7799999999999998
21
3.0699999999999998
0
LINE
8
BLACK
6
CONTINUOUS
10
2.7799999999999998
20
3.0699999999999998
11
2.8399999999999999
21
3.0699999999999998
0
LINE
8
BLACK
6
CONTINUOUS
10
2.8399999999999999
20
3.0699999999999998
11
2.8399999999999999
21
3.0099999999999998
0
LINE
8
BLACK
6
CONTINUOUS
10
2.9399999999999999
20
3.0099999999999998
11
2.8799999999999999
21
3.0099999999999998
0
LINE
8
BLACK
6
CONTINUOUS
10
2.8799999999999999
20
3.0099999999999998
11
2.8799999999999999
21
3.0699999999999998
0
LINE
8
BLACK
6
CONTINUOUS
10
2.8799999999999999
20
3.0699999999999998
11
2.9399999999999999
21
3.0699999999999998
0
LINE
8
BLACK
6
CONTINUOUS
10
2.9399999999999999
20
3.0699999999999998
11
2.9399999999999999
21
3.0099999999999998
0
LINE
8
BLACK
6
CONTINUOUS
10
0.5052401574803149
20
3.0172834645669289
11
0.355240157480315
21
3.0172834645669289
0
LINE
8
BLACK
6
CONTINUOUS
10
0.355240157480315
20
3.0172834645669289
11
0.355240157480315
21
3.1672834645669292
0
LINE
8
BLACK
6
CONTINUOUS
10
0.355240157480315
20
3.1672834645669292
11
0.5052401574803149
21
3.1672834645669292
0
LINE
8
BLACK
6
CONTINUOUS
10
0.5052401574803149
20
3.1672834645669292
11
0.5052401574803149
21
3.0172834645669289
0
LINE
8
BLACK
6
CONTINUOUS
10
0.7020905511811023
20
3.0172834645669289
11
0.5520905511811024
21
3.0172834645669289
0
LINE
8
BLACK
6
CONTINUOUS
10
0.5520905511811024
20
3.0172834645669289
11
0.5520905511811024
21
3.1672834645669292
0
LINE
8
BLACK
6
CONTINUOUS
10
0.5520905511811024
20
3.1672834645669292
11
0.7020905511811023
21
3.1672834645669292
0
LINE
8
BLACK
6
CONTINUOUS
10
0.7020905511811023
20
3.1672834645669292
11
0.7020905511811023
21
3.0172834645669289
0
LINE
8
BLACK
6
CONTINUOUS
10
1.3496115748031496
20
3.1713746456692911
11
1.3566622047244095
21
3.1690837401574803
0
LINE
8
BLACK
6
CONTINUOUS
10
1.3566622047244095
20
3.1690837401574803
11
1.3632676377952755
21
3.1657181102362202
0
LINE
8
BLACK
6
CONTINUOUS
10
1.3632676377952755
20
3.1657181102362202
11
1.3692652755905512
21
3.161360590551181
0
LINE
8
BLACK
6
CONTINUOUS
10
1.3692652755905512
20
3.161360590551181
11
1.3745073622047244
21
3.1561185039370079
0
LINE
8
BLACK
6
CONTINUOUS
10
1.3745073622047244
20
3.1561185039370079
11
1.3788648818897637
21
3.1501208661417324
0
LINE
8
BLACK
6
CONTINUOUS
10
1.3788648818897637
20
3.1501208661417324
11
1.3822305118110236
21
3.1435154330708661
0
LINE
8
BLACK
6
CONTINUOUS
10
1.3822305118110236
20
3.1435154330708661
11
1.3845214173228346
21
3.1364648031496061
0
LINE
8
BLACK
6
CONTINUOUS
10
1.3845214173228346
20
3.1364648031496061
11
1.3856811417322834
21
3.1291426377952756
0
LINE
8
BLACK
6
CONTINUOUS
10
1.3856811417322834
20
3.1291426377952756
11
1.3856811417322834
21
3.1217291732283465
0
LINE
8
BLACK
6
CONTINUOUS
10
1.3856811417322834
20
3.1217291732283465
11
1.3845214173228346
21
3.1144070078740156
0
LINE
8
BLACK
6
CONTINUOUS
10
1.3845214173228346
20
3.1144070078740156
11
1.3822305118110236
21
3.107356377952756
0
LINE
8
BLACK
6
CONTINUOUS
10
1.3822305118110236
20
3.107356377952756
11
1.3788648818897637
21
3.1007509448818897
0
LINE
8
BLACK
6
CONTINUOUS
10
1.3788648818897637
20
3.1007509448818897
11
1.3745073622047244
21
3.0947533070866142
0
LINE
8
BLACK
6
CONTINUOUS
10
1.3745073622047244
20
3.0947533070866142
11
1.3692652755905512
21
3.0895112204724411
0
LINE
8
BLACK
6
CONTINUOUS
10
1.3692652755905512
20
3.0895112204724411
11
1.3632676377952755
21
3.0851537007874015
0
LINE
8
BLACK
6
CONTINUOUS
10
1.3632676377952755
20
3.0851537007874015
11
1.3566622047244095
21
3.0817880708661418
0
LINE
8
BLACK
6
CONTINUOUS
10
1.3566622047244095
20
3.0817880708661418
11
1.3496115748031496
21
3.0794971653543306
0
LINE
8
BLACK
6
CONTINUOUS
10
1.3496115748031496
20
3.0794971653543306
11
1.3422894094488189
21
3.0783374409448818
0
LINE
8
BLACK
6
CONTINUOUS
10
1.3422894094488189
20
3.0783374409448818
11
1.3348759448818897
21
3.0783374409448818
0
LINE
8
BLACK
6
CONTINUOUS
10
1.3348759448818897
20
3.0783374409448818
11
1.3275537795275589
21
3.0794971653543306
0
LINE
8
BLACK
6
CONTINUOUS
10
1.3275537795275589
20
3.0794971653543306
11
1.3205031496062991
21
3.0817880708661418
0
LINE
8
BLACK
6
CONTINUOUS
10
1.3205031496062991
20
3.0817880708661418
11
1.3138977165354331
21
3.0851537007874015
0
LINE
8
BLACK
6
CONTINUOUS
10
1.3138977165354331
20
3.0851537007874015
11
1.3079000787401573
21
3.0895112204724411
0
LINE
8
BLACK
6
CONTINUOUS
10
1.3079000787401573
20
3.0895112204724411
11
1.3026579921259842
21
3.0947533070866142
0
LINE
8
BLACK
6
CONTINUOUS
10
1.3026579921259842
20
3.0947533070866142
11
1.2983004724409448
21
3.1007509448818897
0
LINE
8
BLACK
6
CONTINUOUS
10
1.2983004724409448
20
3.1007509448818897
11
1.2949348425196849
21
3.107356377952756
0
LINE
8
BLACK
6
CONTINUOUS
10
1.2949348425196849
20
3.107356377952756
11
1.2926439370078739
21
3.1144070078740156
0
LINE
8
BLACK
6
CONTINUOUS
10
1.2926439370078739
20
3.1144070078740156
11
1.2914842125984252
21
3.1217291732283465
0
LINE
8
BLACK
6
CONTINUOUS
10
1.2914842125984252
20
3.1217291732283465
11
1.2914842125984252
21
3.1291426377952756
0
LINE
8
BLACK
6
CONTINUOUS
10
1.2914842125984252
20
3.1291426377952756
11
1.2926439370078739
21
3.1364648031496061
0
LINE
8
BLACK
6
CONTINUOUS
10
1.2926439370078739
20
3.1364648031496061
11
1.2949348425196849
21
3.1435154330708661
0
LINE
8
BLACK
6
CONTINUOUS
10
1.2949348425196849
20
3.1435154330708661
11
1.2983004724409448
21
3.1501208661417324
0
LINE
8
BLACK
6
CONTINUOUS
10
1.2983004724409448
20
3.1501208661417324
11
1.3026579921259842
21
3.1561185039370079
0
LINE
8
BLACK
6
CONTINUOUS
10
1.3026579921259842
20
3.1561185039370079
11
1.3079000787401573
21
3.161360590551181
0
LINE
8
BLACK
6
CONTINUOUS
10
1.3079000787401573
20
3.161360590551181
11
1.3138977165354331
21
3.1657181102362202
0
LINE
8
BLACK
6
CONTINUOUS
10
1.3138977165354331
20
3.1657181102362202
11
1.3205031496062991
21
3.1690837401574803
0
LINE
8
BLACK
6
CONTINUOUS
10
1.3205031496062991
20
3.1690837401574803
11
1.3275537795275589
21
3.1713746456692911
0
LINE
8
BLACK
6
CONTINUOUS
10
1.3275537795275589
20
3.1713746456692911
11
1.3348759448818897
21
3.1725343700787403
0
LINE
8
BLACK
6
CONTINUOUS
10
1.3348759448818897
20
3.1725343700787403
11
1.3422894094488189
21
3.1725343700787403
0
LINE
8
BLACK
6
CONTINUOUS
10
1.3422894094488189
20
3.1725343700787403
11
1.3496115748031496
21
3.1713746456692911
0
LINE
8
BLACK
6
CONTINUOUS
10
1.5464619685039369
20
3.1713746456692911
11
1.5535125984251967
21
3.1690837401574803
0
LINE
8
BLACK
6
CONTINUOUS
10
1.5535125984251967
20
3.1690837401574803
11
1.560118031496063
21
3.1657181102362202
0
LINE
8
BLACK
6
CONTINUOUS
10
1.560118031496063
20
3.1657181102362202
11
1.5661156692913385
21
3.161360590551181
0
LINE
8
BLACK
6
CONTINUOUS
10
1.5661156692913385
20
3.161360590551181
11
1.5713577559055119
21
3.1561185039370079
0
LINE
8
BLACK
6
CONTINUOUS
10
1.5713577559055119
20
3.1561185039370079
11
1.5757152755905512
21
3.1501208661417324
0
LINE
8
BLACK
6
CONTINUOUS
10
1.5757152755905512
20
3.1501208661417324
11
1.5790809055118109
21
3.1435154330708661
0
LINE
8
BLACK
6
CONTINUOUS
10
1.5790809055118109
20
3.1435154330708661
11
1.5813718110236221
21
3.1364648031496061
0
LINE
8
BLACK
6
CONTINUOUS
10
1.5813718110236221
20
3.1364648031496061
11
1.5825315354330709
21
3.1291426377952756
0
LINE
8
BLACK
6
CONTINUOUS
10
1.5825315354330709
20
3.1291426377952756
11
1.5825315354330709
21
3.1217291732283465
0
LINE
8
BLACK
6
CONTINUOUS
10
1.5825315354330709
20
3.1217291732283465
11
1.5813718110236221
21
3.1144070078740156
0
LINE
8
BLACK
6
CONTINUOUS
10
1.5813718110236221
20
3.1144070078740156
11
1.5790809055118109
21
3.107356377952756
0
LINE
8
BLACK
6
CONTINUOUS
10
1.5790809055118109
20
3.107356377952756
11
1.5757152755905512
21
3.1007509448818897
0
LINE
8
BLACK
6
CONTINUOUS
10
1.5757152755905512
20
3.1007509448818897
11
1.5713577559055119
21
3.0947533070866142
0
LINE
8
BLACK
6
CONTINUOUS
10
1.5713577559055119
20
3.0947533070866142
11
1.5661156692913385
21
3.0895112204724411
0
LINE
8
BLACK
6
CONTINUOUS
10
1.5661156692913385
20
3.0895112204724411
11
1.560118031496063
21
3.0851537007874015
0
LINE
8
BLACK
6
CONTINUOUS
10
1.560118031496063
20
3.0851537007874015
11
1.5535125984251967
21
3.0817880708661418
0
LINE
8
BLACK
6
CONTINUOUS
10
1.5535125984251967
20
3.0817880708661418
11
1.5464619685039369
21
3.0794971653543306
0
LINE
8
BLACK
6
CONTINUOUS
10
1.5464619685039369
20
3.0794971653543306
11
1.5391398031496062
21
3.0783374409448818
0
LINE
8
BLACK
6
CONTINUOUS
10
1.5391398031496062
20
3.0783374409448818
11
1.5317263385826771
21
3.0783374409448818
0
LINE
8
BLACK
6
CONTINUOUS
10
1.5317263385826771
20
3.0783374409448818
11
1.5244041732283464
21
3.0794971653543306
0
LINE
8
BLACK
6
CONTINUOUS
10
1.5244041732283464
20
3.0794971653543306
11
1.5173535433070866
21
3.0817880708661418
0
LINE
8
BLACK
6
CONTINUOUS
10
1.5173535433070866
20
3.0817880708661418
11
1.5107481102362204
21
3.0851537007874015
0
LINE
8
BLACK
6
CONTINUOUS
10
1.5107481102362204
20
3.0851537007874015
11
1.5047504724409448
21
3.0895112204724411
0
LINE
8
BLACK
6
CONTINUOUS
10
1.5047504724409448
20
3.0895112204724411
11
1.4995083858267717
21
3.0947533070866142
0
LINE
8
BLACK
6
CONTINUOUS
10
1.4995083858267717
20
3.0947533070866142
11
1.4951508661417323
21
3.1007509448818897
0
LINE
8
BLACK
6
CONTINUOUS
10
1.4951508661417323
20
3.1007509448818897
11
1.4917852362204724
21
3.107356377952756
0
LINE
8
BLACK
6
CONTINUOUS
10
1.4917852362204724
20
3.107356377952756
11
1.4894943307086614
21
3.1144070078740156
0
LINE
8
BLACK
6
CONTINUOUS
10
1.4894943307086614
20
3.1144070078740156
11
1.4883346062992127
21
3.1217291732283465
0
LINE
8
BLACK
6
CONTINUOUS
10
1.4883346062992127
20
3.1217291732283465
11
1.4883346062992127
21
3.1291426377952756
0
LINE
8
BLACK
6
CONTINUOUS
10
1.4883346062992127
20
3.1291426377952756
11
1.4894943307086614
21
3.1364648031496061
0
LINE
8
BLACK
6
CONTINUOUS
10
1.4894943307086614
20
3.1364648031496061
11
1.4917852362204724
21
3.1435154330708661
0
LINE
8
BLACK
6
CONTINUOUS
10
1.4917852362204724
20
3.1435154330708661
11
1.4951508661417323
21
3.1501208661417324
0
LINE
8
BLACK
6
CONTINUOUS
10
1.4951508661417323
20
3.1501208661417324
11
1.4995083858267717
21
3.1561185039370079
0
LINE
8
BLACK
6
CONTINUOUS
10
1.4995083858267717
20
3.1561185039370079
11
1.5047504724409448
21
3.161360590551181
0
LINE
8
BLACK
6
CONTINUOUS
10
1.5047504724409448
20
3.161360590551181
11
1.5107481102362204
21
3.1657181102362202
0
LINE
8
BLACK
6
CONTINUOUS
10
1.5107481102362204
20
3.1657181102362202
11
1.5173535433070866
21
3.1690837401574803
0
LINE
8
BLACK
6
CONTINUOUS
10
1.5173535433070866
20
3.1690837401574803
11
1.5244041732283464
21
3.1713746456692911
0
LINE
8
BLACK
6
CONTINUOUS
10
1.5244041732283464
20
3.1713746456692911
11
1.5317263385826771
21
3.1725343700787403
0
LINE
8
BLACK
6
CONTINUOUS
10
1.5317263385826771
20
3.1725343700787403
11
1.5391398031496062
21
3.1725343700787403
0
LINE
8
BLACK
6
CONTINUOUS
10
1.5391398031496062
20
3.1725343700787403
11
1.5464619685039369
21
3.1713746456692911
0
LINE
8
BLACK
6
CONTINUOUS
10
2.4399999999999999
20
3.0800000000000001
11
2.3799999999999999
21
3.0800000000000001
0
LINE
8
BLACK
6
CONTINUOUS
10
2.3799999999999999
20
3.0800000000000001
11
2.3799999999999999
21
3.1400000000000001
0
LINE
8
BLACK
6
CONTINUOUS
10
2.3799999999999999
20
3.1400000000000001
11
2.4399999999999999
21
3.1400000000000001
0
LINE
8
BLACK
6
CONTINUOUS
10
2.4399999999999999
20
3.1400000000000001
11
2.4399999999999999
21
3.0800000000000001
0
LINE
8
BLACK
6
CONTINUOUS
10
2.54
20
3.0800000000000001
11
2.48
21
3.0800000000000001
0
LINE
8
BLACK
6
CONTINUOUS
10
2.48
20
3.0800000000000001
11
2.48
21
3.1400000000000001
0
LINE
8
BLACK
6
CONTINUOUS
10
2.48
20
3.1400000000000001
11
2.54
21
3.1400000000000001
0
LINE
8
BLACK
6
CONTINUOUS
10
2.54
20
3.1400000000000001
11
2.54
21
3.0800000000000001
0
LINE
8
BLACK
6
CONTINUOUS
10
2.8399999999999999
20
3.1099999999999999
11
2.7799999999999998
21
3.1099999999999999
0
LINE
8
BLACK
6
CONTINUOUS
10
2.7799999999999998
20
3.1099999999999999
11
2.7799999999999998
21
3.1699999999999999
0
LINE
8
BLACK
6
CONTINUOUS
10
2.7799999999999998
20
3.1699999999999999
11
2.8399999999999999
21
3.1699999999999999
0
LINE
8
BLACK
6
CONTINUOUS
10
2.8399999999999999
20
3.1699999999999999
11
2.8399999999999999
21
3.1099999999999999
0
LINE
8
BLACK
6
CONTINUOUS
10
2.9399999999999999
20
3.1099999999999999
11
2.8799999999999999
21
3.1099999999999999
0
LINE
8
BLACK
6
CONTINUOUS
10
2.8799999999999999
20
3.1099999999999999
11
2.8799999999999999
21
3.1699999999999999
0
LINE
8
BLACK
6
CONTINUOUS
10
2.8799999999999999
20
3.1699999999999999
11
2.9399999999999999
21
3.1699999999999999
0
LINE
8
BLACK
6
CONTINUOUS
10
2.9399999999999999
20
3.1699999999999999
11
2.9399999999999999
21
3.1099999999999999
0
LINE
8
BLACK
6
CONTINUOUS
10
2.4399999999999999
20
3.1799999999999997
11
2.3799999999999999
21
3.1799999999999997
0
LINE
8
BLACK
6
CONTINUOUS
10
2.3799999999999999
20
3.1799999999999997
11
2.3799999999999999
21
3.2399999999999998
0
LINE
8
BLACK
6
CONTINUOUS
10
2.3799999999999999
20
3.2399999999999998
11
2.4399999999999999
21
3.2399999999999998
0
LINE
8
BLACK
6
CONTINUOUS
10
2.4399999999999999
20
3.2399999999999998
11
2.4399999999999999
21
3.1799999999999997
0
LINE
8
BLACK
6
CONTINUOUS
10
2.54
20
3.1799999999999997
11
2.48
21
3.1799999999999997
0
LINE
8
BLACK
6
CONTINUOUS
10
2.48
20
3.1799999999999997
11
2.48
21
3.2399999999999998
0
LINE
8
BLACK
6
CONTINUOUS
10
2.48
20
3.2399999999999998
11
2.54
21
3.2399999999999998
0
LINE
8
BLACK
6
CONTINUOUS
10
2.54
20
3.2399999999999998
11
2.54
21
3.1799999999999997
0
LINE
8
BLACK
6
CONTINUOUS
10
0.5052401574803149
20
3.2141338582677164
11
0.355240157480315
21
3.2141338582677164
0
LINE
8
BLACK
6
CONTINUOUS
10
0.355240157480315
20
3.2141338582677164
11
0.355240157480315
21
3.3641338582677163
0
LINE
8
BLACK
6
CONTINUOUS
10
0.355240157480315
20
3.3641338582677163
11
0.5052401574803149
21
3.3641338582677163
0
LINE
8
BLACK
6
CONTINUOUS
10
0.5052401574803149
20
3.3641338582677163
11
0.5052401574803149
21
3.2141338582677164
0
LINE
8
BLACK
6
CONTINUOUS
10
0.7020905511811023
20
3.2141338582677164
11
0.5520905511811024
21
3.2141338582677164
0
LINE
8
BLACK
6
CONTINUOUS
10
0.5520905511811024
20
3.2141338582677164
11
0.5520905511811024
21
3.3641338582677163
0
LINE
8
BLACK
6
CONTINUOUS
10
0.5520905511811024
20
3.3641338582677163
11
0.7020905511811023
21
3.3641338582677163
0
LINE
8
BLACK
6
CONTINUOUS
10
0.7020905511811023
20
3.3641338582677163
11
0.7020905511811023
21
3.2141338582677164
0
LINE
8
BLACK
6
CONTINUOUS
10
2.4399999999999999
20
3.2799999999999998
11
2.3799999999999999
21
3.2799999999999998
0
LINE
8
BLACK
6
CONTINUOUS
10
2.3799999999999999
20
3.2799999999999998
11
2.3799999999999999
21
3.3399999999999999
0
LINE
8
BLACK
6
CONTINUOUS
10
2.3799999999999999
20
3.3399999999999999
11
2.4399999999999999
21
3.3399999999999999
0
LINE
8
BLACK
6
CONTINUOUS
10
2.4399999999999999
20
3.3399999999999999
11
2.4399999999999999
21
3.2799999999999998
0
LINE
8
BLACK
6
CONTINUOUS
10
2.54
20
3.2799999999999998
11
2.48
21
3.2799999999999998
0
LINE
8
BLACK
6
CONTINUOUS
10
2.48
20
3.2799999999999998
11
2.48
21
3.3399999999999999
0
LINE
8
BLACK
6
CONTINUOUS
10
2.48
20
3.3399999999999999
11
2.54
21
3.3399999999999999
0
LINE
8
BLACK
6
CONTINUOUS
10
2.54
20
3.3399999999999999
11
2.54
21
3.2799999999999998
0
LINE
8
BLACK
6
CONTINUOUS
10
0.4197842125984252
20
3.7164414566929134
11
0.432697125984252
21
3.7134941732283462
0
LINE
8
BLACK
6
CONTINUOUS
10
0.432697125984252
20
3.7134941732283462
11
0.4451988188976378
21
3.7091196456692912
0
LINE
8
BLACK
6
CONTINUOUS
10
0.4451988188976378
20
3.7091196456692912
11
0.4571321653543307
21
3.7033728346456694
0
LINE
8
BLACK
6
CONTINUOUS
10
0.4571321653543307
20
3.7033728346456694
11
0.4683470078740157
21
3.6963261023622045
0
LINE
8
BLACK
6
CONTINUOUS
10
0.4683470078740157
20
3.6963261023622045
11
0.4787023622047244
21
3.6880679527559055
0
LINE
8
BLACK
6
CONTINUOUS
10
0.4787023622047244
20
3.6880679527559055
11
0.4880679527559055
21
3.6787023622047244
0
LINE
8
BLACK
6
CONTINUOUS
10
0.4880679527559055
20
3.6787023622047244
11
0.4963261023622047
21
3.6683470078740155
0
LINE
8
BLACK
6
CONTINUOUS
10
0.4963261023622047
20
3.6683470078740155
11
0.5033728346456693
21
3.6571321653543305
0
LINE
8
BLACK
6
CONTINUOUS
10
0.5033728346456693
20
3.6571321653543305
11
0.5091196456692914
21
3.6451988188976379
0
LINE
8
BLACK
6
CONTINUOUS
10
0.5091196456692914
20
3.6451988188976379
11
0.5134941732283465
21
3.6326971259842518
0
LINE
8
BLACK
6
CONTINUOUS
10
0.5134941732283465
20
3.6326971259842518
11
0.5164414566929134
21
3.6197842125984252
0
LINE
8
BLACK
6
CONTINUOUS
10
0.5164414566929134
20
3.6197842125984252
11
0.5179244094488189
21
3.6066224803149605
0
LINE
8
BLACK
6
CONTINUOUS
10
0.5179244094488189
20
3.6066224803149605
11
0.5179244094488189
21
3.5933775196850393
0
LINE
8
BLACK
6
CONTINUOUS
10
0.5179244094488189
20
3.5933775196850393
11
0.5164414566929134
21
3.5802157874015745
0
LINE
8
BLACK
6
CONTINUOUS
10
0.5164414566929134
20
3.5802157874015745
11
0.5134941732283465
21
3.567302874015748
0
LINE
8
BLACK
6
CONTINUOUS
10
0.5134941732283465
20
3.567302874015748
11
0.5091196456692914
21
3.5548011811023623
0
LINE
8
BLACK
6
CONTINUOUS
10
0.5091196456692914
20
3.5548011811023623
11
0.5033728346456693
21
3.5428678346456692
0
LINE
8
BLACK
6
CONTINUOUS
10
0.5033728346456693
20
3.5428678346456692
11
0.4963261023622047
21
3.5316529921259843
0
LINE
8
BLACK
6
CONTINUOUS
10
0.4963261023622047
20
3.5316529921259843
11
0.4880679527559055
21
3.5212976377952754
0
LINE
8
BLACK
6
CONTINUOUS
10
0.4880679527559055
20
3.5212976377952754
11
0.4787023622047244
21
3.5119320472440942
0
LINE
8
BLACK
6
CONTINUOUS
10
0.4787023622047244
20
3.5119320472440942
11
0.4683470078740157
21
3.5036738976377952
0
LINE
8
BLACK
6
CONTINUOUS
10
0.4683470078740157
20
3.5036738976377952
11
0.4571321653543307
21
3.4966271653543308
0
LINE
8
BLACK
6
CONTINUOUS
10
0.4571321653543307
20
3.4966271653543308
11
0.4451988188976378
21
3.4908803543307085
0
LINE
8
BLACK
6
CONTINUOUS
10
0.4451988188976378
20
3.4908803543307085
11
0.432697125984252
21
3.4865058267716535
0
LINE
8
BLACK
6
CONTINUOUS
10
0.432697125984252
20
3.4865058267716535
11
0.4197842125984252
21
3.4835585433070864
0
LINE
8
BLACK
6
CONTINUOUS
10
0.4197842125984252
20
3.4835585433070864
11
0.4066224803149606
21
3.4820755905511809
0
LINE
8
BLACK
6
CONTINUOUS
10
0.4066224803149606
20
3.4820755905511809
11
0.3933775196850394
21
3.4820755905511809
0
LINE
8
BLACK
6
CONTINUOUS
10
0.3933775196850394
20
3.4820755905511809
11
0.3802157874015748
21
3.4835585433070864
0
LINE
8
BLACK
6
CONTINUOUS
10
0.3802157874015748
20
3.4835585433070864
11
0.367302874015748
21
3.4865058267716535
0
LINE
8
BLACK
6
CONTINUOUS
10
0.367302874015748
20
3.4865058267716535
11
0.3548011811023622
21
3.4908803543307085
0
LINE
8
BLACK
6
CONTINUOUS
10
0.3548011811023622
20
3.4908803543307085
11
0.3428678346456693
21
3.4966271653543308
0
LINE
8
BLACK
6
CONTINUOUS
10
0.3428678346456693
20
3.4966271653543308
11
0.3316529921259843
21
3.5036738976377952
0
LINE
8
BLACK
6
CONTINUOUS
10
0.3316529921259843
20
3.5036738976377952
11
0.3212976377952756
21
3.5119320472440942
0
LINE
8
BLACK
6
CONTINUOUS
10
0.3212976377952756
20
3.5119320472440942
11
0.3119320472440945
21
3.5212976377952754
0
LINE
8
BLACK
6
CONTINUOUS
10
0.3119320472440945
20
3.5212976377952754
11
0.3036738976377953
21
3.5316529921259843
0
LINE
8
BLACK
6
CONTINUOUS
10
0.3036738976377953
20
3.5316529921259843
11
0.2966271653543307
21
3.5428678346456692
0
LINE
8
BLACK
6
CONTINUOUS
10
0.2966271653543307
20
3.5428678346456692
11
0.2908803543307086
21
3.5548011811023623
0
LINE
8
BLACK
6
CONTINUOUS
10
0.2908803543307086
20
3.5548011811023623
11
0.2865058267716535
21
3.567302874015748
0
LINE
8
BLACK
6
CONTINUOUS
10
0.2865058267716535
20
3.567302874015748
11
0.2835585433070866
21
3.5802157874015745
0
LINE
8
BLACK
6
CONTINUOUS
10
0.2835585433070866
20
3.5802157874015745
11
0.2820755905511811
21
3.5933775196850393
0
LINE
8
BLACK
6
CONTINUOUS
10
0.2820755905511811
20
3.5933775196850393
11
0.2820755905511811
21
3.6066224803149605
0
LINE
8
BLACK
6
CONTINUOUS
10
0.2820755905511811
20
3.6066224803149605
11
0.2835585433070866
21
3.6197842125984252
0
LINE
8
BLACK
6
CONTINUOUS
10
0.2835585433070866
20
3.6197842125984252
11
0.2865058267716535
21
3.6326971259842518
0
LINE
8
BLACK
6
CONTINUOUS
10
0.2865058267716535
20
3.6326971259842518
11
0.2908803543307086
21
3.6451988188976379
0
LINE
8
BLACK
6
CONTINUOUS
10
0.2908803543307086
20
3.6451988188976379
11
0.2966271653543307
21
3.6571321653543305
0
LINE
8
BLACK
6
CONTINUOUS
10
0.2966271653543307
20
3.6571321653543305
11
0.3036738976377953
21
3.6683470078740155
0
LINE
8
BLACK
6
CONTINUOUS
10
0.3036738976377953
20
3.6683470078740155
11
0.3119320472440945
21
3.6787023622047244
0
LINE
8
BLACK
6
CONTINUOUS
10
0.3119320472440945
20
3.6787023622047244
11
0.3212976377952756
21
3.6880679527559055
0
LINE
8
BLACK
6
CONTINUOUS
10
0.3212976377952756
20
3.6880679527559055
11
0.3316529921259843
21
3.6963261023622045
0
LINE
8
BLACK
6
CONTINUOUS
10
0.3316529921259843
20
3.6963261023622045
11
0.3428678346456693
21
3.7033728346456694
0
LINE
8
BLACK
6
CONTINUOUS
10
0.3428678346456693
20
3.7033728346456694
11
0.3548011811023622
21
3.7091196456692912
0
LINE
8
BLACK
6
CONTINUOUS
10
0.3548011811023622
20
3.7091196456692912
11
0.367302874015748
21
3.7134941732283462
0
LINE
8
BLACK
6
CONTINUOUS
10
0.367302874015748
20
3.7134941732283462
11
0.3802157874015748
21
3.7164414566929134
0
LINE
8
BLACK
6
CONTINUOUS
10
0.3802157874015748
20
3.7164414566929134
11
0.3933775196850394
21
3.7179244094488189
0
LINE
8
BLACK
6
CONTINUOUS
10
0.3933775196850394
20
3.7179244094488189
11
0.4066224803149606
21
3.7179244094488189
0
LINE
8
BLACK
6
CONTINUOUS
10
0.4066224803149606
20
3.7179244094488189
11
0.4197842125984252
21
3.7164414566929134
0
LINE
8
BLACK
6
CONTINUOUS
10
2.8197842125984249
20
3.7164414566929134
11
2.8326971259842519
21
3.7134941732283462
0
LINE
8
BLACK
6
CONTINUOUS
10
2.8326971259842519
20
3.7134941732283462
11
2.8451988188976376
21
3.7091196456692912
0
LINE
8
BLACK
6
CONTINUOUS
10
2.8451988188976376
20
3.7091196456692912
11
2.8571321653543307
21
3.7033728346456694
0
LINE
8
BLACK
6
CONTINUOUS
10
2.8571321653543307
20
3.7033728346456694
11
2.8683470078740156
21
3.6963261023622045
0
LINE
8
BLACK
6
CONTINUOUS
10
2.8683470078740156
20
3.6963261023622045
11
2.8787023622047245
21
3.6880679527559055
0
LINE
8
BLACK
6
CONTINUOUS
10
2.8787023622047245
20
3.6880679527559055
11
2.8880679527559057
21
3.6787023622047244
0
LINE
8
BLACK
6
CONTINUOUS
10
2.8880679527559057
20
3.6787023622047244
11
2.8963261023622047
21
3.6683470078740155
0
LINE
8
BLACK
6
CONTINUOUS
10
2.8963261023622047
20
3.6683470078740155
11
2.9033728346456691
21
3.6571321653543305
0
LINE
8
BLACK
6
CONTINUOUS
10
2.9033728346456691
20
3.6571321653543305
11
2.9091196456692914
21
3.6451988188976379
0
LINE
8
BLACK
6
CONTINUOUS
10
2.9091196456692914
20
3.6451988188976379
11
2.9134941732283464
21
3.6326971259842518
0
LINE
8
BLACK
6
CONTINUOUS
10
2.9134941732283464
20
3.6326971259842518
11
2.9164414566929131
21
3.6197842125984252
0
LINE
8
BLACK
6
CONTINUOUS
10
2.9164414566929131
20
3.6197842125984252
11
2.917924409448819
21
3.6066224803149605
0
LINE
8
BLACK
6
CONTINUOUS
10
2.917924409448819
20
3.6066224803149605
11
2.917924409448819
21
3.5933775196850393
0
LINE
8
BLACK
6
CONTINUOUS
10
2.917924409448819
20
3.5933775196850393
11
2.9164414566929131
21
3.5802157874015745
0
LINE
8
BLACK
6
CONTINUOUS
10
2.9164414566929131
20
3.5802157874015745
11
2.9134941732283464
21
3.567302874015748
0
LINE
8
BLACK
6
CONTINUOUS
10
2.9134941732283464
20
3.567302874015748
11
2.9091196456692914
21
3.5548011811023623
0
LINE
8
BLACK
6
CONTINUOUS
10
2.9091196456692914
20
3.5548011811023623
11
2.9033728346456691
21
3.5428678346456692
0
LINE
8
BLACK
6
CONTINUOUS
10
2.9033728346456691
20
3.5428678346456692
11
2.8963261023622047
21
3.5316529921259843
0
LINE
8
BLACK
6
CONTINUOUS
10
2.8963261023622047
20
3.5316529921259843
11
2.8880679527559057
21
3.5212976377952754
0
LINE
8
BLACK
6
CONTINUOUS
10
2.8880679527559057
20
3.5212976377952754
11
2.8787023622047245
21
3.5119320472440942
0
LINE
8
BLACK
6
CONTINUOUS
10
2.8787023622047245
20
3.5119320472440942
11
2.8683470078740156
21
3.5036738976377952
0
LINE
8
BLACK
6
CONTINUOUS
10
2.8683470078740156
20
3.5036738976377952
11
2.8571321653543307
21
3.4966271653543308
0
LINE
8
BLACK
6
CONTINUOUS
10
2.8571321653543307
20
3.4966271653543308
11
2.8451988188976376
21
3.4908803543307085
0
LINE
8
BLACK
6
CONTINUOUS
10
2.8451988188976376
20
3.4908803543307085
11
2.8326971259842519
21
3.4865058267716535
0
LINE
8
BLACK
6
CONTINUOUS
10
2.8326971259842519
20
3.4865058267716535
11
2.8197842125984249
21
3.4835585433070864
0
LINE
8
BLACK
6
CONTINUOUS
10
2.8197842125984249
20
3.4835585433070864
11
2.8066224803149606
21
3.4820755905511809
0
LINE
8
BLACK
6
CONTINUOUS
10
2.8066224803149606
20
3.4820755905511809
11
2.7933775196850394
21
3.4820755905511809
0
LINE
8
BLACK
6
CONTINUOUS
10
2.7933775196850394
20
3.4820755905511809
11
2.7802157874015747
21
3.4835585433070864
0
LINE
8
BLACK
6
CONTINUOUS
10
2.7802157874015747
20
3.4835585433070864
11
2.7673028740157481
21
3.4865058267716535
0
LINE
8
BLACK
6
CONTINUOUS
10
2.7673028740157481
20
3.4865058267716535
11
2.7548011811023621
21
3.4908803543307085
0
LINE
8
BLACK
6
CONTINUOUS
10
2.7548011811023621
20
3.4908803543307085
11
2.7428678346456694
21
3.4966271653543308
0
LINE
8
BLACK
6
CONTINUOUS
10
2.7428678346456694
20
3.4966271653543308
11
2.731652992125984
21
3.5036738976377952
0
LINE
8
BLACK
6
CONTINUOUS
10
2.731652992125984
20
3.5036738976377952
11
2.7212976377952756
21
3.5119320472440942
0
LINE
8
BLACK
6
CONTINUOUS
10
2.7212976377952756
20
3.5119320472440942
11
2.7119320472440944
21
3.5212976377952754
0
LINE
8
BLACK
6
CONTINUOUS
10
2.7119320472440944
20
3.5212976377952754
11
2.7036738976377954
21
3.5316529921259843
0
LINE
8
BLACK
6
CONTINUOUS
10
2.7036738976377954
20
3.5316529921259843
11
2.6966271653543306
21
3.5428678346456692
0
LINE
8
BLACK
6
CONTINUOUS
10
2.6966271653543306
20
3.5428678346456692
11
2.6908803543307087
21
3.5548011811023623
0
LINE
8
BLACK
6
CONTINUOUS
10
2.6908803543307087
20
3.5548011811023623
11
2.6865058267716533
21
3.567302874015748
0
LINE
8
BLACK
6
CONTINUOUS
10
2.6865058267716533
20
3.567302874015748
11
2.6835585433070865
21
3.5802157874015745
0
LINE
8
BLACK
6
CONTINUOUS
10
2.6835585433070865
20
3.5802157874015745
11
2.6820755905511811
21
3.5933775196850393
0
LINE
8
BLACK
6
CONTINUOUS
10
2.6820755905511811
20
3.5933775196850393
11
2.6820755905511811
21
3.6066224803149605
0
LINE
8
BLACK
6
CONTINUOUS
10
2.6820755905511811
20
3.6066224803149605
11
2.6835585433070865
21
3.6197842125984252
0
LINE
8
BLACK
6
CONTINUOUS
10
2.6835585433070865
20
3.6197842125984252
11
2.6865058267716533
21
3.6326971259842518
0
LINE
8
BLACK
6
CONTINUOUS
10
2.6865058267716533
20
3.6326971259842518
11
2.6908803543307087
21
3.6451988188976379
0
LINE
8
BLACK
6
CONTINUOUS
10
2.6908803543307087
20
3.6451988188976379
11
2.6966271653543306
21
3.6571321653543305
0
LINE
8
BLACK
6
CONTINUOUS
10
2.6966271653543306
20
3.6571321653543305
11
2.7036738976377954
21
3.6683470078740155
0
LINE
8
BLACK
6
CONTINUOUS
10
2.7036738976377954
20
3.6683470078740155
11
2.7119320472440944
21
3.6787023622047244
0
LINE
8
BLACK
6
CONTINUOUS
10
2.7119320472440944
20
3.6787023622047244
11
2.7212976377952756
21
3.6880679527559055
0
LINE
8
BLACK
6
CONTINUOUS
10
2.7212976377952756
20
3.6880679527559055
11
2.731652992125984
21
3.6963261023622045
0
LINE
8
BLACK
6
CONTINUOUS
10
2.731652992125984
20
3.6963261023622045
11
2.7428678346456694
21
3.7033728346456694
0
LINE
8
BLACK
6
CONTINUOUS
10
2.7428678346456694
20
3.7033728346456694
11
2.7548011811023621
21
3.7091196456692912
0
LINE
8
BLACK
6
CONTINUOUS
10
2.7548011811023621
20
3.7091196456692912
11
2.7673028740157481
21
3.7134941732283462
0
LINE
8
BLACK
6
CONTINUOUS
10
2.7673028740157481
20
3.7134941732283462
11
2.7802157874015747
21
3.7164414566929134
0
LINE
8
BLACK
6
CONTINUOUS
10
2.7802157874015747
20
3.7164414566929134
11
2.7933775196850394
21
3.7179244094488189
0
LINE
8
BLACK
6
CONTINUOUS
10
2.7933775196850394
20
3.7179244094488189
11
2.8066224803149606
21
3.7179244094488189
0
LINE
8
BLACK
6
CONTINUOUS
10
2.8066224803149606
20
3.7179244094488189
11
2.8197842125984249
21
3.7164414566929134
0
LINE
8
BLACK
6
CONTINUOUS
10
1.3496115748031496
20
3.5892458267716534
11
1.3566622047244095
21
3.5869549212598426
0
LINE
8
BLACK
6
CONTINUOUS
10
1.3566622047244095
20
3.5869549212598426
11
1.3632676377952755
21
3.5835892913385825
0
LINE
8
BLACK
6
CONTINUOUS
10
1.3632676377952755
20
3.5835892913385825
11
1.3692652755905512
21
3.5792317716535433
0
LINE
8
BLACK
6
CONTINUOUS
10
1.3692652755905512
20
3.5792317716535433
11
1.3745073622047244
21
3.5739896850393702
0
LINE
8
BLACK
6
CONTINUOUS
10
1.3745073622047244
20
3.5739896850393702
11
1.3788648818897637
21
3.5679920472440942
0
LINE
8
BLACK
6
CONTINUOUS
10
1.3788648818897637
20
3.5679920472440942
11
1.3822305118110236
21
3.5613866141732284
0
LINE
8
BLACK
6
CONTINUOUS
10
1.3822305118110236
20
3.5613866141732284
11
1.3845214173228346
21
3.5543359842519684
0
LINE
8
BLACK
6
CONTINUOUS
10
1.3845214173228346
20
3.5543359842519684
11
1.3856811417322834
21
3.5470138188976379
0
LINE
8
BLACK
6
CONTINUOUS
10
1.3856811417322834
20
3.5470138188976379
11
1.3856811417322834
21
3.5396003543307084
0
LINE
8
BLACK
6
CONTINUOUS
10
1.3856811417322834
20
3.5396003543307084
11
1.3845214173228346
21
3.5322781889763779
0
LINE
8
BLACK
6
CONTINUOUS
10
1.3845214173228346
20
3.5322781889763779
11
1.3822305118110236
21
3.5252275590551179
0
LINE
8
BLACK
6
CONTINUOUS
10
1.3822305118110236
20
3.5252275590551179
11
1.3788648818897637
21
3.5186221259842521
0
LINE
8
BLACK
6
CONTINUOUS
10
1.3788648818897637
20
3.5186221259842521
11
1.3745073622047244
21
3.5126244881889761
0
LINE
8
BLACK
6
CONTINUOUS
10
1.3745073622047244
20
3.5126244881889761
11
1.3692652755905512
21
3.507382401574803
0
LINE
8
BLACK
6
CONTINUOUS
10
1.3692652755905512
20
3.507382401574803
11
1.3632676377952755
21
3.5030248818897638
0
LINE
8
BLACK
6
CONTINUOUS
10
1.3632676377952755
20
3.5030248818897638
11
1.3566622047244095
21
3.4996592519685037
0
LINE
8
BLACK
6
CONTINUOUS
10
1.3566622047244095
20
3.4996592519685037
11
1.3496115748031496
21
3.4973683464566929
0
LINE
8
BLACK
6
CONTINUOUS
10
1.3496115748031496
20
3.4973683464566929
11
1.3422894094488189
21
3.4962086220472441
0
LINE
8
BLACK
6
CONTINUOUS
10
1.3422894094488189
20
3.4962086220472441
11
1.3348759448818897
21
3.4962086220472441
0
LINE
8
BLACK
6
CONTINUOUS
10
1.3348759448818897
20
3.4962086220472441
11
1.3275537795275589
21
3.4973683464566929
0
LINE
8
BLACK
6
CONTINUOUS
10
1.3275537795275589
20
3.4973683464566929
11
1.3205031496062991
21
3.4996592519685037
0
LINE
8
BLACK
6
CONTINUOUS
10
1.3205031496062991
20
3.4996592519685037
11
1.3138977165354331
21
3.5030248818897638
0
LINE
8
BLACK
6
CONTINUOUS
10
1.3138977165354331
20
3.5030248818897638
11
1.3079000787401573
21
3.507382401574803
0
LINE
8
BLACK
6
CONTINUOUS
10
1.3079000787401573
20
3.507382401574803
11
1.3026579921259842
21
3.5126244881889761
0
LINE
8
BLACK
6
CONTINUOUS
10
1.3026579921259842
20
3.5126244881889761
11
1.2983004724409448
21
3.5186221259842521
0
LINE
8
BLACK
6
CONTINUOUS
10
1.2983004724409448
20
3.5186221259842521
11
1.2949348425196849
21
3.5252275590551179
0
LINE
8
BLACK
6
CONTINUOUS
10
1.2949348425196849
20
3.5252275590551179
11
1.2926439370078739
21
3.5322781889763779
0
LINE
8
BLACK
6
CONTINUOUS
10
1.2926439370078739
20
3.5322781889763779
11
1.2914842125984252
21
3.5396003543307084
0
LINE
8
BLACK
6
CONTINUOUS
10
1.2914842125984252
20
3.5396003543307084
11
1.2914842125984252
21
3.5470138188976379
0
LINE
8
BLACK
6
CONTINUOUS
10
1.2914842125984252
20
3.5470138188976379
11
1.2926439370078739
21
3.5543359842519684
0
LINE
8
BLACK
6
CONTINUOUS
10
1.2926439370078739
20
3.5543359842519684
11
1.2949348425196849
21
3.5613866141732284
0
LINE
8
BLACK
6
CONTINUOUS
10
1.2949348425196849
20
3.5613866141732284
11
1.2983004724409448
21
3.5679920472440942
0
LINE
8
BLACK
6
CONTINUOUS
10
1.2983004724409448
20
3.5679920472440942
11
1.3026579921259842
21
3.5739896850393702
0
LINE
8
BLACK
6
CONTINUOUS
10
1.3026579921259842
20
3.5739896850393702
11
1.3079000787401573
21
3.5792317716535433
0
LINE
8
BLACK
6
CONTINUOUS
10
1.3079000787401573
20
3.5792317716535433
11
1.3138977165354331
21
3.5835892913385825
0
LINE
8
BLACK
6
CONTINUOUS
10
1.3138977165354331
20
3.5835892913385825
11
1.3205031496062991
21
3.5869549212598426
0
LINE
8
BLACK
6
CONTINUOUS
10
1.3205031496062991
20
3.5869549212598426
11
1.3275537795275589
21
3.5892458267716534
0
LINE
8
BLACK
6
CONTINUOUS
10
1.3275537795275589
20
3.5892458267716534
11
1.3348759448818897
21
3.5904055511811022
0
LINE
8
BLACK
6
CONTINUOUS
10
1.3348759448818897
20
3.5904055511811022
11
1.3422894094488189
21
3.5904055511811022
0
LINE
8
BLACK
6
CONTINUOUS
10
1.3422894094488189
20
3.5904055511811022
11
1.3496115748031496
21
3.5892458267716534
0
LINE
8
BLACK
6
CONTINUOUS
10
1.5464619685039369
20
3.5892458267716534
11
1.5535125984251967
21
3.5869549212598426
0
LINE
8
BLACK
6
CONTINUOUS
10
1.5535125984251967
20
3.5869549212598426
11
1.560118031496063
21
3.5835892913385825
0
LINE
8
BLACK
6
CONTINUOUS
10
1.560118031496063
20
3.5835892913385825
11
1.5661156692913385
21
3.5792317716535433
0
LINE
8
BLACK
6
CONTINUOUS
10
1.5661156692913385
20
3.5792317716535433
11
1.5713577559055119
21
3.5739896850393702
0
LINE
8
BLACK
6
CONTINUOUS
10
1.5713577559055119
20
3.5739896850393702
11
1.5757152755905512
21
3.5679920472440942
0
LINE
8
BLACK
6
CONTINUOUS
10
1.5757152755905512
20
3.5679920472440942
11
1.5790809055118109
21
3.5613866141732284
0
LINE
8
BLACK
6
CONTINUOUS
10
1.5790809055118109
20
3.5613866141732284
11
1.5813718110236221
21
3.5543359842519684
0
LINE
8
BLACK
6
CONTINUOUS
10
1.5813718110236221
20
3.5543359842519684
11
1.5825315354330709
21
3.5470138188976379
0
LINE
8
BLACK
6
CONTINUOUS
10
1.5825315354330709
20
3.5470138188976379
11
1.5825315354330709
21
3.5396003543307084
0
LINE
8
BLACK
6
CONTINUOUS
10
1.5825315354330709
20
3.5396003543307084
11
1.5813718110236221
21
3.5322781889763779
0
LINE
8
BLACK
6
CONTINUOUS
10
1.5813718110236221
20
3.5322781889763779
11
1.5790809055118109
21
3.5252275590551179
0
LINE
8
BLACK
6
CONTINUOUS
10
1.5790809055118109
20
3.5252275590551179
11
1.5757152755905512
21
3.5186221259842521
0
LINE
8
BLACK
6
CONTINUOUS
10
1.5757152755905512
20
3.5186221259842521
11
1.5713577559055119
21
3.5126244881889761
0
LINE
8
BLACK
6
CONTINUOUS
10
1.5713577559055119
20
3.5126244881889761
11
1.5661156692913385
21
3.507382401574803
0
LINE
8
BLACK
6
CONTINUOUS
10
1.5661156692913385
20
3.507382401574803
11
1.560118031496063
21
3.5030248818897638
0
LINE
8
BLACK
6
CONTINUOUS
10
1.560118031496063
20
3.5030248818897638
11
1.5535125984251967
21
3.4996592519685037
0
LINE
8
BLACK
6
CONTINUOUS
10
1.5535125984251967
20
3.4996592519685037
11
1.5464619685039369
21
3.4973683464566929
0
LINE
8
BLACK
6
CONTINUOUS
10
1.5464619685039369
20
3.4973683464566929
11
1.5391398031496062
21
3.4962086220472441
0
LINE
8
BLACK
6
CONTINUOUS
10
1.5391398031496062
20
3.4962086220472441
11
1.5317263385826771
21
3.4962086220472441
0
LINE
8
BLACK
6
CONTINUOUS
10
1.5317263385826771
20
3.4962086220472441
11
1.5244041732283464
21
3.4973683464566929
0
LINE
8
BLACK
6
CONTINUOUS
10
1.5244041732283464
20
3.4973683464566929
11
1.5173535433070866
21
3.4996592519685037
0
LINE
8
BLACK
6
CONTINUOUS
10
1.5173535433070866
20
3.4996592519685037
11
1.5107481102362204
21
3.5030248818897638
0
LINE
8
BLACK
6
CONTINUOUS
10
1.5107481102362204
20
3.5030248818897638
11
1.5047504724409448
21
3.507382401574803
0
LINE
8
BLACK
6
CONTINUOUS
10
1.5047504724409448
20
3.507382401574803
11
1.4995083858267717
21
3.5126244881889761
0
LINE
8
BLACK
6
CONTINUOUS
10
1.4995083858267717
20
3.5126244881889761
11
1.4951508661417323
21
3.5186221259842521
0
LINE
8
BLACK
6
CONTINUOUS
10
1.4951508661417323
20
3.5186221259842521
11
1.4917852362204724
21
3.5252275590551179
0
LINE
8
BLACK
6
CONTINUOUS
10
1.4917852362204724
20
3.5252275590551179
11
1.4894943307086614
21
3.5322781889763779
0
LINE
8
BLACK
6
CONTINUOUS
10
1.4894943307086614
20
3.5322781889763779
11
1.4883346062992127
21
3.5396003543307084
0
LINE
8
BLACK
6
CONTINUOUS
10
1.4883346062992127
20
3.5396003543307084
11
1.4883346062992127
21
3.5470138188976379
0
LINE
8
BLACK
6
CONTINUOUS
10
1.4883346062992127
20
3.5470138188976379
11
1.4894943307086614
21
3.5543359842519684
0
LINE
8
BLACK
6
CONTINUOUS
10
1.4894943307086614
20
3.5543359842519684
11
1.4917852362204724
21
3.5613866141732284
0
LINE
8
BLACK
6
CONTINUOUS
10
1.4917852362204724
20
3.5613866141732284
11
1.4951508661417323
21
3.5679920472440942
0
LINE
8
BLACK
6
CONTINUOUS
10
1.4951508661417323
20
3.5679920472440942
11
1.4995083858267717
21
3.5739896850393702
0
LINE
8
BLACK
6
CONTINUOUS
10
1.4995083858267717
20
3.5739896850393702
11
1.5047504724409448
21
3.5792317716535433
0
LINE
8
BLACK
6
CONTINUOUS
10
1.5047504724409448
20
3.5792317716535433
11
1.5107481102362204
21
3.5835892913385825
0
LINE
8
BLACK
6
CONTINUOUS
10
1.5107481102362204
20
3.5835892913385825
11
1.5173535433070866
21
3.5869549212598426
0
LINE
8
BLACK
6
CONTINUOUS
10
1.5173535433070866
20
3.5869549212598426
11
1.5244041732283464
21
3.5892458267716534
0
LINE
8
BLACK
6
CONTINUOUS
10
1.5244041732283464
20
3.5892458267716534
11
1.5317263385826771
21
3.5904055511811022
0
LINE
8
BLACK
6
CONTINUOUS
10
1.5317263385826771
20
3.5904055511811022
11
1.5391398031496062
21
3.5904055511811022
0
LINE
8
BLACK
6
CONTINUOUS
10
1.5391398031496062
20
3.5904055511811022
11
1.5464619685039369
21
3.5892458267716534
0
CIRCLE
8
BLACK
10
0.430240157480315
20
2.8954330708661415
40
0.0068897637795276
0
CIRCLE
8
BLACK
10
0.6270905511811024
20
2.8954330708661415
40
0.0068897637795276
0
CIRCLE
8
BLACK
10
2.7999999999999998
20
3.6000000000000001
40
0.0068897637795276
0
CIRCLE
8
BLACK
10
0.430240157480315
20
2.698582677165354
40
0.0068897637795276
0
CIRCLE
8
BLACK
10
0.6270905511811024
20
2.698582677165354
40
0.0068897637795276
0
CIRCLE
8
BLACK
10
2.7999999999999998
20
0.4
40
0.0068897637795276
0
CIRCLE
8
BLACK
10
2.7794389763779526
20
0.8154330708661417
40
0.0068897637795276
0
CIRCLE
8
BLACK
10
2.5825885826771655
20
0.8154330708661417
40
0.0068897637795276
0
CIRCLE
8
BLACK
10
1.3385826771653544
20
1.8718223622047243
40
0.0068897637795276
0
CIRCLE
8
BLACK
10
1.5354330708661417
20
1.8718223622047243
40
0.0068897637795276
0
CIRCLE
8
BLACK
10
0.430240157480315
20
3.2891338582677165
40
0.0068897637795276
0
CIRCLE
8
BLACK
10
0.6270905511811024
20
3.2891338582677165
40
0.0068897637795276
0
CIRCLE
8
BLACK
10
2.7794389763779526
20
1.0122834645669292
40
0.0068897637795276
0
CIRCLE
8
BLACK
10
2.5825885826771655
20
1.0122834645669292
40
0.0068897637795276
0
CIRCLE
8
BLACK
10
0.430240157480315
20
2.108031496062992
40
0.0068897637795276
0
CIRCLE
8
BLACK
10
0.6270905511811024
20
2.108031496062992
40
0.0068897637795276
0
CIRCLE
8
BLACK
10
0.878267716535433
20
0.6369291338582677
40
0.0068897637795276
0
CIRCLE
8
BLACK
10
0.878267716535433
20
0.5030708661417322
40
0.0068897637795276
0
CIRCLE
8
BLACK
10
1.261732283464567
20
0.6369291338582677
40
0.0068897637795276
0
CIRCLE
8
BLACK
10
1.261732283464567
20
0.5030708661417322
40
0.0068897637795276
0
CIRCLE
8
BLACK
10
0.430240157480315
20
1.1237795275590552
40
0.0068897637795276
0
CIRCLE
8
BLACK
10
0.6270905511811024
20
1.1237795275590552
40
0.0068897637795276
0
CIRCLE
8
BLACK
10
1.3385826771653544
20
3.1254359055118108
40
0.0068897637795276
0
CIRCLE
8
BLACK
10
1.5354330708661417
20
3.1254359055118108
40
0.0068897637795276
0
CIRCLE
8
BLACK
10
2.7825590551181101
20
1.2130708661417322
40
0.0068897637795276
0
CIRCLE
8
BLACK
10
2.5857086614173226
20
1.2130708661417322
40
0.0068897637795276
0
CIRCLE
8
BLACK
10
2.4100000000000001
20
3.3100000000000001
40
0.0068897637795276
0
CIRCLE
8
BLACK
10
2.5099999999999998
20
3.3100000000000001
40
0.0068897637795276
0
CIRCLE
8
BLACK
10
2.4100000000000001
20
3.21
40
0.0068897637795276
0
CIRCLE
8
BLACK
10
2.5099999999999998
20
3.21
40
0.0068897637795276
0
CIRCLE
8
BLACK
10
2.4100000000000001
20
3.1099999999999999
40
0.0068897637795276
0
CIRCLE
8
BLACK
10
2.5099999999999998
20
3.1099999999999999
40
0.0068897637795276
0
CIRCLE
8
BLACK
10
2.4100000000000001
20
3.0099999999999998
40
0.0068897637795276
0
CIRCLE
8
BLACK
10
2.5099999999999998
20
3.0099999999999998
40
0.0068897637795276
0
CIRCLE
8
BLACK
10
2.4100000000000001
20
2.9100000000000001
40
0.0068897637795276
0
CIRCLE
8
BLACK
10
2.5099999999999998
20
2.9100000000000001
40
0.0068897637795276
0
CIRCLE
8
BLACK
10
2.4100000000000001
20
2.8100000000000001
40
0.0068897637795276
0
CIRCLE
8
BLACK
10
2.5099999999999998
20
2.8100000000000001
40
0.0068897637795276
0
CIRCLE
8
BLACK
10
2.4100000000000001
20
2.71
40
0.0068897637795276
0
CIRCLE
8
BLACK
10
2.5099999999999998
20
2.71
40
0.0068897637795276
0
CIRCLE
8
BLACK
10
0.430240157480315
20
2.501732283464567
40
0.0068897637795276
0
CIRCLE
8
BLACK
10
0.6270905511811024
20
2.501732283464567
40
0.0068897637795276
0
CIRCLE
8
BLACK
10
0.430240157480315
20
1.7143307086614172
40
0.0068897637795276
0
CIRCLE
8
BLACK
10
0.6270905511811024
20
1.7143307086614172
40
0.0068897637795276
0
CIRCLE
8
BLACK
10
0.4
20
0.4
40
0.0068897637795276
0
CIRCLE
8
BLACK
10
1.3385826771653544
20
1.4539511811023622
40
0.0068897637795276
0
CIRCLE
8
BLACK
10
1.5354330708661417
20
1.4539511811023622
40
0.0068897637795276
0
CIRCLE
8
BLACK
10
2.7825590551181101
20
1.4099212598425197
40
0.0068897637795276
0
CIRCLE
8
BLACK
10
2.5857086614173226
20
1.4099212598425197
40
0.0068897637795276
0
CIRCLE
8
BLACK
10
1.3385826771653544
20
3.5433070866141732
40
0.0068897637795276
0
CIRCLE
8
BLACK
10
1.5354330708661417
20
3.5433070866141732
40
0.0068897637795276
0
CIRCLE
8
BLACK
10
0.430240157480315
20
1.51748031496063
40
0.0068897637795276
0
CIRCLE
8
BLACK
10
0.6270905511811024
20
1.51748031496063
40
0.0068897637795276
0
CIRCLE
8
BLACK
10
0.4
20
3.6000000000000001
40
0.0068897637795276
0
CIRCLE
8
BLACK
10
0.430240157480315
20
3.092283464566929
40
0.0068897637795276
0
CIRCLE
8
BLACK
10
0.6270905511811024
20
3.092283464566929
40
0.0068897637795276
0
CIRCLE
8
BLACK
10
1.981732283464567
20
0.5030708661417322
40
0.0068897637795276
0
CIRCLE
8
BLACK
10
1.981732283464567
20
0.6369291338582677
40
0.0068897637795276
0
CIRCLE
8
BLACK
10
1.5982677165354331
20
0.5030708661417322
40
0.0068897637795276
0
CIRCLE
8
BLACK
10
1.5982677165354331
20
0.6369291338582677
40
0.0068897637795276
0
CIRCLE
8
BLACK
10
1.3385826771653544
20
2.707564724409449
40
0.0068897637795276
0
CIRCLE
8
BLACK
10
1.5354330708661417
20
2.707564724409449
40
0.0068897637795276
0
CIRCLE
8
BLACK
10
2.7059055118110233
20
2.3153543307086615
40
0.0068897637795276
0
CIRCLE
8
BLACK
10
2.8059055118110234
20
2.3153543307086615
40
0.0068897637795276
0
CIRCLE
8
BLACK
10
2.7059055118110233
20
2.2153543307086614
40
0.0068897637795276
0
CIRCLE
8
BLACK
10
2.8059055118110234
20
2.2153543307086614
40
0.0068897637795276
0
CIRCLE
8
BLACK
10
2.7059055118110233
20
2.1153543307086613
40
0.0068897637795276
0
CIRCLE
8
BLACK
10
2.8059055118110234
20
2.1153543307086613
40
0.0068897637795276
0
CIRCLE
8
BLACK
10
2.7059055118110233
20
2.0153543307086612
40
0.0068897637795276
0
CIRCLE
8
BLACK
10
2.8059055118110234
20
2.0153543307086612
40
0.0068897637795276
0
CIRCLE
8
BLACK
10
1.3385826771653544
20
1.0360799999999999
40
0.0068897637795276
0
CIRCLE
8
BLACK
10
1.5354330708661417
20
1.0360799999999999
40
0.0068897637795276
0
CIRCLE
8
BLACK
10
0.430240157480315
20
2.3048818897637795
40
0.0068897637795276
0
CIRCLE
8
BLACK
10
0.6270905511811024
20
2.3048818897637795
40
0.0068897637795276
0
CIRCLE
8
BLACK
10
2.4696850393700789
20
2.3153543307086615
40
0.0068897637795276
0
CIRCLE
8
BLACK
10
2.5696850393700785
20
2.3153543307086615
40
0.0068897637795276
0
CIRCLE
8
BLACK
10
2.4696850393700789
20
2.2153543307086614
40
0.0068897637795276
0
CIRCLE
8
BLACK
10
2.5696850393700785
20
2.2153543307086614
40
0.0068897637795276
0
CIRCLE
8
BLACK
10
2.4696850393700789
20
2.1153543307086613
40
0.0068897637795276
0
CIRCLE
8
BLACK
10
2.5696850393700785
20
2.1153543307086613
40
0.0068897637795276
0
CIRCLE
8
BLACK
10
2.4696850393700789
20
2.0153543307086612
40
0.0068897637795276
0
CIRCLE
8
BLACK
10
2.5696850393700785
20
2.0153543307086612
40
0.0068897637795276
0
CIRCLE
8
BLACK
10
0.430240157480315
20
1.3206299212598425
40
0.0068897637795276
0
CIRCLE
8
BLACK
10
0.6270905511811024
20
1.3206299212598425
40
0.0068897637795276
0
CIRCLE
8
BLACK
10
1.3385826771653544
20
2.2896935433070866
40
0.0068897637795276
0
CIRCLE
8
BLACK
10
1.5354330708661417
20
2.2896935433070866
40
0.0068897637795276
0
CIRCLE
8
BLACK
10
0.430240157480315
20
1.9111811023622047
40
0.0068897637795276
0
CIRCLE
8
BLACK
10
0.6270905511811024
20
1.9111811023622047
40
0.0068897637795276
0
CIRCLE
8
BLACK
10
2.9100000000000001
20
2.9399999999999999
40
0.0068897637795276
0
CIRCLE
8
BLACK
10
2.8100000000000001
20
2.9399999999999999
40
0.0068897637795276
0
CIRCLE
8
BLACK
10
2.9100000000000001
20
3.04
40
0.0068897637795276
0
CIRCLE
8
BLACK
10
2.8100000000000001
20
3.04
40
0.0068897637795276
0
CIRCLE
8
BLACK
10
2.9100000000000001
20
3.1400000000000001
40
0.0068897637795276
0
CIRCLE
8
BLACK
10
2.8100000000000001
20
3.1400000000000001
40
0.0068897637795276
0
CIRCLE
8
BLACK
10
1.8799999999999999
20
2.1699999999999999
40
0.0068897637795276
0
CIRCLE
8
BLACK
10
2.4149015748031495
20
1.2268503937007873
40
0.0068897637795276
0
CIRCLE
8
BLACK
10
2.3823129921259842
20
0.8396062992125984
40
0.0068897637795276
0
CIRCLE
8
BLACK
10
1.8799999999999999
20
3.0099999999999998
40
0.0068897637795276
0
CIRCLE
8
BLACK
10
1.8799999999999999
20
0.91
40
0.0068897637795276
0
CIRCLE
8
BLACK
10
1.8799999999999999
20
1.3300000000000001
40
0.0068897637795276
0
CIRCLE
8
BLACK
10
1.8799999999999999
20
2.5899999999999999
40
0.0068897637795276
0
CIRCLE
8
BLACK
10
1.8799999999999999
20
1.75
40
0.0068897637795276
0
CIRCLE
8
BLACK
10
1.8799999999999999
20
3.4299999999999997
40
0.0068897637795276
0
CIRCLE
8
WHITE
10
0.430240157480315
20
2.8954330708661415
40
0.0068897637795276
0
CIRCLE
8
WHITE
10
0.6270905511811024
20
2.8954330708661415
40
0.0068897637795276
0
CIRCLE
8
WHITE
10
2.7999999999999998
20
3.6000000000000001
40
0.0068897637795276
0
CIRCLE
8
WHITE
10
0.430240157480315
20
2.698582677165354
40
0.0068897637795276
0
CIRCLE
8
WHITE
10
0.6270905511811024
20
2.698582677165354
40
0.0068897637795276
0
CIRCLE
8
WHITE
10
2.7999999999999998
20
0.4
40
0.0068897637795276
0
CIRCLE
8
WHITE
10
2.7794389763779526
20
0.8154330708661417
40
0.0068897637795276
0
CIRCLE
8
WHITE
10
2.5825885826771655
20
0.8154330708661417
40
0.0068897637795276
0
CIRCLE
8
WHITE
10
1.3385826771653544
20
1.8718223622047243
40
0.0068897637795276
0
CIRCLE
8
WHITE
10
1.5354330708661417
20
1.8718223622047243
40
0.0068897637795276
0
CIRCLE
8
WHITE
10
0.430240157480315
20
3.2891338582677165
40
0.0068897637795276
0
CIRCLE
8
WHITE
10
0.6270905511811024
20
3.2891338582677165
40
0.0068897637795276
0
CIRCLE
8
WHITE
10
2.7794389763779526
20
1.0122834645669292
40
0.0068897637795276
0
CIRCLE
8
WHITE
10
2.5825885826771655
20
1.0122834645669292
40
0.0068897637795276
0
CIRCLE
8
WHITE
10
0.430240157480315
20
2.108031496062992
40
0.0068897637795276
0
CIRCLE
8
WHITE
10
0.6270905511811024
20
2.108031496062992
40
0.0068897637795276
0
CIRCLE
8
WHITE
10
0.878267716535433
20
0.6369291338582677
40
0.0068897637795276
0
CIRCLE
8
WHITE
10
0.878267716535433
20
0.5030708661417322
40
0.0068897637795276
0
CIRCLE
8
WHITE
10
1.261732283464567
20
0.6369291338582677
40
0.0068897637795276
0
CIRCLE
8
WHITE
10
1.261732283464567
20
0.5030708661417322
40
0.0068897637795276
0
CIRCLE
8
WHITE
10
0.430240157480315
20
1.1237795275590552
40
0.0068897637795276
0
CIRCLE
8
WHITE
10
0.6270905511811024
20
1.1237795275590552
40
0.0068897637795276
0
CIRCLE
8
WHITE
10
1.3385826771653544
20
3.1254359055118108
40
0.0068897637795276
0
CIRCLE
8
WHITE
10
1.5354330708661417
20
3.1254359055118108
40
0.0068897637795276
0
CIRCLE
8
WHITE
10
2.7825590551181101
20
1.2130708661417322
40
0.0068897637795276
0
CIRCLE
8
WHITE
10
2.5857086614173226
20
1.2130708661417322
40
0.0068897637795276
0
CIRCLE
8
WHITE
10
2.4100000000000001
20
3.3100000000000001
40
0.0068897637795276
0
CIRCLE
8
WHITE
10
2.5099999999999998
20
3.3100000000000001
40
0.0068897637795276
0
CIRCLE
8
WHITE
10
2.4100000000000001
20
3.21
40
0.0068897637795276
0
CIRCLE
8
WHITE
10
2.5099999999999998
20
3.21
40
0.0068897637795276
0
CIRCLE
8
WHITE
10
2.4100000000000001
20
3.1099999999999999
40
0.0068897637795276
0
CIRCLE
8
WHITE
10
2.5099999999999998
20
3.1099999999999999
40
0.0068897637795276
0
CIRCLE
8
WHITE
10
2.4100000000000001
20
3.0099999999999998
40
0.0068897637795276
0
CIRCLE
8
WHITE
10
2.5099999999999998
20
3.0099999999999998
40
0.0068897637795276
0
CIRCLE
8
WHITE
10
2.4100000000000001
20
2.9100000000000001
40
0.0068897637795276
0
CIRCLE
8
WHITE
10
2.5099999999999998
20
2.9100000000000001
40
0.0068897637795276
0
CIRCLE
8
WHITE
10
2.4100000000000001
20
2.8100000000000001
40
0.0068897637795276
0
CIRCLE
8
WHITE
10
2.5099999999999998
20
2.8100000000000001
40
0.0068897637795276
0
CIRCLE
8
WHITE
10
2.4100000000000001
20
2.71
40
0.0068897637795276
0
CIRCLE
8
WHITE
10
2.5099999999999998
20
2.71
40
0.0068897637795276
0
CIRCLE
8
WHITE
10
0.430240157480315
20
2.501732283464567
40
0.0068897637795276
0
CIRCLE
8
WHITE
10
0.6270905511811024
20
2.501732283464567
40
0.0068897637795276
0
CIRCLE
8
WHITE
10
0.430240157480315
20
1.7143307086614172
40
0.0068897637795276
0
CIRCLE
8
WHITE
10
0.6270905511811024
20
1.7143307086614172
40
0.0068897637795276
0
CIRCLE
8
WHITE
10
0.4
20
0.4
40
0.0068897637795276
0
CIRCLE
8
WHITE
10
1.3385826771653544
20
1.4539511811023622
40
0.0068897637795276
0
CIRCLE
8
WHITE
10
1.5354330708661417
20
1.4539511811023622
40
0.0068897637795276
0
CIRCLE
8
WHITE
10
2.7825590551181101
20
1.4099212598425197
40
0.0068897637795276
0
CIRCLE
8
WHITE
10
2.5857086614173226
20
1.4099212598425197
40
0.0068897637795276
0
CIRCLE
8
WHITE
10
1.3385826771653544
20
3.5433070866141732
40
0.0068897637795276
0
CIRCLE
8
WHITE
10
1.5354330708661417
20
3.5433070866141732
40
0.0068897637795276
0
CIRCLE
8
WHITE
10
0.430240157480315
20
1.51748031496063
40
0.0068897637795276
0
CIRCLE
8
WHITE
10
0.6270905511811024
20
1.51748031496063
40
0.0068897637795276
0
CIRCLE
8
WHITE
10
0.4
20
3.6000000000000001
40
0.0068897637795276
0
CIRCLE
8
WHITE
10
0.430240157480315
20
3.092283464566929
40
0.0068897637795276
0
CIRCLE
8
WHITE
10
0.6270905511811024
20
3.092283464566929
40
0.0068897637795276
0
CIRCLE
8
WHITE
10
1.981732283464567
20
0.5030708661417322
40
0.0068897637795276
0
CIRCLE
8
WHITE
10
1.981732283464567
20
0.6369291338582677
40
0.0068897637795276
0
CIRCLE
8
WHITE
10
1.5982677165354331
20
0.5030708661417322
40
0.0068897637795276
0
CIRCLE
8
WHITE
10
1.5982677165354331
20
0.6369291338582677
40
0.0068897637795276
0
CIRCLE
8
WHITE
10
1.3385826771653544
20
2.707564724409449
40
0.0068897637795276
0
CIRCLE
8
WHITE
10
1.5354330708661417
20
2.707564724409449
40
0.0068897637795276
0
CIRCLE
8
WHITE
10
2.7059055118110233
20
2.3153543307086615
40
0.0068897637795276
0
CIRCLE
8
WHITE
10
2.8059055118110234
20
2.3153543307086615
40
0.0068897637795276
0
CIRCLE
8
WHITE
10
2.7059055118110233
20
2.2153543307086614
40
0.0068897637795276
0
CIRCLE
8
WHITE
10
2.8059055118110234
20
2.2153543307086614
40
0.0068897637795276
0
CIRCLE
8
WHITE
10
2.7059055118110233
20
2.1153543307086613
40
0.0068897637795276
0
CIRCLE
8
WHITE
10
2.8059055118110234
20
2.1153543307086613
40
0.0068897637795276
0
CIRCLE
8
WHITE
10
2.7059055118110233
20
2.0153543307086612
40
0.0068897637795276
0
CIRCLE
8
WHITE
10
2.8059055118110234
20
2.0153543307086612
40
0.0068897637795276
0
CIRCLE
8
WHITE
10
1.3385826771653544
20
1.0360799999999999
40
0.0068897637795276
0
CIRCLE
8
WHITE
10
1.5354330708661417
20
1.0360799999999999
40
0.0068897637795276
0
CIRCLE
8
WHITE
10
0.430240157480315
20
2.3048818897637795
40
0.0068897637795276
0
CIRCLE
8
WHITE
10
0.6270905511811024
20
2.3048818897637795
40
0.0068897637795276
0
CIRCLE
8
WHITE
10
2.4696850393700789
20
2.3153543307086615
40
0.0068897637795276
0
CIRCLE
8
WHITE
10
2.5696850393700785
20
2.3153543307086615
40
0.0068897637795276
0
CIRCLE
8
WHITE
10
2.4696850393700789
20
2.2153543307086614
40
0.0068897637795276
0
CIRCLE
8
WHITE
10
2.5696850393700785
20
2.2153543307086614
40
0.0068897637795276
0
CIRCLE
8
WHITE
10
2.4696850393700789
20
2.1153543307086613
40
0.0068897637795276
0
CIRCLE
8
WHITE
10
2.5696850393700785
20
2.1153543307086613
40
0.0068897637795276
0
CIRCLE
8
WHITE
10
2.4696850393700789
20
2.0153543307086612
40
0.0068897637795276
0
CIRCLE
8
WHITE
10
2.5696850393700785
20
2.0153543307086612
40
0.0068897637795276
0
CIRCLE
8
WHITE
10
0.430240157480315
20
1.3206299212598425
40
0.0068897637795276
0
CIRCLE
8
WHITE
10
0.6270905511811024
20
1.3206299212598425
40
0.0068897637795276
0
CIRCLE
8
WHITE
10
1.3385826771653544
20
2.2896935433070866
40
0.0068897637795276
0
CIRCLE
8
WHITE
10
1.5354330708661417
20
2.2896935433070866
40
0.0068897637795276
0
CIRCLE
8
WHITE
10
0.430240157480315
20
1.9111811023622047
40
0.0068897637795276
0
CIRCLE
8
WHITE
10
0.6270905511811024
20
1.9111811023622047
40
0.0068897637795276
0
CIRCLE
8
WHITE
10
2.9100000000000001
20
2.9399999999999999
40
0.0068897637795276
0
CIRCLE
8
WHITE
10
2.8100000000000001
20
2.9399999999999999
40
0.0068897637795276
0
CIRCLE
8
WHITE
10
2.9100000000000001
20
3.04
40
0.0068897637795276
0
CIRCLE
8
WHITE
10
2.8100000000000001
20
3.04
40
0.0068897637795276
0
CIRCLE
8
WHITE
10
2.9100000000000001
20
3.1400000000000001
40
0.0068897637795276
0
CIRCLE
8
WHITE
10
2.8100000000000001
20
3.1400000000000001
40
0.0068897637795276
0
CIRCLE
8
BLACK
10
1.8799999999999999
20
2.1699999999999999
40
0.0068897637795276
0
CIRCLE
8
BLACK
10
2.4149015748031495
20
1.2268503937007873
40
0.0068897637795276
0
CIRCLE
8
BLACK
10
2.3823129921259842
20
0.8396062992125984
40
0.0068897637795276
0
CIRCLE
8
BLACK
10
1.8799999999999999
20
3.0099999999999998
40
0.0068897637795276
0
CIRCLE
8
BLACK
10
1.8799999999999999
20
0.91
40
0.0068897637795276
0
CIRCLE
8
BLACK
10
1.8799999999999999
20
1.3300000000000001
40
0.0068897637795276
0
CIRCLE
8
BLACK
10
1.8799999999999999
20
2.5899999999999999
40
0.0068897637795276
0
CIRCLE
8
BLACK
10
1.8799999999999999
20
1.75
40
0.0068897637795276
0
CIRCLE
8
BLACK
10
1.8799999999999999
20
3.4299999999999997
40
0.0068897637795276
  0
ENDSEC
  0
EOF
