  0
SECTION
  2
HEADER
  9
$ANGBASE
  50
0.0
  9
$ANGDIR
  70
1
  9
$MEASUREMENT
  70
0
  0
ENDSEC
  0
SECTION
  2
TABLES
  0
TABLE
  2
LTYPE
  70
4
  0
LTYPE
  5
40F
  2
CONTINUOUS
  70
0
  3
Solid line
  72
65
  73
0
  40
0.0
  0
LTYPE
  5
410
  2
DASHDOT
 70
0
  3
Dash Dot ____ _ ____ _
 72
65
 73
4
 40
2.0
 49
1.25
 49
-0.25
 49
0.25
 49
-0.25
  0
LTYPE
  5
411
  2
DASHED
 70
0
  3
Dashed __ __ __ __ __
 72
65
 73
2
 40
0.75
 49
0.5
 49
-0.25
  0
LTYPE
  5
43B
  2
DOTTED
 70
0
  3
Dotted .  .  .  .
 72
65
 73
2
 40
0.2
 49
0.0
 49
-0.2
  0
ENDTAB
  0
TABLE
  2
STYLE
  70
4
  0
STYLE
  2
KICAD
  70
0
  40
0
  41
1
  42
1
  50
0
  71
0
  3
isocp.shx
  0
STYLE
  2
KICADB
  70
0
  40
0
  41
1
  42
1
  50
0
  71
0
  3
isocp.shx
  0
STYLE
  2
KICADI
  70
0
  40
0
  41
1
  42
1
  50
15
  71
0
  3
isocp.shx
  0
STYLE
  2
KICADBI
  70
0
  40
0
  41
1
  42
1
  50
15
  71
0
  3
isocp.shx
  0
ENDTAB
  0
TABLE
  2
LAYER
  70
1
  0
LAYER
  2
BLACK
  70
0
  62
7
  6
CONTINUOUS
  0
ENDTAB
  0
ENDSEC
  0
SECTION
  2
ENTITIES
0
LINE
8
BLACK
6
CONTINUOUS
10
2.363370118110236
20
0.7879438976377953
11
2.363370118110236
21
0.787943937007874
0
LINE
8
BLACK
6
CONTINUOUS
10
2.363370118110236
20
0.787943937007874
11
2.3670012204724409
21
0.7866139763779527
0
LINE
8
BLACK
6
CONTINUOUS
10
2.3670012204724409
20
0.7866139763779527
11
2.3745634645669291
21
0.7849932677165354
0
LINE
8
BLACK
6
CONTINUOUS
10
2.3745634645669291
20
0.7849932677165354
11
2.382278031496063
21
0.7844461811023622
0
LINE
8
BLACK
6
CONTINUOUS
10
2.382278031496063
20
0.7844461811023622
11
2.3899933070866139
21
0.7849835039370079
0
LINE
8
BLACK
6
CONTINUOUS
10
2.3899933070866139
20
0.7849835039370079
11
2.3975576377952756
21
0.7865946062992126
0
LINE
8
BLACK
6
CONTINUOUS
10
2.3975576377952756
20
0.7865946062992126
11
2.4011903937007872
21
0.7879199606299212
0
LINE
8
BLACK
6
CONTINUOUS
10
2.4011903937007872
20
0.7879199606299212
11
2.4011903937007872
21
0.7879199212598424
0
LINE
8
BLACK
6
CONTINUOUS
10
2.4011903937007872
20
0.7879199212598424
11
2.4042264173228345
21
0.7883906692913386
0
LINE
8
BLACK
6
CONTINUOUS
10
2.4042264173228345
20
0.7883906692913386
11
2.4072114566929135
21
0.7876637401574803
0
LINE
8
BLACK
6
CONTINUOUS
10
2.4072114566929135
20
0.7876637401574803
11
2.4096911023622045
21
0.785849842519685
0
LINE
8
BLACK
6
CONTINUOUS
10
2.4096911023622045
20
0.785849842519685
11
2.4112878346456692
21
0.7832250787401575
0
LINE
8
BLACK
6
CONTINUOUS
10
2.4112878346456692
20
0.7832250787401575
11
2.4117024015748032
21
0.7805511811023622
0
LINE
8
BLACK
6
CONTINUOUS
10
2.4117024015748032
20
0.7805511811023622
11
2.4118405511811023
21
0.7805511811023622
0
LINE
8
BLACK
6
CONTINUOUS
10
2.4118405511811023
20
0.7805511811023622
11
2.4118405511811023
21
0.7392125984251968
0
LINE
8
BLACK
6
CONTINUOUS
10
2.4118405511811023
20
0.7392125984251968
11
2.3527854330708662
21
0.7392125984251968
0
LINE
8
BLACK
6
CONTINUOUS
10
2.3527854330708662
20
0.7392125984251968
11
2.3527854330708662
21
0.7805511811023622
0
LINE
8
BLACK
6
CONTINUOUS
10
2.3527854330708662
20
0.7805511811023622
11
2.3528429133858269
21
0.7805511811023622
0
LINE
8
BLACK
6
CONTINUOUS
10
2.3528429133858269
20
0.7805511811023622
11
2.3532667322834646
21
0.7832618503937008
0
LINE
8
BLACK
6
CONTINUOUS
10
2.3532667322834646
20
0.7832618503937008
11
2.3548667716535432
21
0.7858845669291339
0
LINE
8
BLACK
6
CONTINUOUS
10
2.3548667716535432
20
0.7858845669291339
11
2.3573487401574802
21
0.7876953543307087
0
LINE
8
BLACK
6
CONTINUOUS
10
2.3573487401574802
20
0.7876953543307087
11
2.3603346850393701
21
0.7884185039370079
0
LINE
8
BLACK
6
CONTINUOUS
10
2.3603346850393701
20
0.7884185039370079
11
2.363370118110236
21
0.7879438976377953
0
LINE
8
BLACK
6
CONTINUOUS
10
1.8209448818897638
20
0.9394700787401574
11
1.8236555511811023
21
0.9390462598425197
0
LINE
8
BLACK
6
CONTINUOUS
10
1.8236555511811023
20
0.9390462598425197
11
1.8262782677165355
21
0.937446220472441
0
LINE
8
BLACK
6
CONTINUOUS
10
1.8262782677165355
20
0.937446220472441
11
1.8280890551181102
21
0.934964251968504
0
LINE
8
BLACK
6
CONTINUOUS
10
1.8280890551181102
20
0.934964251968504
11
1.8288122047244093
21
0.9319783070866141
0
LINE
8
BLACK
6
CONTINUOUS
10
1.8288122047244093
20
0.9319783070866141
11
1.8283375984251968
21
0.928942874015748
0
LINE
8
BLACK
6
CONTINUOUS
10
1.8283375984251968
20
0.928942874015748
11
1.8283376377952756
21
0.928942874015748
0
LINE
8
BLACK
6
CONTINUOUS
10
1.8283376377952756
20
0.928942874015748
11
1.8270076771653543
21
0.9253117716535433
0
LINE
8
BLACK
6
CONTINUOUS
10
1.8270076771653543
20
0.9253117716535433
11
1.825386968503937
21
0.9177495275590551
0
LINE
8
BLACK
6
CONTINUOUS
10
1.825386968503937
20
0.9177495275590551
11
1.8248398818897638
21
0.9100349606299213
0
LINE
8
BLACK
6
CONTINUOUS
10
1.8248398818897638
20
0.9100349606299213
11
1.8253772047244095
21
0.9023196850393701
0
LINE
8
BLACK
6
CONTINUOUS
10
1.8253772047244095
20
0.9023196850393701
11
1.8269883070866142
21
0.8947553543307086
0
LINE
8
BLACK
6
CONTINUOUS
10
1.8269883070866142
20
0.8947553543307086
11
1.8283136614173228
21
0.8911225984251968
0
LINE
8
BLACK
6
CONTINUOUS
10
1.8283136614173228
20
0.8911225984251968
11
1.828313622047244
21
0.8911225984251968
0
LINE
8
BLACK
6
CONTINUOUS
10
1.828313622047244
20
0.8911225984251968
11
1.8287843700787401
21
0.8880865748031496
0
LINE
8
BLACK
6
CONTINUOUS
10
1.8287843700787401
20
0.8880865748031496
11
1.8280574409448818
21
0.8851015354330708
0
LINE
8
BLACK
6
CONTINUOUS
10
1.8280574409448818
20
0.8851015354330708
11
1.8262435433070865
21
0.8826218897637795
0
LINE
8
BLACK
6
CONTINUOUS
10
1.8262435433070865
20
0.8826218897637795
11
1.8236187795275589
21
0.881025157480315
0
LINE
8
BLACK
6
CONTINUOUS
10
1.8236187795275589
20
0.881025157480315
11
1.8209448818897638
21
0.8806105905511811
0
LINE
8
BLACK
6
CONTINUOUS
10
1.8209448818897638
20
0.8806105905511811
11
1.8209448818897638
21
0.8804724409448819
0
LINE
8
BLACK
6
CONTINUOUS
10
1.8209448818897638
20
0.8804724409448819
11
1.7796062992125983
21
0.8804724409448819
0
LINE
8
BLACK
6
CONTINUOUS
10
1.7796062992125983
20
0.8804724409448819
11
1.7796062992125983
21
0.9395275590551181
0
LINE
8
BLACK
6
CONTINUOUS
10
1.7796062992125983
20
0.9395275590551181
11
1.8209448818897638
21
0.9395275590551181
0
LINE
8
BLACK
6
CONTINUOUS
10
1.8209448818897638
20
0.9395275590551181
11
1.8209448818897638
21
0.9394700787401574
0
LINE
8
BLACK
6
CONTINUOUS
10
1.9803937007874015
20
0.8804724409448819
11
1.9390551181102362
21
0.8804724409448819
0
LINE
8
BLACK
6
CONTINUOUS
10
1.9390551181102362
20
0.8804724409448819
11
1.9390551181102362
21
0.8805299212598425
0
LINE
8
BLACK
6
CONTINUOUS
10
1.9390551181102362
20
0.8805299212598425
11
1.9363444488188977
21
0.8809537401574803
0
LINE
8
BLACK
6
CONTINUOUS
10
1.9363444488188977
20
0.8809537401574803
11
1.9337217322834646
21
0.8825537795275591
0
LINE
8
BLACK
6
CONTINUOUS
10
1.9337217322834646
20
0.8825537795275591
11
1.9319109448818896
21
0.8850357480314961
0
LINE
8
BLACK
6
CONTINUOUS
10
1.9319109448818896
20
0.8850357480314961
11
1.9311877952755905
21
0.8880216929133858
0
LINE
8
BLACK
6
CONTINUOUS
10
1.9311877952755905
20
0.8880216929133858
11
1.9316624015748032
21
0.8910571259842519
0
LINE
8
BLACK
6
CONTINUOUS
10
1.9316624015748032
20
0.8910571259842519
11
1.9316623622047244
21
0.8910571259842519
0
LINE
8
BLACK
6
CONTINUOUS
10
1.9316623622047244
20
0.8910571259842519
11
1.9329923228346457
21
0.8946882283464567
0
LINE
8
BLACK
6
CONTINUOUS
10
1.9329923228346457
20
0.8946882283464567
11
1.934613031496063
21
0.9022504724409448
0
LINE
8
BLACK
6
CONTINUOUS
10
1.934613031496063
20
0.9022504724409448
11
1.9351601181102362
21
0.9099650393700787
0
LINE
8
BLACK
6
CONTINUOUS
10
1.9351601181102362
20
0.9099650393700787
11
1.9346227952755906
21
0.9176803149606299
0
LINE
8
BLACK
6
CONTINUOUS
10
1.9346227952755906
20
0.9176803149606299
11
1.9330116929133858
21
0.9252446456692913
0
LINE
8
BLACK
6
CONTINUOUS
10
1.9330116929133858
20
0.9252446456692913
11
1.931686338582677
21
0.9288774015748031
0
LINE
8
BLACK
6
CONTINUOUS
10
1.931686338582677
20
0.9288774015748031
11
1.9316863779527558
21
0.9288774015748031
0
LINE
8
BLACK
6
CONTINUOUS
10
1.9316863779527558
20
0.9288774015748031
11
1.9312156299212597
21
0.9319134251968504
0
LINE
8
BLACK
6
CONTINUOUS
10
1.9312156299212597
20
0.9319134251968504
11
1.931942559055118
21
0.9348984645669292
0
LINE
8
BLACK
6
CONTINUOUS
10
1.931942559055118
20
0.9348984645669292
11
1.9337564566929133
21
0.9373781102362204
0
LINE
8
BLACK
6
CONTINUOUS
10
1.9337564566929133
20
0.9373781102362204
11
1.9363812204724409
21
0.938974842519685
0
LINE
8
BLACK
6
CONTINUOUS
10
1.9363812204724409
20
0.938974842519685
11
1.9390551181102362
21
0.9393894094488189
0
LINE
8
BLACK
6
CONTINUOUS
10
1.9390551181102362
20
0.9393894094488189
11
1.9390551181102362
21
0.9395275590551181
0
LINE
8
BLACK
6
CONTINUOUS
10
1.9390551181102362
20
0.9395275590551181
11
1.9803937007874015
21
0.9395275590551181
0
LINE
8
BLACK
6
CONTINUOUS
10
1.9803937007874015
20
0.9395275590551181
11
1.9803937007874015
21
0.8804724409448819
0
LINE
8
BLACK
6
CONTINUOUS
10
2.0674999999999999
20
0.8825
11
2.0124999999999997
21
0.8825
0
LINE
8
BLACK
6
CONTINUOUS
10
2.0124999999999997
20
0.8825
11
2.0124999999999997
21
0.9175
0
LINE
8
BLACK
6
CONTINUOUS
10
2.0124999999999997
20
0.9175
11
2.0674999999999999
21
0.9175
0
LINE
8
BLACK
6
CONTINUOUS
10
2.0674999999999999
20
0.9175
11
2.0674999999999999
21
0.8825
0
LINE
8
BLACK
6
CONTINUOUS
10
2.4118405511811023
20
0.8986614173228347
11
2.4117830708661416
21
0.8986614173228347
0
LINE
8
BLACK
6
CONTINUOUS
10
2.4117830708661416
20
0.8986614173228347
11
2.4113592519685039
21
0.895950748031496
0
LINE
8
BLACK
6
CONTINUOUS
10
2.4113592519685039
20
0.895950748031496
11
2.4097592125984253
21
0.893328031496063
0
LINE
8
BLACK
6
CONTINUOUS
10
2.4097592125984253
20
0.893328031496063
11
2.4072772440944883
21
0.8915172440944882
0
LINE
8
BLACK
6
CONTINUOUS
10
2.4072772440944883
20
0.8915172440944882
11
2.4042912992125984
21
0.8907940944881889
0
LINE
8
BLACK
6
CONTINUOUS
10
2.4042912992125984
20
0.8907940944881889
11
2.401255866141732
21
0.8912687007874015
0
LINE
8
BLACK
6
CONTINUOUS
10
2.401255866141732
20
0.8912687007874015
11
2.401255866141732
21
0.8912686614173229
0
LINE
8
BLACK
6
CONTINUOUS
10
2.401255866141732
20
0.8912686614173229
11
2.3976247637795276
21
0.8925986220472441
0
LINE
8
BLACK
6
CONTINUOUS
10
2.3976247637795276
20
0.8925986220472441
11
2.3900625196850394
21
0.8942193307086614
0
LINE
8
BLACK
6
CONTINUOUS
10
2.3900625196850394
20
0.8942193307086614
11
2.3823479527559055
21
0.8947664173228346
0
LINE
8
BLACK
6
CONTINUOUS
10
2.3823479527559055
20
0.8947664173228346
11
2.3746326771653541
21
0.894229094488189
0
LINE
8
BLACK
6
CONTINUOUS
10
2.3746326771653541
20
0.894229094488189
11
2.3670683464566928
21
0.8926179921259842
0
LINE
8
BLACK
6
CONTINUOUS
10
2.3670683464566928
20
0.8926179921259842
11
2.3634355905511812
21
0.8912926377952756
0
LINE
8
BLACK
6
CONTINUOUS
10
2.3634355905511812
20
0.8912926377952756
11
2.3634355905511812
21
0.8912926771653543
0
LINE
8
BLACK
6
CONTINUOUS
10
2.3634355905511812
20
0.8912926771653543
11
2.360399566929134
21
0.8908219291338583
0
LINE
8
BLACK
6
CONTINUOUS
10
2.360399566929134
20
0.8908219291338583
11
2.357414527559055
21
0.8915488582677165
0
LINE
8
BLACK
6
CONTINUOUS
10
2.357414527559055
20
0.8915488582677165
11
2.3549348818897635
21
0.8933627559055118
0
LINE
8
BLACK
6
CONTINUOUS
10
2.3549348818897635
20
0.8933627559055118
11
2.3533381496062993
21
0.8959875196850393
0
LINE
8
BLACK
6
CONTINUOUS
10
2.3533381496062993
20
0.8959875196850393
11
2.3529235826771653
21
0.8986614173228347
0
LINE
8
BLACK
6
CONTINUOUS
10
2.3529235826771653
20
0.8986614173228347
11
2.3527854330708662
21
0.8986614173228347
0
LINE
8
BLACK
6
CONTINUOUS
10
2.3527854330708662
20
0.8986614173228347
11
2.3527854330708662
21
0.9399999999999999
0
LINE
8
BLACK
6
CONTINUOUS
10
2.3527854330708662
20
0.9399999999999999
11
2.4118405511811023
21
0.9399999999999999
0
LINE
8
BLACK
6
CONTINUOUS
10
2.4118405511811023
20
0.9399999999999999
11
2.4118405511811023
21
0.8986614173228347
0
LINE
8
BLACK
6
CONTINUOUS
10
2.0674999999999999
20
0.9575
11
2.0124999999999997
21
0.9575
0
LINE
8
BLACK
6
CONTINUOUS
10
2.0124999999999997
20
0.9575
11
2.0124999999999997
21
0.9924999999999999
0
LINE
8
BLACK
6
CONTINUOUS
10
2.0124999999999997
20
0.9924999999999999
11
2.0674999999999999
21
0.9924999999999999
0
LINE
8
BLACK
6
CONTINUOUS
10
2.0674999999999999
20
0.9924999999999999
11
2.0674999999999999
21
0.9575
0
LINE
8
BLACK
6
CONTINUOUS
10
2.4098129921259841
20
0.9721062992125984
11
2.3548129921259844
21
0.9721062992125984
0
LINE
8
BLACK
6
CONTINUOUS
10
2.3548129921259844
20
0.9721062992125984
11
2.3548129921259844
21
1.0071062992125983
0
LINE
8
BLACK
6
CONTINUOUS
10
2.3548129921259844
20
1.0071062992125983
11
2.4098129921259841
21
1.0071062992125983
0
LINE
8
BLACK
6
CONTINUOUS
10
2.4098129921259841
20
1.0071062992125983
11
2.4098129921259841
21
0.9721062992125984
0
LINE
8
BLACK
6
CONTINUOUS
10
1.8653543307086613
20
1.0374015748031495
11
1.7866141732283465
21
1.0374015748031495
0
LINE
8
BLACK
6
CONTINUOUS
10
1.7866141732283465
20
1.0374015748031495
11
1.7866141732283465
21
1.0625984251968503
0
LINE
8
BLACK
6
CONTINUOUS
10
1.7866141732283465
20
1.0625984251968503
11
1.8653543307086613
21
1.0625984251968503
0
LINE
8
BLACK
6
CONTINUOUS
10
1.8653543307086613
20
1.0625984251968503
11
1.8653543307086613
21
1.0374015748031495
0
LINE
8
BLACK
6
CONTINUOUS
10
2.1133858267716534
20
1.0374015748031495
11
2.0346456692913386
21
1.0374015748031495
0
LINE
8
BLACK
6
CONTINUOUS
10
2.0346456692913386
20
1.0374015748031495
11
2.0346456692913386
21
1.0625984251968503
0
LINE
8
BLACK
6
CONTINUOUS
10
2.0346456692913386
20
1.0625984251968503
11
2.1133858267716534
21
1.0625984251968503
0
LINE
8
BLACK
6
CONTINUOUS
10
2.1133858267716534
20
1.0625984251968503
11
2.1133858267716534
21
1.0374015748031495
0
LINE
8
BLACK
6
CONTINUOUS
10
2.4098129921259841
20
1.0471062992125983
11
2.3548129921259844
21
1.0471062992125983
0
LINE
8
BLACK
6
CONTINUOUS
10
2.3548129921259844
20
1.0471062992125983
11
2.3548129921259844
21
1.0821062992125985
0
LINE
8
BLACK
6
CONTINUOUS
10
2.3548129921259844
20
1.0821062992125985
11
2.4098129921259841
21
1.0821062992125985
0
LINE
8
BLACK
6
CONTINUOUS
10
2.4098129921259841
20
1.0821062992125985
11
2.4098129921259841
21
1.0471062992125983
0
LINE
8
BLACK
6
CONTINUOUS
10
2.3959587007874017
20
1.1751879921259842
11
2.3959587007874017
21
1.175188031496063
0
LINE
8
BLACK
6
CONTINUOUS
10
2.3959587007874017
20
1.175188031496063
11
2.3995898031496061
21
1.1738580708661417
0
LINE
8
BLACK
6
CONTINUOUS
10
2.3995898031496061
20
1.1738580708661417
11
2.4071520472440944
21
1.1722373622047244
0
LINE
8
BLACK
6
CONTINUOUS
10
2.4071520472440944
20
1.1722373622047244
11
2.4148666141732282
21
1.1716902755905512
0
LINE
8
BLACK
6
CONTINUOUS
10
2.4148666141732282
20
1.1716902755905512
11
2.4225818897637796
21
1.1722275984251969
0
LINE
8
BLACK
6
CONTINUOUS
10
2.4225818897637796
20
1.1722275984251969
11
2.4301462204724409
21
1.1738387007874016
0
LINE
8
BLACK
6
CONTINUOUS
10
2.4301462204724409
20
1.1738387007874016
11
2.4337789763779525
21
1.1751640551181102
0
LINE
8
BLACK
6
CONTINUOUS
10
2.4337789763779525
20
1.1751640551181102
11
2.4337789763779525
21
1.1751640157480314
0
LINE
8
BLACK
6
CONTINUOUS
10
2.4337789763779525
20
1.1751640157480314
11
2.4368149999999997
21
1.1756347637795275
0
LINE
8
BLACK
6
CONTINUOUS
10
2.4368149999999997
20
1.1756347637795275
11
2.4398000393700787
21
1.1749078346456692
0
LINE
8
BLACK
6
CONTINUOUS
10
2.4398000393700787
20
1.1749078346456692
11
2.4422796850393702
21
1.1730939370078739
0
LINE
8
BLACK
6
CONTINUOUS
10
2.4422796850393702
20
1.1730939370078739
11
2.4438764173228344
21
1.1704691732283465
0
LINE
8
BLACK
6
CONTINUOUS
10
2.4438764173228344
20
1.1704691732283465
11
2.4442909842519684
21
1.1677952755905512
0
LINE
8
BLACK
6
CONTINUOUS
10
2.4442909842519684
20
1.1677952755905512
11
2.4444291338582675
21
1.1677952755905512
0
LINE
8
BLACK
6
CONTINUOUS
10
2.4444291338582675
20
1.1677952755905512
11
2.4444291338582675
21
1.1264566929133859
0
LINE
8
BLACK
6
CONTINUOUS
10
2.4444291338582675
20
1.1264566929133859
11
2.3853740157480314
21
1.1264566929133859
0
LINE
8
BLACK
6
CONTINUOUS
10
2.3853740157480314
20
1.1264566929133859
11
2.3853740157480314
21
1.1677952755905512
0
LINE
8
BLACK
6
CONTINUOUS
10
2.3853740157480314
20
1.1677952755905512
11
2.3854314960629921
21
1.1677952755905512
0
LINE
8
BLACK
6
CONTINUOUS
10
2.3854314960629921
20
1.1677952755905512
11
2.3858553149606299
21
1.1705059448818897
0
LINE
8
BLACK
6
CONTINUOUS
10
2.3858553149606299
20
1.1705059448818897
11
2.3874553543307084
21
1.1731286614173229
0
LINE
8
BLACK
6
CONTINUOUS
10
2.3874553543307084
20
1.1731286614173229
11
2.3899373228346454
21
1.1749394488188976
0
LINE
8
BLACK
6
CONTINUOUS
10
2.3899373228346454
20
1.1749394488188976
11
2.3929232677165353
21
1.1756625984251967
0
LINE
8
BLACK
6
CONTINUOUS
10
2.3929232677165353
20
1.1756625984251967
11
2.3959587007874017
21
1.1751879921259842
0
LINE
8
BLACK
6
CONTINUOUS
10
1.8653543307086613
20
1.1374015748031496
11
1.7866141732283465
21
1.1374015748031496
0
LINE
8
BLACK
6
CONTINUOUS
10
1.7866141732283465
20
1.1374015748031496
11
1.7866141732283465
21
1.1625984251968504
0
LINE
8
BLACK
6
CONTINUOUS
10
1.7866141732283465
20
1.1625984251968504
11
1.8653543307086613
21
1.1625984251968504
0
LINE
8
BLACK
6
CONTINUOUS
10
1.8653543307086613
20
1.1625984251968504
11
1.8653543307086613
21
1.1374015748031496
0
LINE
8
BLACK
6
CONTINUOUS
10
2.1133858267716534
20
1.1374015748031496
11
2.0346456692913386
21
1.1374015748031496
0
LINE
8
BLACK
6
CONTINUOUS
10
2.0346456692913386
20
1.1374015748031496
11
2.0346456692913386
21
1.1625984251968504
0
LINE
8
BLACK
6
CONTINUOUS
10
2.0346456692913386
20
1.1625984251968504
11
2.1133858267716534
21
1.1625984251968504
0
LINE
8
BLACK
6
CONTINUOUS
10
2.1133858267716534
20
1.1625984251968504
11
2.1133858267716534
21
1.1374015748031496
0
LINE
8
BLACK
6
CONTINUOUS
10
2.4444291338582675
20
1.2859055118110236
11
2.4443716535433069
21
1.2859055118110236
0
LINE
8
BLACK
6
CONTINUOUS
10
2.4443716535433069
20
1.2859055118110236
11
2.4439478346456691
21
1.2831948425196851
0
LINE
8
BLACK
6
CONTINUOUS
10
2.4439478346456691
20
1.2831948425196851
11
2.4423477952755905
21
1.280572125984252
0
LINE
8
BLACK
6
CONTINUOUS
10
2.4423477952755905
20
1.280572125984252
11
2.4398658267716535
21
1.278761338582677
0
LINE
8
BLACK
6
CONTINUOUS
10
2.4398658267716535
20
1.278761338582677
11
2.4368798818897637
21
1.2780381889763779
0
LINE
8
BLACK
6
CONTINUOUS
10
2.4368798818897637
20
1.2780381889763779
11
2.4338444488188977
21
1.2785127952755906
0
LINE
8
BLACK
6
CONTINUOUS
10
2.4338444488188977
20
1.2785127952755906
11
2.4338444488188977
21
1.2785127559055118
0
LINE
8
BLACK
6
CONTINUOUS
10
2.4338444488188977
20
1.2785127559055118
11
2.4302133464566928
21
1.2798427165354331
0
LINE
8
BLACK
6
CONTINUOUS
10
2.4302133464566928
20
1.2798427165354331
11
2.4226511023622046
21
1.2814634251968504
0
LINE
8
BLACK
6
CONTINUOUS
10
2.4226511023622046
20
1.2814634251968504
11
2.4149365354330707
21
1.2820105118110237
0
LINE
8
BLACK
6
CONTINUOUS
10
2.4149365354330707
20
1.2820105118110237
11
2.4072212598425198
21
1.281473188976378
0
LINE
8
BLACK
6
CONTINUOUS
10
2.4072212598425198
20
1.281473188976378
11
2.3996569291338581
21
1.2798620866141732
0
LINE
8
BLACK
6
CONTINUOUS
10
2.3996569291338581
20
1.2798620866141732
11
2.3960241732283465
21
1.2785367322834644
0
LINE
8
BLACK
6
CONTINUOUS
10
2.3960241732283465
20
1.2785367322834644
11
2.3960241732283465
21
1.2785367716535432
0
LINE
8
BLACK
6
CONTINUOUS
10
2.3960241732283465
20
1.2785367716535432
11
2.3929881496062992
21
1.2780660236220471
0
LINE
8
BLACK
6
CONTINUOUS
10
2.3929881496062992
20
1.2780660236220471
11
2.3900031102362203
21
1.2787929527559054
0
LINE
8
BLACK
6
CONTINUOUS
10
2.3900031102362203
20
1.2787929527559054
11
2.3875234645669292
21
1.2806068503937007
0
LINE
8
BLACK
6
CONTINUOUS
10
2.3875234645669292
20
1.2806068503937007
11
2.3859267322834645
21
1.2832316141732283
0
LINE
8
BLACK
6
CONTINUOUS
10
2.3859267322834645
20
1.2832316141732283
11
2.3855121653543305
21
1.2859055118110236
0
LINE
8
BLACK
6
CONTINUOUS
10
2.3855121653543305
20
1.2859055118110236
11
2.3853740157480314
21
1.2859055118110236
0
LINE
8
BLACK
6
CONTINUOUS
10
2.3853740157480314
20
1.2859055118110236
11
2.3853740157480314
21
1.3272440944881889
0
LINE
8
BLACK
6
CONTINUOUS
10
2.3853740157480314
20
1.3272440944881889
11
2.4444291338582675
21
1.3272440944881889
0
LINE
8
BLACK
6
CONTINUOUS
10
2.4444291338582675
20
1.3272440944881889
11
2.4444291338582675
21
1.2859055118110236
0
LINE
8
BLACK
6
CONTINUOUS
10
1.8209448818897638
20
1.3594700787401575
11
1.8236555511811023
21
1.3590462598425197
0
LINE
8
BLACK
6
CONTINUOUS
10
1.8236555511811023
20
1.3590462598425197
11
1.8262782677165355
21
1.3574462204724409
0
LINE
8
BLACK
6
CONTINUOUS
10
1.8262782677165355
20
1.3574462204724409
11
1.8280890551181102
21
1.3549642519685039
0
LINE
8
BLACK
6
CONTINUOUS
10
1.8280890551181102
20
1.3549642519685039
11
1.8288122047244093
21
1.351978307086614
0
LINE
8
BLACK
6
CONTINUOUS
10
1.8288122047244093
20
1.351978307086614
11
1.8283375984251968
21
1.3489428740157481
0
LINE
8
BLACK
6
CONTINUOUS
10
1.8283375984251968
20
1.3489428740157481
11
1.8283376377952756
21
1.3489428740157481
0
LINE
8
BLACK
6
CONTINUOUS
10
1.8283376377952756
20
1.3489428740157481
11
1.8270076771653543
21
1.3453117716535432
0
LINE
8
BLACK
6
CONTINUOUS
10
1.8270076771653543
20
1.3453117716535432
11
1.825386968503937
21
1.3377495275590552
0
LINE
8
BLACK
6
CONTINUOUS
10
1.825386968503937
20
1.3377495275590552
11
1.8248398818897638
21
1.3300349606299213
0
LINE
8
BLACK
6
CONTINUOUS
10
1.8248398818897638
20
1.3300349606299213
11
1.8253772047244095
21
1.3223196850393701
0
LINE
8
BLACK
6
CONTINUOUS
10
1.8253772047244095
20
1.3223196850393701
11
1.8269883070866142
21
1.3147553543307087
0
LINE
8
BLACK
6
CONTINUOUS
10
1.8269883070866142
20
1.3147553543307087
11
1.8283136614173228
21
1.3111225984251969
0
LINE
8
BLACK
6
CONTINUOUS
10
1.8283136614173228
20
1.3111225984251969
11
1.828313622047244
21
1.3111225984251969
0
LINE
8
BLACK
6
CONTINUOUS
10
1.828313622047244
20
1.3111225984251969
11
1.8287843700787401
21
1.3080865748031496
0
LINE
8
BLACK
6
CONTINUOUS
10
1.8287843700787401
20
1.3080865748031496
11
1.8280574409448818
21
1.3051015354330708
0
LINE
8
BLACK
6
CONTINUOUS
10
1.8280574409448818
20
1.3051015354330708
11
1.8262435433070865
21
1.3026218897637796
0
LINE
8
BLACK
6
CONTINUOUS
10
1.8262435433070865
20
1.3026218897637796
11
1.8236187795275589
21
1.3010251574803149
0
LINE
8
BLACK
6
CONTINUOUS
10
1.8236187795275589
20
1.3010251574803149
11
1.8209448818897638
21
1.3006105905511811
0
LINE
8
BLACK
6
CONTINUOUS
10
1.8209448818897638
20
1.3006105905511811
11
1.8209448818897638
21
1.3004724409448818
0
LINE
8
BLACK
6
CONTINUOUS
10
1.8209448818897638
20
1.3004724409448818
11
1.7796062992125983
21
1.3004724409448818
0
LINE
8
BLACK
6
CONTINUOUS
10
1.7796062992125983
20
1.3004724409448818
11
1.7796062992125983
21
1.3595275590551181
0
LINE
8
BLACK
6
CONTINUOUS
10
1.7796062992125983
20
1.3595275590551181
11
1.8209448818897638
21
1.3595275590551181
0
LINE
8
BLACK
6
CONTINUOUS
10
1.8209448818897638
20
1.3595275590551181
11
1.8209448818897638
21
1.3594700787401575
0
LINE
8
BLACK
6
CONTINUOUS
10
1.9803937007874015
20
1.3004724409448818
11
1.9390551181102362
21
1.3004724409448818
0
LINE
8
BLACK
6
CONTINUOUS
10
1.9390551181102362
20
1.3004724409448818
11
1.9390551181102362
21
1.3005299212598425
0
LINE
8
BLACK
6
CONTINUOUS
10
1.9390551181102362
20
1.3005299212598425
11
1.9363444488188977
21
1.3009537401574802
0
LINE
8
BLACK
6
CONTINUOUS
10
1.9363444488188977
20
1.3009537401574802
11
1.9337217322834646
21
1.302553779527559
0
LINE
8
BLACK
6
CONTINUOUS
10
1.9337217322834646
20
1.302553779527559
11
1.9319109448818896
21
1.305035748031496
0
LINE
8
BLACK
6
CONTINUOUS
10
1.9319109448818896
20
1.305035748031496
11
1.9311877952755905
21
1.3080216929133859
0
LINE
8
BLACK
6
CONTINUOUS
10
1.9311877952755905
20
1.3080216929133859
11
1.9316624015748032
21
1.3110571259842518
0
LINE
8
BLACK
6
CONTINUOUS
10
1.9316624015748032
20
1.3110571259842518
11
1.9316623622047244
21
1.3110571259842518
0
LINE
8
BLACK
6
CONTINUOUS
10
1.9316623622047244
20
1.3110571259842518
11
1.9329923228346457
21
1.3146882283464567
0
LINE
8
BLACK
6
CONTINUOUS
10
1.9329923228346457
20
1.3146882283464567
11
1.934613031496063
21
1.322250472440945
0
LINE
8
BLACK
6
CONTINUOUS
10
1.934613031496063
20
1.322250472440945
11
1.9351601181102362
21
1.3299650393700788
0
LINE
8
BLACK
6
CONTINUOUS
10
1.9351601181102362
20
1.3299650393700788
11
1.9346227952755906
21
1.33768031496063
0
LINE
8
BLACK
6
CONTINUOUS
10
1.9346227952755906
20
1.33768031496063
11
1.9330116929133858
21
1.3452446456692913
0
LINE
8
BLACK
6
CONTINUOUS
10
1.9330116929133858
20
1.3452446456692913
11
1.931686338582677
21
1.3488774015748031
0
LINE
8
BLACK
6
CONTINUOUS
10
1.931686338582677
20
1.3488774015748031
11
1.9316863779527558
21
1.3488774015748031
0
LINE
8
BLACK
6
CONTINUOUS
10
1.9316863779527558
20
1.3488774015748031
11
1.9312156299212597
21
1.3519134251968503
0
LINE
8
BLACK
6
CONTINUOUS
10
1.9312156299212597
20
1.3519134251968503
11
1.931942559055118
21
1.3548984645669291
0
LINE
8
BLACK
6
CONTINUOUS
10
1.931942559055118
20
1.3548984645669291
11
1.9337564566929133
21
1.3573781102362203
0
LINE
8
BLACK
6
CONTINUOUS
10
1.9337564566929133
20
1.3573781102362203
11
1.9363812204724409
21
1.358974842519685
0
LINE
8
BLACK
6
CONTINUOUS
10
1.9363812204724409
20
1.358974842519685
11
1.9390551181102362
21
1.3593894094488188
0
LINE
8
BLACK
6
CONTINUOUS
10
1.9390551181102362
20
1.3593894094488188
11
1.9390551181102362
21
1.3595275590551181
0
LINE
8
BLACK
6
CONTINUOUS
10
1.9390551181102362
20
1.3595275590551181
11
1.9803937007874015
21
1.3595275590551181
0
LINE
8
BLACK
6
CONTINUOUS
10
1.9803937007874015
20
1.3595275590551181
11
1.9803937007874015
21
1.3004724409448818
0
LINE
8
BLACK
6
CONTINUOUS
10
2.0674999999999999
20
1.3029167322834645
11
2.0124999999999997
21
1.3029167322834645
0
LINE
8
BLACK
6
CONTINUOUS
10
2.0124999999999997
20
1.3029167322834645
11
2.0124999999999997
21
1.3379167322834646
0
LINE
8
BLACK
6
CONTINUOUS
10
2.0124999999999997
20
1.3379167322834646
11
2.0674999999999999
21
1.3379167322834646
0
LINE
8
BLACK
6
CONTINUOUS
10
2.0674999999999999
20
1.3379167322834646
11
2.0674999999999999
21
1.3029167322834645
0
LINE
8
BLACK
6
CONTINUOUS
10
2.4424015748031493
20
1.3718503937007873
11
2.3874015748031496
21
1.3718503937007873
0
LINE
8
BLACK
6
CONTINUOUS
10
2.3874015748031496
20
1.3718503937007873
11
2.3874015748031496
21
1.4068503937007875
0
LINE
8
BLACK
6
CONTINUOUS
10
2.3874015748031496
20
1.4068503937007875
11
2.4424015748031493
21
1.4068503937007875
0
LINE
8
BLACK
6
CONTINUOUS
10
2.4424015748031493
20
1.4068503937007875
11
2.4424015748031493
21
1.3718503937007873
0
LINE
8
BLACK
6
CONTINUOUS
10
2.0674999999999999
20
1.3779167322834645
11
2.0124999999999997
21
1.3779167322834645
0
LINE
8
BLACK
6
CONTINUOUS
10
2.0124999999999997
20
1.3779167322834645
11
2.0124999999999997
21
1.4129167322834646
0
LINE
8
BLACK
6
CONTINUOUS
10
2.0124999999999997
20
1.4129167322834646
11
2.0674999999999999
21
1.4129167322834646
0
LINE
8
BLACK
6
CONTINUOUS
10
2.0674999999999999
20
1.4129167322834646
11
2.0674999999999999
21
1.3779167322834645
0
LINE
8
BLACK
6
CONTINUOUS
10
2.4424015748031493
20
1.4468503937007873
11
2.3874015748031496
21
1.4468503937007873
0
LINE
8
BLACK
6
CONTINUOUS
10
2.3874015748031496
20
1.4468503937007873
11
2.3874015748031496
21
1.4818503937007874
0
LINE
8
BLACK
6
CONTINUOUS
10
2.3874015748031496
20
1.4818503937007874
11
2.4424015748031493
21
1.4818503937007874
0
LINE
8
BLACK
6
CONTINUOUS
10
2.4424015748031493
20
1.4818503937007874
11
2.4424015748031493
21
1.4468503937007873
0
LINE
8
BLACK
6
CONTINUOUS
10
1.8653543307086613
20
1.4590683070866142
11
1.7866141732283465
21
1.4590683070866142
0
LINE
8
BLACK
6
CONTINUOUS
10
1.7866141732283465
20
1.4590683070866142
11
1.7866141732283465
21
1.484265157480315
0
LINE
8
BLACK
6
CONTINUOUS
10
1.7866141732283465
20
1.484265157480315
11
1.8653543307086613
21
1.484265157480315
0
LINE
8
BLACK
6
CONTINUOUS
10
1.8653543307086613
20
1.484265157480315
11
1.8653543307086613
21
1.4590683070866142
0
LINE
8
BLACK
6
CONTINUOUS
10
2.1133858267716534
20
1.4590683070866142
11
2.0346456692913386
21
1.4590683070866142
0
LINE
8
BLACK
6
CONTINUOUS
10
2.0346456692913386
20
1.4590683070866142
11
2.0346456692913386
21
1.484265157480315
0
LINE
8
BLACK
6
CONTINUOUS
10
2.0346456692913386
20
1.484265157480315
11
2.1133858267716534
21
1.484265157480315
0
LINE
8
BLACK
6
CONTINUOUS
10
2.1133858267716534
20
1.484265157480315
11
2.1133858267716534
21
1.4590683070866142
0
LINE
8
BLACK
6
CONTINUOUS
10
1.8653543307086613
20
1.559068307086614
11
1.7866141732283465
21
1.559068307086614
0
LINE
8
BLACK
6
CONTINUOUS
10
1.7866141732283465
20
1.559068307086614
11
1.7866141732283465
21
1.5842651574803148
0
LINE
8
BLACK
6
CONTINUOUS
10
1.7866141732283465
20
1.5842651574803148
11
1.8653543307086613
21
1.5842651574803148
0
LINE
8
BLACK
6
CONTINUOUS
10
1.8653543307086613
20
1.5842651574803148
11
1.8653543307086613
21
1.559068307086614
0
LINE
8
BLACK
6
CONTINUOUS
10
2.1133858267716534
20
1.559068307086614
11
2.0346456692913386
21
1.559068307086614
0
LINE
8
BLACK
6
CONTINUOUS
10
2.0346456692913386
20
1.559068307086614
11
2.0346456692913386
21
1.5842651574803148
0
LINE
8
BLACK
6
CONTINUOUS
10
2.0346456692913386
20
1.5842651574803148
11
2.1133858267716534
21
1.5842651574803148
0
LINE
8
BLACK
6
CONTINUOUS
10
2.1133858267716534
20
1.5842651574803148
11
2.1133858267716534
21
1.559068307086614
0
LINE
8
BLACK
6
CONTINUOUS
10
2.5866141732283463
20
1.6574803149606299
11
2.4527559055118111
21
1.6574803149606299
0
LINE
8
BLACK
6
CONTINUOUS
10
2.4527559055118111
20
1.6574803149606299
11
2.4527559055118111
21
1.7322834645669292
0
LINE
8
BLACK
6
CONTINUOUS
10
2.4527559055118111
20
1.7322834645669292
11
2.5866141732283463
21
1.7322834645669292
0
LINE
8
BLACK
6
CONTINUOUS
10
2.5866141732283463
20
1.7322834645669292
11
2.5866141732283463
21
1.6574803149606299
0
LINE
8
BLACK
6
CONTINUOUS
10
2.8622047244094486
20
1.6574803149606299
11
2.7283464566929134
21
1.6574803149606299
0
LINE
8
BLACK
6
CONTINUOUS
10
2.7283464566929134
20
1.6574803149606299
11
2.7283464566929134
21
1.7322834645669292
0
LINE
8
BLACK
6
CONTINUOUS
10
2.7283464566929134
20
1.7322834645669292
11
2.8622047244094486
21
1.7322834645669292
0
LINE
8
BLACK
6
CONTINUOUS
10
2.8622047244094486
20
1.7322834645669292
11
2.8622047244094486
21
1.6574803149606299
0
LINE
8
BLACK
6
CONTINUOUS
10
1.8209448818897638
20
1.7794700787401574
11
1.8236555511811023
21
1.7790462598425196
0
LINE
8
BLACK
6
CONTINUOUS
10
1.8236555511811023
20
1.7790462598425196
11
1.8262782677165355
21
1.7774462204724408
0
LINE
8
BLACK
6
CONTINUOUS
10
1.8262782677165355
20
1.7774462204724408
11
1.8280890551181102
21
1.7749642519685038
0
LINE
8
BLACK
6
CONTINUOUS
10
1.8280890551181102
20
1.7749642519685038
11
1.8288122047244093
21
1.7719783070866142
0
LINE
8
BLACK
6
CONTINUOUS
10
1.8288122047244093
20
1.7719783070866142
11
1.8283375984251968
21
1.768942874015748
0
LINE
8
BLACK
6
CONTINUOUS
10
1.8283375984251968
20
1.768942874015748
11
1.8283376377952756
21
1.768942874015748
0
LINE
8
BLACK
6
CONTINUOUS
10
1.8283376377952756
20
1.768942874015748
11
1.8270076771653543
21
1.7653117716535434
0
LINE
8
BLACK
6
CONTINUOUS
10
1.8270076771653543
20
1.7653117716535434
11
1.825386968503937
21
1.7577495275590551
0
LINE
8
BLACK
6
CONTINUOUS
10
1.825386968503937
20
1.7577495275590551
11
1.8248398818897638
21
1.7500349606299213
0
LINE
8
BLACK
6
CONTINUOUS
10
1.8248398818897638
20
1.7500349606299213
11
1.8253772047244095
21
1.7423196850393701
0
LINE
8
BLACK
6
CONTINUOUS
10
1.8253772047244095
20
1.7423196850393701
11
1.8269883070866142
21
1.7347553543307086
0
LINE
8
BLACK
6
CONTINUOUS
10
1.8269883070866142
20
1.7347553543307086
11
1.8283136614173228
21
1.7311225984251968
0
LINE
8
BLACK
6
CONTINUOUS
10
1.8283136614173228
20
1.7311225984251968
11
1.828313622047244
21
1.7311225984251968
0
LINE
8
BLACK
6
CONTINUOUS
10
1.828313622047244
20
1.7311225984251968
11
1.8287843700787401
21
1.7280865748031495
0
LINE
8
BLACK
6
CONTINUOUS
10
1.8287843700787401
20
1.7280865748031495
11
1.8280574409448818
21
1.7251015354330708
0
LINE
8
BLACK
6
CONTINUOUS
10
1.8280574409448818
20
1.7251015354330708
11
1.8262435433070865
21
1.7226218897637795
0
LINE
8
BLACK
6
CONTINUOUS
10
1.8262435433070865
20
1.7226218897637795
11
1.8236187795275589
21
1.7210251574803148
0
LINE
8
BLACK
6
CONTINUOUS
10
1.8236187795275589
20
1.7210251574803148
11
1.8209448818897638
21
1.720610590551181
0
LINE
8
BLACK
6
CONTINUOUS
10
1.8209448818897638
20
1.720610590551181
11
1.8209448818897638
21
1.7204724409448819
0
LINE
8
BLACK
6
CONTINUOUS
10
1.8209448818897638
20
1.7204724409448819
11
1.7796062992125983
21
1.7204724409448819
0
LINE
8
BLACK
6
CONTINUOUS
10
1.7796062992125983
20
1.7204724409448819
11
1.7796062992125983
21
1.7795275590551181
0
LINE
8
BLACK
6
CONTINUOUS
10
1.7796062992125983
20
1.7795275590551181
11
1.8209448818897638
21
1.7795275590551181
0
LINE
8
BLACK
6
CONTINUOUS
10
1.8209448818897638
20
1.7795275590551181
11
1.8209448818897638
21
1.7794700787401574
0
LINE
8
BLACK
6
CONTINUOUS
10
1.9803937007874015
20
1.7204724409448819
11
1.9390551181102362
21
1.7204724409448819
0
LINE
8
BLACK
6
CONTINUOUS
10
1.9390551181102362
20
1.7204724409448819
11
1.9390551181102362
21
1.7205299212598424
0
LINE
8
BLACK
6
CONTINUOUS
10
1.9390551181102362
20
1.7205299212598424
11
1.9363444488188977
21
1.7209537401574804
0
LINE
8
BLACK
6
CONTINUOUS
10
1.9363444488188977
20
1.7209537401574804
11
1.9337217322834646
21
1.7225537795275589
0
LINE
8
BLACK
6
CONTINUOUS
10
1.9337217322834646
20
1.7225537795275589
11
1.9319109448818896
21
1.725035748031496
0
LINE
8
BLACK
6
CONTINUOUS
10
1.9319109448818896
20
1.725035748031496
11
1.9311877952755905
21
1.7280216929133858
0
LINE
8
BLACK
6
CONTINUOUS
10
1.9311877952755905
20
1.7280216929133858
11
1.9316624015748032
21
1.731057125984252
0
LINE
8
BLACK
6
CONTINUOUS
10
1.9316624015748032
20
1.731057125984252
11
1.9316623622047244
21
1.731057125984252
0
LINE
8
BLACK
6
CONTINUOUS
10
1.9316623622047244
20
1.731057125984252
11
1.9329923228346457
21
1.7346882283464566
0
LINE
8
BLACK
6
CONTINUOUS
10
1.9329923228346457
20
1.7346882283464566
11
1.934613031496063
21
1.7422504724409449
0
LINE
8
BLACK
6
CONTINUOUS
10
1.934613031496063
20
1.7422504724409449
11
1.9351601181102362
21
1.7499650393700787
0
LINE
8
BLACK
6
CONTINUOUS
10
1.9351601181102362
20
1.7499650393700787
11
1.9346227952755906
21
1.7576803149606299
0
LINE
8
BLACK
6
CONTINUOUS
10
1.9346227952755906
20
1.7576803149606299
11
1.9330116929133858
21
1.7652446456692914
0
LINE
8
BLACK
6
CONTINUOUS
10
1.9330116929133858
20
1.7652446456692914
11
1.931686338582677
21
1.768877401574803
0
LINE
8
BLACK
6
CONTINUOUS
10
1.931686338582677
20
1.768877401574803
11
1.9316863779527558
21
1.768877401574803
0
LINE
8
BLACK
6
CONTINUOUS
10
1.9316863779527558
20
1.768877401574803
11
1.9312156299212597
21
1.7719134251968502
0
LINE
8
BLACK
6
CONTINUOUS
10
1.9312156299212597
20
1.7719134251968502
11
1.931942559055118
21
1.774898464566929
0
LINE
8
BLACK
6
CONTINUOUS
10
1.931942559055118
20
1.774898464566929
11
1.9337564566929133
21
1.7773781102362205
0
LINE
8
BLACK
6
CONTINUOUS
10
1.9337564566929133
20
1.7773781102362205
11
1.9363812204724409
21
1.778974842519685
0
LINE
8
BLACK
6
CONTINUOUS
10
1.9363812204724409
20
1.778974842519685
11
1.9390551181102362
21
1.779389409448819
0
LINE
8
BLACK
6
CONTINUOUS
10
1.9390551181102362
20
1.779389409448819
11
1.9390551181102362
21
1.7795275590551181
0
LINE
8
BLACK
6
CONTINUOUS
10
1.9390551181102362
20
1.7795275590551181
11
1.9803937007874015
21
1.7795275590551181
0
LINE
8
BLACK
6
CONTINUOUS
10
1.9803937007874015
20
1.7795275590551181
11
1.9803937007874015
21
1.7204724409448819
0
LINE
8
BLACK
6
CONTINUOUS
10
2.0674999999999999
20
1.7233333858267716
11
2.0124999999999997
21
1.7233333858267716
0
LINE
8
BLACK
6
CONTINUOUS
10
2.0124999999999997
20
1.7233333858267716
11
2.0124999999999997
21
1.7583333858267716
0
LINE
8
BLACK
6
CONTINUOUS
10
2.0124999999999997
20
1.7583333858267716
11
2.0674999999999999
21
1.7583333858267716
0
LINE
8
BLACK
6
CONTINUOUS
10
2.0674999999999999
20
1.7583333858267716
11
2.0674999999999999
21
1.7233333858267716
0
LINE
8
BLACK
6
CONTINUOUS
10
2.0674999999999999
20
1.7983333858267716
11
2.0124999999999997
21
1.7983333858267716
0
LINE
8
BLACK
6
CONTINUOUS
10
2.0124999999999997
20
1.7983333858267716
11
2.0124999999999997
21
1.8333333858267715
0
LINE
8
BLACK
6
CONTINUOUS
10
2.0124999999999997
20
1.8333333858267715
11
2.0674999999999999
21
1.8333333858267715
0
LINE
8
BLACK
6
CONTINUOUS
10
2.0674999999999999
20
1.8333333858267715
11
2.0674999999999999
21
1.7983333858267716
0
LINE
8
BLACK
6
CONTINUOUS
10
2.5866141732283463
20
1.811023622047244
11
2.4527559055118111
21
1.811023622047244
0
LINE
8
BLACK
6
CONTINUOUS
10
2.4527559055118111
20
1.811023622047244
11
2.4527559055118111
21
1.8858267716535433
0
LINE
8
BLACK
6
CONTINUOUS
10
2.4527559055118111
20
1.8858267716535433
11
2.5866141732283463
21
1.8858267716535433
0
LINE
8
BLACK
6
CONTINUOUS
10
2.5866141732283463
20
1.8858267716535433
11
2.5866141732283463
21
1.811023622047244
0
LINE
8
BLACK
6
CONTINUOUS
10
2.8622047244094486
20
1.811023622047244
11
2.7283464566929134
21
1.811023622047244
0
LINE
8
BLACK
6
CONTINUOUS
10
2.7283464566929134
20
1.811023622047244
11
2.7283464566929134
21
1.8858267716535433
0
LINE
8
BLACK
6
CONTINUOUS
10
2.7283464566929134
20
1.8858267716535433
11
2.8622047244094486
21
1.8858267716535433
0
LINE
8
BLACK
6
CONTINUOUS
10
2.8622047244094486
20
1.8858267716535433
11
2.8622047244094486
21
1.811023622047244
0
LINE
8
BLACK
6
CONTINUOUS
10
1.8653543307086613
20
1.8807349606299213
11
1.7866141732283465
21
1.8807349606299213
0
LINE
8
BLACK
6
CONTINUOUS
10
1.7866141732283465
20
1.8807349606299213
11
1.7866141732283465
21
1.9059318110236221
0
LINE
8
BLACK
6
CONTINUOUS
10
1.7866141732283465
20
1.9059318110236221
11
1.8653543307086613
21
1.9059318110236221
0
LINE
8
BLACK
6
CONTINUOUS
10
1.8653543307086613
20
1.9059318110236221
11
1.8653543307086613
21
1.8807349606299213
0
LINE
8
BLACK
6
CONTINUOUS
10
2.1133858267716534
20
1.8807349606299213
11
2.0346456692913386
21
1.8807349606299213
0
LINE
8
BLACK
6
CONTINUOUS
10
2.0346456692913386
20
1.8807349606299213
11
2.0346456692913386
21
1.9059318110236221
0
LINE
8
BLACK
6
CONTINUOUS
10
2.0346456692913386
20
1.9059318110236221
11
2.1133858267716534
21
1.9059318110236221
0
LINE
8
BLACK
6
CONTINUOUS
10
2.1133858267716534
20
1.9059318110236221
11
2.1133858267716534
21
1.8807349606299213
0
LINE
8
BLACK
6
CONTINUOUS
10
1.8653543307086613
20
1.9807349606299212
11
1.7866141732283465
21
1.9807349606299212
0
LINE
8
BLACK
6
CONTINUOUS
10
1.7866141732283465
20
1.9807349606299212
11
1.7866141732283465
21
2.0059318110236219
0
LINE
8
BLACK
6
CONTINUOUS
10
1.7866141732283465
20
2.0059318110236219
11
1.8653543307086613
21
2.0059318110236219
0
LINE
8
BLACK
6
CONTINUOUS
10
1.8653543307086613
20
2.0059318110236219
11
1.8653543307086613
21
1.9807349606299212
0
LINE
8
BLACK
6
CONTINUOUS
10
2.1133858267716534
20
1.9807349606299212
11
2.0346456692913386
21
1.9807349606299212
0
LINE
8
BLACK
6
CONTINUOUS
10
2.0346456692913386
20
1.9807349606299212
11
2.0346456692913386
21
2.0059318110236219
0
LINE
8
BLACK
6
CONTINUOUS
10
2.0346456692913386
20
2.0059318110236219
11
2.1133858267716534
21
2.0059318110236219
0
LINE
8
BLACK
6
CONTINUOUS
10
2.1133858267716534
20
2.0059318110236219
11
2.1133858267716534
21
1.9807349606299212
0
LINE
8
BLACK
6
CONTINUOUS
10
1.8209448818897638
20
2.1994700787401573
11
1.8236555511811023
21
2.1990462598425196
0
LINE
8
BLACK
6
CONTINUOUS
10
1.8236555511811023
20
2.1990462598425196
11
1.8262782677165355
21
2.197446220472441
0
LINE
8
BLACK
6
CONTINUOUS
10
1.8262782677165355
20
2.197446220472441
11
1.8280890551181102
21
2.194964251968504
0
LINE
8
BLACK
6
CONTINUOUS
10
1.8280890551181102
20
2.194964251968504
11
1.8288122047244093
21
2.1919783070866141
0
LINE
8
BLACK
6
CONTINUOUS
10
1.8288122047244093
20
2.1919783070866141
11
1.8283375984251968
21
2.1889428740157482
0
LINE
8
BLACK
6
CONTINUOUS
10
1.8283375984251968
20
2.1889428740157482
11
1.8283376377952756
21
2.1889428740157482
0
LINE
8
BLACK
6
CONTINUOUS
10
1.8283376377952756
20
2.1889428740157482
11
1.8270076771653543
21
2.1853117716535433
0
LINE
8
BLACK
6
CONTINUOUS
10
1.8270076771653543
20
2.1853117716535433
11
1.825386968503937
21
2.177749527559055
0
LINE
8
BLACK
6
CONTINUOUS
10
1.825386968503937
20
2.177749527559055
11
1.8248398818897638
21
2.1700349606299212
0
LINE
8
BLACK
6
CONTINUOUS
10
1.8248398818897638
20
2.1700349606299212
11
1.8253772047244095
21
2.1623196850393702
0
LINE
8
BLACK
6
CONTINUOUS
10
1.8253772047244095
20
2.1623196850393702
11
1.8269883070866142
21
2.1547553543307085
0
LINE
8
BLACK
6
CONTINUOUS
10
1.8269883070866142
20
2.1547553543307085
11
1.8283136614173228
21
2.1511225984251969
0
LINE
8
BLACK
6
CONTINUOUS
10
1.8283136614173228
20
2.1511225984251969
11
1.828313622047244
21
2.1511225984251969
0
LINE
8
BLACK
6
CONTINUOUS
10
1.828313622047244
20
2.1511225984251969
11
1.8287843700787401
21
2.1480865748031497
0
LINE
8
BLACK
6
CONTINUOUS
10
1.8287843700787401
20
2.1480865748031497
11
1.8280574409448818
21
2.1451015354330707
0
LINE
8
BLACK
6
CONTINUOUS
10
1.8280574409448818
20
2.1451015354330707
11
1.8262435433070865
21
2.1426218897637797
0
LINE
8
BLACK
6
CONTINUOUS
10
1.8262435433070865
20
2.1426218897637797
11
1.8236187795275589
21
2.141025157480315
0
LINE
8
BLACK
6
CONTINUOUS
10
1.8236187795275589
20
2.141025157480315
11
1.8209448818897638
21
2.140610590551181
0
LINE
8
BLACK
6
CONTINUOUS
10
1.8209448818897638
20
2.140610590551181
11
1.8209448818897638
21
2.1404724409448819
0
LINE
8
BLACK
6
CONTINUOUS
10
1.8209448818897638
20
2.1404724409448819
11
1.7796062992125983
21
2.1404724409448819
0
LINE
8
BLACK
6
CONTINUOUS
10
1.7796062992125983
20
2.1404724409448819
11
1.7796062992125983
21
2.199527559055118
0
LINE
8
BLACK
6
CONTINUOUS
10
1.7796062992125983
20
2.199527559055118
11
1.8209448818897638
21
2.199527559055118
0
LINE
8
BLACK
6
CONTINUOUS
10
1.8209448818897638
20
2.199527559055118
11
1.8209448818897638
21
2.1994700787401573
0
LINE
8
BLACK
6
CONTINUOUS
10
1.9803937007874015
20
2.1404724409448819
11
1.9390551181102362
21
2.1404724409448819
0
LINE
8
BLACK
6
CONTINUOUS
10
1.9390551181102362
20
2.1404724409448819
11
1.9390551181102362
21
2.1405299212598425
0
LINE
8
BLACK
6
CONTINUOUS
10
1.9390551181102362
20
2.1405299212598425
11
1.9363444488188977
21
2.1409537401574803
0
LINE
8
BLACK
6
CONTINUOUS
10
1.9363444488188977
20
2.1409537401574803
11
1.9337217322834646
21
2.1425537795275589
0
LINE
8
BLACK
6
CONTINUOUS
10
1.9337217322834646
20
2.1425537795275589
11
1.9319109448818896
21
2.1450357480314959
0
LINE
8
BLACK
6
CONTINUOUS
10
1.9319109448818896
20
2.1450357480314959
11
1.9311877952755905
21
2.1480216929133857
0
LINE
8
BLACK
6
CONTINUOUS
10
1.9311877952755905
20
2.1480216929133857
11
1.9316624015748032
21
2.1510571259842521
0
LINE
8
BLACK
6
CONTINUOUS
10
1.9316624015748032
20
2.1510571259842521
11
1.9316623622047244
21
2.1510571259842521
0
LINE
8
BLACK
6
CONTINUOUS
10
1.9316623622047244
20
2.1510571259842521
11
1.9329923228346457
21
2.1546882283464566
0
LINE
8
BLACK
6
CONTINUOUS
10
1.9329923228346457
20
2.1546882283464566
11
1.934613031496063
21
2.1622504724409448
0
LINE
8
BLACK
6
CONTINUOUS
10
1.934613031496063
20
2.1622504724409448
11
1.9351601181102362
21
2.1699650393700787
0
LINE
8
BLACK
6
CONTINUOUS
10
1.9351601181102362
20
2.1699650393700787
11
1.9346227952755906
21
2.1776803149606301
0
LINE
8
BLACK
6
CONTINUOUS
10
1.9346227952755906
20
2.1776803149606301
11
1.9330116929133858
21
2.1852446456692913
0
LINE
8
BLACK
6
CONTINUOUS
10
1.9330116929133858
20
2.1852446456692913
11
1.931686338582677
21
2.1888774015748029
0
LINE
8
BLACK
6
CONTINUOUS
10
1.931686338582677
20
2.1888774015748029
11
1.9316863779527558
21
2.1888774015748029
0
LINE
8
BLACK
6
CONTINUOUS
10
1.9316863779527558
20
2.1888774015748029
11
1.9312156299212597
21
2.1919134251968502
0
LINE
8
BLACK
6
CONTINUOUS
10
1.9312156299212597
20
2.1919134251968502
11
1.931942559055118
21
2.1948984645669292
0
LINE
8
BLACK
6
CONTINUOUS
10
1.931942559055118
20
2.1948984645669292
11
1.9337564566929133
21
2.1973781102362202
0
LINE
8
BLACK
6
CONTINUOUS
10
1.9337564566929133
20
2.1973781102362202
11
1.9363812204724409
21
2.1989748425196849
0
LINE
8
BLACK
6
CONTINUOUS
10
1.9363812204724409
20
2.1989748425196849
11
1.9390551181102362
21
2.1993894094488189
0
LINE
8
BLACK
6
CONTINUOUS
10
1.9390551181102362
20
2.1993894094488189
11
1.9390551181102362
21
2.199527559055118
0
LINE
8
BLACK
6
CONTINUOUS
10
1.9390551181102362
20
2.199527559055118
11
1.9803937007874015
21
2.199527559055118
0
LINE
8
BLACK
6
CONTINUOUS
10
1.9803937007874015
20
2.199527559055118
11
1.9803937007874015
21
2.1404724409448819
0
LINE
8
BLACK
6
CONTINUOUS
10
2.0674999999999999
20
2.1437500393700786
11
2.0124999999999997
21
2.1437500393700786
0
LINE
8
BLACK
6
CONTINUOUS
10
2.0124999999999997
20
2.1437500393700786
11
2.0124999999999997
21
2.1787500393700787
0
LINE
8
BLACK
6
CONTINUOUS
10
2.0124999999999997
20
2.1787500393700787
11
2.0674999999999999
21
2.1787500393700787
0
LINE
8
BLACK
6
CONTINUOUS
10
2.0674999999999999
20
2.1787500393700787
11
2.0674999999999999
21
2.1437500393700786
0
LINE
8
BLACK
6
CONTINUOUS
10
2.0674999999999999
20
2.2187500393700788
11
2.0124999999999997
21
2.2187500393700788
0
LINE
8
BLACK
6
CONTINUOUS
10
2.0124999999999997
20
2.2187500393700788
11
2.0124999999999997
21
2.2537500393700789
0
LINE
8
BLACK
6
CONTINUOUS
10
2.0124999999999997
20
2.2537500393700789
11
2.0674999999999999
21
2.2537500393700789
0
LINE
8
BLACK
6
CONTINUOUS
10
2.0674999999999999
20
2.2537500393700789
11
2.0674999999999999
21
2.2187500393700788
0
LINE
8
BLACK
6
CONTINUOUS
10
1.8653543307086613
20
2.3024016141732284
11
1.7866141732283465
21
2.3024016141732284
0
LINE
8
BLACK
6
CONTINUOUS
10
1.7866141732283465
20
2.3024016141732284
11
1.7866141732283465
21
2.327598464566929
0
LINE
8
BLACK
6
CONTINUOUS
10
1.7866141732283465
20
2.327598464566929
11
1.8653543307086613
21
2.327598464566929
0
LINE
8
BLACK
6
CONTINUOUS
10
1.8653543307086613
20
2.327598464566929
11
1.8653543307086613
21
2.3024016141732284
0
LINE
8
BLACK
6
CONTINUOUS
10
2.1133858267716534
20
2.3024016141732284
11
2.0346456692913386
21
2.3024016141732284
0
LINE
8
BLACK
6
CONTINUOUS
10
2.0346456692913386
20
2.3024016141732284
11
2.0346456692913386
21
2.327598464566929
0
LINE
8
BLACK
6
CONTINUOUS
10
2.0346456692913386
20
2.327598464566929
11
2.1133858267716534
21
2.327598464566929
0
LINE
8
BLACK
6
CONTINUOUS
10
2.1133858267716534
20
2.327598464566929
11
2.1133858267716534
21
2.3024016141732284
0
LINE
8
BLACK
6
CONTINUOUS
10
1.8653543307086613
20
2.4024016141732285
11
1.7866141732283465
21
2.4024016141732285
0
LINE
8
BLACK
6
CONTINUOUS
10
1.7866141732283465
20
2.4024016141732285
11
1.7866141732283465
21
2.4275984645669291
0
LINE
8
BLACK
6
CONTINUOUS
10
1.7866141732283465
20
2.4275984645669291
11
1.8653543307086613
21
2.4275984645669291
0
LINE
8
BLACK
6
CONTINUOUS
10
1.8653543307086613
20
2.4275984645669291
11
1.8653543307086613
21
2.4024016141732285
0
LINE
8
BLACK
6
CONTINUOUS
10
2.1133858267716534
20
2.4024016141732285
11
2.0346456692913386
21
2.4024016141732285
0
LINE
8
BLACK
6
CONTINUOUS
10
2.0346456692913386
20
2.4024016141732285
11
2.0346456692913386
21
2.4275984645669291
0
LINE
8
BLACK
6
CONTINUOUS
10
2.0346456692913386
20
2.4275984645669291
11
2.1133858267716534
21
2.4275984645669291
0
LINE
8
BLACK
6
CONTINUOUS
10
2.1133858267716534
20
2.4275984645669291
11
2.1133858267716534
21
2.4024016141732285
0
LINE
8
BLACK
6
CONTINUOUS
10
2.5975000000000001
20
2.4649999999999999
11
2.5425
21
2.4649999999999999
0
LINE
8
BLACK
6
CONTINUOUS
10
2.5425
20
2.4649999999999999
11
2.5425
21
2.5
0
LINE
8
BLACK
6
CONTINUOUS
10
2.5425
20
2.5
11
2.5975000000000001
21
2.5
0
LINE
8
BLACK
6
CONTINUOUS
10
2.5975000000000001
20
2.5
11
2.5975000000000001
21
2.4649999999999999
0
LINE
8
BLACK
6
CONTINUOUS
10
2.6824673622047244
20
2.5041326771653543
11
2.6856605118110237
21
2.5019990944881889
0
LINE
8
BLACK
6
CONTINUOUS
10
2.6856605118110237
20
2.5019990944881889
11
2.6877940944881891
21
2.4988059448818896
0
LINE
8
BLACK
6
CONTINUOUS
10
2.6877940944881891
20
2.4988059448818896
11
2.688543307086614
21
2.4950393700787399
0
LINE
8
BLACK
6
CONTINUOUS
10
2.688543307086614
20
2.4950393700787399
11
2.688543307086614
21
2.4753543307086612
0
LINE
8
BLACK
6
CONTINUOUS
10
2.688543307086614
20
2.4753543307086612
11
2.6877940944881891
21
2.4715877559055119
0
LINE
8
BLACK
6
CONTINUOUS
10
2.6877940944881891
20
2.4715877559055119
11
2.6856605118110237
21
2.4683946062992126
0
LINE
8
BLACK
6
CONTINUOUS
10
2.6856605118110237
20
2.4683946062992126
11
2.6824673622047244
21
2.4662610236220472
0
LINE
8
BLACK
6
CONTINUOUS
10
2.6824673622047244
20
2.4662610236220472
11
2.6787007874015747
21
2.4655118110236218
0
LINE
8
BLACK
6
CONTINUOUS
10
2.6787007874015747
20
2.4655118110236218
11
2.6412992125984252
21
2.4655118110236218
0
LINE
8
BLACK
6
CONTINUOUS
10
2.6412992125984252
20
2.4655118110236218
11
2.6375326377952755
21
2.4662610236220472
0
LINE
8
BLACK
6
CONTINUOUS
10
2.6375326377952755
20
2.4662610236220472
11
2.6343394881889761
21
2.4683946062992126
0
LINE
8
BLACK
6
CONTINUOUS
10
2.6343394881889761
20
2.4683946062992126
11
2.6322059055118108
21
2.4715877559055119
0
LINE
8
BLACK
6
CONTINUOUS
10
2.6322059055118108
20
2.4715877559055119
11
2.6314566929133858
21
2.4753543307086612
0
LINE
8
BLACK
6
CONTINUOUS
10
2.6314566929133858
20
2.4753543307086612
11
2.6314566929133858
21
2.4950393700787399
0
LINE
8
BLACK
6
CONTINUOUS
10
2.6314566929133858
20
2.4950393700787399
11
2.6322059055118108
21
2.4988059448818896
0
LINE
8
BLACK
6
CONTINUOUS
10
2.6322059055118108
20
2.4988059448818896
11
2.6343394881889761
21
2.5019990944881889
0
LINE
8
BLACK
6
CONTINUOUS
10
2.6343394881889761
20
2.5019990944881889
11
2.6375326377952755
21
2.5041326771653543
0
LINE
8
BLACK
6
CONTINUOUS
10
2.6375326377952755
20
2.5041326771653543
11
2.6412992125984252
21
2.5048818897637797
0
LINE
8
BLACK
6
CONTINUOUS
10
2.6412992125984252
20
2.5048818897637797
11
2.6787007874015747
21
2.5048818897637797
0
LINE
8
BLACK
6
CONTINUOUS
10
2.6787007874015747
20
2.5048818897637797
11
2.6824673622047244
21
2.5041326771653543
0
LINE
8
BLACK
6
CONTINUOUS
10
2.5975000000000001
20
2.54
11
2.5425
21
2.54
0
LINE
8
BLACK
6
CONTINUOUS
10
2.5425
20
2.54
11
2.5425
21
2.5749999999999997
0
LINE
8
BLACK
6
CONTINUOUS
10
2.5425
20
2.5749999999999997
11
2.5975000000000001
21
2.5749999999999997
0
LINE
8
BLACK
6
CONTINUOUS
10
2.5975000000000001
20
2.5749999999999997
11
2.5975000000000001
21
2.54
0
LINE
8
BLACK
6
CONTINUOUS
10
2.6824673622047244
20
2.5789358267716533
11
2.6856605118110237
21
2.576802244094488
0
LINE
8
BLACK
6
CONTINUOUS
10
2.6856605118110237
20
2.576802244094488
11
2.6877940944881891
21
2.5736090944881891
0
LINE
8
BLACK
6
CONTINUOUS
10
2.6877940944881891
20
2.5736090944881891
11
2.688543307086614
21
2.5698425196850394
0
LINE
8
BLACK
6
CONTINUOUS
10
2.688543307086614
20
2.5698425196850394
11
2.688543307086614
21
2.5501574803149607
0
LINE
8
BLACK
6
CONTINUOUS
10
2.688543307086614
20
2.5501574803149607
11
2.6877940944881891
21
2.546390905511811
0
LINE
8
BLACK
6
CONTINUOUS
10
2.6877940944881891
20
2.546390905511811
11
2.6856605118110237
21
2.5431977559055117
0
LINE
8
BLACK
6
CONTINUOUS
10
2.6856605118110237
20
2.5431977559055117
11
2.6824673622047244
21
2.5410641732283463
0
LINE
8
BLACK
6
CONTINUOUS
10
2.6824673622047244
20
2.5410641732283463
11
2.6787007874015747
21
2.5403149606299213
0
LINE
8
BLACK
6
CONTINUOUS
10
2.6787007874015747
20
2.5403149606299213
11
2.6412992125984252
21
2.5403149606299213
0
LINE
8
BLACK
6
CONTINUOUS
10
2.6412992125984252
20
2.5403149606299213
11
2.6375326377952755
21
2.5410641732283463
0
LINE
8
BLACK
6
CONTINUOUS
10
2.6375326377952755
20
2.5410641732283463
11
2.6343394881889761
21
2.5431977559055117
0
LINE
8
BLACK
6
CONTINUOUS
10
2.6343394881889761
20
2.5431977559055117
11
2.6322059055118108
21
2.546390905511811
0
LINE
8
BLACK
6
CONTINUOUS
10
2.6322059055118108
20
2.546390905511811
11
2.6314566929133858
21
2.5501574803149607
0
LINE
8
BLACK
6
CONTINUOUS
10
2.6314566929133858
20
2.5501574803149607
11
2.6314566929133858
21
2.5698425196850394
0
LINE
8
BLACK
6
CONTINUOUS
10
2.6314566929133858
20
2.5698425196850394
11
2.6322059055118108
21
2.5736090944881891
0
LINE
8
BLACK
6
CONTINUOUS
10
2.6322059055118108
20
2.5736090944881891
11
2.6343394881889761
21
2.576802244094488
0
LINE
8
BLACK
6
CONTINUOUS
10
2.6343394881889761
20
2.576802244094488
11
2.6375326377952755
21
2.5789358267716533
0
LINE
8
BLACK
6
CONTINUOUS
10
2.6375326377952755
20
2.5789358267716533
11
2.6412992125984252
21
2.5796850393700788
0
LINE
8
BLACK
6
CONTINUOUS
10
2.6412992125984252
20
2.5796850393700788
11
2.6787007874015747
21
2.5796850393700788
0
LINE
8
BLACK
6
CONTINUOUS
10
2.6787007874015747
20
2.5796850393700788
11
2.6824673622047244
21
2.5789358267716533
0
LINE
8
BLACK
6
CONTINUOUS
10
1.8209448818897638
20
2.6194700787401572
11
1.8236555511811023
21
2.6190462598425195
0
LINE
8
BLACK
6
CONTINUOUS
10
1.8236555511811023
20
2.6190462598425195
11
1.8262782677165355
21
2.6174462204724409
0
LINE
8
BLACK
6
CONTINUOUS
10
1.8262782677165355
20
2.6174462204724409
11
1.8280890551181102
21
2.6149642519685039
0
LINE
8
BLACK
6
CONTINUOUS
10
1.8280890551181102
20
2.6149642519685039
11
1.8288122047244093
21
2.611978307086614
0
LINE
8
BLACK
6
CONTINUOUS
10
1.8288122047244093
20
2.611978307086614
11
1.8283375984251968
21
2.6089428740157481
0
LINE
8
BLACK
6
CONTINUOUS
10
1.8283375984251968
20
2.6089428740157481
11
1.8283376377952756
21
2.6089428740157481
0
LINE
8
BLACK
6
CONTINUOUS
10
1.8283376377952756
20
2.6089428740157481
11
1.8270076771653543
21
2.6053117716535432
0
LINE
8
BLACK
6
CONTINUOUS
10
1.8270076771653543
20
2.6053117716535432
11
1.825386968503937
21
2.597749527559055
0
LINE
8
BLACK
6
CONTINUOUS
10
1.825386968503937
20
2.597749527559055
11
1.8248398818897638
21
2.5900349606299211
0
LINE
8
BLACK
6
CONTINUOUS
10
1.8248398818897638
20
2.5900349606299211
11
1.8253772047244095
21
2.5823196850393701
0
LINE
8
BLACK
6
CONTINUOUS
10
1.8253772047244095
20
2.5823196850393701
11
1.8269883070866142
21
2.5747553543307085
0
LINE
8
BLACK
6
CONTINUOUS
10
1.8269883070866142
20
2.5747553543307085
11
1.8283136614173228
21
2.5711225984251969
0
LINE
8
BLACK
6
CONTINUOUS
10
1.8283136614173228
20
2.5711225984251969
11
1.828313622047244
21
2.5711225984251969
0
LINE
8
BLACK
6
CONTINUOUS
10
1.828313622047244
20
2.5711225984251969
11
1.8287843700787401
21
2.5680865748031496
0
LINE
8
BLACK
6
CONTINUOUS
10
1.8287843700787401
20
2.5680865748031496
11
1.8280574409448818
21
2.5651015354330706
0
LINE
8
BLACK
6
CONTINUOUS
10
1.8280574409448818
20
2.5651015354330706
11
1.8262435433070865
21
2.5626218897637796
0
LINE
8
BLACK
6
CONTINUOUS
10
1.8262435433070865
20
2.5626218897637796
11
1.8236187795275589
21
2.5610251574803149
0
LINE
8
BLACK
6
CONTINUOUS
10
1.8236187795275589
20
2.5610251574803149
11
1.8209448818897638
21
2.5606105905511809
0
LINE
8
BLACK
6
CONTINUOUS
10
1.8209448818897638
20
2.5606105905511809
11
1.8209448818897638
21
2.5604724409448818
0
LINE
8
BLACK
6
CONTINUOUS
10
1.8209448818897638
20
2.5604724409448818
11
1.7796062992125983
21
2.5604724409448818
0
LINE
8
BLACK
6
CONTINUOUS
10
1.7796062992125983
20
2.5604724409448818
11
1.7796062992125983
21
2.6195275590551179
0
LINE
8
BLACK
6
CONTINUOUS
10
1.7796062992125983
20
2.6195275590551179
11
1.8209448818897638
21
2.6195275590551179
0
LINE
8
BLACK
6
CONTINUOUS
10
1.8209448818897638
20
2.6195275590551179
11
1.8209448818897638
21
2.6194700787401572
0
LINE
8
BLACK
6
CONTINUOUS
10
1.9803937007874015
20
2.5604724409448818
11
1.9390551181102362
21
2.5604724409448818
0
LINE
8
BLACK
6
CONTINUOUS
10
1.9390551181102362
20
2.5604724409448818
11
1.9390551181102362
21
2.5605299212598425
0
LINE
8
BLACK
6
CONTINUOUS
10
1.9390551181102362
20
2.5605299212598425
11
1.9363444488188977
21
2.5609537401574802
0
LINE
8
BLACK
6
CONTINUOUS
10
1.9363444488188977
20
2.5609537401574802
11
1.9337217322834646
21
2.5625537795275588
0
LINE
8
BLACK
6
CONTINUOUS
10
1.9337217322834646
20
2.5625537795275588
11
1.9319109448818896
21
2.5650357480314958
0
LINE
8
BLACK
6
CONTINUOUS
10
1.9319109448818896
20
2.5650357480314958
11
1.9311877952755905
21
2.5680216929133857
0
LINE
8
BLACK
6
CONTINUOUS
10
1.9311877952755905
20
2.5680216929133857
11
1.9316624015748032
21
2.5710571259842521
0
LINE
8
BLACK
6
CONTINUOUS
10
1.9316624015748032
20
2.5710571259842521
11
1.9316623622047244
21
2.5710571259842521
0
LINE
8
BLACK
6
CONTINUOUS
10
1.9316623622047244
20
2.5710571259842521
11
1.9329923228346457
21
2.5746882283464565
0
LINE
8
BLACK
6
CONTINUOUS
10
1.9329923228346457
20
2.5746882283464565
11
1.934613031496063
21
2.5822504724409447
0
LINE
8
BLACK
6
CONTINUOUS
10
1.934613031496063
20
2.5822504724409447
11
1.9351601181102362
21
2.5899650393700786
0
LINE
8
BLACK
6
CONTINUOUS
10
1.9351601181102362
20
2.5899650393700786
11
1.9346227952755906
21
2.59768031496063
0
LINE
8
BLACK
6
CONTINUOUS
10
1.9346227952755906
20
2.59768031496063
11
1.9330116929133858
21
2.6052446456692913
0
LINE
8
BLACK
6
CONTINUOUS
10
1.9330116929133858
20
2.6052446456692913
11
1.931686338582677
21
2.6088774015748033
0
LINE
8
BLACK
6
CONTINUOUS
10
1.931686338582677
20
2.6088774015748033
11
1.9316863779527558
21
2.6088774015748033
0
LINE
8
BLACK
6
CONTINUOUS
10
1.9316863779527558
20
2.6088774015748033
11
1.9312156299212597
21
2.6119134251968505
0
LINE
8
BLACK
6
CONTINUOUS
10
1.9312156299212597
20
2.6119134251968505
11
1.931942559055118
21
2.6148984645669291
0
LINE
8
BLACK
6
CONTINUOUS
10
1.931942559055118
20
2.6148984645669291
11
1.9337564566929133
21
2.6173781102362206
0
LINE
8
BLACK
6
CONTINUOUS
10
1.9337564566929133
20
2.6173781102362206
11
1.9363812204724409
21
2.6189748425196848
0
LINE
8
BLACK
6
CONTINUOUS
10
1.9363812204724409
20
2.6189748425196848
11
1.9390551181102362
21
2.6193894094488188
0
LINE
8
BLACK
6
CONTINUOUS
10
1.9390551181102362
20
2.6193894094488188
11
1.9390551181102362
21
2.6195275590551179
0
LINE
8
BLACK
6
CONTINUOUS
10
1.9390551181102362
20
2.6195275590551179
11
1.9803937007874015
21
2.6195275590551179
0
LINE
8
BLACK
6
CONTINUOUS
10
1.9803937007874015
20
2.6195275590551179
11
1.9803937007874015
21
2.5604724409448818
0
LINE
8
BLACK
6
CONTINUOUS
10
2.0674999999999999
20
2.5641666929133859
11
2.0124999999999997
21
2.5641666929133859
0
LINE
8
BLACK
6
CONTINUOUS
10
2.0124999999999997
20
2.5641666929133859
11
2.0124999999999997
21
2.5991666929133856
0
LINE
8
BLACK
6
CONTINUOUS
10
2.0124999999999997
20
2.5991666929133856
11
2.0674999999999999
21
2.5991666929133856
0
LINE
8
BLACK
6
CONTINUOUS
10
2.0674999999999999
20
2.5991666929133856
11
2.0674999999999999
21
2.5641666929133859
0
LINE
8
BLACK
6
CONTINUOUS
10
2.8754330708661415
20
2.5820472440944879
11
2.8045669291338582
21
2.5820472440944879
0
LINE
8
BLACK
6
CONTINUOUS
10
2.8045669291338582
20
2.5820472440944879
11
2.8045669291338582
21
2.6804724409448819
0
LINE
8
BLACK
6
CONTINUOUS
10
2.8045669291338582
20
2.6804724409448819
11
2.8754330708661415
21
2.6804724409448819
0
LINE
8
BLACK
6
CONTINUOUS
10
2.8754330708661415
20
2.6804724409448819
11
2.8754330708661415
21
2.5820472440944879
0
LINE
8
BLACK
6
CONTINUOUS
10
2.0674999999999999
20
2.6391666929133857
11
2.0124999999999997
21
2.6391666929133857
0
LINE
8
BLACK
6
CONTINUOUS
10
2.0124999999999997
20
2.6391666929133857
11
2.0124999999999997
21
2.6741666929133858
0
LINE
8
BLACK
6
CONTINUOUS
10
2.0124999999999997
20
2.6741666929133858
11
2.0674999999999999
21
2.6741666929133858
0
LINE
8
BLACK
6
CONTINUOUS
10
2.0674999999999999
20
2.6741666929133858
11
2.0674999999999999
21
2.6391666929133857
0
LINE
8
BLACK
6
CONTINUOUS
10
2.6400000000000001
20
2.6825000000000001
11
2.605
21
2.6825000000000001
0
LINE
8
BLACK
6
CONTINUOUS
10
2.605
20
2.6825000000000001
11
2.605
21
2.7374999999999998
0
LINE
8
BLACK
6
CONTINUOUS
10
2.605
20
2.7374999999999998
11
2.6400000000000001
21
2.7374999999999998
0
LINE
8
BLACK
6
CONTINUOUS
10
2.6400000000000001
20
2.7374999999999998
11
2.6400000000000001
21
2.6825000000000001
0
LINE
8
BLACK
6
CONTINUOUS
10
2.7149999999999999
20
2.6825000000000001
11
2.6800000000000002
21
2.6825000000000001
0
LINE
8
BLACK
6
CONTINUOUS
10
2.6800000000000002
20
2.6825000000000001
11
2.6800000000000002
21
2.7374999999999998
0
LINE
8
BLACK
6
CONTINUOUS
10
2.6800000000000002
20
2.7374999999999998
11
2.7149999999999999
21
2.7374999999999998
0
LINE
8
BLACK
6
CONTINUOUS
10
2.7149999999999999
20
2.7374999999999998
11
2.7149999999999999
21
2.6825000000000001
0
LINE
8
BLACK
6
CONTINUOUS
10
1.8653543307086613
20
2.7240682677165355
11
1.7866141732283465
21
2.7240682677165355
0
LINE
8
BLACK
6
CONTINUOUS
10
1.7866141732283465
20
2.7240682677165355
11
1.7866141732283465
21
2.7492651181102361
0
LINE
8
BLACK
6
CONTINUOUS
10
1.7866141732283465
20
2.7492651181102361
11
1.8653543307086613
21
2.7492651181102361
0
LINE
8
BLACK
6
CONTINUOUS
10
1.8653543307086613
20
2.7492651181102361
11
1.8653543307086613
21
2.7240682677165355
0
LINE
8
BLACK
6
CONTINUOUS
10
2.1133858267716534
20
2.7240682677165355
11
2.0346456692913386
21
2.7240682677165355
0
LINE
8
BLACK
6
CONTINUOUS
10
2.0346456692913386
20
2.7240682677165355
11
2.0346456692913386
21
2.7492651181102361
0
LINE
8
BLACK
6
CONTINUOUS
10
2.0346456692913386
20
2.7492651181102361
11
2.1133858267716534
21
2.7492651181102361
0
LINE
8
BLACK
6
CONTINUOUS
10
2.1133858267716534
20
2.7492651181102361
11
2.1133858267716534
21
2.7240682677165355
0
LINE
8
BLACK
6
CONTINUOUS
10
2.8754330708661415
20
2.739527559055118
11
2.8045669291338582
21
2.739527559055118
0
LINE
8
BLACK
6
CONTINUOUS
10
2.8045669291338582
20
2.739527559055118
11
2.8045669291338582
21
2.8379527559055115
0
LINE
8
BLACK
6
CONTINUOUS
10
2.8045669291338582
20
2.8379527559055115
11
2.8754330708661415
21
2.8379527559055115
0
LINE
8
BLACK
6
CONTINUOUS
10
2.8754330708661415
20
2.8379527559055115
11
2.8754330708661415
21
2.739527559055118
0
LINE
8
BLACK
6
CONTINUOUS
10
2.6400000000000001
20
2.7824999999999998
11
2.605
21
2.7824999999999998
0
LINE
8
BLACK
6
CONTINUOUS
10
2.605
20
2.7824999999999998
11
2.605
21
2.8374999999999999
0
LINE
8
BLACK
6
CONTINUOUS
10
2.605
20
2.8374999999999999
11
2.6400000000000001
21
2.8374999999999999
0
LINE
8
BLACK
6
CONTINUOUS
10
2.6400000000000001
20
2.8374999999999999
11
2.6400000000000001
21
2.7824999999999998
0
LINE
8
BLACK
6
CONTINUOUS
10
2.7149999999999999
20
2.7824999999999998
11
2.6800000000000002
21
2.7824999999999998
0
LINE
8
BLACK
6
CONTINUOUS
10
2.6800000000000002
20
2.7824999999999998
11
2.6800000000000002
21
2.8374999999999999
0
LINE
8
BLACK
6
CONTINUOUS
10
2.6800000000000002
20
2.8374999999999999
11
2.7149999999999999
21
2.8374999999999999
0
LINE
8
BLACK
6
CONTINUOUS
10
2.7149999999999999
20
2.8374999999999999
11
2.7149999999999999
21
2.7824999999999998
0
LINE
8
BLACK
6
CONTINUOUS
10
1.8653543307086613
20
2.8240682677165352
11
1.7866141732283465
21
2.8240682677165352
0
LINE
8
BLACK
6
CONTINUOUS
10
1.7866141732283465
20
2.8240682677165352
11
1.7866141732283465
21
2.8492651181102362
0
LINE
8
BLACK
6
CONTINUOUS
10
1.7866141732283465
20
2.8492651181102362
11
1.8653543307086613
21
2.8492651181102362
0
LINE
8
BLACK
6
CONTINUOUS
10
1.8653543307086613
20
2.8492651181102362
11
1.8653543307086613
21
2.8240682677165352
0
LINE
8
BLACK
6
CONTINUOUS
10
2.1133858267716534
20
2.8240682677165352
11
2.0346456692913386
21
2.8240682677165352
0
LINE
8
BLACK
6
CONTINUOUS
10
2.0346456692913386
20
2.8240682677165352
11
2.0346456692913386
21
2.8492651181102362
0
LINE
8
BLACK
6
CONTINUOUS
10
2.0346456692913386
20
2.8492651181102362
11
2.1133858267716534
21
2.8492651181102362
0
LINE
8
BLACK
6
CONTINUOUS
10
2.1133858267716534
20
2.8492651181102362
11
2.1133858267716534
21
2.8240682677165352
0
LINE
8
BLACK
6
CONTINUOUS
10
2.6400000000000001
20
2.8824999999999998
11
2.605
21
2.8824999999999998
0
LINE
8
BLACK
6
CONTINUOUS
10
2.605
20
2.8824999999999998
11
2.605
21
2.9375
0
LINE
8
BLACK
6
CONTINUOUS
10
2.605
20
2.9375
11
2.6400000000000001
21
2.9375
0
LINE
8
BLACK
6
CONTINUOUS
10
2.6400000000000001
20
2.9375
11
2.6400000000000001
21
2.8824999999999998
0
LINE
8
BLACK
6
CONTINUOUS
10
2.7149999999999999
20
2.8824999999999998
11
2.6800000000000002
21
2.8824999999999998
0
LINE
8
BLACK
6
CONTINUOUS
10
2.6800000000000002
20
2.8824999999999998
11
2.6800000000000002
21
2.9375
0
LINE
8
BLACK
6
CONTINUOUS
10
2.6800000000000002
20
2.9375
11
2.7149999999999999
21
2.9375
0
LINE
8
BLACK
6
CONTINUOUS
10
2.7149999999999999
20
2.9375
11
2.7149999999999999
21
2.8824999999999998
0
LINE
8
BLACK
6
CONTINUOUS
10
1.8209448818897638
20
3.0394700787401576
11
1.8236555511811023
21
3.0390462598425194
0
LINE
8
BLACK
6
CONTINUOUS
10
1.8236555511811023
20
3.0390462598425194
11
1.8262782677165355
21
3.0374462204724408
0
LINE
8
BLACK
6
CONTINUOUS
10
1.8262782677165355
20
3.0374462204724408
11
1.8280890551181102
21
3.0349642519685038
0
LINE
8
BLACK
6
CONTINUOUS
10
1.8280890551181102
20
3.0349642519685038
11
1.8288122047244093
21
3.031978307086614
0
LINE
8
BLACK
6
CONTINUOUS
10
1.8288122047244093
20
3.031978307086614
11
1.8283375984251968
21
3.028942874015748
0
LINE
8
BLACK
6
CONTINUOUS
10
1.8283375984251968
20
3.028942874015748
11
1.8283376377952756
21
3.028942874015748
0
LINE
8
BLACK
6
CONTINUOUS
10
1.8283376377952756
20
3.028942874015748
11
1.8270076771653543
21
3.0253117716535431
0
LINE
8
BLACK
6
CONTINUOUS
10
1.8270076771653543
20
3.0253117716535431
11
1.825386968503937
21
3.0177495275590549
0
LINE
8
BLACK
6
CONTINUOUS
10
1.825386968503937
20
3.0177495275590549
11
1.8248398818897638
21
3.010034960629921
0
LINE
8
BLACK
6
CONTINUOUS
10
1.8248398818897638
20
3.010034960629921
11
1.8253772047244095
21
3.0023196850393701
0
LINE
8
BLACK
6
CONTINUOUS
10
1.8253772047244095
20
3.0023196850393701
11
1.8269883070866142
21
2.9947553543307084
0
LINE
8
BLACK
6
CONTINUOUS
10
1.8269883070866142
20
2.9947553543307084
11
1.8283136614173228
21
2.9911225984251968
0
LINE
8
BLACK
6
CONTINUOUS
10
1.8283136614173228
20
2.9911225984251968
11
1.828313622047244
21
2.9911225984251968
0
LINE
8
BLACK
6
CONTINUOUS
10
1.828313622047244
20
2.9911225984251968
11
1.8287843700787401
21
2.9880865748031495
0
LINE
8
BLACK
6
CONTINUOUS
10
1.8287843700787401
20
2.9880865748031495
11
1.8280574409448818
21
2.985101535433071
0
LINE
8
BLACK
6
CONTINUOUS
10
1.8280574409448818
20
2.985101535433071
11
1.8262435433070865
21
2.9826218897637795
0
LINE
8
BLACK
6
CONTINUOUS
10
1.8262435433070865
20
2.9826218897637795
11
1.8236187795275589
21
2.9810251574803148
0
LINE
8
BLACK
6
CONTINUOUS
10
1.8236187795275589
20
2.9810251574803148
11
1.8209448818897638
21
2.9806105905511808
0
LINE
8
BLACK
6
CONTINUOUS
10
1.8209448818897638
20
2.9806105905511808
11
1.8209448818897638
21
2.9804724409448817
0
LINE
8
BLACK
6
CONTINUOUS
10
1.8209448818897638
20
2.9804724409448817
11
1.7796062992125983
21
2.9804724409448817
0
LINE
8
BLACK
6
CONTINUOUS
10
1.7796062992125983
20
2.9804724409448817
11
1.7796062992125983
21
3.0395275590551178
0
LINE
8
BLACK
6
CONTINUOUS
10
1.7796062992125983
20
3.0395275590551178
11
1.8209448818897638
21
3.0395275590551178
0
LINE
8
BLACK
6
CONTINUOUS
10
1.8209448818897638
20
3.0395275590551178
11
1.8209448818897638
21
3.0394700787401576
0
LINE
8
BLACK
6
CONTINUOUS
10
1.9803937007874015
20
2.9804724409448817
11
1.9390551181102362
21
2.9804724409448817
0
LINE
8
BLACK
6
CONTINUOUS
10
1.9390551181102362
20
2.9804724409448817
11
1.9390551181102362
21
2.9805299212598424
0
LINE
8
BLACK
6
CONTINUOUS
10
1.9390551181102362
20
2.9805299212598424
11
1.9363444488188977
21
2.9809537401574802
0
LINE
8
BLACK
6
CONTINUOUS
10
1.9363444488188977
20
2.9809537401574802
11
1.9337217322834646
21
2.9825537795275592
0
LINE
8
BLACK
6
CONTINUOUS
10
1.9337217322834646
20
2.9825537795275592
11
1.9319109448818896
21
2.9850357480314962
0
LINE
8
BLACK
6
CONTINUOUS
10
1.9319109448818896
20
2.9850357480314962
11
1.9311877952755905
21
2.9880216929133856
0
LINE
8
BLACK
6
CONTINUOUS
10
1.9311877952755905
20
2.9880216929133856
11
1.9316624015748032
21
2.991057125984252
0
LINE
8
BLACK
6
CONTINUOUS
10
1.9316624015748032
20
2.991057125984252
11
1.9316623622047244
21
2.991057125984252
0
LINE
8
BLACK
6
CONTINUOUS
10
1.9316623622047244
20
2.991057125984252
11
1.9329923228346457
21
2.9946882283464564
0
LINE
8
BLACK
6
CONTINUOUS
10
1.9329923228346457
20
2.9946882283464564
11
1.934613031496063
21
3.0022504724409447
0
LINE
8
BLACK
6
CONTINUOUS
10
1.934613031496063
20
3.0022504724409447
11
1.9351601181102362
21
3.0099650393700785
0
LINE
8
BLACK
6
CONTINUOUS
10
1.9351601181102362
20
3.0099650393700785
11
1.9346227952755906
21
3.0176803149606299
0
LINE
8
BLACK
6
CONTINUOUS
10
1.9346227952755906
20
3.0176803149606299
11
1.9330116929133858
21
3.0252446456692912
0
LINE
8
BLACK
6
CONTINUOUS
10
1.9330116929133858
20
3.0252446456692912
11
1.931686338582677
21
3.0288774015748032
0
LINE
8
BLACK
6
CONTINUOUS
10
1.931686338582677
20
3.0288774015748032
11
1.9316863779527558
21
3.0288774015748032
0
LINE
8
BLACK
6
CONTINUOUS
10
1.9316863779527558
20
3.0288774015748032
11
1.9312156299212597
21
3.0319134251968505
0
LINE
8
BLACK
6
CONTINUOUS
10
1.9312156299212597
20
3.0319134251968505
11
1.931942559055118
21
3.034898464566929
0
LINE
8
BLACK
6
CONTINUOUS
10
1.931942559055118
20
3.034898464566929
11
1.9337564566929133
21
3.0373781102362205
0
LINE
8
BLACK
6
CONTINUOUS
10
1.9337564566929133
20
3.0373781102362205
11
1.9363812204724409
21
3.0389748425196847
0
LINE
8
BLACK
6
CONTINUOUS
10
1.9363812204724409
20
3.0389748425196847
11
1.9390551181102362
21
3.0393894094488187
0
LINE
8
BLACK
6
CONTINUOUS
10
1.9390551181102362
20
3.0393894094488187
11
1.9390551181102362
21
3.0395275590551178
0
LINE
8
BLACK
6
CONTINUOUS
10
1.9390551181102362
20
3.0395275590551178
11
1.9803937007874015
21
3.0395275590551178
0
LINE
8
BLACK
6
CONTINUOUS
10
1.9803937007874015
20
3.0395275590551178
11
1.9803937007874015
21
2.9804724409448817
0
LINE
8
BLACK
6
CONTINUOUS
10
2.6400000000000001
20
2.9824999999999999
11
2.605
21
2.9824999999999999
0
LINE
8
BLACK
6
CONTINUOUS
10
2.605
20
2.9824999999999999
11
2.605
21
3.0375000000000001
0
LINE
8
BLACK
6
CONTINUOUS
10
2.605
20
3.0375000000000001
11
2.6400000000000001
21
3.0375000000000001
0
LINE
8
BLACK
6
CONTINUOUS
10
2.6400000000000001
20
3.0375000000000001
11
2.6400000000000001
21
2.9824999999999999
0
LINE
8
BLACK
6
CONTINUOUS
10
2.7149999999999999
20
2.9824999999999999
11
2.6800000000000002
21
2.9824999999999999
0
LINE
8
BLACK
6
CONTINUOUS
10
2.6800000000000002
20
2.9824999999999999
11
2.6800000000000002
21
3.0375000000000001
0
LINE
8
BLACK
6
CONTINUOUS
10
2.6800000000000002
20
3.0375000000000001
11
2.7149999999999999
21
3.0375000000000001
0
LINE
8
BLACK
6
CONTINUOUS
10
2.7149999999999999
20
3.0375000000000001
11
2.7149999999999999
21
2.9824999999999999
0
LINE
8
BLACK
6
CONTINUOUS
10
2.0674999999999999
20
2.9845833464566929
11
2.0124999999999997
21
2.9845833464566929
0
LINE
8
BLACK
6
CONTINUOUS
10
2.0124999999999997
20
2.9845833464566929
11
2.0124999999999997
21
3.019583346456693
0
LINE
8
BLACK
6
CONTINUOUS
10
2.0124999999999997
20
3.019583346456693
11
2.0674999999999999
21
3.019583346456693
0
LINE
8
BLACK
6
CONTINUOUS
10
2.0674999999999999
20
3.019583346456693
11
2.0674999999999999
21
2.9845833464566929
0
LINE
8
BLACK
6
CONTINUOUS
10
2.0674999999999999
20
3.0595833464566931
11
2.0124999999999997
21
3.0595833464566931
0
LINE
8
BLACK
6
CONTINUOUS
10
2.0124999999999997
20
3.0595833464566931
11
2.0124999999999997
21
3.0945833464566928
0
LINE
8
BLACK
6
CONTINUOUS
10
2.0124999999999997
20
3.0945833464566928
11
2.0674999999999999
21
3.0945833464566928
0
LINE
8
BLACK
6
CONTINUOUS
10
2.0674999999999999
20
3.0945833464566928
11
2.0674999999999999
21
3.0595833464566931
0
LINE
8
BLACK
6
CONTINUOUS
10
2.6400000000000001
20
3.0825
11
2.605
21
3.0825
0
LINE
8
BLACK
6
CONTINUOUS
10
2.605
20
3.0825
11
2.605
21
3.1374999999999997
0
LINE
8
BLACK
6
CONTINUOUS
10
2.605
20
3.1374999999999997
11
2.6400000000000001
21
3.1374999999999997
0
LINE
8
BLACK
6
CONTINUOUS
10
2.6400000000000001
20
3.1374999999999997
11
2.6400000000000001
21
3.0825
0
LINE
8
BLACK
6
CONTINUOUS
10
2.7149999999999999
20
3.0825
11
2.6800000000000002
21
3.0825
0
LINE
8
BLACK
6
CONTINUOUS
10
2.6800000000000002
20
3.0825
11
2.6800000000000002
21
3.1374999999999997
0
LINE
8
BLACK
6
CONTINUOUS
10
2.6800000000000002
20
3.1374999999999997
11
2.7149999999999999
21
3.1374999999999997
0
LINE
8
BLACK
6
CONTINUOUS
10
2.7149999999999999
20
3.1374999999999997
11
2.7149999999999999
21
3.0825
0
LINE
8
BLACK
6
CONTINUOUS
10
1.8653543307086613
20
3.1457349212598427
11
1.7866141732283465
21
3.1457349212598427
0
LINE
8
BLACK
6
CONTINUOUS
10
1.7866141732283465
20
3.1457349212598427
11
1.7866141732283465
21
3.1709317716535432
0
LINE
8
BLACK
6
CONTINUOUS
10
1.7866141732283465
20
3.1709317716535432
11
1.8653543307086613
21
3.1709317716535432
0
LINE
8
BLACK
6
CONTINUOUS
10
1.8653543307086613
20
3.1709317716535432
11
1.8653543307086613
21
3.1457349212598427
0
LINE
8
BLACK
6
CONTINUOUS
10
2.1133858267716534
20
3.1457349212598427
11
2.0346456692913386
21
3.1457349212598427
0
LINE
8
BLACK
6
CONTINUOUS
10
2.0346456692913386
20
3.1457349212598427
11
2.0346456692913386
21
3.1709317716535432
0
LINE
8
BLACK
6
CONTINUOUS
10
2.0346456692913386
20
3.1709317716535432
11
2.1133858267716534
21
3.1709317716535432
0
LINE
8
BLACK
6
CONTINUOUS
10
2.1133858267716534
20
3.1709317716535432
11
2.1133858267716534
21
3.1457349212598427
0
LINE
8
BLACK
6
CONTINUOUS
10
2.6400000000000001
20
3.1825000000000001
11
2.605
21
3.1825000000000001
0
LINE
8
BLACK
6
CONTINUOUS
10
2.605
20
3.1825000000000001
11
2.605
21
3.2374999999999998
0
LINE
8
BLACK
6
CONTINUOUS
10
2.605
20
3.2374999999999998
11
2.6400000000000001
21
3.2374999999999998
0
LINE
8
BLACK
6
CONTINUOUS
10
2.6400000000000001
20
3.2374999999999998
11
2.6400000000000001
21
3.1825000000000001
0
LINE
8
BLACK
6
CONTINUOUS
10
2.7149999999999999
20
3.1825000000000001
11
2.6800000000000002
21
3.1825000000000001
0
LINE
8
BLACK
6
CONTINUOUS
10
2.6800000000000002
20
3.1825000000000001
11
2.6800000000000002
21
3.2374999999999998
0
LINE
8
BLACK
6
CONTINUOUS
10
2.6800000000000002
20
3.2374999999999998
11
2.7149999999999999
21
3.2374999999999998
0
LINE
8
BLACK
6
CONTINUOUS
10
2.7149999999999999
20
3.2374999999999998
11
2.7149999999999999
21
3.1825000000000001
0
LINE
8
BLACK
6
CONTINUOUS
10
1.8653543307086613
20
3.2457349212598423
11
1.7866141732283465
21
3.2457349212598423
0
LINE
8
BLACK
6
CONTINUOUS
10
1.7866141732283465
20
3.2457349212598423
11
1.7866141732283465
21
3.2709317716535433
0
LINE
8
BLACK
6
CONTINUOUS
10
1.7866141732283465
20
3.2709317716535433
11
1.8653543307086613
21
3.2709317716535433
0
LINE
8
BLACK
6
CONTINUOUS
10
1.8653543307086613
20
3.2709317716535433
11
1.8653543307086613
21
3.2457349212598423
0
LINE
8
BLACK
6
CONTINUOUS
10
2.1133858267716534
20
3.2457349212598423
11
2.0346456692913386
21
3.2457349212598423
0
LINE
8
BLACK
6
CONTINUOUS
10
2.0346456692913386
20
3.2457349212598423
11
2.0346456692913386
21
3.2709317716535433
0
LINE
8
BLACK
6
CONTINUOUS
10
2.0346456692913386
20
3.2709317716535433
11
2.1133858267716534
21
3.2709317716535433
0
LINE
8
BLACK
6
CONTINUOUS
10
2.1133858267716534
20
3.2709317716535433
11
2.1133858267716534
21
3.2457349212598423
0
LINE
8
BLACK
6
CONTINUOUS
10
2.6400000000000001
20
3.2824999999999998
11
2.605
21
3.2824999999999998
0
LINE
8
BLACK
6
CONTINUOUS
10
2.605
20
3.2824999999999998
11
2.605
21
3.3374999999999999
0
LINE
8
BLACK
6
CONTINUOUS
10
2.605
20
3.3374999999999999
11
2.6400000000000001
21
3.3374999999999999
0
LINE
8
BLACK
6
CONTINUOUS
10
2.6400000000000001
20
3.3374999999999999
11
2.6400000000000001
21
3.2824999999999998
0
LINE
8
BLACK
6
CONTINUOUS
10
2.7149999999999999
20
3.2824999999999998
11
2.6800000000000002
21
3.2824999999999998
0
LINE
8
BLACK
6
CONTINUOUS
10
2.6800000000000002
20
3.2824999999999998
11
2.6800000000000002
21
3.3374999999999999
0
LINE
8
BLACK
6
CONTINUOUS
10
2.6800000000000002
20
3.3374999999999999
11
2.7149999999999999
21
3.3374999999999999
0
LINE
8
BLACK
6
CONTINUOUS
10
2.7149999999999999
20
3.3374999999999999
11
2.7149999999999999
21
3.2824999999999998
0
LINE
8
BLACK
6
CONTINUOUS
10
1.8209448818897638
20
3.4594700787401576
11
1.8236555511811023
21
3.4590462598425198
0
LINE
8
BLACK
6
CONTINUOUS
10
1.8236555511811023
20
3.4590462598425198
11
1.8262782677165355
21
3.4574462204724408
0
LINE
8
BLACK
6
CONTINUOUS
10
1.8262782677165355
20
3.4574462204724408
11
1.8280890551181102
21
3.4549642519685038
0
LINE
8
BLACK
6
CONTINUOUS
10
1.8280890551181102
20
3.4549642519685038
11
1.8288122047244093
21
3.4519783070866139
0
LINE
8
BLACK
6
CONTINUOUS
10
1.8288122047244093
20
3.4519783070866139
11
1.8283375984251968
21
3.448942874015748
0
LINE
8
BLACK
6
CONTINUOUS
10
1.8283375984251968
20
3.448942874015748
11
1.8283376377952756
21
3.448942874015748
0
LINE
8
BLACK
6
CONTINUOUS
10
1.8283376377952756
20
3.448942874015748
11
1.8270076771653543
21
3.4453117716535431
0
LINE
8
BLACK
6
CONTINUOUS
10
1.8270076771653543
20
3.4453117716535431
11
1.825386968503937
21
3.4377495275590548
0
LINE
8
BLACK
6
CONTINUOUS
10
1.825386968503937
20
3.4377495275590548
11
1.8248398818897638
21
3.430034960629921
0
LINE
8
BLACK
6
CONTINUOUS
10
1.8248398818897638
20
3.430034960629921
11
1.8253772047244095
21
3.42231968503937
0
LINE
8
BLACK
6
CONTINUOUS
10
1.8253772047244095
20
3.42231968503937
11
1.8269883070866142
21
3.4147553543307088
0
LINE
8
BLACK
6
CONTINUOUS
10
1.8269883070866142
20
3.4147553543307088
11
1.8283136614173228
21
3.4111225984251967
0
LINE
8
BLACK
6
CONTINUOUS
10
1.8283136614173228
20
3.4111225984251967
11
1.828313622047244
21
3.4111225984251967
0
LINE
8
BLACK
6
CONTINUOUS
10
1.828313622047244
20
3.4111225984251967
11
1.8287843700787401
21
3.4080865748031495
0
LINE
8
BLACK
6
CONTINUOUS
10
1.8287843700787401
20
3.4080865748031495
11
1.8280574409448818
21
3.4051015354330709
0
LINE
8
BLACK
6
CONTINUOUS
10
1.8280574409448818
20
3.4051015354330709
11
1.8262435433070865
21
3.4026218897637794
0
LINE
8
BLACK
6
CONTINUOUS
10
1.8262435433070865
20
3.4026218897637794
11
1.8236187795275589
21
3.4010251574803148
0
LINE
8
BLACK
6
CONTINUOUS
10
1.8236187795275589
20
3.4010251574803148
11
1.8209448818897638
21
3.4006105905511812
0
LINE
8
BLACK
6
CONTINUOUS
10
1.8209448818897638
20
3.4006105905511812
11
1.8209448818897638
21
3.4004724409448817
0
LINE
8
BLACK
6
CONTINUOUS
10
1.8209448818897638
20
3.4004724409448817
11
1.7796062992125983
21
3.4004724409448817
0
LINE
8
BLACK
6
CONTINUOUS
10
1.7796062992125983
20
3.4004724409448817
11
1.7796062992125983
21
3.4595275590551182
0
LINE
8
BLACK
6
CONTINUOUS
10
1.7796062992125983
20
3.4595275590551182
11
1.8209448818897638
21
3.4595275590551182
0
LINE
8
BLACK
6
CONTINUOUS
10
1.8209448818897638
20
3.4595275590551182
11
1.8209448818897638
21
3.4594700787401576
0
LINE
8
BLACK
6
CONTINUOUS
10
1.9803937007874015
20
3.4004724409448817
11
1.9390551181102362
21
3.4004724409448817
0
LINE
8
BLACK
6
CONTINUOUS
10
1.9390551181102362
20
3.4004724409448817
11
1.9390551181102362
21
3.4005299212598423
0
LINE
8
BLACK
6
CONTINUOUS
10
1.9390551181102362
20
3.4005299212598423
11
1.9363444488188977
21
3.4009537401574801
0
LINE
8
BLACK
6
CONTINUOUS
10
1.9363444488188977
20
3.4009537401574801
11
1.9337217322834646
21
3.4025537795275591
0
LINE
8
BLACK
6
CONTINUOUS
10
1.9337217322834646
20
3.4025537795275591
11
1.9319109448818896
21
3.4050357480314961
0
LINE
8
BLACK
6
CONTINUOUS
10
1.9319109448818896
20
3.4050357480314961
11
1.9311877952755905
21
3.408021692913386
0
LINE
8
BLACK
6
CONTINUOUS
10
1.9311877952755905
20
3.408021692913386
11
1.9316624015748032
21
3.4110571259842519
0
LINE
8
BLACK
6
CONTINUOUS
10
1.9316624015748032
20
3.4110571259842519
11
1.9316623622047244
21
3.4110571259842519
0
LINE
8
BLACK
6
CONTINUOUS
10
1.9316623622047244
20
3.4110571259842519
11
1.9329923228346457
21
3.4146882283464568
0
LINE
8
BLACK
6
CONTINUOUS
10
1.9329923228346457
20
3.4146882283464568
11
1.934613031496063
21
3.4222504724409446
0
LINE
8
BLACK
6
CONTINUOUS
10
1.934613031496063
20
3.4222504724409446
11
1.9351601181102362
21
3.4299650393700785
0
LINE
8
BLACK
6
CONTINUOUS
10
1.9351601181102362
20
3.4299650393700785
11
1.9346227952755906
21
3.4376803149606299
0
LINE
8
BLACK
6
CONTINUOUS
10
1.9346227952755906
20
3.4376803149606299
11
1.9330116929133858
21
3.4452446456692911
0
LINE
8
BLACK
6
CONTINUOUS
10
1.9330116929133858
20
3.4452446456692911
11
1.931686338582677
21
3.4488774015748032
0
LINE
8
BLACK
6
CONTINUOUS
10
1.931686338582677
20
3.4488774015748032
11
1.9316863779527558
21
3.4488774015748032
0
LINE
8
BLACK
6
CONTINUOUS
10
1.9316863779527558
20
3.4488774015748032
11
1.9312156299212597
21
3.4519134251968504
0
LINE
8
BLACK
6
CONTINUOUS
10
1.9312156299212597
20
3.4519134251968504
11
1.931942559055118
21
3.454898464566929
0
LINE
8
BLACK
6
CONTINUOUS
10
1.931942559055118
20
3.454898464566929
11
1.9337564566929133
21
3.4573781102362204
0
LINE
8
BLACK
6
CONTINUOUS
10
1.9337564566929133
20
3.4573781102362204
11
1.9363812204724409
21
3.4589748425196851
0
LINE
8
BLACK
6
CONTINUOUS
10
1.9363812204724409
20
3.4589748425196851
11
1.9390551181102362
21
3.4593894094488187
0
LINE
8
BLACK
6
CONTINUOUS
10
1.9390551181102362
20
3.4593894094488187
11
1.9390551181102362
21
3.4595275590551182
0
LINE
8
BLACK
6
CONTINUOUS
10
1.9390551181102362
20
3.4595275590551182
11
1.9803937007874015
21
3.4595275590551182
0
LINE
8
BLACK
6
CONTINUOUS
10
1.9803937007874015
20
3.4595275590551182
11
1.9803937007874015
21
3.4004724409448817
0
LINE
8
BLACK
6
CONTINUOUS
10
2.0674999999999999
20
3.4049999999999998
11
2.0124999999999997
21
3.4049999999999998
0
LINE
8
BLACK
6
CONTINUOUS
10
2.0124999999999997
20
3.4049999999999998
11
2.0124999999999997
21
3.4399999999999999
0
LINE
8
BLACK
6
CONTINUOUS
10
2.0124999999999997
20
3.4399999999999999
11
2.0674999999999999
21
3.4399999999999999
0
LINE
8
BLACK
6
CONTINUOUS
10
2.0674999999999999
20
3.4399999999999999
11
2.0674999999999999
21
3.4049999999999998
0
LINE
8
BLACK
6
CONTINUOUS
10
2.0674999999999999
20
3.48
11
2.0124999999999997
21
3.48
0
LINE
8
BLACK
6
CONTINUOUS
10
2.0124999999999997
20
3.48
11
2.0124999999999997
21
3.5150000000000001
0
LINE
8
BLACK
6
CONTINUOUS
10
2.0124999999999997
20
3.5150000000000001
11
2.0674999999999999
21
3.5150000000000001
0
LINE
8
BLACK
6
CONTINUOUS
10
2.0674999999999999
20
3.5150000000000001
11
2.0674999999999999
21
3.48
0
LINE
8
BLACK
6
CONTINUOUS
10
1.8653543307086613
20
3.5674015748031493
11
1.7866141732283465
21
3.5674015748031493
0
LINE
8
BLACK
6
CONTINUOUS
10
1.7866141732283465
20
3.5674015748031493
11
1.7866141732283465
21
3.5925984251968504
0
LINE
8
BLACK
6
CONTINUOUS
10
1.7866141732283465
20
3.5925984251968504
11
1.8653543307086613
21
3.5925984251968504
0
LINE
8
BLACK
6
CONTINUOUS
10
1.8653543307086613
20
3.5925984251968504
11
1.8653543307086613
21
3.5674015748031493
0
LINE
8
BLACK
6
CONTINUOUS
10
2.1133858267716534
20
3.5674015748031493
11
2.0346456692913386
21
3.5674015748031493
0
LINE
8
BLACK
6
CONTINUOUS
10
2.0346456692913386
20
3.5674015748031493
11
2.0346456692913386
21
3.5925984251968504
0
LINE
8
BLACK
6
CONTINUOUS
10
2.0346456692913386
20
3.5925984251968504
11
2.1133858267716534
21
3.5925984251968504
0
LINE
8
BLACK
6
CONTINUOUS
10
2.1133858267716534
20
3.5925984251968504
11
2.1133858267716534
21
3.5674015748031493
0
LINE
8
BLACK
6
CONTINUOUS
10
1.8653543307086613
20
3.6674015748031494
11
1.7866141732283465
21
3.6674015748031494
0
LINE
8
BLACK
6
CONTINUOUS
10
1.7866141732283465
20
3.6674015748031494
11
1.7866141732283465
21
3.6925984251968504
0
LINE
8
BLACK
6
CONTINUOUS
10
1.7866141732283465
20
3.6925984251968504
11
1.8653543307086613
21
3.6925984251968504
0
LINE
8
BLACK
6
CONTINUOUS
10
1.8653543307086613
20
3.6925984251968504
11
1.8653543307086613
21
3.6674015748031494
0
LINE
8
BLACK
6
CONTINUOUS
10
2.1133858267716534
20
3.6674015748031494
11
2.0346456692913386
21
3.6674015748031494
0
LINE
8
BLACK
6
CONTINUOUS
10
2.0346456692913386
20
3.6674015748031494
11
2.0346456692913386
21
3.6925984251968504
0
LINE
8
BLACK
6
CONTINUOUS
10
2.0346456692913386
20
3.6925984251968504
11
2.1133858267716534
21
3.6925984251968504
0
LINE
8
BLACK
6
CONTINUOUS
10
2.1133858267716534
20
3.6925984251968504
11
2.1133858267716534
21
3.6674015748031494
0
CIRCLE
8
BLACK
10
0.430240157480315
20
2.8954330708661415
40
0.0068897637795276
0
CIRCLE
8
BLACK
10
0.6270905511811024
20
2.8954330708661415
40
0.0068897637795276
0
CIRCLE
8
BLACK
10
2.7999999999999998
20
3.6000000000000001
40
0.0068897637795276
0
CIRCLE
8
BLACK
10
0.430240157480315
20
2.698582677165354
40
0.0068897637795276
0
CIRCLE
8
BLACK
10
0.6270905511811024
20
2.698582677165354
40
0.0068897637795276
0
CIRCLE
8
BLACK
10
2.7999999999999998
20
0.4
40
0.0068897637795276
0
CIRCLE
8
BLACK
10
2.7794389763779526
20
0.8154330708661417
40
0.0068897637795276
0
CIRCLE
8
BLACK
10
2.5825885826771655
20
0.8154330708661417
40
0.0068897637795276
0
CIRCLE
8
BLACK
10
1.3385826771653544
20
1.8718223622047243
40
0.0068897637795276
0
CIRCLE
8
BLACK
10
1.5354330708661417
20
1.8718223622047243
40
0.0068897637795276
0
CIRCLE
8
BLACK
10
0.430240157480315
20
3.2891338582677165
40
0.0068897637795276
0
CIRCLE
8
BLACK
10
0.6270905511811024
20
3.2891338582677165
40
0.0068897637795276
0
CIRCLE
8
BLACK
10
2.7794389763779526
20
1.0122834645669292
40
0.0068897637795276
0
CIRCLE
8
BLACK
10
2.5825885826771655
20
1.0122834645669292
40
0.0068897637795276
0
CIRCLE
8
BLACK
10
0.430240157480315
20
2.108031496062992
40
0.0068897637795276
0
CIRCLE
8
BLACK
10
0.6270905511811024
20
2.108031496062992
40
0.0068897637795276
0
CIRCLE
8
BLACK
10
0.878267716535433
20
0.6369291338582677
40
0.0068897637795276
0
CIRCLE
8
BLACK
10
0.878267716535433
20
0.5030708661417322
40
0.0068897637795276
0
CIRCLE
8
BLACK
10
1.261732283464567
20
0.6369291338582677
40
0.0068897637795276
0
CIRCLE
8
BLACK
10
1.261732283464567
20
0.5030708661417322
40
0.0068897637795276
0
CIRCLE
8
BLACK
10
0.430240157480315
20
1.1237795275590552
40
0.0068897637795276
0
CIRCLE
8
BLACK
10
0.6270905511811024
20
1.1237795275590552
40
0.0068897637795276
0
CIRCLE
8
BLACK
10
1.3385826771653544
20
3.1254359055118108
40
0.0068897637795276
0
CIRCLE
8
BLACK
10
1.5354330708661417
20
3.1254359055118108
40
0.0068897637795276
0
CIRCLE
8
BLACK
10
2.7825590551181101
20
1.2130708661417322
40
0.0068897637795276
0
CIRCLE
8
BLACK
10
2.5857086614173226
20
1.2130708661417322
40
0.0068897637795276
0
CIRCLE
8
BLACK
10
2.4100000000000001
20
3.3100000000000001
40
0.0068897637795276
0
CIRCLE
8
BLACK
10
2.5099999999999998
20
3.3100000000000001
40
0.0068897637795276
0
CIRCLE
8
BLACK
10
2.4100000000000001
20
3.21
40
0.0068897637795276
0
CIRCLE
8
BLACK
10
2.5099999999999998
20
3.21
40
0.0068897637795276
0
CIRCLE
8
BLACK
10
2.4100000000000001
20
3.1099999999999999
40
0.0068897637795276
0
CIRCLE
8
BLACK
10
2.5099999999999998
20
3.1099999999999999
40
0.0068897637795276
0
CIRCLE
8
BLACK
10
2.4100000000000001
20
3.0099999999999998
40
0.0068897637795276
0
CIRCLE
8
BLACK
10
2.5099999999999998
20
3.0099999999999998
40
0.0068897637795276
0
CIRCLE
8
BLACK
10
2.4100000000000001
20
2.9100000000000001
40
0.0068897637795276
0
CIRCLE
8
BLACK
10
2.5099999999999998
20
2.9100000000000001
40
0.0068897637795276
0
CIRCLE
8
BLACK
10
2.4100000000000001
20
2.8100000000000001
40
0.0068897637795276
0
CIRCLE
8
BLACK
10
2.5099999999999998
20
2.8100000000000001
40
0.0068897637795276
0
CIRCLE
8
BLACK
10
2.4100000000000001
20
2.71
40
0.0068897637795276
0
CIRCLE
8
BLACK
10
2.5099999999999998
20
2.71
40
0.0068897637795276
0
CIRCLE
8
BLACK
10
0.430240157480315
20
2.501732283464567
40
0.0068897637795276
0
CIRCLE
8
BLACK
10
0.6270905511811024
20
2.501732283464567
40
0.0068897637795276
0
CIRCLE
8
BLACK
10
0.430240157480315
20
1.7143307086614172
40
0.0068897637795276
0
CIRCLE
8
BLACK
10
0.6270905511811024
20
1.7143307086614172
40
0.0068897637795276
0
CIRCLE
8
BLACK
10
0.4
20
0.4
40
0.0068897637795276
0
CIRCLE
8
BLACK
10
1.3385826771653544
20
1.4539511811023622
40
0.0068897637795276
0
CIRCLE
8
BLACK
10
1.5354330708661417
20
1.4539511811023622
40
0.0068897637795276
0
CIRCLE
8
BLACK
10
2.7825590551181101
20
1.4099212598425197
40
0.0068897637795276
0
CIRCLE
8
BLACK
10
2.5857086614173226
20
1.4099212598425197
40
0.0068897637795276
0
CIRCLE
8
BLACK
10
1.3385826771653544
20
3.5433070866141732
40
0.0068897637795276
0
CIRCLE
8
BLACK
10
1.5354330708661417
20
3.5433070866141732
40
0.0068897637795276
0
CIRCLE
8
BLACK
10
0.430240157480315
20
1.51748031496063
40
0.0068897637795276
0
CIRCLE
8
BLACK
10
0.6270905511811024
20
1.51748031496063
40
0.0068897637795276
0
CIRCLE
8
BLACK
10
0.4
20
3.6000000000000001
40
0.0068897637795276
0
CIRCLE
8
BLACK
10
0.430240157480315
20
3.092283464566929
40
0.0068897637795276
0
CIRCLE
8
BLACK
10
0.6270905511811024
20
3.092283464566929
40
0.0068897637795276
0
CIRCLE
8
BLACK
10
1.981732283464567
20
0.5030708661417322
40
0.0068897637795276
0
CIRCLE
8
BLACK
10
1.981732283464567
20
0.6369291338582677
40
0.0068897637795276
0
CIRCLE
8
BLACK
10
1.5982677165354331
20
0.5030708661417322
40
0.0068897637795276
0
CIRCLE
8
BLACK
10
1.5982677165354331
20
0.6369291338582677
40
0.0068897637795276
0
CIRCLE
8
BLACK
10
1.3385826771653544
20
2.707564724409449
40
0.0068897637795276
0
CIRCLE
8
BLACK
10
1.5354330708661417
20
2.707564724409449
40
0.0068897637795276
0
CIRCLE
8
BLACK
10
2.7059055118110233
20
2.3153543307086615
40
0.0068897637795276
0
CIRCLE
8
BLACK
10
2.8059055118110234
20
2.3153543307086615
40
0.0068897637795276
0
CIRCLE
8
BLACK
10
2.7059055118110233
20
2.2153543307086614
40
0.0068897637795276
0
CIRCLE
8
BLACK
10
2.8059055118110234
20
2.2153543307086614
40
0.0068897637795276
0
CIRCLE
8
BLACK
10
2.7059055118110233
20
2.1153543307086613
40
0.0068897637795276
0
CIRCLE
8
BLACK
10
2.8059055118110234
20
2.1153543307086613
40
0.0068897637795276
0
CIRCLE
8
BLACK
10
2.7059055118110233
20
2.0153543307086612
40
0.0068897637795276
0
CIRCLE
8
BLACK
10
2.8059055118110234
20
2.0153543307086612
40
0.0068897637795276
0
CIRCLE
8
BLACK
10
1.3385826771653544
20
1.0360799999999999
40
0.0068897637795276
0
CIRCLE
8
BLACK
10
1.5354330708661417
20
1.0360799999999999
40
0.0068897637795276
0
CIRCLE
8
BLACK
10
0.430240157480315
20
2.3048818897637795
40
0.0068897637795276
0
CIRCLE
8
BLACK
10
0.6270905511811024
20
2.3048818897637795
40
0.0068897637795276
0
CIRCLE
8
BLACK
10
2.4696850393700789
20
2.3153543307086615
40
0.0068897637795276
0
CIRCLE
8
BLACK
10
2.5696850393700785
20
2.3153543307086615
40
0.0068897637795276
0
CIRCLE
8
BLACK
10
2.4696850393700789
20
2.2153543307086614
40
0.0068897637795276
0
CIRCLE
8
BLACK
10
2.5696850393700785
20
2.2153543307086614
40
0.0068897637795276
0
CIRCLE
8
BLACK
10
2.4696850393700789
20
2.1153543307086613
40
0.0068897637795276
0
CIRCLE
8
BLACK
10
2.5696850393700785
20
2.1153543307086613
40
0.0068897637795276
0
CIRCLE
8
BLACK
10
2.4696850393700789
20
2.0153543307086612
40
0.0068897637795276
0
CIRCLE
8
BLACK
10
2.5696850393700785
20
2.0153543307086612
40
0.0068897637795276
0
CIRCLE
8
BLACK
10
0.430240157480315
20
1.3206299212598425
40
0.0068897637795276
0
CIRCLE
8
BLACK
10
0.6270905511811024
20
1.3206299212598425
40
0.0068897637795276
0
CIRCLE
8
BLACK
10
1.3385826771653544
20
2.2896935433070866
40
0.0068897637795276
0
CIRCLE
8
BLACK
10
1.5354330708661417
20
2.2896935433070866
40
0.0068897637795276
0
CIRCLE
8
BLACK
10
0.430240157480315
20
1.9111811023622047
40
0.0068897637795276
0
CIRCLE
8
BLACK
10
0.6270905511811024
20
1.9111811023622047
40
0.0068897637795276
0
CIRCLE
8
BLACK
10
2.9100000000000001
20
2.9399999999999999
40
0.0068897637795276
0
CIRCLE
8
BLACK
10
2.8100000000000001
20
2.9399999999999999
40
0.0068897637795276
0
CIRCLE
8
BLACK
10
2.9100000000000001
20
3.04
40
0.0068897637795276
0
CIRCLE
8
BLACK
10
2.8100000000000001
20
3.04
40
0.0068897637795276
0
CIRCLE
8
BLACK
10
2.9100000000000001
20
3.1400000000000001
40
0.0068897637795276
0
CIRCLE
8
BLACK
10
2.8100000000000001
20
3.1400000000000001
40
0.0068897637795276
0
CIRCLE
8
BLACK
10
1.8799999999999999
20
2.1699999999999999
40
0.0068897637795276
0
CIRCLE
8
BLACK
10
2.4149015748031495
20
1.2268503937007873
40
0.0068897637795276
0
CIRCLE
8
BLACK
10
2.3823129921259842
20
0.8396062992125984
40
0.0068897637795276
0
CIRCLE
8
BLACK
10
1.8799999999999999
20
3.0099999999999998
40
0.0068897637795276
0
CIRCLE
8
BLACK
10
1.8799999999999999
20
0.91
40
0.0068897637795276
0
CIRCLE
8
BLACK
10
1.8799999999999999
20
1.3300000000000001
40
0.0068897637795276
0
CIRCLE
8
BLACK
10
1.8799999999999999
20
2.5899999999999999
40
0.0068897637795276
0
CIRCLE
8
BLACK
10
1.8799999999999999
20
1.75
40
0.0068897637795276
0
CIRCLE
8
BLACK
10
1.8799999999999999
20
3.4299999999999997
40
0.0068897637795276
  0
ENDSEC
  0
EOF
