  0
SECTION
  2
HEADER
  9
$ANGBASE
  50
0.0
  9
$ANGDIR
  70
1
  9
$MEASUREMENT
  70
0
  0
ENDSEC
  0
SECTION
  2
TABLES
  0
TABLE
  2
LTYPE
  70
4
  0
LTYPE
  5
40F
  2
CONTINUOUS
  70
0
  3
Solid line
  72
65
  73
0
  40
0.0
  0
LTYPE
  5
410
  2
DASHDOT
 70
0
  3
Dash Dot ____ _ ____ _
 72
65
 73
4
 40
2.0
 49
1.25
 49
-0.25
 49
0.25
 49
-0.25
  0
LTYPE
  5
411
  2
DASHED
 70
0
  3
Dashed __ __ __ __ __
 72
65
 73
2
 40
0.75
 49
0.5
 49
-0.25
  0
LTYPE
  5
43B
  2
DOTTED
 70
0
  3
Dotted .  .  .  .
 72
65
 73
2
 40
0.2
 49
0.0
 49
-0.2
  0
ENDTAB
  0
TABLE
  2
STYLE
  70
4
  0
STYLE
  2
KICAD
  70
0
  40
0
  41
1
  42
1
  50
0
  71
0
  3
isocp.shx
  0
STYLE
  2
KICADB
  70
0
  40
0
  41
1
  42
1
  50
0
  71
0
  3
isocp.shx
  0
STYLE
  2
KICADI
  70
0
  40
0
  41
1
  42
1
  50
15
  71
0
  3
isocp.shx
  0
STYLE
  2
KICADBI
  70
0
  40
0
  41
1
  42
1
  50
15
  71
0
  3
isocp.shx
  0
ENDTAB
  0
TABLE
  2
LAYER
  70
1
  0
LAYER
  2
BLACK
  70
0
  62
7
  6
CONTINUOUS
  0
ENDTAB
  0
ENDSEC
  0
SECTION
  2
ENTITIES
0
LINE
8
BLACK
6
CONTINUOUS
10
2.12323
20
1.18169
11
2.12392
21
1.1814
0
LINE
8
BLACK
6
CONTINUOUS
10
2.12392
20
1.1814
11
2.12421
21
1.18071
0
LINE
8
BLACK
6
CONTINUOUS
10
2.12421
20
1.18071
11
2.12421
21
1.01929
0
LINE
8
BLACK
6
CONTINUOUS
10
2.12421
20
1.01929
11
2.12392
21
1.0186
0
LINE
8
BLACK
6
CONTINUOUS
10
2.12392
20
1.0186
11
2.12323
21
1.01831
0
LINE
8
BLACK
6
CONTINUOUS
10
2.12323
20
1.01831
11
1.77677
21
1.01831
0
LINE
8
BLACK
6
CONTINUOUS
10
1.77677
20
1.01831
11
1.77608
21
1.0186
0
LINE
8
BLACK
6
CONTINUOUS
10
1.77608
20
1.0186
11
1.77579
21
1.01929
0
LINE
8
BLACK
6
CONTINUOUS
10
1.77579
20
1.01929
11
1.77579
21
1.01929
0
LINE
8
BLACK
6
CONTINUOUS
10
1.77579
20
1.01929
11
1.77579
21
1.18071
0
LINE
8
BLACK
6
CONTINUOUS
10
1.77579
20
1.18071
11
1.77608
21
1.1814
0
LINE
8
BLACK
6
CONTINUOUS
10
1.77608
20
1.1814
11
1.77677
21
1.18169
0
LINE
8
BLACK
6
CONTINUOUS
10
1.77677
20
1.18169
11
2.12323
21
1.18169
0
LINE
8
BLACK
6
CONTINUOUS
10
1.77776
20
1.17972
11
1.77776
21
1.02028
0
LINE
8
BLACK
6
CONTINUOUS
10
1.77776
20
1.02028
11
2.12224
21
1.02028
0
LINE
8
BLACK
6
CONTINUOUS
10
2.12224
20
1.02028
11
2.12224
21
1.17972
0
LINE
8
BLACK
6
CONTINUOUS
10
2.12224
20
1.17972
11
1.77776
21
1.17972
0
LINE
8
BLACK
6
CONTINUOUS
10
2.12323
20
1.60336
11
2.12392
21
1.60307
0
LINE
8
BLACK
6
CONTINUOUS
10
2.12392
20
1.60307
11
2.12421
21
1.60238
0
LINE
8
BLACK
6
CONTINUOUS
10
2.12421
20
1.60238
11
2.12421
21
1.44096
0
LINE
8
BLACK
6
CONTINUOUS
10
2.12421
20
1.44096
11
2.12392
21
1.44026
0
LINE
8
BLACK
6
CONTINUOUS
10
2.12392
20
1.44026
11
2.12323
21
1.43997
0
LINE
8
BLACK
6
CONTINUOUS
10
2.12323
20
1.43997
11
1.77677
21
1.43997
0
LINE
8
BLACK
6
CONTINUOUS
10
1.77677
20
1.43997
11
1.77608
21
1.44026
0
LINE
8
BLACK
6
CONTINUOUS
10
1.77608
20
1.44026
11
1.77579
21
1.44096
0
LINE
8
BLACK
6
CONTINUOUS
10
1.77579
20
1.44096
11
1.77579
21
1.44096
0
LINE
8
BLACK
6
CONTINUOUS
10
1.77579
20
1.44096
11
1.77579
21
1.60238
0
LINE
8
BLACK
6
CONTINUOUS
10
1.77579
20
1.60238
11
1.77608
21
1.60307
0
LINE
8
BLACK
6
CONTINUOUS
10
1.77608
20
1.60307
11
1.77677
21
1.60336
0
LINE
8
BLACK
6
CONTINUOUS
10
1.77677
20
1.60336
11
2.12323
21
1.60336
0
LINE
8
BLACK
6
CONTINUOUS
10
1.77776
20
1.60139
11
1.77776
21
1.44194
0
LINE
8
BLACK
6
CONTINUOUS
10
1.77776
20
1.44194
11
2.12224
21
1.44194
0
LINE
8
BLACK
6
CONTINUOUS
10
2.12224
20
1.44194
11
2.12224
21
1.60139
0
LINE
8
BLACK
6
CONTINUOUS
10
2.12224
20
1.60139
11
1.77776
21
1.60139
0
LINE
8
BLACK
6
CONTINUOUS
10
2.12323
20
2.02503
11
2.12392
21
2.02474
0
LINE
8
BLACK
6
CONTINUOUS
10
2.12392
20
2.02474
11
2.12421
21
2.02404
0
LINE
8
BLACK
6
CONTINUOUS
10
2.12421
20
2.02404
11
2.12421
21
1.86262
0
LINE
8
BLACK
6
CONTINUOUS
10
2.12421
20
1.86262
11
2.12392
21
1.86193
0
LINE
8
BLACK
6
CONTINUOUS
10
2.12392
20
1.86193
11
2.12323
21
1.86164
0
LINE
8
BLACK
6
CONTINUOUS
10
2.12323
20
1.86164
11
1.77677
21
1.86164
0
LINE
8
BLACK
6
CONTINUOUS
10
1.77677
20
1.86164
11
1.77608
21
1.86193
0
LINE
8
BLACK
6
CONTINUOUS
10
1.77608
20
1.86193
11
1.77579
21
1.86262
0
LINE
8
BLACK
6
CONTINUOUS
10
1.77579
20
1.86262
11
1.77579
21
1.86262
0
LINE
8
BLACK
6
CONTINUOUS
10
1.77579
20
1.86262
11
1.77579
21
2.02404
0
LINE
8
BLACK
6
CONTINUOUS
10
1.77579
20
2.02404
11
1.77608
21
2.02474
0
LINE
8
BLACK
6
CONTINUOUS
10
1.77608
20
2.02474
11
1.77677
21
2.02503
0
LINE
8
BLACK
6
CONTINUOUS
10
1.77677
20
2.02503
11
2.12323
21
2.02503
0
LINE
8
BLACK
6
CONTINUOUS
10
1.77776
20
2.02306
11
1.77776
21
1.86361
0
LINE
8
BLACK
6
CONTINUOUS
10
1.77776
20
1.86361
11
2.12224
21
1.86361
0
LINE
8
BLACK
6
CONTINUOUS
10
2.12224
20
1.86361
11
2.12224
21
2.02306
0
LINE
8
BLACK
6
CONTINUOUS
10
2.12224
20
2.02306
11
1.77776
21
2.02306
0
LINE
8
BLACK
6
CONTINUOUS
10
2.12323
20
2.44669
11
2.12392
21
2.4464
0
LINE
8
BLACK
6
CONTINUOUS
10
2.12392
20
2.4464
11
2.12421
21
2.44571
0
LINE
8
BLACK
6
CONTINUOUS
10
2.12421
20
2.44571
11
2.12421
21
2.28429
0
LINE
8
BLACK
6
CONTINUOUS
10
2.12421
20
2.28429
11
2.12392
21
2.2836
0
LINE
8
BLACK
6
CONTINUOUS
10
2.12392
20
2.2836
11
2.12323
21
2.28331
0
LINE
8
BLACK
6
CONTINUOUS
10
2.12323
20
2.28331
11
1.77677
21
2.28331
0
LINE
8
BLACK
6
CONTINUOUS
10
1.77677
20
2.28331
11
1.77608
21
2.2836
0
LINE
8
BLACK
6
CONTINUOUS
10
1.77608
20
2.2836
11
1.77579
21
2.28429
0
LINE
8
BLACK
6
CONTINUOUS
10
1.77579
20
2.28429
11
1.77579
21
2.44571
0
LINE
8
BLACK
6
CONTINUOUS
10
1.77579
20
2.44571
11
1.77608
21
2.4464
0
LINE
8
BLACK
6
CONTINUOUS
10
1.77608
20
2.4464
11
1.77677
21
2.44669
0
LINE
8
BLACK
6
CONTINUOUS
10
1.77677
20
2.44669
11
2.12323
21
2.44669
0
LINE
8
BLACK
6
CONTINUOUS
10
1.77776
20
2.44472
11
1.77776
21
2.28528
0
LINE
8
BLACK
6
CONTINUOUS
10
1.77776
20
2.28528
11
2.12224
21
2.28528
0
LINE
8
BLACK
6
CONTINUOUS
10
2.12224
20
2.28528
11
2.12224
21
2.44472
0
LINE
8
BLACK
6
CONTINUOUS
10
2.12224
20
2.44472
11
1.77776
21
2.44472
0
LINE
8
BLACK
6
CONTINUOUS
10
2.69858
20
2.59051
11
2.69928
21
2.59022
0
LINE
8
BLACK
6
CONTINUOUS
10
2.69928
20
2.59022
11
2.69957
21
2.58953
0
LINE
8
BLACK
6
CONTINUOUS
10
2.69957
20
2.58953
11
2.69957
21
2.45567
0
LINE
8
BLACK
6
CONTINUOUS
10
2.69957
20
2.45567
11
2.69928
21
2.45497
0
LINE
8
BLACK
6
CONTINUOUS
10
2.69928
20
2.45497
11
2.69858
21
2.45469
0
LINE
8
BLACK
6
CONTINUOUS
10
2.69858
20
2.45469
11
2.62142
21
2.45469
0
LINE
8
BLACK
6
CONTINUOUS
10
2.62142
20
2.45469
11
2.62072
21
2.45497
0
LINE
8
BLACK
6
CONTINUOUS
10
2.62072
20
2.45497
11
2.62043
21
2.45567
0
LINE
8
BLACK
6
CONTINUOUS
10
2.62043
20
2.45567
11
2.62043
21
2.58953
0
LINE
8
BLACK
6
CONTINUOUS
10
2.62043
20
2.58953
11
2.62072
21
2.59022
0
LINE
8
BLACK
6
CONTINUOUS
10
2.62072
20
2.59022
11
2.62142
21
2.59051
0
LINE
8
BLACK
6
CONTINUOUS
10
2.62142
20
2.59051
11
2.69858
21
2.59051
0
LINE
8
BLACK
6
CONTINUOUS
10
2.6224
20
2.58854
11
2.6224
21
2.45665
0
LINE
8
BLACK
6
CONTINUOUS
10
2.6224
20
2.45665
11
2.6976
21
2.45665
0
LINE
8
BLACK
6
CONTINUOUS
10
2.6976
20
2.45665
11
2.6976
21
2.58854
0
LINE
8
BLACK
6
CONTINUOUS
10
2.6976
20
2.58854
11
2.6224
21
2.58854
0
LINE
8
BLACK
6
CONTINUOUS
10
2.9089
20
2.84878
11
2.90959
21
2.84849
0
LINE
8
BLACK
6
CONTINUOUS
10
2.90959
20
2.84849
11
2.90988
21
2.8478
0
LINE
8
BLACK
6
CONTINUOUS
10
2.90988
20
2.8478
11
2.90988
21
2.5722
0
LINE
8
BLACK
6
CONTINUOUS
10
2.90988
20
2.5722
11
2.90959
21
2.57151
0
LINE
8
BLACK
6
CONTINUOUS
10
2.90959
20
2.57151
11
2.9089
21
2.57122
0
LINE
8
BLACK
6
CONTINUOUS
10
2.9089
20
2.57122
11
2.7711
21
2.57122
0
LINE
8
BLACK
6
CONTINUOUS
10
2.7711
20
2.57122
11
2.77041
21
2.57151
0
LINE
8
BLACK
6
CONTINUOUS
10
2.77041
20
2.57151
11
2.77012
21
2.5722
0
LINE
8
BLACK
6
CONTINUOUS
10
2.77012
20
2.5722
11
2.77012
21
2.8478
0
LINE
8
BLACK
6
CONTINUOUS
10
2.77012
20
2.8478
11
2.77041
21
2.84849
0
LINE
8
BLACK
6
CONTINUOUS
10
2.77041
20
2.84849
11
2.7711
21
2.84878
0
LINE
8
BLACK
6
CONTINUOUS
10
2.7711
20
2.84878
11
2.9089
21
2.84878
0
LINE
8
BLACK
6
CONTINUOUS
10
2.77209
20
2.84681
11
2.77209
21
2.57319
0
LINE
8
BLACK
6
CONTINUOUS
10
2.77209
20
2.57319
11
2.90791
21
2.57319
0
LINE
8
BLACK
6
CONTINUOUS
10
2.90791
20
2.57319
11
2.90791
21
2.84681
0
LINE
8
BLACK
6
CONTINUOUS
10
2.90791
20
2.84681
11
2.77209
21
2.84681
0
LINE
8
BLACK
6
CONTINUOUS
10
2.12323
20
2.86836
11
2.12392
21
2.86807
0
LINE
8
BLACK
6
CONTINUOUS
10
2.12392
20
2.86807
11
2.12421
21
2.86738
0
LINE
8
BLACK
6
CONTINUOUS
10
2.12421
20
2.86738
11
2.12421
21
2.70596
0
LINE
8
BLACK
6
CONTINUOUS
10
2.12421
20
2.70596
11
2.12392
21
2.70526
0
LINE
8
BLACK
6
CONTINUOUS
10
2.12392
20
2.70526
11
2.12323
21
2.70497
0
LINE
8
BLACK
6
CONTINUOUS
10
2.12323
20
2.70497
11
1.77677
21
2.70497
0
LINE
8
BLACK
6
CONTINUOUS
10
1.77677
20
2.70497
11
1.77608
21
2.70526
0
LINE
8
BLACK
6
CONTINUOUS
10
1.77608
20
2.70526
11
1.77579
21
2.70596
0
LINE
8
BLACK
6
CONTINUOUS
10
1.77579
20
2.70596
11
1.77579
21
2.70596
0
LINE
8
BLACK
6
CONTINUOUS
10
1.77579
20
2.70596
11
1.77579
21
2.86738
0
LINE
8
BLACK
6
CONTINUOUS
10
1.77579
20
2.86738
11
1.77608
21
2.86807
0
LINE
8
BLACK
6
CONTINUOUS
10
1.77608
20
2.86807
11
1.77677
21
2.86836
0
LINE
8
BLACK
6
CONTINUOUS
10
1.77677
20
2.86836
11
2.12323
21
2.86836
0
LINE
8
BLACK
6
CONTINUOUS
10
1.77776
20
2.86639
11
1.77776
21
2.70694
0
LINE
8
BLACK
6
CONTINUOUS
10
1.77776
20
2.70694
11
2.12224
21
2.70694
0
LINE
8
BLACK
6
CONTINUOUS
10
2.12224
20
2.70694
11
2.12224
21
2.86639
0
LINE
8
BLACK
6
CONTINUOUS
10
2.12224
20
2.86639
11
1.77776
21
2.86639
0
LINE
8
BLACK
6
CONTINUOUS
10
2.12323
20
3.29003
11
2.12392
21
3.28974
0
LINE
8
BLACK
6
CONTINUOUS
10
2.12392
20
3.28974
11
2.12421
21
3.28904
0
LINE
8
BLACK
6
CONTINUOUS
10
2.12421
20
3.28904
11
2.12421
21
3.12762
0
LINE
8
BLACK
6
CONTINUOUS
10
2.12421
20
3.12762
11
2.12392
21
3.12693
0
LINE
8
BLACK
6
CONTINUOUS
10
2.12392
20
3.12693
11
2.12323
21
3.12664
0
LINE
8
BLACK
6
CONTINUOUS
10
2.12323
20
3.12664
11
1.77677
21
3.12664
0
LINE
8
BLACK
6
CONTINUOUS
10
1.77677
20
3.12664
11
1.77608
21
3.12693
0
LINE
8
BLACK
6
CONTINUOUS
10
1.77608
20
3.12693
11
1.77579
21
3.12762
0
LINE
8
BLACK
6
CONTINUOUS
10
1.77579
20
3.12762
11
1.77579
21
3.12762
0
LINE
8
BLACK
6
CONTINUOUS
10
1.77579
20
3.12762
11
1.77579
21
3.28904
0
LINE
8
BLACK
6
CONTINUOUS
10
1.77579
20
3.28904
11
1.77608
21
3.28974
0
LINE
8
BLACK
6
CONTINUOUS
10
1.77608
20
3.28974
11
1.77677
21
3.29003
0
LINE
8
BLACK
6
CONTINUOUS
10
1.77677
20
3.29003
11
2.12323
21
3.29003
0
LINE
8
BLACK
6
CONTINUOUS
10
1.77776
20
3.28806
11
1.77776
21
3.12861
0
LINE
8
BLACK
6
CONTINUOUS
10
1.77776
20
3.12861
11
2.12224
21
3.12861
0
LINE
8
BLACK
6
CONTINUOUS
10
2.12224
20
3.12861
11
2.12224
21
3.28806
0
LINE
8
BLACK
6
CONTINUOUS
10
2.12224
20
3.28806
11
1.77776
21
3.28806
0
LINE
8
BLACK
6
CONTINUOUS
10
2.12323
20
3.71169
11
2.12392
21
3.7114
0
LINE
8
BLACK
6
CONTINUOUS
10
2.12392
20
3.7114
11
2.12421
21
3.71071
0
LINE
8
BLACK
6
CONTINUOUS
10
2.12421
20
3.71071
11
2.12421
21
3.54929
0
LINE
8
BLACK
6
CONTINUOUS
10
2.12421
20
3.54929
11
2.12392
21
3.5486
0
LINE
8
BLACK
6
CONTINUOUS
10
2.12392
20
3.5486
11
2.12323
21
3.54831
0
LINE
8
BLACK
6
CONTINUOUS
10
2.12323
20
3.54831
11
1.77677
21
3.54831
0
LINE
8
BLACK
6
CONTINUOUS
10
1.77677
20
3.54831
11
1.77608
21
3.5486
0
LINE
8
BLACK
6
CONTINUOUS
10
1.77608
20
3.5486
11
1.77579
21
3.54929
0
LINE
8
BLACK
6
CONTINUOUS
10
1.77579
20
3.54929
11
1.77579
21
3.71071
0
LINE
8
BLACK
6
CONTINUOUS
10
1.77579
20
3.71071
11
1.77608
21
3.7114
0
LINE
8
BLACK
6
CONTINUOUS
10
1.77608
20
3.7114
11
1.77677
21
3.71169
0
LINE
8
BLACK
6
CONTINUOUS
10
1.77677
20
3.71169
11
2.12323
21
3.71169
0
LINE
8
BLACK
6
CONTINUOUS
10
1.77776
20
3.70972
11
1.77776
21
3.55028
0
LINE
8
BLACK
6
CONTINUOUS
10
1.77776
20
3.55028
11
2.12224
21
3.55028
0
LINE
8
BLACK
6
CONTINUOUS
10
2.12224
20
3.55028
11
2.12224
21
3.70972
0
LINE
8
BLACK
6
CONTINUOUS
10
2.12224
20
3.70972
11
1.77776
21
3.70972
  0
ENDSEC
  0
EOF
