<?xml version='1.0' encoding='ASCII' standalone='yes'?>
<svg xmlns:svg="http://www.w3.org/2000/svg" xmlns="http://www.w3.org/2000/svg" xmlns:xlink="http://www.w3.org/1999/xlink" version="1.1" width="297.0022mm" height="210.0072mm" viewBox="0.0000 0.0000 297.0022 210.0072">
<title>SVG Image created as ISO11446PWR01-F_Fab.svg date 2023/07/21 01:38:49 </title>
  <desc>Image generated by PCBNEW </desc>
<g style="fill:#848484; fill-opacity:1.0000;stroke:#848484; stroke-opacity:1.0000; stroke-linecap:round; stroke-linejoin:round;" transform="translate(0 0) scale(1 1)">
</g>
<g style="fill:#848484; fill-opacity:0.0;  stroke:#848484; stroke-width:0.0000; stroke-opacity:1;  stroke-linecap:round; stroke-linejoin:round;">
</g>
<g style="fill:#848484; fill-opacity:0.0;  stroke:#848484; stroke-width:0.7028; stroke-opacity:1;  stroke-linecap:round; stroke-linejoin:round;">
<g transform="rotate(-90.000000 72.1993 53.3717)">
<text x="72.1993" y="55.1285" textLength="7.0777" font-size="4.6850" lengthAdjust="spacingAndGlyphs" text-anchor="middle" opacity="0.01" style="font-family:monospace">J3</text>
</g>
<g class="stroked-text"><desc>J3</desc>
<path d="M70.2745 54.5429 L72.7844 54.5429 "/>
<path d="M72.7844 54.5429 L73.2863 54.7102 "/>
<path d="M73.2863 54.7102 L73.6210 55.0449 "/>
<path d="M73.6210 55.0449 L73.7883 55.5468 "/>
<path d="M73.7883 55.5468 L73.7883 55.8815 "/>
<path d="M70.2745 53.2043 L70.2745 51.0292 "/>
<path d="M70.2745 51.0292 L71.6131 52.2004 "/>
<path d="M71.6131 52.2004 L71.6131 51.6984 "/>
<path d="M71.6131 51.6984 L71.7804 51.3638 "/>
<path d="M71.7804 51.3638 L71.9478 51.1965 "/>
<path d="M71.9478 51.1965 L72.2824 51.0292 "/>
<path d="M72.2824 51.0292 L73.1190 51.0292 "/>
<path d="M73.1190 51.0292 L73.4537 51.1965 "/>
<path d="M73.4537 51.1965 L73.6210 51.3638 "/>
<path d="M73.6210 51.3638 L73.7883 51.6984 "/>
<path d="M73.7883 51.6984 L73.7883 52.7024 "/>
<path d="M73.7883 52.7024 L73.6210 53.0370 "/>
<path d="M73.6210 53.0370 L73.4537 53.2043 "/>
</g><g transform="rotate(-90.000000 72.1993 64.8997)">
<text x="72.1993" y="66.6566" textLength="7.0777" font-size="4.6850" lengthAdjust="spacingAndGlyphs" text-anchor="middle" opacity="0.01" style="font-family:monospace">J4</text>
</g>
<g class="stroked-text"><desc>J4</desc>
<path d="M70.2745 66.0710 L72.7844 66.0710 "/>
<path d="M72.7844 66.0710 L73.2863 66.2383 "/>
<path d="M73.2863 66.2383 L73.6210 66.5730 "/>
<path d="M73.6210 66.5730 L73.7883 67.0749 "/>
<path d="M73.7883 67.0749 L73.7883 67.4096 "/>
<path d="M71.4458 62.8919 L73.7883 62.8919 "/>
<path d="M70.1072 63.7285 L72.6171 64.5651 "/>
<path d="M72.6171 64.5651 L72.6171 62.3899 "/>
</g><g transform="rotate(-90.000000 225.3697 173.5680)">
<text x="225.3697" y="175.3248" textLength="10.4241" font-size="4.6850" lengthAdjust="spacingAndGlyphs" text-anchor="middle" opacity="0.01" style="font-family:monospace">J21</text>
</g>
<g class="stroked-text"><desc>J21</desc>
<path d="M223.4449 176.4124 L225.9548 176.4124 "/>
<path d="M225.9548 176.4124 L226.4567 176.5798 "/>
<path d="M226.4567 176.5798 L226.7914 176.9144 "/>
<path d="M226.7914 176.9144 L226.9587 177.4164 "/>
<path d="M226.9587 177.4164 L226.9587 177.7510 "/>
<path d="M223.7796 174.9065 L223.6123 174.7392 "/>
<path d="M223.6123 174.7392 L223.4449 174.4046 "/>
<path d="M223.4449 174.4046 L223.4449 173.5680 "/>
<path d="M223.4449 173.5680 L223.6123 173.2333 "/>
<path d="M223.6123 173.2333 L223.7796 173.0660 "/>
<path d="M223.7796 173.0660 L224.1142 172.8987 "/>
<path d="M224.1142 172.8987 L224.4489 172.8987 "/>
<path d="M224.4489 172.8987 L224.9508 173.0660 "/>
<path d="M224.9508 173.0660 L226.9587 175.0739 "/>
<path d="M226.9587 175.0739 L226.9587 172.8987 "/>
<path d="M226.9587 169.5522 L226.9587 171.5601 "/>
<path d="M226.9587 170.5562 L223.4449 170.5562 "/>
<path d="M223.4449 170.5562 L223.9469 170.8908 "/>
<path d="M223.9469 170.8908 L224.2816 171.2255 "/>
<path d="M224.2816 171.2255 L224.4489 171.5601 "/>
</g></g>
<g style="fill:#848484; fill-opacity:0.01;  stroke:#848484; stroke-width:0.3458; stroke-opacity:1;  stroke-linecap:round; stroke-linejoin:round;">
<text x="138.9559" y="126.9201" textLength="7.1007" font-size="3.0742" lengthAdjust="spacingAndGlyphs" text-anchor="middle" opacity="0.01" style="font-family:monospace">33R</text>
<g class="stroked-text"><desc>33R</desc>
<path d="M135.9366 124.5103 L137.3639 124.5103 "/>
<path d="M137.3639 124.5103 L136.5953 125.3887 "/>
<path d="M136.5953 125.3887 L136.9247 125.3887 "/>
<path d="M136.9247 125.3887 L137.1443 125.4984 "/>
<path d="M137.1443 125.4984 L137.2541 125.6082 "/>
<path d="M137.2541 125.6082 L137.3639 125.8278 "/>
<path d="M137.3639 125.8278 L137.3639 126.3768 "/>
<path d="M137.3639 126.3768 L137.2541 126.5964 "/>
<path d="M137.2541 126.5964 L137.1443 126.7061 "/>
<path d="M137.1443 126.7061 L136.9247 126.8159 "/>
<path d="M136.9247 126.8159 L136.2660 126.8159 "/>
<path d="M136.2660 126.8159 L136.0464 126.7061 "/>
<path d="M136.0464 126.7061 L135.9366 126.5964 "/>
<path d="M138.1324 124.5103 L139.5597 124.5103 "/>
<path d="M139.5597 124.5103 L138.7912 125.3887 "/>
<path d="M138.7912 125.3887 L139.1205 125.3887 "/>
<path d="M139.1205 125.3887 L139.3401 125.4984 "/>
<path d="M139.3401 125.4984 L139.4499 125.6082 "/>
<path d="M139.4499 125.6082 L139.5597 125.8278 "/>
<path d="M139.5597 125.8278 L139.5597 126.3768 "/>
<path d="M139.5597 126.3768 L139.4499 126.5964 "/>
<path d="M139.4499 126.5964 L139.3401 126.7061 "/>
<path d="M139.3401 126.7061 L139.1205 126.8159 "/>
<path d="M139.1205 126.8159 L138.4618 126.8159 "/>
<path d="M138.4618 126.8159 L138.2422 126.7061 "/>
<path d="M138.2422 126.7061 L138.1324 126.5964 "/>
<path d="M141.8653 126.8159 L141.0968 125.7180 "/>
<path d="M140.5478 126.8159 L140.5478 124.5103 "/>
<path d="M140.5478 124.5103 L141.4262 124.5103 "/>
<path d="M141.4262 124.5103 L141.6457 124.6201 "/>
<path d="M141.6457 124.6201 L141.7555 124.7299 "/>
<path d="M141.7555 124.7299 L141.8653 124.9495 "/>
<path d="M141.8653 124.9495 L141.8653 125.2789 "/>
<path d="M141.8653 125.2789 L141.7555 125.4984 "/>
<path d="M141.7555 125.4984 L141.6457 125.6082 "/>
<path d="M141.6457 125.6082 L141.4262 125.7180 "/>
<path d="M141.4262 125.7180 L140.5478 125.7180 "/>
</g><text x="138.9559" y="113.6628" textLength="4.9049" font-size="3.0742" lengthAdjust="spacingAndGlyphs" text-anchor="middle" opacity="0.01" style="font-family:monospace">R5</text>
<g class="stroked-text"><desc>R5</desc>
<path d="M138.5716 113.5587 L137.8030 112.4607 "/>
<path d="M137.2541 113.5587 L137.2541 111.2530 "/>
<path d="M137.2541 111.2530 L138.1324 111.2530 "/>
<path d="M138.1324 111.2530 L138.3520 111.3628 "/>
<path d="M138.3520 111.3628 L138.4618 111.4726 "/>
<path d="M138.4618 111.4726 L138.5716 111.6922 "/>
<path d="M138.5716 111.6922 L138.5716 112.0216 "/>
<path d="M138.5716 112.0216 L138.4618 112.2412 "/>
<path d="M138.4618 112.2412 L138.3520 112.3509 "/>
<path d="M138.3520 112.3509 L138.1324 112.4607 "/>
<path d="M138.1324 112.4607 L137.2541 112.4607 "/>
<path d="M140.6576 111.2530 L139.5597 111.2530 "/>
<path d="M139.5597 111.2530 L139.4499 112.3509 "/>
<path d="M139.4499 112.3509 L139.5597 112.2412 "/>
<path d="M139.5597 112.2412 L139.7793 112.1314 "/>
<path d="M139.7793 112.1314 L140.3282 112.1314 "/>
<path d="M140.3282 112.1314 L140.5478 112.2412 "/>
<path d="M140.5478 112.2412 L140.6576 112.3509 "/>
<path d="M140.6576 112.3509 L140.7674 112.5705 "/>
<path d="M140.7674 112.5705 L140.7674 113.1195 "/>
<path d="M140.7674 113.1195 L140.6576 113.3391 "/>
<path d="M140.6576 113.3391 L140.5478 113.4489 "/>
<path d="M140.5478 113.4489 L140.3282 113.5587 "/>
<path d="M140.3282 113.5587 L139.7793 113.5587 "/>
<path d="M139.7793 113.5587 L139.5597 113.4489 "/>
<path d="M139.5597 113.4489 L139.4499 113.3391 "/>
</g></g>
<g style="fill:#848484; fill-opacity:0.0;  stroke:#848484; stroke-width:0.7028; stroke-opacity:1;  stroke-linecap:round; stroke-linejoin:round;">
<g transform="rotate(-90.000000 72.1993 30.3155)">
<text x="72.1993" y="32.0724" textLength="7.0777" font-size="4.6850" lengthAdjust="spacingAndGlyphs" text-anchor="middle" opacity="0.01" style="font-family:monospace">J1</text>
</g>
<g class="stroked-text"><desc>J1</desc>
<path d="M70.2745 31.4868 L72.7844 31.4868 "/>
<path d="M72.7844 31.4868 L73.2863 31.6541 "/>
<path d="M73.2863 31.6541 L73.6210 31.9887 "/>
<path d="M73.6210 31.9887 L73.7883 32.4907 "/>
<path d="M73.7883 32.4907 L73.7883 32.8253 "/>
<path d="M73.7883 27.9730 L73.7883 29.9809 "/>
<path d="M73.7883 28.9769 L70.2745 28.9769 "/>
<path d="M70.2745 28.9769 L70.7765 29.3116 "/>
<path d="M70.7765 29.3116 L71.1112 29.6462 "/>
<path d="M71.1112 29.6462 L71.2785 29.9809 "/>
</g><g transform="rotate(-90.000000 225.3697 162.0399)">
<text x="225.3697" y="163.7968" textLength="10.4241" font-size="4.6850" lengthAdjust="spacingAndGlyphs" text-anchor="middle" opacity="0.01" style="font-family:monospace">J19</text>
</g>
<g class="stroked-text"><desc>J19</desc>
<path d="M223.4449 164.8844 L225.9548 164.8844 "/>
<path d="M225.9548 164.8844 L226.4567 165.0517 "/>
<path d="M226.4567 165.0517 L226.7914 165.3863 "/>
<path d="M226.7914 165.3863 L226.9587 165.8883 "/>
<path d="M226.9587 165.8883 L226.9587 166.2229 "/>
<path d="M226.9587 161.3706 L226.9587 163.3785 "/>
<path d="M226.9587 162.3745 L223.4449 162.3745 "/>
<path d="M223.4449 162.3745 L223.9469 162.7092 "/>
<path d="M223.9469 162.7092 L224.2816 163.0438 "/>
<path d="M224.2816 163.0438 L224.4489 163.3785 "/>
<path d="M226.9587 159.6974 L226.9587 159.0281 "/>
<path d="M226.9587 159.0281 L226.7914 158.6935 "/>
<path d="M226.7914 158.6935 L226.6241 158.5261 "/>
<path d="M226.6241 158.5261 L226.1221 158.1915 "/>
<path d="M226.1221 158.1915 L225.4528 158.0242 "/>
<path d="M225.4528 158.0242 L224.1142 158.0242 "/>
<path d="M224.1142 158.0242 L223.7796 158.1915 "/>
<path d="M223.7796 158.1915 L223.6123 158.3588 "/>
<path d="M223.6123 158.3588 L223.4449 158.6935 "/>
<path d="M223.4449 158.6935 L223.4449 159.3627 "/>
<path d="M223.4449 159.3627 L223.6123 159.6974 "/>
<path d="M223.6123 159.6974 L223.7796 159.8647 "/>
<path d="M223.7796 159.8647 L224.1142 160.0320 "/>
<path d="M224.1142 160.0320 L224.9508 160.0320 "/>
<path d="M224.9508 160.0320 L225.2855 159.8647 "/>
<path d="M225.2855 159.8647 L225.4528 159.6974 "/>
<path d="M225.4528 159.6974 L225.6201 159.3627 "/>
<path d="M225.6201 159.3627 L225.6201 158.6935 "/>
<path d="M225.6201 158.6935 L225.4528 158.3588 "/>
<path d="M225.4528 158.3588 L225.2855 158.1915 "/>
<path d="M225.2855 158.1915 L224.9508 158.0242 "/>
</g><g transform="rotate(-90.000000 72.1993 99.4840)">
<text x="72.1993" y="101.2408" textLength="7.0777" font-size="4.6850" lengthAdjust="spacingAndGlyphs" text-anchor="middle" opacity="0.01" style="font-family:monospace">J7</text>
</g>
<g class="stroked-text"><desc>J7</desc>
<path d="M70.2745 100.6552 L72.7844 100.6552 "/>
<path d="M72.7844 100.6552 L73.2863 100.8225 "/>
<path d="M73.2863 100.8225 L73.6210 101.1572 "/>
<path d="M73.6210 101.1572 L73.7883 101.6591 "/>
<path d="M73.7883 101.6591 L73.7883 101.9938 "/>
<path d="M70.2745 99.3166 L70.2745 96.9741 "/>
<path d="M70.2745 96.9741 L73.7883 98.4800 "/>
</g></g>
<g style="fill:#848484; fill-opacity:0.01;  stroke:#848484; stroke-width:0.2306; stroke-opacity:1;  stroke-linecap:round; stroke-linejoin:round;">
<text x="117.4629" y="189.3245" textLength="3.5298" font-size="1.5371" lengthAdjust="spacingAndGlyphs" text-anchor="middle" opacity="0.01" style="font-family:monospace">16A</text>
<g class="stroked-text"><desc>16A</desc>
<path d="M116.7493 189.2695 L116.0905 189.2695 "/>
<path d="M116.4199 189.2695 L116.4199 188.1166 "/>
<path d="M116.4199 188.1166 L116.3101 188.2813 "/>
<path d="M116.3101 188.2813 L116.2003 188.3911 "/>
<path d="M116.2003 188.3911 L116.0905 188.4460 "/>
<path d="M117.7374 188.1166 L117.5178 188.1166 "/>
<path d="M117.5178 188.1166 L117.4080 188.1715 "/>
<path d="M117.4080 188.1715 L117.3531 188.2264 "/>
<path d="M117.3531 188.2264 L117.2433 188.3911 "/>
<path d="M117.2433 188.3911 L117.1884 188.6107 "/>
<path d="M117.1884 188.6107 L117.1884 189.0499 "/>
<path d="M117.1884 189.0499 L117.2433 189.1597 "/>
<path d="M117.2433 189.1597 L117.2982 189.2146 "/>
<path d="M117.2982 189.2146 L117.4080 189.2695 "/>
<path d="M117.4080 189.2695 L117.6276 189.2695 "/>
<path d="M117.6276 189.2695 L117.7374 189.2146 "/>
<path d="M117.7374 189.2146 L117.7923 189.1597 "/>
<path d="M117.7923 189.1597 L117.8472 189.0499 "/>
<path d="M117.8472 189.0499 L117.8472 188.7754 "/>
<path d="M117.8472 188.7754 L117.7923 188.6656 "/>
<path d="M117.7923 188.6656 L117.7374 188.6107 "/>
<path d="M117.7374 188.6107 L117.6276 188.5558 "/>
<path d="M117.6276 188.5558 L117.4080 188.5558 "/>
<path d="M117.4080 188.5558 L117.2982 188.6107 "/>
<path d="M117.2982 188.6107 L117.2433 188.6656 "/>
<path d="M117.2433 188.6656 L117.1884 188.7754 "/>
<path d="M118.2863 188.9401 L118.8353 188.9401 "/>
<path d="M118.1766 189.2695 L118.5608 188.1166 "/>
<path d="M118.5608 188.1166 L118.9451 189.2695 "/>
</g></g>
<g style="fill:#848484; fill-opacity:0.0;  stroke:#848484; stroke-width:0.7028; stroke-opacity:1;  stroke-linecap:round; stroke-linejoin:round;">
<g transform="rotate(-90.000000 72.1993 157.1243)">
<text x="72.1993" y="158.8812" textLength="10.4241" font-size="4.6850" lengthAdjust="spacingAndGlyphs" text-anchor="middle" opacity="0.01" style="font-family:monospace">J13</text>
</g>
<g class="stroked-text"><desc>J13</desc>
<path d="M70.2745 159.9688 L72.7844 159.9688 "/>
<path d="M72.7844 159.9688 L73.2863 160.1361 "/>
<path d="M73.2863 160.1361 L73.6210 160.4708 "/>
<path d="M73.6210 160.4708 L73.7883 160.9727 "/>
<path d="M73.7883 160.9727 L73.7883 161.3074 "/>
<path d="M73.7883 156.4550 L73.7883 158.4629 "/>
<path d="M73.7883 157.4590 L70.2745 157.4590 "/>
<path d="M70.2745 157.4590 L70.7765 157.7936 "/>
<path d="M70.7765 157.7936 L71.1112 158.1283 "/>
<path d="M71.1112 158.1283 L71.2785 158.4629 "/>
<path d="M70.2745 155.2838 L70.2745 153.1086 "/>
<path d="M70.2745 153.1086 L71.6131 154.2799 "/>
<path d="M71.6131 154.2799 L71.6131 153.7779 "/>
<path d="M71.6131 153.7779 L71.7804 153.4432 "/>
<path d="M71.7804 153.4432 L71.9478 153.2759 "/>
<path d="M71.9478 153.2759 L72.2824 153.1086 "/>
<path d="M72.2824 153.1086 L73.1190 153.1086 "/>
<path d="M73.1190 153.1086 L73.4537 153.2759 "/>
<path d="M73.4537 153.2759 L73.6210 153.4432 "/>
<path d="M73.6210 153.4432 L73.7883 153.7779 "/>
<path d="M73.7883 153.7779 L73.7883 154.7818 "/>
<path d="M73.7883 154.7818 L73.6210 155.1165 "/>
<path d="M73.6210 155.1165 L73.4537 155.2838 "/>
</g></g>
<g style="fill:#848484; fill-opacity:0.01;  stroke:#848484; stroke-width:0.3458; stroke-opacity:1;  stroke-linecap:round; stroke-linejoin:round;">
<text x="138.9559" y="53.5052" textLength="7.1007" font-size="3.0742" lengthAdjust="spacingAndGlyphs" text-anchor="middle" opacity="0.01" style="font-family:monospace">33R</text>
<g class="stroked-text"><desc>33R</desc>
<path d="M135.9366 51.0954 L137.3639 51.0954 "/>
<path d="M137.3639 51.0954 L136.5953 51.9738 "/>
<path d="M136.5953 51.9738 L136.9247 51.9738 "/>
<path d="M136.9247 51.9738 L137.1443 52.0836 "/>
<path d="M137.1443 52.0836 L137.2541 52.1933 "/>
<path d="M137.2541 52.1933 L137.3639 52.4129 "/>
<path d="M137.3639 52.4129 L137.3639 52.9619 "/>
<path d="M137.3639 52.9619 L137.2541 53.1815 "/>
<path d="M137.2541 53.1815 L137.1443 53.2913 "/>
<path d="M137.1443 53.2913 L136.9247 53.4011 "/>
<path d="M136.9247 53.4011 L136.2660 53.4011 "/>
<path d="M136.2660 53.4011 L136.0464 53.2913 "/>
<path d="M136.0464 53.2913 L135.9366 53.1815 "/>
<path d="M138.1324 51.0954 L139.5597 51.0954 "/>
<path d="M139.5597 51.0954 L138.7912 51.9738 "/>
<path d="M138.7912 51.9738 L139.1205 51.9738 "/>
<path d="M139.1205 51.9738 L139.3401 52.0836 "/>
<path d="M139.3401 52.0836 L139.4499 52.1933 "/>
<path d="M139.4499 52.1933 L139.5597 52.4129 "/>
<path d="M139.5597 52.4129 L139.5597 52.9619 "/>
<path d="M139.5597 52.9619 L139.4499 53.1815 "/>
<path d="M139.4499 53.1815 L139.3401 53.2913 "/>
<path d="M139.3401 53.2913 L139.1205 53.4011 "/>
<path d="M139.1205 53.4011 L138.4618 53.4011 "/>
<path d="M138.4618 53.4011 L138.2422 53.2913 "/>
<path d="M138.2422 53.2913 L138.1324 53.1815 "/>
<path d="M141.8653 53.4011 L141.0968 52.3031 "/>
<path d="M140.5478 53.4011 L140.5478 51.0954 "/>
<path d="M140.5478 51.0954 L141.4262 51.0954 "/>
<path d="M141.4262 51.0954 L141.6457 51.2052 "/>
<path d="M141.6457 51.2052 L141.7555 51.3150 "/>
<path d="M141.7555 51.3150 L141.8653 51.5346 "/>
<path d="M141.8653 51.5346 L141.8653 51.8640 "/>
<path d="M141.8653 51.8640 L141.7555 52.0836 "/>
<path d="M141.7555 52.0836 L141.6457 52.1933 "/>
<path d="M141.6457 52.1933 L141.4262 52.3031 "/>
<path d="M141.4262 52.3031 L140.5478 52.3031 "/>
</g><text x="138.9559" y="40.2479" textLength="4.9049" font-size="3.0742" lengthAdjust="spacingAndGlyphs" text-anchor="middle" opacity="0.01" style="font-family:monospace">R2</text>
<g class="stroked-text"><desc>R2</desc>
<path d="M138.5716 40.1438 L137.8030 39.0459 "/>
<path d="M137.2541 40.1438 L137.2541 37.8382 "/>
<path d="M137.2541 37.8382 L138.1324 37.8382 "/>
<path d="M138.1324 37.8382 L138.3520 37.9479 "/>
<path d="M138.3520 37.9479 L138.4618 38.0577 "/>
<path d="M138.4618 38.0577 L138.5716 38.2773 "/>
<path d="M138.5716 38.2773 L138.5716 38.6067 "/>
<path d="M138.5716 38.6067 L138.4618 38.8263 "/>
<path d="M138.4618 38.8263 L138.3520 38.9361 "/>
<path d="M138.3520 38.9361 L138.1324 39.0459 "/>
<path d="M138.1324 39.0459 L137.2541 39.0459 "/>
<path d="M139.4499 38.0577 L139.5597 37.9479 "/>
<path d="M139.5597 37.9479 L139.7793 37.8382 "/>
<path d="M139.7793 37.8382 L140.3282 37.8382 "/>
<path d="M140.3282 37.8382 L140.5478 37.9479 "/>
<path d="M140.5478 37.9479 L140.6576 38.0577 "/>
<path d="M140.6576 38.0577 L140.7674 38.2773 "/>
<path d="M140.7674 38.2773 L140.7674 38.4969 "/>
<path d="M140.7674 38.4969 L140.6576 38.8263 "/>
<path d="M140.6576 38.8263 L139.3401 40.1438 "/>
<path d="M139.3401 40.1438 L140.7674 40.1438 "/>
</g></g>
<g style="fill:#848484; fill-opacity:0.0;  stroke:#848484; stroke-width:0.7028; stroke-opacity:1;  stroke-linecap:round; stroke-linejoin:round;">
<g transform="rotate(-90.000000 225.5524 150.2813)">
<text x="225.5524" y="152.0381" textLength="10.4241" font-size="4.6850" lengthAdjust="spacingAndGlyphs" text-anchor="middle" opacity="0.01" style="font-family:monospace">J22</text>
</g>
<g class="stroked-text"><desc>J22</desc>
<path d="M223.6277 153.1257 L226.1375 153.1257 "/>
<path d="M226.1375 153.1257 L226.6395 153.2931 "/>
<path d="M226.6395 153.2931 L226.9741 153.6277 "/>
<path d="M226.9741 153.6277 L227.1414 154.1297 "/>
<path d="M227.1414 154.1297 L227.1414 154.4643 "/>
<path d="M223.9623 151.6198 L223.7950 151.4525 "/>
<path d="M223.7950 151.4525 L223.6277 151.1179 "/>
<path d="M223.6277 151.1179 L223.6277 150.2813 "/>
<path d="M223.6277 150.2813 L223.7950 149.9466 "/>
<path d="M223.7950 149.9466 L223.9623 149.7793 "/>
<path d="M223.9623 149.7793 L224.2970 149.6120 "/>
<path d="M224.2970 149.6120 L224.6316 149.6120 "/>
<path d="M224.6316 149.6120 L225.1336 149.7793 "/>
<path d="M225.1336 149.7793 L227.1414 151.7872 "/>
<path d="M227.1414 151.7872 L227.1414 149.6120 "/>
<path d="M223.9623 148.2734 L223.7950 148.1061 "/>
<path d="M223.7950 148.1061 L223.6277 147.7714 "/>
<path d="M223.6277 147.7714 L223.6277 146.9348 "/>
<path d="M223.6277 146.9348 L223.7950 146.6002 "/>
<path d="M223.7950 146.6002 L223.9623 146.4329 "/>
<path d="M223.9623 146.4329 L224.2970 146.2655 "/>
<path d="M224.2970 146.2655 L224.6316 146.2655 "/>
<path d="M224.6316 146.2655 L225.1336 146.4329 "/>
<path d="M225.1336 146.4329 L227.1414 148.4407 "/>
<path d="M227.1414 148.4407 L227.1414 146.2655 "/>
</g><g transform="rotate(-90.000000 72.1993 76.4278)">
<text x="72.1993" y="78.1847" textLength="7.0777" font-size="4.6850" lengthAdjust="spacingAndGlyphs" text-anchor="middle" opacity="0.01" style="font-family:monospace">J5</text>
</g>
<g class="stroked-text"><desc>J5</desc>
<path d="M70.2745 77.5991 L72.7844 77.5991 "/>
<path d="M72.7844 77.5991 L73.2863 77.7664 "/>
<path d="M73.2863 77.7664 L73.6210 78.1010 "/>
<path d="M73.6210 78.1010 L73.7883 78.6030 "/>
<path d="M73.7883 78.6030 L73.7883 78.9376 "/>
<path d="M70.2745 74.2526 L70.2745 75.9258 "/>
<path d="M70.2745 75.9258 L71.9478 76.0932 "/>
<path d="M71.9478 76.0932 L71.7804 75.9258 "/>
<path d="M71.7804 75.9258 L71.6131 75.5912 "/>
<path d="M71.6131 75.5912 L71.6131 74.7546 "/>
<path d="M71.6131 74.7546 L71.7804 74.4199 "/>
<path d="M71.7804 74.4199 L71.9478 74.2526 "/>
<path d="M71.9478 74.2526 L72.2824 74.0853 "/>
<path d="M72.2824 74.0853 L73.1190 74.0853 "/>
<path d="M73.1190 74.0853 L73.4537 74.2526 "/>
<path d="M73.4537 74.2526 L73.6210 74.4199 "/>
<path d="M73.6210 74.4199 L73.7883 74.7546 "/>
<path d="M73.7883 74.7546 L73.7883 75.5912 "/>
<path d="M73.7883 75.5912 L73.6210 75.9258 "/>
<path d="M73.6210 75.9258 L73.4537 76.0932 "/>
</g><g transform="rotate(-90.000000 72.1993 122.5401)">
<text x="72.1993" y="124.2970" textLength="7.0777" font-size="4.6850" lengthAdjust="spacingAndGlyphs" text-anchor="middle" opacity="0.01" style="font-family:monospace">J9</text>
</g>
<g class="stroked-text"><desc>J9</desc>
<path d="M70.2745 123.7114 L72.7844 123.7114 "/>
<path d="M72.7844 123.7114 L73.2863 123.8787 "/>
<path d="M73.2863 123.8787 L73.6210 124.2133 "/>
<path d="M73.6210 124.2133 L73.7883 124.7153 "/>
<path d="M73.7883 124.7153 L73.7883 125.0499 "/>
<path d="M73.7883 121.8708 L73.7883 121.2015 "/>
<path d="M73.7883 121.2015 L73.6210 120.8669 "/>
<path d="M73.6210 120.8669 L73.4537 120.6996 "/>
<path d="M73.4537 120.6996 L72.9517 120.3649 "/>
<path d="M72.9517 120.3649 L72.2824 120.1976 "/>
<path d="M72.2824 120.1976 L70.9438 120.1976 "/>
<path d="M70.9438 120.1976 L70.6092 120.3649 "/>
<path d="M70.6092 120.3649 L70.4419 120.5322 "/>
<path d="M70.4419 120.5322 L70.2745 120.8669 "/>
<path d="M70.2745 120.8669 L70.2745 121.5362 "/>
<path d="M70.2745 121.5362 L70.4419 121.8708 "/>
<path d="M70.4419 121.8708 L70.6092 122.0381 "/>
<path d="M70.6092 122.0381 L70.9438 122.2055 "/>
<path d="M70.9438 122.2055 L71.7804 122.2055 "/>
<path d="M71.7804 122.2055 L72.1151 122.0381 "/>
<path d="M72.1151 122.0381 L72.2824 121.8708 "/>
<path d="M72.2824 121.8708 L72.4497 121.5362 "/>
<path d="M72.4497 121.5362 L72.4497 120.8669 "/>
<path d="M72.4497 120.8669 L72.2824 120.5322 "/>
<path d="M72.2824 120.5322 L72.1151 120.3649 "/>
<path d="M72.1151 120.3649 L71.7804 120.1976 "/>
</g></g>
<g style="fill:#848484; fill-opacity:0.01;  stroke:#848484; stroke-width:0.3458; stroke-opacity:1;  stroke-linecap:round; stroke-linejoin:round;">
<text x="138.9559" y="151.3917" textLength="7.1007" font-size="3.0742" lengthAdjust="spacingAndGlyphs" text-anchor="middle" opacity="0.01" style="font-family:monospace">33R</text>
<g class="stroked-text"><desc>33R</desc>
<path d="M135.9366 148.9820 L137.3639 148.9820 "/>
<path d="M137.3639 148.9820 L136.5953 149.8603 "/>
<path d="M136.5953 149.8603 L136.9247 149.8603 "/>
<path d="M136.9247 149.8603 L137.1443 149.9701 "/>
<path d="M137.1443 149.9701 L137.2541 150.0799 "/>
<path d="M137.2541 150.0799 L137.3639 150.2994 "/>
<path d="M137.3639 150.2994 L137.3639 150.8484 "/>
<path d="M137.3639 150.8484 L137.2541 151.0680 "/>
<path d="M137.2541 151.0680 L137.1443 151.1778 "/>
<path d="M137.1443 151.1778 L136.9247 151.2876 "/>
<path d="M136.9247 151.2876 L136.2660 151.2876 "/>
<path d="M136.2660 151.2876 L136.0464 151.1778 "/>
<path d="M136.0464 151.1778 L135.9366 151.0680 "/>
<path d="M138.1324 148.9820 L139.5597 148.9820 "/>
<path d="M139.5597 148.9820 L138.7912 149.8603 "/>
<path d="M138.7912 149.8603 L139.1205 149.8603 "/>
<path d="M139.1205 149.8603 L139.3401 149.9701 "/>
<path d="M139.3401 149.9701 L139.4499 150.0799 "/>
<path d="M139.4499 150.0799 L139.5597 150.2994 "/>
<path d="M139.5597 150.2994 L139.5597 150.8484 "/>
<path d="M139.5597 150.8484 L139.4499 151.0680 "/>
<path d="M139.4499 151.0680 L139.3401 151.1778 "/>
<path d="M139.3401 151.1778 L139.1205 151.2876 "/>
<path d="M139.1205 151.2876 L138.4618 151.2876 "/>
<path d="M138.4618 151.2876 L138.2422 151.1778 "/>
<path d="M138.2422 151.1778 L138.1324 151.0680 "/>
<path d="M141.8653 151.2876 L141.0968 150.1897 "/>
<path d="M140.5478 151.2876 L140.5478 148.9820 "/>
<path d="M140.5478 148.9820 L141.4262 148.9820 "/>
<path d="M141.4262 148.9820 L141.6457 149.0917 "/>
<path d="M141.6457 149.0917 L141.7555 149.2015 "/>
<path d="M141.7555 149.2015 L141.8653 149.4211 "/>
<path d="M141.8653 149.4211 L141.8653 149.7505 "/>
<path d="M141.8653 149.7505 L141.7555 149.9701 "/>
<path d="M141.7555 149.9701 L141.6457 150.0799 "/>
<path d="M141.6457 150.0799 L141.4262 150.1897 "/>
<path d="M141.4262 150.1897 L140.5478 150.1897 "/>
</g><text x="138.9559" y="138.1345" textLength="4.9049" font-size="3.0742" lengthAdjust="spacingAndGlyphs" text-anchor="middle" opacity="0.01" style="font-family:monospace">R6</text>
<g class="stroked-text"><desc>R6</desc>
<path d="M138.5716 138.0303 L137.8030 136.9324 "/>
<path d="M137.2541 138.0303 L137.2541 135.7247 "/>
<path d="M137.2541 135.7247 L138.1324 135.7247 "/>
<path d="M138.1324 135.7247 L138.3520 135.8345 "/>
<path d="M138.3520 135.8345 L138.4618 135.9443 "/>
<path d="M138.4618 135.9443 L138.5716 136.1638 "/>
<path d="M138.5716 136.1638 L138.5716 136.4932 "/>
<path d="M138.5716 136.4932 L138.4618 136.7128 "/>
<path d="M138.4618 136.7128 L138.3520 136.8226 "/>
<path d="M138.3520 136.8226 L138.1324 136.9324 "/>
<path d="M138.1324 136.9324 L137.2541 136.9324 "/>
<path d="M140.5478 135.7247 L140.1087 135.7247 "/>
<path d="M140.1087 135.7247 L139.8891 135.8345 "/>
<path d="M139.8891 135.8345 L139.7793 135.9443 "/>
<path d="M139.7793 135.9443 L139.5597 136.2736 "/>
<path d="M139.5597 136.2736 L139.4499 136.7128 "/>
<path d="M139.4499 136.7128 L139.4499 137.5911 "/>
<path d="M139.4499 137.5911 L139.5597 137.8107 "/>
<path d="M139.5597 137.8107 L139.6695 137.9205 "/>
<path d="M139.6695 137.9205 L139.8891 138.0303 "/>
<path d="M139.8891 138.0303 L140.3282 138.0303 "/>
<path d="M140.3282 138.0303 L140.5478 137.9205 "/>
<path d="M140.5478 137.9205 L140.6576 137.8107 "/>
<path d="M140.6576 137.8107 L140.7674 137.5911 "/>
<path d="M140.7674 137.5911 L140.7674 137.0422 "/>
<path d="M140.7674 137.0422 L140.6576 136.8226 "/>
<path d="M140.6576 136.8226 L140.5478 136.7128 "/>
<path d="M140.5478 136.7128 L140.3282 136.6030 "/>
<path d="M140.3282 136.6030 L139.8891 136.6030 "/>
<path d="M139.8891 136.6030 L139.6695 136.7128 "/>
<path d="M139.6695 136.7128 L139.5597 136.8226 "/>
<path d="M139.5597 136.8226 L139.4499 137.0422 "/>
</g></g>
<g style="fill:#848484; fill-opacity:0.0;  stroke:#848484; stroke-width:0.7028; stroke-opacity:1;  stroke-linecap:round; stroke-linejoin:round;">
<g transform="rotate(-90.000000 225.5524 138.7532)">
<text x="225.5524" y="140.5101" textLength="10.4241" font-size="4.6850" lengthAdjust="spacingAndGlyphs" text-anchor="middle" opacity="0.01" style="font-family:monospace">J20</text>
</g>
<g class="stroked-text"><desc>J20</desc>
<path d="M223.6277 141.5977 L226.1375 141.5977 "/>
<path d="M226.1375 141.5977 L226.6395 141.7650 "/>
<path d="M226.6395 141.7650 L226.9741 142.0996 "/>
<path d="M226.9741 142.0996 L227.1414 142.6016 "/>
<path d="M227.1414 142.6016 L227.1414 142.9362 "/>
<path d="M223.9623 140.0918 L223.7950 139.9244 "/>
<path d="M223.7950 139.9244 L223.6277 139.5898 "/>
<path d="M223.6277 139.5898 L223.6277 138.7532 "/>
<path d="M223.6277 138.7532 L223.7950 138.4185 "/>
<path d="M223.7950 138.4185 L223.9623 138.2512 "/>
<path d="M223.9623 138.2512 L224.2970 138.0839 "/>
<path d="M224.2970 138.0839 L224.6316 138.0839 "/>
<path d="M224.6316 138.0839 L225.1336 138.2512 "/>
<path d="M225.1336 138.2512 L227.1414 140.2591 "/>
<path d="M227.1414 140.2591 L227.1414 138.0839 "/>
<path d="M223.6277 135.9087 L223.6277 135.5741 "/>
<path d="M223.6277 135.5741 L223.7950 135.2394 "/>
<path d="M223.7950 135.2394 L223.9623 135.0721 "/>
<path d="M223.9623 135.0721 L224.2970 134.9048 "/>
<path d="M224.2970 134.9048 L224.9662 134.7375 "/>
<path d="M224.9662 134.7375 L225.8029 134.7375 "/>
<path d="M225.8029 134.7375 L226.4721 134.9048 "/>
<path d="M226.4721 134.9048 L226.8068 135.0721 "/>
<path d="M226.8068 135.0721 L226.9741 135.2394 "/>
<path d="M226.9741 135.2394 L227.1414 135.5741 "/>
<path d="M227.1414 135.5741 L227.1414 135.9087 "/>
<path d="M227.1414 135.9087 L226.9741 136.2434 "/>
<path d="M226.9741 136.2434 L226.8068 136.4107 "/>
<path d="M226.8068 136.4107 L226.4721 136.5780 "/>
<path d="M226.4721 136.5780 L225.8029 136.7453 "/>
<path d="M225.8029 136.7453 L224.9662 136.7453 "/>
<path d="M224.9662 136.7453 L224.2970 136.5780 "/>
<path d="M224.2970 136.5780 L223.9623 136.4107 "/>
<path d="M223.9623 136.4107 L223.7950 136.2434 "/>
<path d="M223.7950 136.2434 L223.6277 135.9087 "/>
</g></g>
<g style="fill:#848484; fill-opacity:0.01;  stroke:#848484; stroke-width:0.3458; stroke-opacity:1;  stroke-linecap:round; stroke-linejoin:round;">
<text x="138.9559" y="29.0336" textLength="7.1007" font-size="3.0742" lengthAdjust="spacingAndGlyphs" text-anchor="middle" opacity="0.01" style="font-family:monospace">33R</text>
<g class="stroked-text"><desc>33R</desc>
<path d="M135.9366 26.6238 L137.3639 26.6238 "/>
<path d="M137.3639 26.6238 L136.5953 27.5021 "/>
<path d="M136.5953 27.5021 L136.9247 27.5021 "/>
<path d="M136.9247 27.5021 L137.1443 27.6119 "/>
<path d="M137.1443 27.6119 L137.2541 27.7217 "/>
<path d="M137.2541 27.7217 L137.3639 27.9413 "/>
<path d="M137.3639 27.9413 L137.3639 28.4903 "/>
<path d="M137.3639 28.4903 L137.2541 28.7098 "/>
<path d="M137.2541 28.7098 L137.1443 28.8196 "/>
<path d="M137.1443 28.8196 L136.9247 28.9294 "/>
<path d="M136.9247 28.9294 L136.2660 28.9294 "/>
<path d="M136.2660 28.9294 L136.0464 28.8196 "/>
<path d="M136.0464 28.8196 L135.9366 28.7098 "/>
<path d="M138.1324 26.6238 L139.5597 26.6238 "/>
<path d="M139.5597 26.6238 L138.7912 27.5021 "/>
<path d="M138.7912 27.5021 L139.1205 27.5021 "/>
<path d="M139.1205 27.5021 L139.3401 27.6119 "/>
<path d="M139.3401 27.6119 L139.4499 27.7217 "/>
<path d="M139.4499 27.7217 L139.5597 27.9413 "/>
<path d="M139.5597 27.9413 L139.5597 28.4903 "/>
<path d="M139.5597 28.4903 L139.4499 28.7098 "/>
<path d="M139.4499 28.7098 L139.3401 28.8196 "/>
<path d="M139.3401 28.8196 L139.1205 28.9294 "/>
<path d="M139.1205 28.9294 L138.4618 28.9294 "/>
<path d="M138.4618 28.9294 L138.2422 28.8196 "/>
<path d="M138.2422 28.8196 L138.1324 28.7098 "/>
<path d="M141.8653 28.9294 L141.0968 27.8315 "/>
<path d="M140.5478 28.9294 L140.5478 26.6238 "/>
<path d="M140.5478 26.6238 L141.4262 26.6238 "/>
<path d="M141.4262 26.6238 L141.6457 26.7336 "/>
<path d="M141.6457 26.7336 L141.7555 26.8434 "/>
<path d="M141.7555 26.8434 L141.8653 27.0630 "/>
<path d="M141.8653 27.0630 L141.8653 27.3923 "/>
<path d="M141.8653 27.3923 L141.7555 27.6119 "/>
<path d="M141.7555 27.6119 L141.6457 27.7217 "/>
<path d="M141.6457 27.7217 L141.4262 27.8315 "/>
<path d="M141.4262 27.8315 L140.5478 27.8315 "/>
</g><text x="138.9559" y="15.7763" textLength="4.9049" font-size="3.0742" lengthAdjust="spacingAndGlyphs" text-anchor="middle" opacity="0.01" style="font-family:monospace">R1</text>
<g class="stroked-text"><desc>R1</desc>
<path d="M138.5716 15.6721 L137.8030 14.5742 "/>
<path d="M137.2541 15.6721 L137.2541 13.3665 "/>
<path d="M137.2541 13.3665 L138.1324 13.3665 "/>
<path d="M138.1324 13.3665 L138.3520 13.4763 "/>
<path d="M138.3520 13.4763 L138.4618 13.5861 "/>
<path d="M138.4618 13.5861 L138.5716 13.8057 "/>
<path d="M138.5716 13.8057 L138.5716 14.1351 "/>
<path d="M138.5716 14.1351 L138.4618 14.3546 "/>
<path d="M138.4618 14.3546 L138.3520 14.4644 "/>
<path d="M138.3520 14.4644 L138.1324 14.5742 "/>
<path d="M138.1324 14.5742 L137.2541 14.5742 "/>
<path d="M140.7674 15.6721 L139.4499 15.6721 "/>
<path d="M140.1087 15.6721 L140.1087 13.3665 "/>
<path d="M140.1087 13.3665 L139.8891 13.6959 "/>
<path d="M139.8891 13.6959 L139.6695 13.9155 "/>
<path d="M139.6695 13.9155 L139.4499 14.0253 "/>
</g></g>
<g style="fill:#848484; fill-opacity:0.0;  stroke:#848484; stroke-width:0.7028; stroke-opacity:1;  stroke-linecap:round; stroke-linejoin:round;">
<g transform="rotate(-90.000000 72.1993 134.0682)">
<text x="72.1993" y="135.8251" textLength="10.4241" font-size="4.6850" lengthAdjust="spacingAndGlyphs" text-anchor="middle" opacity="0.01" style="font-family:monospace">J10</text>
</g>
<g class="stroked-text"><desc>J10</desc>
<path d="M70.2745 136.9126 L72.7844 136.9126 "/>
<path d="M72.7844 136.9126 L73.2863 137.0800 "/>
<path d="M73.2863 137.0800 L73.6210 137.4146 "/>
<path d="M73.6210 137.4146 L73.7883 137.9166 "/>
<path d="M73.7883 137.9166 L73.7883 138.2512 "/>
<path d="M73.7883 133.3989 L73.7883 135.4068 "/>
<path d="M73.7883 134.4028 L70.2745 134.4028 "/>
<path d="M70.2745 134.4028 L70.7765 134.7375 "/>
<path d="M70.7765 134.7375 L71.1112 135.0721 "/>
<path d="M71.1112 135.0721 L71.2785 135.4068 "/>
<path d="M70.2745 131.2237 L70.2745 130.8891 "/>
<path d="M70.2745 130.8891 L70.4419 130.5544 "/>
<path d="M70.4419 130.5544 L70.6092 130.3871 "/>
<path d="M70.6092 130.3871 L70.9438 130.2198 "/>
<path d="M70.9438 130.2198 L71.6131 130.0525 "/>
<path d="M71.6131 130.0525 L72.4497 130.0525 "/>
<path d="M72.4497 130.0525 L73.1190 130.2198 "/>
<path d="M73.1190 130.2198 L73.4537 130.3871 "/>
<path d="M73.4537 130.3871 L73.6210 130.5544 "/>
<path d="M73.6210 130.5544 L73.7883 130.8891 "/>
<path d="M73.7883 130.8891 L73.7883 131.2237 "/>
<path d="M73.7883 131.2237 L73.6210 131.5584 "/>
<path d="M73.6210 131.5584 L73.4537 131.7257 "/>
<path d="M73.4537 131.7257 L73.1190 131.8930 "/>
<path d="M73.1190 131.8930 L72.4497 132.0603 "/>
<path d="M72.4497 132.0603 L71.6131 132.0603 "/>
<path d="M71.6131 132.0603 L70.9438 131.8930 "/>
<path d="M70.9438 131.8930 L70.6092 131.7257 "/>
<path d="M70.6092 131.7257 L70.4419 131.5584 "/>
<path d="M70.4419 131.5584 L70.2745 131.2237 "/>
</g><g transform="rotate(-90.000000 72.1993 41.8436)">
<text x="72.1993" y="43.6005" textLength="7.0777" font-size="4.6850" lengthAdjust="spacingAndGlyphs" text-anchor="middle" opacity="0.01" style="font-family:monospace">J2</text>
</g>
<g class="stroked-text"><desc>J2</desc>
<path d="M70.2745 43.0148 L72.7844 43.0148 "/>
<path d="M72.7844 43.0148 L73.2863 43.1822 "/>
<path d="M73.2863 43.1822 L73.6210 43.5168 "/>
<path d="M73.6210 43.5168 L73.7883 44.0188 "/>
<path d="M73.7883 44.0188 L73.7883 44.3534 "/>
<path d="M70.6092 41.5089 L70.4419 41.3416 "/>
<path d="M70.4419 41.3416 L70.2745 41.0070 "/>
<path d="M70.2745 41.0070 L70.2745 40.1704 "/>
<path d="M70.2745 40.1704 L70.4419 39.8357 "/>
<path d="M70.4419 39.8357 L70.6092 39.6684 "/>
<path d="M70.6092 39.6684 L70.9438 39.5011 "/>
<path d="M70.9438 39.5011 L71.2785 39.5011 "/>
<path d="M71.2785 39.5011 L71.7804 39.6684 "/>
<path d="M71.7804 39.6684 L73.7883 41.6763 "/>
<path d="M73.7883 41.6763 L73.7883 39.5011 "/>
</g></g>
<g style="fill:#848484; fill-opacity:0.01;  stroke:#848484; stroke-width:0.2306; stroke-opacity:1;  stroke-linecap:round; stroke-linejoin:round;">
<text x="159.6280" y="189.3245" textLength="3.5298" font-size="1.5371" lengthAdjust="spacingAndGlyphs" text-anchor="middle" opacity="0.01" style="font-family:monospace">16A</text>
<g class="stroked-text"><desc>16A</desc>
<path d="M158.9144 189.2695 L158.2556 189.2695 "/>
<path d="M158.5850 189.2695 L158.5850 188.1166 "/>
<path d="M158.5850 188.1166 L158.4752 188.2813 "/>
<path d="M158.4752 188.2813 L158.3654 188.3911 "/>
<path d="M158.3654 188.3911 L158.2556 188.4460 "/>
<path d="M159.9025 188.1166 L159.6829 188.1166 "/>
<path d="M159.6829 188.1166 L159.5731 188.1715 "/>
<path d="M159.5731 188.1715 L159.5182 188.2264 "/>
<path d="M159.5182 188.2264 L159.4084 188.3911 "/>
<path d="M159.4084 188.3911 L159.3535 188.6107 "/>
<path d="M159.3535 188.6107 L159.3535 189.0499 "/>
<path d="M159.3535 189.0499 L159.4084 189.1597 "/>
<path d="M159.4084 189.1597 L159.4633 189.2146 "/>
<path d="M159.4633 189.2146 L159.5731 189.2695 "/>
<path d="M159.5731 189.2695 L159.7927 189.2695 "/>
<path d="M159.7927 189.2695 L159.9025 189.2146 "/>
<path d="M159.9025 189.2146 L159.9574 189.1597 "/>
<path d="M159.9574 189.1597 L160.0123 189.0499 "/>
<path d="M160.0123 189.0499 L160.0123 188.7754 "/>
<path d="M160.0123 188.7754 L159.9574 188.6656 "/>
<path d="M159.9574 188.6656 L159.9025 188.6107 "/>
<path d="M159.9025 188.6107 L159.7927 188.5558 "/>
<path d="M159.7927 188.5558 L159.5731 188.5558 "/>
<path d="M159.5731 188.5558 L159.4633 188.6107 "/>
<path d="M159.4633 188.6107 L159.4084 188.6656 "/>
<path d="M159.4084 188.6656 L159.3535 188.7754 "/>
<path d="M160.4514 188.9401 L161.0004 188.9401 "/>
<path d="M160.3416 189.2695 L160.7259 188.1166 "/>
<path d="M160.7259 188.1166 L161.1102 189.2695 "/>
</g></g>
<g style="fill:#848484; fill-opacity:0.01;  stroke:#848484; stroke-width:0.3458; stroke-opacity:1;  stroke-linecap:round; stroke-linejoin:round;">
<text x="138.9559" y="77.9769" textLength="7.1007" font-size="3.0742" lengthAdjust="spacingAndGlyphs" text-anchor="middle" opacity="0.01" style="font-family:monospace">33R</text>
<g class="stroked-text"><desc>33R</desc>
<path d="M135.9366 75.5671 L137.3639 75.5671 "/>
<path d="M137.3639 75.5671 L136.5953 76.4454 "/>
<path d="M136.5953 76.4454 L136.9247 76.4454 "/>
<path d="M136.9247 76.4454 L137.1443 76.5552 "/>
<path d="M137.1443 76.5552 L137.2541 76.6650 "/>
<path d="M137.2541 76.6650 L137.3639 76.8846 "/>
<path d="M137.3639 76.8846 L137.3639 77.4335 "/>
<path d="M137.3639 77.4335 L137.2541 77.6531 "/>
<path d="M137.2541 77.6531 L137.1443 77.7629 "/>
<path d="M137.1443 77.7629 L136.9247 77.8727 "/>
<path d="M136.9247 77.8727 L136.2660 77.8727 "/>
<path d="M136.2660 77.8727 L136.0464 77.7629 "/>
<path d="M136.0464 77.7629 L135.9366 77.6531 "/>
<path d="M138.1324 75.5671 L139.5597 75.5671 "/>
<path d="M139.5597 75.5671 L138.7912 76.4454 "/>
<path d="M138.7912 76.4454 L139.1205 76.4454 "/>
<path d="M139.1205 76.4454 L139.3401 76.5552 "/>
<path d="M139.3401 76.5552 L139.4499 76.6650 "/>
<path d="M139.4499 76.6650 L139.5597 76.8846 "/>
<path d="M139.5597 76.8846 L139.5597 77.4335 "/>
<path d="M139.5597 77.4335 L139.4499 77.6531 "/>
<path d="M139.4499 77.6531 L139.3401 77.7629 "/>
<path d="M139.3401 77.7629 L139.1205 77.8727 "/>
<path d="M139.1205 77.8727 L138.4618 77.8727 "/>
<path d="M138.4618 77.8727 L138.2422 77.7629 "/>
<path d="M138.2422 77.7629 L138.1324 77.6531 "/>
<path d="M141.8653 77.8727 L141.0968 76.7748 "/>
<path d="M140.5478 77.8727 L140.5478 75.5671 "/>
<path d="M140.5478 75.5671 L141.4262 75.5671 "/>
<path d="M141.4262 75.5671 L141.6457 75.6769 "/>
<path d="M141.6457 75.6769 L141.7555 75.7866 "/>
<path d="M141.7555 75.7866 L141.8653 76.0062 "/>
<path d="M141.8653 76.0062 L141.8653 76.3356 "/>
<path d="M141.8653 76.3356 L141.7555 76.5552 "/>
<path d="M141.7555 76.5552 L141.6457 76.6650 "/>
<path d="M141.6457 76.6650 L141.4262 76.7748 "/>
<path d="M141.4262 76.7748 L140.5478 76.7748 "/>
</g><text x="138.9559" y="64.7196" textLength="4.9049" font-size="3.0742" lengthAdjust="spacingAndGlyphs" text-anchor="middle" opacity="0.01" style="font-family:monospace">R3</text>
<g class="stroked-text"><desc>R3</desc>
<path d="M138.5716 64.6154 L137.8030 63.5175 "/>
<path d="M137.2541 64.6154 L137.2541 62.3098 "/>
<path d="M137.2541 62.3098 L138.1324 62.3098 "/>
<path d="M138.1324 62.3098 L138.3520 62.4196 "/>
<path d="M138.3520 62.4196 L138.4618 62.5294 "/>
<path d="M138.4618 62.5294 L138.5716 62.7489 "/>
<path d="M138.5716 62.7489 L138.5716 63.0783 "/>
<path d="M138.5716 63.0783 L138.4618 63.2979 "/>
<path d="M138.4618 63.2979 L138.3520 63.4077 "/>
<path d="M138.3520 63.4077 L138.1324 63.5175 "/>
<path d="M138.1324 63.5175 L137.2541 63.5175 "/>
<path d="M139.3401 62.3098 L140.7674 62.3098 "/>
<path d="M140.7674 62.3098 L139.9989 63.1881 "/>
<path d="M139.9989 63.1881 L140.3282 63.1881 "/>
<path d="M140.3282 63.1881 L140.5478 63.2979 "/>
<path d="M140.5478 63.2979 L140.6576 63.4077 "/>
<path d="M140.6576 63.4077 L140.7674 63.6273 "/>
<path d="M140.7674 63.6273 L140.7674 64.1762 "/>
<path d="M140.7674 64.1762 L140.6576 64.3958 "/>
<path d="M140.6576 64.3958 L140.5478 64.5056 "/>
<path d="M140.5478 64.5056 L140.3282 64.6154 "/>
<path d="M140.3282 64.6154 L139.6695 64.6154 "/>
<path d="M139.6695 64.6154 L139.4499 64.5056 "/>
<path d="M139.4499 64.5056 L139.3401 64.3958 "/>
</g><text x="138.9559" y="175.8634" textLength="7.1007" font-size="3.0742" lengthAdjust="spacingAndGlyphs" text-anchor="middle" opacity="0.01" style="font-family:monospace">33R</text>
<g class="stroked-text"><desc>33R</desc>
<path d="M135.9366 173.4536 L137.3639 173.4536 "/>
<path d="M137.3639 173.4536 L136.5953 174.3319 "/>
<path d="M136.5953 174.3319 L136.9247 174.3319 "/>
<path d="M136.9247 174.3319 L137.1443 174.4417 "/>
<path d="M137.1443 174.4417 L137.2541 174.5515 "/>
<path d="M137.2541 174.5515 L137.3639 174.7711 "/>
<path d="M137.3639 174.7711 L137.3639 175.3200 "/>
<path d="M137.3639 175.3200 L137.2541 175.5396 "/>
<path d="M137.2541 175.5396 L137.1443 175.6494 "/>
<path d="M137.1443 175.6494 L136.9247 175.7592 "/>
<path d="M136.9247 175.7592 L136.2660 175.7592 "/>
<path d="M136.2660 175.7592 L136.0464 175.6494 "/>
<path d="M136.0464 175.6494 L135.9366 175.5396 "/>
<path d="M138.1324 173.4536 L139.5597 173.4536 "/>
<path d="M139.5597 173.4536 L138.7912 174.3319 "/>
<path d="M138.7912 174.3319 L139.1205 174.3319 "/>
<path d="M139.1205 174.3319 L139.3401 174.4417 "/>
<path d="M139.3401 174.4417 L139.4499 174.5515 "/>
<path d="M139.4499 174.5515 L139.5597 174.7711 "/>
<path d="M139.5597 174.7711 L139.5597 175.3200 "/>
<path d="M139.5597 175.3200 L139.4499 175.5396 "/>
<path d="M139.4499 175.5396 L139.3401 175.6494 "/>
<path d="M139.3401 175.6494 L139.1205 175.7592 "/>
<path d="M139.1205 175.7592 L138.4618 175.7592 "/>
<path d="M138.4618 175.7592 L138.2422 175.6494 "/>
<path d="M138.2422 175.6494 L138.1324 175.5396 "/>
<path d="M141.8653 175.7592 L141.0968 174.6613 "/>
<path d="M140.5478 175.7592 L140.5478 173.4536 "/>
<path d="M140.5478 173.4536 L141.4262 173.4536 "/>
<path d="M141.4262 173.4536 L141.6457 173.5634 "/>
<path d="M141.6457 173.5634 L141.7555 173.6732 "/>
<path d="M141.7555 173.6732 L141.8653 173.8927 "/>
<path d="M141.8653 173.8927 L141.8653 174.2221 "/>
<path d="M141.8653 174.2221 L141.7555 174.4417 "/>
<path d="M141.7555 174.4417 L141.6457 174.5515 "/>
<path d="M141.6457 174.5515 L141.4262 174.6613 "/>
<path d="M141.4262 174.6613 L140.5478 174.6613 "/>
</g><text x="138.9559" y="162.6061" textLength="4.9049" font-size="3.0742" lengthAdjust="spacingAndGlyphs" text-anchor="middle" opacity="0.01" style="font-family:monospace">R7</text>
<g class="stroked-text"><desc>R7</desc>
<path d="M138.5716 162.5019 L137.8030 161.4040 "/>
<path d="M137.2541 162.5019 L137.2541 160.1963 "/>
<path d="M137.2541 160.1963 L138.1324 160.1963 "/>
<path d="M138.1324 160.1963 L138.3520 160.3061 "/>
<path d="M138.3520 160.3061 L138.4618 160.4159 "/>
<path d="M138.4618 160.4159 L138.5716 160.6355 "/>
<path d="M138.5716 160.6355 L138.5716 160.9648 "/>
<path d="M138.5716 160.9648 L138.4618 161.1844 "/>
<path d="M138.4618 161.1844 L138.3520 161.2942 "/>
<path d="M138.3520 161.2942 L138.1324 161.4040 "/>
<path d="M138.1324 161.4040 L137.2541 161.4040 "/>
<path d="M139.3401 160.1963 L140.8772 160.1963 "/>
<path d="M140.8772 160.1963 L139.8891 162.5019 "/>
</g></g>
<g style="fill:#848484; fill-opacity:0.0;  stroke:#848484; stroke-width:0.7028; stroke-opacity:1;  stroke-linecap:round; stroke-linejoin:round;">
<g transform="rotate(-90.000000 72.1993 87.9559)">
<text x="72.1993" y="89.7128" textLength="7.0777" font-size="4.6850" lengthAdjust="spacingAndGlyphs" text-anchor="middle" opacity="0.01" style="font-family:monospace">J6</text>
</g>
<g class="stroked-text"><desc>J6</desc>
<path d="M70.2745 89.1271 L72.7844 89.1271 "/>
<path d="M72.7844 89.1271 L73.2863 89.2945 "/>
<path d="M73.2863 89.2945 L73.6210 89.6291 "/>
<path d="M73.6210 89.6291 L73.7883 90.1311 "/>
<path d="M73.7883 90.1311 L73.7883 90.4657 "/>
<path d="M70.2745 85.9480 L70.2745 86.6173 "/>
<path d="M70.2745 86.6173 L70.4419 86.9520 "/>
<path d="M70.4419 86.9520 L70.6092 87.1193 "/>
<path d="M70.6092 87.1193 L71.1112 87.4539 "/>
<path d="M71.1112 87.4539 L71.7804 87.6212 "/>
<path d="M71.7804 87.6212 L73.1190 87.6212 "/>
<path d="M73.1190 87.6212 L73.4537 87.4539 "/>
<path d="M73.4537 87.4539 L73.6210 87.2866 "/>
<path d="M73.6210 87.2866 L73.7883 86.9520 "/>
<path d="M73.7883 86.9520 L73.7883 86.2827 "/>
<path d="M73.7883 86.2827 L73.6210 85.9480 "/>
<path d="M73.6210 85.9480 L73.4537 85.7807 "/>
<path d="M73.4537 85.7807 L73.1190 85.6134 "/>
<path d="M73.1190 85.6134 L72.2824 85.6134 "/>
<path d="M72.2824 85.6134 L71.9478 85.7807 "/>
<path d="M71.9478 85.7807 L71.7804 85.9480 "/>
<path d="M71.7804 85.9480 L71.6131 86.2827 "/>
<path d="M71.6131 86.2827 L71.6131 86.9520 "/>
<path d="M71.6131 86.9520 L71.7804 87.2866 "/>
<path d="M71.7804 87.2866 L71.9478 87.4539 "/>
<path d="M71.9478 87.4539 L72.2824 87.6212 "/>
</g><g transform="rotate(-90.000000 72.1993 145.5963)">
<text x="72.1993" y="147.3531" textLength="10.4241" font-size="4.6850" lengthAdjust="spacingAndGlyphs" text-anchor="middle" opacity="0.01" style="font-family:monospace">J11</text>
</g>
<g class="stroked-text"><desc>J11</desc>
<path d="M70.2745 148.4407 L72.7844 148.4407 "/>
<path d="M72.7844 148.4407 L73.2863 148.6080 "/>
<path d="M73.2863 148.6080 L73.6210 148.9427 "/>
<path d="M73.6210 148.9427 L73.7883 149.4447 "/>
<path d="M73.7883 149.4447 L73.7883 149.7793 "/>
<path d="M73.7883 144.9270 L73.7883 146.9348 "/>
<path d="M73.7883 145.9309 L70.2745 145.9309 "/>
<path d="M70.2745 145.9309 L70.7765 146.2655 "/>
<path d="M70.7765 146.2655 L71.1112 146.6002 "/>
<path d="M71.1112 146.6002 L71.2785 146.9348 "/>
<path d="M73.7883 141.5805 L73.7883 143.5884 "/>
<path d="M73.7883 142.5845 L70.2745 142.5845 "/>
<path d="M70.2745 142.5845 L70.7765 142.9191 "/>
<path d="M70.7765 142.9191 L71.1112 143.2537 "/>
<path d="M71.1112 143.2537 L71.2785 143.5884 "/>
</g></g>
<g style="fill:#848484; fill-opacity:0.01;  stroke:#848484; stroke-width:0.3458; stroke-opacity:1;  stroke-linecap:round; stroke-linejoin:round;">
<text x="138.9559" y="102.4485" textLength="7.1007" font-size="3.0742" lengthAdjust="spacingAndGlyphs" text-anchor="middle" opacity="0.01" style="font-family:monospace">33R</text>
<g class="stroked-text"><desc>33R</desc>
<path d="M135.9366 100.0387 L137.3639 100.0387 "/>
<path d="M137.3639 100.0387 L136.5953 100.9170 "/>
<path d="M136.5953 100.9170 L136.9247 100.9170 "/>
<path d="M136.9247 100.9170 L137.1443 101.0268 "/>
<path d="M137.1443 101.0268 L137.2541 101.1366 "/>
<path d="M137.2541 101.1366 L137.3639 101.3562 "/>
<path d="M137.3639 101.3562 L137.3639 101.9051 "/>
<path d="M137.3639 101.9051 L137.2541 102.1247 "/>
<path d="M137.2541 102.1247 L137.1443 102.2345 "/>
<path d="M137.1443 102.2345 L136.9247 102.3443 "/>
<path d="M136.9247 102.3443 L136.2660 102.3443 "/>
<path d="M136.2660 102.3443 L136.0464 102.2345 "/>
<path d="M136.0464 102.2345 L135.9366 102.1247 "/>
<path d="M138.1324 100.0387 L139.5597 100.0387 "/>
<path d="M139.5597 100.0387 L138.7912 100.9170 "/>
<path d="M138.7912 100.9170 L139.1205 100.9170 "/>
<path d="M139.1205 100.9170 L139.3401 101.0268 "/>
<path d="M139.3401 101.0268 L139.4499 101.1366 "/>
<path d="M139.4499 101.1366 L139.5597 101.3562 "/>
<path d="M139.5597 101.3562 L139.5597 101.9051 "/>
<path d="M139.5597 101.9051 L139.4499 102.1247 "/>
<path d="M139.4499 102.1247 L139.3401 102.2345 "/>
<path d="M139.3401 102.2345 L139.1205 102.3443 "/>
<path d="M139.1205 102.3443 L138.4618 102.3443 "/>
<path d="M138.4618 102.3443 L138.2422 102.2345 "/>
<path d="M138.2422 102.2345 L138.1324 102.1247 "/>
<path d="M141.8653 102.3443 L141.0968 101.2464 "/>
<path d="M140.5478 102.3443 L140.5478 100.0387 "/>
<path d="M140.5478 100.0387 L141.4262 100.0387 "/>
<path d="M141.4262 100.0387 L141.6457 100.1485 "/>
<path d="M141.6457 100.1485 L141.7555 100.2583 "/>
<path d="M141.7555 100.2583 L141.8653 100.4779 "/>
<path d="M141.8653 100.4779 L141.8653 100.8072 "/>
<path d="M141.8653 100.8072 L141.7555 101.0268 "/>
<path d="M141.7555 101.0268 L141.6457 101.1366 "/>
<path d="M141.6457 101.1366 L141.4262 101.2464 "/>
<path d="M141.4262 101.2464 L140.5478 101.2464 "/>
</g><text x="138.9559" y="89.1912" textLength="4.9049" font-size="3.0742" lengthAdjust="spacingAndGlyphs" text-anchor="middle" opacity="0.01" style="font-family:monospace">R4</text>
<g class="stroked-text"><desc>R4</desc>
<path d="M138.5716 89.0870 L137.8030 87.9891 "/>
<path d="M137.2541 89.0870 L137.2541 86.7814 "/>
<path d="M137.2541 86.7814 L138.1324 86.7814 "/>
<path d="M138.1324 86.7814 L138.3520 86.8912 "/>
<path d="M138.3520 86.8912 L138.4618 87.0010 "/>
<path d="M138.4618 87.0010 L138.5716 87.2206 "/>
<path d="M138.5716 87.2206 L138.5716 87.5499 "/>
<path d="M138.5716 87.5499 L138.4618 87.7695 "/>
<path d="M138.4618 87.7695 L138.3520 87.8793 "/>
<path d="M138.3520 87.8793 L138.1324 87.9891 "/>
<path d="M138.1324 87.9891 L137.2541 87.9891 "/>
<path d="M140.5478 87.5499 L140.5478 89.0870 "/>
<path d="M139.9989 86.6716 L139.4499 88.3185 "/>
<path d="M139.4499 88.3185 L140.8772 88.3185 "/>
</g></g>
<g style="fill:#848484; fill-opacity:0.0;  stroke:#848484; stroke-width:0.7028; stroke-opacity:1;  stroke-linecap:round; stroke-linejoin:round;">
<g transform="rotate(-90.000000 72.1993 111.0120)">
<text x="72.1993" y="112.7689" textLength="7.0777" font-size="4.6850" lengthAdjust="spacingAndGlyphs" text-anchor="middle" opacity="0.01" style="font-family:monospace">J8</text>
</g>
<g class="stroked-text"><desc>J8</desc>
<path d="M70.2745 112.1833 L72.7844 112.1833 "/>
<path d="M72.7844 112.1833 L73.2863 112.3506 "/>
<path d="M73.2863 112.3506 L73.6210 112.6852 "/>
<path d="M73.6210 112.6852 L73.7883 113.1872 "/>
<path d="M73.7883 113.1872 L73.7883 113.5219 "/>
<path d="M71.7804 110.0081 L71.6131 110.3427 "/>
<path d="M71.6131 110.3427 L71.4458 110.5101 "/>
<path d="M71.4458 110.5101 L71.1112 110.6774 "/>
<path d="M71.1112 110.6774 L70.9438 110.6774 "/>
<path d="M70.9438 110.6774 L70.6092 110.5101 "/>
<path d="M70.6092 110.5101 L70.4419 110.3427 "/>
<path d="M70.4419 110.3427 L70.2745 110.0081 "/>
<path d="M70.2745 110.0081 L70.2745 109.3388 "/>
<path d="M70.2745 109.3388 L70.4419 109.0042 "/>
<path d="M70.4419 109.0042 L70.6092 108.8368 "/>
<path d="M70.6092 108.8368 L70.9438 108.6695 "/>
<path d="M70.9438 108.6695 L71.1112 108.6695 "/>
<path d="M71.1112 108.6695 L71.4458 108.8368 "/>
<path d="M71.4458 108.8368 L71.6131 109.0042 "/>
<path d="M71.6131 109.0042 L71.7804 109.3388 "/>
<path d="M71.7804 109.3388 L71.7804 110.0081 "/>
<path d="M71.7804 110.0081 L71.9478 110.3427 "/>
<path d="M71.9478 110.3427 L72.1151 110.5101 "/>
<path d="M72.1151 110.5101 L72.4497 110.6774 "/>
<path d="M72.4497 110.6774 L73.1190 110.6774 "/>
<path d="M73.1190 110.6774 L73.4537 110.5101 "/>
<path d="M73.4537 110.5101 L73.6210 110.3427 "/>
<path d="M73.6210 110.3427 L73.7883 110.0081 "/>
<path d="M73.7883 110.0081 L73.7883 109.3388 "/>
<path d="M73.7883 109.3388 L73.6210 109.0042 "/>
<path d="M73.6210 109.0042 L73.4537 108.8368 "/>
<path d="M73.4537 108.8368 L73.1190 108.6695 "/>
<path d="M73.1190 108.6695 L72.4497 108.6695 "/>
<path d="M72.4497 108.6695 L72.1151 108.8368 "/>
<path d="M72.1151 108.8368 L71.9478 109.0042 "/>
<path d="M71.9478 109.0042 L71.7804 109.3388 "/>
</g></g>
<g style="fill:#848484; fill-opacity:0.0;  stroke:#848484; stroke-width:0.3458; stroke-opacity:1;  stroke-linecap:round; stroke-linejoin:round;">
<g transform="rotate(-180.000000 169.5836 94.9308)">
<text x="169.5836" y="96.0836" textLength="2.7091" font-size="3.0742" lengthAdjust="spacingAndGlyphs" text-anchor="middle" opacity="0.01" style="font-family:monospace">K</text>
</g>
<g class="stroked-text"><desc>K</desc>
<path d="M170.1875 93.8822 L170.1875 96.1878 "/>
<path d="M168.8700 93.8822 L169.8581 95.1997 "/>
<path d="M168.8700 96.1878 L170.1875 94.8703 "/>
</g><g transform="rotate(-90.000000 196.3410 154.9663)">
<text x="196.3410" y="156.1191" textLength="2.7091" font-size="3.0742" lengthAdjust="spacingAndGlyphs" text-anchor="middle" opacity="0.01" style="font-family:monospace">K</text>
</g>
<g class="stroked-text"><desc>K</desc>
<path d="M197.3896 155.5701 L195.0840 155.5701 "/>
<path d="M197.3896 154.2526 L196.0721 155.2407 "/>
<path d="M195.0840 154.2526 L196.4015 155.5701 "/>
</g><g transform="rotate(-90.000000 194.4325 177.6443)">
<text x="194.4325" y="178.7971" textLength="2.7091" font-size="3.0742" lengthAdjust="spacingAndGlyphs" text-anchor="middle" opacity="0.01" style="font-family:monospace">K</text>
</g>
<g class="stroked-text"><desc>K</desc>
<path d="M195.4812 178.2481 L193.1755 178.2481 "/>
<path d="M195.4812 176.9307 L194.1637 177.9188 "/>
<path d="M193.1755 176.9307 L194.4930 178.2481 "/>
</g><g transform="rotate(-180.000000 169.5836 45.7382)">
<text x="169.5836" y="46.8910" textLength="2.7091" font-size="3.0742" lengthAdjust="spacingAndGlyphs" text-anchor="middle" opacity="0.01" style="font-family:monospace">K</text>
</g>
<g class="stroked-text"><desc>K</desc>
<path d="M170.1875 44.6896 L170.1875 46.9952 "/>
<path d="M168.8700 44.6896 L169.8581 46.0071 "/>
<path d="M168.8700 46.9952 L170.1875 45.6777 "/>
</g><g transform="rotate(-180.000000 169.5836 168.7197)">
<text x="169.5836" y="169.8725" textLength="2.7091" font-size="3.0742" lengthAdjust="spacingAndGlyphs" text-anchor="middle" opacity="0.01" style="font-family:monospace">K</text>
</g>
<g class="stroked-text"><desc>K</desc>
<path d="M170.1875 167.6711 L170.1875 169.9767 "/>
<path d="M168.8700 167.6711 L169.8581 168.9886 "/>
<path d="M168.8700 169.9767 L170.1875 168.6592 "/>
</g><g transform="rotate(-180.000000 169.5836 144.1234)">
<text x="169.5836" y="145.2762" textLength="2.7091" font-size="3.0742" lengthAdjust="spacingAndGlyphs" text-anchor="middle" opacity="0.01" style="font-family:monospace">K</text>
</g>
<g class="stroked-text"><desc>K</desc>
<path d="M170.1875 143.0748 L170.1875 145.3804 "/>
<path d="M168.8700 143.0748 L169.8581 144.3923 "/>
<path d="M168.8700 145.3804 L170.1875 144.0629 "/>
</g><g transform="rotate(-180.000000 169.5836 70.3345)">
<text x="169.5836" y="71.4873" textLength="2.7091" font-size="3.0742" lengthAdjust="spacingAndGlyphs" text-anchor="middle" opacity="0.01" style="font-family:monospace">K</text>
</g>
<g class="stroked-text"><desc>K</desc>
<path d="M170.1875 69.2859 L170.1875 71.5915 "/>
<path d="M168.8700 69.2859 L169.8581 70.6034 "/>
<path d="M168.8700 71.5915 L170.1875 70.2740 "/>
</g><g transform="rotate(-180.000000 169.5836 119.5271)">
<text x="169.5836" y="120.6799" textLength="2.7091" font-size="3.0742" lengthAdjust="spacingAndGlyphs" text-anchor="middle" opacity="0.01" style="font-family:monospace">K</text>
</g>
<g class="stroked-text"><desc>K</desc>
<path d="M170.1875 118.4785 L170.1875 120.7841 "/>
<path d="M168.8700 118.4785 L169.8581 119.7960 "/>
<path d="M168.8700 120.7841 L170.1875 119.4666 "/>
</g><g transform="rotate(-180.000000 169.5836 21.1419)">
<text x="169.5836" y="22.2947" textLength="2.7091" font-size="3.0742" lengthAdjust="spacingAndGlyphs" text-anchor="middle" opacity="0.01" style="font-family:monospace">K</text>
</g>
<g class="stroked-text"><desc>K</desc>
<path d="M170.1875 20.0933 L170.1875 22.3989 "/>
<path d="M168.8700 20.0933 L169.8581 21.4108 "/>
<path d="M168.8700 22.3989 L170.1875 21.0814 "/>
</g><path d="M93.8306 56.8301 L100.7474 56.8301 "/>
<path d="M68.4688 47.6076 L89.2194 47.6076 "/>
<path d="M93.8306 49.9132 L100.7474 49.9132 "/>
<path d="M89.2194 47.6076 L103.0531 47.6076 "/>
<path d="M100.7474 48.7604 L100.7474 57.9829 "/>
<path d="M89.2194 59.1359 L89.2194 47.6074 "/>
<path d="M101.9005 49.9132 L107.6643 49.9132 "/>
<path d="M89.2194 59.1357 L68.4688 59.1357 "/>
<path d="M93.8306 56.8303 L93.8306 49.9130 "/>
<path d="M103.0531 59.1357 L103.0531 57.9829 "/>
<path d="M100.7474 57.9829 L108.8173 57.9829 "/>
<path d="M89.2194 59.1357 L103.0531 59.1357 "/>
<path d="M101.9005 56.8301 L107.6643 56.8301 "/>
<path d="M100.7474 48.7604 L108.8194 48.7604 "/>
<path d="M101.9005 56.8324 L101.9005 49.9109 "/>
<path d="M69.6214 57.9829 L88.0663 57.9829 "/>
<path d="M103.0531 48.7604 L103.0531 47.6076 "/>
<path d="M88.0663 48.7604 L88.0663 57.9829 "/>
<path d="M108.8173 48.7604 L108.8173 57.9829 "/>
<path d="M68.4688 59.1359 L68.4688 47.6074 "/>
<path d="M88.0663 51.0660 L89.2194 51.0660 "/>
<path d="M69.6214 48.7604 L88.0663 48.7604 "/>
<path d="M107.6643 56.8324 L107.6643 49.9109 "/>
<path d="M88.0663 55.6773 L89.2194 55.6773 "/>
<path d="M69.6214 57.9829 L69.6214 48.7604 "/>
</g>
<g style="fill:#848484; fill-opacity:0.0;  stroke:#848484; stroke-width:0.8784; stroke-opacity:1;  stroke-linecap:round; stroke-linejoin:round;">
<circle cx="218.7762" cy="11.3034" r="6.9162"/> 
</g>
<g style="fill:#848484; fill-opacity:0.0;  stroke:#848484; stroke-width:0.3458; stroke-opacity:1;  stroke-linecap:round; stroke-linejoin:round;">
<path d="M93.8306 68.3582 L100.7474 68.3582 "/>
<path d="M89.2194 70.6638 L103.0531 70.6638 "/>
<path d="M68.4688 59.1357 L89.2194 59.1357 "/>
<path d="M108.8173 60.2885 L108.8173 69.5110 "/>
<path d="M89.2194 59.1357 L103.0531 59.1357 "/>
<path d="M68.4688 70.6640 L68.4688 59.1355 "/>
<path d="M93.8306 61.4413 L100.7474 61.4413 "/>
<path d="M69.6214 69.5110 L88.0663 69.5110 "/>
<path d="M101.9005 61.4413 L107.6643 61.4413 "/>
<path d="M101.9005 68.3582 L107.6643 68.3582 "/>
<path d="M93.8306 68.3584 L93.8306 61.4411 "/>
<path d="M89.2194 70.6638 L68.4688 70.6638 "/>
<path d="M103.0531 70.6638 L103.0531 69.5110 "/>
<path d="M89.2194 70.6640 L89.2194 59.1355 "/>
<path d="M69.6214 60.2885 L88.0663 60.2885 "/>
<path d="M88.0663 67.2054 L89.2194 67.2054 "/>
<path d="M103.0531 60.2885 L103.0531 59.1357 "/>
<path d="M107.6643 68.3605 L107.6643 61.4390 "/>
<path d="M69.6214 69.5110 L69.6214 60.2885 "/>
<path d="M100.7474 69.5110 L108.8173 69.5110 "/>
<path d="M101.9005 68.3605 L101.9005 61.4390 "/>
<path d="M100.7474 60.2885 L108.8194 60.2885 "/>
<path d="M88.0663 60.2885 L88.0663 69.5110 "/>
<path d="M100.7474 60.2885 L100.7474 69.5110 "/>
<path d="M88.0663 62.5941 L89.2194 62.5941 "/>
</g>
<g style="fill:#848484; fill-opacity:0.0;  stroke:#848484; stroke-width:0.8784; stroke-opacity:1;  stroke-linecap:round; stroke-linejoin:round;">
<circle cx="218.7762" cy="198.7038" r="6.9162"/> 
</g>
<g style="fill:#848484; fill-opacity:0.0;  stroke:#848484; stroke-width:0.3458; stroke-opacity:1;  stroke-linecap:round; stroke-linejoin:round;">
<path d="M227.9476 178.1792 L209.5027 178.1792 "/>
<path d="M208.3497 167.8037 L208.3497 179.3322 "/>
<path d="M229.1002 179.3320 L208.3497 179.3320 "/>
<path d="M194.5160 167.8039 L194.5160 168.9567 "/>
<path d="M195.6686 170.1095 L189.9048 170.1095 "/>
<path d="M203.7384 170.1093 L203.7384 177.0266 "/>
<path d="M194.5160 178.1792 L194.5160 179.3320 "/>
<path d="M195.6686 170.1072 L195.6686 177.0287 "/>
<path d="M227.9476 168.9567 L227.9476 178.1792 "/>
<path d="M209.5027 178.1792 L209.5027 168.9567 "/>
<path d="M208.3497 179.3320 L194.5160 179.3320 "/>
<path d="M208.3497 167.8039 L229.1002 167.8039 "/>
<path d="M189.9048 170.1072 L189.9048 177.0287 "/>
<path d="M195.6686 177.0264 L189.9048 177.0264 "/>
<path d="M196.8216 178.1792 L196.8216 168.9567 "/>
<path d="M227.9476 168.9567 L209.5027 168.9567 "/>
<path d="M208.3497 167.8039 L194.5160 167.8039 "/>
<path d="M203.7384 170.1095 L196.8216 170.1095 "/>
<path d="M229.1002 167.8037 L229.1002 179.3322 "/>
<path d="M209.5027 175.8736 L208.3497 175.8736 "/>
<path d="M209.5027 171.2624 L208.3497 171.2624 "/>
<path d="M203.7384 177.0264 L196.8216 177.0264 "/>
<path d="M188.7517 178.1792 L188.7517 168.9567 "/>
<path d="M196.8216 178.1792 L188.7496 178.1792 "/>
<path d="M196.8216 168.9567 L188.7517 168.9567 "/>
</g>
<g style="fill:#848484; fill-opacity:0.0;  stroke:#848484; stroke-width:0.2306; stroke-opacity:1;  stroke-linecap:round; stroke-linejoin:round;">
<path d="M153.9424 122.8853 L153.9424 102.1348 "/>
<path d="M123.9694 122.8853 L153.9424 122.8853 "/>
<path d="M126.2750 102.1348 L126.2750 122.8853 "/>
<path d="M151.6367 102.1348 L151.6367 122.8853 "/>
<path d="M153.9424 102.1348 L123.9694 102.1348 "/>
<path d="M123.9694 102.1348 L123.9694 122.8853 "/>
</g>
<g style="fill:#848484; fill-opacity:0.0;  stroke:#848484; stroke-width:0.3458; stroke-opacity:1;  stroke-linecap:round; stroke-linejoin:round;">
<path d="M101.9005 33.7739 L107.6643 33.7739 "/>
<path d="M69.6214 34.9267 L88.0663 34.9267 "/>
<path d="M89.2194 36.0798 L89.2194 24.5512 "/>
<path d="M88.0663 32.6211 L89.2194 32.6211 "/>
<path d="M93.8306 33.7742 L93.8306 26.8569 "/>
<path d="M100.7474 25.7043 L100.7474 34.9267 "/>
<path d="M93.8306 33.7739 L100.7474 33.7739 "/>
<path d="M103.0531 36.0796 L103.0531 34.9267 "/>
<path d="M88.0663 25.7043 L88.0663 34.9267 "/>
<path d="M89.2194 36.0796 L68.4688 36.0796 "/>
<path d="M89.2194 24.5515 L103.0531 24.5515 "/>
<path d="M69.6214 25.7043 L88.0663 25.7043 "/>
<path d="M103.0531 25.7043 L103.0531 24.5515 "/>
<path d="M100.7474 25.7043 L108.8194 25.7043 "/>
<path d="M88.0663 28.0099 L89.2194 28.0099 "/>
<path d="M100.7474 34.9267 L108.8173 34.9267 "/>
<path d="M93.8306 26.8571 L100.7474 26.8571 "/>
<path d="M68.4688 36.0798 L68.4688 24.5512 "/>
<path d="M68.4688 24.5515 L89.2194 24.5515 "/>
<path d="M108.8173 25.7043 L108.8173 34.9267 "/>
<path d="M89.2194 36.0796 L103.0531 36.0796 "/>
<path d="M107.6643 33.7762 L107.6643 26.8548 "/>
<path d="M69.6214 34.9267 L69.6214 25.7043 "/>
<path d="M101.9005 26.8571 L107.6643 26.8571 "/>
<path d="M101.9005 33.7762 L101.9005 26.8548 "/>
<path d="M196.8216 166.6511 L196.8216 157.4287 "/>
<path d="M203.7384 158.5812 L203.7384 165.4985 "/>
<path d="M196.8216 166.6511 L188.7496 166.6511 "/>
<path d="M229.1002 156.2756 L229.1002 167.8042 "/>
<path d="M194.5160 166.6511 L194.5160 167.8039 "/>
<path d="M208.3497 156.2756 L208.3497 167.8042 "/>
<path d="M227.9476 157.4287 L209.5027 157.4287 "/>
<path d="M188.7517 166.6511 L188.7517 157.4287 "/>
<path d="M208.3497 167.8039 L194.5160 167.8039 "/>
<path d="M227.9476 157.4287 L227.9476 166.6511 "/>
<path d="M203.7384 165.4983 L196.8216 165.4983 "/>
<path d="M203.7384 158.5815 L196.8216 158.5815 "/>
<path d="M195.6686 158.5815 L189.9048 158.5815 "/>
<path d="M227.9476 166.6511 L209.5027 166.6511 "/>
<path d="M208.3497 156.2759 L229.1002 156.2759 "/>
<path d="M209.5027 166.6511 L209.5027 157.4287 "/>
<path d="M209.5027 159.7343 L208.3497 159.7343 "/>
<path d="M194.5160 156.2759 L194.5160 157.4287 "/>
<path d="M195.6686 158.5792 L195.6686 165.5006 "/>
<path d="M195.6686 165.4983 L189.9048 165.4983 "/>
<path d="M189.9048 158.5792 L189.9048 165.5006 "/>
<path d="M229.1002 167.8039 L208.3497 167.8039 "/>
<path d="M209.5027 164.3455 L208.3497 164.3455 "/>
<path d="M208.3497 156.2759 L194.5160 156.2759 "/>
<path d="M196.8216 157.4287 L188.7517 157.4287 "/>
<path d="M68.4688 93.7199 L89.2194 93.7199 "/>
<path d="M100.7474 94.8727 L100.7474 104.0952 "/>
<path d="M69.6214 94.8727 L88.0663 94.8727 "/>
<path d="M69.6214 104.0952 L69.6214 94.8727 "/>
<path d="M100.7474 94.8727 L108.8194 94.8727 "/>
<path d="M68.4688 105.2482 L68.4688 93.7197 "/>
<path d="M101.9005 102.9424 L107.6643 102.9424 "/>
<path d="M88.0663 94.8727 L88.0663 104.0952 "/>
<path d="M89.2194 93.7199 L103.0531 93.7199 "/>
<path d="M69.6214 104.0952 L88.0663 104.0952 "/>
<path d="M93.8306 96.0255 L100.7474 96.0255 "/>
<path d="M100.7474 104.0952 L108.8173 104.0952 "/>
<path d="M93.8306 102.9424 L100.7474 102.9424 "/>
<path d="M89.2194 105.2480 L103.0531 105.2480 "/>
<path d="M88.0663 97.1783 L89.2194 97.1783 "/>
<path d="M101.9005 102.9447 L101.9005 96.0232 "/>
<path d="M93.8306 102.9426 L93.8306 96.0253 "/>
<path d="M103.0531 94.8727 L103.0531 93.7199 "/>
<path d="M88.0663 101.7896 L89.2194 101.7896 "/>
<path d="M103.0531 105.2480 L103.0531 104.0952 "/>
<path d="M89.2194 105.2482 L89.2194 93.7197 "/>
<path d="M89.2194 105.2480 L68.4688 105.2480 "/>
<path d="M108.8173 94.8727 L108.8173 104.0952 "/>
<path d="M101.9005 96.0255 L107.6643 96.0255 "/>
<path d="M107.6643 102.9447 L107.6643 96.0232 "/>
<path d="M88.0663 152.5131 L88.0663 161.7356 "/>
<path d="M101.9005 160.5851 L101.9005 153.6636 "/>
<path d="M88.0663 154.8187 L89.2194 154.8187 "/>
<path d="M68.4688 151.3603 L89.2194 151.3603 "/>
<path d="M101.9005 153.6659 L107.6643 153.6659 "/>
<path d="M93.8306 160.5830 L93.8306 153.6657 "/>
<path d="M103.0531 152.5131 L103.0531 151.3603 "/>
<path d="M88.0663 159.4299 L89.2194 159.4299 "/>
<path d="M68.4688 162.8886 L68.4688 151.3601 "/>
<path d="M108.8173 152.5131 L108.8173 161.7356 "/>
<path d="M100.7474 152.5131 L108.8194 152.5131 "/>
<path d="M93.8306 153.6659 L100.7474 153.6659 "/>
<path d="M107.6643 160.5851 L107.6643 153.6636 "/>
<path d="M69.6214 161.7356 L88.0663 161.7356 "/>
<path d="M101.9005 160.5827 L107.6643 160.5827 "/>
<path d="M89.2194 151.3603 L103.0531 151.3603 "/>
<path d="M69.6214 161.7356 L69.6214 152.5131 "/>
<path d="M89.2194 162.8886 L89.2194 151.3601 "/>
<path d="M100.7474 161.7356 L108.8173 161.7356 "/>
<path d="M69.6214 152.5131 L88.0663 152.5131 "/>
<path d="M100.7474 152.5131 L100.7474 161.7356 "/>
<path d="M89.2194 162.8884 L68.4688 162.8884 "/>
<path d="M103.0531 162.8884 L103.0531 161.7356 "/>
<path d="M93.8306 160.5827 L100.7474 160.5827 "/>
<path d="M89.2194 162.8884 L103.0531 162.8884 "/>
</g>
<g style="fill:#848484; fill-opacity:0.0;  stroke:#848484; stroke-width:0.2306; stroke-opacity:1;  stroke-linecap:round; stroke-linejoin:round;">
<path d="M151.6367 28.7199 L151.6367 49.4704 "/>
<path d="M123.9694 49.4704 L153.9424 49.4704 "/>
<path d="M126.2750 28.7199 L126.2750 49.4704 "/>
<path d="M153.9424 49.4704 L153.9424 28.7199 "/>
<path d="M153.9424 28.7199 L123.9694 28.7199 "/>
<path d="M123.9694 28.7199 L123.9694 49.4704 "/>
</g>
<g style="fill:#848484; fill-opacity:0.0;  stroke:#848484; stroke-width:0.3458; stroke-opacity:1;  stroke-linecap:round; stroke-linejoin:round;">
<path d="M195.8513 146.8228 L190.0875 146.8228 "/>
<path d="M209.6854 152.5869 L208.5324 152.5869 "/>
<path d="M195.8513 146.8205 L195.8513 153.7420 "/>
<path d="M188.9344 154.8925 L188.9344 145.6700 "/>
<path d="M209.6854 147.9756 L208.5324 147.9756 "/>
<path d="M197.0043 145.6700 L188.9344 145.6700 "/>
<path d="M228.1303 145.6700 L228.1303 154.8925 "/>
<path d="M208.5324 144.5172 L229.2829 144.5172 "/>
<path d="M209.6854 154.8925 L209.6854 145.6700 "/>
<path d="M228.1303 154.8925 L209.6854 154.8925 "/>
<path d="M190.0875 146.8205 L190.0875 153.7420 "/>
<path d="M197.0043 154.8925 L197.0043 145.6700 "/>
<path d="M229.2829 156.0453 L208.5324 156.0453 "/>
<path d="M197.0043 154.8925 L188.9324 154.8925 "/>
<path d="M229.2829 144.5170 L229.2829 156.0455 "/>
<path d="M228.1303 145.6700 L209.6854 145.6700 "/>
<path d="M203.9212 146.8226 L203.9212 153.7399 "/>
<path d="M203.9212 146.8228 L197.0043 146.8228 "/>
<path d="M208.5324 144.5170 L208.5324 156.0455 "/>
<path d="M194.6987 154.8925 L194.6987 156.0453 "/>
<path d="M195.8513 153.7397 L190.0875 153.7397 "/>
<path d="M208.5324 144.5172 L194.6987 144.5172 "/>
<path d="M203.9212 153.7397 L197.0043 153.7397 "/>
<path d="M208.5324 156.0453 L194.6987 156.0453 "/>
<path d="M194.6987 144.5172 L194.6987 145.6700 "/>
<path d="M89.2194 82.1921 L89.2194 70.6635 "/>
<path d="M107.6643 79.8885 L107.6643 72.9671 "/>
<path d="M100.7474 81.0390 L108.8173 81.0390 "/>
<path d="M101.9005 79.8885 L101.9005 72.9671 "/>
<path d="M89.2194 70.6638 L103.0531 70.6638 "/>
<path d="M103.0531 71.8166 L103.0531 70.6638 "/>
<path d="M68.4688 82.1921 L68.4688 70.6635 "/>
<path d="M103.0531 82.1918 L103.0531 81.0390 "/>
<path d="M93.8306 72.9694 L100.7474 72.9694 "/>
<path d="M69.6214 81.0390 L69.6214 71.8166 "/>
<path d="M100.7474 71.8166 L100.7474 81.0390 "/>
<path d="M88.0663 71.8166 L88.0663 81.0390 "/>
<path d="M101.9005 72.9694 L107.6643 72.9694 "/>
<path d="M93.8306 79.8862 L100.7474 79.8862 "/>
<path d="M93.8306 79.8865 L93.8306 72.9692 "/>
<path d="M108.8173 71.8166 L108.8173 81.0390 "/>
<path d="M89.2194 82.1918 L103.0531 82.1918 "/>
<path d="M88.0663 74.1222 L89.2194 74.1222 "/>
<path d="M69.6214 71.8166 L88.0663 71.8166 "/>
<path d="M88.0663 78.7334 L89.2194 78.7334 "/>
<path d="M69.6214 81.0390 L88.0663 81.0390 "/>
<path d="M101.9005 79.8862 L107.6643 79.8862 "/>
<path d="M89.2194 82.1918 L68.4688 82.1918 "/>
<path d="M100.7474 71.8166 L108.8194 71.8166 "/>
<path d="M68.4688 70.6638 L89.2194 70.6638 "/>
<path d="M69.6214 117.9289 L88.0663 117.9289 "/>
<path d="M100.7474 117.9289 L108.8194 117.9289 "/>
<path d="M101.9005 119.0817 L107.6643 119.0817 "/>
<path d="M103.0531 117.9289 L103.0531 116.7761 "/>
<path d="M100.7474 127.1513 L108.8173 127.1513 "/>
<path d="M101.9005 125.9985 L107.6643 125.9985 "/>
<path d="M69.6214 127.1513 L69.6214 117.9289 "/>
<path d="M108.8173 117.9289 L108.8173 127.1513 "/>
<path d="M89.2194 128.3041 L103.0531 128.3041 "/>
<path d="M93.8306 125.9985 L100.7474 125.9985 "/>
<path d="M88.0663 117.9289 L88.0663 127.1513 "/>
<path d="M89.2194 128.3041 L68.4688 128.3041 "/>
<path d="M89.2194 128.3044 L89.2194 116.7758 "/>
<path d="M88.0663 124.8457 L89.2194 124.8457 "/>
<path d="M88.0663 120.2345 L89.2194 120.2345 "/>
<path d="M89.2194 116.7761 L103.0531 116.7761 "/>
<path d="M69.6214 127.1513 L88.0663 127.1513 "/>
<path d="M93.8306 125.9988 L93.8306 119.0815 "/>
<path d="M93.8306 119.0817 L100.7474 119.0817 "/>
<path d="M68.4688 116.7761 L89.2194 116.7761 "/>
<path d="M68.4688 128.3044 L68.4688 116.7758 "/>
<path d="M103.0531 128.3041 L103.0531 127.1513 "/>
<path d="M101.9005 126.0008 L101.9005 119.0794 "/>
<path d="M107.6643 126.0008 L107.6643 119.0794 "/>
<path d="M100.7474 117.9289 L100.7474 127.1513 "/>
</g>
<g style="fill:#848484; fill-opacity:0.0;  stroke:#848484; stroke-width:0.8784; stroke-opacity:1;  stroke-linecap:round; stroke-linejoin:round;">
<circle cx="78.2260" cy="198.7038" r="6.9162"/> 
</g>
<g style="fill:#848484; fill-opacity:0.0;  stroke:#848484; stroke-width:0.2306; stroke-opacity:1;  stroke-linecap:round; stroke-linejoin:round;">
<path d="M123.9694 147.3569 L153.9424 147.3569 "/>
<path d="M153.9424 147.3569 L153.9424 126.6064 "/>
<path d="M151.6367 126.6064 L151.6367 147.3569 "/>
<path d="M126.2750 126.6064 L126.2750 147.3569 "/>
<path d="M123.9694 126.6064 L123.9694 147.3569 "/>
<path d="M153.9424 126.6064 L123.9694 126.6064 "/>
</g>
<g style="fill:#848484; fill-opacity:0.0;  stroke:#848484; stroke-width:0.3458; stroke-opacity:1;  stroke-linecap:round; stroke-linejoin:round;">
<path d="M209.6854 143.3644 L209.6854 134.1420 "/>
<path d="M190.0875 135.2925 L190.0875 142.2139 "/>
<path d="M195.8513 142.2116 L190.0875 142.2116 "/>
<path d="M203.9212 135.2948 L197.0043 135.2948 "/>
<path d="M195.8513 135.2925 L195.8513 142.2139 "/>
<path d="M195.8513 135.2948 L190.0875 135.2948 "/>
<path d="M228.1303 134.1420 L228.1303 143.3644 "/>
<path d="M194.6987 143.3644 L194.6987 144.5172 "/>
<path d="M203.9212 135.2945 L203.9212 142.2118 "/>
<path d="M228.1303 134.1420 L209.6854 134.1420 "/>
<path d="M208.5324 132.9892 L229.2829 132.9892 "/>
<path d="M197.0043 134.1420 L188.9344 134.1420 "/>
<path d="M209.6854 136.4476 L208.5324 136.4476 "/>
<path d="M194.6987 132.9892 L194.6987 134.1420 "/>
<path d="M208.5324 132.9892 L194.6987 132.9892 "/>
<path d="M209.6854 141.0588 L208.5324 141.0588 "/>
<path d="M229.2829 144.5172 L208.5324 144.5172 "/>
<path d="M208.5324 132.9889 L208.5324 144.5175 "/>
<path d="M188.9344 143.3644 L188.9344 134.1420 "/>
<path d="M208.5324 144.5172 L194.6987 144.5172 "/>
<path d="M229.2829 132.9889 L229.2829 144.5175 "/>
<path d="M197.0043 143.3644 L197.0043 134.1420 "/>
<path d="M203.9212 142.2116 L197.0043 142.2116 "/>
<path d="M197.0043 143.3644 L188.9324 143.3644 "/>
<path d="M228.1303 143.3644 L209.6854 143.3644 "/>
</g>
<g style="fill:#848484; fill-opacity:0.0;  stroke:#848484; stroke-width:0.2306; stroke-opacity:1;  stroke-linecap:round; stroke-linejoin:round;">
<path d="M126.2750 4.2482 L126.2750 24.9988 "/>
<path d="M151.6367 4.2482 L151.6367 24.9988 "/>
<path d="M123.9694 4.2482 L123.9694 24.9988 "/>
<path d="M153.9424 4.2482 L123.9694 4.2482 "/>
<path d="M153.9424 24.9988 L153.9424 4.2482 "/>
<path d="M123.9694 24.9988 L153.9424 24.9988 "/>
</g>
<g style="fill:#848484; fill-opacity:0.0;  stroke:#848484; stroke-width:0.3458; stroke-opacity:1;  stroke-linecap:round; stroke-linejoin:round;">
<path d="M68.4688 128.3041 L89.2194 128.3041 "/>
<path d="M69.6214 138.6794 L88.0663 138.6794 "/>
<path d="M88.0663 129.4569 L88.0663 138.6794 "/>
<path d="M101.9005 130.6098 L107.6643 130.6098 "/>
<path d="M89.2194 128.3041 L103.0531 128.3041 "/>
<path d="M69.6214 138.6794 L69.6214 129.4569 "/>
<path d="M89.2194 139.8322 L68.4688 139.8322 "/>
<path d="M93.8306 137.5266 L100.7474 137.5266 "/>
<path d="M108.8173 129.4569 L108.8173 138.6794 "/>
<path d="M107.6643 137.5289 L107.6643 130.6075 "/>
<path d="M101.9005 137.5266 L107.6643 137.5266 "/>
<path d="M103.0531 129.4569 L103.0531 128.3041 "/>
<path d="M68.4688 139.8324 L68.4688 128.3039 "/>
<path d="M100.7474 138.6794 L108.8173 138.6794 "/>
<path d="M88.0663 131.7626 L89.2194 131.7626 "/>
<path d="M88.0663 136.3738 L89.2194 136.3738 "/>
<path d="M89.2194 139.8322 L103.0531 139.8322 "/>
<path d="M100.7474 129.4569 L100.7474 138.6794 "/>
<path d="M103.0531 139.8322 L103.0531 138.6794 "/>
<path d="M101.9005 137.5289 L101.9005 130.6075 "/>
<path d="M93.8306 137.5268 L93.8306 130.6095 "/>
<path d="M93.8306 130.6098 L100.7474 130.6098 "/>
<path d="M100.7474 129.4569 L108.8194 129.4569 "/>
<path d="M69.6214 129.4569 L88.0663 129.4569 "/>
<path d="M89.2194 139.8324 L89.2194 128.3039 "/>
</g>
<g style="fill:#848484; fill-opacity:0.0;  stroke:#848484; stroke-width:0.8784; stroke-opacity:1;  stroke-linecap:round; stroke-linejoin:round;">
<circle cx="78.2260" cy="11.3034" r="6.9162"/> 
</g>
<g style="fill:#848484; fill-opacity:0.0;  stroke:#848484; stroke-width:0.3458; stroke-opacity:1;  stroke-linecap:round; stroke-linejoin:round;">
<path d="M108.8173 37.2324 L108.8173 46.4548 "/>
<path d="M100.7474 46.4548 L108.8173 46.4548 "/>
<path d="M101.9005 45.3020 L107.6643 45.3020 "/>
<path d="M69.6214 37.2324 L88.0663 37.2324 "/>
<path d="M93.8306 38.3852 L100.7474 38.3852 "/>
<path d="M101.9005 38.3852 L107.6643 38.3852 "/>
<path d="M101.9005 45.3043 L101.9005 38.3829 "/>
<path d="M89.2194 47.6076 L103.0531 47.6076 "/>
<path d="M88.0663 44.1492 L89.2194 44.1492 "/>
<path d="M89.2194 47.6079 L89.2194 36.0793 "/>
<path d="M89.2194 36.0796 L103.0531 36.0796 "/>
<path d="M89.2194 47.6076 L68.4688 47.6076 "/>
<path d="M88.0663 39.5380 L89.2194 39.5380 "/>
<path d="M100.7474 37.2324 L100.7474 46.4548 "/>
<path d="M88.0663 37.2324 L88.0663 46.4548 "/>
<path d="M68.4688 36.0796 L89.2194 36.0796 "/>
<path d="M103.0531 37.2324 L103.0531 36.0796 "/>
<path d="M100.7474 37.2324 L108.8194 37.2324 "/>
<path d="M93.8306 45.3020 L100.7474 45.3020 "/>
<path d="M68.4688 47.6079 L68.4688 36.0793 "/>
<path d="M107.6643 45.3043 L107.6643 38.3829 "/>
<path d="M69.6214 46.4548 L69.6214 37.2324 "/>
<path d="M69.6214 46.4548 L88.0663 46.4548 "/>
<path d="M103.0531 47.6076 L103.0531 46.4548 "/>
<path d="M93.8306 45.3022 L93.8306 38.3849 "/>
</g>
<g style="fill:#848484; fill-opacity:0.0;  stroke:#848484; stroke-width:0.2306; stroke-opacity:1;  stroke-linecap:round; stroke-linejoin:round;">
<path d="M151.6367 53.1915 L151.6367 73.9420 "/>
<path d="M153.9424 73.9420 L153.9424 53.1915 "/>
<path d="M123.9694 73.9420 L153.9424 73.9420 "/>
<path d="M153.9424 53.1915 L123.9694 53.1915 "/>
<path d="M123.9694 53.1915 L123.9694 73.9420 "/>
<path d="M126.2750 53.1915 L126.2750 73.9420 "/>
<path d="M153.9424 171.8285 L153.9424 151.0780 "/>
<path d="M153.9424 151.0780 L123.9694 151.0780 "/>
<path d="M123.9694 171.8285 L153.9424 171.8285 "/>
<path d="M123.9694 151.0780 L123.9694 171.8285 "/>
<path d="M126.2750 151.0780 L126.2750 171.8285 "/>
<path d="M151.6367 151.0780 L151.6367 171.8285 "/>
</g>
<g style="fill:#848484; fill-opacity:0.0;  stroke:#848484; stroke-width:0.3458; stroke-opacity:1;  stroke-linecap:round; stroke-linejoin:round;">
<path d="M101.9005 91.4143 L107.6643 91.4143 "/>
<path d="M69.6214 92.5671 L69.6214 83.3447 "/>
<path d="M69.6214 92.5671 L88.0663 92.5671 "/>
<path d="M103.0531 93.7199 L103.0531 92.5671 "/>
<path d="M68.4688 82.1918 L89.2194 82.1918 "/>
<path d="M89.2194 93.7199 L68.4688 93.7199 "/>
<path d="M93.8306 84.4975 L100.7474 84.4975 "/>
<path d="M108.8173 83.3447 L108.8173 92.5671 "/>
<path d="M89.2194 93.7199 L103.0531 93.7199 "/>
<path d="M100.7474 92.5671 L108.8173 92.5671 "/>
<path d="M101.9005 91.4166 L101.9005 84.4952 "/>
<path d="M101.9005 84.4975 L107.6643 84.4975 "/>
<path d="M100.7474 83.3447 L108.8194 83.3447 "/>
<path d="M89.2194 82.1918 L103.0531 82.1918 "/>
<path d="M100.7474 83.3447 L100.7474 92.5671 "/>
<path d="M93.8306 91.4143 L100.7474 91.4143 "/>
<path d="M88.0663 90.2615 L89.2194 90.2615 "/>
<path d="M88.0663 83.3447 L88.0663 92.5671 "/>
<path d="M103.0531 83.3447 L103.0531 82.1918 "/>
<path d="M68.4688 93.7202 L68.4688 82.1916 "/>
<path d="M88.0663 85.6503 L89.2194 85.6503 "/>
<path d="M93.8306 91.4145 L93.8306 84.4972 "/>
<path d="M69.6214 83.3447 L88.0663 83.3447 "/>
<path d="M89.2194 93.7202 L89.2194 82.1916 "/>
<path d="M107.6643 91.4166 L107.6643 84.4952 "/>
<path d="M100.7474 140.9850 L100.7474 150.2075 "/>
<path d="M68.4688 151.3605 L68.4688 139.8320 "/>
<path d="M68.4688 139.8322 L89.2194 139.8322 "/>
<path d="M101.9005 149.0570 L101.9005 142.1355 "/>
<path d="M108.8173 140.9850 L108.8173 150.2075 "/>
<path d="M89.2194 151.3605 L89.2194 139.8320 "/>
<path d="M100.7474 150.2075 L108.8173 150.2075 "/>
<path d="M89.2194 139.8322 L103.0531 139.8322 "/>
<path d="M88.0663 147.9019 L89.2194 147.9019 "/>
<path d="M88.0663 143.2906 L89.2194 143.2906 "/>
<path d="M88.0663 140.9850 L88.0663 150.2075 "/>
<path d="M101.9005 149.0547 L107.6643 149.0547 "/>
<path d="M89.2194 151.3603 L68.4688 151.3603 "/>
<path d="M93.8306 149.0547 L100.7474 149.0547 "/>
<path d="M100.7474 140.9850 L108.8194 140.9850 "/>
<path d="M93.8306 142.1378 L100.7474 142.1378 "/>
<path d="M103.0531 140.9850 L103.0531 139.8322 "/>
<path d="M69.6214 150.2075 L69.6214 140.9850 "/>
<path d="M101.9005 142.1378 L107.6643 142.1378 "/>
<path d="M93.8306 149.0549 L93.8306 142.1376 "/>
<path d="M103.0531 151.3603 L103.0531 150.2075 "/>
<path d="M69.6214 140.9850 L88.0663 140.9850 "/>
<path d="M89.2194 151.3603 L103.0531 151.3603 "/>
<path d="M69.6214 150.2075 L88.0663 150.2075 "/>
<path d="M107.6643 149.0570 L107.6643 142.1355 "/>
</g>
<g style="fill:#848484; fill-opacity:0.0;  stroke:#848484; stroke-width:0.2306; stroke-opacity:1;  stroke-linecap:round; stroke-linejoin:round;">
<path d="M153.9424 98.4137 L153.9424 77.6631 "/>
<path d="M123.9694 77.6631 L123.9694 98.4137 "/>
<path d="M153.9424 77.6631 L123.9694 77.6631 "/>
<path d="M151.6367 77.6631 L151.6367 98.4137 "/>
<path d="M126.2750 77.6631 L126.2750 98.4137 "/>
<path d="M123.9694 98.4137 L153.9424 98.4137 "/>
</g>
<g style="fill:#848484; fill-opacity:0.0;  stroke:#848484; stroke-width:0.3458; stroke-opacity:1;  stroke-linecap:round; stroke-linejoin:round;">
<path d="M93.8306 107.5536 L100.7474 107.5536 "/>
<path d="M89.2194 116.7763 L89.2194 105.2478 "/>
<path d="M93.8306 114.4705 L100.7474 114.4705 "/>
<path d="M69.6214 106.4008 L88.0663 106.4008 "/>
<path d="M100.7474 106.4008 L100.7474 115.6233 "/>
<path d="M100.7474 106.4008 L108.8194 106.4008 "/>
<path d="M93.8306 114.4707 L93.8306 107.5534 "/>
<path d="M101.9005 107.5536 L107.6643 107.5536 "/>
<path d="M69.6214 115.6233 L69.6214 106.4008 "/>
<path d="M89.2194 116.7761 L68.4688 116.7761 "/>
<path d="M89.2194 105.2480 L103.0531 105.2480 "/>
<path d="M88.0663 113.3176 L89.2194 113.3176 "/>
<path d="M101.9005 114.4728 L101.9005 107.5513 "/>
<path d="M101.9005 114.4705 L107.6643 114.4705 "/>
<path d="M68.4688 116.7763 L68.4688 105.2478 "/>
<path d="M69.6214 115.6233 L88.0663 115.6233 "/>
<path d="M103.0531 106.4008 L103.0531 105.2480 "/>
<path d="M100.7474 115.6233 L108.8173 115.6233 "/>
<path d="M108.8173 106.4008 L108.8173 115.6233 "/>
<path d="M68.4688 105.2480 L89.2194 105.2480 "/>
<path d="M88.0663 108.7064 L89.2194 108.7064 "/>
<path d="M103.0531 116.7761 L103.0531 115.6233 "/>
<path d="M88.0663 106.4008 L88.0663 115.6233 "/>
<path d="M107.6643 114.4728 L107.6643 107.5513 "/>
<path d="M89.2194 116.7761 L103.0531 116.7761 "/>
<path d="M228.1463 52.8829 L216.4337 52.8829 "/>
<path d="M228.1463 35.3141 L228.1463 52.8829 "/>
<path d="M216.4337 35.3141 L228.1463 35.3141 "/>
<path d="M216.4337 52.8829 L216.4337 35.3141 "/>
<g>
</g>
<g>
</g>
<g>
</g>
<g>
</g>
<g>
</g>
<g>
</g>
<g>
</g>
<g>
</g>
<g>
</g>
<g>
</g>
<g>
</g>
<g>
</g>
<g>
</g>
<g>
</g>
<g>
</g>
<g>
</g>
<g>
</g>
<g>
</g>
<g>
</g>
<g>
</g>
<g>
</g>
<g>
</g>
<g>
</g>
<g>
</g>
<g>
</g>
<g>
</g>
<g>
</g>
<g>
</g>
<g>
</g>
<g>
</g>
<g>
</g>
<g>
</g>
<g>
</g>
<g>
</g>
<g>
</g>
<g>
</g>
<g>
</g>
<g>
</g>
<g>
</g>
<g>
</g>
<g>
</g>
<g>
</g>
<g>
</g>
<g>
</g>
<g>
</g>
<g>
</g>
<g>
</g>
<g>
</g>
<g>
</g>
<g>
</g>
<g>
</g>
<g>
</g>
<g>
</g>
<g>
</g>
<g>
</g>
<g>
</g>
<g>
</g>
<g>
</g>
<g>
</g>
<g>
</g>
<g>
</g>
<g>
</g>
<g>
</g>
<g>
</g>
<g>
</g>
<g>
</g>
<g>
</g>
<g>
</g>
<g>
</g>
<g>
</g>
<g>
</g>
<g>
</g>
<g>
</g>
</g> 
<svg:g><svg:g><svg:title>SVG Image created as ISO11446PWR01-Edge_Cuts.svg date 2023/07/21 01:38:49 </svg:title>
  <svg:desc>Image generated by PCBNEW </svg:desc>
<svg:g style="fill:#C2C200; fill-opacity:1.0000;stroke:#C2C200; stroke-opacity:1.0000; stroke-linecap:round; stroke-linejoin:round;" transform="translate(0 0) scale(1 1)">
</svg:g>
<svg:g style="fill:#C2C200; fill-opacity:0.0;  stroke:#C2C200; stroke-width:0.0000; stroke-opacity:1;  stroke-linecap:round; stroke-linejoin:round;">
</svg:g>
<svg:g style="fill:#C2C200; fill-opacity:0.0;  stroke:#C2C200; stroke-width:0.3458; stroke-opacity:1;  stroke-linecap:round; stroke-linejoin:round;">
<svg:path style="fill:#C2C200; fill-opacity:0.0;  stroke:#C2C200; stroke-width:0.3458; stroke-opacity:1;  stroke-linecap:round; stroke-linejoin:round;fill:none" d="M 67.0991,0.1765 229.9031,0.1765 229.9031,209.8307 67.0991,209.8307 Z"/> 
<svg:g>
</svg:g>
<svg:g>
</svg:g>
<svg:g>
</svg:g>
<svg:g>
</svg:g>
<svg:g>
</svg:g>
<svg:g>
</svg:g>
<svg:g>
</svg:g>
<svg:g>
</svg:g>
<svg:g>
</svg:g>
<svg:g>
</svg:g>
<svg:g>
</svg:g>
<svg:g>
</svg:g>
<svg:g>
</svg:g>
<svg:g>
</svg:g>
<svg:g>
</svg:g>
<svg:g>
</svg:g>
<svg:g>
</svg:g>
<svg:g>
</svg:g>
<svg:g>
</svg:g>
<svg:g>
</svg:g>
<svg:g>
</svg:g>
<svg:g>
</svg:g>
<svg:g>
</svg:g>
<svg:g>
</svg:g>
<svg:g>
</svg:g>
<svg:g>
</svg:g>
<svg:g>
</svg:g>
<svg:g>
</svg:g>
<svg:g>
</svg:g>
<svg:g>
</svg:g>
<svg:g>
</svg:g>
<svg:g>
</svg:g>
<svg:g>
</svg:g>
<svg:g>
</svg:g>
<svg:g>
</svg:g>
<svg:g>
</svg:g>
<svg:g>
</svg:g>
<svg:g>
</svg:g>
<svg:g>
</svg:g>
<svg:g>
</svg:g>
<svg:g>
</svg:g>
<svg:g>
</svg:g>
<svg:g>
</svg:g>
<svg:g>
</svg:g>
<svg:g>
</svg:g>
<svg:g>
</svg:g>
<svg:g>
</svg:g>
<svg:g>
</svg:g>
<svg:g>
</svg:g>
<svg:g>
</svg:g>
<svg:g>
</svg:g>
<svg:g>
</svg:g>
<svg:g>
</svg:g>
<svg:g>
</svg:g>
<svg:g>
</svg:g>
<svg:g>
</svg:g>
<svg:g>
</svg:g>
<svg:g>
</svg:g>
<svg:g>
</svg:g>
<svg:g>
</svg:g>
<svg:g>
</svg:g>
<svg:g>
</svg:g>
<svg:g>
</svg:g>
<svg:g>
</svg:g>
<svg:g>
</svg:g>
<svg:g>
</svg:g>
<svg:g>
</svg:g>
<svg:g>
</svg:g>
<svg:g>
</svg:g>
<svg:g>
</svg:g>
<svg:g>
</svg:g>
<svg:g>
</svg:g>
<svg:g>
</svg:g>
</svg:g> 
</svg:g></svg:g></svg>
