<?xml version='1.0' encoding='ASCII' standalone='yes'?>
<svg xmlns:svg="http://www.w3.org/2000/svg" xmlns="http://www.w3.org/2000/svg" xmlns:xlink="http://www.w3.org/1999/xlink" version="1.1" width="29.700220cm" height="21.000720cm" viewBox="0 0 2970022 2100072">
<title>SVG Picture created as ISO11446PWR01-B_Fab.svg date 2023/02/17 00:49:04 </title>
  <desc>Picture generated by PCBNEW </desc>
<g style="fill:#000084; fill-opacity:1.000000;stroke:#000084; stroke-opacity:1.000000; stroke-linecap:round; stroke-linejoin:round;" transform="translate(0 0) scale(1 1)">
</g>
<g style="fill:#000084; fill-opacity:0.0;  stroke:#000084; stroke-width:0.000000; stroke-opacity:1;  stroke-linecap:round; stroke-linejoin:round;">
</g>
<g style="fill:#000084; fill-opacity:0.01;  stroke:#000084; stroke-width:3234.636795; stroke-opacity:1;  stroke-linecap:round; stroke-linejoin:round;">
<text x="1159543.045222" y="277162.419903" transform="scale(-1 1) translate(-2319086.090444 0)" textLength="24324.770596" font-size="36515.448184" lengthAdjust="spacingAndGlyphs" text-anchor="middle" opacity="0.01" style="font-family:monospace">K</text>
<g class="stroked-text"><desc>K</desc>
<path d="M1166715 275858 L1166715 248471 "/>
<path d="M1151066 275858 L1162803 260208 "/>
<path d="M1151066 248471 L1166715 264121 "/>
</g><text x="1119558.621590" y="278257.883565" transform="scale(-1 1) translate(-2239117.243179 0)" textLength="49264.035926" font-size="36515.448184" lengthAdjust="spacingAndGlyphs" text-anchor="middle" opacity="0.01" style="font-family:monospace">D5</text>
<g class="stroked-text"><desc>D5</desc>
<path d="M1139772 276953 L1139772 249567 L1133251 249567 L1129339 250871 L1126731 253479 L1125427 256087 L1124123 261304 L1124123 265216 L1125427 270433 L1126731 273041 L1129339 275649 L1133251 276953 L1139772 276953 "/>
<path d="M1099344 249567 L1112385 249567 L1113690 262608 L1112385 261304 L1109777 260000 L1103257 260000 L1100648 261304 L1099344 262608 L1098040 265216 L1098040 271737 L1099344 274345 L1100648 275649 L1103257 276953 L1109777 276953 L1112385 275649 L1113690 274345 "/>
</g></g>
<g style="fill:#000084; fill-opacity:0.0;  stroke:#000084; stroke-width:2355.246871; stroke-opacity:1;  stroke-linecap:round; stroke-linejoin:round;">
<g transform="rotate(-90.000000 1346656.476089 767108.542355)">
<text x="1346656.476089" y="772503.700887" transform="scale(-1 1) translate(-2693312.952178 0)" textLength="27138.279244" font-size="14387.082228" lengthAdjust="spacingAndGlyphs" text-anchor="middle" opacity="0.01" style="font-family:monospace">R17</text>
</g>
<g class="stroked-text"><desc>R17</desc>
<path d="M1351537 760171 L1346399 756575 "/>
<path d="M1351537 754005 L1340747 754005 L1340747 758116 L1341261 759144 L1341775 759658 L1342802 760171 L1344344 760171 L1345371 759658 L1345885 759144 L1346399 758116 L1346399 754005 "/>
<path d="M1351537 770448 L1351537 764282 "/>
<path d="M1351537 767365 L1340747 767365 L1342288 766337 L1343316 765310 L1343830 764282 "/>
<path d="M1340747 774045 L1340747 781238 L1351537 776614 "/>
</g><g transform="rotate(-90.000000 1361719.101430 769847.201508)">
<text x="1361719.101430" y="775242.360039" transform="scale(-1 1) translate(-2723438.202860 0)" textLength="27767.653308" font-size="14387.082228" lengthAdjust="spacingAndGlyphs" text-anchor="middle" opacity="0.01" style="font-family:monospace">240</text>
</g>
<g class="stroked-text"><desc>240</desc>
<path d="M1356837 756487 L1356323 757001 L1355810 758029 L1355810 760598 L1356323 761626 L1356837 762139 L1357865 762653 L1358893 762653 L1360434 762139 L1366600 755973 L1366600 762653 "/>
<path d="M1359406 771902 L1366600 771902 "/>
<path d="M1355296 769333 L1363003 766764 L1363003 773443 "/>
<path d="M1355810 779609 L1355810 780637 L1356323 781665 L1356837 782178 L1357865 782692 L1359920 783206 L1362489 783206 L1364545 782692 L1365572 782178 L1366086 781665 L1366600 780637 L1366600 779609 L1366086 778582 L1365572 778068 L1364545 777554 L1362489 777040 L1359920 777040 L1357865 777554 L1356837 778068 L1356323 778582 L1355810 779609 "/>
</g></g>
<g style="fill:#000084; fill-opacity:0.01;  stroke:#000084; stroke-width:3234.636795; stroke-opacity:1;  stroke-linecap:round; stroke-linejoin:round;">
<text x="1569237.828796" y="783238.597839" transform="scale(-1 1) translate(-3138475.657592 0)" textLength="154049.102937" font-size="28752.319876" lengthAdjust="spacingAndGlyphs" text-anchor="middle" opacity="0.01" style="font-family:monospace">LTV-357T</text>
<g class="stroked-text"><desc>LTV-357T</desc>
<path d="M1632390 782211 L1642658 782211 L1642658 760647 "/>
<path d="M1628282 760647 L1615960 760647 "/>
<path d="M1622121 782211 L1622121 760647 "/>
<path d="M1611852 760647 L1604664 782211 L1597476 760647 "/>
<path d="M1590288 773996 L1573858 773996 "/>
<path d="M1565643 760647 L1552294 760647 L1559482 768862 L1556401 768862 L1554348 769889 L1553321 770916 L1552294 772969 L1552294 778104 L1553321 780157 L1554348 781184 L1556401 782211 L1562563 782211 L1564616 781184 L1565643 780157 "/>
<path d="M1532783 760647 L1543052 760647 L1544079 770916 L1543052 769889 L1540998 768862 L1535864 768862 L1533810 769889 L1532783 770916 L1531757 772969 L1531757 778104 L1532783 780157 L1533810 781184 L1535864 782211 L1540998 782211 L1543052 781184 L1544079 780157 "/>
<path d="M1524569 760647 L1510192 760647 L1519434 782211 "/>
<path d="M1505058 760647 L1492736 760647 "/>
<path d="M1498897 782211 L1498897 760647 "/>
</g><text x="1525419.282350" y="1009339.709792" transform="scale(-1 1) translate(-3050838.564699 0)" textLength="38923.462764" font-size="28752.319876" lengthAdjust="spacingAndGlyphs" text-anchor="middle" opacity="0.01" style="font-family:monospace">U2</text>
<g class="stroked-text"><desc>U2</desc>
<path d="M1541849 986748 L1541849 1004205 L1540822 1006259 L1539795 1007285 L1537741 1008312 L1533634 1008312 L1531580 1007285 L1530553 1006259 L1529526 1004205 L1529526 986748 "/>
<path d="M1520284 988802 L1519258 987775 L1517204 986748 L1512069 986748 L1510016 987775 L1508989 988802 L1507962 990856 L1507962 992909 L1508989 995990 L1521311 1008312 L1507962 1008312 "/>
</g></g>
<g style="fill:#000084; fill-opacity:0.01;  stroke:#000084; stroke-width:2355.246871; stroke-opacity:1;  stroke-linecap:round; stroke-linejoin:round;">
<text x="1357821.967891" y="290499.689978" transform="scale(-1 1) translate(-2715643.935782 0)" textLength="16861.773455" font-size="14387.082228" lengthAdjust="spacingAndGlyphs" text-anchor="middle" opacity="0.01" style="font-family:monospace">C1</text>
<g class="stroked-text"><desc>C1</desc>
<path d="M1359620 288958 L1360134 289472 L1361675 289985 L1362703 289985 L1364244 289472 L1365272 288444 L1365786 287416 L1366300 285361 L1366300 283819 L1365786 281764 L1365272 280737 L1364244 279709 L1362703 279195 L1361675 279195 L1360134 279709 L1359620 280223 "/>
<path d="M1349343 289985 L1355509 289985 "/>
<path d="M1352426 289985 L1352426 279195 L1353454 280737 L1354482 281764 L1355509 282278 "/>
</g><text x="1360560.627044" y="275437.064637" transform="scale(-1 1) translate(-2721121.254088 0)" textLength="36502.682151" font-size="14387.082228" lengthAdjust="spacingAndGlyphs" text-anchor="middle" opacity="0.01" style="font-family:monospace">10uF</text>
<g class="stroked-text"><desc>10uF</desc>
<path d="M1372121 274923 L1378287 274923 "/>
<path d="M1375204 274923 L1375204 264132 L1376232 265674 L1377259 266702 L1378287 267215 "/>
<path d="M1365441 264132 L1364414 264132 L1363386 264646 L1362872 265160 L1362358 266188 L1361845 268243 L1361845 270812 L1362358 272867 L1362872 273895 L1363386 274409 L1364414 274923 L1365441 274923 L1366469 274409 L1366983 273895 L1367497 272867 L1368011 270812 L1368011 268243 L1367497 266188 L1366983 265160 L1366469 264646 L1365441 264132 "/>
<path d="M1352596 267729 L1352596 274923 "/>
<path d="M1357220 267729 L1357220 273381 L1356706 274409 L1355679 274923 L1354137 274923 L1353110 274409 L1352596 273895 "/>
<path d="M1343861 269271 L1347458 269271 "/>
<path d="M1347458 274923 L1347458 264132 L1342319 264132 "/>
</g><g transform="rotate(-90.000000 1320850.069327 1839293.600712)">
<text x="1320850.069327" y="1844688.759243" transform="scale(-1 1) translate(-2641700.138654 0)" textLength="28281.486145" font-size="14387.082228" lengthAdjust="spacingAndGlyphs" text-anchor="middle" opacity="0.01" style="font-family:monospace">R12</text>
</g>
<g class="stroked-text"><desc>R12</desc>
<path d="M1325731 1832356 L1320593 1828760 "/>
<path d="M1325731 1826191 L1314941 1826191 L1314941 1830301 L1315454 1831329 L1315968 1831843 L1316996 1832356 L1318537 1832356 L1319565 1831843 L1320079 1831329 L1320593 1830301 L1320593 1826191 "/>
<path d="M1325731 1842633 L1325731 1836467 "/>
<path d="M1325731 1839550 L1314941 1839550 L1316482 1838522 L1317510 1837495 L1318024 1836467 "/>
<path d="M1315968 1846744 L1315454 1847257 L1314941 1848285 L1314941 1850854 L1315454 1851882 L1315968 1852396 L1316996 1852909 L1318024 1852909 L1319565 1852396 L1325731 1846230 L1325731 1852909 "/>
</g><g transform="rotate(-90.000000 1305787.443986 1836554.941559)">
<text x="1305787.443986" y="1841950.100090" transform="scale(-1 1) translate(-2611574.887972 0)" textLength="27767.653308" font-size="14387.082228" lengthAdjust="spacingAndGlyphs" text-anchor="middle" opacity="0.01" style="font-family:monospace">800</text>
</g>
<g class="stroked-text"><desc>800</desc>
<path d="M1304502 1825250 L1303989 1824223 L1303475 1823709 L1302447 1823195 L1301933 1823195 L1300906 1823709 L1300392 1824223 L1299878 1825250 L1299878 1827306 L1300392 1828333 L1300906 1828847 L1301933 1829361 L1302447 1829361 L1303475 1828847 L1303989 1828333 L1304502 1827306 L1304502 1825250 L1305016 1824223 L1305530 1823709 L1306558 1823195 L1308613 1823195 L1309641 1823709 L1310154 1824223 L1310668 1825250 L1310668 1827306 L1310154 1828333 L1309641 1828847 L1308613 1829361 L1306558 1829361 L1305530 1828847 L1305016 1828333 L1304502 1827306 "/>
<path d="M1299878 1836041 L1299878 1837068 L1300392 1838096 L1300906 1838610 L1301933 1839124 L1303989 1839637 L1306558 1839637 L1308613 1839124 L1309641 1838610 L1310154 1838096 L1310668 1837068 L1310668 1836041 L1310154 1835013 L1309641 1834499 L1308613 1833985 L1306558 1833471 L1303989 1833471 L1301933 1833985 L1300906 1834499 L1300392 1835013 L1299878 1836041 "/>
<path d="M1299878 1846317 L1299878 1847345 L1300392 1848372 L1300906 1848886 L1301933 1849400 L1303989 1849914 L1306558 1849914 L1308613 1849400 L1309641 1848886 L1310154 1848372 L1310668 1847345 L1310668 1846317 L1310154 1845289 L1309641 1844776 L1308613 1844262 L1306558 1843748 L1303989 1843748 L1301933 1844262 L1300906 1844776 L1300392 1845289 L1299878 1846317 "/>
</g></g>
<g style="fill:#000084; fill-opacity:0.01;  stroke:#000084; stroke-width:3234.636795; stroke-opacity:1;  stroke-linecap:round; stroke-linejoin:round;">
<text x="1346177.275430" y="71392.078418" transform="scale(-1 1) translate(-2692354.550860 0)" textLength="216688.103238" font-size="28752.319876" lengthAdjust="spacingAndGlyphs" text-anchor="middle" opacity="0.01" style="font-family:monospace">BZV55C-5,6V</text>
<g class="stroked-text"><desc>BZV55C-5,6V</desc>
<path d="M1443729 59069 L1440649 60096 L1439622 61123 L1438595 63177 L1438595 66257 L1439622 68311 L1440649 69338 L1442702 70365 L1450917 70365 L1450917 48800 L1443729 48800 L1441676 49827 L1440649 50854 L1439622 52908 L1439622 54962 L1440649 57015 L1441676 58042 L1443729 59069 L1450917 59069 "/>
<path d="M1431407 48800 L1417031 48800 L1431407 70365 L1417031 70365 "/>
<path d="M1411896 48800 L1404708 70365 L1397520 48800 "/>
<path d="M1380063 48800 L1390332 48800 L1391359 59069 L1390332 58042 L1388278 57015 L1383144 57015 L1381090 58042 L1380063 59069 L1379037 61123 L1379037 66257 L1380063 68311 L1381090 69338 L1383144 70365 L1388278 70365 L1390332 69338 L1391359 68311 "/>
<path d="M1359526 48800 L1369795 48800 L1370822 59069 L1369795 58042 L1367741 57015 L1362607 57015 L1360553 58042 L1359526 59069 L1358499 61123 L1358499 66257 L1359526 68311 L1360553 69338 L1362607 70365 L1367741 70365 L1369795 69338 L1370822 68311 "/>
<path d="M1336935 68311 L1337962 69338 L1341042 70365 L1343096 70365 L1346177 69338 L1348231 67284 L1349257 65230 L1350284 61123 L1350284 58042 L1349257 53935 L1348231 51881 L1346177 49827 L1343096 48800 L1341042 48800 L1337962 49827 L1336935 50854 "/>
<path d="M1327693 62150 L1311263 62150 "/>
<path d="M1290726 48800 L1300995 48800 L1302021 59069 L1300995 58042 L1298941 57015 L1293806 57015 L1291753 58042 L1290726 59069 L1289699 61123 L1289699 66257 L1290726 68311 L1291753 69338 L1293806 70365 L1298941 70365 L1300995 69338 L1302021 68311 "/>
<path d="M1279430 69338 L1279430 70365 L1280457 72418 L1281484 73445 "/>
<path d="M1260947 48800 L1265054 48800 L1267108 49827 L1268135 50854 L1270188 53935 L1271215 58042 L1271215 66257 L1270188 68311 L1269162 69338 L1267108 70365 L1263000 70365 L1260947 69338 L1259920 68311 L1258893 66257 L1258893 61123 L1259920 59069 L1260947 58042 L1263000 57015 L1267108 57015 L1269162 58042 L1270188 59069 L1271215 61123 "/>
<path d="M1252732 48800 L1245544 70365 L1238356 48800 "/>
</g><text x="1466814.262288" y="492256.062844" transform="scale(-1 1) translate(-2933628.524576 0)" textLength="152905.896036" font-size="28752.319876" lengthAdjust="spacingAndGlyphs" text-anchor="middle" opacity="0.01" style="font-family:monospace">LTV-357T</text>
<g class="stroked-text"><desc>LTV-357T</desc>
<path d="M1529966 491229 L1540235 491229 L1540235 469664 "/>
<path d="M1525859 469664 L1513536 469664 "/>
<path d="M1519697 491229 L1519697 469664 "/>
<path d="M1509429 469664 L1502241 491229 L1495053 469664 "/>
<path d="M1487865 483014 L1471435 483014 "/>
<path d="M1463220 469664 L1449870 469664 L1457059 477879 L1453978 477879 L1451924 478906 L1450897 479933 L1449870 481987 L1449870 487121 L1450897 489175 L1451924 490202 L1453978 491229 L1460139 491229 L1462193 490202 L1463220 489175 "/>
<path d="M1430360 469664 L1440629 469664 L1441655 479933 L1440629 478906 L1438575 477879 L1433441 477879 L1431387 478906 L1430360 479933 L1429333 481987 L1429333 487121 L1430360 489175 L1431387 490202 L1433441 491229 L1438575 491229 L1440629 490202 L1441655 489175 "/>
<path d="M1422145 469664 L1407769 469664 L1417011 491229 "/>
<path d="M1402634 469664 L1390312 469664 "/>
<path d="M1396473 491229 L1396473 469664 "/>
</g><text x="1478862.076751" y="776553.681796" transform="scale(-1 1) translate(-2957724.153501 0)" textLength="38923.462764" font-size="28752.319876" lengthAdjust="spacingAndGlyphs" text-anchor="middle" opacity="0.01" style="font-family:monospace">U5</text>
<g class="stroked-text"><desc>U5</desc>
<path d="M1495291 753962 L1495291 771419 L1494265 773473 L1493238 774499 L1491184 775526 L1487077 775526 L1485023 774499 L1483996 773473 L1482969 771419 L1482969 753962 "/>
<path d="M1462432 753962 L1472700 753962 L1473727 764231 L1472700 763204 L1470647 762177 L1465512 762177 L1463459 763204 L1462432 764231 L1461405 766284 L1461405 771419 L1462432 773473 L1463459 774499 L1465512 775526 L1470647 775526 L1472700 774499 L1473727 773473 "/>
</g><text x="1102505.616408" y="1043986.982713" transform="scale(-1 1) translate(-2205011.232815 0)" textLength="23181.563696" font-size="36515.448184" lengthAdjust="spacingAndGlyphs" text-anchor="middle" opacity="0.01" style="font-family:monospace">K</text>
<g class="stroked-text"><desc>K</desc>
<path d="M1109678 1042682 L1109678 1015296 "/>
<path d="M1094028 1042682 L1105765 1027033 "/>
<path d="M1094028 1015296 L1109678 1030945 "/>
</g><text x="1062521.192776" y="1045082.446374" transform="scale(-1 1) translate(-2125042.385551 0)" textLength="49264.035926" font-size="36515.448184" lengthAdjust="spacingAndGlyphs" text-anchor="middle" opacity="0.01" style="font-family:monospace">D9</text>
<g class="stroked-text"><desc>D9</desc>
<path d="M1082735 1043778 L1082735 1016391 L1076214 1016391 L1072302 1017695 L1069693 1020304 L1068389 1022912 L1067085 1028128 L1067085 1032041 L1068389 1037257 L1069693 1039865 L1072302 1042474 L1076214 1043778 L1082735 1043778 "/>
<path d="M1054044 1043778 L1048827 1043778 L1046219 1042474 L1044915 1041170 L1042307 1037257 L1041003 1032041 L1041003 1021608 L1042307 1018999 L1043611 1017695 L1046219 1016391 L1051436 1016391 L1054044 1017695 L1055348 1018999 L1056652 1021608 L1056652 1028128 L1055348 1030737 L1054044 1032041 L1051436 1033345 L1046219 1033345 L1043611 1032041 L1042307 1030737 L1041003 1028128 "/>
</g></g>
<g style="fill:#000084; fill-opacity:0.0;  stroke:#000084; stroke-width:2355.246871; stroke-opacity:1;  stroke-linecap:round; stroke-linejoin:round;">
<g transform="rotate(-90.000000 1446828.390360 268672.576530)">
<text x="1446828.390360" y="274067.735061" transform="scale(-1 1) translate(-2893656.780720 0)" textLength="27138.279244" font-size="14387.082228" lengthAdjust="spacingAndGlyphs" text-anchor="middle" opacity="0.01" style="font-family:monospace">R11</text>
</g>
<g class="stroked-text"><desc>R11</desc>
<path d="M1451709 261735 L1446571 258139 "/>
<path d="M1451709 255570 L1440919 255570 L1440919 259680 L1441433 260708 L1441947 261222 L1442974 261735 L1444516 261735 L1445543 261222 L1446057 260708 L1446571 259680 L1446571 255570 "/>
<path d="M1451709 272012 L1451709 265846 "/>
<path d="M1451709 268929 L1440919 268929 L1442460 267901 L1443488 266874 L1444002 265846 "/>
<path d="M1451709 282288 L1451709 276123 "/>
<path d="M1451709 279205 L1440919 279205 L1442460 278178 L1443488 277150 L1444002 276123 "/>
</g><g transform="rotate(-90.000000 1431765.765019 265933.917377)">
<text x="1431765.765019" y="271329.075908" transform="scale(-1 1) translate(-2863531.530038 0)" textLength="27767.653308" font-size="14387.082228" lengthAdjust="spacingAndGlyphs" text-anchor="middle" opacity="0.01" style="font-family:monospace">240</text>
</g>
<g class="stroked-text"><desc>240</desc>
<path d="M1426884 252574 L1426370 253088 L1425856 254115 L1425856 256685 L1426370 257712 L1426884 258226 L1427912 258740 L1428939 258740 L1430481 258226 L1436647 252060 L1436647 258740 "/>
<path d="M1429453 267989 L1436647 267989 "/>
<path d="M1425342 265420 L1433050 262850 L1433050 269530 "/>
<path d="M1425856 275696 L1425856 276724 L1426370 277751 L1426884 278265 L1427912 278779 L1429967 279293 L1432536 279293 L1434591 278779 L1435619 278265 L1436133 277751 L1436647 276724 L1436647 275696 L1436133 274668 L1435619 274155 L1434591 273641 L1432536 273127 L1429967 273127 L1427912 273641 L1426884 274155 L1426370 274668 L1425856 275696 "/>
</g></g>
<g style="fill:#000084; fill-opacity:0.01;  stroke:#000084; stroke-width:3234.636795; stroke-opacity:1;  stroke-linecap:round; stroke-linejoin:round;">
<text x="1565879.801390" y="316297.212271" transform="scale(-1 1) translate(-3131759.602779 0)" textLength="154049.102937" font-size="28752.319876" lengthAdjust="spacingAndGlyphs" text-anchor="middle" opacity="0.01" style="font-family:monospace">LTV-357T</text>
<g class="stroked-text"><desc>LTV-357T</desc>
<path d="M1629032 315270 L1639300 315270 L1639300 293706 "/>
<path d="M1624924 293706 L1612602 293706 "/>
<path d="M1618763 315270 L1618763 293706 "/>
<path d="M1608494 293706 L1601306 315270 L1594118 293706 "/>
<path d="M1586930 307055 L1570500 307055 "/>
<path d="M1562285 293706 L1548936 293706 L1556124 301921 L1553043 301921 L1550990 302947 L1549963 303974 L1548936 306028 L1548936 311162 L1549963 313216 L1550990 314243 L1553043 315270 L1559205 315270 L1561258 314243 L1562285 313216 "/>
<path d="M1529425 293706 L1539694 293706 L1540721 303974 L1539694 302947 L1537640 301921 L1532506 301921 L1530452 302947 L1529425 303974 L1528399 306028 L1528399 311162 L1529425 313216 L1530452 314243 L1532506 315270 L1537640 315270 L1539694 314243 L1540721 313216 "/>
<path d="M1521210 293706 L1506834 293706 L1516076 315270 "/>
<path d="M1501700 293706 L1489378 293706 "/>
<path d="M1495539 315270 L1495539 293706 "/>
</g><text x="1565879.801390" y="378078.775051" transform="scale(-1 1) translate(-3131759.602779 0)" textLength="38923.462764" font-size="28752.319876" lengthAdjust="spacingAndGlyphs" text-anchor="middle" opacity="0.01" style="font-family:monospace">U4</text>
<g class="stroked-text"><desc>U4</desc>
<path d="M1582309 355487 L1582309 372944 L1581282 374998 L1580255 376025 L1578202 377051 L1574094 377051 L1572041 376025 L1571014 374998 L1569987 372944 L1569987 355487 "/>
<path d="M1550476 362675 L1550476 377051 "/>
<path d="M1555611 354460 L1560745 369863 L1547396 369863 "/>
</g></g>
<g style="fill:#000084; fill-opacity:0.0;  stroke:#000084; stroke-width:2355.246871; stroke-opacity:1;  stroke-linecap:round; stroke-linejoin:round;">
<g transform="rotate(-90.000000 1433135.094595 367264.306034)">
<text x="1433135.094595" y="372659.464565" transform="scale(-1 1) translate(-2866270.189191 0)" textLength="27138.279244" font-size="14387.082228" lengthAdjust="spacingAndGlyphs" text-anchor="middle" opacity="0.01" style="font-family:monospace">R16</text>
</g>
<g class="stroked-text"><desc>R16</desc>
<path d="M1438016 360327 L1432878 356730 "/>
<path d="M1438016 354161 L1427226 354161 L1427226 358272 L1427739 359300 L1428253 359813 L1429281 360327 L1430822 360327 L1431850 359813 L1432364 359300 L1432878 358272 L1432878 354161 "/>
<path d="M1438016 370604 L1438016 364438 "/>
<path d="M1438016 367521 L1427226 367521 L1428767 366493 L1429795 365465 L1430309 364438 "/>
<path d="M1427226 379852 L1427226 377797 L1427739 376770 L1428253 376256 L1429795 375228 L1431850 374714 L1435961 374714 L1436988 375228 L1437502 375742 L1438016 376770 L1438016 378825 L1437502 379852 L1436988 380366 L1435961 380880 L1433391 380880 L1432364 380366 L1431850 379852 L1431336 378825 L1431336 376770 L1431850 375742 L1432364 375228 L1433391 374714 "/>
</g><g transform="rotate(-90.000000 1448197.719936 370002.965186)">
<text x="1448197.719936" y="375398.123718" transform="scale(-1 1) translate(-2896395.439873 0)" textLength="27767.653308" font-size="14387.082228" lengthAdjust="spacingAndGlyphs" text-anchor="middle" opacity="0.01" style="font-family:monospace">240</text>
</g>
<g class="stroked-text"><desc>240</desc>
<path d="M1443316 356643 L1442802 357157 L1442288 358184 L1442288 360754 L1442802 361781 L1443316 362295 L1444344 362809 L1445371 362809 L1446913 362295 L1453079 356129 L1453079 362809 "/>
<path d="M1445885 372058 L1453079 372058 "/>
<path d="M1441774 369489 L1449482 366920 L1449482 373599 "/>
<path d="M1442288 379765 L1442288 380793 L1442802 381820 L1443316 382334 L1444344 382848 L1446399 383362 L1448968 383362 L1451023 382848 L1452051 382334 L1452565 381820 L1453079 380793 L1453079 379765 L1452565 378737 L1452051 378224 L1451023 377710 L1448968 377196 L1446399 377196 L1444344 377710 L1443316 378224 L1442802 378737 L1442288 379765 "/>
</g></g>
<g style="fill:#000084; fill-opacity:0.01;  stroke:#000084; stroke-width:3234.636795; stroke-opacity:1;  stroke-linecap:round; stroke-linejoin:round;">
<text x="1159543.045222" y="605801.518250" transform="scale(-1 1) translate(-2319086.090444 0)" textLength="24324.770596" font-size="36515.448184" lengthAdjust="spacingAndGlyphs" text-anchor="middle" opacity="0.01" style="font-family:monospace">K</text>
<g class="stroked-text"><desc>K</desc>
<path d="M1166715 604497 L1166715 577110 "/>
<path d="M1151066 604497 L1162803 588847 "/>
<path d="M1151066 577110 L1166715 592760 "/>
</g><text x="1119558.621590" y="606896.981911" transform="scale(-1 1) translate(-2239117.243179 0)" textLength="49264.035926" font-size="36515.448184" lengthAdjust="spacingAndGlyphs" text-anchor="middle" opacity="0.01" style="font-family:monospace">D3</text>
<g class="stroked-text"><desc>D3</desc>
<path d="M1139772 605592 L1139772 578206 L1133251 578206 L1129339 579510 L1126731 582118 L1125427 584726 L1124123 589943 L1124123 593855 L1125427 599072 L1126731 601680 L1129339 604288 L1133251 605592 L1139772 605592 "/>
<path d="M1114994 578206 L1098040 578206 L1107169 588639 L1103257 588639 L1100648 589943 L1099344 591247 L1098040 593855 L1098040 600376 L1099344 602984 L1100648 604288 L1103257 605592 L1111081 605592 L1113690 604288 L1114994 602984 "/>
</g><text x="1105244.275561" y="934440.616597" transform="scale(-1 1) translate(-2210488.551121 0)" textLength="23181.563696" font-size="36515.448184" lengthAdjust="spacingAndGlyphs" text-anchor="middle" opacity="0.01" style="font-family:monospace">K</text>
<g class="stroked-text"><desc>K</desc>
<path d="M1112416 933136 L1112416 905749 "/>
<path d="M1096767 933136 L1108504 917487 "/>
<path d="M1096767 905749 L1112416 921399 "/>
</g><text x="1065259.851928" y="935536.080258" transform="scale(-1 1) translate(-2130519.703857 0)" textLength="49264.035926" font-size="36515.448184" lengthAdjust="spacingAndGlyphs" text-anchor="middle" opacity="0.01" style="font-family:monospace">D8</text>
<g class="stroked-text"><desc>D8</desc>
<path d="M1085473 934231 L1085473 906845 L1078953 906845 L1075040 908149 L1072432 910757 L1071128 913365 L1069824 918582 L1069824 922494 L1071128 927711 L1072432 930319 L1075040 932927 L1078953 934231 L1085473 934231 "/>
<path d="M1054174 918582 L1056783 917278 L1058087 915974 L1059391 913365 L1059391 912061 L1058087 909453 L1056783 908149 L1054174 906845 L1048958 906845 L1046350 908149 L1045045 909453 L1043741 912061 L1043741 913365 L1045045 915974 L1046350 917278 L1048958 918582 L1054174 918582 L1056783 919886 L1058087 921190 L1059391 923798 L1059391 929015 L1058087 931623 L1056783 932927 L1054174 934231 L1048958 934231 L1046350 932927 L1045045 931623 L1043741 929015 L1043741 923798 L1045045 921190 L1046350 919886 L1048958 918582 "/>
</g></g>
<g style="fill:#000084; fill-opacity:0.01;  stroke:#000084; stroke-width:6572.781967; stroke-opacity:1;  stroke-linecap:round; stroke-linejoin:round;">
<text x="1765882.181672" y="1855725.555629" transform="scale(-1 1) translate(-3531764.363343 0)" textLength="55262.993325" font-size="43818.546446" lengthAdjust="spacingAndGlyphs" text-anchor="middle" opacity="0.01" style="font-family:monospace">F3</text>
<g class="stroked-text"><desc>F3</desc>
<path d="M1776836 1836946 L1787791 1836946 "/>
<path d="M1787791 1854160 L1787791 1821296 L1772141 1821296 "/>
<path d="M1762752 1821296 L1742407 1821296 L1753362 1833816 L1748667 1833816 L1745537 1835381 L1743972 1836946 L1742407 1840076 L1742407 1847900 L1743972 1851030 L1745537 1852595 L1748667 1854160 L1758057 1854160 L1761187 1852595 L1762752 1851030 "/>
</g></g>
<g style="fill:#000084; fill-opacity:0.0;  stroke:#000084; stroke-width:2355.246871; stroke-opacity:1;  stroke-linecap:round; stroke-linejoin:round;">
<g transform="rotate(-90.000000 1690014.983248 194044.114613)">
<text x="1690014.983248" y="199439.273144" transform="scale(-1 1) translate(-3380029.966497 0)" textLength="22798.690520" font-size="14387.082228" lengthAdjust="spacingAndGlyphs" text-anchor="middle" opacity="0.01" style="font-family:monospace">R15</text>
</g>
<g class="stroked-text"><desc>R15</desc>
<path d="M1694896 187107 L1689758 183510 "/>
<path d="M1694896 180941 L1684105 180941 L1684105 185052 L1684619 186079 L1685133 186593 L1686161 187107 L1687702 187107 L1688730 186593 L1689244 186079 L1689758 185052 L1689758 180941 "/>
<path d="M1694896 197383 L1694896 191218 "/>
<path d="M1694896 194301 L1684105 194301 L1685647 193273 L1686675 192245 L1687188 191218 "/>
<path d="M1684105 207146 L1684105 202008 L1689244 201494 L1688730 202008 L1688216 203036 L1688216 205605 L1688730 206632 L1689244 207146 L1690271 207660 L1692840 207660 L1693868 207146 L1694382 206632 L1694896 205605 L1694896 203036 L1694382 202008 L1693868 201494 "/>
</g><g transform="rotate(-90.000000 1705077.608589 196782.773766)">
<text x="1705077.608589" y="202177.932297" transform="scale(-1 1) translate(-3410155.217179 0)" textLength="27767.653308" font-size="14387.082228" lengthAdjust="spacingAndGlyphs" text-anchor="middle" opacity="0.01" style="font-family:monospace">240</text>
</g>
<g class="stroked-text"><desc>240</desc>
<path d="M1700196 183423 L1699682 183937 L1699168 184964 L1699168 187533 L1699682 188561 L1700196 189075 L1701223 189589 L1702251 189589 L1703793 189075 L1709958 182909 L1709958 189589 "/>
<path d="M1702765 198838 L1709958 198838 "/>
<path d="M1698654 196268 L1706362 193699 L1706362 200379 "/>
<path d="M1699168 206545 L1699168 207573 L1699682 208600 L1700196 209114 L1701223 209628 L1703279 210142 L1705848 210142 L1707903 209628 L1708931 209114 L1709445 208600 L1709958 207573 L1709958 206545 L1709445 205517 L1708931 205003 L1707903 204490 L1705848 203976 L1703279 203976 L1701223 204490 L1700196 205003 L1699682 205517 L1699168 206545 "/>
</g></g>
<g style="fill:#000084; fill-opacity:0.01;  stroke:#000084; stroke-width:6572.781967; stroke-opacity:1;  stroke-linecap:round; stroke-linejoin:round;">
<text x="1774098.159130" y="1590075.617799" transform="scale(-1 1) translate(-3548196.318260 0)" textLength="56406.200226" font-size="43818.546446" lengthAdjust="spacingAndGlyphs" text-anchor="middle" opacity="0.01" style="font-family:monospace">F1</text>
<g class="stroked-text"><desc>F1</desc>
<path d="M1785052 1571296 L1796007 1571296 "/>
<path d="M1796007 1588510 L1796007 1555646 L1780357 1555646 "/>
<path d="M1750623 1588510 L1769403 1588510 "/>
<path d="M1760013 1588510 L1760013 1555646 L1763143 1560341 L1766273 1563471 L1769403 1565036 "/>
</g></g>
<g style="fill:#000084; fill-opacity:0.0;  stroke:#000084; stroke-width:2355.246871; stroke-opacity:1;  stroke-linecap:round; stroke-linejoin:round;">
<g transform="rotate(-90.000000 1608409.280380 543907.821395)">
<text x="1608409.280380" y="549302.979926" transform="scale(-1 1) translate(-3216818.560761 0)" textLength="22798.690520" font-size="14387.082228" lengthAdjust="spacingAndGlyphs" text-anchor="middle" opacity="0.01" style="font-family:monospace">R13</text>
</g>
<g class="stroked-text"><desc>R13</desc>
<path d="M1613290 536971 L1608152 533374 "/>
<path d="M1613290 530805 L1602500 530805 L1602500 534915 L1603014 535943 L1603527 536457 L1604555 536971 L1606097 536971 L1607124 536457 L1607638 535943 L1608152 534915 L1608152 530805 "/>
<path d="M1613290 547247 L1613290 541081 "/>
<path d="M1613290 544164 L1602500 544164 L1604041 543137 L1605069 542109 L1605583 541081 "/>
<path d="M1602500 550844 L1602500 557524 L1606610 553927 L1606610 555468 L1607124 556496 L1607638 557010 L1608666 557524 L1611235 557524 L1612262 557010 L1612776 556496 L1613290 555468 L1613290 552385 L1612776 551358 L1612262 550844 "/>
</g><g transform="rotate(-90.000000 1623471.905721 546646.480548)">
<text x="1623471.905721" y="552041.639079" transform="scale(-1 1) translate(-3246943.811443 0)" textLength="27767.653308" font-size="14387.082228" lengthAdjust="spacingAndGlyphs" text-anchor="middle" opacity="0.01" style="font-family:monospace">240</text>
</g>
<g class="stroked-text"><desc>240</desc>
<path d="M1618590 533287 L1618076 533800 L1617562 534828 L1617562 537397 L1618076 538425 L1618590 538939 L1619618 539452 L1620645 539452 L1622187 538939 L1628353 532773 L1628353 539452 "/>
<path d="M1621159 548701 L1628353 548701 "/>
<path d="M1617049 546132 L1624756 543563 L1624756 550243 "/>
<path d="M1617562 556409 L1617562 557436 L1618076 558464 L1618590 558978 L1619618 559492 L1621673 560005 L1624242 560005 L1626297 559492 L1627325 558978 L1627839 558464 L1628353 557436 L1628353 556409 L1627839 555381 L1627325 554867 L1626297 554353 L1624242 553840 L1621673 553840 L1619618 554353 L1618590 554867 L1618076 555381 L1617562 556409 "/>
</g><g transform="rotate(-90.000000 1728830.020987 1444926.682696)">
<text x="1728830.020987" y="1450321.841227" transform="scale(-1 1) translate(-3457660.041973 0)" textLength="28281.486145" font-size="14387.082228" lengthAdjust="spacingAndGlyphs" text-anchor="middle" opacity="0.01" style="font-family:monospace">R23</text>
</g>
<g class="stroked-text"><desc>R23</desc>
<path d="M1733711 1437990 L1728573 1434393 "/>
<path d="M1733711 1431824 L1722921 1431824 L1722921 1435934 L1723434 1436962 L1723948 1437476 L1724976 1437990 L1726517 1437990 L1727545 1437476 L1728059 1436962 L1728573 1435934 L1728573 1431824 "/>
<path d="M1723948 1442100 L1723434 1442614 L1722921 1443642 L1722921 1446211 L1723434 1447238 L1723948 1447752 L1724976 1448266 L1726003 1448266 L1727545 1447752 L1733711 1441586 L1733711 1448266 "/>
<path d="M1722921 1451863 L1722921 1458543 L1727031 1454946 L1727031 1456487 L1727545 1457515 L1728059 1458029 L1729086 1458543 L1731656 1458543 L1732683 1458029 L1733197 1457515 L1733711 1456487 L1733711 1453404 L1733197 1452377 L1732683 1451863 "/>
</g><g transform="rotate(-90.000000 1743892.646327 1447665.341848)">
<text x="1743892.646327" y="1453060.500380" transform="scale(-1 1) translate(-3487785.292655 0)" textLength="27767.653308" font-size="14387.082228" lengthAdjust="spacingAndGlyphs" text-anchor="middle" opacity="0.01" style="font-family:monospace">240</text>
</g>
<g class="stroked-text"><desc>240</desc>
<path d="M1739011 1434305 L1738497 1434819 L1737983 1435847 L1737983 1438416 L1738497 1439444 L1739011 1439957 L1740038 1440471 L1741066 1440471 L1742608 1439957 L1748773 1433792 L1748773 1440471 "/>
<path d="M1741580 1449720 L1748773 1449720 "/>
<path d="M1737469 1447151 L1745177 1444582 L1745177 1451262 "/>
<path d="M1737983 1457427 L1737983 1458455 L1738497 1459483 L1739011 1459997 L1740038 1460510 L1742094 1461024 L1744663 1461024 L1746718 1460510 L1747746 1459997 L1748260 1459483 L1748773 1458455 L1748773 1457427 L1748260 1456400 L1747746 1455886 L1746718 1455372 L1744663 1454858 L1742094 1454858 L1740038 1455372 L1739011 1455886 L1738497 1456400 L1737983 1457427 "/>
</g><g transform="rotate(-90.000000 1611687.045666 761631.224050)">
<text x="1611687.045666" y="767026.382581" transform="scale(-1 1) translate(-3223374.091331 0)" textLength="28281.486145" font-size="14387.082228" lengthAdjust="spacingAndGlyphs" text-anchor="middle" opacity="0.01" style="font-family:monospace">R20</text>
</g>
<g class="stroked-text"><desc>R20</desc>
<path d="M1616568 754694 L1611430 751097 "/>
<path d="M1616568 748528 L1605778 748528 L1605778 752639 L1606291 753666 L1606805 754180 L1607833 754694 L1609374 754694 L1610402 754180 L1610916 753666 L1611430 752639 L1611430 748528 "/>
<path d="M1606805 758805 L1606291 759318 L1605778 760346 L1605778 762915 L1606291 763943 L1606805 764457 L1607833 764971 L1608861 764971 L1610402 764457 L1616568 758291 L1616568 764971 "/>
<path d="M1605778 771650 L1605778 772678 L1606291 773706 L1606805 774219 L1607833 774733 L1609888 775247 L1612457 775247 L1614513 774733 L1615540 774219 L1616054 773706 L1616568 772678 L1616568 771650 L1616054 770623 L1615540 770109 L1614513 769595 L1612457 769081 L1609888 769081 L1607833 769595 L1606805 770109 L1606291 770623 L1605778 771650 "/>
</g><g transform="rotate(-90.000000 1626749.671007 764369.883203)">
<text x="1626749.671007" y="769765.041734" transform="scale(-1 1) translate(-3253499.342013 0)" textLength="27767.653308" font-size="14387.082228" lengthAdjust="spacingAndGlyphs" text-anchor="middle" opacity="0.01" style="font-family:monospace">240</text>
</g>
<g class="stroked-text"><desc>240</desc>
<path d="M1621868 751010 L1621354 751524 L1620840 752551 L1620840 755121 L1621354 756148 L1621868 756662 L1622895 757176 L1623923 757176 L1625465 756662 L1631630 750496 L1631630 757176 "/>
<path d="M1624437 766425 L1631630 766425 "/>
<path d="M1620326 763856 L1628034 761286 L1628034 767966 "/>
<path d="M1620840 774132 L1620840 775160 L1621354 776187 L1621868 776701 L1622895 777215 L1624951 777729 L1627520 777729 L1629575 777215 L1630603 776701 L1631117 776187 L1631630 775160 L1631630 774132 L1631117 773104 L1630603 772591 L1629575 772077 L1627520 771563 L1624951 771563 L1622895 772077 L1621868 772591 L1621354 773104 L1620840 774132 "/>
</g></g>
<g style="fill:#000084; fill-opacity:0.01;  stroke:#000084; stroke-width:3234.636795; stroke-opacity:1;  stroke-linecap:round; stroke-linejoin:round;">
<text x="1065259.851928" y="710966.029721" transform="scale(-1 1) translate(-2130519.703857 0)" textLength="50407.242826" font-size="36515.448184" lengthAdjust="spacingAndGlyphs" text-anchor="middle" opacity="0.01" style="font-family:monospace">D7</text>
<g class="stroked-text"><desc>D7</desc>
<path d="M1085473 709661 L1085473 682275 L1078953 682275 L1075040 683579 L1072432 686187 L1071128 688795 L1069824 694012 L1069824 697924 L1071128 703141 L1072432 705749 L1075040 708357 L1078953 709661 L1085473 709661 "/>
<path d="M1060695 682275 L1042437 682275 L1054174 709661 "/>
</g><text x="1105244.275561" y="709870.566060" transform="scale(-1 1) translate(-2210488.551121 0)" textLength="23181.563696" font-size="36515.448184" lengthAdjust="spacingAndGlyphs" text-anchor="middle" opacity="0.01" style="font-family:monospace">K</text>
<g class="stroked-text"><desc>K</desc>
<path d="M1112416 708566 L1112416 681179 "/>
<path d="M1096767 708566 L1108504 692916 "/>
<path d="M1096767 681179 L1112416 696829 "/>
</g><text x="1065259.851928" y="823251.054990" transform="scale(-1 1) translate(-2130519.703857 0)" textLength="49264.035926" font-size="36515.448184" lengthAdjust="spacingAndGlyphs" text-anchor="middle" opacity="0.01" style="font-family:monospace">D4</text>
<g class="stroked-text"><desc>D4</desc>
<path d="M1085473 821946 L1085473 794560 L1078953 794560 L1075040 795864 L1072432 798472 L1071128 801080 L1069824 806297 L1069824 810209 L1071128 815426 L1072432 818034 L1075040 820642 L1078953 821946 L1085473 821946 "/>
<path d="M1046350 803689 L1046350 821946 "/>
<path d="M1052870 793256 L1059391 812818 L1042437 812818 "/>
</g><text x="1105244.275561" y="822155.591328" transform="scale(-1 1) translate(-2210488.551121 0)" textLength="23181.563696" font-size="36515.448184" lengthAdjust="spacingAndGlyphs" text-anchor="middle" opacity="0.01" style="font-family:monospace">K</text>
<g class="stroked-text"><desc>K</desc>
<path d="M1112416 820851 L1112416 793464 "/>
<path d="M1096767 820851 L1108504 805201 "/>
<path d="M1096767 793464 L1112416 809114 "/>
</g></g>
<g style="fill:#000084; fill-opacity:0.0;  stroke:#000084; stroke-width:2355.246871; stroke-opacity:1;  stroke-linecap:round; stroke-linejoin:round;">
<g transform="rotate(-90.000000 1952466.814115 557601.117159)">
<text x="1952466.814115" y="562996.275691" transform="scale(-1 1) translate(-3904933.628231 0)" textLength="16861.773455" font-size="14387.082228" lengthAdjust="spacingAndGlyphs" text-anchor="middle" opacity="0.01" style="font-family:monospace">R1</text>
</g>
<g class="stroked-text"><desc>R1</desc>
<path d="M1957348 555802 L1952209 552205 "/>
<path d="M1957348 549636 L1946557 549636 L1946557 553747 L1947071 554775 L1947585 555288 L1948613 555802 L1950154 555802 L1951182 555288 L1951696 554775 L1952209 553747 L1952209 549636 "/>
<path d="M1957348 566079 L1957348 559913 "/>
<path d="M1957348 562996 L1946557 562996 L1948099 561968 L1949126 560940 L1949640 559913 "/>
</g><g transform="rotate(-90.000000 1967529.439456 560339.776312)">
<text x="1967529.439456" y="565734.934843" transform="scale(-1 1) translate(-3935058.878913 0)" textLength="27767.653308" font-size="14387.082228" lengthAdjust="spacingAndGlyphs" text-anchor="middle" opacity="0.01" style="font-family:monospace">800</text>
</g>
<g class="stroked-text"><desc>800</desc>
<path d="M1966244 549035 L1965731 548007 L1965217 547494 L1964189 546980 L1963675 546980 L1962648 547494 L1962134 548007 L1961620 549035 L1961620 551090 L1962134 552118 L1962648 552632 L1963675 553146 L1964189 553146 L1965217 552632 L1965731 552118 L1966244 551090 L1966244 549035 L1966758 548007 L1967272 547494 L1968300 546980 L1970355 546980 L1971383 547494 L1971896 548007 L1972410 549035 L1972410 551090 L1971896 552118 L1971383 552632 L1970355 553146 L1968300 553146 L1967272 552632 L1966758 552118 L1966244 551090 "/>
<path d="M1961620 559825 L1961620 560853 L1962134 561881 L1962648 562395 L1963675 562908 L1965731 563422 L1968300 563422 L1970355 562908 L1971383 562395 L1971896 561881 L1972410 560853 L1972410 559825 L1971896 558798 L1971383 558284 L1970355 557770 L1968300 557256 L1965731 557256 L1963675 557770 L1962648 558284 L1962134 558798 L1961620 559825 "/>
<path d="M1961620 570102 L1961620 571130 L1962134 572157 L1962648 572671 L1963675 573185 L1965731 573699 L1968300 573699 L1970355 573185 L1971383 572671 L1971896 572157 L1972410 571130 L1972410 570102 L1971896 569074 L1971383 568560 L1970355 568047 L1968300 567533 L1965731 567533 L1963675 568047 L1962648 568560 L1962134 569074 L1961620 570102 "/>
</g></g>
<g style="fill:#000084; fill-opacity:0.01;  stroke:#000084; stroke-width:3234.636795; stroke-opacity:1;  stroke-linecap:round; stroke-linejoin:round;">
<text x="1119558.621590" y="387804.249680" transform="scale(-1 1) translate(-2239117.243179 0)" textLength="50407.242826" font-size="36515.448184" lengthAdjust="spacingAndGlyphs" text-anchor="middle" opacity="0.01" style="font-family:monospace">D6</text>
<g class="stroked-text"><desc>D6</desc>
<path d="M1139772 386500 L1139772 359113 L1133251 359113 L1129339 360417 L1126731 363025 L1125427 365634 L1124123 370850 L1124123 374763 L1125427 379979 L1126731 382587 L1129339 385195 L1133251 386500 L1139772 386500 "/>
<path d="M1100648 359113 L1105865 359113 L1108473 360417 L1109777 361721 L1112385 365634 L1113690 370850 L1113690 381283 L1112385 383891 L1111081 385195 L1108473 386500 L1103257 386500 L1100648 385195 L1099344 383891 L1098040 381283 L1098040 374763 L1099344 372154 L1100648 370850 L1103257 369546 L1108473 369546 L1111081 370850 L1112385 372154 L1113690 374763 "/>
</g><text x="1163377.168036" y="389173.579257" transform="scale(-1 1) translate(-2326754.336072 0)" textLength="23181.563696" font-size="36515.448184" lengthAdjust="spacingAndGlyphs" text-anchor="middle" opacity="0.01" style="font-family:monospace">K</text>
<g class="stroked-text"><desc>K</desc>
<path d="M1170549 387869 L1170549 360482 "/>
<path d="M1154900 387869 L1166637 372219 "/>
<path d="M1154900 360482 L1170549 376132 "/>
</g></g>
<g style="fill:#000084; fill-opacity:0.0;  stroke:#000084; stroke-width:2355.246871; stroke-opacity:1;  stroke-linecap:round; stroke-linejoin:round;">
<g transform="rotate(-90.000000 1466538.110563 1446296.012272)">
<text x="1466538.110563" y="1451691.170803" transform="scale(-1 1) translate(-2933076.221125 0)" textLength="27138.279244" font-size="14387.082228" lengthAdjust="spacingAndGlyphs" text-anchor="middle" opacity="0.01" style="font-family:monospace">R22</text>
</g>
<g class="stroked-text"><desc>R22</desc>
<path d="M1471419 1439359 L1466281 1435762 "/>
<path d="M1471419 1433193 L1460629 1433193 L1460629 1437304 L1461142 1438331 L1461656 1438845 L1462684 1439359 L1464225 1439359 L1465253 1438845 L1465767 1438331 L1466281 1437304 L1466281 1433193 "/>
<path d="M1461656 1443469 L1461142 1443983 L1460629 1445011 L1460629 1447580 L1461142 1448608 L1461656 1449122 L1462684 1449635 L1463712 1449635 L1465253 1449122 L1471419 1442956 L1471419 1449635 "/>
<path d="M1461656 1453746 L1461142 1454260 L1460629 1455287 L1460629 1457857 L1461142 1458884 L1461656 1459398 L1462684 1459912 L1463712 1459912 L1465253 1459398 L1471419 1453232 L1471419 1459912 "/>
</g><g transform="rotate(-90.000000 1481600.735903 1449034.671425)">
<text x="1481600.735903" y="1454429.829956" transform="scale(-1 1) translate(-2963201.471807 0)" textLength="27767.653308" font-size="14387.082228" lengthAdjust="spacingAndGlyphs" text-anchor="middle" opacity="0.01" style="font-family:monospace">240</text>
</g>
<g class="stroked-text"><desc>240</desc>
<path d="M1476719 1435675 L1476205 1436189 L1475691 1437216 L1475691 1439785 L1476205 1440813 L1476719 1441327 L1477747 1441841 L1478774 1441841 L1480316 1441327 L1486482 1435161 L1486482 1441841 "/>
<path d="M1479288 1451089 L1486482 1451089 "/>
<path d="M1475177 1448520 L1482885 1445951 L1482885 1452631 "/>
<path d="M1475691 1458797 L1475691 1459824 L1476205 1460852 L1476719 1461366 L1477747 1461880 L1479802 1462394 L1482371 1462394 L1484426 1461880 L1485454 1461366 L1485968 1460852 L1486482 1459824 L1486482 1458797 L1485968 1457769 L1485454 1457255 L1484426 1456742 L1482371 1456228 L1479802 1456228 L1477747 1456742 L1476719 1457255 L1476205 1457769 L1475691 1458797 "/>
</g></g>
<g style="fill:#000084; fill-opacity:0.01;  stroke:#000084; stroke-width:3234.636795; stroke-opacity:1;  stroke-linecap:round; stroke-linejoin:round;">
<text x="1264707.556693" y="242482.800615" transform="scale(-1 1) translate(-2529415.113386 0)" textLength="96544.463184" font-size="28752.319876" lengthAdjust="spacingAndGlyphs" text-anchor="middle" opacity="0.01" style="font-family:monospace">100nF</text>
<g class="stroked-text"><desc>100nF</desc>
<path d="M1298080 241455 L1310403 241455 "/>
<path d="M1304241 241455 L1304241 219891 L1306295 222972 L1308349 225026 L1310403 226052 "/>
<path d="M1284731 219891 L1282677 219891 L1280624 220918 L1279597 221945 L1278570 223999 L1277543 228106 L1277543 233240 L1278570 237348 L1279597 239402 L1280624 240429 L1282677 241455 L1284731 241455 L1286785 240429 L1287812 239402 L1288838 237348 L1289865 233240 L1289865 228106 L1288838 223999 L1287812 221945 L1286785 220918 L1284731 219891 "/>
<path d="M1264194 219891 L1262140 219891 L1260086 220918 L1259059 221945 L1258032 223999 L1257006 228106 L1257006 233240 L1258032 237348 L1259059 239402 L1260086 240429 L1262140 241455 L1264194 241455 L1266247 240429 L1267274 239402 L1268301 237348 L1269328 233240 L1269328 228106 L1268301 223999 L1267274 221945 L1266247 220918 L1264194 219891 "/>
<path d="M1247764 227079 L1247764 241455 "/>
<path d="M1247764 229133 L1246737 228106 L1244683 227079 L1241602 227079 L1239549 228106 L1238522 230160 L1238522 241455 "/>
<path d="M1221065 230160 L1228253 230160 "/>
<path d="M1228253 241455 L1228253 219891 L1217985 219891 "/>
</g></g>
<g style="fill:#000084; fill-opacity:0.01;  stroke:#000084; stroke-width:1725.139624; stroke-opacity:1;  stroke-linecap:round; stroke-linejoin:round;">
<text x="1356159.364579" y="203257.007132" transform="scale(-1 1) translate(-2712318.729157 0)" textLength="16845.772785" font-size="14376.149156" lengthAdjust="spacingAndGlyphs" text-anchor="middle" opacity="0.01" style="font-family:monospace">C2</text>
<g class="stroked-text"><desc>C2</desc>
<path d="M1357956 201716 L1358469 202230 L1360010 202743 L1361036 202743 L1362577 202230 L1363604 201203 L1364117 200176 L1364631 198122 L1364631 196582 L1364117 194528 L1363604 193501 L1362577 192474 L1361036 191961 L1360010 191961 L1358469 192474 L1357956 192988 "/>
<path d="M1353848 192988 L1353335 192474 L1352308 191961 L1349741 191961 L1348714 192474 L1348201 192988 L1347687 194015 L1347687 195042 L1348201 196582 L1354362 202743 L1347687 202743 "/>
</g></g>
<g style="fill:#000084; fill-opacity:0.01;  stroke:#000084; stroke-width:3234.636795; stroke-opacity:1;  stroke-linecap:round; stroke-linejoin:round;">
<g transform="rotate(-90.000000 1314003.421445 1746179.189513)">
<text x="1314003.421445" y="1759872.485278" transform="scale(-1 1) translate(-2628006.842890 0)" textLength="51226.382248" font-size="36515.448184" lengthAdjust="spacingAndGlyphs" text-anchor="middle" opacity="0.01" style="font-family:monospace">D2</text>
</g>
<g class="stroked-text"><desc>D2</desc>
<path d="M1326392 1725965 L1299005 1725965 L1299005 1732485 L1300310 1736398 L1302918 1739006 L1305526 1740310 L1310743 1741614 L1314655 1741614 L1319871 1740310 L1322480 1739006 L1325088 1736398 L1326392 1732485 L1326392 1725965 "/>
<path d="M1301614 1752047 L1300310 1753351 L1299005 1755960 L1299005 1762480 L1300310 1765088 L1301614 1766393 L1304222 1767697 L1306830 1767697 L1310743 1766393 L1326392 1750743 L1326392 1767697 "/>
</g><g transform="rotate(-90.000000 1312907.957784 1706194.765881)">
<text x="1312907.957784" y="1719888.061646" transform="scale(-1 1) translate(-2625815.915567 0)" textLength="23181.563696" font-size="36515.448184" lengthAdjust="spacingAndGlyphs" text-anchor="middle" opacity="0.01" style="font-family:monospace">K</text>
</g>
<g class="stroked-text"><desc>K</desc>
<path d="M1325297 1699022 L1297910 1699022 "/>
<path d="M1325297 1714671 L1309647 1702934 "/>
<path d="M1297910 1714671 L1313560 1699022 "/>
</g><g transform="rotate(-90.000000 1959313.461998 667147.483275)">
<text x="1959313.461998" y="680840.779039" transform="scale(-1 1) translate(-3918626.923995 0)" textLength="49264.035926" font-size="36515.448184" lengthAdjust="spacingAndGlyphs" text-anchor="middle" opacity="0.01" style="font-family:monospace">D1</text>
</g>
<g class="stroked-text"><desc>D1</desc>
<path d="M1971702 646933 L1944316 646933 L1944316 653454 L1945620 657366 L1948228 659974 L1950836 661278 L1956053 662583 L1959965 662583 L1965181 661278 L1967790 659974 L1970398 657366 L1971702 653454 L1971702 646933 "/>
<path d="M1971702 688665 L1971702 673016 "/>
<path d="M1971702 680840 L1944316 680840 L1948228 678232 L1950836 675624 L1952140 673016 "/>
</g><g transform="rotate(-90.000000 1960408.925659 707131.906907)">
<text x="1960408.925659" y="720825.202672" transform="scale(-1 1) translate(-3920817.851318 0)" textLength="23181.563696" font-size="36515.448184" lengthAdjust="spacingAndGlyphs" text-anchor="middle" opacity="0.01" style="font-family:monospace">K</text>
</g>
<g class="stroked-text"><desc>K</desc>
<path d="M1972798 699959 L1945411 699959 "/>
<path d="M1972798 715608 L1957148 703871 "/>
<path d="M1945411 715608 L1961060 699959 "/>
</g><text x="1559928.673486" y="144446.350427" transform="scale(-1 1) translate(-3119857.346972 0)" textLength="152905.896036" font-size="28752.319876" lengthAdjust="spacingAndGlyphs" text-anchor="middle" opacity="0.01" style="font-family:monospace">LTV-357T</text>
<g class="stroked-text"><desc>LTV-357T</desc>
<path d="M1623081 143419 L1633349 143419 L1633349 121855 "/>
<path d="M1618973 121855 L1606651 121855 "/>
<path d="M1612812 143419 L1612812 121855 "/>
<path d="M1602543 121855 L1595355 143419 L1588167 121855 "/>
<path d="M1580979 135204 L1564549 135204 "/>
<path d="M1556334 121855 L1542985 121855 L1550173 130070 L1547092 130070 L1545039 131097 L1544012 132123 L1542985 134177 L1542985 139311 L1544012 141365 L1545039 142392 L1547092 143419 L1553254 143419 L1555307 142392 L1556334 141365 "/>
<path d="M1523474 121855 L1533743 121855 L1534770 132123 L1533743 131097 L1531689 130070 L1526555 130070 L1524501 131097 L1523474 132123 L1522447 134177 L1522447 139311 L1523474 141365 L1524501 142392 L1526555 143419 L1531689 143419 L1533743 142392 L1534770 141365 "/>
<path d="M1515259 121855 L1500883 121855 L1510125 143419 "/>
<path d="M1495749 121855 L1483426 121855 "/>
<path d="M1489588 143419 L1489588 121855 "/>
</g><text x="1559928.673486" y="206227.913207" transform="scale(-1 1) translate(-3119857.346972 0)" textLength="38923.462764" font-size="28752.319876" lengthAdjust="spacingAndGlyphs" text-anchor="middle" opacity="0.01" style="font-family:monospace">U3</text>
<g class="stroked-text"><desc>U3</desc>
<path d="M1576358 183636 L1576358 201093 L1575331 203147 L1574304 204174 L1572251 205201 L1568143 205201 L1566089 204174 L1565063 203147 L1564036 201093 L1564036 183636 "/>
<path d="M1555821 183636 L1542471 183636 L1549659 191851 L1546579 191851 L1544525 192878 L1543498 193905 L1542471 195959 L1542471 201093 L1543498 203147 L1544525 204174 L1546579 205201 L1552740 205201 L1554794 204174 L1555821 203147 "/>
</g></g>
<g style="fill:#000084; fill-opacity:0.01;  stroke:#000084; stroke-width:6572.781967; stroke-opacity:1;  stroke-linecap:round; stroke-linejoin:round;">
<text x="1483800.288924" y="1852986.896476" transform="scale(-1 1) translate(-2967600.577848 0)" textLength="55262.993325" font-size="43818.546446" lengthAdjust="spacingAndGlyphs" text-anchor="middle" opacity="0.01" style="font-family:monospace">F4</text>
<g class="stroked-text"><desc>F4</desc>
<path d="M1494754 1834207 L1505709 1834207 "/>
<path d="M1505709 1851421 L1505709 1818558 L1490060 1818558 "/>
<path d="M1463455 1829512 L1463455 1851421 "/>
<path d="M1471280 1816993 L1479105 1840467 L1458761 1840467 "/>
</g></g>
<g style="fill:#000084; fill-opacity:0.01;  stroke:#000084; stroke-width:3234.636795; stroke-opacity:1;  stroke-linecap:round; stroke-linejoin:round;">
<text x="1710030.786349" y="1147480.265173" transform="scale(-1 1) translate(-3420061.572698 0)" textLength="148566.307313" font-size="28752.319876" lengthAdjust="spacingAndGlyphs" text-anchor="middle" opacity="0.01" style="font-family:monospace">LTV-357T</text>
<g class="stroked-text"><desc>LTV-357T</desc>
<path d="M1773183 1146453 L1783451 1146453 L1783451 1124889 "/>
<path d="M1769075 1124889 L1756753 1124889 "/>
<path d="M1762914 1146453 L1762914 1124889 "/>
<path d="M1752645 1124889 L1745457 1146453 L1738269 1124889 "/>
<path d="M1731081 1138238 L1714651 1138238 "/>
<path d="M1706436 1124889 L1693087 1124889 L1700275 1133104 L1697194 1133104 L1695141 1134130 L1694114 1135157 L1693087 1137211 L1693087 1142345 L1694114 1144399 L1695141 1145426 L1697194 1146453 L1703356 1146453 L1705409 1145426 L1706436 1144399 "/>
<path d="M1673576 1124889 L1683845 1124889 L1684872 1135157 L1683845 1134130 L1681791 1133104 L1676657 1133104 L1674603 1134130 L1673576 1135157 L1672550 1137211 L1672550 1142345 L1673576 1144399 L1674603 1145426 L1676657 1146453 L1681791 1146453 L1683845 1145426 L1684872 1144399 "/>
<path d="M1665361 1124889 L1650985 1124889 L1660227 1146453 "/>
<path d="M1645851 1124889 L1633529 1124889 "/>
<path d="M1639690 1146453 L1639690 1124889 "/>
</g><text x="1601562.632498" y="1225693.782870" transform="scale(-1 1) translate(-3203125.264996 0)" textLength="38923.462764" font-size="28752.319876" lengthAdjust="spacingAndGlyphs" text-anchor="middle" opacity="0.01" style="font-family:monospace">U6</text>
<g class="stroked-text"><desc>U6</desc>
<path d="M1617992 1203102 L1617992 1220559 L1616965 1222613 L1615938 1223640 L1613885 1224666 L1609777 1224666 L1607723 1223640 L1606696 1222613 L1605670 1220559 L1605670 1203102 "/>
<path d="M1586159 1203102 L1590267 1203102 L1592320 1204129 L1593347 1205156 L1595401 1208237 L1596428 1212344 L1596428 1220559 L1595401 1222613 L1594374 1223640 L1592320 1224666 L1588213 1224666 L1586159 1223640 L1585132 1222613 L1584105 1220559 L1584105 1215425 L1585132 1213371 L1586159 1212344 L1588213 1211317 L1592320 1211317 L1594374 1212344 L1595401 1213371 L1596428 1215425 "/>
</g><text x="1357821.967891" y="450620.896234" transform="scale(-1 1) translate(-2715643.935782 0)" textLength="152905.896036" font-size="28752.319876" lengthAdjust="spacingAndGlyphs" text-anchor="middle" opacity="0.01" style="font-family:monospace">LTV-357T</text>
<g class="stroked-text"><desc>LTV-357T</desc>
<path d="M1420974 449594 L1431243 449594 L1431243 428029 "/>
<path d="M1416866 428029 L1404544 428029 "/>
<path d="M1410705 449594 L1410705 428029 "/>
<path d="M1400437 428029 L1393248 449594 L1386060 428029 "/>
<path d="M1378872 441379 L1362442 441379 "/>
<path d="M1354227 428029 L1340878 428029 L1348066 436244 L1344986 436244 L1342932 437271 L1341905 438298 L1340878 440352 L1340878 445486 L1341905 447540 L1342932 448567 L1344986 449594 L1351147 449594 L1353201 448567 L1354227 447540 "/>
<path d="M1321368 428029 L1331636 428029 L1332663 438298 L1331636 437271 L1329583 436244 L1324448 436244 L1322394 437271 L1321368 438298 L1320341 440352 L1320341 445486 L1321368 447540 L1322394 448567 L1324448 449594 L1329583 449594 L1331636 448567 L1332663 447540 "/>
<path d="M1313153 428029 L1298776 428029 L1308018 449594 "/>
<path d="M1293642 428029 L1281320 428029 "/>
<path d="M1287481 449594 L1287481 428029 "/>
</g><text x="1475584.311465" y="553352.960836" transform="scale(-1 1) translate(-2951168.622931 0)" textLength="38923.462764" font-size="28752.319876" lengthAdjust="spacingAndGlyphs" text-anchor="middle" opacity="0.01" style="font-family:monospace">U1</text>
<g class="stroked-text"><desc>U1</desc>
<path d="M1492014 530761 L1492014 548218 L1490987 550272 L1489960 551299 L1487906 552326 L1483799 552326 L1481745 551299 L1480718 550272 L1479691 548218 L1479691 530761 "/>
<path d="M1458127 552326 L1470449 552326 "/>
<path d="M1464288 552326 L1464288 530761 L1466342 533842 L1468396 535896 L1470449 536923 "/>
</g></g>
<g style="fill:#000084; fill-opacity:0.0;  stroke:#000084; stroke-width:2355.246871; stroke-opacity:1;  stroke-linecap:round; stroke-linejoin:round;">
<g transform="rotate(-90.000000 1657705.145132 997155.911198)">
<text x="1657705.145132" y="1002551.069729" transform="scale(-1 1) translate(-3315410.290265 0)" textLength="27138.279244" font-size="14387.082228" lengthAdjust="spacingAndGlyphs" text-anchor="middle" opacity="0.01" style="font-family:monospace">R14</text>
</g>
<g class="stroked-text"><desc>R14</desc>
<path d="M1662586 990219 L1657448 986622 "/>
<path d="M1662586 984053 L1651796 984053 L1651796 988163 L1652309 989191 L1652823 989705 L1653851 990219 L1655392 990219 L1656420 989705 L1656934 989191 L1657448 988163 L1657448 984053 "/>
<path d="M1662586 1000495 L1662586 994329 "/>
<path d="M1662586 997412 L1651796 997412 L1653337 996385 L1654365 995357 L1654879 994329 "/>
<path d="M1655392 1009744 L1662586 1009744 "/>
<path d="M1651282 1007175 L1658989 1004606 L1658989 1011286 "/>
</g><g transform="rotate(-90.000000 1672767.770473 999894.570351)">
<text x="1672767.770473" y="1005289.728882" transform="scale(-1 1) translate(-3345535.540947 0)" textLength="27767.653308" font-size="14387.082228" lengthAdjust="spacingAndGlyphs" text-anchor="middle" opacity="0.01" style="font-family:monospace">240</text>
</g>
<g class="stroked-text"><desc>240</desc>
<path d="M1667886 986535 L1667372 987048 L1666858 988076 L1666858 990645 L1667372 991673 L1667886 992187 L1668914 992701 L1669941 992701 L1671483 992187 L1677649 986021 L1677649 992701 "/>
<path d="M1670455 1001949 L1677649 1001949 "/>
<path d="M1666344 999380 L1674052 996811 L1674052 1003491 "/>
<path d="M1666858 1009657 L1666858 1010684 L1667372 1011712 L1667886 1012226 L1668914 1012740 L1670969 1013254 L1673538 1013254 L1675593 1012740 L1676621 1012226 L1677135 1011712 L1677649 1010684 L1677649 1009657 L1677135 1008629 L1676621 1008115 L1675593 1007601 L1673538 1007088 L1670969 1007088 L1668914 1007601 L1667886 1008115 L1667372 1008629 L1666858 1009657 "/>
</g><g transform="rotate(-90.000000 1392674.575556 986201.274587)">
<text x="1392674.575556" y="991596.433118" transform="scale(-1 1) translate(-2785349.151111 0)" textLength="28281.486145" font-size="14387.082228" lengthAdjust="spacingAndGlyphs" text-anchor="middle" opacity="0.01" style="font-family:monospace">R10</text>
</g>
<g class="stroked-text"><desc>R10</desc>
<path d="M1397555 979264 L1392417 975667 "/>
<path d="M1397555 973098 L1386765 973098 L1386765 977209 L1387279 978236 L1387793 978750 L1388820 979264 L1390362 979264 L1391389 978750 L1391903 978236 L1392417 977209 L1392417 973098 "/>
<path d="M1397555 989541 L1397555 983375 "/>
<path d="M1397555 986458 L1386765 986458 L1388307 985430 L1389334 984402 L1389848 983375 "/>
<path d="M1386765 996220 L1386765 997248 L1387279 998276 L1387793 998789 L1388820 999303 L1390876 999817 L1393445 999817 L1395500 999303 L1396528 998789 L1397042 998276 L1397555 997248 L1397555 996220 L1397042 995193 L1396528 994679 L1395500 994165 L1393445 993651 L1390876 993651 L1388820 994165 L1387793 994679 L1387279 995193 L1386765 996220 "/>
</g><g transform="rotate(-90.000000 1407737.200896 988939.933739)">
<text x="1407737.200896" y="994335.092271" transform="scale(-1 1) translate(-2815474.401793 0)" textLength="27767.653308" font-size="14387.082228" lengthAdjust="spacingAndGlyphs" text-anchor="middle" opacity="0.01" style="font-family:monospace">240</text>
</g>
<g class="stroked-text"><desc>240</desc>
<path d="M1402855 975580 L1402342 976094 L1401828 977121 L1401828 979691 L1402342 980718 L1402855 981232 L1403883 981746 L1404911 981746 L1406452 981232 L1412618 975066 L1412618 981746 "/>
<path d="M1405424 990995 L1412618 990995 "/>
<path d="M1401314 988426 L1409021 985856 L1409021 992536 "/>
<path d="M1401828 998702 L1401828 999730 L1402342 1000757 L1402855 1001271 L1403883 1001785 L1405938 1002299 L1408507 1002299 L1410563 1001785 L1411590 1001271 L1412104 1000757 L1412618 999730 L1412618 998702 L1412104 997674 L1411590 997161 L1410563 996647 L1408507 996133 L1405938 996133 L1403883 996647 L1402855 997161 L1402342 997674 L1401828 998702 "/>
</g></g>
<g style="fill:#000084; fill-opacity:0.01;  stroke:#000084; stroke-width:3234.636795; stroke-opacity:1;  stroke-linecap:round; stroke-linejoin:round;">
<text x="1605881.476418" y="1137894.958138" transform="scale(-1 1) translate(-3211762.952836 0)" textLength="154049.102937" font-size="28752.319876" lengthAdjust="spacingAndGlyphs" text-anchor="middle" opacity="0.01" style="font-family:monospace">LTV-357T</text>
<g class="stroked-text"><desc>LTV-357T</desc>
<path d="M1669033 1136868 L1679302 1136868 L1679302 1115303 "/>
<path d="M1664926 1115303 L1652603 1115303 "/>
<path d="M1658765 1136868 L1658765 1115303 "/>
<path d="M1648496 1115303 L1641308 1136868 L1634120 1115303 "/>
<path d="M1626932 1128653 L1610502 1128653 "/>
<path d="M1602287 1115303 L1588938 1115303 L1596126 1123518 L1593045 1123518 L1590991 1124545 L1589964 1125572 L1588938 1127626 L1588938 1132760 L1589964 1134814 L1590991 1135841 L1593045 1136868 L1599206 1136868 L1601260 1135841 L1602287 1134814 "/>
<path d="M1569427 1115303 L1579696 1115303 L1580723 1125572 L1579696 1124545 L1577642 1123518 L1572508 1123518 L1570454 1124545 L1569427 1125572 L1568400 1127626 L1568400 1132760 L1569427 1134814 L1570454 1135841 L1572508 1136868 L1577642 1136868 L1579696 1135841 L1580723 1134814 "/>
<path d="M1561212 1115303 L1546836 1115303 L1556078 1136868 "/>
<path d="M1541702 1115303 L1529379 1115303 "/>
<path d="M1535540 1136868 L1535540 1115303 "/>
</g><text x="1598743.711224" y="1457110.481289" transform="scale(-1 1) translate(-3197487.422449 0)" textLength="38923.462764" font-size="28752.319876" lengthAdjust="spacingAndGlyphs" text-anchor="middle" opacity="0.01" style="font-family:monospace">U7</text>
<g class="stroked-text"><desc>U7</desc>
<path d="M1615173 1434519 L1615173 1451976 L1614146 1454029 L1613119 1455056 L1611066 1456083 L1606958 1456083 L1604904 1455056 L1603878 1454029 L1602851 1451976 L1602851 1434519 "/>
<path d="M1594636 1434519 L1580260 1434519 L1589501 1456083 "/>
</g></g>
<g style="fill:#000084; fill-opacity:0.0;  stroke:#000084; stroke-width:2355.246871; stroke-opacity:1;  stroke-linecap:round; stroke-linejoin:round;">
<g transform="rotate(-90.000000 1695427.005019 365894.976457)">
<text x="1695427.005019" y="371290.134988" transform="scale(-1 1) translate(-3390854.010039 0)" textLength="27138.279244" font-size="14387.082228" lengthAdjust="spacingAndGlyphs" text-anchor="middle" opacity="0.01" style="font-family:monospace">R19</text>
</g>
<g class="stroked-text"><desc>R19</desc>
<path d="M1700308 358958 L1695170 355361 "/>
<path d="M1700308 352792 L1689518 352792 L1689518 356903 L1690031 357930 L1690545 358444 L1691573 358958 L1693114 358958 L1694142 358444 L1694656 357930 L1695170 356903 L1695170 352792 "/>
<path d="M1700308 369234 L1700308 363068 "/>
<path d="M1700308 366151 L1689518 366151 L1691059 365124 L1692087 364096 L1692600 363068 "/>
<path d="M1700308 374373 L1700308 376428 L1699794 377456 L1699280 377969 L1697739 378997 L1695683 379511 L1691573 379511 L1690545 378997 L1690031 378483 L1689518 377456 L1689518 375400 L1690031 374373 L1690545 373859 L1691573 373345 L1694142 373345 L1695170 373859 L1695683 374373 L1696197 375400 L1696197 377456 L1695683 378483 L1695170 378997 L1694142 379511 "/>
</g><g transform="rotate(-90.000000 1710489.630360 368633.635610)">
<text x="1710489.630360" y="374028.794141" transform="scale(-1 1) translate(-3420979.260721 0)" textLength="27767.653308" font-size="14387.082228" lengthAdjust="spacingAndGlyphs" text-anchor="middle" opacity="0.01" style="font-family:monospace">240</text>
</g>
<g class="stroked-text"><desc>240</desc>
<path d="M1705608 355274 L1705094 355788 L1704580 356815 L1704580 359384 L1705094 360412 L1705608 360926 L1706635 361440 L1707663 361440 L1709205 360926 L1715370 354760 L1715370 361440 "/>
<path d="M1708177 370688 L1715370 370688 "/>
<path d="M1704066 368119 L1711774 365550 L1711774 372230 "/>
<path d="M1704580 378396 L1704580 379423 L1705094 380451 L1705608 380965 L1706635 381479 L1708691 381993 L1711260 381993 L1713315 381479 L1714343 380965 L1714857 380451 L1715370 379423 L1715370 378396 L1714857 377368 L1714343 376854 L1713315 376340 L1711260 375827 L1708691 375827 L1706635 376340 L1705608 376854 L1705094 377368 L1704580 378396 "/>
</g><g transform="rotate(-90.000000 1469357.031836 1217617.973006)">
<text x="1469357.031836" y="1223013.131537" transform="scale(-1 1) translate(-2938714.063673 0)" textLength="28281.486145" font-size="14387.082228" lengthAdjust="spacingAndGlyphs" text-anchor="middle" opacity="0.01" style="font-family:monospace">R18</text>
</g>
<g class="stroked-text"><desc>R18</desc>
<path d="M1474238 1210681 L1469100 1207084 "/>
<path d="M1474238 1204515 L1463448 1204515 L1463448 1208626 L1463961 1209653 L1464475 1210167 L1465503 1210681 L1467044 1210681 L1468072 1210167 L1468586 1209653 L1469100 1208626 L1469100 1204515 "/>
<path d="M1474238 1220957 L1474238 1214791 "/>
<path d="M1474238 1217874 L1463448 1217874 L1464989 1216847 L1466017 1215819 L1466530 1214791 "/>
<path d="M1468072 1227123 L1467558 1226096 L1467044 1225582 L1466017 1225068 L1465503 1225068 L1464475 1225582 L1463961 1226096 L1463448 1227123 L1463448 1229179 L1463961 1230206 L1464475 1230720 L1465503 1231234 L1466017 1231234 L1467044 1230720 L1467558 1230206 L1468072 1229179 L1468072 1227123 L1468586 1226096 L1469100 1225582 L1470127 1225068 L1472183 1225068 L1473210 1225582 L1473724 1226096 L1474238 1227123 L1474238 1229179 L1473724 1230206 L1473210 1230720 L1472183 1231234 L1470127 1231234 L1469100 1230720 L1468586 1230206 L1468072 1229179 "/>
</g><g transform="rotate(-90.000000 1484419.657177 1220356.632159)">
<text x="1484419.657177" y="1225751.790690" transform="scale(-1 1) translate(-2968839.314355 0)" textLength="27767.653308" font-size="14387.082228" lengthAdjust="spacingAndGlyphs" text-anchor="middle" opacity="0.01" style="font-family:monospace">240</text>
</g>
<g class="stroked-text"><desc>240</desc>
<path d="M1479538 1206997 L1479024 1207511 L1478510 1208538 L1478510 1211107 L1479024 1212135 L1479538 1212649 L1480565 1213163 L1481593 1213163 L1483135 1212649 L1489300 1206483 L1489300 1213163 "/>
<path d="M1482107 1222411 L1489300 1222411 "/>
<path d="M1477996 1219842 L1485704 1217273 L1485704 1223953 "/>
<path d="M1478510 1230119 L1478510 1231146 L1479024 1232174 L1479538 1232688 L1480565 1233202 L1482621 1233716 L1485190 1233716 L1487245 1233202 L1488273 1232688 L1488787 1232174 L1489300 1231146 L1489300 1230119 L1488787 1229091 L1488273 1228577 L1487245 1228063 L1485190 1227550 L1482621 1227550 L1480565 1228063 L1479538 1228577 L1479024 1229091 L1478510 1230119 "/>
</g><g transform="rotate(-90.000000 1343378.710804 549385.139701)">
<text x="1343378.710804" y="554780.298232" transform="scale(-1 1) translate(-2686757.421607 0)" textLength="18004.980355" font-size="14387.082228" lengthAdjust="spacingAndGlyphs" text-anchor="middle" opacity="0.01" style="font-family:monospace">R9</text>
</g>
<g class="stroked-text"><desc>R9</desc>
<path d="M1348260 547586 L1343121 543989 "/>
<path d="M1348260 541420 L1337469 541420 L1337469 545531 L1337983 546559 L1338497 547072 L1339525 547586 L1341066 547586 L1342094 547072 L1342607 546559 L1343121 545531 L1343121 541420 "/>
<path d="M1348260 552724 L1348260 554780 L1347746 555807 L1347232 556321 L1345690 557349 L1343635 557863 L1339525 557863 L1338497 557349 L1337983 556835 L1337469 555807 L1337469 553752 L1337983 552724 L1338497 552211 L1339525 551697 L1342094 551697 L1343121 552211 L1343635 552724 L1344149 553752 L1344149 555807 L1343635 556835 L1343121 557349 L1342094 557863 "/>
</g><g transform="rotate(-90.000000 1358441.336144 552123.798854)">
<text x="1358441.336144" y="557518.957385" transform="scale(-1 1) translate(-2716882.672289 0)" textLength="27767.653308" font-size="14387.082228" lengthAdjust="spacingAndGlyphs" text-anchor="middle" opacity="0.01" style="font-family:monospace">240</text>
</g>
<g class="stroked-text"><desc>240</desc>
<path d="M1353559 538764 L1353046 539278 L1352532 540305 L1352532 542874 L1353046 543902 L1353559 544416 L1354587 544930 L1355615 544930 L1357156 544416 L1363322 538250 L1363322 544930 "/>
<path d="M1356129 554179 L1363322 554179 "/>
<path d="M1352018 551609 L1359725 549040 L1359725 555720 "/>
<path d="M1352532 561886 L1352532 562914 L1353046 563941 L1353559 564455 L1354587 564969 L1356642 565483 L1359212 565483 L1361267 564969 L1362295 564455 L1362808 563941 L1363322 562914 L1363322 561886 L1362808 560858 L1362295 560344 L1361267 559831 L1359212 559317 L1356642 559317 L1354587 559831 L1353559 560344 L1353046 560858 L1352532 561886 "/>
</g><g transform="rotate(-90.000000 1731648.942260 1213509.984276)">
<text x="1731648.942260" y="1218905.142808" transform="scale(-1 1) translate(-3463297.884521 0)" textLength="28281.486145" font-size="14387.082228" lengthAdjust="spacingAndGlyphs" text-anchor="middle" opacity="0.01" style="font-family:monospace">R21</text>
</g>
<g class="stroked-text"><desc>R21</desc>
<path d="M1736530 1206573 L1731392 1202976 "/>
<path d="M1736530 1200407 L1725739 1200407 L1725739 1204518 L1726253 1205545 L1726767 1206059 L1727795 1206573 L1729336 1206573 L1730364 1206059 L1730878 1205545 L1731392 1204518 L1731392 1200407 "/>
<path d="M1726767 1210683 L1726253 1211197 L1725739 1212225 L1725739 1214794 L1726253 1215822 L1726767 1216336 L1727795 1216849 L1728822 1216849 L1730364 1216336 L1736530 1210170 L1736530 1216849 "/>
<path d="M1736530 1227126 L1736530 1220960 "/>
<path d="M1736530 1224043 L1725739 1224043 L1727281 1223015 L1728309 1221988 L1728822 1220960 "/>
</g><g transform="rotate(-90.000000 1746711.567601 1216248.643429)">
<text x="1746711.567601" y="1221643.801960" transform="scale(-1 1) translate(-3493423.135203 0)" textLength="27767.653308" font-size="14387.082228" lengthAdjust="spacingAndGlyphs" text-anchor="middle" opacity="0.01" style="font-family:monospace">240</text>
</g>
<g class="stroked-text"><desc>240</desc>
<path d="M1741830 1202889 L1741316 1203403 L1740802 1204430 L1740802 1206999 L1741316 1208027 L1741830 1208541 L1742857 1209055 L1743885 1209055 L1745426 1208541 L1751592 1202375 L1751592 1209055 "/>
<path d="M1744399 1218303 L1751592 1218303 "/>
<path d="M1740288 1215734 L1747996 1213165 L1747996 1219845 "/>
<path d="M1740802 1226011 L1740802 1227038 L1741316 1228066 L1741830 1228580 L1742857 1229094 L1744913 1229608 L1747482 1229608 L1749537 1229094 L1750565 1228580 L1751079 1228066 L1751592 1227038 L1751592 1226011 L1751079 1224983 L1750565 1224469 L1749537 1223956 L1747482 1223442 L1744913 1223442 L1742857 1223956 L1741830 1224469 L1741316 1224983 L1740802 1226011 "/>
</g></g>
<g style="fill:#000084; fill-opacity:0.0;  stroke:#000084; stroke-width:3234.636795; stroke-opacity:1;  stroke-linecap:round; stroke-linejoin:round;">
<path d="M1065333 233891 L1065333 295237 "/>
<path d="M1066428 295237 L1173236 295237 "/>
<path d="M1172140 233891 L1065333 233891 "/>
<path d="M1173784 295237 L1173784 233891 "/>
<path d="M1369935 756153 L1369935 734244 "/>
<path d="M1369935 799972 L1369935 778063 "/>
<path d="M1337071 778063 L1337071 799972 "/>
<path d="M1369935 734244 L1337071 734244 "/>
<path d="M1337071 799972 L1369935 799972 "/>
<path d="M1337071 734244 L1337071 756153 "/>
</g>
<g style="fill:#000084; fill-opacity:0.0;  stroke:#000084; stroke-width:2587.709436; stroke-opacity:1;  stroke-linecap:round; stroke-linejoin:round;">
<path d="M1572860 1035971 L1572860 958340 "/>
<path d="M1495229 1035971 L1572860 1035971 "/>
<path d="M1477977 1018720 L1495229 1035971 "/>
<path d="M1477977 958340 L1477977 1018720 "/>
<path d="M1572860 958340 L1477977 958340 "/>
</g>
<g style="fill:#000084; fill-opacity:0.0;  stroke:#000084; stroke-width:3234.636795; stroke-opacity:1;  stroke-linecap:round; stroke-linejoin:round;">
<path d="M1346867 261825 L1324958 261825 "/>
<path d="M1324958 261825 L1324958 294689 "/>
<path d="M1390685 294689 L1390685 261825 "/>
<path d="M1368776 294689 L1390685 294689 "/>
<path d="M1390685 261825 L1368776 261825 "/>
<path d="M1324958 294689 L1346867 294689 "/>
<path d="M1330435 1806429 L1297571 1806429 "/>
<path d="M1330435 1828338 L1330435 1806429 "/>
<path d="M1297571 1872157 L1330435 1872157 "/>
<path d="M1297571 1850248 L1297571 1872157 "/>
<path d="M1297571 1806429 L1297571 1828338 "/>
<path d="M1330435 1872157 L1330435 1850248 "/>
</g>
<g style="fill:#000084; fill-opacity:0.0;  stroke:#000084; stroke-width:2156.424530; stroke-opacity:1;  stroke-linecap:round; stroke-linejoin:round;">
<path d="M1296579 84330 L1296579 149023 "/>
<path d="M1395775 149023 L1395775 84330 "/>
<path d="M1356984 100496 L1356984 133908 "/>
<path d="M1332172 116654 L1356984 133908 "/>
<path d="M1395775 149023 L1296579 149023 "/>
<path d="M1356984 116654 L1378510 116654 "/>
<path d="M1332172 116654 L1356984 100496 "/>
<path d="M1332172 116654 L1312728 116654 "/>
<path d="M1395775 84330 L1296579 84330 "/>
<path d="M1332172 133908 L1332172 99401 "/>
</g>
<g style="fill:#000084; fill-opacity:0.0;  stroke:#000084; stroke-width:2587.709436; stroke-opacity:1;  stroke-linecap:round; stroke-linejoin:round;">
<path d="M1526303 803185 L1526303 725554 "/>
<path d="M1431420 725554 L1431420 785934 "/>
<path d="M1431420 785934 L1448672 803185 "/>
<path d="M1448672 803185 L1526303 803185 "/>
<path d="M1526303 725554 L1431420 725554 "/>
</g>
<g style="fill:#000084; fill-opacity:0.0;  stroke:#000084; stroke-width:3234.636795; stroke-opacity:1;  stroke-linecap:round; stroke-linejoin:round;">
<path d="M1115103 1000716 L1008295 1000716 "/>
<path d="M1008295 1000716 L1008295 1062062 "/>
<path d="M1009391 1062062 L1116198 1062062 "/>
<path d="M1116746 1062062 L1116746 1000716 "/>
<path d="M1423549 301536 L1456413 301536 "/>
<path d="M1423549 279627 L1423549 301536 "/>
<path d="M1456413 235808 L1423549 235808 "/>
<path d="M1456413 301536 L1456413 279627 "/>
<path d="M1456413 257717 L1456413 235808 "/>
<path d="M1423549 235808 L1423549 257717 "/>
</g>
<g style="fill:#000084; fill-opacity:0.0;  stroke:#000084; stroke-width:2587.709436; stroke-opacity:1;  stroke-linecap:round; stroke-linejoin:round;">
<path d="M1518438 327079 L1518438 387459 "/>
<path d="M1535689 404710 L1613321 404710 "/>
<path d="M1613321 327079 L1518438 327079 "/>
<path d="M1518438 387459 L1535689 404710 "/>
<path d="M1613321 404710 L1613321 327079 "/>
</g>
<g style="fill:#000084; fill-opacity:0.0;  stroke:#000084; stroke-width:3234.636795; stroke-opacity:1;  stroke-linecap:round; stroke-linejoin:round;">
<path d="M1456413 334400 L1423549 334400 "/>
<path d="M1456413 356309 L1456413 334400 "/>
<path d="M1423549 334400 L1423549 356309 "/>
<path d="M1423549 378218 L1423549 400128 "/>
<path d="M1423549 400128 L1456413 400128 "/>
<path d="M1456413 400128 L1456413 378218 "/>
<path d="M1173784 623876 L1173784 562530 "/>
<path d="M1172140 562530 L1065333 562530 "/>
<path d="M1066428 623876 L1173236 623876 "/>
<path d="M1065333 562530 L1065333 623876 "/>
<path d="M1117842 891169 L1011034 891169 "/>
<path d="M1012129 952515 L1118937 952515 "/>
<path d="M1119485 952515 L1119485 891169 "/>
<path d="M1011034 891169 L1011034 952515 "/>
<path d="M1702893 1877634 L1702893 1800952 "/>
<path d="M1702893 1800952 L1828871 1800952 "/>
<path d="M1828871 1877634 L1828871 1800952 "/>
<path d="M1702893 1877634 L1828871 1877634 "/>
<path d="M1713293 183089 L1713293 161180 "/>
<path d="M1680429 161180 L1680429 183089 "/>
<path d="M1680429 204998 L1680429 226908 "/>
<path d="M1680429 226908 L1713293 226908 "/>
<path d="M1713293 226908 L1713293 204998 "/>
<path d="M1713293 161180 L1680429 161180 "/>
<path d="M1711108 1611984 L1711108 1535302 "/>
<path d="M1837087 1611984 L1837087 1535302 "/>
<path d="M1711108 1535302 L1837087 1535302 "/>
<path d="M1711108 1611984 L1837087 1611984 "/>
<path d="M1598823 576771 L1631687 576771 "/>
<path d="M1631687 532953 L1631687 511043 "/>
<path d="M1631687 576771 L1631687 554862 "/>
<path d="M1598823 554862 L1598823 576771 "/>
<path d="M1598823 511043 L1598823 532953 "/>
<path d="M1631687 511043 L1598823 511043 "/>
<path d="M1719244 1412062 L1719244 1433972 "/>
<path d="M1752108 1412062 L1719244 1412062 "/>
<path d="M1719244 1455881 L1719244 1477790 "/>
<path d="M1752108 1433972 L1752108 1412062 "/>
<path d="M1719244 1477790 L1752108 1477790 "/>
<path d="M1752108 1477790 L1752108 1455881 "/>
<path d="M1634965 728767 L1602101 728767 "/>
<path d="M1634965 794495 L1634965 772585 "/>
<path d="M1602101 772585 L1602101 794495 "/>
<path d="M1602101 794495 L1634965 794495 "/>
<path d="M1602101 728767 L1602101 750676 "/>
<path d="M1634965 750676 L1634965 728767 "/>
<path d="M1117842 666599 L1011034 666599 "/>
<path d="M1119485 727945 L1119485 666599 "/>
<path d="M1011034 666599 L1011034 727945 "/>
<path d="M1012129 727945 L1118937 727945 "/>
<path d="M1119485 840230 L1119485 778884 "/>
<path d="M1012129 840230 L1118937 840230 "/>
<path d="M1117842 778884 L1011034 778884 "/>
<path d="M1011034 778884 L1011034 840230 "/>
<path d="M1942881 590465 L1975745 590465 "/>
<path d="M1942881 524737 L1942881 546646 "/>
<path d="M1975745 590465 L1975745 568555 "/>
<path d="M1975745 524737 L1942881 524737 "/>
<path d="M1975745 546646 L1975745 524737 "/>
<path d="M1942881 568555 L1942881 590465 "/>
<path d="M1173784 404783 L1173784 343437 "/>
<path d="M1066428 404783 L1173236 404783 "/>
<path d="M1172140 343437 L1065333 343437 "/>
<path d="M1065333 343437 L1065333 404783 "/>
<path d="M1456952 1479159 L1489816 1479159 "/>
<path d="M1489816 1413432 L1456952 1413432 "/>
<path d="M1489816 1479159 L1489816 1457250 "/>
<path d="M1456952 1413432 L1456952 1435341 "/>
<path d="M1456952 1457250 L1456952 1479159 "/>
<path d="M1489816 1435341 L1489816 1413432 "/>
</g>
<g style="fill:#000084; fill-opacity:0.0;  stroke:#000084; stroke-width:2156.424530; stroke-opacity:1;  stroke-linecap:round; stroke-linejoin:round;">
<path d="M1377723 211343 L1377723 184388 "/>
<path d="M1334595 184388 L1334595 211343 "/>
<path d="M1334595 211343 L1377723 211343 "/>
<path d="M1377723 184388 L1334595 184388 "/>
</g>
<g style="fill:#000084; fill-opacity:0.0;  stroke:#000084; stroke-width:3234.636795; stroke-opacity:1;  stroke-linecap:round; stroke-linejoin:round;">
<path d="M1283330 1800404 L1344676 1800404 "/>
<path d="M1344676 1799309 L1344676 1692501 "/>
<path d="M1283330 1693596 L1283330 1800404 "/>
<path d="M1344676 1691953 L1283330 1691953 "/>
<path d="M1928640 721372 L1989986 721372 "/>
<path d="M1989986 719729 L1989986 612922 "/>
<path d="M1989986 612922 L1928640 612922 "/>
<path d="M1928640 614017 L1928640 720825 "/>
</g>
<g style="fill:#000084; fill-opacity:0.0;  stroke:#000084; stroke-width:2587.709436; stroke-opacity:1;  stroke-linecap:round; stroke-linejoin:round;">
<path d="M1607370 232859 L1607370 155228 "/>
<path d="M1607370 155228 L1512487 155228 "/>
<path d="M1512487 215608 L1529738 232859 "/>
<path d="M1529738 232859 L1607370 232859 "/>
<path d="M1512487 155228 L1512487 215608 "/>
</g>
<g style="fill:#000084; fill-opacity:0.0;  stroke:#000084; stroke-width:3234.636795; stroke-opacity:1;  stroke-linecap:round; stroke-linejoin:round;">
<path d="M1546789 1874896 L1546789 1798213 "/>
<path d="M1420811 1874896 L1546789 1874896 "/>
<path d="M1420811 1874896 L1420811 1798213 "/>
<path d="M1420811 1798213 L1546789 1798213 "/>
</g>
<g style="fill:#000084; fill-opacity:0.0;  stroke:#000084; stroke-width:2587.709436; stroke-opacity:1;  stroke-linecap:round; stroke-linejoin:round;">
<path d="M1554121 1235074 L1571372 1252325 "/>
<path d="M1649003 1174694 L1554121 1174694 "/>
<path d="M1554121 1174694 L1554121 1235074 "/>
<path d="M1571372 1252325 L1649003 1252325 "/>
<path d="M1649003 1252325 L1649003 1174694 "/>
<path d="M1523025 502353 L1428142 502353 "/>
<path d="M1428142 502353 L1428142 562733 "/>
<path d="M1445394 579984 L1523025 579984 "/>
<path d="M1523025 579984 L1523025 502353 "/>
<path d="M1428142 562733 L1445394 579984 "/>
</g>
<g style="fill:#000084; fill-opacity:0.0;  stroke:#000084; stroke-width:3234.636795; stroke-opacity:1;  stroke-linecap:round; stroke-linejoin:round;">
<path d="M1680983 986201 L1680983 964292 "/>
<path d="M1648119 1008110 L1648119 1030019 "/>
<path d="M1648119 964292 L1648119 986201 "/>
<path d="M1648119 1030019 L1680983 1030019 "/>
<path d="M1680983 1030019 L1680983 1008110 "/>
<path d="M1680983 964292 L1648119 964292 "/>
<path d="M1415953 953337 L1383089 953337 "/>
<path d="M1383089 953337 L1383089 975246 "/>
<path d="M1383089 997155 L1383089 1019065 "/>
<path d="M1415953 975246 L1415953 953337 "/>
<path d="M1383089 1019065 L1415953 1019065 "/>
<path d="M1415953 1019065 L1415953 997155 "/>
</g>
<g style="fill:#000084; fill-opacity:0.0;  stroke:#000084; stroke-width:2587.709436; stroke-opacity:1;  stroke-linecap:round; stroke-linejoin:round;">
<path d="M1568553 1483742 L1646185 1483742 "/>
<path d="M1646185 1406111 L1551302 1406111 "/>
<path d="M1551302 1406111 L1551302 1466490 "/>
<path d="M1551302 1466490 L1568553 1483742 "/>
<path d="M1646185 1483742 L1646185 1406111 "/>
</g>
<g style="fill:#000084; fill-opacity:0.0;  stroke:#000084; stroke-width:3234.636795; stroke-opacity:1;  stroke-linecap:round; stroke-linejoin:round;">
<path d="M1685841 398758 L1718705 398758 "/>
<path d="M1718705 398758 L1718705 376849 "/>
<path d="M1685841 376849 L1685841 398758 "/>
<path d="M1718705 333031 L1685841 333031 "/>
<path d="M1718705 354940 L1718705 333031 "/>
<path d="M1685841 333031 L1685841 354940 "/>
<path d="M1459771 1250481 L1492635 1250481 "/>
<path d="M1459771 1184754 L1459771 1206663 "/>
<path d="M1459771 1228572 L1459771 1250481 "/>
<path d="M1492635 1250481 L1492635 1228572 "/>
<path d="M1492635 1184754 L1459771 1184754 "/>
<path d="M1492635 1206663 L1492635 1184754 "/>
<path d="M1366657 582249 L1366657 560339 "/>
<path d="M1333793 560339 L1333793 582249 "/>
<path d="M1366657 516521 L1333793 516521 "/>
<path d="M1333793 582249 L1366657 582249 "/>
<path d="M1366657 538430 L1366657 516521 "/>
<path d="M1333793 516521 L1333793 538430 "/>
<path d="M1722063 1224464 L1722063 1246373 "/>
<path d="M1754927 1180646 L1722063 1180646 "/>
<path d="M1754927 1246373 L1754927 1224464 "/>
<path d="M1722063 1246373 L1754927 1246373 "/>
<path d="M1754927 1202555 L1754927 1180646 "/>
<path d="M1722063 1180646 L1722063 1202555 "/>
<g>
</g>
<g>
</g>
<g>
</g>
<g>
</g>
<g>
</g>
<g>
</g>
<g>
</g>
<g>
</g>
<g>
</g>
<g>
</g>
<g>
</g>
<g>
</g>
<g>
</g>
<g>
</g>
<g>
</g>
<g>
</g>
<g>
</g>
<g>
</g>
<g>
</g>
<g>
</g>
<g>
</g>
<g>
</g>
<g>
</g>
<g>
</g>
<g>
</g>
<g>
</g>
<g>
</g>
<g>
</g>
<g>
</g>
<g>
</g>
<g>
</g>
<g>
</g>
<g>
</g>
<g>
</g>
<g>
</g>
<g>
</g>
<g>
</g>
<g>
</g>
<g>
</g>
<g>
</g>
<g>
</g>
<g>
</g>
<g>
</g>
<g>
</g>
<g>
</g>
<g>
</g>
<g>
</g>
<g>
</g>
<g>
</g>
<g>
</g>
<g>
</g>
<g>
</g>
<g>
</g>
<g>
</g>
<g>
</g>
<g>
</g>
<g>
</g>
<g>
</g>
<g>
</g>
<g>
</g>
<g>
</g>
<g>
</g>
<g>
</g>
<g>
</g>
<g>
</g>
<g>
</g>
<g>
</g>
<g>
</g>
<g>
</g>
<g>
</g>
<g>
</g>
<g>
</g>
<g>
</g>
<g>
</g>
<g>
</g>
</g> 
<svg:g><svg:g><svg:title>SVG Picture created as ISO11446PWR01-Edge_Cuts.svg date 2023/02/17 00:49:04 </svg:title>
  <svg:desc>Picture generated by PCBNEW </svg:desc>
<svg:g style="fill:#C2C200; fill-opacity:1.000000;stroke:#C2C200; stroke-opacity:1.000000; stroke-linecap:round; stroke-linejoin:round;" transform="translate(0 0) scale(1 1)">
</svg:g>
<svg:g style="fill:#C2C200; fill-opacity:0.0;  stroke:#C2C200; stroke-width:0.000000; stroke-opacity:1;  stroke-linecap:round; stroke-linejoin:round;">
</svg:g>
<svg:g style="fill:#C2C200; fill-opacity:0.0;  stroke:#C2C200; stroke-width:3234.636795; stroke-opacity:1;  stroke-linecap:round; stroke-linejoin:round;">
<svg:path d="M651247 1653 L2393035 1653 "/>
<svg:path d="M2393035 1653 L2393035 1962533 "/>
<svg:path d="M2393035 1962533 L651247 1962533 "/>
<svg:path d="M651247 1962533 L651247 1653 "/>
<svg:g>
</svg:g>
<svg:g>
</svg:g>
<svg:g>
</svg:g>
<svg:g>
</svg:g>
<svg:g>
</svg:g>
<svg:g>
</svg:g>
<svg:g>
</svg:g>
<svg:g>
</svg:g>
<svg:g>
</svg:g>
<svg:g>
</svg:g>
<svg:g>
</svg:g>
<svg:g>
</svg:g>
<svg:g>
</svg:g>
<svg:g>
</svg:g>
<svg:g>
</svg:g>
<svg:g>
</svg:g>
<svg:g>
</svg:g>
<svg:g>
</svg:g>
<svg:g>
</svg:g>
<svg:g>
</svg:g>
<svg:g>
</svg:g>
<svg:g>
</svg:g>
<svg:g>
</svg:g>
<svg:g>
</svg:g>
<svg:g>
</svg:g>
<svg:g>
</svg:g>
<svg:g>
</svg:g>
<svg:g>
</svg:g>
<svg:g>
</svg:g>
<svg:g>
</svg:g>
<svg:g>
</svg:g>
<svg:g>
</svg:g>
<svg:g>
</svg:g>
<svg:g>
</svg:g>
<svg:g>
</svg:g>
<svg:g>
</svg:g>
<svg:g>
</svg:g>
<svg:g>
</svg:g>
<svg:g>
</svg:g>
<svg:g>
</svg:g>
<svg:g>
</svg:g>
<svg:g>
</svg:g>
<svg:g>
</svg:g>
<svg:g>
</svg:g>
<svg:g>
</svg:g>
<svg:g>
</svg:g>
<svg:g>
</svg:g>
<svg:g>
</svg:g>
<svg:g>
</svg:g>
<svg:g>
</svg:g>
<svg:g>
</svg:g>
<svg:g>
</svg:g>
<svg:g>
</svg:g>
<svg:g>
</svg:g>
<svg:g>
</svg:g>
<svg:g>
</svg:g>
<svg:g>
</svg:g>
<svg:g>
</svg:g>
<svg:g>
</svg:g>
<svg:g>
</svg:g>
<svg:g>
</svg:g>
<svg:g>
</svg:g>
<svg:g>
</svg:g>
<svg:g>
</svg:g>
<svg:g>
</svg:g>
<svg:g>
</svg:g>
<svg:g>
</svg:g>
<svg:g>
</svg:g>
<svg:g>
</svg:g>
<svg:g>
</svg:g>
<svg:g>
</svg:g>
<svg:g>
</svg:g>
<svg:g>
</svg:g>
<svg:g>
</svg:g>
<svg:g>
</svg:g>
</svg:g> 
</svg:g></svg:g></svg>
