<?xml version='1.0' encoding='ASCII' standalone='yes'?>
<svg xmlns:svg="http://www.w3.org/2000/svg" xmlns="http://www.w3.org/2000/svg" xmlns:xlink="http://www.w3.org/1999/xlink" version="1.1" width="29.700220cm" height="21.000720cm" viewBox="0 0 2970022 2100072">
<title>SVG Picture created as ISO11446PWR01-B_Fab.svg date 2023/02/20 23:58:41 </title>
  <desc>Picture generated by PCBNEW </desc>
<g style="fill:#000084; fill-opacity:1.000000;stroke:#000084; stroke-opacity:1.000000; stroke-linecap:round; stroke-linejoin:round;" transform="translate(0 0) scale(1 1)">
</g>
<g style="fill:#000084; fill-opacity:0.0;  stroke:#000084; stroke-width:0.000000; stroke-opacity:1;  stroke-linecap:round; stroke-linejoin:round;">
</g>
<g style="fill:#000084; fill-opacity:0.01;  stroke:#000084; stroke-width:3232.230464; stroke-opacity:1;  stroke-linecap:round; stroke-linejoin:round;">
<text x="1720792.653319" y="907941.531762" transform="scale(-1 1) translate(-3441585.306637 0)" textLength="24306.674765" font-size="36488.283390" lengthAdjust="spacingAndGlyphs" text-anchor="middle" opacity="0.01" style="font-family:monospace">K</text>
<g class="stroked-text"><desc>K</desc>
<path d="M1727959 906638 L1727959 879272 "/>
<path d="M1712322 906638 L1724050 891000 "/>
<path d="M1712322 879272 L1727959 894909 "/>
</g><text x="1680837.975141" y="909036.180480" transform="scale(-1 1) translate(-3361675.950282 0)" textLength="49227.387126" font-size="36488.283390" lengthAdjust="spacingAndGlyphs" text-anchor="middle" opacity="0.01" style="font-family:monospace">D5</text>
<g class="stroked-text"><desc>D5</desc>
<path d="M1701036 907733 L1701036 880366 L1694521 880366 L1690611 881669 L1688005 884276 L1686702 886882 L1685398 892095 L1685398 896004 L1686702 901217 L1688005 903823 L1690611 906429 L1694521 907733 L1701036 907733 "/>
<path d="M1660639 880366 L1673670 880366 L1674973 893398 L1673670 892095 L1671064 890792 L1664548 890792 L1661942 892095 L1660639 893398 L1659335 896004 L1659335 902520 L1660639 905126 L1661942 906429 L1664548 907733 L1671064 907733 L1673670 906429 L1674973 905126 "/>
</g></g>
<g style="fill:#000084; fill-opacity:0.01;  stroke:#000084; stroke-width:2353.494742; stroke-opacity:1;  stroke-linecap:round; stroke-linejoin:round;">
<text x="2107750.974846" y="543615.072463" transform="scale(-1 1) translate(-4215501.949692 0)" textLength="27118.090371" font-size="14376.379303" lengthAdjust="spacingAndGlyphs" text-anchor="middle" opacity="0.01" style="font-family:monospace">R17</text>
<g class="stroked-text"><desc>R17</desc>
<path d="M2114682 543101 L2118276 537967 "/>
<path d="M2120843 543101 L2120843 532319 L2116736 532319 L2115709 532832 L2115195 533346 L2114682 534373 L2114682 535913 L2115195 536940 L2115709 537453 L2116736 537967 L2120843 537967 "/>
<path d="M2104413 543101 L2110574 543101 "/>
<path d="M2107494 543101 L2107494 532319 L2108521 533859 L2109548 534886 L2110574 535399 "/>
<path d="M2100819 532319 L2093631 532319 L2098252 543101 "/>
</g><text x="2105014.353053" y="558666.492325" transform="scale(-1 1) translate(-4210028.706106 0)" textLength="15937.826744" font-size="14376.379303" lengthAdjust="spacingAndGlyphs" text-anchor="middle" opacity="0.01" style="font-family:monospace">1k</text>
<g class="stroked-text"><desc>1k</desc>
<path d="M2106297 558153 L2112459 558153 "/>
<path d="M2109378 558153 L2109378 547370 L2110405 548911 L2111432 549937 L2112459 550451 "/>
<path d="M2101676 558153 L2101676 547370 "/>
<path d="M2100650 554045 L2097569 558153 "/>
<path d="M2097569 550964 L2101676 555072 "/>
</g></g>
<g style="fill:#000084; fill-opacity:0.01;  stroke:#000084; stroke-width:3232.230464; stroke-opacity:1;  stroke-linecap:round; stroke-linejoin:round;">
<text x="1708204.193071" y="408974.206821" transform="scale(-1 1) translate(-3416408.386142 0)" textLength="153934.501795" font-size="28730.930276" lengthAdjust="spacingAndGlyphs" text-anchor="middle" opacity="0.01" style="font-family:monospace">LTV-357T</text>
<g class="stroked-text"><desc>LTV-357T</desc>
<path d="M1771309 407948 L1781570 407948 L1781570 386399 "/>
<path d="M1767205 386399 L1754891 386399 "/>
<path d="M1761048 407948 L1761048 386399 "/>
<path d="M1750787 386399 L1743604 407948 L1736422 386399 "/>
<path d="M1729239 399739 L1712821 399739 "/>
<path d="M1704612 386399 L1691273 386399 L1698456 394608 L1695377 394608 L1693325 395634 L1692299 396660 L1691273 398713 L1691273 403843 L1692299 405895 L1693325 406921 L1695377 407948 L1701534 407948 L1703586 406921 L1704612 405895 "/>
<path d="M1671777 386399 L1682038 386399 L1683064 396660 L1682038 395634 L1679986 394608 L1674855 394608 L1672803 395634 L1671777 396660 L1670751 398713 L1670751 403843 L1671777 405895 L1672803 406921 L1674855 407948 L1679986 407948 L1682038 406921 L1683064 405895 "/>
<path d="M1663568 386399 L1649203 386399 L1658438 407948 "/>
<path d="M1644072 386399 L1631759 386399 "/>
<path d="M1637916 407948 L1637916 386399 "/>
</g><text x="1719150.680243" y="339222.673405" transform="scale(-1 1) translate(-3438301.360486 0)" textLength="38894.506585" font-size="28730.930276" lengthAdjust="spacingAndGlyphs" text-anchor="middle" opacity="0.01" style="font-family:monospace">U2</text>
<g class="stroked-text"><desc>U2</desc>
<path d="M1735568 316648 L1735568 334092 L1734542 336144 L1733516 337170 L1731463 338196 L1727359 338196 L1725307 337170 L1724281 336144 L1723255 334092 L1723255 316648 "/>
<path d="M1714020 318700 L1712994 317674 L1710941 316648 L1705811 316648 L1703759 317674 L1702732 318700 L1701706 320752 L1701706 322804 L1702732 325883 L1715046 338196 L1701706 338196 "/>
</g></g>
<g style="fill:#000084; fill-opacity:0.01;  stroke:#000084; stroke-width:2353.494742; stroke-opacity:1;  stroke-linecap:round; stroke-linejoin:round;">
<g transform="rotate(-90.000000 2051650.228090 703789.546006)">
<text x="2051650.228090" y="709180.690938" transform="scale(-1 1) translate(-4103300.456180 0)" textLength="16849.229542" font-size="14376.379303" lengthAdjust="spacingAndGlyphs" text-anchor="middle" opacity="0.01" style="font-family:monospace">C1</text>
</g>
<g class="stroked-text"><desc>C1</desc>
<path d="M2055501 701992 L2056014 701479 L2056527 699938 L2056527 698911 L2056014 697371 L2054987 696344 L2053960 695831 L2051906 695317 L2050366 695317 L2048312 695831 L2047285 696344 L2046259 697371 L2045745 698911 L2045745 699938 L2046259 701479 L2046772 701992 "/>
<path d="M2056527 712261 L2056527 706100 "/>
<path d="M2056527 709180 L2045745 709180 L2047285 708153 L2048312 707126 L2048826 706100 "/>
</g><g transform="rotate(-90.000000 2066701.647951 706526.167799)">
<text x="2066701.647951" y="711917.312731" transform="scale(-1 1) translate(-4133403.295902 0)" textLength="36475.526854" font-size="14376.379303" lengthAdjust="spacingAndGlyphs" text-anchor="middle" opacity="0.01" style="font-family:monospace">10uF</text>
</g>
<g class="stroked-text"><desc>10uF</desc>
<path d="M2071579 694973 L2071579 688812 "/>
<path d="M2071579 691893 L2060797 691893 L2062337 690866 L2063364 689839 L2063877 688812 "/>
<path d="M2060797 701648 L2060797 702675 L2061310 703702 L2061823 704215 L2062850 704729 L2064904 705242 L2067471 705242 L2069525 704729 L2070552 704215 L2071065 703702 L2071579 702675 L2071579 701648 L2071065 700621 L2070552 700108 L2069525 699594 L2067471 699081 L2064904 699081 L2062850 699594 L2061823 700108 L2061310 700621 L2060797 701648 "/>
<path d="M2064391 714484 L2071579 714484 "/>
<path d="M2064391 709863 L2070039 709863 L2071065 710376 L2071579 711403 L2071579 712944 L2071065 713971 L2070552 714484 "/>
<path d="M2065931 723213 L2065931 719618 "/>
<path d="M2071579 719618 L2060797 719618 L2060797 724753 "/>
</g><text x="2107750.974846" y="379417.764885" transform="scale(-1 1) translate(-4215501.949692 0)" textLength="28260.446810" font-size="14376.379303" lengthAdjust="spacingAndGlyphs" text-anchor="middle" opacity="0.01" style="font-family:monospace">R12</text>
<g class="stroked-text"><desc>R12</desc>
<path d="M2114682 378904 L2118276 373769 "/>
<path d="M2120843 378904 L2120843 368122 L2116736 368122 L2115709 368635 L2115195 369148 L2114682 370175 L2114682 371716 L2115195 372742 L2115709 373256 L2116736 373769 L2120843 373769 "/>
<path d="M2104413 378904 L2110574 378904 "/>
<path d="M2107494 378904 L2107494 368122 L2108521 369662 L2109548 370689 L2110574 371202 "/>
<path d="M2100306 369148 L2099792 368635 L2098765 368122 L2096198 368122 L2095171 368635 L2094658 369148 L2094144 370175 L2094144 371202 L2094658 372742 L2100819 378904 L2094144 378904 "/>
</g><text x="2105014.353053" y="394469.184746" transform="scale(-1 1) translate(-4210028.706106 0)" textLength="15937.826744" font-size="14376.379303" lengthAdjust="spacingAndGlyphs" text-anchor="middle" opacity="0.01" style="font-family:monospace">1k</text>
<g class="stroked-text"><desc>1k</desc>
<path d="M2106297 393955 L2112459 393955 "/>
<path d="M2109378 393955 L2109378 383173 L2110405 384713 L2111432 385740 L2112459 386254 "/>
<path d="M2101676 393955 L2101676 383173 "/>
<path d="M2100650 389848 L2097569 393955 "/>
<path d="M2097569 386767 L2101676 390875 "/>
</g></g>
<g style="fill:#000084; fill-opacity:0.01;  stroke:#000084; stroke-width:3232.230464; stroke-opacity:1;  stroke-linecap:round; stroke-linejoin:round;">
<g transform="rotate(-90.000000 1973602.636482 1411561.824842)">
<text x="1973602.636482" y="1425244.933807" transform="scale(-1 1) translate(-3947205.272964 0)" textLength="76432.812364" font-size="36488.283390" lengthAdjust="spacingAndGlyphs" text-anchor="middle" opacity="0.01" style="font-family:monospace">D10</text>
</g>
<g class="stroked-text"><desc>D10</desc>
<path d="M1985982 1378331 L1958616 1378331 L1958616 1384847 L1959919 1388756 L1962525 1391362 L1965132 1392666 L1970344 1393969 L1974254 1393969 L1979466 1392666 L1982073 1391362 L1984679 1388756 L1985982 1384847 L1985982 1378331 "/>
<path d="M1985982 1420032 L1985982 1404394 "/>
<path d="M1985982 1412213 L1958616 1412213 L1962525 1409607 L1965132 1407000 L1966435 1404394 "/>
<path d="M1958616 1436973 L1958616 1439579 L1959919 1442185 L1961222 1443489 L1963828 1444792 L1969041 1446095 L1975557 1446095 L1980769 1444792 L1983376 1443489 L1984679 1442185 L1985982 1439579 L1985982 1436973 L1984679 1434366 L1983376 1433063 L1980769 1431760 L1975557 1430457 L1969041 1430457 L1963828 1431760 L1961222 1433063 L1959919 1434366 L1958616 1436973 "/>
</g><g transform="rotate(-90.000000 1974697.285199 1451516.503020)">
<text x="1974697.285199" y="1465199.611985" transform="scale(-1 1) translate(-3949394.570399 0)" textLength="23164.318326" font-size="36488.283390" lengthAdjust="spacingAndGlyphs" text-anchor="middle" opacity="0.01" style="font-family:monospace">K</text>
</g>
<g class="stroked-text"><desc>K</desc>
<path d="M1987077 1444349 L1959711 1444349 "/>
<path d="M1987077 1459986 L1971439 1448258 "/>
<path d="M1959711 1459986 L1975348 1444349 "/>
</g><text x="1719150.680243" y="1031587.965480" transform="scale(-1 1) translate(-3438301.360486 0)" textLength="38894.506585" font-size="28730.930276" lengthAdjust="spacingAndGlyphs" text-anchor="middle" opacity="0.01" style="font-family:monospace">U5</text>
<g class="stroked-text"><desc>U5</desc>
<path d="M1735568 1009013 L1735568 1026457 L1734542 1028509 L1733516 1029535 L1731463 1030561 L1727359 1030561 L1725307 1029535 L1724281 1028509 L1723255 1026457 L1723255 1009013 "/>
<path d="M1702732 1009013 L1712994 1009013 L1714020 1019274 L1712994 1018248 L1710941 1017222 L1705811 1017222 L1703759 1018248 L1702732 1019274 L1701706 1021326 L1701706 1026457 L1702732 1028509 L1703759 1029535 L1705811 1030561 L1710941 1030561 L1712994 1029535 L1714020 1028509 "/>
</g><g transform="rotate(-90.000000 1956860.760088 1663464.628655)">
<text x="1956860.760088" y="1677147.737620" transform="scale(-1 1) translate(-3913721.520176 0)" textLength="23164.318326" font-size="36488.283390" lengthAdjust="spacingAndGlyphs" text-anchor="middle" opacity="0.01" style="font-family:monospace">K</text>
</g>
<g class="stroked-text"><desc>K</desc>
<path d="M1969240 1656297 L1941874 1656297 "/>
<path d="M1969240 1671935 L1953602 1660206 "/>
<path d="M1941874 1671935 L1957512 1656297 "/>
</g><g transform="rotate(-90.000000 1955766.111371 1623509.950478)">
<text x="1955766.111371" y="1637193.059443" transform="scale(-1 1) translate(-3911532.222742 0)" textLength="49227.387126" font-size="36488.283390" lengthAdjust="spacingAndGlyphs" text-anchor="middle" opacity="0.01" style="font-family:monospace">D9</text>
</g>
<g class="stroked-text"><desc>D9</desc>
<path d="M1968146 1603311 L1940779 1603311 L1940779 1609826 L1942083 1613736 L1944689 1616342 L1947295 1617645 L1952508 1618948 L1956417 1618948 L1961630 1617645 L1964236 1616342 L1966842 1613736 L1968146 1609826 L1968146 1603311 "/>
<path d="M1968146 1631980 L1968146 1637193 L1966842 1639799 L1965539 1641102 L1961630 1643708 L1956417 1645011 L1945992 1645011 L1943386 1643708 L1942083 1642405 L1940779 1639799 L1940779 1634586 L1942083 1631980 L1943386 1630677 L1945992 1629374 L1952508 1629374 L1955114 1630677 L1956417 1631980 L1957720 1634586 L1957720 1639799 L1956417 1642405 L1955114 1643708 L1952508 1645011 "/>
</g></g>
<g style="fill:#000084; fill-opacity:0.0;  stroke:#000084; stroke-width:2353.494742; stroke-opacity:1;  stroke-linecap:round; stroke-linejoin:round;">
<g transform="rotate(-90.000000 1775251.426999 419408.924170)">
<text x="1775251.426999" y="424800.069102" transform="scale(-1 1) translate(-3550502.853998 0)" textLength="27118.090371" font-size="14376.379303" lengthAdjust="spacingAndGlyphs" text-anchor="middle" opacity="0.01" style="font-family:monospace">R11</text>
</g>
<g class="stroked-text"><desc>R11</desc>
<path d="M1780129 412477 L1774994 408883 "/>
<path d="M1780129 406316 L1769346 406316 L1769346 410423 L1769860 411450 L1770373 411963 L1771400 412477 L1772940 412477 L1773967 411963 L1774481 411450 L1774994 410423 L1774994 406316 "/>
<path d="M1780129 422746 L1780129 416584 "/>
<path d="M1780129 419665 L1769346 419665 L1770887 418638 L1771914 417611 L1772427 416584 "/>
<path d="M1780129 433015 L1780129 426853 "/>
<path d="M1780129 429934 L1769346 429934 L1770887 428907 L1771914 427880 L1772427 426853 "/>
</g><g transform="rotate(-90.000000 1760200.007138 416672.302377)">
<text x="1760200.007138" y="422063.447309" transform="scale(-1 1) translate(-3520400.014275 0)" textLength="38529.286091" font-size="14376.379303" lengthAdjust="spacingAndGlyphs" text-anchor="middle" opacity="0.01" style="font-family:monospace">510R</text>
</g>
<g class="stroked-text"><desc>510R</desc>
<path d="M1754295 403579 L1754295 398445 L1759429 397931 L1758916 398445 L1758402 399471 L1758402 402039 L1758916 403066 L1759429 403579 L1760456 404092 L1763023 404092 L1764050 403579 L1764564 403066 L1765077 402039 L1765077 399471 L1764564 398445 L1764050 397931 "/>
<path d="M1765077 414361 L1765077 408200 "/>
<path d="M1765077 411281 L1754295 411281 L1755835 410254 L1756862 409227 L1757376 408200 "/>
<path d="M1754295 421036 L1754295 422063 L1754808 423090 L1755322 423603 L1756349 424117 L1758402 424630 L1760970 424630 L1763023 424117 L1764050 423603 L1764564 423090 L1765077 422063 L1765077 421036 L1764564 420009 L1764050 419496 L1763023 418982 L1760970 418469 L1758402 418469 L1756349 418982 L1755322 419496 L1754808 420009 L1754295 421036 "/>
<path d="M1765077 435412 L1759943 431818 "/>
<path d="M1765077 429251 L1754295 429251 L1754295 433359 L1754808 434386 L1755322 434899 L1756349 435412 L1757889 435412 L1758916 434899 L1759429 434386 L1759943 433359 L1759943 429251 "/>
</g></g>
<g style="fill:#000084; fill-opacity:0.01;  stroke:#000084; stroke-width:3232.230464; stroke-opacity:1;  stroke-linecap:round; stroke-linejoin:round;">
<text x="1719150.680243" y="739063.932923" transform="scale(-1 1) translate(-3438301.360486 0)" textLength="153934.501795" font-size="28730.930276" lengthAdjust="spacingAndGlyphs" text-anchor="middle" opacity="0.01" style="font-family:monospace">LTV-357T</text>
<g class="stroked-text"><desc>LTV-357T</desc>
<path d="M1782256 738037 L1792517 738037 L1792517 716489 "/>
<path d="M1778151 716489 L1765838 716489 "/>
<path d="M1771995 738037 L1771995 716489 "/>
<path d="M1761734 716489 L1754551 738037 L1747368 716489 "/>
<path d="M1740185 729828 L1723768 729828 "/>
<path d="M1715559 716489 L1702219 716489 L1709402 724698 L1706324 724698 L1704272 725724 L1703246 726750 L1702219 728802 L1702219 733933 L1703246 735985 L1704272 737011 L1706324 738037 L1712480 738037 L1714533 737011 L1715559 735985 "/>
<path d="M1682723 716489 L1692984 716489 L1694011 726750 L1692984 725724 L1690932 724698 L1685802 724698 L1683750 725724 L1682723 726750 L1681697 728802 L1681697 733933 L1682723 735985 L1683750 737011 L1685802 738037 L1690932 738037 L1692984 737011 L1694011 735985 "/>
<path d="M1674515 716489 L1660149 716489 L1669384 738037 "/>
<path d="M1655019 716489 L1642705 716489 "/>
<path d="M1648862 738037 L1648862 716489 "/>
</g><text x="1719150.680243" y="800799.534789" transform="scale(-1 1) translate(-3438301.360486 0)" textLength="38894.506585" font-size="28730.930276" lengthAdjust="spacingAndGlyphs" text-anchor="middle" opacity="0.01" style="font-family:monospace">U4</text>
<g class="stroked-text"><desc>U4</desc>
<path d="M1735568 778225 L1735568 795668 L1734542 797721 L1733516 798747 L1731463 799773 L1727359 799773 L1725307 798747 L1724281 797721 L1723255 795668 L1723255 778225 "/>
<path d="M1703759 785407 L1703759 799773 "/>
<path d="M1708889 777199 L1714020 792590 L1700680 792590 "/>
</g></g>
<g style="fill:#000084; fill-opacity:0.01;  stroke:#000084; stroke-width:2353.494742; stroke-opacity:1;  stroke-linecap:round; stroke-linejoin:round;">
<text x="2107750.974846" y="269952.893165" transform="scale(-1 1) translate(-4215501.949692 0)" textLength="16849.229542" font-size="14376.379303" lengthAdjust="spacingAndGlyphs" text-anchor="middle" opacity="0.01" style="font-family:monospace">R8</text>
<g class="stroked-text"><desc>R8</desc>
<path d="M2109548 269439 L2113142 264305 "/>
<path d="M2115709 269439 L2115709 258657 L2111601 258657 L2110574 259170 L2110061 259684 L2109548 260710 L2109548 262251 L2110061 263278 L2110574 263791 L2111601 264305 L2115709 264305 "/>
<path d="M2103386 263278 L2104413 262764 L2104927 262251 L2105440 261224 L2105440 260710 L2104927 259684 L2104413 259170 L2103386 258657 L2101332 258657 L2100306 259170 L2099792 259684 L2099279 260710 L2099279 261224 L2099792 262251 L2100306 262764 L2101332 263278 L2103386 263278 L2104413 263791 L2104927 264305 L2105440 265331 L2105440 267385 L2104927 268412 L2104413 268925 L2103386 269439 L2101332 269439 L2100306 268925 L2099792 268412 L2099279 267385 L2099279 265331 L2099792 264305 L2100306 263791 L2101332 263278 "/>
</g><text x="2105014.353053" y="285004.313027" transform="scale(-1 1) translate(-4210028.706106 0)" textLength="15937.826744" font-size="14376.379303" lengthAdjust="spacingAndGlyphs" text-anchor="middle" opacity="0.01" style="font-family:monospace">1k</text>
<g class="stroked-text"><desc>1k</desc>
<path d="M2106297 284490 L2112459 284490 "/>
<path d="M2109378 284490 L2109378 273708 L2110405 275248 L2111432 276275 L2112459 276789 "/>
<path d="M2101676 284490 L2101676 273708 "/>
<path d="M2100650 280383 L2097569 284490 "/>
<path d="M2097569 277302 L2101676 281410 "/>
</g><text x="2107750.974846" y="488882.636604" transform="scale(-1 1) translate(-4215501.949692 0)" textLength="28260.446810" font-size="14376.379303" lengthAdjust="spacingAndGlyphs" text-anchor="middle" opacity="0.01" style="font-family:monospace">R16</text>
<g class="stroked-text"><desc>R16</desc>
<path d="M2114682 488369 L2118276 483234 "/>
<path d="M2120843 488369 L2120843 477586 L2116736 477586 L2115709 478100 L2115195 478613 L2114682 479640 L2114682 481180 L2115195 482207 L2115709 482721 L2116736 483234 L2120843 483234 "/>
<path d="M2104413 488369 L2110574 488369 "/>
<path d="M2107494 488369 L2107494 477586 L2108521 479127 L2109548 480154 L2110574 480667 "/>
<path d="M2095171 477586 L2097225 477586 L2098252 478100 L2098765 478613 L2099792 480154 L2100306 482207 L2100306 486315 L2099792 487342 L2099279 487855 L2098252 488369 L2096198 488369 L2095171 487855 L2094658 487342 L2094144 486315 L2094144 483748 L2094658 482721 L2095171 482207 L2096198 481694 L2098252 481694 L2099279 482207 L2099792 482721 L2100306 483748 "/>
</g><text x="2105014.353053" y="503934.056465" transform="scale(-1 1) translate(-4210028.706106 0)" textLength="15937.826744" font-size="14376.379303" lengthAdjust="spacingAndGlyphs" text-anchor="middle" opacity="0.01" style="font-family:monospace">1k</text>
<g class="stroked-text"><desc>1k</desc>
<path d="M2106297 503420 L2112459 503420 "/>
<path d="M2109378 503420 L2109378 492638 L2110405 494178 L2111432 495205 L2112459 495718 "/>
<path d="M2101676 503420 L2101676 492638 "/>
<path d="M2100650 499313 L2097569 503420 "/>
<path d="M2097569 496232 L2101676 500339 "/>
</g></g>
<g style="fill:#000084; fill-opacity:0.01;  stroke:#000084; stroke-width:3232.230464; stroke-opacity:1;  stroke-linecap:round; stroke-linejoin:round;">
<text x="1720792.653319" y="448189.070542" transform="scale(-1 1) translate(-3441585.306637 0)" textLength="24306.674765" font-size="36488.283390" lengthAdjust="spacingAndGlyphs" text-anchor="middle" opacity="0.01" style="font-family:monospace">K</text>
<g class="stroked-text"><desc>K</desc>
<path d="M1727959 446885 L1727959 419519 "/>
<path d="M1712322 446885 L1724050 431248 "/>
<path d="M1712322 419519 L1727959 435157 "/>
</g><text x="1680837.975141" y="449283.719259" transform="scale(-1 1) translate(-3361675.950282 0)" textLength="49227.387126" font-size="36488.283390" lengthAdjust="spacingAndGlyphs" text-anchor="middle" opacity="0.01" style="font-family:monospace">D3</text>
<g class="stroked-text"><desc>D3</desc>
<path d="M1701036 447980 L1701036 420614 L1694521 420614 L1690611 421917 L1688005 424523 L1686702 427130 L1685398 432342 L1685398 436252 L1686702 441464 L1688005 444071 L1690611 446677 L1694521 447980 L1701036 447980 "/>
<path d="M1676276 420614 L1659335 420614 L1668458 431039 L1664548 431039 L1661942 432342 L1660639 433645 L1659335 436252 L1659335 442767 L1660639 445374 L1661942 446677 L1664548 447980 L1672367 447980 L1674973 446677 L1676276 445374 "/>
</g><text x="1720792.653319" y="1597570.223593" transform="scale(-1 1) translate(-3441585.306637 0)" textLength="23164.318326" font-size="36488.283390" lengthAdjust="spacingAndGlyphs" text-anchor="middle" opacity="0.01" style="font-family:monospace">K</text>
<g class="stroked-text"><desc>K</desc>
<path d="M1727959 1596267 L1727959 1568900 "/>
<path d="M1712322 1596267 L1724050 1580629 "/>
<path d="M1712322 1568900 L1727959 1584538 "/>
</g><text x="1680837.975141" y="1598664.872310" transform="scale(-1 1) translate(-3361675.950282 0)" textLength="49227.387126" font-size="36488.283390" lengthAdjust="spacingAndGlyphs" text-anchor="middle" opacity="0.01" style="font-family:monospace">D8</text>
<g class="stroked-text"><desc>D8</desc>
<path d="M1701036 1597361 L1701036 1569995 L1694521 1569995 L1690611 1571298 L1688005 1573904 L1686702 1576511 L1685398 1581723 L1685398 1585633 L1686702 1590845 L1688005 1593452 L1690611 1596058 L1694521 1597361 L1701036 1597361 "/>
<path d="M1669761 1581723 L1672367 1580420 L1673670 1579117 L1674973 1576511 L1674973 1575208 L1673670 1572601 L1672367 1571298 L1669761 1569995 L1664548 1569995 L1661942 1571298 L1660639 1572601 L1659335 1575208 L1659335 1576511 L1660639 1579117 L1661942 1580420 L1664548 1581723 L1669761 1581723 L1672367 1583027 L1673670 1584330 L1674973 1586936 L1674973 1592149 L1673670 1594755 L1672367 1596058 L1669761 1597361 L1664548 1597361 L1661942 1596058 L1660639 1594755 L1659335 1592149 L1659335 1586936 L1660639 1584330 L1661942 1583027 L1664548 1581723 "/>
</g></g>
<g style="fill:#000084; fill-opacity:0.0;  stroke:#000084; stroke-width:6567.892303; stroke-opacity:1;  stroke-linecap:round; stroke-linejoin:round;">
<g transform="rotate(-90.000000 2030953.179018 1113377.790423)">
<text x="2030953.179018" y="1129797.521181" transform="scale(-1 1) translate(-4061906.358035 0)" textLength="55221.881745" font-size="43785.948688" lengthAdjust="spacingAndGlyphs" text-anchor="middle" opacity="0.01" style="font-family:monospace">F3</text>
</g>
<g class="stroked-text"><desc>F3</desc>
<path d="M2028607 1102431 L2028607 1091484 "/>
<path d="M2045809 1091484 L2012969 1091484 L2012969 1107122 "/>
<path d="M2012969 1116505 L2012969 1136834 L2025479 1125888 L2025479 1130579 L2027043 1133706 L2028607 1135270 L2031735 1136834 L2039553 1136834 L2042681 1135270 L2044245 1133706 L2045809 1130579 L2045809 1121196 L2044245 1118069 L2042681 1116505 "/>
</g></g>
<g style="fill:#000084; fill-opacity:0.0;  stroke:#000084; stroke-width:2353.494742; stroke-opacity:1;  stroke-linecap:round; stroke-linejoin:round;">
<g transform="rotate(-90.000000 1775251.426999 879617.474657)">
<text x="1775251.426999" y="885008.619589" transform="scale(-1 1) translate(-3550502.853998 0)" textLength="22781.729980" font-size="14376.379303" lengthAdjust="spacingAndGlyphs" text-anchor="middle" opacity="0.01" style="font-family:monospace">R15</text>
</g>
<g class="stroked-text"><desc>R15</desc>
<path d="M1780129 872685 L1774994 869091 "/>
<path d="M1780129 866524 L1769346 866524 L1769346 870632 L1769860 871659 L1770373 872172 L1771400 872685 L1772940 872685 L1773967 872172 L1774481 871659 L1774994 870632 L1774994 866524 "/>
<path d="M1780129 882954 L1780129 876793 "/>
<path d="M1780129 879874 L1769346 879874 L1770887 878847 L1771914 877820 L1772427 876793 "/>
<path d="M1769346 892710 L1769346 887575 L1774481 887062 L1773967 887575 L1773454 888602 L1773454 891169 L1773967 892196 L1774481 892710 L1775508 893223 L1778075 893223 L1779102 892710 L1779615 892196 L1780129 891169 L1780129 888602 L1779615 887575 L1779102 887062 "/>
</g><g transform="rotate(-90.000000 1760200.007138 876880.852864)">
<text x="1760200.007138" y="882271.997796" transform="scale(-1 1) translate(-3520400.014275 0)" textLength="38529.286091" font-size="14376.379303" lengthAdjust="spacingAndGlyphs" text-anchor="middle" opacity="0.01" style="font-family:monospace">510R</text>
</g>
<g class="stroked-text"><desc>510R</desc>
<path d="M1754295 863788 L1754295 858653 L1759429 858140 L1758916 858653 L1758402 859680 L1758402 862247 L1758916 863274 L1759429 863788 L1760456 864301 L1763023 864301 L1764050 863788 L1764564 863274 L1765077 862247 L1765077 859680 L1764564 858653 L1764050 858140 "/>
<path d="M1765077 874570 L1765077 868409 "/>
<path d="M1765077 871489 L1754295 871489 L1755835 870462 L1756862 869435 L1757376 868409 "/>
<path d="M1754295 881245 L1754295 882271 L1754808 883298 L1755322 883812 L1756349 884325 L1758402 884839 L1760970 884839 L1763023 884325 L1764050 883812 L1764564 883298 L1765077 882271 L1765077 881245 L1764564 880218 L1764050 879704 L1763023 879191 L1760970 878677 L1758402 878677 L1756349 879191 L1755322 879704 L1754808 880218 L1754295 881245 "/>
<path d="M1765077 895621 L1759943 892027 "/>
<path d="M1765077 889460 L1754295 889460 L1754295 893567 L1754808 894594 L1755322 895108 L1756349 895621 L1757889 895621 L1758916 895108 L1759429 894594 L1759943 893567 L1759943 889460 "/>
</g></g>
<g style="fill:#000084; fill-opacity:0.0;  stroke:#000084; stroke-width:6567.892303; stroke-opacity:1;  stroke-linecap:round; stroke-linejoin:round;">
<g transform="rotate(-90.000000 2181790.600678 1113377.790423)">
<text x="2181790.600678" y="1129797.521181" transform="scale(-1 1) translate(-4363581.201356 0)" textLength="56364.238183" font-size="43785.948688" lengthAdjust="spacingAndGlyphs" text-anchor="middle" opacity="0.01" style="font-family:monospace">F1</text>
</g>
<g class="stroked-text"><desc>F1</desc>
<path d="M2179444 1102431 L2179444 1091484 "/>
<path d="M2196646 1091484 L2163807 1091484 L2163807 1107122 "/>
<path d="M2196646 1136834 L2196646 1118069 "/>
<path d="M2196646 1127451 L2163807 1127451 L2168498 1124324 L2171625 1121196 L2173189 1118069 "/>
</g></g>
<g style="fill:#000084; fill-opacity:0.01;  stroke:#000084; stroke-width:2353.494742; stroke-opacity:1;  stroke-linecap:round; stroke-linejoin:round;">
<text x="2107750.974846" y="434150.200744" transform="scale(-1 1) translate(-4215501.949692 0)" textLength="22781.729980" font-size="14376.379303" lengthAdjust="spacingAndGlyphs" text-anchor="middle" opacity="0.01" style="font-family:monospace">R13</text>
<g class="stroked-text"><desc>R13</desc>
<path d="M2114682 433636 L2118276 428502 "/>
<path d="M2120843 433636 L2120843 422854 L2116736 422854 L2115709 423367 L2115195 423881 L2114682 424908 L2114682 426448 L2115195 427475 L2115709 427988 L2116736 428502 L2120843 428502 "/>
<path d="M2104413 433636 L2110574 433636 "/>
<path d="M2107494 433636 L2107494 422854 L2108521 424394 L2109548 425421 L2110574 425935 "/>
<path d="M2100819 422854 L2094144 422854 L2097738 426962 L2096198 426962 L2095171 427475 L2094658 427988 L2094144 429015 L2094144 431582 L2094658 432609 L2095171 433123 L2096198 433636 L2099279 433636 L2100306 433123 L2100819 432609 "/>
</g><text x="2105014.353053" y="449201.620605" transform="scale(-1 1) translate(-4210028.706106 0)" textLength="15937.826744" font-size="14376.379303" lengthAdjust="spacingAndGlyphs" text-anchor="middle" opacity="0.01" style="font-family:monospace">1k</text>
<g class="stroked-text"><desc>1k</desc>
<path d="M2106297 448688 L2112459 448688 "/>
<path d="M2109378 448688 L2109378 437905 L2110405 439446 L2111432 440473 L2112459 440986 "/>
<path d="M2101676 448688 L2101676 437905 "/>
<path d="M2100650 444580 L2097569 448688 "/>
<path d="M2097569 441499 L2101676 445607 "/>
</g><g transform="rotate(-90.000000 1966761.082000 1302096.953123)">
<text x="1966761.082000" y="1307488.098055" transform="scale(-1 1) translate(-3933522.163999 0)" textLength="28260.446810" font-size="14376.379303" lengthAdjust="spacingAndGlyphs" text-anchor="middle" opacity="0.01" style="font-family:monospace">R23</text>
</g>
<g class="stroked-text"><desc>R23</desc>
<path d="M1971638 1295165 L1966504 1291571 "/>
<path d="M1971638 1289004 L1960856 1289004 L1960856 1293111 L1961369 1294138 L1961883 1294652 L1962910 1295165 L1964450 1295165 L1965477 1294652 L1965990 1294138 L1966504 1293111 L1966504 1289004 "/>
<path d="M1961883 1299273 L1961369 1299786 L1960856 1300813 L1960856 1303380 L1961369 1304407 L1961883 1304920 L1962910 1305434 L1963937 1305434 L1965477 1304920 L1971638 1298759 L1971638 1305434 "/>
<path d="M1960856 1309028 L1960856 1315703 L1964964 1312109 L1964964 1313649 L1965477 1314676 L1965990 1315189 L1967017 1315703 L1969584 1315703 L1970611 1315189 L1971125 1314676 L1971638 1313649 L1971638 1310568 L1971125 1309541 L1970611 1309028 "/>
</g><g transform="rotate(-90.000000 1981812.501861 1304833.574916)">
<text x="1981812.501861" y="1310224.719848" transform="scale(-1 1) translate(-3963625.003722 0)" textLength="15937.826744" font-size="14376.379303" lengthAdjust="spacingAndGlyphs" text-anchor="middle" opacity="0.01" style="font-family:monospace">1k</text>
</g>
<g class="stroked-text"><desc>1k</desc>
<path d="M1986690 1303549 L1986690 1297388 "/>
<path d="M1986690 1300469 L1975907 1300469 L1977448 1299442 L1978475 1298415 L1978988 1297388 "/>
<path d="M1986690 1308170 L1975907 1308170 "/>
<path d="M1982582 1309197 L1986690 1312278 "/>
<path d="M1979501 1312278 L1983609 1308170 "/>
</g><g transform="rotate(-90.000000 1775251.426999 1339826.025144)">
<text x="1775251.426999" y="1345217.170076" transform="scale(-1 1) translate(-3550502.853998 0)" textLength="28260.446810" font-size="14376.379303" lengthAdjust="spacingAndGlyphs" text-anchor="middle" opacity="0.01" style="font-family:monospace">R20</text>
</g>
<g class="stroked-text"><desc>R20</desc>
<path d="M1780129 1332894 L1774994 1329300 "/>
<path d="M1780129 1326733 L1769346 1326733 L1769346 1330840 L1769860 1331867 L1770373 1332381 L1771400 1332894 L1772940 1332894 L1773967 1332381 L1774481 1331867 L1774994 1330840 L1774994 1326733 "/>
<path d="M1770373 1337002 L1769860 1337515 L1769346 1338542 L1769346 1341109 L1769860 1342136 L1770373 1342649 L1771400 1343163 L1772427 1343163 L1773967 1342649 L1780129 1336488 L1780129 1343163 "/>
<path d="M1769346 1349838 L1769346 1350865 L1769860 1351891 L1770373 1352405 L1771400 1352918 L1773454 1353432 L1776021 1353432 L1778075 1352918 L1779102 1352405 L1779615 1351891 L1780129 1350865 L1780129 1349838 L1779615 1348811 L1779102 1348297 L1778075 1347784 L1776021 1347270 L1773454 1347270 L1771400 1347784 L1770373 1348297 L1769860 1348811 L1769346 1349838 "/>
</g><g transform="rotate(-90.000000 1760200.007138 1337089.403351)">
<text x="1760200.007138" y="1342480.548283" transform="scale(-1 1) translate(-3520400.014275 0)" textLength="38529.286091" font-size="14376.379303" lengthAdjust="spacingAndGlyphs" text-anchor="middle" opacity="0.01" style="font-family:monospace">510R</text>
</g>
<g class="stroked-text"><desc>510R</desc>
<path d="M1754295 1323996 L1754295 1318862 L1759429 1318348 L1758916 1318862 L1758402 1319889 L1758402 1322456 L1758916 1323483 L1759429 1323996 L1760456 1324510 L1763023 1324510 L1764050 1323996 L1764564 1323483 L1765077 1322456 L1765077 1319889 L1764564 1318862 L1764050 1318348 "/>
<path d="M1765077 1334778 L1765077 1328617 "/>
<path d="M1765077 1331698 L1754295 1331698 L1755835 1330671 L1756862 1329644 L1757376 1328617 "/>
<path d="M1754295 1341453 L1754295 1342480 L1754808 1343507 L1755322 1344020 L1756349 1344534 L1758402 1345047 L1760970 1345047 L1763023 1344534 L1764050 1344020 L1764564 1343507 L1765077 1342480 L1765077 1341453 L1764564 1340426 L1764050 1339913 L1763023 1339399 L1760970 1338886 L1758402 1338886 L1756349 1339399 L1755322 1339913 L1754808 1340426 L1754295 1341453 "/>
<path d="M1765077 1355830 L1759943 1352235 "/>
<path d="M1765077 1349668 L1754295 1349668 L1754295 1353776 L1754808 1354803 L1755322 1355316 L1756349 1355830 L1757889 1355830 L1758916 1355316 L1759429 1354803 L1759943 1353776 L1759943 1349668 "/>
</g></g>
<g style="fill:#000084; fill-opacity:0.01;  stroke:#000084; stroke-width:3232.230464; stroke-opacity:1;  stroke-linecap:round; stroke-linejoin:round;">
<text x="1680837.975141" y="1368788.641700" transform="scale(-1 1) translate(-3361675.950282 0)" textLength="50369.743565" font-size="36488.283390" lengthAdjust="spacingAndGlyphs" text-anchor="middle" opacity="0.01" style="font-family:monospace">D7</text>
<g class="stroked-text"><desc>D7</desc>
<path d="M1701036 1367485 L1701036 1340119 L1694521 1340119 L1690611 1341422 L1688005 1344028 L1686702 1346635 L1685398 1351847 L1685398 1355757 L1686702 1360969 L1688005 1363576 L1690611 1366182 L1694521 1367485 L1701036 1367485 "/>
<path d="M1676276 1340119 L1658032 1340119 L1669761 1367485 "/>
</g><text x="1720792.653319" y="1367693.992983" transform="scale(-1 1) translate(-3441585.306637 0)" textLength="23164.318326" font-size="36488.283390" lengthAdjust="spacingAndGlyphs" text-anchor="middle" opacity="0.01" style="font-family:monospace">K</text>
<g class="stroked-text"><desc>K</desc>
<path d="M1727959 1366390 L1727959 1339024 "/>
<path d="M1712322 1366390 L1724050 1350752 "/>
<path d="M1712322 1339024 L1727959 1354662 "/>
</g><text x="1680837.975141" y="679159.949869" transform="scale(-1 1) translate(-3361675.950282 0)" textLength="49227.387126" font-size="36488.283390" lengthAdjust="spacingAndGlyphs" text-anchor="middle" opacity="0.01" style="font-family:monospace">D4</text>
<g class="stroked-text"><desc>D4</desc>
<path d="M1701036 677856 L1701036 650490 L1694521 650490 L1690611 651793 L1688005 654400 L1686702 657006 L1685398 662218 L1685398 666128 L1686702 671341 L1688005 673947 L1690611 676553 L1694521 677856 L1701036 677856 "/>
<path d="M1661942 659612 L1661942 677856 "/>
<path d="M1668458 649187 L1674973 668734 L1658032 668734 "/>
</g><text x="1720792.653319" y="678065.301152" transform="scale(-1 1) translate(-3441585.306637 0)" textLength="23164.318326" font-size="36488.283390" lengthAdjust="spacingAndGlyphs" text-anchor="middle" opacity="0.01" style="font-family:monospace">K</text>
<g class="stroked-text"><desc>K</desc>
<path d="M1727959 676762 L1727959 649395 "/>
<path d="M1712322 676762 L1724050 661124 "/>
<path d="M1712322 649395 L1727959 665033 "/>
</g><text x="1680837.975141" y="1138912.411090" transform="scale(-1 1) translate(-3361675.950282 0)" textLength="49227.387126" font-size="36488.283390" lengthAdjust="spacingAndGlyphs" text-anchor="middle" opacity="0.01" style="font-family:monospace">D6</text>
<g class="stroked-text"><desc>D6</desc>
<path d="M1701036 1137609 L1701036 1110243 L1694521 1110243 L1690611 1111546 L1688005 1114152 L1686702 1116758 L1685398 1121971 L1685398 1125880 L1686702 1131093 L1688005 1133699 L1690611 1136306 L1694521 1137609 L1701036 1137609 "/>
<path d="M1661942 1110243 L1667154 1110243 L1669761 1111546 L1671064 1112849 L1673670 1116758 L1674973 1121971 L1674973 1132396 L1673670 1135002 L1672367 1136306 L1669761 1137609 L1664548 1137609 L1661942 1136306 L1660639 1135002 L1659335 1132396 L1659335 1125880 L1660639 1123274 L1661942 1121971 L1664548 1120668 L1669761 1120668 L1672367 1121971 L1673670 1123274 L1674973 1125880 "/>
</g><text x="1724623.923829" y="1140280.721986" transform="scale(-1 1) translate(-3449247.847658 0)" textLength="23164.318326" font-size="36488.283390" lengthAdjust="spacingAndGlyphs" text-anchor="middle" opacity="0.01" style="font-family:monospace">K</text>
<g class="stroked-text"><desc>K</desc>
<path d="M1731791 1138977 L1731791 1111611 "/>
<path d="M1716153 1138977 L1727881 1123339 "/>
<path d="M1716153 1111611 L1731791 1127249 "/>
</g></g>
<g style="fill:#000084; fill-opacity:0.0;  stroke:#000084; stroke-width:2353.494742; stroke-opacity:1;  stroke-linecap:round; stroke-linejoin:round;">
<g transform="rotate(-90.000000 1948924.556888 1520886.633241)">
<text x="1948924.556888" y="1526277.778173" transform="scale(-1 1) translate(-3897849.113777 0)" textLength="27118.090371" font-size="14376.379303" lengthAdjust="spacingAndGlyphs" text-anchor="middle" opacity="0.01" style="font-family:monospace">R22</text>
</g>
<g class="stroked-text"><desc>R22</desc>
<path d="M1953802 1513955 L1948667 1510361 "/>
<path d="M1953802 1507793 L1943019 1507793 L1943019 1511901 L1943533 1512928 L1944046 1513441 L1945073 1513955 L1946614 1513955 L1947640 1513441 L1948154 1512928 L1948667 1511901 L1948667 1507793 "/>
<path d="M1944046 1518062 L1943533 1518576 L1943019 1519603 L1943019 1522170 L1943533 1523197 L1944046 1523710 L1945073 1524223 L1946100 1524223 L1947640 1523710 L1953802 1517549 L1953802 1524223 "/>
<path d="M1944046 1528331 L1943533 1528844 L1943019 1529871 L1943019 1532439 L1943533 1533465 L1944046 1533979 L1945073 1534492 L1946100 1534492 L1947640 1533979 L1953802 1527818 L1953802 1534492 "/>
</g><g transform="rotate(-90.000000 1963975.976750 1523623.255034)">
<text x="1963975.976750" y="1529014.399966" transform="scale(-1 1) translate(-3927951.953500 0)" textLength="15937.826744" font-size="14376.379303" lengthAdjust="spacingAndGlyphs" text-anchor="middle" opacity="0.01" style="font-family:monospace">1k</text>
</g>
<g class="stroked-text"><desc>1k</desc>
<path d="M1968853 1522339 L1968853 1516178 "/>
<path d="M1968853 1519258 L1958071 1519258 L1959611 1518232 L1960638 1517205 L1961152 1516178 "/>
<path d="M1968853 1526960 L1958071 1526960 "/>
<path d="M1964746 1527987 L1968853 1531068 "/>
<path d="M1961665 1531068 L1965773 1526960 "/>
</g></g>
<g style="fill:#000084; fill-opacity:0.0;  stroke:#000084; stroke-width:3232.230464; stroke-opacity:1;  stroke-linecap:round; stroke-linejoin:round;">
<g transform="rotate(-90.000000 2073941.413227 610983.590099)">
<text x="2073941.413227" y="621757.691646" transform="scale(-1 1) translate(-4147882.826454 0)" textLength="96472.641242" font-size="28730.930276" lengthAdjust="spacingAndGlyphs" text-anchor="middle" opacity="0.01" style="font-family:monospace">100nF</text>
</g>
<g class="stroked-text"><desc>100nF</desc>
<path d="M2083689 577635 L2083689 565321 "/>
<path d="M2083689 571478 L2062141 571478 L2065219 569426 L2067271 567374 L2068297 565321 "/>
<path d="M2062141 590974 L2062141 593026 L2063167 595078 L2064193 596105 L2066245 597131 L2070350 598157 L2075480 598157 L2079584 597131 L2081637 596105 L2082663 595078 L2083689 593026 L2083689 590974 L2082663 588922 L2081637 587896 L2079584 586870 L2075480 585844 L2070350 585844 L2066245 586870 L2064193 587896 L2063167 588922 L2062141 590974 "/>
<path d="M2062141 611496 L2062141 613548 L2063167 615601 L2064193 616627 L2066245 617653 L2070350 618679 L2075480 618679 L2079584 617653 L2081637 616627 L2082663 615601 L2083689 613548 L2083689 611496 L2082663 609444 L2081637 608418 L2079584 607392 L2075480 606366 L2070350 606366 L2066245 607392 L2064193 608418 L2063167 609444 L2062141 611496 "/>
<path d="M2069323 627914 L2083689 627914 "/>
<path d="M2071376 627914 L2070350 628940 L2069323 630992 L2069323 634070 L2070350 636123 L2072402 637149 L2083689 637149 "/>
<path d="M2072402 654593 L2072402 647410 "/>
<path d="M2083689 647410 L2062141 647410 L2062141 657671 "/>
</g></g>
<g style="fill:#000084; fill-opacity:0.0;  stroke:#000084; stroke-width:1723.856248; stroke-opacity:1;  stroke-linecap:round; stroke-linejoin:round;">
<g transform="rotate(-90.000000 2107750.974846 702367.364602)">
<text x="2107750.974846" y="707754.415376" transform="scale(-1 1) translate(-4215501.949692 0)" textLength="16833.240775" font-size="14365.454364" lengthAdjust="spacingAndGlyphs" text-anchor="middle" opacity="0.01" style="font-family:monospace">C2</text>
</g>
<g class="stroked-text"><desc>C2</desc>
<path d="M2111598 700571 L2112111 700058 L2112624 698519 L2112624 697493 L2112111 695954 L2111085 694928 L2110059 694415 L2108007 693901 L2106468 693901 L2104416 694415 L2103390 694928 L2102363 695954 L2101850 697493 L2101850 698519 L2102363 700058 L2102876 700571 "/>
<path d="M2102876 704676 L2102363 705189 L2101850 706215 L2101850 708780 L2102363 709806 L2102876 710319 L2103903 710832 L2104929 710832 L2106468 710319 L2112624 704163 L2112624 710832 "/>
</g></g>
<g style="fill:#000084; fill-opacity:0.01;  stroke:#000084; stroke-width:3232.230464; stroke-opacity:1;  stroke-linecap:round; stroke-linejoin:round;">
<text x="1680837.975141" y="219407.488649" transform="scale(-1 1) translate(-3361675.950282 0)" textLength="51188.273607" font-size="36488.283390" lengthAdjust="spacingAndGlyphs" text-anchor="middle" opacity="0.01" style="font-family:monospace">D2</text>
<g class="stroked-text"><desc>D2</desc>
<path d="M1701036 218104 L1701036 190738 L1694521 190738 L1690611 192041 L1688005 194647 L1686702 197253 L1685398 202466 L1685398 206375 L1686702 211588 L1688005 214194 L1690611 216801 L1694521 218104 L1701036 218104 "/>
<path d="M1674973 193344 L1673670 192041 L1671064 190738 L1664548 190738 L1661942 192041 L1660639 193344 L1659335 195950 L1659335 198557 L1660639 202466 L1676276 218104 L1659335 218104 "/>
</g><text x="1720792.653319" y="218312.839932" transform="scale(-1 1) translate(-3441585.306637 0)" textLength="23164.318326" font-size="36488.283390" lengthAdjust="spacingAndGlyphs" text-anchor="middle" opacity="0.01" style="font-family:monospace">K</text>
<g class="stroked-text"><desc>K</desc>
<path d="M1727959 217009 L1727959 189643 "/>
<path d="M1712322 217009 L1724050 201371 "/>
<path d="M1712322 189643 L1727959 205281 "/>
</g><g transform="rotate(-90.000000 2150244.031348 599797.917873)">
<text x="2150244.031348" y="610572.019420" transform="scale(-1 1) translate(-4300488.062696 0)" textLength="215384.546872" font-size="28730.930276" lengthAdjust="spacingAndGlyphs" text-anchor="middle" opacity="0.01" style="font-family:monospace">BZV55C-5,6V</text>
</g>
<g class="stroked-text"><desc>BZV55C-5,6V</desc>
<path d="M2148704 502317 L2149730 505396 L2150757 506422 L2152809 507448 L2155887 507448 L2157939 506422 L2158965 505396 L2159992 503344 L2159992 495135 L2138443 495135 L2138443 502317 L2139469 504370 L2140496 505396 L2142548 506422 L2144600 506422 L2146652 505396 L2147678 504370 L2148704 502317 L2148704 495135 "/>
<path d="M2138443 514631 L2138443 528996 L2159992 514631 L2159992 528996 "/>
<path d="M2138443 534127 L2159992 541309 L2138443 548492 "/>
<path d="M2138443 565936 L2138443 555675 L2148704 554649 L2147678 555675 L2146652 557727 L2146652 562858 L2147678 564910 L2148704 565936 L2150757 566962 L2155887 566962 L2157939 565936 L2158965 564910 L2159992 562858 L2159992 557727 L2158965 555675 L2157939 554649 "/>
<path d="M2138443 586458 L2138443 576197 L2148704 575171 L2147678 576197 L2146652 578249 L2146652 583380 L2147678 585432 L2148704 586458 L2150757 587484 L2155887 587484 L2157939 586458 L2158965 585432 L2159992 583380 L2159992 578249 L2158965 576197 L2157939 575171 "/>
<path d="M2157939 609032 L2158965 608006 L2159992 604928 L2159992 602876 L2158965 599797 L2156913 597745 L2154861 596719 L2150757 595693 L2147678 595693 L2143574 596719 L2141522 597745 L2139469 599797 L2138443 602876 L2138443 604928 L2139469 608006 L2140496 609032 "/>
<path d="M2151783 618267 L2151783 634685 "/>
<path d="M2138443 655207 L2138443 644946 L2148704 643920 L2147678 644946 L2146652 646998 L2146652 652129 L2147678 654181 L2148704 655207 L2150757 656233 L2155887 656233 L2157939 655207 L2158965 654181 L2159992 652129 L2159992 646998 L2158965 644946 L2157939 643920 "/>
<path d="M2158965 666494 L2159992 666494 L2162044 665468 L2163070 664442 "/>
<path d="M2138443 684964 L2138443 680860 L2139469 678807 L2140496 677781 L2143574 675729 L2147678 674703 L2155887 674703 L2157939 675729 L2158965 676755 L2159992 678807 L2159992 682912 L2158965 684964 L2157939 685990 L2155887 687016 L2150757 687016 L2148704 685990 L2147678 684964 L2146652 682912 L2146652 678807 L2147678 676755 L2148704 675729 L2150757 674703 "/>
<path d="M2138443 693173 L2159992 700356 L2138443 707538 "/>
</g><g transform="rotate(-90.000000 2260139.867129 599797.917873)">
<text x="2260139.867129" y="610572.019420" transform="scale(-1 1) translate(-4520279.734258 0)" textLength="37868.402702" font-size="28730.930276" lengthAdjust="spacingAndGlyphs" text-anchor="middle" opacity="0.01" style="font-family:monospace">D1</text>
</g>
<g class="stroked-text"><desc>D1</desc>
<path d="M2269887 583893 L2248339 583893 L2248339 589023 L2249365 592102 L2251417 594154 L2253470 595180 L2257574 596206 L2260652 596206 L2264757 595180 L2266809 594154 L2268861 592102 L2269887 589023 L2269887 583893 "/>
<path d="M2269887 616728 L2269887 604415 "/>
<path d="M2269887 610572 L2248339 610572 L2251417 608519 L2253470 606467 L2254496 604415 "/>
</g><text x="1719150.680243" y="508275.502232" transform="scale(-1 1) translate(-3438301.360486 0)" textLength="152792.145356" font-size="28730.930276" lengthAdjust="spacingAndGlyphs" text-anchor="middle" opacity="0.01" style="font-family:monospace">LTV-357T</text>
<g class="stroked-text"><desc>LTV-357T</desc>
<path d="M1782256 507249 L1792517 507249 L1792517 485701 "/>
<path d="M1778151 485701 L1765838 485701 "/>
<path d="M1771995 507249 L1771995 485701 "/>
<path d="M1761734 485701 L1754551 507249 L1747368 485701 "/>
<path d="M1740185 499040 L1723768 499040 "/>
<path d="M1715559 485701 L1702219 485701 L1709402 493910 L1706324 493910 L1704272 494936 L1703246 495962 L1702219 498014 L1702219 503144 L1703246 505197 L1704272 506223 L1706324 507249 L1712480 507249 L1714533 506223 L1715559 505197 "/>
<path d="M1682723 485701 L1692984 485701 L1694011 495962 L1692984 494936 L1690932 493910 L1685802 493910 L1683750 494936 L1682723 495962 L1681697 498014 L1681697 503144 L1682723 505197 L1683750 506223 L1685802 507249 L1690932 507249 L1692984 506223 L1694011 505197 "/>
<path d="M1674515 485701 L1660149 485701 L1669384 507249 "/>
<path d="M1655019 485701 L1642705 485701 "/>
<path d="M1648862 507249 L1648862 485701 "/>
</g><text x="1719150.680243" y="570011.104097" transform="scale(-1 1) translate(-3438301.360486 0)" textLength="38894.506585" font-size="28730.930276" lengthAdjust="spacingAndGlyphs" text-anchor="middle" opacity="0.01" style="font-family:monospace">U3</text>
<g class="stroked-text"><desc>U3</desc>
<path d="M1735568 547436 L1735568 564880 L1734542 566932 L1733516 567958 L1731463 568984 L1727359 568984 L1725307 567958 L1724281 566932 L1723255 564880 L1723255 547436 "/>
<path d="M1715046 547436 L1701706 547436 L1708889 555645 L1705811 555645 L1703759 556671 L1702732 557697 L1701706 559750 L1701706 564880 L1702732 566932 L1703759 567958 L1705811 568984 L1711967 568984 L1714020 567958 L1715046 566932 "/>
</g><text x="1719150.680243" y="1262376.396172" transform="scale(-1 1) translate(-3438301.360486 0)" textLength="38894.506585" font-size="28730.930276" lengthAdjust="spacingAndGlyphs" text-anchor="middle" opacity="0.01" style="font-family:monospace">U6</text>
<g class="stroked-text"><desc>U6</desc>
<path d="M1735568 1239802 L1735568 1257245 L1734542 1259298 L1733516 1260324 L1731463 1261350 L1727359 1261350 L1725307 1260324 L1724281 1259298 L1723255 1257245 L1723255 1239802 "/>
<path d="M1703759 1239802 L1707863 1239802 L1709915 1240828 L1710941 1241854 L1712994 1244932 L1714020 1249037 L1714020 1257245 L1712994 1259298 L1711967 1260324 L1709915 1261350 L1705811 1261350 L1703759 1260324 L1702732 1259298 L1701706 1257245 L1701706 1252115 L1702732 1250063 L1703759 1249037 L1705811 1248010 L1709915 1248010 L1711967 1249037 L1712994 1250063 L1714020 1252115 "/>
</g><text x="1713677.436657" y="38618.064688" transform="scale(-1 1) translate(-3427354.873314 0)" textLength="152792.145356" font-size="28730.930276" lengthAdjust="spacingAndGlyphs" text-anchor="middle" opacity="0.01" style="font-family:monospace">LTV-357T</text>
<g class="stroked-text"><desc>LTV-357T</desc>
<path d="M1776782 37591 L1787043 37591 L1787043 16043 "/>
<path d="M1772678 16043 L1760365 16043 "/>
<path d="M1766521 37591 L1766521 16043 "/>
<path d="M1756260 16043 L1749078 37591 L1741895 16043 "/>
<path d="M1734712 29383 L1718294 29383 "/>
<path d="M1710086 16043 L1696746 16043 L1703929 24252 L1700851 24252 L1698798 25278 L1697772 26304 L1696746 28357 L1696746 33487 L1697772 35539 L1698798 36565 L1700851 37591 L1707007 37591 L1709059 36565 L1710086 35539 "/>
<path d="M1677250 16043 L1687511 16043 L1688537 26304 L1687511 25278 L1685459 24252 L1680329 24252 L1678276 25278 L1677250 26304 L1676224 28357 L1676224 33487 L1677250 35539 L1678276 36565 L1680329 37591 L1685459 37591 L1687511 36565 L1688537 35539 "/>
<path d="M1669041 16043 L1654676 16043 L1663911 37591 "/>
<path d="M1649545 16043 L1637232 16043 "/>
<path d="M1643389 37591 L1643389 16043 "/>
</g><text x="1719150.680243" y="108434.242713" transform="scale(-1 1) translate(-3438301.360486 0)" textLength="38894.506585" font-size="28730.930276" lengthAdjust="spacingAndGlyphs" text-anchor="middle" opacity="0.01" style="font-family:monospace">U1</text>
<g class="stroked-text"><desc>U1</desc>
<path d="M1735568 85859 L1735568 103303 L1734542 105355 L1733516 106382 L1731463 107408 L1727359 107408 L1725307 106382 L1724281 105355 L1723255 103303 L1723255 85859 "/>
<path d="M1701706 107408 L1714020 107408 "/>
<path d="M1707863 107408 L1707863 85859 L1709915 88938 L1711967 90990 L1714020 92016 "/>
</g></g>
<g style="fill:#000084; fill-opacity:0.0;  stroke:#000084; stroke-width:2353.494742; stroke-opacity:1;  stroke-linecap:round; stroke-linejoin:round;">
<g transform="rotate(-90.000000 1775251.426999 649513.199413)">
<text x="1775251.426999" y="654904.344346" transform="scale(-1 1) translate(-3550502.853998 0)" textLength="27118.090371" font-size="14376.379303" lengthAdjust="spacingAndGlyphs" text-anchor="middle" opacity="0.01" style="font-family:monospace">R14</text>
</g>
<g class="stroked-text"><desc>R14</desc>
<path d="M1780129 642581 L1774994 638987 "/>
<path d="M1780129 636420 L1769346 636420 L1769346 640527 L1769860 641554 L1770373 642068 L1771400 642581 L1772940 642581 L1773967 642068 L1774481 641554 L1774994 640527 L1774994 636420 "/>
<path d="M1780129 652850 L1780129 646689 "/>
<path d="M1780129 649769 L1769346 649769 L1770887 648743 L1771914 647716 L1772427 646689 "/>
<path d="M1772940 662092 L1780129 662092 "/>
<path d="M1768833 659525 L1776535 656958 L1776535 663632 "/>
</g><g transform="rotate(-90.000000 1760200.007138 646776.577620)">
<text x="1760200.007138" y="652167.722553" transform="scale(-1 1) translate(-3520400.014275 0)" textLength="38529.286091" font-size="14376.379303" lengthAdjust="spacingAndGlyphs" text-anchor="middle" opacity="0.01" style="font-family:monospace">510R</text>
</g>
<g class="stroked-text"><desc>510R</desc>
<path d="M1754295 633683 L1754295 628549 L1759429 628035 L1758916 628549 L1758402 629576 L1758402 632143 L1758916 633170 L1759429 633683 L1760456 634197 L1763023 634197 L1764050 633683 L1764564 633170 L1765077 632143 L1765077 629576 L1764564 628549 L1764050 628035 "/>
<path d="M1765077 644466 L1765077 638304 "/>
<path d="M1765077 641385 L1754295 641385 L1755835 640358 L1756862 639331 L1757376 638304 "/>
<path d="M1754295 651140 L1754295 652167 L1754808 653194 L1755322 653708 L1756349 654221 L1758402 654734 L1760970 654734 L1763023 654221 L1764050 653708 L1764564 653194 L1765077 652167 L1765077 651140 L1764564 650113 L1764050 649600 L1763023 649087 L1760970 648573 L1758402 648573 L1756349 649087 L1755322 649600 L1754808 650113 L1754295 651140 "/>
<path d="M1765077 665517 L1759943 661923 "/>
<path d="M1765077 659355 L1754295 659355 L1754295 663463 L1754808 664490 L1755322 665003 L1756349 665517 L1757889 665517 L1758916 665003 L1759429 664490 L1759943 663463 L1759943 659355 "/>
</g><g transform="rotate(-90.000000 1775251.426999 189304.648926)">
<text x="1775251.426999" y="194695.793858" transform="scale(-1 1) translate(-3550502.853998 0)" textLength="28260.446810" font-size="14376.379303" lengthAdjust="spacingAndGlyphs" text-anchor="middle" opacity="0.01" style="font-family:monospace">R10</text>
</g>
<g class="stroked-text"><desc>R10</desc>
<path d="M1780129 182373 L1774994 178779 "/>
<path d="M1780129 176211 L1769346 176211 L1769346 180319 L1769860 181346 L1770373 181859 L1771400 182373 L1772940 182373 L1773967 181859 L1774481 181346 L1774994 180319 L1774994 176211 "/>
<path d="M1780129 192642 L1780129 186480 "/>
<path d="M1780129 189561 L1769346 189561 L1770887 188534 L1771914 187507 L1772427 186480 "/>
<path d="M1769346 199316 L1769346 200343 L1769860 201370 L1770373 201883 L1771400 202397 L1773454 202910 L1776021 202910 L1778075 202397 L1779102 201883 L1779615 201370 L1780129 200343 L1780129 199316 L1779615 198289 L1779102 197776 L1778075 197263 L1776021 196749 L1773454 196749 L1771400 197263 L1770373 197776 L1769860 198289 L1769346 199316 "/>
</g><g transform="rotate(-90.000000 1760200.007138 186568.027133)">
<text x="1760200.007138" y="191959.172066" transform="scale(-1 1) translate(-3520400.014275 0)" textLength="38529.286091" font-size="14376.379303" lengthAdjust="spacingAndGlyphs" text-anchor="middle" opacity="0.01" style="font-family:monospace">510R</text>
</g>
<g class="stroked-text"><desc>510R</desc>
<path d="M1754295 173475 L1754295 168340 L1759429 167827 L1758916 168340 L1758402 169367 L1758402 171934 L1758916 172961 L1759429 173475 L1760456 173988 L1763023 173988 L1764050 173475 L1764564 172961 L1765077 171934 L1765077 169367 L1764564 168340 L1764050 167827 "/>
<path d="M1765077 184257 L1765077 178096 "/>
<path d="M1765077 181176 L1754295 181176 L1755835 180149 L1756862 179123 L1757376 178096 "/>
<path d="M1754295 190932 L1754295 191959 L1754808 192986 L1755322 193499 L1756349 194012 L1758402 194526 L1760970 194526 L1763023 194012 L1764050 193499 L1764564 192986 L1765077 191959 L1765077 190932 L1764564 189905 L1764050 189391 L1763023 188878 L1760970 188365 L1758402 188365 L1756349 188878 L1755322 189391 L1754808 189905 L1754295 190932 "/>
<path d="M1765077 205308 L1759943 201714 "/>
<path d="M1765077 199147 L1754295 199147 L1754295 203254 L1754808 204281 L1755322 204795 L1756349 205308 L1757889 205308 L1758916 204795 L1759429 204281 L1759943 203254 L1759943 199147 "/>
</g></g>
<g style="fill:#000084; fill-opacity:0.01;  stroke:#000084; stroke-width:3232.230464; stroke-opacity:1;  stroke-linecap:round; stroke-linejoin:round;">
<text x="1719150.680243" y="1493164.869960" transform="scale(-1 1) translate(-3438301.360486 0)" textLength="40036.863024" font-size="28730.930276" lengthAdjust="spacingAndGlyphs" text-anchor="middle" opacity="0.01" style="font-family:monospace">U7</text>
<g class="stroked-text"><desc>U7</desc>
<path d="M1735568 1470590 L1735568 1488034 L1734542 1490086 L1733516 1491112 L1731463 1492138 L1727359 1492138 L1725307 1491112 L1724281 1490086 L1723255 1488034 L1723255 1470590 "/>
<path d="M1715046 1470590 L1700680 1470590 L1709915 1492138 "/>
</g></g>
<g style="fill:#000084; fill-opacity:0.01;  stroke:#000084; stroke-width:2353.494742; stroke-opacity:1;  stroke-linecap:round; stroke-linejoin:round;">
<g transform="rotate(-90.000000 1775251.426999 1109721.749900)">
<text x="1775251.426999" y="1115112.894833" transform="scale(-1 1) translate(-3550502.853998 0)" textLength="27118.090371" font-size="14376.379303" lengthAdjust="spacingAndGlyphs" text-anchor="middle" opacity="0.01" style="font-family:monospace">R19</text>
</g>
<g class="stroked-text"><desc>R19</desc>
<path d="M1780129 1102790 L1774994 1099196 "/>
<path d="M1780129 1096628 L1769346 1096628 L1769346 1100736 L1769860 1101763 L1770373 1102276 L1771400 1102790 L1772940 1102790 L1773967 1102276 L1774481 1101763 L1774994 1100736 L1774994 1096628 "/>
<path d="M1780129 1113059 L1780129 1106897 "/>
<path d="M1780129 1109978 L1769346 1109978 L1770887 1108951 L1771914 1107924 L1772427 1106897 "/>
<path d="M1780129 1118193 L1780129 1120247 L1779615 1121274 L1779102 1121787 L1777561 1122814 L1775508 1123327 L1771400 1123327 L1770373 1122814 L1769860 1122301 L1769346 1121274 L1769346 1119220 L1769860 1118193 L1770373 1117680 L1771400 1117166 L1773967 1117166 L1774994 1117680 L1775508 1118193 L1776021 1119220 L1776021 1121274 L1775508 1122301 L1774994 1122814 L1773967 1123327 "/>
</g><g transform="rotate(-90.000000 1760200.007138 1106985.128107)">
<text x="1760200.007138" y="1112376.273040" transform="scale(-1 1) translate(-3520400.014275 0)" textLength="38529.286091" font-size="14376.379303" lengthAdjust="spacingAndGlyphs" text-anchor="middle" opacity="0.01" style="font-family:monospace">510R</text>
</g>
<g class="stroked-text"><desc>510R</desc>
<path d="M1754295 1093892 L1754295 1088757 L1759429 1088244 L1758916 1088757 L1758402 1089784 L1758402 1092352 L1758916 1093378 L1759429 1093892 L1760456 1094405 L1763023 1094405 L1764050 1093892 L1764564 1093378 L1765077 1092352 L1765077 1089784 L1764564 1088757 L1764050 1088244 "/>
<path d="M1765077 1104674 L1765077 1098513 "/>
<path d="M1765077 1101593 L1754295 1101593 L1755835 1100567 L1756862 1099540 L1757376 1098513 "/>
<path d="M1754295 1111349 L1754295 1112376 L1754808 1113403 L1755322 1113916 L1756349 1114430 L1758402 1114943 L1760970 1114943 L1763023 1114430 L1764050 1113916 L1764564 1113403 L1765077 1112376 L1765077 1111349 L1764564 1110322 L1764050 1109809 L1763023 1109295 L1760970 1108782 L1758402 1108782 L1756349 1109295 L1755322 1109809 L1754808 1110322 L1754295 1111349 "/>
<path d="M1765077 1125725 L1759943 1122131 "/>
<path d="M1765077 1119564 L1754295 1119564 L1754295 1123671 L1754808 1124698 L1755322 1125212 L1756349 1125725 L1757889 1125725 L1758916 1125212 L1759429 1124698 L1759943 1123671 L1759943 1119564 "/>
</g><text x="2107750.974846" y="598347.508323" transform="scale(-1 1) translate(-4215501.949692 0)" textLength="28260.446810" font-size="14376.379303" lengthAdjust="spacingAndGlyphs" text-anchor="middle" opacity="0.01" style="font-family:monospace">R18</text>
<g class="stroked-text"><desc>R18</desc>
<path d="M2114682 597834 L2118276 592699 "/>
<path d="M2120843 597834 L2120843 587051 L2116736 587051 L2115709 587565 L2115195 588078 L2114682 589105 L2114682 590645 L2115195 591672 L2115709 592186 L2116736 592699 L2120843 592699 "/>
<path d="M2104413 597834 L2110574 597834 "/>
<path d="M2107494 597834 L2107494 587051 L2108521 588592 L2109548 589618 L2110574 590132 "/>
<path d="M2098252 591672 L2099279 591159 L2099792 590645 L2100306 589618 L2100306 589105 L2099792 588078 L2099279 587565 L2098252 587051 L2096198 587051 L2095171 587565 L2094658 588078 L2094144 589105 L2094144 589618 L2094658 590645 L2095171 591159 L2096198 591672 L2098252 591672 L2099279 592186 L2099792 592699 L2100306 593726 L2100306 595780 L2099792 596807 L2099279 597320 L2098252 597834 L2096198 597834 L2095171 597320 L2094658 596807 L2094144 595780 L2094144 593726 L2094658 592699 L2095171 592186 L2096198 591672 "/>
</g><text x="2105014.353053" y="613398.928184" transform="scale(-1 1) translate(-4210028.706106 0)" textLength="15937.826744" font-size="14376.379303" lengthAdjust="spacingAndGlyphs" text-anchor="middle" opacity="0.01" style="font-family:monospace">1k</text>
<g class="stroked-text"><desc>1k</desc>
<path d="M2106297 612885 L2112459 612885 "/>
<path d="M2109378 612885 L2109378 602103 L2110405 603643 L2111432 604670 L2112459 605183 "/>
<path d="M2101676 612885 L2101676 602103 "/>
<path d="M2100650 608777 L2097569 612885 "/>
<path d="M2097569 605697 L2101676 609804 "/>
</g><text x="2107750.974846" y="324685.329025" transform="scale(-1 1) translate(-4215501.949692 0)" textLength="17991.585981" font-size="14376.379303" lengthAdjust="spacingAndGlyphs" text-anchor="middle" opacity="0.01" style="font-family:monospace">R9</text>
<g class="stroked-text"><desc>R9</desc>
<path d="M2109548 324171 L2113142 319037 "/>
<path d="M2115709 324171 L2115709 313389 L2111601 313389 L2110574 313903 L2110061 314416 L2109548 315443 L2109548 316983 L2110061 318010 L2110574 318524 L2111601 319037 L2115709 319037 "/>
<path d="M2104413 324171 L2102359 324171 L2101332 323658 L2100819 323144 L2099792 321604 L2099279 319550 L2099279 315443 L2099792 314416 L2100306 313903 L2101332 313389 L2103386 313389 L2104413 313903 L2104927 314416 L2105440 315443 L2105440 318010 L2104927 319037 L2104413 319550 L2103386 320064 L2101332 320064 L2100306 319550 L2099792 319037 L2099279 318010 "/>
</g><text x="2105014.353053" y="339736.748886" transform="scale(-1 1) translate(-4210028.706106 0)" textLength="15937.826744" font-size="14376.379303" lengthAdjust="spacingAndGlyphs" text-anchor="middle" opacity="0.01" style="font-family:monospace">1k</text>
<g class="stroked-text"><desc>1k</desc>
<path d="M2106297 339223 L2112459 339223 "/>
<path d="M2109378 339223 L2109378 328441 L2110405 329981 L2111432 331008 L2112459 331521 "/>
<path d="M2101676 339223 L2101676 328441 "/>
<path d="M2100650 335115 L2097569 339223 "/>
<path d="M2097569 332035 L2101676 336142 "/>
</g><g transform="rotate(-90.000000 1775251.426999 1569930.343484)">
<text x="1775251.426999" y="1575321.488416" transform="scale(-1 1) translate(-3550502.853998 0)" textLength="28260.446810" font-size="14376.379303" lengthAdjust="spacingAndGlyphs" text-anchor="middle" opacity="0.01" style="font-family:monospace">R21</text>
</g>
<g class="stroked-text"><desc>R21</desc>
<path d="M1780129 1562998 L1774994 1559404 "/>
<path d="M1780129 1556837 L1769346 1556837 L1769346 1560945 L1769860 1561971 L1770373 1562485 L1771400 1562998 L1772940 1562998 L1773967 1562485 L1774481 1561971 L1774994 1560945 L1774994 1556837 "/>
<path d="M1770373 1567106 L1769860 1567619 L1769346 1568646 L1769346 1571213 L1769860 1572240 L1770373 1572754 L1771400 1573267 L1772427 1573267 L1773967 1572754 L1780129 1566592 L1780129 1573267 "/>
<path d="M1780129 1583536 L1780129 1577375 "/>
<path d="M1780129 1580455 L1769346 1580455 L1770887 1579429 L1771914 1578402 L1772427 1577375 "/>
</g><g transform="rotate(-90.000000 1760200.007138 1567193.721691)">
<text x="1760200.007138" y="1572584.866623" transform="scale(-1 1) translate(-3520400.014275 0)" textLength="38529.286091" font-size="14376.379303" lengthAdjust="spacingAndGlyphs" text-anchor="middle" opacity="0.01" style="font-family:monospace">510R</text>
</g>
<g class="stroked-text"><desc>510R</desc>
<path d="M1754295 1554100 L1754295 1548966 L1759429 1548453 L1758916 1548966 L1758402 1549993 L1758402 1552560 L1758916 1553587 L1759429 1554100 L1760456 1554614 L1763023 1554614 L1764050 1554100 L1764564 1553587 L1765077 1552560 L1765077 1549993 L1764564 1548966 L1764050 1548453 "/>
<path d="M1765077 1564883 L1765077 1558721 "/>
<path d="M1765077 1561802 L1754295 1561802 L1755835 1560775 L1756862 1559748 L1757376 1558721 "/>
<path d="M1754295 1571557 L1754295 1572584 L1754808 1573611 L1755322 1574125 L1756349 1574638 L1758402 1575152 L1760970 1575152 L1763023 1574638 L1764050 1574125 L1764564 1573611 L1765077 1572584 L1765077 1571557 L1764564 1570531 L1764050 1570017 L1763023 1569504 L1760970 1568990 L1758402 1568990 L1756349 1569504 L1755322 1570017 L1754808 1570531 L1754295 1571557 "/>
<path d="M1765077 1585934 L1759943 1582340 "/>
<path d="M1765077 1579773 L1754295 1579773 L1754295 1583880 L1754808 1584907 L1755322 1585420 L1756349 1585934 L1757889 1585934 L1758916 1585420 L1759429 1584907 L1759943 1583880 L1759943 1579773 "/>
</g></g>
<g style="fill:#000084; fill-opacity:0.0;  stroke:#000084; stroke-width:3232.230464; stroke-opacity:1;  stroke-linecap:round; stroke-linejoin:round;">
<path d="M1626652 864702 L1626652 926003 "/>
<path d="M1627747 926003 L1734475 926003 "/>
<path d="M1733381 864702 L1626652 864702 "/>
<path d="M1735023 926003 L1735023 864702 "/>
<path d="M2118697 561485 L2140590 561485 "/>
<path d="M2074911 561485 L2096804 561485 "/>
<path d="M2096804 528645 L2074911 528645 "/>
<path d="M2140590 561485 L2140590 528645 "/>
<path d="M2074911 528645 L2074911 561485 "/>
<path d="M2140590 528645 L2118697 528645 "/>
</g>
<g style="fill:#000084; fill-opacity:0.0;  stroke:#000084; stroke-width:2585.784371; stroke-opacity:1;  stroke-linecap:round; stroke-linejoin:round;">
<path d="M1766556 365834 L1766556 288261 "/>
<path d="M1688983 365834 L1766556 365834 "/>
<path d="M1671744 348596 L1688983 365834 "/>
<path d="M1671744 288261 L1671744 348596 "/>
<path d="M1766556 288261 L1671744 288261 "/>
</g>
<g style="fill:#000084; fill-opacity:0.0;  stroke:#000084; stroke-width:3232.230464; stroke-opacity:1;  stroke-linecap:round; stroke-linejoin:round;">
<path d="M2074911 692843 L2074911 670950 "/>
<path d="M2074911 670950 L2042072 670950 "/>
<path d="M2042072 736629 L2074911 736629 "/>
<path d="M2042072 714736 L2042072 736629 "/>
<path d="M2074911 736629 L2074911 714736 "/>
<path d="M2042072 670950 L2042072 692843 "/>
<path d="M2074911 364448 L2074911 397287 "/>
<path d="M2096804 364448 L2074911 364448 "/>
<path d="M2140590 397287 L2140590 364448 "/>
<path d="M2118697 397287 L2140590 397287 "/>
<path d="M2074911 397287 L2096804 397287 "/>
<path d="M2140590 364448 L2118697 364448 "/>
<path d="M1942952 1465746 L2004252 1465746 "/>
<path d="M2004252 1464104 L2004252 1357376 "/>
<path d="M1942952 1358471 L1942952 1465199 "/>
<path d="M2004252 1357376 L1942952 1357376 "/>
</g>
<g style="fill:#000084; fill-opacity:0.0;  stroke:#000084; stroke-width:2585.784371; stroke-opacity:1;  stroke-linecap:round; stroke-linejoin:round;">
<path d="M1766556 1058199 L1766556 980626 "/>
<path d="M1671744 980626 L1671744 1040961 "/>
<path d="M1671744 1040961 L1688983 1058199 "/>
<path d="M1688983 1058199 L1766556 1058199 "/>
<path d="M1766556 980626 L1671744 980626 "/>
</g>
<g style="fill:#000084; fill-opacity:0.0;  stroke:#000084; stroke-width:3232.230464; stroke-opacity:1;  stroke-linecap:round; stroke-linejoin:round;">
<path d="M1986416 1676053 L1986416 1569324 "/>
<path d="M1986416 1569324 L1925115 1569324 "/>
<path d="M1925115 1570419 L1925115 1677147 "/>
<path d="M1925115 1677695 L1986416 1677695 "/>
<path d="M1751990 452248 L1784829 452248 "/>
<path d="M1751990 430355 L1751990 452248 "/>
<path d="M1784829 386569 L1751990 386569 "/>
<path d="M1784829 452248 L1784829 430355 "/>
<path d="M1784829 408462 L1784829 386569 "/>
<path d="M1751990 386569 L1751990 408462 "/>
</g>
<g style="fill:#000084; fill-opacity:0.0;  stroke:#000084; stroke-width:2585.784371; stroke-opacity:1;  stroke-linecap:round; stroke-linejoin:round;">
<path d="M1671744 749838 L1671744 810173 "/>
<path d="M1688983 827411 L1766556 827411 "/>
<path d="M1766556 749838 L1671744 749838 "/>
<path d="M1671744 810173 L1688983 827411 "/>
<path d="M1766556 827411 L1766556 749838 "/>
</g>
<g style="fill:#000084; fill-opacity:0.0;  stroke:#000084; stroke-width:3232.230464; stroke-opacity:1;  stroke-linecap:round; stroke-linejoin:round;">
<path d="M2096804 254983 L2074911 254983 "/>
<path d="M2074911 287823 L2096804 287823 "/>
<path d="M2118697 287823 L2140590 287823 "/>
<path d="M2074911 254983 L2074911 287823 "/>
<path d="M2140590 254983 L2118697 254983 "/>
<path d="M2140590 287823 L2140590 254983 "/>
<path d="M2140590 506752 L2140590 473913 "/>
<path d="M2118697 506752 L2140590 506752 "/>
<path d="M2140590 473913 L2118697 473913 "/>
<path d="M2096804 473913 L2074911 473913 "/>
<path d="M2074911 473913 L2074911 506752 "/>
<path d="M2074911 506752 L2096804 506752 "/>
<path d="M1735023 466250 L1735023 404950 "/>
<path d="M1733381 404950 L1626652 404950 "/>
<path d="M1627747 466250 L1734475 466250 "/>
<path d="M1626652 404950 L1626652 466250 "/>
<path d="M1733381 1554331 L1626652 1554331 "/>
<path d="M1627747 1615631 L1734475 1615631 "/>
<path d="M1735023 1615631 L1735023 1554331 "/>
<path d="M1626652 1554331 L1626652 1615631 "/>
<path d="M2069265 1176320 L1992640 1176320 "/>
<path d="M1992640 1176320 L1992640 1050435 "/>
<path d="M2069265 1050435 L1992640 1050435 "/>
<path d="M2069265 1176320 L2069265 1050435 "/>
<path d="M1751990 890563 L1751990 912456 "/>
<path d="M1784829 912456 L1784829 890563 "/>
<path d="M1784829 868670 L1784829 846778 "/>
<path d="M1784829 846778 L1751990 846778 "/>
<path d="M1751990 846778 L1751990 868670 "/>
<path d="M1751990 912456 L1784829 912456 "/>
<path d="M2220103 1176320 L2143477 1176320 "/>
<path d="M2220103 1050435 L2143477 1050435 "/>
<path d="M2143477 1176320 L2143477 1050435 "/>
<path d="M2220103 1176320 L2220103 1050435 "/>
<path d="M2074911 419180 L2074911 452020 "/>
<path d="M2118697 452020 L2140590 452020 "/>
<path d="M2074911 452020 L2096804 452020 "/>
<path d="M2096804 419180 L2074911 419180 "/>
<path d="M2140590 419180 L2118697 419180 "/>
<path d="M2140590 452020 L2140590 419180 "/>
<path d="M1957182 1269257 L1957182 1291150 "/>
<path d="M1990022 1269257 L1957182 1269257 "/>
<path d="M1957182 1313043 L1957182 1334936 "/>
<path d="M1990022 1291150 L1990022 1269257 "/>
<path d="M1957182 1334936 L1990022 1334936 "/>
<path d="M1990022 1334936 L1990022 1313043 "/>
<path d="M1751990 1372665 L1784829 1372665 "/>
<path d="M1751990 1306986 L1751990 1328879 "/>
<path d="M1784829 1328879 L1784829 1306986 "/>
<path d="M1784829 1306986 L1751990 1306986 "/>
<path d="M1784829 1372665 L1784829 1350772 "/>
<path d="M1751990 1350772 L1751990 1372665 "/>
<path d="M1733381 1324455 L1626652 1324455 "/>
<path d="M1735023 1385755 L1735023 1324455 "/>
<path d="M1626652 1324455 L1626652 1385755 "/>
<path d="M1627747 1385755 L1734475 1385755 "/>
<path d="M1735023 696127 L1735023 634826 "/>
<path d="M1627747 696127 L1734475 696127 "/>
<path d="M1733381 634826 L1626652 634826 "/>
<path d="M1626652 634826 L1626652 696127 "/>
<path d="M1735023 1155879 L1735023 1094579 "/>
<path d="M1627747 1155879 L1734475 1155879 "/>
<path d="M1733381 1094579 L1626652 1094579 "/>
<path d="M1626652 1094579 L1626652 1155879 "/>
<path d="M1939346 1553726 L1972185 1553726 "/>
<path d="M1972185 1488047 L1939346 1488047 "/>
<path d="M1972185 1553726 L1972185 1531833 "/>
<path d="M1939346 1488047 L1939346 1509940 "/>
<path d="M1939346 1531833 L1939346 1553726 "/>
<path d="M1972185 1509940 L1972185 1488047 "/>
</g>
<g style="fill:#000084; fill-opacity:0.0;  stroke:#000084; stroke-width:2154.820309; stroke-opacity:1;  stroke-linecap:round; stroke-linejoin:round;">
<path d="M2094283 723915 L2121218 723915 "/>
<path d="M2121218 680819 L2094283 680819 "/>
<path d="M2094283 680819 L2094283 723915 "/>
<path d="M2121218 723915 L2121218 680819 "/>
</g>
<g style="fill:#000084; fill-opacity:0.0;  stroke:#000084; stroke-width:3232.230464; stroke-opacity:1;  stroke-linecap:round; stroke-linejoin:round;">
<path d="M1626652 175074 L1626652 236374 "/>
<path d="M1627747 236374 L1734475 236374 "/>
<path d="M1733381 175074 L1626652 175074 "/>
<path d="M1735023 236374 L1735023 175074 "/>
</g>
<g style="fill:#000084; fill-opacity:0.0;  stroke:#000084; stroke-width:2154.820309; stroke-opacity:1;  stroke-linecap:round; stroke-linejoin:round;">
<path d="M2206247 613792 L2223488 588998 "/>
<path d="M2206247 613792 L2190101 588998 "/>
<path d="M2238591 550237 L2238591 649358 "/>
<path d="M2173947 649358 L2238591 649358 "/>
<path d="M2190101 588998 L2223488 588998 "/>
<path d="M2223488 613792 L2189006 613792 "/>
<path d="M2206247 588998 L2206247 567488 "/>
<path d="M2173947 550237 L2173947 649358 "/>
<path d="M2238591 550237 L2173947 550237 "/>
<path d="M2206247 613792 L2206247 633222 "/>
</g>
<g style="fill:#000084; fill-opacity:0.0;  stroke:#000084; stroke-width:2585.784371; stroke-opacity:1;  stroke-linecap:round; stroke-linejoin:round;">
<path d="M1766556 596623 L1766556 519049 "/>
<path d="M1766556 519049 L1671744 519049 "/>
<path d="M1671744 579384 L1688983 596623 "/>
<path d="M1688983 596623 L1766556 596623 "/>
<path d="M1671744 519049 L1671744 579384 "/>
<path d="M1671744 1271749 L1688983 1288988 "/>
<path d="M1766556 1211414 L1671744 1211414 "/>
<path d="M1671744 1211414 L1671744 1271749 "/>
<path d="M1688983 1288988 L1766556 1288988 "/>
<path d="M1766556 1288988 L1766556 1211414 "/>
<path d="M1766556 57472 L1671744 57472 "/>
<path d="M1671744 57472 L1671744 117807 "/>
<path d="M1688983 135046 L1766556 135046 "/>
<path d="M1766556 135046 L1766556 57472 "/>
<path d="M1671744 117807 L1688983 135046 "/>
</g>
<g style="fill:#000084; fill-opacity:0.0;  stroke:#000084; stroke-width:3232.230464; stroke-opacity:1;  stroke-linecap:round; stroke-linejoin:round;">
<path d="M1751990 660459 L1751990 682352 "/>
<path d="M1784829 638566 L1784829 616673 "/>
<path d="M1784829 682352 L1784829 660459 "/>
<path d="M1784829 616673 L1751990 616673 "/>
<path d="M1751990 616673 L1751990 638566 "/>
<path d="M1751990 682352 L1784829 682352 "/>
<path d="M1751990 222144 L1784829 222144 "/>
<path d="M1784829 222144 L1784829 200251 "/>
<path d="M1784829 178358 L1784829 156465 "/>
<path d="M1751990 200251 L1751990 222144 "/>
<path d="M1784829 156465 L1751990 156465 "/>
<path d="M1751990 156465 L1751990 178358 "/>
</g>
<g style="fill:#000084; fill-opacity:0.0;  stroke:#000084; stroke-width:2585.784371; stroke-opacity:1;  stroke-linecap:round; stroke-linejoin:round;">
<path d="M1688983 1519776 L1766556 1519776 "/>
<path d="M1766556 1442203 L1671744 1442203 "/>
<path d="M1671744 1442203 L1671744 1502538 "/>
<path d="M1671744 1502538 L1688983 1519776 "/>
<path d="M1766556 1519776 L1766556 1442203 "/>
</g>
<g style="fill:#000084; fill-opacity:0.0;  stroke:#000084; stroke-width:3232.230464; stroke-opacity:1;  stroke-linecap:round; stroke-linejoin:round;">
<path d="M1784829 1076882 L1751990 1076882 "/>
<path d="M1751990 1076882 L1751990 1098775 "/>
<path d="M1784829 1098775 L1784829 1076882 "/>
<path d="M1751990 1142561 L1784829 1142561 "/>
<path d="M1751990 1120668 L1751990 1142561 "/>
<path d="M1784829 1142561 L1784829 1120668 "/>
<path d="M2074911 583378 L2074911 616217 "/>
<path d="M2140590 583378 L2118697 583378 "/>
<path d="M2096804 583378 L2074911 583378 "/>
<path d="M2074911 616217 L2096804 616217 "/>
<path d="M2140590 616217 L2140590 583378 "/>
<path d="M2118697 616217 L2140590 616217 "/>
<path d="M2074911 342555 L2096804 342555 "/>
<path d="M2096804 309716 L2074911 309716 "/>
<path d="M2140590 342555 L2140590 309716 "/>
<path d="M2074911 309716 L2074911 342555 "/>
<path d="M2118697 342555 L2140590 342555 "/>
<path d="M2140590 309716 L2118697 309716 "/>
<path d="M1784829 1558983 L1784829 1537090 "/>
<path d="M1751990 1602769 L1784829 1602769 "/>
<path d="M1751990 1537090 L1751990 1558983 "/>
<path d="M1784829 1537090 L1751990 1537090 "/>
<path d="M1751990 1580876 L1751990 1602769 "/>
<path d="M1784829 1602769 L1784829 1580876 "/>
<g>
</g>
<g>
</g>
<g>
</g>
<g>
</g>
<g>
</g>
<g>
</g>
<g>
</g>
<g>
</g>
<g>
</g>
<g>
</g>
<g>
</g>
<g>
</g>
<g>
</g>
<g>
</g>
<g>
</g>
<g>
</g>
<g>
</g>
<g>
</g>
<g>
</g>
<g>
</g>
<g>
</g>
<g>
</g>
<g>
</g>
<g>
</g>
<g>
</g>
<g>
</g>
<g>
</g>
<g>
</g>
<g>
</g>
<g>
</g>
<g>
</g>
<g>
</g>
<g>
</g>
<g>
</g>
<g>
</g>
<g>
</g>
<g>
</g>
<g>
</g>
<g>
</g>
<g>
</g>
<g>
</g>
<g>
</g>
<g>
</g>
<g>
</g>
<g>
</g>
<g>
</g>
<g>
</g>
<g>
</g>
<g>
</g>
<g>
</g>
<g>
</g>
<g>
</g>
<g>
</g>
<g>
</g>
<g>
</g>
<g>
</g>
<g>
</g>
<g>
</g>
<g>
</g>
<g>
</g>
<g>
</g>
<g>
</g>
<g>
</g>
<g>
</g>
<g>
</g>
<g>
</g>
<g>
</g>
<g>
</g>
<g>
</g>
<g>
</g>
<g>
</g>
<g>
</g>
<g>
</g>
</g> 
<svg:g><svg:g><svg:title>SVG Picture created as ISO11446PWR01-Edge_Cuts.svg date 2023/02/20 23:58:41 </svg:title>
  <svg:desc>Picture generated by PCBNEW </svg:desc>
<svg:g style="fill:#C2C200; fill-opacity:1.000000;stroke:#C2C200; stroke-opacity:1.000000; stroke-linecap:round; stroke-linejoin:round;" transform="translate(0 0) scale(1 1)">
</svg:g>
<svg:g style="fill:#C2C200; fill-opacity:0.0;  stroke:#C2C200; stroke-width:0.000000; stroke-opacity:1;  stroke-linecap:round; stroke-linejoin:round;">
</svg:g>
<svg:g style="fill:#C2C200; fill-opacity:0.0;  stroke:#C2C200; stroke-width:3232.230464; stroke-opacity:1;  stroke-linecap:round; stroke-linejoin:round;">
<svg:path d="M766806 8687 L2288368 8687 "/>
<svg:path d="M2288368 8687 L2288368 1968108 "/>
<svg:path d="M2288368 1968108 L766806 1968108 "/>
<svg:path d="M766806 1968108 L766806 8687 "/>
<svg:g>
</svg:g>
<svg:g>
</svg:g>
<svg:g>
</svg:g>
<svg:g>
</svg:g>
<svg:g>
</svg:g>
<svg:g>
</svg:g>
<svg:g>
</svg:g>
<svg:g>
</svg:g>
<svg:g>
</svg:g>
<svg:g>
</svg:g>
<svg:g>
</svg:g>
<svg:g>
</svg:g>
<svg:g>
</svg:g>
<svg:g>
</svg:g>
<svg:g>
</svg:g>
<svg:g>
</svg:g>
<svg:g>
</svg:g>
<svg:g>
</svg:g>
<svg:g>
</svg:g>
<svg:g>
</svg:g>
<svg:g>
</svg:g>
<svg:g>
</svg:g>
<svg:g>
</svg:g>
<svg:g>
</svg:g>
<svg:g>
</svg:g>
<svg:g>
</svg:g>
<svg:g>
</svg:g>
<svg:g>
</svg:g>
<svg:g>
</svg:g>
<svg:g>
</svg:g>
<svg:g>
</svg:g>
<svg:g>
</svg:g>
<svg:g>
</svg:g>
<svg:g>
</svg:g>
<svg:g>
</svg:g>
<svg:g>
</svg:g>
<svg:g>
</svg:g>
<svg:g>
</svg:g>
<svg:g>
</svg:g>
<svg:g>
</svg:g>
<svg:g>
</svg:g>
<svg:g>
</svg:g>
<svg:g>
</svg:g>
<svg:g>
</svg:g>
<svg:g>
</svg:g>
<svg:g>
</svg:g>
<svg:g>
</svg:g>
<svg:g>
</svg:g>
<svg:g>
</svg:g>
<svg:g>
</svg:g>
<svg:g>
</svg:g>
<svg:g>
</svg:g>
<svg:g>
</svg:g>
<svg:g>
</svg:g>
<svg:g>
</svg:g>
<svg:g>
</svg:g>
<svg:g>
</svg:g>
<svg:g>
</svg:g>
<svg:g>
</svg:g>
<svg:g>
</svg:g>
<svg:g>
</svg:g>
<svg:g>
</svg:g>
<svg:g>
</svg:g>
<svg:g>
</svg:g>
<svg:g>
</svg:g>
<svg:g>
</svg:g>
<svg:g>
</svg:g>
<svg:g>
</svg:g>
<svg:g>
</svg:g>
<svg:g>
</svg:g>
<svg:g>
</svg:g>
<svg:g>
</svg:g>
<svg:g>
</svg:g>
</svg:g> 
</svg:g></svg:g></svg>
