<?xml version='1.0' encoding='ASCII' standalone='yes'?>
<svg xmlns:svg="http://www.w3.org/2000/svg" xmlns="http://www.w3.org/2000/svg" xmlns:xlink="http://www.w3.org/1999/xlink" version="1.1" width="29.700220cm" height="21.000720cm" viewBox="0 0 2970022 2100072">
<title>SVG Picture created as ISO11446PWR01-B_Fab.svg date 2023/02/16 18:38:57 </title>
  <desc>Picture generated by PCBNEW </desc>
<g style="fill:#000084; fill-opacity:1.000000;stroke:#000084; stroke-opacity:1.000000; stroke-linecap:round; stroke-linejoin:round;" transform="translate(0 0) scale(1 1)">
</g>
<g style="fill:#000084; fill-opacity:0.0;  stroke:#000084; stroke-width:0.000000; stroke-opacity:1;  stroke-linecap:round; stroke-linejoin:round;">
</g>
<g style="fill:#000084; fill-opacity:0.01;  stroke:#000084; stroke-width:2820.181924; stroke-opacity:1;  stroke-linecap:round; stroke-linejoin:round;">
<text x="1196939.863569" y="509533.830911" transform="scale(-1 1) translate(-2393879.727137 0)" textLength="21208.031284" font-size="31836.714117" lengthAdjust="spacingAndGlyphs" text-anchor="middle" opacity="0.01" style="font-family:monospace">K</text>
<g class="stroked-text"><desc>K</desc>
<path d="M1203193 508396 L1203193 484519 "/>
<path d="M1189549 508396 L1199782 494752 "/>
<path d="M1189549 484519 L1203193 498163 "/>
</g><text x="1162078.654749" y="510488.932523" transform="scale(-1 1) translate(-2324157.309497 0)" textLength="42951.821928" font-size="31836.714117" lengthAdjust="spacingAndGlyphs" text-anchor="middle" opacity="0.01" style="font-family:monospace">D5</text>
<g class="stroked-text"><desc>D5</desc>
<path d="M1179702 509351 L1179702 485474 L1174017 485474 L1170606 486611 L1168332 488885 L1167195 491159 L1166058 495707 L1166058 499118 L1167195 503666 L1168332 505940 L1170606 508214 L1174017 509351 L1179702 509351 "/>
<path d="M1144454 485474 L1155824 485474 L1156962 496844 L1155824 495707 L1153550 494570 L1147865 494570 L1145591 495707 L1144454 496844 L1143317 499118 L1143317 504803 L1144454 507077 L1145591 508214 L1147865 509351 L1153550 509351 L1155824 508214 L1156962 507077 "/>
</g></g>
<g style="fill:#000084; fill-opacity:0.0;  stroke:#000084; stroke-width:2053.468465; stroke-opacity:1;  stroke-linecap:round; stroke-linejoin:round;">
<g transform="rotate(-90.000000 1364383.878615 937896.903675)">
<text x="1364383.878615" y="942600.779112" transform="scale(-1 1) translate(-2728767.757231 0)" textLength="23661.044322" font-size="12543.661564" lengthAdjust="spacingAndGlyphs" text-anchor="middle" opacity="0.01" style="font-family:monospace">R17</text>
</g>
<g class="stroked-text"><desc>R17</desc>
<path d="M1368639 931849 L1364159 928713 "/>
<path d="M1368639 926473 L1359232 926473 L1359232 930057 L1359680 930953 L1360127 931401 L1361023 931849 L1362367 931849 L1363263 931401 L1363711 930953 L1364159 930057 L1364159 926473 "/>
<path d="M1368639 940808 L1368639 935432 "/>
<path d="M1368639 938120 L1359232 938120 L1360575 937224 L1361471 936328 L1361919 935432 "/>
<path d="M1359232 943944 L1359232 950216 L1368639 946184 "/>
</g><g transform="rotate(-90.000000 1377516.525774 940284.657704)">
<text x="1377516.525774" y="944988.533140" transform="scale(-1 1) translate(-2755033.051547 0)" textLength="24209.776520" font-size="12543.661564" lengthAdjust="spacingAndGlyphs" text-anchor="middle" opacity="0.01" style="font-family:monospace">240</text>
</g>
<g class="stroked-text"><desc>240</desc>
<path d="M1373260 928636 L1372812 929084 L1372364 929980 L1372364 932220 L1372812 933116 L1373260 933564 L1374156 934012 L1375052 934012 L1376396 933564 L1381772 928188 L1381772 934012 "/>
<path d="M1375500 942076 L1381772 942076 "/>
<path d="M1371916 939836 L1378636 937596 L1378636 943420 "/>
<path d="M1372364 948796 L1372364 949692 L1372812 950588 L1373260 951036 L1374156 951484 L1375948 951932 L1378188 951932 L1379980 951484 L1380876 951036 L1381324 950588 L1381772 949692 L1381772 948796 L1381324 947900 L1380876 947452 L1379980 947004 L1378188 946556 L1375948 946556 L1374156 947004 L1373260 947452 L1372812 947900 L1372364 948796 "/>
</g></g>
<g style="fill:#000084; fill-opacity:0.01;  stroke:#000084; stroke-width:2820.181924; stroke-opacity:1;  stroke-linecap:round; stroke-linejoin:round;">
<text x="1558445.823526" y="951960.210868" transform="scale(-1 1) translate(-3116891.647053 0)" textLength="134310.750492" font-size="25068.277500" lengthAdjust="spacingAndGlyphs" text-anchor="middle" opacity="0.01" style="font-family:monospace">LTV-357T</text>
<g class="stroked-text"><desc>LTV-357T</desc>
<path d="M1613506 951064 L1622459 951064 L1622459 932263 "/>
<path d="M1609925 932263 L1599181 932263 "/>
<path d="M1604553 951064 L1604553 932263 "/>
<path d="M1595600 932263 L1589333 951064 L1583066 932263 "/>
<path d="M1576799 943902 L1562474 943902 "/>
<path d="M1555312 932263 L1543673 932263 L1549940 939426 L1547254 939426 L1545464 940321 L1544568 941216 L1543673 943007 L1543673 947483 L1544568 949274 L1545464 950169 L1547254 951064 L1552626 951064 L1554416 950169 L1555312 949274 "/>
<path d="M1526662 932263 L1535615 932263 L1536511 941216 L1535615 940321 L1533825 939426 L1529348 939426 L1527558 940321 L1526662 941216 L1525767 943007 L1525767 947483 L1526662 949274 L1527558 950169 L1529348 951064 L1533825 951064 L1535615 950169 L1536511 949274 "/>
<path d="M1519500 932263 L1506966 932263 L1515023 951064 "/>
<path d="M1502489 932263 L1491746 932263 "/>
<path d="M1497118 951064 L1497118 932263 "/>
</g><text x="1520241.759066" y="1149090.927339" transform="scale(-1 1) translate(-3040483.518132 0)" textLength="33936.189149" font-size="25068.277500" lengthAdjust="spacingAndGlyphs" text-anchor="middle" opacity="0.01" style="font-family:monospace">U2</text>
<g class="stroked-text"><desc>U2</desc>
<path d="M1534566 1129394 L1534566 1144614 L1533671 1146405 L1532775 1147300 L1530985 1148195 L1527404 1148195 L1525613 1147300 L1524718 1146405 L1523822 1144614 L1523822 1129394 "/>
<path d="M1515765 1131185 L1514869 1130289 L1513079 1129394 L1508602 1129394 L1506812 1130289 L1505917 1131185 L1505021 1132975 L1505021 1134766 L1505917 1137452 L1516660 1148195 L1505021 1148195 "/>
</g></g>
<g style="fill:#000084; fill-opacity:0.01;  stroke:#000084; stroke-width:2053.468465; stroke-opacity:1;  stroke-linecap:round; stroke-linejoin:round;">
<text x="1374118.732989" y="522356.070046" transform="scale(-1 1) translate(-2748237.465979 0)" textLength="14701.269947" font-size="12543.661564" lengthAdjust="spacingAndGlyphs" text-anchor="middle" opacity="0.01" style="font-family:monospace">C1</text>
<g class="stroked-text"><desc>C1</desc>
<path d="M1375686 521012 L1376134 521460 L1377478 521908 L1378374 521908 L1379718 521460 L1380614 520564 L1381062 519668 L1381510 517876 L1381510 516532 L1381062 514740 L1380614 513844 L1379718 512948 L1378374 512500 L1377478 512500 L1376134 512948 L1375686 513396 "/>
<path d="M1366726 521908 L1372102 521908 "/>
<path d="M1369414 521908 L1369414 512500 L1370310 513844 L1371206 514740 L1372102 515188 "/>
</g><text x="1376506.487018" y="509223.422888" transform="scale(-1 1) translate(-2753012.974037 0)" textLength="31825.583799" font-size="12543.661564" lengthAdjust="spacingAndGlyphs" text-anchor="middle" opacity="0.01" style="font-family:monospace">10uF</text>
<g class="stroked-text"><desc>10uF</desc>
<path d="M1386586 508775 L1391962 508775 "/>
<path d="M1389274 508775 L1389274 499367 L1390170 500711 L1391066 501607 L1391962 502055 "/>
<path d="M1380762 499367 L1379866 499367 L1378970 499815 L1378522 500263 L1378074 501159 L1377626 502951 L1377626 505191 L1378074 506983 L1378522 507879 L1378970 508327 L1379866 508775 L1380762 508775 L1381658 508327 L1382106 507879 L1382554 506983 L1383002 505191 L1383002 502951 L1382554 501159 L1382106 500263 L1381658 499815 L1380762 499367 "/>
<path d="M1369562 502503 L1369562 508775 "/>
<path d="M1373594 502503 L1373594 507431 L1373146 508327 L1372250 508775 L1370906 508775 L1370010 508327 L1369562 507879 "/>
<path d="M1361946 503847 L1365082 503847 "/>
<path d="M1365082 508775 L1365082 499367 L1360602 499367 "/>
</g><g transform="rotate(-90.000000 1341884.053601 1869120.974900)">
<text x="1341884.053601" y="1873824.850337" transform="scale(-1 1) translate(-2683768.107202 0)" textLength="24657.771819" font-size="12543.661564" lengthAdjust="spacingAndGlyphs" text-anchor="middle" opacity="0.01" style="font-family:monospace">R12</text>
</g>
<g class="stroked-text"><desc>R12</desc>
<path d="M1346139 1863073 L1341660 1859937 "/>
<path d="M1346139 1857697 L1336732 1857697 L1336732 1861281 L1337180 1862177 L1337628 1862625 L1338524 1863073 L1339868 1863073 L1340764 1862625 L1341212 1862177 L1341660 1861281 L1341660 1857697 "/>
<path d="M1346139 1872032 L1346139 1866657 "/>
<path d="M1346139 1869344 L1336732 1869344 L1338076 1868448 L1338972 1867553 L1339420 1866657 "/>
<path d="M1337628 1875616 L1337180 1876064 L1336732 1876960 L1336732 1879200 L1337180 1880096 L1337628 1880544 L1338524 1880992 L1339420 1880992 L1340764 1880544 L1346139 1875168 L1346139 1880992 "/>
</g><g transform="rotate(-90.000000 1328751.406443 1866733.220871)">
<text x="1328751.406443" y="1871437.096308" transform="scale(-1 1) translate(-2657502.812885 0)" textLength="24209.776520" font-size="12543.661564" lengthAdjust="spacingAndGlyphs" text-anchor="middle" opacity="0.01" style="font-family:monospace">800</text>
</g>
<g class="stroked-text"><desc>800</desc>
<path d="M1327631 1856877 L1327183 1855981 L1326735 1855533 L1325839 1855085 L1325391 1855085 L1324495 1855533 L1324047 1855981 L1323599 1856877 L1323599 1858669 L1324047 1859565 L1324495 1860013 L1325391 1860461 L1325839 1860461 L1326735 1860013 L1327183 1859565 L1327631 1858669 L1327631 1856877 L1328079 1855981 L1328527 1855533 L1329423 1855085 L1331215 1855085 L1332111 1855533 L1332559 1855981 L1333007 1856877 L1333007 1858669 L1332559 1859565 L1332111 1860013 L1331215 1860461 L1329423 1860461 L1328527 1860013 L1328079 1859565 L1327631 1858669 "/>
<path d="M1323599 1866285 L1323599 1867181 L1324047 1868077 L1324495 1868525 L1325391 1868973 L1327183 1869421 L1329423 1869421 L1331215 1868973 L1332111 1868525 L1332559 1868077 L1333007 1867181 L1333007 1866285 L1332559 1865389 L1332111 1864941 L1331215 1864493 L1329423 1864045 L1327183 1864045 L1325391 1864493 L1324495 1864941 L1324047 1865389 L1323599 1866285 "/>
<path d="M1323599 1875244 L1323599 1876140 L1324047 1877036 L1324495 1877484 L1325391 1877932 L1327183 1878380 L1329423 1878380 L1331215 1877932 L1332111 1877484 L1332559 1877036 L1333007 1876140 L1333007 1875244 L1332559 1874349 L1332111 1873901 L1331215 1873453 L1329423 1873005 L1327183 1873005 L1325391 1873453 L1324495 1873901 L1324047 1874349 L1323599 1875244 "/>
</g></g>
<g style="fill:#000084; fill-opacity:0.01;  stroke:#000084; stroke-width:2820.181924; stroke-opacity:1;  stroke-linecap:round; stroke-linejoin:round;">
<text x="1363966.078064" y="331322.774906" transform="scale(-1 1) translate(-2727932.156128 0)" textLength="188923.799060" font-size="25068.277500" lengthAdjust="spacingAndGlyphs" text-anchor="middle" opacity="0.01" style="font-family:monospace">BZV55C-5,6V</text>
<g class="stroked-text"><desc>BZV55C-5,6V</desc>
<path d="M1449019 320579 L1446333 321474 L1445437 322369 L1444542 324160 L1444542 326846 L1445437 328636 L1446333 329532 L1448123 330427 L1455286 330427 L1455286 311626 L1449019 311626 L1447228 312521 L1446333 313416 L1445437 315207 L1445437 316998 L1446333 318788 L1447228 319683 L1449019 320579 L1455286 320579 "/>
<path d="M1438275 311626 L1425741 311626 L1438275 330427 L1425741 330427 "/>
<path d="M1421265 311626 L1414997 330427 L1408730 311626 "/>
<path d="M1393510 311626 L1402463 311626 L1403359 320579 L1402463 319683 L1400673 318788 L1396196 318788 L1394406 319683 L1393510 320579 L1392615 322369 L1392615 326846 L1393510 328636 L1394406 329532 L1396196 330427 L1400673 330427 L1402463 329532 L1403359 328636 "/>
<path d="M1375604 311626 L1384557 311626 L1385453 320579 L1384557 319683 L1382767 318788 L1378290 318788 L1376500 319683 L1375604 320579 L1374709 322369 L1374709 326846 L1375604 328636 L1376500 329532 L1378290 330427 L1382767 330427 L1384557 329532 L1385453 328636 "/>
<path d="M1355908 328636 L1356803 329532 L1359489 330427 L1361280 330427 L1363966 329532 L1365756 327741 L1366651 325950 L1367547 322369 L1367547 319683 L1366651 316102 L1365756 314312 L1363966 312521 L1361280 311626 L1359489 311626 L1356803 312521 L1355908 313416 "/>
<path d="M1347850 323265 L1333526 323265 "/>
<path d="M1315620 311626 L1324573 311626 L1325468 320579 L1324573 319683 L1322782 318788 L1318305 318788 L1316515 319683 L1315620 320579 L1314724 322369 L1314724 326846 L1315620 328636 L1316515 329532 L1318305 330427 L1322782 330427 L1324573 329532 L1325468 328636 "/>
<path d="M1305771 329532 L1305771 330427 L1306667 332218 L1307562 333113 "/>
<path d="M1289656 311626 L1293237 311626 L1295028 312521 L1295923 313416 L1297714 316102 L1298609 319683 L1298609 326846 L1297714 328636 L1296818 329532 L1295028 330427 L1291447 330427 L1289656 329532 L1288761 328636 L1287865 326846 L1287865 322369 L1288761 320579 L1289656 319683 L1291447 318788 L1295028 318788 L1296818 319683 L1297714 320579 L1298609 322369 "/>
<path d="M1282494 311626 L1276227 330427 L1269960 311626 "/>
</g><text x="1363966.078064" y="427208.960314" transform="scale(-1 1) translate(-2727932.156128 0)" textLength="50946.812067" font-size="25068.277500" lengthAdjust="spacingAndGlyphs" text-anchor="middle" opacity="0.01" style="font-family:monospace">D10</text>
<g class="stroked-text"><desc>D10</desc>
<path d="M1386796 426313 L1386796 407512 L1382319 407512 L1379633 408407 L1377843 410198 L1376947 411988 L1376052 415570 L1376052 418255 L1376947 421837 L1377843 423627 L1379633 425418 L1382319 426313 L1386796 426313 "/>
<path d="M1358146 426313 L1368890 426313 "/>
<path d="M1363518 426313 L1363518 407512 L1365309 410198 L1367099 411988 L1368890 412884 "/>
<path d="M1346507 407512 L1344717 407512 L1342926 408407 L1342031 409303 L1341136 411093 L1340240 414674 L1340240 419151 L1341136 422732 L1342031 424523 L1342926 425418 L1344717 426313 L1346507 426313 L1348298 425418 L1349193 424523 L1350088 422732 L1350984 419151 L1350984 414674 L1350088 411093 L1349193 409303 L1348298 408407 L1346507 407512 "/>
</g><text x="1469145.815778" y="698261.345310" transform="scale(-1 1) translate(-2938291.631557 0)" textLength="133314.022996" font-size="25068.277500" lengthAdjust="spacingAndGlyphs" text-anchor="middle" opacity="0.01" style="font-family:monospace">LTV-357T</text>
<g class="stroked-text"><desc>LTV-357T</desc>
<path d="M1524206 697366 L1533159 697366 L1533159 678564 "/>
<path d="M1520625 678564 L1509881 678564 "/>
<path d="M1515253 697366 L1515253 678564 "/>
<path d="M1506300 678564 L1500033 697366 L1493766 678564 "/>
<path d="M1487499 690203 L1473174 690203 "/>
<path d="M1466012 678564 L1454373 678564 L1460640 685727 L1457954 685727 L1456164 686622 L1455268 687517 L1454373 689308 L1454373 693784 L1455268 695575 L1456164 696470 L1457954 697366 L1463326 697366 L1465116 696470 L1466012 695575 "/>
<path d="M1437362 678564 L1446315 678564 L1447211 687517 L1446315 686622 L1444525 685727 L1440048 685727 L1438258 686622 L1437362 687517 L1436467 689308 L1436467 693784 L1437362 695575 L1438258 696470 L1440048 697366 L1444525 697366 L1446315 696470 L1447211 695575 "/>
<path d="M1430200 678564 L1417666 678564 L1425723 697366 "/>
<path d="M1413189 678564 L1402446 678564 "/>
<path d="M1407818 697366 L1407818 678564 "/>
</g><text x="1479649.940577" y="946131.834892" transform="scale(-1 1) translate(-2959299.881153 0)" textLength="33936.189149" font-size="25068.277500" lengthAdjust="spacingAndGlyphs" text-anchor="middle" opacity="0.01" style="font-family:monospace">U5</text>
<g class="stroked-text"><desc>U5</desc>
<path d="M1493974 926435 L1493974 941655 L1493079 943445 L1492184 944341 L1490393 945236 L1486812 945236 L1485021 944341 L1484126 943445 L1483231 941655 L1483231 926435 "/>
<path d="M1465325 926435 L1474278 926435 L1475173 935388 L1474278 934492 L1472487 933597 L1468011 933597 L1466220 934492 L1465325 935388 L1464429 937178 L1464429 941655 L1465325 943445 L1466220 944341 L1468011 945236 L1472487 945236 L1474278 944341 L1475173 943445 "/>
</g><text x="1196469.833248" y="1179298.835985" transform="scale(-1 1) translate(-2392939.666496 0)" textLength="20211.303787" font-size="31836.714117" lengthAdjust="spacingAndGlyphs" text-anchor="middle" opacity="0.01" style="font-family:monospace">K</text>
<g class="stroked-text"><desc>K</desc>
<path d="M1202723 1178161 L1202723 1154284 "/>
<path d="M1189079 1178161 L1199312 1164517 "/>
<path d="M1189079 1154284 L1202723 1167928 "/>
</g><text x="1161608.624428" y="1180253.937596" transform="scale(-1 1) translate(-2323217.248856 0)" textLength="42951.821928" font-size="31836.714117" lengthAdjust="spacingAndGlyphs" text-anchor="middle" opacity="0.01" style="font-family:monospace">D9</text>
<g class="stroked-text"><desc>D9</desc>
<path d="M1179232 1179116 L1179232 1155239 L1173547 1155239 L1170136 1156376 L1167862 1158650 L1166725 1160924 L1165588 1165472 L1165588 1168883 L1166725 1173431 L1167862 1175705 L1170136 1177979 L1173547 1179116 L1179232 1179116 "/>
<path d="M1154217 1179116 L1149669 1179116 L1147395 1177979 L1146258 1176842 L1143984 1173431 L1142847 1168883 L1142847 1159787 L1143984 1157513 L1145121 1156376 L1147395 1155239 L1151943 1155239 L1154217 1156376 L1155354 1157513 L1156492 1159787 L1156492 1165472 L1155354 1167746 L1154217 1168883 L1151943 1170020 L1147395 1170020 L1145121 1168883 L1143984 1167746 L1142847 1165472 "/>
</g></g>
<g style="fill:#000084; fill-opacity:0.0;  stroke:#000084; stroke-width:2053.468465; stroke-opacity:1;  stroke-linecap:round; stroke-linejoin:round;">
<g transform="rotate(-90.000000 1451720.738925 503325.670436)">
<text x="1451720.738925" y="508029.545873" transform="scale(-1 1) translate(-2903441.477850 0)" textLength="23661.044322" font-size="12543.661564" lengthAdjust="spacingAndGlyphs" text-anchor="middle" opacity="0.01" style="font-family:monospace">R11</text>
</g>
<g class="stroked-text"><desc>R11</desc>
<path d="M1455976 497277 L1451496 494141 "/>
<path d="M1455976 491901 L1446568 491901 L1446568 495485 L1447016 496381 L1447464 496829 L1448360 497277 L1449704 497277 L1450600 496829 L1451048 496381 L1451496 495485 L1451496 491901 "/>
<path d="M1455976 506237 L1455976 500861 "/>
<path d="M1455976 503549 L1446568 503549 L1447912 502653 L1448808 501757 L1449256 500861 "/>
<path d="M1455976 515197 L1455976 509821 "/>
<path d="M1455976 512509 L1446568 512509 L1447912 511613 L1448808 510717 L1449256 509821 "/>
</g><g transform="rotate(-90.000000 1438588.091767 500937.916408)">
<text x="1438588.091767" y="505641.791844" transform="scale(-1 1) translate(-2877176.183533 0)" textLength="24209.776520" font-size="12543.661564" lengthAdjust="spacingAndGlyphs" text-anchor="middle" opacity="0.01" style="font-family:monospace">240</text>
</g>
<g class="stroked-text"><desc>240</desc>
<path d="M1434332 489290 L1433884 489738 L1433436 490634 L1433436 492874 L1433884 493770 L1434332 494218 L1435228 494666 L1436124 494666 L1437468 494218 L1442843 488842 L1442843 494666 "/>
<path d="M1436572 502729 L1442843 502729 "/>
<path d="M1432988 500489 L1439708 498249 L1439708 504073 "/>
<path d="M1433436 509449 L1433436 510345 L1433884 511241 L1434332 511689 L1435228 512137 L1437020 512585 L1439260 512585 L1441052 512137 L1441948 511689 L1442395 511241 L1442843 510345 L1442843 509449 L1442395 508553 L1441948 508105 L1441052 507657 L1439260 507209 L1437020 507209 L1435228 507657 L1434332 508105 L1433884 508553 L1433436 509449 "/>
</g></g>
<g style="fill:#000084; fill-opacity:0.01;  stroke:#000084; stroke-width:2820.181924; stroke-opacity:1;  stroke-linecap:round; stroke-linejoin:round;">
<text x="1555518.061063" y="544848.148961" transform="scale(-1 1) translate(-3111036.122126 0)" textLength="134310.750492" font-size="25068.277500" lengthAdjust="spacingAndGlyphs" text-anchor="middle" opacity="0.01" style="font-family:monospace">LTV-357T</text>
<g class="stroked-text"><desc>LTV-357T</desc>
<path d="M1610578 543952 L1619531 543952 L1619531 525151 "/>
<path d="M1606997 525151 L1596254 525151 "/>
<path d="M1601625 543952 L1601625 525151 "/>
<path d="M1592672 525151 L1586405 543952 L1580138 525151 "/>
<path d="M1573871 536790 L1559546 536790 "/>
<path d="M1552384 525151 L1540745 525151 L1547012 532314 L1544326 532314 L1542536 533209 L1541640 534104 L1540745 535895 L1540745 540371 L1541640 542162 L1542536 543057 L1544326 543952 L1549698 543952 L1551489 543057 L1552384 542162 "/>
<path d="M1523735 525151 L1532688 525151 L1533583 534104 L1532688 533209 L1530897 532314 L1526420 532314 L1524630 533209 L1523735 534104 L1522839 535895 L1522839 540371 L1523735 542162 L1524630 543057 L1526420 543952 L1530897 543952 L1532688 543057 L1533583 542162 "/>
<path d="M1516572 525151 L1504038 525151 L1512096 543952 "/>
<path d="M1499562 525151 L1488818 525151 "/>
<path d="M1494190 543952 L1494190 525151 "/>
</g><text x="1555518.061063" y="598713.623704" transform="scale(-1 1) translate(-3111036.122126 0)" textLength="33936.189149" font-size="25068.277500" lengthAdjust="spacingAndGlyphs" text-anchor="middle" opacity="0.01" style="font-family:monospace">U4</text>
<g class="stroked-text"><desc>U4</desc>
<path d="M1569842 579017 L1569842 594237 L1568947 596027 L1568052 596923 L1566261 597818 L1562680 597818 L1560889 596923 L1559994 596027 L1559099 594237 L1559099 579017 "/>
<path d="M1542088 585284 L1542088 597818 "/>
<path d="M1546565 578121 L1551041 591551 L1539402 591551 "/>
</g></g>
<g style="fill:#000084; fill-opacity:0.0;  stroke:#000084; stroke-width:2053.468465; stroke-opacity:1;  stroke-linecap:round; stroke-linejoin:round;">
<g transform="rotate(-90.000000 1439781.968781 589284.815473)">
<text x="1439781.968781" y="593988.690909" transform="scale(-1 1) translate(-2879563.937562 0)" textLength="23661.044322" font-size="12543.661564" lengthAdjust="spacingAndGlyphs" text-anchor="middle" opacity="0.01" style="font-family:monospace">R16</text>
</g>
<g class="stroked-text"><desc>R16</desc>
<path d="M1444037 583236 L1439557 580101 "/>
<path d="M1444037 577861 L1434630 577861 L1434630 581445 L1435078 582340 L1435526 582788 L1436422 583236 L1437766 583236 L1438661 582788 L1439109 582340 L1439557 581445 L1439557 577861 "/>
<path d="M1444037 592196 L1444037 586820 "/>
<path d="M1444037 589508 L1434630 589508 L1435974 588612 L1436870 587716 L1437318 586820 "/>
<path d="M1434630 600260 L1434630 598468 L1435078 597572 L1435526 597124 L1436870 596228 L1438661 595780 L1442245 595780 L1443141 596228 L1443589 596676 L1444037 597572 L1444037 599364 L1443589 600260 L1443141 600708 L1442245 601156 L1440005 601156 L1439109 600708 L1438661 600260 L1438214 599364 L1438214 597572 L1438661 596676 L1439109 596228 L1440005 595780 "/>
</g><g transform="rotate(-90.000000 1452914.615939 591672.569501)">
<text x="1452914.615939" y="596376.444938" transform="scale(-1 1) translate(-2905829.231879 0)" textLength="24209.776520" font-size="12543.661564" lengthAdjust="spacingAndGlyphs" text-anchor="middle" opacity="0.01" style="font-family:monospace">240</text>
</g>
<g class="stroked-text"><desc>240</desc>
<path d="M1448658 580024 L1448210 580472 L1447762 581368 L1447762 583608 L1448210 584504 L1448658 584952 L1449554 585400 L1450450 585400 L1451794 584952 L1457170 579576 L1457170 585400 "/>
<path d="M1450898 593464 L1457170 593464 "/>
<path d="M1447314 591224 L1454034 588984 L1454034 594808 "/>
<path d="M1447762 600184 L1447762 601080 L1448210 601976 L1448658 602424 L1449554 602872 L1451346 603320 L1453586 603320 L1455378 602872 L1456274 602424 L1456722 601976 L1457170 601080 L1457170 600184 L1456722 599288 L1456274 598840 L1455378 598392 L1453586 597944 L1451346 597944 L1449554 598392 L1448658 598840 L1448210 599288 L1447762 600184 "/>
</g></g>
<g style="fill:#000084; fill-opacity:0.01;  stroke:#000084; stroke-width:2820.181924; stroke-opacity:1;  stroke-linecap:round; stroke-linejoin:round;">
<text x="1196939.863569" y="798452.068394" transform="scale(-1 1) translate(-2393879.727137 0)" textLength="21208.031284" font-size="31836.714117" lengthAdjust="spacingAndGlyphs" text-anchor="middle" opacity="0.01" style="font-family:monospace">K</text>
<g class="stroked-text"><desc>K</desc>
<path d="M1203193 797315 L1203193 773437 "/>
<path d="M1189549 797315 L1199782 783670 "/>
<path d="M1189549 773437 L1203193 787081 "/>
</g><text x="1162078.654749" y="799407.170005" transform="scale(-1 1) translate(-2324157.309497 0)" textLength="42951.821928" font-size="31836.714117" lengthAdjust="spacingAndGlyphs" text-anchor="middle" opacity="0.01" style="font-family:monospace">D3</text>
<g class="stroked-text"><desc>D3</desc>
<path d="M1179702 798270 L1179702 774392 L1174017 774392 L1170606 775529 L1168332 777803 L1167195 780077 L1166058 784625 L1166058 788036 L1167195 792584 L1168332 794859 L1170606 797133 L1174017 798270 L1179702 798270 "/>
<path d="M1158099 774392 L1143317 774392 L1151276 783488 L1147865 783488 L1145591 784625 L1144454 785762 L1143317 788036 L1143317 793722 L1144454 795996 L1145591 797133 L1147865 798270 L1154687 798270 L1156962 797133 L1158099 795996 "/>
</g><text x="1194082.079219" y="1083788.674833" transform="scale(-1 1) translate(-2388164.158439 0)" textLength="20211.303787" font-size="31836.714117" lengthAdjust="spacingAndGlyphs" text-anchor="middle" opacity="0.01" style="font-family:monospace">K</text>
<g class="stroked-text"><desc>K</desc>
<path d="M1200335 1082651 L1200335 1058774 "/>
<path d="M1186691 1082651 L1196924 1069007 "/>
<path d="M1186691 1058774 L1200335 1072418 "/>
</g><text x="1159220.870399" y="1084743.776445" transform="scale(-1 1) translate(-2318441.740798 0)" textLength="42951.821928" font-size="31836.714117" lengthAdjust="spacingAndGlyphs" text-anchor="middle" opacity="0.01" style="font-family:monospace">D8</text>
<g class="stroked-text"><desc>D8</desc>
<path d="M1176844 1083606 L1176844 1059729 L1171159 1059729 L1167748 1060866 L1165474 1063140 L1164337 1065414 L1163200 1069962 L1163200 1073373 L1164337 1077921 L1165474 1080195 L1167748 1082469 L1171159 1083606 L1176844 1083606 "/>
<path d="M1149556 1069962 L1151830 1068825 L1152967 1067688 L1154104 1065414 L1154104 1064277 L1152967 1062003 L1151830 1060866 L1149556 1059729 L1145008 1059729 L1142733 1060866 L1141596 1062003 L1140459 1064277 L1140459 1065414 L1141596 1067688 L1142733 1068825 L1145008 1069962 L1149556 1069962 L1151830 1071099 L1152967 1072236 L1154104 1074510 L1154104 1079058 L1152967 1081332 L1151830 1082469 L1149556 1083606 L1145008 1083606 L1142733 1082469 L1141596 1081332 L1140459 1079058 L1140459 1074510 L1141596 1072236 L1142733 1071099 L1145008 1069962 "/>
</g></g>
<g style="fill:#000084; fill-opacity:0.01;  stroke:#000084; stroke-width:5730.609669; stroke-opacity:1;  stroke-linecap:round; stroke-linejoin:round;">
<text x="1729894.083278" y="1887029.130116" transform="scale(-1 1) translate(-3459788.166556 0)" textLength="48182.131324" font-size="38204.064461" lengthAdjust="spacingAndGlyphs" text-anchor="middle" opacity="0.01" style="font-family:monospace">F3</text>
<g class="stroked-text"><desc>F3</desc>
<path d="M1739445 1870655 L1748996 1870655 "/>
<path d="M1748996 1885664 L1748996 1857011 L1735351 1857011 "/>
<path d="M1727165 1857011 L1709427 1857011 L1718978 1867927 L1714885 1867927 L1712156 1869291 L1710792 1870655 L1709427 1873384 L1709427 1880206 L1710792 1882935 L1712156 1884300 L1714885 1885664 L1723071 1885664 L1725800 1884300 L1727165 1882935 "/>
</g></g>
<g style="fill:#000084; fill-opacity:0.0;  stroke:#000084; stroke-width:2053.468465; stroke-opacity:1;  stroke-linecap:round; stroke-linejoin:round;">
<g transform="rotate(-90.000000 1663747.769124 438259.373152)">
<text x="1663747.769124" y="442963.248589" transform="scale(-1 1) translate(-3327495.538248 0)" textLength="19877.488253" font-size="12543.661564" lengthAdjust="spacingAndGlyphs" text-anchor="middle" opacity="0.01" style="font-family:monospace">R15</text>
</g>
<g class="stroked-text"><desc>R15</desc>
<path d="M1668003 432211 L1663523 429075 "/>
<path d="M1668003 426835 L1658595 426835 L1658595 430419 L1659043 431315 L1659491 431763 L1660387 432211 L1661731 432211 L1662627 431763 L1663075 431315 L1663523 430419 L1663523 426835 "/>
<path d="M1668003 441171 L1668003 435795 "/>
<path d="M1668003 438483 L1658595 438483 L1659939 437587 L1660835 436691 L1661283 435795 "/>
<path d="M1658595 449683 L1658595 445203 L1663075 444755 L1662627 445203 L1662179 446099 L1662179 448339 L1662627 449235 L1663075 449683 L1663971 450131 L1666211 450131 L1667107 449683 L1667555 449235 L1668003 448339 L1668003 446099 L1667555 445203 L1667107 444755 "/>
</g><g transform="rotate(-90.000000 1676880.416282 440647.127181)">
<text x="1676880.416282" y="445351.002618" transform="scale(-1 1) translate(-3353760.832565 0)" textLength="24209.776520" font-size="12543.661564" lengthAdjust="spacingAndGlyphs" text-anchor="middle" opacity="0.01" style="font-family:monospace">240</text>
</g>
<g class="stroked-text"><desc>240</desc>
<path d="M1672624 428999 L1672176 429447 L1671728 430343 L1671728 432583 L1672176 433479 L1672624 433927 L1673520 434375 L1674416 434375 L1675760 433927 L1681136 428551 L1681136 434375 "/>
<path d="M1674864 442439 L1681136 442439 "/>
<path d="M1671280 440199 L1678000 437959 L1678000 443783 "/>
<path d="M1671728 449158 L1671728 450054 L1672176 450950 L1672624 451398 L1673520 451846 L1675312 452294 L1677552 452294 L1679344 451846 L1680240 451398 L1680688 450950 L1681136 450054 L1681136 449158 L1680688 448262 L1680240 447814 L1679344 447366 L1677552 446918 L1675312 446918 L1673520 447366 L1672624 447814 L1672176 448262 L1671728 449158 "/>
</g></g>
<g style="fill:#000084; fill-opacity:0.01;  stroke:#000084; stroke-width:5730.609669; stroke-opacity:1;  stroke-linecap:round; stroke-linejoin:round;">
<text x="1737057.345364" y="1655416.989324" transform="scale(-1 1) translate(-3474114.690729 0)" textLength="49178.858820" font-size="38204.064461" lengthAdjust="spacingAndGlyphs" text-anchor="middle" opacity="0.01" style="font-family:monospace">F1</text>
<g class="stroked-text"><desc>F1</desc>
<path d="M1746608 1639043 L1756159 1639043 "/>
<path d="M1756159 1654052 L1756159 1625399 L1742515 1625399 "/>
<path d="M1716590 1654052 L1732964 1654052 "/>
<path d="M1724777 1654052 L1724777 1625399 L1727506 1629492 L1730235 1632221 L1732964 1633586 "/>
</g></g>
<g style="fill:#000084; fill-opacity:0.0;  stroke:#000084; stroke-width:2053.468465; stroke-opacity:1;  stroke-linecap:round; stroke-linejoin:round;">
<g transform="rotate(-90.000000 1592598.226623 743294.950329)">
<text x="1592598.226623" y="747998.825766" transform="scale(-1 1) translate(-3185196.453246 0)" textLength="19877.488253" font-size="12543.661564" lengthAdjust="spacingAndGlyphs" text-anchor="middle" opacity="0.01" style="font-family:monospace">R13</text>
</g>
<g class="stroked-text"><desc>R13</desc>
<path d="M1596854 737247 L1592374 734111 "/>
<path d="M1596854 731871 L1587446 731871 L1587446 735455 L1587894 736351 L1588342 736799 L1589238 737247 L1590582 737247 L1591478 736799 L1591926 736351 L1592374 735455 L1592374 731871 "/>
<path d="M1596854 746206 L1596854 740831 "/>
<path d="M1596854 743518 L1587446 743518 L1588790 742622 L1589686 741726 L1590134 740831 "/>
<path d="M1587446 749342 L1587446 755166 L1591030 752030 L1591030 753374 L1591478 754270 L1591926 754718 L1592822 755166 L1595062 755166 L1595958 754718 L1596406 754270 L1596854 753374 L1596854 750686 L1596406 749790 L1595958 749342 "/>
</g><g transform="rotate(-90.000000 1605730.873781 745682.704358)">
<text x="1605730.873781" y="750386.579795" transform="scale(-1 1) translate(-3211461.747563 0)" textLength="24209.776520" font-size="12543.661564" lengthAdjust="spacingAndGlyphs" text-anchor="middle" opacity="0.01" style="font-family:monospace">240</text>
</g>
<g class="stroked-text"><desc>240</desc>
<path d="M1601474 734034 L1601026 734482 L1600579 735378 L1600579 737618 L1601026 738514 L1601474 738962 L1602370 739410 L1603266 739410 L1604610 738962 L1609986 733587 L1609986 739410 "/>
<path d="M1603714 747474 L1609986 747474 "/>
<path d="M1600131 745234 L1606850 742994 L1606850 748818 "/>
<path d="M1600579 754194 L1600579 755090 L1601026 755986 L1601474 756434 L1602370 756882 L1604162 757330 L1606402 757330 L1608194 756882 L1609090 756434 L1609538 755986 L1609986 755090 L1609986 754194 L1609538 753298 L1609090 752850 L1608194 752402 L1606402 751954 L1604162 751954 L1602370 752402 L1601474 752850 L1601026 753298 L1600579 754194 "/>
</g><g transform="rotate(-90.000000 1697589.425775 1528866.025798)">
<text x="1697589.425775" y="1533569.901235" transform="scale(-1 1) translate(-3395178.851551 0)" textLength="24657.771819" font-size="12543.661564" lengthAdjust="spacingAndGlyphs" text-anchor="middle" opacity="0.01" style="font-family:monospace">R23</text>
</g>
<g class="stroked-text"><desc>R23</desc>
<path d="M1701845 1522818 L1697365 1519682 "/>
<path d="M1701845 1517442 L1692437 1517442 L1692437 1521026 L1692885 1521922 L1693333 1522370 L1694229 1522818 L1695573 1522818 L1696469 1522370 L1696917 1521922 L1697365 1521026 L1697365 1517442 "/>
<path d="M1693333 1526402 L1692885 1526850 L1692437 1527746 L1692437 1529985 L1692885 1530881 L1693333 1531329 L1694229 1531777 L1695125 1531777 L1696469 1531329 L1701845 1525954 L1701845 1531777 "/>
<path d="M1692437 1534913 L1692437 1540737 L1696021 1537601 L1696021 1538945 L1696469 1539841 L1696917 1540289 L1697813 1540737 L1700053 1540737 L1700949 1540289 L1701397 1539841 L1701845 1538945 L1701845 1536257 L1701397 1535361 L1700949 1534913 "/>
</g><g transform="rotate(-90.000000 1710722.072934 1531253.779827)">
<text x="1710722.072934" y="1535957.655264" transform="scale(-1 1) translate(-3421444.145867 0)" textLength="24209.776520" font-size="12543.661564" lengthAdjust="spacingAndGlyphs" text-anchor="middle" opacity="0.01" style="font-family:monospace">240</text>
</g>
<g class="stroked-text"><desc>240</desc>
<path d="M1706466 1519606 L1706018 1520054 L1705570 1520950 L1705570 1523189 L1706018 1524085 L1706466 1524533 L1707362 1524981 L1708258 1524981 L1709602 1524533 L1714977 1519158 L1714977 1524981 "/>
<path d="M1708706 1533045 L1714977 1533045 "/>
<path d="M1705122 1530805 L1711842 1528565 L1711842 1534389 "/>
<path d="M1705570 1539765 L1705570 1540661 L1706018 1541557 L1706466 1542005 L1707362 1542453 L1709154 1542901 L1711394 1542901 L1713185 1542453 L1714081 1542005 L1714529 1541557 L1714977 1540661 L1714977 1539765 L1714529 1538869 L1714081 1538421 L1713185 1537973 L1711394 1537525 L1709154 1537525 L1707362 1537973 L1706466 1538421 L1706018 1538869 L1705570 1539765 "/>
</g><g transform="rotate(-90.000000 1595456.010972 933121.395617)">
<text x="1595456.010972" y="937825.271054" transform="scale(-1 1) translate(-3190912.021945 0)" textLength="24657.771819" font-size="12543.661564" lengthAdjust="spacingAndGlyphs" text-anchor="middle" opacity="0.01" style="font-family:monospace">R20</text>
</g>
<g class="stroked-text"><desc>R20</desc>
<path d="M1599711 927073 L1595232 923937 "/>
<path d="M1599711 921697 L1590304 921697 L1590304 925281 L1590752 926177 L1591200 926625 L1592096 927073 L1593440 927073 L1594336 926625 L1594784 926177 L1595232 925281 L1595232 921697 "/>
<path d="M1591200 930657 L1590752 931105 L1590304 932001 L1590304 934241 L1590752 935137 L1591200 935585 L1592096 936033 L1592992 936033 L1594336 935585 L1599711 930209 L1599711 936033 "/>
<path d="M1590304 941857 L1590304 942753 L1590752 943649 L1591200 944097 L1592096 944545 L1593888 944993 L1596127 944993 L1597919 944545 L1598815 944097 L1599263 943649 L1599711 942753 L1599711 941857 L1599263 940961 L1598815 940513 L1597919 940065 L1596127 939617 L1593888 939617 L1592096 940065 L1591200 940513 L1590752 940961 L1590304 941857 "/>
</g><g transform="rotate(-90.000000 1608588.658131 935509.149646)">
<text x="1608588.658131" y="940213.025083" transform="scale(-1 1) translate(-3217177.316262 0)" textLength="24209.776520" font-size="12543.661564" lengthAdjust="spacingAndGlyphs" text-anchor="middle" opacity="0.01" style="font-family:monospace">240</text>
</g>
<g class="stroked-text"><desc>240</desc>
<path d="M1604332 923861 L1603884 924309 L1603436 925205 L1603436 927445 L1603884 928341 L1604332 928789 L1605228 929237 L1606124 929237 L1607468 928789 L1612844 923413 L1612844 929237 "/>
<path d="M1606572 937301 L1612844 937301 "/>
<path d="M1602988 935061 L1609708 932821 L1609708 938645 "/>
<path d="M1603436 944020 L1603436 944916 L1603884 945812 L1604332 946260 L1605228 946708 L1607020 947156 L1609260 947156 L1611052 946708 L1611948 946260 L1612396 945812 L1612844 944916 L1612844 944020 L1612396 943124 L1611948 942676 L1611052 942228 L1609260 941780 L1607020 941780 L1605228 942228 L1604332 942676 L1603884 943124 L1603436 944020 "/>
</g></g>
<g style="fill:#000084; fill-opacity:0.01;  stroke:#000084; stroke-width:2820.181924; stroke-opacity:1;  stroke-linecap:round; stroke-linejoin:round;">
<text x="1162078.654749" y="890141.823099" transform="scale(-1 1) translate(-2324157.309497 0)" textLength="43948.549425" font-size="31836.714117" lengthAdjust="spacingAndGlyphs" text-anchor="middle" opacity="0.01" style="font-family:monospace">D7</text>
<g class="stroked-text"><desc>D7</desc>
<path d="M1179702 889004 L1179702 865127 L1174017 865127 L1170606 866264 L1168332 868538 L1167195 870812 L1166058 875360 L1166058 878771 L1167195 883319 L1168332 885593 L1170606 887867 L1174017 889004 L1179702 889004 "/>
<path d="M1158099 865127 L1142180 865127 L1152413 889004 "/>
</g><text x="1196939.863569" y="889186.721488" transform="scale(-1 1) translate(-2393879.727137 0)" textLength="20211.303787" font-size="31836.714117" lengthAdjust="spacingAndGlyphs" text-anchor="middle" opacity="0.01" style="font-family:monospace">K</text>
<g class="stroked-text"><desc>K</desc>
<path d="M1203193 888049 L1203193 864172 "/>
<path d="M1189549 888049 L1199782 874405 "/>
<path d="M1189549 864172 L1203193 877816 "/>
</g><text x="1159220.870399" y="989233.615294" transform="scale(-1 1) translate(-2318441.740798 0)" textLength="42951.821928" font-size="31836.714117" lengthAdjust="spacingAndGlyphs" text-anchor="middle" opacity="0.01" style="font-family:monospace">D4</text>
<g class="stroked-text"><desc>D4</desc>
<path d="M1176844 988096 L1176844 964219 L1171159 964219 L1167748 965356 L1165474 967630 L1164337 969904 L1163200 974452 L1163200 977863 L1164337 982411 L1165474 984685 L1167748 986959 L1171159 988096 L1176844 988096 "/>
<path d="M1142733 972178 L1142733 988096 "/>
<path d="M1148419 963082 L1154104 980137 L1139322 980137 "/>
</g><text x="1194082.079219" y="988278.513682" transform="scale(-1 1) translate(-2388164.158439 0)" textLength="20211.303787" font-size="31836.714117" lengthAdjust="spacingAndGlyphs" text-anchor="middle" opacity="0.01" style="font-family:monospace">K</text>
<g class="stroked-text"><desc>K</desc>
<path d="M1200335 987141 L1200335 963263 "/>
<path d="M1186691 987141 L1196924 973497 "/>
<path d="M1186691 963263 L1200335 976908 "/>
</g></g>
<g style="fill:#000084; fill-opacity:0.0;  stroke:#000084; stroke-width:2053.468465; stroke-opacity:1;  stroke-linecap:round; stroke-linejoin:round;">
<g transform="rotate(-90.000000 1903476.280685 758815.351516)">
<text x="1903476.280685" y="763519.226953" transform="scale(-1 1) translate(-3806952.561371 0)" textLength="14701.269947" font-size="12543.661564" lengthAdjust="spacingAndGlyphs" text-anchor="middle" opacity="0.01" style="font-family:monospace">R1</text>
</g>
<g class="stroked-text"><desc>R1</desc>
<path d="M1907732 757247 L1903252 754111 "/>
<path d="M1907732 751871 L1898324 751871 L1898324 755455 L1898772 756351 L1899220 756799 L1900116 757247 L1901460 757247 L1902356 756799 L1902804 756351 L1903252 755455 L1903252 751871 "/>
<path d="M1907732 766207 L1907732 760831 "/>
<path d="M1907732 763519 L1898324 763519 L1899668 762623 L1900564 761727 L1901012 760831 "/>
</g><g transform="rotate(-90.000000 1916608.927844 761203.105545)">
<text x="1916608.927844" y="765906.980982" transform="scale(-1 1) translate(-3833217.855687 0)" textLength="24209.776520" font-size="12543.661564" lengthAdjust="spacingAndGlyphs" text-anchor="middle" opacity="0.01" style="font-family:monospace">800</text>
</g>
<g class="stroked-text"><desc>800</desc>
<path d="M1915488 751347 L1915040 750451 L1914592 750003 L1913696 749555 L1913249 749555 L1912353 750003 L1911905 750451 L1911457 751347 L1911457 753139 L1911905 754035 L1912353 754483 L1913249 754931 L1913696 754931 L1914592 754483 L1915040 754035 L1915488 753139 L1915488 751347 L1915936 750451 L1916384 750003 L1917280 749555 L1919072 749555 L1919968 750003 L1920416 750451 L1920864 751347 L1920864 753139 L1920416 754035 L1919968 754483 L1919072 754931 L1917280 754931 L1916384 754483 L1915936 754035 L1915488 753139 "/>
<path d="M1911457 760755 L1911457 761651 L1911905 762547 L1912353 762995 L1913249 763443 L1915040 763891 L1917280 763891 L1919072 763443 L1919968 762995 L1920416 762547 L1920864 761651 L1920864 760755 L1920416 759859 L1919968 759411 L1919072 758963 L1917280 758515 L1915040 758515 L1913249 758963 L1912353 759411 L1911905 759859 L1911457 760755 "/>
<path d="M1911457 769714 L1911457 770610 L1911905 771506 L1912353 771954 L1913249 772402 L1915040 772850 L1917280 772850 L1919072 772402 L1919968 771954 L1920416 771506 L1920864 770610 L1920864 769714 L1920416 768818 L1919968 768370 L1919072 767922 L1917280 767474 L1915040 767474 L1913249 767922 L1912353 768370 L1911905 768818 L1911457 769714 "/>
</g></g>
<g style="fill:#000084; fill-opacity:0.01;  stroke:#000084; stroke-width:2820.181924; stroke-opacity:1;  stroke-linecap:round; stroke-linejoin:round;">
<text x="1162078.654749" y="608386.847703" transform="scale(-1 1) translate(-2324157.309497 0)" textLength="43948.549425" font-size="31836.714117" lengthAdjust="spacingAndGlyphs" text-anchor="middle" opacity="0.01" style="font-family:monospace">D6</text>
<g class="stroked-text"><desc>D6</desc>
<path d="M1179702 607249 L1179702 583372 L1174017 583372 L1170606 584509 L1168332 586783 L1167195 589057 L1166058 593605 L1166058 597016 L1167195 601564 L1168332 603838 L1170606 606112 L1174017 607249 L1179702 607249 "/>
<path d="M1145591 583372 L1150139 583372 L1152413 584509 L1153550 585646 L1155824 589057 L1156962 593605 L1156962 602701 L1155824 604975 L1154687 606112 L1152413 607249 L1147865 607249 L1145591 606112 L1144454 604975 L1143317 602701 L1143317 597016 L1144454 594742 L1145591 593605 L1147865 592468 L1152413 592468 L1154687 593605 L1155824 594742 L1156962 597016 "/>
</g><text x="1196939.863569" y="607431.746091" transform="scale(-1 1) translate(-2393879.727137 0)" textLength="20211.303787" font-size="31836.714117" lengthAdjust="spacingAndGlyphs" text-anchor="middle" opacity="0.01" style="font-family:monospace">K</text>
<g class="stroked-text"><desc>K</desc>
<path d="M1203193 606294 L1203193 582417 "/>
<path d="M1189549 606294 L1199782 592650 "/>
<path d="M1189549 582417 L1203193 596061 "/>
</g></g>
<g style="fill:#000084; fill-opacity:0.0;  stroke:#000084; stroke-width:2053.468465; stroke-opacity:1;  stroke-linecap:round; stroke-linejoin:round;">
<g transform="rotate(-90.000000 1468905.047447 1530059.902813)">
<text x="1468905.047447" y="1534763.778249" transform="scale(-1 1) translate(-2937810.094894 0)" textLength="23661.044322" font-size="12543.661564" lengthAdjust="spacingAndGlyphs" text-anchor="middle" opacity="0.01" style="font-family:monospace">R22</text>
</g>
<g class="stroked-text"><desc>R22</desc>
<path d="M1473160 1524012 L1468681 1520876 "/>
<path d="M1473160 1518636 L1463753 1518636 L1463753 1522220 L1464201 1523116 L1464649 1523564 L1465545 1524012 L1466889 1524012 L1467785 1523564 L1468233 1523116 L1468681 1522220 L1468681 1518636 "/>
<path d="M1464649 1527595 L1464201 1528043 L1463753 1528939 L1463753 1531179 L1464201 1532075 L1464649 1532523 L1465545 1532971 L1466441 1532971 L1467785 1532523 L1473160 1527147 L1473160 1532971 "/>
<path d="M1464649 1536555 L1464201 1537003 L1463753 1537899 L1463753 1540139 L1464201 1541035 L1464649 1541483 L1465545 1541931 L1466441 1541931 L1467785 1541483 L1473160 1536107 L1473160 1541931 "/>
</g><g transform="rotate(-90.000000 1482037.694605 1532447.656842)">
<text x="1482037.694605" y="1537151.532278" transform="scale(-1 1) translate(-2964075.389211 0)" textLength="24209.776520" font-size="12543.661564" lengthAdjust="spacingAndGlyphs" text-anchor="middle" opacity="0.01" style="font-family:monospace">240</text>
</g>
<g class="stroked-text"><desc>240</desc>
<path d="M1477781 1520799 L1477333 1521247 L1476885 1522143 L1476885 1524383 L1477333 1525279 L1477781 1525727 L1478677 1526175 L1479573 1526175 L1480917 1525727 L1486293 1520351 L1486293 1526175 "/>
<path d="M1480021 1534239 L1486293 1534239 "/>
<path d="M1476437 1531999 L1483157 1529759 L1483157 1535583 "/>
<path d="M1476885 1540959 L1476885 1541855 L1477333 1542751 L1477781 1543199 L1478677 1543647 L1480469 1544095 L1482709 1544095 L1484501 1543647 L1485397 1543199 L1485845 1542751 L1486293 1541855 L1486293 1540959 L1485845 1540063 L1485397 1539615 L1484501 1539167 L1482709 1538719 L1480469 1538719 L1478677 1539167 L1477781 1539615 L1477333 1540063 L1476885 1540959 "/>
</g></g>
<g style="fill:#000084; fill-opacity:0.01;  stroke:#000084; stroke-width:2820.181924; stroke-opacity:1;  stroke-linecap:round; stroke-linejoin:round;">
<text x="1372669.159481" y="419406.080968" transform="scale(-1 1) translate(-2745338.318961 0)" textLength="84174.195493" font-size="25068.277500" lengthAdjust="spacingAndGlyphs" text-anchor="middle" opacity="0.01" style="font-family:monospace">100nF</text>
<g class="stroked-text"><desc>100nF</desc>
<path d="M1401766 418510 L1412509 418510 "/>
<path d="M1407138 418510 L1407138 399709 L1408928 402395 L1410719 404186 L1412509 405081 "/>
<path d="M1390127 399709 L1388336 399709 L1386546 400604 L1385650 401500 L1384755 403290 L1383860 406871 L1383860 411348 L1384755 414929 L1385650 416720 L1386546 417615 L1388336 418510 L1390127 418510 L1391918 417615 L1392813 416720 L1393708 414929 L1394603 411348 L1394603 406871 L1393708 403290 L1392813 401500 L1391918 400604 L1390127 399709 "/>
<path d="M1372221 399709 L1370430 399709 L1368640 400604 L1367745 401500 L1366849 403290 L1365954 406871 L1365954 411348 L1366849 414929 L1367745 416720 L1368640 417615 L1370430 418510 L1372221 418510 L1374012 417615 L1374907 416720 L1375802 414929 L1376697 411348 L1376697 406871 L1375802 403290 L1374907 401500 L1374012 400604 L1372221 399709 "/>
<path d="M1357896 405976 L1357896 418510 "/>
<path d="M1357896 407767 L1357001 406871 L1355210 405976 L1352524 405976 L1350734 406871 L1349839 408662 L1349839 418510 "/>
<path d="M1334619 408662 L1340886 408662 "/>
<path d="M1340886 418510 L1340886 399709 L1331933 399709 "/>
</g></g>
<g style="fill:#000084; fill-opacity:0.01;  stroke:#000084; stroke-width:1504.097026; stroke-opacity:1;  stroke-linecap:round; stroke-linejoin:round;">
<text x="1372669.159481" y="446291.815307" transform="scale(-1 1) translate(-2745338.318961 0)" textLength="14687.319447" font-size="12534.129349" lengthAdjust="spacingAndGlyphs" text-anchor="middle" opacity="0.01" style="font-family:monospace">C2</text>
<g class="stroked-text"><desc>C2</desc>
<path d="M1374235 444948 L1374683 445396 L1376026 445844 L1376921 445844 L1378264 445396 L1379160 444501 L1379607 443605 L1380055 441815 L1380055 440472 L1379607 438681 L1379160 437786 L1378264 436891 L1376921 436443 L1376026 436443 L1374683 436891 L1374235 437338 "/>
<path d="M1370654 437338 L1370207 436891 L1369311 436443 L1367073 436443 L1366178 436891 L1365730 437338 L1365282 438234 L1365282 439129 L1365730 440472 L1371102 445844 L1365282 445844 "/>
</g></g>
<g style="fill:#000084; fill-opacity:0.01;  stroke:#000084; stroke-width:2820.181924; stroke-opacity:1;  stroke-linecap:round; stroke-linejoin:round;">
<g transform="rotate(-90.000000 1335914.668529 1791518.968964)">
<text x="1335914.668529" y="1803457.739108" transform="scale(-1 1) translate(-2671829.337058 0)" textLength="44662.732295" font-size="31836.714117" lengthAdjust="spacingAndGlyphs" text-anchor="middle" opacity="0.01" style="font-family:monospace">D2</text>
</g>
<g class="stroked-text"><desc>D2</desc>
<path d="M1346716 1773895 L1322838 1773895 L1322838 1779580 L1323975 1782991 L1326249 1785265 L1328523 1786402 L1333072 1787539 L1336483 1787539 L1341031 1786402 L1343305 1785265 L1345579 1782991 L1346716 1779580 L1346716 1773895 "/>
<path d="M1325112 1796635 L1323975 1797772 L1322838 1800046 L1322838 1805731 L1323975 1808005 L1325112 1809142 L1327386 1810279 L1329661 1810279 L1333072 1809142 L1346716 1795498 L1346716 1810279 "/>
</g><g transform="rotate(-90.000000 1334959.566917 1756657.760144)">
<text x="1334959.566917" y="1768596.530288" transform="scale(-1 1) translate(-2669919.133835 0)" textLength="20211.303787" font-size="31836.714117" lengthAdjust="spacingAndGlyphs" text-anchor="middle" opacity="0.01" style="font-family:monospace">K</text>
</g>
<g class="stroked-text"><desc>K</desc>
<path d="M1345761 1750404 L1321883 1750404 "/>
<path d="M1345761 1764048 L1332116 1753815 "/>
<path d="M1321883 1764048 L1335528 1750404 "/>
</g><g transform="rotate(-90.000000 1909445.665757 854325.512667)">
<text x="1909445.665757" y="866264.282811" transform="scale(-1 1) translate(-3818891.331515 0)" textLength="42951.821928" font-size="31836.714117" lengthAdjust="spacingAndGlyphs" text-anchor="middle" opacity="0.01" style="font-family:monospace">D1</text>
</g>
<g class="stroked-text"><desc>D1</desc>
<path d="M1920247 836701 L1896369 836701 L1896369 842386 L1897506 845797 L1899780 848071 L1902054 849208 L1906603 850345 L1910014 850345 L1914562 849208 L1916836 848071 L1919110 845797 L1920247 842386 L1920247 836701 "/>
<path d="M1920247 873086 L1920247 859442 "/>
<path d="M1920247 866264 L1896369 866264 L1899780 863990 L1902054 861716 L1903192 859442 "/>
</g><g transform="rotate(-90.000000 1910400.767369 889186.721488)">
<text x="1910400.767369" y="901125.491632" transform="scale(-1 1) translate(-3820801.534738 0)" textLength="20211.303787" font-size="31836.714117" lengthAdjust="spacingAndGlyphs" text-anchor="middle" opacity="0.01" style="font-family:monospace">K</text>
</g>
<g class="stroked-text"><desc>K</desc>
<path d="M1921202 882933 L1897324 882933 "/>
<path d="M1921202 896577 L1907558 886344 "/>
<path d="M1897324 896577 L1910969 882933 "/>
</g><text x="1550329.452757" y="395016.583655" transform="scale(-1 1) translate(-3100658.905514 0)" textLength="133314.022996" font-size="25068.277500" lengthAdjust="spacingAndGlyphs" text-anchor="middle" opacity="0.01" style="font-family:monospace">LTV-357T</text>
<g class="stroked-text"><desc>LTV-357T</desc>
<path d="M1605390 394121 L1614343 394121 L1614343 375320 "/>
<path d="M1601808 375320 L1591065 375320 "/>
<path d="M1596437 394121 L1596437 375320 "/>
<path d="M1587484 375320 L1581217 394121 L1574950 375320 "/>
<path d="M1568683 386958 L1554358 386958 "/>
<path d="M1547195 375320 L1535557 375320 L1541824 382482 L1539138 382482 L1537347 383377 L1536452 384273 L1535557 386063 L1535557 390540 L1536452 392330 L1537347 393225 L1539138 394121 L1544510 394121 L1546300 393225 L1547195 392330 "/>
<path d="M1518546 375320 L1527499 375320 L1528394 384273 L1527499 383377 L1525708 382482 L1521232 382482 L1519441 383377 L1518546 384273 L1517651 386063 L1517651 390540 L1518546 392330 L1519441 393225 L1521232 394121 L1525708 394121 L1527499 393225 L1528394 392330 "/>
<path d="M1511384 375320 L1498849 375320 L1506907 394121 "/>
<path d="M1494373 375320 L1483629 375320 "/>
<path d="M1489001 394121 L1489001 375320 "/>
</g><text x="1550329.452757" y="448882.058398" transform="scale(-1 1) translate(-3100658.905514 0)" textLength="33936.189149" font-size="25068.277500" lengthAdjust="spacingAndGlyphs" text-anchor="middle" opacity="0.01" style="font-family:monospace">U3</text>
<g class="stroked-text"><desc>U3</desc>
<path d="M1564654 429185 L1564654 444405 L1563758 446196 L1562863 447091 L1561072 447986 L1557491 447986 L1555701 447091 L1554805 446196 L1553910 444405 L1553910 429185 "/>
<path d="M1546748 429185 L1535109 429185 L1541376 436347 L1538690 436347 L1536900 437243 L1536004 438138 L1535109 439929 L1535109 444405 L1536004 446196 L1536900 447091 L1538690 447986 L1544062 447986 L1545852 447091 L1546748 446196 "/>
</g></g>
<g style="fill:#000084; fill-opacity:0.01;  stroke:#000084; stroke-width:5730.609669; stroke-opacity:1;  stroke-linecap:round; stroke-linejoin:round;">
<text x="1483955.418313" y="1884641.376087" transform="scale(-1 1) translate(-2967910.836627 0)" textLength="48182.131324" font-size="38204.064461" lengthAdjust="spacingAndGlyphs" text-anchor="middle" opacity="0.01" style="font-family:monospace">F4</text>
<g class="stroked-text"><desc>F4</desc>
<path d="M1493506 1868268 L1503057 1868268 "/>
<path d="M1503057 1883276 L1503057 1854623 L1489413 1854623 "/>
<path d="M1466217 1864174 L1466217 1883276 "/>
<path d="M1473039 1853259 L1479862 1873725 L1462124 1873725 "/>
</g></g>
<g style="fill:#000084; fill-opacity:0.01;  stroke:#000084; stroke-width:2820.181924; stroke-opacity:1;  stroke-linecap:round; stroke-linejoin:round;">
<text x="1681198.942061" y="1269531.496696" transform="scale(-1 1) translate(-3362397.884122 0)" textLength="129530.466927" font-size="25068.277500" lengthAdjust="spacingAndGlyphs" text-anchor="middle" opacity="0.01" style="font-family:monospace">LTV-357T</text>
<g class="stroked-text"><desc>LTV-357T</desc>
<path d="M1736259 1268636 L1745212 1268636 L1745212 1249834 "/>
<path d="M1732678 1249834 L1721934 1249834 "/>
<path d="M1727306 1268636 L1727306 1249834 "/>
<path d="M1718353 1249834 L1712086 1268636 L1705819 1249834 "/>
<path d="M1699552 1261473 L1685227 1261473 "/>
<path d="M1678065 1249834 L1666426 1249834 L1672693 1256997 L1670007 1256997 L1668217 1257892 L1667321 1258787 L1666426 1260578 L1666426 1265055 L1667321 1266845 L1668217 1267740 L1670007 1268636 L1675379 1268636 L1677170 1267740 L1678065 1266845 "/>
<path d="M1649415 1249834 L1658368 1249834 L1659264 1258787 L1658368 1257892 L1656578 1256997 L1652101 1256997 L1650311 1257892 L1649415 1258787 L1648520 1260578 L1648520 1265055 L1649415 1266845 L1650311 1267740 L1652101 1268636 L1656578 1268636 L1658368 1267740 L1659264 1266845 "/>
<path d="M1642253 1249834 L1629719 1249834 L1637777 1268636 "/>
<path d="M1625242 1249834 L1614499 1249834 "/>
<path d="M1619871 1268636 L1619871 1249834 "/>
</g><text x="1586628.841551" y="1337723.495612" transform="scale(-1 1) translate(-3173257.683102 0)" textLength="33936.189149" font-size="25068.277500" lengthAdjust="spacingAndGlyphs" text-anchor="middle" opacity="0.01" style="font-family:monospace">U6</text>
<g class="stroked-text"><desc>U6</desc>
<path d="M1600953 1318026 L1600953 1333247 L1600058 1335037 L1599162 1335932 L1597372 1336828 L1593791 1336828 L1592000 1335932 L1591105 1335037 L1590210 1333247 L1590210 1318026 "/>
<path d="M1573199 1318026 L1576780 1318026 L1578571 1318922 L1579466 1319817 L1581257 1322503 L1582152 1326084 L1582152 1333247 L1581257 1335037 L1580361 1335932 L1578571 1336828 L1574989 1336828 L1573199 1335932 L1572304 1335037 L1571408 1333247 L1571408 1328770 L1572304 1326979 L1573199 1326084 L1574989 1325189 L1578571 1325189 L1580361 1326084 L1581257 1326979 L1582152 1328770 "/>
</g><text x="1416018.288638" y="518582.854644" transform="scale(-1 1) translate(-2832036.577276 0)" textLength="133314.022996" font-size="25068.277500" lengthAdjust="spacingAndGlyphs" text-anchor="middle" opacity="0.01" style="font-family:monospace">LTV-357T</text>
<g class="stroked-text"><desc>LTV-357T</desc>
<path d="M1471078 517687 L1480031 517687 L1480031 498886 "/>
<path d="M1467497 498886 L1456754 498886 "/>
<path d="M1462126 517687 L1462126 498886 "/>
<path d="M1453173 498886 L1446905 517687 L1440638 498886 "/>
<path d="M1434371 510525 L1420047 510525 "/>
<path d="M1412884 498886 L1401245 498886 L1407512 506048 L1404827 506048 L1403036 506944 L1402141 507839 L1401245 509629 L1401245 514106 L1402141 515896 L1403036 516792 L1404827 517687 L1410198 517687 L1411989 516792 L1412884 515896 "/>
<path d="M1384235 498886 L1393188 498886 L1394083 507839 L1393188 506944 L1391397 506048 L1386921 506048 L1385130 506944 L1384235 507839 L1383339 509629 L1383339 514106 L1384235 515896 L1385130 516792 L1386921 517687 L1391397 517687 L1393188 516792 L1394083 515896 "/>
<path d="M1377072 498886 L1364538 498886 L1372596 517687 "/>
<path d="M1360062 498886 L1349318 498886 "/>
<path d="M1354690 517687 L1354690 498886 "/>
</g><text x="1476792.156227" y="751529.881546" transform="scale(-1 1) translate(-2953584.312454 0)" textLength="33936.189149" font-size="25068.277500" lengthAdjust="spacingAndGlyphs" text-anchor="middle" opacity="0.01" style="font-family:monospace">U1</text>
<g class="stroked-text"><desc>U1</desc>
<path d="M1491116 731833 L1491116 747053 L1490221 748843 L1489326 749739 L1487535 750634 L1483954 750634 L1482163 749739 L1481268 748843 L1480373 747053 L1480373 731833 "/>
<path d="M1461572 750634 L1472315 750634 "/>
<path d="M1466943 750634 L1466943 731833 L1468734 734519 L1470525 736309 L1472315 737205 "/>
</g></g>
<g style="fill:#000084; fill-opacity:0.0;  stroke:#000084; stroke-width:2053.468465; stroke-opacity:1;  stroke-linecap:round; stroke-linejoin:round;">
<g transform="rotate(-90.000000 1635577.799141 1138468.242093)">
<text x="1635577.799141" y="1143172.117529" transform="scale(-1 1) translate(-3271155.598282 0)" textLength="23661.044322" font-size="12543.661564" lengthAdjust="spacingAndGlyphs" text-anchor="middle" opacity="0.01" style="font-family:monospace">R14</text>
</g>
<g class="stroked-text"><desc>R14</desc>
<path d="M1639833 1132420 L1635353 1129284 "/>
<path d="M1639833 1127044 L1630425 1127044 L1630425 1130628 L1630873 1131524 L1631321 1131972 L1632217 1132420 L1633561 1132420 L1634457 1131972 L1634905 1131524 L1635353 1130628 L1635353 1127044 "/>
<path d="M1639833 1141380 L1639833 1136004 "/>
<path d="M1639833 1138692 L1630425 1138692 L1631769 1137796 L1632665 1136900 L1633113 1136004 "/>
<path d="M1633561 1149443 L1639833 1149443 "/>
<path d="M1629977 1147204 L1636697 1144964 L1636697 1150787 "/>
</g><g transform="rotate(-90.000000 1648710.446299 1140855.996121)">
<text x="1648710.446299" y="1145559.871558" transform="scale(-1 1) translate(-3297420.892599 0)" textLength="24209.776520" font-size="12543.661564" lengthAdjust="spacingAndGlyphs" text-anchor="middle" opacity="0.01" style="font-family:monospace">240</text>
</g>
<g class="stroked-text"><desc>240</desc>
<path d="M1644454 1129208 L1644006 1129656 L1643558 1130552 L1643558 1132792 L1644006 1133688 L1644454 1134136 L1645350 1134584 L1646246 1134584 L1647590 1134136 L1652966 1128760 L1652966 1134584 "/>
<path d="M1646694 1142647 L1652966 1142647 "/>
<path d="M1643110 1140408 L1649830 1138168 L1649830 1143991 "/>
<path d="M1643558 1149367 L1643558 1150263 L1644006 1151159 L1644454 1151607 L1645350 1152055 L1647142 1152503 L1649382 1152503 L1651174 1152055 L1652070 1151607 L1652518 1151159 L1652966 1150263 L1652966 1149367 L1652518 1148471 L1652070 1148023 L1651174 1147575 L1649382 1147127 L1647142 1147127 L1645350 1147575 L1644454 1148023 L1644006 1148471 L1643558 1149367 "/>
</g><g transform="rotate(-90.000000 1404505.666784 1128917.225977)">
<text x="1404505.666784" y="1133621.101414" transform="scale(-1 1) translate(-2809011.333568 0)" textLength="24657.771819" font-size="12543.661564" lengthAdjust="spacingAndGlyphs" text-anchor="middle" opacity="0.01" style="font-family:monospace">R10</text>
</g>
<g class="stroked-text"><desc>R10</desc>
<path d="M1408761 1122869 L1404281 1119733 "/>
<path d="M1408761 1117493 L1399353 1117493 L1399353 1121077 L1399801 1121973 L1400249 1122421 L1401145 1122869 L1402489 1122869 L1403385 1122421 L1403833 1121973 L1404281 1121077 L1404281 1117493 "/>
<path d="M1408761 1131829 L1408761 1126453 "/>
<path d="M1408761 1129141 L1399353 1129141 L1400697 1128245 L1401593 1127349 L1402041 1126453 "/>
<path d="M1399353 1137652 L1399353 1138548 L1399801 1139444 L1400249 1139892 L1401145 1140340 L1402937 1140788 L1405177 1140788 L1406969 1140340 L1407865 1139892 L1408313 1139444 L1408761 1138548 L1408761 1137652 L1408313 1136757 L1407865 1136309 L1406969 1135861 L1405177 1135413 L1402937 1135413 L1401145 1135861 L1400249 1136309 L1399801 1136757 L1399353 1137652 "/>
</g><g transform="rotate(-90.000000 1417638.313942 1131304.980006)">
<text x="1417638.313942" y="1136008.855443" transform="scale(-1 1) translate(-2835276.627885 0)" textLength="24209.776520" font-size="12543.661564" lengthAdjust="spacingAndGlyphs" text-anchor="middle" opacity="0.01" style="font-family:monospace">240</text>
</g>
<g class="stroked-text"><desc>240</desc>
<path d="M1413382 1119657 L1412934 1120105 L1412486 1121001 L1412486 1123241 L1412934 1124137 L1413382 1124585 L1414278 1125033 L1415174 1125033 L1416518 1124585 L1421894 1119209 L1421894 1125033 "/>
<path d="M1415622 1133096 L1421894 1133096 "/>
<path d="M1412038 1130856 L1418758 1128617 L1418758 1134440 "/>
<path d="M1412486 1139816 L1412486 1140712 L1412934 1141608 L1413382 1142056 L1414278 1142504 L1416070 1142952 L1418310 1142952 L1420102 1142504 L1420998 1142056 L1421446 1141608 L1421894 1140712 L1421894 1139816 L1421446 1138920 L1420998 1138472 L1420102 1138024 L1418310 1137576 L1416070 1137576 L1414278 1138024 L1413382 1138472 L1412934 1138920 L1412486 1139816 "/>
</g></g>
<g style="fill:#000084; fill-opacity:0.01;  stroke:#000084; stroke-width:2820.181924; stroke-opacity:1;  stroke-linecap:round; stroke-linejoin:round;">
<text x="1590394.310853" y="1261174.357595" transform="scale(-1 1) translate(-3180788.621707 0)" textLength="134310.750492" font-size="25068.277500" lengthAdjust="spacingAndGlyphs" text-anchor="middle" opacity="0.01" style="font-family:monospace">LTV-357T</text>
<g class="stroked-text"><desc>LTV-357T</desc>
<path d="M1645454 1260279 L1654407 1260279 L1654407 1241477 "/>
<path d="M1641873 1241477 L1631130 1241477 "/>
<path d="M1636502 1260279 L1636502 1241477 "/>
<path d="M1627549 1241477 L1621282 1260279 L1615014 1241477 "/>
<path d="M1608747 1253116 L1594423 1253116 "/>
<path d="M1587260 1241477 L1575621 1241477 L1581888 1248640 L1579203 1248640 L1577412 1249535 L1576517 1250430 L1575621 1252221 L1575621 1256697 L1576517 1258488 L1577412 1259383 L1579203 1260279 L1584574 1260279 L1586365 1259383 L1587260 1258488 "/>
<path d="M1558611 1241477 L1567564 1241477 L1568459 1250430 L1567564 1249535 L1565773 1248640 L1561297 1248640 L1559506 1249535 L1558611 1250430 L1557715 1252221 L1557715 1256697 L1558611 1258488 L1559506 1259383 L1561297 1260279 L1565773 1260279 L1567564 1259383 L1568459 1258488 "/>
<path d="M1551448 1241477 L1538914 1241477 L1546972 1260279 "/>
<path d="M1534438 1241477 L1523694 1241477 "/>
<path d="M1529066 1260279 L1529066 1241477 "/>
</g><text x="1584171.109408" y="1539488.711045" transform="scale(-1 1) translate(-3168342.218816 0)" textLength="33936.189149" font-size="25068.277500" lengthAdjust="spacingAndGlyphs" text-anchor="middle" opacity="0.01" style="font-family:monospace">U7</text>
<g class="stroked-text"><desc>U7</desc>
<path d="M1598495 1519792 L1598495 1535012 L1597600 1536802 L1596705 1537698 L1594914 1538593 L1591333 1538593 L1589542 1537698 L1588647 1536802 L1587752 1535012 L1587752 1519792 "/>
<path d="M1580589 1519792 L1568055 1519792 L1576113 1538593 "/>
</g></g>
<g style="fill:#000084; fill-opacity:0.0;  stroke:#000084; stroke-width:2053.468465; stroke-opacity:1;  stroke-linecap:round; stroke-linejoin:round;">
<g transform="rotate(-90.000000 1668466.347109 588090.938458)">
<text x="1668466.347109" y="592794.813895" transform="scale(-1 1) translate(-3336932.694219 0)" textLength="23661.044322" font-size="12543.661564" lengthAdjust="spacingAndGlyphs" text-anchor="middle" opacity="0.01" style="font-family:monospace">R19</text>
</g>
<g class="stroked-text"><desc>R19</desc>
<path d="M1672722 582043 L1668242 578907 "/>
<path d="M1672722 576667 L1663314 576667 L1663314 580251 L1663762 581147 L1664210 581595 L1665106 582043 L1666450 582043 L1667346 581595 L1667794 581147 L1668242 580251 L1668242 576667 "/>
<path d="M1672722 591002 L1672722 585627 "/>
<path d="M1672722 588314 L1663314 588314 L1664658 587418 L1665554 586522 L1666002 585627 "/>
<path d="M1672722 595482 L1672722 597274 L1672274 598170 L1671826 598618 L1670482 599514 L1668690 599962 L1665106 599962 L1664210 599514 L1663762 599066 L1663314 598170 L1663314 596378 L1663762 595482 L1664210 595034 L1665106 594586 L1667346 594586 L1668242 595034 L1668690 595482 L1669138 596378 L1669138 598170 L1668690 599066 L1668242 599514 L1667346 599962 "/>
</g><g transform="rotate(-90.000000 1681598.994268 590478.692487)">
<text x="1681598.994268" y="595182.567924" transform="scale(-1 1) translate(-3363197.988535 0)" textLength="24209.776520" font-size="12543.661564" lengthAdjust="spacingAndGlyphs" text-anchor="middle" opacity="0.01" style="font-family:monospace">240</text>
</g>
<g class="stroked-text"><desc>240</desc>
<path d="M1677343 578830 L1676895 579278 L1676447 580174 L1676447 582414 L1676895 583310 L1677343 583758 L1678239 584206 L1679135 584206 L1680479 583758 L1685854 578383 L1685854 584206 "/>
<path d="M1679583 592270 L1685854 592270 "/>
<path d="M1675999 590030 L1682718 587790 L1682718 593614 "/>
<path d="M1676447 598990 L1676447 599886 L1676895 600782 L1677343 601230 L1678239 601678 L1680031 602126 L1682270 602126 L1684062 601678 L1684958 601230 L1685406 600782 L1685854 599886 L1685854 598990 L1685406 598094 L1684958 597646 L1684062 597198 L1682270 596750 L1680031 596750 L1678239 597198 L1677343 597646 L1676895 598094 L1676447 598990 "/>
</g><g transform="rotate(-90.000000 1471362.779590 1330682.441409)">
<text x="1471362.779590" y="1335386.316846" transform="scale(-1 1) translate(-2942725.559180 0)" textLength="24657.771819" font-size="12543.661564" lengthAdjust="spacingAndGlyphs" text-anchor="middle" opacity="0.01" style="font-family:monospace">R18</text>
</g>
<g class="stroked-text"><desc>R18</desc>
<path d="M1475618 1324634 L1471138 1321498 "/>
<path d="M1475618 1319258 L1466210 1319258 L1466210 1322842 L1466658 1323738 L1467106 1324186 L1468002 1324634 L1469346 1324634 L1470242 1324186 L1470690 1323738 L1471138 1322842 L1471138 1319258 "/>
<path d="M1475618 1333594 L1475618 1328218 "/>
<path d="M1475618 1330906 L1466210 1330906 L1467554 1330010 L1468450 1329114 L1468898 1328218 "/>
<path d="M1470242 1338970 L1469794 1338074 L1469346 1337626 L1468450 1337178 L1468002 1337178 L1467106 1337626 L1466658 1338074 L1466210 1338970 L1466210 1340762 L1466658 1341658 L1467106 1342106 L1468002 1342554 L1468450 1342554 L1469346 1342106 L1469794 1341658 L1470242 1340762 L1470242 1338970 L1470690 1338074 L1471138 1337626 L1472034 1337178 L1473826 1337178 L1474722 1337626 L1475170 1338074 L1475618 1338970 L1475618 1340762 L1475170 1341658 L1474722 1342106 L1473826 1342554 L1472034 1342554 L1471138 1342106 L1470690 1341658 L1470242 1340762 "/>
</g><g transform="rotate(-90.000000 1484495.426748 1333070.195438)">
<text x="1484495.426748" y="1337774.070875" transform="scale(-1 1) translate(-2968990.853496 0)" textLength="24209.776520" font-size="12543.661564" lengthAdjust="spacingAndGlyphs" text-anchor="middle" opacity="0.01" style="font-family:monospace">240</text>
</g>
<g class="stroked-text"><desc>240</desc>
<path d="M1480239 1321422 L1479791 1321870 L1479343 1322766 L1479343 1325006 L1479791 1325902 L1480239 1326350 L1481135 1326798 L1482031 1326798 L1483375 1326350 L1488751 1320974 L1488751 1326798 "/>
<path d="M1482479 1334862 L1488751 1334862 "/>
<path d="M1478895 1332622 L1485615 1330382 L1485615 1336206 "/>
<path d="M1479343 1341581 L1479343 1342477 L1479791 1343373 L1480239 1343821 L1481135 1344269 L1482927 1344717 L1485167 1344717 L1486959 1344269 L1487855 1343821 L1488303 1343373 L1488751 1342477 L1488751 1341581 L1488303 1340685 L1487855 1340237 L1486959 1339790 L1485167 1339342 L1482927 1339342 L1481135 1339790 L1480239 1340237 L1479791 1340685 L1479343 1341581 "/>
</g><g transform="rotate(-90.000000 1361526.094266 748070.458387)">
<text x="1361526.094266" y="752774.333823" transform="scale(-1 1) translate(-2723052.188532 0)" textLength="15697.997443" font-size="12543.661564" lengthAdjust="spacingAndGlyphs" text-anchor="middle" opacity="0.01" style="font-family:monospace">R9</text>
</g>
<g class="stroked-text"><desc>R9</desc>
<path d="M1365781 746502 L1361302 743366 "/>
<path d="M1365781 741126 L1356374 741126 L1356374 744710 L1356822 745606 L1357270 746054 L1358166 746502 L1359510 746502 L1360406 746054 L1360854 745606 L1361302 744710 L1361302 741126 "/>
<path d="M1365781 750982 L1365781 752774 L1365333 753670 L1364886 754118 L1363542 755014 L1361750 755462 L1358166 755462 L1357270 755014 L1356822 754566 L1356374 753670 L1356374 751878 L1356822 750982 L1357270 750534 L1358166 750086 L1360406 750086 L1361302 750534 L1361750 750982 L1362198 751878 L1362198 753670 L1361750 754566 L1361302 755014 L1360406 755462 "/>
</g><g transform="rotate(-90.000000 1374658.741424 750458.212415)">
<text x="1374658.741424" y="755162.087852" transform="scale(-1 1) translate(-2749317.482849 0)" textLength="24209.776520" font-size="12543.661564" lengthAdjust="spacingAndGlyphs" text-anchor="middle" opacity="0.01" style="font-family:monospace">240</text>
</g>
<g class="stroked-text"><desc>240</desc>
<path d="M1370402 738810 L1369954 739258 L1369506 740154 L1369506 742394 L1369954 743290 L1370402 743738 L1371298 744186 L1372194 744186 L1373538 743738 L1378914 738362 L1378914 744186 "/>
<path d="M1372642 752250 L1378914 752250 "/>
<path d="M1369058 750010 L1375778 747770 L1375778 753594 "/>
<path d="M1369506 758969 L1369506 759865 L1369954 760761 L1370402 761209 L1371298 761657 L1373090 762105 L1375330 762105 L1377122 761657 L1378018 761209 L1378466 760761 L1378914 759865 L1378914 758969 L1378466 758074 L1378018 757626 L1377122 757178 L1375330 756730 L1373090 756730 L1371298 757178 L1370402 757626 L1369954 758074 L1369506 758969 "/>
</g><g transform="rotate(-90.000000 1700047.157918 1327100.810366)">
<text x="1700047.157918" y="1331804.685803" transform="scale(-1 1) translate(-3400094.315836 0)" textLength="24657.771819" font-size="12543.661564" lengthAdjust="spacingAndGlyphs" text-anchor="middle" opacity="0.01" style="font-family:monospace">R21</text>
</g>
<g class="stroked-text"><desc>R21</desc>
<path d="M1704303 1321052 L1699823 1317917 "/>
<path d="M1704303 1315677 L1694895 1315677 L1694895 1319261 L1695343 1320156 L1695791 1320604 L1696687 1321052 L1698031 1321052 L1698927 1320604 L1699375 1320156 L1699823 1319261 L1699823 1315677 "/>
<path d="M1695791 1324636 L1695343 1325084 L1694895 1325980 L1694895 1328220 L1695343 1329116 L1695791 1329564 L1696687 1330012 L1697583 1330012 L1698927 1329564 L1704303 1324188 L1704303 1330012 "/>
<path d="M1704303 1338972 L1704303 1333596 "/>
<path d="M1704303 1336284 L1694895 1336284 L1696239 1335388 L1697135 1334492 L1697583 1333596 "/>
</g><g transform="rotate(-90.000000 1713179.805077 1329488.564395)">
<text x="1713179.805077" y="1334192.439832" transform="scale(-1 1) translate(-3426359.610153 0)" textLength="24209.776520" font-size="12543.661564" lengthAdjust="spacingAndGlyphs" text-anchor="middle" opacity="0.01" style="font-family:monospace">240</text>
</g>
<g class="stroked-text"><desc>240</desc>
<path d="M1708923 1317840 L1708475 1318288 L1708027 1319184 L1708027 1321424 L1708475 1322320 L1708923 1322768 L1709819 1323216 L1710715 1323216 L1712059 1322768 L1717435 1317392 L1717435 1323216 "/>
<path d="M1711163 1331280 L1717435 1331280 "/>
<path d="M1707579 1329040 L1714299 1326800 L1714299 1332624 "/>
<path d="M1708027 1338000 L1708027 1338896 L1708475 1339792 L1708923 1340240 L1709819 1340688 L1711611 1341136 L1713851 1341136 L1715643 1340688 L1716539 1340240 L1716987 1339792 L1717435 1338896 L1717435 1338000 L1716987 1337104 L1716539 1336656 L1715643 1336208 L1713851 1335760 L1711611 1335760 L1709819 1336208 L1708923 1336656 L1708475 1337104 L1708027 1338000 "/>
</g></g>
<g style="fill:#000084; fill-opacity:0.0;  stroke:#000084; stroke-width:2820.181924; stroke-opacity:1;  stroke-linecap:round; stroke-linejoin:round;">
<path d="M1114801 471807 L1114801 525293 "/>
<path d="M1115756 525293 L1208878 525293 "/>
<path d="M1207923 471807 L1114801 471807 "/>
<path d="M1209356 525293 L1209356 471807 "/>
<path d="M1384679 928345 L1384679 909243 "/>
<path d="M1384679 966549 L1384679 947447 "/>
<path d="M1356026 947447 L1356026 966549 "/>
<path d="M1384679 909243 L1356026 909243 "/>
<path d="M1356026 966549 L1384679 966549 "/>
<path d="M1356026 909243 L1356026 928345 "/>
</g>
<g style="fill:#000084; fill-opacity:0.0;  stroke:#000084; stroke-width:2256.145539; stroke-opacity:1;  stroke-linecap:round; stroke-linejoin:round;">
<path d="M1561604 1172310 L1561604 1104626 "/>
<path d="M1493920 1172310 L1561604 1172310 "/>
<path d="M1478879 1157269 L1493920 1172310 "/>
<path d="M1478879 1104626 L1478879 1157269 "/>
<path d="M1561604 1104626 L1478879 1104626 "/>
</g>
<g style="fill:#000084; fill-opacity:0.0;  stroke:#000084; stroke-width:2820.181924; stroke-opacity:1;  stroke-linecap:round; stroke-linejoin:round;">
<path d="M1364567 497356 L1345465 497356 "/>
<path d="M1345465 497356 L1345465 526009 "/>
<path d="M1402771 526009 L1402771 497356 "/>
<path d="M1383669 526009 L1402771 526009 "/>
<path d="M1402771 497356 L1383669 497356 "/>
<path d="M1345465 526009 L1364567 526009 "/>
<path d="M1350241 1840467 L1321588 1840467 "/>
<path d="M1350241 1859569 L1350241 1840467 "/>
<path d="M1321588 1897774 L1350241 1897774 "/>
<path d="M1321588 1878671 L1321588 1897774 "/>
<path d="M1321588 1840467 L1321588 1859569 "/>
<path d="M1350241 1897774 L1350241 1878671 "/>
</g>
<g style="fill:#000084; fill-opacity:0.0;  stroke:#000084; stroke-width:1880.121283; stroke-opacity:1;  stroke-linecap:round; stroke-linejoin:round;">
<path d="M1320723 342603 L1320723 399007 "/>
<path d="M1407208 399007 L1407208 342603 "/>
<path d="M1373388 356698 L1373388 385828 "/>
<path d="M1351755 370786 L1373388 385828 "/>
<path d="M1407208 399007 L1320723 399007 "/>
<path d="M1373388 370786 L1392156 370786 "/>
<path d="M1351755 370786 L1373388 356698 "/>
<path d="M1351755 370786 L1334802 370786 "/>
<path d="M1407208 342603 L1320723 342603 "/>
<path d="M1351755 385828 L1351755 355743 "/>
</g>
<g style="fill:#000084; fill-opacity:0.0;  stroke:#000084; stroke-width:2256.145539; stroke-opacity:1;  stroke-linecap:round; stroke-linejoin:round;">
<path d="M1521012 969351 L1521012 901666 "/>
<path d="M1438287 901666 L1438287 954310 "/>
<path d="M1438287 954310 L1453328 969351 "/>
<path d="M1453328 969351 L1521012 969351 "/>
<path d="M1521012 901666 L1438287 901666 "/>
</g>
<g style="fill:#000084; fill-opacity:0.0;  stroke:#000084; stroke-width:2820.181924; stroke-opacity:1;  stroke-linecap:round; stroke-linejoin:round;">
<path d="M1207453 1141572 L1114331 1141572 "/>
<path d="M1114331 1141572 L1114331 1195058 "/>
<path d="M1115286 1195058 L1208408 1195058 "/>
<path d="M1208886 1195058 L1208886 1141572 "/>
<path d="M1431424 531978 L1460077 531978 "/>
<path d="M1431424 512876 L1431424 531978 "/>
<path d="M1460077 474672 L1431424 474672 "/>
<path d="M1460077 531978 L1460077 512876 "/>
<path d="M1460077 493774 L1460077 474672 "/>
<path d="M1431424 474672 L1431424 493774 "/>
</g>
<g style="fill:#000084; fill-opacity:0.0;  stroke:#000084; stroke-width:2256.145539; stroke-opacity:1;  stroke-linecap:round; stroke-linejoin:round;">
<path d="M1514155 554248 L1514155 606892 "/>
<path d="M1529196 621933 L1596880 621933 "/>
<path d="M1596880 554248 L1514155 554248 "/>
<path d="M1514155 606892 L1529196 621933 "/>
<path d="M1596880 621933 L1596880 554248 "/>
</g>
<g style="fill:#000084; fill-opacity:0.0;  stroke:#000084; stroke-width:2820.181924; stroke-opacity:1;  stroke-linecap:round; stroke-linejoin:round;">
<path d="M1460077 560631 L1431424 560631 "/>
<path d="M1460077 579733 L1460077 560631 "/>
<path d="M1431424 560631 L1431424 579733 "/>
<path d="M1431424 598835 L1431424 617937 "/>
<path d="M1431424 617937 L1460077 617937 "/>
<path d="M1460077 617937 L1460077 598835 "/>
<path d="M1209356 814211 L1209356 760725 "/>
<path d="M1207923 760725 L1114801 760725 "/>
<path d="M1115756 814211 L1208878 814211 "/>
<path d="M1114801 760725 L1114801 814211 "/>
<path d="M1205065 1046062 L1111943 1046062 "/>
<path d="M1112898 1099547 L1206020 1099547 "/>
<path d="M1206498 1099547 L1206498 1046062 "/>
<path d="M1111943 1046062 L1111943 1099547 "/>
<path d="M1674975 1906131 L1674975 1839274 "/>
<path d="M1674975 1839274 L1784812 1839274 "/>
<path d="M1784812 1906131 L1784812 1839274 "/>
<path d="M1674975 1906131 L1784812 1906131 "/>
<path d="M1684043 428708 L1684043 409606 "/>
<path d="M1655390 409606 L1655390 428708 "/>
<path d="M1655390 447810 L1655390 466912 "/>
<path d="M1655390 466912 L1684043 466912 "/>
<path d="M1684043 466912 L1684043 447810 "/>
<path d="M1684043 409606 L1655390 409606 "/>
<path d="M1682139 1674519 L1682139 1607661 "/>
<path d="M1791975 1674519 L1791975 1607661 "/>
<path d="M1682139 1607661 L1791975 1607661 "/>
<path d="M1682139 1674519 L1791975 1674519 "/>
<path d="M1584241 771947 L1612894 771947 "/>
<path d="M1612894 733743 L1612894 714641 "/>
<path d="M1612894 771947 L1612894 752845 "/>
<path d="M1584241 752845 L1584241 771947 "/>
<path d="M1584241 714641 L1584241 733743 "/>
<path d="M1612894 714641 L1584241 714641 "/>
<path d="M1689232 1500212 L1689232 1519315 "/>
<path d="M1717885 1500212 L1689232 1500212 "/>
<path d="M1689232 1538417 L1689232 1557519 "/>
<path d="M1717885 1519315 L1717885 1500212 "/>
<path d="M1689232 1557519 L1717885 1557519 "/>
<path d="M1717885 1557519 L1717885 1538417 "/>
<path d="M1615751 904468 L1587098 904468 "/>
<path d="M1615751 961774 L1615751 942672 "/>
<path d="M1587098 942672 L1587098 961774 "/>
<path d="M1587098 961774 L1615751 961774 "/>
<path d="M1587098 904468 L1587098 923570 "/>
<path d="M1615751 923570 L1615751 904468 "/>
<path d="M1207923 851460 L1114801 851460 "/>
<path d="M1209356 904945 L1209356 851460 "/>
<path d="M1114801 851460 L1114801 904945 "/>
<path d="M1115756 904945 L1208878 904945 "/>
<path d="M1206498 1004037 L1206498 950552 "/>
<path d="M1112898 1004037 L1206020 1004037 "/>
<path d="M1205065 950552 L1111943 950552 "/>
<path d="M1111943 950552 L1111943 1004037 "/>
<path d="M1895119 787468 L1923772 787468 "/>
<path d="M1895119 730162 L1895119 749264 "/>
<path d="M1923772 787468 L1923772 768366 "/>
<path d="M1923772 730162 L1895119 730162 "/>
<path d="M1923772 749264 L1923772 730162 "/>
<path d="M1895119 768366 L1895119 787468 "/>
<path d="M1209356 623190 L1209356 569705 "/>
<path d="M1115756 623190 L1208878 623190 "/>
<path d="M1207923 569705 L1114801 569705 "/>
<path d="M1114801 569705 L1114801 623190 "/>
<path d="M1460547 1558712 L1489200 1558712 "/>
<path d="M1489200 1501406 L1460547 1501406 "/>
<path d="M1489200 1558712 L1489200 1539610 "/>
<path d="M1460547 1501406 L1460547 1520508 "/>
<path d="M1460547 1539610 L1460547 1558712 "/>
<path d="M1489200 1520508 L1489200 1501406 "/>
</g>
<g style="fill:#000084; fill-opacity:0.0;  stroke:#000084; stroke-width:1880.121283; stroke-opacity:1;  stroke-linecap:round; stroke-linejoin:round;">
<path d="M1391470 453342 L1391470 429840 "/>
<path d="M1353867 429840 L1353867 453342 "/>
<path d="M1353867 453342 L1391470 453342 "/>
<path d="M1391470 429840 L1353867 429840 "/>
</g>
<g style="fill:#000084; fill-opacity:0.0;  stroke:#000084; stroke-width:2820.181924; stroke-opacity:1;  stroke-linecap:round; stroke-linejoin:round;">
<path d="M1309171 1838796 L1362657 1838796 "/>
<path d="M1362657 1837841 L1362657 1744718 "/>
<path d="M1309171 1745674 L1309171 1838796 "/>
<path d="M1362657 1744241 L1309171 1744241 "/>
<path d="M1882702 901603 L1936188 901603 "/>
<path d="M1936188 900170 L1936188 807047 "/>
<path d="M1936188 807047 L1882702 807047 "/>
<path d="M1882702 808003 L1882702 901125 "/>
</g>
<g style="fill:#000084; fill-opacity:0.0;  stroke:#000084; stroke-width:2256.145539; stroke-opacity:1;  stroke-linecap:round; stroke-linejoin:round;">
<path d="M1591692 472101 L1591692 404417 "/>
<path d="M1591692 404417 L1508966 404417 "/>
<path d="M1508966 457060 L1524007 472101 "/>
<path d="M1524007 472101 L1591692 472101 "/>
<path d="M1508966 404417 L1508966 457060 "/>
</g>
<g style="fill:#000084; fill-opacity:0.0;  stroke:#000084; stroke-width:2820.181924; stroke-opacity:1;  stroke-linecap:round; stroke-linejoin:round;">
<path d="M1538873 1903743 L1538873 1836886 "/>
<path d="M1429037 1903743 L1538873 1903743 "/>
<path d="M1429037 1903743 L1429037 1836886 "/>
<path d="M1429037 1836886 L1538873 1836886 "/>
</g>
<g style="fill:#000084; fill-opacity:0.0;  stroke:#000084; stroke-width:2256.145539; stroke-opacity:1;  stroke-linecap:round; stroke-linejoin:round;">
<path d="M1545266 1345902 L1560307 1360942 "/>
<path d="M1627991 1293258 L1545266 1293258 "/>
<path d="M1545266 1293258 L1545266 1345902 "/>
<path d="M1560307 1360942 L1627991 1360942 "/>
<path d="M1627991 1360942 L1627991 1293258 "/>
<path d="M1518154 707065 L1435429 707065 "/>
<path d="M1435429 707065 L1435429 759708 "/>
<path d="M1450470 774749 L1518154 774749 "/>
<path d="M1518154 774749 L1518154 707065 "/>
<path d="M1435429 759708 L1450470 774749 "/>
</g>
<g style="fill:#000084; fill-opacity:0.0;  stroke:#000084; stroke-width:2820.181924; stroke-opacity:1;  stroke-linecap:round; stroke-linejoin:round;">
<path d="M1655873 1128917 L1655873 1109815 "/>
<path d="M1627220 1148019 L1627220 1167121 "/>
<path d="M1627220 1109815 L1627220 1128917 "/>
<path d="M1627220 1167121 L1655873 1167121 "/>
<path d="M1655873 1167121 L1655873 1148019 "/>
<path d="M1655873 1109815 L1627220 1109815 "/>
<path d="M1424801 1100264 L1396148 1100264 "/>
<path d="M1396148 1100264 L1396148 1119366 "/>
<path d="M1396148 1138468 L1396148 1157570 "/>
<path d="M1424801 1119366 L1424801 1100264 "/>
<path d="M1396148 1157570 L1424801 1157570 "/>
<path d="M1424801 1157570 L1424801 1138468 "/>
</g>
<g style="fill:#000084; fill-opacity:0.0;  stroke:#000084; stroke-width:2256.145539; stroke-opacity:1;  stroke-linecap:round; stroke-linejoin:round;">
<path d="M1557849 1562708 L1625533 1562708 "/>
<path d="M1625533 1495023 L1542808 1495023 "/>
<path d="M1542808 1495023 L1542808 1547667 "/>
<path d="M1542808 1547667 L1557849 1562708 "/>
<path d="M1625533 1562708 L1625533 1495023 "/>
</g>
<g style="fill:#000084; fill-opacity:0.0;  stroke:#000084; stroke-width:2820.181924; stroke-opacity:1;  stroke-linecap:round; stroke-linejoin:round;">
<path d="M1660109 616743 L1688762 616743 "/>
<path d="M1688762 616743 L1688762 597641 "/>
<path d="M1660109 597641 L1660109 616743 "/>
<path d="M1688762 559437 L1660109 559437 "/>
<path d="M1688762 578539 L1688762 559437 "/>
<path d="M1660109 559437 L1660109 578539 "/>
<path d="M1463005 1359335 L1491658 1359335 "/>
<path d="M1463005 1302029 L1463005 1321131 "/>
<path d="M1463005 1340233 L1463005 1359335 "/>
<path d="M1491658 1359335 L1491658 1340233 "/>
<path d="M1491658 1302029 L1463005 1302029 "/>
<path d="M1491658 1321131 L1491658 1302029 "/>
<path d="M1381822 776723 L1381822 757621 "/>
<path d="M1353168 757621 L1353168 776723 "/>
<path d="M1381822 719417 L1353168 719417 "/>
<path d="M1353168 776723 L1381822 776723 "/>
<path d="M1381822 738519 L1381822 719417 "/>
<path d="M1353168 719417 L1353168 738519 "/>
<path d="M1691690 1336651 L1691690 1355753 "/>
<path d="M1720343 1298447 L1691690 1298447 "/>
<path d="M1720343 1355753 L1720343 1336651 "/>
<path d="M1691690 1355753 L1720343 1355753 "/>
<path d="M1720343 1317549 L1720343 1298447 "/>
<path d="M1691690 1298447 L1691690 1317549 "/>
<g>
</g>
<g>
</g>
<g>
</g>
<g>
</g>
<g>
</g>
<g>
</g>
<g>
</g>
<g>
</g>
<g>
</g>
<g>
</g>
<g>
</g>
<g>
</g>
<g>
</g>
<g>
</g>
<g>
</g>
<g>
</g>
<g>
</g>
<g>
</g>
<g>
</g>
<g>
</g>
<g>
</g>
<g>
</g>
<g>
</g>
<g>
</g>
<g>
</g>
<g>
</g>
<g>
</g>
<g>
</g>
<g>
</g>
<g>
</g>
<g>
</g>
<g>
</g>
<g>
</g>
<g>
</g>
<g>
</g>
<g>
</g>
<g>
</g>
<g>
</g>
<g>
</g>
<g>
</g>
<g>
</g>
<g>
</g>
<g>
</g>
<g>
</g>
<g>
</g>
<g>
</g>
<g>
</g>
<g>
</g>
<g>
</g>
<g>
</g>
<g>
</g>
<g>
</g>
<g>
</g>
<g>
</g>
<g>
</g>
<g>
</g>
<g>
</g>
<g>
</g>
<g>
</g>
<g>
</g>
<g>
</g>
<g>
</g>
<g>
</g>
<g>
</g>
<g>
</g>
<g>
</g>
<g>
</g>
<g>
</g>
<g>
</g>
<g>
</g>
<g>
</g>
<g>
</g>
<g>
</g>
<g>
</g>
<g>
</g>
</g> 
<svg:g><svg:g><svg:title>SVG Picture created as ISO11446PWR01-Edge_Cuts.svg date 2023/02/16 18:38:57 </svg:title>
  <svg:desc>Picture generated by PCBNEW </svg:desc>
<svg:g style="fill:#C2C200; fill-opacity:1.000000;stroke:#C2C200; stroke-opacity:1.000000; stroke-linecap:round; stroke-linejoin:round;" transform="translate(0 0) scale(1 1)">
</svg:g>
<svg:g style="fill:#C2C200; fill-opacity:0.0;  stroke:#C2C200; stroke-width:0.000000; stroke-opacity:1;  stroke-linecap:round; stroke-linejoin:round;">
</svg:g>
<svg:g style="fill:#C2C200; fill-opacity:0.0;  stroke:#C2C200; stroke-width:2820.181924; stroke-opacity:1;  stroke-linecap:round; stroke-linejoin:round;">
<svg:path d="M758078 270519 L2276689 270519 "/>
<svg:path d="M2276689 270519 L2276689 1980151 "/>
<svg:path d="M2276689 1980151 L758078 1980151 "/>
<svg:path d="M758078 1980151 L758078 270519 "/>
<svg:g>
</svg:g>
<svg:g>
</svg:g>
<svg:g>
</svg:g>
<svg:g>
</svg:g>
<svg:g>
</svg:g>
<svg:g>
</svg:g>
<svg:g>
</svg:g>
<svg:g>
</svg:g>
<svg:g>
</svg:g>
<svg:g>
</svg:g>
<svg:g>
</svg:g>
<svg:g>
</svg:g>
<svg:g>
</svg:g>
<svg:g>
</svg:g>
<svg:g>
</svg:g>
<svg:g>
</svg:g>
<svg:g>
</svg:g>
<svg:g>
</svg:g>
<svg:g>
</svg:g>
<svg:g>
</svg:g>
<svg:g>
</svg:g>
<svg:g>
</svg:g>
<svg:g>
</svg:g>
<svg:g>
</svg:g>
<svg:g>
</svg:g>
<svg:g>
</svg:g>
<svg:g>
</svg:g>
<svg:g>
</svg:g>
<svg:g>
</svg:g>
<svg:g>
</svg:g>
<svg:g>
</svg:g>
<svg:g>
</svg:g>
<svg:g>
</svg:g>
<svg:g>
</svg:g>
<svg:g>
</svg:g>
<svg:g>
</svg:g>
<svg:g>
</svg:g>
<svg:g>
</svg:g>
<svg:g>
</svg:g>
<svg:g>
</svg:g>
<svg:g>
</svg:g>
<svg:g>
</svg:g>
<svg:g>
</svg:g>
<svg:g>
</svg:g>
<svg:g>
</svg:g>
<svg:g>
</svg:g>
<svg:g>
</svg:g>
<svg:g>
</svg:g>
<svg:g>
</svg:g>
<svg:g>
</svg:g>
<svg:g>
</svg:g>
<svg:g>
</svg:g>
<svg:g>
</svg:g>
<svg:g>
</svg:g>
<svg:g>
</svg:g>
<svg:g>
</svg:g>
<svg:g>
</svg:g>
<svg:g>
</svg:g>
<svg:g>
</svg:g>
<svg:g>
</svg:g>
<svg:g>
</svg:g>
<svg:g>
</svg:g>
<svg:g>
</svg:g>
<svg:g>
</svg:g>
<svg:g>
</svg:g>
<svg:g>
</svg:g>
<svg:g>
</svg:g>
<svg:g>
</svg:g>
<svg:g>
</svg:g>
<svg:g>
</svg:g>
<svg:g>
</svg:g>
<svg:g>
</svg:g>
<svg:g>
</svg:g>
<svg:g>
</svg:g>
<svg:g>
</svg:g>
</svg:g> 
</svg:g></svg:g></svg>
