<?xml version='1.0' encoding='ASCII' standalone='yes'?>
<svg xmlns:svg="http://www.w3.org/2000/svg" xmlns="http://www.w3.org/2000/svg" xmlns:xlink="http://www.w3.org/1999/xlink" version="1.1" width="29.700220cm" height="21.000720cm" viewBox="0 0 2970022 2100072">
<title>SVG Picture created as ISO11446PWR01-B_Fab.svg date 2023/04/14 01:16:03 </title>
  <desc>Picture generated by PCBNEW </desc>
<g style="fill:#000084; fill-opacity:1.000000;stroke:#000084; stroke-opacity:1.000000; stroke-linecap:round; stroke-linejoin:round;" transform="translate(0 0) scale(1 1)">
</g>
<g style="fill:#000084; fill-opacity:0.0;  stroke:#000084; stroke-width:0.000000; stroke-opacity:1;  stroke-linecap:round; stroke-linejoin:round;">
</g>
<g style="fill:#000084; fill-opacity:0.01;  stroke:#000084; stroke-width:3458.422081; stroke-opacity:1;  stroke-linecap:round; stroke-linejoin:round;">
<text x="1691737.031466" y="963948.948201" transform="scale(-1 1) translate(-3383474.062932 0)" textLength="29281.283898" font-size="39041.734920" lengthAdjust="spacingAndGlyphs" text-anchor="middle" opacity="0.01" style="font-family:monospace">K</text>
<g class="stroked-text"><desc>K</desc>
<path d="M1699405 962554 L1699405 933273 "/>
<path d="M1682673 962554 L1695222 945822 "/>
<path d="M1682673 933273 L1699405 950005 "/>
</g><text x="1648986.323313" y="965120.200479" transform="scale(-1 1) translate(-3297972.646626 0)" textLength="52672.321644" font-size="39041.734920" lengthAdjust="spacingAndGlyphs" text-anchor="middle" opacity="0.01" style="font-family:monospace">D5</text>
<g class="stroked-text"><desc>D5</desc>
<path d="M1670598 963725 L1670598 934444 L1663626 934444 L1659443 935838 L1656655 938627 L1655260 941416 L1653866 946993 L1653866 951176 L1655260 956754 L1656655 959542 L1659443 962331 L1663626 963725 L1670598 963725 "/>
<path d="M1627373 934444 L1641317 934444 L1642711 948388 L1641317 946993 L1638528 945599 L1631556 945599 L1628768 946993 L1627373 948388 L1625979 951176 L1625979 958148 L1627373 960937 L1628768 962331 L1631556 963725 L1638528 963725 L1641317 962331 L1642711 960937 "/>
</g></g>
<g style="fill:#000084; fill-opacity:0.01;  stroke:#000084; stroke-width:2518.192398; stroke-opacity:1;  stroke-linecap:round; stroke-linejoin:round;">
<text x="2105774.711798" y="574126.908720" transform="scale(-1 1) translate(-4211549.423596 0)" textLength="29015.815419" font-size="15382.438901" lengthAdjust="spacingAndGlyphs" text-anchor="middle" opacity="0.01" style="font-family:monospace">R17</text>
<g class="stroked-text"><desc>R17</desc>
<path d="M2113191 573577 L2117036 568083 "/>
<path d="M2119783 573577 L2119783 562040 L2115388 562040 L2114289 562590 L2113740 563139 L2113191 564238 L2113191 565886 L2113740 566985 L2114289 567534 L2115388 568083 L2119783 568083 "/>
<path d="M2102203 573577 L2108796 573577 "/>
<path d="M2105500 573577 L2105500 562040 L2106598 563688 L2107697 564787 L2108796 565336 "/>
<path d="M2098358 562040 L2090666 562040 L2095611 573577 "/>
</g><text x="2102846.581103" y="590231.627544" transform="scale(-1 1) translate(-4205693.162205 0)" textLength="17053.156496" font-size="15382.438901" lengthAdjust="spacingAndGlyphs" text-anchor="middle" opacity="0.01" style="font-family:monospace">1k</text>
<g class="stroked-text"><desc>1k</desc>
<path d="M2104220 589682 L2110812 589682 "/>
<path d="M2107516 589682 L2107516 578145 L2108614 579793 L2109713 580892 L2110812 581441 "/>
<path d="M2099275 589682 L2099275 578145 "/>
<path d="M2098176 585287 L2094880 589682 "/>
<path d="M2094880 581991 L2099275 586386 "/>
</g></g>
<g style="fill:#000084; fill-opacity:0.01;  stroke:#000084; stroke-width:3458.422081; stroke-opacity:1;  stroke-linecap:round; stroke-linejoin:round;">
<text x="1678267.630267" y="430063.869919" transform="scale(-1 1) translate(-3356535.260534 0)" textLength="164706.844382" font-size="30741.521925" lengthAdjust="spacingAndGlyphs" text-anchor="middle" opacity="0.01" style="font-family:monospace">LTV-357T</text>
<g class="stroked-text"><desc>LTV-357T</desc>
<path d="M1745789 428965 L1756768 428965 L1756768 405909 "/>
<path d="M1741397 405909 L1728222 405909 "/>
<path d="M1734810 428965 L1734810 405909 "/>
<path d="M1723830 405909 L1716145 428965 L1708460 405909 "/>
<path d="M1700774 420182 L1683208 420182 "/>
<path d="M1674424 405909 L1660152 405909 L1667837 414693 L1664543 414693 L1662347 415791 L1661249 416888 L1660152 419084 L1660152 424574 L1661249 426770 L1662347 427868 L1664543 428965 L1671131 428965 L1673327 427868 L1674424 426770 "/>
<path d="M1639291 405909 L1650270 405909 L1651368 416888 L1650270 415791 L1648075 414693 L1642585 414693 L1640389 415791 L1639291 416888 L1638193 419084 L1638193 424574 L1639291 426770 L1640389 427868 L1642585 428965 L1648075 428965 L1650270 427868 L1651368 426770 "/>
<path d="M1630508 405909 L1615137 405909 L1625018 428965 "/>
<path d="M1609648 405909 L1596473 405909 "/>
<path d="M1603060 428965 L1603060 405909 "/>
</g><text x="1689980.153049" y="355431.121407" transform="scale(-1 1) translate(-3379960.306098 0)" textLength="41616.345710" font-size="30741.521925" lengthAdjust="spacingAndGlyphs" text-anchor="middle" opacity="0.01" style="font-family:monospace">U2</text>
<g class="stroked-text"><desc>U2</desc>
<path d="M1707546 331277 L1707546 349941 L1706448 352137 L1705350 353235 L1703155 354333 L1698763 354333 L1696567 353235 L1695469 352137 L1694371 349941 L1694371 331277 "/>
<path d="M1684490 333472 L1683392 332374 L1681196 331277 L1675707 331277 L1673511 332374 L1672413 333472 L1671315 335668 L1671315 337864 L1672413 341158 L1685588 354333 L1671315 354333 "/>
</g></g>
<g style="fill:#000084; fill-opacity:0.01;  stroke:#000084; stroke-width:2518.192398; stroke-opacity:1;  stroke-linecap:round; stroke-linejoin:round;">
<g transform="rotate(-90.000000 2045748.032542 745510.398322)">
<text x="2045748.032542" y="751278.815792" transform="scale(-1 1) translate(-4091496.065084 0)" textLength="18028.339299" font-size="15382.438901" lengthAdjust="spacingAndGlyphs" text-anchor="middle" opacity="0.01" style="font-family:monospace">C1</text>
</g>
<g class="stroked-text"><desc>C1</desc>
<path d="M2049868 743587 L2050417 743038 L2050967 741390 L2050967 740291 L2050417 738643 L2049318 737544 L2048220 736995 L2046022 736445 L2044374 736445 L2042177 736995 L2041078 737544 L2039979 738643 L2039430 740291 L2039430 741390 L2039979 743038 L2040528 743587 "/>
<path d="M2050967 754575 L2050967 747982 "/>
<path d="M2050967 751278 L2039430 751278 L2041078 750180 L2042177 749081 L2042726 747982 "/>
</g><g transform="rotate(-90.000000 2061852.751367 748438.529018)">
<text x="2061852.751367" y="754206.946488" transform="scale(-1 1) translate(-4123705.502734 0)" textLength="39028.085681" font-size="15382.438901" lengthAdjust="spacingAndGlyphs" text-anchor="middle" opacity="0.01" style="font-family:monospace">10uF</text>
</g>
<g class="stroked-text"><desc>10uF</desc>
<path d="M2067071 736077 L2067071 729485 "/>
<path d="M2067071 732781 L2055534 732781 L2057183 731682 L2058281 730583 L2058831 729485 "/>
<path d="M2055534 743219 L2055534 744318 L2056084 745416 L2056633 745966 L2057732 746515 L2059929 747065 L2062676 747065 L2064874 746515 L2065973 745966 L2066522 745416 L2067071 744318 L2067071 743219 L2066522 742120 L2065973 741571 L2064874 741021 L2062676 740472 L2059929 740472 L2057732 741021 L2056633 741571 L2056084 742120 L2055534 743219 "/>
<path d="M2059380 756953 L2067071 756953 "/>
<path d="M2059380 752009 L2065423 752009 L2066522 752558 L2067071 753657 L2067071 755305 L2066522 756404 L2065973 756953 "/>
<path d="M2061028 766293 L2061028 762447 "/>
<path d="M2067071 762447 L2055534 762447 L2055534 767941 "/>
</g><text x="2105774.711798" y="398439.066995" transform="scale(-1 1) translate(-4211549.423596 0)" textLength="30238.114007" font-size="15382.438901" lengthAdjust="spacingAndGlyphs" text-anchor="middle" opacity="0.01" style="font-family:monospace">R12</text>
<g class="stroked-text"><desc>R12</desc>
<path d="M2113191 397889 L2117036 392395 "/>
<path d="M2119783 397889 L2119783 386352 L2115388 386352 L2114289 386902 L2113740 387451 L2113191 388550 L2113191 390198 L2113740 391297 L2114289 391846 L2115388 392395 L2119783 392395 "/>
<path d="M2102203 397889 L2108796 397889 "/>
<path d="M2105500 397889 L2105500 386352 L2106598 388000 L2107697 389099 L2108796 389649 "/>
<path d="M2097808 387451 L2097259 386902 L2096160 386352 L2093413 386352 L2092315 386902 L2091765 387451 L2091216 388550 L2091216 389649 L2091765 391297 L2098358 397889 L2091216 397889 "/>
</g><text x="2102846.581103" y="414543.785819" transform="scale(-1 1) translate(-4205693.162205 0)" textLength="17053.156496" font-size="15382.438901" lengthAdjust="spacingAndGlyphs" text-anchor="middle" opacity="0.01" style="font-family:monospace">1k</text>
<g class="stroked-text"><desc>1k</desc>
<path d="M2104220 413994 L2110812 413994 "/>
<path d="M2107516 413994 L2107516 402457 L2108614 404105 L2109713 405204 L2110812 405753 "/>
<path d="M2099275 413994 L2099275 402457 "/>
<path d="M2098176 409599 L2094880 413994 "/>
<path d="M2094880 406303 L2099275 410698 "/>
</g></g>
<g style="fill:#000084; fill-opacity:0.01;  stroke:#000084; stroke-width:3458.422081; stroke-opacity:1;  stroke-linecap:round; stroke-linejoin:round;">
<g transform="rotate(-90.000000 1962238.667355 1502812.609517)">
<text x="1962238.667355" y="1517453.262994" transform="scale(-1 1) translate(-3924477.334709 0)" textLength="81781.583628" font-size="39041.734920" lengthAdjust="spacingAndGlyphs" text-anchor="middle" opacity="0.01" style="font-family:monospace">D10</text>
</g>
<g class="stroked-text"><desc>D10</desc>
<path d="M1975484 1467256 L1946203 1467256 L1946203 1474228 L1947598 1478411 L1950386 1481200 L1953175 1482594 L1958752 1483988 L1962935 1483988 L1968513 1482594 L1971301 1481200 L1974090 1478411 L1975484 1474228 L1975484 1467256 "/>
<path d="M1975484 1511875 L1975484 1495143 "/>
<path d="M1975484 1503509 L1946203 1503509 L1950386 1500721 L1953175 1497932 L1954569 1495143 "/>
<path d="M1946203 1530002 L1946203 1532791 L1947598 1535579 L1948992 1536974 L1951781 1538368 L1957358 1539762 L1964330 1539762 L1969907 1538368 L1972696 1536974 L1974090 1535579 L1975484 1532791 L1975484 1530002 L1974090 1527213 L1972696 1525819 L1969907 1524424 L1964330 1523030 L1957358 1523030 L1951781 1524424 L1948992 1525819 L1947598 1527213 L1946203 1530002 "/>
</g><g transform="rotate(-90.000000 1963409.919633 1545563.317670)">
<text x="1963409.919633" y="1560203.971147" transform="scale(-1 1) translate(-3926819.839266 0)" textLength="24785.358249" font-size="39041.734920" lengthAdjust="spacingAndGlyphs" text-anchor="middle" opacity="0.01" style="font-family:monospace">K</text>
</g>
<g class="stroked-text"><desc>K</desc>
<path d="M1976656 1537894 L1947374 1537894 "/>
<path d="M1976656 1554626 L1959924 1542077 "/>
<path d="M1947374 1554626 L1964107 1537894 "/>
</g><text x="1689980.153049" y="1096248.164292" transform="scale(-1 1) translate(-3379960.306098 0)" textLength="41616.345710" font-size="30741.521925" lengthAdjust="spacingAndGlyphs" text-anchor="middle" opacity="0.01" style="font-family:monospace">U5</text>
<g class="stroked-text"><desc>U5</desc>
<path d="M1707546 1072094 L1707546 1090758 L1706448 1092954 L1705350 1094052 L1703155 1095150 L1698763 1095150 L1696567 1094052 L1695469 1092954 L1694371 1090758 L1694371 1072094 "/>
<path d="M1672413 1072094 L1683392 1072094 L1684490 1083073 L1683392 1081975 L1681196 1080877 L1675707 1080877 L1673511 1081975 L1672413 1083073 L1671315 1085269 L1671315 1090758 L1672413 1092954 L1673511 1094052 L1675707 1095150 L1681196 1095150 L1683392 1094052 L1684490 1092954 "/>
</g><g transform="rotate(-90.000000 1944325.193781 1772343.581608)">
<text x="1944325.193781" y="1786984.235085" transform="scale(-1 1) translate(-3888650.387563 0)" textLength="24785.358249" font-size="39041.734920" lengthAdjust="spacingAndGlyphs" text-anchor="middle" opacity="0.01" style="font-family:monospace">K</text>
</g>
<g class="stroked-text"><desc>K</desc>
<path d="M1957571 1764674 L1928290 1764674 "/>
<path d="M1957571 1781406 L1940839 1768857 "/>
<path d="M1928290 1781406 L1945022 1764674 "/>
</g><g transform="rotate(-90.000000 1943153.941503 1729592.873455)">
<text x="1943153.941503" y="1744233.526932" transform="scale(-1 1) translate(-3886307.883007 0)" textLength="52672.321644" font-size="39041.734920" lengthAdjust="spacingAndGlyphs" text-anchor="middle" opacity="0.01" style="font-family:monospace">D9</text>
</g>
<g class="stroked-text"><desc>D9</desc>
<path d="M1956400 1707980 L1927118 1707980 L1927118 1714952 L1928513 1719135 L1931301 1721923 L1934090 1723318 L1939668 1724712 L1943851 1724712 L1949428 1723318 L1952217 1721923 L1955005 1719135 L1956400 1714952 L1956400 1707980 "/>
<path d="M1956400 1738656 L1956400 1744233 L1955005 1747022 L1953611 1748416 L1949428 1751205 L1943851 1752599 L1932696 1752599 L1929907 1751205 L1928513 1749810 L1927118 1747022 L1927118 1741444 L1928513 1738656 L1929907 1737261 L1932696 1735867 L1939668 1735867 L1942456 1737261 L1943851 1738656 L1945245 1741444 L1945245 1747022 L1943851 1749810 L1942456 1751205 L1939668 1752599 "/>
</g></g>
<g style="fill:#000084; fill-opacity:0.0;  stroke:#000084; stroke-width:2518.192398; stroke-opacity:1;  stroke-linecap:round; stroke-linejoin:round;">
<g transform="rotate(-90.000000 1750006.832305 441228.809205)">
<text x="1750006.832305" y="446997.226675" transform="scale(-1 1) translate(-3500013.664610 0)" textLength="29015.815419" font-size="15382.438901" lengthAdjust="spacingAndGlyphs" text-anchor="middle" opacity="0.01" style="font-family:monospace">R11</text>
</g>
<g class="stroked-text"><desc>R11</desc>
<path d="M1755225 433812 L1749732 429966 "/>
<path d="M1755225 427219 L1743689 427219 L1743689 431614 L1744238 432713 L1744787 433262 L1745886 433812 L1747534 433812 L1748633 433262 L1749182 432713 L1749732 431614 L1749732 427219 "/>
<path d="M1755225 444799 L1755225 438207 "/>
<path d="M1755225 441503 L1743689 441503 L1745337 440404 L1746435 439305 L1746985 438207 "/>
<path d="M1755225 455787 L1755225 449194 "/>
<path d="M1755225 452490 L1743689 452490 L1745337 451392 L1746435 450293 L1746985 449194 "/>
</g><g transform="rotate(-90.000000 1733902.113480 438300.678509)">
<text x="1733902.113480" y="444069.095979" transform="scale(-1 1) translate(-3467804.226960 0)" textLength="41225.567071" font-size="15382.438901" lengthAdjust="spacingAndGlyphs" text-anchor="middle" opacity="0.01" style="font-family:monospace">510R</text>
</g>
<g class="stroked-text"><desc>510R</desc>
<path d="M1727584 424291 L1727584 418797 L1733078 418248 L1732528 418797 L1731979 419896 L1731979 422643 L1732528 423742 L1733078 424291 L1734176 424841 L1736923 424841 L1738022 424291 L1738571 423742 L1739121 422643 L1739121 419896 L1738571 418797 L1738022 418248 "/>
<path d="M1739121 435828 L1739121 429236 "/>
<path d="M1739121 432532 L1727584 432532 L1729232 431433 L1730331 430334 L1730880 429236 "/>
<path d="M1727584 442970 L1727584 444069 L1728133 445167 L1728683 445717 L1729781 446266 L1731979 446815 L1734726 446815 L1736923 446266 L1738022 445717 L1738571 445167 L1739121 444069 L1739121 442970 L1738571 441871 L1738022 441322 L1736923 440772 L1734726 440223 L1731979 440223 L1729781 440772 L1728683 441322 L1728133 441871 L1727584 442970 "/>
<path d="M1739121 458352 L1733627 454507 "/>
<path d="M1739121 451760 L1727584 451760 L1727584 456155 L1728133 457254 L1728683 457803 L1729781 458352 L1731429 458352 L1732528 457803 L1733078 457254 L1733627 456155 L1733627 451760 "/>
</g></g>
<g style="fill:#000084; fill-opacity:0.01;  stroke:#000084; stroke-width:3458.422081; stroke-opacity:1;  stroke-linecap:round; stroke-linejoin:round;">
<text x="1689980.153049" y="783253.288246" transform="scale(-1 1) translate(-3379960.306098 0)" textLength="164706.844382" font-size="30741.521925" lengthAdjust="spacingAndGlyphs" text-anchor="middle" opacity="0.01" style="font-family:monospace">LTV-357T</text>
<g class="stroked-text"><desc>LTV-357T</desc>
<path d="M1757501 782155 L1768480 782155 L1768480 759099 "/>
<path d="M1753110 759099 L1739935 759099 "/>
<path d="M1746522 782155 L1746522 759099 "/>
<path d="M1735543 759099 L1727858 782155 L1720172 759099 "/>
<path d="M1712487 773372 L1694920 773372 "/>
<path d="M1686137 759099 L1671864 759099 L1679549 767882 L1676256 767882 L1674060 768980 L1672962 770078 L1671864 772274 L1671864 777763 L1672962 779959 L1674060 781057 L1676256 782155 L1682843 782155 L1685039 781057 L1686137 779959 "/>
<path d="M1651004 759099 L1661983 759099 L1663081 770078 L1661983 768980 L1659787 767882 L1654297 767882 L1652102 768980 L1651004 770078 L1649906 772274 L1649906 777763 L1651004 779959 L1652102 781057 L1654297 782155 L1659787 782155 L1661983 781057 L1663081 779959 "/>
<path d="M1642220 759099 L1626850 759099 L1636731 782155 "/>
<path d="M1621360 759099 L1608185 759099 "/>
<path d="M1614773 782155 L1614773 759099 "/>
</g><text x="1689980.153049" y="849309.149997" transform="scale(-1 1) translate(-3379960.306098 0)" textLength="41616.345710" font-size="30741.521925" lengthAdjust="spacingAndGlyphs" text-anchor="middle" opacity="0.01" style="font-family:monospace">U4</text>
<g class="stroked-text"><desc>U4</desc>
<path d="M1707546 825155 L1707546 843819 L1706448 846015 L1705350 847113 L1703155 848211 L1698763 848211 L1696567 847113 L1695469 846015 L1694371 843819 L1694371 825155 "/>
<path d="M1673511 832840 L1673511 848211 "/>
<path d="M1679001 824057 L1684490 840525 L1670217 840525 "/>
</g></g>
<g style="fill:#000084; fill-opacity:0.01;  stroke:#000084; stroke-width:2518.192398; stroke-opacity:1;  stroke-linecap:round; stroke-linejoin:round;">
<text x="2105774.711798" y="281313.839178" transform="scale(-1 1) translate(-4211549.423596 0)" textLength="18028.339299" font-size="15382.438901" lengthAdjust="spacingAndGlyphs" text-anchor="middle" opacity="0.01" style="font-family:monospace">R8</text>
<g class="stroked-text"><desc>R8</desc>
<path d="M2107697 280764 L2111543 275270 "/>
<path d="M2114289 280764 L2114289 269227 L2109895 269227 L2108796 269777 L2108246 270326 L2107697 271425 L2107697 273073 L2108246 274171 L2108796 274721 L2109895 275270 L2114289 275270 "/>
<path d="M2101105 274171 L2102203 273622 L2102753 273073 L2103302 271974 L2103302 271425 L2102753 270326 L2102203 269777 L2101105 269227 L2098907 269227 L2097808 269777 L2097259 270326 L2096710 271425 L2096710 271974 L2097259 273073 L2097808 273622 L2098907 274171 L2101105 274171 L2102203 274721 L2102753 275270 L2103302 276369 L2103302 278566 L2102753 279665 L2102203 280215 L2101105 280764 L2098907 280764 L2097808 280215 L2097259 279665 L2096710 278566 L2096710 276369 L2097259 275270 L2097808 274721 L2098907 274171 "/>
</g><text x="2102846.581103" y="297418.558003" transform="scale(-1 1) translate(-4205693.162205 0)" textLength="17053.156496" font-size="15382.438901" lengthAdjust="spacingAndGlyphs" text-anchor="middle" opacity="0.01" style="font-family:monospace">1k</text>
<g class="stroked-text"><desc>1k</desc>
<path d="M2104220 296869 L2110812 296869 "/>
<path d="M2107516 296869 L2107516 285332 L2108614 286980 L2109713 288079 L2110812 288628 "/>
<path d="M2099275 296869 L2099275 285332 "/>
<path d="M2098176 292474 L2094880 296869 "/>
<path d="M2094880 289177 L2099275 293572 "/>
</g><text x="2105774.711798" y="515564.294811" transform="scale(-1 1) translate(-4211549.423596 0)" textLength="30238.114007" font-size="15382.438901" lengthAdjust="spacingAndGlyphs" text-anchor="middle" opacity="0.01" style="font-family:monospace">R16</text>
<g class="stroked-text"><desc>R16</desc>
<path d="M2113191 515014 L2117036 509521 "/>
<path d="M2119783 515014 L2119783 503478 L2115388 503478 L2114289 504027 L2113740 504576 L2113191 505675 L2113191 507323 L2113740 508422 L2114289 508971 L2115388 509521 L2119783 509521 "/>
<path d="M2102203 515014 L2108796 515014 "/>
<path d="M2105500 515014 L2105500 503478 L2106598 505126 L2107697 506224 L2108796 506774 "/>
<path d="M2092315 503478 L2094512 503478 L2095611 504027 L2096160 504576 L2097259 506224 L2097808 508422 L2097808 512817 L2097259 513916 L2096710 514465 L2095611 515014 L2093413 515014 L2092315 514465 L2091765 513916 L2091216 512817 L2091216 510070 L2091765 508971 L2092315 508422 L2093413 507873 L2095611 507873 L2096710 508422 L2097259 508971 L2097808 510070 "/>
</g><text x="2102846.581103" y="531669.013636" transform="scale(-1 1) translate(-4205693.162205 0)" textLength="17053.156496" font-size="15382.438901" lengthAdjust="spacingAndGlyphs" text-anchor="middle" opacity="0.01" style="font-family:monospace">1k</text>
<g class="stroked-text"><desc>1k</desc>
<path d="M2104220 531119 L2110812 531119 "/>
<path d="M2107516 531119 L2107516 519582 L2108614 521230 L2109713 522329 L2110812 522879 "/>
<path d="M2099275 531119 L2099275 519582 "/>
<path d="M2098176 526724 L2094880 531119 "/>
<path d="M2094880 523428 L2099275 527823 "/>
</g></g>
<g style="fill:#000084; fill-opacity:0.01;  stroke:#000084; stroke-width:3458.422081; stroke-opacity:1;  stroke-linecap:round; stroke-linejoin:round;">
<text x="1691737.031466" y="472022.991370" transform="scale(-1 1) translate(-3383474.062932 0)" textLength="26007.656837" font-size="39041.734920" lengthAdjust="spacingAndGlyphs" text-anchor="middle" opacity="0.01" style="font-family:monospace">K</text>
<g class="stroked-text"><desc>K</desc>
<path d="M1699405 470628 L1699405 441347 "/>
<path d="M1682673 470628 L1695222 453896 "/>
<path d="M1682673 441347 L1699405 458079 "/>
</g><text x="1648986.323313" y="473194.243649" transform="scale(-1 1) translate(-3297972.646626 0)" textLength="52672.321644" font-size="39041.734920" lengthAdjust="spacingAndGlyphs" text-anchor="middle" opacity="0.01" style="font-family:monospace">D3</text>
<g class="stroked-text"><desc>D3</desc>
<path d="M1670598 471799 L1670598 442518 L1663626 442518 L1659443 443912 L1656655 446701 L1655260 449490 L1653866 455067 L1653866 459250 L1655260 464828 L1656655 467616 L1659443 470405 L1663626 471799 L1670598 471799 "/>
<path d="M1644106 442518 L1625979 442518 L1635740 453673 L1631556 453673 L1628768 455067 L1627373 456462 L1625979 459250 L1625979 466222 L1627373 469011 L1628768 470405 L1631556 471799 L1639923 471799 L1642711 470405 L1644106 469011 "/>
</g><text x="1691737.031466" y="1701837.883446" transform="scale(-1 1) translate(-3383474.062932 0)" textLength="24785.358249" font-size="39041.734920" lengthAdjust="spacingAndGlyphs" text-anchor="middle" opacity="0.01" style="font-family:monospace">K</text>
<g class="stroked-text"><desc>K</desc>
<path d="M1699405 1700443 L1699405 1671162 "/>
<path d="M1682673 1700443 L1695222 1683711 "/>
<path d="M1682673 1671162 L1699405 1687894 "/>
</g><text x="1648986.323313" y="1703009.135724" transform="scale(-1 1) translate(-3297972.646626 0)" textLength="52672.321644" font-size="39041.734920" lengthAdjust="spacingAndGlyphs" text-anchor="middle" opacity="0.01" style="font-family:monospace">D8</text>
<g class="stroked-text"><desc>D8</desc>
<path d="M1670598 1701614 L1670598 1672333 L1663626 1672333 L1659443 1673727 L1656655 1676516 L1655260 1679305 L1653866 1684882 L1653866 1689065 L1655260 1694643 L1656655 1697431 L1659443 1700220 L1663626 1701614 L1670598 1701614 "/>
<path d="M1637134 1684882 L1639923 1683488 L1641317 1682093 L1642711 1679305 L1642711 1677910 L1641317 1675122 L1639923 1673727 L1637134 1672333 L1631556 1672333 L1628768 1673727 L1627373 1675122 L1625979 1677910 L1625979 1679305 L1627373 1682093 L1628768 1683488 L1631556 1684882 L1637134 1684882 L1639923 1686276 L1641317 1687671 L1642711 1690459 L1642711 1696037 L1641317 1698826 L1639923 1700220 L1637134 1701614 L1631556 1701614 L1628768 1700220 L1627373 1698826 L1625979 1696037 L1625979 1690459 L1627373 1687671 L1628768 1686276 L1631556 1684882 "/>
</g></g>
<g style="fill:#000084; fill-opacity:0.0;  stroke:#000084; stroke-width:7027.513669; stroke-opacity:1;  stroke-linecap:round; stroke-linejoin:round;">
<g transform="rotate(-90.000000 2023602.603149 1183761.644452)">
<text x="2023602.603149" y="1201330.428625" transform="scale(-1 1) translate(-4047205.206298 0)" textLength="59086.311236" font-size="46850.091127" lengthAdjust="spacingAndGlyphs" text-anchor="middle" opacity="0.01" style="font-family:monospace">F3</text>
</g>
<g class="stroked-text"><desc>F3</desc>
<path d="M2021092 1172049 L2021092 1160336 "/>
<path d="M2039498 1160336 L2004360 1160336 L2004360 1177068 "/>
<path d="M2004360 1187108 L2004360 1208859 L2017746 1197147 L2017746 1202167 L2019419 1205513 L2021092 1207186 L2024439 1208859 L2032805 1208859 L2036151 1207186 L2037824 1205513 L2039498 1202167 L2039498 1192127 L2037824 1188781 L2036151 1187108 "/>
</g></g>
<g style="fill:#000084; fill-opacity:0.0;  stroke:#000084; stroke-width:2518.192398; stroke-opacity:1;  stroke-linecap:round; stroke-linejoin:round;">
<g transform="rotate(-90.000000 1750006.832305 933642.772447)">
<text x="1750006.832305" y="939411.189917" transform="scale(-1 1) translate(-3500013.664610 0)" textLength="24375.996355" font-size="15382.438901" lengthAdjust="spacingAndGlyphs" text-anchor="middle" opacity="0.01" style="font-family:monospace">R15</text>
</g>
<g class="stroked-text"><desc>R15</desc>
<path d="M1755225 926226 L1749732 922380 "/>
<path d="M1755225 919633 L1743689 919633 L1743689 924028 L1744238 925127 L1744787 925676 L1745886 926226 L1747534 926226 L1748633 925676 L1749182 925127 L1749732 924028 L1749732 919633 "/>
<path d="M1755225 937213 L1755225 930621 "/>
<path d="M1755225 933917 L1743689 933917 L1745337 932818 L1746435 931719 L1746985 930621 "/>
<path d="M1743689 947651 L1743689 942158 L1749182 941608 L1748633 942158 L1748084 943256 L1748084 946003 L1748633 947102 L1749182 947651 L1750281 948201 L1753028 948201 L1754127 947651 L1754676 947102 L1755225 946003 L1755225 943256 L1754676 942158 L1754127 941608 "/>
</g><g transform="rotate(-90.000000 1733902.113480 930714.641751)">
<text x="1733902.113480" y="936483.059221" transform="scale(-1 1) translate(-3467804.226960 0)" textLength="41225.567071" font-size="15382.438901" lengthAdjust="spacingAndGlyphs" text-anchor="middle" opacity="0.01" style="font-family:monospace">510R</text>
</g>
<g class="stroked-text"><desc>510R</desc>
<path d="M1727584 916705 L1727584 911211 L1733078 910662 L1732528 911211 L1731979 912310 L1731979 915057 L1732528 916156 L1733078 916705 L1734176 917254 L1736923 917254 L1738022 916705 L1738571 916156 L1739121 915057 L1739121 912310 L1738571 911211 L1738022 910662 "/>
<path d="M1739121 928242 L1739121 921649 "/>
<path d="M1739121 924946 L1727584 924946 L1729232 923847 L1730331 922748 L1730880 921649 "/>
<path d="M1727584 935384 L1727584 936483 L1728133 937581 L1728683 938131 L1729781 938680 L1731979 939229 L1734726 939229 L1736923 938680 L1738022 938131 L1738571 937581 L1739121 936483 L1739121 935384 L1738571 934285 L1738022 933736 L1736923 933186 L1734726 932637 L1731979 932637 L1729781 933186 L1728683 933736 L1728133 934285 L1727584 935384 "/>
<path d="M1739121 950766 L1733627 946921 "/>
<path d="M1739121 944174 L1727584 944174 L1727584 948569 L1728133 949667 L1728683 950217 L1729781 950766 L1731429 950766 L1732528 950217 L1733078 949667 L1733627 948569 L1733627 944174 "/>
</g></g>
<g style="fill:#000084; fill-opacity:0.0;  stroke:#000084; stroke-width:7027.513669; stroke-opacity:1;  stroke-linecap:round; stroke-linejoin:round;">
<g transform="rotate(-90.000000 2184995.633605 1183761.644452)">
<text x="2184995.633605" y="1201330.428625" transform="scale(-1 1) translate(-4369991.267210 0)" textLength="60308.609824" font-size="46850.091127" lengthAdjust="spacingAndGlyphs" text-anchor="middle" opacity="0.01" style="font-family:monospace">F1</text>
</g>
<g class="stroked-text"><desc>F1</desc>
<path d="M2182485 1172049 L2182485 1160336 "/>
<path d="M2200891 1160336 L2165753 1160336 L2165753 1177068 "/>
<path d="M2200891 1208859 L2200891 1188781 "/>
<path d="M2200891 1198820 L2165753 1198820 L2170773 1195474 L2174119 1192127 L2175792 1188781 "/>
</g></g>
<g style="fill:#000084; fill-opacity:0.01;  stroke:#000084; stroke-width:2518.192398; stroke-opacity:1;  stroke-linecap:round; stroke-linejoin:round;">
<text x="2105774.711798" y="457001.680903" transform="scale(-1 1) translate(-4211549.423596 0)" textLength="24375.996355" font-size="15382.438901" lengthAdjust="spacingAndGlyphs" text-anchor="middle" opacity="0.01" style="font-family:monospace">R13</text>
<g class="stroked-text"><desc>R13</desc>
<path d="M2113191 456452 L2117036 450958 "/>
<path d="M2119783 456452 L2119783 444915 L2115388 444915 L2114289 445464 L2113740 446014 L2113191 447112 L2113191 448761 L2113740 449859 L2114289 450409 L2115388 450958 L2119783 450958 "/>
<path d="M2102203 456452 L2108796 456452 "/>
<path d="M2105500 456452 L2105500 444915 L2106598 446563 L2107697 447662 L2108796 448211 "/>
<path d="M2098358 444915 L2091216 444915 L2095061 449310 L2093413 449310 L2092315 449859 L2091765 450409 L2091216 451507 L2091216 454254 L2091765 455353 L2092315 455902 L2093413 456452 L2096710 456452 L2097808 455902 L2098358 455353 "/>
</g><text x="2102846.581103" y="473106.399728" transform="scale(-1 1) translate(-4205693.162205 0)" textLength="17053.156496" font-size="15382.438901" lengthAdjust="spacingAndGlyphs" text-anchor="middle" opacity="0.01" style="font-family:monospace">1k</text>
<g class="stroked-text"><desc>1k</desc>
<path d="M2104220 472557 L2110812 472557 "/>
<path d="M2107516 472557 L2107516 461020 L2108614 462668 L2109713 463767 L2110812 464316 "/>
<path d="M2099275 472557 L2099275 461020 "/>
<path d="M2098176 468162 L2094880 472557 "/>
<path d="M2094880 464865 L2099275 469260 "/>
</g><g transform="rotate(-90.000000 1954918.340616 1385687.381700)">
<text x="1954918.340616" y="1391455.799170" transform="scale(-1 1) translate(-3909836.681232 0)" textLength="30238.114007" font-size="15382.438901" lengthAdjust="spacingAndGlyphs" text-anchor="middle" opacity="0.01" style="font-family:monospace">R23</text>
</g>
<g class="stroked-text"><desc>R23</desc>
<path d="M1960137 1378270 L1954643 1374425 "/>
<path d="M1960137 1371678 L1948600 1371678 L1948600 1376073 L1949149 1377172 L1949699 1377721 L1950798 1378270 L1952446 1378270 L1953544 1377721 L1954094 1377172 L1954643 1376073 L1954643 1371678 "/>
<path d="M1949699 1382665 L1949149 1383215 L1948600 1384313 L1948600 1387060 L1949149 1388159 L1949699 1388708 L1950798 1389258 L1951896 1389258 L1953544 1388708 L1960137 1382116 L1960137 1389258 "/>
<path d="M1948600 1393103 L1948600 1400245 L1952995 1396400 L1952995 1398048 L1953544 1399147 L1954094 1399696 L1955193 1400245 L1957939 1400245 L1959038 1399696 L1959587 1399147 L1960137 1398048 L1960137 1394752 L1959587 1393653 L1959038 1393103 "/>
</g><g transform="rotate(-90.000000 1971023.059441 1388615.512395)">
<text x="1971023.059441" y="1394383.929865" transform="scale(-1 1) translate(-3942046.118882 0)" textLength="17053.156496" font-size="15382.438901" lengthAdjust="spacingAndGlyphs" text-anchor="middle" opacity="0.01" style="font-family:monospace">1k</text>
</g>
<g class="stroked-text"><desc>1k</desc>
<path d="M1976242 1387242 L1976242 1380649 "/>
<path d="M1976242 1383945 L1964705 1383945 L1966353 1382847 L1967452 1381748 L1968001 1380649 "/>
<path d="M1976242 1392186 L1964705 1392186 "/>
<path d="M1971847 1393285 L1976242 1396581 "/>
<path d="M1968550 1396581 L1972945 1392186 "/>
</g><g transform="rotate(-90.000000 1750006.832305 1426056.735689)">
<text x="1750006.832305" y="1431825.153159" transform="scale(-1 1) translate(-3500013.664610 0)" textLength="30238.114007" font-size="15382.438901" lengthAdjust="spacingAndGlyphs" text-anchor="middle" opacity="0.01" style="font-family:monospace">R20</text>
</g>
<g class="stroked-text"><desc>R20</desc>
<path d="M1755225 1418640 L1749732 1414794 "/>
<path d="M1755225 1412047 L1743689 1412047 L1743689 1416442 L1744238 1417541 L1744787 1418090 L1745886 1418640 L1747534 1418640 L1748633 1418090 L1749182 1417541 L1749732 1416442 L1749732 1412047 "/>
<path d="M1744787 1423035 L1744238 1423584 L1743689 1424683 L1743689 1427430 L1744238 1428528 L1744787 1429078 L1745886 1429627 L1746985 1429627 L1748633 1429078 L1755225 1422485 L1755225 1429627 "/>
<path d="M1743689 1436769 L1743689 1437868 L1744238 1438967 L1744787 1439516 L1745886 1440065 L1748084 1440615 L1750830 1440615 L1753028 1440065 L1754127 1439516 L1754676 1438967 L1755225 1437868 L1755225 1436769 L1754676 1435670 L1754127 1435121 L1753028 1434572 L1750830 1434022 L1748084 1434022 L1745886 1434572 L1744787 1435121 L1744238 1435670 L1743689 1436769 "/>
</g><g transform="rotate(-90.000000 1733902.113480 1423128.604993)">
<text x="1733902.113480" y="1428897.022463" transform="scale(-1 1) translate(-3467804.226960 0)" textLength="41225.567071" font-size="15382.438901" lengthAdjust="spacingAndGlyphs" text-anchor="middle" opacity="0.01" style="font-family:monospace">510R</text>
</g>
<g class="stroked-text"><desc>510R</desc>
<path d="M1727584 1409119 L1727584 1403625 L1733078 1403076 L1732528 1403625 L1731979 1404724 L1731979 1407471 L1732528 1408570 L1733078 1409119 L1734176 1409668 L1736923 1409668 L1738022 1409119 L1738571 1408570 L1739121 1407471 L1739121 1404724 L1738571 1403625 L1738022 1403076 "/>
<path d="M1739121 1420656 L1739121 1414063 "/>
<path d="M1739121 1417360 L1727584 1417360 L1729232 1416261 L1730331 1415162 L1730880 1414063 "/>
<path d="M1727584 1427798 L1727584 1428897 L1728133 1429995 L1728683 1430545 L1729781 1431094 L1731979 1431643 L1734726 1431643 L1736923 1431094 L1738022 1430545 L1738571 1429995 L1739121 1428897 L1739121 1427798 L1738571 1426699 L1738022 1426150 L1736923 1425600 L1734726 1425051 L1731979 1425051 L1729781 1425600 L1728683 1426150 L1728133 1426699 L1727584 1427798 "/>
<path d="M1739121 1443180 L1733627 1439335 "/>
<path d="M1739121 1436588 L1727584 1436588 L1727584 1440983 L1728133 1442081 L1728683 1442631 L1729781 1443180 L1731429 1443180 L1732528 1442631 L1733078 1442081 L1733627 1440983 L1733627 1436588 "/>
</g></g>
<g style="fill:#000084; fill-opacity:0.01;  stroke:#000084; stroke-width:3458.422081; stroke-opacity:1;  stroke-linecap:round; stroke-linejoin:round;">
<text x="1648986.323313" y="1457046.157309" transform="scale(-1 1) translate(-3297972.646626 0)" textLength="53894.620232" font-size="39041.734920" lengthAdjust="spacingAndGlyphs" text-anchor="middle" opacity="0.01" style="font-family:monospace">D7</text>
<g class="stroked-text"><desc>D7</desc>
<path d="M1670598 1455651 L1670598 1426370 L1663626 1426370 L1659443 1427764 L1656655 1430553 L1655260 1433342 L1653866 1438919 L1653866 1443102 L1655260 1448680 L1656655 1451468 L1659443 1454257 L1663626 1455651 L1670598 1455651 "/>
<path d="M1644106 1426370 L1624585 1426370 L1637134 1455651 "/>
</g><text x="1691737.031466" y="1455874.905031" transform="scale(-1 1) translate(-3383474.062932 0)" textLength="24785.358249" font-size="39041.734920" lengthAdjust="spacingAndGlyphs" text-anchor="middle" opacity="0.01" style="font-family:monospace">K</text>
<g class="stroked-text"><desc>K</desc>
<path d="M1699405 1454480 L1699405 1425199 "/>
<path d="M1682673 1454480 L1695222 1437748 "/>
<path d="M1682673 1425199 L1699405 1441931 "/>
</g><text x="1648986.323313" y="719157.222064" transform="scale(-1 1) translate(-3297972.646626 0)" textLength="52672.321644" font-size="39041.734920" lengthAdjust="spacingAndGlyphs" text-anchor="middle" opacity="0.01" style="font-family:monospace">D4</text>
<g class="stroked-text"><desc>D4</desc>
<path d="M1670598 717762 L1670598 688481 L1663626 688481 L1659443 689875 L1656655 692664 L1655260 695453 L1653866 701030 L1653866 705213 L1655260 710791 L1656655 713579 L1659443 716368 L1663626 717762 L1670598 717762 "/>
<path d="M1628768 698241 L1628768 717762 "/>
<path d="M1635740 687087 L1642711 708002 L1624585 708002 "/>
</g><text x="1691737.031466" y="717985.969785" transform="scale(-1 1) translate(-3383474.062932 0)" textLength="24785.358249" font-size="39041.734920" lengthAdjust="spacingAndGlyphs" text-anchor="middle" opacity="0.01" style="font-family:monospace">K</text>
<g class="stroked-text"><desc>K</desc>
<path d="M1699405 716591 L1699405 687310 "/>
<path d="M1682673 716591 L1695222 699859 "/>
<path d="M1682673 687310 L1699405 704042 "/>
</g><text x="1648986.323313" y="1211083.178894" transform="scale(-1 1) translate(-3297972.646626 0)" textLength="52672.321644" font-size="39041.734920" lengthAdjust="spacingAndGlyphs" text-anchor="middle" opacity="0.01" style="font-family:monospace">D6</text>
<g class="stroked-text"><desc>D6</desc>
<path d="M1670598 1209688 L1670598 1180407 L1663626 1180407 L1659443 1181801 L1656655 1184590 L1655260 1187379 L1653866 1192956 L1653866 1197139 L1655260 1202717 L1656655 1205505 L1659443 1208294 L1663626 1209688 L1670598 1209688 "/>
<path d="M1628768 1180407 L1634345 1180407 L1637134 1181801 L1638528 1183196 L1641317 1187379 L1642711 1192956 L1642711 1204111 L1641317 1206900 L1639923 1208294 L1637134 1209688 L1631556 1209688 L1628768 1208294 L1627373 1206900 L1625979 1204111 L1625979 1197139 L1627373 1194350 L1628768 1192956 L1631556 1191562 L1637134 1191562 L1639923 1192956 L1641317 1194350 L1642711 1197139 "/>
</g><text x="1695836.414440" y="1212547.244241" transform="scale(-1 1) translate(-3391672.828879 0)" textLength="24785.358249" font-size="39041.734920" lengthAdjust="spacingAndGlyphs" text-anchor="middle" opacity="0.01" style="font-family:monospace">K</text>
<g class="stroked-text"><desc>K</desc>
<path d="M1703505 1211152 L1703505 1181871 "/>
<path d="M1686773 1211152 L1699322 1194420 "/>
<path d="M1686773 1181871 L1703505 1198603 "/>
</g></g>
<g style="fill:#000084; fill-opacity:0.0;  stroke:#000084; stroke-width:2518.192398; stroke-opacity:1;  stroke-linecap:round; stroke-linejoin:round;">
<g transform="rotate(-90.000000 1935833.614765 1619787.972377)">
<text x="1935833.614765" y="1625556.389847" transform="scale(-1 1) translate(-3871667.229529 0)" textLength="29015.815419" font-size="15382.438901" lengthAdjust="spacingAndGlyphs" text-anchor="middle" opacity="0.01" style="font-family:monospace">R22</text>
</g>
<g class="stroked-text"><desc>R22</desc>
<path d="M1941052 1612371 L1935558 1608525 "/>
<path d="M1941052 1605778 L1929515 1605778 L1929515 1610173 L1930065 1611272 L1930614 1611822 L1931713 1612371 L1933361 1612371 L1934460 1611822 L1935009 1611272 L1935558 1610173 L1935558 1605778 "/>
<path d="M1930614 1616766 L1930065 1617315 L1929515 1618414 L1929515 1621161 L1930065 1622260 L1930614 1622809 L1931713 1623358 L1932812 1623358 L1934460 1622809 L1941052 1616217 L1941052 1623358 "/>
<path d="M1930614 1627753 L1930065 1628303 L1929515 1629401 L1929515 1632148 L1930065 1633247 L1930614 1633796 L1931713 1634346 L1932812 1634346 L1934460 1633796 L1941052 1627204 L1941052 1634346 "/>
</g><g transform="rotate(-90.000000 1951938.333590 1622716.103072)">
<text x="1951938.333590" y="1628484.520542" transform="scale(-1 1) translate(-3903876.667179 0)" textLength="17053.156496" font-size="15382.438901" lengthAdjust="spacingAndGlyphs" text-anchor="middle" opacity="0.01" style="font-family:monospace">1k</text>
</g>
<g class="stroked-text"><desc>1k</desc>
<path d="M1957157 1621342 L1957157 1614750 "/>
<path d="M1957157 1618046 L1945620 1618046 L1947268 1616947 L1948367 1615848 L1948916 1614750 "/>
<path d="M1957157 1626287 L1945620 1626287 "/>
<path d="M1952762 1627385 L1957157 1630682 "/>
<path d="M1949466 1630682 L1953861 1626287 "/>
</g></g>
<g style="fill:#000084; fill-opacity:0.0;  stroke:#000084; stroke-width:3458.422081; stroke-opacity:1;  stroke-linecap:round; stroke-linejoin:round;">
<g transform="rotate(-90.000000 2069599.155706 646209.877912)">
<text x="2069599.155706" y="657737.951516" transform="scale(-1 1) translate(-4139198.311412 0)" textLength="103223.800531" font-size="30741.521925" lengthAdjust="spacingAndGlyphs" text-anchor="middle" opacity="0.01" style="font-family:monospace">100nF</text>
</g>
<g class="stroked-text"><desc>100nF</desc>
<path d="M2080029 610527 L2080029 597352 "/>
<path d="M2080029 603940 L2056973 603940 L2060266 601744 L2062462 599548 L2063560 597352 "/>
<path d="M2056973 624800 L2056973 626996 L2058071 629192 L2059168 630290 L2061364 631388 L2065756 632485 L2071246 632485 L2075637 631388 L2077833 630290 L2078931 629192 L2080029 626996 L2080029 624800 L2078931 622604 L2077833 621506 L2075637 620408 L2071246 619311 L2065756 619311 L2061364 620408 L2059168 621506 L2058071 622604 L2056973 624800 "/>
<path d="M2056973 646758 L2056973 648954 L2058071 651150 L2059168 652248 L2061364 653346 L2065756 654444 L2071246 654444 L2075637 653346 L2077833 652248 L2078931 651150 L2080029 648954 L2080029 646758 L2078931 644563 L2077833 643465 L2075637 642367 L2071246 641269 L2065756 641269 L2061364 642367 L2059168 643465 L2058071 644563 L2056973 646758 "/>
<path d="M2064658 664325 L2080029 664325 "/>
<path d="M2066854 664325 L2065756 665423 L2064658 667619 L2064658 670912 L2065756 673108 L2067952 674206 L2080029 674206 "/>
<path d="M2067952 692871 L2067952 685185 "/>
<path d="M2080029 685185 L2056973 685185 L2056973 696164 "/>
</g></g>
<g style="fill:#000084; fill-opacity:0.0;  stroke:#000084; stroke-width:1844.491777; stroke-opacity:1;  stroke-linecap:round; stroke-linejoin:round;">
<g transform="rotate(-90.000000 2105774.711798 743988.692607)">
<text x="2105774.711798" y="749752.729409" transform="scale(-1 1) translate(-4211549.423596 0)" textLength="18011.231637" font-size="15370.749435" lengthAdjust="spacingAndGlyphs" text-anchor="middle" opacity="0.01" style="font-family:monospace">C2</text>
</g>
<g class="stroked-text"><desc>C2</desc>
<path d="M2109891 742067 L2110440 741518 L2110989 739871 L2110989 738773 L2110440 737126 L2109342 736028 L2108244 735479 L2106049 734930 L2104402 734930 L2102206 735479 L2101108 736028 L2100010 737126 L2099461 738773 L2099461 739871 L2100010 741518 L2100559 742067 "/>
<path d="M2100559 746458 L2100010 747007 L2099461 748105 L2099461 750850 L2100010 751948 L2100559 752497 L2101657 753046 L2102755 753046 L2104402 752497 L2110989 745910 L2110989 753046 "/>
</g></g>
<g style="fill:#000084; fill-opacity:0.01;  stroke:#000084; stroke-width:3458.422081; stroke-opacity:1;  stroke-linecap:round; stroke-linejoin:round;">
<text x="1648986.323313" y="227231.265234" transform="scale(-1 1) translate(-3297972.646626 0)" textLength="54770.431040" font-size="39041.734920" lengthAdjust="spacingAndGlyphs" text-anchor="middle" opacity="0.01" style="font-family:monospace">D2</text>
<g class="stroked-text"><desc>D2</desc>
<path d="M1670598 225836 L1670598 196555 L1663626 196555 L1659443 197949 L1656655 200738 L1655260 203527 L1653866 209104 L1653866 213287 L1655260 218865 L1656655 221653 L1659443 224442 L1663626 225836 L1670598 225836 "/>
<path d="M1642711 199344 L1641317 197949 L1638528 196555 L1631556 196555 L1628768 197949 L1627373 199344 L1625979 202132 L1625979 204921 L1627373 209104 L1644106 225836 L1625979 225836 "/>
</g><text x="1691737.031466" y="226060.012955" transform="scale(-1 1) translate(-3383474.062932 0)" textLength="24785.358249" font-size="39041.734920" lengthAdjust="spacingAndGlyphs" text-anchor="middle" opacity="0.01" style="font-family:monospace">K</text>
<g class="stroked-text"><desc>K</desc>
<path d="M1699405 224665 L1699405 195384 "/>
<path d="M1682673 224665 L1695222 207933 "/>
<path d="M1682673 195384 L1699405 212116 "/>
</g><g transform="rotate(-90.000000 2151241.434092 634241.431897)">
<text x="2151241.434092" y="645769.505501" transform="scale(-1 1) translate(-4302482.868185 0)" textLength="230457.166070" font-size="30741.521925" lengthAdjust="spacingAndGlyphs" text-anchor="middle" opacity="0.01" style="font-family:monospace">BZV55C-5,6V</text>
</g>
<g class="stroked-text"><desc>BZV55C-5,6V</desc>
<path d="M2149594 529939 L2150692 533233 L2151790 534331 L2153986 535429 L2157279 535429 L2159475 534331 L2160573 533233 L2161671 531037 L2161671 522254 L2138615 522254 L2138615 529939 L2139713 532135 L2140811 533233 L2143007 534331 L2145202 534331 L2147398 533233 L2148496 532135 L2149594 529939 L2149594 522254 "/>
<path d="M2138615 543114 L2138615 558485 L2161671 543114 L2161671 558485 "/>
<path d="M2138615 563975 L2161671 571660 L2138615 579345 "/>
<path d="M2138615 598010 L2138615 587031 L2149594 585933 L2148496 587031 L2147398 589227 L2147398 594716 L2148496 596912 L2149594 598010 L2151790 599108 L2157279 599108 L2159475 598010 L2160573 596912 L2161671 594716 L2161671 589227 L2160573 587031 L2159475 585933 "/>
<path d="M2138615 619968 L2138615 608989 L2149594 607891 L2148496 608989 L2147398 611185 L2147398 616674 L2148496 618870 L2149594 619968 L2151790 621066 L2157279 621066 L2159475 619968 L2160573 618870 L2161671 616674 L2161671 611185 L2160573 608989 L2159475 607891 "/>
<path d="M2159475 644122 L2160573 643024 L2161671 639730 L2161671 637535 L2160573 634241 L2158377 632045 L2156182 630947 L2151790 629849 L2148496 629849 L2144105 630947 L2141909 632045 L2139713 634241 L2138615 637535 L2138615 639730 L2139713 643024 L2140811 644122 "/>
<path d="M2152888 654003 L2152888 671570 "/>
<path d="M2138615 693528 L2138615 682549 L2149594 681451 L2148496 682549 L2147398 684745 L2147398 690234 L2148496 692430 L2149594 693528 L2151790 694626 L2157279 694626 L2159475 693528 L2160573 692430 L2161671 690234 L2161671 684745 L2160573 682549 L2159475 681451 "/>
<path d="M2160573 705605 L2161671 705605 L2163867 704507 L2164965 703409 "/>
<path d="M2138615 725368 L2138615 720976 L2139713 718780 L2140811 717682 L2144105 715486 L2148496 714388 L2157279 714388 L2159475 715486 L2160573 716584 L2161671 718780 L2161671 723172 L2160573 725368 L2159475 726466 L2157279 727563 L2151790 727563 L2149594 726466 L2148496 725368 L2147398 723172 L2147398 718780 L2148496 716584 L2149594 715486 L2151790 714388 "/>
<path d="M2138615 734151 L2161671 741836 L2138615 749522 "/>
</g><g transform="rotate(-90.000000 2268827.784853 634241.431897)">
<text x="2268827.784853" y="645769.505501" transform="scale(-1 1) translate(-4537655.569706 0)" textLength="40518.435037" font-size="30741.521925" lengthAdjust="spacingAndGlyphs" text-anchor="middle" opacity="0.01" style="font-family:monospace">D1</text>
</g>
<g class="stroked-text"><desc>D1</desc>
<path d="M2279257 617223 L2256201 617223 L2256201 622713 L2257299 626007 L2259495 628202 L2261691 629300 L2266082 630398 L2269376 630398 L2273768 629300 L2275964 628202 L2278160 626007 L2279257 622713 L2279257 617223 "/>
<path d="M2279257 652356 L2279257 639182 "/>
<path d="M2279257 645769 L2256201 645769 L2259495 643573 L2261691 641377 L2262789 639182 "/>
</g><text x="1689980.153049" y="536314.273951" transform="scale(-1 1) translate(-3379960.306098 0)" textLength="163484.545794" font-size="30741.521925" lengthAdjust="spacingAndGlyphs" text-anchor="middle" opacity="0.01" style="font-family:monospace">LTV-357T</text>
<g class="stroked-text"><desc>LTV-357T</desc>
<path d="M1757501 535216 L1768480 535216 L1768480 512160 "/>
<path d="M1753110 512160 L1739935 512160 "/>
<path d="M1746522 535216 L1746522 512160 "/>
<path d="M1735543 512160 L1727858 535216 L1720172 512160 "/>
<path d="M1712487 526433 L1694920 526433 "/>
<path d="M1686137 512160 L1671864 512160 L1679549 520943 L1676256 520943 L1674060 522041 L1672962 523139 L1671864 525335 L1671864 530824 L1672962 533020 L1674060 534118 L1676256 535216 L1682843 535216 L1685039 534118 L1686137 533020 "/>
<path d="M1651004 512160 L1661983 512160 L1663081 523139 L1661983 522041 L1659787 520943 L1654297 520943 L1652102 522041 L1651004 523139 L1649906 525335 L1649906 530824 L1651004 533020 L1652102 534118 L1654297 535216 L1659787 535216 L1661983 534118 L1663081 533020 "/>
<path d="M1642220 512160 L1626850 512160 L1636731 535216 "/>
<path d="M1621360 512160 L1608185 512160 "/>
<path d="M1614773 535216 L1614773 512160 "/>
</g><text x="1689980.153049" y="602370.135702" transform="scale(-1 1) translate(-3379960.306098 0)" textLength="41616.345710" font-size="30741.521925" lengthAdjust="spacingAndGlyphs" text-anchor="middle" opacity="0.01" style="font-family:monospace">U3</text>
<g class="stroked-text"><desc>U3</desc>
<path d="M1707546 578216 L1707546 596880 L1706448 599076 L1705350 600174 L1703155 601272 L1698763 601272 L1696567 600174 L1695469 599076 L1694371 596880 L1694371 578216 "/>
<path d="M1685588 578216 L1671315 578216 L1679001 586999 L1675707 586999 L1673511 588097 L1672413 589195 L1671315 591391 L1671315 596880 L1672413 599076 L1673511 600174 L1675707 601272 L1682294 601272 L1684490 600174 L1685588 599076 "/>
</g><text x="1689980.153049" y="1343187.178586" transform="scale(-1 1) translate(-3379960.306098 0)" textLength="41616.345710" font-size="30741.521925" lengthAdjust="spacingAndGlyphs" text-anchor="middle" opacity="0.01" style="font-family:monospace">U6</text>
<g class="stroked-text"><desc>U6</desc>
<path d="M1707546 1319033 L1707546 1337697 L1706448 1339893 L1705350 1340991 L1703155 1342089 L1698763 1342089 L1696567 1340991 L1695469 1339893 L1694371 1337697 L1694371 1319033 "/>
<path d="M1673511 1319033 L1677903 1319033 L1680098 1320131 L1681196 1321228 L1683392 1324522 L1684490 1328914 L1684490 1337697 L1683392 1339893 L1682294 1340991 L1680098 1342089 L1675707 1342089 L1673511 1340991 L1672413 1339893 L1671315 1337697 L1671315 1332208 L1672413 1330012 L1673511 1328914 L1675707 1327816 L1680098 1327816 L1682294 1328914 L1683392 1330012 L1684490 1332208 "/>
</g><text x="1684123.891658" y="33790.190158" transform="scale(-1 1) translate(-3368247.783316 0)" textLength="163484.545794" font-size="30741.521925" lengthAdjust="spacingAndGlyphs" text-anchor="middle" opacity="0.01" style="font-family:monospace">LTV-357T</text>
<g class="stroked-text"><desc>LTV-357T</desc>
<path d="M1751645 32692 L1762624 32692 L1762624 9636 "/>
<path d="M1747253 9636 L1734078 9636 "/>
<path d="M1740666 32692 L1740666 9636 "/>
<path d="M1729687 9636 L1722001 32692 L1714316 9636 "/>
<path d="M1706631 23908 L1689064 23908 "/>
<path d="M1680281 9636 L1666008 9636 L1673693 18419 L1670399 18419 L1668204 19517 L1667106 20615 L1666008 22811 L1666008 28300 L1667106 30496 L1668204 31594 L1670399 32692 L1676987 32692 L1679183 31594 L1680281 30496 "/>
<path d="M1645148 9636 L1656127 9636 L1657225 20615 L1656127 19517 L1653931 18419 L1648441 18419 L1646245 19517 L1645148 20615 L1644050 22811 L1644050 28300 L1645148 30496 L1646245 31594 L1648441 32692 L1653931 32692 L1656127 31594 L1657225 30496 "/>
<path d="M1636364 9636 L1620993 9636 L1630875 32692 "/>
<path d="M1615504 9636 L1602329 9636 "/>
<path d="M1608916 32692 L1608916 9636 "/>
</g><text x="1689980.153049" y="108492.107112" transform="scale(-1 1) translate(-3379960.306098 0)" textLength="41616.345710" font-size="30741.521925" lengthAdjust="spacingAndGlyphs" text-anchor="middle" opacity="0.01" style="font-family:monospace">U1</text>
<g class="stroked-text"><desc>U1</desc>
<path d="M1707546 84338 L1707546 103002 L1706448 105198 L1705350 106296 L1703155 107394 L1698763 107394 L1696567 106296 L1695469 105198 L1694371 103002 L1694371 84338 "/>
<path d="M1671315 107394 L1684490 107394 "/>
<path d="M1677903 107394 L1677903 84338 L1680098 87631 L1682294 89827 L1684490 90925 "/>
</g></g>
<g style="fill:#000084; fill-opacity:0.0;  stroke:#000084; stroke-width:2518.192398; stroke-opacity:1;  stroke-linecap:round; stroke-linejoin:round;">
<g transform="rotate(-90.000000 1750006.832305 687435.790826)">
<text x="1750006.832305" y="693204.208296" transform="scale(-1 1) translate(-3500013.664610 0)" textLength="29015.815419" font-size="15382.438901" lengthAdjust="spacingAndGlyphs" text-anchor="middle" opacity="0.01" style="font-family:monospace">R14</text>
</g>
<g class="stroked-text"><desc>R14</desc>
<path d="M1755225 680019 L1749732 676173 "/>
<path d="M1755225 673426 L1743689 673426 L1743689 677821 L1744238 678920 L1744787 679469 L1745886 680019 L1747534 680019 L1748633 679469 L1749182 678920 L1749732 677821 L1749732 673426 "/>
<path d="M1755225 691006 L1755225 684414 "/>
<path d="M1755225 687710 L1743689 687710 L1745337 686611 L1746435 685512 L1746985 684414 "/>
<path d="M1747534 700895 L1755225 700895 "/>
<path d="M1743139 698148 L1751380 695401 L1751380 702543 "/>
</g><g transform="rotate(-90.000000 1733902.113480 684507.660130)">
<text x="1733902.113480" y="690276.077600" transform="scale(-1 1) translate(-3467804.226960 0)" textLength="41225.567071" font-size="15382.438901" lengthAdjust="spacingAndGlyphs" text-anchor="middle" opacity="0.01" style="font-family:monospace">510R</text>
</g>
<g class="stroked-text"><desc>510R</desc>
<path d="M1727584 670498 L1727584 665004 L1733078 664455 L1732528 665004 L1731979 666103 L1731979 668850 L1732528 669949 L1733078 670498 L1734176 671048 L1736923 671048 L1738022 670498 L1738571 669949 L1739121 668850 L1739121 666103 L1738571 665004 L1738022 664455 "/>
<path d="M1739121 682035 L1739121 675442 "/>
<path d="M1739121 678739 L1727584 678739 L1729232 677640 L1730331 676541 L1730880 675442 "/>
<path d="M1727584 689177 L1727584 690276 L1728133 691374 L1728683 691924 L1729781 692473 L1731979 693022 L1734726 693022 L1736923 692473 L1738022 691924 L1738571 691374 L1739121 690276 L1739121 689177 L1738571 688078 L1738022 687529 L1736923 686979 L1734726 686430 L1731979 686430 L1729781 686979 L1728683 687529 L1728133 688078 L1727584 689177 "/>
<path d="M1739121 704559 L1733627 700714 "/>
<path d="M1739121 697967 L1727584 697967 L1727584 702362 L1728133 703461 L1728683 704010 L1729781 704559 L1731429 704559 L1732528 704010 L1733078 703461 L1733627 702362 L1733627 697967 "/>
</g><g transform="rotate(-90.000000 1750006.832305 195021.827584)">
<text x="1750006.832305" y="200790.245054" transform="scale(-1 1) translate(-3500013.664610 0)" textLength="30238.114007" font-size="15382.438901" lengthAdjust="spacingAndGlyphs" text-anchor="middle" opacity="0.01" style="font-family:monospace">R10</text>
</g>
<g class="stroked-text"><desc>R10</desc>
<path d="M1755225 187605 L1749732 183759 "/>
<path d="M1755225 181012 L1743689 181012 L1743689 185407 L1744238 186506 L1744787 187055 L1745886 187605 L1747534 187605 L1748633 187055 L1749182 186506 L1749732 185407 L1749732 181012 "/>
<path d="M1755225 198592 L1755225 192000 "/>
<path d="M1755225 195296 L1743689 195296 L1745337 194197 L1746435 193099 L1746985 192000 "/>
<path d="M1743689 205734 L1743689 206833 L1744238 207932 L1744787 208481 L1745886 209030 L1748084 209580 L1750830 209580 L1753028 209030 L1754127 208481 L1754676 207932 L1755225 206833 L1755225 205734 L1754676 204635 L1754127 204086 L1753028 203537 L1750830 202987 L1748084 202987 L1745886 203537 L1744787 204086 L1744238 204635 L1743689 205734 "/>
</g><g transform="rotate(-90.000000 1733902.113480 192093.696889)">
<text x="1733902.113480" y="197862.114358" transform="scale(-1 1) translate(-3467804.226960 0)" textLength="41225.567071" font-size="15382.438901" lengthAdjust="spacingAndGlyphs" text-anchor="middle" opacity="0.01" style="font-family:monospace">510R</text>
</g>
<g class="stroked-text"><desc>510R</desc>
<path d="M1727584 178084 L1727584 172590 L1733078 172041 L1732528 172590 L1731979 173689 L1731979 176436 L1732528 177535 L1733078 178084 L1734176 178634 L1736923 178634 L1738022 178084 L1738571 177535 L1739121 176436 L1739121 173689 L1738571 172590 L1738022 172041 "/>
<path d="M1739121 189621 L1739121 183029 "/>
<path d="M1739121 186325 L1727584 186325 L1729232 185226 L1730331 184127 L1730880 183029 "/>
<path d="M1727584 196763 L1727584 197862 L1728133 198960 L1728683 199510 L1729781 200059 L1731979 200608 L1734726 200608 L1736923 200059 L1738022 199510 L1738571 198960 L1739121 197862 L1739121 196763 L1738571 195664 L1738022 195115 L1736923 194565 L1734726 194016 L1731979 194016 L1729781 194565 L1728683 195115 L1728133 195664 L1727584 196763 "/>
<path d="M1739121 212145 L1733627 208300 "/>
<path d="M1739121 205553 L1727584 205553 L1727584 209948 L1728133 211047 L1728683 211596 L1729781 212145 L1731429 212145 L1732528 211596 L1733078 211047 L1733627 209948 L1733627 205553 "/>
</g></g>
<g style="fill:#000084; fill-opacity:0.01;  stroke:#000084; stroke-width:3458.422081; stroke-opacity:1;  stroke-linecap:round; stroke-linejoin:round;">
<text x="1689980.153049" y="1590126.238993" transform="scale(-1 1) translate(-3379960.306098 0)" textLength="42838.644299" font-size="30741.521925" lengthAdjust="spacingAndGlyphs" text-anchor="middle" opacity="0.01" style="font-family:monospace">U7</text>
<g class="stroked-text"><desc>U7</desc>
<path d="M1707546 1565972 L1707546 1584636 L1706448 1586832 L1705350 1587930 L1703155 1589028 L1698763 1589028 L1696567 1587930 L1695469 1586832 L1694371 1584636 L1694371 1565972 "/>
<path d="M1685588 1565972 L1670217 1565972 L1680098 1589028 "/>
</g></g>
<g style="fill:#000084; fill-opacity:0.01;  stroke:#000084; stroke-width:2518.192398; stroke-opacity:1;  stroke-linecap:round; stroke-linejoin:round;">
<g transform="rotate(-90.000000 1750006.832305 1179849.754068)">
<text x="1750006.832305" y="1185618.171538" transform="scale(-1 1) translate(-3500013.664610 0)" textLength="29015.815419" font-size="15382.438901" lengthAdjust="spacingAndGlyphs" text-anchor="middle" opacity="0.01" style="font-family:monospace">R19</text>
</g>
<g class="stroked-text"><desc>R19</desc>
<path d="M1755225 1172433 L1749732 1168587 "/>
<path d="M1755225 1165840 L1743689 1165840 L1743689 1170235 L1744238 1171334 L1744787 1171883 L1745886 1172433 L1747534 1172433 L1748633 1171883 L1749182 1171334 L1749732 1170235 L1749732 1165840 "/>
<path d="M1755225 1183420 L1755225 1176828 "/>
<path d="M1755225 1180124 L1743689 1180124 L1745337 1179025 L1746435 1177926 L1746985 1176828 "/>
<path d="M1755225 1188914 L1755225 1191111 L1754676 1192210 L1754127 1192760 L1752479 1193858 L1750281 1194408 L1745886 1194408 L1744787 1193858 L1744238 1193309 L1743689 1192210 L1743689 1190013 L1744238 1188914 L1744787 1188365 L1745886 1187815 L1748633 1187815 L1749732 1188365 L1750281 1188914 L1750830 1190013 L1750830 1192210 L1750281 1193309 L1749732 1193858 L1748633 1194408 "/>
</g><g transform="rotate(-90.000000 1733902.113480 1176921.623372)">
<text x="1733902.113480" y="1182690.040842" transform="scale(-1 1) translate(-3467804.226960 0)" textLength="41225.567071" font-size="15382.438901" lengthAdjust="spacingAndGlyphs" text-anchor="middle" opacity="0.01" style="font-family:monospace">510R</text>
</g>
<g class="stroked-text"><desc>510R</desc>
<path d="M1727584 1162912 L1727584 1157418 L1733078 1156869 L1732528 1157418 L1731979 1158517 L1731979 1161264 L1732528 1162363 L1733078 1162912 L1734176 1163461 L1736923 1163461 L1738022 1162912 L1738571 1162363 L1739121 1161264 L1739121 1158517 L1738571 1157418 L1738022 1156869 "/>
<path d="M1739121 1174449 L1739121 1167856 "/>
<path d="M1739121 1171153 L1727584 1171153 L1729232 1170054 L1730331 1168955 L1730880 1167856 "/>
<path d="M1727584 1181591 L1727584 1182690 L1728133 1183788 L1728683 1184338 L1729781 1184887 L1731979 1185436 L1734726 1185436 L1736923 1184887 L1738022 1184338 L1738571 1183788 L1739121 1182690 L1739121 1181591 L1738571 1180492 L1738022 1179943 L1736923 1179393 L1734726 1178844 L1731979 1178844 L1729781 1179393 L1728683 1179943 L1728133 1180492 L1727584 1181591 "/>
<path d="M1739121 1196973 L1733627 1193128 "/>
<path d="M1739121 1190381 L1727584 1190381 L1727584 1194776 L1728133 1195874 L1728683 1196424 L1729781 1196973 L1731429 1196973 L1732528 1196424 L1733078 1195874 L1733627 1194776 L1733627 1190381 "/>
</g><text x="2105774.711798" y="632689.522628" transform="scale(-1 1) translate(-4211549.423596 0)" textLength="30238.114007" font-size="15382.438901" lengthAdjust="spacingAndGlyphs" text-anchor="middle" opacity="0.01" style="font-family:monospace">R18</text>
<g class="stroked-text"><desc>R18</desc>
<path d="M2113191 632140 L2117036 626646 "/>
<path d="M2119783 632140 L2119783 620603 L2115388 620603 L2114289 621152 L2113740 621702 L2113191 622800 L2113191 624448 L2113740 625547 L2114289 626097 L2115388 626646 L2119783 626646 "/>
<path d="M2102203 632140 L2108796 632140 "/>
<path d="M2105500 632140 L2105500 620603 L2106598 622251 L2107697 623350 L2108796 623899 "/>
<path d="M2095611 625547 L2096710 624998 L2097259 624448 L2097808 623350 L2097808 622800 L2097259 621702 L2096710 621152 L2095611 620603 L2093413 620603 L2092315 621152 L2091765 621702 L2091216 622800 L2091216 623350 L2091765 624448 L2092315 624998 L2093413 625547 L2095611 625547 L2096710 626097 L2097259 626646 L2097808 627745 L2097808 629942 L2097259 631041 L2096710 631590 L2095611 632140 L2093413 632140 L2092315 631590 L2091765 631041 L2091216 629942 L2091216 627745 L2091765 626646 L2092315 626097 L2093413 625547 "/>
</g><text x="2102846.581103" y="648794.241453" transform="scale(-1 1) translate(-4205693.162205 0)" textLength="17053.156496" font-size="15382.438901" lengthAdjust="spacingAndGlyphs" text-anchor="middle" opacity="0.01" style="font-family:monospace">1k</text>
<g class="stroked-text"><desc>1k</desc>
<path d="M2104220 648244 L2110812 648244 "/>
<path d="M2107516 648244 L2107516 636708 L2108614 638356 L2109713 639454 L2110812 640004 "/>
<path d="M2099275 648244 L2099275 636708 "/>
<path d="M2098176 643849 L2094880 648244 "/>
<path d="M2094880 640553 L2099275 644948 "/>
</g><text x="2105774.711798" y="339876.453086" transform="scale(-1 1) translate(-4211549.423596 0)" textLength="19250.637887" font-size="15382.438901" lengthAdjust="spacingAndGlyphs" text-anchor="middle" opacity="0.01" style="font-family:monospace">R9</text>
<g class="stroked-text"><desc>R9</desc>
<path d="M2107697 339327 L2111543 333833 "/>
<path d="M2114289 339327 L2114289 327790 L2109895 327790 L2108796 328339 L2108246 328888 L2107697 329987 L2107697 331635 L2108246 332734 L2108796 333283 L2109895 333833 L2114289 333833 "/>
<path d="M2102203 339327 L2100006 339327 L2098907 338777 L2098358 338228 L2097259 336580 L2096710 334382 L2096710 329987 L2097259 328888 L2097808 328339 L2098907 327790 L2101105 327790 L2102203 328339 L2102753 328888 L2103302 329987 L2103302 332734 L2102753 333833 L2102203 334382 L2101105 334932 L2098907 334932 L2097808 334382 L2097259 333833 L2096710 332734 "/>
</g><text x="2102846.581103" y="355981.171911" transform="scale(-1 1) translate(-4205693.162205 0)" textLength="17053.156496" font-size="15382.438901" lengthAdjust="spacingAndGlyphs" text-anchor="middle" opacity="0.01" style="font-family:monospace">1k</text>
<g class="stroked-text"><desc>1k</desc>
<path d="M2104220 355431 L2110812 355431 "/>
<path d="M2107516 355431 L2107516 343894 L2108614 345543 L2109713 346641 L2110812 347191 "/>
<path d="M2099275 355431 L2099275 343894 "/>
<path d="M2098176 351036 L2094880 355431 "/>
<path d="M2094880 347740 L2099275 352135 "/>
</g><g transform="rotate(-90.000000 1750006.832305 1672263.763422)">
<text x="1750006.832305" y="1678032.180892" transform="scale(-1 1) translate(-3500013.664610 0)" textLength="30238.114007" font-size="15382.438901" lengthAdjust="spacingAndGlyphs" text-anchor="middle" opacity="0.01" style="font-family:monospace">R21</text>
</g>
<g class="stroked-text"><desc>R21</desc>
<path d="M1755225 1664847 L1749732 1661001 "/>
<path d="M1755225 1658254 L1743689 1658254 L1743689 1662649 L1744238 1663748 L1744787 1664297 L1745886 1664847 L1747534 1664847 L1748633 1664297 L1749182 1663748 L1749732 1662649 L1749732 1658254 "/>
<path d="M1744787 1669242 L1744238 1669791 L1743689 1670890 L1743689 1673637 L1744238 1674735 L1744787 1675285 L1745886 1675834 L1746985 1675834 L1748633 1675285 L1755225 1668692 L1755225 1675834 "/>
<path d="M1755225 1686822 L1755225 1680229 "/>
<path d="M1755225 1683525 L1743689 1683525 L1745337 1682427 L1746435 1681328 L1746985 1680229 "/>
</g><g transform="rotate(-90.000000 1733902.113480 1669335.632727)">
<text x="1733902.113480" y="1675104.050197" transform="scale(-1 1) translate(-3467804.226960 0)" textLength="41225.567071" font-size="15382.438901" lengthAdjust="spacingAndGlyphs" text-anchor="middle" opacity="0.01" style="font-family:monospace">510R</text>
</g>
<g class="stroked-text"><desc>510R</desc>
<path d="M1727584 1655326 L1727584 1649832 L1733078 1649283 L1732528 1649832 L1731979 1650931 L1731979 1653678 L1732528 1654777 L1733078 1655326 L1734176 1655875 L1736923 1655875 L1738022 1655326 L1738571 1654777 L1739121 1653678 L1739121 1650931 L1738571 1649832 L1738022 1649283 "/>
<path d="M1739121 1666863 L1739121 1660270 "/>
<path d="M1739121 1663567 L1727584 1663567 L1729232 1662468 L1730331 1661369 L1730880 1660270 "/>
<path d="M1727584 1674005 L1727584 1675104 L1728133 1676202 L1728683 1676752 L1729781 1677301 L1731979 1677850 L1734726 1677850 L1736923 1677301 L1738022 1676752 L1738571 1676202 L1739121 1675104 L1739121 1674005 L1738571 1672906 L1738022 1672357 L1736923 1671807 L1734726 1671258 L1731979 1671258 L1729781 1671807 L1728683 1672357 L1728133 1672906 L1727584 1674005 "/>
<path d="M1739121 1689387 L1733627 1685542 "/>
<path d="M1739121 1682795 L1727584 1682795 L1727584 1687190 L1728133 1688288 L1728683 1688838 L1729781 1689387 L1731429 1689387 L1732528 1688838 L1733078 1688288 L1733627 1687190 L1733627 1682795 "/>
</g></g>
<g style="fill:#000084; fill-opacity:0.0;  stroke:#000084; stroke-width:3458.422081; stroke-opacity:1;  stroke-linecap:round; stroke-linejoin:round;">
<path d="M1591009 917684 L1591009 983274 "/>
<path d="M1592180 983274 L1706377 983274 "/>
<path d="M1705206 917684 L1591009 917684 "/>
<path d="M1706963 983274 L1706963 917684 "/>
<path d="M2117487 593247 L2140912 593247 "/>
<path d="M2070637 593247 L2094062 593247 "/>
<path d="M2094062 558110 L2070637 558110 "/>
<path d="M2140912 593247 L2140912 558110 "/>
<path d="M2070637 558110 L2070637 593247 "/>
<path d="M2140912 558110 L2117487 558110 "/>
</g>
<g style="fill:#000084; fill-opacity:0.0;  stroke:#000084; stroke-width:2766.737665; stroke-opacity:1;  stroke-linecap:round; stroke-linejoin:round;">
<path d="M1740703 383905 L1740703 300903 "/>
<path d="M1657701 383905 L1740703 383905 "/>
<path d="M1639256 365460 L1657701 383905 "/>
<path d="M1639256 300903 L1639256 365460 "/>
<path d="M1740703 300903 L1639256 300903 "/>
</g>
<g style="fill:#000084; fill-opacity:0.0;  stroke:#000084; stroke-width:3458.422081; stroke-opacity:1;  stroke-linecap:round; stroke-linejoin:round;">
<path d="M2070637 733797 L2070637 710372 "/>
<path d="M2070637 710372 L2035499 710372 "/>
<path d="M2035499 780647 L2070637 780647 "/>
<path d="M2035499 757222 L2035499 780647 "/>
<path d="M2070637 780647 L2070637 757222 "/>
<path d="M2035499 710372 L2035499 733797 "/>
<path d="M2070637 382422 L2070637 417559 "/>
<path d="M2094062 382422 L2070637 382422 "/>
<path d="M2140912 417559 L2140912 382422 "/>
<path d="M2117487 417559 L2140912 417559 "/>
<path d="M2070637 417559 L2094062 417559 "/>
<path d="M2140912 382422 L2117487 382422 "/>
<path d="M1929443 1560789 L1995033 1560789 "/>
<path d="M1995033 1559032 L1995033 1444835 "/>
<path d="M1929443 1446006 L1929443 1560203 "/>
<path d="M1995033 1444835 L1929443 1444835 "/>
</g>
<g style="fill:#000084; fill-opacity:0.0;  stroke:#000084; stroke-width:2766.737665; stroke-opacity:1;  stroke-linecap:round; stroke-linejoin:round;">
<path d="M1740703 1124722 L1740703 1041720 "/>
<path d="M1639256 1041720 L1639256 1106277 "/>
<path d="M1639256 1106277 L1657701 1124722 "/>
<path d="M1657701 1124722 L1740703 1124722 "/>
<path d="M1740703 1041720 L1639256 1041720 "/>
</g>
<g style="fill:#000084; fill-opacity:0.0;  stroke:#000084; stroke-width:3458.422081; stroke-opacity:1;  stroke-linecap:round; stroke-linejoin:round;">
<path d="M1975949 1785812 L1975949 1671615 "/>
<path d="M1975949 1671615 L1910358 1671615 "/>
<path d="M1910358 1672787 L1910358 1786984 "/>
<path d="M1910358 1787569 L1975949 1787569 "/>
<path d="M1725117 476366 L1760255 476366 "/>
<path d="M1725117 452941 L1725117 476366 "/>
<path d="M1760255 406091 L1725117 406091 "/>
<path d="M1760255 476366 L1760255 452941 "/>
<path d="M1760255 429516 L1760255 406091 "/>
<path d="M1725117 406091 L1725117 429516 "/>
</g>
<g style="fill:#000084; fill-opacity:0.0;  stroke:#000084; stroke-width:2766.737665; stroke-opacity:1;  stroke-linecap:round; stroke-linejoin:round;">
<path d="M1639256 794781 L1639256 859338 "/>
<path d="M1657701 877783 L1740703 877783 "/>
<path d="M1740703 794781 L1639256 794781 "/>
<path d="M1639256 859338 L1657701 877783 "/>
<path d="M1740703 877783 L1740703 794781 "/>
</g>
<g style="fill:#000084; fill-opacity:0.0;  stroke:#000084; stroke-width:3458.422081; stroke-opacity:1;  stroke-linecap:round; stroke-linejoin:round;">
<path d="M2094062 265296 L2070637 265296 "/>
<path d="M2070637 300434 L2094062 300434 "/>
<path d="M2117487 300434 L2140912 300434 "/>
<path d="M2070637 265296 L2070637 300434 "/>
<path d="M2140912 265296 L2117487 265296 "/>
<path d="M2140912 300434 L2140912 265296 "/>
<path d="M2140912 534684 L2140912 499547 "/>
<path d="M2117487 534684 L2140912 534684 "/>
<path d="M2140912 499547 L2117487 499547 "/>
<path d="M2094062 499547 L2070637 499547 "/>
<path d="M2070637 499547 L2070637 534684 "/>
<path d="M2070637 534684 L2094062 534684 "/>
<path d="M1706963 491348 L1706963 425758 "/>
<path d="M1705206 425758 L1591009 425758 "/>
<path d="M1592180 491348 L1706377 491348 "/>
<path d="M1591009 425758 L1591009 491348 "/>
<path d="M1705206 1655573 L1591009 1655573 "/>
<path d="M1592180 1721163 L1706377 1721163 "/>
<path d="M1706963 1721163 L1706963 1655573 "/>
<path d="M1591009 1655573 L1591009 1721163 "/>
<path d="M2064596 1251108 L1982608 1251108 "/>
<path d="M1982608 1251108 L1982608 1116414 "/>
<path d="M2064596 1116414 L1982608 1116414 "/>
<path d="M2064596 1251108 L2064596 1116414 "/>
<path d="M1725117 945355 L1725117 968780 "/>
<path d="M1760255 968780 L1760255 945355 "/>
<path d="M1760255 921930 L1760255 898505 "/>
<path d="M1760255 898505 L1725117 898505 "/>
<path d="M1725117 898505 L1725117 921930 "/>
<path d="M1725117 968780 L1760255 968780 "/>
<path d="M2225989 1251108 L2144001 1251108 "/>
<path d="M2225989 1116414 L2144001 1116414 "/>
<path d="M2144001 1251108 L2144001 1116414 "/>
<path d="M2225989 1251108 L2225989 1116414 "/>
<path d="M2070637 440984 L2070637 476122 "/>
<path d="M2117487 476122 L2140912 476122 "/>
<path d="M2070637 476122 L2094062 476122 "/>
<path d="M2094062 440984 L2070637 440984 "/>
<path d="M2140912 440984 L2117487 440984 "/>
<path d="M2140912 476122 L2140912 440984 "/>
<path d="M1944669 1350549 L1944669 1373974 "/>
<path d="M1979807 1350549 L1944669 1350549 "/>
<path d="M1944669 1397399 L1944669 1420824 "/>
<path d="M1979807 1373974 L1979807 1350549 "/>
<path d="M1944669 1420824 L1979807 1420824 "/>
<path d="M1979807 1420824 L1979807 1397399 "/>
<path d="M1725117 1461194 L1760255 1461194 "/>
<path d="M1725117 1390919 L1725117 1414344 "/>
<path d="M1760255 1414344 L1760255 1390919 "/>
<path d="M1760255 1390919 L1725117 1390919 "/>
<path d="M1760255 1461194 L1760255 1437769 "/>
<path d="M1725117 1437769 L1725117 1461194 "/>
<path d="M1705206 1409610 L1591009 1409610 "/>
<path d="M1706963 1475200 L1706963 1409610 "/>
<path d="M1591009 1409610 L1591009 1475200 "/>
<path d="M1592180 1475200 L1706377 1475200 "/>
<path d="M1706963 737311 L1706963 671721 "/>
<path d="M1592180 737311 L1706377 737311 "/>
<path d="M1705206 671721 L1591009 671721 "/>
<path d="M1591009 671721 L1591009 737311 "/>
<path d="M1706963 1229237 L1706963 1163647 "/>
<path d="M1592180 1229237 L1706377 1229237 "/>
<path d="M1705206 1163647 L1591009 1163647 "/>
<path d="M1591009 1163647 L1591009 1229237 "/>
<path d="M1925585 1654925 L1960722 1654925 "/>
<path d="M1960722 1584650 L1925585 1584650 "/>
<path d="M1960722 1654925 L1960722 1631500 "/>
<path d="M1925585 1584650 L1925585 1608075 "/>
<path d="M1925585 1631500 L1925585 1654925 "/>
<path d="M1960722 1608075 L1960722 1584650 "/>
</g>
<g style="fill:#000084; fill-opacity:0.0;  stroke:#000084; stroke-width:2305.614721; stroke-opacity:1;  stroke-linecap:round; stroke-linejoin:round;">
<path d="M2091364 767044 L2120184 767044 "/>
<path d="M2120184 720932 L2091364 720932 "/>
<path d="M2091364 720932 L2091364 767044 "/>
<path d="M2120184 767044 L2120184 720932 "/>
</g>
<g style="fill:#000084; fill-opacity:0.0;  stroke:#000084; stroke-width:3458.422081; stroke-opacity:1;  stroke-linecap:round; stroke-linejoin:round;">
<path d="M1591009 179795 L1591009 245385 "/>
<path d="M1592180 245385 L1706377 245385 "/>
<path d="M1705206 179795 L1591009 179795 "/>
<path d="M1706963 245385 L1706963 179795 "/>
</g>
<g style="fill:#000084; fill-opacity:0.0;  stroke:#000084; stroke-width:2305.614721; stroke-opacity:1;  stroke-linecap:round; stroke-linejoin:round;">
<path d="M2211163 649215 L2229611 622686 "/>
<path d="M2211163 649215 L2193887 622686 "/>
<path d="M2245771 581212 L2245771 687270 "/>
<path d="M2176603 687270 L2245771 687270 "/>
<path d="M2193887 622686 L2229611 622686 "/>
<path d="M2229611 649215 L2192716 649215 "/>
<path d="M2211163 622686 L2211163 599671 "/>
<path d="M2176603 581212 L2176603 687270 "/>
<path d="M2245771 581212 L2176603 581212 "/>
<path d="M2211163 649215 L2211163 670004 "/>
</g>
<g style="fill:#000084; fill-opacity:0.0;  stroke:#000084; stroke-width:2766.737665; stroke-opacity:1;  stroke-linecap:round; stroke-linejoin:round;">
<path d="M1740703 630844 L1740703 547842 "/>
<path d="M1740703 547842 L1639256 547842 "/>
<path d="M1639256 612399 L1657701 630844 "/>
<path d="M1657701 630844 L1740703 630844 "/>
<path d="M1639256 547842 L1639256 612399 "/>
<path d="M1639256 1353216 L1657701 1371661 "/>
<path d="M1740703 1288659 L1639256 1288659 "/>
<path d="M1639256 1288659 L1639256 1353216 "/>
<path d="M1657701 1371661 L1740703 1371661 "/>
<path d="M1740703 1371661 L1740703 1288659 "/>
<path d="M1740703 53964 L1639256 53964 "/>
<path d="M1639256 53964 L1639256 118521 "/>
<path d="M1657701 136966 L1740703 136966 "/>
<path d="M1740703 136966 L1740703 53964 "/>
<path d="M1639256 118521 L1657701 136966 "/>
</g>
<g style="fill:#000084; fill-opacity:0.0;  stroke:#000084; stroke-width:3458.422081; stroke-opacity:1;  stroke-linecap:round; stroke-linejoin:round;">
<path d="M1725117 699148 L1725117 722573 "/>
<path d="M1760255 675723 L1760255 652298 "/>
<path d="M1760255 722573 L1760255 699148 "/>
<path d="M1760255 652298 L1725117 652298 "/>
<path d="M1725117 652298 L1725117 675723 "/>
<path d="M1725117 722573 L1760255 722573 "/>
<path d="M1725117 230159 L1760255 230159 "/>
<path d="M1760255 230159 L1760255 206734 "/>
<path d="M1760255 183309 L1760255 159884 "/>
<path d="M1725117 206734 L1725117 230159 "/>
<path d="M1760255 159884 L1725117 159884 "/>
<path d="M1725117 159884 L1725117 183309 "/>
</g>
<g style="fill:#000084; fill-opacity:0.0;  stroke:#000084; stroke-width:2766.737665; stroke-opacity:1;  stroke-linecap:round; stroke-linejoin:round;">
<path d="M1657701 1618600 L1740703 1618600 "/>
<path d="M1740703 1535598 L1639256 1535598 "/>
<path d="M1639256 1535598 L1639256 1600155 "/>
<path d="M1639256 1600155 L1657701 1618600 "/>
<path d="M1740703 1618600 L1740703 1535598 "/>
</g>
<g style="fill:#000084; fill-opacity:0.0;  stroke:#000084; stroke-width:3458.422081; stroke-opacity:1;  stroke-linecap:round; stroke-linejoin:round;">
<path d="M1760255 1144712 L1725117 1144712 "/>
<path d="M1725117 1144712 L1725117 1168137 "/>
<path d="M1760255 1168137 L1760255 1144712 "/>
<path d="M1725117 1214987 L1760255 1214987 "/>
<path d="M1725117 1191562 L1725117 1214987 "/>
<path d="M1760255 1214987 L1760255 1191562 "/>
<path d="M2070637 616672 L2070637 651810 "/>
<path d="M2140912 616672 L2117487 616672 "/>
<path d="M2094062 616672 L2070637 616672 "/>
<path d="M2070637 651810 L2094062 651810 "/>
<path d="M2140912 651810 L2140912 616672 "/>
<path d="M2117487 651810 L2140912 651810 "/>
<path d="M2070637 358997 L2094062 358997 "/>
<path d="M2094062 323859 L2070637 323859 "/>
<path d="M2140912 358997 L2140912 323859 "/>
<path d="M2070637 323859 L2070637 358997 "/>
<path d="M2117487 358997 L2140912 358997 "/>
<path d="M2140912 323859 L2117487 323859 "/>
<path d="M1760255 1660551 L1760255 1637126 "/>
<path d="M1725117 1707401 L1760255 1707401 "/>
<path d="M1725117 1637126 L1725117 1660551 "/>
<path d="M1760255 1637126 L1725117 1637126 "/>
<path d="M1725117 1683976 L1725117 1707401 "/>
<path d="M1760255 1707401 L1760255 1683976 "/>
<g>
</g>
<g>
</g>
<g>
</g>
<g>
</g>
<g>
</g>
<g>
</g>
<g>
</g>
<g>
</g>
<g>
</g>
<g>
</g>
<g>
</g>
<g>
</g>
<g>
</g>
<g>
</g>
<g>
</g>
<g>
</g>
<g>
</g>
<g>
</g>
<g>
</g>
<g>
</g>
<g>
</g>
<g>
</g>
<g>
</g>
<g>
</g>
<g>
</g>
<g>
</g>
<g>
</g>
<g>
</g>
<g>
</g>
<g>
</g>
<g>
</g>
<g>
</g>
<g>
</g>
<g>
</g>
<g>
</g>
<g>
</g>
<g>
</g>
<g>
</g>
<g>
</g>
<g>
</g>
<g>
</g>
<g>
</g>
<g>
</g>
<g>
</g>
<g>
</g>
<g>
</g>
<g>
</g>
<g>
</g>
<g>
</g>
<g>
</g>
<g>
</g>
<g>
</g>
<g>
</g>
<g>
</g>
<g>
</g>
<g>
</g>
<g>
</g>
<g>
</g>
<g>
</g>
<g>
</g>
<g>
</g>
<g>
</g>
<g>
</g>
<g>
</g>
<g>
</g>
<g>
</g>
<g>
</g>
<g>
</g>
<g>
</g>
<g>
</g>
<g>
</g>
<g>
</g>
<g>
</g>
</g> 
<svg:g><svg:g><svg:title>SVG Picture created as ISO11446PWR01-Edge_Cuts.svg date 2023/04/14 01:16:03 </svg:title>
  <svg:desc>Picture generated by PCBNEW </svg:desc>
<svg:g style="fill:#C2C200; fill-opacity:1.000000;stroke:#C2C200; stroke-opacity:1.000000; stroke-linecap:round; stroke-linejoin:round;" transform="translate(0 0) scale(1 1)">
</svg:g>
<svg:g style="fill:#C2C200; fill-opacity:0.0;  stroke:#C2C200; stroke-width:0.000000; stroke-opacity:1;  stroke-linecap:round; stroke-linejoin:round;">
</svg:g>
<svg:g style="fill:#C2C200; fill-opacity:0.0;  stroke:#C2C200; stroke-width:3458.422081; stroke-opacity:1;  stroke-linecap:round; stroke-linejoin:round;">
<svg:path d="M670990 1765 L2299031 1765 "/>
<svg:path d="M2299031 1765 L2299031 2098306 "/>
<svg:path d="M2299031 2098306 L670990 2098306 "/>
<svg:path d="M670990 2098306 L670990 1765 "/>
<svg:g>
</svg:g>
<svg:g>
</svg:g>
<svg:g>
</svg:g>
<svg:g>
</svg:g>
<svg:g>
</svg:g>
<svg:g>
</svg:g>
<svg:g>
</svg:g>
<svg:g>
</svg:g>
<svg:g>
</svg:g>
<svg:g>
</svg:g>
<svg:g>
</svg:g>
<svg:g>
</svg:g>
<svg:g>
</svg:g>
<svg:g>
</svg:g>
<svg:g>
</svg:g>
<svg:g>
</svg:g>
<svg:g>
</svg:g>
<svg:g>
</svg:g>
<svg:g>
</svg:g>
<svg:g>
</svg:g>
<svg:g>
</svg:g>
<svg:g>
</svg:g>
<svg:g>
</svg:g>
<svg:g>
</svg:g>
<svg:g>
</svg:g>
<svg:g>
</svg:g>
<svg:g>
</svg:g>
<svg:g>
</svg:g>
<svg:g>
</svg:g>
<svg:g>
</svg:g>
<svg:g>
</svg:g>
<svg:g>
</svg:g>
<svg:g>
</svg:g>
<svg:g>
</svg:g>
<svg:g>
</svg:g>
<svg:g>
</svg:g>
<svg:g>
</svg:g>
<svg:g>
</svg:g>
<svg:g>
</svg:g>
<svg:g>
</svg:g>
<svg:g>
</svg:g>
<svg:g>
</svg:g>
<svg:g>
</svg:g>
<svg:g>
</svg:g>
<svg:g>
</svg:g>
<svg:g>
</svg:g>
<svg:g>
</svg:g>
<svg:g>
</svg:g>
<svg:g>
</svg:g>
<svg:g>
</svg:g>
<svg:g>
</svg:g>
<svg:g>
</svg:g>
<svg:g>
</svg:g>
<svg:g>
</svg:g>
<svg:g>
</svg:g>
<svg:g>
</svg:g>
<svg:g>
</svg:g>
<svg:g>
</svg:g>
<svg:g>
</svg:g>
<svg:g>
</svg:g>
<svg:g>
</svg:g>
<svg:g>
</svg:g>
<svg:g>
</svg:g>
<svg:g>
</svg:g>
<svg:g>
</svg:g>
<svg:g>
</svg:g>
<svg:g>
</svg:g>
<svg:g>
</svg:g>
<svg:g>
</svg:g>
<svg:g>
</svg:g>
<svg:g>
</svg:g>
<svg:g>
</svg:g>
<svg:g>
</svg:g>
</svg:g> 
</svg:g></svg:g></svg>
