<?xml version='1.0' encoding='ASCII' standalone='yes'?>
<svg xmlns:svg="http://www.w3.org/2000/svg" xmlns="http://www.w3.org/2000/svg" xmlns:xlink="http://www.w3.org/1999/xlink" version="1.1" width="297.0022mm" height="210.0072mm" viewBox="0.0000 0.0000 297.0022 210.0072">
<title>SVG Image created as ISO11446PWR01-F_Fab.svg date 2023/07/05 01:54:55 </title>
  <desc>Image generated by PCBNEW </desc>
<g style="fill:#848484; fill-opacity:1.0000;stroke:#848484; stroke-opacity:1.0000; stroke-linecap:round; stroke-linejoin:round;" transform="translate(0 0) scale(1 1)">
</g>
<g style="fill:#848484; fill-opacity:0.0;  stroke:#848484; stroke-width:0.0000; stroke-opacity:1;  stroke-linecap:round; stroke-linejoin:round;">
</g>
<g style="fill:#848484; fill-opacity:0.0;  stroke:#848484; stroke-width:0.7028; stroke-opacity:1;  stroke-linecap:round; stroke-linejoin:round;">
<g transform="rotate(-90.000000 224.8029 53.3717)">
<text x="224.8029" y="55.1285" textLength="7.0777" font-size="4.6850" lengthAdjust="spacingAndGlyphs" text-anchor="middle" opacity="0.01" style="font-family:monospace">J3</text>
</g>
<g class="stroked-text"><desc>J3</desc>
<path d="M226.7277 54.5429 L224.2178 54.5429 "/>
<path d="M224.2178 54.5429 L223.7159 54.7102 "/>
<path d="M223.7159 54.7102 L223.3812 55.0449 "/>
<path d="M223.3812 55.0449 L223.2139 55.5468 "/>
<path d="M223.2139 55.5468 L223.2139 55.8815 "/>
<path d="M226.7277 53.2043 L226.7277 51.0292 "/>
<path d="M226.7277 51.0292 L225.3891 52.2004 "/>
<path d="M225.3891 52.2004 L225.3891 51.6984 "/>
<path d="M225.3891 51.6984 L225.2218 51.3638 "/>
<path d="M225.2218 51.3638 L225.0544 51.1965 "/>
<path d="M225.0544 51.1965 L224.7198 51.0292 "/>
<path d="M224.7198 51.0292 L223.8832 51.0292 "/>
<path d="M223.8832 51.0292 L223.5485 51.1965 "/>
<path d="M223.5485 51.1965 L223.3812 51.3638 "/>
<path d="M223.3812 51.3638 L223.2139 51.6984 "/>
<path d="M223.2139 51.6984 L223.2139 52.7024 "/>
<path d="M223.2139 52.7024 L223.3812 53.0370 "/>
<path d="M223.3812 53.0370 L223.5485 53.2043 "/>
</g><g transform="rotate(-90.000000 224.8029 64.8997)">
<text x="224.8029" y="66.6566" textLength="7.0777" font-size="4.6850" lengthAdjust="spacingAndGlyphs" text-anchor="middle" opacity="0.01" style="font-family:monospace">J4</text>
</g>
<g class="stroked-text"><desc>J4</desc>
<path d="M226.7277 66.0710 L224.2178 66.0710 "/>
<path d="M224.2178 66.0710 L223.7159 66.2383 "/>
<path d="M223.7159 66.2383 L223.3812 66.5730 "/>
<path d="M223.3812 66.5730 L223.2139 67.0749 "/>
<path d="M223.2139 67.0749 L223.2139 67.4096 "/>
<path d="M225.5564 62.8919 L223.2139 62.8919 "/>
<path d="M226.8950 63.7285 L224.3851 64.5651 "/>
<path d="M224.3851 64.5651 L224.3851 62.3899 "/>
</g><g transform="rotate(-90.000000 71.6325 173.5680)">
<text x="71.6325" y="175.3248" textLength="10.4241" font-size="4.6850" lengthAdjust="spacingAndGlyphs" text-anchor="middle" opacity="0.01" style="font-family:monospace">J21</text>
</g>
<g class="stroked-text"><desc>J21</desc>
<path d="M73.5573 176.4124 L71.0474 176.4124 "/>
<path d="M71.0474 176.4124 L70.5455 176.5798 "/>
<path d="M70.5455 176.5798 L70.2108 176.9144 "/>
<path d="M70.2108 176.9144 L70.0435 177.4164 "/>
<path d="M70.0435 177.4164 L70.0435 177.7510 "/>
<path d="M73.2226 174.9065 L73.3899 174.7392 "/>
<path d="M73.3899 174.7392 L73.5573 174.4046 "/>
<path d="M73.5573 174.4046 L73.5573 173.5680 "/>
<path d="M73.5573 173.5680 L73.3899 173.2333 "/>
<path d="M73.3899 173.2333 L73.2226 173.0660 "/>
<path d="M73.2226 173.0660 L72.8880 172.8987 "/>
<path d="M72.8880 172.8987 L72.5533 172.8987 "/>
<path d="M72.5533 172.8987 L72.0514 173.0660 "/>
<path d="M72.0514 173.0660 L70.0435 175.0739 "/>
<path d="M70.0435 175.0739 L70.0435 172.8987 "/>
<path d="M70.0435 169.5522 L70.0435 171.5601 "/>
<path d="M70.0435 170.5562 L73.5573 170.5562 "/>
<path d="M73.5573 170.5562 L73.0553 170.8908 "/>
<path d="M73.0553 170.8908 L72.7206 171.2255 "/>
<path d="M72.7206 171.2255 L72.5533 171.5601 "/>
</g></g>
<g style="fill:#848484; fill-opacity:0.01;  stroke:#848484; stroke-width:0.3458; stroke-opacity:1;  stroke-linecap:round; stroke-linejoin:round;">
<text x="158.0463" y="126.9201" textLength="7.1007" font-size="3.0742" lengthAdjust="spacingAndGlyphs" text-anchor="middle" opacity="0.01" style="font-family:monospace">33R</text>
<g class="stroked-text"><desc>33R</desc>
<path d="M161.0656 124.5103 L159.6383 124.5103 "/>
<path d="M159.6383 124.5103 L160.4069 125.3887 "/>
<path d="M160.4069 125.3887 L160.0775 125.3887 "/>
<path d="M160.0775 125.3887 L159.8579 125.4984 "/>
<path d="M159.8579 125.4984 L159.7481 125.6082 "/>
<path d="M159.7481 125.6082 L159.6383 125.8278 "/>
<path d="M159.6383 125.8278 L159.6383 126.3768 "/>
<path d="M159.6383 126.3768 L159.7481 126.5964 "/>
<path d="M159.7481 126.5964 L159.8579 126.7061 "/>
<path d="M159.8579 126.7061 L160.0775 126.8159 "/>
<path d="M160.0775 126.8159 L160.7362 126.8159 "/>
<path d="M160.7362 126.8159 L160.9558 126.7061 "/>
<path d="M160.9558 126.7061 L161.0656 126.5964 "/>
<path d="M158.8698 124.5103 L157.4425 124.5103 "/>
<path d="M157.4425 124.5103 L158.2110 125.3887 "/>
<path d="M158.2110 125.3887 L157.8817 125.3887 "/>
<path d="M157.8817 125.3887 L157.6621 125.4984 "/>
<path d="M157.6621 125.4984 L157.5523 125.6082 "/>
<path d="M157.5523 125.6082 L157.4425 125.8278 "/>
<path d="M157.4425 125.8278 L157.4425 126.3768 "/>
<path d="M157.4425 126.3768 L157.5523 126.5964 "/>
<path d="M157.5523 126.5964 L157.6621 126.7061 "/>
<path d="M157.6621 126.7061 L157.8817 126.8159 "/>
<path d="M157.8817 126.8159 L158.5404 126.8159 "/>
<path d="M158.5404 126.8159 L158.7600 126.7061 "/>
<path d="M158.7600 126.7061 L158.8698 126.5964 "/>
<path d="M155.1369 126.8159 L155.9054 125.7180 "/>
<path d="M156.4544 126.8159 L156.4544 124.5103 "/>
<path d="M156.4544 124.5103 L155.5760 124.5103 "/>
<path d="M155.5760 124.5103 L155.3565 124.6201 "/>
<path d="M155.3565 124.6201 L155.2467 124.7299 "/>
<path d="M155.2467 124.7299 L155.1369 124.9495 "/>
<path d="M155.1369 124.9495 L155.1369 125.2789 "/>
<path d="M155.1369 125.2789 L155.2467 125.4984 "/>
<path d="M155.2467 125.4984 L155.3565 125.6082 "/>
<path d="M155.3565 125.6082 L155.5760 125.7180 "/>
<path d="M155.5760 125.7180 L156.4544 125.7180 "/>
</g><text x="158.0463" y="113.6628" textLength="4.9049" font-size="3.0742" lengthAdjust="spacingAndGlyphs" text-anchor="middle" opacity="0.01" style="font-family:monospace">R5</text>
<g class="stroked-text"><desc>R5</desc>
<path d="M158.4306 113.5587 L159.1992 112.4607 "/>
<path d="M159.7481 113.5587 L159.7481 111.2530 "/>
<path d="M159.7481 111.2530 L158.8698 111.2530 "/>
<path d="M158.8698 111.2530 L158.6502 111.3628 "/>
<path d="M158.6502 111.3628 L158.5404 111.4726 "/>
<path d="M158.5404 111.4726 L158.4306 111.6922 "/>
<path d="M158.4306 111.6922 L158.4306 112.0216 "/>
<path d="M158.4306 112.0216 L158.5404 112.2412 "/>
<path d="M158.5404 112.2412 L158.6502 112.3509 "/>
<path d="M158.6502 112.3509 L158.8698 112.4607 "/>
<path d="M158.8698 112.4607 L159.7481 112.4607 "/>
<path d="M156.3446 111.2530 L157.4425 111.2530 "/>
<path d="M157.4425 111.2530 L157.5523 112.3509 "/>
<path d="M157.5523 112.3509 L157.4425 112.2412 "/>
<path d="M157.4425 112.2412 L157.2229 112.1314 "/>
<path d="M157.2229 112.1314 L156.6740 112.1314 "/>
<path d="M156.6740 112.1314 L156.4544 112.2412 "/>
<path d="M156.4544 112.2412 L156.3446 112.3509 "/>
<path d="M156.3446 112.3509 L156.2348 112.5705 "/>
<path d="M156.2348 112.5705 L156.2348 113.1195 "/>
<path d="M156.2348 113.1195 L156.3446 113.3391 "/>
<path d="M156.3446 113.3391 L156.4544 113.4489 "/>
<path d="M156.4544 113.4489 L156.6740 113.5587 "/>
<path d="M156.6740 113.5587 L157.2229 113.5587 "/>
<path d="M157.2229 113.5587 L157.4425 113.4489 "/>
<path d="M157.4425 113.4489 L157.5523 113.3391 "/>
</g></g>
<g style="fill:#848484; fill-opacity:0.0;  stroke:#848484; stroke-width:0.7028; stroke-opacity:1;  stroke-linecap:round; stroke-linejoin:round;">
<g transform="rotate(-90.000000 224.8029 30.3155)">
<text x="224.8029" y="32.0724" textLength="7.0777" font-size="4.6850" lengthAdjust="spacingAndGlyphs" text-anchor="middle" opacity="0.01" style="font-family:monospace">J1</text>
</g>
<g class="stroked-text"><desc>J1</desc>
<path d="M226.7277 31.4868 L224.2178 31.4868 "/>
<path d="M224.2178 31.4868 L223.7159 31.6541 "/>
<path d="M223.7159 31.6541 L223.3812 31.9887 "/>
<path d="M223.3812 31.9887 L223.2139 32.4907 "/>
<path d="M223.2139 32.4907 L223.2139 32.8253 "/>
<path d="M223.2139 27.9730 L223.2139 29.9809 "/>
<path d="M223.2139 28.9769 L226.7277 28.9769 "/>
<path d="M226.7277 28.9769 L226.2257 29.3116 "/>
<path d="M226.2257 29.3116 L225.8910 29.6462 "/>
<path d="M225.8910 29.6462 L225.7237 29.9809 "/>
</g><g transform="rotate(-90.000000 71.6325 162.0399)">
<text x="71.6325" y="163.7968" textLength="10.4241" font-size="4.6850" lengthAdjust="spacingAndGlyphs" text-anchor="middle" opacity="0.01" style="font-family:monospace">J19</text>
</g>
<g class="stroked-text"><desc>J19</desc>
<path d="M73.5573 164.8844 L71.0474 164.8844 "/>
<path d="M71.0474 164.8844 L70.5455 165.0517 "/>
<path d="M70.5455 165.0517 L70.2108 165.3863 "/>
<path d="M70.2108 165.3863 L70.0435 165.8883 "/>
<path d="M70.0435 165.8883 L70.0435 166.2229 "/>
<path d="M70.0435 161.3706 L70.0435 163.3785 "/>
<path d="M70.0435 162.3745 L73.5573 162.3745 "/>
<path d="M73.5573 162.3745 L73.0553 162.7092 "/>
<path d="M73.0553 162.7092 L72.7206 163.0438 "/>
<path d="M72.7206 163.0438 L72.5533 163.3785 "/>
<path d="M70.0435 159.6974 L70.0435 159.0281 "/>
<path d="M70.0435 159.0281 L70.2108 158.6935 "/>
<path d="M70.2108 158.6935 L70.3781 158.5261 "/>
<path d="M70.3781 158.5261 L70.8801 158.1915 "/>
<path d="M70.8801 158.1915 L71.5494 158.0242 "/>
<path d="M71.5494 158.0242 L72.8880 158.0242 "/>
<path d="M72.8880 158.0242 L73.2226 158.1915 "/>
<path d="M73.2226 158.1915 L73.3899 158.3588 "/>
<path d="M73.3899 158.3588 L73.5573 158.6935 "/>
<path d="M73.5573 158.6935 L73.5573 159.3627 "/>
<path d="M73.5573 159.3627 L73.3899 159.6974 "/>
<path d="M73.3899 159.6974 L73.2226 159.8647 "/>
<path d="M73.2226 159.8647 L72.8880 160.0320 "/>
<path d="M72.8880 160.0320 L72.0514 160.0320 "/>
<path d="M72.0514 160.0320 L71.7167 159.8647 "/>
<path d="M71.7167 159.8647 L71.5494 159.6974 "/>
<path d="M71.5494 159.6974 L71.3821 159.3627 "/>
<path d="M71.3821 159.3627 L71.3821 158.6935 "/>
<path d="M71.3821 158.6935 L71.5494 158.3588 "/>
<path d="M71.5494 158.3588 L71.7167 158.1915 "/>
<path d="M71.7167 158.1915 L72.0514 158.0242 "/>
</g><g transform="rotate(-90.000000 224.8029 99.4840)">
<text x="224.8029" y="101.2408" textLength="7.0777" font-size="4.6850" lengthAdjust="spacingAndGlyphs" text-anchor="middle" opacity="0.01" style="font-family:monospace">J7</text>
</g>
<g class="stroked-text"><desc>J7</desc>
<path d="M226.7277 100.6552 L224.2178 100.6552 "/>
<path d="M224.2178 100.6552 L223.7159 100.8225 "/>
<path d="M223.7159 100.8225 L223.3812 101.1572 "/>
<path d="M223.3812 101.1572 L223.2139 101.6591 "/>
<path d="M223.2139 101.6591 L223.2139 101.9938 "/>
<path d="M226.7277 99.3166 L226.7277 96.9741 "/>
<path d="M226.7277 96.9741 L223.2139 98.4800 "/>
</g></g>
<g style="fill:#848484; fill-opacity:0.01;  stroke:#848484; stroke-width:0.2306; stroke-opacity:1;  stroke-linecap:round; stroke-linejoin:round;">
<text x="179.5393" y="189.3245" textLength="3.5298" font-size="1.5371" lengthAdjust="spacingAndGlyphs" text-anchor="middle" opacity="0.01" style="font-family:monospace">16A</text>
<g class="stroked-text"><desc>16A</desc>
<path d="M180.2529 189.2695 L180.9117 189.2695 "/>
<path d="M180.5823 189.2695 L180.5823 188.1166 "/>
<path d="M180.5823 188.1166 L180.6921 188.2813 "/>
<path d="M180.6921 188.2813 L180.8019 188.3911 "/>
<path d="M180.8019 188.3911 L180.9117 188.4460 "/>
<path d="M179.2648 188.1166 L179.4844 188.1166 "/>
<path d="M179.4844 188.1166 L179.5942 188.1715 "/>
<path d="M179.5942 188.1715 L179.6491 188.2264 "/>
<path d="M179.6491 188.2264 L179.7589 188.3911 "/>
<path d="M179.7589 188.3911 L179.8138 188.6107 "/>
<path d="M179.8138 188.6107 L179.8138 189.0499 "/>
<path d="M179.8138 189.0499 L179.7589 189.1597 "/>
<path d="M179.7589 189.1597 L179.7040 189.2146 "/>
<path d="M179.7040 189.2146 L179.5942 189.2695 "/>
<path d="M179.5942 189.2695 L179.3746 189.2695 "/>
<path d="M179.3746 189.2695 L179.2648 189.2146 "/>
<path d="M179.2648 189.2146 L179.2099 189.1597 "/>
<path d="M179.2099 189.1597 L179.1550 189.0499 "/>
<path d="M179.1550 189.0499 L179.1550 188.7754 "/>
<path d="M179.1550 188.7754 L179.2099 188.6656 "/>
<path d="M179.2099 188.6656 L179.2648 188.6107 "/>
<path d="M179.2648 188.6107 L179.3746 188.5558 "/>
<path d="M179.3746 188.5558 L179.5942 188.5558 "/>
<path d="M179.5942 188.5558 L179.7040 188.6107 "/>
<path d="M179.7040 188.6107 L179.7589 188.6656 "/>
<path d="M179.7589 188.6656 L179.8138 188.7754 "/>
<path d="M178.7159 188.9401 L178.1669 188.9401 "/>
<path d="M178.8256 189.2695 L178.4414 188.1166 "/>
<path d="M178.4414 188.1166 L178.0571 189.2695 "/>
</g></g>
<g style="fill:#848484; fill-opacity:0.0;  stroke:#848484; stroke-width:0.7028; stroke-opacity:1;  stroke-linecap:round; stroke-linejoin:round;">
<g transform="rotate(-90.000000 224.8029 157.1243)">
<text x="224.8029" y="158.8812" textLength="10.4241" font-size="4.6850" lengthAdjust="spacingAndGlyphs" text-anchor="middle" opacity="0.01" style="font-family:monospace">J13</text>
</g>
<g class="stroked-text"><desc>J13</desc>
<path d="M226.7277 159.9688 L224.2178 159.9688 "/>
<path d="M224.2178 159.9688 L223.7159 160.1361 "/>
<path d="M223.7159 160.1361 L223.3812 160.4708 "/>
<path d="M223.3812 160.4708 L223.2139 160.9727 "/>
<path d="M223.2139 160.9727 L223.2139 161.3074 "/>
<path d="M223.2139 156.4550 L223.2139 158.4629 "/>
<path d="M223.2139 157.4590 L226.7277 157.4590 "/>
<path d="M226.7277 157.4590 L226.2257 157.7936 "/>
<path d="M226.2257 157.7936 L225.8910 158.1283 "/>
<path d="M225.8910 158.1283 L225.7237 158.4629 "/>
<path d="M226.7277 155.2838 L226.7277 153.1086 "/>
<path d="M226.7277 153.1086 L225.3891 154.2799 "/>
<path d="M225.3891 154.2799 L225.3891 153.7779 "/>
<path d="M225.3891 153.7779 L225.2218 153.4432 "/>
<path d="M225.2218 153.4432 L225.0544 153.2759 "/>
<path d="M225.0544 153.2759 L224.7198 153.1086 "/>
<path d="M224.7198 153.1086 L223.8832 153.1086 "/>
<path d="M223.8832 153.1086 L223.5485 153.2759 "/>
<path d="M223.5485 153.2759 L223.3812 153.4432 "/>
<path d="M223.3812 153.4432 L223.2139 153.7779 "/>
<path d="M223.2139 153.7779 L223.2139 154.7818 "/>
<path d="M223.2139 154.7818 L223.3812 155.1165 "/>
<path d="M223.3812 155.1165 L223.5485 155.2838 "/>
</g></g>
<g style="fill:#848484; fill-opacity:0.01;  stroke:#848484; stroke-width:0.3458; stroke-opacity:1;  stroke-linecap:round; stroke-linejoin:round;">
<text x="158.0463" y="53.5052" textLength="7.1007" font-size="3.0742" lengthAdjust="spacingAndGlyphs" text-anchor="middle" opacity="0.01" style="font-family:monospace">33R</text>
<g class="stroked-text"><desc>33R</desc>
<path d="M161.0656 51.0954 L159.6383 51.0954 "/>
<path d="M159.6383 51.0954 L160.4069 51.9738 "/>
<path d="M160.4069 51.9738 L160.0775 51.9738 "/>
<path d="M160.0775 51.9738 L159.8579 52.0836 "/>
<path d="M159.8579 52.0836 L159.7481 52.1933 "/>
<path d="M159.7481 52.1933 L159.6383 52.4129 "/>
<path d="M159.6383 52.4129 L159.6383 52.9619 "/>
<path d="M159.6383 52.9619 L159.7481 53.1815 "/>
<path d="M159.7481 53.1815 L159.8579 53.2913 "/>
<path d="M159.8579 53.2913 L160.0775 53.4011 "/>
<path d="M160.0775 53.4011 L160.7362 53.4011 "/>
<path d="M160.7362 53.4011 L160.9558 53.2913 "/>
<path d="M160.9558 53.2913 L161.0656 53.1815 "/>
<path d="M158.8698 51.0954 L157.4425 51.0954 "/>
<path d="M157.4425 51.0954 L158.2110 51.9738 "/>
<path d="M158.2110 51.9738 L157.8817 51.9738 "/>
<path d="M157.8817 51.9738 L157.6621 52.0836 "/>
<path d="M157.6621 52.0836 L157.5523 52.1933 "/>
<path d="M157.5523 52.1933 L157.4425 52.4129 "/>
<path d="M157.4425 52.4129 L157.4425 52.9619 "/>
<path d="M157.4425 52.9619 L157.5523 53.1815 "/>
<path d="M157.5523 53.1815 L157.6621 53.2913 "/>
<path d="M157.6621 53.2913 L157.8817 53.4011 "/>
<path d="M157.8817 53.4011 L158.5404 53.4011 "/>
<path d="M158.5404 53.4011 L158.7600 53.2913 "/>
<path d="M158.7600 53.2913 L158.8698 53.1815 "/>
<path d="M155.1369 53.4011 L155.9054 52.3031 "/>
<path d="M156.4544 53.4011 L156.4544 51.0954 "/>
<path d="M156.4544 51.0954 L155.5760 51.0954 "/>
<path d="M155.5760 51.0954 L155.3565 51.2052 "/>
<path d="M155.3565 51.2052 L155.2467 51.3150 "/>
<path d="M155.2467 51.3150 L155.1369 51.5346 "/>
<path d="M155.1369 51.5346 L155.1369 51.8640 "/>
<path d="M155.1369 51.8640 L155.2467 52.0836 "/>
<path d="M155.2467 52.0836 L155.3565 52.1933 "/>
<path d="M155.3565 52.1933 L155.5760 52.3031 "/>
<path d="M155.5760 52.3031 L156.4544 52.3031 "/>
</g><text x="158.0463" y="40.2479" textLength="4.9049" font-size="3.0742" lengthAdjust="spacingAndGlyphs" text-anchor="middle" opacity="0.01" style="font-family:monospace">R2</text>
<g class="stroked-text"><desc>R2</desc>
<path d="M158.4306 40.1438 L159.1992 39.0459 "/>
<path d="M159.7481 40.1438 L159.7481 37.8382 "/>
<path d="M159.7481 37.8382 L158.8698 37.8382 "/>
<path d="M158.8698 37.8382 L158.6502 37.9479 "/>
<path d="M158.6502 37.9479 L158.5404 38.0577 "/>
<path d="M158.5404 38.0577 L158.4306 38.2773 "/>
<path d="M158.4306 38.2773 L158.4306 38.6067 "/>
<path d="M158.4306 38.6067 L158.5404 38.8263 "/>
<path d="M158.5404 38.8263 L158.6502 38.9361 "/>
<path d="M158.6502 38.9361 L158.8698 39.0459 "/>
<path d="M158.8698 39.0459 L159.7481 39.0459 "/>
<path d="M157.5523 38.0577 L157.4425 37.9479 "/>
<path d="M157.4425 37.9479 L157.2229 37.8382 "/>
<path d="M157.2229 37.8382 L156.6740 37.8382 "/>
<path d="M156.6740 37.8382 L156.4544 37.9479 "/>
<path d="M156.4544 37.9479 L156.3446 38.0577 "/>
<path d="M156.3446 38.0577 L156.2348 38.2773 "/>
<path d="M156.2348 38.2773 L156.2348 38.4969 "/>
<path d="M156.2348 38.4969 L156.3446 38.8263 "/>
<path d="M156.3446 38.8263 L157.6621 40.1438 "/>
<path d="M157.6621 40.1438 L156.2348 40.1438 "/>
</g></g>
<g style="fill:#848484; fill-opacity:0.0;  stroke:#848484; stroke-width:0.7028; stroke-opacity:1;  stroke-linecap:round; stroke-linejoin:round;">
<g transform="rotate(-90.000000 71.4498 150.2813)">
<text x="71.4498" y="152.0381" textLength="10.4241" font-size="4.6850" lengthAdjust="spacingAndGlyphs" text-anchor="middle" opacity="0.01" style="font-family:monospace">J22</text>
</g>
<g class="stroked-text"><desc>J22</desc>
<path d="M73.3745 153.1257 L70.8647 153.1257 "/>
<path d="M70.8647 153.1257 L70.3627 153.2931 "/>
<path d="M70.3627 153.2931 L70.0281 153.6277 "/>
<path d="M70.0281 153.6277 L69.8608 154.1297 "/>
<path d="M69.8608 154.1297 L69.8608 154.4643 "/>
<path d="M73.0399 151.6198 L73.2072 151.4525 "/>
<path d="M73.2072 151.4525 L73.3745 151.1179 "/>
<path d="M73.3745 151.1179 L73.3745 150.2813 "/>
<path d="M73.3745 150.2813 L73.2072 149.9466 "/>
<path d="M73.2072 149.9466 L73.0399 149.7793 "/>
<path d="M73.0399 149.7793 L72.7052 149.6120 "/>
<path d="M72.7052 149.6120 L72.3706 149.6120 "/>
<path d="M72.3706 149.6120 L71.8686 149.7793 "/>
<path d="M71.8686 149.7793 L69.8608 151.7872 "/>
<path d="M69.8608 151.7872 L69.8608 149.6120 "/>
<path d="M73.0399 148.2734 L73.2072 148.1061 "/>
<path d="M73.2072 148.1061 L73.3745 147.7714 "/>
<path d="M73.3745 147.7714 L73.3745 146.9348 "/>
<path d="M73.3745 146.9348 L73.2072 146.6002 "/>
<path d="M73.2072 146.6002 L73.0399 146.4329 "/>
<path d="M73.0399 146.4329 L72.7052 146.2655 "/>
<path d="M72.7052 146.2655 L72.3706 146.2655 "/>
<path d="M72.3706 146.2655 L71.8686 146.4329 "/>
<path d="M71.8686 146.4329 L69.8608 148.4407 "/>
<path d="M69.8608 148.4407 L69.8608 146.2655 "/>
</g><g transform="rotate(-90.000000 224.8029 76.4278)">
<text x="224.8029" y="78.1847" textLength="7.0777" font-size="4.6850" lengthAdjust="spacingAndGlyphs" text-anchor="middle" opacity="0.01" style="font-family:monospace">J5</text>
</g>
<g class="stroked-text"><desc>J5</desc>
<path d="M226.7277 77.5991 L224.2178 77.5991 "/>
<path d="M224.2178 77.5991 L223.7159 77.7664 "/>
<path d="M223.7159 77.7664 L223.3812 78.1010 "/>
<path d="M223.3812 78.1010 L223.2139 78.6030 "/>
<path d="M223.2139 78.6030 L223.2139 78.9376 "/>
<path d="M226.7277 74.2526 L226.7277 75.9258 "/>
<path d="M226.7277 75.9258 L225.0544 76.0932 "/>
<path d="M225.0544 76.0932 L225.2218 75.9258 "/>
<path d="M225.2218 75.9258 L225.3891 75.5912 "/>
<path d="M225.3891 75.5912 L225.3891 74.7546 "/>
<path d="M225.3891 74.7546 L225.2218 74.4199 "/>
<path d="M225.2218 74.4199 L225.0544 74.2526 "/>
<path d="M225.0544 74.2526 L224.7198 74.0853 "/>
<path d="M224.7198 74.0853 L223.8832 74.0853 "/>
<path d="M223.8832 74.0853 L223.5485 74.2526 "/>
<path d="M223.5485 74.2526 L223.3812 74.4199 "/>
<path d="M223.3812 74.4199 L223.2139 74.7546 "/>
<path d="M223.2139 74.7546 L223.2139 75.5912 "/>
<path d="M223.2139 75.5912 L223.3812 75.9258 "/>
<path d="M223.3812 75.9258 L223.5485 76.0932 "/>
</g><g transform="rotate(-90.000000 224.8029 122.5401)">
<text x="224.8029" y="124.2970" textLength="7.0777" font-size="4.6850" lengthAdjust="spacingAndGlyphs" text-anchor="middle" opacity="0.01" style="font-family:monospace">J9</text>
</g>
<g class="stroked-text"><desc>J9</desc>
<path d="M226.7277 123.7114 L224.2178 123.7114 "/>
<path d="M224.2178 123.7114 L223.7159 123.8787 "/>
<path d="M223.7159 123.8787 L223.3812 124.2133 "/>
<path d="M223.3812 124.2133 L223.2139 124.7153 "/>
<path d="M223.2139 124.7153 L223.2139 125.0499 "/>
<path d="M223.2139 121.8708 L223.2139 121.2015 "/>
<path d="M223.2139 121.2015 L223.3812 120.8669 "/>
<path d="M223.3812 120.8669 L223.5485 120.6996 "/>
<path d="M223.5485 120.6996 L224.0505 120.3649 "/>
<path d="M224.0505 120.3649 L224.7198 120.1976 "/>
<path d="M224.7198 120.1976 L226.0584 120.1976 "/>
<path d="M226.0584 120.1976 L226.3930 120.3649 "/>
<path d="M226.3930 120.3649 L226.5603 120.5322 "/>
<path d="M226.5603 120.5322 L226.7277 120.8669 "/>
<path d="M226.7277 120.8669 L226.7277 121.5362 "/>
<path d="M226.7277 121.5362 L226.5603 121.8708 "/>
<path d="M226.5603 121.8708 L226.3930 122.0381 "/>
<path d="M226.3930 122.0381 L226.0584 122.2055 "/>
<path d="M226.0584 122.2055 L225.2218 122.2055 "/>
<path d="M225.2218 122.2055 L224.8871 122.0381 "/>
<path d="M224.8871 122.0381 L224.7198 121.8708 "/>
<path d="M224.7198 121.8708 L224.5525 121.5362 "/>
<path d="M224.5525 121.5362 L224.5525 120.8669 "/>
<path d="M224.5525 120.8669 L224.7198 120.5322 "/>
<path d="M224.7198 120.5322 L224.8871 120.3649 "/>
<path d="M224.8871 120.3649 L225.2218 120.1976 "/>
</g></g>
<g style="fill:#848484; fill-opacity:0.01;  stroke:#848484; stroke-width:0.3458; stroke-opacity:1;  stroke-linecap:round; stroke-linejoin:round;">
<text x="158.0463" y="151.3917" textLength="7.1007" font-size="3.0742" lengthAdjust="spacingAndGlyphs" text-anchor="middle" opacity="0.01" style="font-family:monospace">33R</text>
<g class="stroked-text"><desc>33R</desc>
<path d="M161.0656 148.9820 L159.6383 148.9820 "/>
<path d="M159.6383 148.9820 L160.4069 149.8603 "/>
<path d="M160.4069 149.8603 L160.0775 149.8603 "/>
<path d="M160.0775 149.8603 L159.8579 149.9701 "/>
<path d="M159.8579 149.9701 L159.7481 150.0799 "/>
<path d="M159.7481 150.0799 L159.6383 150.2994 "/>
<path d="M159.6383 150.2994 L159.6383 150.8484 "/>
<path d="M159.6383 150.8484 L159.7481 151.0680 "/>
<path d="M159.7481 151.0680 L159.8579 151.1778 "/>
<path d="M159.8579 151.1778 L160.0775 151.2876 "/>
<path d="M160.0775 151.2876 L160.7362 151.2876 "/>
<path d="M160.7362 151.2876 L160.9558 151.1778 "/>
<path d="M160.9558 151.1778 L161.0656 151.0680 "/>
<path d="M158.8698 148.9820 L157.4425 148.9820 "/>
<path d="M157.4425 148.9820 L158.2110 149.8603 "/>
<path d="M158.2110 149.8603 L157.8817 149.8603 "/>
<path d="M157.8817 149.8603 L157.6621 149.9701 "/>
<path d="M157.6621 149.9701 L157.5523 150.0799 "/>
<path d="M157.5523 150.0799 L157.4425 150.2994 "/>
<path d="M157.4425 150.2994 L157.4425 150.8484 "/>
<path d="M157.4425 150.8484 L157.5523 151.0680 "/>
<path d="M157.5523 151.0680 L157.6621 151.1778 "/>
<path d="M157.6621 151.1778 L157.8817 151.2876 "/>
<path d="M157.8817 151.2876 L158.5404 151.2876 "/>
<path d="M158.5404 151.2876 L158.7600 151.1778 "/>
<path d="M158.7600 151.1778 L158.8698 151.0680 "/>
<path d="M155.1369 151.2876 L155.9054 150.1897 "/>
<path d="M156.4544 151.2876 L156.4544 148.9820 "/>
<path d="M156.4544 148.9820 L155.5760 148.9820 "/>
<path d="M155.5760 148.9820 L155.3565 149.0917 "/>
<path d="M155.3565 149.0917 L155.2467 149.2015 "/>
<path d="M155.2467 149.2015 L155.1369 149.4211 "/>
<path d="M155.1369 149.4211 L155.1369 149.7505 "/>
<path d="M155.1369 149.7505 L155.2467 149.9701 "/>
<path d="M155.2467 149.9701 L155.3565 150.0799 "/>
<path d="M155.3565 150.0799 L155.5760 150.1897 "/>
<path d="M155.5760 150.1897 L156.4544 150.1897 "/>
</g><text x="158.0463" y="138.1345" textLength="4.9049" font-size="3.0742" lengthAdjust="spacingAndGlyphs" text-anchor="middle" opacity="0.01" style="font-family:monospace">R6</text>
<g class="stroked-text"><desc>R6</desc>
<path d="M158.4306 138.0303 L159.1992 136.9324 "/>
<path d="M159.7481 138.0303 L159.7481 135.7247 "/>
<path d="M159.7481 135.7247 L158.8698 135.7247 "/>
<path d="M158.8698 135.7247 L158.6502 135.8345 "/>
<path d="M158.6502 135.8345 L158.5404 135.9443 "/>
<path d="M158.5404 135.9443 L158.4306 136.1638 "/>
<path d="M158.4306 136.1638 L158.4306 136.4932 "/>
<path d="M158.4306 136.4932 L158.5404 136.7128 "/>
<path d="M158.5404 136.7128 L158.6502 136.8226 "/>
<path d="M158.6502 136.8226 L158.8698 136.9324 "/>
<path d="M158.8698 136.9324 L159.7481 136.9324 "/>
<path d="M156.4544 135.7247 L156.8935 135.7247 "/>
<path d="M156.8935 135.7247 L157.1131 135.8345 "/>
<path d="M157.1131 135.8345 L157.2229 135.9443 "/>
<path d="M157.2229 135.9443 L157.4425 136.2736 "/>
<path d="M157.4425 136.2736 L157.5523 136.7128 "/>
<path d="M157.5523 136.7128 L157.5523 137.5911 "/>
<path d="M157.5523 137.5911 L157.4425 137.8107 "/>
<path d="M157.4425 137.8107 L157.3327 137.9205 "/>
<path d="M157.3327 137.9205 L157.1131 138.0303 "/>
<path d="M157.1131 138.0303 L156.6740 138.0303 "/>
<path d="M156.6740 138.0303 L156.4544 137.9205 "/>
<path d="M156.4544 137.9205 L156.3446 137.8107 "/>
<path d="M156.3446 137.8107 L156.2348 137.5911 "/>
<path d="M156.2348 137.5911 L156.2348 137.0422 "/>
<path d="M156.2348 137.0422 L156.3446 136.8226 "/>
<path d="M156.3446 136.8226 L156.4544 136.7128 "/>
<path d="M156.4544 136.7128 L156.6740 136.6030 "/>
<path d="M156.6740 136.6030 L157.1131 136.6030 "/>
<path d="M157.1131 136.6030 L157.3327 136.7128 "/>
<path d="M157.3327 136.7128 L157.4425 136.8226 "/>
<path d="M157.4425 136.8226 L157.5523 137.0422 "/>
</g></g>
<g style="fill:#848484; fill-opacity:0.0;  stroke:#848484; stroke-width:0.7028; stroke-opacity:1;  stroke-linecap:round; stroke-linejoin:round;">
<g transform="rotate(-90.000000 71.4498 138.7532)">
<text x="71.4498" y="140.5101" textLength="10.4241" font-size="4.6850" lengthAdjust="spacingAndGlyphs" text-anchor="middle" opacity="0.01" style="font-family:monospace">J20</text>
</g>
<g class="stroked-text"><desc>J20</desc>
<path d="M73.3745 141.5977 L70.8647 141.5977 "/>
<path d="M70.8647 141.5977 L70.3627 141.7650 "/>
<path d="M70.3627 141.7650 L70.0281 142.0996 "/>
<path d="M70.0281 142.0996 L69.8608 142.6016 "/>
<path d="M69.8608 142.6016 L69.8608 142.9362 "/>
<path d="M73.0399 140.0918 L73.2072 139.9244 "/>
<path d="M73.2072 139.9244 L73.3745 139.5898 "/>
<path d="M73.3745 139.5898 L73.3745 138.7532 "/>
<path d="M73.3745 138.7532 L73.2072 138.4185 "/>
<path d="M73.2072 138.4185 L73.0399 138.2512 "/>
<path d="M73.0399 138.2512 L72.7052 138.0839 "/>
<path d="M72.7052 138.0839 L72.3706 138.0839 "/>
<path d="M72.3706 138.0839 L71.8686 138.2512 "/>
<path d="M71.8686 138.2512 L69.8608 140.2591 "/>
<path d="M69.8608 140.2591 L69.8608 138.0839 "/>
<path d="M73.3745 135.9087 L73.3745 135.5741 "/>
<path d="M73.3745 135.5741 L73.2072 135.2394 "/>
<path d="M73.2072 135.2394 L73.0399 135.0721 "/>
<path d="M73.0399 135.0721 L72.7052 134.9048 "/>
<path d="M72.7052 134.9048 L72.0360 134.7375 "/>
<path d="M72.0360 134.7375 L71.1993 134.7375 "/>
<path d="M71.1993 134.7375 L70.5301 134.9048 "/>
<path d="M70.5301 134.9048 L70.1954 135.0721 "/>
<path d="M70.1954 135.0721 L70.0281 135.2394 "/>
<path d="M70.0281 135.2394 L69.8608 135.5741 "/>
<path d="M69.8608 135.5741 L69.8608 135.9087 "/>
<path d="M69.8608 135.9087 L70.0281 136.2434 "/>
<path d="M70.0281 136.2434 L70.1954 136.4107 "/>
<path d="M70.1954 136.4107 L70.5301 136.5780 "/>
<path d="M70.5301 136.5780 L71.1993 136.7453 "/>
<path d="M71.1993 136.7453 L72.0360 136.7453 "/>
<path d="M72.0360 136.7453 L72.7052 136.5780 "/>
<path d="M72.7052 136.5780 L73.0399 136.4107 "/>
<path d="M73.0399 136.4107 L73.2072 136.2434 "/>
<path d="M73.2072 136.2434 L73.3745 135.9087 "/>
</g></g>
<g style="fill:#848484; fill-opacity:0.01;  stroke:#848484; stroke-width:0.3458; stroke-opacity:1;  stroke-linecap:round; stroke-linejoin:round;">
<text x="158.0463" y="29.0336" textLength="7.1007" font-size="3.0742" lengthAdjust="spacingAndGlyphs" text-anchor="middle" opacity="0.01" style="font-family:monospace">33R</text>
<g class="stroked-text"><desc>33R</desc>
<path d="M161.0656 26.6238 L159.6383 26.6238 "/>
<path d="M159.6383 26.6238 L160.4069 27.5021 "/>
<path d="M160.4069 27.5021 L160.0775 27.5021 "/>
<path d="M160.0775 27.5021 L159.8579 27.6119 "/>
<path d="M159.8579 27.6119 L159.7481 27.7217 "/>
<path d="M159.7481 27.7217 L159.6383 27.9413 "/>
<path d="M159.6383 27.9413 L159.6383 28.4903 "/>
<path d="M159.6383 28.4903 L159.7481 28.7098 "/>
<path d="M159.7481 28.7098 L159.8579 28.8196 "/>
<path d="M159.8579 28.8196 L160.0775 28.9294 "/>
<path d="M160.0775 28.9294 L160.7362 28.9294 "/>
<path d="M160.7362 28.9294 L160.9558 28.8196 "/>
<path d="M160.9558 28.8196 L161.0656 28.7098 "/>
<path d="M158.8698 26.6238 L157.4425 26.6238 "/>
<path d="M157.4425 26.6238 L158.2110 27.5021 "/>
<path d="M158.2110 27.5021 L157.8817 27.5021 "/>
<path d="M157.8817 27.5021 L157.6621 27.6119 "/>
<path d="M157.6621 27.6119 L157.5523 27.7217 "/>
<path d="M157.5523 27.7217 L157.4425 27.9413 "/>
<path d="M157.4425 27.9413 L157.4425 28.4903 "/>
<path d="M157.4425 28.4903 L157.5523 28.7098 "/>
<path d="M157.5523 28.7098 L157.6621 28.8196 "/>
<path d="M157.6621 28.8196 L157.8817 28.9294 "/>
<path d="M157.8817 28.9294 L158.5404 28.9294 "/>
<path d="M158.5404 28.9294 L158.7600 28.8196 "/>
<path d="M158.7600 28.8196 L158.8698 28.7098 "/>
<path d="M155.1369 28.9294 L155.9054 27.8315 "/>
<path d="M156.4544 28.9294 L156.4544 26.6238 "/>
<path d="M156.4544 26.6238 L155.5760 26.6238 "/>
<path d="M155.5760 26.6238 L155.3565 26.7336 "/>
<path d="M155.3565 26.7336 L155.2467 26.8434 "/>
<path d="M155.2467 26.8434 L155.1369 27.0630 "/>
<path d="M155.1369 27.0630 L155.1369 27.3923 "/>
<path d="M155.1369 27.3923 L155.2467 27.6119 "/>
<path d="M155.2467 27.6119 L155.3565 27.7217 "/>
<path d="M155.3565 27.7217 L155.5760 27.8315 "/>
<path d="M155.5760 27.8315 L156.4544 27.8315 "/>
</g><text x="158.0463" y="15.7763" textLength="4.9049" font-size="3.0742" lengthAdjust="spacingAndGlyphs" text-anchor="middle" opacity="0.01" style="font-family:monospace">R1</text>
<g class="stroked-text"><desc>R1</desc>
<path d="M158.4306 15.6721 L159.1992 14.5742 "/>
<path d="M159.7481 15.6721 L159.7481 13.3665 "/>
<path d="M159.7481 13.3665 L158.8698 13.3665 "/>
<path d="M158.8698 13.3665 L158.6502 13.4763 "/>
<path d="M158.6502 13.4763 L158.5404 13.5861 "/>
<path d="M158.5404 13.5861 L158.4306 13.8057 "/>
<path d="M158.4306 13.8057 L158.4306 14.1351 "/>
<path d="M158.4306 14.1351 L158.5404 14.3546 "/>
<path d="M158.5404 14.3546 L158.6502 14.4644 "/>
<path d="M158.6502 14.4644 L158.8698 14.5742 "/>
<path d="M158.8698 14.5742 L159.7481 14.5742 "/>
<path d="M156.2348 15.6721 L157.5523 15.6721 "/>
<path d="M156.8935 15.6721 L156.8935 13.3665 "/>
<path d="M156.8935 13.3665 L157.1131 13.6959 "/>
<path d="M157.1131 13.6959 L157.3327 13.9155 "/>
<path d="M157.3327 13.9155 L157.5523 14.0253 "/>
</g></g>
<g style="fill:#848484; fill-opacity:0.0;  stroke:#848484; stroke-width:0.7028; stroke-opacity:1;  stroke-linecap:round; stroke-linejoin:round;">
<g transform="rotate(-90.000000 224.8029 134.0682)">
<text x="224.8029" y="135.8251" textLength="10.4241" font-size="4.6850" lengthAdjust="spacingAndGlyphs" text-anchor="middle" opacity="0.01" style="font-family:monospace">J10</text>
</g>
<g class="stroked-text"><desc>J10</desc>
<path d="M226.7277 136.9126 L224.2178 136.9126 "/>
<path d="M224.2178 136.9126 L223.7159 137.0800 "/>
<path d="M223.7159 137.0800 L223.3812 137.4146 "/>
<path d="M223.3812 137.4146 L223.2139 137.9166 "/>
<path d="M223.2139 137.9166 L223.2139 138.2512 "/>
<path d="M223.2139 133.3989 L223.2139 135.4068 "/>
<path d="M223.2139 134.4028 L226.7277 134.4028 "/>
<path d="M226.7277 134.4028 L226.2257 134.7375 "/>
<path d="M226.2257 134.7375 L225.8910 135.0721 "/>
<path d="M225.8910 135.0721 L225.7237 135.4068 "/>
<path d="M226.7277 131.2237 L226.7277 130.8891 "/>
<path d="M226.7277 130.8891 L226.5603 130.5544 "/>
<path d="M226.5603 130.5544 L226.3930 130.3871 "/>
<path d="M226.3930 130.3871 L226.0584 130.2198 "/>
<path d="M226.0584 130.2198 L225.3891 130.0525 "/>
<path d="M225.3891 130.0525 L224.5525 130.0525 "/>
<path d="M224.5525 130.0525 L223.8832 130.2198 "/>
<path d="M223.8832 130.2198 L223.5485 130.3871 "/>
<path d="M223.5485 130.3871 L223.3812 130.5544 "/>
<path d="M223.3812 130.5544 L223.2139 130.8891 "/>
<path d="M223.2139 130.8891 L223.2139 131.2237 "/>
<path d="M223.2139 131.2237 L223.3812 131.5584 "/>
<path d="M223.3812 131.5584 L223.5485 131.7257 "/>
<path d="M223.5485 131.7257 L223.8832 131.8930 "/>
<path d="M223.8832 131.8930 L224.5525 132.0603 "/>
<path d="M224.5525 132.0603 L225.3891 132.0603 "/>
<path d="M225.3891 132.0603 L226.0584 131.8930 "/>
<path d="M226.0584 131.8930 L226.3930 131.7257 "/>
<path d="M226.3930 131.7257 L226.5603 131.5584 "/>
<path d="M226.5603 131.5584 L226.7277 131.2237 "/>
</g><g transform="rotate(-90.000000 224.8029 41.8436)">
<text x="224.8029" y="43.6005" textLength="7.0777" font-size="4.6850" lengthAdjust="spacingAndGlyphs" text-anchor="middle" opacity="0.01" style="font-family:monospace">J2</text>
</g>
<g class="stroked-text"><desc>J2</desc>
<path d="M226.7277 43.0148 L224.2178 43.0148 "/>
<path d="M224.2178 43.0148 L223.7159 43.1822 "/>
<path d="M223.7159 43.1822 L223.3812 43.5168 "/>
<path d="M223.3812 43.5168 L223.2139 44.0188 "/>
<path d="M223.2139 44.0188 L223.2139 44.3534 "/>
<path d="M226.3930 41.5089 L226.5603 41.3416 "/>
<path d="M226.5603 41.3416 L226.7277 41.0070 "/>
<path d="M226.7277 41.0070 L226.7277 40.1704 "/>
<path d="M226.7277 40.1704 L226.5603 39.8357 "/>
<path d="M226.5603 39.8357 L226.3930 39.6684 "/>
<path d="M226.3930 39.6684 L226.0584 39.5011 "/>
<path d="M226.0584 39.5011 L225.7237 39.5011 "/>
<path d="M225.7237 39.5011 L225.2218 39.6684 "/>
<path d="M225.2218 39.6684 L223.2139 41.6763 "/>
<path d="M223.2139 41.6763 L223.2139 39.5011 "/>
</g></g>
<g style="fill:#848484; fill-opacity:0.01;  stroke:#848484; stroke-width:0.2306; stroke-opacity:1;  stroke-linecap:round; stroke-linejoin:round;">
<text x="137.3742" y="189.3245" textLength="3.5298" font-size="1.5371" lengthAdjust="spacingAndGlyphs" text-anchor="middle" opacity="0.01" style="font-family:monospace">16A</text>
<g class="stroked-text"><desc>16A</desc>
<path d="M138.0878 189.2695 L138.7466 189.2695 "/>
<path d="M138.4172 189.2695 L138.4172 188.1166 "/>
<path d="M138.4172 188.1166 L138.5270 188.2813 "/>
<path d="M138.5270 188.2813 L138.6368 188.3911 "/>
<path d="M138.6368 188.3911 L138.7466 188.4460 "/>
<path d="M137.0997 188.1166 L137.3193 188.1166 "/>
<path d="M137.3193 188.1166 L137.4291 188.1715 "/>
<path d="M137.4291 188.1715 L137.4840 188.2264 "/>
<path d="M137.4840 188.2264 L137.5938 188.3911 "/>
<path d="M137.5938 188.3911 L137.6487 188.6107 "/>
<path d="M137.6487 188.6107 L137.6487 189.0499 "/>
<path d="M137.6487 189.0499 L137.5938 189.1597 "/>
<path d="M137.5938 189.1597 L137.5389 189.2146 "/>
<path d="M137.5389 189.2146 L137.4291 189.2695 "/>
<path d="M137.4291 189.2695 L137.2095 189.2695 "/>
<path d="M137.2095 189.2695 L137.0997 189.2146 "/>
<path d="M137.0997 189.2146 L137.0448 189.1597 "/>
<path d="M137.0448 189.1597 L136.9899 189.0499 "/>
<path d="M136.9899 189.0499 L136.9899 188.7754 "/>
<path d="M136.9899 188.7754 L137.0448 188.6656 "/>
<path d="M137.0448 188.6656 L137.0997 188.6107 "/>
<path d="M137.0997 188.6107 L137.2095 188.5558 "/>
<path d="M137.2095 188.5558 L137.4291 188.5558 "/>
<path d="M137.4291 188.5558 L137.5389 188.6107 "/>
<path d="M137.5389 188.6107 L137.5938 188.6656 "/>
<path d="M137.5938 188.6656 L137.6487 188.7754 "/>
<path d="M136.5508 188.9401 L136.0018 188.9401 "/>
<path d="M136.6606 189.2695 L136.2763 188.1166 "/>
<path d="M136.2763 188.1166 L135.8920 189.2695 "/>
</g></g>
<g style="fill:#848484; fill-opacity:0.01;  stroke:#848484; stroke-width:0.3458; stroke-opacity:1;  stroke-linecap:round; stroke-linejoin:round;">
<text x="158.0463" y="77.9769" textLength="7.1007" font-size="3.0742" lengthAdjust="spacingAndGlyphs" text-anchor="middle" opacity="0.01" style="font-family:monospace">33R</text>
<g class="stroked-text"><desc>33R</desc>
<path d="M161.0656 75.5671 L159.6383 75.5671 "/>
<path d="M159.6383 75.5671 L160.4069 76.4454 "/>
<path d="M160.4069 76.4454 L160.0775 76.4454 "/>
<path d="M160.0775 76.4454 L159.8579 76.5552 "/>
<path d="M159.8579 76.5552 L159.7481 76.6650 "/>
<path d="M159.7481 76.6650 L159.6383 76.8846 "/>
<path d="M159.6383 76.8846 L159.6383 77.4335 "/>
<path d="M159.6383 77.4335 L159.7481 77.6531 "/>
<path d="M159.7481 77.6531 L159.8579 77.7629 "/>
<path d="M159.8579 77.7629 L160.0775 77.8727 "/>
<path d="M160.0775 77.8727 L160.7362 77.8727 "/>
<path d="M160.7362 77.8727 L160.9558 77.7629 "/>
<path d="M160.9558 77.7629 L161.0656 77.6531 "/>
<path d="M158.8698 75.5671 L157.4425 75.5671 "/>
<path d="M157.4425 75.5671 L158.2110 76.4454 "/>
<path d="M158.2110 76.4454 L157.8817 76.4454 "/>
<path d="M157.8817 76.4454 L157.6621 76.5552 "/>
<path d="M157.6621 76.5552 L157.5523 76.6650 "/>
<path d="M157.5523 76.6650 L157.4425 76.8846 "/>
<path d="M157.4425 76.8846 L157.4425 77.4335 "/>
<path d="M157.4425 77.4335 L157.5523 77.6531 "/>
<path d="M157.5523 77.6531 L157.6621 77.7629 "/>
<path d="M157.6621 77.7629 L157.8817 77.8727 "/>
<path d="M157.8817 77.8727 L158.5404 77.8727 "/>
<path d="M158.5404 77.8727 L158.7600 77.7629 "/>
<path d="M158.7600 77.7629 L158.8698 77.6531 "/>
<path d="M155.1369 77.8727 L155.9054 76.7748 "/>
<path d="M156.4544 77.8727 L156.4544 75.5671 "/>
<path d="M156.4544 75.5671 L155.5760 75.5671 "/>
<path d="M155.5760 75.5671 L155.3565 75.6769 "/>
<path d="M155.3565 75.6769 L155.2467 75.7866 "/>
<path d="M155.2467 75.7866 L155.1369 76.0062 "/>
<path d="M155.1369 76.0062 L155.1369 76.3356 "/>
<path d="M155.1369 76.3356 L155.2467 76.5552 "/>
<path d="M155.2467 76.5552 L155.3565 76.6650 "/>
<path d="M155.3565 76.6650 L155.5760 76.7748 "/>
<path d="M155.5760 76.7748 L156.4544 76.7748 "/>
</g><text x="158.0463" y="64.7196" textLength="4.9049" font-size="3.0742" lengthAdjust="spacingAndGlyphs" text-anchor="middle" opacity="0.01" style="font-family:monospace">R3</text>
<g class="stroked-text"><desc>R3</desc>
<path d="M158.4306 64.6154 L159.1992 63.5175 "/>
<path d="M159.7481 64.6154 L159.7481 62.3098 "/>
<path d="M159.7481 62.3098 L158.8698 62.3098 "/>
<path d="M158.8698 62.3098 L158.6502 62.4196 "/>
<path d="M158.6502 62.4196 L158.5404 62.5294 "/>
<path d="M158.5404 62.5294 L158.4306 62.7489 "/>
<path d="M158.4306 62.7489 L158.4306 63.0783 "/>
<path d="M158.4306 63.0783 L158.5404 63.2979 "/>
<path d="M158.5404 63.2979 L158.6502 63.4077 "/>
<path d="M158.6502 63.4077 L158.8698 63.5175 "/>
<path d="M158.8698 63.5175 L159.7481 63.5175 "/>
<path d="M157.6621 62.3098 L156.2348 62.3098 "/>
<path d="M156.2348 62.3098 L157.0033 63.1881 "/>
<path d="M157.0033 63.1881 L156.6740 63.1881 "/>
<path d="M156.6740 63.1881 L156.4544 63.2979 "/>
<path d="M156.4544 63.2979 L156.3446 63.4077 "/>
<path d="M156.3446 63.4077 L156.2348 63.6273 "/>
<path d="M156.2348 63.6273 L156.2348 64.1762 "/>
<path d="M156.2348 64.1762 L156.3446 64.3958 "/>
<path d="M156.3446 64.3958 L156.4544 64.5056 "/>
<path d="M156.4544 64.5056 L156.6740 64.6154 "/>
<path d="M156.6740 64.6154 L157.3327 64.6154 "/>
<path d="M157.3327 64.6154 L157.5523 64.5056 "/>
<path d="M157.5523 64.5056 L157.6621 64.3958 "/>
</g><text x="158.0463" y="175.8634" textLength="7.1007" font-size="3.0742" lengthAdjust="spacingAndGlyphs" text-anchor="middle" opacity="0.01" style="font-family:monospace">33R</text>
<g class="stroked-text"><desc>33R</desc>
<path d="M161.0656 173.4536 L159.6383 173.4536 "/>
<path d="M159.6383 173.4536 L160.4069 174.3319 "/>
<path d="M160.4069 174.3319 L160.0775 174.3319 "/>
<path d="M160.0775 174.3319 L159.8579 174.4417 "/>
<path d="M159.8579 174.4417 L159.7481 174.5515 "/>
<path d="M159.7481 174.5515 L159.6383 174.7711 "/>
<path d="M159.6383 174.7711 L159.6383 175.3200 "/>
<path d="M159.6383 175.3200 L159.7481 175.5396 "/>
<path d="M159.7481 175.5396 L159.8579 175.6494 "/>
<path d="M159.8579 175.6494 L160.0775 175.7592 "/>
<path d="M160.0775 175.7592 L160.7362 175.7592 "/>
<path d="M160.7362 175.7592 L160.9558 175.6494 "/>
<path d="M160.9558 175.6494 L161.0656 175.5396 "/>
<path d="M158.8698 173.4536 L157.4425 173.4536 "/>
<path d="M157.4425 173.4536 L158.2110 174.3319 "/>
<path d="M158.2110 174.3319 L157.8817 174.3319 "/>
<path d="M157.8817 174.3319 L157.6621 174.4417 "/>
<path d="M157.6621 174.4417 L157.5523 174.5515 "/>
<path d="M157.5523 174.5515 L157.4425 174.7711 "/>
<path d="M157.4425 174.7711 L157.4425 175.3200 "/>
<path d="M157.4425 175.3200 L157.5523 175.5396 "/>
<path d="M157.5523 175.5396 L157.6621 175.6494 "/>
<path d="M157.6621 175.6494 L157.8817 175.7592 "/>
<path d="M157.8817 175.7592 L158.5404 175.7592 "/>
<path d="M158.5404 175.7592 L158.7600 175.6494 "/>
<path d="M158.7600 175.6494 L158.8698 175.5396 "/>
<path d="M155.1369 175.7592 L155.9054 174.6613 "/>
<path d="M156.4544 175.7592 L156.4544 173.4536 "/>
<path d="M156.4544 173.4536 L155.5760 173.4536 "/>
<path d="M155.5760 173.4536 L155.3565 173.5634 "/>
<path d="M155.3565 173.5634 L155.2467 173.6732 "/>
<path d="M155.2467 173.6732 L155.1369 173.8927 "/>
<path d="M155.1369 173.8927 L155.1369 174.2221 "/>
<path d="M155.1369 174.2221 L155.2467 174.4417 "/>
<path d="M155.2467 174.4417 L155.3565 174.5515 "/>
<path d="M155.3565 174.5515 L155.5760 174.6613 "/>
<path d="M155.5760 174.6613 L156.4544 174.6613 "/>
</g><text x="158.0463" y="162.6061" textLength="4.9049" font-size="3.0742" lengthAdjust="spacingAndGlyphs" text-anchor="middle" opacity="0.01" style="font-family:monospace">R7</text>
<g class="stroked-text"><desc>R7</desc>
<path d="M158.4306 162.5019 L159.1992 161.4040 "/>
<path d="M159.7481 162.5019 L159.7481 160.1963 "/>
<path d="M159.7481 160.1963 L158.8698 160.1963 "/>
<path d="M158.8698 160.1963 L158.6502 160.3061 "/>
<path d="M158.6502 160.3061 L158.5404 160.4159 "/>
<path d="M158.5404 160.4159 L158.4306 160.6355 "/>
<path d="M158.4306 160.6355 L158.4306 160.9648 "/>
<path d="M158.4306 160.9648 L158.5404 161.1844 "/>
<path d="M158.5404 161.1844 L158.6502 161.2942 "/>
<path d="M158.6502 161.2942 L158.8698 161.4040 "/>
<path d="M158.8698 161.4040 L159.7481 161.4040 "/>
<path d="M157.6621 160.1963 L156.1250 160.1963 "/>
<path d="M156.1250 160.1963 L157.1131 162.5019 "/>
</g></g>
<g style="fill:#848484; fill-opacity:0.0;  stroke:#848484; stroke-width:0.7028; stroke-opacity:1;  stroke-linecap:round; stroke-linejoin:round;">
<g transform="rotate(-90.000000 224.8029 87.9559)">
<text x="224.8029" y="89.7128" textLength="7.0777" font-size="4.6850" lengthAdjust="spacingAndGlyphs" text-anchor="middle" opacity="0.01" style="font-family:monospace">J6</text>
</g>
<g class="stroked-text"><desc>J6</desc>
<path d="M226.7277 89.1271 L224.2178 89.1271 "/>
<path d="M224.2178 89.1271 L223.7159 89.2945 "/>
<path d="M223.7159 89.2945 L223.3812 89.6291 "/>
<path d="M223.3812 89.6291 L223.2139 90.1311 "/>
<path d="M223.2139 90.1311 L223.2139 90.4657 "/>
<path d="M226.7277 85.9480 L226.7277 86.6173 "/>
<path d="M226.7277 86.6173 L226.5603 86.9520 "/>
<path d="M226.5603 86.9520 L226.3930 87.1193 "/>
<path d="M226.3930 87.1193 L225.8910 87.4539 "/>
<path d="M225.8910 87.4539 L225.2218 87.6212 "/>
<path d="M225.2218 87.6212 L223.8832 87.6212 "/>
<path d="M223.8832 87.6212 L223.5485 87.4539 "/>
<path d="M223.5485 87.4539 L223.3812 87.2866 "/>
<path d="M223.3812 87.2866 L223.2139 86.9520 "/>
<path d="M223.2139 86.9520 L223.2139 86.2827 "/>
<path d="M223.2139 86.2827 L223.3812 85.9480 "/>
<path d="M223.3812 85.9480 L223.5485 85.7807 "/>
<path d="M223.5485 85.7807 L223.8832 85.6134 "/>
<path d="M223.8832 85.6134 L224.7198 85.6134 "/>
<path d="M224.7198 85.6134 L225.0544 85.7807 "/>
<path d="M225.0544 85.7807 L225.2218 85.9480 "/>
<path d="M225.2218 85.9480 L225.3891 86.2827 "/>
<path d="M225.3891 86.2827 L225.3891 86.9520 "/>
<path d="M225.3891 86.9520 L225.2218 87.2866 "/>
<path d="M225.2218 87.2866 L225.0544 87.4539 "/>
<path d="M225.0544 87.4539 L224.7198 87.6212 "/>
</g><g transform="rotate(-90.000000 224.8029 145.5963)">
<text x="224.8029" y="147.3531" textLength="10.4241" font-size="4.6850" lengthAdjust="spacingAndGlyphs" text-anchor="middle" opacity="0.01" style="font-family:monospace">J11</text>
</g>
<g class="stroked-text"><desc>J11</desc>
<path d="M226.7277 148.4407 L224.2178 148.4407 "/>
<path d="M224.2178 148.4407 L223.7159 148.6080 "/>
<path d="M223.7159 148.6080 L223.3812 148.9427 "/>
<path d="M223.3812 148.9427 L223.2139 149.4447 "/>
<path d="M223.2139 149.4447 L223.2139 149.7793 "/>
<path d="M223.2139 144.9270 L223.2139 146.9348 "/>
<path d="M223.2139 145.9309 L226.7277 145.9309 "/>
<path d="M226.7277 145.9309 L226.2257 146.2655 "/>
<path d="M226.2257 146.2655 L225.8910 146.6002 "/>
<path d="M225.8910 146.6002 L225.7237 146.9348 "/>
<path d="M223.2139 141.5805 L223.2139 143.5884 "/>
<path d="M223.2139 142.5845 L226.7277 142.5845 "/>
<path d="M226.7277 142.5845 L226.2257 142.9191 "/>
<path d="M226.2257 142.9191 L225.8910 143.2537 "/>
<path d="M225.8910 143.2537 L225.7237 143.5884 "/>
</g></g>
<g style="fill:#848484; fill-opacity:0.01;  stroke:#848484; stroke-width:0.3458; stroke-opacity:1;  stroke-linecap:round; stroke-linejoin:round;">
<text x="158.0463" y="102.4485" textLength="7.1007" font-size="3.0742" lengthAdjust="spacingAndGlyphs" text-anchor="middle" opacity="0.01" style="font-family:monospace">33R</text>
<g class="stroked-text"><desc>33R</desc>
<path d="M161.0656 100.0387 L159.6383 100.0387 "/>
<path d="M159.6383 100.0387 L160.4069 100.9170 "/>
<path d="M160.4069 100.9170 L160.0775 100.9170 "/>
<path d="M160.0775 100.9170 L159.8579 101.0268 "/>
<path d="M159.8579 101.0268 L159.7481 101.1366 "/>
<path d="M159.7481 101.1366 L159.6383 101.3562 "/>
<path d="M159.6383 101.3562 L159.6383 101.9051 "/>
<path d="M159.6383 101.9051 L159.7481 102.1247 "/>
<path d="M159.7481 102.1247 L159.8579 102.2345 "/>
<path d="M159.8579 102.2345 L160.0775 102.3443 "/>
<path d="M160.0775 102.3443 L160.7362 102.3443 "/>
<path d="M160.7362 102.3443 L160.9558 102.2345 "/>
<path d="M160.9558 102.2345 L161.0656 102.1247 "/>
<path d="M158.8698 100.0387 L157.4425 100.0387 "/>
<path d="M157.4425 100.0387 L158.2110 100.9170 "/>
<path d="M158.2110 100.9170 L157.8817 100.9170 "/>
<path d="M157.8817 100.9170 L157.6621 101.0268 "/>
<path d="M157.6621 101.0268 L157.5523 101.1366 "/>
<path d="M157.5523 101.1366 L157.4425 101.3562 "/>
<path d="M157.4425 101.3562 L157.4425 101.9051 "/>
<path d="M157.4425 101.9051 L157.5523 102.1247 "/>
<path d="M157.5523 102.1247 L157.6621 102.2345 "/>
<path d="M157.6621 102.2345 L157.8817 102.3443 "/>
<path d="M157.8817 102.3443 L158.5404 102.3443 "/>
<path d="M158.5404 102.3443 L158.7600 102.2345 "/>
<path d="M158.7600 102.2345 L158.8698 102.1247 "/>
<path d="M155.1369 102.3443 L155.9054 101.2464 "/>
<path d="M156.4544 102.3443 L156.4544 100.0387 "/>
<path d="M156.4544 100.0387 L155.5760 100.0387 "/>
<path d="M155.5760 100.0387 L155.3565 100.1485 "/>
<path d="M155.3565 100.1485 L155.2467 100.2583 "/>
<path d="M155.2467 100.2583 L155.1369 100.4779 "/>
<path d="M155.1369 100.4779 L155.1369 100.8072 "/>
<path d="M155.1369 100.8072 L155.2467 101.0268 "/>
<path d="M155.2467 101.0268 L155.3565 101.1366 "/>
<path d="M155.3565 101.1366 L155.5760 101.2464 "/>
<path d="M155.5760 101.2464 L156.4544 101.2464 "/>
</g><text x="158.0463" y="89.1912" textLength="4.9049" font-size="3.0742" lengthAdjust="spacingAndGlyphs" text-anchor="middle" opacity="0.01" style="font-family:monospace">R4</text>
<g class="stroked-text"><desc>R4</desc>
<path d="M158.4306 89.0870 L159.1992 87.9891 "/>
<path d="M159.7481 89.0870 L159.7481 86.7814 "/>
<path d="M159.7481 86.7814 L158.8698 86.7814 "/>
<path d="M158.8698 86.7814 L158.6502 86.8912 "/>
<path d="M158.6502 86.8912 L158.5404 87.0010 "/>
<path d="M158.5404 87.0010 L158.4306 87.2206 "/>
<path d="M158.4306 87.2206 L158.4306 87.5499 "/>
<path d="M158.4306 87.5499 L158.5404 87.7695 "/>
<path d="M158.5404 87.7695 L158.6502 87.8793 "/>
<path d="M158.6502 87.8793 L158.8698 87.9891 "/>
<path d="M158.8698 87.9891 L159.7481 87.9891 "/>
<path d="M156.4544 87.5499 L156.4544 89.0870 "/>
<path d="M157.0033 86.6716 L157.5523 88.3185 "/>
<path d="M157.5523 88.3185 L156.1250 88.3185 "/>
</g></g>
<g style="fill:#848484; fill-opacity:0.0;  stroke:#848484; stroke-width:0.7028; stroke-opacity:1;  stroke-linecap:round; stroke-linejoin:round;">
<g transform="rotate(-90.000000 224.8029 111.0120)">
<text x="224.8029" y="112.7689" textLength="7.0777" font-size="4.6850" lengthAdjust="spacingAndGlyphs" text-anchor="middle" opacity="0.01" style="font-family:monospace">J8</text>
</g>
<g class="stroked-text"><desc>J8</desc>
<path d="M226.7277 112.1833 L224.2178 112.1833 "/>
<path d="M224.2178 112.1833 L223.7159 112.3506 "/>
<path d="M223.7159 112.3506 L223.3812 112.6852 "/>
<path d="M223.3812 112.6852 L223.2139 113.1872 "/>
<path d="M223.2139 113.1872 L223.2139 113.5219 "/>
<path d="M225.2218 110.0081 L225.3891 110.3427 "/>
<path d="M225.3891 110.3427 L225.5564 110.5101 "/>
<path d="M225.5564 110.5101 L225.8910 110.6774 "/>
<path d="M225.8910 110.6774 L226.0584 110.6774 "/>
<path d="M226.0584 110.6774 L226.3930 110.5101 "/>
<path d="M226.3930 110.5101 L226.5603 110.3427 "/>
<path d="M226.5603 110.3427 L226.7277 110.0081 "/>
<path d="M226.7277 110.0081 L226.7277 109.3388 "/>
<path d="M226.7277 109.3388 L226.5603 109.0042 "/>
<path d="M226.5603 109.0042 L226.3930 108.8368 "/>
<path d="M226.3930 108.8368 L226.0584 108.6695 "/>
<path d="M226.0584 108.6695 L225.8910 108.6695 "/>
<path d="M225.8910 108.6695 L225.5564 108.8368 "/>
<path d="M225.5564 108.8368 L225.3891 109.0042 "/>
<path d="M225.3891 109.0042 L225.2218 109.3388 "/>
<path d="M225.2218 109.3388 L225.2218 110.0081 "/>
<path d="M225.2218 110.0081 L225.0544 110.3427 "/>
<path d="M225.0544 110.3427 L224.8871 110.5101 "/>
<path d="M224.8871 110.5101 L224.5525 110.6774 "/>
<path d="M224.5525 110.6774 L223.8832 110.6774 "/>
<path d="M223.8832 110.6774 L223.5485 110.5101 "/>
<path d="M223.5485 110.5101 L223.3812 110.3427 "/>
<path d="M223.3812 110.3427 L223.2139 110.0081 "/>
<path d="M223.2139 110.0081 L223.2139 109.3388 "/>
<path d="M223.2139 109.3388 L223.3812 109.0042 "/>
<path d="M223.3812 109.0042 L223.5485 108.8368 "/>
<path d="M223.5485 108.8368 L223.8832 108.6695 "/>
<path d="M223.8832 108.6695 L224.5525 108.6695 "/>
<path d="M224.5525 108.6695 L224.8871 108.8368 "/>
<path d="M224.8871 108.8368 L225.0544 109.0042 "/>
<path d="M225.0544 109.0042 L225.2218 109.3388 "/>
</g></g>
<g style="fill:#848484; fill-opacity:0.0;  stroke:#848484; stroke-width:0.3458; stroke-opacity:1;  stroke-linecap:round; stroke-linejoin:round;">
<g transform="rotate(-180.000000 127.4186 94.9308)">
<text x="127.4186" y="96.0836" textLength="2.7091" font-size="3.0742" lengthAdjust="spacingAndGlyphs" text-anchor="middle" opacity="0.01" style="font-family:monospace">K</text>
</g>
<g class="stroked-text"><desc>K</desc>
<path d="M126.8147 93.8822 L126.8147 96.1878 "/>
<path d="M128.1322 93.8822 L127.1441 95.1997 "/>
<path d="M128.1322 96.1878 L126.8147 94.8703 "/>
</g><g transform="rotate(-90.000000 100.6612 154.9663)">
<text x="100.6612" y="156.1191" textLength="2.7091" font-size="3.0742" lengthAdjust="spacingAndGlyphs" text-anchor="middle" opacity="0.01" style="font-family:monospace">K</text>
</g>
<g class="stroked-text"><desc>K</desc>
<path d="M99.6126 155.5701 L101.9182 155.5701 "/>
<path d="M99.6126 154.2526 L100.9301 155.2407 "/>
<path d="M101.9182 154.2526 L100.6007 155.5701 "/>
</g><g transform="rotate(-90.000000 102.5697 177.6443)">
<text x="102.5697" y="178.7971" textLength="2.7091" font-size="3.0742" lengthAdjust="spacingAndGlyphs" text-anchor="middle" opacity="0.01" style="font-family:monospace">K</text>
</g>
<g class="stroked-text"><desc>K</desc>
<path d="M101.5210 178.2481 L103.8267 178.2481 "/>
<path d="M101.5210 176.9307 L102.8385 177.9188 "/>
<path d="M103.8267 176.9307 L102.5092 178.2481 "/>
</g><g transform="rotate(-180.000000 127.4186 45.7382)">
<text x="127.4186" y="46.8910" textLength="2.7091" font-size="3.0742" lengthAdjust="spacingAndGlyphs" text-anchor="middle" opacity="0.01" style="font-family:monospace">K</text>
</g>
<g class="stroked-text"><desc>K</desc>
<path d="M126.8147 44.6896 L126.8147 46.9952 "/>
<path d="M128.1322 44.6896 L127.1441 46.0071 "/>
<path d="M128.1322 46.9952 L126.8147 45.6777 "/>
</g><g transform="rotate(-180.000000 127.4186 168.7197)">
<text x="127.4186" y="169.8725" textLength="2.7091" font-size="3.0742" lengthAdjust="spacingAndGlyphs" text-anchor="middle" opacity="0.01" style="font-family:monospace">K</text>
</g>
<g class="stroked-text"><desc>K</desc>
<path d="M126.8147 167.6711 L126.8147 169.9767 "/>
<path d="M128.1322 167.6711 L127.1441 168.9886 "/>
<path d="M128.1322 169.9767 L126.8147 168.6592 "/>
</g><g transform="rotate(-180.000000 127.4186 144.1234)">
<text x="127.4186" y="145.2762" textLength="2.7091" font-size="3.0742" lengthAdjust="spacingAndGlyphs" text-anchor="middle" opacity="0.01" style="font-family:monospace">K</text>
</g>
<g class="stroked-text"><desc>K</desc>
<path d="M126.8147 143.0748 L126.8147 145.3804 "/>
<path d="M128.1322 143.0748 L127.1441 144.3923 "/>
<path d="M128.1322 145.3804 L126.8147 144.0629 "/>
</g><g transform="rotate(-180.000000 127.4186 70.3345)">
<text x="127.4186" y="71.4873" textLength="2.7091" font-size="3.0742" lengthAdjust="spacingAndGlyphs" text-anchor="middle" opacity="0.01" style="font-family:monospace">K</text>
</g>
<g class="stroked-text"><desc>K</desc>
<path d="M126.8147 69.2859 L126.8147 71.5915 "/>
<path d="M128.1322 69.2859 L127.1441 70.6034 "/>
<path d="M128.1322 71.5915 L126.8147 70.2740 "/>
</g><g transform="rotate(-180.000000 127.4186 119.5271)">
<text x="127.4186" y="120.6799" textLength="2.7091" font-size="3.0742" lengthAdjust="spacingAndGlyphs" text-anchor="middle" opacity="0.01" style="font-family:monospace">K</text>
</g>
<g class="stroked-text"><desc>K</desc>
<path d="M126.8147 118.4785 L126.8147 120.7841 "/>
<path d="M128.1322 118.4785 L127.1441 119.7960 "/>
<path d="M128.1322 120.7841 L126.8147 119.4666 "/>
</g><g transform="rotate(-180.000000 127.4186 21.1419)">
<text x="127.4186" y="22.2947" textLength="2.7091" font-size="3.0742" lengthAdjust="spacingAndGlyphs" text-anchor="middle" opacity="0.01" style="font-family:monospace">K</text>
</g>
<g class="stroked-text"><desc>K</desc>
<path d="M126.8147 20.0933 L126.8147 22.3989 "/>
<path d="M128.1322 20.0933 L127.1441 21.4108 "/>
<path d="M128.1322 22.3989 L126.8147 21.0814 "/>
</g><path d="M203.1716 56.8301 L196.2548 56.8301 "/>
<path d="M228.5334 47.6076 L207.7828 47.6076 "/>
<path d="M203.1716 49.9132 L196.2548 49.9132 "/>
<path d="M207.7828 47.6076 L193.9491 47.6076 "/>
<path d="M196.2548 48.7604 L196.2548 57.9829 "/>
<path d="M207.7828 59.1359 L207.7828 47.6074 "/>
<path d="M195.1017 49.9132 L189.3379 49.9132 "/>
<path d="M207.7828 59.1357 L228.5334 59.1357 "/>
<path d="M203.1716 56.8303 L203.1716 49.9130 "/>
<path d="M193.9491 59.1357 L193.9491 57.9829 "/>
<path d="M196.2548 57.9829 L188.1849 57.9829 "/>
<path d="M207.7828 59.1357 L193.9491 59.1357 "/>
<path d="M195.1017 56.8301 L189.3379 56.8301 "/>
<path d="M196.2548 48.7604 L188.1828 48.7604 "/>
<path d="M195.1017 56.8324 L195.1017 49.9109 "/>
<path d="M227.3808 57.9829 L208.9359 57.9829 "/>
<path d="M193.9491 48.7604 L193.9491 47.6076 "/>
<path d="M208.9359 48.7604 L208.9359 57.9829 "/>
<path d="M188.1849 48.7604 L188.1849 57.9829 "/>
<path d="M228.5334 59.1359 L228.5334 47.6074 "/>
<path d="M208.9359 51.0660 L207.7828 51.0660 "/>
<path d="M227.3808 48.7604 L208.9359 48.7604 "/>
<path d="M189.3379 56.8324 L189.3379 49.9109 "/>
<path d="M208.9359 55.6773 L207.7828 55.6773 "/>
<path d="M227.3808 57.9829 L227.3808 48.7604 "/>
</g>
<g style="fill:#848484; fill-opacity:0.0;  stroke:#848484; stroke-width:0.8784; stroke-opacity:1;  stroke-linecap:round; stroke-linejoin:round;">
<circle cx="78.2260" cy="11.3034" r="6.9162"/> 
</g>
<g style="fill:#848484; fill-opacity:0.0;  stroke:#848484; stroke-width:0.3458; stroke-opacity:1;  stroke-linecap:round; stroke-linejoin:round;">
<path d="M203.1716 68.3582 L196.2548 68.3582 "/>
<path d="M207.7828 70.6638 L193.9491 70.6638 "/>
<path d="M228.5334 59.1357 L207.7828 59.1357 "/>
<path d="M188.1849 60.2885 L188.1849 69.5110 "/>
<path d="M207.7828 59.1357 L193.9491 59.1357 "/>
<path d="M228.5334 70.6640 L228.5334 59.1355 "/>
<path d="M203.1716 61.4413 L196.2548 61.4413 "/>
<path d="M227.3808 69.5110 L208.9359 69.5110 "/>
<path d="M195.1017 61.4413 L189.3379 61.4413 "/>
<path d="M195.1017 68.3582 L189.3379 68.3582 "/>
<path d="M203.1716 68.3584 L203.1716 61.4411 "/>
<path d="M207.7828 70.6638 L228.5334 70.6638 "/>
<path d="M193.9491 70.6638 L193.9491 69.5110 "/>
<path d="M207.7828 70.6640 L207.7828 59.1355 "/>
<path d="M227.3808 60.2885 L208.9359 60.2885 "/>
<path d="M208.9359 67.2054 L207.7828 67.2054 "/>
<path d="M193.9491 60.2885 L193.9491 59.1357 "/>
<path d="M189.3379 68.3605 L189.3379 61.4390 "/>
<path d="M227.3808 69.5110 L227.3808 60.2885 "/>
<path d="M196.2548 69.5110 L188.1849 69.5110 "/>
<path d="M195.1017 68.3605 L195.1017 61.4390 "/>
<path d="M196.2548 60.2885 L188.1828 60.2885 "/>
<path d="M208.9359 60.2885 L208.9359 69.5110 "/>
<path d="M196.2548 60.2885 L196.2548 69.5110 "/>
<path d="M208.9359 62.5941 L207.7828 62.5941 "/>
</g>
<g style="fill:#848484; fill-opacity:0.0;  stroke:#848484; stroke-width:0.8784; stroke-opacity:1;  stroke-linecap:round; stroke-linejoin:round;">
<circle cx="78.2260" cy="198.7038" r="6.9162"/> 
</g>
<g style="fill:#848484; fill-opacity:0.0;  stroke:#848484; stroke-width:0.3458; stroke-opacity:1;  stroke-linecap:round; stroke-linejoin:round;">
<path d="M69.0546 178.1792 L87.4995 178.1792 "/>
<path d="M88.6525 167.8037 L88.6525 179.3322 "/>
<path d="M67.9020 179.3320 L88.6525 179.3320 "/>
<path d="M102.4862 167.8039 L102.4862 168.9567 "/>
<path d="M101.3336 170.1095 L107.0974 170.1095 "/>
<path d="M93.2638 170.1093 L93.2638 177.0266 "/>
<path d="M102.4862 178.1792 L102.4862 179.3320 "/>
<path d="M101.3336 170.1072 L101.3336 177.0287 "/>
<path d="M69.0546 168.9567 L69.0546 178.1792 "/>
<path d="M87.4995 178.1792 L87.4995 168.9567 "/>
<path d="M88.6525 179.3320 L102.4862 179.3320 "/>
<path d="M88.6525 167.8039 L67.9020 167.8039 "/>
<path d="M107.0974 170.1072 L107.0974 177.0287 "/>
<path d="M101.3336 177.0264 L107.0974 177.0264 "/>
<path d="M100.1806 178.1792 L100.1806 168.9567 "/>
<path d="M69.0546 168.9567 L87.4995 168.9567 "/>
<path d="M88.6525 167.8039 L102.4862 167.8039 "/>
<path d="M93.2638 170.1095 L100.1806 170.1095 "/>
<path d="M67.9020 167.8037 L67.9020 179.3322 "/>
<path d="M87.4995 175.8736 L88.6525 175.8736 "/>
<path d="M87.4995 171.2624 L88.6525 171.2624 "/>
<path d="M93.2638 177.0264 L100.1806 177.0264 "/>
<path d="M108.2505 178.1792 L108.2505 168.9567 "/>
<path d="M100.1806 178.1792 L108.2526 178.1792 "/>
<path d="M100.1806 168.9567 L108.2505 168.9567 "/>
</g>
<g style="fill:#848484; fill-opacity:0.0;  stroke:#848484; stroke-width:0.2306; stroke-opacity:1;  stroke-linecap:round; stroke-linejoin:round;">
<path d="M143.0598 122.8853 L143.0598 102.1348 "/>
<path d="M173.0328 122.8853 L143.0598 122.8853 "/>
<path d="M170.7272 102.1348 L170.7272 122.8853 "/>
<path d="M145.3655 102.1348 L145.3655 122.8853 "/>
<path d="M143.0598 102.1348 L173.0328 102.1348 "/>
<path d="M173.0328 102.1348 L173.0328 122.8853 "/>
</g>
<g style="fill:#848484; fill-opacity:0.0;  stroke:#848484; stroke-width:0.3458; stroke-opacity:1;  stroke-linecap:round; stroke-linejoin:round;">
<path d="M195.1017 33.7739 L189.3379 33.7739 "/>
<path d="M227.3808 34.9267 L208.9359 34.9267 "/>
<path d="M207.7828 36.0798 L207.7828 24.5512 "/>
<path d="M208.9359 32.6211 L207.7828 32.6211 "/>
<path d="M203.1716 33.7742 L203.1716 26.8569 "/>
<path d="M196.2548 25.7043 L196.2548 34.9267 "/>
<path d="M203.1716 33.7739 L196.2548 33.7739 "/>
<path d="M193.9491 36.0796 L193.9491 34.9267 "/>
<path d="M208.9359 25.7043 L208.9359 34.9267 "/>
<path d="M207.7828 36.0796 L228.5334 36.0796 "/>
<path d="M207.7828 24.5515 L193.9491 24.5515 "/>
<path d="M227.3808 25.7043 L208.9359 25.7043 "/>
<path d="M193.9491 25.7043 L193.9491 24.5515 "/>
<path d="M196.2548 25.7043 L188.1828 25.7043 "/>
<path d="M208.9359 28.0099 L207.7828 28.0099 "/>
<path d="M196.2548 34.9267 L188.1849 34.9267 "/>
<path d="M203.1716 26.8571 L196.2548 26.8571 "/>
<path d="M228.5334 36.0798 L228.5334 24.5512 "/>
<path d="M228.5334 24.5515 L207.7828 24.5515 "/>
<path d="M188.1849 25.7043 L188.1849 34.9267 "/>
<path d="M207.7828 36.0796 L193.9491 36.0796 "/>
<path d="M189.3379 33.7762 L189.3379 26.8548 "/>
<path d="M227.3808 34.9267 L227.3808 25.7043 "/>
<path d="M195.1017 26.8571 L189.3379 26.8571 "/>
<path d="M195.1017 33.7762 L195.1017 26.8548 "/>
<path d="M100.1806 166.6511 L100.1806 157.4287 "/>
<path d="M93.2638 158.5812 L93.2638 165.4985 "/>
<path d="M100.1806 166.6511 L108.2526 166.6511 "/>
<path d="M67.9020 156.2756 L67.9020 167.8042 "/>
<path d="M102.4862 166.6511 L102.4862 167.8039 "/>
<path d="M88.6525 156.2756 L88.6525 167.8042 "/>
<path d="M69.0546 157.4287 L87.4995 157.4287 "/>
<path d="M108.2505 166.6511 L108.2505 157.4287 "/>
<path d="M88.6525 167.8039 L102.4862 167.8039 "/>
<path d="M69.0546 157.4287 L69.0546 166.6511 "/>
<path d="M93.2638 165.4983 L100.1806 165.4983 "/>
<path d="M93.2638 158.5815 L100.1806 158.5815 "/>
<path d="M101.3336 158.5815 L107.0974 158.5815 "/>
<path d="M69.0546 166.6511 L87.4995 166.6511 "/>
<path d="M88.6525 156.2759 L67.9020 156.2759 "/>
<path d="M87.4995 166.6511 L87.4995 157.4287 "/>
<path d="M87.4995 159.7343 L88.6525 159.7343 "/>
<path d="M102.4862 156.2759 L102.4862 157.4287 "/>
<path d="M101.3336 158.5792 L101.3336 165.5006 "/>
<path d="M101.3336 165.4983 L107.0974 165.4983 "/>
<path d="M107.0974 158.5792 L107.0974 165.5006 "/>
<path d="M67.9020 167.8039 L88.6525 167.8039 "/>
<path d="M87.4995 164.3455 L88.6525 164.3455 "/>
<path d="M88.6525 156.2759 L102.4862 156.2759 "/>
<path d="M100.1806 157.4287 L108.2505 157.4287 "/>
<path d="M228.5334 93.7199 L207.7828 93.7199 "/>
<path d="M196.2548 94.8727 L196.2548 104.0952 "/>
<path d="M227.3808 94.8727 L208.9359 94.8727 "/>
<path d="M227.3808 104.0952 L227.3808 94.8727 "/>
<path d="M196.2548 94.8727 L188.1828 94.8727 "/>
<path d="M228.5334 105.2482 L228.5334 93.7197 "/>
<path d="M195.1017 102.9424 L189.3379 102.9424 "/>
<path d="M208.9359 94.8727 L208.9359 104.0952 "/>
<path d="M207.7828 93.7199 L193.9491 93.7199 "/>
<path d="M227.3808 104.0952 L208.9359 104.0952 "/>
<path d="M203.1716 96.0255 L196.2548 96.0255 "/>
<path d="M196.2548 104.0952 L188.1849 104.0952 "/>
<path d="M203.1716 102.9424 L196.2548 102.9424 "/>
<path d="M207.7828 105.2480 L193.9491 105.2480 "/>
<path d="M208.9359 97.1783 L207.7828 97.1783 "/>
<path d="M195.1017 102.9447 L195.1017 96.0232 "/>
<path d="M203.1716 102.9426 L203.1716 96.0253 "/>
<path d="M193.9491 94.8727 L193.9491 93.7199 "/>
<path d="M208.9359 101.7896 L207.7828 101.7896 "/>
<path d="M193.9491 105.2480 L193.9491 104.0952 "/>
<path d="M207.7828 105.2482 L207.7828 93.7197 "/>
<path d="M207.7828 105.2480 L228.5334 105.2480 "/>
<path d="M188.1849 94.8727 L188.1849 104.0952 "/>
<path d="M195.1017 96.0255 L189.3379 96.0255 "/>
<path d="M189.3379 102.9447 L189.3379 96.0232 "/>
<path d="M208.9359 152.5131 L208.9359 161.7356 "/>
<path d="M195.1017 160.5851 L195.1017 153.6636 "/>
<path d="M208.9359 154.8187 L207.7828 154.8187 "/>
<path d="M228.5334 151.3603 L207.7828 151.3603 "/>
<path d="M195.1017 153.6659 L189.3379 153.6659 "/>
<path d="M203.1716 160.5830 L203.1716 153.6657 "/>
<path d="M193.9491 152.5131 L193.9491 151.3603 "/>
<path d="M208.9359 159.4299 L207.7828 159.4299 "/>
<path d="M228.5334 162.8886 L228.5334 151.3601 "/>
<path d="M188.1849 152.5131 L188.1849 161.7356 "/>
<path d="M196.2548 152.5131 L188.1828 152.5131 "/>
<path d="M203.1716 153.6659 L196.2548 153.6659 "/>
<path d="M189.3379 160.5851 L189.3379 153.6636 "/>
<path d="M227.3808 161.7356 L208.9359 161.7356 "/>
<path d="M195.1017 160.5827 L189.3379 160.5827 "/>
<path d="M207.7828 151.3603 L193.9491 151.3603 "/>
<path d="M227.3808 161.7356 L227.3808 152.5131 "/>
<path d="M207.7828 162.8886 L207.7828 151.3601 "/>
<path d="M196.2548 161.7356 L188.1849 161.7356 "/>
<path d="M227.3808 152.5131 L208.9359 152.5131 "/>
<path d="M196.2548 152.5131 L196.2548 161.7356 "/>
<path d="M207.7828 162.8884 L228.5334 162.8884 "/>
<path d="M193.9491 162.8884 L193.9491 161.7356 "/>
<path d="M203.1716 160.5827 L196.2548 160.5827 "/>
<path d="M207.7828 162.8884 L193.9491 162.8884 "/>
</g>
<g style="fill:#848484; fill-opacity:0.0;  stroke:#848484; stroke-width:0.2306; stroke-opacity:1;  stroke-linecap:round; stroke-linejoin:round;">
<path d="M145.3655 28.7199 L145.3655 49.4704 "/>
<path d="M173.0328 49.4704 L143.0598 49.4704 "/>
<path d="M170.7272 28.7199 L170.7272 49.4704 "/>
<path d="M143.0598 49.4704 L143.0598 28.7199 "/>
<path d="M143.0598 28.7199 L173.0328 28.7199 "/>
<path d="M173.0328 28.7199 L173.0328 49.4704 "/>
</g>
<g style="fill:#848484; fill-opacity:0.0;  stroke:#848484; stroke-width:0.3458; stroke-opacity:1;  stroke-linecap:round; stroke-linejoin:round;">
<path d="M101.1509 146.8228 L106.9147 146.8228 "/>
<path d="M87.3168 152.5869 L88.4698 152.5869 "/>
<path d="M101.1509 146.8205 L101.1509 153.7420 "/>
<path d="M108.0678 154.8925 L108.0678 145.6700 "/>
<path d="M87.3168 147.9756 L88.4698 147.9756 "/>
<path d="M99.9979 145.6700 L108.0678 145.6700 "/>
<path d="M68.8719 145.6700 L68.8719 154.8925 "/>
<path d="M88.4698 144.5172 L67.7193 144.5172 "/>
<path d="M87.3168 154.8925 L87.3168 145.6700 "/>
<path d="M68.8719 154.8925 L87.3168 154.8925 "/>
<path d="M106.9147 146.8205 L106.9147 153.7420 "/>
<path d="M99.9979 154.8925 L99.9979 145.6700 "/>
<path d="M67.7193 156.0453 L88.4698 156.0453 "/>
<path d="M99.9979 154.8925 L108.0698 154.8925 "/>
<path d="M67.7193 144.5170 L67.7193 156.0455 "/>
<path d="M68.8719 145.6700 L87.3168 145.6700 "/>
<path d="M93.0810 146.8226 L93.0810 153.7399 "/>
<path d="M93.0810 146.8228 L99.9979 146.8228 "/>
<path d="M88.4698 144.5170 L88.4698 156.0455 "/>
<path d="M102.3035 154.8925 L102.3035 156.0453 "/>
<path d="M101.1509 153.7397 L106.9147 153.7397 "/>
<path d="M88.4698 144.5172 L102.3035 144.5172 "/>
<path d="M93.0810 153.7397 L99.9979 153.7397 "/>
<path d="M88.4698 156.0453 L102.3035 156.0453 "/>
<path d="M102.3035 144.5172 L102.3035 145.6700 "/>
<path d="M207.7828 82.1921 L207.7828 70.6635 "/>
<path d="M189.3379 79.8885 L189.3379 72.9671 "/>
<path d="M196.2548 81.0390 L188.1849 81.0390 "/>
<path d="M195.1017 79.8885 L195.1017 72.9671 "/>
<path d="M207.7828 70.6638 L193.9491 70.6638 "/>
<path d="M193.9491 71.8166 L193.9491 70.6638 "/>
<path d="M228.5334 82.1921 L228.5334 70.6635 "/>
<path d="M193.9491 82.1918 L193.9491 81.0390 "/>
<path d="M203.1716 72.9694 L196.2548 72.9694 "/>
<path d="M227.3808 81.0390 L227.3808 71.8166 "/>
<path d="M196.2548 71.8166 L196.2548 81.0390 "/>
<path d="M208.9359 71.8166 L208.9359 81.0390 "/>
<path d="M195.1017 72.9694 L189.3379 72.9694 "/>
<path d="M203.1716 79.8862 L196.2548 79.8862 "/>
<path d="M203.1716 79.8865 L203.1716 72.9692 "/>
<path d="M188.1849 71.8166 L188.1849 81.0390 "/>
<path d="M207.7828 82.1918 L193.9491 82.1918 "/>
<path d="M208.9359 74.1222 L207.7828 74.1222 "/>
<path d="M227.3808 71.8166 L208.9359 71.8166 "/>
<path d="M208.9359 78.7334 L207.7828 78.7334 "/>
<path d="M227.3808 81.0390 L208.9359 81.0390 "/>
<path d="M195.1017 79.8862 L189.3379 79.8862 "/>
<path d="M207.7828 82.1918 L228.5334 82.1918 "/>
<path d="M196.2548 71.8166 L188.1828 71.8166 "/>
<path d="M228.5334 70.6638 L207.7828 70.6638 "/>
<path d="M227.3808 117.9289 L208.9359 117.9289 "/>
<path d="M196.2548 117.9289 L188.1828 117.9289 "/>
<path d="M195.1017 119.0817 L189.3379 119.0817 "/>
<path d="M193.9491 117.9289 L193.9491 116.7761 "/>
<path d="M196.2548 127.1513 L188.1849 127.1513 "/>
<path d="M195.1017 125.9985 L189.3379 125.9985 "/>
<path d="M227.3808 127.1513 L227.3808 117.9289 "/>
<path d="M188.1849 117.9289 L188.1849 127.1513 "/>
<path d="M207.7828 128.3041 L193.9491 128.3041 "/>
<path d="M203.1716 125.9985 L196.2548 125.9985 "/>
<path d="M208.9359 117.9289 L208.9359 127.1513 "/>
<path d="M207.7828 128.3041 L228.5334 128.3041 "/>
<path d="M207.7828 128.3044 L207.7828 116.7758 "/>
<path d="M208.9359 124.8457 L207.7828 124.8457 "/>
<path d="M208.9359 120.2345 L207.7828 120.2345 "/>
<path d="M207.7828 116.7761 L193.9491 116.7761 "/>
<path d="M227.3808 127.1513 L208.9359 127.1513 "/>
<path d="M203.1716 125.9988 L203.1716 119.0815 "/>
<path d="M203.1716 119.0817 L196.2548 119.0817 "/>
<path d="M228.5334 116.7761 L207.7828 116.7761 "/>
<path d="M228.5334 128.3044 L228.5334 116.7758 "/>
<path d="M193.9491 128.3041 L193.9491 127.1513 "/>
<path d="M195.1017 126.0008 L195.1017 119.0794 "/>
<path d="M189.3379 126.0008 L189.3379 119.0794 "/>
<path d="M196.2548 117.9289 L196.2548 127.1513 "/>
</g>
<g style="fill:#848484; fill-opacity:0.0;  stroke:#848484; stroke-width:0.8784; stroke-opacity:1;  stroke-linecap:round; stroke-linejoin:round;">
<circle cx="218.7762" cy="198.7038" r="6.9162"/> 
</g>
<g style="fill:#848484; fill-opacity:0.0;  stroke:#848484; stroke-width:0.2306; stroke-opacity:1;  stroke-linecap:round; stroke-linejoin:round;">
<path d="M173.0328 147.3569 L143.0598 147.3569 "/>
<path d="M143.0598 147.3569 L143.0598 126.6064 "/>
<path d="M145.3655 126.6064 L145.3655 147.3569 "/>
<path d="M170.7272 126.6064 L170.7272 147.3569 "/>
<path d="M173.0328 126.6064 L173.0328 147.3569 "/>
<path d="M143.0598 126.6064 L173.0328 126.6064 "/>
</g>
<g style="fill:#848484; fill-opacity:0.0;  stroke:#848484; stroke-width:0.3458; stroke-opacity:1;  stroke-linecap:round; stroke-linejoin:round;">
<path d="M87.3168 143.3644 L87.3168 134.1420 "/>
<path d="M106.9147 135.2925 L106.9147 142.2139 "/>
<path d="M101.1509 142.2116 L106.9147 142.2116 "/>
<path d="M93.0810 135.2948 L99.9979 135.2948 "/>
<path d="M101.1509 135.2925 L101.1509 142.2139 "/>
<path d="M101.1509 135.2948 L106.9147 135.2948 "/>
<path d="M68.8719 134.1420 L68.8719 143.3644 "/>
<path d="M102.3035 143.3644 L102.3035 144.5172 "/>
<path d="M93.0810 135.2945 L93.0810 142.2118 "/>
<path d="M68.8719 134.1420 L87.3168 134.1420 "/>
<path d="M88.4698 132.9892 L67.7193 132.9892 "/>
<path d="M99.9979 134.1420 L108.0678 134.1420 "/>
<path d="M87.3168 136.4476 L88.4698 136.4476 "/>
<path d="M102.3035 132.9892 L102.3035 134.1420 "/>
<path d="M88.4698 132.9892 L102.3035 132.9892 "/>
<path d="M87.3168 141.0588 L88.4698 141.0588 "/>
<path d="M67.7193 144.5172 L88.4698 144.5172 "/>
<path d="M88.4698 132.9889 L88.4698 144.5175 "/>
<path d="M108.0678 143.3644 L108.0678 134.1420 "/>
<path d="M88.4698 144.5172 L102.3035 144.5172 "/>
<path d="M67.7193 132.9889 L67.7193 144.5175 "/>
<path d="M99.9979 143.3644 L99.9979 134.1420 "/>
<path d="M93.0810 142.2116 L99.9979 142.2116 "/>
<path d="M99.9979 143.3644 L108.0698 143.3644 "/>
<path d="M68.8719 143.3644 L87.3168 143.3644 "/>
</g>
<g style="fill:#848484; fill-opacity:0.0;  stroke:#848484; stroke-width:0.2306; stroke-opacity:1;  stroke-linecap:round; stroke-linejoin:round;">
<path d="M170.7272 4.2482 L170.7272 24.9988 "/>
<path d="M145.3655 4.2482 L145.3655 24.9988 "/>
<path d="M173.0328 4.2482 L173.0328 24.9988 "/>
<path d="M143.0598 4.2482 L173.0328 4.2482 "/>
<path d="M143.0598 24.9988 L143.0598 4.2482 "/>
<path d="M173.0328 24.9988 L143.0598 24.9988 "/>
</g>
<g style="fill:#848484; fill-opacity:0.0;  stroke:#848484; stroke-width:0.3458; stroke-opacity:1;  stroke-linecap:round; stroke-linejoin:round;">
<path d="M228.5334 128.3041 L207.7828 128.3041 "/>
<path d="M227.3808 138.6794 L208.9359 138.6794 "/>
<path d="M208.9359 129.4569 L208.9359 138.6794 "/>
<path d="M195.1017 130.6098 L189.3379 130.6098 "/>
<path d="M207.7828 128.3041 L193.9491 128.3041 "/>
<path d="M227.3808 138.6794 L227.3808 129.4569 "/>
<path d="M207.7828 139.8322 L228.5334 139.8322 "/>
<path d="M203.1716 137.5266 L196.2548 137.5266 "/>
<path d="M188.1849 129.4569 L188.1849 138.6794 "/>
<path d="M189.3379 137.5289 L189.3379 130.6075 "/>
<path d="M195.1017 137.5266 L189.3379 137.5266 "/>
<path d="M193.9491 129.4569 L193.9491 128.3041 "/>
<path d="M228.5334 139.8324 L228.5334 128.3039 "/>
<path d="M196.2548 138.6794 L188.1849 138.6794 "/>
<path d="M208.9359 131.7626 L207.7828 131.7626 "/>
<path d="M208.9359 136.3738 L207.7828 136.3738 "/>
<path d="M207.7828 139.8322 L193.9491 139.8322 "/>
<path d="M196.2548 129.4569 L196.2548 138.6794 "/>
<path d="M193.9491 139.8322 L193.9491 138.6794 "/>
<path d="M195.1017 137.5289 L195.1017 130.6075 "/>
<path d="M203.1716 137.5268 L203.1716 130.6095 "/>
<path d="M203.1716 130.6098 L196.2548 130.6098 "/>
<path d="M196.2548 129.4569 L188.1828 129.4569 "/>
<path d="M227.3808 129.4569 L208.9359 129.4569 "/>
<path d="M207.7828 139.8324 L207.7828 128.3039 "/>
</g>
<g style="fill:#848484; fill-opacity:0.0;  stroke:#848484; stroke-width:0.8784; stroke-opacity:1;  stroke-linecap:round; stroke-linejoin:round;">
<circle cx="218.7762" cy="11.3034" r="6.9162"/> 
</g>
<g style="fill:#848484; fill-opacity:0.0;  stroke:#848484; stroke-width:0.3458; stroke-opacity:1;  stroke-linecap:round; stroke-linejoin:round;">
<path d="M188.1849 37.2324 L188.1849 46.4548 "/>
<path d="M196.2548 46.4548 L188.1849 46.4548 "/>
<path d="M195.1017 45.3020 L189.3379 45.3020 "/>
<path d="M227.3808 37.2324 L208.9359 37.2324 "/>
<path d="M203.1716 38.3852 L196.2548 38.3852 "/>
<path d="M195.1017 38.3852 L189.3379 38.3852 "/>
<path d="M195.1017 45.3043 L195.1017 38.3829 "/>
<path d="M207.7828 47.6076 L193.9491 47.6076 "/>
<path d="M208.9359 44.1492 L207.7828 44.1492 "/>
<path d="M207.7828 47.6079 L207.7828 36.0793 "/>
<path d="M207.7828 36.0796 L193.9491 36.0796 "/>
<path d="M207.7828 47.6076 L228.5334 47.6076 "/>
<path d="M208.9359 39.5380 L207.7828 39.5380 "/>
<path d="M196.2548 37.2324 L196.2548 46.4548 "/>
<path d="M208.9359 37.2324 L208.9359 46.4548 "/>
<path d="M228.5334 36.0796 L207.7828 36.0796 "/>
<path d="M193.9491 37.2324 L193.9491 36.0796 "/>
<path d="M196.2548 37.2324 L188.1828 37.2324 "/>
<path d="M203.1716 45.3020 L196.2548 45.3020 "/>
<path d="M228.5334 47.6079 L228.5334 36.0793 "/>
<path d="M189.3379 45.3043 L189.3379 38.3829 "/>
<path d="M227.3808 46.4548 L227.3808 37.2324 "/>
<path d="M227.3808 46.4548 L208.9359 46.4548 "/>
<path d="M193.9491 47.6076 L193.9491 46.4548 "/>
<path d="M203.1716 45.3022 L203.1716 38.3849 "/>
</g>
<g style="fill:#848484; fill-opacity:0.0;  stroke:#848484; stroke-width:0.2306; stroke-opacity:1;  stroke-linecap:round; stroke-linejoin:round;">
<path d="M145.3655 53.1915 L145.3655 73.9420 "/>
<path d="M143.0598 73.9420 L143.0598 53.1915 "/>
<path d="M173.0328 73.9420 L143.0598 73.9420 "/>
<path d="M143.0598 53.1915 L173.0328 53.1915 "/>
<path d="M173.0328 53.1915 L173.0328 73.9420 "/>
<path d="M170.7272 53.1915 L170.7272 73.9420 "/>
<path d="M143.0598 171.8285 L143.0598 151.0780 "/>
<path d="M143.0598 151.0780 L173.0328 151.0780 "/>
<path d="M173.0328 171.8285 L143.0598 171.8285 "/>
<path d="M173.0328 151.0780 L173.0328 171.8285 "/>
<path d="M170.7272 151.0780 L170.7272 171.8285 "/>
<path d="M145.3655 151.0780 L145.3655 171.8285 "/>
</g>
<g style="fill:#848484; fill-opacity:0.0;  stroke:#848484; stroke-width:0.3458; stroke-opacity:1;  stroke-linecap:round; stroke-linejoin:round;">
<path d="M195.1017 91.4143 L189.3379 91.4143 "/>
<path d="M227.3808 92.5671 L227.3808 83.3447 "/>
<path d="M227.3808 92.5671 L208.9359 92.5671 "/>
<path d="M193.9491 93.7199 L193.9491 92.5671 "/>
<path d="M228.5334 82.1918 L207.7828 82.1918 "/>
<path d="M207.7828 93.7199 L228.5334 93.7199 "/>
<path d="M203.1716 84.4975 L196.2548 84.4975 "/>
<path d="M188.1849 83.3447 L188.1849 92.5671 "/>
<path d="M207.7828 93.7199 L193.9491 93.7199 "/>
<path d="M196.2548 92.5671 L188.1849 92.5671 "/>
<path d="M195.1017 91.4166 L195.1017 84.4952 "/>
<path d="M195.1017 84.4975 L189.3379 84.4975 "/>
<path d="M196.2548 83.3447 L188.1828 83.3447 "/>
<path d="M207.7828 82.1918 L193.9491 82.1918 "/>
<path d="M196.2548 83.3447 L196.2548 92.5671 "/>
<path d="M203.1716 91.4143 L196.2548 91.4143 "/>
<path d="M208.9359 90.2615 L207.7828 90.2615 "/>
<path d="M208.9359 83.3447 L208.9359 92.5671 "/>
<path d="M193.9491 83.3447 L193.9491 82.1918 "/>
<path d="M228.5334 93.7202 L228.5334 82.1916 "/>
<path d="M208.9359 85.6503 L207.7828 85.6503 "/>
<path d="M203.1716 91.4145 L203.1716 84.4972 "/>
<path d="M227.3808 83.3447 L208.9359 83.3447 "/>
<path d="M207.7828 93.7202 L207.7828 82.1916 "/>
<path d="M189.3379 91.4166 L189.3379 84.4952 "/>
<path d="M196.2548 140.9850 L196.2548 150.2075 "/>
<path d="M228.5334 151.3605 L228.5334 139.8320 "/>
<path d="M228.5334 139.8322 L207.7828 139.8322 "/>
<path d="M195.1017 149.0570 L195.1017 142.1355 "/>
<path d="M188.1849 140.9850 L188.1849 150.2075 "/>
<path d="M207.7828 151.3605 L207.7828 139.8320 "/>
<path d="M196.2548 150.2075 L188.1849 150.2075 "/>
<path d="M207.7828 139.8322 L193.9491 139.8322 "/>
<path d="M208.9359 147.9019 L207.7828 147.9019 "/>
<path d="M208.9359 143.2906 L207.7828 143.2906 "/>
<path d="M208.9359 140.9850 L208.9359 150.2075 "/>
<path d="M195.1017 149.0547 L189.3379 149.0547 "/>
<path d="M207.7828 151.3603 L228.5334 151.3603 "/>
<path d="M203.1716 149.0547 L196.2548 149.0547 "/>
<path d="M196.2548 140.9850 L188.1828 140.9850 "/>
<path d="M203.1716 142.1378 L196.2548 142.1378 "/>
<path d="M193.9491 140.9850 L193.9491 139.8322 "/>
<path d="M227.3808 150.2075 L227.3808 140.9850 "/>
<path d="M195.1017 142.1378 L189.3379 142.1378 "/>
<path d="M203.1716 149.0549 L203.1716 142.1376 "/>
<path d="M193.9491 151.3603 L193.9491 150.2075 "/>
<path d="M227.3808 140.9850 L208.9359 140.9850 "/>
<path d="M207.7828 151.3603 L193.9491 151.3603 "/>
<path d="M227.3808 150.2075 L208.9359 150.2075 "/>
<path d="M189.3379 149.0570 L189.3379 142.1355 "/>
</g>
<g style="fill:#848484; fill-opacity:0.0;  stroke:#848484; stroke-width:0.2306; stroke-opacity:1;  stroke-linecap:round; stroke-linejoin:round;">
<path d="M143.0598 98.4137 L143.0598 77.6631 "/>
<path d="M173.0328 77.6631 L173.0328 98.4137 "/>
<path d="M143.0598 77.6631 L173.0328 77.6631 "/>
<path d="M145.3655 77.6631 L145.3655 98.4137 "/>
<path d="M170.7272 77.6631 L170.7272 98.4137 "/>
<path d="M173.0328 98.4137 L143.0598 98.4137 "/>
</g>
<g style="fill:#848484; fill-opacity:0.0;  stroke:#848484; stroke-width:0.3458; stroke-opacity:1;  stroke-linecap:round; stroke-linejoin:round;">
<path d="M203.1716 107.5536 L196.2548 107.5536 "/>
<path d="M207.7828 116.7763 L207.7828 105.2478 "/>
<path d="M203.1716 114.4705 L196.2548 114.4705 "/>
<path d="M227.3808 106.4008 L208.9359 106.4008 "/>
<path d="M196.2548 106.4008 L196.2548 115.6233 "/>
<path d="M196.2548 106.4008 L188.1828 106.4008 "/>
<path d="M203.1716 114.4707 L203.1716 107.5534 "/>
<path d="M195.1017 107.5536 L189.3379 107.5536 "/>
<path d="M227.3808 115.6233 L227.3808 106.4008 "/>
<path d="M207.7828 116.7761 L228.5334 116.7761 "/>
<path d="M207.7828 105.2480 L193.9491 105.2480 "/>
<path d="M208.9359 113.3176 L207.7828 113.3176 "/>
<path d="M195.1017 114.4728 L195.1017 107.5513 "/>
<path d="M195.1017 114.4705 L189.3379 114.4705 "/>
<path d="M228.5334 116.7763 L228.5334 105.2478 "/>
<path d="M227.3808 115.6233 L208.9359 115.6233 "/>
<path d="M193.9491 106.4008 L193.9491 105.2480 "/>
<path d="M196.2548 115.6233 L188.1849 115.6233 "/>
<path d="M188.1849 106.4008 L188.1849 115.6233 "/>
<path d="M228.5334 105.2480 L207.7828 105.2480 "/>
<path d="M208.9359 108.7064 L207.7828 108.7064 "/>
<path d="M193.9491 116.7761 L193.9491 115.6233 "/>
<path d="M208.9359 106.4008 L208.9359 115.6233 "/>
<path d="M189.3379 114.4728 L189.3379 107.5513 "/>
<path d="M207.7828 116.7761 L193.9491 116.7761 "/>
<path d="M68.8559 52.8829 L80.5685 52.8829 "/>
<path d="M68.8559 35.3141 L68.8559 52.8829 "/>
<path d="M80.5685 35.3141 L68.8559 35.3141 "/>
<path d="M80.5685 52.8829 L80.5685 35.3141 "/>
<g>
</g>
<g>
</g>
<g>
</g>
<g>
</g>
<g>
</g>
<g>
</g>
<g>
</g>
<g>
</g>
<g>
</g>
<g>
</g>
<g>
</g>
<g>
</g>
<g>
</g>
<g>
</g>
<g>
</g>
<g>
</g>
<g>
</g>
<g>
</g>
<g>
</g>
<g>
</g>
<g>
</g>
<g>
</g>
<g>
</g>
<g>
</g>
<g>
</g>
<g>
</g>
<g>
</g>
<g>
</g>
<g>
</g>
<g>
</g>
<g>
</g>
<g>
</g>
<g>
</g>
<g>
</g>
<g>
</g>
<g>
</g>
<g>
</g>
<g>
</g>
<g>
</g>
<g>
</g>
<g>
</g>
<g>
</g>
<g>
</g>
<g>
</g>
<g>
</g>
<g>
</g>
<g>
</g>
<g>
</g>
<g>
</g>
<g>
</g>
<g>
</g>
<g>
</g>
<g>
</g>
<g>
</g>
<g>
</g>
<g>
</g>
<g>
</g>
<g>
</g>
<g>
</g>
<g>
</g>
<g>
</g>
<g>
</g>
<g>
</g>
<g>
</g>
<g>
</g>
<g>
</g>
<g>
</g>
<g>
</g>
<g>
</g>
<g>
</g>
<g>
</g>
<g>
</g>
<g>
</g>
</g> 
<svg:g><svg:g><svg:title>SVG Image created as ISO11446PWR01-Edge_Cuts.svg date 2023/07/05 01:54:55 </svg:title>
  <svg:desc>Image generated by PCBNEW </svg:desc>
<svg:g style="fill:#C2C200; fill-opacity:1.0000;stroke:#C2C200; stroke-opacity:1.0000; stroke-linecap:round; stroke-linejoin:round;" transform="translate(0 0) scale(1 1)">
</svg:g>
<svg:g style="fill:#C2C200; fill-opacity:0.0;  stroke:#C2C200; stroke-width:0.0000; stroke-opacity:1;  stroke-linecap:round; stroke-linejoin:round;">
</svg:g>
<svg:g style="fill:#C2C200; fill-opacity:0.0;  stroke:#C2C200; stroke-width:0.3458; stroke-opacity:1;  stroke-linecap:round; stroke-linejoin:round;">
<svg:path style="fill:#C2C200; fill-opacity:0.0;  stroke:#C2C200; stroke-width:0.3458; stroke-opacity:1;  stroke-linecap:round; stroke-linejoin:round;fill:none" d="M 229.9031,0.1765 67.0991,0.1765 67.0991,209.8307 229.9031,209.8307 Z"/> 
<svg:g>
</svg:g>
<svg:g>
</svg:g>
<svg:g>
</svg:g>
<svg:g>
</svg:g>
<svg:g>
</svg:g>
<svg:g>
</svg:g>
<svg:g>
</svg:g>
<svg:g>
</svg:g>
<svg:g>
</svg:g>
<svg:g>
</svg:g>
<svg:g>
</svg:g>
<svg:g>
</svg:g>
<svg:g>
</svg:g>
<svg:g>
</svg:g>
<svg:g>
</svg:g>
<svg:g>
</svg:g>
<svg:g>
</svg:g>
<svg:g>
</svg:g>
<svg:g>
</svg:g>
<svg:g>
</svg:g>
<svg:g>
</svg:g>
<svg:g>
</svg:g>
<svg:g>
</svg:g>
<svg:g>
</svg:g>
<svg:g>
</svg:g>
<svg:g>
</svg:g>
<svg:g>
</svg:g>
<svg:g>
</svg:g>
<svg:g>
</svg:g>
<svg:g>
</svg:g>
<svg:g>
</svg:g>
<svg:g>
</svg:g>
<svg:g>
</svg:g>
<svg:g>
</svg:g>
<svg:g>
</svg:g>
<svg:g>
</svg:g>
<svg:g>
</svg:g>
<svg:g>
</svg:g>
<svg:g>
</svg:g>
<svg:g>
</svg:g>
<svg:g>
</svg:g>
<svg:g>
</svg:g>
<svg:g>
</svg:g>
<svg:g>
</svg:g>
<svg:g>
</svg:g>
<svg:g>
</svg:g>
<svg:g>
</svg:g>
<svg:g>
</svg:g>
<svg:g>
</svg:g>
<svg:g>
</svg:g>
<svg:g>
</svg:g>
<svg:g>
</svg:g>
<svg:g>
</svg:g>
<svg:g>
</svg:g>
<svg:g>
</svg:g>
<svg:g>
</svg:g>
<svg:g>
</svg:g>
<svg:g>
</svg:g>
<svg:g>
</svg:g>
<svg:g>
</svg:g>
<svg:g>
</svg:g>
<svg:g>
</svg:g>
<svg:g>
</svg:g>
<svg:g>
</svg:g>
<svg:g>
</svg:g>
<svg:g>
</svg:g>
<svg:g>
</svg:g>
<svg:g>
</svg:g>
<svg:g>
</svg:g>
<svg:g>
</svg:g>
<svg:g>
</svg:g>
<svg:g>
</svg:g>
<svg:g>
</svg:g>
</svg:g> 
</svg:g></svg:g></svg>
