<?xml version='1.0' encoding='ASCII' standalone='yes'?>
<svg xmlns:svg="http://www.w3.org/2000/svg" xmlns="http://www.w3.org/2000/svg" xmlns:xlink="http://www.w3.org/1999/xlink" version="1.1" width="29.700220cm" height="21.000720cm" viewBox="0 0 2970022 2100072">
<title>SVG Picture created as ISO11446PWR01-B_Fab.svg date 2023/02/15 12:24:15 </title>
  <desc>Picture generated by PCBNEW </desc>
<g style="fill:#000084; fill-opacity:1.000000;stroke:#000084; stroke-opacity:1.000000; stroke-linecap:round; stroke-linejoin:round;" transform="translate(0 0) scale(1 1)">
</g>
<g style="fill:#000084; fill-opacity:0.0;  stroke:#000084; stroke-width:0.000000; stroke-opacity:1;  stroke-linecap:round; stroke-linejoin:round;">
</g>
<g style="fill:#000084; fill-opacity:0.01;  stroke:#000084; stroke-width:2559.357225; stroke-opacity:1;  stroke-linecap:round; stroke-linejoin:round;">
<text x="520108.957955" y="1385257.864892" transform="scale(-1 1) translate(-1040217.915911 0)" textLength="60787.583502" font-size="22749.836309" lengthAdjust="spacingAndGlyphs" text-anchor="middle" opacity="0.01" style="font-family:monospace">10uF</text>
<g class="stroked-text"><desc>10uF</desc>
<path d="M538390 1384445 L548140 1384445 "/>
<path d="M543265 1384445 L543265 1367382 L544890 1369820 L546515 1371445 L548140 1372257 "/>
<path d="M527827 1367382 L526202 1367382 L524577 1368195 L523765 1369007 L522952 1370632 L522140 1373882 L522140 1377945 L522952 1381195 L523765 1382820 L524577 1383632 L526202 1384445 L527827 1384445 L529452 1383632 L530265 1382820 L531077 1381195 L531890 1377945 L531890 1373882 L531077 1370632 L530265 1369007 L529452 1368195 L527827 1367382 "/>
<path d="M507515 1373070 L507515 1384445 "/>
<path d="M514827 1373070 L514827 1382007 L514015 1383632 L512390 1384445 L509952 1384445 L508327 1383632 L507515 1382820 "/>
<path d="M493702 1375507 L499390 1375507 "/>
<path d="M499390 1384445 L499390 1367382 L491265 1367382 "/>
</g></g>
<g style="fill:#000084; fill-opacity:0.01;  stroke:#000084; stroke-width:1364.990520; stroke-opacity:1;  stroke-linecap:round; stroke-linejoin:round;">
<text x="520108.957955" y="1352327.468602" transform="scale(-1 1) translate(-1040217.915911 0)" textLength="13328.961802" font-size="11374.909623" lengthAdjust="spacingAndGlyphs" text-anchor="middle" opacity="0.01" style="font-family:monospace">C1</text>
<g class="stroked-text"><desc>C1</desc>
<path d="M521530 1351108 L521937 1351514 L523155 1351921 L523968 1351921 L525187 1351514 L525999 1350702 L526405 1349889 L526812 1348264 L526812 1347046 L526405 1345421 L525999 1344608 L525187 1343796 L523968 1343390 L523155 1343390 L521937 1343796 L521530 1344202 "/>
<path d="M513405 1351921 L518280 1351921 "/>
<path d="M515843 1351921 L515843 1343390 L516655 1344608 L517468 1345421 L518280 1345827 "/>
</g></g>
<g style="fill:#000084; fill-opacity:0.01;  stroke:#000084; stroke-width:2559.357225; stroke-opacity:1;  stroke-linecap:round; stroke-linejoin:round;">
<text x="693462.753967" y="1295034.380268" transform="scale(-1 1) translate(-1386925.507935 0)" textLength="172099.301475" font-size="22749.836309" lengthAdjust="spacingAndGlyphs" text-anchor="middle" opacity="0.01" style="font-family:monospace">BZV55C-5,6V</text>
<g class="stroked-text"><desc>BZV55C-5,6V</desc>
<path d="M770649 1285284 L768212 1286096 L767399 1286909 L766587 1288534 L766587 1290971 L767399 1292596 L768212 1293409 L769837 1294221 L776337 1294221 L776337 1277159 L770649 1277159 L769024 1277971 L768212 1278784 L767399 1280409 L767399 1282034 L768212 1283659 L769024 1284471 L770649 1285284 L776337 1285284 "/>
<path d="M760899 1277159 L749524 1277159 L760899 1294221 L749524 1294221 "/>
<path d="M745462 1277159 L739774 1294221 L734087 1277159 "/>
<path d="M720275 1277159 L728400 1277159 L729212 1285284 L728400 1284471 L726775 1283659 L722712 1283659 L721087 1284471 L720275 1285284 L719462 1286909 L719462 1290971 L720275 1292596 L721087 1293409 L722712 1294221 L726775 1294221 L728400 1293409 L729212 1292596 "/>
<path d="M704025 1277159 L712150 1277159 L712962 1285284 L712150 1284471 L710525 1283659 L706462 1283659 L704837 1284471 L704025 1285284 L703212 1286909 L703212 1290971 L704025 1292596 L704837 1293409 L706462 1294221 L710525 1294221 L712150 1293409 L712962 1292596 "/>
<path d="M686150 1292596 L686962 1293409 L689400 1294221 L691025 1294221 L693462 1293409 L695087 1291784 L695900 1290159 L696712 1286909 L696712 1284471 L695900 1281221 L695087 1279596 L693462 1277971 L691025 1277159 L689400 1277159 L686962 1277971 L686150 1278784 "/>
<path d="M678837 1287721 L665837 1287721 "/>
<path d="M649588 1277159 L657712 1277159 L658525 1285284 L657712 1284471 L656087 1283659 L652025 1283659 L650400 1284471 L649588 1285284 L648775 1286909 L648775 1290971 L649588 1292596 L650400 1293409 L652025 1294221 L656087 1294221 L657712 1293409 L658525 1292596 "/>
<path d="M640650 1293409 L640650 1294221 L641463 1295846 L642275 1296659 "/>
<path d="M626025 1277159 L629275 1277159 L630900 1277971 L631713 1278784 L633338 1281221 L634150 1284471 L634150 1290971 L633338 1292596 L632525 1293409 L630900 1294221 L627650 1294221 L626025 1293409 L625213 1292596 L624400 1290971 L624400 1286909 L625213 1285284 L626025 1284471 L627650 1283659 L630900 1283659 L632525 1284471 L633338 1285284 L634150 1286909 "/>
<path d="M619525 1277159 L613838 1294221 L608150 1277159 "/>
</g><text x="693462.753967" y="1208016.234632" transform="scale(-1 1) translate(-1386925.507935 0)" textLength="29985.105058" font-size="22749.836309" lengthAdjust="spacingAndGlyphs" text-anchor="middle" opacity="0.01" style="font-family:monospace">D1</text>
<g class="stroked-text"><desc>D1</desc>
<path d="M706056 1207203 L706056 1190141 L701993 1190141 L699556 1190953 L697931 1192578 L697118 1194203 L696306 1197453 L696306 1199891 L697118 1203141 L697931 1204766 L699556 1206391 L701993 1207203 L706056 1207203 "/>
<path d="M680056 1207203 L689806 1207203 "/>
<path d="M684931 1207203 L684931 1190141 L686556 1192578 L688181 1194203 L689806 1195016 "/>
</g><text x="520108.957955" y="1117549.099200" transform="scale(-1 1) translate(-1040217.915911 0)" textLength="75484.794738" font-size="22749.836309" lengthAdjust="spacingAndGlyphs" text-anchor="middle" opacity="0.01" style="font-family:monospace">100nF</text>
<g class="stroked-text"><desc>100nF</desc>
<path d="M546515 1116736 L556264 1116736 "/>
<path d="M551389 1116736 L551389 1099674 L553014 1102111 L554639 1103736 L556264 1104549 "/>
<path d="M535952 1099674 L534327 1099674 L532702 1100486 L531890 1101299 L531077 1102924 L530265 1106174 L530265 1110236 L531077 1113486 L531890 1115111 L532702 1115924 L534327 1116736 L535952 1116736 L537577 1115924 L538390 1115111 L539202 1113486 L540015 1110236 L540015 1106174 L539202 1102924 L538390 1101299 L537577 1100486 L535952 1099674 "/>
<path d="M519702 1099674 L518077 1099674 L516452 1100486 L515640 1101299 L514827 1102924 L514015 1106174 L514015 1110236 L514827 1113486 L515640 1115111 L516452 1115924 L518077 1116736 L519702 1116736 L521327 1115924 L522140 1115111 L522952 1113486 L523765 1110236 L523765 1106174 L522952 1102924 L522140 1101299 L521327 1100486 L519702 1099674 "/>
<path d="M506702 1105361 L506702 1116736 "/>
<path d="M506702 1106986 L505890 1106174 L504265 1105361 L501827 1105361 L500202 1106174 L499390 1107799 L499390 1116736 "/>
<path d="M485577 1107799 L491265 1107799 "/>
<path d="M491265 1116736 L491265 1099674 L483140 1099674 "/>
</g></g>
<g style="fill:#000084; fill-opacity:0.01;  stroke:#000084; stroke-width:1364.990520; stroke-opacity:1;  stroke-linecap:round; stroke-linejoin:round;">
<text x="520108.957955" y="1084618.702911" transform="scale(-1 1) translate(-1040217.915911 0)" textLength="13328.961802" font-size="11374.909623" lengthAdjust="spacingAndGlyphs" text-anchor="middle" opacity="0.01" style="font-family:monospace">C2</text>
<g class="stroked-text"><desc>C2</desc>
<path d="M521530 1083399 L521937 1083806 L523155 1084212 L523968 1084212 L525187 1083806 L525999 1082993 L526405 1082181 L526812 1080556 L526812 1079337 L526405 1077712 L525999 1076900 L525187 1076087 L523968 1075681 L523155 1075681 L521937 1076087 L521530 1076493 "/>
<path d="M518280 1076493 L517874 1076087 L517062 1075681 L515030 1075681 L514218 1076087 L513812 1076493 L513405 1077306 L513405 1078118 L513812 1079337 L518687 1084212 L513405 1084212 "/>
</g></g>
<g style="fill:#000084; fill-opacity:0.0;  stroke:#000084; stroke-width:1706.238150; stroke-opacity:1;  stroke-linecap:round; stroke-linejoin:round;">
<path d="M503046 1358725 L537171 1358725 "/>
<path d="M537171 1337397 L503046 1337397 "/>
<path d="M537171 1358725 L537171 1337397 "/>
<path d="M503046 1337397 L503046 1358725 "/>
<path d="M732706 1267734 L732706 1216547 "/>
<path d="M654219 1216547 L654219 1267734 "/>
<path d="M684911 1254943 L684911 1228506 "/>
<path d="M704543 1242158 L684911 1228506 "/>
<path d="M654219 1216547 L732706 1216547 "/>
<path d="M684911 1242158 L667879 1242158 "/>
<path d="M704543 1242158 L684911 1254943 "/>
<path d="M704543 1242158 L719928 1242158 "/>
<path d="M654219 1267734 L732706 1267734 "/>
<path d="M704543 1228506 L704543 1255810 "/>
<path d="M503046 1069689 L503046 1091017 "/>
<path d="M537171 1091017 L537171 1069689 "/>
<path d="M537171 1069689 L503046 1069689 "/>
<path d="M503046 1091017 L537171 1091017 "/>
<g>
</g>
<g>
</g>
<g>
</g>
<g>
</g>
<g>
</g>
<g>
</g>
<g>
</g>
<g>
</g>
<g>
</g>
<g>
</g>
<g>
</g>
<g>
</g>
<g>
</g>
<g>
</g>
<g>
</g>
<g>
</g>
<g>
</g>
<g>
</g>
<g>
</g>
<g>
</g>
</g> 
<svg:g><svg:g><svg:title>SVG Picture created as ISO11446PWR01-Edge_Cuts.svg date 2023/02/15 12:24:15 </svg:title>
  <svg:desc>Picture generated by PCBNEW </svg:desc>
<svg:g style="fill:#C2C200; fill-opacity:1.000000;stroke:#C2C200; stroke-opacity:1.000000; stroke-linecap:round; stroke-linejoin:round;" transform="translate(0 0) scale(1 1)">
</svg:g>
<svg:g style="fill:#C2C200; fill-opacity:0.0;  stroke:#C2C200; stroke-width:0.000000; stroke-opacity:1;  stroke-linecap:round; stroke-linejoin:round;">
</svg:g>
<svg:g style="fill:#C2C200; fill-opacity:0.0;  stroke:#C2C200; stroke-width:216.692245; stroke-opacity:1;  stroke-linecap:round; stroke-linejoin:round;">
<svg:path d="M949159 1603758 L949159 919011 "/>
<svg:path d="M264412 919011 L264412 1603758 "/>
<svg:path d="M264412 1603758 L949159 1603758 "/>
<svg:path d="M949159 919011 L264412 919011 "/>
<svg:circle cx="346755.161943" cy="1521415.669240" r="28437.291120"/> 
<svg:path d="M304099 1521415 L389411 1521415 "/>
<svg:path d="M346755 1478759 L346755 1564071 "/>
<svg:circle cx="346755.161943" cy="1521415.669240" r="28437.291120"/> 
<svg:path d="M304099 1521415 L389411 1521415 "/>
<svg:path d="M346755 1478759 L346755 1564071 "/>
<svg:circle cx="346755.161943" cy="1521415.669240" r="28437.291120"/> 
<svg:path d="M304099 1521415 L389411 1521415 "/>
<svg:path d="M346755 1478759 L346755 1564071 "/>
<svg:g>
</svg:g>
<svg:g>
</svg:g>
<svg:g>
</svg:g>
<svg:g>
</svg:g>
<svg:g>
</svg:g>
<svg:g>
</svg:g>
<svg:g>
</svg:g>
<svg:g>
</svg:g>
<svg:g>
</svg:g>
<svg:g>
</svg:g>
<svg:g>
</svg:g>
<svg:g>
</svg:g>
<svg:g>
</svg:g>
<svg:g>
</svg:g>
<svg:g>
</svg:g>
<svg:g>
</svg:g>
<svg:g>
</svg:g>
<svg:g>
</svg:g>
<svg:g>
</svg:g>
<svg:g>
</svg:g>
</svg:g> 
</svg:g></svg:g></svg>
