<?xml version='1.0' encoding='ASCII' standalone='yes'?>
<svg xmlns:svg="http://www.w3.org/2000/svg" xmlns="http://www.w3.org/2000/svg" xmlns:xlink="http://www.w3.org/1999/xlink" version="1.1" width="29.700220cm" height="21.000720cm" viewBox="0 0 2970022 2100072">
<title>SVG Picture created as ISO11446PWR01-F_Fab.svg date 2023/07/05 12:31:32 </title>
  <desc>Picture generated by PCBNEW </desc>
<g style="fill:#848484; fill-opacity:1.000000;stroke:#848484; stroke-opacity:1.000000; stroke-linecap:round; stroke-linejoin:round;" transform="translate(0 0) scale(1 1)">
</g>
<g style="fill:#848484; fill-opacity:0.0;  stroke:#848484; stroke-width:0.000000; stroke-opacity:1;  stroke-linecap:round; stroke-linejoin:round;">
</g>
<g style="fill:#848484; fill-opacity:0.0;  stroke:#848484; stroke-width:7027.513669; stroke-opacity:1;  stroke-linecap:round; stroke-linejoin:round;">
<g transform="rotate(-90.000000 2248028.825717 533716.630070)">
<text x="2248028.825717" y="551285.414242" textLength="63509.471685" font-size="46850.091127" lengthAdjust="spacingAndGlyphs" text-anchor="middle" opacity="0.01" style="font-family:monospace">J3</text>
</g>
<g class="stroked-text"><desc>J3</desc>
<path d="M2267270 545429 L2242172 545429 L2237152 547102 L2233806 550448 L2232133 555468 L2232133 558814 "/>
<path d="M2267270 532043 L2267270 510291 L2253885 522004 L2253885 516984 L2252211 513637 L2250538 511964 L2247192 510291 L2238826 510291 L2235479 511964 L2233806 513637 L2232133 516984 L2232133 527023 L2233806 530370 L2235479 532043 "/>
</g><g transform="rotate(-90.000000 2248028.825717 648997.366110)">
<text x="2248028.825717" y="666566.150282" textLength="69371.589337" font-size="46850.091127" lengthAdjust="spacingAndGlyphs" text-anchor="middle" opacity="0.01" style="font-family:monospace">J4</text>
</g>
<g class="stroked-text"><desc>J4</desc>
<path d="M2267270 660709 L2242172 660709 L2237152 662383 L2233806 665729 L2232133 670749 L2232133 674095 "/>
<path d="M2255558 628918 L2232133 628918 "/>
<path d="M2268944 637284 L2243845 645650 L2243845 623899 "/>
</g><g transform="rotate(-90.000000 716324.811752 1735679.696318)">
<text x="716324.811752" y="1753248.480490" textLength="102835.950023" font-size="46850.091127" lengthAdjust="spacingAndGlyphs" text-anchor="middle" opacity="0.01" style="font-family:monospace">J21</text>
</g>
<g class="stroked-text"><desc>J21</desc>
<path d="M735566 1764124 L710468 1764124 L705448 1765797 L702102 1769144 L700429 1774163 L700429 1777510 "/>
<path d="M732220 1749065 L733893 1747392 L735566 1744045 L735566 1735679 L733893 1732333 L732220 1730660 L728873 1728986 L725527 1728986 L720507 1730660 L700429 1750738 L700429 1728986 "/>
<path d="M700429 1695522 L700429 1715601 "/>
<path d="M700429 1705561 L735566 1705561 L730547 1708908 L727200 1712254 L725527 1715601 "/>
</g></g>
<g style="fill:#848484; fill-opacity:0.01;  stroke:#848484; stroke-width:3458.422081; stroke-opacity:1;  stroke-linecap:round; stroke-linejoin:round;">
<text x="1580463.445071" y="1269201.085835" textLength="76108.388046" font-size="30741.521925" lengthAdjust="spacingAndGlyphs" text-anchor="middle" opacity="0.01" style="font-family:monospace">33R</text>
<g class="stroked-text"><desc>33R</desc>
<path d="M1610656 1245047 L1596383 1245047 L1604068 1253830 L1600774 1253830 L1598579 1254928 L1597481 1256026 L1596383 1258221 L1596383 1263711 L1597481 1265907 L1598579 1267005 L1600774 1268103 L1607362 1268103 L1609558 1267005 L1610656 1265907 "/>
<path d="M1588697 1245047 L1574424 1245047 L1582110 1253830 L1578816 1253830 L1576620 1254928 L1575522 1256026 L1574424 1258221 L1574424 1263711 L1575522 1265907 L1576620 1267005 L1578816 1268103 L1585404 1268103 L1587599 1267005 L1588697 1265907 "/>
<path d="M1551368 1268103 L1559054 1257124 "/>
<path d="M1564543 1268103 L1564543 1245047 L1555760 1245047 L1553564 1246144 L1552466 1247242 L1551368 1249438 L1551368 1252732 L1552466 1254928 L1553564 1256026 L1555760 1257124 L1564543 1257124 "/>
</g><text x="1580463.445071" y="1136628.239389" textLength="49510.332448" font-size="30741.521925" lengthAdjust="spacingAndGlyphs" text-anchor="middle" opacity="0.01" style="font-family:monospace">R5</text>
<g class="stroked-text"><desc>R5</desc>
<path d="M1584306 1135530 L1591991 1124551 "/>
<path d="M1597481 1135530 L1597481 1112474 L1588697 1112474 L1586501 1113572 L1585404 1114670 L1584306 1116865 L1584306 1120159 L1585404 1122355 L1586501 1123453 L1588697 1124551 L1597481 1124551 "/>
<path d="M1563445 1112474 L1574424 1112474 L1575522 1123453 L1574424 1122355 L1572229 1121257 L1566739 1121257 L1564543 1122355 L1563445 1123453 L1562347 1125649 L1562347 1131138 L1563445 1133334 L1564543 1134432 L1566739 1135530 L1572229 1135530 L1574424 1134432 L1575522 1133334 "/>
</g></g>
<g style="fill:#848484; fill-opacity:0.0;  stroke:#848484; stroke-width:7027.513669; stroke-opacity:1;  stroke-linecap:round; stroke-linejoin:round;">
<g transform="rotate(-90.000000 2248028.825717 303155.157990)">
<text x="2248028.825717" y="320723.942162" textLength="64731.770273" font-size="46850.091127" lengthAdjust="spacingAndGlyphs" text-anchor="middle" opacity="0.01" style="font-family:monospace">J1</text>
</g>
<g class="stroked-text"><desc>J1</desc>
<path d="M2267270 314867 L2242172 314867 L2237152 316540 L2233806 319887 L2232133 324906 L2232133 328253 "/>
<path d="M2232133 279730 L2232133 299808 "/>
<path d="M2232133 289769 L2267270 289769 L2262251 293115 L2258904 296462 L2257231 299808 "/>
</g><g transform="rotate(-90.000000 716324.811752 1620398.960278)">
<text x="716324.811752" y="1637967.744450" textLength="102835.950023" font-size="46850.091127" lengthAdjust="spacingAndGlyphs" text-anchor="middle" opacity="0.01" style="font-family:monospace">J19</text>
</g>
<g class="stroked-text"><desc>J19</desc>
<path d="M735566 1648843 L710468 1648843 L705448 1650516 L702102 1653863 L700429 1658882 L700429 1662229 "/>
<path d="M700429 1613706 L700429 1633784 "/>
<path d="M700429 1623745 L735566 1623745 L730547 1627091 L727200 1630438 L725527 1633784 "/>
<path d="M700429 1596973 L700429 1590281 L702102 1586934 L703775 1585261 L708795 1581914 L715488 1580241 L728873 1580241 L732220 1581914 L733893 1583588 L735566 1586934 L735566 1593627 L733893 1596973 L732220 1598647 L728873 1600320 L720507 1600320 L717161 1598647 L715488 1596973 L713814 1593627 L713814 1586934 L715488 1583588 L717161 1581914 L720507 1580241 "/>
</g><g transform="rotate(-90.000000 2248028.825717 994839.574230)">
<text x="2248028.825717" y="1012408.358402" textLength="69371.589337" font-size="46850.091127" lengthAdjust="spacingAndGlyphs" text-anchor="middle" opacity="0.01" style="font-family:monospace">J7</text>
</g>
<g class="stroked-text"><desc>J7</desc>
<path d="M2267270 1006552 L2242172 1006552 L2237152 1008225 L2233806 1011571 L2232133 1016591 L2232133 1019937 "/>
<path d="M2267270 993166 L2267270 969741 L2232133 984800 "/>
</g></g>
<g style="fill:#848484; fill-opacity:0.01;  stroke:#848484; stroke-width:2305.614721; stroke-opacity:1;  stroke-linecap:round; stroke-linejoin:round;">
<text x="1795392.849345" y="1893245.406337" textLength="40975.200369" font-size="15370.749435" lengthAdjust="spacingAndGlyphs" text-anchor="middle" opacity="0.01" style="font-family:monospace">16A</text>
<g class="stroked-text"><desc>16A</desc>
<path d="M1802529 1892696 L1809116 1892696 "/>
<path d="M1805823 1892696 L1805823 1881168 L1806920 1882815 L1808018 1883913 L1809116 1884462 "/>
<path d="M1792648 1881168 L1794843 1881168 L1795941 1881717 L1796490 1882266 L1797588 1883913 L1798137 1886108 L1798137 1890500 L1797588 1891598 L1797039 1892147 L1795941 1892696 L1793745 1892696 L1792648 1892147 L1792099 1891598 L1791550 1890500 L1791550 1887755 L1792099 1886657 L1792648 1886108 L1793745 1885560 L1795941 1885560 L1797039 1886108 L1797588 1886657 L1798137 1887755 "/>
<path d="M1787158 1889402 L1781668 1889402 "/>
<path d="M1788256 1892696 L1784413 1881168 L1780571 1892696 "/>
</g></g>
<g style="fill:#848484; fill-opacity:0.0;  stroke:#848484; stroke-width:7027.513669; stroke-opacity:1;  stroke-linecap:round; stroke-linejoin:round;">
<g transform="rotate(-90.000000 2248028.825717 1571243.254430)">
<text x="2248028.825717" y="1588812.038603" textLength="96697.481390" font-size="46850.091127" lengthAdjust="spacingAndGlyphs" text-anchor="middle" opacity="0.01" style="font-family:monospace">J13</text>
</g>
<g class="stroked-text"><desc>J13</desc>
<path d="M2267270 1599687 L2242172 1599687 L2237152 1601361 L2233806 1604707 L2232133 1609727 L2232133 1613073 "/>
<path d="M2232133 1564550 L2232133 1584628 "/>
<path d="M2232133 1574589 L2267270 1574589 L2262251 1577936 L2258904 1581282 L2257231 1584628 "/>
<path d="M2267270 1552837 L2267270 1531086 L2253885 1542798 L2253885 1537778 L2252211 1534432 L2250538 1532759 L2247192 1531086 L2238826 1531086 L2235479 1532759 L2233806 1534432 L2232133 1537778 L2232133 1547818 L2233806 1551164 L2235479 1552837 "/>
</g></g>
<g style="fill:#848484; fill-opacity:0.01;  stroke:#848484; stroke-width:3458.422081; stroke-opacity:1;  stroke-linecap:round; stroke-linejoin:round;">
<text x="1580463.445071" y="535052.226565" textLength="76108.388046" font-size="30741.521925" lengthAdjust="spacingAndGlyphs" text-anchor="middle" opacity="0.01" style="font-family:monospace">33R</text>
<g class="stroked-text"><desc>33R</desc>
<path d="M1610656 510898 L1596383 510898 L1604068 519681 L1600774 519681 L1598579 520779 L1597481 521877 L1596383 524073 L1596383 529562 L1597481 531758 L1598579 532856 L1600774 533954 L1607362 533954 L1609558 532856 L1610656 531758 "/>
<path d="M1588697 510898 L1574424 510898 L1582110 519681 L1578816 519681 L1576620 520779 L1575522 521877 L1574424 524073 L1574424 529562 L1575522 531758 L1576620 532856 L1578816 533954 L1585404 533954 L1587599 532856 L1588697 531758 "/>
<path d="M1551368 533954 L1559054 522975 "/>
<path d="M1564543 533954 L1564543 510898 L1555760 510898 L1553564 511996 L1552466 513093 L1551368 515289 L1551368 518583 L1552466 520779 L1553564 521877 L1555760 522975 L1564543 522975 "/>
</g><text x="1580463.445071" y="402479.380119" textLength="49510.332448" font-size="30741.521925" lengthAdjust="spacingAndGlyphs" text-anchor="middle" opacity="0.01" style="font-family:monospace">R2</text>
<g class="stroked-text"><desc>R2</desc>
<path d="M1584306 401381 L1591991 390402 "/>
<path d="M1597481 401381 L1597481 378325 L1588697 378325 L1586501 379423 L1585404 380521 L1584306 382716 L1584306 386010 L1585404 388206 L1586501 389304 L1588697 390402 L1597481 390402 "/>
<path d="M1575522 380521 L1574424 379423 L1572229 378325 L1566739 378325 L1564543 379423 L1563445 380521 L1562347 382716 L1562347 384912 L1563445 388206 L1576620 401381 L1562347 401381 "/>
</g></g>
<g style="fill:#848484; fill-opacity:0.0;  stroke:#848484; stroke-width:7027.513669; stroke-opacity:1;  stroke-linecap:round; stroke-linejoin:round;">
<g transform="rotate(-90.000000 714497.612086 1502812.609517)">
<text x="714497.612086" y="1520381.393689" textLength="98196.130959" font-size="46850.091127" lengthAdjust="spacingAndGlyphs" text-anchor="middle" opacity="0.01" style="font-family:monospace">J22</text>
</g>
<g class="stroked-text"><desc>J22</desc>
<path d="M733739 1531257 L708641 1531257 L703621 1532930 L700275 1536276 L698602 1541296 L698602 1544643 "/>
<path d="M730393 1516198 L732066 1514525 L733739 1511178 L733739 1502812 L732066 1499466 L730393 1497792 L727046 1496119 L723700 1496119 L718680 1497792 L698602 1517871 L698602 1496119 "/>
<path d="M730393 1482733 L732066 1481060 L733739 1477714 L733739 1469348 L732066 1466001 L730393 1464328 L727046 1462655 L723700 1462655 L718680 1464328 L698602 1484407 L698602 1462655 "/>
</g><g transform="rotate(-90.000000 2248028.825717 764278.102150)">
<text x="2248028.825717" y="781846.886322" textLength="69371.589337" font-size="46850.091127" lengthAdjust="spacingAndGlyphs" text-anchor="middle" opacity="0.01" style="font-family:monospace">J5</text>
</g>
<g class="stroked-text"><desc>J5</desc>
<path d="M2267270 775990 L2242172 775990 L2237152 777663 L2233806 781010 L2232133 786029 L2232133 789376 "/>
<path d="M2267270 742526 L2267270 759258 L2250538 760931 L2252211 759258 L2253885 755911 L2253885 747545 L2252211 744199 L2250538 742526 L2247192 740853 L2238826 740853 L2235479 742526 L2233806 744199 L2232133 747545 L2232133 755911 L2233806 759258 L2235479 760931 "/>
</g><g transform="rotate(-90.000000 2248028.825717 1225401.046310)">
<text x="2248028.825717" y="1242969.830482" textLength="69371.589337" font-size="46850.091127" lengthAdjust="spacingAndGlyphs" text-anchor="middle" opacity="0.01" style="font-family:monospace">J9</text>
</g>
<g class="stroked-text"><desc>J9</desc>
<path d="M2267270 1237113 L2242172 1237113 L2237152 1238786 L2233806 1242133 L2232133 1247152 L2232133 1250499 "/>
<path d="M2232133 1218708 L2232133 1212015 L2233806 1208668 L2235479 1206995 L2240499 1203649 L2247192 1201976 L2260577 1201976 L2263924 1203649 L2265597 1205322 L2267270 1208668 L2267270 1215361 L2265597 1218708 L2263924 1220381 L2260577 1222054 L2252211 1222054 L2248865 1220381 L2247192 1218708 L2245519 1215361 L2245519 1208668 L2247192 1205322 L2248865 1203649 L2252211 1201976 "/>
</g></g>
<g style="fill:#848484; fill-opacity:0.01;  stroke:#848484; stroke-width:3458.422081; stroke-opacity:1;  stroke-linecap:round; stroke-linejoin:round;">
<text x="1580463.445071" y="1513917.372258" textLength="76108.388046" font-size="30741.521925" lengthAdjust="spacingAndGlyphs" text-anchor="middle" opacity="0.01" style="font-family:monospace">33R</text>
<g class="stroked-text"><desc>33R</desc>
<path d="M1610656 1489763 L1596383 1489763 L1604068 1498546 L1600774 1498546 L1598579 1499644 L1597481 1500742 L1596383 1502938 L1596383 1508427 L1597481 1510623 L1598579 1511721 L1600774 1512819 L1607362 1512819 L1609558 1511721 L1610656 1510623 "/>
<path d="M1588697 1489763 L1574424 1489763 L1582110 1498546 L1578816 1498546 L1576620 1499644 L1575522 1500742 L1574424 1502938 L1574424 1508427 L1575522 1510623 L1576620 1511721 L1578816 1512819 L1585404 1512819 L1587599 1511721 L1588697 1510623 "/>
<path d="M1551368 1512819 L1559054 1501840 "/>
<path d="M1564543 1512819 L1564543 1489763 L1555760 1489763 L1553564 1490861 L1552466 1491959 L1551368 1494154 L1551368 1497448 L1552466 1499644 L1553564 1500742 L1555760 1501840 L1564543 1501840 "/>
</g><text x="1580463.445071" y="1381344.525812" textLength="49510.332448" font-size="30741.521925" lengthAdjust="spacingAndGlyphs" text-anchor="middle" opacity="0.01" style="font-family:monospace">R6</text>
<g class="stroked-text"><desc>R6</desc>
<path d="M1584306 1380246 L1591991 1369267 "/>
<path d="M1597481 1380246 L1597481 1357190 L1588697 1357190 L1586501 1358288 L1585404 1359386 L1584306 1361582 L1584306 1364875 L1585404 1367071 L1586501 1368169 L1588697 1369267 L1597481 1369267 "/>
<path d="M1564543 1357190 L1568935 1357190 L1571131 1358288 L1572229 1359386 L1574424 1362680 L1575522 1367071 L1575522 1375854 L1574424 1378050 L1573327 1379148 L1571131 1380246 L1566739 1380246 L1564543 1379148 L1563445 1378050 L1562347 1375854 L1562347 1370365 L1563445 1368169 L1564543 1367071 L1566739 1365973 L1571131 1365973 L1573327 1367071 L1574424 1368169 L1575522 1370365 "/>
</g></g>
<g style="fill:#848484; fill-opacity:0.0;  stroke:#848484; stroke-width:7027.513669; stroke-opacity:1;  stroke-linecap:round; stroke-linejoin:round;">
<g transform="rotate(-90.000000 714497.612086 1387531.873477)">
<text x="714497.612086" y="1405100.657649" textLength="98196.130959" font-size="46850.091127" lengthAdjust="spacingAndGlyphs" text-anchor="middle" opacity="0.01" style="font-family:monospace">J20</text>
</g>
<g class="stroked-text"><desc>J20</desc>
<path d="M733739 1415976 L708641 1415976 L703621 1417649 L700275 1420996 L698602 1426015 L698602 1429362 "/>
<path d="M730393 1400917 L732066 1399244 L733739 1395897 L733739 1387531 L732066 1384185 L730393 1382512 L727046 1380838 L723700 1380838 L718680 1382512 L698602 1402590 L698602 1380838 "/>
<path d="M733739 1359087 L733739 1355740 L732066 1352394 L730393 1350721 L727046 1349047 L720353 1347374 L711987 1347374 L705294 1349047 L701948 1350721 L700275 1352394 L698602 1355740 L698602 1359087 L700275 1362433 L701948 1364106 L705294 1365780 L711987 1367453 L720353 1367453 L727046 1365780 L730393 1364106 L732066 1362433 L733739 1359087 "/>
</g></g>
<g style="fill:#848484; fill-opacity:0.01;  stroke:#848484; stroke-width:3458.422081; stroke-opacity:1;  stroke-linecap:round; stroke-linejoin:round;">
<text x="1580463.445071" y="290335.940142" textLength="76108.388046" font-size="30741.521925" lengthAdjust="spacingAndGlyphs" text-anchor="middle" opacity="0.01" style="font-family:monospace">33R</text>
<g class="stroked-text"><desc>33R</desc>
<path d="M1610656 266181 L1596383 266181 L1604068 274965 L1600774 274965 L1598579 276063 L1597481 277160 L1596383 279356 L1596383 284846 L1597481 287042 L1598579 288140 L1600774 289238 L1607362 289238 L1609558 288140 L1610656 287042 "/>
<path d="M1588697 266181 L1574424 266181 L1582110 274965 L1578816 274965 L1576620 276063 L1575522 277160 L1574424 279356 L1574424 284846 L1575522 287042 L1576620 288140 L1578816 289238 L1585404 289238 L1587599 288140 L1588697 287042 "/>
<path d="M1551368 289238 L1559054 278258 "/>
<path d="M1564543 289238 L1564543 266181 L1555760 266181 L1553564 267279 L1552466 268377 L1551368 270573 L1551368 273867 L1552466 276063 L1553564 277160 L1555760 278258 L1564543 278258 "/>
</g><text x="1580463.445071" y="157763.093696" textLength="49510.332448" font-size="30741.521925" lengthAdjust="spacingAndGlyphs" text-anchor="middle" opacity="0.01" style="font-family:monospace">R1</text>
<g class="stroked-text"><desc>R1</desc>
<path d="M1584306 156665 L1591991 145686 "/>
<path d="M1597481 156665 L1597481 133609 L1588697 133609 L1586501 134706 L1585404 135804 L1584306 138000 L1584306 141294 L1585404 143490 L1586501 144588 L1588697 145686 L1597481 145686 "/>
<path d="M1562347 156665 L1575522 156665 "/>
<path d="M1568935 156665 L1568935 133609 L1571131 136902 L1573327 139098 L1575522 140196 "/>
</g></g>
<g style="fill:#848484; fill-opacity:0.0;  stroke:#848484; stroke-width:7027.513669; stroke-opacity:1;  stroke-linecap:round; stroke-linejoin:round;">
<g transform="rotate(-90.000000 2248028.825717 1340681.782350)">
<text x="2248028.825717" y="1358250.566522" textLength="98196.130959" font-size="46850.091127" lengthAdjust="spacingAndGlyphs" text-anchor="middle" opacity="0.01" style="font-family:monospace">J10</text>
</g>
<g class="stroked-text"><desc>J10</desc>
<path d="M2267270 1369126 L2242172 1369126 L2237152 1370799 L2233806 1374146 L2232133 1379165 L2232133 1382512 "/>
<path d="M2232133 1333988 L2232133 1354067 "/>
<path d="M2232133 1344028 L2267270 1344028 L2262251 1347374 L2258904 1350721 L2257231 1354067 "/>
<path d="M2267270 1312237 L2267270 1308890 L2265597 1305544 L2263924 1303870 L2260577 1302197 L2253885 1300524 L2245519 1300524 L2238826 1302197 L2235479 1303870 L2233806 1305544 L2232133 1308890 L2232133 1312237 L2233806 1315583 L2235479 1317256 L2238826 1318929 L2245519 1320603 L2253885 1320603 L2260577 1318929 L2263924 1317256 L2265597 1315583 L2267270 1312237 "/>
</g><g transform="rotate(-90.000000 2248028.825717 418435.894030)">
<text x="2248028.825717" y="436004.678202" textLength="69371.589337" font-size="46850.091127" lengthAdjust="spacingAndGlyphs" text-anchor="middle" opacity="0.01" style="font-family:monospace">J2</text>
</g>
<g class="stroked-text"><desc>J2</desc>
<path d="M2267270 430148 L2242172 430148 L2237152 431821 L2233806 435168 L2232133 440187 L2232133 443534 "/>
<path d="M2263924 415089 L2265597 413416 L2267270 410069 L2267270 401703 L2265597 398357 L2263924 396684 L2260577 395010 L2257231 395010 L2252211 396684 L2232133 416762 L2232133 395010 "/>
</g></g>
<g style="fill:#848484; fill-opacity:0.01;  stroke:#848484; stroke-width:2305.614721; stroke-opacity:1;  stroke-linecap:round; stroke-linejoin:round;">
<text x="1373742.029204" y="1893245.406337" textLength="40975.200369" font-size="15370.749435" lengthAdjust="spacingAndGlyphs" text-anchor="middle" opacity="0.01" style="font-family:monospace">16A</text>
<g class="stroked-text"><desc>16A</desc>
<path d="M1380878 1892696 L1387465 1892696 "/>
<path d="M1384172 1892696 L1384172 1881168 L1385270 1882815 L1386368 1883913 L1387465 1884462 "/>
<path d="M1370997 1881168 L1373193 1881168 L1374290 1881717 L1374839 1882266 L1375937 1883913 L1376486 1886108 L1376486 1890500 L1375937 1891598 L1375388 1892147 L1374290 1892696 L1372095 1892696 L1370997 1892147 L1370448 1891598 L1369899 1890500 L1369899 1887755 L1370448 1886657 L1370997 1886108 L1372095 1885560 L1374290 1885560 L1375388 1886108 L1375937 1886657 L1376486 1887755 "/>
<path d="M1365507 1889402 L1360018 1889402 "/>
<path d="M1366605 1892696 L1362762 1881168 L1358920 1892696 "/>
</g></g>
<g style="fill:#848484; fill-opacity:0.01;  stroke:#848484; stroke-width:3458.422081; stroke-opacity:1;  stroke-linecap:round; stroke-linejoin:round;">
<text x="1580463.445071" y="779768.512988" textLength="69969.919413" font-size="30741.521925" lengthAdjust="spacingAndGlyphs" text-anchor="middle" opacity="0.01" style="font-family:monospace">33R</text>
<g class="stroked-text"><desc>33R</desc>
<path d="M1610656 755614 L1596383 755614 L1604068 764397 L1600774 764397 L1598579 765495 L1597481 766593 L1596383 768789 L1596383 774278 L1597481 776474 L1598579 777572 L1600774 778670 L1607362 778670 L1609558 777572 L1610656 776474 "/>
<path d="M1588697 755614 L1574424 755614 L1582110 764397 L1578816 764397 L1576620 765495 L1575522 766593 L1574424 768789 L1574424 774278 L1575522 776474 L1576620 777572 L1578816 778670 L1585404 778670 L1587599 777572 L1588697 776474 "/>
<path d="M1551368 778670 L1559054 767691 "/>
<path d="M1564543 778670 L1564543 755614 L1555760 755614 L1553564 756712 L1552466 757810 L1551368 760006 L1551368 763299 L1552466 765495 L1553564 766593 L1555760 767691 L1564543 767691 "/>
</g><text x="1580463.445071" y="647195.666542" textLength="49510.332448" font-size="30741.521925" lengthAdjust="spacingAndGlyphs" text-anchor="middle" opacity="0.01" style="font-family:monospace">R3</text>
<g class="stroked-text"><desc>R3</desc>
<path d="M1584306 646097 L1591991 635118 "/>
<path d="M1597481 646097 L1597481 623041 L1588697 623041 L1586501 624139 L1585404 625237 L1584306 627433 L1584306 630726 L1585404 632922 L1586501 634020 L1588697 635118 L1597481 635118 "/>
<path d="M1576620 623041 L1562347 623041 L1570033 631824 L1566739 631824 L1564543 632922 L1563445 634020 L1562347 636216 L1562347 641706 L1563445 643901 L1564543 644999 L1566739 646097 L1573327 646097 L1575522 644999 L1576620 643901 "/>
</g><text x="1580463.445071" y="1758633.658681" textLength="71468.568982" font-size="30741.521925" lengthAdjust="spacingAndGlyphs" text-anchor="middle" opacity="0.01" style="font-family:monospace">33R</text>
<g class="stroked-text"><desc>33R</desc>
<path d="M1610656 1734479 L1596383 1734479 L1604068 1743262 L1600774 1743262 L1598579 1744360 L1597481 1745458 L1596383 1747654 L1596383 1753144 L1597481 1755339 L1598579 1756437 L1600774 1757535 L1607362 1757535 L1609558 1756437 L1610656 1755339 "/>
<path d="M1588697 1734479 L1574424 1734479 L1582110 1743262 L1578816 1743262 L1576620 1744360 L1575522 1745458 L1574424 1747654 L1574424 1753144 L1575522 1755339 L1576620 1756437 L1578816 1757535 L1585404 1757535 L1587599 1756437 L1588697 1755339 "/>
<path d="M1551368 1757535 L1559054 1746556 "/>
<path d="M1564543 1757535 L1564543 1734479 L1555760 1734479 L1553564 1735577 L1552466 1736675 L1551368 1738871 L1551368 1742164 L1552466 1744360 L1553564 1745458 L1555760 1746556 L1564543 1746556 "/>
</g><text x="1580463.445071" y="1626060.812235" textLength="49510.332448" font-size="30741.521925" lengthAdjust="spacingAndGlyphs" text-anchor="middle" opacity="0.01" style="font-family:monospace">R7</text>
<g class="stroked-text"><desc>R7</desc>
<path d="M1584306 1624962 L1591991 1613983 "/>
<path d="M1597481 1624962 L1597481 1601906 L1588697 1601906 L1586501 1603004 L1585404 1604102 L1584306 1606298 L1584306 1609592 L1585404 1611787 L1586501 1612885 L1588697 1613983 L1597481 1613983 "/>
<path d="M1576620 1601906 L1561249 1601906 L1571131 1624962 "/>
</g></g>
<g style="fill:#848484; fill-opacity:0.0;  stroke:#848484; stroke-width:7027.513669; stroke-opacity:1;  stroke-linecap:round; stroke-linejoin:round;">
<g transform="rotate(-90.000000 2248028.825717 879558.838190)">
<text x="2248028.825717" y="897127.622362" textLength="64731.770273" font-size="46850.091127" lengthAdjust="spacingAndGlyphs" text-anchor="middle" opacity="0.01" style="font-family:monospace">J6</text>
</g>
<g class="stroked-text"><desc>J6</desc>
<path d="M2267270 891271 L2242172 891271 L2237152 892944 L2233806 896291 L2232133 901310 L2232133 904657 "/>
<path d="M2267270 859480 L2267270 866173 L2265597 869519 L2263924 871192 L2258904 874539 L2252211 876212 L2238826 876212 L2235479 874539 L2233806 872865 L2232133 869519 L2232133 862826 L2233806 859480 L2235479 857807 L2238826 856133 L2247192 856133 L2250538 857807 L2252211 859480 L2253885 862826 L2253885 869519 L2252211 872865 L2250538 874539 L2247192 876212 "/>
</g><g transform="rotate(-90.000000 2248028.825717 1455962.518390)">
<text x="2248028.825717" y="1473531.302563" textLength="102835.950023" font-size="46850.091127" lengthAdjust="spacingAndGlyphs" text-anchor="middle" opacity="0.01" style="font-family:monospace">J11</text>
</g>
<g class="stroked-text"><desc>J11</desc>
<path d="M2267270 1484407 L2242172 1484407 L2237152 1486080 L2233806 1489426 L2232133 1494446 L2232133 1497792 "/>
<path d="M2232133 1449269 L2232133 1469348 "/>
<path d="M2232133 1459308 L2267270 1459308 L2262251 1462655 L2258904 1466001 L2257231 1469348 "/>
<path d="M2232133 1415805 L2232133 1435883 "/>
<path d="M2232133 1425844 L2267270 1425844 L2262251 1429191 L2258904 1432537 L2257231 1435883 "/>
</g></g>
<g style="fill:#848484; fill-opacity:0.01;  stroke:#848484; stroke-width:3458.422081; stroke-opacity:1;  stroke-linecap:round; stroke-linejoin:round;">
<text x="1580463.445071" y="1024484.799412" textLength="76108.388046" font-size="30741.521925" lengthAdjust="spacingAndGlyphs" text-anchor="middle" opacity="0.01" style="font-family:monospace">33R</text>
<g class="stroked-text"><desc>33R</desc>
<path d="M1610656 1000330 L1596383 1000330 L1604068 1009114 L1600774 1009114 L1598579 1010211 L1597481 1011309 L1596383 1013505 L1596383 1018995 L1597481 1021191 L1598579 1022288 L1600774 1023386 L1607362 1023386 L1609558 1022288 L1610656 1021191 "/>
<path d="M1588697 1000330 L1574424 1000330 L1582110 1009114 L1578816 1009114 L1576620 1010211 L1575522 1011309 L1574424 1013505 L1574424 1018995 L1575522 1021191 L1576620 1022288 L1578816 1023386 L1585404 1023386 L1587599 1022288 L1588697 1021191 "/>
<path d="M1551368 1023386 L1559054 1012407 "/>
<path d="M1564543 1023386 L1564543 1000330 L1555760 1000330 L1553564 1001428 L1552466 1002526 L1551368 1004722 L1551368 1008016 L1552466 1010211 L1553564 1011309 L1555760 1012407 L1564543 1012407 "/>
</g><text x="1580463.445071" y="891911.952965" textLength="49510.332448" font-size="30741.521925" lengthAdjust="spacingAndGlyphs" text-anchor="middle" opacity="0.01" style="font-family:monospace">R4</text>
<g class="stroked-text"><desc>R4</desc>
<path d="M1584306 890814 L1591991 879834 "/>
<path d="M1597481 890814 L1597481 867757 L1588697 867757 L1586501 868855 L1585404 869953 L1584306 872149 L1584306 875443 L1585404 877639 L1586501 878737 L1588697 879834 L1597481 879834 "/>
<path d="M1564543 875443 L1564543 890814 "/>
<path d="M1570033 866659 L1575522 883128 L1561249 883128 "/>
</g></g>
<g style="fill:#848484; fill-opacity:0.0;  stroke:#848484; stroke-width:7027.513669; stroke-opacity:1;  stroke-linecap:round; stroke-linejoin:round;">
<g transform="rotate(-90.000000 2248028.825717 1110120.310270)">
<text x="2248028.825717" y="1127689.094442" textLength="64731.770273" font-size="46850.091127" lengthAdjust="spacingAndGlyphs" text-anchor="middle" opacity="0.01" style="font-family:monospace">J8</text>
</g>
<g class="stroked-text"><desc>J8</desc>
<path d="M2267270 1121832 L2242172 1121832 L2237152 1123506 L2233806 1126852 L2232133 1131872 L2232133 1135218 "/>
<path d="M2252211 1100080 L2253885 1103427 L2255558 1105100 L2258904 1106773 L2260577 1106773 L2263924 1105100 L2265597 1103427 L2267270 1100080 L2267270 1093388 L2265597 1090041 L2263924 1088368 L2260577 1086695 L2258904 1086695 L2255558 1088368 L2253885 1090041 L2252211 1093388 L2252211 1100080 L2250538 1103427 L2248865 1105100 L2245519 1106773 L2238826 1106773 L2235479 1105100 L2233806 1103427 L2232133 1100080 L2232133 1093388 L2233806 1090041 L2235479 1088368 L2238826 1086695 L2245519 1086695 L2248865 1088368 L2250538 1090041 L2252211 1093388 "/>
</g></g>
<g style="fill:#848484; fill-opacity:0.0;  stroke:#848484; stroke-width:3458.422081; stroke-opacity:1;  stroke-linecap:round; stroke-linejoin:round;">
<g transform="rotate(-180.000000 1274185.585560 949308.294723)">
<text x="1274185.585560" y="960836.368327" textLength="32191.914978" font-size="30741.521925" lengthAdjust="spacingAndGlyphs" text-anchor="middle" opacity="0.01" style="font-family:monospace">K</text>
</g>
<g class="stroked-text"><desc>K</desc>
<path d="M1268147 938878 L1268147 961934 "/>
<path d="M1281322 938878 L1271440 952053 "/>
<path d="M1281322 961934 L1268147 948759 "/>
</g><g transform="rotate(-90.000000 1006612.080367 1549662.700643)">
<text x="1006612.080367" y="1561190.774247" textLength="27552.095914" font-size="30741.521925" lengthAdjust="spacingAndGlyphs" text-anchor="middle" opacity="0.01" style="font-family:monospace">K</text>
</g>
<g class="stroked-text"><desc>K</desc>
<path d="M996181 1555701 L1019238 1555701 "/>
<path d="M996181 1542526 L1009356 1552407 "/>
<path d="M1019238 1542526 L1006063 1555701 "/>
</g><g transform="rotate(-90.000000 1025696.806219 1776442.964581)">
<text x="1025696.806219" y="1787971.038185" textLength="27552.095914" font-size="30741.521925" lengthAdjust="spacingAndGlyphs" text-anchor="middle" opacity="0.01" style="font-family:monospace">K</text>
</g>
<g class="stroked-text"><desc>K</desc>
<path d="M1015266 1782481 L1038322 1782481 "/>
<path d="M1015266 1769306 L1028441 1779187 "/>
<path d="M1038322 1769306 L1025147 1782481 "/>
</g><g transform="rotate(-180.000000 1274185.585560 457382.337893)">
<text x="1274185.585560" y="468910.411497" textLength="27552.095914" font-size="30741.521925" lengthAdjust="spacingAndGlyphs" text-anchor="middle" opacity="0.01" style="font-family:monospace">K</text>
</g>
<g class="stroked-text"><desc>K</desc>
<path d="M1268147 446952 L1268147 470008 "/>
<path d="M1281322 446952 L1271440 460127 "/>
<path d="M1281322 470008 L1268147 456833 "/>
</g><g transform="rotate(-180.000000 1274185.585560 1687197.229969)">
<text x="1274185.585560" y="1698725.303573" textLength="27552.095914" font-size="30741.521925" lengthAdjust="spacingAndGlyphs" text-anchor="middle" opacity="0.01" style="font-family:monospace">K</text>
</g>
<g class="stroked-text"><desc>K</desc>
<path d="M1268147 1676767 L1268147 1699823 "/>
<path d="M1281322 1676767 L1271440 1689941 "/>
<path d="M1281322 1699823 L1268147 1686648 "/>
</g><g transform="rotate(-180.000000 1274185.585560 1441234.251554)">
<text x="1274185.585560" y="1452762.325158" textLength="27552.095914" font-size="30741.521925" lengthAdjust="spacingAndGlyphs" text-anchor="middle" opacity="0.01" style="font-family:monospace">K</text>
</g>
<g class="stroked-text"><desc>K</desc>
<path d="M1268147 1430804 L1268147 1453860 "/>
<path d="M1281322 1430804 L1271440 1443979 "/>
<path d="M1281322 1453860 L1268147 1440685 "/>
</g><g transform="rotate(-180.000000 1274185.585560 703345.316308)">
<text x="1274185.585560" y="714873.389912" textLength="27552.095914" font-size="30741.521925" lengthAdjust="spacingAndGlyphs" text-anchor="middle" opacity="0.01" style="font-family:monospace">K</text>
</g>
<g class="stroked-text"><desc>K</desc>
<path d="M1268147 692915 L1268147 715971 "/>
<path d="M1281322 692915 L1271440 706090 "/>
<path d="M1281322 715971 L1268147 702796 "/>
</g><g transform="rotate(-180.000000 1274185.585560 1195271.273138)">
<text x="1274185.585560" y="1206799.346742" textLength="27552.095914" font-size="30741.521925" lengthAdjust="spacingAndGlyphs" text-anchor="middle" opacity="0.01" style="font-family:monospace">K</text>
</g>
<g class="stroked-text"><desc>K</desc>
<path d="M1268147 1184841 L1268147 1207897 "/>
<path d="M1281322 1184841 L1271440 1198016 "/>
<path d="M1281322 1207897 L1268147 1194722 "/>
</g><g transform="rotate(-180.000000 1274185.585560 211419.359478)">
<text x="1274185.585560" y="222947.433082" textLength="27552.095914" font-size="30741.521925" lengthAdjust="spacingAndGlyphs" text-anchor="middle" opacity="0.01" style="font-family:monospace">K</text>
</g>
<g class="stroked-text"><desc>K</desc>
<path d="M1268147 200989 L1268147 224045 "/>
<path d="M1281322 200989 L1271440 214164 "/>
<path d="M1281322 224045 L1268147 210870 "/>
</g><path d="M2031716 568300 L1962547 568300 "/>
<path d="M2285333 476076 L2077828 476076 "/>
<path d="M2031716 499132 L1962547 499132 "/>
<path d="M2077828 476076 L1939491 476076 "/>
<path d="M1962547 487604 L1962547 579828 "/>
<path d="M2077828 591359 L2077828 476073 "/>
<path d="M1951017 499132 L1893379 499132 "/>
<path d="M2077828 591356 L2285333 591356 "/>
<path d="M2031716 568303 L2031716 499130 "/>
<path d="M1939491 591356 L1939491 579828 "/>
<path d="M1962547 579828 L1881848 579828 "/>
<path d="M2077828 591356 L1939491 591356 "/>
<path d="M1951017 568300 L1893379 568300 "/>
<path d="M1962547 487604 L1881828 487604 "/>
<path d="M1951017 568323 L1951017 499109 "/>
<path d="M2273807 579828 L2089358 579828 "/>
<path d="M1939491 487604 L1939491 476076 "/>
<path d="M2089358 487604 L2089358 579828 "/>
<path d="M1881848 487604 L1881848 579828 "/>
<path d="M2285333 591359 L2285333 476073 "/>
<path d="M2089358 510660 L2077828 510660 "/>
<path d="M2273807 487604 L2089358 487604 "/>
<path d="M1893379 568323 L1893379 499109 "/>
<path d="M2089358 556772 L2077828 556772 "/>
<path d="M2273807 579828 L2273807 487604 "/>
</g>
<g style="fill:#848484; fill-opacity:0.0;  stroke:#848484; stroke-width:8784.392086; stroke-opacity:1;  stroke-linecap:round; stroke-linejoin:round;">
<circle cx="782259.628730" cy="113034.168112" r="69162.447026"/> 
</g>
<g style="fill:#848484; fill-opacity:0.0;  stroke:#848484; stroke-width:3458.422081; stroke-opacity:1;  stroke-linecap:round; stroke-linejoin:round;">
<path d="M2031716 683581 L1962547 683581 "/>
<path d="M2077828 706637 L1939491 706637 "/>
<path d="M2285333 591356 L2077828 591356 "/>
<path d="M1881848 602885 L1881848 695109 "/>
<path d="M2077828 591356 L1939491 591356 "/>
<path d="M2285333 706640 L2285333 591354 "/>
<path d="M2031716 614413 L1962547 614413 "/>
<path d="M2273807 695109 L2089358 695109 "/>
<path d="M1951017 614413 L1893379 614413 "/>
<path d="M1951017 683581 L1893379 683581 "/>
<path d="M2031716 683583 L2031716 614410 "/>
<path d="M2077828 706637 L2285333 706637 "/>
<path d="M1939491 706637 L1939491 695109 "/>
<path d="M2077828 706640 L2077828 591354 "/>
<path d="M2273807 602885 L2089358 602885 "/>
<path d="M2089358 672053 L2077828 672053 "/>
<path d="M1939491 602885 L1939491 591356 "/>
<path d="M1893379 683604 L1893379 614390 "/>
<path d="M2273807 695109 L2273807 602885 "/>
<path d="M1962547 695109 L1881848 695109 "/>
<path d="M1951017 683604 L1951017 614390 "/>
<path d="M1962547 602885 L1881828 602885 "/>
<path d="M2089358 602885 L2089358 695109 "/>
<path d="M1962547 602885 L1962547 695109 "/>
<path d="M2089358 625941 L2077828 625941 "/>
</g>
<g style="fill:#848484; fill-opacity:0.0;  stroke:#848484; stroke-width:8784.392086; stroke-opacity:1;  stroke-linecap:round; stroke-linejoin:round;">
<circle cx="782259.628730" cy="1987037.813179" r="69162.447026"/> 
</g>
<g style="fill:#848484; fill-opacity:0.0;  stroke:#848484; stroke-width:3458.422081; stroke-opacity:1;  stroke-linecap:round; stroke-linejoin:round;">
<path d="M690545 1781791 L874994 1781791 "/>
<path d="M886525 1678037 L886525 1793322 "/>
<path d="M679019 1793320 L886525 1793320 "/>
<path d="M1024862 1678039 L1024862 1689567 "/>
<path d="M1013336 1701095 L1070974 1701095 "/>
<path d="M932637 1701093 L932637 1770266 "/>
<path d="M1024862 1781791 L1024862 1793320 "/>
<path d="M1013336 1701072 L1013336 1770286 "/>
<path d="M690545 1689567 L690545 1781791 "/>
<path d="M874994 1781791 L874994 1689567 "/>
<path d="M886525 1793320 L1024862 1793320 "/>
<path d="M886525 1678039 L679019 1678039 "/>
<path d="M1070974 1701072 L1070974 1770286 "/>
<path d="M1013336 1770263 L1070974 1770263 "/>
<path d="M1001806 1781791 L1001806 1689567 "/>
<path d="M690545 1689567 L874994 1689567 "/>
<path d="M886525 1678039 L1024862 1678039 "/>
<path d="M932637 1701095 L1001806 1701095 "/>
<path d="M679019 1678037 L679019 1793322 "/>
<path d="M874994 1758735 L886525 1758735 "/>
<path d="M874994 1712623 L886525 1712623 "/>
<path d="M932637 1770263 L1001806 1770263 "/>
<path d="M1082504 1781791 L1082504 1689567 "/>
<path d="M1001806 1781791 L1082525 1781791 "/>
<path d="M1001806 1689567 L1082504 1689567 "/>
</g>
<g style="fill:#848484; fill-opacity:0.0;  stroke:#848484; stroke-width:2305.614721; stroke-opacity:1;  stroke-linecap:round; stroke-linejoin:round;">
<path d="M1430598 1228852 L1430598 1021347 "/>
<path d="M1730328 1228852 L1430598 1228852 "/>
<path d="M1707272 1021347 L1707272 1228852 "/>
<path d="M1453654 1021347 L1453654 1228852 "/>
<path d="M1430598 1021347 L1730328 1021347 "/>
<path d="M1730328 1021347 L1730328 1228852 "/>
</g>
<g style="fill:#848484; fill-opacity:0.0;  stroke:#848484; stroke-width:3458.422081; stroke-opacity:1;  stroke-linecap:round; stroke-linejoin:round;">
<path d="M1951017 337739 L1893379 337739 "/>
<path d="M2273807 349267 L2089358 349267 "/>
<path d="M2077828 360797 L2077828 245512 "/>
<path d="M2089358 326211 L2077828 326211 "/>
<path d="M2031716 337741 L2031716 268568 "/>
<path d="M1962547 257042 L1962547 349267 "/>
<path d="M2031716 337739 L1962547 337739 "/>
<path d="M1939491 360795 L1939491 349267 "/>
<path d="M2089358 257042 L2089358 349267 "/>
<path d="M2077828 360795 L2285333 360795 "/>
<path d="M2077828 245514 L1939491 245514 "/>
<path d="M2273807 257042 L2089358 257042 "/>
<path d="M1939491 257042 L1939491 245514 "/>
<path d="M1962547 257042 L1881828 257042 "/>
<path d="M2089358 280099 L2077828 280099 "/>
<path d="M1962547 349267 L1881848 349267 "/>
<path d="M2031716 268570 L1962547 268570 "/>
<path d="M2285333 360797 L2285333 245512 "/>
<path d="M2285333 245514 L2077828 245514 "/>
<path d="M1881848 257042 L1881848 349267 "/>
<path d="M2077828 360795 L1939491 360795 "/>
<path d="M1893379 337762 L1893379 268547 "/>
<path d="M2273807 349267 L2273807 257042 "/>
<path d="M1951017 268570 L1893379 268570 "/>
<path d="M1951017 337762 L1951017 268547 "/>
<path d="M1001806 1666511 L1001806 1574286 "/>
<path d="M932637 1585812 L932637 1654985 "/>
<path d="M1001806 1666511 L1082525 1666511 "/>
<path d="M679019 1562756 L679019 1678041 "/>
<path d="M1024862 1666511 L1024862 1678039 "/>
<path d="M886525 1562756 L886525 1678041 "/>
<path d="M690545 1574286 L874994 1574286 "/>
<path d="M1082504 1666511 L1082504 1574286 "/>
<path d="M886525 1678039 L1024862 1678039 "/>
<path d="M690545 1574286 L690545 1666511 "/>
<path d="M932637 1654983 L1001806 1654983 "/>
<path d="M932637 1585814 L1001806 1585814 "/>
<path d="M1013336 1585814 L1070974 1585814 "/>
<path d="M690545 1666511 L874994 1666511 "/>
<path d="M886525 1562758 L679019 1562758 "/>
<path d="M874994 1666511 L874994 1574286 "/>
<path d="M874994 1597342 L886525 1597342 "/>
<path d="M1024862 1562758 L1024862 1574286 "/>
<path d="M1013336 1585791 L1013336 1655006 "/>
<path d="M1013336 1654983 L1070974 1654983 "/>
<path d="M1070974 1585791 L1070974 1655006 "/>
<path d="M679019 1678039 L886525 1678039 "/>
<path d="M874994 1643455 L886525 1643455 "/>
<path d="M886525 1562758 L1024862 1562758 "/>
<path d="M1001806 1574286 L1082504 1574286 "/>
<path d="M2285333 937199 L2077828 937199 "/>
<path d="M1962547 948727 L1962547 1040951 "/>
<path d="M2273807 948727 L2089358 948727 "/>
<path d="M2273807 1040951 L2273807 948727 "/>
<path d="M1962547 948727 L1881828 948727 "/>
<path d="M2285333 1052482 L2285333 937196 "/>
<path d="M1951017 1029423 L1893379 1029423 "/>
<path d="M2089358 948727 L2089358 1040951 "/>
<path d="M2077828 937199 L1939491 937199 "/>
<path d="M2273807 1040951 L2089358 1040951 "/>
<path d="M2031716 960255 L1962547 960255 "/>
<path d="M1962547 1040951 L1881848 1040951 "/>
<path d="M2031716 1029423 L1962547 1029423 "/>
<path d="M2077828 1052479 L1939491 1052479 "/>
<path d="M2089358 971783 L2077828 971783 "/>
<path d="M1951017 1029446 L1951017 960232 "/>
<path d="M2031716 1029426 L2031716 960253 "/>
<path d="M1939491 948727 L1939491 937199 "/>
<path d="M2089358 1017895 L2077828 1017895 "/>
<path d="M1939491 1052479 L1939491 1040951 "/>
<path d="M2077828 1052482 L2077828 937196 "/>
<path d="M2077828 1052479 L2285333 1052479 "/>
<path d="M1881848 948727 L1881848 1040951 "/>
<path d="M1951017 960255 L1893379 960255 "/>
<path d="M1893379 1029446 L1893379 960232 "/>
<path d="M2089358 1525130 L2089358 1617355 "/>
<path d="M1951017 1605850 L1951017 1536635 "/>
<path d="M2089358 1548187 L2077828 1548187 "/>
<path d="M2285333 1513602 L2077828 1513602 "/>
<path d="M1951017 1536659 L1893379 1536659 "/>
<path d="M2031716 1605829 L2031716 1536656 "/>
<path d="M1939491 1525130 L1939491 1513602 "/>
<path d="M2089358 1594299 L2077828 1594299 "/>
<path d="M2285333 1628885 L2285333 1513600 "/>
<path d="M1881848 1525130 L1881848 1617355 "/>
<path d="M1962547 1525130 L1881828 1525130 "/>
<path d="M2031716 1536659 L1962547 1536659 "/>
<path d="M1893379 1605850 L1893379 1536635 "/>
<path d="M2273807 1617355 L2089358 1617355 "/>
<path d="M1951017 1605827 L1893379 1605827 "/>
<path d="M2077828 1513602 L1939491 1513602 "/>
<path d="M2273807 1617355 L2273807 1525130 "/>
<path d="M2077828 1628885 L2077828 1513600 "/>
<path d="M1962547 1617355 L1881848 1617355 "/>
<path d="M2273807 1525130 L2089358 1525130 "/>
<path d="M1962547 1525130 L1962547 1617355 "/>
<path d="M2077828 1628883 L2285333 1628883 "/>
<path d="M1939491 1628883 L1939491 1617355 "/>
<path d="M2031716 1605827 L1962547 1605827 "/>
<path d="M2077828 1628883 L1939491 1628883 "/>
</g>
<g style="fill:#848484; fill-opacity:0.0;  stroke:#848484; stroke-width:2305.614721; stroke-opacity:1;  stroke-linecap:round; stroke-linejoin:round;">
<path d="M1453654 287198 L1453654 494703 "/>
<path d="M1730328 494703 L1430598 494703 "/>
<path d="M1707272 287198 L1707272 494703 "/>
<path d="M1430598 494703 L1430598 287198 "/>
<path d="M1430598 287198 L1730328 287198 "/>
<path d="M1730328 287198 L1730328 494703 "/>
</g>
<g style="fill:#848484; fill-opacity:0.0;  stroke:#848484; stroke-width:3458.422081; stroke-opacity:1;  stroke-linecap:round; stroke-linejoin:round;">
<path d="M1011509 1468228 L1069147 1468228 "/>
<path d="M873167 1525868 L884698 1525868 "/>
<path d="M1011509 1468205 L1011509 1537419 "/>
<path d="M1080677 1548924 L1080677 1456700 "/>
<path d="M873167 1479756 L884698 1479756 "/>
<path d="M999978 1456700 L1080677 1456700 "/>
<path d="M688718 1456700 L688718 1548924 "/>
<path d="M884698 1445172 L677192 1445172 "/>
<path d="M873167 1548924 L873167 1456700 "/>
<path d="M688718 1548924 L873167 1548924 "/>
<path d="M1069147 1468205 L1069147 1537419 "/>
<path d="M999978 1548924 L999978 1456700 "/>
<path d="M677192 1560452 L884698 1560452 "/>
<path d="M999978 1548924 L1080698 1548924 "/>
<path d="M677192 1445169 L677192 1560455 "/>
<path d="M688718 1456700 L873167 1456700 "/>
<path d="M930810 1468226 L930810 1537399 "/>
<path d="M930810 1468228 L999978 1468228 "/>
<path d="M884698 1445169 L884698 1560455 "/>
<path d="M1023034 1548924 L1023034 1560452 "/>
<path d="M1011509 1537396 L1069147 1537396 "/>
<path d="M884698 1445172 L1023034 1445172 "/>
<path d="M930810 1537396 L999978 1537396 "/>
<path d="M884698 1560452 L1023034 1560452 "/>
<path d="M1023034 1445172 L1023034 1456700 "/>
<path d="M2077828 821920 L2077828 706635 "/>
<path d="M1893379 798885 L1893379 729670 "/>
<path d="M1962547 810390 L1881848 810390 "/>
<path d="M1951017 798885 L1951017 729670 "/>
<path d="M2077828 706637 L1939491 706637 "/>
<path d="M1939491 718165 L1939491 706637 "/>
<path d="M2285333 821920 L2285333 706635 "/>
<path d="M1939491 821918 L1939491 810390 "/>
<path d="M2031716 729693 L1962547 729693 "/>
<path d="M2273807 810390 L2273807 718165 "/>
<path d="M1962547 718165 L1962547 810390 "/>
<path d="M2089358 718165 L2089358 810390 "/>
<path d="M1951017 729693 L1893379 729693 "/>
<path d="M2031716 798862 L1962547 798862 "/>
<path d="M2031716 798864 L2031716 729691 "/>
<path d="M1881848 718165 L1881848 810390 "/>
<path d="M2077828 821918 L1939491 821918 "/>
<path d="M2089358 741221 L2077828 741221 "/>
<path d="M2273807 718165 L2089358 718165 "/>
<path d="M2089358 787334 L2077828 787334 "/>
<path d="M2273807 810390 L2089358 810390 "/>
<path d="M1951017 798862 L1893379 798862 "/>
<path d="M2077828 821918 L2285333 821918 "/>
<path d="M1962547 718165 L1881828 718165 "/>
<path d="M2285333 706637 L2077828 706637 "/>
<path d="M2273807 1179288 L2089358 1179288 "/>
<path d="M1962547 1179288 L1881828 1179288 "/>
<path d="M1951017 1190816 L1893379 1190816 "/>
<path d="M1939491 1179288 L1939491 1167760 "/>
<path d="M1962547 1271513 L1881848 1271513 "/>
<path d="M1951017 1259985 L1893379 1259985 "/>
<path d="M2273807 1271513 L2273807 1179288 "/>
<path d="M1881848 1179288 L1881848 1271513 "/>
<path d="M2077828 1283041 L1939491 1283041 "/>
<path d="M2031716 1259985 L1962547 1259985 "/>
<path d="M2089358 1179288 L2089358 1271513 "/>
<path d="M2077828 1283041 L2285333 1283041 "/>
<path d="M2077828 1283043 L2077828 1167758 "/>
<path d="M2089358 1248457 L2077828 1248457 "/>
<path d="M2089358 1202344 L2077828 1202344 "/>
<path d="M2077828 1167760 L1939491 1167760 "/>
<path d="M2273807 1271513 L2089358 1271513 "/>
<path d="M2031716 1259987 L2031716 1190814 "/>
<path d="M2031716 1190816 L1962547 1190816 "/>
<path d="M2285333 1167760 L2077828 1167760 "/>
<path d="M2285333 1283043 L2285333 1167758 "/>
<path d="M1939491 1283041 L1939491 1271513 "/>
<path d="M1951017 1260008 L1951017 1190793 "/>
<path d="M1893379 1260008 L1893379 1190793 "/>
<path d="M1962547 1179288 L1962547 1271513 "/>
</g>
<g style="fill:#848484; fill-opacity:0.0;  stroke:#848484; stroke-width:8784.392086; stroke-opacity:1;  stroke-linecap:round; stroke-linejoin:round;">
<circle cx="2187762.362530" cy="1987037.813179" r="69162.447026"/> 
</g>
<g style="fill:#848484; fill-opacity:0.0;  stroke:#848484; stroke-width:2305.614721; stroke-opacity:1;  stroke-linecap:round; stroke-linejoin:round;">
<path d="M1730328 1473569 L1430598 1473569 "/>
<path d="M1430598 1473569 L1430598 1266063 "/>
<path d="M1453654 1266063 L1453654 1473569 "/>
<path d="M1707272 1266063 L1707272 1473569 "/>
<path d="M1730328 1266063 L1730328 1473569 "/>
<path d="M1430598 1266063 L1730328 1266063 "/>
</g>
<g style="fill:#848484; fill-opacity:0.0;  stroke:#848484; stroke-width:3458.422081; stroke-opacity:1;  stroke-linecap:round; stroke-linejoin:round;">
<path d="M873167 1433644 L873167 1341419 "/>
<path d="M1069147 1352924 L1069147 1422139 "/>
<path d="M1011509 1422116 L1069147 1422116 "/>
<path d="M930810 1352947 L999978 1352947 "/>
<path d="M1011509 1352924 L1011509 1422139 "/>
<path d="M1011509 1352947 L1069147 1352947 "/>
<path d="M688718 1341419 L688718 1433644 "/>
<path d="M1023034 1433644 L1023034 1445172 "/>
<path d="M930810 1352945 L930810 1422118 "/>
<path d="M688718 1341419 L873167 1341419 "/>
<path d="M884698 1329891 L677192 1329891 "/>
<path d="M999978 1341419 L1080677 1341419 "/>
<path d="M873167 1364475 L884698 1364475 "/>
<path d="M1023034 1329891 L1023034 1341419 "/>
<path d="M884698 1329891 L1023034 1329891 "/>
<path d="M873167 1410588 L884698 1410588 "/>
<path d="M677192 1445172 L884698 1445172 "/>
<path d="M884698 1329889 L884698 1445174 "/>
<path d="M1080677 1433644 L1080677 1341419 "/>
<path d="M884698 1445172 L1023034 1445172 "/>
<path d="M677192 1329889 L677192 1445174 "/>
<path d="M999978 1433644 L999978 1341419 "/>
<path d="M930810 1422116 L999978 1422116 "/>
<path d="M999978 1433644 L1080698 1433644 "/>
<path d="M688718 1433644 L873167 1433644 "/>
</g>
<g style="fill:#848484; fill-opacity:0.0;  stroke:#848484; stroke-width:2305.614721; stroke-opacity:1;  stroke-linecap:round; stroke-linejoin:round;">
<path d="M1707272 42482 L1707272 249987 "/>
<path d="M1453654 42482 L1453654 249987 "/>
<path d="M1730328 42482 L1730328 249987 "/>
<path d="M1430598 42482 L1730328 42482 "/>
<path d="M1430598 249987 L1430598 42482 "/>
<path d="M1730328 249987 L1430598 249987 "/>
</g>
<g style="fill:#848484; fill-opacity:0.0;  stroke:#848484; stroke-width:3458.422081; stroke-opacity:1;  stroke-linecap:round; stroke-linejoin:round;">
<path d="M2285333 1283041 L2077828 1283041 "/>
<path d="M2273807 1386794 L2089358 1386794 "/>
<path d="M2089358 1294569 L2089358 1386794 "/>
<path d="M1951017 1306097 L1893379 1306097 "/>
<path d="M2077828 1283041 L1939491 1283041 "/>
<path d="M2273807 1386794 L2273807 1294569 "/>
<path d="M2077828 1398322 L2285333 1398322 "/>
<path d="M2031716 1375266 L1962547 1375266 "/>
<path d="M1881848 1294569 L1881848 1386794 "/>
<path d="M1893379 1375289 L1893379 1306074 "/>
<path d="M1951017 1375266 L1893379 1375266 "/>
<path d="M1939491 1294569 L1939491 1283041 "/>
<path d="M2285333 1398324 L2285333 1283039 "/>
<path d="M1962547 1386794 L1881848 1386794 "/>
<path d="M2089358 1317625 L2077828 1317625 "/>
<path d="M2089358 1363737 L2077828 1363737 "/>
<path d="M2077828 1398322 L1939491 1398322 "/>
<path d="M1962547 1294569 L1962547 1386794 "/>
<path d="M1939491 1398322 L1939491 1386794 "/>
<path d="M1951017 1375289 L1951017 1306074 "/>
<path d="M2031716 1375268 L2031716 1306095 "/>
<path d="M2031716 1306097 L1962547 1306097 "/>
<path d="M1962547 1294569 L1881828 1294569 "/>
<path d="M2273807 1294569 L2089358 1294569 "/>
<path d="M2077828 1398324 L2077828 1283039 "/>
</g>
<g style="fill:#848484; fill-opacity:0.0;  stroke:#848484; stroke-width:8784.392086; stroke-opacity:1;  stroke-linecap:round; stroke-linejoin:round;">
<circle cx="2187762.362530" cy="113034.168112" r="69162.447026"/> 
</g>
<g style="fill:#848484; fill-opacity:0.0;  stroke:#848484; stroke-width:3458.422081; stroke-opacity:1;  stroke-linecap:round; stroke-linejoin:round;">
<path d="M1881848 372323 L1881848 464548 "/>
<path d="M1962547 464548 L1881848 464548 "/>
<path d="M1951017 453020 L1893379 453020 "/>
<path d="M2273807 372323 L2089358 372323 "/>
<path d="M2031716 383851 L1962547 383851 "/>
<path d="M1951017 383851 L1893379 383851 "/>
<path d="M1951017 453043 L1951017 383828 "/>
<path d="M2077828 476076 L1939491 476076 "/>
<path d="M2089358 441492 L2077828 441492 "/>
<path d="M2077828 476078 L2077828 360793 "/>
<path d="M2077828 360795 L1939491 360795 "/>
<path d="M2077828 476076 L2285333 476076 "/>
<path d="M2089358 395379 L2077828 395379 "/>
<path d="M1962547 372323 L1962547 464548 "/>
<path d="M2089358 372323 L2089358 464548 "/>
<path d="M2285333 360795 L2077828 360795 "/>
<path d="M1939491 372323 L1939491 360795 "/>
<path d="M1962547 372323 L1881828 372323 "/>
<path d="M2031716 453020 L1962547 453020 "/>
<path d="M2285333 476078 L2285333 360793 "/>
<path d="M1893379 453043 L1893379 383828 "/>
<path d="M2273807 464548 L2273807 372323 "/>
<path d="M2273807 464548 L2089358 464548 "/>
<path d="M1939491 476076 L1939491 464548 "/>
<path d="M2031716 453022 L2031716 383849 "/>
</g>
<g style="fill:#848484; fill-opacity:0.0;  stroke:#848484; stroke-width:2305.614721; stroke-opacity:1;  stroke-linecap:round; stroke-linejoin:round;">
<path d="M1453654 531914 L1453654 739420 "/>
<path d="M1430598 739420 L1430598 531914 "/>
<path d="M1730328 739420 L1430598 739420 "/>
<path d="M1430598 531914 L1730328 531914 "/>
<path d="M1730328 531914 L1730328 739420 "/>
<path d="M1707272 531914 L1707272 739420 "/>
<path d="M1430598 1718285 L1430598 1510780 "/>
<path d="M1430598 1510780 L1730328 1510780 "/>
<path d="M1730328 1718285 L1430598 1718285 "/>
<path d="M1730328 1510780 L1730328 1718285 "/>
<path d="M1707272 1510780 L1707272 1718285 "/>
<path d="M1453654 1510780 L1453654 1718285 "/>
</g>
<g style="fill:#848484; fill-opacity:0.0;  stroke:#848484; stroke-width:3458.422081; stroke-opacity:1;  stroke-linecap:round; stroke-linejoin:round;">
<path d="M1951017 914143 L1893379 914143 "/>
<path d="M2273807 925671 L2273807 833446 "/>
<path d="M2273807 925671 L2089358 925671 "/>
<path d="M1939491 937199 L1939491 925671 "/>
<path d="M2285333 821918 L2077828 821918 "/>
<path d="M2077828 937199 L2285333 937199 "/>
<path d="M2031716 844974 L1962547 844974 "/>
<path d="M1881848 833446 L1881848 925671 "/>
<path d="M2077828 937199 L1939491 937199 "/>
<path d="M1962547 925671 L1881848 925671 "/>
<path d="M1951017 914166 L1951017 844951 "/>
<path d="M1951017 844974 L1893379 844974 "/>
<path d="M1962547 833446 L1881828 833446 "/>
<path d="M2077828 821918 L1939491 821918 "/>
<path d="M1962547 833446 L1962547 925671 "/>
<path d="M2031716 914143 L1962547 914143 "/>
<path d="M2089358 902614 L2077828 902614 "/>
<path d="M2089358 833446 L2089358 925671 "/>
<path d="M1939491 833446 L1939491 821918 "/>
<path d="M2285333 937201 L2285333 821916 "/>
<path d="M2089358 856502 L2077828 856502 "/>
<path d="M2031716 914145 L2031716 844972 "/>
<path d="M2273807 833446 L2089358 833446 "/>
<path d="M2077828 937201 L2077828 821916 "/>
<path d="M1893379 914166 L1893379 844951 "/>
<path d="M1962547 1409850 L1962547 1502074 "/>
<path d="M2285333 1513605 L2285333 1398319 "/>
<path d="M2285333 1398322 L2077828 1398322 "/>
<path d="M1951017 1490569 L1951017 1421355 "/>
<path d="M1881848 1409850 L1881848 1502074 "/>
<path d="M2077828 1513605 L2077828 1398319 "/>
<path d="M1962547 1502074 L1881848 1502074 "/>
<path d="M2077828 1398322 L1939491 1398322 "/>
<path d="M2089358 1479018 L2077828 1479018 "/>
<path d="M2089358 1432906 L2077828 1432906 "/>
<path d="M2089358 1409850 L2089358 1502074 "/>
<path d="M1951017 1490546 L1893379 1490546 "/>
<path d="M2077828 1513602 L2285333 1513602 "/>
<path d="M2031716 1490546 L1962547 1490546 "/>
<path d="M1962547 1409850 L1881828 1409850 "/>
<path d="M2031716 1421378 L1962547 1421378 "/>
<path d="M1939491 1409850 L1939491 1398322 "/>
<path d="M2273807 1502074 L2273807 1409850 "/>
<path d="M1951017 1421378 L1893379 1421378 "/>
<path d="M2031716 1490549 L2031716 1421375 "/>
<path d="M1939491 1513602 L1939491 1502074 "/>
<path d="M2273807 1409850 L2089358 1409850 "/>
<path d="M2077828 1513602 L1939491 1513602 "/>
<path d="M2273807 1502074 L2089358 1502074 "/>
<path d="M1893379 1490569 L1893379 1421355 "/>
</g>
<g style="fill:#848484; fill-opacity:0.0;  stroke:#848484; stroke-width:2305.614721; stroke-opacity:1;  stroke-linecap:round; stroke-linejoin:round;">
<path d="M1430598 984136 L1430598 776631 "/>
<path d="M1730328 776631 L1730328 984136 "/>
<path d="M1430598 776631 L1730328 776631 "/>
<path d="M1453654 776631 L1453654 984136 "/>
<path d="M1707272 776631 L1707272 984136 "/>
<path d="M1730328 984136 L1430598 984136 "/>
</g>
<g style="fill:#848484; fill-opacity:0.0;  stroke:#848484; stroke-width:3458.422081; stroke-opacity:1;  stroke-linecap:round; stroke-linejoin:round;">
<path d="M2031716 1075536 L1962547 1075536 "/>
<path d="M2077828 1167762 L2077828 1052477 "/>
<path d="M2031716 1144704 L1962547 1144704 "/>
<path d="M2273807 1064008 L2089358 1064008 "/>
<path d="M1962547 1064008 L1962547 1156232 "/>
<path d="M1962547 1064008 L1881828 1064008 "/>
<path d="M2031716 1144706 L2031716 1075533 "/>
<path d="M1951017 1075536 L1893379 1075536 "/>
<path d="M2273807 1156232 L2273807 1064008 "/>
<path d="M2077828 1167760 L2285333 1167760 "/>
<path d="M2077828 1052479 L1939491 1052479 "/>
<path d="M2089358 1133176 L2077828 1133176 "/>
<path d="M1951017 1144727 L1951017 1075513 "/>
<path d="M1951017 1144704 L1893379 1144704 "/>
<path d="M2285333 1167762 L2285333 1052477 "/>
<path d="M2273807 1156232 L2089358 1156232 "/>
<path d="M1939491 1064008 L1939491 1052479 "/>
<path d="M1962547 1156232 L1881848 1156232 "/>
<path d="M1881848 1064008 L1881848 1156232 "/>
<path d="M2285333 1052479 L2077828 1052479 "/>
<path d="M2089358 1087064 L2077828 1087064 "/>
<path d="M1939491 1167760 L1939491 1156232 "/>
<path d="M2089358 1064008 L2089358 1156232 "/>
<path d="M1893379 1144727 L1893379 1075513 "/>
<path d="M2077828 1167760 L1939491 1167760 "/>
<path d="M688559 528828 L805684 528828 "/>
<path d="M688559 353140 L688559 528828 "/>
<path d="M805684 353140 L688559 353140 "/>
<path d="M805684 528828 L805684 353140 "/>
<g>
</g>
<g>
</g>
<g>
</g>
<g>
</g>
<g>
</g>
<g>
</g>
<g>
</g>
<g>
</g>
<g>
</g>
<g>
</g>
<g>
</g>
<g>
</g>
<g>
</g>
<g>
</g>
<g>
</g>
<g>
</g>
<g>
</g>
<g>
</g>
<g>
</g>
<g>
</g>
<g>
</g>
<g>
</g>
<g>
</g>
<g>
</g>
<g>
</g>
<g>
</g>
<g>
</g>
<g>
</g>
<g>
</g>
<g>
</g>
<g>
</g>
<g>
</g>
<g>
</g>
<g>
</g>
<g>
</g>
<g>
</g>
<g>
</g>
<g>
</g>
<g>
</g>
<g>
</g>
<g>
</g>
<g>
</g>
<g>
</g>
<g>
</g>
<g>
</g>
<g>
</g>
<g>
</g>
<g>
</g>
<g>
</g>
<g>
</g>
<g>
</g>
<g>
</g>
<g>
</g>
<g>
</g>
<g>
</g>
<g>
</g>
<g>
</g>
<g>
</g>
<g>
</g>
<g>
</g>
<g>
</g>
<g>
</g>
<g>
</g>
<g>
</g>
<g>
</g>
<g>
</g>
<g>
</g>
<g>
</g>
<g>
</g>
<g>
</g>
<g>
</g>
<g>
</g>
<g>
</g>
</g> 
<svg:g><svg:g><svg:title>SVG Picture created as ISO11446PWR01-Edge_Cuts.svg date 2023/07/05 12:31:32 </svg:title>
  <svg:desc>Picture generated by PCBNEW </svg:desc>
<svg:g style="fill:#C2C200; fill-opacity:1.000000;stroke:#C2C200; stroke-opacity:1.000000; stroke-linecap:round; stroke-linejoin:round;" transform="translate(0 0) scale(1 1)">
</svg:g>
<svg:g style="fill:#C2C200; fill-opacity:0.0;  stroke:#C2C200; stroke-width:0.000000; stroke-opacity:1;  stroke-linecap:round; stroke-linejoin:round;">
</svg:g>
<svg:g style="fill:#C2C200; fill-opacity:0.0;  stroke:#C2C200; stroke-width:3458.422081; stroke-opacity:1;  stroke-linecap:round; stroke-linejoin:round;">
<svg:path d="M2299031 1765 L670990 1765 "/>
<svg:path d="M670990 1765 L670990 2098306 "/>
<svg:path d="M670990 2098306 L2299031 2098306 "/>
<svg:path d="M2299031 2098306 L2299031 1765 "/>
<svg:g>
</svg:g>
<svg:g>
</svg:g>
<svg:g>
</svg:g>
<svg:g>
</svg:g>
<svg:g>
</svg:g>
<svg:g>
</svg:g>
<svg:g>
</svg:g>
<svg:g>
</svg:g>
<svg:g>
</svg:g>
<svg:g>
</svg:g>
<svg:g>
</svg:g>
<svg:g>
</svg:g>
<svg:g>
</svg:g>
<svg:g>
</svg:g>
<svg:g>
</svg:g>
<svg:g>
</svg:g>
<svg:g>
</svg:g>
<svg:g>
</svg:g>
<svg:g>
</svg:g>
<svg:g>
</svg:g>
<svg:g>
</svg:g>
<svg:g>
</svg:g>
<svg:g>
</svg:g>
<svg:g>
</svg:g>
<svg:g>
</svg:g>
<svg:g>
</svg:g>
<svg:g>
</svg:g>
<svg:g>
</svg:g>
<svg:g>
</svg:g>
<svg:g>
</svg:g>
<svg:g>
</svg:g>
<svg:g>
</svg:g>
<svg:g>
</svg:g>
<svg:g>
</svg:g>
<svg:g>
</svg:g>
<svg:g>
</svg:g>
<svg:g>
</svg:g>
<svg:g>
</svg:g>
<svg:g>
</svg:g>
<svg:g>
</svg:g>
<svg:g>
</svg:g>
<svg:g>
</svg:g>
<svg:g>
</svg:g>
<svg:g>
</svg:g>
<svg:g>
</svg:g>
<svg:g>
</svg:g>
<svg:g>
</svg:g>
<svg:g>
</svg:g>
<svg:g>
</svg:g>
<svg:g>
</svg:g>
<svg:g>
</svg:g>
<svg:g>
</svg:g>
<svg:g>
</svg:g>
<svg:g>
</svg:g>
<svg:g>
</svg:g>
<svg:g>
</svg:g>
<svg:g>
</svg:g>
<svg:g>
</svg:g>
<svg:g>
</svg:g>
<svg:g>
</svg:g>
<svg:g>
</svg:g>
<svg:g>
</svg:g>
<svg:g>
</svg:g>
<svg:g>
</svg:g>
<svg:g>
</svg:g>
<svg:g>
</svg:g>
<svg:g>
</svg:g>
<svg:g>
</svg:g>
<svg:g>
</svg:g>
<svg:g>
</svg:g>
<svg:g>
</svg:g>
<svg:g>
</svg:g>
<svg:g>
</svg:g>
</svg:g> 
</svg:g></svg:g></svg>
