%TF.GenerationSoftware,KiCad,Pcbnew,7.0.5.1-1-g8f565ef7f0-dirty-deb11*%
%TF.CreationDate,2023-07-10T01:56:13+00:00*%
%TF.ProjectId,ISO11446PWR01,49534f31-3134-4343-9650-575230312e6b,rev?*%
%TF.SameCoordinates,Original*%
%TF.FileFunction,Legend,Top*%
%TF.FilePolarity,Positive*%
%FSLAX46Y46*%
G04 Gerber Fmt 4.6, Leading zero omitted, Abs format (unit mm)*
G04 Created by KiCad (PCBNEW 7.0.5.1-1-g8f565ef7f0-dirty-deb11) date 2023-07-10 01:56:13*
%MOMM*%
%LPD*%
G01*
G04 APERTURE LIST*
%ADD10C,0.304800*%
%ADD11C,0.150000*%
%ADD12C,0.100000*%
%ADD13C,0.120000*%
%ADD14C,0.300000*%
%ADD15R,1.524000X1.524000*%
G04 APERTURE END LIST*
D10*
%TO.C,J3*%
X6711281Y72686000D02*
X7799852Y72686000D01*
X7799852Y72686000D02*
X8017567Y72613429D01*
X8017567Y72613429D02*
X8162710Y72468286D01*
X8162710Y72468286D02*
X8235281Y72250572D01*
X8235281Y72250572D02*
X8235281Y72105429D01*
X6711281Y73266572D02*
X6711281Y74210000D01*
X6711281Y74210000D02*
X7291852Y73702000D01*
X7291852Y73702000D02*
X7291852Y73919715D01*
X7291852Y73919715D02*
X7364424Y74064857D01*
X7364424Y74064857D02*
X7436995Y74137429D01*
X7436995Y74137429D02*
X7582138Y74210000D01*
X7582138Y74210000D02*
X7944995Y74210000D01*
X7944995Y74210000D02*
X8090138Y74137429D01*
X8090138Y74137429D02*
X8162710Y74064857D01*
X8162710Y74064857D02*
X8235281Y73919715D01*
X8235281Y73919715D02*
X8235281Y73484286D01*
X8235281Y73484286D02*
X8162710Y73339143D01*
X8162710Y73339143D02*
X8090138Y73266572D01*
%TO.C,J4*%
X6711281Y67686000D02*
X7799852Y67686000D01*
X7799852Y67686000D02*
X8017567Y67613429D01*
X8017567Y67613429D02*
X8162710Y67468286D01*
X8162710Y67468286D02*
X8235281Y67250572D01*
X8235281Y67250572D02*
X8235281Y67105429D01*
X7219281Y69064857D02*
X8235281Y69064857D01*
X6638710Y68702000D02*
X7727281Y68339143D01*
X7727281Y68339143D02*
X7727281Y69282572D01*
%TO.C,J21*%
X73144931Y19828286D02*
X74233502Y19828286D01*
X74233502Y19828286D02*
X74451217Y19755715D01*
X74451217Y19755715D02*
X74596360Y19610572D01*
X74596360Y19610572D02*
X74668931Y19392858D01*
X74668931Y19392858D02*
X74668931Y19247715D01*
X73290074Y20481429D02*
X73217502Y20554001D01*
X73217502Y20554001D02*
X73144931Y20699143D01*
X73144931Y20699143D02*
X73144931Y21062001D01*
X73144931Y21062001D02*
X73217502Y21207143D01*
X73217502Y21207143D02*
X73290074Y21279715D01*
X73290074Y21279715D02*
X73435217Y21352286D01*
X73435217Y21352286D02*
X73580360Y21352286D01*
X73580360Y21352286D02*
X73798074Y21279715D01*
X73798074Y21279715D02*
X74668931Y20408858D01*
X74668931Y20408858D02*
X74668931Y21352286D01*
X74668931Y22803715D02*
X74668931Y21932858D01*
X74668931Y22368287D02*
X73144931Y22368287D01*
X73144931Y22368287D02*
X73362645Y22223144D01*
X73362645Y22223144D02*
X73507788Y22078001D01*
X73507788Y22078001D02*
X73580360Y21932858D01*
D11*
%TO.C,R5*%
X36333333Y52839469D02*
X36000000Y53315660D01*
X35761905Y52839469D02*
X35761905Y53839469D01*
X35761905Y53839469D02*
X36142857Y53839469D01*
X36142857Y53839469D02*
X36238095Y53791850D01*
X36238095Y53791850D02*
X36285714Y53744231D01*
X36285714Y53744231D02*
X36333333Y53648993D01*
X36333333Y53648993D02*
X36333333Y53506136D01*
X36333333Y53506136D02*
X36285714Y53410898D01*
X36285714Y53410898D02*
X36238095Y53363279D01*
X36238095Y53363279D02*
X36142857Y53315660D01*
X36142857Y53315660D02*
X35761905Y53315660D01*
X37238095Y53839469D02*
X36761905Y53839469D01*
X36761905Y53839469D02*
X36714286Y53363279D01*
X36714286Y53363279D02*
X36761905Y53410898D01*
X36761905Y53410898D02*
X36857143Y53458517D01*
X36857143Y53458517D02*
X37095238Y53458517D01*
X37095238Y53458517D02*
X37190476Y53410898D01*
X37190476Y53410898D02*
X37238095Y53363279D01*
X37238095Y53363279D02*
X37285714Y53268041D01*
X37285714Y53268041D02*
X37285714Y53029946D01*
X37285714Y53029946D02*
X37238095Y52934708D01*
X37238095Y52934708D02*
X37190476Y52887088D01*
X37190476Y52887088D02*
X37095238Y52839469D01*
X37095238Y52839469D02*
X36857143Y52839469D01*
X36857143Y52839469D02*
X36761905Y52887088D01*
X36761905Y52887088D02*
X36714286Y52934708D01*
D10*
%TO.C,J1*%
X6711281Y82686000D02*
X7799852Y82686000D01*
X7799852Y82686000D02*
X8017567Y82613429D01*
X8017567Y82613429D02*
X8162710Y82468286D01*
X8162710Y82468286D02*
X8235281Y82250572D01*
X8235281Y82250572D02*
X8235281Y82105429D01*
X8235281Y84210000D02*
X8235281Y83339143D01*
X8235281Y83774572D02*
X6711281Y83774572D01*
X6711281Y83774572D02*
X6928995Y83629429D01*
X6928995Y83629429D02*
X7074138Y83484286D01*
X7074138Y83484286D02*
X7146710Y83339143D01*
%TO.C,J19*%
X73144931Y24828286D02*
X74233502Y24828286D01*
X74233502Y24828286D02*
X74451217Y24755715D01*
X74451217Y24755715D02*
X74596360Y24610572D01*
X74596360Y24610572D02*
X74668931Y24392858D01*
X74668931Y24392858D02*
X74668931Y24247715D01*
X74668931Y26352286D02*
X74668931Y25481429D01*
X74668931Y25916858D02*
X73144931Y25916858D01*
X73144931Y25916858D02*
X73362645Y25771715D01*
X73362645Y25771715D02*
X73507788Y25626572D01*
X73507788Y25626572D02*
X73580360Y25481429D01*
X74668931Y27078001D02*
X74668931Y27368287D01*
X74668931Y27368287D02*
X74596360Y27513430D01*
X74596360Y27513430D02*
X74523788Y27586001D01*
X74523788Y27586001D02*
X74306074Y27731144D01*
X74306074Y27731144D02*
X74015788Y27803715D01*
X74015788Y27803715D02*
X73435217Y27803715D01*
X73435217Y27803715D02*
X73290074Y27731144D01*
X73290074Y27731144D02*
X73217502Y27658572D01*
X73217502Y27658572D02*
X73144931Y27513430D01*
X73144931Y27513430D02*
X73144931Y27223144D01*
X73144931Y27223144D02*
X73217502Y27078001D01*
X73217502Y27078001D02*
X73290074Y27005430D01*
X73290074Y27005430D02*
X73435217Y26932858D01*
X73435217Y26932858D02*
X73798074Y26932858D01*
X73798074Y26932858D02*
X73943217Y27005430D01*
X73943217Y27005430D02*
X74015788Y27078001D01*
X74015788Y27078001D02*
X74088360Y27223144D01*
X74088360Y27223144D02*
X74088360Y27513430D01*
X74088360Y27513430D02*
X74015788Y27658572D01*
X74015788Y27658572D02*
X73943217Y27731144D01*
X73943217Y27731144D02*
X73798074Y27803715D01*
%TO.C,J7*%
X6711281Y52686000D02*
X7799852Y52686000D01*
X7799852Y52686000D02*
X8017567Y52613429D01*
X8017567Y52613429D02*
X8162710Y52468286D01*
X8162710Y52468286D02*
X8235281Y52250572D01*
X8235281Y52250572D02*
X8235281Y52105429D01*
X6711281Y53266572D02*
X6711281Y54282572D01*
X6711281Y54282572D02*
X8235281Y53629429D01*
D12*
%TO.C,F5*%
X30060715Y20035796D02*
X29894048Y20035796D01*
X29894048Y19773891D02*
X29894048Y20273891D01*
X29894048Y20273891D02*
X30132143Y20273891D01*
X30560714Y20273891D02*
X30322619Y20273891D01*
X30322619Y20273891D02*
X30298810Y20035796D01*
X30298810Y20035796D02*
X30322619Y20059605D01*
X30322619Y20059605D02*
X30370238Y20083415D01*
X30370238Y20083415D02*
X30489286Y20083415D01*
X30489286Y20083415D02*
X30536905Y20059605D01*
X30536905Y20059605D02*
X30560714Y20035796D01*
X30560714Y20035796D02*
X30584524Y19988177D01*
X30584524Y19988177D02*
X30584524Y19869129D01*
X30584524Y19869129D02*
X30560714Y19821510D01*
X30560714Y19821510D02*
X30536905Y19797700D01*
X30536905Y19797700D02*
X30489286Y19773891D01*
X30489286Y19773891D02*
X30370238Y19773891D01*
X30370238Y19773891D02*
X30322619Y19797700D01*
X30322619Y19797700D02*
X30298810Y19821510D01*
D10*
%TO.C,J13*%
X6711281Y26960286D02*
X7799852Y26960286D01*
X7799852Y26960286D02*
X8017567Y26887715D01*
X8017567Y26887715D02*
X8162710Y26742572D01*
X8162710Y26742572D02*
X8235281Y26524858D01*
X8235281Y26524858D02*
X8235281Y26379715D01*
X8235281Y28484286D02*
X8235281Y27613429D01*
X8235281Y28048858D02*
X6711281Y28048858D01*
X6711281Y28048858D02*
X6928995Y27903715D01*
X6928995Y27903715D02*
X7074138Y27758572D01*
X7074138Y27758572D02*
X7146710Y27613429D01*
X6711281Y28992287D02*
X6711281Y29935715D01*
X6711281Y29935715D02*
X7291852Y29427715D01*
X7291852Y29427715D02*
X7291852Y29645430D01*
X7291852Y29645430D02*
X7364424Y29790572D01*
X7364424Y29790572D02*
X7436995Y29863144D01*
X7436995Y29863144D02*
X7582138Y29935715D01*
X7582138Y29935715D02*
X7944995Y29935715D01*
X7944995Y29935715D02*
X8090138Y29863144D01*
X8090138Y29863144D02*
X8162710Y29790572D01*
X8162710Y29790572D02*
X8235281Y29645430D01*
X8235281Y29645430D02*
X8235281Y29210001D01*
X8235281Y29210001D02*
X8162710Y29064858D01*
X8162710Y29064858D02*
X8090138Y28992287D01*
D11*
%TO.C,R2*%
X36333333Y84681253D02*
X36000000Y85157444D01*
X35761905Y84681253D02*
X35761905Y85681253D01*
X35761905Y85681253D02*
X36142857Y85681253D01*
X36142857Y85681253D02*
X36238095Y85633634D01*
X36238095Y85633634D02*
X36285714Y85586015D01*
X36285714Y85586015D02*
X36333333Y85490777D01*
X36333333Y85490777D02*
X36333333Y85347920D01*
X36333333Y85347920D02*
X36285714Y85252682D01*
X36285714Y85252682D02*
X36238095Y85205063D01*
X36238095Y85205063D02*
X36142857Y85157444D01*
X36142857Y85157444D02*
X35761905Y85157444D01*
X36714286Y85586015D02*
X36761905Y85633634D01*
X36761905Y85633634D02*
X36857143Y85681253D01*
X36857143Y85681253D02*
X37095238Y85681253D01*
X37095238Y85681253D02*
X37190476Y85633634D01*
X37190476Y85633634D02*
X37238095Y85586015D01*
X37238095Y85586015D02*
X37285714Y85490777D01*
X37285714Y85490777D02*
X37285714Y85395539D01*
X37285714Y85395539D02*
X37238095Y85252682D01*
X37238095Y85252682D02*
X36666667Y84681253D01*
X36666667Y84681253D02*
X37285714Y84681253D01*
D10*
%TO.C,J22*%
X73224181Y29928286D02*
X74312752Y29928286D01*
X74312752Y29928286D02*
X74530467Y29855715D01*
X74530467Y29855715D02*
X74675610Y29710572D01*
X74675610Y29710572D02*
X74748181Y29492858D01*
X74748181Y29492858D02*
X74748181Y29347715D01*
X73369324Y30581429D02*
X73296752Y30654001D01*
X73296752Y30654001D02*
X73224181Y30799143D01*
X73224181Y30799143D02*
X73224181Y31162001D01*
X73224181Y31162001D02*
X73296752Y31307143D01*
X73296752Y31307143D02*
X73369324Y31379715D01*
X73369324Y31379715D02*
X73514467Y31452286D01*
X73514467Y31452286D02*
X73659610Y31452286D01*
X73659610Y31452286D02*
X73877324Y31379715D01*
X73877324Y31379715D02*
X74748181Y30508858D01*
X74748181Y30508858D02*
X74748181Y31452286D01*
X73369324Y32032858D02*
X73296752Y32105430D01*
X73296752Y32105430D02*
X73224181Y32250572D01*
X73224181Y32250572D02*
X73224181Y32613430D01*
X73224181Y32613430D02*
X73296752Y32758572D01*
X73296752Y32758572D02*
X73369324Y32831144D01*
X73369324Y32831144D02*
X73514467Y32903715D01*
X73514467Y32903715D02*
X73659610Y32903715D01*
X73659610Y32903715D02*
X73877324Y32831144D01*
X73877324Y32831144D02*
X74748181Y31960287D01*
X74748181Y31960287D02*
X74748181Y32903715D01*
D11*
%TO.C,J15*%
X58614700Y72178572D02*
X58686128Y72392857D01*
X58686128Y72392857D02*
X58686128Y72750000D01*
X58686128Y72750000D02*
X58614700Y72892857D01*
X58614700Y72892857D02*
X58543271Y72964286D01*
X58543271Y72964286D02*
X58400414Y73035715D01*
X58400414Y73035715D02*
X58257557Y73035715D01*
X58257557Y73035715D02*
X58114700Y72964286D01*
X58114700Y72964286D02*
X58043271Y72892857D01*
X58043271Y72892857D02*
X57971842Y72750000D01*
X57971842Y72750000D02*
X57900414Y72464286D01*
X57900414Y72464286D02*
X57828985Y72321429D01*
X57828985Y72321429D02*
X57757557Y72250000D01*
X57757557Y72250000D02*
X57614700Y72178572D01*
X57614700Y72178572D02*
X57471842Y72178572D01*
X57471842Y72178572D02*
X57328985Y72250000D01*
X57328985Y72250000D02*
X57257557Y72321429D01*
X57257557Y72321429D02*
X57186128Y72464286D01*
X57186128Y72464286D02*
X57186128Y72821429D01*
X57186128Y72821429D02*
X57257557Y73035715D01*
X58686128Y73678571D02*
X57686128Y73678571D01*
X57186128Y73678571D02*
X57257557Y73607143D01*
X57257557Y73607143D02*
X57328985Y73678571D01*
X57328985Y73678571D02*
X57257557Y73750000D01*
X57257557Y73750000D02*
X57186128Y73678571D01*
X57186128Y73678571D02*
X57328985Y73678571D01*
X57686128Y75035714D02*
X58900414Y75035714D01*
X58900414Y75035714D02*
X59043271Y74964286D01*
X59043271Y74964286D02*
X59114700Y74892857D01*
X59114700Y74892857D02*
X59186128Y74750000D01*
X59186128Y74750000D02*
X59186128Y74535714D01*
X59186128Y74535714D02*
X59114700Y74392857D01*
X58614700Y75035714D02*
X58686128Y74892857D01*
X58686128Y74892857D02*
X58686128Y74607143D01*
X58686128Y74607143D02*
X58614700Y74464286D01*
X58614700Y74464286D02*
X58543271Y74392857D01*
X58543271Y74392857D02*
X58400414Y74321429D01*
X58400414Y74321429D02*
X57971842Y74321429D01*
X57971842Y74321429D02*
X57828985Y74392857D01*
X57828985Y74392857D02*
X57757557Y74464286D01*
X57757557Y74464286D02*
X57686128Y74607143D01*
X57686128Y74607143D02*
X57686128Y74892857D01*
X57686128Y74892857D02*
X57757557Y75035714D01*
X57686128Y75750000D02*
X58686128Y75750000D01*
X57828985Y75750000D02*
X57757557Y75821429D01*
X57757557Y75821429D02*
X57686128Y75964286D01*
X57686128Y75964286D02*
X57686128Y76178572D01*
X57686128Y76178572D02*
X57757557Y76321429D01*
X57757557Y76321429D02*
X57900414Y76392857D01*
X57900414Y76392857D02*
X58686128Y76392857D01*
X58686128Y77750000D02*
X57900414Y77750000D01*
X57900414Y77750000D02*
X57757557Y77678572D01*
X57757557Y77678572D02*
X57686128Y77535715D01*
X57686128Y77535715D02*
X57686128Y77250000D01*
X57686128Y77250000D02*
X57757557Y77107143D01*
X58614700Y77750000D02*
X58686128Y77607143D01*
X58686128Y77607143D02*
X58686128Y77250000D01*
X58686128Y77250000D02*
X58614700Y77107143D01*
X58614700Y77107143D02*
X58471842Y77035715D01*
X58471842Y77035715D02*
X58328985Y77035715D01*
X58328985Y77035715D02*
X58186128Y77107143D01*
X58186128Y77107143D02*
X58114700Y77250000D01*
X58114700Y77250000D02*
X58114700Y77607143D01*
X58114700Y77607143D02*
X58043271Y77750000D01*
X58686128Y78678572D02*
X58614700Y78535715D01*
X58614700Y78535715D02*
X58471842Y78464286D01*
X58471842Y78464286D02*
X57186128Y78464286D01*
X58614700Y79178572D02*
X58686128Y79321429D01*
X58686128Y79321429D02*
X58686128Y79607143D01*
X58686128Y79607143D02*
X58614700Y79750000D01*
X58614700Y79750000D02*
X58471842Y79821429D01*
X58471842Y79821429D02*
X58400414Y79821429D01*
X58400414Y79821429D02*
X58257557Y79750000D01*
X58257557Y79750000D02*
X58186128Y79607143D01*
X58186128Y79607143D02*
X58186128Y79392857D01*
X58186128Y79392857D02*
X58114700Y79250000D01*
X58114700Y79250000D02*
X57971842Y79178572D01*
X57971842Y79178572D02*
X57900414Y79178572D01*
X57900414Y79178572D02*
X57757557Y79250000D01*
X57757557Y79250000D02*
X57686128Y79392857D01*
X57686128Y79392857D02*
X57686128Y79607143D01*
X57686128Y79607143D02*
X57757557Y79750000D01*
D10*
%TO.C,J5*%
X6711281Y62686000D02*
X7799852Y62686000D01*
X7799852Y62686000D02*
X8017567Y62613429D01*
X8017567Y62613429D02*
X8162710Y62468286D01*
X8162710Y62468286D02*
X8235281Y62250572D01*
X8235281Y62250572D02*
X8235281Y62105429D01*
X6711281Y64137429D02*
X6711281Y63411715D01*
X6711281Y63411715D02*
X7436995Y63339143D01*
X7436995Y63339143D02*
X7364424Y63411715D01*
X7364424Y63411715D02*
X7291852Y63556857D01*
X7291852Y63556857D02*
X7291852Y63919715D01*
X7291852Y63919715D02*
X7364424Y64064857D01*
X7364424Y64064857D02*
X7436995Y64137429D01*
X7436995Y64137429D02*
X7582138Y64210000D01*
X7582138Y64210000D02*
X7944995Y64210000D01*
X7944995Y64210000D02*
X8090138Y64137429D01*
X8090138Y64137429D02*
X8162710Y64064857D01*
X8162710Y64064857D02*
X8235281Y63919715D01*
X8235281Y63919715D02*
X8235281Y63556857D01*
X8235281Y63556857D02*
X8162710Y63411715D01*
X8162710Y63411715D02*
X8090138Y63339143D01*
%TO.C,J9*%
X6711281Y42686000D02*
X7799852Y42686000D01*
X7799852Y42686000D02*
X8017567Y42613429D01*
X8017567Y42613429D02*
X8162710Y42468286D01*
X8162710Y42468286D02*
X8235281Y42250572D01*
X8235281Y42250572D02*
X8235281Y42105429D01*
X8235281Y43484286D02*
X8235281Y43774572D01*
X8235281Y43774572D02*
X8162710Y43919715D01*
X8162710Y43919715D02*
X8090138Y43992286D01*
X8090138Y43992286D02*
X7872424Y44137429D01*
X7872424Y44137429D02*
X7582138Y44210000D01*
X7582138Y44210000D02*
X7001567Y44210000D01*
X7001567Y44210000D02*
X6856424Y44137429D01*
X6856424Y44137429D02*
X6783852Y44064857D01*
X6783852Y44064857D02*
X6711281Y43919715D01*
X6711281Y43919715D02*
X6711281Y43629429D01*
X6711281Y43629429D02*
X6783852Y43484286D01*
X6783852Y43484286D02*
X6856424Y43411715D01*
X6856424Y43411715D02*
X7001567Y43339143D01*
X7001567Y43339143D02*
X7364424Y43339143D01*
X7364424Y43339143D02*
X7509567Y43411715D01*
X7509567Y43411715D02*
X7582138Y43484286D01*
X7582138Y43484286D02*
X7654710Y43629429D01*
X7654710Y43629429D02*
X7654710Y43919715D01*
X7654710Y43919715D02*
X7582138Y44064857D01*
X7582138Y44064857D02*
X7509567Y44137429D01*
X7509567Y44137429D02*
X7364424Y44210000D01*
D11*
%TO.C,R6*%
X36333333Y42225541D02*
X36000000Y42701732D01*
X35761905Y42225541D02*
X35761905Y43225541D01*
X35761905Y43225541D02*
X36142857Y43225541D01*
X36142857Y43225541D02*
X36238095Y43177922D01*
X36238095Y43177922D02*
X36285714Y43130303D01*
X36285714Y43130303D02*
X36333333Y43035065D01*
X36333333Y43035065D02*
X36333333Y42892208D01*
X36333333Y42892208D02*
X36285714Y42796970D01*
X36285714Y42796970D02*
X36238095Y42749351D01*
X36238095Y42749351D02*
X36142857Y42701732D01*
X36142857Y42701732D02*
X35761905Y42701732D01*
X37190476Y43225541D02*
X37000000Y43225541D01*
X37000000Y43225541D02*
X36904762Y43177922D01*
X36904762Y43177922D02*
X36857143Y43130303D01*
X36857143Y43130303D02*
X36761905Y42987446D01*
X36761905Y42987446D02*
X36714286Y42796970D01*
X36714286Y42796970D02*
X36714286Y42416018D01*
X36714286Y42416018D02*
X36761905Y42320780D01*
X36761905Y42320780D02*
X36809524Y42273160D01*
X36809524Y42273160D02*
X36904762Y42225541D01*
X36904762Y42225541D02*
X37095238Y42225541D01*
X37095238Y42225541D02*
X37190476Y42273160D01*
X37190476Y42273160D02*
X37238095Y42320780D01*
X37238095Y42320780D02*
X37285714Y42416018D01*
X37285714Y42416018D02*
X37285714Y42654113D01*
X37285714Y42654113D02*
X37238095Y42749351D01*
X37238095Y42749351D02*
X37190476Y42796970D01*
X37190476Y42796970D02*
X37095238Y42844589D01*
X37095238Y42844589D02*
X36904762Y42844589D01*
X36904762Y42844589D02*
X36809524Y42796970D01*
X36809524Y42796970D02*
X36761905Y42749351D01*
X36761905Y42749351D02*
X36714286Y42654113D01*
D10*
%TO.C,J20*%
X73224181Y34928286D02*
X74312752Y34928286D01*
X74312752Y34928286D02*
X74530467Y34855715D01*
X74530467Y34855715D02*
X74675610Y34710572D01*
X74675610Y34710572D02*
X74748181Y34492858D01*
X74748181Y34492858D02*
X74748181Y34347715D01*
X73369324Y35581429D02*
X73296752Y35654001D01*
X73296752Y35654001D02*
X73224181Y35799143D01*
X73224181Y35799143D02*
X73224181Y36162001D01*
X73224181Y36162001D02*
X73296752Y36307143D01*
X73296752Y36307143D02*
X73369324Y36379715D01*
X73369324Y36379715D02*
X73514467Y36452286D01*
X73514467Y36452286D02*
X73659610Y36452286D01*
X73659610Y36452286D02*
X73877324Y36379715D01*
X73877324Y36379715D02*
X74748181Y35508858D01*
X74748181Y35508858D02*
X74748181Y36452286D01*
X73224181Y37395715D02*
X73224181Y37540858D01*
X73224181Y37540858D02*
X73296752Y37686001D01*
X73296752Y37686001D02*
X73369324Y37758572D01*
X73369324Y37758572D02*
X73514467Y37831144D01*
X73514467Y37831144D02*
X73804752Y37903715D01*
X73804752Y37903715D02*
X74167610Y37903715D01*
X74167610Y37903715D02*
X74457895Y37831144D01*
X74457895Y37831144D02*
X74603038Y37758572D01*
X74603038Y37758572D02*
X74675610Y37686001D01*
X74675610Y37686001D02*
X74748181Y37540858D01*
X74748181Y37540858D02*
X74748181Y37395715D01*
X74748181Y37395715D02*
X74675610Y37250572D01*
X74675610Y37250572D02*
X74603038Y37178001D01*
X74603038Y37178001D02*
X74457895Y37105430D01*
X74457895Y37105430D02*
X74167610Y37032858D01*
X74167610Y37032858D02*
X73804752Y37032858D01*
X73804752Y37032858D02*
X73514467Y37105430D01*
X73514467Y37105430D02*
X73369324Y37178001D01*
X73369324Y37178001D02*
X73296752Y37250572D01*
X73296752Y37250572D02*
X73224181Y37395715D01*
D11*
%TO.C,R1*%
X36333333Y95295181D02*
X36000000Y95771372D01*
X35761905Y95295181D02*
X35761905Y96295181D01*
X35761905Y96295181D02*
X36142857Y96295181D01*
X36142857Y96295181D02*
X36238095Y96247562D01*
X36238095Y96247562D02*
X36285714Y96199943D01*
X36285714Y96199943D02*
X36333333Y96104705D01*
X36333333Y96104705D02*
X36333333Y95961848D01*
X36333333Y95961848D02*
X36285714Y95866610D01*
X36285714Y95866610D02*
X36238095Y95818991D01*
X36238095Y95818991D02*
X36142857Y95771372D01*
X36142857Y95771372D02*
X35761905Y95771372D01*
X37285714Y95295181D02*
X36714286Y95295181D01*
X37000000Y95295181D02*
X37000000Y96295181D01*
X37000000Y96295181D02*
X36904762Y96152324D01*
X36904762Y96152324D02*
X36809524Y96057086D01*
X36809524Y96057086D02*
X36714286Y96009467D01*
D10*
%TO.C,J10*%
X6711281Y36960286D02*
X7799852Y36960286D01*
X7799852Y36960286D02*
X8017567Y36887715D01*
X8017567Y36887715D02*
X8162710Y36742572D01*
X8162710Y36742572D02*
X8235281Y36524858D01*
X8235281Y36524858D02*
X8235281Y36379715D01*
X8235281Y38484286D02*
X8235281Y37613429D01*
X8235281Y38048858D02*
X6711281Y38048858D01*
X6711281Y38048858D02*
X6928995Y37903715D01*
X6928995Y37903715D02*
X7074138Y37758572D01*
X7074138Y37758572D02*
X7146710Y37613429D01*
X6711281Y39427715D02*
X6711281Y39572858D01*
X6711281Y39572858D02*
X6783852Y39718001D01*
X6783852Y39718001D02*
X6856424Y39790572D01*
X6856424Y39790572D02*
X7001567Y39863144D01*
X7001567Y39863144D02*
X7291852Y39935715D01*
X7291852Y39935715D02*
X7654710Y39935715D01*
X7654710Y39935715D02*
X7944995Y39863144D01*
X7944995Y39863144D02*
X8090138Y39790572D01*
X8090138Y39790572D02*
X8162710Y39718001D01*
X8162710Y39718001D02*
X8235281Y39572858D01*
X8235281Y39572858D02*
X8235281Y39427715D01*
X8235281Y39427715D02*
X8162710Y39282572D01*
X8162710Y39282572D02*
X8090138Y39210001D01*
X8090138Y39210001D02*
X7944995Y39137430D01*
X7944995Y39137430D02*
X7654710Y39064858D01*
X7654710Y39064858D02*
X7291852Y39064858D01*
X7291852Y39064858D02*
X7001567Y39137430D01*
X7001567Y39137430D02*
X6856424Y39210001D01*
X6856424Y39210001D02*
X6783852Y39282572D01*
X6783852Y39282572D02*
X6711281Y39427715D01*
%TO.C,J2*%
X6711281Y77686000D02*
X7799852Y77686000D01*
X7799852Y77686000D02*
X8017567Y77613429D01*
X8017567Y77613429D02*
X8162710Y77468286D01*
X8162710Y77468286D02*
X8235281Y77250572D01*
X8235281Y77250572D02*
X8235281Y77105429D01*
X6856424Y78339143D02*
X6783852Y78411715D01*
X6783852Y78411715D02*
X6711281Y78556857D01*
X6711281Y78556857D02*
X6711281Y78919715D01*
X6711281Y78919715D02*
X6783852Y79064857D01*
X6783852Y79064857D02*
X6856424Y79137429D01*
X6856424Y79137429D02*
X7001567Y79210000D01*
X7001567Y79210000D02*
X7146710Y79210000D01*
X7146710Y79210000D02*
X7364424Y79137429D01*
X7364424Y79137429D02*
X8235281Y78266572D01*
X8235281Y78266572D02*
X8235281Y79210000D01*
D12*
%TO.C,F4*%
X45833334Y20035796D02*
X45666667Y20035796D01*
X45666667Y19773891D02*
X45666667Y20273891D01*
X45666667Y20273891D02*
X45904762Y20273891D01*
X46309524Y20107224D02*
X46309524Y19773891D01*
X46190476Y20297700D02*
X46071429Y19940558D01*
X46071429Y19940558D02*
X46380952Y19940558D01*
D11*
%TO.C,R3*%
X36333333Y74067325D02*
X36000000Y74543516D01*
X35761905Y74067325D02*
X35761905Y75067325D01*
X35761905Y75067325D02*
X36142857Y75067325D01*
X36142857Y75067325D02*
X36238095Y75019706D01*
X36238095Y75019706D02*
X36285714Y74972087D01*
X36285714Y74972087D02*
X36333333Y74876849D01*
X36333333Y74876849D02*
X36333333Y74733992D01*
X36333333Y74733992D02*
X36285714Y74638754D01*
X36285714Y74638754D02*
X36238095Y74591135D01*
X36238095Y74591135D02*
X36142857Y74543516D01*
X36142857Y74543516D02*
X35761905Y74543516D01*
X36666667Y75067325D02*
X37285714Y75067325D01*
X37285714Y75067325D02*
X36952381Y74686373D01*
X36952381Y74686373D02*
X37095238Y74686373D01*
X37095238Y74686373D02*
X37190476Y74638754D01*
X37190476Y74638754D02*
X37238095Y74591135D01*
X37238095Y74591135D02*
X37285714Y74495897D01*
X37285714Y74495897D02*
X37285714Y74257802D01*
X37285714Y74257802D02*
X37238095Y74162564D01*
X37238095Y74162564D02*
X37190476Y74114944D01*
X37190476Y74114944D02*
X37095238Y74067325D01*
X37095238Y74067325D02*
X36809524Y74067325D01*
X36809524Y74067325D02*
X36714286Y74114944D01*
X36714286Y74114944D02*
X36666667Y74162564D01*
%TO.C,R7*%
X36333333Y31611613D02*
X36000000Y32087804D01*
X35761905Y31611613D02*
X35761905Y32611613D01*
X35761905Y32611613D02*
X36142857Y32611613D01*
X36142857Y32611613D02*
X36238095Y32563994D01*
X36238095Y32563994D02*
X36285714Y32516375D01*
X36285714Y32516375D02*
X36333333Y32421137D01*
X36333333Y32421137D02*
X36333333Y32278280D01*
X36333333Y32278280D02*
X36285714Y32183042D01*
X36285714Y32183042D02*
X36238095Y32135423D01*
X36238095Y32135423D02*
X36142857Y32087804D01*
X36142857Y32087804D02*
X35761905Y32087804D01*
X36666667Y32611613D02*
X37333333Y32611613D01*
X37333333Y32611613D02*
X36904762Y31611613D01*
D10*
%TO.C,J6*%
X6711281Y57686000D02*
X7799852Y57686000D01*
X7799852Y57686000D02*
X8017567Y57613429D01*
X8017567Y57613429D02*
X8162710Y57468286D01*
X8162710Y57468286D02*
X8235281Y57250572D01*
X8235281Y57250572D02*
X8235281Y57105429D01*
X6711281Y59064857D02*
X6711281Y58774572D01*
X6711281Y58774572D02*
X6783852Y58629429D01*
X6783852Y58629429D02*
X6856424Y58556857D01*
X6856424Y58556857D02*
X7074138Y58411715D01*
X7074138Y58411715D02*
X7364424Y58339143D01*
X7364424Y58339143D02*
X7944995Y58339143D01*
X7944995Y58339143D02*
X8090138Y58411715D01*
X8090138Y58411715D02*
X8162710Y58484286D01*
X8162710Y58484286D02*
X8235281Y58629429D01*
X8235281Y58629429D02*
X8235281Y58919715D01*
X8235281Y58919715D02*
X8162710Y59064857D01*
X8162710Y59064857D02*
X8090138Y59137429D01*
X8090138Y59137429D02*
X7944995Y59210000D01*
X7944995Y59210000D02*
X7582138Y59210000D01*
X7582138Y59210000D02*
X7436995Y59137429D01*
X7436995Y59137429D02*
X7364424Y59064857D01*
X7364424Y59064857D02*
X7291852Y58919715D01*
X7291852Y58919715D02*
X7291852Y58629429D01*
X7291852Y58629429D02*
X7364424Y58484286D01*
X7364424Y58484286D02*
X7436995Y58411715D01*
X7436995Y58411715D02*
X7582138Y58339143D01*
%TO.C,J11*%
X6711281Y31960286D02*
X7799852Y31960286D01*
X7799852Y31960286D02*
X8017567Y31887715D01*
X8017567Y31887715D02*
X8162710Y31742572D01*
X8162710Y31742572D02*
X8235281Y31524858D01*
X8235281Y31524858D02*
X8235281Y31379715D01*
X8235281Y33484286D02*
X8235281Y32613429D01*
X8235281Y33048858D02*
X6711281Y33048858D01*
X6711281Y33048858D02*
X6928995Y32903715D01*
X6928995Y32903715D02*
X7074138Y32758572D01*
X7074138Y32758572D02*
X7146710Y32613429D01*
X8235281Y34935715D02*
X8235281Y34064858D01*
X8235281Y34500287D02*
X6711281Y34500287D01*
X6711281Y34500287D02*
X6928995Y34355144D01*
X6928995Y34355144D02*
X7074138Y34210001D01*
X7074138Y34210001D02*
X7146710Y34064858D01*
D11*
%TO.C,R4*%
X36333333Y63453397D02*
X36000000Y63929588D01*
X35761905Y63453397D02*
X35761905Y64453397D01*
X35761905Y64453397D02*
X36142857Y64453397D01*
X36142857Y64453397D02*
X36238095Y64405778D01*
X36238095Y64405778D02*
X36285714Y64358159D01*
X36285714Y64358159D02*
X36333333Y64262921D01*
X36333333Y64262921D02*
X36333333Y64120064D01*
X36333333Y64120064D02*
X36285714Y64024826D01*
X36285714Y64024826D02*
X36238095Y63977207D01*
X36238095Y63977207D02*
X36142857Y63929588D01*
X36142857Y63929588D02*
X35761905Y63929588D01*
X37190476Y64120064D02*
X37190476Y63453397D01*
X36952381Y64501016D02*
X36714286Y63786731D01*
X36714286Y63786731D02*
X37333333Y63786731D01*
D10*
%TO.C,J8*%
X6711281Y47686000D02*
X7799852Y47686000D01*
X7799852Y47686000D02*
X8017567Y47613429D01*
X8017567Y47613429D02*
X8162710Y47468286D01*
X8162710Y47468286D02*
X8235281Y47250572D01*
X8235281Y47250572D02*
X8235281Y47105429D01*
X7364424Y48629429D02*
X7291852Y48484286D01*
X7291852Y48484286D02*
X7219281Y48411715D01*
X7219281Y48411715D02*
X7074138Y48339143D01*
X7074138Y48339143D02*
X7001567Y48339143D01*
X7001567Y48339143D02*
X6856424Y48411715D01*
X6856424Y48411715D02*
X6783852Y48484286D01*
X6783852Y48484286D02*
X6711281Y48629429D01*
X6711281Y48629429D02*
X6711281Y48919715D01*
X6711281Y48919715D02*
X6783852Y49064857D01*
X6783852Y49064857D02*
X6856424Y49137429D01*
X6856424Y49137429D02*
X7001567Y49210000D01*
X7001567Y49210000D02*
X7074138Y49210000D01*
X7074138Y49210000D02*
X7219281Y49137429D01*
X7219281Y49137429D02*
X7291852Y49064857D01*
X7291852Y49064857D02*
X7364424Y48919715D01*
X7364424Y48919715D02*
X7364424Y48629429D01*
X7364424Y48629429D02*
X7436995Y48484286D01*
X7436995Y48484286D02*
X7509567Y48411715D01*
X7509567Y48411715D02*
X7654710Y48339143D01*
X7654710Y48339143D02*
X7944995Y48339143D01*
X7944995Y48339143D02*
X8090138Y48411715D01*
X8090138Y48411715D02*
X8162710Y48484286D01*
X8162710Y48484286D02*
X8235281Y48629429D01*
X8235281Y48629429D02*
X8235281Y48919715D01*
X8235281Y48919715D02*
X8162710Y49064857D01*
X8162710Y49064857D02*
X8090138Y49137429D01*
X8090138Y49137429D02*
X7944995Y49210000D01*
X7944995Y49210000D02*
X7654710Y49210000D01*
X7654710Y49210000D02*
X7509567Y49137429D01*
X7509567Y49137429D02*
X7436995Y49064857D01*
X7436995Y49064857D02*
X7364424Y48919715D01*
D11*
%TO.C,J3*%
X20428200Y71693000D02*
X20428200Y74695000D01*
X20928100Y75194000D02*
X20928100Y75694000D01*
X5928100Y70693900D02*
X5928100Y75694100D01*
X20928100Y70694000D02*
X20928100Y71194000D01*
X19928100Y75194000D02*
X23429100Y75194000D01*
X14928100Y75694000D02*
X20928100Y75694000D01*
X23428200Y75194000D02*
X23428200Y71194000D01*
X20428200Y74694000D02*
X22928100Y74694000D01*
X14928100Y70694000D02*
X20928100Y70694000D01*
X20428200Y71694000D02*
X22928100Y71694000D01*
X5928100Y75694000D02*
X14928100Y75694000D01*
X14928100Y70694000D02*
X5928100Y70694000D01*
X19928100Y71194000D02*
X23428200Y71194000D01*
X22928100Y71693000D02*
X22928100Y74695000D01*
X19928100Y75194000D02*
X19928100Y71194000D01*
%TO.C,J4*%
X5928100Y70694000D02*
X14928100Y70694000D01*
X22928100Y66693000D02*
X22928100Y69695000D01*
X19928100Y70194000D02*
X23429100Y70194000D01*
X20428200Y69694000D02*
X22928100Y69694000D01*
X19928100Y66194000D02*
X23428200Y66194000D01*
X14928100Y65694000D02*
X5928100Y65694000D01*
X20428200Y66694000D02*
X22928100Y66694000D01*
X5928100Y65693900D02*
X5928100Y70694100D01*
X20928100Y70194000D02*
X20928100Y70694000D01*
X20928100Y65694000D02*
X20928100Y66194000D01*
X20428200Y66693000D02*
X20428200Y69695000D01*
X19928100Y70194000D02*
X19928100Y66194000D01*
X14928100Y70694000D02*
X20928100Y70694000D01*
X14928100Y65694000D02*
X20928100Y65694000D01*
X23428200Y70194000D02*
X23428200Y66194000D01*
%TO.C,J21*%
X58597750Y22563000D02*
X58597750Y19561000D01*
X66597750Y18562000D02*
X60597750Y18562000D01*
X58097650Y19062000D02*
X58097650Y23062000D01*
X66597750Y23562000D02*
X60597750Y23562000D01*
X61597750Y19062000D02*
X61597750Y23062000D01*
X61597750Y19062000D02*
X58096750Y19062000D01*
X61097650Y22562000D02*
X58597750Y22562000D01*
X75597750Y23562100D02*
X75597750Y18561900D01*
X75597750Y18562000D02*
X66597750Y18562000D01*
X60597750Y19062000D02*
X60597750Y18562000D01*
X60597750Y23562000D02*
X60597750Y23062000D01*
X61097650Y19562000D02*
X58597750Y19562000D01*
X66597750Y23562000D02*
X75597750Y23562000D01*
X61597750Y23062000D02*
X58097650Y23062000D01*
X61097650Y22563000D02*
X61097650Y19561000D01*
D13*
%TO.C,R5*%
X29880000Y52164288D02*
X29880000Y42924288D01*
X29880000Y52164288D02*
X43120000Y52164288D01*
X43120000Y52164288D02*
X43120000Y42924288D01*
X31000000Y52164288D02*
X31000000Y42924288D01*
X42000000Y52164288D02*
X42000000Y42924288D01*
X29880000Y42924288D02*
X43120000Y42924288D01*
D11*
%TO.C,J1*%
X23428200Y85194000D02*
X23428200Y81194000D01*
X20928100Y85194000D02*
X20928100Y85694000D01*
X22928100Y81693000D02*
X22928100Y84695000D01*
X19928100Y81194000D02*
X23428200Y81194000D01*
X14928100Y80694000D02*
X20928100Y80694000D01*
X20428200Y81694000D02*
X22928100Y81694000D01*
X5928100Y80693900D02*
X5928100Y85694100D01*
X20428200Y81693000D02*
X20428200Y84695000D01*
X19928100Y85194000D02*
X19928100Y81194000D01*
X5928100Y85694000D02*
X14928100Y85694000D01*
X20428200Y84694000D02*
X22928100Y84694000D01*
X14928100Y85694000D02*
X20928100Y85694000D01*
X14928100Y80694000D02*
X5928100Y80694000D01*
X19928100Y85194000D02*
X23429100Y85194000D01*
X20928100Y80694000D02*
X20928100Y81194000D01*
%TO.C,J19*%
X61097650Y24562000D02*
X58597750Y24562000D01*
X75597750Y28562100D02*
X75597750Y23561900D01*
X60597750Y28562000D02*
X60597750Y28062000D01*
X61597750Y28062000D02*
X58097650Y28062000D01*
X61597750Y24062000D02*
X61597750Y28062000D01*
X75597750Y23562000D02*
X66597750Y23562000D01*
X61597750Y24062000D02*
X58096750Y24062000D01*
X61097650Y27563000D02*
X61097650Y24561000D01*
X66597750Y28562000D02*
X60597750Y28562000D01*
X58597750Y27563000D02*
X58597750Y24561000D01*
X66597750Y28562000D02*
X75597750Y28562000D01*
X66597750Y23562000D02*
X60597750Y23562000D01*
X61097650Y27562000D02*
X58597750Y27562000D01*
X58097650Y24062000D02*
X58097650Y28062000D01*
X60597750Y24062000D02*
X60597750Y23562000D01*
%TO.C,J7*%
X20428200Y54694000D02*
X22928100Y54694000D01*
X14928100Y50694000D02*
X5928100Y50694000D01*
X5928100Y55694000D02*
X14928100Y55694000D01*
X19928100Y55194000D02*
X23429100Y55194000D01*
X20428200Y51694000D02*
X22928100Y51694000D01*
X19928100Y55194000D02*
X19928100Y51194000D01*
X5928100Y50693900D02*
X5928100Y55694100D01*
X22928100Y51693000D02*
X22928100Y54695000D01*
X20928100Y55194000D02*
X20928100Y55694000D01*
X20928100Y50694000D02*
X20928100Y51194000D01*
X19928100Y51194000D02*
X23428200Y51194000D01*
X14928100Y55694000D02*
X20928100Y55694000D01*
X14928100Y50694000D02*
X20928100Y50694000D01*
X23428200Y55194000D02*
X23428200Y51194000D01*
X20428200Y51693000D02*
X20428200Y54695000D01*
D14*
%TO.C,F5*%
X35178000Y10978000D02*
X35178000Y17978000D01*
X19178000Y10978000D02*
X35178000Y10978000D01*
X19178000Y17978000D02*
X19178000Y10978000D01*
X35178000Y17978000D02*
X19178000Y17978000D01*
D11*
%TO.C,J13*%
X14928100Y25694000D02*
X20928100Y25694000D01*
X5928100Y30694000D02*
X14928100Y30694000D01*
X20428200Y29694000D02*
X22928100Y29694000D01*
X20928100Y30194000D02*
X20928100Y30694000D01*
X20428200Y26694000D02*
X22928100Y26694000D01*
X22928100Y26693000D02*
X22928100Y29695000D01*
X19928100Y30194000D02*
X19928100Y26194000D01*
X19928100Y30194000D02*
X23429100Y30194000D01*
X20428200Y26693000D02*
X20428200Y29695000D01*
X14928100Y30694000D02*
X20928100Y30694000D01*
X20928100Y25694000D02*
X20928100Y26194000D01*
X23428200Y30194000D02*
X23428200Y26194000D01*
X19928100Y26194000D02*
X23428200Y26194000D01*
X14928100Y25694000D02*
X5928100Y25694000D01*
X5928100Y25693900D02*
X5928100Y30694100D01*
D13*
%TO.C,R2*%
X31000000Y84006072D02*
X31000000Y74766072D01*
X29880000Y84006072D02*
X43120000Y84006072D01*
X42000000Y84006072D02*
X42000000Y74766072D01*
X29880000Y84006072D02*
X29880000Y74766072D01*
X43120000Y84006072D02*
X43120000Y74766072D01*
X29880000Y74766072D02*
X43120000Y74766072D01*
D11*
%TO.C,J22*%
X58176900Y29162000D02*
X58176900Y33162000D01*
X58677000Y32663000D02*
X58677000Y29661000D01*
X66677000Y28662000D02*
X60677000Y28662000D01*
X61176900Y32663000D02*
X61176900Y29661000D01*
X61677000Y33162000D02*
X58176900Y33162000D01*
X61677000Y29162000D02*
X58176000Y29162000D01*
X66677000Y33662000D02*
X75677000Y33662000D01*
X75677000Y33662100D02*
X75677000Y28661900D01*
X60677000Y33662000D02*
X60677000Y33162000D01*
X60677000Y29162000D02*
X60677000Y28662000D01*
X61176900Y32662000D02*
X58677000Y32662000D01*
X61176900Y29662000D02*
X58677000Y29662000D01*
X61677000Y29162000D02*
X61677000Y33162000D01*
X66677000Y33662000D02*
X60677000Y33662000D01*
X75677000Y28662000D02*
X66677000Y28662000D01*
%TO.C,J15*%
X59944000Y85344000D02*
X65024000Y85344000D01*
X65024000Y85344000D02*
X65024000Y67564000D01*
X65024000Y67564000D02*
X59944000Y67564000D01*
X59944000Y67564000D02*
X59944000Y85344000D01*
%TO.C,J5*%
X14928100Y60694000D02*
X5928100Y60694000D01*
X20428200Y61693000D02*
X20428200Y64695000D01*
X20428200Y64694000D02*
X22928100Y64694000D01*
X20928100Y60694000D02*
X20928100Y61194000D01*
X5928100Y65694000D02*
X14928100Y65694000D01*
X19928100Y65194000D02*
X23429100Y65194000D01*
X14928100Y65694000D02*
X20928100Y65694000D01*
X14928100Y60694000D02*
X20928100Y60694000D01*
X22928100Y61693000D02*
X22928100Y64695000D01*
X5928100Y60693900D02*
X5928100Y65694100D01*
X20928100Y65194000D02*
X20928100Y65694000D01*
X23428200Y65194000D02*
X23428200Y61194000D01*
X19928100Y61194000D02*
X23428200Y61194000D01*
X20428200Y61694000D02*
X22928100Y61694000D01*
X19928100Y65194000D02*
X19928100Y61194000D01*
%TO.C,J9*%
X20928100Y45194000D02*
X20928100Y45694000D01*
X19928100Y45194000D02*
X19928100Y41194000D01*
X23428200Y45194000D02*
X23428200Y41194000D01*
X20428200Y44694000D02*
X22928100Y44694000D01*
X22928100Y41693000D02*
X22928100Y44695000D01*
X5928100Y45694000D02*
X14928100Y45694000D01*
X20428200Y41693000D02*
X20428200Y44695000D01*
X14928100Y45694000D02*
X20928100Y45694000D01*
X19928100Y45194000D02*
X23429100Y45194000D01*
X14928100Y40694000D02*
X20928100Y40694000D01*
X20428200Y41694000D02*
X22928100Y41694000D01*
X19928100Y41194000D02*
X23428200Y41194000D01*
X5928100Y40693900D02*
X5928100Y45694100D01*
X14928100Y40694000D02*
X5928100Y40694000D01*
X20928100Y40694000D02*
X20928100Y41194000D01*
D13*
%TO.C,R6*%
X42000000Y41550360D02*
X42000000Y32310360D01*
X31000000Y41550360D02*
X31000000Y32310360D01*
X29880000Y32310360D02*
X43120000Y32310360D01*
X29880000Y41550360D02*
X43120000Y41550360D01*
X29880000Y41550360D02*
X29880000Y32310360D01*
X43120000Y41550360D02*
X43120000Y32310360D01*
D11*
%TO.C,J20*%
X60677000Y38662000D02*
X60677000Y38162000D01*
X66677000Y38662000D02*
X75677000Y38662000D01*
X66677000Y33662000D02*
X60677000Y33662000D01*
X66677000Y38662000D02*
X60677000Y38662000D01*
X75677000Y38662100D02*
X75677000Y33661900D01*
X61176900Y37662000D02*
X58677000Y37662000D01*
X61677000Y38162000D02*
X58176900Y38162000D01*
X75677000Y33662000D02*
X66677000Y33662000D01*
X61677000Y34162000D02*
X58176000Y34162000D01*
X61176900Y37663000D02*
X61176900Y34661000D01*
X58176900Y34162000D02*
X58176900Y38162000D01*
X60677000Y34162000D02*
X60677000Y33662000D01*
X61677000Y34162000D02*
X61677000Y38162000D01*
X61176900Y34662000D02*
X58677000Y34662000D01*
X58677000Y37663000D02*
X58677000Y34661000D01*
D13*
%TO.C,R1*%
X42000000Y94620000D02*
X42000000Y85380000D01*
X29880000Y85380000D02*
X43120000Y85380000D01*
X29880000Y94620000D02*
X43120000Y94620000D01*
X29880000Y94620000D02*
X29880000Y85380000D01*
X31000000Y94620000D02*
X31000000Y85380000D01*
X43120000Y94620000D02*
X43120000Y85380000D01*
D11*
%TO.C,J10*%
X22928100Y36693000D02*
X22928100Y39695000D01*
X20928100Y35694000D02*
X20928100Y36194000D01*
X20428200Y39694000D02*
X22928100Y39694000D01*
X20428200Y36693000D02*
X20428200Y39695000D01*
X19928100Y40194000D02*
X23429100Y40194000D01*
X5928100Y35693900D02*
X5928100Y40694100D01*
X5928100Y40694000D02*
X14928100Y40694000D01*
X19928100Y40194000D02*
X19928100Y36194000D01*
X14928100Y35694000D02*
X20928100Y35694000D01*
X20928100Y40194000D02*
X20928100Y40694000D01*
X20428200Y36694000D02*
X22928100Y36694000D01*
X14928100Y40694000D02*
X20928100Y40694000D01*
X19928100Y36194000D02*
X23428200Y36194000D01*
X14928100Y35694000D02*
X5928100Y35694000D01*
X23428200Y40194000D02*
X23428200Y36194000D01*
%TO.C,J2*%
X5928100Y75693900D02*
X5928100Y80694100D01*
X14928100Y75694000D02*
X5928100Y75694000D01*
X23428200Y80194000D02*
X23428200Y76194000D01*
X19928100Y80194000D02*
X19928100Y76194000D01*
X20428200Y76694000D02*
X22928100Y76694000D01*
X20428200Y79694000D02*
X22928100Y79694000D01*
X19928100Y76194000D02*
X23428200Y76194000D01*
X20928100Y75694000D02*
X20928100Y76194000D01*
X19928100Y80194000D02*
X23429100Y80194000D01*
X14928100Y75694000D02*
X20928100Y75694000D01*
X20928100Y80194000D02*
X20928100Y80694000D01*
X14928100Y80694000D02*
X20928100Y80694000D01*
X20428200Y76693000D02*
X20428200Y79695000D01*
X5928100Y80694000D02*
X14928100Y80694000D01*
X22928100Y76693000D02*
X22928100Y79695000D01*
D14*
%TO.C,F4*%
X37466000Y10978000D02*
X53466000Y10978000D01*
X53466000Y10978000D02*
X53466000Y17978000D01*
X37466000Y17978000D02*
X37466000Y10978000D01*
X53466000Y17978000D02*
X37466000Y17978000D01*
D13*
%TO.C,R3*%
X43120000Y73392144D02*
X43120000Y64152144D01*
X29880000Y73392144D02*
X29880000Y64152144D01*
X29880000Y64152144D02*
X43120000Y64152144D01*
X31000000Y73392144D02*
X31000000Y64152144D01*
X29880000Y73392144D02*
X43120000Y73392144D01*
X42000000Y73392144D02*
X42000000Y64152144D01*
D11*
%TO.C,J16*%
X72540000Y60080000D02*
X72540000Y49920000D01*
X72540000Y49920000D02*
X67460000Y49920000D01*
X67460000Y60080000D02*
X72540000Y60080000D01*
X67460000Y49920000D02*
X67460000Y60080000D01*
D13*
%TO.C,R7*%
X29880000Y30936432D02*
X29880000Y21696432D01*
X31000000Y30936432D02*
X31000000Y21696432D01*
X29880000Y30936432D02*
X43120000Y30936432D01*
X29880000Y21696432D02*
X43120000Y21696432D01*
X42000000Y30936432D02*
X42000000Y21696432D01*
X43120000Y30936432D02*
X43120000Y21696432D01*
D11*
%TO.C,J6*%
X20928100Y55694000D02*
X20928100Y56194000D01*
X19928100Y56194000D02*
X23428200Y56194000D01*
X19928100Y60194000D02*
X19928100Y56194000D01*
X19928100Y60194000D02*
X23429100Y60194000D01*
X20928100Y60194000D02*
X20928100Y60694000D01*
X14928100Y60694000D02*
X20928100Y60694000D01*
X22928100Y56693000D02*
X22928100Y59695000D01*
X5928100Y60694000D02*
X14928100Y60694000D01*
X20428200Y56694000D02*
X22928100Y56694000D01*
X5928100Y55693900D02*
X5928100Y60694100D01*
X14928100Y55694000D02*
X20928100Y55694000D01*
X23428200Y60194000D02*
X23428200Y56194000D01*
X20428200Y56693000D02*
X20428200Y59695000D01*
X14928100Y55694000D02*
X5928100Y55694000D01*
X20428200Y59694000D02*
X22928100Y59694000D01*
%TO.C,J18*%
X61460000Y60080000D02*
X66540000Y60080000D01*
X61460000Y49920000D02*
X61460000Y60080000D01*
X66540000Y49920000D02*
X61460000Y49920000D01*
X66540000Y60080000D02*
X66540000Y49920000D01*
%TO.C,J11*%
X19928100Y31194000D02*
X23428200Y31194000D01*
X5928100Y35694000D02*
X14928100Y35694000D01*
X5928100Y30693900D02*
X5928100Y35694100D01*
X20428200Y31694000D02*
X22928100Y31694000D01*
X14928100Y30694000D02*
X5928100Y30694000D01*
X14928100Y30694000D02*
X20928100Y30694000D01*
X20428200Y34694000D02*
X22928100Y34694000D01*
X19928100Y35194000D02*
X19928100Y31194000D01*
X20928100Y35194000D02*
X20928100Y35694000D01*
X14928100Y35694000D02*
X20928100Y35694000D01*
X20928100Y30694000D02*
X20928100Y31194000D01*
X22928100Y31693000D02*
X22928100Y34695000D01*
X19928100Y35194000D02*
X23429100Y35194000D01*
X23428200Y35194000D02*
X23428200Y31194000D01*
X20428200Y31693000D02*
X20428200Y34695000D01*
D13*
%TO.C,R4*%
X43120000Y62778216D02*
X43120000Y53538216D01*
X29880000Y53538216D02*
X43120000Y53538216D01*
X31000000Y62778216D02*
X31000000Y53538216D01*
X29880000Y62778216D02*
X43120000Y62778216D01*
X42000000Y62778216D02*
X42000000Y53538216D01*
X29880000Y62778216D02*
X29880000Y53538216D01*
D11*
%TO.C,J8*%
X19928100Y50194000D02*
X19928100Y46194000D01*
X14928100Y45694000D02*
X20928100Y45694000D01*
X20928100Y50194000D02*
X20928100Y50694000D01*
X20428200Y46693000D02*
X20428200Y49695000D01*
X23428200Y50194000D02*
X23428200Y46194000D01*
X5928100Y45693900D02*
X5928100Y50694100D01*
X20428200Y46694000D02*
X22928100Y46694000D01*
X5928100Y50694000D02*
X14928100Y50694000D01*
X19928100Y46194000D02*
X23428200Y46194000D01*
X20928100Y45694000D02*
X20928100Y46194000D01*
X14928100Y50694000D02*
X20928100Y50694000D01*
X22928100Y46693000D02*
X22928100Y49695000D01*
X14928100Y45694000D02*
X5928100Y45694000D01*
X20428200Y49694000D02*
X22928100Y49694000D01*
X19928100Y50194000D02*
X23429100Y50194000D01*
%TO.C,J14*%
X75184000Y81026000D02*
X75184000Y73406000D01*
X70104000Y81026000D02*
X75184000Y81026000D01*
X75184000Y73406000D02*
X70104000Y73406000D01*
X70104000Y73406000D02*
X70104000Y81026000D01*
%TD*%
D15*
%TO.C,J15*%
X61214000Y84074000D03*
X63754000Y84074000D03*
X61214000Y81534000D03*
X63754000Y81534000D03*
X61214000Y78994000D03*
X63754000Y78994000D03*
X61214000Y76454000D03*
X63754000Y76454000D03*
X61214000Y73914000D03*
X63754000Y73914000D03*
X61214000Y71374000D03*
X63754000Y71374000D03*
X61214000Y68834000D03*
X63754000Y68834000D03*
%TD*%
%TO.C,J16*%
X68730000Y58810000D03*
X71270000Y58810000D03*
X68730000Y56270000D03*
X71270000Y56270000D03*
X68730000Y53730000D03*
X71270000Y53730000D03*
X68730000Y51190000D03*
X71270000Y51190000D03*
%TD*%
%TO.C,J18*%
X62730000Y58810000D03*
X65270000Y58810000D03*
X62730000Y56270000D03*
X65270000Y56270000D03*
X62730000Y53730000D03*
X65270000Y53730000D03*
X62730000Y51190000D03*
X65270000Y51190000D03*
%TD*%
M02*
