%TF.GenerationSoftware,KiCad,Pcbnew,7.0.5.1-1-g8f565ef7f0-dirty-deb11*%
%TF.CreationDate,2023-07-20T11:17:43+00:00*%
%TF.ProjectId,ISO11446PWR01,49534f31-3134-4343-9650-575230312e6b,rev?*%
%TF.SameCoordinates,Original*%
%TF.FileFunction,Legend,Bot*%
%TF.FilePolarity,Positive*%
%FSLAX46Y46*%
G04 Gerber Fmt 4.6, Leading zero omitted, Abs format (unit mm)*
G04 Created by KiCad (PCBNEW 7.0.5.1-1-g8f565ef7f0-dirty-deb11) date 2023-07-20 11:17:43*
%MOMM*%
%LPD*%
G01*
G04 APERTURE LIST*
%ADD10C,0.150000*%
%ADD11C,0.304800*%
%ADD12C,0.120000*%
G04 APERTURE END LIST*
D10*
%TO.C,U2*%
X50291904Y79336848D02*
X50291904Y78527325D01*
X50291904Y78527325D02*
X50244285Y78432087D01*
X50244285Y78432087D02*
X50196666Y78384467D01*
X50196666Y78384467D02*
X50101428Y78336848D01*
X50101428Y78336848D02*
X49910952Y78336848D01*
X49910952Y78336848D02*
X49815714Y78384467D01*
X49815714Y78384467D02*
X49768095Y78432087D01*
X49768095Y78432087D02*
X49720476Y78527325D01*
X49720476Y78527325D02*
X49720476Y79336848D01*
X49291904Y79241610D02*
X49244285Y79289229D01*
X49244285Y79289229D02*
X49149047Y79336848D01*
X49149047Y79336848D02*
X48910952Y79336848D01*
X48910952Y79336848D02*
X48815714Y79289229D01*
X48815714Y79289229D02*
X48768095Y79241610D01*
X48768095Y79241610D02*
X48720476Y79146372D01*
X48720476Y79146372D02*
X48720476Y79051134D01*
X48720476Y79051134D02*
X48768095Y78908277D01*
X48768095Y78908277D02*
X49339523Y78336848D01*
X49339523Y78336848D02*
X48720476Y78336848D01*
%TO.C,U5*%
X50291904Y47205849D02*
X50291904Y46396326D01*
X50291904Y46396326D02*
X50244285Y46301088D01*
X50244285Y46301088D02*
X50196666Y46253468D01*
X50196666Y46253468D02*
X50101428Y46205849D01*
X50101428Y46205849D02*
X49910952Y46205849D01*
X49910952Y46205849D02*
X49815714Y46253468D01*
X49815714Y46253468D02*
X49768095Y46301088D01*
X49768095Y46301088D02*
X49720476Y46396326D01*
X49720476Y46396326D02*
X49720476Y47205849D01*
X48768095Y47205849D02*
X49244285Y47205849D01*
X49244285Y47205849D02*
X49291904Y46729659D01*
X49291904Y46729659D02*
X49244285Y46777278D01*
X49244285Y46777278D02*
X49149047Y46824897D01*
X49149047Y46824897D02*
X48910952Y46824897D01*
X48910952Y46824897D02*
X48815714Y46777278D01*
X48815714Y46777278D02*
X48768095Y46729659D01*
X48768095Y46729659D02*
X48720476Y46634421D01*
X48720476Y46634421D02*
X48720476Y46396326D01*
X48720476Y46396326D02*
X48768095Y46301088D01*
X48768095Y46301088D02*
X48815714Y46253468D01*
X48815714Y46253468D02*
X48910952Y46205849D01*
X48910952Y46205849D02*
X49149047Y46205849D01*
X49149047Y46205849D02*
X49244285Y46253468D01*
X49244285Y46253468D02*
X49291904Y46301088D01*
%TO.C,U4*%
X55879904Y60362182D02*
X55879904Y59552659D01*
X55879904Y59552659D02*
X55832285Y59457421D01*
X55832285Y59457421D02*
X55784666Y59409801D01*
X55784666Y59409801D02*
X55689428Y59362182D01*
X55689428Y59362182D02*
X55498952Y59362182D01*
X55498952Y59362182D02*
X55403714Y59409801D01*
X55403714Y59409801D02*
X55356095Y59457421D01*
X55356095Y59457421D02*
X55308476Y59552659D01*
X55308476Y59552659D02*
X55308476Y60362182D01*
X54403714Y60028849D02*
X54403714Y59362182D01*
X54641809Y60409801D02*
X54879904Y59695516D01*
X54879904Y59695516D02*
X54260857Y59695516D01*
D11*
%TO.C,F3*%
X60588895Y45508000D02*
X60588895Y46016000D01*
X61387181Y46016000D02*
X59863181Y46016000D01*
X59863181Y46016000D02*
X59863181Y45290286D01*
X59863181Y44854857D02*
X59863181Y43911429D01*
X59863181Y43911429D02*
X60443752Y44419429D01*
X60443752Y44419429D02*
X60443752Y44201714D01*
X60443752Y44201714D02*
X60516324Y44056571D01*
X60516324Y44056571D02*
X60588895Y43984000D01*
X60588895Y43984000D02*
X60734038Y43911429D01*
X60734038Y43911429D02*
X61096895Y43911429D01*
X61096895Y43911429D02*
X61242038Y43984000D01*
X61242038Y43984000D02*
X61314610Y44056571D01*
X61314610Y44056571D02*
X61387181Y44201714D01*
X61387181Y44201714D02*
X61387181Y44637143D01*
X61387181Y44637143D02*
X61314610Y44782286D01*
X61314610Y44782286D02*
X61242038Y44854857D01*
%TO.C,F1*%
X67334895Y45508000D02*
X67334895Y46016000D01*
X68133181Y46016000D02*
X66609181Y46016000D01*
X66609181Y46016000D02*
X66609181Y45290286D01*
X68133181Y43911429D02*
X68133181Y44782286D01*
X68133181Y44346857D02*
X66609181Y44346857D01*
X66609181Y44346857D02*
X66826895Y44492000D01*
X66826895Y44492000D02*
X66972038Y44637143D01*
X66972038Y44637143D02*
X67044610Y44782286D01*
D10*
%TO.C,C2*%
X67878560Y67338567D02*
X67926180Y67386186D01*
X67926180Y67386186D02*
X67973799Y67529043D01*
X67973799Y67529043D02*
X67973799Y67624281D01*
X67973799Y67624281D02*
X67926180Y67767138D01*
X67926180Y67767138D02*
X67830941Y67862376D01*
X67830941Y67862376D02*
X67735703Y67909995D01*
X67735703Y67909995D02*
X67545227Y67957614D01*
X67545227Y67957614D02*
X67402370Y67957614D01*
X67402370Y67957614D02*
X67211894Y67909995D01*
X67211894Y67909995D02*
X67116656Y67862376D01*
X67116656Y67862376D02*
X67021418Y67767138D01*
X67021418Y67767138D02*
X66973799Y67624281D01*
X66973799Y67624281D02*
X66973799Y67529043D01*
X66973799Y67529043D02*
X67021418Y67386186D01*
X67021418Y67386186D02*
X67069037Y67338567D01*
X67069037Y66957614D02*
X67021418Y66909995D01*
X67021418Y66909995D02*
X66973799Y66814757D01*
X66973799Y66814757D02*
X66973799Y66576662D01*
X66973799Y66576662D02*
X67021418Y66481424D01*
X67021418Y66481424D02*
X67069037Y66433805D01*
X67069037Y66433805D02*
X67164275Y66386186D01*
X67164275Y66386186D02*
X67259513Y66386186D01*
X67259513Y66386186D02*
X67402370Y66433805D01*
X67402370Y66433805D02*
X67973799Y67005233D01*
X67973799Y67005233D02*
X67973799Y66386186D01*
%TO.C,D1*%
X75090819Y69572095D02*
X74090819Y69572095D01*
X74090819Y69572095D02*
X74090819Y69334000D01*
X74090819Y69334000D02*
X74138438Y69191143D01*
X74138438Y69191143D02*
X74233676Y69095905D01*
X74233676Y69095905D02*
X74328914Y69048286D01*
X74328914Y69048286D02*
X74519390Y69000667D01*
X74519390Y69000667D02*
X74662247Y69000667D01*
X74662247Y69000667D02*
X74852723Y69048286D01*
X74852723Y69048286D02*
X74947961Y69095905D01*
X74947961Y69095905D02*
X75043200Y69191143D01*
X75043200Y69191143D02*
X75090819Y69334000D01*
X75090819Y69334000D02*
X75090819Y69572095D01*
X75090819Y68048286D02*
X75090819Y68619714D01*
X75090819Y68334000D02*
X74090819Y68334000D01*
X74090819Y68334000D02*
X74233676Y68429238D01*
X74233676Y68429238D02*
X74328914Y68524476D01*
X74328914Y68524476D02*
X74376533Y68619714D01*
%TO.C,U3*%
X56413598Y68945265D02*
X56413598Y68135742D01*
X56413598Y68135742D02*
X56365979Y68040504D01*
X56365979Y68040504D02*
X56318360Y67992884D01*
X56318360Y67992884D02*
X56223122Y67945265D01*
X56223122Y67945265D02*
X56032646Y67945265D01*
X56032646Y67945265D02*
X55937408Y67992884D01*
X55937408Y67992884D02*
X55889789Y68040504D01*
X55889789Y68040504D02*
X55842170Y68135742D01*
X55842170Y68135742D02*
X55842170Y68945265D01*
X55461217Y68945265D02*
X54842170Y68945265D01*
X54842170Y68945265D02*
X55175503Y68564313D01*
X55175503Y68564313D02*
X55032646Y68564313D01*
X55032646Y68564313D02*
X54937408Y68516694D01*
X54937408Y68516694D02*
X54889789Y68469075D01*
X54889789Y68469075D02*
X54842170Y68373837D01*
X54842170Y68373837D02*
X54842170Y68135742D01*
X54842170Y68135742D02*
X54889789Y68040504D01*
X54889789Y68040504D02*
X54937408Y67992884D01*
X54937408Y67992884D02*
X55032646Y67945265D01*
X55032646Y67945265D02*
X55318360Y67945265D01*
X55318360Y67945265D02*
X55413598Y67992884D01*
X55413598Y67992884D02*
X55461217Y68040504D01*
%TO.C,U6*%
X50291904Y36495516D02*
X50291904Y35685993D01*
X50291904Y35685993D02*
X50244285Y35590755D01*
X50244285Y35590755D02*
X50196666Y35543135D01*
X50196666Y35543135D02*
X50101428Y35495516D01*
X50101428Y35495516D02*
X49910952Y35495516D01*
X49910952Y35495516D02*
X49815714Y35543135D01*
X49815714Y35543135D02*
X49768095Y35590755D01*
X49768095Y35590755D02*
X49720476Y35685993D01*
X49720476Y35685993D02*
X49720476Y36495516D01*
X48815714Y36495516D02*
X49006190Y36495516D01*
X49006190Y36495516D02*
X49101428Y36447897D01*
X49101428Y36447897D02*
X49149047Y36400278D01*
X49149047Y36400278D02*
X49244285Y36257421D01*
X49244285Y36257421D02*
X49291904Y36066945D01*
X49291904Y36066945D02*
X49291904Y35685993D01*
X49291904Y35685993D02*
X49244285Y35590755D01*
X49244285Y35590755D02*
X49196666Y35543135D01*
X49196666Y35543135D02*
X49101428Y35495516D01*
X49101428Y35495516D02*
X48910952Y35495516D01*
X48910952Y35495516D02*
X48815714Y35543135D01*
X48815714Y35543135D02*
X48768095Y35590755D01*
X48768095Y35590755D02*
X48720476Y35685993D01*
X48720476Y35685993D02*
X48720476Y35924088D01*
X48720476Y35924088D02*
X48768095Y36019326D01*
X48768095Y36019326D02*
X48815714Y36066945D01*
X48815714Y36066945D02*
X48910952Y36114564D01*
X48910952Y36114564D02*
X49101428Y36114564D01*
X49101428Y36114564D02*
X49196666Y36066945D01*
X49196666Y36066945D02*
X49244285Y36019326D01*
X49244285Y36019326D02*
X49291904Y35924088D01*
%TO.C,U1*%
X50291904Y90047181D02*
X50291904Y89237658D01*
X50291904Y89237658D02*
X50244285Y89142420D01*
X50244285Y89142420D02*
X50196666Y89094800D01*
X50196666Y89094800D02*
X50101428Y89047181D01*
X50101428Y89047181D02*
X49910952Y89047181D01*
X49910952Y89047181D02*
X49815714Y89094800D01*
X49815714Y89094800D02*
X49768095Y89142420D01*
X49768095Y89142420D02*
X49720476Y89237658D01*
X49720476Y89237658D02*
X49720476Y90047181D01*
X48720476Y89047181D02*
X49291904Y89047181D01*
X49006190Y89047181D02*
X49006190Y90047181D01*
X49006190Y90047181D02*
X49101428Y89904324D01*
X49101428Y89904324D02*
X49196666Y89809086D01*
X49196666Y89809086D02*
X49291904Y89761467D01*
%TO.C,U7*%
X50291904Y25785181D02*
X50291904Y24975658D01*
X50291904Y24975658D02*
X50244285Y24880420D01*
X50244285Y24880420D02*
X50196666Y24832800D01*
X50196666Y24832800D02*
X50101428Y24785181D01*
X50101428Y24785181D02*
X49910952Y24785181D01*
X49910952Y24785181D02*
X49815714Y24832800D01*
X49815714Y24832800D02*
X49768095Y24880420D01*
X49768095Y24880420D02*
X49720476Y24975658D01*
X49720476Y24975658D02*
X49720476Y25785181D01*
X49339523Y25785181D02*
X48672857Y25785181D01*
X48672857Y25785181D02*
X49101428Y24785181D01*
D12*
%TO.C,R17*%
X67945000Y72136000D02*
X67183000Y72136000D01*
D10*
X66040000Y72136000D02*
X66040000Y70612000D01*
X69088000Y70612000D02*
X69088000Y72136000D01*
D12*
X67945000Y70612000D02*
X67183000Y70612000D01*
%TO.C,U2*%
X47130000Y83491667D02*
X47130000Y83341667D01*
X51930000Y79491667D02*
X51930000Y79641667D01*
X51930000Y83341667D02*
X51930000Y83491667D01*
X47130000Y79641667D02*
X47130000Y79491667D01*
X47130000Y79491667D02*
X51930000Y79491667D01*
X51930000Y83491667D02*
X47130000Y83491667D01*
X47130000Y79641667D02*
X45430000Y79641667D01*
%TO.C,C1*%
X64516000Y64389000D02*
X64516000Y63627000D01*
X66040000Y64389000D02*
X66040000Y63627000D01*
D10*
X66040000Y65532000D02*
X64516000Y65532000D01*
X64516000Y62484000D02*
X66040000Y62484000D01*
%TO.C,R12*%
X66040000Y79756000D02*
X66040000Y78232000D01*
D12*
X67945000Y78232000D02*
X67183000Y78232000D01*
X67945000Y79756000D02*
X67183000Y79756000D01*
D10*
X69088000Y78232000D02*
X69088000Y79756000D01*
D12*
%TO.C,U5*%
X51930000Y51360668D02*
X47130000Y51360668D01*
X51930000Y51210668D02*
X51930000Y51360668D01*
X47130000Y51360668D02*
X47130000Y51210668D01*
X47130000Y47360668D02*
X51930000Y47360668D01*
X47130000Y47510668D02*
X45430000Y47510668D01*
X47130000Y47510668D02*
X47130000Y47360668D01*
X51930000Y47360668D02*
X51930000Y47510668D01*
D10*
%TO.C,R11*%
X51054000Y75681417D02*
X52578000Y75681417D01*
D12*
X51054000Y76824417D02*
X51054000Y77586417D01*
D10*
X52578000Y78729417D02*
X51054000Y78729417D01*
D12*
X52578000Y76824417D02*
X52578000Y77586417D01*
%TO.C,U4*%
X47130000Y58071001D02*
X51930000Y58071001D01*
X51930000Y58071001D02*
X51930000Y58221001D01*
X51930000Y61921001D02*
X51930000Y62071001D01*
X47130000Y58221001D02*
X47130000Y58071001D01*
X47130000Y62071001D02*
X47130000Y61921001D01*
X47130000Y58221001D02*
X45430000Y58221001D01*
X51930000Y62071001D02*
X47130000Y62071001D01*
D10*
%TO.C,R8*%
X69088000Y83312000D02*
X69088000Y84836000D01*
D12*
X67945000Y83312000D02*
X67183000Y83312000D01*
X67945000Y84836000D02*
X67183000Y84836000D01*
D10*
X66040000Y84836000D02*
X66040000Y83312000D01*
D12*
%TO.C,R16*%
X67945000Y74676000D02*
X67183000Y74676000D01*
D10*
X66040000Y74676000D02*
X66040000Y73152000D01*
X69088000Y73152000D02*
X69088000Y74676000D01*
D12*
X67945000Y73152000D02*
X67183000Y73152000D01*
D10*
%TO.C,F3*%
X62222000Y43857000D02*
X62222000Y46143000D01*
X65778000Y43857000D02*
X65778000Y46143000D01*
%TO.C,R15*%
X51054000Y54324251D02*
X52578000Y54324251D01*
D12*
X51054000Y55467251D02*
X51054000Y56229251D01*
X52578000Y55467251D02*
X52578000Y56229251D01*
D10*
X52578000Y57372251D02*
X51054000Y57372251D01*
%TO.C,F1*%
X69222000Y43857000D02*
X69222000Y46143000D01*
X72778000Y43857000D02*
X72778000Y46143000D01*
%TO.C,R13*%
X69088000Y75692000D02*
X69088000Y77216000D01*
D12*
X67945000Y75692000D02*
X67183000Y75692000D01*
D10*
X66040000Y77216000D02*
X66040000Y75692000D01*
D12*
X67945000Y77216000D02*
X67183000Y77216000D01*
%TO.C,R23*%
X60576500Y36623000D02*
X60576500Y35861000D01*
D10*
X60576500Y34718000D02*
X62100500Y34718000D01*
D12*
X62100500Y36623000D02*
X62100500Y35861000D01*
D10*
X62100500Y37766000D02*
X60576500Y37766000D01*
D12*
%TO.C,R20*%
X51054000Y34110085D02*
X51054000Y34872085D01*
D10*
X52578000Y36015085D02*
X51054000Y36015085D01*
X51054000Y32967085D02*
X52578000Y32967085D01*
D12*
X52578000Y34110085D02*
X52578000Y34872085D01*
%TO.C,R22*%
X59748750Y26469500D02*
X59748750Y25707500D01*
X61272750Y26469500D02*
X61272750Y25707500D01*
D10*
X59748750Y24564500D02*
X61272750Y24564500D01*
X61272750Y27612500D02*
X59748750Y27612500D01*
D12*
%TO.C,C2*%
X68299000Y64335252D02*
X68299000Y63812748D01*
X66829000Y64335252D02*
X66829000Y63812748D01*
%TO.C,D1*%
X73786000Y65434000D02*
X70486000Y65434000D01*
X73786000Y65434000D02*
X73786000Y70834000D01*
X70486000Y65434000D02*
X70486000Y70834000D01*
%TO.C,U3*%
X51930000Y72781334D02*
X47130000Y72781334D01*
X51930000Y68781334D02*
X51930000Y68931334D01*
X47130000Y68931334D02*
X47130000Y68781334D01*
X51930000Y72631334D02*
X51930000Y72781334D01*
X47130000Y68931334D02*
X45430000Y68931334D01*
X47130000Y72781334D02*
X47130000Y72631334D01*
X47130000Y68781334D02*
X51930000Y68781334D01*
%TO.C,U6*%
X51930000Y36650335D02*
X51930000Y36800335D01*
X47130000Y36800335D02*
X47130000Y36650335D01*
X51930000Y40650335D02*
X47130000Y40650335D01*
X51930000Y40500335D02*
X51930000Y40650335D01*
X47130000Y36800335D02*
X45430000Y36800335D01*
X47130000Y36650335D02*
X51930000Y36650335D01*
X47130000Y40650335D02*
X47130000Y40500335D01*
%TO.C,U1*%
X47130000Y94202000D02*
X47130000Y94052000D01*
X51930000Y94052000D02*
X51930000Y94202000D01*
X51930000Y94202000D02*
X47130000Y94202000D01*
X47130000Y90352000D02*
X47130000Y90202000D01*
X47130000Y90202000D02*
X51930000Y90202000D01*
X51930000Y90202000D02*
X51930000Y90352000D01*
X47130000Y90352000D02*
X45430000Y90352000D01*
%TO.C,R14*%
X51054000Y66145834D02*
X51054000Y66907834D01*
D10*
X51054000Y65002834D02*
X52578000Y65002834D01*
D12*
X52578000Y66145834D02*
X52578000Y66907834D01*
D10*
X52578000Y68050834D02*
X51054000Y68050834D01*
%TO.C,R10*%
X51054000Y86360000D02*
X52578000Y86360000D01*
X52578000Y89408000D02*
X51054000Y89408000D01*
D12*
X51054000Y87503000D02*
X51054000Y88265000D01*
X52578000Y87503000D02*
X52578000Y88265000D01*
%TO.C,U7*%
X51930000Y25940000D02*
X51930000Y26090000D01*
X47130000Y26090000D02*
X47130000Y25940000D01*
X51930000Y29790000D02*
X51930000Y29940000D01*
X47130000Y29940000D02*
X47130000Y29790000D01*
X51930000Y29940000D02*
X47130000Y29940000D01*
X47130000Y26090000D02*
X45430000Y26090000D01*
X47130000Y25940000D02*
X51930000Y25940000D01*
D10*
%TO.C,R19*%
X52578000Y46693668D02*
X51054000Y46693668D01*
D12*
X51054000Y44788668D02*
X51054000Y45550668D01*
D10*
X51054000Y43645668D02*
X52578000Y43645668D01*
D12*
X52578000Y44788668D02*
X52578000Y45550668D01*
%TO.C,R18*%
X67945000Y69596000D02*
X67183000Y69596000D01*
D10*
X66040000Y69596000D02*
X66040000Y68072000D01*
D12*
X67945000Y68072000D02*
X67183000Y68072000D01*
D10*
X69088000Y68072000D02*
X69088000Y69596000D01*
D12*
%TO.C,R9*%
X67945000Y80772000D02*
X67183000Y80772000D01*
D10*
X66040000Y82296000D02*
X66040000Y80772000D01*
X69088000Y80772000D02*
X69088000Y82296000D01*
D12*
X67945000Y82296000D02*
X67183000Y82296000D01*
%TO.C,R21*%
X51054000Y23431500D02*
X51054000Y24193500D01*
D10*
X52578000Y25336500D02*
X51054000Y25336500D01*
X51054000Y22288500D02*
X52578000Y22288500D01*
D12*
X52578000Y23431500D02*
X52578000Y24193500D01*
%TD*%
M02*
