%TF.GenerationSoftware,KiCad,Pcbnew,6.0.11+dfsg-1~bpo11+1*%
%TF.CreationDate,2023-05-29T01:09:48+00:00*%
%TF.ProjectId,ISO11446PWR01,49534f31-3134-4343-9650-575230312e6b,rev?*%
%TF.SameCoordinates,Original*%
%TF.FileFunction,Paste,Bot*%
%TF.FilePolarity,Positive*%
%FSLAX46Y46*%
G04 Gerber Fmt 4.6, Leading zero omitted, Abs format (unit mm)*
G04 Created by KiCad (PCBNEW 6.0.11+dfsg-1~bpo11+1) date 2023-05-29 01:09:48*
%MOMM*%
%LPD*%
G01*
G04 APERTURE LIST*
G04 Aperture macros list*
%AMRoundRect*
0 Rectangle with rounded corners*
0 $1 Rounding radius*
0 $2 $3 $4 $5 $6 $7 $8 $9 X,Y pos of 4 corners*
0 Add a 4 corners polygon primitive as box body*
4,1,4,$2,$3,$4,$5,$6,$7,$8,$9,$2,$3,0*
0 Add four circle primitives for the rounded corners*
1,1,$1+$1,$2,$3*
1,1,$1+$1,$4,$5*
1,1,$1+$1,$6,$7*
1,1,$1+$1,$8,$9*
0 Add four rect primitives between the rounded corners*
20,1,$1+$1,$2,$3,$4,$5,0*
20,1,$1+$1,$4,$5,$6,$7,0*
20,1,$1+$1,$6,$7,$8,$9,0*
20,1,$1+$1,$8,$9,$2,$3,0*%
%AMFreePoly0*
4,1,23,0.405000,0.745865,0.430885,0.748318,0.514326,0.717475,0.576139,0.653497,0.604092,0.569043,0.592655,0.480821,0.586333,0.471118,0.535041,0.293601,0.507443,0.099107,0.507318,-0.097336,0.534670,-0.291865,0.585847,-0.469827,0.592286,-0.479814,0.603303,-0.568089,0.574948,-0.652409,0.512833,-0.716092,0.429245,-0.746538,0.405000,-0.744124,0.405000,-0.750000,-0.645000,-0.750000,
-0.645000,0.750000,0.405000,0.750000,0.405000,0.745865,0.405000,0.745865,$1*%
G04 Aperture macros list end*
%ADD10FreePoly0,180.000000*%
%ADD11FreePoly0,0.000000*%
%ADD12R,0.889000X1.397000*%
%ADD13R,2.000000X0.640000*%
%ADD14R,1.397000X0.889000*%
%ADD15FreePoly0,90.000000*%
%ADD16FreePoly0,270.000000*%
%ADD17R,3.400000X1.900000*%
%ADD18RoundRect,0.250000X-0.475000X0.250000X-0.475000X-0.250000X0.475000X-0.250000X0.475000X0.250000X0*%
%ADD19R,1.800000X2.500000*%
G04 APERTURE END LIST*
D10*
%TO.C,D5*%
X49657000Y55118000D03*
D11*
X45847000Y55118000D03*
%TD*%
D12*
%TO.C,R17*%
X68516500Y71374000D03*
X66611500Y71374000D03*
%TD*%
D13*
%TO.C,U2*%
X46380000Y80221667D03*
X46380000Y82761667D03*
X52680000Y82761667D03*
X52680000Y80221667D03*
%TD*%
D14*
%TO.C,C1*%
X65278000Y64960500D03*
X65278000Y63055500D03*
%TD*%
D12*
%TO.C,R12*%
X68516500Y78994000D03*
X66611500Y78994000D03*
%TD*%
D15*
%TO.C,D10*%
X61338500Y29257000D03*
D16*
X61338500Y33067000D03*
%TD*%
D13*
%TO.C,U5*%
X46380000Y48090668D03*
X46380000Y50630668D03*
X52680000Y50630668D03*
X52680000Y48090668D03*
%TD*%
D15*
%TO.C,D9*%
X60510750Y19421000D03*
D16*
X60510750Y23231000D03*
%TD*%
D14*
%TO.C,R11*%
X51816000Y76252917D03*
X51816000Y78157917D03*
%TD*%
D13*
%TO.C,U4*%
X46380000Y58801001D03*
X46380000Y61341001D03*
X52680000Y61341001D03*
X52680000Y58801001D03*
%TD*%
D12*
%TO.C,R8*%
X68516500Y84074000D03*
X66611500Y84074000D03*
%TD*%
%TO.C,R16*%
X68516500Y73914000D03*
X66611500Y73914000D03*
%TD*%
D10*
%TO.C,D3*%
X49657000Y76454000D03*
D11*
X45847000Y76454000D03*
%TD*%
D10*
%TO.C,D8*%
X49657000Y23114000D03*
D11*
X45847000Y23114000D03*
%TD*%
D17*
%TO.C,F3*%
X64000000Y43050000D03*
X64000000Y46950000D03*
%TD*%
D14*
%TO.C,R15*%
X51816000Y54895751D03*
X51816000Y56800751D03*
%TD*%
D17*
%TO.C,F1*%
X71000000Y43050000D03*
X71000000Y46950000D03*
%TD*%
D12*
%TO.C,R13*%
X68516500Y76454000D03*
X66611500Y76454000D03*
%TD*%
D14*
%TO.C,R23*%
X61338500Y37194500D03*
X61338500Y35289500D03*
%TD*%
%TO.C,R20*%
X51816000Y33538585D03*
X51816000Y35443585D03*
%TD*%
D10*
%TO.C,D7*%
X49657000Y33782000D03*
D11*
X45847000Y33782000D03*
%TD*%
D10*
%TO.C,D4*%
X49657000Y65786000D03*
D11*
X45847000Y65786000D03*
%TD*%
D10*
%TO.C,D6*%
X49657000Y44450000D03*
D11*
X45847000Y44450000D03*
%TD*%
D14*
%TO.C,R22*%
X60510750Y27041000D03*
X60510750Y25136000D03*
%TD*%
D18*
%TO.C,C2*%
X67564000Y65024000D03*
X67564000Y63124000D03*
%TD*%
D10*
%TO.C,D2*%
X49657000Y87122000D03*
D11*
X45847000Y87122000D03*
%TD*%
D19*
%TO.C,D1*%
X72136000Y66834000D03*
X72136000Y70834000D03*
%TD*%
D13*
%TO.C,U3*%
X46380000Y69511334D03*
X46380000Y72051334D03*
X52680000Y72051334D03*
X52680000Y69511334D03*
%TD*%
%TO.C,U6*%
X46380000Y37380335D03*
X46380000Y39920335D03*
X52680000Y39920335D03*
X52680000Y37380335D03*
%TD*%
%TO.C,U1*%
X46380000Y90932000D03*
X46380000Y93472000D03*
X52680000Y93472000D03*
X52680000Y90932000D03*
%TD*%
D14*
%TO.C,R14*%
X51816000Y65574334D03*
X51816000Y67479334D03*
%TD*%
%TO.C,R10*%
X51816000Y86931500D03*
X51816000Y88836500D03*
%TD*%
D13*
%TO.C,U7*%
X46380000Y26670000D03*
X46380000Y29210000D03*
X52680000Y29210000D03*
X52680000Y26670000D03*
%TD*%
D14*
%TO.C,R19*%
X51816000Y44217168D03*
X51816000Y46122168D03*
%TD*%
D12*
%TO.C,R18*%
X68516500Y68834000D03*
X66611500Y68834000D03*
%TD*%
%TO.C,R9*%
X68516500Y81534000D03*
X66611500Y81534000D03*
%TD*%
D14*
%TO.C,R21*%
X51816000Y22860000D03*
X51816000Y24765000D03*
%TD*%
M02*
