M48
; DRILL file {KiCad 7.0.7-7.0.7~ubuntu23.04.1} date Sun Sep 17 11:46:32 2023
; FORMAT={3:3/ absolute / metric / suppress leading zeros}
; #@! TF.CreationDate,2023-09-17T11:46:32+00:00
; #@! TF.GenerationSoftware,Kicad,Pcbnew,7.0.7-7.0.7~ubuntu23.04.1
; #@! TF.FileFunction,Plated,1,2,PTH
FMAT,2
METRIC,TZ
; #@! TA.AperFunction,Plated,PTH,ComponentDrill
T1C0.889
; #@! TA.AperFunction,Plated,PTH,ComponentDrill
T2C1.200
; #@! TA.AperFunction,Plated,PTH,ComponentDrill
T3C1.300
; #@! TA.AperFunction,Plated,PTH,ComponentDrill
T4C1.650
; #@! TA.AperFunction,Plated,PTH,ComponentDrill
T5C3.000
%
G90
G05
T1
X61214Y84074
X61214Y81534
X61214Y78994
X61214Y76454
X61214Y73914
X61214Y71374
X61214Y68834
X62730Y58810
X62730Y56270
X62730Y53730
X62730Y51190
X63754Y84074
X63754Y81534
X63754Y78994
X63754Y76454
X63754Y73914
X63754Y71374
X63754Y68834
X65270Y58810
X65270Y56270
X65270Y53730
X65270Y51190
X68730Y58810
X68730Y56270
X68730Y53730
X68730Y51190
X71270Y58810
X71270Y56270
X71270Y53730
X71270Y51190
X71374Y79756
X71374Y77216
X71374Y74676
X73914Y79756
X73914Y77216
X73914Y74676
T2
X34000Y90000
X34000Y79386
X34000Y68772
X34000Y58158
X34000Y47544
X34000Y36930
X34000Y26316
X39000Y90000
X39000Y79386
X39000Y68772
X39000Y58158
X39000Y47544
X39000Y36930
X39000Y26316
T3
X10928Y83544
X10928Y78544
X10928Y73544
X10928Y68544
X10928Y63544
X10928Y58544
X10928Y53544
X10928Y48544
X10928Y43544
X10928Y38544
X10928Y33544
X10928Y28544
X15928Y83544
X15928Y78544
X15928Y73544
X15928Y68544
X15928Y63544
X15928Y58544
X15928Y53544
X15928Y48544
X15928Y43544
X15928Y38544
X15928Y33544
X15928Y28544
X65598Y25712
X65598Y20712
X65677Y35812
X65677Y30812
X70598Y25712
X70598Y20712
X70677Y35812
X70677Y30812
T4
X22308Y16178
X22308Y12778
X32048Y16178
X32048Y12778
X40596Y16178
X40596Y12778
X50336Y16178
X50336Y12778
T5
X10160Y91440
X10160Y10160
X71120Y91440
X71120Y10160
T0
M30
